<?xml version="1.0" encoding="UTF-8"?>
<svg width="1920" height="1080" version="1.1" viewBox="0 0 1920 1080" xml:space="preserve" xmlns="http://www.w3.org/2000/svg"><defs><filter id="e" x="-.53464" y="-.1802" width="2.0693" height="1.3604" color-interpolation-filters="sRGB"><feGaussianBlur stdDeviation="4.0260309"/></filter><filter id="d" x="-.48246" y="-.15931" width="1.9649" height="1.3186" color-interpolation-filters="sRGB"><feGaussianBlur stdDeviation="3.531397"/></filter><filter id="c" x="-.48246" y="-.15691" width="1.9649" height="1.3138" color-interpolation-filters="sRGB"><feGaussianBlur stdDeviation="3.531397"/></filter><filter id="b" x="-.48246" y="-.15931" width="1.9649" height="1.3186" color-interpolation-filters="sRGB"><feGaussianBlur stdDeviation="3.531397"/></filter><filter id="a" x="-.15032" y="-.059028" width="1.2997" height="1.118" color-interpolation-filters="sRGB"><feGaussianBlur stdDeviation="2.1836201"/></filter></defs><g transform="translate(-3796)" stroke-linejoin="round"><g transform="matrix(2.5615 0 0 1.8983 2330.9 -.42657)" fill="none" opacity=".769" stroke="#d8b4f6" stroke-linecap="round" stroke-width="5"><path transform="translate(24.086 -86.522)" d="m936.58 306.99h22.749v68.894h-22.749z" filter="url(#b)" opacity="1"/><path d="m936.58 394.76h22.749v68.894h-22.749z" filter="url(#d)"/><path d="m888.41 393.71h22.749v69.947h-22.749z" filter="url(#c)"/><path d="m1032.9 549.24v-67.495h22.749v67.495z" filter="url(#e)"/></g><path d="m5016.9 925.3c4.0167 14.006 5.2345 28.347 6.6722 42.594 0.9233 19.856 0.6152 39.913-2.7587 59.732-1.776 5.8138-5.766 13.913-14.018 15.929-1.0767 0.2631-2.2366 0.2758-3.3551 0.4138-9.3914-1.0163-20.095-2.0193-22.768-7.8745-6.2228-19.191-3.0171-46.981-3.0229-66.627 0.7706-16.739-1.7975-35.84 6.8885-51.533 3.5935-4.9878 14.846-5.8484 22.643-4.7539 5.4667 1.5785 8.196 5.3238 10.424 9.1027 4.9151 8.4321 6.6849 17.53 8.3058 26.562 2.4902 18.031 3.2918 36.168 2.3929 54.275-0.868 10.502-3.5517 20.791-8.4485 30.654-0.7187 1.4454-3.4767 0.6922-2.7581-0.7532 4.8031-9.6439 7.4068-19.711 8.2693-29.981 0.8968-17.984 0.095-35.999-2.3696-53.908-1.5805-8.8322-3.29-17.734-8.0886-25.982-1.8055-3.1142-3.9633-6.3404-8.3219-7.8357-6.2374-1.0637-16.419-0.47754-19.331 3.4501-8.5989 15.406-5.8425 34.269-6.6669 50.703 0 19.412-3.2089 46.959 2.8694 65.932 2.1617 4.789 12.09 5.0331 19.559 6.4133 8.7325-0.7558 13.117-8.5975 14.879-14.462 3.395-19.668 3.6037-39.589 2.7438-59.295-1.4281-14.158-2.6324-28.41-6.6235-42.329-0.4077-1.5104 2.4747-1.9377 2.8824-0.42725z" fill="#a783f6" filter="url(#a)" stroke="#8a1fe4" stroke-width="5" style="mix-blend-mode:normal"/><path d="m5016.9 925.3c4.0167 14.006 5.2345 28.347 6.6722 42.594 0.9233 19.856 0.6152 39.913-2.7587 59.732-1.776 5.8138-5.766 13.913-14.018 15.929-1.0767 0.2631-2.2366 0.2758-3.3551 0.4138-9.3914-1.0163-20.095-2.0193-22.768-7.8745-6.2228-19.191-3.0171-46.981-3.0229-66.627 0.7706-16.739-1.7975-35.84 6.8885-51.533 3.5935-4.9878 14.846-5.8484 22.643-4.7539 5.4667 1.5785 8.196 5.3238 10.424 9.1027 4.9151 8.4321 6.6849 17.53 8.3058 26.562 2.4902 18.031 3.2918 36.168 2.3929 54.275-0.868 10.502-3.5517 20.791-8.4485 30.654-0.7187 1.4454-3.4767 0.6922-2.7581-0.7532 4.8031-9.6439 7.4068-19.711 8.2693-29.981 0.8968-17.984 0.095-35.999-2.3696-53.908-1.5805-8.8322-3.29-17.734-8.0886-25.982-1.8055-3.1142-3.9633-6.3404-8.3219-7.8357-6.2374-1.0637-16.419-0.47754-19.331 3.4501-8.5989 15.406-5.8425 34.269-6.6669 50.703 0 19.412-3.2089 46.959 2.8694 65.932 2.1617 4.789 12.09 5.0331 19.559 6.4133 8.7325-0.7558 13.117-8.5975 14.879-14.462 3.395-19.668 3.6037-39.589 2.7438-59.295-1.4281-14.158-2.6324-28.41-6.6235-42.329-0.4077-1.5104 2.4747-1.9377 2.8824-0.42725z" fill="#a783f6" stroke="#a783f6"/><g transform="translate(-567.1 -21.213)" fill="#a783f6"><path d="m5337.9 782.47c4.0167 14.006 5.2345 28.347 6.6722 42.594 0.9233 19.856 0.6152 39.913-2.7587 59.732-1.776 5.8138-5.766 13.913-14.018 15.929-1.0767 0.2631-2.2366 0.2758-3.3551 0.4138-9.3914-1.0163-20.095-2.0193-22.768-7.8745-6.2228-19.191-3.0171-46.981-3.0229-66.627 0.7706-16.739-1.7975-35.84 6.8885-51.533 3.5935-4.9878 14.846-5.8484 22.643-4.7539 5.4667 1.5785 8.196 5.3238 10.424 9.1027 4.9151 8.4321 6.6849 17.53 8.3058 26.562 2.4902 18.031 3.2918 36.168 2.3929 54.275-0.868 10.502-3.5517 20.791-8.4485 30.654-0.7187 1.4454-3.4767 0.6922-2.7581-0.7532 4.8031-9.6439 7.4068-19.711 8.2693-29.981 0.8968-17.984 0.095-35.999-2.3696-53.908-1.5805-8.8322-3.29-17.734-8.0886-25.982-1.8055-3.1142-3.9633-6.3404-8.3219-7.8357-6.2374-1.0637-16.419-0.47754-19.331 3.4501-8.5989 15.406-5.8425 34.269-6.6669 50.703 0 19.412-3.2089 46.959 2.8694 65.932 2.1617 4.789 12.09 5.0331 19.559 6.4133 8.7325-0.7558 13.117-8.5975 14.879-14.462 3.395-19.668 3.6037-39.589 2.7438-59.295-1.4281-14.158-2.6324-28.41-6.6235-42.329-0.4077-1.5104 2.4747-1.9377 2.8824-0.42725z" filter="url(#a)" stroke="#8a1fe4" stroke-width="5" style="mix-blend-mode:normal"/><path d="m5337.9 782.47c4.0167 14.006 5.2345 28.347 6.6722 42.594 0.9233 19.856 0.6152 39.913-2.7587 59.732-1.776 5.8138-5.766 13.913-14.018 15.929-1.0767 0.2631-2.2366 0.2758-3.3551 0.4138-9.3914-1.0163-20.095-2.0193-22.768-7.8745-6.2228-19.191-3.0171-46.981-3.0229-66.627 0.7706-16.739-1.7975-35.84 6.8885-51.533 3.5935-4.9878 14.846-5.8484 22.643-4.7539 5.4667 1.5785 8.196 5.3238 10.424 9.1027 4.9151 8.4321 6.6849 17.53 8.3058 26.562 2.4902 18.031 3.2918 36.168 2.3929 54.275-0.868 10.502-3.5517 20.791-8.4485 30.654-0.7187 1.4454-3.4767 0.6922-2.7581-0.7532 4.8031-9.6439 7.4068-19.711 8.2693-29.981 0.8968-17.984 0.095-35.999-2.3696-53.908-1.5805-8.8322-3.29-17.734-8.0886-25.982-1.8055-3.1142-3.9633-6.3404-8.3219-7.8357-6.2374-1.0637-16.419-0.47754-19.331 3.4501-8.5989 15.406-5.8425 34.269-6.6669 50.703 0 19.412-3.2089 46.959 2.8694 65.932 2.1617 4.789 12.09 5.0331 19.559 6.4133 8.7325-0.7558 13.117-8.5975 14.879-14.462 3.395-19.668 3.6037-39.589 2.7438-59.295-1.4281-14.158-2.6324-28.41-6.6235-42.329-0.4077-1.5104 2.4747-1.9377 2.8824-0.42725z" stroke="#a783f6"/></g><g transform="translate(-690.96 -22.627)" fill="#a783f6"><path d="m5337.9 782.47c4.0167 14.006 5.2345 28.347 6.6722 42.594 0.9233 19.856 0.6152 39.913-2.7587 59.732-1.776 5.8138-5.766 13.913-14.018 15.929-1.0767 0.2631-2.2366 0.2758-3.3551 0.4138-9.3914-1.0163-20.095-2.0193-22.768-7.8745-6.2228-19.191-3.0171-46.981-3.0229-66.627 0.7706-16.739-1.7975-35.84 6.8885-51.533 3.5935-4.9878 14.846-5.8484 22.643-4.7539 5.4667 1.5785 8.196 5.3238 10.424 9.1027 4.9151 8.4321 6.6849 17.53 8.3058 26.562 2.4902 18.031 3.2918 36.168 2.3929 54.275-0.868 10.502-3.5517 20.791-8.4485 30.654-0.7187 1.4454-3.4767 0.6922-2.7581-0.7532 4.8031-9.6439 7.4068-19.711 8.2693-29.981 0.8968-17.984 0.095-35.999-2.3696-53.908-1.5805-8.8322-3.29-17.734-8.0886-25.982-1.8055-3.1142-3.9633-6.3404-8.3219-7.8357-6.2374-1.0637-16.419-0.47754-19.331 3.4501-8.5989 15.406-5.8425 34.269-6.6669 50.703 0 19.412-3.2089 46.959 2.8694 65.932 2.1617 4.789 12.09 5.0331 19.559 6.4133 8.7325-0.7558 13.117-8.5975 14.879-14.462 3.395-19.668 3.6037-39.589 2.7438-59.295-1.4281-14.158-2.6324-28.41-6.6235-42.329-0.4077-1.5104 2.4747-1.9377 2.8824-0.42725z" filter="url(#a)" stroke="#8a1fe4" stroke-width="5" style="mix-blend-mode:normal"/><path d="m5337.9 782.47c4.0167 14.006 5.2345 28.347 6.6722 42.594 0.9233 19.856 0.6152 39.913-2.7587 59.732-1.776 5.8138-5.766 13.913-14.018 15.929-1.0767 0.2631-2.2366 0.2758-3.3551 0.4138-9.3914-1.0163-20.095-2.0193-22.768-7.8745-6.2228-19.191-3.0171-46.981-3.0229-66.627 0.7706-16.739-1.7975-35.84 6.8885-51.533 3.5935-4.9878 14.846-5.8484 22.643-4.7539 5.4667 1.5785 8.196 5.3238 10.424 9.1027 4.9151 8.4321 6.6849 17.53 8.3058 26.562 2.4902 18.031 3.2918 36.168 2.3929 54.275-0.868 10.502-3.5517 20.791-8.4485 30.654-0.7187 1.4454-3.4767 0.6922-2.7581-0.7532 4.8031-9.6439 7.4068-19.711 8.2693-29.981 0.8968-17.984 0.095-35.999-2.3696-53.908-1.5805-8.8322-3.29-17.734-8.0886-25.982-1.8055-3.1142-3.9633-6.3404-8.3219-7.8357-6.2374-1.0637-16.419-0.47754-19.331 3.4501-8.5989 15.406-5.8425 34.269-6.6669 50.703 0 19.412-3.2089 46.959 2.8694 65.932 2.1617 4.789 12.09 5.0331 19.559 6.4133 8.7325-0.7558 13.117-8.5975 14.879-14.462 3.395-19.668 3.6037-39.589 2.7438-59.295-1.4281-14.158-2.6324-28.41-6.6235-42.329-0.4077-1.5104 2.4747-1.9377 2.8824-0.42725z" stroke="#a783f6"/></g><g transform="translate(-503.7 -352.14)" fill="#a783f6"><path d="m5337.9 782.47c4.0167 14.006 5.2345 28.347 6.6722 42.594 0.9233 19.856 0.6152 39.913-2.7587 59.732-1.776 5.8138-5.766 13.913-14.018 15.929-1.0767 0.2631-2.2366 0.2758-3.3551 0.4138-9.3914-1.0163-20.095-2.0193-22.768-7.8745-6.2228-19.191-3.0171-46.981-3.0229-66.627 0.7706-16.739-1.7975-35.84 6.8885-51.533 3.5935-4.9878 14.846-5.8484 22.643-4.7539 5.4667 1.5785 8.196 5.3238 10.424 9.1027 4.9151 8.4321 6.6849 17.53 8.3058 26.562 2.4902 18.031 3.2918 36.168 2.3929 54.275-0.868 10.502-3.5517 20.791-8.4485 30.654-0.7187 1.4454-3.4767 0.6922-2.7581-0.7532 4.8031-9.6439 7.4068-19.711 8.2693-29.981 0.8968-17.984 0.095-35.999-2.3696-53.908-1.5805-8.8322-3.29-17.734-8.0886-25.982-1.8055-3.1142-3.9633-6.3404-8.3219-7.8357-6.2374-1.0637-16.419-0.47754-19.331 3.4501-8.5989 15.406-5.8425 34.269-6.6669 50.703 0 19.412-3.2089 46.959 2.8694 65.932 2.1617 4.789 12.09 5.0331 19.559 6.4133 8.7325-0.7558 13.117-8.5975 14.879-14.462 3.395-19.668 3.6037-39.589 2.7438-59.295-1.4281-14.158-2.6324-28.41-6.6235-42.329-0.4077-1.5104 2.4747-1.9377 2.8824-0.42725z" filter="url(#a)" stroke="#8a1fe4" stroke-width="5" style="mix-blend-mode:normal"/><path d="m5337.9 782.47c4.0167 14.006 5.2345 28.347 6.6722 42.594 0.9233 19.856 0.6152 39.913-2.7587 59.732-1.776 5.8138-5.766 13.913-14.018 15.929-1.0767 0.2631-2.2366 0.2758-3.3551 0.4138-9.3914-1.0163-20.095-2.0193-22.768-7.8745-6.2228-19.191-3.0171-46.981-3.0229-66.627 0.7706-16.739-1.7975-35.84 6.8885-51.533 3.5935-4.9878 14.846-5.8484 22.643-4.7539 5.4667 1.5785 8.196 5.3238 10.424 9.1027 4.9151 8.4321 6.6849 17.53 8.3058 26.562 2.4902 18.031 3.2918 36.168 2.3929 54.275-0.868 10.502-3.5517 20.791-8.4485 30.654-0.7187 1.4454-3.4767 0.6922-2.7581-0.7532 4.8031-9.6439 7.4068-19.711 8.2693-29.981 0.8968-17.984 0.095-35.999-2.3696-53.908-1.5805-8.8322-3.29-17.734-8.0886-25.982-1.8055-3.1142-3.9633-6.3404-8.3219-7.8357-6.2374-1.0637-16.419-0.47754-19.331 3.4501-8.5989 15.406-5.8425 34.269-6.6669 50.703 0 19.412-3.2089 46.959 2.8694 65.932 2.1617 4.789 12.09 5.0331 19.559 6.4133 8.7325-0.7558 13.117-8.5975 14.879-14.462 3.395-19.668 3.6037-39.589 2.7438-59.295-1.4281-14.158-2.6324-28.41-6.6235-42.329-0.4077-1.5104 2.4747-1.9377 2.8824-0.42725z" stroke="#a783f6"/></g></g></svg>
