<?xml version="1.0" encoding="UTF-8" standalone="no"?>
<!-- Created with Inkscape (http://www.inkscape.org/) -->

<svg
   width="68"
   height="148"
   viewBox="0 0 68 148"
   version="1.1"
   id="svg1"
   xml:space="preserve"
   sodipodi:docname="bookcase_blacklight_single.svg"
   inkscape:version="1.4 (e7c3feb1, 2024-10-09)"
   xmlns:inkscape="http://www.inkscape.org/namespaces/inkscape"
   xmlns:sodipodi="http://sodipodi.sourceforge.net/DTD/sodipodi-0.dtd"
   xmlns="http://www.w3.org/2000/svg"
   xmlns:svg="http://www.w3.org/2000/svg"><sodipodi:namedview
     id="namedview1"
     pagecolor="#ffffff"
     bordercolor="#000000"
     borderopacity="0.25"
     inkscape:showpageshadow="2"
     inkscape:pageopacity="0.0"
     inkscape:pagecheckerboard="0"
     inkscape:deskcolor="#d1d1d1"
     inkscape:zoom="6.4624084"
     inkscape:cx="33.888295"
     inkscape:cy="74.353085"
     inkscape:window-width="2056"
     inkscape:window-height="1164"
     inkscape:window-x="0"
     inkscape:window-y="44"
     inkscape:window-maximized="1"
     inkscape:current-layer="svg1" /><defs
     id="defs1"><filter
       style="color-interpolation-filters:sRGB"
       id="filter1950"
       x="-0.15031643"
       y="-0.059027717"
       width="1.2996599"
       height="1.1180229"><feGaussianBlur
         stdDeviation="2.1836201"
         id="feGaussianBlur1950" /></filter></defs><g
     id="layer24"
     transform="translate(-4786.1741,-409.18103)"><g
       id="g1962"
       transform="translate(-503.70263,-352.13915)"><path
         style="mix-blend-mode:normal;fill:#a783f6;fill-opacity:1;stroke:#8a1fe4;stroke-width:5;stroke-linejoin:round;stroke-dasharray:none;stroke-opacity:1;filter:url(#filter1950)"
         id="path1961"
         d="m 5337.9207,782.46895 c 4.0167,14.00646 5.2345,28.3473 6.6722,42.59397 0.9233,19.85617 0.6152,39.91292 -2.7587,59.73182 -1.776,5.8138 -5.766,13.9127 -14.0176,15.9293 -1.0767,0.2631 -2.2366,0.2758 -3.3551,0.4138 -9.3914,-1.0163 -20.0949,-2.0193 -22.7676,-7.8745 -6.2228,-19.1914 -3.0171,-46.9812 -3.0229,-66.62678 0.7706,-16.73906 -1.7975,-35.84034 6.8885,-51.53324 3.5935,-4.98777 14.8456,-5.84845 22.6428,-4.75386 5.4667,1.57848 8.196,5.32376 10.4243,9.10268 4.9151,8.43209 6.6849,17.53023 8.3058,26.56179 2.4902,18.03085 3.2918,36.1678 2.3929,54.27491 -0.868,10.5019 -3.5517,20.7907 -8.4485,30.654 -0.7187,1.4454 -3.4767,0.6922 -2.7581,-0.7532 v 0 c 4.8031,-9.6439 7.4068,-19.7111 8.2693,-29.9811 0.8968,-17.98449 0.095,-35.99852 -2.3696,-53.90778 -1.5805,-8.83221 -3.29,-17.73371 -8.0886,-25.9822 -1.8055,-3.11419 -3.9633,-6.3404 -8.3219,-7.83568 -6.2374,-1.06369 -16.4194,-0.47754 -19.3306,3.45008 -8.5989,15.40626 -5.8425,34.2693 -6.6669,50.7033 0,19.41182 -3.2089,46.95948 2.8694,65.93248 2.1617,4.789 12.0897,5.0331 19.559,6.4133 8.7325,-0.7558 13.1167,-8.5975 14.8792,-14.4618 3.395,-19.6675 3.6037,-39.58917 2.7438,-59.29491 -1.4281,-14.15776 -2.6324,-28.40999 -6.6235,-42.32913 -0.4077,-1.51045 2.4747,-1.93766 2.8824,-0.42725 z" /><path
         style="fill:#a783f6;fill-opacity:1;stroke:#a783f6;stroke-width:1;stroke-linejoin:round;stroke-dasharray:none;stroke-opacity:1"
         id="path1962"
         d="m 5337.9207,782.46895 c 4.0167,14.00646 5.2345,28.3473 6.6722,42.59397 0.9233,19.85617 0.6152,39.91292 -2.7587,59.73182 -1.776,5.8138 -5.766,13.9127 -14.0176,15.9293 -1.0767,0.2631 -2.2366,0.2758 -3.3551,0.4138 -9.3914,-1.0163 -20.0949,-2.0193 -22.7676,-7.8745 -6.2228,-19.1914 -3.0171,-46.9812 -3.0229,-66.62678 0.7706,-16.73906 -1.7975,-35.84034 6.8885,-51.53324 3.5935,-4.98777 14.8456,-5.84845 22.6428,-4.75386 5.4667,1.57848 8.196,5.32376 10.4243,9.10268 4.9151,8.43209 6.6849,17.53023 8.3058,26.56179 2.4902,18.03085 3.2918,36.1678 2.3929,54.27491 -0.868,10.5019 -3.5517,20.7907 -8.4485,30.654 -0.7187,1.4454 -3.4767,0.6922 -2.7581,-0.7532 v 0 c 4.8031,-9.6439 7.4068,-19.7111 8.2693,-29.9811 0.8968,-17.98449 0.095,-35.99852 -2.3696,-53.90778 -1.5805,-8.83221 -3.29,-17.73371 -8.0886,-25.9822 -1.8055,-3.11419 -3.9633,-6.3404 -8.3219,-7.83568 -6.2374,-1.06369 -16.4194,-0.47754 -19.3306,3.45008 -8.5989,15.40626 -5.8425,34.2693 -6.6669,50.7033 0,19.41182 -3.2089,46.95948 2.8694,65.93248 2.1617,4.789 12.0897,5.0331 19.559,6.4133 8.7325,-0.7558 13.1167,-8.5975 14.8792,-14.4618 3.395,-19.6675 3.6037,-39.58917 2.7438,-59.29491 -1.4281,-14.15776 -2.6324,-28.40999 -6.6235,-42.32913 -0.4077,-1.51045 2.4747,-1.93766 2.8824,-0.42725 z" /></g></g></svg>
