<?xml version="1.0" encoding="UTF-8" standalone="no"?>
<!-- Created with Inkscape (http://www.inkscape.org/) -->

<svg
   width="243"
   height="165"
   viewBox="0 0 243 165"
   version="1.1"
   id="svg1"
   xml:space="preserve"
   sodipodi:docname="note.svg"
   inkscape:version="1.4 (e7c3feb1, 2024-10-09)"
   xmlns:inkscape="http://www.inkscape.org/namespaces/inkscape"
   xmlns:sodipodi="http://sodipodi.sourceforge.net/DTD/sodipodi-0.dtd"
   xmlns:xlink="http://www.w3.org/1999/xlink"
   xmlns="http://www.w3.org/2000/svg"
   xmlns:svg="http://www.w3.org/2000/svg"><sodipodi:namedview
     id="namedview1"
     pagecolor="#ffffff"
     bordercolor="#000000"
     borderopacity="0.25"
     inkscape:showpageshadow="2"
     inkscape:pageopacity="0.0"
     inkscape:pagecheckerboard="0"
     inkscape:deskcolor="#d1d1d1"
     inkscape:zoom="0.61350813"
     inkscape:cx="73.348662"
     inkscape:cy="141.80741"
     inkscape:window-width="2056"
     inkscape:window-height="1167"
     inkscape:window-x="0"
     inkscape:window-y="44"
     inkscape:window-maximized="1"
     inkscape:current-layer="g1546" /><defs
     id="defs1"><linearGradient
       id="linearGradient803"><stop
         style="stop-color:#ffffff;stop-opacity:1;"
         offset="0"
         id="stop803" /><stop
         style="stop-color:#eeeeee;stop-opacity:0;"
         offset="1"
         id="stop804" /></linearGradient><filter
       style="color-interpolation-filters:sRGB"
       id="filter1854"
       x="-0.15911516"
       y="-0.27722765"
       width="1.3182303"
       height="1.5544553"><feGaussianBlur
         stdDeviation="30.795656"
         id="feGaussianBlur1854" /></filter><radialGradient
       xlink:href="#linearGradient803"
       id="radialGradient1546"
       gradientUnits="userSpaceOnUse"
       gradientTransform="matrix(1,0,0,0.92727278,-4.335545,9.1199065)"
       cx="941.60577"
       cy="161.85486"
       fx="941.60577"
       fy="161.85486"
       r="24.087589" /></defs><g
     id="g1546"
     style="display:inline"
     transform="translate(-4069.0566,-298.70134)"><g
       id="g1537"
       style="display:inline"
       transform="matrix(0.31174849,0,0,0.31174849,3900.2038,278.1358)"><rect
         style="display:inline;fill:#d2d2d2;fill-opacity:1;stroke:#a8a8a8;stroke-width:8;stroke-linecap:round;stroke-linejoin:round;stroke-dasharray:none;stroke-opacity:1"
         id="rect1535"
         width="589.91125"
         height="338.58032"
         x="635.49524"
         y="159.8322" /><ellipse
         style="display:inline;fill:#626262;fill-opacity:1;stroke:#404040;stroke-width:4;stroke-linecap:round;stroke-linejoin:round;stroke-dasharray:none;stroke-opacity:1"
         id="ellipse1535"
         cx="936.83228"
         cy="172.78015"
         rx="24.087589"
         ry="22.335766" /><ellipse
         style="display:inline;fill:url(#radialGradient1546);fill-opacity:1;stroke:none;stroke-width:4;stroke-linecap:round;stroke-linejoin:round;stroke-dasharray:none;stroke-opacity:1"
         id="ellipse1536"
         cx="936.83228"
         cy="172.78015"
         rx="24.087589"
         ry="22.335766" /><ellipse
         style="display:inline;fill:none;fill-opacity:1;stroke:#404040;stroke-width:4;stroke-linecap:round;stroke-linejoin:round;stroke-dasharray:none;stroke-opacity:1"
         id="ellipse1537"
         cx="936.83228"
         cy="172.78015"
         rx="24.087589"
         ry="22.335766" /></g><path
       style="opacity:1;fill:#2b2b2b;fill-opacity:1;stroke:none;stroke-width:21.1957;stroke-linecap:round;stroke-linejoin:round;stroke-dasharray:none;stroke-opacity:0.924078"
       id="path1537"
       d="m 4115.0055,356.91748 c 0.6184,-5.97551 2.0133,-11.35025 4.0012,-15.90955 0.2672,-0.3616 0.4979,-0.87085 0.8019,-1.08552 0.2265,-0.16049 0.961,-0.0199 0.7212,0.01 -1.3761,0.17741 -2.7817,-0.14184 -4.1308,0.43082 -0.2665,0.11321 0.4379,0.66176 0.627,1.0568 0.5233,1.09183 0.9254,2.3987 1.3474,3.64192 0.8644,2.04042 1.5119,5.22387 2.7839,6.4598 0.2215,0.21474 0.4723,0.35707 0.7176,0.3345 1.853,-0.16995 3.6979,-0.60604 5.5469,-0.90906 1.644,-3.13546 3.1365,-6.63165 5.1799,-8.75968 0.3742,-0.38966 0.7758,-0.6625 1.1635,-0.99377 3.3273,-0.37162 -1.7261,-0.10326 -2.5567,0.29389 -0.3292,0.15751 0.6268,0.52304 0.9201,0.86239 0.8515,0.98474 1.5686,2.45014 2.3176,3.70956 1.4813,2.69234 3.2659,2.93557 5.1617,3.00094 2.0932,-0.0933 4.0967,1.15155 6.1194,2.03643 3.0624,0.83831 6.6604,2.52718 9.3771,-1.01509 0.8597,-1.44179 1.34,-3.51843 1.8931,-5.42734 0,0 -4.6929,-0.52244 -4.6929,-0.52244 v 0 c -0.5755,1.79049 -1.0928,3.70988 -1.9946,4.92829 -1.857,1.83386 -3.9086,0.78247 2.6602,1.15454 0.2601,0.0149 -0.5203,0.0617 -0.78,0.0351 -0.3937,-0.0401 -1.3385,-0.35157 -1.7172,-0.46792 -2.0466,-0.8234 -4.0552,-2.17911 -6.1605,-2.21551 -1.8217,-3.3e-4 -3.6232,0.12043 -5.1072,-2.35885 -0.6442,-1.04129 -2.5652,-4.81923 -3.2803,-4.99542 -4.6964,-1.15718 -4.138,-1.19423 -6.8455,-0.10227 -1.1322,1.12007 -1.2763,1.14899 -2.3415,2.70262 -1.4601,2.12992 -2.604,4.97132 -4.0862,7.03679 1.3324,0.17965 2.6699,0.25226 3.9979,0.53854 0.2364,0.0508 -0.4735,0.26983 -0.7052,0.17045 -1.1832,-0.50625 -2.1558,-4.36042 -2.8491,-6.05375 -0.1816,-0.57646 -1.6069,-5.19224 -1.8998,-5.29359 -1.7925,-0.62065 -3.6284,-0.59612 -5.4471,-0.64586 -0.2463,-0.005 -0.4879,0.21822 -0.6965,0.47795 -0.2791,0.34754 -0.4931,0.87319 -0.7395,1.30978 -1.8931,4.91389 -3.2798,10.4799 -4.1753,16.44197 z" /><path
       style="opacity:1;fill:#2b2b2b;fill-opacity:1;stroke:none;stroke-width:22.2314;stroke-linecap:round;stroke-linejoin:round;stroke-dasharray:none;stroke-opacity:0.924078"
       id="path1538"
       d="m 4116.718,382.61519 c 1.2289,-4.7631 2.9588,-8.86824 4.7264,-12.82792 0.7503,-1.39657 1.4316,-3.03366 2.3316,-4.05819 1.2556,-1.42929 6.9975,-0.6725 -3.7432,-0.29861 1.1745,0.99628 1.7466,3.71602 2.4244,5.74288 0.2488,0.74135 0.5138,1.45676 0.7708,2.18511 1.1693,2.70304 2.1947,6.83792 4.0435,7.74452 1.8378,-0.29471 3.7001,-0.21473 5.514,-0.88555 0.2596,-0.0963 0.316,-0.86241 0.4524,-1.3223 0.8152,-2.74948 1.5639,-5.4255 2.5433,-7.96394 0.4424,-0.84274 0.9759,-1.99523 1.5367,-2.5595 0.2339,-0.23514 0.5012,-0.28732 0.7518,-0.4305 -1.4268,0.0766 -2.8598,-0.0525 -4.2804,0.23067 -0.2588,0.0525 0.5101,0.2436 0.745,0.4705 0.2924,0.28235 0.5492,0.69695 0.8239,1.04548 1.6562,3.06666 3.2265,6.29901 5.2035,8.51062 5.4018,2.90415 6.4322,1.561 8.7938,-5.28615 0.6967,-2.00775 1.3623,-4.19002 2.3783,-5.61626 0.1767,-0.2491 0.7918,-0.57524 0.5765,-0.59188 -1.5146,-0.11695 -3.0297,0.1901 -4.5446,0.28615 0.1493,0.13885 0.3295,0.18314 0.4467,0.41629 0.7293,1.4491 1.0856,4.04463 1.4718,5.87961 0.6397,3.03847 0.3514,1.72075 1.0227,4.6497 1.5746,6.02361 2.061,4.87151 6.7286,3.04136 0.1144,-0.0406 0.3762,-2.26088 0.4999,-3.2173 0.3058,-2.18598 0.9433,-6.43572 2.1692,-7.25576 0.1966,-0.13213 0.4158,-0.0199 0.6238,-0.0311 -6.2771,0.48616 -5.239,-0.71588 -3.4211,0.97745 1.053,0.98093 1.9909,2.41296 3.0235,3.47491 2.2885,1.01915 1.6259,0.83698 6.1936,-0.33722 0.2264,-0.058 0.2904,-0.76039 0.4964,-0.96189 0.3327,-0.32552 0.7072,-0.4472 1.0712,-0.57191 0.4516,-0.15427 1.8249,-0.22021 1.3676,-0.26224 -1.1153,-0.10177 -2.2325,0.0538 -3.3487,0.0811 2.0647,0.21524 3.9429,2.0441 5.9126,3.07052 6.7054,0.19309 5.4618,2.0649 7.119,-7.35539 0.6673,-2.81714 1.1737,-6.87719 2.6127,-8.60383 0.1717,-0.20529 0.3819,-0.22495 0.5728,-0.33682 2.1892,0.81424 -1.0585,-0.46692 -4.0649,0.45526 -0.2413,0.0742 0.3924,0.59952 0.5614,0.95838 0.8129,1.72583 1.4297,3.94057 2.0735,5.91736 1.6012,4.80756 3.3196,9.49208 5.4754,13.32856 2.5055,3.76121 4.8502,2.23294 8.078,2.02581 0.075,-0.18314 0.1667,-0.3454 0.2264,-0.55043 0.1568,-0.52697 0.2583,-1.56931 0.3461,-2.05015 0.1394,-0.76146 0.2937,-1.5113 0.4571,-2.25234 0.7099,-3.21842 0.8946,-3.76716 1.7603,-7.05271 2.0762,-7.57252 4.3841,-13.7401 7.9236,-18.62853 0.3673,-0.34074 0.7147,-0.79042 1.1016,-1.02363 0.31,-0.18637 1.2869,-0.23166 0.9637,-0.22021 -1.3748,0.0455 -2.7675,-0.15751 -4.1218,0.32669 -0.3021,0.10799 0.5685,0.49427 0.8196,0.85358 0.6597,0.944 1.0232,2.02944 1.5301,3.28473 1.5621,4.63238 3.1118,9.25907 4.82,13.67577 1.8448,4.81338 2.2765,3.55023 6.6168,2.17424 0.025,-0.002 0.1867,-1.68096 0.2748,-2.55052 0.2903,-1.72149 0.463,-4.28838 1.2538,-5.46357 0.1319,-0.19433 0.3135,-0.159 0.4705,-0.23887 -1.5176,0.13735 -3.0352,0.27478 -4.5528,0.41223 0.2041,0.33059 0.4392,0.59876 0.6151,0.99293 0.3581,0.80145 1.1621,3.44472 1.4086,4.23951 0.6973,2.24796 1.3932,4.4965 2.0969,6.7361 1.7329,4.74879 2.5396,3.00908 6.6748,2.42896 0.2165,-0.0311 1.5662,-3.05581 1.7714,-3.46784 0.5263,-0.82365 0.8423,-1.49673 1.5079,-1.8384 0.2842,-0.14581 1.1693,-0.1473 0.8764,-0.13212 -1.3317,0.0697 -2.6771,-0.11347 -3.9942,0.29588 -0.3742,0.1167 0.7358,0.36568 1.0954,0.60532 0.3936,0.26224 0.7743,0.59868 1.1615,0.89797 1.4387,1.20809 2.8132,3.0432 4.4276,2.97435 5.9804,-0.25525 4.1878,1.41441 6.7182,-1.41651 1.2389,-2.07843 2.2357,-4.6491 3.4017,-6.88906 2.0347,0.21126 -1.9424,-0.21872 -4.3585,0.3255 -0.1916,0.0406 0.327,0.40974 0.4763,0.65397 0.209,0.34186 0.4043,0.71896 0.5959,1.10119 0.072,0.14257 1.2367,2.64275 1.3001,2.77866 2.8845,5.69001 2.6478,3.91029 7.8772,3.46237 0.4723,-3.04518 0.5852,-6.26375 0.999,-9.35661 0.4171,-1.93763 1.292,-5.38124 2.4627,-5.80967 0.1617,-0.0592 0.3282,0.0311 0.4924,0.0525 -6.8903,-0.27127 -4.9526,-0.86014 -3.0329,2.05169 0.9283,1.40825 1.8313,2.82784 2.7933,4.14396 2.0606,2.93563 4.4184,4.25285 6.8639,5.0642 2.9802,0.51329 6.2484,2.20452 8.9474,-0.91703 0.092,-0.11346 0.1841,-0.22693 0.2759,-0.34034 0,0 -5.1029,-1.08139 -5.1029,-1.08139 v 0 c -0.087,0.10103 -0.1742,0.2018 -0.2593,0.30328 -0.2364,0.24559 -0.4399,0.48668 -0.7014,0.62565 -0.1717,0.0903 -0.6975,0.17741 -0.5211,0.18986 8.3131,0.61259 4.0758,0.0951 2.2793,-0.2135 -2.4303,-0.66768 -4.8044,-1.75265 -6.8654,-4.62121 -0.9578,-1.2643 -1.8352,-2.63027 -2.723,-4.08773 -0.042,-0.0709 -1.2551,-2.12392 -1.3825,-2.15271 -1.86,-0.42137 -3.7399,-0.29825 -5.6098,-0.44769 -1.528,0.98598 -2.3499,4.10713 -2.9046,6.97423 -0.2889,2.19317 -0.249,1.74379 -0.4635,3.94754 -0.1269,1.29547 -0.1742,2.92893 -0.4643,4.14167 -0.04,0.16373 -0.1245,0.26398 -0.1867,0.39553 1.6067,0.0311 3.2139,0.0199 4.8203,0.0995 0.122,0.002 -0.2413,0.17293 -0.359,0.11844 -0.8132,-0.37618 -1.609,-2.37589 -2.2502,-3.31616 -2.0827,-4.39831 -3.9474,-10.99057 -8.0807,-4.89716 -1.0525,2.27623 -1.9909,4.84162 -3.2917,6.56289 -2.1185,1.77947 -0.899,0.48163 3.1775,0.99165 0.3417,0.0406 -0.686,0.15129 -1.0267,0.0796 -1.2456,-0.26224 -2.2934,-1.7304 -3.4211,-2.68207 -0.2165,-0.18563 -1.9229,-1.70671 -2.2163,-1.7511 -3.6603,-0.55439 -5.8181,-2.08608 -8.33,2.30091 -0.2683,0.52224 -0.9418,1.88846 -1.27,2.326 -0.1643,0.21797 -0.7299,0.43654 -0.5358,0.47859 1.489,0.32005 2.9919,0.24759 4.4881,0.37073 -0.1916,-0.1809 -0.4103,-0.27478 -0.5765,-0.54234 -0.2364,-0.38243 -0.4066,-0.91206 -0.6099,-1.36816 -1.3981,-4.15682 -2.601,-8.56716 -4.0213,-12.67745 -1.8503,-0.0819 -3.7016,-0.39454 -5.5508,-0.24559 -0.7495,0.06 -1.56,5.39803 -1.7229,6.58842 -0.06,0.42438 -0.1045,0.85918 -0.1792,1.274 -0.037,0.20827 -0.2635,0.56773 -0.1543,0.58539 1.6204,0.26282 3.2507,0.12069 4.8761,0.17991 0.1119,0.002 -0.2364,0.0741 -0.3392,-0.0149 -0.4407,-0.37583 -0.8104,-1.44273 -1.0936,-2.092 -1.7871,-4.29475 -3.3517,-8.89606 -4.8262,-13.65534 -0.3576,-0.96904 -1.6679,-4.72441 -2.3174,-4.87724 -3.3751,-0.79353 -5.2562,-1.64157 -7.7806,1.38311 -3.3014,5.0716 -5.7718,11.77826 -7.8,19.08169 -0.9592,3.39295 -1.1058,3.83241 -1.9538,7.10853 -0.2964,1.14558 -0.5382,2.34822 -0.843,3.48476 -0.1021,0.38283 -0.1618,0.368 -0.3429,0.54292 9.4,0.22668 5.0467,0.73589 3.2813,-0.39852 -0.6112,-0.393 -0.7109,-0.59821 -1.2857,-1.2684 -2.2703,-3.52505 -4.042,-8.10431 -5.5623,-12.9966 -2.2825,-7.50043 -2.4575,-10.81781 -8.499,-7.94237 -1.691,2.12952 -2.3659,6.19298 -3.1081,9.75576 -0.327,1.67225 -0.5967,3.70338 -1.0595,5.25545 -0.082,0.27478 -0.1891,0.52866 -0.3195,0.71264 -0.092,0.13213 -0.439,0.19458 -0.3255,0.20305 1.5201,0.11893 3.0422,0.0858 4.5633,0.12864 -2.0775,-0.55257 -3.9858,-2.91102 -6.106,-3.19747 -2.1111,0.0124 -4.2234,-0.10003 -6.3337,0.0224 -0.9677,0.0577 -1.761,0.55292 -2.6294,1.35606 -0.1742,0.16224 -0.6748,0.5993 -0.4834,0.64479 1.4745,0.35008 2.9685,0.14606 4.4512,0.29745 0.1991,0.0199 -0.3978,0.063 -0.5969,0.095 -0.7985,-0.63043 -1.483,-1.51626 -2.2163,-2.41704 -2.6237,-3.22205 -3.018,-2.83926 -7.4168,-2.25488 -0.214,0.16945 -0.4467,0.2596 -0.6403,0.5085 -1.2665,1.62599 -1.7099,5.22291 -2.1513,7.88504 -0.09,0.53994 -0.1543,1.09856 -0.2675,1.61968 -0.082,0.37386 -0.5089,0.98483 -0.3108,1.04861 1.5743,0.50636 3.1852,0.26338 4.778,0.38827 0.1393,0.0124 -0.2989,0.10451 -0.4166,-0.0455 -0.405,-0.51752 -0.8602,-2.31712 -1.059,-2.98564 -0.5454,-2.28703 -0.5456,-2.20567 -1.0333,-4.59591 -0.4263,-2.08914 -0.7562,-4.45768 -1.3477,-6.3922 -0.1269,-0.41781 -0.3118,-0.75124 -0.4675,-1.12684 -1.8396,0.0916 -3.6857,-0.0525 -5.5191,0.27448 -0.7285,0.12889 -2.4698,5.41943 -2.9043,6.63204 -0.519,1.43736 -1.0289,3.09117 -1.7933,4.05802 -0.1941,0.24534 -0.8565,0.50084 -0.6295,0.54837 1.1914,0.25057 6.3371,0.3232 3.5916,0.1794 -2.0708,-1.84601 -3.6536,-5.10889 -5.217,-8.35354 -0.1717,-0.26806 -1.2284,-2.0638 -1.5474,-2.10068 -4.1888,-0.48464 -5.6084,-1.62293 -7.9434,3.66318 -0.7285,2.00471 -1.3917,4.06446 -2.0588,6.15496 -0.1891,0.5904 -0.3593,1.20672 -0.5705,1.76417 -0.1394,0.36525 -0.6983,0.91917 -0.4743,0.99262 1.5052,0.49328 3.0469,0.23365 4.5702,0.35048 -0.1717,0.0455 -0.3426,0.17965 -0.5148,0.13984 -1.3126,-0.30601 -2.8431,-5.07868 -3.6411,-6.93736 -1.001,-2.89262 -1.7376,-6.30784 -3.0434,-8.68365 -5.9766,-0.24361 -5.2344,-2.05164 -8.5396,5.00712 -1.7744,4.12656 -3.4958,8.36461 -4.9504,12.99065 z" /><path
       style="opacity:1;fill:#000000;fill-opacity:1;stroke:#000000;stroke-width:4.97656;stroke-linecap:round;stroke-linejoin:round;stroke-dasharray:none;stroke-opacity:1"
       d="m 4110.8715,372.12036 c 2.5428,0 5.0855,0 7.6283,0 6.1754,0 12.3506,0 18.526,0 2.5259,0 5.1169,0.25114 7.6283,0 7.288,-0.72882 14.4585,-1.08977 21.7952,-1.08977 5.6655,0 13.6527,0.67726 19.0706,0 0.7433,-0.0928 1.4383,-0.43895 2.1795,-0.54488 2.4876,-0.35535 5.1513,0.41288 7.6284,0 0.4006,-0.0667 0.6892,-0.4781 1.0898,-0.54486 1.5771,-0.26286 3.3353,0.3137 4.9039,0 0.5631,-0.11272 1.068,-0.45048 1.6346,-0.54488 1.0749,-0.17916 2.2006,0.21374 3.2693,0 0.3982,-0.0796 0.6915,-0.46524 1.0897,-0.54489 2.2538,-0.45075 4.7976,0.25398 7.0834,0 2.8968,-0.32186 5.7991,-0.79787 8.7181,-1.08977 4.317,-0.43166 8.7561,0.39283 13.0772,0 1.279,-0.1162 2.5351,-0.4286 3.8141,-0.54486 2.8159,-0.25599 4.2788,0.15627 7.0833,-0.54488 3.5976,-0.89936 9.986,0.48372 13.6221,1.08974 1.5177,0.25294 3.363,0 4.904,0 1.5579,0 4.812,0.63671 5.9937,-0.54486"
       id="path1544" /><path
       style="opacity:1;fill:#2b2b2b;fill-opacity:1;stroke:none;stroke-width:19.395;stroke-linecap:round;stroke-linejoin:round;stroke-dasharray:none;stroke-opacity:0.746204"
       id="path1545"
       d="m 4180.3548,419.88916 c 0.3142,-0.24087 0.7475,-0.55414 1.0339,-0.83721 1.108,-1.09487 1.9266,-2.41669 2.8786,-3.6161 2.981,-4.27969 5.3961,-8.84994 7.5537,-13.51386 0.3524,-0.79232 0.6761,-1.59551 1.0568,-2.37698 0.2439,-0.50141 0.2439,-1.29435 0.8169,-1.46841 1.7488,-0.53045 3.667,-0.51032 5.5101,-0.45082 0.2886,0.01 0.3794,0.40449 0.4941,0.64459 0.3551,0.74451 0.7274,2.49243 0.8918,3.16626 0.5497,2.72044 1.0528,5.44772 1.6092,8.16714 0.3593,1.75668 0.8127,4.00613 1.2817,5.75833 0.1792,0.67062 0.4103,1.32919 0.6154,1.99379 1.044,1.8684 1.3548,1.72219 -3.8049,1.21826 -0.3314,-0.0321 0.4945,-0.41049 0.6933,-0.65297 1.1814,-1.44211 1.8841,-3.17498 2.8237,-4.73869 1.5123,-2.95349 0.8223,-1.56709 2.2879,-4.58852 0.6132,-1.26384 1.1817,-2.54581 1.8272,-3.79632 0.1393,-0.27077 0.7079,-1.20468 0.9241,-1.56319 2.9601,-0.0174 5.164,-1.37709 5.6153,0.88123 0.1892,1.00818 0.3596,2.01936 0.4611,3.03879 0.4795,3.11271 1.0541,6.23188 2.0325,9.25088 1.0629,2.337 0.9209,1.02896 -3.9064,1.55426 -0.1667,0.0174 0.3568,0.044 0.4987,-0.0356 0.2488,-0.1391 0.4354,-0.36036 0.5994,-0.57945 0.3006,-0.40198 1.1829,-2.07859 1.3723,-2.42901 0.8082,-1.56401 1.6166,-3.12797 2.426,-4.69143 0.4601,-0.88847 0.7734,-1.55319 1.3027,-2.38622 0.1592,-0.25226 0.3466,-0.49016 0.5198,-0.73523 0.204,-0.16025 0.3426,-0.45215 0.6103,-0.48081 3.0188,-0.32291 5.2277,-0.83865 7.4572,0.78189 0.9901,0.71963 1.4579,1.30809 2.2892,2.19128 0.3717,0.48701 0.7661,0.96043 1.1155,1.46099 1.4745,2.11387 2.6861,4.43442 3.4,6.85146 0.042,0.19484 0.077,0.39134 0.1294,0.58405 0.025,0.0951 0.214,0.27212 0.107,0.2778 -1.6244,0.0851 -3.2542,-0.0602 -4.8806,-0.0279 -0.075,10e-4 0.1046,0.13063 0.1792,0.12118 0.2065,-0.0256 0.5877,-0.54116 0.6308,-0.59052 1.8903,-2.90336 2.816,-6.22456 3.6635,-9.47715 0.6004,-2.66624 0.6288,-2.5736 1.0386,-5.25535 0.209,-1.36908 0.311,-2.75082 0.5342,-4.11811 0.072,-0.44094 -0.1791,-1.16001 0.2844,-1.31217 1.6649,-0.54762 3.5219,-0.34599 5.2829,-0.519 0.1543,0.13959 0.3441,0.25211 0.4601,0.4187 0.4001,0.57509 1.0831,2.21054 1.2887,2.69608 1.0142,2.39378 1.9261,4.82177 2.8946,7.23067 1.5738,3.87692 0.4541,1.09594 1.7684,4.40877 0.1543,0.39066 0.2891,0.78878 0.4683,1.17086 0.085,0.18214 0.5387,0.48638 0.323,0.51664 -1.5131,0.21175 -6.5758,0.17343 -4.5919,0.10351 1.0842,-1.47906 1.3205,-3.40158 1.7435,-5.09199 0.1842,-1.24409 0.3424,-2.47355 0.384,-3.72932 0,-0.26876 -0.274,-0.72618 0,-0.80662 4.8372,-1.37353 4.4612,-2.02823 5.1545,-0.39074 0.7191,2.35668 1.2949,4.74876 2.0782,7.08972 0.4484,1.46403 0.8669,2.93614 1.3404,4.39368 0.09,0.27224 0.1692,0.54702 0.2755,0.81394 0.055,0.13462 0.3603,0.3715 0.204,0.3877 -1.6012,0.16522 -3.2226,0.0602 -4.834,0.0903 0.047,0.0199 0.095,0.0789 0.1419,0.06 0.3297,-0.12864 0.7415,-1.68494 0.8621,-1.96069 0.6696,-2.52369 1.1596,-5.0854 1.6207,-7.64592 0.4725,-2.76391 0.8101,-5.54456 1.2969,-8.3067 1.7062,-0.12666 3.4079,-0.32545 5.1186,-0.38021 0,-2.5e-4 0.1219,0.30202 0.1767,0.52097 0.1244,0.50176 0.1916,1.01542 0.3145,1.51753 0.1891,1.00792 0.3354,1.82871 1.1142,2.61339 1.9449,2.31661 3.8905,4.63241 5.7719,6.99202 1.9878,2.55684 4.0688,5.11253 5.3694,8.03265 l -4.9974,0.0642 c -0.032,-0.17816 -0.045,-0.35981 -0.095,-0.53473 -0.7462,-2.65314 -2.6851,-5.12208 -4.3781,-7.33541 -1.9235,-2.47226 -4.1114,-4.72756 -6.4056,-6.91496 -0.1045,-0.099 -0.6293,-0.57572 -0.7373,-0.74188 -0.3605,-0.55511 -0.3593,-1.48058 -0.4571,-2.10817 -0.1294,-0.48967 -0.2015,-1.00716 -0.4048,-1.47974 -0.037,-0.0863 -0.057,-0.19881 -0.1468,-0.24385 -0.052,-0.0261 -0.1991,0.0971 -0.1394,0.0993 1.6199,0.0684 3.2425,0.0669 4.8639,0.10028 -0.7229,1.4173 -1.0185,2.9685 -1.3273,4.4918 -0.4969,2.45322 -0.2628,1.2053 -0.6905,3.6728 -0.3951,2.55403 -0.7472,5.11387 -1.1478,7.66702 -0.1941,0.776 -0.269,1.60773 -0.7214,2.30604 -1.7157,-0.0945 -3.4545,-0.0124 -5.1468,-0.28364 -0.204,-0.0326 -0.067,-0.37115 -0.095,-0.55752 -0.042,-0.28212 -0.07,-0.56584 -0.1145,-0.84776 -0.2289,-1.48184 -0.568,-2.92846 -0.9408,-4.38552 -0.4461,-1.59999 -0.9381,-3.18866 -1.5427,-4.74588 -0.3028,-0.78045 -0.5825,-1.56555 -1.1085,-2.24515 -0.067,0.0597 -0.2989,0.17319 -0.2041,0.17916 1.6124,0.105 3.2646,-0.17294 4.8479,0.12317 0.2765,0.0515 -0.1368,0.49661 -0.1866,0.74802 -0.2535,1.23905 -0.4402,2.49493 -0.6594,3.73937 -0.4133,1.7472 -0.6064,3.55812 -1.2974,5.24196 -1.0256,1.52346 -0.4787,0.86451 -5.2995,0.0254 -0.261,-0.0455 -0.097,-0.4738 -0.1394,-0.71158 -0.072,-0.40295 -0.1269,-0.80862 -0.2065,-1.21045 -0.4419,-2.23127 -0.4312,-1.97599 -1.1384,-4.40364 -0.8037,-2.46897 -1.8286,-4.87613 -3.0631,-7.19449 -0.2983,-0.56054 -1.0985,-2.10815 -1.7549,-2.61342 -0.1891,-0.14507 -0.4738,-0.12541 -0.7107,-0.18786 1.4325,0.13237 2.9807,-0.13064 4.2978,0.39683 0.4078,0.16348 -0.4166,0.71809 -0.5562,1.10154 -0.214,0.5882 -0.3531,1.19721 -0.5016,1.80188 -0.1841,0.74614 -0.3222,1.50066 -0.4929,2.24924 -0.4006,1.75775 -0.8222,3.51151 -1.2268,5.26854 -0.8146,3.22018 -1.47,6.51059 -2.7995,9.60031 -1.0727,2.09777 -1.378,1.21724 -5.6624,0.54767 -0.1617,-0.0254 -0.025,-0.29658 -0.035,-0.4451 0,-0.20379 -0.025,-0.40795 -0.025,-0.61194 -0.3083,-2.38761 -1.4106,-4.68795 -2.8418,-6.6998 -0.3504,-0.49228 -0.7582,-0.94888 -1.1372,-1.42333 -1.0396,-1.03452 -2.1227,-2.14639 -3.617,-2.64912 -0.3269,-0.10973 -1.3752,-0.18239 -1.0266,-0.18164 4.4627,0.01 4.9581,-0.40112 3.3447,0.50136 -0.1965,0.2023 -0.4078,0.39287 -0.5882,0.60679 -1.7032,2.02041 -2.9703,4.65672 -4.1084,6.97165 -0.2115,0.4495 -0.4208,0.89953 -0.6333,1.3485 -0.05,0.10376 -0.8982,2.08246 -1.2939,2.05027 -5.5999,-0.45558 -4.8927,0.73182 -5.5075,-1.95517 -0.5472,-3.12275 -1.3009,-6.20904 -2.02,-9.3014 -0.1916,-1.02793 -0.5504,-2.01511 -0.9354,-2.99325 -0.025,-0.099 -0.042,-0.27287 -0.09,-0.36941 -0.067,-0.13661 -0.1767,-0.23241 -0.3188,-0.2973 1.5873,0.0562 3.1746,0.11197 4.7616,0.1682 -0.1767,0.13163 -0.3755,0.24162 -0.5293,0.39484 -0.6457,0.64429 -1.4944,1.87527 -1.9145,2.53158 -1.3727,2.14513 -2.4736,4.41633 -3.5896,6.67594 -0.3122,0.65917 -0.624,1.31854 -0.9368,1.97749 -0.2879,0.60612 -1.0018,2.14198 -1.3793,2.80857 -0.1418,0.25211 -0.1692,0.6945 -0.4799,0.73046 -5.592,0.64805 -4.9978,1.2893 -5.4489,-1.37672 -0.413,-4.58063 -1.1274,-9.14652 -2.2783,-13.62568 -0.2015,-0.78306 -0.4454,-1.55652 -0.6678,-2.33478 -0.2463,-0.67199 -0.789,-2.41921 -1.3514,-3.09346 -0.1816,-0.21747 -1.0525,-0.46095 -0.7515,-0.45393 1.3081,0.0303 2.8232,-0.16971 3.8823,0.52666 0.4889,0.32164 -0.8062,0.82069 -1.1412,1.27627 -0.5474,0.74405 -0.9995,1.54209 -1.4992,2.31313 -1.8943,3.30862 -3.4557,6.75997 -5.2308,10.11955 -0.8612,1.62985 -1.0526,1.91682 -1.9493,3.43659 -0.6109,1.07153 -1.3385,2.08155 -2.0185,3.1167 -0.2658,0.40471 -0.3825,0.67604 -0.7555,1.00501 -0.209,0.18488 -0.4526,0.33612 -0.6788,0.5042 -0.2926,0.19309 -0.5795,0.3937 -0.8781,0.5792 -0.9047,0.56195 -1.8356,1.08897 -2.7411,1.64981 z m -11.8918,3.05568 c -0.102,-5.93248 -0.9617,-11.82588 -2.0212,-17.6723 -0.1269,-0.54979 -0.3548,-1.69671 -0.5989,-2.30236 -0.06,-0.15128 -0.4342,-0.41736 -0.2568,-0.42283 1.5594,-0.048 3.1213,0.11496 4.67,0.28682 0.1443,0.0149 -0.2817,0.0971 -0.3882,0.18861 -0.2289,0.19683 -0.4023,0.44128 -0.6034,0.66191 -2.5896,2.80385 -4.9032,5.7969 -7.1055,8.8563 -0.7824,0.93728 -1.326,2.07119 -2.2325,2.92801 -0.122,0.1157 -0.2526,0.29207 -0.429,0.28234 -5.6103,-0.30979 -4.8534,0.86968 -5.5812,-1.78596 -0.4509,-1.89336 -0.8744,-3.79533 -1.4594,-5.65987 -0.3003,-0.95702 -0.8281,-2.49986 -1.3559,-3.41542 -0.214,-0.36956 -0.5195,-0.68828 -0.7793,-1.03244 -2.8894,-0.46568 2.0996,-0.27236 2.9272,0.20056 0.474,0.27087 -0.798,0.72041 -1.1214,1.1351 -1.3333,1.70978 -2.1258,3.73521 -2.9733,5.66142 -0.8764,2.16227 -1.6627,4.35315 -2.5433,6.51405 -0.7146,1.59862 -0.6016,1.57515 -5.193,0.0682 -0.5074,-0.16647 0.065,-0.97743 0.045,-1.46598 -0.1,-2.4778 -0.6527,-4.88614 -1.1902,-7.30798 -0.7375,-2.70135 -1.538,-5.40684 -2.6278,-8.01254 -0.025,-0.0224 -0.2583,-0.57179 -0.4345,-0.58744 -0.1,-0.01 -0.3543,0.14233 -0.2538,0.1493 1.4835,0.10078 3.0091,-0.15925 4.4605,0.1371 0.3737,0.0764 -0.6579,0.36053 -0.9558,0.57868 -0.5556,0.40653 -1.0662,0.86082 -1.5992,1.29124 -4.6113,4.24623 -8.0523,9.34315 -11.2687,14.49716 -0.6183,0.92775 -1.1361,1.90739 -1.7415,2.84174 -1.2772,1.9708 -2.545,2.25217 -6.0289,0.2557 -0.6711,-0.38442 -0.037,-1.43771 -0.057,-2.1566 -0.3979,-5.62986 -1.3049,-11.25019 -2.9232,-16.70326 -0.224,-0.75448 -0.49,-1.49812 -0.7348,-2.2472 -0.112,-0.26577 -0.6823,-1.97325 -1.2297,-2.31502 -0.1394,-0.0868 -0.6602,0.0786 -0.4932,0.10202 1.4539,0.2018 3.0932,-0.19757 4.3861,0.43781 0.4882,0.24012 -0.5646,0.86817 -0.809,1.32016 -0.3316,0.61356 -0.6118,1.24895 -0.9179,1.87345 -1.6818,3.73151 -3.3435,7.47055 -4.9586,11.22616 l -4.4411,-0.16895 v 0 c 2.019,-3.62132 3.7458,-7.36492 5.2236,-11.19535 0.2265,-0.63185 0.4564,-1.26196 0.6759,-1.89555 0.1617,-0.46822 -0.032,-1.21963 0.4677,-1.40966 1.6368,-0.6229 3.4906,-0.61824 5.258,-0.76931 0.1444,-0.0124 0.2364,0.17344 0.2939,0.29476 0.2065,0.43371 0.5499,2.24735 0.5855,2.41396 1.2737,6.32141 2.2504,12.69333 3.7466,18.97649 1.1257,3.31738 1.4877,2.00222 -3.7991,2.53795 -0.1891,0.0174 0.4026,-0.005 0.5599,-0.10153 0.2981,-0.18388 0.521,-0.45448 0.7502,-0.70684 0.5922,-0.65168 1.7423,-2.20323 2.2031,-2.80897 3.5829,-4.91675 7.0605,-9.90309 11.0057,-14.59333 0.4053,-0.45566 0.795,-0.92325 1.2162,-1.36696 0.2265,-0.23813 0.3827,-0.62093 0.7239,-0.67637 1.7542,-0.28501 3.5537,-0.28053 5.3356,-0.30812 0.1219,-0.002 0.1991,0.13287 0.271,0.22145 0.1368,0.16697 0.2339,0.56114 0.2889,0.73089 0.6317,2.68 1.1217,5.38556 1.746,8.06721 0.5397,2.43909 0.9866,4.91993 1.7221,7.31935 0.1369,0.44531 0.9757,1.15041 0.4974,1.31125 -6.8131,2.29119 -5.7653,1.19065 -4.6891,-0.0615 1.4288,-1.99105 2.2748,-4.279 3.2957,-6.44933 0.8562,-1.93257 1.6741,-3.90605 2.712,-5.76721 0.2585,-0.46317 0.3043,-1.20067 0.8522,-1.35193 4.6101,-1.27241 4.2602,-1.2919 6.2608,0.0493 0.1941,0.36914 0.421,0.72638 0.5862,1.10741 0.4524,1.04225 0.8306,2.39637 1.1536,3.45839 0.5733,1.8846 1.115,3.78179 1.8814,5.6123 1.2267,2.21631 1.0072,1.01855 -3.8091,1.39821 -0.1965,0.0149 0.4153,0.0249 0.5855,-0.0647 0.2914,-0.15303 0.5064,-0.40405 0.7343,-0.62857 0.6076,-0.59833 1.4121,-1.59568 1.9312,-2.21499 2.2904,-2.91492 4.5184,-5.87158 6.6444,-8.88725 0.1518,-0.2339 0.3126,-0.46292 0.4541,-0.70189 0.112,-0.19036 0.07,-0.57077 0.3073,-0.58418 1.7142,-0.0968 3.4481,0.0269 5.1433,0.27595 0.1792,0.0264 0.047,0.32535 0.057,0.48885 0.06,0.77605 0.052,1.55543 0.122,2.33092 0.2881,5.91475 0.8403,11.82435 1.8679,17.6742 -1.0376,1.15563 -2.2454,1.68623 -4.0477,0.0371 z" /></g></svg>
