<?xml version="1.0" encoding="UTF-8"?>
<svg width="243" height="165" version="1.1" viewBox="0 0 243 165" xml:space="preserve" xmlns="http://www.w3.org/2000/svg" xmlns:xlink="http://www.w3.org/1999/xlink"><defs><filter id="b" x="-.15912" y="-.27723" width="1.3182" height="1.5545" color-interpolation-filters="sRGB"><feGaussianBlur stdDeviation="30.795656"/></filter><radialGradient id="a" cx="941.61" cy="161.85" r="24.088" gradientTransform="matrix(1 0 0 .92727 -4.3355 9.1199)" gradientUnits="userSpaceOnUse"><stop stop-color="#fff" offset="0"/><stop stop-color="#eee" stop-opacity="0" offset="1"/></radialGradient></defs><g transform="translate(-4069.1 -298.7)"><path transform="matrix(.31175 0 0 .31175 3900.2 278.14)" d="m635.5 159.83h589.91v338.58h-589.91z" fill="#8f2fea" filter="url(#b)" stroke="#e4cef9" stroke-linecap="round" stroke-linejoin="round" stroke-width="39.908"/><g transform="matrix(.31175 0 0 .31175 3900.2 278.14)"><rect x="635.5" y="159.83" width="589.91" height="338.58" fill="#d2d2d2" stroke="#a8a8a8" stroke-linecap="round" stroke-linejoin="round" stroke-width="8"/><ellipse cx="936.83" cy="172.78" rx="24.088" ry="22.336" fill="#626262" stroke="#404040" stroke-linecap="round" stroke-linejoin="round" stroke-width="4"/><ellipse cx="936.83" cy="172.78" rx="24.088" ry="22.336" fill="url(#a)"/><ellipse cx="936.83" cy="172.78" rx="24.088" ry="22.336" fill="none" stroke="#404040" stroke-linecap="round" stroke-linejoin="round" stroke-width="4"/></g><path d="m4115 356.92c0.6184-5.9755 2.0133-11.35 4.0012-15.91 0.2672-0.3616 0.4979-0.87085 0.8019-1.0855 0.2265-0.16049 0.961-0.0199 0.7212 0.01-1.3761 0.17741-2.7817-0.14184-4.1308 0.43082-0.2665 0.11321 0.4379 0.66176 0.627 1.0568 0.5233 1.0918 0.9254 2.3987 1.3474 3.6419 0.8644 2.0404 1.5119 5.2239 2.7839 6.4598 0.2215 0.21474 0.4723 0.35707 0.7176 0.3345 1.853-0.16995 3.6979-0.60604 5.5469-0.90906 1.644-3.1355 3.1365-6.6316 5.1799-8.7597 0.3742-0.38966 0.7758-0.6625 1.1635-0.99377 3.3273-0.37162-1.7261-0.10326-2.5567 0.29389-0.3292 0.15751 0.6268 0.52304 0.9201 0.86239 0.8515 0.98474 1.5686 2.4501 2.3176 3.7096 1.4813 2.6923 3.2659 2.9356 5.1617 3.0009 2.0932-0.0933 4.0967 1.1516 6.1194 2.0364 3.0624 0.83831 6.6604 2.5272 9.3771-1.0151 0.8597-1.4418 1.34-3.5184 1.8931-5.4273 0 0-4.6929-0.52244-4.6929-0.52244-0.5755 1.7905-1.0928 3.7099-1.9946 4.9283-1.857 1.8339-3.9086 0.78247 2.6602 1.1545 0.2601 0.0149-0.5203 0.0617-0.78 0.0351-0.3937-0.0401-1.3385-0.35157-1.7172-0.46792-2.0466-0.8234-4.0552-2.1791-6.1605-2.2155-1.8217-3.3e-4 -3.6232 0.12043-5.1072-2.3588-0.6442-1.0413-2.5652-4.8192-3.2803-4.9954-4.6964-1.1572-4.138-1.1942-6.8455-0.10227-1.1322 1.1201-1.2763 1.149-2.3415 2.7026-1.4601 2.1299-2.604 4.9713-4.0862 7.0368 1.3324 0.17965 2.6699 0.25226 3.9979 0.53854 0.2364 0.0508-0.4735 0.26983-0.7052 0.17045-1.1832-0.50625-2.1558-4.3604-2.8491-6.0538-0.1816-0.57646-1.6069-5.1922-1.8998-5.2936-1.7925-0.62065-3.6284-0.59612-5.4471-0.64586-0.2463-5e-3 -0.4879 0.21822-0.6965 0.47795-0.2791 0.34754-0.4931 0.87319-0.7395 1.3098-1.8931 4.9139-3.2798 10.48-4.1753 16.442z" fill="#2b2b2b"/><path d="m4116.7 382.62c1.2289-4.7631 2.9588-8.8682 4.7264-12.828 0.7503-1.3966 1.4316-3.0337 2.3316-4.0582 1.2556-1.4293 6.9975-0.6725-3.7432-0.29861 1.1745 0.99628 1.7466 3.716 2.4244 5.7429 0.2488 0.74135 0.5138 1.4568 0.7708 2.1851 1.1693 2.703 2.1947 6.8379 4.0435 7.7445 1.8378-0.29471 3.7001-0.21473 5.514-0.88555 0.2596-0.0963 0.316-0.86241 0.4524-1.3223 0.8152-2.7495 1.5639-5.4255 2.5433-7.9639 0.4424-0.84274 0.9759-1.9952 1.5367-2.5595 0.2339-0.23514 0.5012-0.28732 0.7518-0.4305-1.4268 0.0766-2.8598-0.0525-4.2804 0.23067-0.2588 0.0525 0.5101 0.2436 0.745 0.4705 0.2924 0.28235 0.5492 0.69695 0.8239 1.0455 1.6562 3.0667 3.2265 6.299 5.2035 8.5106 5.4018 2.9042 6.4322 1.561 8.7938-5.2862 0.6967-2.0078 1.3623-4.19 2.3783-5.6163 0.1767-0.2491 0.7918-0.57524 0.5765-0.59188-1.5146-0.11695-3.0297 0.1901-4.5446 0.28615 0.1493 0.13885 0.3295 0.18314 0.4467 0.41629 0.7293 1.4491 1.0856 4.0446 1.4718 5.8796 0.6397 3.0385 0.3514 1.7208 1.0227 4.6497 1.5746 6.0236 2.061 4.8715 6.7286 3.0414 0.1144-0.0406 0.3762-2.2609 0.4999-3.2173 0.3058-2.186 0.9433-6.4357 2.1692-7.2558 0.1966-0.13213 0.4158-0.0199 0.6238-0.0311-6.2771 0.48616-5.239-0.71588-3.4211 0.97745 1.053 0.98093 1.9909 2.413 3.0235 3.4749 2.2885 1.0192 1.6259 0.83698 6.1936-0.33722 0.2264-0.058 0.2904-0.76039 0.4964-0.96189 0.3327-0.32552 0.7072-0.4472 1.0712-0.57191 0.4516-0.15427 1.8249-0.22021 1.3676-0.26224-1.1153-0.10177-2.2325 0.0538-3.3487 0.0811 2.0647 0.21524 3.9429 2.0441 5.9126 3.0705 6.7054 0.19309 5.4618 2.0649 7.119-7.3554 0.6673-2.8171 1.1737-6.8772 2.6127-8.6038 0.1717-0.20529 0.3819-0.22495 0.5728-0.33682 2.1892 0.81424-1.0585-0.46692-4.0649 0.45526-0.2413 0.0742 0.3924 0.59952 0.5614 0.95838 0.8129 1.7258 1.4297 3.9406 2.0735 5.9174 1.6012 4.8076 3.3196 9.4921 5.4754 13.329 2.5055 3.7612 4.8502 2.2329 8.078 2.0258 0.075-0.18314 0.1667-0.3454 0.2264-0.55043 0.1568-0.52697 0.2583-1.5693 0.3461-2.0502 0.1394-0.76146 0.2937-1.5113 0.4571-2.2523 0.7099-3.2184 0.8946-3.7672 1.7603-7.0527 2.0762-7.5725 4.3841-13.74 7.9236-18.629 0.3673-0.34074 0.7147-0.79042 1.1016-1.0236 0.31-0.18637 1.2869-0.23166 0.9637-0.22021-1.3748 0.0455-2.7675-0.15751-4.1218 0.32669-0.3021 0.10799 0.5685 0.49427 0.8196 0.85358 0.6597 0.944 1.0232 2.0294 1.5301 3.2847 1.5621 4.6324 3.1118 9.2591 4.82 13.676 1.8448 4.8134 2.2765 3.5502 6.6168 2.1742 0.025-2e-3 0.1867-1.681 0.2748-2.5505 0.2903-1.7215 0.463-4.2884 1.2538-5.4636 0.1319-0.19433 0.3135-0.159 0.4705-0.23887-1.5176 0.13735-3.0352 0.27478-4.5528 0.41223 0.2041 0.33059 0.4392 0.59876 0.6151 0.99293 0.3581 0.80145 1.1621 3.4447 1.4086 4.2395 0.6973 2.248 1.3932 4.4965 2.0969 6.7361 1.7329 4.7488 2.5396 3.0091 6.6748 2.429 0.2165-0.0311 1.5662-3.0558 1.7714-3.4678 0.5263-0.82365 0.8423-1.4967 1.5079-1.8384 0.2842-0.14581 1.1693-0.1473 0.8764-0.13212-1.3317 0.0697-2.6771-0.11347-3.9942 0.29588-0.3742 0.1167 0.7358 0.36568 1.0954 0.60532 0.3936 0.26224 0.7743 0.59868 1.1615 0.89797 1.4387 1.2081 2.8132 3.0432 4.4276 2.9744 5.9804-0.25525 4.1878 1.4144 6.7182-1.4165 1.2389-2.0784 2.2357-4.6491 3.4017-6.8891 2.0347 0.21126-1.9424-0.21872-4.3585 0.3255-0.1916 0.0406 0.327 0.40974 0.4763 0.65397 0.209 0.34186 0.4043 0.71896 0.5959 1.1012 0.072 0.14257 1.2367 2.6428 1.3001 2.7787 2.8845 5.69 2.6478 3.9103 7.8772 3.4624 0.4723-3.0452 0.5852-6.2638 0.999-9.3566 0.4171-1.9376 1.292-5.3812 2.4627-5.8097 0.1617-0.0592 0.3282 0.0311 0.4924 0.0525-6.8903-0.27127-4.9526-0.86014-3.0329 2.0517 0.9283 1.4082 1.8313 2.8278 2.7933 4.144 2.0606 2.9356 4.4184 4.2528 6.8639 5.0642 2.9802 0.51329 6.2484 2.2045 8.9474-0.91703 0.092-0.11346 0.1841-0.22693 0.2759-0.34034l-5.1029-1.0814c-0.087 0.10103-0.1742 0.2018-0.2593 0.30328-0.2364 0.24559-0.4399 0.48668-0.7014 0.62565-0.1717 0.0903-0.6975 0.17741-0.5211 0.18986 8.3131 0.61259 4.0758 0.0951 2.2793-0.2135-2.4303-0.66768-4.8044-1.7526-6.8654-4.6212-0.9578-1.2643-1.8352-2.6303-2.723-4.0877-0.042-0.0709-1.2551-2.1239-1.3825-2.1527-1.86-0.42137-3.7399-0.29825-5.6098-0.44769-1.528 0.98598-2.3499 4.1071-2.9046 6.9742-0.2889 2.1932-0.249 1.7438-0.4635 3.9475-0.1269 1.2955-0.1742 2.9289-0.4643 4.1417-0.04 0.16373-0.1245 0.26398-0.1867 0.39553 1.6067 0.0311 3.2139 0.0199 4.8203 0.0995 0.122 2e-3 -0.2413 0.17293-0.359 0.11844-0.8132-0.37618-1.609-2.3759-2.2502-3.3162-2.0827-4.3983-3.9474-10.991-8.0807-4.8972-1.0525 2.2762-1.9909 4.8416-3.2917 6.5629-2.1185 1.7795-0.899 0.48163 3.1775 0.99165 0.3417 0.0406-0.686 0.15129-1.0267 0.0796-1.2456-0.26224-2.2934-1.7304-3.4211-2.6821-0.2165-0.18563-1.9229-1.7067-2.2163-1.7511-3.6603-0.55439-5.8181-2.0861-8.33 2.3009-0.2683 0.52224-0.9418 1.8885-1.27 2.326-0.1643 0.21797-0.7299 0.43654-0.5358 0.47859 1.489 0.32005 2.9919 0.24759 4.4881 0.37073-0.1916-0.1809-0.4103-0.27478-0.5765-0.54234-0.2364-0.38243-0.4066-0.91206-0.6099-1.3682-1.3981-4.1568-2.601-8.5672-4.0213-12.677-1.8503-0.0819-3.7016-0.39454-5.5508-0.24559-0.7495 0.06-1.56 5.398-1.7229 6.5884-0.06 0.42438-0.1045 0.85918-0.1792 1.274-0.037 0.20827-0.2635 0.56773-0.1543 0.58539 1.6204 0.26282 3.2507 0.12069 4.8761 0.17991 0.1119 2e-3 -0.2364 0.0741-0.3392-0.0149-0.4407-0.37583-0.8104-1.4427-1.0936-2.092-1.7871-4.2948-3.3517-8.8961-4.8262-13.655-0.3576-0.96904-1.6679-4.7244-2.3174-4.8772-3.3751-0.79353-5.2562-1.6416-7.7806 1.3831-3.3014 5.0716-5.7718 11.778-7.8 19.082-0.9592 3.393-1.1058 3.8324-1.9538 7.1085-0.2964 1.1456-0.5382 2.3482-0.843 3.4848-0.1021 0.38283-0.1618 0.368-0.3429 0.54292 9.4 0.22668 5.0467 0.73589 3.2813-0.39852-0.6112-0.393-0.7109-0.59821-1.2857-1.2684-2.2703-3.525-4.042-8.1043-5.5623-12.997-2.2825-7.5004-2.4575-10.818-8.499-7.9424-1.691 2.1295-2.3659 6.193-3.1081 9.7558-0.327 1.6722-0.5967 3.7034-1.0595 5.2554-0.082 0.27478-0.1891 0.52866-0.3195 0.71264-0.092 0.13213-0.439 0.19458-0.3255 0.20305 1.5201 0.11893 3.0422 0.0858 4.5633 0.12864-2.0775-0.55257-3.9858-2.911-6.106-3.1975-2.1111 0.0124-4.2234-0.10003-6.3337 0.0224-0.9677 0.0577-1.761 0.55292-2.6294 1.3561-0.1742 0.16224-0.6748 0.5993-0.4834 0.64479 1.4745 0.35008 2.9685 0.14606 4.4512 0.29745 0.1991 0.0199-0.3978 0.063-0.5969 0.095-0.7985-0.63043-1.483-1.5163-2.2163-2.417-2.6237-3.222-3.018-2.8393-7.4168-2.2549-0.214 0.16945-0.4467 0.2596-0.6403 0.5085-1.2665 1.626-1.7099 5.2229-2.1513 7.885-0.09 0.53994-0.1543 1.0986-0.2675 1.6197-0.082 0.37386-0.5089 0.98483-0.3108 1.0486 1.5743 0.50636 3.1852 0.26338 4.778 0.38827 0.1393 0.0124-0.2989 0.10451-0.4166-0.0455-0.405-0.51752-0.8602-2.3171-1.059-2.9856-0.5454-2.287-0.5456-2.2057-1.0333-4.5959-0.4263-2.0891-0.7562-4.4577-1.3477-6.3922-0.1269-0.41781-0.3118-0.75124-0.4675-1.1268-1.8396 0.0916-3.6857-0.0525-5.5191 0.27448-0.7285 0.12889-2.4698 5.4194-2.9043 6.632-0.519 1.4374-1.0289 3.0912-1.7933 4.058-0.1941 0.24534-0.8565 0.50084-0.6295 0.54837 1.1914 0.25057 6.3371 0.3232 3.5916 0.1794-2.0708-1.846-3.6536-5.1089-5.217-8.3535-0.1717-0.26806-1.2284-2.0638-1.5474-2.1007-4.1888-0.48464-5.6084-1.6229-7.9434 3.6632-0.7285 2.0047-1.3917 4.0645-2.0588 6.155-0.1891 0.5904-0.3593 1.2067-0.5705 1.7642-0.1394 0.36525-0.6983 0.91917-0.4743 0.99262 1.5052 0.49328 3.0469 0.23365 4.5702 0.35048-0.1717 0.0455-0.3426 0.17965-0.5148 0.13984-1.3126-0.30601-2.8431-5.0787-3.6411-6.9374-1.001-2.8926-1.7376-6.3078-3.0434-8.6836-5.9766-0.24361-5.2344-2.0516-8.5396 5.0071-1.7744 4.1266-3.4958 8.3646-4.9504 12.991z" fill="#2b2b2b"/><path d="m4110.9 372.12h7.6283 18.526c2.5259 0 5.1169 0.25114 7.6283 0 7.288-0.72882 14.458-1.0898 21.795-1.0898 5.6655 0 13.653 0.67726 19.071 0 0.7433-0.0928 1.4383-0.43895 2.1795-0.54488 2.4876-0.35535 5.1513 0.41288 7.6284 0 0.4006-0.0667 0.6892-0.4781 1.0898-0.54486 1.5771-0.26286 3.3353 0.3137 4.9039 0 0.5631-0.11272 1.068-0.45048 1.6346-0.54488 1.0749-0.17916 2.2006 0.21374 3.2693 0 0.3982-0.0796 0.6915-0.46524 1.0897-0.54489 2.2538-0.45075 4.7976 0.25398 7.0834 0 2.8968-0.32186 5.7991-0.79787 8.7181-1.0898 4.317-0.43166 8.7561 0.39283 13.077 0 1.279-0.1162 2.5351-0.4286 3.8141-0.54486 2.8159-0.25599 4.2788 0.15627 7.0833-0.54488 3.5976-0.89936 9.986 0.48372 13.622 1.0897 1.5177 0.25294 3.363 0 4.904 0 1.5579 0 4.812 0.63671 5.9937-0.54486" stroke="#000" stroke-linecap="round" stroke-linejoin="round" stroke-width="4.9766"/><path d="m4180.4 419.89c0.3142-0.24087 0.7475-0.55414 1.0339-0.83721 1.108-1.0949 1.9266-2.4167 2.8786-3.6161 2.981-4.2797 5.3961-8.8499 7.5537-13.514 0.3524-0.79232 0.6761-1.5955 1.0568-2.377 0.2439-0.50141 0.2439-1.2944 0.8169-1.4684 1.7488-0.53045 3.667-0.51032 5.5101-0.45082 0.2886 0.01 0.3794 0.40449 0.4941 0.64459 0.3551 0.74451 0.7274 2.4924 0.8918 3.1663 0.5497 2.7204 1.0528 5.4477 1.6092 8.1671 0.3593 1.7567 0.8127 4.0061 1.2817 5.7583 0.1792 0.67062 0.4103 1.3292 0.6154 1.9938 1.044 1.8684 1.3548 1.7222-3.8049 1.2183-0.3314-0.0321 0.4945-0.41049 0.6933-0.65297 1.1814-1.4421 1.8841-3.175 2.8237-4.7387 1.5123-2.9535 0.8223-1.5671 2.2879-4.5885 0.6132-1.2638 1.1817-2.5458 1.8272-3.7963 0.1393-0.27077 0.7079-1.2047 0.9241-1.5632 2.9601-0.0174 5.164-1.3771 5.6153 0.88123 0.1892 1.0082 0.3596 2.0194 0.4611 3.0388 0.4795 3.1127 1.0541 6.2319 2.0325 9.2509 1.0629 2.337 0.9209 1.029-3.9064 1.5543-0.1667 0.0174 0.3568 0.044 0.4987-0.0356 0.2488-0.1391 0.4354-0.36036 0.5994-0.57945 0.3006-0.40198 1.1829-2.0786 1.3723-2.429 0.8082-1.564 1.6166-3.128 2.426-4.6914 0.4601-0.88847 0.7734-1.5532 1.3027-2.3862 0.1592-0.25226 0.3466-0.49016 0.5198-0.73523 0.204-0.16025 0.3426-0.45215 0.6103-0.48081 3.0188-0.32291 5.2277-0.83865 7.4572 0.78189 0.9901 0.71963 1.4579 1.3081 2.2892 2.1913 0.3717 0.48701 0.7661 0.96043 1.1155 1.461 1.4745 2.1139 2.6861 4.4344 3.4 6.8515 0.042 0.19484 0.077 0.39134 0.1294 0.58405 0.025 0.0951 0.214 0.27212 0.107 0.2778-1.6244 0.0851-3.2542-0.0602-4.8806-0.0279-0.075 1e-3 0.1046 0.13063 0.1792 0.12118 0.2065-0.0256 0.5877-0.54116 0.6308-0.59052 1.8903-2.9034 2.816-6.2246 3.6635-9.4772 0.6004-2.6662 0.6288-2.5736 1.0386-5.2554 0.209-1.3691 0.311-2.7508 0.5342-4.1181 0.072-0.44094-0.1791-1.16 0.2844-1.3122 1.6649-0.54762 3.5219-0.34599 5.2829-0.519 0.1543 0.13959 0.3441 0.25211 0.4601 0.4187 0.4001 0.57509 1.0831 2.2105 1.2887 2.6961 1.0142 2.3938 1.9261 4.8218 2.8946 7.2307 1.5738 3.8769 0.4541 1.0959 1.7684 4.4088 0.1543 0.39066 0.2891 0.78878 0.4683 1.1709 0.085 0.18214 0.5387 0.48638 0.323 0.51664-1.5131 0.21175-6.5758 0.17343-4.5919 0.10351 1.0842-1.4791 1.3205-3.4016 1.7435-5.092 0.1842-1.2441 0.3424-2.4736 0.384-3.7293 0-0.26876-0.274-0.72618 0-0.80662 4.8372-1.3735 4.4612-2.0282 5.1545-0.39074 0.7191 2.3567 1.2949 4.7488 2.0782 7.0897 0.4484 1.464 0.8669 2.9361 1.3404 4.3937 0.09 0.27224 0.1692 0.54702 0.2755 0.81394 0.055 0.13462 0.3603 0.3715 0.204 0.3877-1.6012 0.16522-3.2226 0.0602-4.834 0.0903 0.047 0.0199 0.095 0.0789 0.1419 0.06 0.3297-0.12864 0.7415-1.6849 0.8621-1.9607 0.6696-2.5237 1.1596-5.0854 1.6207-7.6459 0.4725-2.7639 0.8101-5.5446 1.2969-8.3067 1.7062-0.12666 3.4079-0.32545 5.1186-0.38021 0-2.5e-4 0.1219 0.30202 0.1767 0.52097 0.1244 0.50176 0.1916 1.0154 0.3145 1.5175 0.1891 1.0079 0.3354 1.8287 1.1142 2.6134 1.9449 2.3166 3.8905 4.6324 5.7719 6.992 1.9878 2.5568 4.0688 5.1125 5.3694 8.0326l-4.9974 0.0642c-0.032-0.17816-0.045-0.35981-0.095-0.53473-0.7462-2.6531-2.6851-5.1221-4.3781-7.3354-1.9235-2.4723-4.1114-4.7276-6.4056-6.915-0.1045-0.099-0.6293-0.57572-0.7373-0.74188-0.3605-0.55511-0.3593-1.4806-0.4571-2.1082-0.1294-0.48967-0.2015-1.0072-0.4048-1.4797-0.037-0.0863-0.057-0.19881-0.1468-0.24385-0.052-0.0261-0.1991 0.0971-0.1394 0.0993 1.6199 0.0684 3.2425 0.0669 4.8639 0.10028-0.7229 1.4173-1.0185 2.9685-1.3273 4.4918-0.4969 2.4532-0.2628 1.2053-0.6905 3.6728-0.3951 2.554-0.7472 5.1139-1.1478 7.667-0.1941 0.776-0.269 1.6077-0.7214 2.306-1.7157-0.0945-3.4545-0.0124-5.1468-0.28364-0.204-0.0326-0.067-0.37115-0.095-0.55752-0.042-0.28212-0.07-0.56584-0.1145-0.84776-0.2289-1.4818-0.568-2.9285-0.9408-4.3855-0.4461-1.6-0.9381-3.1887-1.5427-4.7459-0.3028-0.78045-0.5825-1.5656-1.1085-2.2452-0.067 0.0597-0.2989 0.17319-0.2041 0.17916 1.6124 0.105 3.2646-0.17294 4.8479 0.12317 0.2765 0.0515-0.1368 0.49661-0.1866 0.74802-0.2535 1.239-0.4402 2.4949-0.6594 3.7394-0.4133 1.7472-0.6064 3.5581-1.2974 5.242-1.0256 1.5235-0.4787 0.86451-5.2995 0.0254-0.261-0.0455-0.097-0.4738-0.1394-0.71158-0.072-0.40295-0.1269-0.80862-0.2065-1.2104-0.4419-2.2313-0.4312-1.976-1.1384-4.4036-0.8037-2.469-1.8286-4.8761-3.0631-7.1945-0.2983-0.56054-1.0985-2.1082-1.7549-2.6134-0.1891-0.14507-0.4738-0.12541-0.7107-0.18786 1.4325 0.13237 2.9807-0.13064 4.2978 0.39683 0.4078 0.16348-0.4166 0.71809-0.5562 1.1015-0.214 0.5882-0.3531 1.1972-0.5016 1.8019-0.1841 0.74614-0.3222 1.5007-0.4929 2.2492-0.4006 1.7578-0.8222 3.5115-1.2268 5.2685-0.8146 3.2202-1.47 6.5106-2.7995 9.6003-1.0727 2.0978-1.378 1.2172-5.6624 0.54767-0.1617-0.0254-0.025-0.29658-0.035-0.4451 0-0.20379-0.025-0.40795-0.025-0.61194-0.3083-2.3876-1.4106-4.688-2.8418-6.6998-0.3504-0.49228-0.7582-0.94888-1.1372-1.4233-1.0396-1.0345-2.1227-2.1464-3.617-2.6491-0.3269-0.10973-1.3752-0.18239-1.0266-0.18164 4.4627 0.01 4.9581-0.40112 3.3447 0.50136-0.1965 0.2023-0.4078 0.39287-0.5882 0.60679-1.7032 2.0204-2.9703 4.6567-4.1084 6.9716-0.2115 0.4495-0.4208 0.89953-0.6333 1.3485-0.05 0.10376-0.8982 2.0825-1.2939 2.0503-5.5999-0.45558-4.8927 0.73182-5.5075-1.9552-0.5472-3.1228-1.3009-6.209-2.02-9.3014-0.1916-1.0279-0.5504-2.0151-0.9354-2.9932-0.025-0.099-0.042-0.27287-0.09-0.36941-0.067-0.13661-0.1767-0.23241-0.3188-0.2973 1.5873 0.0562 3.1746 0.11197 4.7616 0.1682-0.1767 0.13163-0.3755 0.24162-0.5293 0.39484-0.6457 0.64429-1.4944 1.8753-1.9145 2.5316-1.3727 2.1451-2.4736 4.4163-3.5896 6.6759-0.3122 0.65917-0.624 1.3185-0.9368 1.9775-0.2879 0.60612-1.0018 2.142-1.3793 2.8086-0.1418 0.25211-0.1692 0.6945-0.4799 0.73046-5.592 0.64805-4.9978 1.2893-5.4489-1.3767-0.413-4.5806-1.1274-9.1465-2.2783-13.626-0.2015-0.78306-0.4454-1.5565-0.6678-2.3348-0.2463-0.67199-0.789-2.4192-1.3514-3.0935-0.1816-0.21747-1.0525-0.46095-0.7515-0.45393 1.3081 0.0303 2.8232-0.16971 3.8823 0.52666 0.4889 0.32164-0.8062 0.82069-1.1412 1.2763-0.5474 0.74405-0.9995 1.5421-1.4992 2.3131-1.8943 3.3086-3.4557 6.76-5.2308 10.12-0.8612 1.6298-1.0526 1.9168-1.9493 3.4366-0.6109 1.0715-1.3385 2.0816-2.0185 3.1167-0.2658 0.40471-0.3825 0.67604-0.7555 1.005-0.209 0.18488-0.4526 0.33612-0.6788 0.5042-0.2926 0.19309-0.5795 0.3937-0.8781 0.5792-0.9047 0.56195-1.8356 1.089-2.7411 1.6498zm-11.892 3.0557c-0.102-5.9325-0.9617-11.826-2.0212-17.672-0.1269-0.54979-0.3548-1.6967-0.5989-2.3024-0.06-0.15128-0.4342-0.41736-0.2568-0.42283 1.5594-0.048 3.1213 0.11496 4.67 0.28682 0.1443 0.0149-0.2817 0.0971-0.3882 0.18861-0.2289 0.19683-0.4023 0.44128-0.6034 0.66191-2.5896 2.8038-4.9032 5.7969-7.1055 8.8563-0.7824 0.93728-1.326 2.0712-2.2325 2.928-0.122 0.1157-0.2526 0.29207-0.429 0.28234-5.6103-0.30979-4.8534 0.86968-5.5812-1.786-0.4509-1.8934-0.8744-3.7953-1.4594-5.6599-0.3003-0.95702-0.8281-2.4999-1.3559-3.4154-0.214-0.36956-0.5195-0.68828-0.7793-1.0324-2.8894-0.46568 2.0996-0.27236 2.9272 0.20056 0.474 0.27087-0.798 0.72041-1.1214 1.1351-1.3333 1.7098-2.1258 3.7352-2.9733 5.6614-0.8764 2.1623-1.6627 4.3532-2.5433 6.514-0.7146 1.5986-0.6016 1.5752-5.193 0.0682-0.5074-0.16647 0.065-0.97743 0.045-1.466-0.1-2.4778-0.6527-4.8861-1.1902-7.308-0.7375-2.7014-1.538-5.4068-2.6278-8.0125-0.025-0.0224-0.2583-0.57179-0.4345-0.58744-0.1-0.01-0.3543 0.14233-0.2538 0.1493 1.4835 0.10078 3.0091-0.15925 4.4605 0.1371 0.3737 0.0764-0.6579 0.36053-0.9558 0.57868-0.5556 0.40653-1.0662 0.86082-1.5992 1.2912-4.6113 4.2462-8.0523 9.3432-11.269 14.497-0.6183 0.92775-1.1361 1.9074-1.7415 2.8417-1.2772 1.9708-2.545 2.2522-6.0289 0.2557-0.6711-0.38442-0.037-1.4377-0.057-2.1566-0.3979-5.6299-1.3049-11.25-2.9232-16.703-0.224-0.75448-0.49-1.4981-0.7348-2.2472-0.112-0.26577-0.6823-1.9732-1.2297-2.315-0.1394-0.0868-0.6602 0.0786-0.4932 0.10202 1.4539 0.2018 3.0932-0.19757 4.3861 0.43781 0.4882 0.24012-0.5646 0.86817-0.809 1.3202-0.3316 0.61356-0.6118 1.249-0.9179 1.8734-1.6818 3.7315-3.3435 7.4706-4.9586 11.226l-4.4411-0.16895c2.019-3.6213 3.7458-7.3649 5.2236-11.195 0.2265-0.63185 0.4564-1.262 0.6759-1.8956 0.1617-0.46822-0.032-1.2196 0.4677-1.4097 1.6368-0.6229 3.4906-0.61824 5.258-0.76931 0.1444-0.0124 0.2364 0.17344 0.2939 0.29476 0.2065 0.43371 0.5499 2.2474 0.5855 2.414 1.2737 6.3214 2.2504 12.693 3.7466 18.976 1.1257 3.3174 1.4877 2.0022-3.7991 2.538-0.1891 0.0174 0.4026-5e-3 0.5599-0.10153 0.2981-0.18388 0.521-0.45448 0.7502-0.70684 0.5922-0.65168 1.7423-2.2032 2.2031-2.809 3.5829-4.9168 7.0605-9.9031 11.006-14.593 0.4053-0.45566 0.795-0.92325 1.2162-1.367 0.2265-0.23813 0.3827-0.62093 0.7239-0.67637 1.7542-0.28501 3.5537-0.28053 5.3356-0.30812 0.1219-2e-3 0.1991 0.13287 0.271 0.22145 0.1368 0.16697 0.2339 0.56114 0.2889 0.73089 0.6317 2.68 1.1217 5.3856 1.746 8.0672 0.5397 2.4391 0.9866 4.9199 1.7221 7.3194 0.1369 0.44531 0.9757 1.1504 0.4974 1.3112-6.8131 2.2912-5.7653 1.1906-4.6891-0.0615 1.4288-1.991 2.2748-4.279 3.2957-6.4493 0.8562-1.9326 1.6741-3.906 2.712-5.7672 0.2585-0.46317 0.3043-1.2007 0.8522-1.3519 4.6101-1.2724 4.2602-1.2919 6.2608 0.0493 0.1941 0.36914 0.421 0.72638 0.5862 1.1074 0.4524 1.0422 0.8306 2.3964 1.1536 3.4584 0.5733 1.8846 1.115 3.7818 1.8814 5.6123 1.2267 2.2163 1.0072 1.0186-3.8091 1.3982-0.1965 0.0149 0.4153 0.0249 0.5855-0.0647 0.2914-0.15303 0.5064-0.40405 0.7343-0.62857 0.6076-0.59833 1.4121-1.5957 1.9312-2.215 2.2904-2.9149 4.5184-5.8716 6.6444-8.8872 0.1518-0.2339 0.3126-0.46292 0.4541-0.70189 0.112-0.19036 0.07-0.57077 0.3073-0.58418 1.7142-0.0968 3.4481 0.0269 5.1433 0.27595 0.1792 0.0264 0.047 0.32535 0.057 0.48885 0.06 0.77605 0.052 1.5554 0.122 2.3309 0.2881 5.9148 0.8403 11.824 1.8679 17.674-1.0376 1.1556-2.2454 1.6862-4.0477 0.0371z" fill="#2b2b2b"/><path d="m4109.1 411.33c2.8802 0.44194 5.7126-0.41162 8.5378-0.55039 11.495-0.56454 23.172 0 34.685 0 8.1876 0 16.962-0.69771 25.08 0 1.0782 0.0928 2.1253 0.43933 3.2017 0.55039 7.1105 0.73337 14.739 0 21.878 0 4.049 0 8.233 0.26042 12.273 0 2.4152 0.36983 4.6044-0.91567 6.9369-1.1007 6.1428-0.48738 12.516 0 18.676 0 1.7786 0 3.5593 0.0831 5.3361 0 3.7357-0.17518 7.4773-0.25458 11.206-0.55038 0.7311-0.058 1.4047-0.47509 2.1345-0.55036 3.8145-0.39345 7.8995 0 11.739 0 1.7729 0 4.8024-0.85102 4.8024 1.6511" fill="none" stroke="#8147ff" stroke-linecap="round" stroke-linejoin="round" stroke-opacity=".7462" stroke-width="4.9496"/></g></svg>
