<svg clip-rule="evenodd" fill-rule="evenodd" stroke-linecap="square" stroke-miterlimit="1.5" version="1.1" viewBox="0 0 1749 1749" xml:space="preserve" xmlns="http://www.w3.org/2000/svg">
    <g transform="translate(-70.866 -70.866)">
        <g transform="translate(-1889.8 -236.22)">
            <g transform="matrix(2 0 0 2 1653.5 0)">
                <g transform="matrix(1.0326 0 0 1.0507 -1303 -100.32)">
                    <ellipse cx="1833.8" cy="657.55" rx="423.22" ry="415.93" fill="#fff"/>
                </g>
                <g transform="matrix(.7874 0 0 .7874 118.04 118.46)">
                    <g transform="rotate(90,600,600)">
                        <path d="m600 225v45" fill="none" stroke="#000" stroke-width="7.94px"/>
                        <g transform="matrix(.99803 -.054526 .06279 .86667 -36.49 69.367)">
                            <path d="m600 225v45" fill="none" stroke="#000" stroke-width="2.8px"/>
                        </g>
                        <g transform="matrix(.99951 -.027236 .031411 .86667 -18.55 52.504)">
                            <path d="m600 225v45" fill="none" stroke="#000" stroke-width="2.81px"/>
                        </g>
                        <g transform="matrix(.99803 .054526 -.06279 .86667 38.858 3.9356)">
                            <path d="m600 225v45" fill="none" stroke="#000" stroke-width="2.85px"/>
                        </g>
                        <g transform="matrix(.99951 .027236 -.031411 .86667 19.142 19.821)">
                            <path d="m600 225v45" fill="none" stroke="#000" stroke-width="2.84px"/>
                        </g>
                    </g>
                    <g transform="rotate(81 600 600)">
                        <path d="m600 225v45" fill="none" stroke="#000" stroke-width="7.94px"/>
                        <g transform="matrix(.99803 -.054526 .06279 .86667 -36.49 69.367)">
                            <path d="m600 225v45" fill="none" stroke="#000" stroke-width="2.8px"/>
                        </g>
                        <g transform="matrix(.99951 -.027236 .031411 .86667 -18.55 52.504)">
                            <path d="m600 225v45" fill="none" stroke="#000" stroke-width="2.81px"/>
                        </g>
                        <g transform="matrix(.99803 .054526 -.06279 .86667 38.858 3.9356)">
                            <path d="m600 225v45" fill="none" stroke="#000" stroke-width="2.85px"/>
                        </g>
                        <g transform="matrix(.99951 .027236 -.031411 .86667 19.142 19.821)">
                            <path d="m600 225v45" fill="none" stroke="#000" stroke-width="2.84px"/>
                        </g>
                    </g>
                    <g transform="rotate(72 600 600)">
                        <path d="m600 225v45" fill="none" stroke="#000" stroke-width="7.94px"/>
                        <g transform="matrix(.99803 -.054526 .06279 .86667 -36.49 69.367)">
                            <path d="m600 225v45" fill="none" stroke="#000" stroke-width="2.8px"/>
                        </g>
                        <g transform="matrix(.99951 -.027236 .031411 .86667 -18.55 52.504)">
                            <path d="m600 225v45" fill="none" stroke="#000" stroke-width="2.81px"/>
                        </g>
                        <g transform="matrix(.99803 .054526 -.06279 .86667 38.858 3.9356)">
                            <path d="m600 225v45" fill="none" stroke="#000" stroke-width="2.85px"/>
                        </g>
                        <g transform="matrix(.99951 .027236 -.031411 .86667 19.142 19.821)">
                            <path d="m600 225v45" fill="none" stroke="#000" stroke-width="2.84px"/>
                        </g>
                    </g>
                    <g transform="rotate(63 600 600)">
                        <path d="m600 225v45" fill="none" stroke="#000" stroke-width="7.94px"/>
                        <g transform="matrix(.99803 -.054526 .06279 .86667 -36.49 69.367)">
                            <path d="m600 225v45" fill="none" stroke="#000" stroke-width="2.8px"/>
                        </g>
                        <g transform="matrix(.99951 -.027236 .031411 .86667 -18.55 52.504)">
                            <path d="m600 225v45" fill="none" stroke="#000" stroke-width="2.81px"/>
                        </g>
                        <g transform="matrix(.99803 .054526 -.06279 .86667 38.858 3.9356)">
                            <path d="m600 225v45" fill="none" stroke="#000" stroke-width="2.85px"/>
                        </g>
                        <g transform="matrix(.99951 .027236 -.031411 .86667 19.142 19.821)">
                            <path d="m600 225v45" fill="none" stroke="#000" stroke-width="2.84px"/>
                        </g>
                    </g>
                    <g transform="rotate(45 600 600)">
                        <path d="m600 225v45" fill="none" stroke="#000" stroke-width="7.94px"/>
                        <g transform="matrix(.99803 -.054526 .06279 .86667 -36.49 69.367)">
                            <path d="m600 225v45" fill="none" stroke="#000" stroke-width="2.8px"/>
                        </g>
                        <g transform="matrix(.99951 -.027236 .031411 .86667 -18.55 52.504)">
                            <path d="m600 225v45" fill="none" stroke="#000" stroke-width="2.81px"/>
                        </g>
                        <g transform="matrix(.99803 .054526 -.06279 .86667 38.858 3.9356)">
                            <path d="m600 225v45" fill="none" stroke="#000" stroke-width="2.85px"/>
                        </g>
                        <g transform="matrix(.99951 .027236 -.031411 .86667 19.142 19.821)">
                            <path d="m600 225v45" fill="none" stroke="#000" stroke-width="2.84px"/>
                        </g>
                    </g>
                    <g transform="rotate(36 600 600)">
                        <path d="m600 225v45" fill="none" stroke="#000" stroke-width="7.94px"/>
                        <g transform="matrix(.99803 -.054526 .06279 .86667 -36.49 69.367)">
                            <path d="m600 225v45" fill="none" stroke="#000" stroke-width="2.8px"/>
                        </g>
                        <g transform="matrix(.99951 -.027236 .031411 .86667 -18.55 52.504)">
                            <path d="m600 225v45" fill="none" stroke="#000" stroke-width="2.81px"/>
                        </g>
                        <g transform="matrix(.99803 .054526 -.06279 .86667 38.858 3.9356)">
                            <path d="m600 225v45" fill="none" stroke="#000" stroke-width="2.85px"/>
                        </g>
                        <g transform="matrix(.99951 .027236 -.031411 .86667 19.142 19.821)">
                            <path d="m600 225v45" fill="none" stroke="#000" stroke-width="2.84px"/>
                        </g>
                    </g>
                    <g transform="rotate(27 600 600)">
                        <path d="m600 225v45" fill="none" stroke="#000" stroke-width="7.94px"/>
                        <g transform="matrix(.99803 -.054526 .06279 .86667 -36.49 69.367)">
                            <path d="m600 225v45" fill="none" stroke="#000" stroke-width="2.8px"/>
                        </g>
                        <g transform="matrix(.99951 -.027236 .031411 .86667 -18.55 52.504)">
                            <path d="m600 225v45" fill="none" stroke="#000" stroke-width="2.81px"/>
                        </g>
                        <g transform="matrix(.99803 .054526 -.06279 .86667 38.858 3.9356)">
                            <path d="m600 225v45" fill="none" stroke="#000" stroke-width="2.85px"/>
                        </g>
                        <g transform="matrix(.99951 .027236 -.031411 .86667 19.142 19.821)">
                            <path d="m600 225v45" fill="none" stroke="#000" stroke-width="2.84px"/>
                        </g>
                    </g>
                    <g transform="rotate(9 600 600)">
                        <path d="m600 225v45" fill="none" stroke="#000" stroke-width="7.94px"/>
                        <g transform="matrix(.99803 -.054526 .06279 .86667 -36.49 69.367)">
                            <path d="m600 225v45" fill="none" stroke="#000" stroke-width="2.8px"/>
                        </g>
                        <g transform="matrix(.99951 -.027236 .031411 .86667 -18.55 52.504)">
                            <path d="m600 225v45" fill="none" stroke="#000" stroke-width="2.81px"/>
                        </g>
                        <g transform="matrix(.99803 .054526 -.06279 .86667 38.858 3.9356)">
                            <path d="m600 225v45" fill="none" stroke="#000" stroke-width="2.85px"/>
                        </g>
                        <g transform="matrix(.99951 .027236 -.031411 .86667 19.142 19.821)">
                            <path d="m600 225v45" fill="none" stroke="#000" stroke-width="2.84px"/>
                        </g>
                    </g>
                    <g transform="rotate(-54 600 600)">
                        <g transform="matrix(1 0 0 .79442 0 55.506)">
                            <path d="m600 225v45" fill="none" stroke="#000" stroke-width="8.79px"/>
                        </g>
                        <g transform="matrix(.99803 -.054526 .06279 .86667 -36.49 69.367)">
                            <path d="m600 225v45" fill="none" stroke="#000" stroke-width="2.8px"/>
                        </g>
                        <g transform="matrix(.99951 -.027236 .031411 .86667 -18.55 52.504)">
                            <path d="m600 225v45" fill="none" stroke="#000" stroke-width="2.81px"/>
                        </g>
                        <g transform="matrix(.99803 .054526 -.06279 .86667 38.858 3.9356)">
                            <path d="m600 225v45" fill="none" stroke="#000" stroke-width="2.85px"/>
                        </g>
                        <g transform="matrix(.99951 .027236 -.031411 .86667 19.142 19.821)">
                            <path d="m600 225v45" fill="none" stroke="#000" stroke-width="2.84px"/>
                        </g>
                    </g>
                    <g transform="rotate(54 600 600)">
                        <g transform="matrix(1 0 0 .79442 0 55.506)">
                            <path d="m600 225v45" fill="none" stroke="#000" stroke-width="8.79px"/>
                        </g>
                        <g transform="matrix(.99803 -.054526 .06279 .86667 -36.49 69.367)">
                            <path d="m600 225v45" fill="none" stroke="#000" stroke-width="2.8px"/>
                        </g>
                        <g transform="matrix(.99951 -.027236 .031411 .86667 -18.55 52.504)">
                            <path d="m600 225v45" fill="none" stroke="#000" stroke-width="2.81px"/>
                        </g>
                        <g transform="matrix(.99803 .054526 -.06279 .86667 38.858 3.9356)">
                            <path d="m600 225v45" fill="none" stroke="#000" stroke-width="2.85px"/>
                        </g>
                        <g transform="matrix(.99951 .027236 -.031411 .86667 19.142 19.821)">
                            <path d="m600 225v45" fill="none" stroke="#000" stroke-width="2.84px"/>
                        </g>
                    </g>
                    <g transform="rotate(18 600 600)">
                        <g transform="matrix(1 0 0 .79442 0 55.506)">
                            <path d="m600 225v45" fill="none" stroke="#000" stroke-width="8.79px"/>
                        </g>
                        <g transform="matrix(.99803 -.054526 .06279 .86667 -36.49 69.367)">
                            <path d="m600 225v45" fill="none" stroke="#000" stroke-width="2.8px"/>
                        </g>
                        <g transform="matrix(.99951 -.027236 .031411 .86667 -18.55 52.504)">
                            <path d="m600 225v45" fill="none" stroke="#000" stroke-width="2.81px"/>
                        </g>
                        <g transform="matrix(.99803 .054526 -.06279 .86667 38.858 3.9356)">
                            <path d="m600 225v45" fill="none" stroke="#000" stroke-width="2.85px"/>
                        </g>
                        <g transform="matrix(.99951 .027236 -.031411 .86667 19.142 19.821)">
                            <path d="m600 225v45" fill="none" stroke="#000" stroke-width="2.84px"/>
                        </g>
                    </g>
                    <g transform="rotate(-18 600 600)">
                        <g transform="matrix(1 0 0 .79442 0 55.506)">
                            <path d="m600 225v45" fill="none" stroke="#000" stroke-width="8.79px"/>
                        </g>
                        <g transform="matrix(.99803 -.054526 .06279 .86667 -36.49 69.367)">
                            <path d="m600 225v45" fill="none" stroke="#000" stroke-width="2.8px"/>
                        </g>
                        <g transform="matrix(.99951 -.027236 .031411 .86667 -18.55 52.504)">
                            <path d="m600 225v45" fill="none" stroke="#000" stroke-width="2.81px"/>
                        </g>
                        <g transform="matrix(.99803 .054526 -.06279 .86667 38.858 3.9356)">
                            <path d="m600 225v45" fill="none" stroke="#000" stroke-width="2.85px"/>
                        </g>
                        <g transform="matrix(.99951 .027236 -.031411 .86667 19.142 19.821)">
                            <path d="m600 225v45" fill="none" stroke="#000" stroke-width="2.84px"/>
                        </g>
                    </g>
                    <g transform="rotate(-9 600 600)">
                        <path d="m600 225v45" fill="none" stroke="#000" stroke-width="7.94px"/>
                        <g transform="matrix(.99803 -.054526 .06279 .86667 -36.49 69.367)">
                            <path d="m600 225v45" fill="none" stroke="#000" stroke-width="2.8px"/>
                        </g>
                        <g transform="matrix(.99951 -.027236 .031411 .86667 -18.55 52.504)">
                            <path d="m600 225v45" fill="none" stroke="#000" stroke-width="2.81px"/>
                        </g>
                        <g transform="matrix(.99803 .054526 -.06279 .86667 38.858 3.9356)">
                            <path d="m600 225v45" fill="none" stroke="#000" stroke-width="2.85px"/>
                        </g>
                        <g transform="matrix(.99951 .027236 -.031411 .86667 19.142 19.821)">
                            <path d="m600 225v45" fill="none" stroke="#000" stroke-width="2.84px"/>
                        </g>
                    </g>
                    <g transform="rotate(-27 600 600)">
                        <path d="m600 225v45" fill="none" stroke="#000" stroke-width="7.94px"/>
                        <g transform="matrix(.99803 -.054526 .06279 .86667 -36.49 69.367)">
                            <path d="m600 225v45" fill="none" stroke="#000" stroke-width="2.8px"/>
                        </g>
                        <g transform="matrix(.99951 -.027236 .031411 .86667 -18.55 52.504)">
                            <path d="m600 225v45" fill="none" stroke="#000" stroke-width="2.81px"/>
                        </g>
                        <g transform="matrix(.99803 .054526 -.06279 .86667 38.858 3.9356)">
                            <path d="m600 225v45" fill="none" stroke="#000" stroke-width="2.85px"/>
                        </g>
                        <g transform="matrix(.99951 .027236 -.031411 .86667 19.142 19.821)">
                            <path d="m600 225v45" fill="none" stroke="#000" stroke-width="2.84px"/>
                        </g>
                    </g>
                    <g transform="rotate(-36 600 600)">
                        <path d="m600 225v45" fill="none" stroke="#000" stroke-width="7.94px"/>
                        <g transform="matrix(.99803 -.054526 .06279 .86667 -36.49 69.367)">
                            <path d="m600 225v45" fill="none" stroke="#000" stroke-width="2.8px"/>
                        </g>
                        <g transform="matrix(.99951 -.027236 .031411 .86667 -18.55 52.504)">
                            <path d="m600 225v45" fill="none" stroke="#000" stroke-width="2.81px"/>
                        </g>
                        <g transform="matrix(.99803 .054526 -.06279 .86667 38.858 3.9356)">
                            <path d="m600 225v45" fill="none" stroke="#000" stroke-width="2.85px"/>
                        </g>
                        <g transform="matrix(.99951 .027236 -.031411 .86667 19.142 19.821)">
                            <path d="m600 225v45" fill="none" stroke="#000" stroke-width="2.84px"/>
                        </g>
                    </g>
                    <g transform="rotate(-45 600 600)">
                        <path d="m600 225v45" fill="none" stroke="#000" stroke-width="7.94px"/>
                        <g transform="matrix(.99803 -.054526 .06279 .86667 -36.49 69.367)">
                            <path d="m600 225v45" fill="none" stroke="#000" stroke-width="2.8px"/>
                        </g>
                        <g transform="matrix(.99951 -.027236 .031411 .86667 -18.55 52.504)">
                            <path d="m600 225v45" fill="none" stroke="#000" stroke-width="2.81px"/>
                        </g>
                        <g transform="matrix(.99803 .054526 -.06279 .86667 38.858 3.9356)">
                            <path d="m600 225v45" fill="none" stroke="#000" stroke-width="2.85px"/>
                        </g>
                        <g transform="matrix(.99951 .027236 -.031411 .86667 19.142 19.821)">
                            <path d="m600 225v45" fill="none" stroke="#000" stroke-width="2.84px"/>
                        </g>
                    </g>
                    
                        <path d="m600 225v45" fill="none" stroke="#000" stroke-width="7.94px"/>
                        <g transform="matrix(.99803 -.054526 .06279 .86667 -36.49 69.367)">
                            <path d="m600 225v45" fill="none" stroke="#000" stroke-width="2.8px"/>
                        </g>
                        <g transform="matrix(.99951 -.027236 .031411 .86667 -18.55 52.504)">
                            <path d="m600 225v45" fill="none" stroke="#000" stroke-width="2.81px"/>
                        </g>
                        <g transform="matrix(.99803 .054526 -.06279 .86667 38.858 3.9356)">
                            <path d="m600 225v45" fill="none" stroke="#000" stroke-width="2.85px"/>
                        </g>
                        <g transform="matrix(.99951 .027236 -.031411 .86667 19.142 19.821)">
                            <path d="m600 225v45" fill="none" stroke="#000" stroke-width="2.84px"/>
                        </g>
                    
                    <g transform="rotate(-63 600 600)">
                        <path d="m600 225v45" fill="none" stroke="#000" stroke-width="7.94px"/>
                        <g transform="matrix(.99803 -.054526 .06279 .86667 -36.49 69.367)">
                            <path d="m600 225v45" fill="none" stroke="#000" stroke-width="2.8px"/>
                        </g>
                        <g transform="matrix(.99951 -.027236 .031411 .86667 -18.55 52.504)">
                            <path d="m600 225v45" fill="none" stroke="#000" stroke-width="2.81px"/>
                        </g>
                        <g transform="matrix(.99803 .054526 -.06279 .86667 38.858 3.9356)">
                            <path d="m600 225v45" fill="none" stroke="#000" stroke-width="2.85px"/>
                        </g>
                        <g transform="matrix(.99951 .027236 -.031411 .86667 19.142 19.821)">
                            <path d="m600 225v45" fill="none" stroke="#000" stroke-width="2.84px"/>
                        </g>
                    </g>
                    <g transform="rotate(-72 600 600)">
                        <path d="m600 225v45" fill="none" stroke="#000" stroke-width="7.94px"/>
                        <g transform="matrix(.99803 -.054526 .06279 .86667 -36.49 69.367)">
                            <path d="m600 225v45" fill="none" stroke="#000" stroke-width="2.8px"/>
                        </g>
                        <g transform="matrix(.99951 -.027236 .031411 .86667 -18.55 52.504)">
                            <path d="m600 225v45" fill="none" stroke="#000" stroke-width="2.81px"/>
                        </g>
                        <g transform="matrix(.99803 .054526 -.06279 .86667 38.858 3.9356)">
                            <path d="m600 225v45" fill="none" stroke="#000" stroke-width="2.85px"/>
                        </g>
                        <g transform="matrix(.99951 .027236 -.031411 .86667 19.142 19.821)">
                            <path d="m600 225v45" fill="none" stroke="#000" stroke-width="2.84px"/>
                        </g>
                    </g>
                    <g transform="rotate(-90,600,600)">
                        <path d="m600 225v45" fill="none" stroke="#000" stroke-width="7.94px"/>
                        <g transform="matrix(.99803 -.054526 .06279 .86667 -36.49 69.367)">
                            <path d="m600 225v45" fill="none" stroke="#000" stroke-width="2.8px"/>
                        </g>
                        <g transform="matrix(.99951 -.027236 .031411 .86667 -18.55 52.504)">
                            <path d="m600 225v45" fill="none" stroke="#000" stroke-width="2.81px"/>
                        </g>
                        <g transform="matrix(.99803 .054526 -.06279 .86667 38.858 3.9356)">
                            <path d="m600 225v45" fill="none" stroke="#000" stroke-width="2.85px"/>
                        </g>
                        <g transform="matrix(.99951 .027236 -.031411 .86667 19.142 19.821)">
                            <path d="m600 225v45" fill="none" stroke="#000" stroke-width="2.84px"/>
                        </g>
                    </g>
                    <g transform="rotate(-81 600 600)">
                        <path d="m600 225v45" fill="none" stroke="#000" stroke-width="7.94px"/>
                        <g transform="matrix(.99803 -.054526 .06279 .86667 -36.49 69.367)">
                            <path d="m600 225v45" fill="none" stroke="#000" stroke-width="2.8px"/>
                        </g>
                        <g transform="matrix(.99951 -.027236 .031411 .86667 -18.55 52.504)">
                            <path d="m600 225v45" fill="none" stroke="#000" stroke-width="2.81px"/>
                        </g>
                        <g transform="matrix(.99803 .054526 -.06279 .86667 38.858 3.9356)">
                            <path d="m600 225v45" fill="none" stroke="#000" stroke-width="2.85px"/>
                        </g>
                        <g transform="matrix(.99951 .027236 -.031411 .86667 19.142 19.821)">
                            <path d="m600 225v45" fill="none" stroke="#000" stroke-width="2.84px"/>
                        </g>
                    </g>
                </g>
                
                
                
                <g transform="matrix(.27908 0 0 .28397 79.771 403.83)">
                    <path d="m1833.8 241.62c233.58 0 423.21 186.37 423.21 415.93 0 229.56-189.63 415.93-423.21 415.93s-423.22-186.37-423.22-415.93c0-229.56 189.64-415.93 423.22-415.93zm0 14.673c-225.34 0-408.29 179.8-408.29 401.26 0 221.46 182.95 401.26 408.29 401.26s408.28-179.8 408.28-401.26c0-221.46-182.94-401.26-408.28-401.26z"/>
                <path transform="matrix(.6 0 0 .6 733.53 263.02)" d="m1833.8 241.62c233.58 0 423.21 186.37 423.21 415.93 0 229.56-189.63 415.93-423.21 415.93s-423.22-186.37-423.22-415.93c0-229.56 189.64-415.93 423.22-415.93zm0 24.456c-219.85 0-398.34 175.41-398.34 391.48 0 216.06 178.49 391.48 398.34 391.48 219.84 0 398.33-175.42 398.33-391.48 0-216.06-178.49-391.48-398.33-391.48z" clip-rule="evenodd" fill-rule="evenodd" stroke-linecap="square" stroke-miterlimit="1.5"/></g>
                
                
                
                
                
                
                
                
                
                
                
                
                
                
                
            <g transform="matrix(1.0064 0 0 1.0064 -1153.2 755.37)" clip-rule="evenodd" fill-rule="evenodd" stroke-linecap="square" stroke-miterlimit="1.5">
                    
                    <g aria-label="FM"><path d="m1713.2 135.68h12.259l1.5041 4.6416h-8.5878v4.5446h6.2428v4.6416h-6.2428v9.3641l-5.1753 0.92185z"/><path d="m1740.1 159.52-5.7414-10.383-2.4421 10.383-4.9651-0.64692 5.4988-23.839 7.6498 13.844 7.6497-13.844 5.4988 23.839-4.9651 0.64692-2.4421-10.383z"/></g>
                </g></g>
            <g id="b" transform="matrix(3.1922 0 0 3.1922 2835.1 1582.7)">
                <g transform="translate(-55.5,-55.5)">
                    <clipPath id="a">
                        <rect width="111" height="111"/>
                    </clipPath>
                    <g clip-path="url(#a)">
                        <g transform="matrix(2.6667 0 0 2.6667 -217.2 -345.5)">
                            
                                <g transform="matrix(0 -1 -1 0 102.2 134.59)">
                                    <path d="m9.9945e-4 0a15.728 15.727 0 0 1-15.728 15.727 15.728 15.727 0 0 1-15.728-15.727 15.728 15.727 0 0 1 15.728-15.727 15.728 15.727 0 0 1 15.728 15.727z" fill="none" stroke="#231f20" stroke-linecap="butt" stroke-miterlimit="10" stroke-width="1px"/>
                                
                                
                                    <path d="m-15.727-15.727c-8.687 0-15.728 7.041-15.728 15.727s7.041 15.727 15.728 15.727c8.686 0 15.727-7.041 15.727-15.727s-7.041-15.727-15.727-15.727" fill="#fff" fill-rule="nonzero"/>
                                </g>
                                <g transform="matrix(0 -1 -1 0 102.2 137.73)">
                                    <path d="m-12.582-12.582c-6.949 0-12.582 5.633-12.582 12.582s5.633 12.582 12.582 12.582 12.582-5.633 12.582-12.582-5.633-12.582-12.582-12.582" fill-rule="nonzero"/>
                                </g>
                                <g transform="matrix(.375 0 0 .375 58.312 90.855)">
                                    
                                        <g transform="translate(93.3 164.51)">
                                            <path d="m1.4063-18.672h4.5704q4.6355 0 6.9662 2.6953 2.3438 2.6953 2.3438 6.2371-0.05208 4.948-2.9167 7.3438-2.8646 2.3959-6.7319 2.3959h-4.2318zm1.9271 1.888v14.909h2.1224q3.073 0 5.3907-2.0313 2.3177-2.0313 2.3177-5.3647 0-3.3464-1.9922-5.4298-1.9792-2.0834-4.349-2.0834z" fill="#fff" aria-label="D"/>
                                        </g>
                                        <g transform="translate(121.14 164.51)">
                                            <path d="m5.0391-13.151-2.7344 13.62-1.836-0.46876 3.8933-19.141 6.4454 15.117 6.4454-15.117 3.8933 19.141-1.8229 0.46876-2.7605-13.62-5.7553 13.62z" fill="#fff" aria-label="M"/>
                                        </g>
                                    
                                    <g transform="translate(104.84 178.37)">
                                        <path d="m16.484-11.5h4.4531v2.6562h-2.2969q-0.84375 3.0156-2.1562 4.6562l1.1406 1.4688h3.3125v2.7188h-4.9531l-1.4375-1.9062q-2.8281 2.25-5.7812 2.25-3.375 0-5.5781-2.0938t-2.2031-5.2344q0-4.3438 4.9531-6.5156-1.4844-1.8906-1.4844-3.7969 0-2.0938 1.5781-3.4375 1.5938-1.3438 3.7031-1.3438 2.1875 0 3.6875 1.3438 1.5156 1.3281 1.5156 3.3125 0 1.7344-1.0625 2.8438t-3.5 2.1094l4.4219 5.9844q1.1875-2.0781 1.6875-5.0156zm-7.6719-3.0312q1.875-0.78125 2.5469-1.4688 0.6875-0.6875 0.6875-1.5156 0-0.76562-0.57812-1.375-0.57812-0.625-1.6719-0.625-0.98438 0-1.6406 0.59375t-0.65625 1.5469q0 0.84375 1.125 2.5625zm-1.2188 3.0312q-3.375 1.5-3.375 4.375 0 1.9062 1.4219 3.3438 1.4219 1.4219 3.4531 1.4219 2.0781 0 3.7812-1.7344z" fill="#fff" aria-label="&amp;"/>
                                    </g>
                                </g>
                            
                        </g>
                    </g>
                </g>
            </g>
            
            <g><g transform="matrix(1.32 -2.2863 1.5453 .89219 223.71 3933)">
                <path d="m1323.7 658.02 73.53 188.11v13.993l-76.37-195.39c1.01-2.187 1.96-4.427 2.84-6.715zm-11.64 22.094 85.17 217.91v13.992l-88.78-227.13c1.25-1.533 2.45-3.125 3.61-4.771zm-14.84 15.967 88.64 226.77-8.37-7.407-84.53-216.26c1.44-0.954 2.86-1.988 4.26-3.103zm-17 9.392 57.92 148.16-7.84-6.051-55.02-140.75c1.65-0.358 3.3-0.809 4.94-1.354z" fill="#231f20"/>
            </g><g transform="matrix(-1.32 -2.2863 -1.5453 .89219 5445.2 3933)">
                <path d="m1323.7 658.02 73.53 188.11v13.993l-76.37-195.39c1.01-2.187 1.96-4.427 2.84-6.715zm-11.64 22.094 85.17 217.91v13.992l-88.78-227.13c1.25-1.533 2.45-3.125 3.61-4.771zm-14.84 15.967 88.64 226.77-8.37-7.407-84.53-216.26c1.44-0.954 2.86-1.988 4.26-3.103zm-17 9.392 57.92 148.16-7.84-6.051-55.02-140.75c1.65-0.358 3.3-0.809 4.94-1.354z" fill="#231f20"/>
            </g></g>
        </g>
    </g>
<g fill="#1a1a1a"><path d="m503.58 698.82h-54.469v-8.625l42.797-52.922h-41.203v-8.25h51.844v8.3906l-43.219 53.156h44.25z" aria-label="Z"/><path d="m1368.9 837.7-24.562 39.188v30.609h-9.2813v-29.625l-24.656-40.172h10.266l19.078 31.219 19.266-31.219z" aria-label="Y"/><path d="m1639.6 718.81-24.094 34.5 24.047 35.297h-10.734l-19.031-28.734-19.5 28.734h-10.125l24.328-34.875-23.766-34.922h10.688l18.797 28.359 19.219-28.359z" aria-label="X"/><path d="m1475.8 392.12-18.141 69.797h-10.453l-14.672-57.938-14.344 57.938h-10.219l-18.469-69.797h9.5157l14.672 58.031 14.438-58.031h9.4219l14.578 58.594 14.578-58.594z" aria-label="W"/><path d="m149.42 775.19-25.406 69.797h-12.375l-25.406-69.797h9.9375l21.891 61.406 21.891-61.406z" aria-label="V"/><path d="m481.83 399.55q0 7.5938-1.6875 13.266-1.6406 5.625-5.4375 9.375-3.6094 3.5625-8.4375 5.2031-4.8281 1.6406-11.25 1.6406-6.5625 0-11.438-1.7344-4.875-1.7344-8.2031-5.1094-3.7969-3.8438-5.4844-9.2812-1.6406-5.4375-1.6406-13.359v-41.766h9.2812v42.234q0 5.6719 0.75 8.9531 0.79688 3.2812 2.625 5.9531 2.0625 3.0469 5.5781 4.5938 3.5625 1.5469 8.5312 1.5469 5.0156 0 8.5312-1.5 3.5156-1.5469 5.625-4.6406 1.8281-2.6719 2.5781-6.0938 0.79688-3.4688 0.79688-8.5781v-42.469h9.2812z" aria-label="U"/><path d="m806.79 421.64h-24.938v61.547h-9.2812v-61.547h-24.938v-8.25h59.156z" aria-label="T"/><path d="m500.52 234.07q0 4.0781-1.9219 8.0625-1.875 3.9844-5.2969 6.75-3.75 3-8.7656 4.6875-4.9688 1.6875-12 1.6875-7.5469 0-13.594-1.4062-6-1.4062-12.234-4.1719v-11.625h0.65625q5.2969 4.4062 12.234 6.7969 6.9375 2.3906 13.031 2.3906 8.625 0 13.406-3.2344 4.8281-3.2344 4.8281-8.625 0-4.6406-2.2969-6.8438-2.25-2.2031-6.8906-3.4219-3.5156-0.9375-7.6406-1.5469-4.0781-0.60938-8.6719-1.5469-9.2812-1.9688-13.781-6.7031-4.4531-4.7812-4.4531-12.422 0-8.7656 7.4062-14.344 7.4062-5.625 18.797-5.625 7.3594 0 13.5 1.4062 6.1406 1.4062 10.875 3.4688v10.969h-0.65625q-3.9844-3.375-10.5-5.5781-6.4688-2.25-13.266-2.25-7.4531 0-12 3.0938-4.5 3.0938-4.5 7.9688 0 4.3594 2.25 6.8438 2.25 2.4844 7.9219 3.7969 3 0.65625 8.5312 1.5938t9.375 1.9219q7.7812 2.0625 11.719 6.2344 3.9375 4.1719 3.9375 11.672z" aria-label="S"/><path d="m324.88 414.32h-12.047l-23.344-27.75h-13.078v27.75h-9.2812v-69.797h19.547q6.3281 0 10.547 0.84375 4.2188 0.79687 7.5938 2.9062 3.7969 2.3906 5.9062 6.0469 2.1562 3.6094 2.1562 9.1875 0 7.5469-3.7969 12.656-3.7969 5.0625-10.453 7.6406zm-21.703-50.156q0-3-1.0781-5.2969-1.0312-2.3438-3.4688-3.9375-2.0156-1.3594-4.7812-1.875-2.7656-0.5625-6.5156-0.5625h-10.922v26.344h9.375q4.4062 0 7.6875-0.75 3.2812-0.79688 5.5781-2.9062 2.1094-1.9688 3.0938-4.5 1.0312-2.5781 1.0312-6.5156z" aria-label="R"/><path d="m186.94 735.28q-2.8125 0.70312-5.5781 0.98437-2.7188 0.32813-5.5781 0.32813-8.1562 0-13.125-4.5-4.9219-4.4531-5.3438-12.797-1.125 0.1875-2.2031 0.23438-1.0312 0.0937-2.0156 0.0937-7.3594 0-13.406-2.4375-6-2.4375-10.219-7.0781-4.2188-4.6406-6.5156-11.391-2.25-6.75-2.25-15.422 0-8.5312 2.25-15.281 2.25-6.7969 6.5625-11.625 4.125-4.5938 10.219-7.0312 6.1406-2.4375 13.359-2.4375 7.5 0 13.453 2.4844 6 2.4375 10.172 6.9844 4.2656 4.6875 6.5156 11.484 2.2969 6.7969 2.2969 15.422 0 12.797-5.25 21.562-5.2031 8.7656-14.016 12.281 0.1875 5.3438 2.5312 8.2969 2.3438 2.9531 8.5312 2.9531 1.9219 0 4.5469-0.60937 2.6719-0.5625 3.7969-1.0312h1.2656zm-11.062-51.984q0-13.594-6.0938-20.953-6.0938-7.4062-16.641-7.4062-10.641 0-16.734 7.4062-6.0469 7.3594-6.0469 20.953 0 13.734 6.1875 21.047 6.1875 7.2656 16.594 7.2656t16.547-7.2656q6.1875-7.3125 6.1875-21.047z" aria-label="Q"/><path d="m682.04 463.97q0 4.6406-1.6406 8.625-1.5938 3.9375-4.5 6.8438-3.6094 3.6094-8.5312 5.4375-4.9219 1.7812-12.422 1.7812h-9.2812v26.016h-9.2812v-69.797h18.938q6.2812 0 10.641 1.0781 4.3594 1.0312 7.7344 3.2812 3.9844 2.6719 6.1406 6.6562 2.2031 3.9844 2.2031 10.078zm-9.6562 0.23437q0-3.6094-1.2656-6.2812-1.2656-2.6719-3.8438-4.3594-2.25-1.4531-5.1562-2.0625-2.8594-0.65625-7.2656-0.65625h-9.1875v27.891h7.8281q5.625 0 9.1406-0.98437 3.5156-1.0312 5.7188-3.2344 2.2031-2.25 3.0938-4.7344 0.9375-2.4844 0.9375-5.5781z" aria-label="P"/><path d="m1185.4 524.29q4.2656 4.6875 6.5156 11.484 2.2969 6.7969 2.2969 15.422t-2.3437 15.469q-2.2969 6.7969-6.4688 11.344-4.3125 4.7344-10.219 7.125-5.8594 2.3906-13.406 2.3906-7.3594 0-13.406-2.4375-6-2.4375-10.219-7.0781-4.2187-4.6406-6.5156-11.391-2.25-6.75-2.25-15.422 0-8.5312 2.25-15.281 2.25-6.7969 6.5625-11.625 4.125-4.5938 10.219-7.0312 6.1407-2.4375 13.359-2.4375 7.5 0 13.453 2.4844 6 2.4375 10.172 6.9844zm-0.8437 26.906q0-13.594-6.0938-20.953-6.0937-7.4062-16.641-7.4062-10.641 0-16.734 7.4062-6.0469 7.3594-6.0469 20.953 0 13.734 6.1875 21.047 6.1875 7.2656 16.594 7.2656 10.406 0 16.547-7.2656 6.1875-7.3125 6.1875-21.047z" aria-label="O"/><path d="m909.8 473.88h-11.484l-33.094-62.438v62.438h-8.6719v-69.797h14.391l30.188 57v-57h8.6719z" aria-label="N"/><path d="m1531.4 558.43h-9.2813v-60.141l-19.406 40.922h-5.5313l-19.266-40.922v60.141h-8.6719v-69.797h12.656l18.609 38.859 18-38.859h12.891z" aria-label="M"/><path d="m1238.9 259.02h-44.156v-69.797h9.2812v61.547h34.875z" aria-label="L"/><path d="m1299.6 382.03h-12.047l-27.609-31.078-6.9375 7.4062v23.672h-9.2812v-69.797h9.2812v36.422l33.891-36.422h11.25l-31.172 32.812z" aria-label="K"/><path d="m1037.3 477.7q0 9.1875-5.625 14.156-5.5781 4.9688-15 4.9688-2.25 0-6-0.42187-3.75-0.375-6.2812-0.9375v-8.6719h0.5156q1.9219 0.65625 4.7344 1.3594 2.8125 0.70312 5.7656 0.70312 4.3125 0 6.8438-0.98437 2.5781-0.98438 3.7968-2.8125 1.2657-1.875 1.5938-4.5938 0.375-2.7188 0.375-6.2812v-40.734h-14.766v-7.4062h24.047z" aria-label="J"/><path d="m358.45 554.5h-27.562v-7.125h9.1406v-55.547h-9.1406v-7.125h27.562v7.125h-9.1406v55.547h9.1406z" aria-label="I"/><path d="m1589.2 721.13h-9.2812v-34.172h-34.828v34.172h-9.2812v-69.797h9.2812v27.375h34.828v-27.375h9.2812z" aria-label="H"/><path d="m820.12 141.34q-5.7188 2.625-12.516 4.5938-6.75 1.9219-13.078 1.9219-8.1562 0-14.953-2.25-6.7969-2.25-11.578-6.75-4.8281-4.5469-7.4531-11.344-2.625-6.8438-2.625-15.984 0-16.734 9.75-26.391 9.7969-9.7031 26.859-9.7031 5.9531 0 12.141 1.4531 6.2344 1.4062 13.406 4.8281v11.016h-0.84375q-1.4531-1.125-4.2188-2.9531-2.7656-1.8281-5.4375-3.0469-3.2344-1.4531-7.3594-2.3906-4.0781-0.98438-9.2812-0.98438-11.719 0-18.562 7.5469-6.7969 7.5-6.7969 20.344 0 13.547 7.125 21.094 7.125 7.5 19.406 7.5 4.5 0 8.9531-0.89062 4.5-0.89063 7.875-2.2969v-17.109h-18.703v-8.1562h27.891z" aria-label="G"/><path d="m1110.2 152.34h-35.297v19.688h30.328v8.25h-30.328v33.609h-9.2812v-69.797h44.578z" aria-label="F"/><path d="m1314.4 703.3h-45.984v-69.797h45.984v8.25h-36.703v19.125h36.703v8.25h-36.703v25.922h36.703z" aria-label="E"/><path d="m681.75 251.31q0 9.5156-4.1719 17.25-4.125 7.7344-11.016 12-4.7812 2.9531-10.688 4.2656-5.8594 1.3125-15.469 1.3125h-17.625v-69.797h17.438q10.219 0 16.219 1.5 6.0469 1.4531 10.219 4.0312 7.125 4.4531 11.109 11.859 3.9844 7.4062 3.9844 17.578zm-9.7031-0.14062q0-8.2031-2.8594-13.828-2.8594-5.625-8.5312-8.8594-4.125-2.3438-8.7656-3.2344-4.6406-0.9375-11.109-0.9375h-8.7188v53.859h8.7188q6.7031 0 11.672-0.98438 5.0156-0.98437 9.1875-3.6562 5.2031-3.3281 7.7812-8.7656 2.625-5.4375 2.625-13.594z" aria-label="D"/><path d="m980.98 220.18q-2.5781 1.125-4.6875 2.1094-2.0625 0.98437-5.4375 2.0625-2.8594 0.89062-6.2344 1.5-3.3281 0.65625-7.3594 0.65625-7.5938 0-13.828-2.1094-6.1875-2.1562-10.781-6.7031-4.5-4.4531-7.0312-11.297-2.5312-6.8906-2.5312-15.984 0-8.625 2.4375-15.422 2.4375-6.7969 7.0312-11.484 4.4531-4.5469 10.734-6.9375 6.3281-2.3906 14.016-2.3906 5.625 0 11.203 1.3594 5.625 1.3594 12.469 4.7812v11.016h-0.70313q-5.7656-4.8281-11.438-7.0312-5.6719-2.2031-12.141-2.2031-5.2969 0-9.5625 1.7344-4.2188 1.6875-7.5469 5.2969-3.2344 3.5156-5.0625 8.9062-1.7812 5.3438-1.7812 12.375 0 7.3594 1.9688 12.656 2.0156 5.2969 5.1562 8.625 3.2812 3.4688 7.6406 5.1562 4.4062 1.6406 9.2812 1.6406 6.7031 0 12.562-2.2969 5.8594-2.2969 10.969-6.8906h0.65625z" aria-label="C"/><path d="m457.58 820.73q0 5.2031-1.9688 9.1875-1.9688 3.9844-5.2969 6.5625-3.9375 3.0938-8.6719 4.4062-4.6875 1.3125-11.953 1.3125h-24.75v-69.797h20.672q7.6406 0 11.438 0.5625 3.7969 0.5625 7.2656 2.3438 3.8438 2.0156 5.5781 5.2031 1.7344 3.1406 1.7344 7.5469 0 4.9688-2.5312 8.4844-2.5312 3.4688-6.75 5.5781v0.375q7.0781 1.4531 11.156 6.2344 4.0781 4.7344 4.0781 12zm-15.609-31.453q0-2.5312-0.84375-4.2656-0.84375-1.7344-2.7188-2.8125-2.2031-1.2656-5.3438-1.5469-3.1406-0.32812-7.7812-0.32812h-11.062v20.156h12q4.3594 0 6.9375-0.42188 2.5781-0.46875 4.7812-1.875 2.2031-1.4062 3.0938-3.6094 0.9375-2.25 0.9375-5.2969zm5.9531 31.828q0-4.2188-1.2656-6.7031-1.2656-2.4844-4.5938-4.2188-2.25-1.1719-5.4844-1.5-3.1875-0.375-7.7812-0.375h-14.578v25.969h12.281q6.0938 0 9.9844-0.60937 3.8906-0.65625 6.375-2.3438 2.625-1.8281 3.8438-4.1719t1.2188-6.0469z" aria-label="B"/><path d="m216.65 626.04h-9.8906l-6.8438-19.453h-30.188l-6.8438 19.453h-9.4219l25.406-69.797h12.375zm-19.594-27.422-12.234-34.266-12.281 34.266z" aria-label="A"/></g></svg>
