<?xml version="1.0" encoding="UTF-8" standalone="no"?><!DOCTYPE svg PUBLIC "-//W3C//DTD SVG 1.1//EN" "http://www.w3.org/Graphics/SVG/1.1/DTD/svg11.dtd"><svg width="137px" height="104px" version="1.1" xmlns="http://www.w3.org/2000/svg" xmlns:xlink="http://www.w3.org/1999/xlink" xml:space="preserve" xmlns:serif="http://www.serif.com/" style="fill-rule:evenodd;clip-rule:evenodd;stroke-linejoin:round;stroke-miterlimit:2;"><g transform="matrix(1,0,0,1,-71.4834,-1672.32)"><g id="Artboard4" transform="matrix(1.74292,0,0,0.874985,-101.573,226.145)"><rect x="99.291" y="1652.8" width="78.354" height="118.792" style="fill:none;"/><clipPath id="_clip1"><rect x="99.291" y="1652.8" width="78.354" height="118.792"/></clipPath><g clip-path="url(#_clip1)"><g transform="matrix(0.598739,0,0,1.0247,-775.287,-1843.21)"><g transform="matrix(1,0,0,1.0077,0.916407,2798.97)"><path d="M1490.14,672.136C1489.66,671.186 1488,673.778 1487.97,673.702C1485.83,667.661 1486.05,652.378 1486.05,647.248C1486.05,625.63 1504.88,608.078 1526.5,608.078C1548.12,608.078 1564.39,625.63 1564.39,647.248C1564.39,651.913 1564.63,666.156 1562.38,673.658C1562.38,673.662 1560.96,670.213 1560.3,671.553L1560.3,647.994L1560.21,647.994C1560.22,647.746 1560.22,647.497 1560.22,647.248C1560.22,627.929 1545.82,612.245 1526.5,612.245C1507.18,612.245 1490.21,627.929 1490.21,647.248C1490.21,647.497 1490.21,647.746 1490.22,647.994L1490.14,647.994L1490.14,672.136Z" style="fill:rgb(142,117,28);"/></g><g transform="matrix(-1,0,0,1.0077,3053.85,2823.54)"><path d="M1528.57,698.732C1528.58,697.831 1528.7,679.728 1528.7,679.716C1528.91,665.466 1537.88,657.93 1546.75,653.92C1555.87,649.794 1564.95,649.329 1564.95,649.329L1564.74,645.168C1564.74,645.168 1554.91,645.657 1545.03,650.123C1537.52,653.522 1530,659.181 1526.52,668.533C1518.91,646.804 1490.78,645.168 1490.78,645.168L1490.55,649.329C1490.55,649.329 1498.96,649.793 1507.42,653.896C1515.69,657.907 1524.03,665.471 1524.23,679.728L1524.41,698.732L1524.41,698.745L1528.57,698.745C1528.57,698.745 1528.57,698.741 1528.57,698.732Z" style="fill:rgb(142,117,28);"/></g><g transform="matrix(1,0,0,1.0077,0.916407,2830.5)"><path d="M1527.02,660.155L1525.98,660.171C1525.98,660.171 1525.81,649.239 1517.86,640.405C1512.54,634.496 1503.73,629.544 1489.2,629.383L1489.21,628.341C1504.14,628.507 1513.16,633.638 1518.63,639.708C1526.86,648.845 1527.02,660.155 1527.02,660.155Z" style="fill:rgb(142,117,28);"/></g><g transform="matrix(1,0,0,1.0077,0.916407,2816.03)"><path d="M1527.02,660.155L1525.98,660.171C1525.98,660.171 1525.81,649.239 1517.86,640.405C1512.54,634.496 1503.73,629.544 1489.2,629.383L1489.21,628.341C1504.14,628.507 1513.16,633.638 1518.63,639.708C1526.86,648.845 1527.02,660.155 1527.02,660.155Z" style="fill:rgb(142,117,28);"/></g><g transform="matrix(1,0,0,1.0077,0.916407,2812.09)"><path d="M1527.02,661.548L1525.98,661.57C1525.98,661.57 1525.64,645.371 1518.52,632.334C1513.82,623.725 1506.15,616.495 1493.6,616.351L1493.61,615.31C1506.61,615.459 1514.57,622.92 1519.44,631.835C1526.67,645.085 1527.02,661.548 1527.02,661.548Z" style="fill:rgb(142,117,28);"/></g><g transform="matrix(-1,0,0,1.0077,3053.92,2794.14)"><rect x="1525.84" y="615.975" width="1.25" height="85.134" style="fill:rgb(142,117,28);"/></g><g transform="matrix(-1,0,0,1.0077,3053.92,2830.5)"><path d="M1525.98,660.171L1527.02,660.155C1527.02,660.155 1526.86,648.845 1518.63,639.708C1513.16,633.638 1504.14,628.507 1489.21,628.341L1489.2,629.383C1503.73,629.544 1512.54,634.496 1517.86,640.405C1525.81,649.239 1525.98,660.171 1525.98,660.171Z" style="fill:rgb(142,117,28);"/></g><g transform="matrix(-1,0,0,1.0077,3053.92,2816.03)"><path d="M1525.98,660.171L1527.02,660.155C1527.02,660.155 1526.86,648.845 1518.63,639.708C1513.16,633.638 1504.14,628.507 1489.21,628.341L1489.2,629.383C1503.73,629.544 1512.54,634.496 1517.86,640.405C1525.81,649.239 1525.98,660.171 1525.98,660.171Z" style="fill:rgb(142,117,28);"/></g><g transform="matrix(-1,0,0,1.0077,3053.92,2812.09)"><path d="M1525.98,661.57L1527.02,661.548C1527.02,661.548 1526.67,645.085 1519.44,631.835C1514.57,622.92 1506.61,615.459 1493.61,615.31L1493.6,616.351C1506.15,616.495 1513.82,623.725 1518.52,632.334C1525.64,645.371 1525.98,661.57 1525.98,661.57Z" style="fill:rgb(142,117,28);"/></g></g></g></g></g></svg>