<?xml version="1.0" encoding="UTF-8"?>
<!DOCTYPE svg  PUBLIC '-//W3C//DTD SVG 1.1//EN'  'http://www.w3.org/Graphics/SVG/1.1/DTD/svg11.dtd'>
<svg width="137px" height="104px" clip-rule="evenodd" fill-rule="evenodd" stroke-linejoin="round" stroke-miterlimit="2" version="1.1" xml:space="preserve" xmlns="http://www.w3.org/2000/svg"><g transform="translate(-71.483 -1672.3)"><g transform="matrix(1.7429 0 0 .87498 -101.57 226.14)"><rect x="99.291" y="1652.8" width="78.354" height="118.79" fill="none"/><clipPath id="a"><rect x="99.291" y="1652.8" width="78.354" height="118.79"/></clipPath><g clip-path="url(#a)"><g transform="matrix(.59874 0 0 1.0247 -775.29 -1843.2)"><g transform="matrix(1 0 0 1.0077 .91641 2799)"><path d="m1490.1 672.14c-0.48-0.95-2.14 1.642-2.17 1.566-2.14-6.041-1.92-21.324-1.92-26.454 0-21.618 18.83-39.17 40.45-39.17s37.89 17.552 37.89 39.17c0 4.665 0.24 18.908-2.01 26.41 0 4e-3 -1.42-3.445-2.08-2.105v-23.559h-0.09c0.01-0.248 0.01-0.497 0.01-0.746 0-19.319-14.4-35.003-33.72-35.003s-36.29 15.684-36.29 35.003c0 0.249 0 0.498 0.01 0.746h-0.08v24.142z" fill="#8e751c"/></g><g transform="matrix(-1 0 0 1.0077 3053.8 2823.5)"><path d="m1528.6 698.73c0.01-0.901 0.13-19.004 0.13-19.016 0.21-14.25 9.18-21.786 18.05-25.796 9.12-4.126 18.2-4.591 18.2-4.591l-0.21-4.161s-9.83 0.489-19.71 4.955c-7.51 3.399-15.03 9.058-18.51 18.41-7.61-21.729-35.74-23.365-35.74-23.365l-0.23 4.161s8.41 0.464 16.87 4.567c8.27 4.011 16.61 11.575 16.81 25.832l0.18 19.004v0.013h4.16v-0.013z" fill="#8e751c"/></g><g transform="matrix(1 0 0 1.0077 .91641 2830.5)"><path d="m1527 660.16-1.04 0.016s-0.17-10.932-8.12-19.766c-5.32-5.909-14.13-10.861-28.66-11.022l0.01-1.042c14.93 0.166 23.95 5.297 29.42 11.367 8.23 9.137 8.39 20.447 8.39 20.447z" fill="#8e751c"/></g><g transform="matrix(1 0 0 1.0077 .91641 2816)"><path d="m1527 660.16-1.04 0.016s-0.17-10.932-8.12-19.766c-5.32-5.909-14.13-10.861-28.66-11.022l0.01-1.042c14.93 0.166 23.95 5.297 29.42 11.367 8.23 9.137 8.39 20.447 8.39 20.447z" fill="#8e751c"/></g><g transform="matrix(1 0 0 1.0077 .91641 2812.1)"><path d="m1527 661.55-1.04 0.022s-0.34-16.199-7.46-29.236c-4.7-8.609-12.37-15.839-24.92-15.983l0.01-1.041c13 0.149 20.96 7.61 25.83 16.525 7.23 13.25 7.58 29.713 7.58 29.713z" fill="#8e751c"/></g><g transform="matrix(-1 0 0 1.0077 3053.9 2794.1)"><rect x="1525.8" y="615.98" width="1.25" height="85.134" fill="#8e751c"/></g><g transform="matrix(-1 0 0 1.0077 3053.9 2830.5)"><path d="m1526 660.17 1.04-0.016s-0.16-11.31-8.39-20.447c-5.47-6.07-14.49-11.201-29.42-11.367l-0.01 1.042c14.53 0.161 23.34 5.113 28.66 11.022 7.95 8.834 8.12 19.766 8.12 19.766z" fill="#8e751c"/></g><g transform="matrix(-1 0 0 1.0077 3053.9 2816)"><path d="m1526 660.17 1.04-0.016s-0.16-11.31-8.39-20.447c-5.47-6.07-14.49-11.201-29.42-11.367l-0.01 1.042c14.53 0.161 23.34 5.113 28.66 11.022 7.95 8.834 8.12 19.766 8.12 19.766z" fill="#8e751c"/></g><g transform="matrix(-1 0 0 1.0077 3053.9 2812.1)"><path d="m1526 661.57 1.04-0.022s-0.35-16.463-7.58-29.713c-4.87-8.915-12.83-16.376-25.83-16.525l-0.01 1.041c12.55 0.144 20.22 7.374 24.92 15.983 7.12 13.037 7.46 29.236 7.46 29.236z" fill="#8e751c"/></g></g></g></g></g></svg>
