<?xml version="1.0" encoding="UTF-8"?>
<!DOCTYPE svg  PUBLIC '-//W3C//DTD SVG 1.1//EN'  'http://www.w3.org/Graphics/SVG/1.1/DTD/svg11.dtd'>
<svg width="296px" height="435px" clip-rule="evenodd" fill-rule="evenodd" stroke-linejoin="round" stroke-miterlimit="2" version="1.1" xml:space="preserve" xmlns="http://www.w3.org/2000/svg"><g transform="translate(-414.65 -35)"><g transform="matrix(.69668 0 0 .74514 1543.4 121.85)"><rect x="-1620.2" y="-116.55" width="424.84" height="583.03" fill="none"/><clipPath id="a"><rect x="-1620.2" y="-116.55" width="424.84" height="583.03"/></clipPath><g clip-path="url(#a)"><g transform="matrix(1.4249 0 0 1.3323 173.08 -53.931)"><g transform="matrix(4.1667 -1.5105e-16 -1.5105e-16 2.9332 -1258.5 -14.659)"><path d="m0.035 1.074c0 0.926 0.156 1.27 1.121 2.453 2.004 2.461 3.211 5.879 4.078 11.578 0.516 3.367 0.578 14.262 0.118 19.68-0.754 8.84-2.243 19.332-4.27 30.117l-1.082 5.762 0.102 5.879 0.105 5.883 1.316 5.21 1.313 5.211-1.398 0.161-1.403 0.16v7.683l2.887-0.168c12.652-0.738 23.277-5.707 31.504-14.718 0.633-0.696 1.191-1.262 1.242-1.262s0.723 0.676 1.488 1.496c4.875 5.219 9.926 8.773 16.039 11.289 4.782 1.969 11.325 3.297 16.246 3.297h2.114v-7.68h-1.328c-0.872 0-1.368-0.109-1.446-0.312-0.066-0.176 0.504-2.848 1.266-5.942l1.387-5.629v-5.398c0-5.391 0-5.41-1.012-10.441-1.652-8.239-3.231-18.649-4.012-26.52-1.828-18.324-0.375-31.059 4.063-35.621 0.914-0.941 1.082-1.266 1.082-2.066 0-1.133-0.188-1.168-1.66-0.309-6.524 3.801-13.668 12.949-19.118 24.492-5.597 11.848-10.422 26.488-14.14 42.899-0.477 2.109-0.907 3.871-0.953 3.918-0.043 0.043-0.317-0.981-0.606-2.274-2.59-11.644-5.762-22.547-9.41-32.351-5.234-14.067-11.23-24.68-17.813-31.528-1.671-1.738-6.265-5.437-7.195-5.789-0.617-0.234-0.625-0.222-0.625 0.84zm63.824 8.656c-5.261 11.653-8.785 33.766-10.187 63.934-0.195 4.156-0.356 9.316-0.356 11.461 0 2.144-0.058 3.898-0.128 3.898-0.321 0-3.262-1.609-5.129-2.808-2.997-1.922-6.157-4.559-8.789-7.325-2.708-2.847-2.622-1.586-0.7-10.027 6.102-26.816 14.852-48.156 24.242-59.113 0.879-1.028 1.641-1.824 1.696-1.774 0.054 0.055-0.238 0.844-0.649 1.754zm-54.679 0.766c2.636 3.258 6.289 9.098 8.711 13.914 4 7.965 8.804 21.172 12.117 33.301 1.258 4.617 3.707 15.008 4.168 17.699l0.277 1.625-2.148 2.18c-2.5 2.531-5.528 4.953-8.489 6.785-1.949 1.203-4.882 2.785-5.175 2.785-0.071 0-0.125-1.773-0.125-3.941 0-14.293-2.024-38.754-4.317-52.192-1.5-8.801-3.609-16.875-5.652-21.648-0.449-1.043-0.738-1.895-0.645-1.887 0.094 8e-3 0.672 0.629 1.278 1.379zm-1.082 5.121c4.238 12.578 7.207 34.961 8.257 62.246 0.133 3.434 0.239 7.504 0.239 9.043v2.805l-1.371 0.511c-2.973 1.114-8.293 2.403-9.914 2.403-0.508 0-0.786-0.985-2.887-10.192l-1.477-6.472 1.215-6.129c2.922-14.719 4.598-26.371 5.313-36.969 0.441-6.461 0.269-14.93-0.383-19.078-0.231-1.481 0.09-0.895 1.008 1.832zm55.746 2.383c-0.332 3.476-0.125 13.808 0.39 19.304 0.875 9.309 2.641 20.903 4.961 32.571l1.227 6.168-0.895 3.91c-0.492 2.152-1.379 5.93-1.968 8.394l-1.075 4.481-0.886-0.117c-2.157-0.289-5.657-1.114-7.856-1.848l-2.387-0.801-0.082-1.539c-0.043-0.847 0.039-4.996 0.188-9.219 0.816-23.445 3.055-43.609 6.285-56.64 0.852-3.422 2.121-7.645 2.262-7.504 0.054 0.055-0.02 1.332-0.164 2.84zm-63.793 27.832 0.015 19.605s2.993-58.251 2.375-60.458c-0.339-1.207-1.714-3.905-2.406-3.905-0.425 0 0 36.192 0.016 44.758zm69.777-42.56c-1.117 1.121-0.443 37.588 0.057 41.42 0.289 2.242 1.631 21.463 1.631 21.463l0.019-19.959 0.23-45.049h-0.567c-0.312 0-1.046 1.8-1.37 2.125zm-34.406 87.13c-0.824 1.281-4.09 4.449-6.227 6.043-7.144 5.34-15.562 8.352-25.687 9.188l-3.473 0.289v10.582l3.121-0.164c12.227-0.641 23.344-4.688 30.953-11.258l1.942-1.68 1.851 1.649c3.086 2.746 5.438 4.324 9.313 6.257 5.996 2.989 13.66 4.805 21.762 5.153l2.578 0.113v-10.676l-3.059-0.148c-12.738-0.617-24.289-6.012-31.066-14.504-0.657-0.828-1.282-1.5-1.387-1.5s-0.387 0.297-0.621 0.656zm-0.715 6.707c-0.23 1.692-0.5 3.168-0.602 3.277-0.101 0.114-0.722-0.589-1.378-1.558l-1.196-1.766 1.711-1.593c0.942-0.875 1.75-1.555 1.797-1.512s-0.101 1.461-0.332 3.152zm4.457 1.863c-0.687 1.02-1.285 1.817-1.328 1.77-0.082-0.082-0.84-6.106-0.84-6.688 0-0.191 0.766 0.422 1.707 1.364l1.707 1.707-1.246 1.847zm-8.894 3 1.668 2.512-0.77 0.66c-0.426 0.364-0.828 0.664-0.895 0.672-0.066 4e-3 -0.796-1.273-1.621-2.84l-1.5-2.851 0.539-0.375c0.301-0.211 0.625-0.36 0.727-0.332 0.098 0.027 0.93 1.176 1.852 2.554zm14.023-2.023c0.445 0.336 0.422 0.422-0.719 2.625-0.648 1.254-1.351 2.512-1.562 2.793l-0.383 0.516-1.578-1.407 1.629-2.445c0.894-1.348 1.746-2.445 1.89-2.437 0.145 3e-3 0.473 0.164 0.723 0.355zm-18.844 5.137c0.809 1.504 1.465 2.773 1.465 2.812 0 0.043-0.426 0.293-0.949 0.563-0.899 0.457-0.965 0.461-1.168 0.062-0.391-0.761-2.254-5.847-2.168-5.918 0.387-0.316 1.074-0.558 1.203-0.426 0.086 0.09 0.813 1.399 1.617 2.907zm23.785-2.055c0 0.137-0.5 1.57-1.117 3.188l-1.117 2.937-0.922-0.469c-0.508-0.261-0.922-0.593-0.922-0.738s0.653-1.488 1.449-2.984c1.411-2.645 1.469-2.715 2.04-2.453 0.324 0.148 0.589 0.382 0.589 0.519zm-28.945 4.449c0.613 1.637 1.078 3.012 1.039 3.051-0.043 0.043-0.473 0.242-0.957 0.445l-0.875 0.368-0.973-3.086c-0.531-1.7-0.968-3.204-0.968-3.34 0-0.301 1.254-0.782 1.468-0.563 0.082 0.082 0.653 1.489 1.266 3.125zm33.984-2.191c0 0.484-1.668 5.883-1.878 6.086-0.09 0.082-0.559-0.024-1.043-0.239l-0.887-0.39 2.414-6.32 0.695 0.242c0.387 0.133 0.699 0.414 0.699 0.621zm-39.445 3.914c0.887 2.863 0.953 3.238 0.602 3.383-0.836 0.347-1.465 0.211-1.59-0.34-0.067-0.301-0.344-1.621-0.617-2.942-0.274-1.32-0.551-2.582-0.614-2.8-0.109-0.383 0.418-0.692 0.985-0.571 0.133 0.028 0.687 1.5 1.234 3.27zm44.445-2.77c0.047 0.039-0.222 1.539-0.593 3.332-0.653 3.145-0.696 3.258-1.282 3.254-0.843-4e-3 -1.277-0.336-1.125-0.867 0.075-0.246 0.524-1.723 1.004-3.277 0.813-2.641 0.907-2.821 1.395-2.672 0.289 0.09 0.558 0.191 0.601 0.23zm-49.734 3.891c0.363 1.746 0.594 3.242 0.516 3.32s-0.575 0.2-1.102 0.27l-0.961 0.129-0.137-1.051c-0.132-1-0.621-5.586-0.621-5.824 0-0.168 1.293-0.301 1.485-0.153 0.09 0.071 0.461 1.559 0.82 3.309zm54.77-2.938c0.039 0.036-0.071 1.563-0.243 3.391l-0.312 3.328-0.957-0.078c-0.527-0.043-0.988-0.109-1.027-0.148-0.059-0.059 0.765-4.16 1.273-6.328 0.102-0.442 0.234-0.52 0.66-0.391 0.293 0.09 0.567 0.191 0.606 0.226zm-60.809 0.657c0.156 0.746 0.645 6.23 0.562 6.312-0.035 0.035-0.554 0.102-1.148 0.149l-1.078 0.082-0.066-3.231c-0.04-1.773-0.016-3.367 0.05-3.539 0.067-0.172 0.446-0.312 0.844-0.312 0.555 0 0.75 0.125 0.836 0.539zm66.082 3.121-0.066 3.422-0.813 0.074c-0.445 0.043-0.891-0.012-0.988-0.117-0.098-0.11-0.035-1.547 0.137-3.199 0.171-1.649 0.316-3.133 0.328-3.301 8e-3 -0.168 0.328-0.297 0.742-0.297h0.726l-0.066 3.418z" fill="#8e751c" fill-rule="nonzero"/></g><g transform="matrix(4.1667 0 2.4652e-32 -4.1667 -1258.5 543.93)"><path d="m9.266 131.13c-0.657 0.652-0.727 1.105-0.313 1.886 0.652 1.223 1.723 1.446 2.738 0.571 0.422-0.364 0.645-0.793 0.645-1.246 0-0.836-1.008-1.801-1.887-1.801-0.328 0-0.859 0.265-1.183 0.59zm7.199 0c-0.653 0.652-0.727 1.105-0.313 1.886 0.637 1.196 1.664 1.434 2.692 0.629 1.269-1.004 0.449-3.105-1.211-3.105-0.321 0-0.844 0.265-1.168 0.59zm7.242-0.09c-0.828 0.648-0.844 1.711-0.043 2.511 0.324 0.325 0.867 0.59 1.211 0.59 0.848 0 1.801-1 1.801-1.89 0-0.821-0.938-1.711-1.801-1.711-0.293 0-0.82 0.226-1.168 0.5zm7.156 0.09c-0.324 0.324-0.59 0.871-0.59 1.211 0 0.8 1 1.8 1.801 1.8 0.344 0 0.887-0.265 1.211-0.59 0.801-0.8 0.785-1.863-0.043-2.511-0.84-0.66-1.66-0.629-2.379 0.09zm7.164-0.301c-1.207 0.582-1.093 2.32 0.2 3.047 0.511 0.289 0.75 0.297 1.343 0.05 1.438-0.593 1.532-2.488 0.157-3.113-0.711-0.324-1-0.32-1.7 0.016zm7.282 0.211c-0.829 0.648-0.848 1.711-0.043 2.511 0.324 0.325 0.867 0.59 1.211 0.59 0.847 0 1.796-1 1.796-1.89 0-0.821-0.937-1.711-1.796-1.711-0.297 0-0.821 0.226-1.168 0.5zm6.914 0.09c-0.653 0.652-0.727 1.105-0.309 1.886 0.637 1.196 1.66 1.434 2.688 0.629 1.273-1.004 0.453-3.105-1.211-3.105-0.317 0-0.844 0.265-1.168 0.59zm7.484-0.09c-0.457 0.359-0.633 0.719-0.633 1.301 0 1.347 1.649 2.269 2.66 1.492 1.145-0.879 1.141-2.332-0.011-2.926-0.93-0.484-1.262-0.461-2.016 0.133zm-59.672 5.98v4.801h71.52v-4.801h-71.52z" fill="#8e751c" fill-rule="nonzero"/></g></g></g></g></g></svg>
