<svg width="146.5" height="146.5" version="1.1" viewBox="0 0 146.5 146.5" xmlns="http://www.w3.org/2000/svg">
 <path d="m73.247 39.983c-18.391 0-33.264 14.873-33.264 33.267 0 18.392 14.873 33.265 33.264 33.265 18.395 0 33.267-14.873 33.267-33.265 0-18.393-14.872-33.267-33.267-33.267zm-1.9187-39.983v29.748h3.9987v-29.748zm3.84 146.5v-29.748h-3.9973v29.748zm71.329-75.168h-29.748v4h29.748zm-146.5 3.8387h29.747v-3.9973h-29.747zm22.871 51.177 20.949-20.949-2.8773-2.88-20.952 21.111zm100.76-106.19-20.951 20.949 2.8773 2.88 20.952-21.111zm2.7187 103.47-20.951-20.949-2.8787 2.876 21.111 20.952zm-106.19-100.76 20.949 20.949 2.8787-2.876-21.109-20.952-2.7187 2.8787" fill="#eba514"/>
</svg>
