<?xml version="1.0" encoding="UTF-8" standalone="no"?>
<!-- Created with Inkscape (http://www.inkscape.org/) -->

<svg
   width="3.8209534mm"
   height="4.8111038mm"
   viewBox="0 0 3.8209534 4.8111038"
   version="1.1"
   id="svg4110"
   xml:space="preserve"
   xmlns:inkscape="http://www.inkscape.org/namespaces/inkscape"
   xmlns:sodipodi="http://sodipodi.sourceforge.net/DTD/sodipodi-0.dtd"
   xmlns="http://www.w3.org/2000/svg"
   xmlns:svg="http://www.w3.org/2000/svg"><sodipodi:namedview
     id="namedview4112"
     pagecolor="#ffffff"
     bordercolor="#000000"
     borderopacity="0.25"
     inkscape:showpageshadow="2"
     inkscape:pageopacity="0.0"
     inkscape:pagecheckerboard="0"
     inkscape:deskcolor="#d1d1d1"
     inkscape:document-units="mm"
     showgrid="false"
     inkscape:zoom="0.2102413"
     inkscape:cx="244.95663"
     inkscape:cy="561.25984"
     inkscape:window-width="1728"
     inkscape:window-height="1080"
     inkscape:window-x="0"
     inkscape:window-y="37"
     inkscape:window-maximized="0"
     inkscape:current-layer="layer1" /><defs
     id="defs4107" /><g
     inkscape:label="Layer 1"
     inkscape:groupmode="layer"
     id="layer1"
     transform="translate(-247.92467,-67.664343)"><path
       fill="none"
       stroke-width="0.619368"
       stroke-linecap="round"
       stroke-linejoin="round"
       stroke="#000000"
       stroke-opacity="1"
       stroke-miterlimit="4"
       d="m 248.27424,72.124903 1.54616,-4.11069 1.5751,4.081752"
       id="path12724"
       inkscape:export-filename="path12724.svg"
       inkscape:export-xdpi="96"
       inkscape:export-ydpi="96" /><path
       fill-rule="evenodd"
       fill="#000000"
       fill-opacity="1"
       stroke-width="0.0823528"
       stroke-linecap="butt"
       stroke-linejoin="miter"
       stroke="#000000"
       stroke-opacity="1"
       stroke-miterlimit="4"
       d="m 248.38311,71.836892 c 0.15984,0.05928 0.23978,0.238399 0.18052,0.396877 -0.0605,0.159898 -0.2384,0.241155 -0.39825,0.18052 -0.15984,-0.05928 -0.2384,-0.241155 -0.18053,-0.396874 0.0605,-0.159898 0.23841,-0.241157 0.39826,-0.180523 z m 0,0"
       id="path12726" /><path
       fill-rule="evenodd"
       fill="#000000"
       fill-opacity="1"
       stroke-width="0.0823529"
       stroke-linecap="butt"
       stroke-linejoin="miter"
       stroke="#000000"
       stroke-opacity="1"
       stroke-miterlimit="4"
       d="m 250.12908,68.012836 c 2e-5,0.170878 -0.1378,0.310057 -0.3073,0.310058 -0.17088,0.0015 -0.31006,-0.136425 -0.31006,-0.307303 -0.001,-0.170876 0.14056,-0.310059 0.3073,-0.310058 0.1695,-0.0015 0.30869,0.136427 0.31006,0.307303 z m 0,0"
       id="path12728" /><path
       fill-rule="evenodd"
       fill="#000000"
       fill-opacity="1"
       stroke-width="0.0823529"
       stroke-linecap="butt"
       stroke-linejoin="miter"
       stroke="#000000"
       stroke-opacity="1"
       stroke-miterlimit="4"
       d="m 251.50712,72.383974 c -0.1599,0.06051 -0.339,-0.01792 -0.39963,-0.177767 -0.062,-0.158471 0.0179,-0.337619 0.17639,-0.398252 0.15985,-0.06201 0.339,0.02067 0.39963,0.176389 0.062,0.158468 -0.0179,0.337619 -0.17639,0.39963 z m 0,0"
       id="path12730" /><path
       fill-rule="evenodd"
       fill="#5000c8"
       fill-opacity="1"
       stroke-width="0.0823528"
       stroke-linecap="butt"
       stroke-linejoin="miter"
       stroke="#5000c8"
       stroke-opacity="1"
       stroke-miterlimit="4"
       d="m 248.38311,71.836892 c 0.15984,0.05928 0.23978,0.238399 0.18052,0.396877 -0.0605,0.159898 -0.2384,0.241155 -0.39825,0.18052 -0.15984,-0.05928 -0.2384,-0.241155 -0.18053,-0.396874 0.0605,-0.159898 0.23841,-0.241157 0.39826,-0.180523 z m 0,0"
       id="path13144" /><path
       fill-rule="evenodd"
       fill="#5000c8"
       fill-opacity="1"
       stroke-width="0.0823529"
       stroke-linecap="butt"
       stroke-linejoin="miter"
       stroke="#5000c8"
       stroke-opacity="1"
       stroke-miterlimit="4"
       d="m 250.12908,68.012836 c 2e-5,0.170878 -0.1378,0.310057 -0.3073,0.310058 -0.17088,0.0015 -0.31006,-0.136425 -0.31006,-0.307303 -0.001,-0.170876 0.14056,-0.310059 0.3073,-0.310058 0.1695,-0.0015 0.30869,0.136427 0.31006,0.307303 z m 0,0"
       id="path13146" /><path
       fill-rule="evenodd"
       fill="#5000c8"
       fill-opacity="1"
       stroke-width="0.0823529"
       stroke-linecap="butt"
       stroke-linejoin="miter"
       stroke="#5000c8"
       stroke-opacity="1"
       stroke-miterlimit="4"
       d="m 251.50712,72.383974 c -0.1599,0.06051 -0.339,-0.01792 -0.39963,-0.177767 -0.062,-0.158471 0.0179,-0.337619 0.17639,-0.398252 0.15985,-0.06201 0.339,0.02067 0.39963,0.176389 0.062,0.158468 -0.0179,0.337619 -0.17639,0.39963 z m 0,0"
       id="path13148" /></g></svg>
