<?xml version="1.0" encoding="UTF-8" standalone="no"?>
<!-- Created with Inkscape (http://www.inkscape.org/) -->

<svg
   width="3.2654266mm"
   height="4.7963257mm"
   viewBox="0 0 3.2654266 4.7963257"
   version="1.1"
   id="svg4110"
   xml:space="preserve"
   xmlns:inkscape="http://www.inkscape.org/namespaces/inkscape"
   xmlns:sodipodi="http://sodipodi.sourceforge.net/DTD/sodipodi-0.dtd"
   xmlns="http://www.w3.org/2000/svg"
   xmlns:svg="http://www.w3.org/2000/svg"><sodipodi:namedview
     id="namedview4112"
     pagecolor="#ffffff"
     bordercolor="#000000"
     borderopacity="0.25"
     inkscape:showpageshadow="2"
     inkscape:pageopacity="0.0"
     inkscape:pagecheckerboard="0"
     inkscape:deskcolor="#d1d1d1"
     inkscape:document-units="mm"
     showgrid="false"
     inkscape:zoom="0.2102413"
     inkscape:cx="244.95663"
     inkscape:cy="561.25984"
     inkscape:window-width="1728"
     inkscape:window-height="1080"
     inkscape:window-x="0"
     inkscape:window-y="37"
     inkscape:window-maximized="0"
     inkscape:current-layer="layer1" /><defs
     id="defs4107" /><g
     inkscape:label="Layer 1"
     inkscape:groupmode="layer"
     id="layer1"
     transform="translate(-248.39001,-74.942076)"><path
       fill="none"
       stroke-width="0.619368"
       stroke-linecap="round"
       stroke-linejoin="round"
       stroke="#000000"
       stroke-opacity="1"
       stroke-miterlimit="4"
       d="m 250.18007,77.241557 h -1.44005 m 0,0 v -1.949923 h 1.64951 l 0.73587,0.899859 -0.94533,1.050064 1.12586,1.260905 -1.12586,0.886079 h -1.44005 z m 0,0"
       id="path12732" /><path
       fill-rule="evenodd"
       fill="#000000"
       fill-opacity="1"
       stroke-width="0.0823528"
       stroke-linecap="butt"
       stroke-linejoin="miter"
       stroke="#000000"
       stroke-opacity="1"
       stroke-miterlimit="4"
       d="m 249.87139,77.241557 c 0,-0.169499 0.1378,-0.308681 0.30868,-0.308681 0.17088,0 0.30868,0.139182 0.30868,0.308681 0,0.170879 -0.14194,0.31006 -0.30868,0.31006 -0.17088,0 -0.30868,-0.139181 -0.30868,-0.31006 z m 0,0"
       id="path12734" /><path
       fill-rule="evenodd"
       fill="#000000"
       fill-opacity="1"
       stroke-width="0.0823528"
       stroke-linecap="butt"
       stroke-linejoin="miter"
       stroke="#000000"
       stroke-opacity="1"
       stroke-miterlimit="4"
       d="m 248.43134,77.241557 c 0,-0.169499 0.1378,-0.308681 0.30868,-0.308681 0.1695,0 0.30868,0.139182 0.30868,0.308681 0,0.170879 -0.14194,0.31006 -0.30868,0.31006 -0.17088,0 -0.30868,-0.139181 -0.30868,-0.31006 z m 0,0"
       id="path12736" /><path
       fill-rule="evenodd"
       fill="#000000"
       fill-opacity="1"
       stroke-width="0.0823528"
       stroke-linecap="butt"
       stroke-linejoin="miter"
       stroke="#000000"
       stroke-opacity="1"
       stroke-miterlimit="4"
       d="m 248.74002,76.932876 c 0.1695,0 0.30868,0.139182 0.30868,0.308681 0,0.170879 -0.13918,0.31006 -0.30868,0.31006 -0.17088,0 -0.30868,-0.143316 -0.30868,-0.31006 0,-0.169499 0.1378,-0.308681 0.30868,-0.308681 z m 0,0"
       id="path12738" /><path
       fill-rule="evenodd"
       fill="#000000"
       fill-opacity="1"
       stroke-width="0.0823529"
       stroke-linecap="butt"
       stroke-linejoin="miter"
       stroke="#000000"
       stroke-opacity="1"
       stroke-miterlimit="4"
       d="m 248.95775,75.073903 c 0.12128,0.119874 0.12127,0.31557 0,0.435461 -0.11987,0.121284 -0.31557,0.121268 -0.43684,0 -0.11989,-0.119888 -0.11713,-0.318327 0,-0.435461 0.12127,-0.121267 0.31695,-0.121265 0.43684,0 z m 0,0"
       id="path12740" /><path
       fill-rule="evenodd"
       fill="#000000"
       fill-opacity="1"
       stroke-width="0.0823528"
       stroke-linecap="butt"
       stroke-linejoin="miter"
       stroke="#000000"
       stroke-opacity="1"
       stroke-miterlimit="4"
       d="m 250.66927,75.423927 c -0.073,0.154339 -0.25769,0.219106 -0.41203,0.146072 -0.15298,-0.07301 -0.21911,-0.256315 -0.14607,-0.410655 0.073,-0.154342 0.26045,-0.217731 0.41065,-0.147451 0.15434,0.07443 0.22049,0.257692 0.14745,0.412034 z m 0,0"
       id="path12742" /><path
       fill-rule="evenodd"
       fill="#000000"
       fill-opacity="1"
       stroke-width="0.0823529"
       stroke-linecap="butt"
       stroke-linejoin="miter"
       stroke="#000000"
       stroke-opacity="1"
       stroke-miterlimit="4"
       d="m 251.11851,76.500173 c -0.17087,-0.0041 -0.30592,-0.144695 -0.30179,-0.315569 0.004,-0.170878 0.14608,-0.305924 0.31557,-0.301792 0.17088,0.0041 0.30593,0.150208 0.30179,0.316949 -0.004,0.169497 -0.14607,0.304547 -0.31557,0.300412 z m 0,0"
       id="path12744" /><path
       fill-rule="evenodd"
       fill="#000000"
       fill-opacity="1"
       stroke-width="0.082353"
       stroke-linecap="butt"
       stroke-linejoin="miter"
       stroke="#000000"
       stroke-opacity="1"
       stroke-miterlimit="4"
       d="m 250.18007,77.551617 c -0.17088,-0.0014 -0.30868,-0.139183 -0.30868,-0.310059 0,-0.170875 0.13918,-0.308681 0.30868,-0.30868 0.17088,0.0014 0.30868,0.143314 0.30868,0.310059 0,0.170875 -0.13918,0.308681 -0.30868,0.30868 z m 0,0"
       id="path12746" /><path
       fill-rule="evenodd"
       fill="#000000"
       fill-opacity="1"
       stroke-width="0.0823528"
       stroke-linecap="butt"
       stroke-linejoin="miter"
       stroke="#000000"
       stroke-opacity="1"
       stroke-miterlimit="4"
       d="m 251.27837,78.809766 c -0.1695,-0.01384 -0.2949,-0.163988 -0.28112,-0.334865 0.0152,-0.169498 0.16536,-0.2949 0.33486,-0.279742 0.1695,0.01516 0.2949,0.168122 0.28112,0.334865 -0.0152,0.169498 -0.16536,0.2949 -0.33486,0.279742 z m 0,0"
       id="path12748" /><path
       fill-rule="evenodd"
       fill="#000000"
       fill-opacity="1"
       stroke-width="0.0823529"
       stroke-linecap="butt"
       stroke-linejoin="miter"
       stroke="#000000"
       stroke-opacity="1"
       stroke-miterlimit="4"
       d="m 249.88793,79.48914 c -0.0551,-0.161233 0.0303,-0.337619 0.19154,-0.392741 0.1612,-0.0566 0.33625,0.02894 0.39274,0.190168 0.0551,0.161235 -0.0331,0.338997 -0.19154,0.392741 -0.1612,0.0566 -0.33624,-0.02894 -0.39274,-0.190168 z m 0,0"
       id="path12750" /><path
       fill-rule="evenodd"
       fill="#000000"
       fill-opacity="1"
       stroke-width="0.0823529"
       stroke-linecap="butt"
       stroke-linejoin="miter"
       stroke="#000000"
       stroke-opacity="1"
       stroke-miterlimit="4"
       d="m 248.52091,79.169434 c 0.12129,-0.119873 0.31695,-0.119889 0.43684,-10e-7 0.12127,0.121268 0.12127,0.316951 0,0.436838 -0.11989,0.11989 -0.31833,0.118513 -0.43684,10e-7 -0.11989,-0.119888 -0.11989,-0.315572 0,-0.436838 z m 0,0"
       id="path12752" /><path
       fill-rule="evenodd"
       fill="#000000"
       fill-opacity="1"
       stroke-width="0.0823528"
       stroke-linecap="butt"
       stroke-linejoin="miter"
       stroke="#000000"
       stroke-opacity="1"
       stroke-miterlimit="4"
       d="m 248.74002,76.932876 c 0.1695,0 0.30868,0.139182 0.30868,0.308681 0,0.170879 -0.13918,0.31006 -0.30868,0.31006 -0.17088,0 -0.30868,-0.143316 -0.30868,-0.31006 0,-0.169499 0.1378,-0.308681 0.30868,-0.308681 z m 0,0"
       id="path12754" /><path
       fill-rule="evenodd"
       fill="#5000c8"
       fill-opacity="1"
       stroke-width="0.0823528"
       stroke-linecap="butt"
       stroke-linejoin="miter"
       stroke="#5000c8"
       stroke-opacity="1"
       stroke-miterlimit="4"
       d="m 249.87139,77.241557 c 0,-0.169499 0.1378,-0.308681 0.30868,-0.308681 0.17088,0 0.30868,0.139182 0.30868,0.308681 0,0.170879 -0.14194,0.31006 -0.30868,0.31006 -0.17088,0 -0.30868,-0.139181 -0.30868,-0.31006 z m 0,0"
       id="path13150" /><path
       fill-rule="evenodd"
       fill="#5000c8"
       fill-opacity="1"
       stroke-width="0.0823528"
       stroke-linecap="butt"
       stroke-linejoin="miter"
       stroke="#5000c8"
       stroke-opacity="1"
       stroke-miterlimit="4"
       d="m 248.43134,77.241557 c 0,-0.169499 0.1378,-0.308681 0.30868,-0.308681 0.1695,0 0.30868,0.139182 0.30868,0.308681 0,0.170879 -0.14194,0.31006 -0.30868,0.31006 -0.17088,0 -0.30868,-0.139181 -0.30868,-0.31006 z m 0,0"
       id="path13152" /><path
       fill-rule="evenodd"
       fill="#5000c8"
       fill-opacity="1"
       stroke-width="0.0823528"
       stroke-linecap="butt"
       stroke-linejoin="miter"
       stroke="#5000c8"
       stroke-opacity="1"
       stroke-miterlimit="4"
       d="m 248.74002,79.078482 c 0.1695,0 0.30868,0.139184 0.30868,0.310059 0,0.1695 -0.13918,0.308681 -0.30868,0.308681 -0.17088,0 -0.30868,-0.141937 -0.30868,-0.308681 0,-0.170875 0.1378,-0.310059 0.30868,-0.310059 z m 0,0"
       id="path13154" /><path
       fill-rule="evenodd"
       fill="#5000c8"
       fill-opacity="1"
       stroke-width="0.0823529"
       stroke-linecap="butt"
       stroke-linejoin="miter"
       stroke="#5000c8"
       stroke-opacity="1"
       stroke-miterlimit="4"
       d="m 248.95775,75.073903 c 0.12128,0.119874 0.12127,0.31557 0,0.435461 -0.11987,0.121284 -0.31557,0.121268 -0.43684,0 -0.11989,-0.119888 -0.11713,-0.318327 0,-0.435461 0.12127,-0.121267 0.31695,-0.121265 0.43684,0 z m 0,0"
       id="path13156" /><path
       fill-rule="evenodd"
       fill="#5000c8"
       fill-opacity="1"
       stroke-width="0.0823528"
       stroke-linecap="butt"
       stroke-linejoin="miter"
       stroke="#5000c8"
       stroke-opacity="1"
       stroke-miterlimit="4"
       d="m 250.66927,75.423927 c -0.073,0.154339 -0.25769,0.219106 -0.41203,0.146072 -0.15298,-0.07301 -0.21911,-0.256315 -0.14607,-0.410655 0.073,-0.154342 0.26045,-0.217731 0.41065,-0.147451 0.15434,0.07443 0.22049,0.257692 0.14745,0.412034 z m 0,0"
       id="path13158" /><path
       fill-rule="evenodd"
       fill="#5000c8"
       fill-opacity="1"
       stroke-width="0.0823529"
       stroke-linecap="butt"
       stroke-linejoin="miter"
       stroke="#5000c8"
       stroke-opacity="1"
       stroke-miterlimit="4"
       d="m 251.11851,76.500173 c -0.17087,-0.0041 -0.30592,-0.144695 -0.30179,-0.315569 0.004,-0.170878 0.14608,-0.305924 0.31557,-0.301792 0.17088,0.0041 0.30593,0.150208 0.30179,0.316949 -0.004,0.169497 -0.14607,0.304547 -0.31557,0.300412 z m 0,0"
       id="path13160" /><path
       fill-rule="evenodd"
       fill="#5000c8"
       fill-opacity="1"
       stroke-width="0.082353"
       stroke-linecap="butt"
       stroke-linejoin="miter"
       stroke="#5000c8"
       stroke-opacity="1"
       stroke-miterlimit="4"
       d="m 250.18007,77.551617 c -0.17088,-0.0014 -0.30868,-0.139183 -0.30868,-0.310059 0,-0.170875 0.13918,-0.308681 0.30868,-0.30868 0.17088,0.0014 0.30868,0.143314 0.30868,0.310059 0,0.170875 -0.13918,0.308681 -0.30868,0.30868 z m 0,0"
       id="path13162" /><path
       fill-rule="evenodd"
       fill="#5000c8"
       fill-opacity="1"
       stroke-width="0.0823528"
       stroke-linecap="butt"
       stroke-linejoin="miter"
       stroke="#5000c8"
       stroke-opacity="1"
       stroke-miterlimit="4"
       d="m 251.27837,78.809766 c -0.1695,-0.01384 -0.2949,-0.163988 -0.28112,-0.334865 0.0152,-0.169498 0.16536,-0.2949 0.33486,-0.279742 0.1695,0.01516 0.2949,0.168122 0.28112,0.334865 -0.0152,0.169498 -0.16536,0.2949 -0.33486,0.279742 z m 0,0"
       id="path13164" /><path
       fill-rule="evenodd"
       fill="#5000c8"
       fill-opacity="1"
       stroke-width="0.0823529"
       stroke-linecap="butt"
       stroke-linejoin="miter"
       stroke="#5000c8"
       stroke-opacity="1"
       stroke-miterlimit="4"
       d="m 249.88793,79.48914 c -0.0551,-0.161233 0.0303,-0.337619 0.19154,-0.392741 0.1612,-0.0566 0.33625,0.02894 0.39274,0.190168 0.0551,0.161235 -0.0331,0.338997 -0.19154,0.392741 -0.1612,0.0566 -0.33624,-0.02894 -0.39274,-0.190168 z m 0,0"
       id="path13166" /><path
       fill-rule="evenodd"
       fill="#5000c8"
       fill-opacity="1"
       stroke-width="0.0823528"
       stroke-linecap="butt"
       stroke-linejoin="miter"
       stroke="#5000c8"
       stroke-opacity="1"
       stroke-miterlimit="4"
       d="m 248.43134,79.388541 c 0,-0.170875 0.1378,-0.310059 0.30868,-0.310059 0.1695,0 0.30868,0.139184 0.30868,0.310059 0,0.1695 -0.14194,0.308681 -0.30868,0.308681 -0.17088,0 -0.30868,-0.139181 -0.30868,-0.308681 z m 0,0"
       id="path13168" /></g></svg>
