<?xml version="1.0" encoding="UTF-8" standalone="no"?>
<!-- Created with Inkscape (http://www.inkscape.org/) -->

<svg
   width="3.4762268mm"
   height="4.9161758mm"
   viewBox="0 0 3.4762268 4.9161758"
   version="1.1"
   id="svg4110"
   xml:space="preserve"
   xmlns:inkscape="http://www.inkscape.org/namespaces/inkscape"
   xmlns:sodipodi="http://sodipodi.sourceforge.net/DTD/sodipodi-0.dtd"
   xmlns="http://www.w3.org/2000/svg"
   xmlns:svg="http://www.w3.org/2000/svg"><sodipodi:namedview
     id="namedview4112"
     pagecolor="#ffffff"
     bordercolor="#000000"
     borderopacity="0.25"
     inkscape:showpageshadow="2"
     inkscape:pageopacity="0.0"
     inkscape:pagecheckerboard="0"
     inkscape:deskcolor="#d1d1d1"
     inkscape:document-units="mm"
     showgrid="false"
     inkscape:zoom="0.2102413"
     inkscape:cx="244.95663"
     inkscape:cy="561.25984"
     inkscape:window-width="1728"
     inkscape:window-height="1080"
     inkscape:window-x="0"
     inkscape:window-y="37"
     inkscape:window-maximized="0"
     inkscape:current-layer="layer1" /><defs
     id="defs4107" /><g
     inkscape:label="Layer 1"
     inkscape:groupmode="layer"
     id="layer1"
     transform="translate(-248.16422,-82.173704)"><path
       fill="none"
       stroke-width="0.619368"
       stroke-linecap="round"
       stroke-linejoin="round"
       stroke="#000000"
       stroke-opacity="1"
       stroke-miterlimit="4"
       d="m 251.29077,86.529536 -1.1107,0.210838 -1.16995,-0.4203 -0.4961,-1.185114 0.091,-1.350476 0.67524,-1.034909 1.12448,-0.225996 0.87092,0.195682"
       id="path12756" /><path
       fill-rule="evenodd"
       fill="#000000"
       fill-opacity="1"
       stroke-width="0.0823531"
       stroke-linecap="butt"
       stroke-linejoin="miter"
       stroke="#000000"
       stroke-opacity="1"
       stroke-miterlimit="4"
       d="m 250.9876,86.587412 c -0.0317,-0.166741 0.0786,-0.329349 0.24529,-0.361045 0.16812,-0.03169 0.32935,0.07855 0.36105,0.24667 0.0317,0.166741 -0.0827,0.329349 -0.24667,0.361046 -0.16674,0.03169 -0.32798,-0.07855 -0.35967,-0.246671 z m 0,0"
       id="path12758" /><path
       fill-rule="evenodd"
       fill="#000000"
       fill-opacity="1"
       stroke-width="0.0823528"
       stroke-linecap="butt"
       stroke-linejoin="miter"
       stroke="#000000"
       stroke-opacity="1"
       stroke-miterlimit="4"
       d="m 249.87277,86.715572 c 0.0124,-0.1695 0.16123,-0.29628 0.33211,-0.282501 0.1695,0.01233 0.29627,0.161233 0.28249,0.332111 -0.0124,0.169496 -0.16536,0.296276 -0.3321,0.282497 -0.16951,-0.01233 -0.29628,-0.161233 -0.2825,-0.332107 z m 0,0"
       id="path12760" /><path
       fill-rule="evenodd"
       fill="#000000"
       fill-opacity="1"
       stroke-width="0.0823531"
       stroke-linecap="butt"
       stroke-linejoin="miter"
       stroke="#000000"
       stroke-opacity="1"
       stroke-miterlimit="4"
       d="m 248.7855,86.107856 c 0.11715,-0.124001 0.31281,-0.129534 0.43683,-0.01103 0.12404,0.117121 0.12816,0.312818 0.011,0.435461 -0.11716,0.124001 -0.31557,0.126781 -0.43684,0.01103 -0.12265,-0.117135 -0.12816,-0.312815 -0.011,-0.435462 z m 0,0"
       id="path12762" /><path
       fill-rule="evenodd"
       fill="#000000"
       fill-opacity="1"
       stroke-width="0.082353"
       stroke-linecap="butt"
       stroke-linejoin="miter"
       stroke="#000000"
       stroke-opacity="1"
       stroke-miterlimit="4"
       d="m 248.46441,84.830416 c 0.16811,-0.029 0.3266,0.08544 0.35416,0.253557 0.0289,0.168121 -0.0854,0.327973 -0.25356,0.355536 -0.16812,0.02756 -0.32797,-0.08957 -0.35553,-0.253559 -0.0276,-0.168121 0.0868,-0.327974 0.25493,-0.355534 z m 0,0"
       id="path12764" /><path
       fill-rule="evenodd"
       fill="#000000"
       fill-opacity="1"
       stroke-width="0.0823528"
       stroke-linecap="butt"
       stroke-linejoin="miter"
       stroke="#000000"
       stroke-opacity="1"
       stroke-miterlimit="4"
       d="m 248.70281,83.490962 c 0.16123,0.05374 0.24805,0.230133 0.19431,0.391364 -0.0538,0.161228 -0.22876,0.249422 -0.38999,0.194302 -0.16256,-0.05388 -0.24804,-0.231511 -0.19568,-0.389984 0.0537,-0.161231 0.22875,-0.249427 0.39136,-0.195682 z m 0,0"
       id="path12766" /><path
       fill-rule="evenodd"
       fill="#000000"
       fill-opacity="1"
       stroke-width="0.0823529"
       stroke-linecap="butt"
       stroke-linejoin="miter"
       stroke="#000000"
       stroke-opacity="1"
       stroke-miterlimit="4"
       d="m 249.53515,82.575946 c 0.0965,0.140563 0.0593,0.333484 -0.0827,0.428568 -0.14056,0.09509 -0.33349,0.05925 -0.42858,-0.08268 -0.0951,-0.140559 -0.0551,-0.334863 0.0827,-0.428568 0.14056,-0.09509 0.33348,-0.05926 0.42857,0.08268 z m 0,0"
       id="path12768" /><path
       fill-rule="evenodd"
       fill="#000000"
       fill-opacity="1"
       stroke-width="0.082353"
       stroke-linecap="butt"
       stroke-linejoin="miter"
       stroke="#000000"
       stroke-opacity="1"
       stroke-miterlimit="4"
       d="m 250.71337,82.527711 c -0.001,0.170879 -0.14194,0.307305 -0.31144,0.30455 -0.17087,-0.0013 -0.3073,-0.141938 -0.30592,-0.311437 0.003,-0.17088 0.14607,-0.307302 0.31281,-0.305927 0.17088,0.0027 0.30731,0.141938 0.30455,0.312814 z m 0,0"
       id="path12770" /><path
       fill-rule="evenodd"
       fill="#000000"
       fill-opacity="1"
       stroke-width="0.082353"
       stroke-linecap="butt"
       stroke-linejoin="miter"
       stroke="#000000"
       stroke-opacity="1"
       stroke-miterlimit="4"
       d="m 251.5774,82.786784 c -0.0385,0.166764 -0.20257,0.271474 -0.36931,0.232889 -0.16675,-0.03721 -0.27148,-0.202571 -0.23427,-0.367937 0.0372,-0.166744 0.20671,-0.270095 0.36932,-0.234267 0.16674,0.03721 0.27147,0.202571 0.23426,0.369315 z m 0,0"
       id="path12772" /><path
       fill-rule="evenodd"
       fill="#5000c8"
       fill-opacity="1"
       stroke-width="0.0823531"
       stroke-linecap="butt"
       stroke-linejoin="miter"
       stroke="#5000c8"
       stroke-opacity="1"
       stroke-miterlimit="4"
       d="m 250.9876,86.587412 c -0.0317,-0.166741 0.0786,-0.329349 0.24529,-0.361045 0.16812,-0.03169 0.32935,0.07855 0.36105,0.24667 0.0317,0.166741 -0.0827,0.329349 -0.24667,0.361046 -0.16674,0.03169 -0.32798,-0.07855 -0.35967,-0.246671 z m 0,0"
       id="path13170" /><path
       fill-rule="evenodd"
       fill="#5000c8"
       fill-opacity="1"
       stroke-width="0.0823528"
       stroke-linecap="butt"
       stroke-linejoin="miter"
       stroke="#5000c8"
       stroke-opacity="1"
       stroke-miterlimit="4"
       d="m 249.87277,86.715572 c 0.0124,-0.1695 0.16123,-0.29628 0.33211,-0.282501 0.1695,0.01233 0.29627,0.161233 0.28249,0.332111 -0.0124,0.169496 -0.16536,0.296276 -0.3321,0.282497 -0.16951,-0.01233 -0.29628,-0.161233 -0.2825,-0.332107 z m 0,0"
       id="path13172" /><path
       fill-rule="evenodd"
       fill="#5000c8"
       fill-opacity="1"
       stroke-width="0.0823531"
       stroke-linecap="butt"
       stroke-linejoin="miter"
       stroke="#5000c8"
       stroke-opacity="1"
       stroke-miterlimit="4"
       d="m 248.7855,86.107856 c 0.11715,-0.124001 0.31281,-0.129534 0.43683,-0.01103 0.12404,0.117121 0.12816,0.312818 0.011,0.435461 -0.11716,0.124001 -0.31557,0.126781 -0.43684,0.01103 -0.12265,-0.117135 -0.12816,-0.312815 -0.011,-0.435462 z m 0,0"
       id="path13174" /><path
       fill-rule="evenodd"
       fill="#5000c8"
       fill-opacity="1"
       stroke-width="0.082353"
       stroke-linecap="butt"
       stroke-linejoin="miter"
       stroke="#5000c8"
       stroke-opacity="1"
       stroke-miterlimit="4"
       d="m 248.46441,84.830416 c 0.16811,-0.029 0.3266,0.08544 0.35416,0.253557 0.0289,0.168121 -0.0854,0.327973 -0.25356,0.355536 -0.16812,0.02756 -0.32797,-0.08957 -0.35553,-0.253559 -0.0276,-0.168121 0.0868,-0.327974 0.25493,-0.355534 z m 0,0"
       id="path13176" /><path
       fill-rule="evenodd"
       fill="#5000c8"
       fill-opacity="1"
       stroke-width="0.0823528"
       stroke-linecap="butt"
       stroke-linejoin="miter"
       stroke="#5000c8"
       stroke-opacity="1"
       stroke-miterlimit="4"
       d="m 248.70281,83.490962 c 0.16123,0.05374 0.24805,0.230133 0.19431,0.391364 -0.0538,0.161228 -0.22876,0.249422 -0.38999,0.194302 -0.16256,-0.05388 -0.24804,-0.231511 -0.19568,-0.389984 0.0537,-0.161231 0.22875,-0.249427 0.39136,-0.195682 z m 0,0"
       id="path13178" /><path
       fill-rule="evenodd"
       fill="#5000c8"
       fill-opacity="1"
       stroke-width="0.0823529"
       stroke-linecap="butt"
       stroke-linejoin="miter"
       stroke="#5000c8"
       stroke-opacity="1"
       stroke-miterlimit="4"
       d="m 249.53515,82.575946 c 0.0965,0.140563 0.0593,0.333484 -0.0827,0.428568 -0.14056,0.09509 -0.33349,0.05925 -0.42858,-0.08268 -0.0951,-0.140559 -0.0551,-0.334863 0.0827,-0.428568 0.14056,-0.09509 0.33348,-0.05926 0.42857,0.08268 z m 0,0"
       id="path13180" /><path
       fill-rule="evenodd"
       fill="#5000c8"
       fill-opacity="1"
       stroke-width="0.082353"
       stroke-linecap="butt"
       stroke-linejoin="miter"
       stroke="#5000c8"
       stroke-opacity="1"
       stroke-miterlimit="4"
       d="m 250.71337,82.527711 c -0.001,0.170879 -0.14194,0.307305 -0.31144,0.30455 -0.17087,-0.0013 -0.3073,-0.141938 -0.30592,-0.311437 0.003,-0.17088 0.14607,-0.307302 0.31281,-0.305927 0.17088,0.0027 0.30731,0.141938 0.30455,0.312814 z m 0,0"
       id="path13182" /><path
       fill-rule="evenodd"
       fill="#5000c8"
       fill-opacity="1"
       stroke-width="0.082353"
       stroke-linecap="butt"
       stroke-linejoin="miter"
       stroke="#5000c8"
       stroke-opacity="1"
       stroke-miterlimit="4"
       d="m 251.5774,82.786784 c -0.0385,0.166764 -0.20257,0.271474 -0.36931,0.232889 -0.16675,-0.03721 -0.27148,-0.202571 -0.23427,-0.367937 0.0372,-0.166744 0.20671,-0.270095 0.36932,-0.234267 0.16674,0.03721 0.27147,0.202571 0.23426,0.369315 z m 0,0"
       id="path13184" /></g></svg>
