<?xml version="1.0" encoding="UTF-8" standalone="no"?>
<!-- Created with Inkscape (http://www.inkscape.org/) -->

<svg
   width="3.896347mm"
   height="4.7666779mm"
   viewBox="0 0 3.896347 4.7666779"
   version="1.1"
   id="svg4110"
   xml:space="preserve"
   xmlns:inkscape="http://www.inkscape.org/namespaces/inkscape"
   xmlns:sodipodi="http://sodipodi.sourceforge.net/DTD/sodipodi-0.dtd"
   xmlns="http://www.w3.org/2000/svg"
   xmlns:svg="http://www.w3.org/2000/svg"><sodipodi:namedview
     id="namedview4112"
     pagecolor="#ffffff"
     bordercolor="#000000"
     borderopacity="0.25"
     inkscape:showpageshadow="2"
     inkscape:pageopacity="0.0"
     inkscape:pagecheckerboard="0"
     inkscape:deskcolor="#d1d1d1"
     inkscape:document-units="mm"
     showgrid="false"
     inkscape:zoom="0.2102413"
     inkscape:cx="244.95663"
     inkscape:cy="561.25984"
     inkscape:window-width="1728"
     inkscape:window-height="1080"
     inkscape:window-x="0"
     inkscape:window-y="37"
     inkscape:window-maximized="0"
     inkscape:current-layer="layer1" /><defs
     id="defs4107" /><g
     inkscape:label="Layer 1"
     inkscape:groupmode="layer"
     id="layer1"
     transform="translate(-247.6543,-89.511403)"><path
       fill="none"
       stroke-width="0.619368"
       stroke-linecap="round"
       stroke-linejoin="round"
       stroke="#000000"
       stroke-opacity="1"
       stroke-miterlimit="4"
       d="m 248.00415,93.928221 h 0.79513 m -0.79513,-4.066589 h 0.79513 m 0,0 v 4.066589 h 1.39595 l 1.00459,-1.201649 v -1.620573 l -1.00459,-1.244367 z m 0,0"
       id="path12774" /><path
       fill-rule="evenodd"
       fill="#000000"
       fill-opacity="1"
       stroke-width="0.0823528"
       stroke-linecap="butt"
       stroke-linejoin="miter"
       stroke="#000000"
       stroke-opacity="1"
       stroke-miterlimit="4"
       d="m 248.31283,93.928223 c 0,0.169499 -0.13781,0.308681 -0.30868,0.308682 -0.17088,-3e-6 -0.30868,-0.139184 -0.30868,-0.308683 0,-0.170875 0.14194,-0.310057 0.30868,-0.310057 0.17087,-1e-6 0.30868,0.13918 0.30868,0.310058 z m 0,0"
       id="path12776" /><path
       fill-rule="evenodd"
       fill="#000000"
       fill-opacity="1"
       stroke-width="0.0823528"
       stroke-linecap="butt"
       stroke-linejoin="miter"
       stroke="#000000"
       stroke-opacity="1"
       stroke-miterlimit="4"
       d="m 249.10796,93.928224 c 0,0.169499 -0.13781,0.308681 -0.30868,0.308678 -0.1695,10e-7 -0.30868,-0.13918 -0.30868,-0.308679 0,-0.170875 0.14193,-0.310057 0.30868,-0.310058 0.17087,-1e-6 0.30868,0.13918 0.30868,0.310059 z m 0,0"
       id="path12778" /><path
       fill-rule="evenodd"
       fill="#000000"
       fill-opacity="1"
       stroke-width="0.0823528"
       stroke-linecap="butt"
       stroke-linejoin="miter"
       stroke="#000000"
       stroke-opacity="1"
       stroke-miterlimit="4"
       d="m 248.31283,89.861632 c 0,0.169499 -0.13781,0.308681 -0.30868,0.308681 -0.17088,1e-6 -0.30868,-0.139184 -0.30868,-0.308679 0,-0.170879 0.14194,-0.308681 0.30868,-0.308682 0.17087,0 0.30868,0.137802 0.30868,0.30868 z m 0,0"
       id="path12780" /><path
       fill-rule="evenodd"
       fill="#000000"
       fill-opacity="1"
       stroke-width="0.0823528"
       stroke-linecap="butt"
       stroke-linejoin="miter"
       stroke="#000000"
       stroke-opacity="1"
       stroke-miterlimit="4"
       d="m 249.10796,89.86163 c 0,0.1695 -0.13781,0.308682 -0.30868,0.308682 -0.1695,0 -0.30868,-0.139181 -0.30868,-0.30868 0,-0.170875 0.14193,-0.308681 0.30868,-0.308681 0.17087,0 0.30868,0.137804 0.30868,0.308679 z m 0,0"
       id="path12782" /><path
       fill-rule="evenodd"
       fill="#000000"
       fill-opacity="1"
       stroke-width="0.0823528"
       stroke-linecap="butt"
       stroke-linejoin="miter"
       stroke="#000000"
       stroke-opacity="1"
       stroke-miterlimit="4"
       d="m 248.79928,90.170312 c -0.1695,0 -0.30868,-0.139181 -0.30868,-0.30868 0,-0.170875 0.13918,-0.308681 0.30868,-0.308681 0.17087,0 0.30868,0.141937 0.30868,0.308681 0,0.169499 -0.13781,0.30868 -0.30868,0.30868 z m 0,0"
       id="path12784" /><path
       fill-rule="evenodd"
       fill="#000000"
       fill-opacity="1"
       stroke-width="0.0823529"
       stroke-linecap="butt"
       stroke-linejoin="miter"
       stroke="#000000"
       stroke-opacity="1"
       stroke-miterlimit="4"
       d="m 249.01838,94.145952 c -0.12128,0.119873 -0.31695,0.119889 -0.43683,1e-6 -0.12129,-0.119874 -0.12127,-0.315571 0,-0.436838 0.11988,-0.119889 0.31832,-0.118512 0.43683,0 0.11988,0.121285 0.11989,0.316948 0,0.436837 z m 0,0"
       id="path12786" /><path
       fill-rule="evenodd"
       fill="#000000"
       fill-opacity="1"
       stroke-width="0.0823528"
       stroke-linecap="butt"
       stroke-linejoin="miter"
       stroke="#000000"
       stroke-opacity="1"
       stroke-miterlimit="4"
       d="m 250.47497,93.797308 c 0.0717,0.154342 0.006,0.337621 -0.14883,0.410655 -0.15434,0.07166 -0.339,0.0041 -0.41065,-0.150205 -0.073,-0.154335 -0.003,-0.338998 0.14882,-0.410655 0.15434,-0.07166 0.339,-0.0041 0.41066,0.150205 z m 0,0"
       id="path12788" /><path
       fill-rule="evenodd"
       fill="#000000"
       fill-opacity="1"
       stroke-width="0.0823531"
       stroke-linecap="butt"
       stroke-linejoin="miter"
       stroke="#000000"
       stroke-opacity="1"
       stroke-miterlimit="4"
       d="m 251.30593,92.437185 c 0.15985,0.05788 0.24253,0.235644 0.18465,0.395497 -0.0579,0.159854 -0.23564,0.242536 -0.39549,0.184657 -0.15985,-0.05788 -0.24254,-0.238401 -0.18466,-0.395495 0.0579,-0.159854 0.23564,-0.242537 0.3955,-0.184659 z m 0,0"
       id="path12790" /><path
       fill-rule="evenodd"
       fill="#000000"
       fill-opacity="1"
       stroke-width="0.082353"
       stroke-linecap="butt"
       stroke-linejoin="miter"
       stroke="#000000"
       stroke-opacity="1"
       stroke-miterlimit="4"
       d="m 251.09784,90.815235 c 0.15986,-0.0565 0.33762,0.02756 0.39412,0.188792 0.0565,0.159851 -0.0276,0.337619 -0.18879,0.394117 -0.16121,0.05655 -0.339,-0.03169 -0.39412,-0.188792 -0.0565,-0.161228 0.0276,-0.337619 0.18879,-0.394117 z m 0,0"
       id="path12792" /><path
       fill-rule="evenodd"
       fill="#000000"
       fill-opacity="1"
       stroke-width="0.0823529"
       stroke-linecap="butt"
       stroke-linejoin="miter"
       stroke="#000000"
       stroke-opacity="1"
       stroke-miterlimit="4"
       d="m 249.91687,89.727962 c 0.0729,-0.154395 0.25769,-0.219107 0.41203,-0.144694 0.15296,0.07304 0.21773,0.257692 0.14469,0.410655 -0.0729,0.154396 -0.26182,0.21773 -0.41203,0.146072 -0.15296,-0.07304 -0.21911,-0.257693 -0.14469,-0.412033 z m 0,0"
       id="path12794" /><path
       fill-rule="evenodd"
       fill="#000000"
       fill-opacity="1"
       stroke-width="0.0823528"
       stroke-linecap="butt"
       stroke-linejoin="miter"
       stroke="#000000"
       stroke-opacity="1"
       stroke-miterlimit="4"
       d="m 248.4906,89.861632 c 0,-0.170875 0.13918,-0.308681 0.30868,-0.308681 0.17087,0 0.30868,0.137806 0.30868,0.308681 0,0.169499 -0.14194,0.30868 -0.30868,0.30868 -0.1695,0 -0.30868,-0.139181 -0.30868,-0.30868 z m 0,0"
       id="path12796" /><path
       fill-rule="evenodd"
       fill="#5000c8"
       fill-opacity="1"
       stroke-width="0.0823528"
       stroke-linecap="butt"
       stroke-linejoin="miter"
       stroke="#5000c8"
       stroke-opacity="1"
       stroke-miterlimit="4"
       d="m 248.31283,93.928223 c 0,0.169499 -0.13781,0.308681 -0.30868,0.308682 -0.17088,-3e-6 -0.30868,-0.139184 -0.30868,-0.308683 0,-0.170875 0.14194,-0.310057 0.30868,-0.310057 0.17087,-1e-6 0.30868,0.13918 0.30868,0.310058 z m 0,0"
       id="path13186" /><path
       fill-rule="evenodd"
       fill="#5000c8"
       fill-opacity="1"
       stroke-width="0.0823528"
       stroke-linecap="butt"
       stroke-linejoin="miter"
       stroke="#5000c8"
       stroke-opacity="1"
       stroke-miterlimit="4"
       d="m 249.10796,93.928224 c 0,0.169499 -0.13781,0.308681 -0.30868,0.308678 -0.1695,10e-7 -0.30868,-0.13918 -0.30868,-0.308679 0,-0.170875 0.14193,-0.310057 0.30868,-0.310058 0.17087,-1e-6 0.30868,0.13918 0.30868,0.310059 z m 0,0"
       id="path13188" /><path
       fill-rule="evenodd"
       fill="#5000c8"
       fill-opacity="1"
       stroke-width="0.0823528"
       stroke-linecap="butt"
       stroke-linejoin="miter"
       stroke="#5000c8"
       stroke-opacity="1"
       stroke-miterlimit="4"
       d="m 248.31283,89.861632 c 0,0.169499 -0.13781,0.308681 -0.30868,0.308681 -0.17088,1e-6 -0.30868,-0.139184 -0.30868,-0.308679 0,-0.170879 0.14194,-0.308681 0.30868,-0.308682 0.17087,0 0.30868,0.137802 0.30868,0.30868 z m 0,0"
       id="path13190" /><path
       fill-rule="evenodd"
       fill="#5000c8"
       fill-opacity="1"
       stroke-width="0.0823528"
       stroke-linecap="butt"
       stroke-linejoin="miter"
       stroke="#5000c8"
       stroke-opacity="1"
       stroke-miterlimit="4"
       d="m 249.10796,89.86163 c 0,0.1695 -0.13781,0.308682 -0.30868,0.308682 -0.1695,0 -0.30868,-0.139181 -0.30868,-0.30868 0,-0.170875 0.14193,-0.308681 0.30868,-0.308681 0.17087,0 0.30868,0.137804 0.30868,0.308679 z m 0,0"
       id="path13192" /><path
       fill-rule="evenodd"
       fill="#5000c8"
       fill-opacity="1"
       stroke-width="0.0823528"
       stroke-linecap="butt"
       stroke-linejoin="miter"
       stroke="#5000c8"
       stroke-opacity="1"
       stroke-miterlimit="4"
       d="m 248.79928,90.170312 c -0.1695,0 -0.30868,-0.139181 -0.30868,-0.30868 0,-0.170875 0.13918,-0.308681 0.30868,-0.308681 0.17087,0 0.30868,0.141937 0.30868,0.308681 0,0.169499 -0.13781,0.30868 -0.30868,0.30868 z m 0,0"
       id="path13194" /><path
       fill-rule="evenodd"
       fill="#5000c8"
       fill-opacity="1"
       stroke-width="0.0823529"
       stroke-linecap="butt"
       stroke-linejoin="miter"
       stroke="#5000c8"
       stroke-opacity="1"
       stroke-miterlimit="4"
       d="m 249.01838,94.145952 c -0.12128,0.119873 -0.31695,0.119889 -0.43683,1e-6 -0.12129,-0.119874 -0.12127,-0.315571 0,-0.436838 0.11988,-0.119889 0.31832,-0.118512 0.43683,0 0.11988,0.121285 0.11989,0.316948 0,0.436837 z m 0,0"
       id="path13196" /><path
       fill-rule="evenodd"
       fill="#5000c8"
       fill-opacity="1"
       stroke-width="0.0823528"
       stroke-linecap="butt"
       stroke-linejoin="miter"
       stroke="#5000c8"
       stroke-opacity="1"
       stroke-miterlimit="4"
       d="m 250.47497,93.797308 c 0.0717,0.154342 0.006,0.337621 -0.14883,0.410655 -0.15434,0.07166 -0.339,0.0041 -0.41065,-0.150205 -0.073,-0.154335 -0.003,-0.338998 0.14882,-0.410655 0.15434,-0.07166 0.339,-0.0041 0.41066,0.150205 z m 0,0"
       id="path13198" /><path
       fill-rule="evenodd"
       fill="#5000c8"
       fill-opacity="1"
       stroke-width="0.0823531"
       stroke-linecap="butt"
       stroke-linejoin="miter"
       stroke="#5000c8"
       stroke-opacity="1"
       stroke-miterlimit="4"
       d="m 251.30593,92.437185 c 0.15985,0.05788 0.24253,0.235644 0.18465,0.395497 -0.0579,0.159854 -0.23564,0.242536 -0.39549,0.184657 -0.15985,-0.05788 -0.24254,-0.238401 -0.18466,-0.395495 0.0579,-0.159854 0.23564,-0.242537 0.3955,-0.184659 z m 0,0"
       id="path13200" /><path
       fill-rule="evenodd"
       fill="#5000c8"
       fill-opacity="1"
       stroke-width="0.082353"
       stroke-linecap="butt"
       stroke-linejoin="miter"
       stroke="#5000c8"
       stroke-opacity="1"
       stroke-miterlimit="4"
       d="m 251.09784,90.815235 c 0.15986,-0.0565 0.33762,0.02756 0.39412,0.188792 0.0565,0.159851 -0.0276,0.337619 -0.18879,0.394117 -0.16121,0.05655 -0.339,-0.03169 -0.39412,-0.188792 -0.0565,-0.161228 0.0276,-0.337619 0.18879,-0.394117 z m 0,0"
       id="path13202" /><path
       fill-rule="evenodd"
       fill="#5000c8"
       fill-opacity="1"
       stroke-width="0.0823529"
       stroke-linecap="butt"
       stroke-linejoin="miter"
       stroke="#5000c8"
       stroke-opacity="1"
       stroke-miterlimit="4"
       d="m 249.91687,89.727962 c 0.0729,-0.154395 0.25769,-0.219107 0.41203,-0.144694 0.15296,0.07304 0.21773,0.257692 0.14469,0.410655 -0.0729,0.154396 -0.26182,0.21773 -0.41203,0.146072 -0.15296,-0.07304 -0.21911,-0.257693 -0.14469,-0.412033 z m 0,0"
       id="path13204" /><path
       fill-rule="evenodd"
       fill="#5000c8"
       fill-opacity="1"
       stroke-width="0.0823528"
       stroke-linecap="butt"
       stroke-linejoin="miter"
       stroke="#5000c8"
       stroke-opacity="1"
       stroke-miterlimit="4"
       d="m 248.4906,89.861632 c 0,-0.170875 0.13918,-0.308681 0.30868,-0.308681 0.17087,0 0.30868,0.137806 0.30868,0.308681 0,0.169499 -0.14194,0.30868 -0.30868,0.30868 -0.1695,0 -0.30868,-0.139181 -0.30868,-0.30868 z m 0,0"
       id="path13206" /></g></svg>
