<?xml version="1.0" encoding="UTF-8" standalone="no"?>
<!-- Created with Inkscape (http://www.inkscape.org/) -->

<svg
   width="3.6115112mm"
   height="4.8106918mm"
   viewBox="0 0 3.6115112 4.8106918"
   version="1.1"
   id="svg4110"
   xml:space="preserve"
   xmlns:inkscape="http://www.inkscape.org/namespaces/inkscape"
   xmlns:sodipodi="http://sodipodi.sourceforge.net/DTD/sodipodi-0.dtd"
   xmlns="http://www.w3.org/2000/svg"
   xmlns:svg="http://www.w3.org/2000/svg"><sodipodi:namedview
     id="namedview4112"
     pagecolor="#ffffff"
     bordercolor="#000000"
     borderopacity="0.25"
     inkscape:showpageshadow="2"
     inkscape:pageopacity="0.0"
     inkscape:pagecheckerboard="0"
     inkscape:deskcolor="#d1d1d1"
     inkscape:document-units="mm"
     showgrid="false"
     inkscape:zoom="0.2102413"
     inkscape:cx="244.95663"
     inkscape:cy="561.25984"
     inkscape:window-width="1728"
     inkscape:window-height="1080"
     inkscape:window-x="0"
     inkscape:window-y="37"
     inkscape:window-maximized="0"
     inkscape:current-layer="layer1" /><defs
     id="defs4107" /><g
     inkscape:label="Layer 1"
     inkscape:groupmode="layer"
     id="layer1"
     transform="translate(-247.66945,-96.7739)"><path
       fill="none"
       stroke-width="0.619368"
       stroke-linecap="round"
       stroke-linejoin="round"
       stroke="#000000"
       stroke-opacity="1"
       stroke-miterlimit="4"
       d="m 250.92972,97.123894 h -2.06981 v 4.110686 h 2.06981 m -0.16398,-2.115287 h -2.74643"
       id="path12798" /><path
       fill-rule="evenodd"
       fill="#000000"
       fill-opacity="1"
       stroke-width="0.0823528"
       stroke-linecap="butt"
       stroke-linejoin="miter"
       stroke="#000000"
       stroke-opacity="1"
       stroke-miterlimit="4"
       d="m 250.62104,97.123894 c 0,-0.170879 0.13918,-0.308681 0.30868,-0.308681 0.17088,0 0.31006,0.137802 0.31006,0.308681 0,0.169499 -0.14331,0.308681 -0.31006,0.308681 -0.1695,0 -0.30868,-0.139182 -0.30868,-0.308681 z m 0,0"
       id="path12800" /><path
       fill-rule="evenodd"
       fill="#000000"
       fill-opacity="1"
       stroke-width="0.0823529"
       stroke-linecap="butt"
       stroke-linejoin="miter"
       stroke="#000000"
       stroke-opacity="1"
       stroke-miterlimit="4"
       d="m 248.6408,97.341623 c -0.11989,-0.119888 -0.11989,-0.315572 0,-0.436838 0.12128,-0.119873 0.31695,-0.119888 0.43684,0 0.12127,0.121267 0.11851,0.319707 0,0.436838 -0.11987,0.121284 -0.31557,0.121267 -0.43684,0 z m 0,0"
       id="path12802" /><path
       fill-rule="evenodd"
       fill="#000000"
       fill-opacity="1"
       stroke-width="0.0823528"
       stroke-linecap="butt"
       stroke-linejoin="miter"
       stroke="#000000"
       stroke-opacity="1"
       stroke-miterlimit="4"
       d="m 248.85991,99.427974 c -0.17088,0 -0.30868,-0.137806 -0.30868,-0.308681 0,-0.170878 0.1378,-0.30868 0.30868,-0.30868 0.17088,0 0.30868,0.141936 0.30868,0.30868 0,0.170875 -0.1378,0.308681 -0.30868,0.308681 z m 0,0"
       id="path12804" /><path
       fill-rule="evenodd"
       fill="#000000"
       fill-opacity="1"
       stroke-width="0.0823529"
       stroke-linecap="butt"
       stroke-linejoin="miter"
       stroke="#000000"
       stroke-opacity="1"
       stroke-miterlimit="4"
       d="m 249.07764,101.45369 c -0.11989,0.11989 -0.31557,0.11989 -0.43684,0 -0.11987,-0.12128 -0.11989,-0.31695 0,-0.43684 0.12127,-0.12126 0.31971,-0.11851 0.43684,0 0.12128,0.11987 0.12127,0.31557 0,0.43684 z m 0,0"
       id="path12806" /><path
       fill-rule="evenodd"
       fill="#000000"
       fill-opacity="1"
       stroke-width="0.0823528"
       stroke-linecap="butt"
       stroke-linejoin="miter"
       stroke="#000000"
       stroke-opacity="1"
       stroke-miterlimit="4"
       d="m 251.23978,101.23458 c 0,0.17088 -0.13918,0.30868 -0.31006,0.30868 -0.1695,0 -0.30868,-0.1378 -0.30868,-0.30868 0,-0.1695 0.14194,-0.30868 0.30868,-0.30868 0.17088,0 0.31006,0.13918 0.31006,0.30868 z m 0,0"
       id="path12808" /><path
       fill-rule="evenodd"
       fill="#000000"
       fill-opacity="1"
       stroke-width="0.0823528"
       stroke-linecap="butt"
       stroke-linejoin="miter"
       stroke="#000000"
       stroke-opacity="1"
       stroke-miterlimit="4"
       d="m 250.45706,99.119293 c 0,-0.170878 0.1378,-0.30868 0.30868,-0.30868 0.1695,0 0.30868,0.137802 0.30868,0.30868 0,0.170875 -0.14194,0.308681 -0.30868,0.308681 -0.17088,0 -0.30868,-0.137806 -0.30868,-0.308681 z m 0,0"
       id="path12810" /><path
       fill-rule="evenodd"
       fill="#000000"
       fill-opacity="1"
       stroke-width="0.0823528"
       stroke-linecap="butt"
       stroke-linejoin="miter"
       stroke="#000000"
       stroke-opacity="1"
       stroke-miterlimit="4"
       d="m 247.71063,99.119293 c 0,-0.170878 0.1378,-0.30868 0.30868,-0.30868 0.17087,0 0.30868,0.137802 0.30868,0.30868 0,0.170875 -0.14194,0.308681 -0.30868,0.308681 -0.17088,0 -0.30868,-0.137806 -0.30868,-0.308681 z m 0,0"
       id="path12812" /><path
       fill-rule="evenodd"
       fill="#5000c8"
       fill-opacity="1"
       stroke-width="0.0823528"
       stroke-linecap="butt"
       stroke-linejoin="miter"
       stroke="#5000c8"
       stroke-opacity="1"
       stroke-miterlimit="4"
       d="m 250.62104,97.123894 c 0,-0.170879 0.13918,-0.308681 0.30868,-0.308681 0.17088,0 0.31006,0.137802 0.31006,0.308681 0,0.169499 -0.14331,0.308681 -0.31006,0.308681 -0.1695,0 -0.30868,-0.139182 -0.30868,-0.308681 z m 0,0"
       id="path13208" /><path
       fill-rule="evenodd"
       fill="#5000c8"
       fill-opacity="1"
       stroke-width="0.0823529"
       stroke-linecap="butt"
       stroke-linejoin="miter"
       stroke="#5000c8"
       stroke-opacity="1"
       stroke-miterlimit="4"
       d="m 248.6408,97.341623 c -0.11989,-0.119888 -0.11989,-0.315572 0,-0.436838 0.12128,-0.119873 0.31695,-0.119888 0.43684,0 0.12127,0.121267 0.11851,0.319707 0,0.436838 -0.11987,0.121284 -0.31557,0.121267 -0.43684,0 z m 0,0"
       id="path13210" /><path
       fill-rule="evenodd"
       fill="#5000c8"
       fill-opacity="1"
       stroke-width="0.0823528"
       stroke-linecap="butt"
       stroke-linejoin="miter"
       stroke="#5000c8"
       stroke-opacity="1"
       stroke-miterlimit="4"
       d="m 248.85991,99.427974 c -0.17088,0 -0.30868,-0.137806 -0.30868,-0.308681 0,-0.170878 0.1378,-0.30868 0.30868,-0.30868 0.17088,0 0.30868,0.141936 0.30868,0.30868 0,0.170875 -0.1378,0.308681 -0.30868,0.308681 z m 0,0"
       id="path13212" /><path
       fill-rule="evenodd"
       fill="#5000c8"
       fill-opacity="1"
       stroke-width="0.0823529"
       stroke-linecap="butt"
       stroke-linejoin="miter"
       stroke="#5000c8"
       stroke-opacity="1"
       stroke-miterlimit="4"
       d="m 249.07764,101.45369 c -0.11989,0.11989 -0.31557,0.11989 -0.43684,0 -0.11987,-0.12128 -0.11989,-0.31695 0,-0.43684 0.12127,-0.12126 0.31971,-0.11851 0.43684,0 0.12128,0.11987 0.12127,0.31557 0,0.43684 z m 0,0"
       id="path13214" /><path
       fill-rule="evenodd"
       fill="#5000c8"
       fill-opacity="1"
       stroke-width="0.0823528"
       stroke-linecap="butt"
       stroke-linejoin="miter"
       stroke="#5000c8"
       stroke-opacity="1"
       stroke-miterlimit="4"
       d="m 251.23978,101.23458 c 0,0.17088 -0.13918,0.30868 -0.31006,0.30868 -0.1695,0 -0.30868,-0.1378 -0.30868,-0.30868 0,-0.1695 0.14194,-0.30868 0.30868,-0.30868 0.17088,0 0.31006,0.13918 0.31006,0.30868 z m 0,0"
       id="path13216" /><path
       fill-rule="evenodd"
       fill="#5000c8"
       fill-opacity="1"
       stroke-width="0.0823528"
       stroke-linecap="butt"
       stroke-linejoin="miter"
       stroke="#5000c8"
       stroke-opacity="1"
       stroke-miterlimit="4"
       d="m 250.45706,99.119293 c 0,-0.170878 0.1378,-0.30868 0.30868,-0.30868 0.1695,0 0.30868,0.137802 0.30868,0.30868 0,0.170875 -0.14194,0.308681 -0.30868,0.308681 -0.17088,0 -0.30868,-0.137806 -0.30868,-0.308681 z m 0,0"
       id="path13218" /><path
       fill-rule="evenodd"
       fill="#5000c8"
       fill-opacity="1"
       stroke-width="0.0823528"
       stroke-linecap="butt"
       stroke-linejoin="miter"
       stroke="#5000c8"
       stroke-opacity="1"
       stroke-miterlimit="4"
       d="m 247.71063,99.119293 c 0,-0.170878 0.1378,-0.30868 0.30868,-0.30868 0.17087,0 0.30868,0.137802 0.30868,0.30868 0,0.170875 -0.14194,0.308681 -0.30868,0.308681 -0.17088,0 -0.30868,-0.137806 -0.30868,-0.308681 z m 0,0"
       id="path13220" /></g></svg>
