<?xml version="1.0" encoding="UTF-8" standalone="no"?>
<!-- Created with Inkscape (http://www.inkscape.org/) -->

<svg
   width="3.6115112mm"
   height="4.8105316mm"
   viewBox="0 0 3.6115112 4.8105316"
   version="1.1"
   id="svg4110"
   xml:space="preserve"
   xmlns:inkscape="http://www.inkscape.org/namespaces/inkscape"
   xmlns:sodipodi="http://sodipodi.sourceforge.net/DTD/sodipodi-0.dtd"
   xmlns="http://www.w3.org/2000/svg"
   xmlns:svg="http://www.w3.org/2000/svg"><sodipodi:namedview
     id="namedview4112"
     pagecolor="#ffffff"
     bordercolor="#000000"
     borderopacity="0.25"
     inkscape:showpageshadow="2"
     inkscape:pageopacity="0.0"
     inkscape:pagecheckerboard="0"
     inkscape:deskcolor="#d1d1d1"
     inkscape:document-units="mm"
     showgrid="false"
     inkscape:zoom="0.2102413"
     inkscape:cx="244.95663"
     inkscape:cy="561.25984"
     inkscape:window-width="1728"
     inkscape:window-height="1080"
     inkscape:window-x="0"
     inkscape:window-y="37"
     inkscape:window-maximized="0"
     inkscape:current-layer="layer1" /><defs
     id="defs4107" /><g
     inkscape:label="Layer 1"
     inkscape:groupmode="layer"
     id="layer1"
     transform="translate(-247.66945,-104.021)"><path
       fill="none"
       stroke-width="0.619368"
       stroke-linecap="round"
       stroke-linejoin="round"
       stroke="#000000"
       stroke-opacity="1"
       stroke-miterlimit="4"
       d="m 250.92972,104.371 h -2.06981 v 4.11068 m 1.90583,-2.11528 h -2.74643"
       id="path12814" /><path
       fill-rule="evenodd"
       fill="#000000"
       fill-opacity="1"
       stroke-width="0.0823528"
       stroke-linecap="butt"
       stroke-linejoin="miter"
       stroke="#000000"
       stroke-opacity="1"
       stroke-miterlimit="4"
       d="m 250.62104,104.371 c 0,-0.17088 0.13918,-0.30868 0.30868,-0.30868 0.17088,0 0.31006,0.1378 0.31006,0.30868 0,0.17087 -0.14331,0.30868 -0.31006,0.30868 -0.1695,0 -0.30868,-0.13781 -0.30868,-0.30868 z m 0,0"
       id="path12816" /><path
       fill-rule="evenodd"
       fill="#000000"
       fill-opacity="1"
       stroke-width="0.0823529"
       stroke-linecap="butt"
       stroke-linejoin="miter"
       stroke="#000000"
       stroke-opacity="1"
       stroke-miterlimit="4"
       d="m 248.6408,104.58873 c -0.11989,-0.11989 -0.11989,-0.31557 0,-0.43684 0.12129,-0.11987 0.31695,-0.11989 0.43684,0 0.12127,0.12127 0.11851,0.3197 0,0.43684 -0.11987,0.12128 -0.31557,0.12127 -0.43684,0 z m 0,0"
       id="path12818" /><path
       fill-rule="evenodd"
       fill="#000000"
       fill-opacity="1"
       stroke-width="0.0823528"
       stroke-linecap="butt"
       stroke-linejoin="miter"
       stroke="#000000"
       stroke-opacity="1"
       stroke-miterlimit="4"
       d="m 248.85991,106.67508 c -0.17088,0 -0.30868,-0.13781 -0.30868,-0.30868 0,-0.17088 0.1378,-0.30868 0.30868,-0.30868 0.17088,0 0.30868,0.14193 0.30868,0.30868 0,0.17087 -0.1378,0.30868 -0.30868,0.30868 z m 0,0"
       id="path12820" /><path
       fill-rule="evenodd"
       fill="#000000"
       fill-opacity="1"
       stroke-width="0.0823528"
       stroke-linecap="butt"
       stroke-linejoin="miter"
       stroke="#000000"
       stroke-opacity="1"
       stroke-miterlimit="4"
       d="m 248.85991,108.79036 c -0.17088,0 -0.30868,-0.1378 -0.30868,-0.30868 0,-0.1695 0.1378,-0.30868 0.30868,-0.30868 0.17088,0 0.30868,0.14194 0.30868,0.30868 0,0.17088 -0.1378,0.30868 -0.30868,0.30868 z m 0,0"
       id="path12822" /><path
       fill-rule="evenodd"
       fill="#000000"
       fill-opacity="1"
       stroke-width="0.0823528"
       stroke-linecap="butt"
       stroke-linejoin="miter"
       stroke="#000000"
       stroke-opacity="1"
       stroke-miterlimit="4"
       d="m 250.45706,106.3664 c 0,-0.17088 0.1378,-0.30868 0.30868,-0.30868 0.1695,0 0.30868,0.1378 0.30868,0.30868 0,0.17087 -0.14194,0.30868 -0.30868,0.30868 -0.17088,0 -0.30868,-0.13781 -0.30868,-0.30868 z m 0,0"
       id="path12824" /><path
       fill-rule="evenodd"
       fill="#000000"
       fill-opacity="1"
       stroke-width="0.0823528"
       stroke-linecap="butt"
       stroke-linejoin="miter"
       stroke="#000000"
       stroke-opacity="1"
       stroke-miterlimit="4"
       d="m 247.71063,106.3664 c 0,-0.17088 0.1378,-0.30868 0.30868,-0.30868 0.17087,0 0.30868,0.1378 0.30868,0.30868 0,0.17087 -0.14194,0.30868 -0.30868,0.30868 -0.17088,0 -0.30868,-0.13781 -0.30868,-0.30868 z m 0,0"
       id="path12826" /><path
       fill-rule="evenodd"
       fill="#5000c8"
       fill-opacity="1"
       stroke-width="0.0823528"
       stroke-linecap="butt"
       stroke-linejoin="miter"
       stroke="#5000c8"
       stroke-opacity="1"
       stroke-miterlimit="4"
       d="m 250.62104,104.371 c 0,-0.17088 0.13918,-0.30868 0.30868,-0.30868 0.17088,0 0.31006,0.1378 0.31006,0.30868 0,0.17087 -0.14331,0.30868 -0.31006,0.30868 -0.1695,0 -0.30868,-0.13781 -0.30868,-0.30868 z m 0,0"
       id="path13222" /><path
       fill-rule="evenodd"
       fill="#5000c8"
       fill-opacity="1"
       stroke-width="0.0823529"
       stroke-linecap="butt"
       stroke-linejoin="miter"
       stroke="#5000c8"
       stroke-opacity="1"
       stroke-miterlimit="4"
       d="m 248.6408,104.58873 c -0.11989,-0.11989 -0.11989,-0.31557 0,-0.43684 0.12129,-0.11987 0.31695,-0.11989 0.43684,0 0.12127,0.12127 0.11851,0.3197 0,0.43684 -0.11987,0.12128 -0.31557,0.12127 -0.43684,0 z m 0,0"
       id="path13224" /><path
       fill-rule="evenodd"
       fill="#5000c8"
       fill-opacity="1"
       stroke-width="0.0823528"
       stroke-linecap="butt"
       stroke-linejoin="miter"
       stroke="#5000c8"
       stroke-opacity="1"
       stroke-miterlimit="4"
       d="m 248.85991,106.67508 c -0.17088,0 -0.30868,-0.13781 -0.30868,-0.30868 0,-0.17088 0.1378,-0.30868 0.30868,-0.30868 0.17088,0 0.30868,0.14193 0.30868,0.30868 0,0.17087 -0.1378,0.30868 -0.30868,0.30868 z m 0,0"
       id="path13226" /><path
       fill-rule="evenodd"
       fill="#5000c8"
       fill-opacity="1"
       stroke-width="0.0823528"
       stroke-linecap="butt"
       stroke-linejoin="miter"
       stroke="#5000c8"
       stroke-opacity="1"
       stroke-miterlimit="4"
       d="m 248.85991,108.79036 c -0.17088,0 -0.30868,-0.1378 -0.30868,-0.30868 0,-0.1695 0.1378,-0.30868 0.30868,-0.30868 0.17088,0 0.30868,0.14194 0.30868,0.30868 0,0.17088 -0.1378,0.30868 -0.30868,0.30868 z m 0,0"
       id="path13228" /><path
       fill-rule="evenodd"
       fill="#5000c8"
       fill-opacity="1"
       stroke-width="0.0823528"
       stroke-linecap="butt"
       stroke-linejoin="miter"
       stroke="#5000c8"
       stroke-opacity="1"
       stroke-miterlimit="4"
       d="m 250.45706,106.3664 c 0,-0.17088 0.1378,-0.30868 0.30868,-0.30868 0.1695,0 0.30868,0.1378 0.30868,0.30868 0,0.17087 -0.14194,0.30868 -0.30868,0.30868 -0.17088,0 -0.30868,-0.13781 -0.30868,-0.30868 z m 0,0"
       id="path13230" /><path
       fill-rule="evenodd"
       fill="#5000c8"
       fill-opacity="1"
       stroke-width="0.0823528"
       stroke-linecap="butt"
       stroke-linejoin="miter"
       stroke="#5000c8"
       stroke-opacity="1"
       stroke-miterlimit="4"
       d="m 247.71063,106.3664 c 0,-0.17088 0.1378,-0.30868 0.30868,-0.30868 0.17087,0 0.30868,0.1378 0.30868,0.30868 0,0.17087 -0.14194,0.30868 -0.30868,0.30868 -0.17088,0 -0.30868,-0.13781 -0.30868,-0.30868 z m 0,0"
       id="path13232" /></g></svg>
