<?xml version="1.0" encoding="UTF-8" standalone="no"?>
<!-- Created with Inkscape (http://www.inkscape.org/) -->

<svg
   width="4.0621948mm"
   height="4.8714905mm"
   viewBox="0 0 4.0621948 4.8714905"
   version="1.1"
   id="svg4110"
   xml:space="preserve"
   xmlns:inkscape="http://www.inkscape.org/namespaces/inkscape"
   xmlns:sodipodi="http://sodipodi.sourceforge.net/DTD/sodipodi-0.dtd"
   xmlns="http://www.w3.org/2000/svg"
   xmlns:svg="http://www.w3.org/2000/svg"><sodipodi:namedview
     id="namedview4112"
     pagecolor="#ffffff"
     bordercolor="#000000"
     borderopacity="0.25"
     inkscape:showpageshadow="2"
     inkscape:pageopacity="0.0"
     inkscape:pagecheckerboard="0"
     inkscape:deskcolor="#d1d1d1"
     inkscape:document-units="mm"
     showgrid="false"
     inkscape:zoom="0.2102413"
     inkscape:cx="244.95663"
     inkscape:cy="561.25984"
     inkscape:window-width="1728"
     inkscape:window-height="1080"
     inkscape:window-x="0"
     inkscape:window-y="37"
     inkscape:window-maximized="0"
     inkscape:current-layer="layer1" /><defs
     id="defs4107" /><g
     inkscape:label="Layer 1"
     inkscape:groupmode="layer"
     id="layer1"
     transform="translate(-248.01389,-111.34335)"><path
       fill="none"
       stroke-width="0.619368"
       stroke-linecap="round"
       stroke-linejoin="round"
       stroke="#000000"
       stroke-opacity="1"
       stroke-miterlimit="4"
       d="m 251.18604,111.84272 -1.24575,-0.14883 -1.20027,0.76068 -0.3762,1.39457 0.48093,1.51998 1.01148,0.49609 h 1.13413 v -2.1015 m -0.82545,0 h 1.56132"
       id="path12828" /><path
       fill-rule="evenodd"
       fill="#000000"
       fill-opacity="1"
       stroke-width="0.0823528"
       stroke-linecap="butt"
       stroke-linejoin="miter"
       stroke="#000000"
       stroke-opacity="1"
       stroke-miterlimit="4"
       d="m 250.87874,111.80689 c 0.0207,-0.1695 0.17501,-0.29076 0.34313,-0.27009 0.16949,0.0207 0.29076,0.17363 0.27009,0.34313 -0.0207,0.16949 -0.17777,0.28938 -0.34313,0.27009 -0.1695,-0.0207 -0.29076,-0.17501 -0.27009,-0.34313 z m 0,0"
       id="path12830" /><path
       fill-rule="evenodd"
       fill="#000000"
       fill-opacity="1"
       stroke-width="0.0823531"
       stroke-linecap="butt"
       stroke-linejoin="miter"
       stroke="#000000"
       stroke-opacity="1"
       stroke-miterlimit="4"
       d="m 249.6385,111.76141 c -0.0372,-0.16674 0.0675,-0.3321 0.23289,-0.36931 0.16671,-0.0374 0.33211,0.0662 0.36931,0.23289 0.0386,0.16674 -0.0703,0.33211 -0.23288,0.36931 -0.16537,0.0372 -0.33211,-0.0661 -0.36932,-0.23289 z m 0,0"
       id="path12832" /><path
       fill-rule="evenodd"
       fill="#000000"
       fill-opacity="1"
       stroke-width="0.0823531"
       stroke-linecap="butt"
       stroke-linejoin="miter"
       stroke="#000000"
       stroke-opacity="1"
       stroke-miterlimit="4"
       d="m 248.55674,112.70261 c -0.13768,-0.10075 -0.16674,-0.29352 -0.0661,-0.43132 0.10076,-0.13769 0.29489,-0.16674 0.43132,-0.0661 0.13769,0.10076 0.16537,0.29766 0.0661,0.43133 -0.10076,0.13768 -0.29352,0.16812 -0.43133,0.0661 z m 0,0"
       id="path12834" /><path
       fill-rule="evenodd"
       fill="#000000"
       fill-opacity="1"
       stroke-width="0.0823528"
       stroke-linecap="butt"
       stroke-linejoin="miter"
       stroke="#000000"
       stroke-opacity="1"
       stroke-miterlimit="4"
       d="m 248.37071,114.15782 c -0.16951,0.003 -0.31144,-0.13229 -0.31558,-0.30316 -0.003,-0.1695 0.1323,-0.31144 0.30317,-0.3142 0.1695,-0.004 0.31144,0.13505 0.31557,0.30179 0.003,0.1695 -0.13229,0.31144 -0.30316,0.31557 z m 0,0"
       id="path12836" /><path
       fill-rule="evenodd"
       fill="#000000"
       fill-opacity="1"
       stroke-width="0.082353"
       stroke-linecap="butt"
       stroke-linejoin="miter"
       stroke="#000000"
       stroke-opacity="1"
       stroke-miterlimit="4"
       d="m 249.04594,115.60338 c -0.12953,0.11162 -0.32383,0.0965 -0.43546,-0.0331 -0.11161,-0.12816 -0.0965,-0.32384 0.0331,-0.43546 0.12815,-0.11024 0.32659,-0.0937 0.43546,0.0331 0.11023,0.12954 0.0965,0.32383 -0.0331,0.43545 z m 0,0"
       id="path12838" /><path
       fill-rule="evenodd"
       fill="#000000"
       fill-opacity="1"
       stroke-width="0.082353"
       stroke-linecap="butt"
       stroke-linejoin="miter"
       stroke="#000000"
       stroke-opacity="1"
       stroke-miterlimit="4"
       d="m 250.15802,115.93411 c -0.0386,0.16675 -0.20533,0.2701 -0.37069,0.23152 -0.16674,-0.0386 -0.2701,-0.20395 -0.23151,-0.3707 0.0386,-0.16674 0.20808,-0.26872 0.37069,-0.23151 0.16537,0.0386 0.26872,0.20533 0.23151,0.37069 z m 0,0"
       id="path12840" /><path
       fill-rule="evenodd"
       fill="#000000"
       fill-opacity="1"
       stroke-width="0.0823529"
       stroke-linecap="butt"
       stroke-linejoin="miter"
       stroke="#000000"
       stroke-opacity="1"
       stroke-miterlimit="4"
       d="m 251.20809,115.6461 c 0.12126,0.12127 0.12126,0.31696 0,0.43684 -0.11989,0.11989 -0.31557,0.11989 -0.43546,0 -0.12129,-0.11987 -0.11851,-0.31832 0,-0.43683 0.11989,-0.11989 0.31557,-0.11989 0.43546,-10e-6 z m 0,0"
       id="path12842" /><path
       fill-rule="evenodd"
       fill="#000000"
       fill-opacity="1"
       stroke-width="0.0823528"
       stroke-linecap="butt"
       stroke-linejoin="miter"
       stroke="#000000"
       stroke-opacity="1"
       stroke-miterlimit="4"
       d="m 250.99036,113.45503 c 0.17087,0 0.30868,0.1378 0.30868,0.30868 0,0.17087 -0.13781,0.30868 -0.30868,0.30868 -0.17088,0 -0.30868,-0.14194 -0.30868,-0.30868 0,-0.17088 0.1378,-0.30868 0.30868,-0.30868 z m 0,0"
       id="path12844" /><path
       fill-rule="evenodd"
       fill="#000000"
       fill-opacity="1"
       stroke-width="0.0823528"
       stroke-linecap="butt"
       stroke-linejoin="miter"
       stroke="#000000"
       stroke-opacity="1"
       stroke-miterlimit="4"
       d="m 250.47359,113.76371 c 0,0.17087 -0.1378,0.30868 -0.30868,0.30868 -0.17088,0 -0.30868,-0.13781 -0.30868,-0.30868 0,-0.17088 0.14194,-0.30868 0.30868,-0.30868 0.17088,0 0.30868,0.1378 0.30868,0.30868 z m 0,0"
       id="path12846" /><path
       fill-rule="evenodd"
       fill="#000000"
       fill-opacity="1"
       stroke-width="0.0823528"
       stroke-linecap="butt"
       stroke-linejoin="miter"
       stroke="#000000"
       stroke-opacity="1"
       stroke-miterlimit="4"
       d="m 252.03491,113.76371 c 0,0.17087 -0.13918,0.30868 -0.30868,0.30868 -0.17088,0 -0.31006,-0.13781 -0.31006,-0.30868 0,-0.17088 0.14194,-0.30868 0.31006,-0.30868 0.1695,0 0.30868,0.1378 0.30868,0.30868 z m 0,0"
       id="path12848" /><path
       fill-rule="evenodd"
       fill="#5000c8"
       fill-opacity="1"
       stroke-width="0.0823528"
       stroke-linecap="butt"
       stroke-linejoin="miter"
       stroke="#5000c8"
       stroke-opacity="1"
       stroke-miterlimit="4"
       d="m 250.87874,111.80689 c 0.0207,-0.1695 0.17501,-0.29076 0.34313,-0.27009 0.16949,0.0207 0.29076,0.17363 0.27009,0.34313 -0.0207,0.16949 -0.17777,0.28938 -0.34313,0.27009 -0.1695,-0.0207 -0.29076,-0.17501 -0.27009,-0.34313 z m 0,0"
       id="path13234" /><path
       fill-rule="evenodd"
       fill="#5000c8"
       fill-opacity="1"
       stroke-width="0.0823531"
       stroke-linecap="butt"
       stroke-linejoin="miter"
       stroke="#5000c8"
       stroke-opacity="1"
       stroke-miterlimit="4"
       d="m 249.6385,111.76141 c -0.0372,-0.16674 0.0675,-0.3321 0.23289,-0.36931 0.16671,-0.0374 0.33211,0.0662 0.36931,0.23289 0.0386,0.16674 -0.0703,0.33211 -0.23288,0.36931 -0.16537,0.0372 -0.33211,-0.0661 -0.36932,-0.23289 z m 0,0"
       id="path13236" /><path
       fill-rule="evenodd"
       fill="#5000c8"
       fill-opacity="1"
       stroke-width="0.0823531"
       stroke-linecap="butt"
       stroke-linejoin="miter"
       stroke="#5000c8"
       stroke-opacity="1"
       stroke-miterlimit="4"
       d="m 248.55674,112.70261 c -0.13768,-0.10075 -0.16674,-0.29352 -0.0661,-0.43132 0.10076,-0.13769 0.29489,-0.16674 0.43132,-0.0661 0.13769,0.10076 0.16537,0.29766 0.0661,0.43133 -0.10076,0.13768 -0.29352,0.16812 -0.43133,0.0661 z m 0,0"
       id="path13238" /><path
       fill-rule="evenodd"
       fill="#5000c8"
       fill-opacity="1"
       stroke-width="0.0823528"
       stroke-linecap="butt"
       stroke-linejoin="miter"
       stroke="#5000c8"
       stroke-opacity="1"
       stroke-miterlimit="4"
       d="m 248.37071,114.15782 c -0.16951,0.003 -0.31144,-0.13229 -0.31558,-0.30316 -0.003,-0.1695 0.1323,-0.31144 0.30317,-0.3142 0.1695,-0.004 0.31144,0.13505 0.31557,0.30179 0.003,0.1695 -0.13229,0.31144 -0.30316,0.31557 z m 0,0"
       id="path13240" /><path
       fill-rule="evenodd"
       fill="#5000c8"
       fill-opacity="1"
       stroke-width="0.082353"
       stroke-linecap="butt"
       stroke-linejoin="miter"
       stroke="#5000c8"
       stroke-opacity="1"
       stroke-miterlimit="4"
       d="m 249.04594,115.60338 c -0.12953,0.11162 -0.32383,0.0965 -0.43546,-0.0331 -0.11161,-0.12816 -0.0965,-0.32384 0.0331,-0.43546 0.12815,-0.11024 0.32659,-0.0937 0.43546,0.0331 0.11023,0.12954 0.0965,0.32383 -0.0331,0.43545 z m 0,0"
       id="path13242" /><path
       fill-rule="evenodd"
       fill="#5000c8"
       fill-opacity="1"
       stroke-width="0.082353"
       stroke-linecap="butt"
       stroke-linejoin="miter"
       stroke="#5000c8"
       stroke-opacity="1"
       stroke-miterlimit="4"
       d="m 250.15802,115.93411 c -0.0386,0.16675 -0.20533,0.2701 -0.37069,0.23152 -0.16674,-0.0386 -0.2701,-0.20395 -0.23151,-0.3707 0.0386,-0.16674 0.20808,-0.26872 0.37069,-0.23151 0.16537,0.0386 0.26872,0.20533 0.23151,0.37069 z m 0,0"
       id="path13244" /><path
       fill-rule="evenodd"
       fill="#5000c8"
       fill-opacity="1"
       stroke-width="0.0823529"
       stroke-linecap="butt"
       stroke-linejoin="miter"
       stroke="#5000c8"
       stroke-opacity="1"
       stroke-miterlimit="4"
       d="m 251.20809,115.6461 c 0.12126,0.12127 0.12126,0.31696 0,0.43684 -0.11989,0.11989 -0.31557,0.11989 -0.43546,0 -0.12129,-0.11987 -0.11851,-0.31832 0,-0.43683 0.11989,-0.11989 0.31557,-0.11989 0.43546,-10e-6 z m 0,0"
       id="path13246" /><path
       fill-rule="evenodd"
       fill="#5000c8"
       fill-opacity="1"
       stroke-width="0.0823528"
       stroke-linecap="butt"
       stroke-linejoin="miter"
       stroke="#5000c8"
       stroke-opacity="1"
       stroke-miterlimit="4"
       d="m 250.99036,113.45503 c 0.17087,0 0.30868,0.1378 0.30868,0.30868 0,0.17087 -0.13781,0.30868 -0.30868,0.30868 -0.17088,0 -0.30868,-0.14194 -0.30868,-0.30868 0,-0.17088 0.1378,-0.30868 0.30868,-0.30868 z m 0,0"
       id="path13248" /><path
       fill-rule="evenodd"
       fill="#5000c8"
       fill-opacity="1"
       stroke-width="0.0823528"
       stroke-linecap="butt"
       stroke-linejoin="miter"
       stroke="#5000c8"
       stroke-opacity="1"
       stroke-miterlimit="4"
       d="m 250.47359,113.76371 c 0,0.17087 -0.1378,0.30868 -0.30868,0.30868 -0.17088,0 -0.30868,-0.13781 -0.30868,-0.30868 0,-0.17088 0.14194,-0.30868 0.30868,-0.30868 0.17088,0 0.30868,0.1378 0.30868,0.30868 z m 0,0"
       id="path13250" /><path
       fill-rule="evenodd"
       fill="#5000c8"
       fill-opacity="1"
       stroke-width="0.0823528"
       stroke-linecap="butt"
       stroke-linejoin="miter"
       stroke="#5000c8"
       stroke-opacity="1"
       stroke-miterlimit="4"
       d="m 252.03491,113.76371 c 0,0.17087 -0.13918,0.30868 -0.30868,0.30868 -0.17088,0 -0.31006,-0.13781 -0.31006,-0.30868 0,-0.17088 0.14194,-0.30868 0.31006,-0.30868 0.1695,0 0.30868,0.1378 0.30868,0.30868 z m 0,0"
       id="path13252" /></g></svg>
