<?xml version="1.0" encoding="UTF-8" standalone="no"?>
<!-- Created with Inkscape (http://www.inkscape.org/) -->

<svg
   width="3.9119263mm"
   height="4.9399414mm"
   viewBox="0 0 3.9119263 4.9399414"
   version="1.1"
   id="svg4110"
   xml:space="preserve"
   xmlns:inkscape="http://www.inkscape.org/namespaces/inkscape"
   xmlns:sodipodi="http://sodipodi.sourceforge.net/DTD/sodipodi-0.dtd"
   xmlns="http://www.w3.org/2000/svg"
   xmlns:svg="http://www.w3.org/2000/svg"><sodipodi:namedview
     id="namedview4112"
     pagecolor="#ffffff"
     bordercolor="#000000"
     borderopacity="0.25"
     inkscape:showpageshadow="2"
     inkscape:pageopacity="0.0"
     inkscape:pagecheckerboard="0"
     inkscape:deskcolor="#d1d1d1"
     inkscape:document-units="mm"
     showgrid="false"
     inkscape:zoom="0.2102413"
     inkscape:cx="244.95663"
     inkscape:cy="561.25984"
     inkscape:window-width="1728"
     inkscape:window-height="1080"
     inkscape:window-x="0"
     inkscape:window-y="37"
     inkscape:window-maximized="0"
     inkscape:current-layer="layer1" /><defs
     id="defs4107" /><g
     inkscape:label="Layer 1"
     inkscape:groupmode="layer"
     id="layer1"
     transform="translate(-247.60605,-118.54842)"><path
       fill="none"
       stroke-width="0.595238"
       stroke-linecap="round"
       stroke-linejoin="round"
       stroke="#000000"
       stroke-opacity="1"
       stroke-miterlimit="4"
       d="m 247.95592,118.89827 h 0.78686 v 4.22507 h -0.78686 m 3.21083,-2.07395 -2.42397,-0.0386 m 2.42397,-2.0519 v 4.17959"
       id="path12850" /><path
       fill-rule="evenodd"
       fill="#000000"
       fill-opacity="1"
       stroke-width="0.0823528"
       stroke-linecap="butt"
       stroke-linejoin="miter"
       stroke="#000000"
       stroke-opacity="1"
       stroke-miterlimit="4"
       d="m 248.2646,118.89827 c 0,0.17088 -0.13781,0.30868 -0.30868,0.30868 -0.17088,0 -0.30868,-0.1378 -0.30868,-0.30868 0,-0.17087 0.14193,-0.30868 0.30868,-0.30868 0.17087,0 0.30868,0.13781 0.30868,0.30868 z m 0,0"
       id="path12852" /><path
       fill-rule="evenodd"
       fill="#000000"
       fill-opacity="1"
       stroke-width="0.0823529"
       stroke-linecap="butt"
       stroke-linejoin="miter"
       stroke="#000000"
       stroke-opacity="1"
       stroke-miterlimit="4"
       d="m 248.96051,119.11738 c -0.11989,0.11989 -0.31558,0.11989 -0.43684,0 -0.11987,-0.12128 -0.11989,-0.31695 0,-0.43683 0.12127,-0.12127 0.31833,-0.11852 0.43684,0 0.12128,0.11987 0.12126,0.31557 0,0.43683 z m 0,0"
       id="path12854" /><path
       fill-rule="evenodd"
       fill="#000000"
       fill-opacity="1"
       stroke-width="0.0823529"
       stroke-linecap="butt"
       stroke-linejoin="miter"
       stroke="#000000"
       stroke-opacity="1"
       stroke-miterlimit="4"
       d="m 248.52367,123.34245 c -0.11987,-0.12129 -0.11989,-0.31695 0,-0.43684 0.12127,-0.12127 0.31695,-0.12127 0.43684,0 0.12128,0.11987 0.11851,0.31833 0,0.43684 -0.11989,0.11989 -0.31557,0.11989 -0.43684,0 z m 0,0"
       id="path12856" /><path
       fill-rule="evenodd"
       fill="#000000"
       fill-opacity="1"
       stroke-width="0.0823528"
       stroke-linecap="butt"
       stroke-linejoin="miter"
       stroke="#000000"
       stroke-opacity="1"
       stroke-miterlimit="4"
       d="m 247.64724,123.12334 c 0,-0.1695 0.1378,-0.30868 0.30868,-0.30868 0.17087,0 0.30868,0.13918 0.30868,0.30868 0,0.17088 -0.14194,0.31006 -0.30868,0.31006 -0.17088,0 -0.30868,-0.13918 -0.30868,-0.31006 z m 0,0"
       id="path12858" /><path
       fill-rule="evenodd"
       fill="#000000"
       fill-opacity="1"
       stroke-width="0.0823529"
       stroke-linecap="butt"
       stroke-linejoin="miter"
       stroke="#000000"
       stroke-opacity="1"
       stroke-miterlimit="4"
       d="m 250.85807,121.04388 c 0.003,-0.17087 0.14331,-0.30593 0.31419,-0.30317 0.17087,0.003 0.30592,0.14194 0.30454,0.31282 -0.003,0.17087 -0.14745,0.3073 -0.31419,0.30454 -0.17088,-0.003 -0.3073,-0.14331 -0.30454,-0.31419 z m 0,0"
       id="path12860" /><path
       fill-rule="evenodd"
       fill="#000000"
       fill-opacity="1"
       stroke-width="0.0823529"
       stroke-linecap="butt"
       stroke-linejoin="miter"
       stroke="#000000"
       stroke-opacity="1"
       stroke-miterlimit="4"
       d="m 248.4341,121.00667 c 0.001,-0.17087 0.14193,-0.3073 0.31281,-0.30454 0.17088,0.003 0.3073,0.14331 0.30455,0.31419 -0.003,0.1695 -0.14745,0.30592 -0.3142,0.30317 -0.17087,-0.003 -0.30592,-0.14194 -0.30316,-0.31282 z m 0,0"
       id="path12862" /><path
       fill-rule="evenodd"
       fill="#000000"
       fill-opacity="1"
       stroke-width="0.0823528"
       stroke-linecap="butt"
       stroke-linejoin="miter"
       stroke="#000000"
       stroke-opacity="1"
       stroke-miterlimit="4"
       d="m 251.16675,119.26759 c -0.1695,0 -0.30869,-0.13781 -0.30869,-0.30868 0,-0.17088 0.13919,-0.30868 0.30869,-0.30868 0.17087,0 0.31005,0.14193 0.31005,0.30868 0,0.17087 -0.13918,0.30868 -0.31005,0.30868 z m 0,0"
       id="path12864" /><path
       fill-rule="evenodd"
       fill="#000000"
       fill-opacity="1"
       stroke-width="0.0823528"
       stroke-linecap="butt"
       stroke-linejoin="miter"
       stroke="#000000"
       stroke-opacity="1"
       stroke-miterlimit="4"
       d="m 251.16675,123.44718 c -0.1695,0 -0.30869,-0.1378 -0.30869,-0.30868 0,-0.1695 0.13919,-0.30868 0.30869,-0.30868 0.17087,0 0.31005,0.14194 0.31005,0.30868 0,0.17088 -0.13918,0.30868 -0.31005,0.30868 z m 0,0"
       id="path12866" /><path
       fill-rule="evenodd"
       fill="#5000c8"
       fill-opacity="1"
       stroke-width="0.0823528"
       stroke-linecap="butt"
       stroke-linejoin="miter"
       stroke="#5000c8"
       stroke-opacity="1"
       stroke-miterlimit="4"
       d="m 248.2646,118.89827 c 0,0.17088 -0.13781,0.30868 -0.30868,0.30868 -0.17088,0 -0.30868,-0.1378 -0.30868,-0.30868 0,-0.17087 0.14193,-0.30868 0.30868,-0.30868 0.17087,0 0.30868,0.13781 0.30868,0.30868 z m 0,0"
       id="path13254" /><path
       fill-rule="evenodd"
       fill="#5000c8"
       fill-opacity="1"
       stroke-width="0.0823529"
       stroke-linecap="butt"
       stroke-linejoin="miter"
       stroke="#5000c8"
       stroke-opacity="1"
       stroke-miterlimit="4"
       d="m 248.96051,119.11738 c -0.11989,0.11989 -0.31558,0.11989 -0.43684,0 -0.11987,-0.12128 -0.11989,-0.31695 0,-0.43683 0.12127,-0.12127 0.31833,-0.11852 0.43684,0 0.12128,0.11987 0.12126,0.31557 0,0.43683 z m 0,0"
       id="path13256" /><path
       fill-rule="evenodd"
       fill="#5000c8"
       fill-opacity="1"
       stroke-width="0.0823529"
       stroke-linecap="butt"
       stroke-linejoin="miter"
       stroke="#5000c8"
       stroke-opacity="1"
       stroke-miterlimit="4"
       d="m 248.52367,123.34245 c -0.11987,-0.12129 -0.11989,-0.31695 0,-0.43684 0.12127,-0.12127 0.31695,-0.12127 0.43684,0 0.12128,0.11987 0.11851,0.31833 0,0.43684 -0.11989,0.11989 -0.31557,0.11989 -0.43684,0 z m 0,0"
       id="path13258" /><path
       fill-rule="evenodd"
       fill="#5000c8"
       fill-opacity="1"
       stroke-width="0.0823528"
       stroke-linecap="butt"
       stroke-linejoin="miter"
       stroke="#5000c8"
       stroke-opacity="1"
       stroke-miterlimit="4"
       d="m 247.64724,123.12334 c 0,-0.1695 0.1378,-0.30868 0.30868,-0.30868 0.17087,0 0.30868,0.13918 0.30868,0.30868 0,0.17088 -0.14194,0.31006 -0.30868,0.31006 -0.17088,0 -0.30868,-0.13918 -0.30868,-0.31006 z m 0,0"
       id="path13260" /><path
       fill-rule="evenodd"
       fill="#5000c8"
       fill-opacity="1"
       stroke-width="0.0823529"
       stroke-linecap="butt"
       stroke-linejoin="miter"
       stroke="#5000c8"
       stroke-opacity="1"
       stroke-miterlimit="4"
       d="m 250.85807,121.04388 c 0.003,-0.17087 0.14331,-0.30593 0.31419,-0.30317 0.17087,0.003 0.30592,0.14194 0.30454,0.31282 -0.003,0.17087 -0.14745,0.3073 -0.31419,0.30454 -0.17088,-0.003 -0.3073,-0.14331 -0.30454,-0.31419 z m 0,0"
       id="path13262" /><path
       fill-rule="evenodd"
       fill="#5000c8"
       fill-opacity="1"
       stroke-width="0.0823529"
       stroke-linecap="butt"
       stroke-linejoin="miter"
       stroke="#5000c8"
       stroke-opacity="1"
       stroke-miterlimit="4"
       d="m 248.4341,121.00667 c 0.001,-0.17087 0.14193,-0.3073 0.31281,-0.30454 0.17088,0.003 0.3073,0.14331 0.30455,0.31419 -0.003,0.1695 -0.14745,0.30592 -0.3142,0.30317 -0.17087,-0.003 -0.30592,-0.14194 -0.30316,-0.31282 z m 0,0"
       id="path13264" /><path
       fill-rule="evenodd"
       fill="#5000c8"
       fill-opacity="1"
       stroke-width="0.0823528"
       stroke-linecap="butt"
       stroke-linejoin="miter"
       stroke="#5000c8"
       stroke-opacity="1"
       stroke-miterlimit="4"
       d="m 251.16675,119.26759 c -0.1695,0 -0.30869,-0.13781 -0.30869,-0.30868 0,-0.17088 0.13919,-0.30868 0.30869,-0.30868 0.17087,0 0.31005,0.14193 0.31005,0.30868 0,0.17087 -0.13918,0.30868 -0.31005,0.30868 z m 0,0"
       id="path13266" /><path
       fill-rule="evenodd"
       fill="#5000c8"
       fill-opacity="1"
       stroke-width="0.0823528"
       stroke-linecap="butt"
       stroke-linejoin="miter"
       stroke="#5000c8"
       stroke-opacity="1"
       stroke-miterlimit="4"
       d="m 251.16675,123.44718 c -0.1695,0 -0.30869,-0.1378 -0.30869,-0.30868 0,-0.1695 0.13919,-0.30868 0.30869,-0.30868 0.17087,0 0.31005,0.14194 0.31005,0.30868 0,0.17088 -0.13918,0.30868 -0.31005,0.30868 z m 0,0"
       id="path13268" /></g></svg>
