<?xml version="1.0" encoding="UTF-8" standalone="no"?>
<!-- Created with Inkscape (http://www.inkscape.org/) -->

<svg
   width="0.69972229mm"
   height="4.7359772mm"
   viewBox="0 0 0.69972229 4.7359772"
   version="1.1"
   id="svg4110"
   xml:space="preserve"
   xmlns:inkscape="http://www.inkscape.org/namespaces/inkscape"
   xmlns:sodipodi="http://sodipodi.sourceforge.net/DTD/sodipodi-0.dtd"
   xmlns="http://www.w3.org/2000/svg"
   xmlns:svg="http://www.w3.org/2000/svg"><sodipodi:namedview
     id="namedview4112"
     pagecolor="#ffffff"
     bordercolor="#000000"
     borderopacity="0.25"
     inkscape:showpageshadow="2"
     inkscape:pageopacity="0.0"
     inkscape:pagecheckerboard="0"
     inkscape:deskcolor="#d1d1d1"
     inkscape:document-units="mm"
     showgrid="false"
     inkscape:zoom="0.2102413"
     inkscape:cx="244.95663"
     inkscape:cy="561.25984"
     inkscape:window-width="1728"
     inkscape:window-height="1080"
     inkscape:window-x="0"
     inkscape:window-y="37"
     inkscape:window-maximized="0"
     inkscape:current-layer="layer1" /><defs
     id="defs4107" /><g
     inkscape:label="Layer 1"
     inkscape:groupmode="layer"
     id="layer1"
     transform="translate(-249.50637,-125.94297)"><path
       fill="none"
       stroke-width="0.619368"
       stroke-linecap="round"
       stroke-linejoin="round"
       stroke="#000000"
       stroke-opacity="1"
       stroke-miterlimit="4"
       d="m 249.85623,126.29283 v 4.03627"
       id="path12868" /><path
       fill-rule="evenodd"
       fill="#000000"
       fill-opacity="1"
       stroke-width="0.0823528"
       stroke-linecap="butt"
       stroke-linejoin="miter"
       stroke="#000000"
       stroke-opacity="1"
       stroke-miterlimit="4"
       d="m 249.85623,126.60151 c -0.17088,0 -0.30868,-0.1378 -0.30868,-0.30868 0,-0.17088 0.1378,-0.30868 0.30868,-0.30868 0.17088,0 0.30868,0.14194 0.30868,0.30868 0,0.17088 -0.1378,0.30868 -0.30868,0.30868 z m 0,0"
       id="path12870" /><path
       fill-rule="evenodd"
       fill="#000000"
       fill-opacity="1"
       stroke-width="0.0823528"
       stroke-linecap="butt"
       stroke-linejoin="miter"
       stroke="#000000"
       stroke-opacity="1"
       stroke-miterlimit="4"
       d="m 249.85623,130.63778 c -0.17088,0 -0.30868,-0.1378 -0.30868,-0.30868 0,-0.17088 0.1378,-0.30868 0.30868,-0.30868 0.17088,0 0.30868,0.14194 0.30868,0.30868 0,0.17088 -0.1378,0.30868 -0.30868,0.30868 z m 0,0"
       id="path12872" /><path
       fill-rule="evenodd"
       fill="#5000c8"
       fill-opacity="1"
       stroke-width="0.0823528"
       stroke-linecap="butt"
       stroke-linejoin="miter"
       stroke="#5000c8"
       stroke-opacity="1"
       stroke-miterlimit="4"
       d="m 249.85623,126.60151 c -0.17088,0 -0.30868,-0.1378 -0.30868,-0.30868 0,-0.17088 0.1378,-0.30868 0.30868,-0.30868 0.17088,0 0.30868,0.14194 0.30868,0.30868 0,0.17088 -0.1378,0.30868 -0.30868,0.30868 z m 0,0"
       id="path13270" /><path
       fill-rule="evenodd"
       fill="#5000c8"
       fill-opacity="1"
       stroke-width="0.0823528"
       stroke-linecap="butt"
       stroke-linejoin="miter"
       stroke="#5000c8"
       stroke-opacity="1"
       stroke-miterlimit="4"
       d="m 249.85623,130.63778 c -0.17088,0 -0.30868,-0.1378 -0.30868,-0.30868 0,-0.17088 0.1378,-0.30868 0.30868,-0.30868 0.17088,0 0.30868,0.14194 0.30868,0.30868 0,0.17088 -0.1378,0.30868 -0.30868,0.30868 z m 0,0"
       id="path13272" /></g></svg>
