<?xml version="1.0" encoding="UTF-8" standalone="no"?>
<!-- Created with Inkscape (http://www.inkscape.org/) -->

<svg
   width="3.2055817mm"
   height="4.9017181mm"
   viewBox="0 0 3.2055817 4.9017181"
   version="1.1"
   id="svg4110"
   xml:space="preserve"
   xmlns:inkscape="http://www.inkscape.org/namespaces/inkscape"
   xmlns:sodipodi="http://sodipodi.sourceforge.net/DTD/sodipodi-0.dtd"
   xmlns="http://www.w3.org/2000/svg"
   xmlns:svg="http://www.w3.org/2000/svg"><sodipodi:namedview
     id="namedview4112"
     pagecolor="#ffffff"
     bordercolor="#000000"
     borderopacity="0.25"
     inkscape:showpageshadow="2"
     inkscape:pageopacity="0.0"
     inkscape:pagecheckerboard="0"
     inkscape:deskcolor="#d1d1d1"
     inkscape:document-units="mm"
     showgrid="false"
     inkscape:zoom="0.2102413"
     inkscape:cx="244.95663"
     inkscape:cy="561.25984"
     inkscape:window-width="1728"
     inkscape:window-height="1080"
     inkscape:window-x="0"
     inkscape:window-y="37"
     inkscape:window-maximized="0"
     inkscape:current-layer="layer1" /><defs
     id="defs4107" /><g
     inkscape:label="Layer 1"
     inkscape:groupmode="layer"
     id="layer1"
     transform="translate(-248.23936,-133.20524)"><path
       fill="none"
       stroke-width="0.619368"
       stroke-linecap="round"
       stroke-linejoin="round"
       stroke="#000000"
       stroke-opacity="1"
       stroke-miterlimit="4"
       d="m 248.58981,137.37501 0.90537,0.38172 0.88057,-0.62977 v -3.57187 m -1.63573,0 h 2.35507"
       id="path12874" /><path
       fill-rule="evenodd"
       fill="#000000"
       fill-opacity="1"
       stroke-width="0.0823529"
       stroke-linecap="butt"
       stroke-linejoin="miter"
       stroke="#000000"
       stroke-opacity="1"
       stroke-miterlimit="4"
       d="m 248.87369,137.4949 c -0.0661,0.1571 -0.24667,0.23151 -0.40376,0.16536 -0.15713,-0.0675 -0.23151,-0.24804 -0.16537,-0.40514 0.0661,-0.15709 0.25081,-0.23013 0.40515,-0.16536 0.15712,0.0674 0.23013,0.24804 0.16398,0.40514 z m 0,0"
       id="path12876" /><path
       fill-rule="evenodd"
       fill="#000000"
       fill-opacity="1"
       stroke-width="0.0823529"
       stroke-linecap="butt"
       stroke-linejoin="miter"
       stroke="#000000"
       stroke-opacity="1"
       stroke-miterlimit="4"
       d="m 249.80249,137.72228 c 0.0179,0.1695 -0.10335,0.32246 -0.27285,0.34175 -0.16951,0.0179 -0.32246,-0.10335 -0.34176,-0.27285 -0.0179,-0.1695 0.10749,-0.32246 0.27285,-0.34175 0.1695,-0.0193 0.32247,0.10335 0.34176,0.27285 z m 0,0"
       id="path12878" /><path
       fill-rule="evenodd"
       fill="#000000"
       fill-opacity="1"
       stroke-width="0.0823531"
       stroke-linecap="butt"
       stroke-linejoin="miter"
       stroke="#000000"
       stroke-opacity="1"
       stroke-miterlimit="4"
       d="m 250.51631,136.85136 c 0.15168,0.0784 0.21084,0.26458 0.13367,0.41616 -0.0784,0.15168 -0.26458,0.21084 -0.41617,0.13368 -0.15167,-0.0784 -0.20946,-0.26735 -0.13367,-0.41617 0.0784,-0.15168 0.26459,-0.21084 0.41617,-0.13367 z m 0,0"
       id="path12880" /><path
       fill-rule="evenodd"
       fill="#000000"
       fill-opacity="1"
       stroke-width="0.0823528"
       stroke-linecap="butt"
       stroke-linejoin="miter"
       stroke="#000000"
       stroke-opacity="1"
       stroke-miterlimit="4"
       d="m 250.37575,133.24641 c 0.1695,0 0.30868,0.1378 0.30868,0.30868 0,0.17087 -0.13918,0.30868 -0.30868,0.30868 -0.17088,0 -0.31006,-0.14194 -0.31006,-0.30868 0,-0.17088 0.13918,-0.30868 0.31006,-0.30868 z m 0,0"
       id="path12882" /><path
       fill-rule="evenodd"
       fill="#000000"
       fill-opacity="1"
       stroke-width="0.0823528"
       stroke-linecap="butt"
       stroke-linejoin="miter"
       stroke="#000000"
       stroke-opacity="1"
       stroke-miterlimit="4"
       d="m 249.0487,133.55509 c 0,0.17087 -0.13918,0.30868 -0.30868,0.30868 -0.17088,0 -0.30868,-0.13781 -0.30868,-0.30868 0,-0.17088 0.14194,-0.30868 0.30868,-0.30868 0.1695,0 0.30868,0.1378 0.30868,0.30868 z m 0,0"
       id="path12884" /><path
       fill-rule="evenodd"
       fill="#000000"
       fill-opacity="1"
       stroke-width="0.0823528"
       stroke-linecap="butt"
       stroke-linejoin="miter"
       stroke="#000000"
       stroke-opacity="1"
       stroke-miterlimit="4"
       d="m 251.40377,133.55509 c 0,0.17087 -0.13781,0.30868 -0.30868,0.30868 -0.17088,0 -0.30868,-0.13781 -0.30868,-0.30868 0,-0.17088 0.14193,-0.30868 0.30868,-0.30868 0.17087,0 0.30868,0.1378 0.30868,0.30868 z m 0,0"
       id="path12886" /><path
       fill-rule="evenodd"
       fill="#5000c8"
       fill-opacity="1"
       stroke-width="0.0823529"
       stroke-linecap="butt"
       stroke-linejoin="miter"
       stroke="#5000c8"
       stroke-opacity="1"
       stroke-miterlimit="4"
       d="m 248.87369,137.4949 c -0.0661,0.1571 -0.24667,0.23151 -0.40376,0.16536 -0.15713,-0.0675 -0.23151,-0.24804 -0.16537,-0.40514 0.0661,-0.15709 0.25081,-0.23013 0.40515,-0.16536 0.15712,0.0674 0.23013,0.24804 0.16398,0.40514 z m 0,0"
       id="path13274" /><path
       fill-rule="evenodd"
       fill="#5000c8"
       fill-opacity="1"
       stroke-width="0.0823529"
       stroke-linecap="butt"
       stroke-linejoin="miter"
       stroke="#5000c8"
       stroke-opacity="1"
       stroke-miterlimit="4"
       d="m 249.80249,137.72228 c 0.0179,0.1695 -0.10335,0.32246 -0.27285,0.34175 -0.16951,0.0179 -0.32246,-0.10335 -0.34176,-0.27285 -0.0179,-0.1695 0.10749,-0.32246 0.27285,-0.34175 0.1695,-0.0193 0.32247,0.10335 0.34176,0.27285 z m 0,0"
       id="path13276" /><path
       fill-rule="evenodd"
       fill="#5000c8"
       fill-opacity="1"
       stroke-width="0.0823531"
       stroke-linecap="butt"
       stroke-linejoin="miter"
       stroke="#5000c8"
       stroke-opacity="1"
       stroke-miterlimit="4"
       d="m 250.51631,136.85136 c 0.15168,0.0784 0.21084,0.26458 0.13367,0.41616 -0.0784,0.15168 -0.26458,0.21084 -0.41617,0.13368 -0.15167,-0.0784 -0.20946,-0.26735 -0.13367,-0.41617 0.0784,-0.15168 0.26459,-0.21084 0.41617,-0.13367 z m 0,0"
       id="path13278" /><path
       fill-rule="evenodd"
       fill="#5000c8"
       fill-opacity="1"
       stroke-width="0.0823528"
       stroke-linecap="butt"
       stroke-linejoin="miter"
       stroke="#5000c8"
       stroke-opacity="1"
       stroke-miterlimit="4"
       d="m 250.37575,133.24641 c 0.1695,0 0.30868,0.1378 0.30868,0.30868 0,0.17087 -0.13918,0.30868 -0.30868,0.30868 -0.17088,0 -0.31006,-0.14194 -0.31006,-0.30868 0,-0.17088 0.13918,-0.30868 0.31006,-0.30868 z m 0,0"
       id="path13280" /><path
       fill-rule="evenodd"
       fill="#5000c8"
       fill-opacity="1"
       stroke-width="0.0823528"
       stroke-linecap="butt"
       stroke-linejoin="miter"
       stroke="#5000c8"
       stroke-opacity="1"
       stroke-miterlimit="4"
       d="m 249.0487,133.55509 c 0,0.17087 -0.13918,0.30868 -0.30868,0.30868 -0.17088,0 -0.30868,-0.13781 -0.30868,-0.30868 0,-0.17088 0.14194,-0.30868 0.30868,-0.30868 0.1695,0 0.30868,0.1378 0.30868,0.30868 z m 0,0"
       id="path13282" /><path
       fill-rule="evenodd"
       fill="#5000c8"
       fill-opacity="1"
       stroke-width="0.0823528"
       stroke-linecap="butt"
       stroke-linejoin="miter"
       stroke="#5000c8"
       stroke-opacity="1"
       stroke-miterlimit="4"
       d="m 251.40377,133.55509 c 0,0.17087 -0.13781,0.30868 -0.30868,0.30868 -0.17088,0 -0.30868,-0.13781 -0.30868,-0.30868 0,-0.17088 0.14193,-0.30868 0.30868,-0.30868 0.17087,0 0.30868,0.1378 0.30868,0.30868 z m 0,0"
       id="path13284" /></g></svg>
