<?xml version="1.0" encoding="UTF-8" standalone="no"?>
<!-- Created with Inkscape (http://www.inkscape.org/) -->

<svg
   width="3.1143494mm"
   height="4.9013519mm"
   viewBox="0 0 3.1143494 4.9013519"
   version="1.1"
   id="svg4110"
   xml:space="preserve"
   xmlns:inkscape="http://www.inkscape.org/namespaces/inkscape"
   xmlns:sodipodi="http://sodipodi.sourceforge.net/DTD/sodipodi-0.dtd"
   xmlns="http://www.w3.org/2000/svg"
   xmlns:svg="http://www.w3.org/2000/svg"><sodipodi:namedview
     id="namedview4112"
     pagecolor="#ffffff"
     bordercolor="#000000"
     borderopacity="0.25"
     inkscape:showpageshadow="2"
     inkscape:pageopacity="0.0"
     inkscape:pagecheckerboard="0"
     inkscape:deskcolor="#d1d1d1"
     inkscape:document-units="mm"
     showgrid="false"
     inkscape:zoom="0.2102413"
     inkscape:cx="244.95663"
     inkscape:cy="561.25984"
     inkscape:window-width="1728"
     inkscape:window-height="1080"
     inkscape:window-x="0"
     inkscape:window-y="37"
     inkscape:window-maximized="0"
     inkscape:current-layer="layer1" /><defs
     id="defs4107" /><g
     inkscape:label="Layer 1"
     inkscape:groupmode="layer"
     id="layer1"
     transform="translate(-248.34467,-140.46749)"><path
       fill="none"
       stroke-width="0.619368"
       stroke-linecap="round"
       stroke-linejoin="round"
       stroke="#000000"
       stroke-opacity="1"
       stroke-miterlimit="4"
       d="m 251.11025,140.81735 -2.41571,2.10151 h 1.14791 l 1.16306,1.09416 v 1.00597 m -2.31097,-4.20164 v 4.20164"
       id="path12888" /><path
       fill-rule="evenodd"
       fill="#000000"
       fill-opacity="1"
       stroke-width="0.0823528"
       stroke-linecap="butt"
       stroke-linejoin="miter"
       stroke="#000000"
       stroke-opacity="1"
       stroke-miterlimit="4"
       d="m 250.87736,141.01992 c -0.11162,-0.12816 -0.0978,-0.32384 0.0303,-0.43546 0.12815,-0.11162 0.32383,-0.0978 0.43546,0.0303 0.11162,0.12816 0.0951,0.3266 -0.0303,0.43546 -0.12816,0.11162 -0.32384,0.0992 -0.43546,-0.0303 z m 0,0"
       id="path12890" /><path
       fill-rule="evenodd"
       fill="#000000"
       fill-opacity="1"
       stroke-width="0.0823531"
       stroke-linecap="butt"
       stroke-linejoin="miter"
       stroke="#000000"
       stroke-opacity="1"
       stroke-miterlimit="4"
       d="m 248.80341,143.20687 c -0.15987,0.0606 -0.339,-0.0207 -0.39825,-0.18053 -0.0593,-0.15984 0.022,-0.33761 0.1819,-0.39687 0.15853,-0.0605 0.339,0.0248 0.39687,0.18052 0.0593,0.15986 -0.022,0.33762 -0.18052,0.39688 z m 0,0"
       id="path12892" /><path
       fill-rule="evenodd"
       fill="#000000"
       fill-opacity="1"
       stroke-width="0.082353"
       stroke-linecap="butt"
       stroke-linejoin="miter"
       stroke="#000000"
       stroke-opacity="1"
       stroke-miterlimit="4"
       d="m 250.12908,143.03186 c -0.0621,0.15845 -0.24253,0.23702 -0.40101,0.17363 -0.1585,-0.0633 -0.23564,-0.24254 -0.17225,-0.40101 0.0621,-0.15845 0.24529,-0.23426 0.40101,-0.17363 0.15851,0.0633 0.23564,0.24254 0.17225,0.40101 z m 0,0"
       id="path12894" /><path
       fill-rule="evenodd"
       fill="#000000"
       fill-opacity="1"
       stroke-width="0.0823528"
       stroke-linecap="butt"
       stroke-linejoin="miter"
       stroke="#000000"
       stroke-opacity="1"
       stroke-miterlimit="4"
       d="m 251.12816,144.2969 c -0.1571,0.0675 -0.339,-0.004 -0.40652,-0.16123 -0.0675,-0.15572 0.004,-0.33762 0.16123,-0.40515 0.1571,-0.0675 0.34038,0.008 0.40652,0.16123 0.0675,0.15572 -0.006,0.33762 -0.16123,0.40515 z m 0,0"
       id="path12896" /><path
       fill-rule="evenodd"
       fill="#000000"
       fill-opacity="1"
       stroke-width="0.0823528"
       stroke-linecap="butt"
       stroke-linejoin="miter"
       stroke="#000000"
       stroke-opacity="1"
       stroke-miterlimit="4"
       d="m 251.00551,145.32767 c -0.17087,0 -0.30868,-0.1378 -0.30868,-0.30868 0,-0.17088 0.13781,-0.30868 0.30868,-0.30868 0.17088,0 0.30869,0.14194 0.30869,0.30868 0,0.17088 -0.13781,0.30868 -0.30869,0.30868 z m 0,0"
       id="path12898" /><path
       fill-rule="evenodd"
       fill="#000000"
       fill-opacity="1"
       stroke-width="0.0823528"
       stroke-linecap="butt"
       stroke-linejoin="miter"
       stroke="#000000"
       stroke-opacity="1"
       stroke-miterlimit="4"
       d="m 248.69454,141.12603 c -0.17087,0 -0.30868,-0.1378 -0.30868,-0.30868 0,-0.17088 0.13781,-0.30868 0.30868,-0.30868 0.17088,0 0.30869,0.14194 0.30869,0.30868 0,0.17088 -0.13781,0.30868 -0.30869,0.30868 z m 0,0"
       id="path12900" /><path
       fill-rule="evenodd"
       fill="#000000"
       fill-opacity="1"
       stroke-width="0.0823528"
       stroke-linecap="butt"
       stroke-linejoin="miter"
       stroke="#000000"
       stroke-opacity="1"
       stroke-miterlimit="4"
       d="m 248.69454,145.32767 c -0.17087,0 -0.30868,-0.1378 -0.30868,-0.30868 0,-0.17088 0.13781,-0.30868 0.30868,-0.30868 0.17088,0 0.30869,0.14194 0.30869,0.30868 0,0.17088 -0.13781,0.30868 -0.30869,0.30868 z m 0,0"
       id="path12902" /><path
       fill-rule="evenodd"
       fill="#5000c8"
       fill-opacity="1"
       stroke-width="0.0823528"
       stroke-linecap="butt"
       stroke-linejoin="miter"
       stroke="#5000c8"
       stroke-opacity="1"
       stroke-miterlimit="4"
       d="m 250.87736,141.01992 c -0.11162,-0.12816 -0.0978,-0.32384 0.0303,-0.43546 0.12815,-0.11162 0.32383,-0.0978 0.43546,0.0303 0.11162,0.12816 0.0951,0.3266 -0.0303,0.43546 -0.12816,0.11162 -0.32384,0.0992 -0.43546,-0.0303 z m 0,0"
       id="path13286" /><path
       fill-rule="evenodd"
       fill="#5000c8"
       fill-opacity="1"
       stroke-width="0.0823531"
       stroke-linecap="butt"
       stroke-linejoin="miter"
       stroke="#5000c8"
       stroke-opacity="1"
       stroke-miterlimit="4"
       d="m 248.80341,143.20687 c -0.15987,0.0606 -0.339,-0.0207 -0.39825,-0.18053 -0.0593,-0.15984 0.022,-0.33761 0.1819,-0.39687 0.15853,-0.0605 0.339,0.0248 0.39687,0.18052 0.0593,0.15986 -0.022,0.33762 -0.18052,0.39688 z m 0,0"
       id="path13288" /><path
       fill-rule="evenodd"
       fill="#5000c8"
       fill-opacity="1"
       stroke-width="0.082353"
       stroke-linecap="butt"
       stroke-linejoin="miter"
       stroke="#5000c8"
       stroke-opacity="1"
       stroke-miterlimit="4"
       d="m 250.12908,143.03186 c -0.0621,0.15845 -0.24253,0.23702 -0.40101,0.17363 -0.1585,-0.0633 -0.23564,-0.24254 -0.17225,-0.40101 0.0621,-0.15845 0.24529,-0.23426 0.40101,-0.17363 0.15851,0.0633 0.23564,0.24254 0.17225,0.40101 z m 0,0"
       id="path13290" /><path
       fill-rule="evenodd"
       fill="#5000c8"
       fill-opacity="1"
       stroke-width="0.0823528"
       stroke-linecap="butt"
       stroke-linejoin="miter"
       stroke="#5000c8"
       stroke-opacity="1"
       stroke-miterlimit="4"
       d="m 251.12816,144.2969 c -0.1571,0.0675 -0.339,-0.004 -0.40652,-0.16123 -0.0675,-0.15572 0.004,-0.33762 0.16123,-0.40515 0.1571,-0.0675 0.34038,0.008 0.40652,0.16123 0.0675,0.15572 -0.006,0.33762 -0.16123,0.40515 z m 0,0"
       id="path13292" /><path
       fill-rule="evenodd"
       fill="#5000c8"
       fill-opacity="1"
       stroke-width="0.0823528"
       stroke-linecap="butt"
       stroke-linejoin="miter"
       stroke="#5000c8"
       stroke-opacity="1"
       stroke-miterlimit="4"
       d="m 251.00551,145.32767 c -0.17087,0 -0.30868,-0.1378 -0.30868,-0.30868 0,-0.17088 0.13781,-0.30868 0.30868,-0.30868 0.17088,0 0.30869,0.14194 0.30869,0.30868 0,0.17088 -0.13781,0.30868 -0.30869,0.30868 z m 0,0"
       id="path13294" /><path
       fill-rule="evenodd"
       fill="#5000c8"
       fill-opacity="1"
       stroke-width="0.0823528"
       stroke-linecap="butt"
       stroke-linejoin="miter"
       stroke="#5000c8"
       stroke-opacity="1"
       stroke-miterlimit="4"
       d="m 248.69454,141.12603 c -0.17087,0 -0.30868,-0.1378 -0.30868,-0.30868 0,-0.17088 0.13781,-0.30868 0.30868,-0.30868 0.17088,0 0.30869,0.14194 0.30869,0.30868 0,0.17088 -0.13781,0.30868 -0.30869,0.30868 z m 0,0"
       id="path13296" /><path
       fill-rule="evenodd"
       fill="#5000c8"
       fill-opacity="1"
       stroke-width="0.0823528"
       stroke-linecap="butt"
       stroke-linejoin="miter"
       stroke="#5000c8"
       stroke-opacity="1"
       stroke-miterlimit="4"
       d="m 248.69454,145.32767 c -0.17087,0 -0.30868,-0.1378 -0.30868,-0.30868 0,-0.17088 0.13781,-0.30868 0.30868,-0.30868 0.17088,0 0.30869,0.14194 0.30869,0.30868 0,0.17088 -0.13781,0.30868 -0.30869,0.30868 z m 0,0"
       id="path13298" /></g></svg>
