<?xml version="1.0" encoding="UTF-8" standalone="no"?>
<!-- Created with Inkscape (http://www.inkscape.org/) -->

<svg
   width="3.1829529mm"
   height="4.7966461mm"
   viewBox="0 0 3.1829529 4.7966461"
   version="1.1"
   id="svg4110"
   xml:space="preserve"
   xmlns:inkscape="http://www.inkscape.org/namespaces/inkscape"
   xmlns:sodipodi="http://sodipodi.sourceforge.net/DTD/sodipodi-0.dtd"
   xmlns="http://www.w3.org/2000/svg"
   xmlns:svg="http://www.w3.org/2000/svg"><sodipodi:namedview
     id="namedview4112"
     pagecolor="#ffffff"
     bordercolor="#000000"
     borderopacity="0.25"
     inkscape:showpageshadow="2"
     inkscape:pageopacity="0.0"
     inkscape:pagecheckerboard="0"
     inkscape:deskcolor="#d1d1d1"
     inkscape:document-units="mm"
     showgrid="false"
     inkscape:zoom="0.2102413"
     inkscape:cx="244.95663"
     inkscape:cy="561.25984"
     inkscape:window-width="1728"
     inkscape:window-height="1080"
     inkscape:window-x="0"
     inkscape:window-y="37"
     inkscape:window-maximized="0"
     inkscape:current-layer="layer1" /><defs
     id="defs4107" /><g
     inkscape:label="Layer 1"
     inkscape:groupmode="layer"
     id="layer1"
     transform="translate(-248.23582,-147.79452)"><path
       fill="none"
       stroke-width="0.619368"
       stroke-linecap="round"
       stroke-linejoin="round"
       stroke="#000000"
       stroke-opacity="1"
       stroke-miterlimit="4"
       d="m 251.0689,152.23991 h -2.48322 m 0.74001,0 v -4.09415"
       id="path12904" /><path
       fill-rule="evenodd"
       fill="#000000"
       fill-opacity="1"
       stroke-width="0.0823528"
       stroke-linecap="butt"
       stroke-linejoin="miter"
       stroke="#000000"
       stroke-opacity="1"
       stroke-miterlimit="4"
       d="m 250.76022,152.23991 c 0,-0.1695 0.13781,-0.30868 0.30868,-0.30868 0.17088,0 0.30869,0.13918 0.30869,0.30868 0,0.17088 -0.14194,0.31006 -0.30869,0.31006 -0.17087,0 -0.30868,-0.13918 -0.30868,-0.31006 z m 0,0"
       id="path12906" /><path
       fill-rule="evenodd"
       fill="#000000"
       fill-opacity="1"
       stroke-width="0.0823528"
       stroke-linecap="butt"
       stroke-linejoin="miter"
       stroke="#000000"
       stroke-opacity="1"
       stroke-miterlimit="4"
       d="m 248.277,152.23991 c 0,-0.1695 0.13918,-0.30868 0.30868,-0.30868 0.17088,0 0.30868,0.13918 0.30868,0.30868 0,0.17088 -0.14194,0.31006 -0.30868,0.31006 -0.1695,0 -0.30868,-0.13918 -0.30868,-0.31006 z m 0,0"
       id="path12908" /><path
       fill-rule="evenodd"
       fill="#000000"
       fill-opacity="1"
       stroke-width="0.0823528"
       stroke-linecap="butt"
       stroke-linejoin="miter"
       stroke="#000000"
       stroke-opacity="1"
       stroke-miterlimit="4"
       d="m 249.32569,151.93123 c 0.16949,0 0.30868,0.13918 0.30868,0.30868 0,0.17088 -0.13919,0.31006 -0.30868,0.31006 -0.17088,0 -0.31006,-0.14194 -0.31006,-0.31006 0,-0.1695 0.13918,-0.30868 0.31006,-0.30868 z m 0,0"
       id="path12910" /><path
       fill-rule="evenodd"
       fill="#000000"
       fill-opacity="1"
       stroke-width="0.0823528"
       stroke-linecap="butt"
       stroke-linejoin="miter"
       stroke="#000000"
       stroke-opacity="1"
       stroke-miterlimit="4"
       d="m 249.32569,147.8357 c 0.16949,0 0.30868,0.13918 0.30868,0.31006 0,0.1695 -0.13919,0.30868 -0.30868,0.30868 -0.17088,0 -0.31006,-0.14194 -0.31006,-0.30868 0,-0.17088 0.13918,-0.31006 0.31006,-0.31006 z m 0,0"
       id="path12912" /><path
       fill-rule="evenodd"
       fill="#5000c8"
       fill-opacity="1"
       stroke-width="0.0823528"
       stroke-linecap="butt"
       stroke-linejoin="miter"
       stroke="#5000c8"
       stroke-opacity="1"
       stroke-miterlimit="4"
       d="m 250.76022,152.23991 c 0,-0.1695 0.13781,-0.30868 0.30868,-0.30868 0.17088,0 0.30869,0.13918 0.30869,0.30868 0,0.17088 -0.14194,0.31006 -0.30869,0.31006 -0.17087,0 -0.30868,-0.13918 -0.30868,-0.31006 z m 0,0"
       id="path13300" /><path
       fill-rule="evenodd"
       fill="#5000c8"
       fill-opacity="1"
       stroke-width="0.0823528"
       stroke-linecap="butt"
       stroke-linejoin="miter"
       stroke="#5000c8"
       stroke-opacity="1"
       stroke-miterlimit="4"
       d="m 248.277,152.23991 c 0,-0.1695 0.13918,-0.30868 0.30868,-0.30868 0.17088,0 0.30868,0.13918 0.30868,0.30868 0,0.17088 -0.14194,0.31006 -0.30868,0.31006 -0.1695,0 -0.30868,-0.13918 -0.30868,-0.31006 z m 0,0"
       id="path13302" /><path
       fill-rule="evenodd"
       fill="#5000c8"
       fill-opacity="1"
       stroke-width="0.0823528"
       stroke-linecap="butt"
       stroke-linejoin="miter"
       stroke="#5000c8"
       stroke-opacity="1"
       stroke-miterlimit="4"
       d="m 249.32569,151.93123 c 0.16949,0 0.30868,0.13918 0.30868,0.30868 0,0.17088 -0.13919,0.31006 -0.30868,0.31006 -0.17088,0 -0.31006,-0.14194 -0.31006,-0.31006 0,-0.1695 0.13918,-0.30868 0.31006,-0.30868 z m 0,0"
       id="path13304" /><path
       fill-rule="evenodd"
       fill="#5000c8"
       fill-opacity="1"
       stroke-width="0.0823528"
       stroke-linecap="butt"
       stroke-linejoin="miter"
       stroke="#5000c8"
       stroke-opacity="1"
       stroke-miterlimit="4"
       d="m 249.32569,147.8357 c 0.16949,0 0.30868,0.13918 0.30868,0.31006 0,0.1695 -0.13919,0.30868 -0.30868,0.30868 -0.17088,0 -0.31006,-0.14194 -0.31006,-0.30868 0,-0.17088 0.13918,-0.31006 0.31006,-0.31006 z m 0,0"
       id="path13306" /></g></svg>
