<?xml version="1.0" encoding="UTF-8" standalone="no"?>
<!-- Created with Inkscape (http://www.inkscape.org/) -->

<svg
   width="4.7194672mm"
   height="4.8377075mm"
   viewBox="0 0 4.7194672 4.8377075"
   version="1.1"
   id="svg4110"
   xml:space="preserve"
   xmlns:inkscape="http://www.inkscape.org/namespaces/inkscape"
   xmlns:sodipodi="http://sodipodi.sourceforge.net/DTD/sodipodi-0.dtd"
   xmlns="http://www.w3.org/2000/svg"
   xmlns:svg="http://www.w3.org/2000/svg"><sodipodi:namedview
     id="namedview4112"
     pagecolor="#ffffff"
     bordercolor="#000000"
     borderopacity="0.25"
     inkscape:showpageshadow="2"
     inkscape:pageopacity="0.0"
     inkscape:pagecheckerboard="0"
     inkscape:deskcolor="#d1d1d1"
     inkscape:document-units="mm"
     showgrid="false"
     inkscape:zoom="0.2102413"
     inkscape:cx="244.95663"
     inkscape:cy="561.25984"
     inkscape:window-width="1728"
     inkscape:window-height="1080"
     inkscape:window-x="0"
     inkscape:window-y="37"
     inkscape:window-maximized="0"
     inkscape:current-layer="layer1" /><defs
     id="defs4107" /><g
     inkscape:label="Layer 1"
     inkscape:groupmode="layer"
     id="layer1"
     transform="translate(-247.471,-154.96748)"><path
       fill="none"
       stroke-width="0.619368"
       stroke-linecap="round"
       stroke-linejoin="round"
       stroke="#000000"
       stroke-opacity="1"
       stroke-miterlimit="4"
       d="m 251.09233,159.45532 v -4.13825 l -1.2361,2.52594 -1.30638,-2.52594 v 4.13825 m 3.29076,0 h -1.48002 m -2.53972,0 h 1.46072"
       id="path12914" /><path
       fill-rule="evenodd"
       fill="#000000"
       fill-opacity="1"
       stroke-width="0.0823528"
       stroke-linecap="butt"
       stroke-linejoin="miter"
       stroke="#000000"
       stroke-opacity="1"
       stroke-miterlimit="4"
       d="m 251.09233,159.14664 c 0.17088,0 0.30868,0.1378 0.30868,0.30868 0,0.17087 -0.1378,0.30868 -0.30868,0.30868 -0.17088,0 -0.30868,-0.14194 -0.30868,-0.30868 0,-0.17088 0.1378,-0.30868 0.30868,-0.30868 z m 0,0"
       id="path12916" /><path
       fill-rule="evenodd"
       fill="#000000"
       fill-opacity="1"
       stroke-width="0.0823531"
       stroke-linecap="butt"
       stroke-linejoin="miter"
       stroke="#000000"
       stroke-opacity="1"
       stroke-miterlimit="4"
       d="m 250.79192,155.24817 c 0.0386,-0.16674 0.20395,-0.2701 0.37069,-0.23151 0.16536,0.0386 0.26872,0.20395 0.23013,0.37069 -0.0372,0.16537 -0.20808,0.26872 -0.36931,0.23151 -0.16674,-0.0386 -0.2701,-0.20533 -0.23151,-0.37069 z m 0,0"
       id="path12918" /><path
       fill-rule="evenodd"
       fill="#000000"
       fill-opacity="1"
       stroke-width="0.0823531"
       stroke-linecap="butt"
       stroke-linejoin="miter"
       stroke="#000000"
       stroke-opacity="1"
       stroke-miterlimit="4"
       d="m 249.54755,157.84577 c -0.001,-0.1695 0.13505,-0.31006 0.30593,-0.31144 0.1695,-0.003 0.31005,0.13505 0.31143,0.30455 0.003,0.17087 -0.1378,0.31006 -0.30454,0.31281 -0.17088,0.001 -0.31006,-0.13504 -0.31282,-0.30592 z m 0,0"
       id="path12920" /><path
       fill-rule="evenodd"
       fill="#000000"
       fill-opacity="1"
       stroke-width="0.0823531"
       stroke-linecap="butt"
       stroke-linejoin="miter"
       stroke="#000000"
       stroke-opacity="1"
       stroke-miterlimit="4"
       d="m 248.24944,155.3901 c -0.0413,-0.16536 0.0606,-0.3321 0.226,-0.37207 0.16674,-0.0414 0.33348,0.0606 0.37345,0.226 0.0413,0.16536 -0.0648,0.33349 -0.226,0.37345 -0.16677,0.0399 -0.33349,-0.0606 -0.37345,-0.22738 z m 0,0"
       id="path12922" /><path
       fill-rule="evenodd"
       fill="#000000"
       fill-opacity="1"
       stroke-width="0.0823528"
       stroke-linecap="butt"
       stroke-linejoin="miter"
       stroke="#000000"
       stroke-opacity="1"
       stroke-miterlimit="4"
       d="m 248.54985,159.764 c -0.17088,0 -0.31006,-0.13781 -0.31006,-0.30868 0,-0.17088 0.13918,-0.30868 0.31006,-0.30868 0.1695,0 0.30868,0.14193 0.30868,0.30868 0,0.17087 -0.13918,0.30868 -0.30868,0.30868 z m 0,0"
       id="path12924" /><path
       fill-rule="evenodd"
       fill="#000000"
       fill-opacity="1"
       stroke-width="0.0823528"
       stroke-linecap="butt"
       stroke-linejoin="miter"
       stroke="#000000"
       stroke-opacity="1"
       stroke-miterlimit="4"
       d="m 251.53055,159.45532 c 0,-0.17088 0.13918,-0.30868 0.31006,-0.30868 0.16949,0 0.30868,0.1378 0.30868,0.30868 0,0.17087 -0.14194,0.30868 -0.30868,0.30868 -0.17088,0 -0.31006,-0.13781 -0.31006,-0.30868 z m 0,0"
       id="path12926" /><path
       fill-rule="evenodd"
       fill="#000000"
       fill-opacity="1"
       stroke-width="0.0823528"
       stroke-linecap="butt"
       stroke-linejoin="miter"
       stroke="#000000"
       stroke-opacity="1"
       stroke-miterlimit="4"
       d="m 250.05053,159.45532 c 0,-0.17088 0.13919,-0.30868 0.31006,-0.30868 0.1695,0 0.30868,0.1378 0.30868,0.30868 0,0.17087 -0.14193,0.30868 -0.30868,0.30868 -0.17087,0 -0.31006,-0.13781 -0.31006,-0.30868 z m 0,0"
       id="path12928" /><path
       fill-rule="evenodd"
       fill="#000000"
       fill-opacity="1"
       stroke-width="0.0823528"
       stroke-linecap="butt"
       stroke-linejoin="miter"
       stroke="#000000"
       stroke-opacity="1"
       stroke-miterlimit="4"
       d="m 248.12955,159.45532 c 0,0.17087 -0.13918,0.30868 -0.30868,0.30868 -0.17088,0 -0.30868,-0.13781 -0.30868,-0.30868 0,-0.17088 0.14194,-0.30868 0.30868,-0.30868 0.1695,0 0.30868,0.1378 0.30868,0.30868 z m 0,0"
       id="path12930" /><path
       fill-rule="evenodd"
       fill="#000000"
       fill-opacity="1"
       stroke-width="0.0823528"
       stroke-linecap="butt"
       stroke-linejoin="miter"
       stroke="#000000"
       stroke-opacity="1"
       stroke-miterlimit="4"
       d="m 249.59027,159.45532 c 0,0.17087 -0.1378,0.30868 -0.30868,0.30868 -0.17088,0 -0.30868,-0.13781 -0.30868,-0.30868 0,-0.17088 0.14194,-0.30868 0.30868,-0.30868 0.17088,0 0.30868,0.1378 0.30868,0.30868 z m 0,0"
       id="path12932" /><path
       fill-rule="evenodd"
       fill="#5000c8"
       fill-opacity="1"
       stroke-width="0.0823528"
       stroke-linecap="butt"
       stroke-linejoin="miter"
       stroke="#5000c8"
       stroke-opacity="1"
       stroke-miterlimit="4"
       d="m 251.09233,159.14664 c 0.17088,0 0.30868,0.1378 0.30868,0.30868 0,0.17087 -0.1378,0.30868 -0.30868,0.30868 -0.17088,0 -0.30868,-0.14194 -0.30868,-0.30868 0,-0.17088 0.1378,-0.30868 0.30868,-0.30868 z m 0,0"
       id="path13308" /><path
       fill-rule="evenodd"
       fill="#5000c8"
       fill-opacity="1"
       stroke-width="0.0823531"
       stroke-linecap="butt"
       stroke-linejoin="miter"
       stroke="#5000c8"
       stroke-opacity="1"
       stroke-miterlimit="4"
       d="m 250.79192,155.24817 c 0.0386,-0.16674 0.20395,-0.2701 0.37069,-0.23151 0.16536,0.0386 0.26872,0.20395 0.23013,0.37069 -0.0372,0.16537 -0.20808,0.26872 -0.36931,0.23151 -0.16674,-0.0386 -0.2701,-0.20533 -0.23151,-0.37069 z m 0,0"
       id="path13310" /><path
       fill-rule="evenodd"
       fill="#5000c8"
       fill-opacity="1"
       stroke-width="0.0823531"
       stroke-linecap="butt"
       stroke-linejoin="miter"
       stroke="#5000c8"
       stroke-opacity="1"
       stroke-miterlimit="4"
       d="m 249.54755,157.84577 c -0.001,-0.1695 0.13505,-0.31006 0.30593,-0.31144 0.1695,-0.003 0.31005,0.13505 0.31143,0.30455 0.003,0.17087 -0.1378,0.31006 -0.30454,0.31281 -0.17088,0.001 -0.31006,-0.13504 -0.31282,-0.30592 z m 0,0"
       id="path13312" /><path
       fill-rule="evenodd"
       fill="#5000c8"
       fill-opacity="1"
       stroke-width="0.0823531"
       stroke-linecap="butt"
       stroke-linejoin="miter"
       stroke="#5000c8"
       stroke-opacity="1"
       stroke-miterlimit="4"
       d="m 248.24944,155.3901 c -0.0413,-0.16536 0.0606,-0.3321 0.226,-0.37207 0.16674,-0.0414 0.33348,0.0606 0.37345,0.226 0.0413,0.16536 -0.0648,0.33349 -0.226,0.37345 -0.16677,0.0399 -0.33349,-0.0606 -0.37345,-0.22738 z m 0,0"
       id="path13314" /><path
       fill-rule="evenodd"
       fill="#5000c8"
       fill-opacity="1"
       stroke-width="0.0823528"
       stroke-linecap="butt"
       stroke-linejoin="miter"
       stroke="#5000c8"
       stroke-opacity="1"
       stroke-miterlimit="4"
       d="m 248.54985,159.764 c -0.17088,0 -0.31006,-0.13781 -0.31006,-0.30868 0,-0.17088 0.13918,-0.30868 0.31006,-0.30868 0.1695,0 0.30868,0.14193 0.30868,0.30868 0,0.17087 -0.13918,0.30868 -0.30868,0.30868 z m 0,0"
       id="path13316" /><path
       fill-rule="evenodd"
       fill="#5000c8"
       fill-opacity="1"
       stroke-width="0.0823528"
       stroke-linecap="butt"
       stroke-linejoin="miter"
       stroke="#5000c8"
       stroke-opacity="1"
       stroke-miterlimit="4"
       d="m 251.53055,159.45532 c 0,-0.17088 0.13918,-0.30868 0.31006,-0.30868 0.16949,0 0.30868,0.1378 0.30868,0.30868 0,0.17087 -0.14194,0.30868 -0.30868,0.30868 -0.17088,0 -0.31006,-0.13781 -0.31006,-0.30868 z m 0,0"
       id="path13318" /><path
       fill-rule="evenodd"
       fill="#5000c8"
       fill-opacity="1"
       stroke-width="0.0823528"
       stroke-linecap="butt"
       stroke-linejoin="miter"
       stroke="#5000c8"
       stroke-opacity="1"
       stroke-miterlimit="4"
       d="m 250.05053,159.45532 c 0,-0.17088 0.13919,-0.30868 0.31006,-0.30868 0.1695,0 0.30868,0.1378 0.30868,0.30868 0,0.17087 -0.14193,0.30868 -0.30868,0.30868 -0.17087,0 -0.31006,-0.13781 -0.31006,-0.30868 z m 0,0"
       id="path13320" /><path
       fill-rule="evenodd"
       fill="#5000c8"
       fill-opacity="1"
       stroke-width="0.0823528"
       stroke-linecap="butt"
       stroke-linejoin="miter"
       stroke="#5000c8"
       stroke-opacity="1"
       stroke-miterlimit="4"
       d="m 248.12955,159.45532 c 0,0.17087 -0.13918,0.30868 -0.30868,0.30868 -0.17088,0 -0.30868,-0.13781 -0.30868,-0.30868 0,-0.17088 0.14194,-0.30868 0.30868,-0.30868 0.1695,0 0.30868,0.1378 0.30868,0.30868 z m 0,0"
       id="path13322" /><path
       fill-rule="evenodd"
       fill="#5000c8"
       fill-opacity="1"
       stroke-width="0.0823528"
       stroke-linecap="butt"
       stroke-linejoin="miter"
       stroke="#5000c8"
       stroke-opacity="1"
       stroke-miterlimit="4"
       d="m 249.59027,159.45532 c 0,0.17087 -0.1378,0.30868 -0.30868,0.30868 -0.17088,0 -0.30868,-0.13781 -0.30868,-0.30868 0,-0.17088 0.14194,-0.30868 0.30868,-0.30868 0.17088,0 0.30868,0.1378 0.30868,0.30868 z m 0,0"
       id="path13324" /></g></svg>
