<?xml version="1.0" encoding="UTF-8" standalone="no"?>
<!-- Created with Inkscape (http://www.inkscape.org/) -->

<svg
   width="4.7497711mm"
   height="4.8569336mm"
   viewBox="0 0 4.7497711 4.8569336"
   version="1.1"
   id="svg4110"
   xml:space="preserve"
   xmlns:inkscape="http://www.inkscape.org/namespaces/inkscape"
   xmlns:sodipodi="http://sodipodi.sourceforge.net/DTD/sodipodi-0.dtd"
   xmlns="http://www.w3.org/2000/svg"
   xmlns:svg="http://www.w3.org/2000/svg"><sodipodi:namedview
     id="namedview4112"
     pagecolor="#ffffff"
     bordercolor="#000000"
     borderopacity="0.25"
     inkscape:showpageshadow="2"
     inkscape:pageopacity="0.0"
     inkscape:pagecheckerboard="0"
     inkscape:deskcolor="#d1d1d1"
     inkscape:document-units="mm"
     showgrid="false"
     inkscape:zoom="0.2102413"
     inkscape:cx="244.95663"
     inkscape:cy="561.25984"
     inkscape:window-width="1728"
     inkscape:window-height="1080"
     inkscape:window-x="0"
     inkscape:window-y="37"
     inkscape:window-maximized="0"
     inkscape:current-layer="layer1" /><defs
     id="defs4107" /><g
     inkscape:label="Layer 1"
     inkscape:groupmode="layer"
     id="layer1"
     transform="translate(-247.51511,-162.27476)"><path
       fill="none"
       stroke-width="0.619368"
       stroke-linecap="round"
       stroke-linejoin="round"
       stroke="#000000"
       stroke-opacity="1"
       stroke-miterlimit="4"
       d="m 251.16812,162.65099 -0.0758,4.12998 -2.49838,-4.15617 v 4.13825 m 3.32107,-4.11206 H 250.435 m -2.57004,4.11206 h 1.46209"
       id="path12934" /><path
       fill-rule="evenodd"
       fill="#000000"
       fill-opacity="1"
       stroke-width="0.082353"
       stroke-linecap="butt"
       stroke-linejoin="miter"
       stroke="#000000"
       stroke-opacity="1"
       stroke-miterlimit="4"
       d="m 251.16123,162.95967 c -0.16949,-0.003 -0.30592,-0.14332 -0.30316,-0.3142 0.004,-0.16949 0.14469,-0.30592 0.31557,-0.30316 0.1695,0.003 0.30592,0.14745 0.30316,0.31419 -0.004,0.17088 -0.14469,0.3073 -0.31557,0.30317 z m 0,0"
       id="path12936" /><path
       fill-rule="evenodd"
       fill="#000000"
       fill-opacity="1"
       stroke-width="0.082353"
       stroke-linecap="butt"
       stroke-linejoin="miter"
       stroke="#000000"
       stroke-opacity="1"
       stroke-miterlimit="4"
       d="m 250.79467,166.86089 c -0.0441,-0.16398 0.0538,-0.33348 0.21773,-0.37758 0.16537,-0.0441 0.33487,0.0538 0.37897,0.21773 0.0441,0.16537 -0.0579,0.33487 -0.21911,0.37896 -0.16399,0.0441 -0.33349,-0.0537 -0.37759,-0.21911 z m 0,0"
       id="path12938" /><path
       fill-rule="evenodd"
       fill="#000000"
       fill-opacity="1"
       stroke-width="0.0823529"
       stroke-linecap="butt"
       stroke-linejoin="miter"
       stroke="#000000"
       stroke-opacity="1"
       stroke-miterlimit="4"
       d="m 248.29629,162.70749 c -0.0455,-0.16399 0.051,-0.33487 0.21498,-0.38034 0.16398,-0.0455 0.33486,0.051 0.38034,0.21497 0.0455,0.16399 -0.0537,0.33624 -0.21498,0.38034 -0.16399,0.0455 -0.33486,-0.051 -0.38034,-0.21497 z m 0,0"
       id="path12940" /><path
       fill-rule="evenodd"
       fill="#000000"
       fill-opacity="1"
       stroke-width="0.0823528"
       stroke-linecap="butt"
       stroke-linejoin="miter"
       stroke="#000000"
       stroke-opacity="1"
       stroke-miterlimit="4"
       d="m 248.59395,167.07173 c -0.17088,0 -0.30868,-0.13918 -0.30868,-0.30868 0,-0.17087 0.1378,-0.30868 0.30868,-0.30868 0.17087,0 0.30868,0.14194 0.30868,0.30868 0,0.1695 -0.13781,0.30868 -0.30868,0.30868 z m 0,0"
       id="path12942" /><path
       fill-rule="evenodd"
       fill="#000000"
       fill-opacity="1"
       stroke-width="0.0823528"
       stroke-linecap="butt"
       stroke-linejoin="miter"
       stroke="#000000"
       stroke-opacity="1"
       stroke-miterlimit="4"
       d="m 251.60634,162.65099 c 0,-0.1695 0.1378,-0.30868 0.30868,-0.30868 0.17088,0 0.30868,0.13918 0.30868,0.30868 0,0.17088 -0.14194,0.30868 -0.30868,0.30868 -0.17088,0 -0.30868,-0.1378 -0.30868,-0.30868 z m 0,0"
       id="path12944" /><path
       fill-rule="evenodd"
       fill="#000000"
       fill-opacity="1"
       stroke-width="0.0823528"
       stroke-linecap="butt"
       stroke-linejoin="miter"
       stroke="#000000"
       stroke-opacity="1"
       stroke-miterlimit="4"
       d="m 250.12633,162.65099 c 0,-0.1695 0.1378,-0.30868 0.30868,-0.30868 0.17087,0 0.30868,0.13918 0.30868,0.30868 0,0.17088 -0.14194,0.30868 -0.30868,0.30868 -0.17088,0 -0.30868,-0.1378 -0.30868,-0.30868 z m 0,0"
       id="path12946" /><path
       fill-rule="evenodd"
       fill="#000000"
       fill-opacity="1"
       stroke-width="0.0823528"
       stroke-linecap="butt"
       stroke-linejoin="miter"
       stroke="#000000"
       stroke-opacity="1"
       stroke-miterlimit="4"
       d="m 248.17502,166.76305 c 0,0.1695 -0.13918,0.30868 -0.31005,0.30868 -0.1695,0 -0.30868,-0.13918 -0.30868,-0.30868 0,-0.17087 0.14193,-0.30868 0.30868,-0.30868 0.17087,0 0.31005,0.13781 0.31005,0.30868 z m 0,0"
       id="path12948" /><path
       fill-rule="evenodd"
       fill="#000000"
       fill-opacity="1"
       stroke-width="0.0823528"
       stroke-linecap="butt"
       stroke-linejoin="miter"
       stroke="#000000"
       stroke-opacity="1"
       stroke-miterlimit="4"
       d="m 249.63575,166.76305 c 0,0.1695 -0.13919,0.30868 -0.30869,0.30868 -0.17087,0 -0.30868,-0.13918 -0.30868,-0.30868 0,-0.17087 0.14194,-0.30868 0.30868,-0.30868 0.1695,0 0.30869,0.13781 0.30869,0.30868 z m 0,0"
       id="path12950" /><path
       fill-rule="evenodd"
       fill="#5000c8"
       fill-opacity="1"
       stroke-width="0.082353"
       stroke-linecap="butt"
       stroke-linejoin="miter"
       stroke="#5000c8"
       stroke-opacity="1"
       stroke-miterlimit="4"
       d="m 251.16123,162.95967 c -0.16949,-0.003 -0.30592,-0.14332 -0.30316,-0.3142 0.004,-0.16949 0.14469,-0.30592 0.31557,-0.30316 0.1695,0.003 0.30592,0.14745 0.30316,0.31419 -0.004,0.17088 -0.14469,0.3073 -0.31557,0.30317 z m 0,0"
       id="path13326" /><path
       fill-rule="evenodd"
       fill="#5000c8"
       fill-opacity="1"
       stroke-width="0.082353"
       stroke-linecap="butt"
       stroke-linejoin="miter"
       stroke="#5000c8"
       stroke-opacity="1"
       stroke-miterlimit="4"
       d="m 250.79467,166.86089 c -0.0441,-0.16398 0.0538,-0.33348 0.21773,-0.37758 0.16537,-0.0441 0.33487,0.0538 0.37897,0.21773 0.0441,0.16537 -0.0579,0.33487 -0.21911,0.37896 -0.16399,0.0441 -0.33349,-0.0537 -0.37759,-0.21911 z m 0,0"
       id="path13328" /><path
       fill-rule="evenodd"
       fill="#5000c8"
       fill-opacity="1"
       stroke-width="0.0823529"
       stroke-linecap="butt"
       stroke-linejoin="miter"
       stroke="#5000c8"
       stroke-opacity="1"
       stroke-miterlimit="4"
       d="m 248.29629,162.70749 c -0.0455,-0.16399 0.051,-0.33487 0.21498,-0.38034 0.16398,-0.0455 0.33486,0.051 0.38034,0.21497 0.0455,0.16399 -0.0537,0.33624 -0.21498,0.38034 -0.16399,0.0455 -0.33486,-0.051 -0.38034,-0.21497 z m 0,0"
       id="path13330" /><path
       fill-rule="evenodd"
       fill="#5000c8"
       fill-opacity="1"
       stroke-width="0.0823528"
       stroke-linecap="butt"
       stroke-linejoin="miter"
       stroke="#5000c8"
       stroke-opacity="1"
       stroke-miterlimit="4"
       d="m 248.59395,167.07173 c -0.17088,0 -0.30868,-0.13918 -0.30868,-0.30868 0,-0.17087 0.1378,-0.30868 0.30868,-0.30868 0.17087,0 0.30868,0.14194 0.30868,0.30868 0,0.1695 -0.13781,0.30868 -0.30868,0.30868 z m 0,0"
       id="path13332" /><path
       fill-rule="evenodd"
       fill="#5000c8"
       fill-opacity="1"
       stroke-width="0.0823528"
       stroke-linecap="butt"
       stroke-linejoin="miter"
       stroke="#5000c8"
       stroke-opacity="1"
       stroke-miterlimit="4"
       d="m 251.60634,162.65099 c 0,-0.1695 0.1378,-0.30868 0.30868,-0.30868 0.17088,0 0.30868,0.13918 0.30868,0.30868 0,0.17088 -0.14194,0.30868 -0.30868,0.30868 -0.17088,0 -0.30868,-0.1378 -0.30868,-0.30868 z m 0,0"
       id="path13334" /><path
       fill-rule="evenodd"
       fill="#5000c8"
       fill-opacity="1"
       stroke-width="0.0823528"
       stroke-linecap="butt"
       stroke-linejoin="miter"
       stroke="#5000c8"
       stroke-opacity="1"
       stroke-miterlimit="4"
       d="m 250.12633,162.65099 c 0,-0.1695 0.1378,-0.30868 0.30868,-0.30868 0.17087,0 0.30868,0.13918 0.30868,0.30868 0,0.17088 -0.14194,0.30868 -0.30868,0.30868 -0.17088,0 -0.30868,-0.1378 -0.30868,-0.30868 z m 0,0"
       id="path13336" /><path
       fill-rule="evenodd"
       fill="#5000c8"
       fill-opacity="1"
       stroke-width="0.0823528"
       stroke-linecap="butt"
       stroke-linejoin="miter"
       stroke="#5000c8"
       stroke-opacity="1"
       stroke-miterlimit="4"
       d="m 248.17502,166.76305 c 0,0.1695 -0.13918,0.30868 -0.31005,0.30868 -0.1695,0 -0.30868,-0.13918 -0.30868,-0.30868 0,-0.17087 0.14193,-0.30868 0.30868,-0.30868 0.17087,0 0.31005,0.13781 0.31005,0.30868 z m 0,0"
       id="path13338" /><path
       fill-rule="evenodd"
       fill="#5000c8"
       fill-opacity="1"
       stroke-width="0.0823528"
       stroke-linecap="butt"
       stroke-linejoin="miter"
       stroke="#5000c8"
       stroke-opacity="1"
       stroke-miterlimit="4"
       d="m 249.63575,166.76305 c 0,0.1695 -0.13919,0.30868 -0.30869,0.30868 -0.17087,0 -0.30868,-0.13918 -0.30868,-0.30868 0,-0.17087 0.14194,-0.30868 0.30868,-0.30868 0.1695,0 0.30869,0.13781 0.30869,0.30868 z m 0,0"
       id="path13340" /></g></svg>
