<?xml version="1.0" encoding="UTF-8" standalone="no"?>
<!-- Created with Inkscape (http://www.inkscape.org/) -->

<svg
   width="3.5710602mm"
   height="4.7493591mm"
   viewBox="0 0 3.5710602 4.7493591"
   version="1.1"
   id="svg4110"
   xml:space="preserve"
   xmlns:inkscape="http://www.inkscape.org/namespaces/inkscape"
   xmlns:sodipodi="http://sodipodi.sourceforge.net/DTD/sodipodi-0.dtd"
   xmlns="http://www.w3.org/2000/svg"
   xmlns:svg="http://www.w3.org/2000/svg"><sodipodi:namedview
     id="namedview4112"
     pagecolor="#ffffff"
     bordercolor="#000000"
     borderopacity="0.25"
     inkscape:showpageshadow="2"
     inkscape:pageopacity="0.0"
     inkscape:pagecheckerboard="0"
     inkscape:deskcolor="#d1d1d1"
     inkscape:document-units="mm"
     showgrid="false"
     inkscape:zoom="0.2102413"
     inkscape:cx="244.95663"
     inkscape:cy="561.25984"
     inkscape:window-width="1728"
     inkscape:window-height="1080"
     inkscape:window-x="0"
     inkscape:window-y="37"
     inkscape:window-maximized="0"
     inkscape:current-layer="layer1" /><defs
     id="defs4107" /><g
     inkscape:label="Layer 1"
     inkscape:groupmode="layer"
     id="layer1"
     transform="translate(-248.10468,-169.66099)"><path
       fill="none"
       stroke-width="0.619368"
       stroke-linecap="round"
       stroke-linejoin="round"
       stroke="#000000"
       stroke-opacity="1"
       stroke-miterlimit="4"
       d="m 251.31144,171.06667 0.0152,1.9513 -0.86128,1.02801 -1.11069,0.0152 -0.88471,-1.04317 -0.0152,-1.96508 0.79512,-1.03629 1.23748,-0.007 z m 0,0"
       id="path12952" /><path
       fill-rule="evenodd"
       fill="#000000"
       fill-opacity="1"
       stroke-width="0.0823528"
       stroke-linecap="butt"
       stroke-linejoin="miter"
       stroke="#000000"
       stroke-opacity="1"
       stroke-miterlimit="4"
       d="m 251.31282,171.37673 c -0.1695,-1.1e-4 -0.30868,-0.13643 -0.31006,-0.30731 -0.001,-0.17087 0.13505,-0.31005 0.30592,-0.31143 0.17088,-0.001 0.31006,0.14055 0.31144,0.3073 0.001,0.1695 -0.13642,0.31006 -0.3073,0.31144 z m 0,0"
       id="path12954" /><path
       fill-rule="evenodd"
       fill="#000000"
       fill-opacity="1"
       stroke-width="0.082353"
       stroke-linecap="butt"
       stroke-linejoin="miter"
       stroke="#000000"
       stroke-opacity="1"
       stroke-miterlimit="4"
       d="m 251.22186,173.30874 c -0.16123,-0.0579 -0.24391,-0.23427 -0.18603,-0.3955 0.0566,-0.15982 0.23427,-0.24391 0.39412,-0.18604 0.16123,0.0579 0.24253,0.23841 0.18741,0.3955 -0.0578,0.15988 -0.23564,0.24392 -0.3955,0.18604 z m 0,0"
       id="path12956" /><path
       fill-rule="evenodd"
       fill="#000000"
       fill-opacity="1"
       stroke-width="0.082353"
       stroke-linecap="butt"
       stroke-linejoin="miter"
       stroke="#000000"
       stroke-opacity="1"
       stroke-miterlimit="4"
       d="m 250.18558,174.17828 c -0.073,-0.15434 -0.007,-0.339 0.14745,-0.41204 0.15296,-0.073 0.33762,-0.007 0.41066,0.14746 0.073,0.15296 0.004,0.33899 -0.14607,0.41065 -0.15435,0.073 -0.33762,0.008 -0.41204,-0.14607 z m 0,0"
       id="path12958" /><path
       fill-rule="evenodd"
       fill="#000000"
       fill-opacity="1"
       stroke-width="0.0823529"
       stroke-linecap="butt"
       stroke-linejoin="miter"
       stroke="#000000"
       stroke-opacity="1"
       stroke-miterlimit="4"
       d="m 249.0735,173.93299 c 0.0704,-0.15569 0.25357,-0.22325 0.40928,-0.15297 0.15434,0.0703 0.22324,0.25357 0.15297,0.4079 -0.0704,0.15569 -0.25632,0.22325 -0.40928,0.15434 -0.15434,-0.0703 -0.22325,-0.25356 -0.15297,-0.40927 z m 0,0"
       id="path12960" /><path
       fill-rule="evenodd"
       fill="#000000"
       fill-opacity="1"
       stroke-width="0.0823531"
       stroke-linecap="butt"
       stroke-linejoin="miter"
       stroke="#000000"
       stroke-opacity="1"
       stroke-miterlimit="4"
       d="m 248.36244,172.72858 c 0.15985,-0.0593 0.33762,0.0221 0.39687,0.1819 0.0593,0.15986 -0.0221,0.33762 -0.1819,0.39688 -0.15985,0.0593 -0.339,-0.0262 -0.39687,-0.1819 -0.0593,-0.15986 0.022,-0.33762 0.1819,-0.39688 z m 0,0"
       id="path12962" /><path
       fill-rule="evenodd"
       fill="#000000"
       fill-opacity="1"
       stroke-width="0.082353"
       stroke-linecap="butt"
       stroke-linejoin="miter"
       stroke="#000000"
       stroke-opacity="1"
       stroke-miterlimit="4"
       d="m 248.55261,170.75936 c 0.16123,0.0538 0.24942,0.23014 0.1943,0.39137 -0.0537,0.16123 -0.22875,0.24804 -0.38998,0.1943 -0.1626,-0.0538 -0.24805,-0.23289 -0.19568,-0.39136 0.0553,-0.16119 0.23013,-0.24805 0.39136,-0.19431 z m 0,0"
       id="path12964" /><path
       fill-rule="evenodd"
       fill="#000000"
       fill-opacity="1"
       stroke-width="0.0823531"
       stroke-linecap="butt"
       stroke-linejoin="miter"
       stroke="#000000"
       stroke-opacity="1"
       stroke-miterlimit="4"
       d="m 249.52688,169.88018 c 0.0757,0.15163 0.0124,0.33762 -0.13918,0.41341 -0.15297,0.0758 -0.339,0.0138 -0.41479,-0.13918 -0.0758,-0.15297 -0.01,-0.34038 0.13918,-0.41341 0.15297,-0.0758 0.339,-0.0138 0.41479,0.13918 z m 0,0"
       id="path12966" /><path
       fill-rule="evenodd"
       fill="#000000"
       fill-opacity="1"
       stroke-width="0.082353"
       stroke-linecap="butt"
       stroke-linejoin="miter"
       stroke="#000000"
       stroke-opacity="1"
       stroke-miterlimit="4"
       d="m 250.76574,170.14476 c -0.0744,0.15296 -0.25907,0.21773 -0.41341,0.14332 -0.15297,-0.0744 -0.21636,-0.25907 -0.14194,-0.41342 0.0744,-0.15296 0.26182,-0.21497 0.41203,-0.14193 0.15296,0.0744 0.21773,0.25907 0.14332,0.41203 z m 0,0"
       id="path12968" /><path
       fill-rule="evenodd"
       fill="#000000"
       fill-opacity="1"
       stroke-width="0.0823531"
       stroke-linecap="butt"
       stroke-linejoin="miter"
       stroke="#000000"
       stroke-opacity="1"
       stroke-miterlimit="4"
       d="m 251.50023,171.31058 c -0.1337,0.10469 -0.32797,0.0813 -0.43271,-0.0537 -0.10468,-0.13371 -0.0813,-0.32798 0.0538,-0.43271 0.13505,-0.10473 0.33073,-0.0785 0.43408,0.0538 0.10469,0.1337 0.0799,0.32797 -0.0551,0.4327 z m 0,0"
       id="path12970" /><path
       fill-rule="evenodd"
       fill="#5000c8"
       fill-opacity="1"
       stroke-width="0.0823528"
       stroke-linecap="butt"
       stroke-linejoin="miter"
       stroke="#5000c8"
       stroke-opacity="1"
       stroke-miterlimit="4"
       d="m 251.31282,171.37673 c -0.1695,-1.1e-4 -0.30868,-0.13643 -0.31006,-0.30731 -0.001,-0.17087 0.13505,-0.31005 0.30592,-0.31143 0.17088,-0.001 0.31006,0.14055 0.31144,0.3073 0.001,0.1695 -0.13642,0.31006 -0.3073,0.31144 z m 0,0"
       id="path13342" /><path
       fill-rule="evenodd"
       fill="#5000c8"
       fill-opacity="1"
       stroke-width="0.082353"
       stroke-linecap="butt"
       stroke-linejoin="miter"
       stroke="#5000c8"
       stroke-opacity="1"
       stroke-miterlimit="4"
       d="m 251.22186,173.30874 c -0.16123,-0.0579 -0.24391,-0.23427 -0.18603,-0.3955 0.0566,-0.15982 0.23427,-0.24391 0.39412,-0.18604 0.16123,0.0579 0.24253,0.23841 0.18741,0.3955 -0.0578,0.15988 -0.23564,0.24392 -0.3955,0.18604 z m 0,0"
       id="path13344" /><path
       fill-rule="evenodd"
       fill="#5000c8"
       fill-opacity="1"
       stroke-width="0.082353"
       stroke-linecap="butt"
       stroke-linejoin="miter"
       stroke="#5000c8"
       stroke-opacity="1"
       stroke-miterlimit="4"
       d="m 250.18558,174.17828 c -0.073,-0.15434 -0.007,-0.339 0.14745,-0.41204 0.15296,-0.073 0.33762,-0.007 0.41066,0.14746 0.073,0.15296 0.004,0.33899 -0.14607,0.41065 -0.15435,0.073 -0.33762,0.008 -0.41204,-0.14607 z m 0,0"
       id="path13346" /><path
       fill-rule="evenodd"
       fill="#5000c8"
       fill-opacity="1"
       stroke-width="0.0823529"
       stroke-linecap="butt"
       stroke-linejoin="miter"
       stroke="#5000c8"
       stroke-opacity="1"
       stroke-miterlimit="4"
       d="m 249.0735,173.93299 c 0.0704,-0.15569 0.25357,-0.22325 0.40928,-0.15297 0.15434,0.0703 0.22324,0.25357 0.15297,0.4079 -0.0704,0.15569 -0.25632,0.22325 -0.40928,0.15434 -0.15434,-0.0703 -0.22325,-0.25356 -0.15297,-0.40927 z m 0,0"
       id="path13348" /><path
       fill-rule="evenodd"
       fill="#5000c8"
       fill-opacity="1"
       stroke-width="0.0823531"
       stroke-linecap="butt"
       stroke-linejoin="miter"
       stroke="#5000c8"
       stroke-opacity="1"
       stroke-miterlimit="4"
       d="m 248.36244,172.72858 c 0.15985,-0.0593 0.33762,0.0221 0.39687,0.1819 0.0593,0.15986 -0.0221,0.33762 -0.1819,0.39688 -0.15985,0.0593 -0.339,-0.0262 -0.39687,-0.1819 -0.0593,-0.15986 0.022,-0.33762 0.1819,-0.39688 z m 0,0"
       id="path13350" /><path
       fill-rule="evenodd"
       fill="#5000c8"
       fill-opacity="1"
       stroke-width="0.082353"
       stroke-linecap="butt"
       stroke-linejoin="miter"
       stroke="#5000c8"
       stroke-opacity="1"
       stroke-miterlimit="4"
       d="m 248.55261,170.75936 c 0.16123,0.0538 0.24942,0.23014 0.1943,0.39137 -0.0537,0.16123 -0.22875,0.24804 -0.38998,0.1943 -0.1626,-0.0538 -0.24805,-0.23289 -0.19568,-0.39136 0.0553,-0.16119 0.23013,-0.24805 0.39136,-0.19431 z m 0,0"
       id="path13352" /><path
       fill-rule="evenodd"
       fill="#5000c8"
       fill-opacity="1"
       stroke-width="0.0823531"
       stroke-linecap="butt"
       stroke-linejoin="miter"
       stroke="#5000c8"
       stroke-opacity="1"
       stroke-miterlimit="4"
       d="m 249.52688,169.88018 c 0.0757,0.15163 0.0124,0.33762 -0.13918,0.41341 -0.15297,0.0758 -0.339,0.0138 -0.41479,-0.13918 -0.0758,-0.15297 -0.01,-0.34038 0.13918,-0.41341 0.15297,-0.0758 0.339,-0.0138 0.41479,0.13918 z m 0,0"
       id="path13354" /><path
       fill-rule="evenodd"
       fill="#5000c8"
       fill-opacity="1"
       stroke-width="0.082353"
       stroke-linecap="butt"
       stroke-linejoin="miter"
       stroke="#5000c8"
       stroke-opacity="1"
       stroke-miterlimit="4"
       d="m 250.76574,170.14476 c -0.0744,0.15296 -0.25907,0.21773 -0.41341,0.14332 -0.15297,-0.0744 -0.21636,-0.25907 -0.14194,-0.41342 0.0744,-0.15296 0.26182,-0.21497 0.41203,-0.14193 0.15296,0.0744 0.21773,0.25907 0.14332,0.41203 z m 0,0"
       id="path13356" /><path
       fill-rule="evenodd"
       fill="#5000c8"
       fill-opacity="1"
       stroke-width="0.0823531"
       stroke-linecap="butt"
       stroke-linejoin="miter"
       stroke="#5000c8"
       stroke-opacity="1"
       stroke-miterlimit="4"
       d="m 251.50023,171.31058 c -0.1337,0.10469 -0.32797,0.0813 -0.43271,-0.0537 -0.10468,-0.13371 -0.0813,-0.32798 0.0538,-0.43271 0.13505,-0.10473 0.33073,-0.0785 0.43408,0.0538 0.10469,0.1337 0.0799,0.32797 -0.0551,0.4327 z m 0,0"
       id="path13358" /></g></svg>
