<?xml version="1.0" encoding="UTF-8" standalone="no"?>
<!-- Created with Inkscape (http://www.inkscape.org/) -->

<svg
   width="3.7920532mm"
   height="4.7660065mm"
   viewBox="0 0 3.7920532 4.7660065"
   version="1.1"
   id="svg4110"
   xml:space="preserve"
   xmlns:inkscape="http://www.inkscape.org/namespaces/inkscape"
   xmlns:sodipodi="http://sodipodi.sourceforge.net/DTD/sodipodi-0.dtd"
   xmlns="http://www.w3.org/2000/svg"
   xmlns:svg="http://www.w3.org/2000/svg"><sodipodi:namedview
     id="namedview4112"
     pagecolor="#ffffff"
     bordercolor="#000000"
     borderopacity="0.25"
     inkscape:showpageshadow="2"
     inkscape:pageopacity="0.0"
     inkscape:pagecheckerboard="0"
     inkscape:deskcolor="#d1d1d1"
     inkscape:document-units="mm"
     showgrid="false"
     inkscape:zoom="0.2102413"
     inkscape:cx="244.95663"
     inkscape:cy="561.25984"
     inkscape:window-width="1728"
     inkscape:window-height="1080"
     inkscape:window-x="0"
     inkscape:window-y="37"
     inkscape:window-maximized="0"
     inkscape:current-layer="layer1" /><defs
     id="defs4107" /><g
     inkscape:label="Layer 1"
     inkscape:groupmode="layer"
     id="layer1"
     transform="translate(-247.74386,-176.94447)"><path
       fill="none"
       stroke-width="0.619368"
       stroke-linecap="round"
       stroke-linejoin="round"
       stroke="#000000"
       stroke-opacity="1"
       stroke-miterlimit="4"
       d="m 248.81443,181.36061 v -4.06659 h 1.64263 l 0.72898,1.18511 -0.74276,1.13275 h -1.62885 m -0.72071,1.74873 h 1.45659"
       id="path12972" /><path
       fill-rule="evenodd"
       fill="#000000"
       fill-opacity="1"
       stroke-width="0.0823528"
       stroke-linecap="butt"
       stroke-linejoin="miter"
       stroke="#000000"
       stroke-opacity="1"
       stroke-miterlimit="4"
       d="m 248.81443,181.05193 c 0.17088,0 0.30868,0.1378 0.30868,0.30868 0,0.17088 -0.1378,0.30868 -0.30868,0.30868 -0.17087,0 -0.30868,-0.14194 -0.30868,-0.30868 0,-0.17088 0.13781,-0.30868 0.30868,-0.30868 z m 0,0"
       id="path12974" /><path
       fill-rule="evenodd"
       fill="#000000"
       fill-opacity="1"
       stroke-width="0.0823529"
       stroke-linecap="butt"
       stroke-linejoin="miter"
       stroke="#000000"
       stroke-opacity="1"
       stroke-miterlimit="4"
       d="m 249.03354,177.07629 c 0.11989,0.11989 0.11989,0.31557 0,0.43684 -0.12128,0.11987 -0.31695,0.11989 -0.43683,0 -0.12127,-0.12127 -0.11852,-0.31971 0,-0.43684 0.11987,-0.12128 0.31557,-0.12126 0.43683,0 z m 0,0"
       id="path12976" /><path
       fill-rule="evenodd"
       fill="#000000"
       fill-opacity="1"
       stroke-width="0.082353"
       stroke-linecap="butt"
       stroke-linejoin="miter"
       stroke="#000000"
       stroke-opacity="1"
       stroke-miterlimit="4"
       d="m 250.72715,177.44561 c -0.0828,0.14877 -0.27147,0.20119 -0.4203,0.11851 -0.14877,-0.0842 -0.20257,-0.27148 -0.11851,-0.42031 0.0828,-0.14877 0.27423,-0.19981 0.4203,-0.11851 0.14878,0.0828 0.20119,0.27148 0.11851,0.42031 z m 0,0"
       id="path12978" /><path
       fill-rule="evenodd"
       fill="#000000"
       fill-opacity="1"
       stroke-width="0.0823531"
       stroke-linecap="butt"
       stroke-linejoin="miter"
       stroke="#000000"
       stroke-opacity="1"
       stroke-miterlimit="4"
       d="m 251.18053,178.78782 c -0.17088,-0.001 -0.30593,-0.14194 -0.30455,-0.31282 0.003,-0.17087 0.14332,-0.3073 0.31419,-0.30455 0.17088,0.003 0.30593,0.14746 0.30455,0.3142 -0.003,0.1695 -0.14332,0.30592 -0.31419,0.30317 z m 0,0"
       id="path12980" /><path
       fill-rule="evenodd"
       fill="#000000"
       fill-opacity="1"
       stroke-width="0.082353"
       stroke-linecap="butt"
       stroke-linejoin="miter"
       stroke="#000000"
       stroke-opacity="1"
       stroke-miterlimit="4"
       d="m 250.17042,179.75933 c -0.0798,-0.15027 -0.0248,-0.33762 0.12541,-0.41892 0.15027,-0.0798 0.33762,-0.0248 0.41892,0.1254 0.0813,0.15021 0.022,0.339 -0.1254,0.41892 -0.15028,0.0798 -0.33762,0.0248 -0.41893,-0.1254 z m 0,0"
       id="path12982" /><path
       fill-rule="evenodd"
       fill="#000000"
       fill-opacity="1"
       stroke-width="0.0823528"
       stroke-linecap="butt"
       stroke-linejoin="miter"
       stroke="#000000"
       stroke-opacity="1"
       stroke-miterlimit="4"
       d="m 248.50575,179.61188 c 0,-0.1695 0.13781,-0.30868 0.30868,-0.30868 0.17088,0 0.30868,0.13918 0.30868,0.30868 0,0.17088 -0.14193,0.31006 -0.30868,0.31006 -0.17087,0 -0.30868,-0.13918 -0.30868,-0.31006 z m 0,0"
       id="path12984" /><path
       fill-rule="evenodd"
       fill="#000000"
       fill-opacity="1"
       stroke-width="0.0823528"
       stroke-linecap="butt"
       stroke-linejoin="miter"
       stroke="#000000"
       stroke-opacity="1"
       stroke-miterlimit="4"
       d="m 248.4024,181.36061 c 0,0.17088 -0.1378,0.30868 -0.30868,0.30868 -0.17088,0 -0.30868,-0.1378 -0.30868,-0.30868 0,-0.17088 0.14194,-0.30868 0.30868,-0.30868 0.17088,0 0.30868,0.1378 0.30868,0.30868 z m 0,0"
       id="path12986" /><path
       fill-rule="evenodd"
       fill="#000000"
       fill-opacity="1"
       stroke-width="0.0823528"
       stroke-linecap="butt"
       stroke-linejoin="miter"
       stroke="#000000"
       stroke-opacity="1"
       stroke-miterlimit="4"
       d="m 249.85899,181.36061 c 0,0.17088 -0.13918,0.30868 -0.30868,0.30868 -0.17088,0 -0.30868,-0.1378 -0.30868,-0.30868 0,-0.17088 0.14193,-0.30868 0.30868,-0.30868 0.1695,0 0.30868,0.1378 0.30868,0.30868 z m 0,0"
       id="path12988" /><path
       fill-rule="evenodd"
       fill="#5000c8"
       fill-opacity="1"
       stroke-width="0.0823528"
       stroke-linecap="butt"
       stroke-linejoin="miter"
       stroke="#5000c8"
       stroke-opacity="1"
       stroke-miterlimit="4"
       d="m 248.81443,181.05193 c 0.17088,0 0.30868,0.1378 0.30868,0.30868 0,0.17088 -0.1378,0.30868 -0.30868,0.30868 -0.17087,0 -0.30868,-0.14194 -0.30868,-0.30868 0,-0.17088 0.13781,-0.30868 0.30868,-0.30868 z m 0,0"
       id="path13360" /><path
       fill-rule="evenodd"
       fill="#5000c8"
       fill-opacity="1"
       stroke-width="0.0823529"
       stroke-linecap="butt"
       stroke-linejoin="miter"
       stroke="#5000c8"
       stroke-opacity="1"
       stroke-miterlimit="4"
       d="m 249.03354,177.07629 c 0.11989,0.11989 0.11989,0.31557 0,0.43684 -0.12128,0.11987 -0.31695,0.11989 -0.43683,0 -0.12127,-0.12127 -0.11852,-0.31971 0,-0.43684 0.11987,-0.12128 0.31557,-0.12126 0.43683,0 z m 0,0"
       id="path13362" /><path
       fill-rule="evenodd"
       fill="#5000c8"
       fill-opacity="1"
       stroke-width="0.082353"
       stroke-linecap="butt"
       stroke-linejoin="miter"
       stroke="#5000c8"
       stroke-opacity="1"
       stroke-miterlimit="4"
       d="m 250.72715,177.44561 c -0.0828,0.14877 -0.27147,0.20119 -0.4203,0.11851 -0.14877,-0.0842 -0.20257,-0.27148 -0.11851,-0.42031 0.0828,-0.14877 0.27423,-0.19981 0.4203,-0.11851 0.14878,0.0828 0.20119,0.27148 0.11851,0.42031 z m 0,0"
       id="path13364" /><path
       fill-rule="evenodd"
       fill="#5000c8"
       fill-opacity="1"
       stroke-width="0.0823531"
       stroke-linecap="butt"
       stroke-linejoin="miter"
       stroke="#5000c8"
       stroke-opacity="1"
       stroke-miterlimit="4"
       d="m 251.18053,178.78782 c -0.17088,-0.001 -0.30593,-0.14194 -0.30455,-0.31282 0.003,-0.17087 0.14332,-0.3073 0.31419,-0.30455 0.17088,0.003 0.30593,0.14746 0.30455,0.3142 -0.003,0.1695 -0.14332,0.30592 -0.31419,0.30317 z m 0,0"
       id="path13366" /><path
       fill-rule="evenodd"
       fill="#5000c8"
       fill-opacity="1"
       stroke-width="0.082353"
       stroke-linecap="butt"
       stroke-linejoin="miter"
       stroke="#5000c8"
       stroke-opacity="1"
       stroke-miterlimit="4"
       d="m 250.17042,179.75933 c -0.0798,-0.15027 -0.0248,-0.33762 0.12541,-0.41892 0.15027,-0.0798 0.33762,-0.0248 0.41892,0.1254 0.0813,0.15021 0.022,0.339 -0.1254,0.41892 -0.15028,0.0798 -0.33762,0.0248 -0.41893,-0.1254 z m 0,0"
       id="path13368" /><path
       fill-rule="evenodd"
       fill="#5000c8"
       fill-opacity="1"
       stroke-width="0.0823528"
       stroke-linecap="butt"
       stroke-linejoin="miter"
       stroke="#5000c8"
       stroke-opacity="1"
       stroke-miterlimit="4"
       d="m 248.50575,179.61188 c 0,-0.1695 0.13781,-0.30868 0.30868,-0.30868 0.17088,0 0.30868,0.13918 0.30868,0.30868 0,0.17088 -0.14193,0.31006 -0.30868,0.31006 -0.17087,0 -0.30868,-0.13918 -0.30868,-0.31006 z m 0,0"
       id="path13370" /><path
       fill-rule="evenodd"
       fill="#5000c8"
       fill-opacity="1"
       stroke-width="0.0823528"
       stroke-linecap="butt"
       stroke-linejoin="miter"
       stroke="#5000c8"
       stroke-opacity="1"
       stroke-miterlimit="4"
       d="m 248.4024,181.36061 c 0,0.17088 -0.1378,0.30868 -0.30868,0.30868 -0.17088,0 -0.30868,-0.1378 -0.30868,-0.30868 0,-0.17088 0.14194,-0.30868 0.30868,-0.30868 0.17088,0 0.30868,0.1378 0.30868,0.30868 z m 0,0"
       id="path13372" /><path
       fill-rule="evenodd"
       fill="#5000c8"
       fill-opacity="1"
       stroke-width="0.0823528"
       stroke-linecap="butt"
       stroke-linejoin="miter"
       stroke="#5000c8"
       stroke-opacity="1"
       stroke-miterlimit="4"
       d="m 249.85899,181.36061 c 0,0.17088 -0.13918,0.30868 -0.30868,0.30868 -0.17088,0 -0.30868,-0.1378 -0.30868,-0.30868 0,-0.17088 0.14193,-0.30868 0.30868,-0.30868 0.1695,0 0.30868,0.1378 0.30868,0.30868 z m 0,0"
       id="path13374" /></g></svg>
