<?xml version="1.0" encoding="UTF-8" standalone="no"?>
<!-- Created with Inkscape (http://www.inkscape.org/) -->

<svg
   width="3.5126038mm"
   height="5.793045mm"
   viewBox="0 0 3.5126038 5.793045"
   version="1.1"
   id="svg4110"
   xml:space="preserve"
   xmlns:inkscape="http://www.inkscape.org/namespaces/inkscape"
   xmlns:sodipodi="http://sodipodi.sourceforge.net/DTD/sodipodi-0.dtd"
   xmlns="http://www.w3.org/2000/svg"
   xmlns:svg="http://www.w3.org/2000/svg"><sodipodi:namedview
     id="namedview4112"
     pagecolor="#ffffff"
     bordercolor="#000000"
     borderopacity="0.25"
     inkscape:showpageshadow="2"
     inkscape:pageopacity="0.0"
     inkscape:pagecheckerboard="0"
     inkscape:deskcolor="#d1d1d1"
     inkscape:document-units="mm"
     showgrid="false"
     inkscape:zoom="0.2102413"
     inkscape:cx="244.95663"
     inkscape:cy="561.25984"
     inkscape:window-width="1728"
     inkscape:window-height="1080"
     inkscape:window-x="0"
     inkscape:window-y="37"
     inkscape:window-maximized="0"
     inkscape:current-layer="layer1" /><defs
     id="defs4107" /><g
     inkscape:label="Layer 1"
     inkscape:groupmode="layer"
     id="layer1"
     transform="translate(-248.10468,-184.20036)"><path
       fill="none"
       stroke-width="0.619368"
       stroke-linecap="round"
       stroke-linejoin="round"
       stroke="#000000"
       stroke-opacity="1"
       stroke-miterlimit="4"
       d="m 249.99955,187.57281 0.96049,2.06981 m 0.29352,-4.07348 0.0138,1.9513 -0.80202,1.06523 -1.1107,0.0152 -0.8847,-1.04318 -0.0152,-1.96508 0.79513,-1.03629 1.23748,-0.007 z m 0,0"
       id="path12990" /><path
       fill-rule="evenodd"
       fill="#000000"
       fill-opacity="1"
       stroke-width="0.082353"
       stroke-linecap="butt"
       stroke-linejoin="miter"
       stroke="#000000"
       stroke-opacity="1"
       stroke-miterlimit="4"
       d="m 250.13046,187.85255 c -0.15567,0.0718 -0.339,0.004 -0.41065,-0.1502 -0.0717,-0.15434 -0.004,-0.33901 0.1502,-0.41066 0.15434,-0.0717 0.34037,0 0.41066,0.15021 0.0718,0.15566 0.004,0.33899 -0.15021,0.41065 z m 0,0"
       id="path12992" /><path
       fill-rule="evenodd"
       fill="#000000"
       fill-opacity="1"
       stroke-width="0.082353"
       stroke-linecap="butt"
       stroke-linejoin="miter"
       stroke="#000000"
       stroke-opacity="1"
       stroke-miterlimit="4"
       d="m 251.08957,189.92374 c -0.15434,0.0717 -0.33762,0.004 -0.40927,-0.15021 -0.0717,-0.15434 -0.004,-0.33899 0.1502,-0.41065 0.15434,-0.0717 0.34038,-10e-4 0.40928,0.15021 0.0729,0.1544 0.006,0.33899 -0.15021,0.41065 z m 0,0"
       id="path12994" /><path
       fill-rule="evenodd"
       fill="#000000"
       fill-opacity="1"
       stroke-width="0.0823528"
       stroke-linecap="butt"
       stroke-linejoin="miter"
       stroke="#000000"
       stroke-opacity="1"
       stroke-miterlimit="4"
       d="m 251.25494,185.87782 c -0.1695,10e-4 -0.31006,-0.13505 -0.31144,-0.30592 -0.001,-0.17088 0.13643,-0.31006 0.30731,-0.31144 0.1695,-0.001 0.31006,0.13918 0.31143,0.30593 0.001,0.17087 -0.13642,0.31005 -0.3073,0.31143 z m 0,0"
       id="path12996" /><path
       fill-rule="evenodd"
       fill="#000000"
       fill-opacity="1"
       stroke-width="0.0823529"
       stroke-linecap="butt"
       stroke-linejoin="miter"
       stroke="#000000"
       stroke-opacity="1"
       stroke-miterlimit="4"
       d="m 251.17088,187.81397 c -0.16126,-0.0537 -0.24942,-0.22876 -0.19568,-0.39137 0.0525,-0.1612 0.22738,-0.24942 0.38998,-0.19568 0.16126,0.0537 0.24805,0.23151 0.19568,0.38999 -0.0537,0.16125 -0.22737,0.24942 -0.38998,0.19706 z m 0,0"
       id="path12998" /><path
       fill-rule="evenodd"
       fill="#000000"
       fill-opacity="1"
       stroke-width="0.0823528"
       stroke-linecap="butt"
       stroke-linejoin="miter"
       stroke="#000000"
       stroke-opacity="1"
       stroke-miterlimit="4"
       d="m 250.18972,188.72485 c -0.0772,-0.15159 -0.0165,-0.33762 0.13642,-0.41479 0.15159,-0.0772 0.33762,-0.0165 0.41479,0.13505 0.0772,0.15296 0.0124,0.34037 -0.13642,0.41616 -0.15159,0.0772 -0.33762,0.0152 -0.41479,-0.13642 z m 0,0"
       id="path13000" /><path
       fill-rule="evenodd"
       fill="#000000"
       fill-opacity="1"
       stroke-width="0.0823529"
       stroke-linecap="butt"
       stroke-linejoin="miter"
       stroke="#000000"
       stroke-opacity="1"
       stroke-miterlimit="4"
       d="m 249.07351,188.47267 c 0.0703,-0.15569 0.25356,-0.22462 0.40927,-0.15297 0.15434,0.0703 0.22325,0.25356 0.15296,0.40791 -0.0703,0.15568 -0.25631,0.22324 -0.40927,0.15433 -0.15434,-0.0703 -0.22325,-0.25355 -0.15296,-0.40927 z m 0,0"
       id="path13002" /><path
       fill-rule="evenodd"
       fill="#000000"
       fill-opacity="1"
       stroke-width="0.0823531"
       stroke-linecap="butt"
       stroke-linejoin="miter"
       stroke="#000000"
       stroke-opacity="1"
       stroke-miterlimit="4"
       d="m 248.36244,187.26826 c 0.15985,-0.0592 0.33762,0.0221 0.39687,0.1819 0.0593,0.15986 -0.0221,0.33762 -0.1819,0.39688 -0.15985,0.0593 -0.339,-0.0262 -0.39687,-0.1819 -0.0593,-0.15985 0.022,-0.33762 0.1819,-0.39688 z m 0,0"
       id="path13004" /><path
       fill-rule="evenodd"
       fill="#000000"
       fill-opacity="1"
       stroke-width="0.082353"
       stroke-linecap="butt"
       stroke-linejoin="miter"
       stroke="#000000"
       stroke-opacity="1"
       stroke-miterlimit="4"
       d="m 248.55261,185.29905 c 0.16123,0.0537 0.24942,0.23013 0.1943,0.39136 -0.0537,0.16123 -0.22875,0.24805 -0.38998,0.1943 -0.16261,-0.0538 -0.24805,-0.23289 -0.19569,-0.39136 0.0553,-0.16119 0.23014,-0.24805 0.39137,-0.1943 z m 0,0"
       id="path13006" /><path
       fill-rule="evenodd"
       fill="#000000"
       fill-opacity="1"
       stroke-width="0.0823531"
       stroke-linecap="butt"
       stroke-linejoin="miter"
       stroke="#000000"
       stroke-opacity="1"
       stroke-miterlimit="4"
       d="m 249.52688,184.41986 c 0.0757,0.15163 0.0124,0.33762 -0.13918,0.41341 -0.15296,0.0758 -0.339,0.0138 -0.41479,-0.13918 -0.0758,-0.15296 -0.01,-0.34038 0.13918,-0.41341 0.15296,-0.0758 0.339,-0.0138 0.41479,0.13918 z m 0,0"
       id="path13008" /><path
       fill-rule="evenodd"
       fill="#000000"
       fill-opacity="1"
       stroke-width="0.0823529"
       stroke-linecap="butt"
       stroke-linejoin="miter"
       stroke="#000000"
       stroke-opacity="1"
       stroke-miterlimit="4"
       d="m 250.76436,184.6872 c -0.0758,0.15296 -0.26183,0.21497 -0.41341,0.13918 -0.15296,-0.0758 -0.21636,-0.26183 -0.14056,-0.41341 0.0758,-0.15297 0.26458,-0.2136 0.41479,-0.14056 0.15296,0.0758 0.21497,0.26183 0.13918,0.41479 z m 0,0"
       id="path13010" /><path
       fill-rule="evenodd"
       fill="#000000"
       fill-opacity="1"
       stroke-width="0.0823531"
       stroke-linecap="butt"
       stroke-linejoin="miter"
       stroke="#000000"
       stroke-opacity="1"
       stroke-miterlimit="4"
       d="m 251.43822,185.81581 c -0.13637,0.10343 -0.32935,0.0758 -0.43271,-0.0606 -0.10197,-0.13643 -0.0744,-0.33073 0.062,-0.43271 0.13642,-0.10197 0.3321,-0.0717 0.4327,0.062 0.10197,0.13643 0.0744,0.32936 -0.062,0.43133 z m 0,0"
       id="path13012" /><path
       fill-rule="evenodd"
       fill="#5000c8"
       fill-opacity="1"
       stroke-width="0.082353"
       stroke-linecap="butt"
       stroke-linejoin="miter"
       stroke="#5000c8"
       stroke-opacity="1"
       stroke-miterlimit="4"
       d="m 250.13046,187.85255 c -0.15567,0.0718 -0.339,0.004 -0.41065,-0.1502 -0.0717,-0.15434 -0.004,-0.33901 0.1502,-0.41066 0.15434,-0.0717 0.34037,0 0.41066,0.15021 0.0718,0.15566 0.004,0.33899 -0.15021,0.41065 z m 0,0"
       id="path13376" /><path
       fill-rule="evenodd"
       fill="#5000c8"
       fill-opacity="1"
       stroke-width="0.082353"
       stroke-linecap="butt"
       stroke-linejoin="miter"
       stroke="#5000c8"
       stroke-opacity="1"
       stroke-miterlimit="4"
       d="m 251.08957,189.92374 c -0.15434,0.0717 -0.33762,0.004 -0.40927,-0.15021 -0.0717,-0.15434 -0.004,-0.33899 0.1502,-0.41065 0.15434,-0.0717 0.34038,-10e-4 0.40928,0.15021 0.0729,0.1544 0.006,0.33899 -0.15021,0.41065 z m 0,0"
       id="path13378" /><path
       fill-rule="evenodd"
       fill="#5000c8"
       fill-opacity="1"
       stroke-width="0.0823528"
       stroke-linecap="butt"
       stroke-linejoin="miter"
       stroke="#5000c8"
       stroke-opacity="1"
       stroke-miterlimit="4"
       d="m 251.25494,185.87782 c -0.1695,10e-4 -0.31006,-0.13505 -0.31144,-0.30592 -0.001,-0.17088 0.13643,-0.31006 0.30731,-0.31144 0.1695,-0.001 0.31006,0.13918 0.31143,0.30593 0.001,0.17087 -0.13642,0.31005 -0.3073,0.31143 z m 0,0"
       id="path13380" /><path
       fill-rule="evenodd"
       fill="#5000c8"
       fill-opacity="1"
       stroke-width="0.0823529"
       stroke-linecap="butt"
       stroke-linejoin="miter"
       stroke="#5000c8"
       stroke-opacity="1"
       stroke-miterlimit="4"
       d="m 251.17088,187.81397 c -0.16126,-0.0537 -0.24942,-0.22876 -0.19568,-0.39137 0.0525,-0.1612 0.22738,-0.24942 0.38998,-0.19568 0.16126,0.0537 0.24805,0.23151 0.19568,0.38999 -0.0537,0.16125 -0.22737,0.24942 -0.38998,0.19706 z m 0,0"
       id="path13382" /><path
       fill-rule="evenodd"
       fill="#5000c8"
       fill-opacity="1"
       stroke-width="0.0823528"
       stroke-linecap="butt"
       stroke-linejoin="miter"
       stroke="#5000c8"
       stroke-opacity="1"
       stroke-miterlimit="4"
       d="m 250.18972,188.72485 c -0.0772,-0.15159 -0.0165,-0.33762 0.13642,-0.41479 0.15159,-0.0772 0.33762,-0.0165 0.41479,0.13505 0.0772,0.15296 0.0124,0.34037 -0.13642,0.41616 -0.15159,0.0772 -0.33762,0.0152 -0.41479,-0.13642 z m 0,0"
       id="path13384" /><path
       fill-rule="evenodd"
       fill="#5000c8"
       fill-opacity="1"
       stroke-width="0.0823529"
       stroke-linecap="butt"
       stroke-linejoin="miter"
       stroke="#5000c8"
       stroke-opacity="1"
       stroke-miterlimit="4"
       d="m 249.07351,188.47267 c 0.0703,-0.15569 0.25356,-0.22462 0.40927,-0.15297 0.15434,0.0703 0.22325,0.25356 0.15296,0.40791 -0.0703,0.15568 -0.25631,0.22324 -0.40927,0.15433 -0.15434,-0.0703 -0.22325,-0.25355 -0.15296,-0.40927 z m 0,0"
       id="path13386" /><path
       fill-rule="evenodd"
       fill="#5000c8"
       fill-opacity="1"
       stroke-width="0.0823531"
       stroke-linecap="butt"
       stroke-linejoin="miter"
       stroke="#5000c8"
       stroke-opacity="1"
       stroke-miterlimit="4"
       d="m 248.36244,187.26826 c 0.15985,-0.0592 0.33762,0.0221 0.39687,0.1819 0.0593,0.15986 -0.0221,0.33762 -0.1819,0.39688 -0.15985,0.0593 -0.339,-0.0262 -0.39687,-0.1819 -0.0593,-0.15985 0.022,-0.33762 0.1819,-0.39688 z m 0,0"
       id="path13388" /><path
       fill-rule="evenodd"
       fill="#5000c8"
       fill-opacity="1"
       stroke-width="0.082353"
       stroke-linecap="butt"
       stroke-linejoin="miter"
       stroke="#5000c8"
       stroke-opacity="1"
       stroke-miterlimit="4"
       d="m 248.55261,185.29905 c 0.16123,0.0537 0.24942,0.23013 0.1943,0.39136 -0.0537,0.16123 -0.22875,0.24805 -0.38998,0.1943 -0.16261,-0.0538 -0.24805,-0.23289 -0.19569,-0.39136 0.0553,-0.16119 0.23014,-0.24805 0.39137,-0.1943 z m 0,0"
       id="path13390" /><path
       fill-rule="evenodd"
       fill="#5000c8"
       fill-opacity="1"
       stroke-width="0.0823531"
       stroke-linecap="butt"
       stroke-linejoin="miter"
       stroke="#5000c8"
       stroke-opacity="1"
       stroke-miterlimit="4"
       d="m 249.52688,184.41986 c 0.0757,0.15163 0.0124,0.33762 -0.13918,0.41341 -0.15296,0.0758 -0.339,0.0138 -0.41479,-0.13918 -0.0758,-0.15296 -0.01,-0.34038 0.13918,-0.41341 0.15296,-0.0758 0.339,-0.0138 0.41479,0.13918 z m 0,0"
       id="path13392" /><path
       fill-rule="evenodd"
       fill="#5000c8"
       fill-opacity="1"
       stroke-width="0.0823529"
       stroke-linecap="butt"
       stroke-linejoin="miter"
       stroke="#5000c8"
       stroke-opacity="1"
       stroke-miterlimit="4"
       d="m 250.76436,184.6872 c -0.0758,0.15296 -0.26183,0.21497 -0.41341,0.13918 -0.15296,-0.0758 -0.21636,-0.26183 -0.14056,-0.41341 0.0758,-0.15297 0.26458,-0.2136 0.41479,-0.14056 0.15296,0.0758 0.21497,0.26183 0.13918,0.41479 z m 0,0"
       id="path13394" /><path
       fill-rule="evenodd"
       fill="#5000c8"
       fill-opacity="1"
       stroke-width="0.0823531"
       stroke-linecap="butt"
       stroke-linejoin="miter"
       stroke="#5000c8"
       stroke-opacity="1"
       stroke-miterlimit="4"
       d="m 251.43822,185.81581 c -0.13637,0.10343 -0.32935,0.0758 -0.43271,-0.0606 -0.10197,-0.13643 -0.0744,-0.33073 0.062,-0.43271 0.13642,-0.10197 0.3321,-0.0717 0.4327,0.062 0.10197,0.13643 0.0744,0.32936 -0.062,0.43133 z m 0,0"
       id="path13396" /></g></svg>
