<?xml version="1.0" encoding="UTF-8" standalone="no"?>
<!-- Created with Inkscape (http://www.inkscape.org/) -->

<svg
   width="2.9203796mm"
   height="4.7657471mm"
   viewBox="0 0 2.9203796 4.7657471"
   version="1.1"
   id="svg4110"
   xml:space="preserve"
   xmlns:inkscape="http://www.inkscape.org/namespaces/inkscape"
   xmlns:sodipodi="http://sodipodi.sourceforge.net/DTD/sodipodi-0.dtd"
   xmlns="http://www.w3.org/2000/svg"
   xmlns:svg="http://www.w3.org/2000/svg"><sodipodi:namedview
     id="namedview4112"
     pagecolor="#ffffff"
     bordercolor="#000000"
     borderopacity="0.25"
     inkscape:showpageshadow="2"
     inkscape:pageopacity="0.0"
     inkscape:pagecheckerboard="0"
     inkscape:deskcolor="#d1d1d1"
     inkscape:document-units="mm"
     showgrid="false"
     inkscape:zoom="0.2102413"
     inkscape:cx="244.95663"
     inkscape:cy="561.25984"
     inkscape:window-width="1728"
     inkscape:window-height="1080"
     inkscape:window-x="0"
     inkscape:window-y="37"
     inkscape:window-maximized="0"
     inkscape:current-layer="layer1" /><defs
     id="defs4107" /><g
     inkscape:label="Layer 1"
     inkscape:groupmode="layer"
     id="layer1"
     transform="translate(-248.4191,-191.4844)"><path
       fill="none"
       stroke-width="0.619368"
       stroke-linecap="round"
       stroke-linejoin="round"
       stroke="#000000"
       stroke-opacity="1"
       stroke-miterlimit="4"
       d="m 248.76896,195.90029 v -4.06659 l 2.19108,1.03491 -2.19108,1.36564 2.2214,1.66604"
       id="path13014" /><path
       fill-rule="evenodd"
       fill="#000000"
       fill-opacity="1"
       stroke-width="0.0823528"
       stroke-linecap="butt"
       stroke-linejoin="miter"
       stroke="#000000"
       stroke-opacity="1"
       stroke-miterlimit="4"
       d="m 248.76896,195.59161 c 0.17088,0 0.31006,0.13781 0.31006,0.30868 0,0.17088 -0.13918,0.30868 -0.31006,0.30868 -0.1695,0 -0.30868,-0.14193 -0.30868,-0.30868 0,-0.17087 0.13918,-0.30868 0.30868,-0.30868 z m 0,0"
       id="path13016" /><path
       fill-rule="evenodd"
       fill="#000000"
       fill-opacity="1"
       stroke-width="0.0823531"
       stroke-linecap="butt"
       stroke-linejoin="miter"
       stroke="#000000"
       stroke-opacity="1"
       stroke-miterlimit="4"
       d="m 249.03079,191.66834 c 0.0911,0.1446 0.0482,0.33486 -0.0965,0.42581 -0.14334,0.0923 -0.33486,0.0496 -0.42581,-0.0951 -0.0909,-0.14332 -0.0455,-0.33624 0.0965,-0.42582 0.14332,-0.0909 0.33487,-0.0482 0.42582,0.0951 z m 0,0"
       id="path13018" /><path
       fill-rule="evenodd"
       fill="#000000"
       fill-opacity="1"
       stroke-width="0.082353"
       stroke-linecap="butt"
       stroke-linejoin="miter"
       stroke="#000000"
       stroke-opacity="1"
       stroke-miterlimit="4"
       d="m 250.97796,193.17729 c -0.1695,0.01 -0.31558,-0.11989 -0.3266,-0.29077 -0.01,-0.16949 0.12127,-0.31557 0.29077,-0.32521 0.17087,-0.01 0.31695,0.12402 0.32659,0.29076 0.01,0.1695 -0.11989,0.31557 -0.29076,0.32522 z m 0,0"
       id="path13020" /><path
       fill-rule="evenodd"
       fill="#000000"
       fill-opacity="1"
       stroke-width="0.082353"
       stroke-linecap="butt"
       stroke-linejoin="miter"
       stroke="#000000"
       stroke-opacity="1"
       stroke-miterlimit="4"
       d="m 248.75656,194.54293 c -0.17087,-0.007 -0.30317,-0.15159 -0.2949,-0.32109 0.007,-0.17087 0.15158,-0.30317 0.32108,-0.29627 0.17087,0.008 0.30317,0.15571 0.2949,0.32246 -0.007,0.17087 -0.15158,0.30317 -0.32108,0.2949 z m 0,0"
       id="path13022" /><path
       fill-rule="evenodd"
       fill="#000000"
       fill-opacity="1"
       stroke-width="0.0823528"
       stroke-linecap="butt"
       stroke-linejoin="miter"
       stroke="#000000"
       stroke-opacity="1"
       stroke-miterlimit="4"
       d="m 251.23702,196.08495 c -0.10197,0.13643 -0.29627,0.16399 -0.43132,0.062 -0.13643,-0.10197 -0.16536,-0.29628 -0.062,-0.43132 0.10197,-0.13643 0.29903,-0.16261 0.43133,-0.062 0.13642,0.10197 0.16398,0.2949 0.062,0.43132 z m 0,0"
       id="path13024" /><path
       fill-rule="evenodd"
       fill="#5000c8"
       fill-opacity="1"
       stroke-width="0.0823528"
       stroke-linecap="butt"
       stroke-linejoin="miter"
       stroke="#5000c8"
       stroke-opacity="1"
       stroke-miterlimit="4"
       d="m 248.76896,195.59161 c 0.17088,0 0.31006,0.13781 0.31006,0.30868 0,0.17088 -0.13918,0.30868 -0.31006,0.30868 -0.1695,0 -0.30868,-0.14193 -0.30868,-0.30868 0,-0.17087 0.13918,-0.30868 0.30868,-0.30868 z m 0,0"
       id="path13398" /><path
       fill-rule="evenodd"
       fill="#5000c8"
       fill-opacity="1"
       stroke-width="0.0823531"
       stroke-linecap="butt"
       stroke-linejoin="miter"
       stroke="#5000c8"
       stroke-opacity="1"
       stroke-miterlimit="4"
       d="m 249.03079,191.66834 c 0.0911,0.1446 0.0482,0.33486 -0.0965,0.42581 -0.14334,0.0923 -0.33486,0.0496 -0.42581,-0.0951 -0.0909,-0.14332 -0.0455,-0.33624 0.0965,-0.42582 0.14332,-0.0909 0.33487,-0.0482 0.42582,0.0951 z m 0,0"
       id="path13400" /><path
       fill-rule="evenodd"
       fill="#5000c8"
       fill-opacity="1"
       stroke-width="0.082353"
       stroke-linecap="butt"
       stroke-linejoin="miter"
       stroke="#5000c8"
       stroke-opacity="1"
       stroke-miterlimit="4"
       d="m 250.97796,193.17729 c -0.1695,0.01 -0.31558,-0.11989 -0.3266,-0.29077 -0.01,-0.16949 0.12127,-0.31557 0.29077,-0.32521 0.17087,-0.01 0.31695,0.12402 0.32659,0.29076 0.01,0.1695 -0.11989,0.31557 -0.29076,0.32522 z m 0,0"
       id="path13402" /><path
       fill-rule="evenodd"
       fill="#5000c8"
       fill-opacity="1"
       stroke-width="0.082353"
       stroke-linecap="butt"
       stroke-linejoin="miter"
       stroke="#5000c8"
       stroke-opacity="1"
       stroke-miterlimit="4"
       d="m 248.75656,194.54293 c -0.17087,-0.007 -0.30317,-0.15159 -0.2949,-0.32109 0.007,-0.17087 0.15158,-0.30317 0.32108,-0.29627 0.17087,0.008 0.30317,0.15571 0.2949,0.32246 -0.007,0.17087 -0.15158,0.30317 -0.32108,0.2949 z m 0,0"
       id="path13404" /><path
       fill-rule="evenodd"
       fill="#5000c8"
       fill-opacity="1"
       stroke-width="0.0823528"
       stroke-linecap="butt"
       stroke-linejoin="miter"
       stroke="#5000c8"
       stroke-opacity="1"
       stroke-miterlimit="4"
       d="m 251.23702,196.08495 c -0.10197,0.13643 -0.29627,0.16399 -0.43132,0.062 -0.13643,-0.10197 -0.16536,-0.29628 -0.062,-0.43132 0.10197,-0.13643 0.29903,-0.16261 0.43133,-0.062 0.13642,0.10197 0.16398,0.2949 0.062,0.43132 z m 0,0"
       id="path13406" /></g></svg>
