<?xml version="1.0" encoding="UTF-8" standalone="no"?>
<!-- Created with Inkscape (http://www.inkscape.org/) -->

<svg
   width="3.3112488mm"
   height="4.9612885mm"
   viewBox="0 0 3.3112488 4.9612885"
   version="1.1"
   id="svg4110"
   xml:space="preserve"
   xmlns:inkscape="http://www.inkscape.org/namespaces/inkscape"
   xmlns:sodipodi="http://sodipodi.sourceforge.net/DTD/sodipodi-0.dtd"
   xmlns="http://www.w3.org/2000/svg"
   xmlns:svg="http://www.w3.org/2000/svg"><sodipodi:namedview
     id="namedview4112"
     pagecolor="#ffffff"
     bordercolor="#000000"
     borderopacity="0.25"
     inkscape:showpageshadow="2"
     inkscape:pageopacity="0.0"
     inkscape:pagecheckerboard="0"
     inkscape:deskcolor="#d1d1d1"
     inkscape:document-units="mm"
     showgrid="false"
     inkscape:zoom="0.2102413"
     inkscape:cx="244.95663"
     inkscape:cy="561.25984"
     inkscape:window-width="1728"
     inkscape:window-height="1080"
     inkscape:window-x="0"
     inkscape:window-y="37"
     inkscape:window-maximized="0"
     inkscape:current-layer="layer1" /><defs
     id="defs4107" /><g
     inkscape:label="Layer 1"
     inkscape:groupmode="layer"
     id="layer1"
     transform="translate(-248.14951,-198.64071)"><path
       fill="none"
       stroke-width="0.619368"
       stroke-linecap="round"
       stroke-linejoin="round"
       stroke="#000000"
       stroke-opacity="1"
       stroke-miterlimit="4"
       d="m 250.85531,199.18692 -0.97565,-0.19569 -0.97565,0.34451 -0.35967,0.87092 0.73587,0.77997 1.21543,0.33073 0.61461,0.89986 -0.43546,0.87092 -1.08039,0.16399 -1.09554,-0.16399"
       id="path13026" /><path
       fill-rule="evenodd"
       fill="#000000"
       fill-opacity="1"
       stroke-width="0.082353"
       stroke-linecap="butt"
       stroke-linejoin="miter"
       stroke="#000000"
       stroke-opacity="1"
       stroke-miterlimit="4"
       d="m 250.55214,199.12628 c 0.0332,-0.16808 0.19706,-0.27561 0.36381,-0.24254 0.16674,0.0331 0.2756,0.19569 0.24253,0.36381 -0.0344,0.16674 -0.19981,0.27423 -0.3638,0.24115 -0.16674,-0.0331 -0.27561,-0.19568 -0.24254,-0.36242 z m 0,0"
       id="path13028" /><path
       fill-rule="evenodd"
       fill="#000000"
       fill-opacity="1"
       stroke-width="0.082353"
       stroke-linecap="butt"
       stroke-linejoin="miter"
       stroke="#000000"
       stroke-opacity="1"
       stroke-miterlimit="4"
       d="m 249.57236,199.01328 c -0.0124,-0.1695 0.11575,-0.31832 0.28525,-0.33073 0.17087,-0.0111 0.31833,0.11714 0.33073,0.28663 0.011,0.1695 -0.11989,0.31833 -0.28663,0.33074 -0.1695,0.0111 -0.31833,-0.11714 -0.32935,-0.28664 z m 0,0"
       id="path13030" /><path
       fill-rule="evenodd"
       fill="#000000"
       fill-opacity="1"
       stroke-width="0.0823529"
       stroke-linecap="butt"
       stroke-linejoin="miter"
       stroke="#000000"
       stroke-opacity="1"
       stroke-miterlimit="4"
       d="m 248.68077,199.54934 c -0.11714,-0.12402 -0.11301,-0.31971 0.011,-0.43684 0.12402,-0.11713 0.3197,-0.113 0.43684,0.011 0.11713,0.12403 0.11024,0.32246 -0.011,0.43684 -0.12402,0.11714 -0.3197,0.11162 -0.43683,-0.011 z m 0,0"
       id="path13032" /><path
       fill-rule="evenodd"
       fill="#000000"
       fill-opacity="1"
       stroke-width="0.0823528"
       stroke-linecap="butt"
       stroke-linejoin="miter"
       stroke="#000000"
       stroke-opacity="1"
       stroke-miterlimit="4"
       d="m 248.60084,200.50983 c -0.16814,0.0316 -0.32935,-0.0799 -0.35967,-0.24805 -0.0317,-0.16674 0.0799,-0.32797 0.24805,-0.35828 0.16673,-0.0317 0.32935,0.0827 0.35966,0.24666 0.0303,0.16813 -0.0813,0.32936 -0.24804,0.35967 z m 0,0"
       id="path13034" /><path
       fill-rule="evenodd"
       fill="#000000"
       fill-opacity="1"
       stroke-width="0.0823528"
       stroke-linecap="butt"
       stroke-linejoin="miter"
       stroke="#000000"
       stroke-opacity="1"
       stroke-miterlimit="4"
       d="m 249.5448,201.14511 c -0.0882,0.14745 -0.27699,0.1943 -0.42444,0.10611 -0.14616,-0.0867 -0.19293,-0.27699 -0.10611,-0.42306 0.0881,-0.14613 0.28112,-0.19155 0.42443,-0.10611 0.14613,0.0881 0.19293,0.27699 0.10612,0.42306 z m 0,0"
       id="path13036" /><path
       fill-rule="evenodd"
       fill="#000000"
       fill-opacity="1"
       stroke-width="0.0823529"
       stroke-linecap="butt"
       stroke-linejoin="miter"
       stroke="#000000"
       stroke-opacity="1"
       stroke-miterlimit="4"
       d="m 250.74644,201.49651 c -0.0978,0.1378 -0.29076,0.17087 -0.42994,0.0717 -0.13914,-0.0979 -0.17226,-0.29076 -0.073,-0.42994 0.0992,-0.13919 0.2949,-0.1695 0.43133,-0.073 0.13786,0.0991 0.17087,0.29215 0.0717,0.43133 z m 0,0"
       id="path13038" /><path
       fill-rule="evenodd"
       fill="#000000"
       fill-opacity="1"
       stroke-width="0.0823528"
       stroke-linecap="butt"
       stroke-linejoin="miter"
       stroke="#000000"
       stroke-opacity="1"
       stroke-miterlimit="4"
       d="m 251.13091,202.5259 c -0.16948,0.0112 -0.31694,-0.11713 -0.32935,-0.28801 -0.011,-0.1695 0.11714,-0.31695 0.28801,-0.32935 0.16949,-0.0112 0.31695,0.12127 0.32935,0.28801 0.011,0.1695 -0.11713,0.31695 -0.28801,0.32935 z m 0,0"
       id="path13040" /><path
       fill-rule="evenodd"
       fill="#000000"
       fill-opacity="1"
       stroke-width="0.0823529"
       stroke-linecap="butt"
       stroke-linejoin="miter"
       stroke="#000000"
       stroke-opacity="1"
       stroke-miterlimit="4"
       d="m 250.42536,203.26867 c -0.1006,-0.13781 -0.0703,-0.33074 0.0675,-0.43133 0.13779,-0.0993 0.33211,-0.0689 0.43133,0.0689 0.1006,0.1378 0.0675,0.33349 -0.0675,0.43133 -0.13781,0.10059 -0.33073,0.0703 -0.43133,-0.0689 z m 0,0"
       id="path13042" /><path
       fill-rule="evenodd"
       fill="#000000"
       fill-opacity="1"
       stroke-width="0.0823528"
       stroke-linecap="butt"
       stroke-linejoin="miter"
       stroke="#000000"
       stroke-opacity="1"
       stroke-miterlimit="4"
       d="m 249.28572,203.25351 c 0,-0.17088 0.13781,-0.31006 0.30868,-0.31006 0.17088,0 0.30868,0.1378 0.30868,0.30868 0.001,0.17088 -0.14056,0.30868 -0.3073,0.30868 -0.17087,0.001 -0.31006,-0.13781 -0.31006,-0.3073 z m 0,0"
       id="path13044" /><path
       fill-rule="evenodd"
       fill="#000000"
       fill-opacity="1"
       stroke-width="0.0823529"
       stroke-linecap="butt"
       stroke-linejoin="miter"
       stroke="#000000"
       stroke-opacity="1"
       stroke-miterlimit="4"
       d="m 248.19432,203.04129 c 0.025,-0.1681 0.18327,-0.28388 0.35139,-0.25907 0.1681,0.025 0.28526,0.18328 0.25908,0.3514 -0.025,0.16809 -0.18604,0.28387 -0.3514,0.25907 -0.1681,-0.025 -0.28526,-0.1819 -0.25907,-0.3514 z m 0,0"
       id="path13046" /><path
       fill-rule="evenodd"
       fill="#5000c8"
       fill-opacity="1"
       stroke-width="0.082353"
       stroke-linecap="butt"
       stroke-linejoin="miter"
       stroke="#5000c8"
       stroke-opacity="1"
       stroke-miterlimit="4"
       d="m 250.55214,199.12628 c 0.0332,-0.16808 0.19706,-0.27561 0.36381,-0.24254 0.16674,0.0331 0.2756,0.19569 0.24253,0.36381 -0.0344,0.16674 -0.19981,0.27423 -0.3638,0.24115 -0.16674,-0.0331 -0.27561,-0.19568 -0.24254,-0.36242 z m 0,0"
       id="path13408" /><path
       fill-rule="evenodd"
       fill="#5000c8"
       fill-opacity="1"
       stroke-width="0.082353"
       stroke-linecap="butt"
       stroke-linejoin="miter"
       stroke="#5000c8"
       stroke-opacity="1"
       stroke-miterlimit="4"
       d="m 249.57236,199.01328 c -0.0124,-0.1695 0.11575,-0.31832 0.28525,-0.33073 0.17087,-0.0111 0.31833,0.11714 0.33073,0.28663 0.011,0.1695 -0.11989,0.31833 -0.28663,0.33074 -0.1695,0.0111 -0.31833,-0.11714 -0.32935,-0.28664 z m 0,0"
       id="path13410" /><path
       fill-rule="evenodd"
       fill="#5000c8"
       fill-opacity="1"
       stroke-width="0.0823529"
       stroke-linecap="butt"
       stroke-linejoin="miter"
       stroke="#5000c8"
       stroke-opacity="1"
       stroke-miterlimit="4"
       d="m 248.68077,199.54934 c -0.11714,-0.12402 -0.11301,-0.31971 0.011,-0.43684 0.12402,-0.11713 0.3197,-0.113 0.43684,0.011 0.11713,0.12403 0.11024,0.32246 -0.011,0.43684 -0.12402,0.11714 -0.3197,0.11162 -0.43683,-0.011 z m 0,0"
       id="path13412" /><path
       fill-rule="evenodd"
       fill="#5000c8"
       fill-opacity="1"
       stroke-width="0.0823528"
       stroke-linecap="butt"
       stroke-linejoin="miter"
       stroke="#5000c8"
       stroke-opacity="1"
       stroke-miterlimit="4"
       d="m 248.60084,200.50983 c -0.16814,0.0316 -0.32935,-0.0799 -0.35967,-0.24805 -0.0317,-0.16674 0.0799,-0.32797 0.24805,-0.35828 0.16673,-0.0317 0.32935,0.0827 0.35966,0.24666 0.0303,0.16813 -0.0813,0.32936 -0.24804,0.35967 z m 0,0"
       id="path13414" /><path
       fill-rule="evenodd"
       fill="#5000c8"
       fill-opacity="1"
       stroke-width="0.0823528"
       stroke-linecap="butt"
       stroke-linejoin="miter"
       stroke="#5000c8"
       stroke-opacity="1"
       stroke-miterlimit="4"
       d="m 249.5448,201.14511 c -0.0882,0.14745 -0.27699,0.1943 -0.42444,0.10611 -0.14616,-0.0867 -0.19293,-0.27699 -0.10611,-0.42306 0.0881,-0.14613 0.28112,-0.19155 0.42443,-0.10611 0.14613,0.0881 0.19293,0.27699 0.10612,0.42306 z m 0,0"
       id="path13416" /><path
       fill-rule="evenodd"
       fill="#5000c8"
       fill-opacity="1"
       stroke-width="0.0823529"
       stroke-linecap="butt"
       stroke-linejoin="miter"
       stroke="#5000c8"
       stroke-opacity="1"
       stroke-miterlimit="4"
       d="m 250.74644,201.49651 c -0.0978,0.1378 -0.29076,0.17087 -0.42994,0.0717 -0.13914,-0.0979 -0.17226,-0.29076 -0.073,-0.42994 0.0992,-0.13919 0.2949,-0.1695 0.43133,-0.073 0.13786,0.0991 0.17087,0.29215 0.0717,0.43133 z m 0,0"
       id="path13418" /><path
       fill-rule="evenodd"
       fill="#5000c8"
       fill-opacity="1"
       stroke-width="0.0823528"
       stroke-linecap="butt"
       stroke-linejoin="miter"
       stroke="#5000c8"
       stroke-opacity="1"
       stroke-miterlimit="4"
       d="m 251.13091,202.5259 c -0.16948,0.0112 -0.31694,-0.11713 -0.32935,-0.28801 -0.011,-0.1695 0.11714,-0.31695 0.28801,-0.32935 0.16949,-0.0112 0.31695,0.12127 0.32935,0.28801 0.011,0.1695 -0.11713,0.31695 -0.28801,0.32935 z m 0,0"
       id="path13420" /><path
       fill-rule="evenodd"
       fill="#5000c8"
       fill-opacity="1"
       stroke-width="0.0823529"
       stroke-linecap="butt"
       stroke-linejoin="miter"
       stroke="#5000c8"
       stroke-opacity="1"
       stroke-miterlimit="4"
       d="m 250.42536,203.26867 c -0.1006,-0.13781 -0.0703,-0.33074 0.0675,-0.43133 0.13779,-0.0993 0.33211,-0.0689 0.43133,0.0689 0.1006,0.1378 0.0675,0.33349 -0.0675,0.43133 -0.13781,0.10059 -0.33073,0.0703 -0.43133,-0.0689 z m 0,0"
       id="path13422" /><path
       fill-rule="evenodd"
       fill="#5000c8"
       fill-opacity="1"
       stroke-width="0.0823528"
       stroke-linecap="butt"
       stroke-linejoin="miter"
       stroke="#5000c8"
       stroke-opacity="1"
       stroke-miterlimit="4"
       d="m 249.28572,203.25351 c 0,-0.17088 0.13781,-0.31006 0.30868,-0.31006 0.17088,0 0.30868,0.1378 0.30868,0.30868 0.001,0.17088 -0.14056,0.30868 -0.3073,0.30868 -0.17087,0.001 -0.31006,-0.13781 -0.31006,-0.3073 z m 0,0"
       id="path13424" /><path
       fill-rule="evenodd"
       fill="#5000c8"
       fill-opacity="1"
       stroke-width="0.0823529"
       stroke-linecap="butt"
       stroke-linejoin="miter"
       stroke="#5000c8"
       stroke-opacity="1"
       stroke-miterlimit="4"
       d="m 248.19432,203.04129 c 0.025,-0.1681 0.18327,-0.28388 0.35139,-0.25907 0.1681,0.025 0.28526,0.18328 0.25908,0.3514 -0.025,0.16809 -0.18604,0.28387 -0.3514,0.25907 -0.1681,-0.025 -0.28526,-0.1819 -0.25907,-0.3514 z m 0,0"
       id="path13426" /></g></svg>
