<?xml version="1.0" encoding="UTF-8" standalone="no"?>
<!-- Created with Inkscape (http://www.inkscape.org/) -->

<svg
   width="3.7163849mm"
   height="4.7814789mm"
   viewBox="0 0 3.7163849 4.7814789"
   version="1.1"
   id="svg4110"
   xml:space="preserve"
   xmlns:inkscape="http://www.inkscape.org/namespaces/inkscape"
   xmlns:sodipodi="http://sodipodi.sourceforge.net/DTD/sodipodi-0.dtd"
   xmlns="http://www.w3.org/2000/svg"
   xmlns:svg="http://www.w3.org/2000/svg"><sodipodi:namedview
     id="namedview4112"
     pagecolor="#ffffff"
     bordercolor="#000000"
     borderopacity="0.25"
     inkscape:showpageshadow="2"
     inkscape:pageopacity="0.0"
     inkscape:pagecheckerboard="0"
     inkscape:deskcolor="#d1d1d1"
     inkscape:document-units="mm"
     showgrid="false"
     inkscape:zoom="0.2102413"
     inkscape:cx="244.95663"
     inkscape:cy="561.25984"
     inkscape:window-width="1728"
     inkscape:window-height="1080"
     inkscape:window-x="0"
     inkscape:window-y="37"
     inkscape:window-maximized="0"
     inkscape:current-layer="layer1" /><defs
     id="defs4107" /><g
     inkscape:label="Layer 1"
     inkscape:groupmode="layer"
     id="layer1"
     transform="translate(-247.9988,-206.02352)"><path
       fill="none"
       stroke-width="0.619368"
       stroke-linecap="round"
       stroke-linejoin="round"
       stroke="#000000"
       stroke-opacity="1"
       stroke-miterlimit="4"
       d="m 249.83556,210.45513 v -4.08175 m -1.48552,0.79513 v -0.79513 h 3.01514 v 0.85576"
       id="path13048" /><path
       fill-rule="evenodd"
       fill="#000000"
       fill-opacity="1"
       stroke-width="0.0823528"
       stroke-linecap="butt"
       stroke-linejoin="miter"
       stroke="#000000"
       stroke-opacity="1"
       stroke-miterlimit="4"
       d="m 249.83556,210.14645 c 0.1695,0 0.30868,0.13781 0.30868,0.30868 0,0.17088 -0.13918,0.30868 -0.30868,0.30868 -0.17088,0 -0.31006,-0.14193 -0.31006,-0.30868 0,-0.17087 0.13918,-0.30868 0.31006,-0.30868 z m 0,0"
       id="path13050" /><path
       fill-rule="evenodd"
       fill="#000000"
       fill-opacity="1"
       stroke-width="0.0823528"
       stroke-linecap="butt"
       stroke-linejoin="miter"
       stroke="#000000"
       stroke-opacity="1"
       stroke-miterlimit="4"
       d="m 249.83556,206.0647 c 0.1695,0 0.30868,0.13781 0.30868,0.30868 0,0.17088 -0.13918,0.30868 -0.30868,0.30868 -0.17088,0 -0.31006,-0.14193 -0.31006,-0.30868 0,-0.17087 0.13918,-0.30868 0.31006,-0.30868 z m 0,0"
       id="path13052" /><path
       fill-rule="evenodd"
       fill="#000000"
       fill-opacity="1"
       stroke-width="0.0823528"
       stroke-linecap="butt"
       stroke-linejoin="miter"
       stroke="#000000"
       stroke-opacity="1"
       stroke-miterlimit="4"
       d="m 248.35004,206.85983 c 0.16949,0 0.30868,0.13918 0.30868,0.30868 0,0.17088 -0.13919,0.30868 -0.30868,0.30868 -0.17088,0 -0.31006,-0.14194 -0.31006,-0.30868 0,-0.1695 0.13918,-0.30868 0.31006,-0.30868 z m 0,0"
       id="path13054" /><path
       fill-rule="evenodd"
       fill="#000000"
       fill-opacity="1"
       stroke-width="0.0823529"
       stroke-linecap="butt"
       stroke-linejoin="miter"
       stroke="#000000"
       stroke-opacity="1"
       stroke-miterlimit="4"
       d="m 248.56777,206.15566 c 0.12128,0.11987 0.12126,0.31557 0,0.43683 -0.11989,0.11989 -0.31558,0.11989 -0.43684,0 -0.11987,-0.12128 -0.11714,-0.3197 0,-0.43684 0.12126,-0.12126 0.31695,-0.12126 0.43684,1e-5 z m 0,0"
       id="path13056" /><path
       fill-rule="evenodd"
       fill="#000000"
       fill-opacity="1"
       stroke-width="0.0823529"
       stroke-linecap="butt"
       stroke-linejoin="miter"
       stroke="#000000"
       stroke-opacity="1"
       stroke-miterlimit="4"
       d="m 251.58429,206.59249 c -0.12128,0.11988 -0.31695,0.11989 -0.43684,0 -0.12126,-0.12126 -0.12127,-0.31695 0,-0.43683 0.11988,-0.12129 0.31833,-0.11852 0.43684,0 0.11989,0.11988 0.11989,0.31556 0,0.43683 z m 0,0"
       id="path13058" /><path
       fill-rule="evenodd"
       fill="#000000"
       fill-opacity="1"
       stroke-width="0.0823528"
       stroke-linecap="butt"
       stroke-linejoin="miter"
       stroke="#000000"
       stroke-opacity="1"
       stroke-miterlimit="4"
       d="m 251.36518,207.53783 c -0.17087,0 -0.30868,-0.13781 -0.30868,-0.30869 0,-0.17087 0.13781,-0.30868 0.30868,-0.30868 0.17088,0 0.30868,0.14194 0.30868,0.30868 0,0.17088 -0.1378,0.30869 -0.30868,0.30869 z m 0,0"
       id="path13060" /><path
       fill-rule="evenodd"
       fill="#5000c8"
       fill-opacity="1"
       stroke-width="0.0823528"
       stroke-linecap="butt"
       stroke-linejoin="miter"
       stroke="#5000c8"
       stroke-opacity="1"
       stroke-miterlimit="4"
       d="m 249.83556,210.14645 c 0.1695,0 0.30868,0.13781 0.30868,0.30868 0,0.17088 -0.13918,0.30868 -0.30868,0.30868 -0.17088,0 -0.31006,-0.14193 -0.31006,-0.30868 0,-0.17087 0.13918,-0.30868 0.31006,-0.30868 z m 0,0"
       id="path13428" /><path
       fill-rule="evenodd"
       fill="#5000c8"
       fill-opacity="1"
       stroke-width="0.0823528"
       stroke-linecap="butt"
       stroke-linejoin="miter"
       stroke="#5000c8"
       stroke-opacity="1"
       stroke-miterlimit="4"
       d="m 249.83556,206.0647 c 0.1695,0 0.30868,0.13781 0.30868,0.30868 0,0.17088 -0.13918,0.30868 -0.30868,0.30868 -0.17088,0 -0.31006,-0.14193 -0.31006,-0.30868 0,-0.17087 0.13918,-0.30868 0.31006,-0.30868 z m 0,0"
       id="path13430" /><path
       fill-rule="evenodd"
       fill="#5000c8"
       fill-opacity="1"
       stroke-width="0.0823528"
       stroke-linecap="butt"
       stroke-linejoin="miter"
       stroke="#5000c8"
       stroke-opacity="1"
       stroke-miterlimit="4"
       d="m 248.35004,206.85983 c 0.16949,0 0.30868,0.13918 0.30868,0.30868 0,0.17088 -0.13919,0.30868 -0.30868,0.30868 -0.17088,0 -0.31006,-0.14194 -0.31006,-0.30868 0,-0.1695 0.13918,-0.30868 0.31006,-0.30868 z m 0,0"
       id="path13432" /><path
       fill-rule="evenodd"
       fill="#5000c8"
       fill-opacity="1"
       stroke-width="0.0823529"
       stroke-linecap="butt"
       stroke-linejoin="miter"
       stroke="#5000c8"
       stroke-opacity="1"
       stroke-miterlimit="4"
       d="m 248.56777,206.15566 c 0.12128,0.11987 0.12126,0.31557 0,0.43683 -0.11989,0.11989 -0.31558,0.11989 -0.43684,0 -0.11987,-0.12128 -0.11714,-0.3197 0,-0.43684 0.12126,-0.12126 0.31695,-0.12126 0.43684,1e-5 z m 0,0"
       id="path13434" /><path
       fill-rule="evenodd"
       fill="#5000c8"
       fill-opacity="1"
       stroke-width="0.0823529"
       stroke-linecap="butt"
       stroke-linejoin="miter"
       stroke="#5000c8"
       stroke-opacity="1"
       stroke-miterlimit="4"
       d="m 251.58429,206.59249 c -0.12128,0.11988 -0.31695,0.11989 -0.43684,0 -0.12126,-0.12126 -0.12127,-0.31695 0,-0.43683 0.11988,-0.12129 0.31833,-0.11852 0.43684,0 0.11989,0.11988 0.11989,0.31556 0,0.43683 z m 0,0"
       id="path13436" /><path
       fill-rule="evenodd"
       fill="#5000c8"
       fill-opacity="1"
       stroke-width="0.0823528"
       stroke-linecap="butt"
       stroke-linejoin="miter"
       stroke="#5000c8"
       stroke-opacity="1"
       stroke-miterlimit="4"
       d="m 251.36518,207.53783 c -0.17087,0 -0.30868,-0.13781 -0.30868,-0.30869 0,-0.17087 0.13781,-0.30868 0.30868,-0.30868 0.17088,0 0.30868,0.14194 0.30868,0.30868 0,0.17088 -0.1378,0.30869 -0.30868,0.30869 z m 0,0"
       id="path13438" /></g></svg>
