<?xml version="1.0" encoding="UTF-8" standalone="no"?>
<!-- Created with Inkscape (http://www.inkscape.org/) -->

<svg
   width="3.3265991mm"
   height="4.8861847mm"
   viewBox="0 0 3.3265991 4.8861847"
   version="1.1"
   id="svg4110"
   xml:space="preserve"
   xmlns:inkscape="http://www.inkscape.org/namespaces/inkscape"
   xmlns:sodipodi="http://sodipodi.sourceforge.net/DTD/sodipodi-0.dtd"
   xmlns="http://www.w3.org/2000/svg"
   xmlns:svg="http://www.w3.org/2000/svg"><sodipodi:namedview
     id="namedview4112"
     pagecolor="#ffffff"
     bordercolor="#000000"
     borderopacity="0.25"
     inkscape:showpageshadow="2"
     inkscape:pageopacity="0.0"
     inkscape:pagecheckerboard="0"
     inkscape:deskcolor="#d1d1d1"
     inkscape:document-units="mm"
     showgrid="false"
     inkscape:zoom="0.2102413"
     inkscape:cx="244.95663"
     inkscape:cy="561.25984"
     inkscape:window-width="1728"
     inkscape:window-height="1080"
     inkscape:window-x="0"
     inkscape:window-y="37"
     inkscape:window-maximized="0"
     inkscape:current-layer="layer1" /><defs
     id="defs4107" /><g
     inkscape:label="Layer 1"
     inkscape:groupmode="layer"
     id="layer1"
     transform="translate(-248.19414,-213.3616)"><path
       fill="none"
       stroke-width="0.619368"
       stroke-linecap="round"
       stroke-linejoin="round"
       stroke="#000000"
       stroke-opacity="1"
       stroke-miterlimit="4"
       d="m 248.54434,213.71144 v 3.18051 l 0.56224,0.8034 0.74965,0.20257 0.7593,-0.20257 0.55535,-0.8034 v -3.18051"
       id="path13062" /><path
       fill-rule="evenodd"
       fill="#000000"
       fill-opacity="1"
       stroke-width="0.0823528"
       stroke-linecap="butt"
       stroke-linejoin="miter"
       stroke="#000000"
       stroke-opacity="1"
       stroke-miterlimit="4"
       d="m 248.54434,214.02012 c -0.17088,0 -0.30868,-0.13918 -0.30868,-0.30868 0,-0.17088 0.1378,-0.30868 0.30868,-0.30868 0.17088,0 0.30868,0.14194 0.30868,0.30868 0,0.1695 -0.1378,0.30868 -0.30868,0.30868 z m 0,0"
       id="path13064" /><path
       fill-rule="evenodd"
       fill="#000000"
       fill-opacity="1"
       stroke-width="0.0823529"
       stroke-linecap="butt"
       stroke-linejoin="miter"
       stroke="#000000"
       stroke-opacity="1"
       stroke-miterlimit="4"
       d="m 248.63804,217.18685 c -0.16261,0.051 -0.33624,-0.04 -0.3886,-0.20257 -0.051,-0.16123 0.04,-0.33487 0.20257,-0.38723 0.16261,-0.051 0.33624,0.0427 0.38723,0.20257 0.051,0.16261 -0.0386,0.33624 -0.2012,0.38723 z m 0,0"
       id="path13066" /><path
       fill-rule="evenodd"
       fill="#000000"
       fill-opacity="1"
       stroke-width="0.0823528"
       stroke-linecap="butt"
       stroke-linejoin="miter"
       stroke="#000000"
       stroke-opacity="1"
       stroke-miterlimit="4"
       d="m 249.36014,217.87174 c -0.098,0.14044 -0.29077,0.17363 -0.42995,0.0758 -0.14045,-0.098 -0.17363,-0.29077 -0.0758,-0.42995 0.0978,-0.13918 0.29352,-0.17088 0.42994,-0.0758 0.13919,0.0978 0.17364,0.29076 0.0758,0.42995 z m 0,0"
       id="path13068" /><path
       fill-rule="evenodd"
       fill="#000000"
       fill-opacity="1"
       stroke-width="0.0823529"
       stroke-linecap="butt"
       stroke-linejoin="miter"
       stroke="#000000"
       stroke-opacity="1"
       stroke-miterlimit="4"
       d="m 250.16491,217.89792 c 0,0.17087 -0.1378,0.30868 -0.30868,0.30868 -0.17088,-0.001 -0.30868,-0.13919 -0.30868,-0.31006 0,-0.1695 0.14332,-0.30868 0.31006,-0.30868 0.1695,0.001 0.3073,0.13918 0.3073,0.31006 z m 0,0"
       id="path13070" /><path
       fill-rule="evenodd"
       fill="#000000"
       fill-opacity="1"
       stroke-width="0.0823528"
       stroke-linecap="butt"
       stroke-linejoin="miter"
       stroke="#000000"
       stroke-opacity="1"
       stroke-miterlimit="4"
       d="m 250.86771,217.51758 c 0.0978,0.13918 0.0648,0.33211 -0.0744,0.42995 -0.13919,0.0978 -0.33211,0.0648 -0.43133,-0.0744 -0.0979,-0.14055 -0.0606,-0.33487 0.0758,-0.43133 0.13919,-0.0978 0.33211,-0.0648 0.42995,0.0758 z m 0,0"
       id="path13072" /><path
       fill-rule="evenodd"
       fill="#000000"
       fill-opacity="1"
       stroke-width="0.0823529"
       stroke-linecap="butt"
       stroke-linejoin="miter"
       stroke="#000000"
       stroke-opacity="1"
       stroke-miterlimit="4"
       d="m 251.26183,216.59705 c 0.16261,0.051 0.25356,0.22462 0.20395,0.38723 -0.051,0.16261 -0.22462,0.25356 -0.38723,0.20257 -0.16261,-0.051 -0.25218,-0.22738 -0.20257,-0.38723 0.051,-0.16261 0.22324,-0.25356 0.38585,-0.20257 z m 0,0"
       id="path13074" /><path
       fill-rule="evenodd"
       fill="#000000"
       fill-opacity="1"
       stroke-width="0.0823528"
       stroke-linecap="butt"
       stroke-linejoin="miter"
       stroke="#000000"
       stroke-opacity="1"
       stroke-miterlimit="4"
       d="m 251.17088,213.40276 c 0.1695,0 0.30868,0.1378 0.30868,0.30868 0,0.1695 -0.13918,0.30868 -0.30868,0.30868 -0.17088,0 -0.30868,-0.14194 -0.30868,-0.30868 0,-0.17088 0.1378,-0.30868 0.30868,-0.30868 z m 0,0"
       id="path13076" /><path
       fill-rule="evenodd"
       fill="#5000c8"
       fill-opacity="1"
       stroke-width="0.0823528"
       stroke-linecap="butt"
       stroke-linejoin="miter"
       stroke="#5000c8"
       stroke-opacity="1"
       stroke-miterlimit="4"
       d="m 248.54434,214.02012 c -0.17088,0 -0.30868,-0.13918 -0.30868,-0.30868 0,-0.17088 0.1378,-0.30868 0.30868,-0.30868 0.17088,0 0.30868,0.14194 0.30868,0.30868 0,0.1695 -0.1378,0.30868 -0.30868,0.30868 z m 0,0"
       id="path13440" /><path
       fill-rule="evenodd"
       fill="#5000c8"
       fill-opacity="1"
       stroke-width="0.0823529"
       stroke-linecap="butt"
       stroke-linejoin="miter"
       stroke="#5000c8"
       stroke-opacity="1"
       stroke-miterlimit="4"
       d="m 248.63804,217.18685 c -0.16261,0.051 -0.33624,-0.04 -0.3886,-0.20257 -0.051,-0.16123 0.04,-0.33487 0.20257,-0.38723 0.16261,-0.051 0.33624,0.0427 0.38723,0.20257 0.051,0.16261 -0.0386,0.33624 -0.2012,0.38723 z m 0,0"
       id="path13442" /><path
       fill-rule="evenodd"
       fill="#5000c8"
       fill-opacity="1"
       stroke-width="0.0823528"
       stroke-linecap="butt"
       stroke-linejoin="miter"
       stroke="#5000c8"
       stroke-opacity="1"
       stroke-miterlimit="4"
       d="m 249.36014,217.87174 c -0.098,0.14044 -0.29077,0.17363 -0.42995,0.0758 -0.14045,-0.098 -0.17363,-0.29077 -0.0758,-0.42995 0.0978,-0.13918 0.29352,-0.17088 0.42994,-0.0758 0.13919,0.0978 0.17364,0.29076 0.0758,0.42995 z m 0,0"
       id="path13444" /><path
       fill-rule="evenodd"
       fill="#5000c8"
       fill-opacity="1"
       stroke-width="0.0823529"
       stroke-linecap="butt"
       stroke-linejoin="miter"
       stroke="#5000c8"
       stroke-opacity="1"
       stroke-miterlimit="4"
       d="m 250.16491,217.89792 c 0,0.17087 -0.1378,0.30868 -0.30868,0.30868 -0.17088,-0.001 -0.30868,-0.13919 -0.30868,-0.31006 0,-0.1695 0.14332,-0.30868 0.31006,-0.30868 0.1695,0.001 0.3073,0.13918 0.3073,0.31006 z m 0,0"
       id="path13446" /><path
       fill-rule="evenodd"
       fill="#5000c8"
       fill-opacity="1"
       stroke-width="0.0823528"
       stroke-linecap="butt"
       stroke-linejoin="miter"
       stroke="#5000c8"
       stroke-opacity="1"
       stroke-miterlimit="4"
       d="m 250.86771,217.51758 c 0.0978,0.13918 0.0648,0.33211 -0.0744,0.42995 -0.13919,0.0978 -0.33211,0.0648 -0.43133,-0.0744 -0.0979,-0.14055 -0.0606,-0.33487 0.0758,-0.43133 0.13919,-0.0978 0.33211,-0.0648 0.42995,0.0758 z m 0,0"
       id="path13448" /><path
       fill-rule="evenodd"
       fill="#5000c8"
       fill-opacity="1"
       stroke-width="0.0823529"
       stroke-linecap="butt"
       stroke-linejoin="miter"
       stroke="#5000c8"
       stroke-opacity="1"
       stroke-miterlimit="4"
       d="m 251.26183,216.59705 c 0.16261,0.051 0.25356,0.22462 0.20395,0.38723 -0.051,0.16261 -0.22462,0.25356 -0.38723,0.20257 -0.16261,-0.051 -0.25218,-0.22738 -0.20257,-0.38723 0.051,-0.16261 0.22324,-0.25356 0.38585,-0.20257 z m 0,0"
       id="path13450" /><path
       fill-rule="evenodd"
       fill="#5000c8"
       fill-opacity="1"
       stroke-width="0.0823528"
       stroke-linecap="butt"
       stroke-linejoin="miter"
       stroke="#5000c8"
       stroke-opacity="1"
       stroke-miterlimit="4"
       d="m 251.17088,213.40276 c 0.1695,0 0.30868,0.1378 0.30868,0.30868 0,0.1695 -0.13918,0.30868 -0.30868,0.30868 -0.17088,0 -0.30868,-0.14194 -0.30868,-0.30868 0,-0.17088 0.1378,-0.30868 0.30868,-0.30868 z m 0,0"
       id="path13452" /></g></svg>
