<?xml version="1.0" encoding="UTF-8" standalone="no"?>
<!-- Created with Inkscape (http://www.inkscape.org/) -->

<svg
   width="4.7194519mm"
   height="4.7359772mm"
   viewBox="0 0 4.7194519 4.7359772"
   version="1.1"
   id="svg4110"
   xml:space="preserve"
   xmlns:inkscape="http://www.inkscape.org/namespaces/inkscape"
   xmlns:sodipodi="http://sodipodi.sourceforge.net/DTD/sodipodi-0.dtd"
   xmlns="http://www.w3.org/2000/svg"
   xmlns:svg="http://www.w3.org/2000/svg"><sodipodi:namedview
     id="namedview4112"
     pagecolor="#ffffff"
     bordercolor="#000000"
     borderopacity="0.25"
     inkscape:showpageshadow="2"
     inkscape:pageopacity="0.0"
     inkscape:pagecheckerboard="0"
     inkscape:deskcolor="#d1d1d1"
     inkscape:document-units="mm"
     showgrid="false"
     inkscape:zoom="0.2102413"
     inkscape:cx="244.95663"
     inkscape:cy="561.25984"
     inkscape:window-width="1728"
     inkscape:window-height="1080"
     inkscape:window-x="0"
     inkscape:window-y="37"
     inkscape:window-maximized="0"
     inkscape:current-layer="layer1" /><defs
     id="defs4107" /><g
     inkscape:label="Layer 1"
     inkscape:groupmode="layer"
     id="layer1"
     transform="translate(-247.45586,-220.65968)"><path
       fill="none"
       stroke-width="0.619368"
       stroke-linecap="round"
       stroke-linejoin="round"
       stroke="#000000"
       stroke-opacity="1"
       stroke-miterlimit="4"
       d="m 248.55261,221.00953 1.305,4.03627 1.23886,-4.03627 m -3.29076,0 h 1.48001 m 2.53973,0 h -1.4621"
       id="path13078" /><path
       fill-rule="evenodd"
       fill="#000000"
       fill-opacity="1"
       stroke-width="0.082353"
       stroke-linecap="butt"
       stroke-linejoin="miter"
       stroke="#000000"
       stroke-opacity="1"
       stroke-miterlimit="4"
       d="m 248.64769,221.30305 c -0.16123,0.0524 -0.33624,-0.0358 -0.38861,-0.19844 -0.0524,-0.16261 0.0372,-0.33624 0.19844,-0.3886 0.16261,-0.0524 0.33762,0.04 0.38999,0.19843 0.0524,0.16261 -0.0372,0.33624 -0.19982,0.38861 z m 0,0"
       id="path13080" /><path
       fill-rule="evenodd"
       fill="#000000"
       fill-opacity="1"
       stroke-width="0.0823529"
       stroke-linecap="butt"
       stroke-linejoin="miter"
       stroke="#000000"
       stroke-opacity="1"
       stroke-miterlimit="4"
       d="m 250.16629,225.04305 c 0.001,0.17087 -0.13642,0.31005 -0.30592,0.31143 -0.17088,0.001 -0.31006,-0.13642 -0.31144,-0.30592 -0.001,-0.17088 0.13918,-0.31006 0.30592,-0.31144 0.17088,-0.001 0.31006,0.13643 0.31144,0.30593 z m 0,0"
       id="path13082" /><path
       fill-rule="evenodd"
       fill="#000000"
       fill-opacity="1"
       stroke-width="0.0823531"
       stroke-linecap="butt"
       stroke-linejoin="miter"
       stroke="#000000"
       stroke-opacity="1"
       stroke-miterlimit="4"
       d="m 251.18742,220.71463 c 0.16261,0.0496 0.25356,0.22324 0.20395,0.38585 -0.0496,0.1626 -0.22324,0.25494 -0.38585,0.20395 -0.16261,-0.0496 -0.25356,-0.226 -0.20395,-0.38585 0.0496,-0.16261 0.22186,-0.25356 0.38585,-0.20395 z m 0,0"
       id="path13084" /><path
       fill-rule="evenodd"
       fill="#000000"
       fill-opacity="1"
       stroke-width="0.0823528"
       stroke-linecap="butt"
       stroke-linejoin="miter"
       stroke="#000000"
       stroke-opacity="1"
       stroke-miterlimit="4"
       d="m 248.11439,221.00953 c 0,0.17088 -0.1378,0.30868 -0.30868,0.30868 -0.17088,0 -0.30868,-0.1378 -0.30868,-0.30868 0,-0.17088 0.14194,-0.30868 0.30868,-0.30868 0.17088,0 0.30868,0.1378 0.30868,0.30868 z m 0,0"
       id="path13086" /><path
       fill-rule="evenodd"
       fill="#000000"
       fill-opacity="1"
       stroke-width="0.0823528"
       stroke-linecap="butt"
       stroke-linejoin="miter"
       stroke="#000000"
       stroke-opacity="1"
       stroke-miterlimit="4"
       d="m 249.5944,221.00953 c 0,0.17088 -0.1378,0.30868 -0.30868,0.30868 -0.17087,0 -0.30868,-0.1378 -0.30868,-0.30868 0,-0.17088 0.14194,-0.30868 0.30868,-0.30868 0.17088,0 0.30868,0.1378 0.30868,0.30868 z m 0,0"
       id="path13088" /><path
       fill-rule="evenodd"
       fill="#000000"
       fill-opacity="1"
       stroke-width="0.0823528"
       stroke-linecap="butt"
       stroke-linejoin="miter"
       stroke="#000000"
       stroke-opacity="1"
       stroke-miterlimit="4"
       d="m 251.51677,221.00953 c 0,-0.17088 0.1378,-0.30868 0.30868,-0.30868 0.1695,0 0.30868,0.1378 0.30868,0.30868 0,0.17088 -0.14194,0.30868 -0.30868,0.30868 -0.17088,0 -0.30868,-0.1378 -0.30868,-0.30868 z m 0,0"
       id="path13090" /><path
       fill-rule="evenodd"
       fill="#000000"
       fill-opacity="1"
       stroke-width="0.0823528"
       stroke-linecap="butt"
       stroke-linejoin="miter"
       stroke="#000000"
       stroke-opacity="1"
       stroke-miterlimit="4"
       d="m 250.05467,221.00953 c 0,-0.17088 0.13918,-0.30868 0.30868,-0.30868 0.17088,0 0.31006,0.1378 0.31006,0.30868 0,0.17088 -0.14332,0.30868 -0.31006,0.30868 -0.1695,0 -0.30868,-0.1378 -0.30868,-0.30868 z m 0,0"
       id="path13092" /><path
       fill-rule="evenodd"
       fill="#5000c8"
       fill-opacity="1"
       stroke-width="0.082353"
       stroke-linecap="butt"
       stroke-linejoin="miter"
       stroke="#5000c8"
       stroke-opacity="1"
       stroke-miterlimit="4"
       d="m 248.64769,221.30305 c -0.16123,0.0524 -0.33624,-0.0358 -0.38861,-0.19844 -0.0524,-0.16261 0.0372,-0.33624 0.19844,-0.3886 0.16261,-0.0524 0.33762,0.04 0.38999,0.19843 0.0524,0.16261 -0.0372,0.33624 -0.19982,0.38861 z m 0,0"
       id="path13454" /><path
       fill-rule="evenodd"
       fill="#5000c8"
       fill-opacity="1"
       stroke-width="0.0823529"
       stroke-linecap="butt"
       stroke-linejoin="miter"
       stroke="#5000c8"
       stroke-opacity="1"
       stroke-miterlimit="4"
       d="m 250.16629,225.04305 c 0.001,0.17087 -0.13642,0.31005 -0.30592,0.31143 -0.17088,0.001 -0.31006,-0.13642 -0.31144,-0.30592 -0.001,-0.17088 0.13918,-0.31006 0.30592,-0.31144 0.17088,-0.001 0.31006,0.13643 0.31144,0.30593 z m 0,0"
       id="path13456" /><path
       fill-rule="evenodd"
       fill="#5000c8"
       fill-opacity="1"
       stroke-width="0.0823531"
       stroke-linecap="butt"
       stroke-linejoin="miter"
       stroke="#5000c8"
       stroke-opacity="1"
       stroke-miterlimit="4"
       d="m 251.18742,220.71463 c 0.16261,0.0496 0.25356,0.22324 0.20395,0.38585 -0.0496,0.1626 -0.22324,0.25494 -0.38585,0.20395 -0.16261,-0.0496 -0.25356,-0.226 -0.20395,-0.38585 0.0496,-0.16261 0.22186,-0.25356 0.38585,-0.20395 z m 0,0"
       id="path13458" /><path
       fill-rule="evenodd"
       fill="#5000c8"
       fill-opacity="1"
       stroke-width="0.0823528"
       stroke-linecap="butt"
       stroke-linejoin="miter"
       stroke="#5000c8"
       stroke-opacity="1"
       stroke-miterlimit="4"
       d="m 248.11439,221.00953 c 0,0.17088 -0.1378,0.30868 -0.30868,0.30868 -0.17088,0 -0.30868,-0.1378 -0.30868,-0.30868 0,-0.17088 0.14194,-0.30868 0.30868,-0.30868 0.17088,0 0.30868,0.1378 0.30868,0.30868 z m 0,0"
       id="path13460" /><path
       fill-rule="evenodd"
       fill="#5000c8"
       fill-opacity="1"
       stroke-width="0.0823528"
       stroke-linecap="butt"
       stroke-linejoin="miter"
       stroke="#5000c8"
       stroke-opacity="1"
       stroke-miterlimit="4"
       d="m 249.5944,221.00953 c 0,0.17088 -0.1378,0.30868 -0.30868,0.30868 -0.17087,0 -0.30868,-0.1378 -0.30868,-0.30868 0,-0.17088 0.14194,-0.30868 0.30868,-0.30868 0.17088,0 0.30868,0.1378 0.30868,0.30868 z m 0,0"
       id="path13462" /><path
       fill-rule="evenodd"
       fill="#5000c8"
       fill-opacity="1"
       stroke-width="0.0823528"
       stroke-linecap="butt"
       stroke-linejoin="miter"
       stroke="#5000c8"
       stroke-opacity="1"
       stroke-miterlimit="4"
       d="m 251.51677,221.00953 c 0,-0.17088 0.1378,-0.30868 0.30868,-0.30868 0.1695,0 0.30868,0.1378 0.30868,0.30868 0,0.17088 -0.14194,0.30868 -0.30868,0.30868 -0.17088,0 -0.30868,-0.1378 -0.30868,-0.30868 z m 0,0"
       id="path13464" /><path
       fill-rule="evenodd"
       fill="#5000c8"
       fill-opacity="1"
       stroke-width="0.0823528"
       stroke-linecap="butt"
       stroke-linejoin="miter"
       stroke="#5000c8"
       stroke-opacity="1"
       stroke-miterlimit="4"
       d="m 250.05467,221.00953 c 0,-0.17088 0.13918,-0.30868 0.30868,-0.30868 0.17088,0 0.31006,0.1378 0.31006,0.30868 0,0.17088 -0.14332,0.30868 -0.31006,0.30868 -0.1695,0 -0.30868,-0.1378 -0.30868,-0.30868 z m 0,0"
       id="path13466" /></g></svg>
