<?xml version="1.0" encoding="UTF-8" standalone="no"?>
<!-- Created with Inkscape (http://www.inkscape.org/) -->

<svg
   width="3.881546mm"
   height="4.8420868mm"
   viewBox="0 0 3.881546 4.8420868"
   version="1.1"
   id="svg4110"
   xml:space="preserve"
   xmlns:inkscape="http://www.inkscape.org/namespaces/inkscape"
   xmlns:sodipodi="http://sodipodi.sourceforge.net/DTD/sodipodi-0.dtd"
   xmlns="http://www.w3.org/2000/svg"
   xmlns:svg="http://www.w3.org/2000/svg"><sodipodi:namedview
     id="namedview4112"
     pagecolor="#ffffff"
     bordercolor="#000000"
     borderopacity="0.25"
     inkscape:showpageshadow="2"
     inkscape:pageopacity="0.0"
     inkscape:pagecheckerboard="0"
     inkscape:deskcolor="#d1d1d1"
     inkscape:document-units="mm"
     showgrid="false"
     inkscape:zoom="0.2102413"
     inkscape:cx="244.95663"
     inkscape:cy="561.25984"
     inkscape:window-width="1728"
     inkscape:window-height="1080"
     inkscape:window-x="0"
     inkscape:window-y="37"
     inkscape:window-maximized="0"
     inkscape:current-layer="layer1" /><defs
     id="defs4107" /><g
     inkscape:label="Layer 1"
     inkscape:groupmode="layer"
     id="layer1"
     transform="translate(-247.93143,-227.87776)"><path
       fill="none"
       stroke-width="0.619368"
       stroke-linecap="round"
       stroke-linejoin="round"
       stroke="#000000"
       stroke-opacity="1"
       stroke-miterlimit="4"
       d="m 248.28251,228.22769 0.36656,4.14239 1.20716,-2.3785 1.20854,2.3785 0.39825,-4.14239"
       id="path13094" /><path
       fill-rule="evenodd"
       fill="#000000"
       fill-opacity="1"
       stroke-width="0.0823529"
       stroke-linecap="butt"
       stroke-linejoin="miter"
       stroke="#000000"
       stroke-opacity="1"
       stroke-miterlimit="4"
       d="m 248.30869,228.53637 c -0.16951,0.0136 -0.3197,-0.11162 -0.33486,-0.28112 -0.0152,-0.1695 0.11162,-0.3197 0.28112,-0.33486 0.1695,-0.0152 0.3197,0.11438 0.33486,0.28112 0.0152,0.1695 -0.11024,0.31971 -0.28112,0.33486 z m 0,0"
       id="path13096" /><path
       fill-rule="evenodd"
       fill="#000000"
       fill-opacity="1"
       stroke-width="0.0823531"
       stroke-linecap="butt"
       stroke-linejoin="miter"
       stroke="#000000"
       stroke-opacity="1"
       stroke-miterlimit="4"
       d="m 248.95224,232.42795 c -0.0318,0.16673 -0.1943,0.27699 -0.36105,0.24529 -0.1681,-0.0332 -0.27698,-0.1943 -0.24529,-0.36242 0.0329,-0.16678 0.19844,-0.27561 0.36243,-0.24391 0.16672,0.0318 0.27698,0.1943 0.24391,0.36104 z m 0,0"
       id="path13098" /><path
       fill-rule="evenodd"
       fill="#000000"
       fill-opacity="1"
       stroke-width="0.0823528"
       stroke-linecap="butt"
       stroke-linejoin="miter"
       stroke="#000000"
       stroke-opacity="1"
       stroke-miterlimit="4"
       d="m 250.16491,229.99157 c 0,0.1695 -0.1378,0.30868 -0.30868,0.30868 -0.1695,0 -0.30868,-0.13918 -0.30868,-0.30868 0,-0.17088 0.14194,-0.30868 0.30868,-0.30868 0.17088,0 0.30868,0.1378 0.30868,0.30868 z m 0,0"
       id="path13100" /><path
       fill-rule="evenodd"
       fill="#000000"
       fill-opacity="1"
       stroke-width="0.0823529"
       stroke-linecap="butt"
       stroke-linejoin="miter"
       stroke="#000000"
       stroke-opacity="1"
       stroke-miterlimit="4"
       d="m 251.36932,232.3122 c 0.0317,0.16674 -0.0785,0.32935 -0.24667,0.36104 -0.16674,0.0317 -0.32935,-0.0785 -0.36105,-0.24667 -0.0317,-0.16674 0.0827,-0.32935 0.24667,-0.36104 0.16674,-0.0317 0.32935,0.0786 0.36105,0.24667 z m 0,0"
       id="path13102" /><path
       fill-rule="evenodd"
       fill="#000000"
       fill-opacity="1"
       stroke-width="0.082353"
       stroke-linecap="butt"
       stroke-linejoin="miter"
       stroke="#000000"
       stroke-opacity="1"
       stroke-miterlimit="4"
       d="m 251.49196,227.92039 c 0.17088,0.0165 0.2949,0.16812 0.27836,0.33762 -0.0165,0.1695 -0.16674,0.29352 -0.33624,0.27699 -0.17089,-0.015 -0.2949,-0.17088 -0.27836,-0.33625 0.0165,-0.1695 0.16674,-0.2949 0.33624,-0.27836 z m 0,0"
       id="path13104" /><path
       fill-rule="evenodd"
       fill="#5000c8"
       fill-opacity="1"
       stroke-width="0.0823529"
       stroke-linecap="butt"
       stroke-linejoin="miter"
       stroke="#5000c8"
       stroke-opacity="1"
       stroke-miterlimit="4"
       d="m 248.30869,228.53637 c -0.16951,0.0136 -0.3197,-0.11162 -0.33486,-0.28112 -0.0152,-0.1695 0.11162,-0.3197 0.28112,-0.33486 0.1695,-0.0152 0.3197,0.11438 0.33486,0.28112 0.0152,0.1695 -0.11024,0.31971 -0.28112,0.33486 z m 0,0"
       id="path13468" /><path
       fill-rule="evenodd"
       fill="#5000c8"
       fill-opacity="1"
       stroke-width="0.0823531"
       stroke-linecap="butt"
       stroke-linejoin="miter"
       stroke="#5000c8"
       stroke-opacity="1"
       stroke-miterlimit="4"
       d="m 248.95224,232.42795 c -0.0318,0.16673 -0.1943,0.27699 -0.36105,0.24529 -0.1681,-0.0332 -0.27698,-0.1943 -0.24529,-0.36242 0.0329,-0.16678 0.19844,-0.27561 0.36243,-0.24391 0.16672,0.0318 0.27698,0.1943 0.24391,0.36104 z m 0,0"
       id="path13470" /><path
       fill-rule="evenodd"
       fill="#5000c8"
       fill-opacity="1"
       stroke-width="0.0823528"
       stroke-linecap="butt"
       stroke-linejoin="miter"
       stroke="#5000c8"
       stroke-opacity="1"
       stroke-miterlimit="4"
       d="m 250.16491,229.99157 c 0,0.1695 -0.1378,0.30868 -0.30868,0.30868 -0.1695,0 -0.30868,-0.13918 -0.30868,-0.30868 0,-0.17088 0.14194,-0.30868 0.30868,-0.30868 0.17088,0 0.30868,0.1378 0.30868,0.30868 z m 0,0"
       id="path13472" /><path
       fill-rule="evenodd"
       fill="#5000c8"
       fill-opacity="1"
       stroke-width="0.0823529"
       stroke-linecap="butt"
       stroke-linejoin="miter"
       stroke="#5000c8"
       stroke-opacity="1"
       stroke-miterlimit="4"
       d="m 251.36932,232.3122 c 0.0317,0.16674 -0.0785,0.32935 -0.24667,0.36104 -0.16674,0.0317 -0.32935,-0.0785 -0.36105,-0.24667 -0.0317,-0.16674 0.0827,-0.32935 0.24667,-0.36104 0.16674,-0.0317 0.32935,0.0786 0.36105,0.24667 z m 0,0"
       id="path13474" /><path
       fill-rule="evenodd"
       fill="#5000c8"
       fill-opacity="1"
       stroke-width="0.082353"
       stroke-linecap="butt"
       stroke-linejoin="miter"
       stroke="#5000c8"
       stroke-opacity="1"
       stroke-miterlimit="4"
       d="m 251.49196,227.92039 c 0.17088,0.0165 0.2949,0.16812 0.27836,0.33762 -0.0165,0.1695 -0.16674,0.29352 -0.33624,0.27699 -0.17089,-0.015 -0.2949,-0.17088 -0.27836,-0.33625 0.0165,-0.1695 0.16674,-0.2949 0.33624,-0.27836 z m 0,0"
       id="path13476" /></g></svg>
