<?xml version="1.0" encoding="UTF-8" standalone="no"?>
<!-- Created with Inkscape (http://www.inkscape.org/) -->

<svg
   width="3.490448mm"
   height="4.8412933mm"
   viewBox="0 0 3.490448 4.8412933"
   version="1.1"
   id="svg4110"
   xml:space="preserve"
   xmlns:inkscape="http://www.inkscape.org/namespaces/inkscape"
   xmlns:sodipodi="http://sodipodi.sourceforge.net/DTD/sodipodi-0.dtd"
   xmlns="http://www.w3.org/2000/svg"
   xmlns:svg="http://www.w3.org/2000/svg"><sodipodi:namedview
     id="namedview4112"
     pagecolor="#ffffff"
     bordercolor="#000000"
     borderopacity="0.25"
     inkscape:showpageshadow="2"
     inkscape:pageopacity="0.0"
     inkscape:pagecheckerboard="0"
     inkscape:deskcolor="#d1d1d1"
     inkscape:document-units="mm"
     showgrid="false"
     inkscape:zoom="0.2102413"
     inkscape:cx="244.95663"
     inkscape:cy="561.25984"
     inkscape:window-width="1728"
     inkscape:window-height="1080"
     inkscape:window-x="0"
     inkscape:window-y="37"
     inkscape:window-maximized="0"
     inkscape:current-layer="layer1" /><defs
     id="defs4107" /><g
     inkscape:label="Layer 1"
     inkscape:groupmode="layer"
     id="layer1"
     transform="translate(-248.06005,-235.14814)"><path
       fill="none"
       stroke-width="0.619368"
       stroke-linecap="round"
       stroke-linejoin="round"
       stroke="#000000"
       stroke-opacity="1"
       stroke-miterlimit="4"
       d="m 248.40929,239.63923 1.44832,-2.0712 1.31327,-2.06981 m -2.65686,0.0152 2.6858,4.11069"
       id="path13106" /><path
       fill-rule="evenodd"
       fill="#000000"
       fill-opacity="1"
       stroke-width="0.0823531"
       stroke-linecap="butt"
       stroke-linejoin="miter"
       stroke="#000000"
       stroke-opacity="1"
       stroke-miterlimit="4"
       d="m 248.58706,239.38567 c 0.13918,0.0978 0.17363,0.29076 0.0758,0.42995 -0.0978,0.14056 -0.29077,0.17501 -0.42995,0.0772 -0.14056,-0.0978 -0.17225,-0.29351 -0.0772,-0.42994 0.0978,-0.14056 0.29077,-0.17501 0.43133,-0.0772 z m 0,0"
       id="path13108" /><path
       fill-rule="evenodd"
       fill="#000000"
       fill-opacity="1"
       stroke-width="0.082353"
       stroke-linecap="butt"
       stroke-linejoin="miter"
       stroke="#000000"
       stroke-opacity="1"
       stroke-miterlimit="4"
       d="m 250.02849,237.31172 c 0.14194,0.0951 0.18052,0.28663 0.0854,0.42857 -0.0936,0.14202 -0.28525,0.18052 -0.42719,0.0854 -0.14195,-0.0951 -0.17914,-0.28939 -0.0868,-0.42857 0.0951,-0.14195 0.28663,-0.18052 0.42857,-0.0854 z m 0,0"
       id="path13110" /><path
       fill-rule="evenodd"
       fill="#000000"
       fill-opacity="1"
       stroke-width="0.082353"
       stroke-linecap="butt"
       stroke-linejoin="miter"
       stroke="#000000"
       stroke-opacity="1"
       stroke-miterlimit="4"
       d="m 251.33624,235.23777 c 0.14332,0.0909 0.18604,0.28112 0.0951,0.42582 -0.0909,0.14331 -0.2825,0.18603 -0.42581,0.0951 -0.14479,-0.0908 -0.18466,-0.28525 -0.0965,-0.42581 0.0923,-0.14474 0.2825,-0.18742 0.42719,-0.0951 z m 0,0"
       id="path13112" /><path
       fill-rule="evenodd"
       fill="#000000"
       fill-opacity="1"
       stroke-width="0.0823531"
       stroke-linecap="butt"
       stroke-linejoin="miter"
       stroke="#000000"
       stroke-opacity="1"
       stroke-miterlimit="4"
       d="m 248.68352,235.77107 c -0.14331,0.0937 -0.33486,0.0537 -0.42719,-0.0896 -0.0937,-0.14193 -0.0537,-0.33349 0.0896,-0.42719 0.14193,-0.0937 0.33624,-0.0496 0.42719,0.0896 0.0937,0.14332 0.0524,0.33487 -0.0896,0.42719 z m 0,0"
       id="path13114" /><path
       fill-rule="evenodd"
       fill="#000000"
       fill-opacity="1"
       stroke-width="0.0823531"
       stroke-linecap="butt"
       stroke-linejoin="miter"
       stroke="#000000"
       stroke-opacity="1"
       stroke-miterlimit="4"
       d="m 251.36932,239.88314 c -0.14342,0.0922 -0.33487,0.0524 -0.4272,-0.0896 -0.0937,-0.14332 -0.0537,-0.33487 0.0896,-0.42719 0.14192,-0.0937 0.33624,-0.051 0.42719,0.0896 0.0937,0.14192 0.0537,0.33348 -0.0896,0.42719 z m 0,0"
       id="path13116" /><path
       fill-rule="evenodd"
       fill="#5000c8"
       fill-opacity="1"
       stroke-width="0.0823531"
       stroke-linecap="butt"
       stroke-linejoin="miter"
       stroke="#5000c8"
       stroke-opacity="1"
       stroke-miterlimit="4"
       d="m 248.58706,239.38567 c 0.13918,0.0978 0.17363,0.29076 0.0758,0.42995 -0.0978,0.14056 -0.29077,0.17501 -0.42995,0.0772 -0.14056,-0.0978 -0.17225,-0.29351 -0.0772,-0.42994 0.0978,-0.14056 0.29077,-0.17501 0.43133,-0.0772 z m 0,0"
       id="path13478" /><path
       fill-rule="evenodd"
       fill="#5000c8"
       fill-opacity="1"
       stroke-width="0.082353"
       stroke-linecap="butt"
       stroke-linejoin="miter"
       stroke="#5000c8"
       stroke-opacity="1"
       stroke-miterlimit="4"
       d="m 250.02849,237.31172 c 0.14194,0.0951 0.18052,0.28663 0.0854,0.42857 -0.0936,0.14202 -0.28525,0.18052 -0.42719,0.0854 -0.14195,-0.0951 -0.17914,-0.28939 -0.0868,-0.42857 0.0951,-0.14195 0.28663,-0.18052 0.42857,-0.0854 z m 0,0"
       id="path13480" /><path
       fill-rule="evenodd"
       fill="#5000c8"
       fill-opacity="1"
       stroke-width="0.082353"
       stroke-linecap="butt"
       stroke-linejoin="miter"
       stroke="#5000c8"
       stroke-opacity="1"
       stroke-miterlimit="4"
       d="m 251.33624,235.23777 c 0.14332,0.0909 0.18604,0.28112 0.0951,0.42582 -0.0909,0.14331 -0.2825,0.18603 -0.42581,0.0951 -0.14479,-0.0908 -0.18466,-0.28525 -0.0965,-0.42581 0.0923,-0.14474 0.2825,-0.18742 0.42719,-0.0951 z m 0,0"
       id="path13482" /><path
       fill-rule="evenodd"
       fill="#5000c8"
       fill-opacity="1"
       stroke-width="0.0823531"
       stroke-linecap="butt"
       stroke-linejoin="miter"
       stroke="#5000c8"
       stroke-opacity="1"
       stroke-miterlimit="4"
       d="m 248.68352,235.77107 c -0.14331,0.0937 -0.33486,0.0537 -0.42719,-0.0896 -0.0937,-0.14193 -0.0537,-0.33349 0.0896,-0.42719 0.14193,-0.0937 0.33624,-0.0496 0.42719,0.0896 0.0937,0.14332 0.0524,0.33487 -0.0896,0.42719 z m 0,0"
       id="path13484" /><path
       fill-rule="evenodd"
       fill="#5000c8"
       fill-opacity="1"
       stroke-width="0.0823531"
       stroke-linecap="butt"
       stroke-linejoin="miter"
       stroke="#5000c8"
       stroke-opacity="1"
       stroke-miterlimit="4"
       d="m 251.36932,239.88314 c -0.14342,0.0922 -0.33487,0.0524 -0.4272,-0.0896 -0.0937,-0.14332 -0.0537,-0.33487 0.0896,-0.42719 0.14192,-0.0937 0.33624,-0.051 0.42719,0.0896 0.0937,0.14192 0.0537,0.33348 -0.0896,0.42719 z m 0,0"
       id="path13486" /></g></svg>
