<?xml version="1.0" encoding="UTF-8" standalone="no"?>
<!-- Created with Inkscape (http://www.inkscape.org/) -->

<svg
   width="3.7909241mm"
   height="4.8561707mm"
   viewBox="0 0 3.7909241 4.8561707"
   version="1.1"
   id="svg4110"
   xml:space="preserve"
   xmlns:inkscape="http://www.inkscape.org/namespaces/inkscape"
   xmlns:sodipodi="http://sodipodi.sourceforge.net/DTD/sodipodi-0.dtd"
   xmlns="http://www.w3.org/2000/svg"
   xmlns:svg="http://www.w3.org/2000/svg"><sodipodi:namedview
     id="namedview4112"
     pagecolor="#ffffff"
     bordercolor="#000000"
     borderopacity="0.25"
     inkscape:showpageshadow="2"
     inkscape:pageopacity="0.0"
     inkscape:pagecheckerboard="0"
     inkscape:deskcolor="#d1d1d1"
     inkscape:document-units="mm"
     showgrid="false"
     inkscape:zoom="0.2102413"
     inkscape:cx="244.95663"
     inkscape:cy="561.25984"
     inkscape:window-width="1728"
     inkscape:window-height="1080"
     inkscape:window-x="0"
     inkscape:window-y="37"
     inkscape:window-maximized="0"
     inkscape:current-layer="layer1" /><defs
     id="defs4107" /><g
     inkscape:label="Layer 1"
     inkscape:groupmode="layer"
     id="layer1"
     transform="translate(-247.9397,-242.37312)"><path
       fill="none"
       stroke-width="0.619368"
       stroke-linecap="round"
       stroke-linejoin="round"
       stroke="#000000"
       stroke-opacity="1"
       stroke-miterlimit="4"
       d="m 249.85761,245.10866 -1.56821,-2.37849 m 1.56821,4.14927 v -1.77078 l 1.52273,-2.38539 m -2.28754,4.15617 h 1.51446"
       id="path13128" /><path
       fill-rule="evenodd"
       fill="#000000"
       fill-opacity="1"
       stroke-width="0.0823531"
       stroke-linecap="butt"
       stroke-linejoin="miter"
       stroke="#000000"
       stroke-opacity="1"
       stroke-miterlimit="4"
       d="m 249.68811,244.85097 c 0.14194,-0.0937 0.33349,-0.0551 0.42719,0.0882 0.0937,0.14194 0.0551,0.33348 -0.0882,0.42719 -0.14194,0.0937 -0.33625,0.051 -0.42719,-0.0882 -0.0937,-0.14194 -0.0551,-0.33348 0.0882,-0.42719 z m 0,0"
       id="path13130" /><path
       fill-rule="evenodd"
       fill="#000000"
       fill-opacity="1"
       stroke-width="0.0823531"
       stroke-linecap="butt"
       stroke-linejoin="miter"
       stroke="#000000"
       stroke-opacity="1"
       stroke-miterlimit="4"
       d="m 248.1199,242.47247 c 0.14194,-0.0937 0.33349,-0.0551 0.42719,0.0882 0.0937,0.14194 0.0551,0.33348 -0.0882,0.42719 -0.14194,0.0937 -0.33486,0.051 -0.42719,-0.0882 -0.0937,-0.14194 -0.0551,-0.33349 0.0882,-0.4272 z m 0,0"
       id="path13132" /><path
       fill-rule="evenodd"
       fill="#000000"
       fill-opacity="1"
       stroke-width="0.0823528"
       stroke-linecap="butt"
       stroke-linejoin="miter"
       stroke="#000000"
       stroke-opacity="1"
       stroke-miterlimit="4"
       d="m 249.85761,246.57076 c 0.17088,0 0.30868,0.1378 0.30868,0.30868 0,0.1695 -0.1378,0.30868 -0.30868,0.30868 -0.17088,0 -0.30868,-0.14194 -0.30868,-0.30868 0,-0.17088 0.1378,-0.30868 0.30868,-0.30868 z m 0,0"
       id="path13134" /><path
       fill-rule="evenodd"
       fill="#000000"
       fill-opacity="1"
       stroke-width="0.0823528"
       stroke-linecap="butt"
       stroke-linejoin="miter"
       stroke="#000000"
       stroke-opacity="1"
       stroke-miterlimit="4"
       d="m 249.94442,244.81238 c 0.16265,0.0467 0.2577,0.21911 0.20947,0.3831 -0.0482,0.1626 -0.21911,0.25769 -0.3831,0.20946 -0.16399,-0.0482 -0.25631,-0.22324 -0.20946,-0.38309 0.0467,-0.16402 0.21911,-0.2577 0.38309,-0.20947 z m 0,0"
       id="path13136" /><path
       fill-rule="evenodd"
       fill="#000000"
       fill-opacity="1"
       stroke-width="0.082353"
       stroke-linecap="butt"
       stroke-linejoin="miter"
       stroke="#000000"
       stroke-opacity="1"
       stroke-miterlimit="4"
       d="m 251.54709,242.46283 c 0.14329,0.091 0.18603,0.28249 0.0937,0.42581 -0.0924,0.14324 -0.2825,0.18604 -0.42719,0.0951 -0.14325,-0.0924 -0.18328,-0.28664 -0.0937,-0.4272 0.0924,-0.14324 0.2825,-0.18603 0.4272,-0.0937 z m 0,0"
       id="path13138" /><path
       fill-rule="evenodd"
       fill="#000000"
       fill-opacity="1"
       stroke-width="0.0823528"
       stroke-linecap="butt"
       stroke-linejoin="miter"
       stroke="#000000"
       stroke-opacity="1"
       stroke-miterlimit="4"
       d="m 249.40148,246.87944 c 0,0.1695 -0.13918,0.30868 -0.30868,0.30868 -0.17088,0 -0.31006,-0.13918 -0.31006,-0.30868 0,-0.17088 0.14332,-0.30868 0.31006,-0.30868 0.1695,0 0.30868,0.1378 0.30868,0.30868 z m 0,0"
       id="path13140" /><path
       fill-rule="evenodd"
       fill="#000000"
       fill-opacity="1"
       stroke-width="0.0823528"
       stroke-linecap="butt"
       stroke-linejoin="miter"
       stroke="#000000"
       stroke-opacity="1"
       stroke-miterlimit="4"
       d="m 250.91594,246.87944 c 0,0.1695 -0.1378,0.30868 -0.30868,0.30868 -0.1695,0 -0.30868,-0.13918 -0.30868,-0.30868 0,-0.17088 0.14194,-0.30868 0.30868,-0.30868 0.17088,0 0.30868,0.1378 0.30868,0.30868 z m 0,0"
       id="path13142" /><path
       fill-rule="evenodd"
       fill="#5000c8"
       fill-opacity="1"
       stroke-width="0.0823531"
       stroke-linecap="butt"
       stroke-linejoin="miter"
       stroke="#5000c8"
       stroke-opacity="1"
       stroke-miterlimit="4"
       d="m 249.68811,244.85097 c 0.14194,-0.0937 0.33349,-0.0551 0.42719,0.0882 0.0937,0.14194 0.0551,0.33348 -0.0882,0.42719 -0.14194,0.0937 -0.33625,0.051 -0.42719,-0.0882 -0.0937,-0.14194 -0.0551,-0.33348 0.0882,-0.42719 z m 0,0"
       id="path13496" /><path
       fill-rule="evenodd"
       fill="#5000c8"
       fill-opacity="1"
       stroke-width="0.0823531"
       stroke-linecap="butt"
       stroke-linejoin="miter"
       stroke="#5000c8"
       stroke-opacity="1"
       stroke-miterlimit="4"
       d="m 248.1199,242.47247 c 0.14194,-0.0937 0.33349,-0.0551 0.42719,0.0882 0.0937,0.14194 0.0551,0.33348 -0.0882,0.42719 -0.14194,0.0937 -0.33486,0.051 -0.42719,-0.0882 -0.0937,-0.14194 -0.0551,-0.33349 0.0882,-0.4272 z m 0,0"
       id="path13498" /><path
       fill-rule="evenodd"
       fill="#5000c8"
       fill-opacity="1"
       stroke-width="0.0823528"
       stroke-linecap="butt"
       stroke-linejoin="miter"
       stroke="#5000c8"
       stroke-opacity="1"
       stroke-miterlimit="4"
       d="m 249.85761,246.57076 c 0.17088,0 0.30868,0.1378 0.30868,0.30868 0,0.1695 -0.1378,0.30868 -0.30868,0.30868 -0.17088,0 -0.30868,-0.14194 -0.30868,-0.30868 0,-0.17088 0.1378,-0.30868 0.30868,-0.30868 z m 0,0"
       id="path13500" /><path
       fill-rule="evenodd"
       fill="#5000c8"
       fill-opacity="1"
       stroke-width="0.0823528"
       stroke-linecap="butt"
       stroke-linejoin="miter"
       stroke="#5000c8"
       stroke-opacity="1"
       stroke-miterlimit="4"
       d="m 249.94442,244.81238 c 0.16265,0.0467 0.2577,0.21911 0.20947,0.3831 -0.0482,0.1626 -0.21911,0.25769 -0.3831,0.20946 -0.16399,-0.0482 -0.25631,-0.22324 -0.20946,-0.38309 0.0467,-0.16402 0.21911,-0.2577 0.38309,-0.20947 z m 0,0"
       id="path13502" /><path
       fill-rule="evenodd"
       fill="#5000c8"
       fill-opacity="1"
       stroke-width="0.082353"
       stroke-linecap="butt"
       stroke-linejoin="miter"
       stroke="#5000c8"
       stroke-opacity="1"
       stroke-miterlimit="4"
       d="m 251.54709,242.46283 c 0.14329,0.091 0.18603,0.28249 0.0937,0.42581 -0.0924,0.14324 -0.2825,0.18604 -0.42719,0.0951 -0.14325,-0.0924 -0.18328,-0.28664 -0.0937,-0.4272 0.0924,-0.14324 0.2825,-0.18603 0.4272,-0.0937 z m 0,0"
       id="path13504" /><path
       fill-rule="evenodd"
       fill="#5000c8"
       fill-opacity="1"
       stroke-width="0.0823528"
       stroke-linecap="butt"
       stroke-linejoin="miter"
       stroke="#5000c8"
       stroke-opacity="1"
       stroke-miterlimit="4"
       d="m 249.40148,246.87944 c 0,0.1695 -0.13918,0.30868 -0.30868,0.30868 -0.17088,0 -0.31006,-0.13918 -0.31006,-0.30868 0,-0.17088 0.14332,-0.30868 0.31006,-0.30868 0.1695,0 0.30868,0.1378 0.30868,0.30868 z m 0,0"
       id="path13506" /><path
       fill-rule="evenodd"
       fill="#5000c8"
       fill-opacity="1"
       stroke-width="0.0823528"
       stroke-linecap="butt"
       stroke-linejoin="miter"
       stroke="#5000c8"
       stroke-opacity="1"
       stroke-miterlimit="4"
       d="m 250.91594,246.87944 c 0,0.1695 -0.1378,0.30868 -0.30868,0.30868 -0.1695,0 -0.30868,-0.13918 -0.30868,-0.30868 0,-0.17088 0.14194,-0.30868 0.30868,-0.30868 0.17088,0 0.30868,0.1378 0.30868,0.30868 z m 0,0"
       id="path13508" /></g></svg>
