<?xml version="1.0" encoding="UTF-8" standalone="no"?>
<!-- Created with Inkscape (http://www.inkscape.org/) -->

<svg
   width="3.4009094mm"
   height="4.8119812mm"
   viewBox="0 0 3.4009094 4.8119812"
   version="1.1"
   id="svg4110"
   xml:space="preserve"
   xmlns:inkscape="http://www.inkscape.org/namespaces/inkscape"
   xmlns:sodipodi="http://sodipodi.sourceforge.net/DTD/sodipodi-0.dtd"
   xmlns="http://www.w3.org/2000/svg"
   xmlns:svg="http://www.w3.org/2000/svg"><sodipodi:namedview
     id="namedview4112"
     pagecolor="#ffffff"
     bordercolor="#000000"
     borderopacity="0.25"
     inkscape:showpageshadow="2"
     inkscape:pageopacity="0.0"
     inkscape:pagecheckerboard="0"
     inkscape:deskcolor="#d1d1d1"
     inkscape:document-units="mm"
     showgrid="false"
     inkscape:zoom="0.2102413"
     inkscape:cx="244.95663"
     inkscape:cy="561.25984"
     inkscape:window-width="1728"
     inkscape:window-height="1080"
     inkscape:window-x="0"
     inkscape:window-y="37"
     inkscape:window-maximized="0"
     inkscape:current-layer="layer1" /><defs
     id="defs4107" /><g
     inkscape:label="Layer 1"
     inkscape:groupmode="layer"
     id="layer1"
     transform="translate(-248.10468,-249.70184)"><path
       fill="none"
       stroke-width="0.619368"
       stroke-linecap="round"
       stroke-linejoin="round"
       stroke="#000000"
       stroke-opacity="1"
       stroke-miterlimit="4"
       d="m 248.52918,250.05306 h 2.55075 l -2.62516,4.11069 h 2.70095"
       id="path13118" /><path
       fill-rule="evenodd"
       fill="#000000"
       fill-opacity="1"
       stroke-width="0.0823528"
       stroke-linecap="butt"
       stroke-linejoin="miter"
       stroke="#000000"
       stroke-opacity="1"
       stroke-miterlimit="4"
       d="m 248.83786,250.05306 c 0,0.1695 -0.1378,0.30868 -0.30868,0.30868 -0.1695,0 -0.30868,-0.13918 -0.30868,-0.30868 0,-0.17088 0.14194,-0.31006 0.30868,-0.31006 0.17088,0 0.30868,0.13918 0.30868,0.31006 z m 0,0"
       id="path13120" /><path
       fill-rule="evenodd"
       fill="#000000"
       fill-opacity="1"
       stroke-width="0.082353"
       stroke-linecap="butt"
       stroke-linejoin="miter"
       stroke="#000000"
       stroke-opacity="1"
       stroke-miterlimit="4"
       d="m 251.22876,250.32316 c -0.15021,0.0827 -0.33762,0.0276 -0.41893,-0.12265 -0.0825,-0.14892 -0.0276,-0.33762 0.12265,-0.41892 0.14883,-0.0813 0.33899,-0.0234 0.41892,0.12264 0.0813,0.14883 0.0262,0.33762 -0.12264,0.41893 z m 0,0"
       id="path13122" /><path
       fill-rule="evenodd"
       fill="#000000"
       fill-opacity="1"
       stroke-width="0.082353"
       stroke-linecap="butt"
       stroke-linejoin="miter"
       stroke="#000000"
       stroke-opacity="1"
       stroke-miterlimit="4"
       d="m 248.60222,254.43522 c -0.14883,0.0813 -0.33625,0.0262 -0.41893,-0.12264 -0.0814,-0.15018 -0.0262,-0.33762 0.12265,-0.41893 0.1502,-0.0827 0.33899,-0.0248 0.41892,0.12127 0.0827,0.15021 0.0276,0.33762 -0.12264,0.4203 z m 0,0"
       id="path13124" /><path
       fill-rule="evenodd"
       fill="#000000"
       fill-opacity="1"
       stroke-width="0.0823528"
       stroke-linecap="butt"
       stroke-linejoin="miter"
       stroke="#000000"
       stroke-opacity="1"
       stroke-miterlimit="4"
       d="m 251.4644,254.16375 c 0,0.17088 -0.13918,0.30868 -0.30868,0.30868 -0.17088,0 -0.30868,-0.1378 -0.30868,-0.30868 0,-0.17088 0.14194,-0.30868 0.30868,-0.30868 0.1695,0 0.30868,0.1378 0.30868,0.30868 z m 0,0"
       id="path13126" /><path
       fill-rule="evenodd"
       fill="#5000c8"
       fill-opacity="1"
       stroke-width="0.0823528"
       stroke-linecap="butt"
       stroke-linejoin="miter"
       stroke="#5000c8"
       stroke-opacity="1"
       stroke-miterlimit="4"
       d="m 248.83786,250.05306 c 0,0.1695 -0.1378,0.30868 -0.30868,0.30868 -0.1695,0 -0.30868,-0.13918 -0.30868,-0.30868 0,-0.17088 0.14194,-0.31006 0.30868,-0.31006 0.17088,0 0.30868,0.13918 0.30868,0.31006 z m 0,0"
       id="path13488" /><path
       fill-rule="evenodd"
       fill="#5000c8"
       fill-opacity="1"
       stroke-width="0.082353"
       stroke-linecap="butt"
       stroke-linejoin="miter"
       stroke="#5000c8"
       stroke-opacity="1"
       stroke-miterlimit="4"
       d="m 251.22876,250.32316 c -0.15021,0.0827 -0.33762,0.0276 -0.41893,-0.12265 -0.0825,-0.14892 -0.0276,-0.33762 0.12265,-0.41892 0.14883,-0.0813 0.33899,-0.0234 0.41892,0.12264 0.0813,0.14883 0.0262,0.33762 -0.12264,0.41893 z m 0,0"
       id="path13490" /><path
       fill-rule="evenodd"
       fill="#5000c8"
       fill-opacity="1"
       stroke-width="0.082353"
       stroke-linecap="butt"
       stroke-linejoin="miter"
       stroke="#5000c8"
       stroke-opacity="1"
       stroke-miterlimit="4"
       d="m 248.60222,254.43522 c -0.14883,0.0813 -0.33625,0.0262 -0.41893,-0.12264 -0.0814,-0.15018 -0.0262,-0.33762 0.12265,-0.41893 0.1502,-0.0827 0.33899,-0.0248 0.41892,0.12127 0.0827,0.15021 0.0276,0.33762 -0.12264,0.4203 z m 0,0"
       id="path13492" /><path
       fill-rule="evenodd"
       fill="#5000c8"
       fill-opacity="1"
       stroke-width="0.0823528"
       stroke-linecap="butt"
       stroke-linejoin="miter"
       stroke="#5000c8"
       stroke-opacity="1"
       stroke-miterlimit="4"
       d="m 251.4644,254.16375 c 0,0.17088 -0.13918,0.30868 -0.30868,0.30868 -0.17088,0 -0.30868,-0.1378 -0.30868,-0.30868 0,-0.17088 0.14194,-0.30868 0.30868,-0.30868 0.1695,0 0.30868,0.1378 0.30868,0.30868 z m 0,0"
       id="path13494" /></g></svg>
