<svg xmlns="http://www.w3.org/2000/svg" width="6in" height="6in" viewBox="0 0 6 6"><rect x="0" y="0" width="100%" height="100%" fill="white"></rect><g transform="scale(-6 -6) translate(-1 -1)"><circle cx="0.316835177905" cy="0.101666527911" r="0.013049836201" fill="#FFE498" fill-opacity="0.3996"></circle><circle cx="0.325163359404" cy="0.114131270567" r="0.008405162288" fill="#D2B1DE" fill-opacity="0.3551"></circle><circle cx="0.364456248502" cy="0.111937782889" r="0.010678509368" fill="#FFE498" fill-opacity="0.4924"></circle><circle cx="0.364843439890" cy="0.088045036379" r="0.019136018861" fill="#FFE498" fill-opacity="0.4445"></circle><circle cx="0.106421101564" cy="0.372981398106" r="0.014233274381" fill="#FFE498" fill-opacity="0.4942"></circle><circle cx="0.099308594695" cy="0.363123369716" r="0.005673162439" fill="#D2B1DE" fill-opacity="0.3314"></circle><circle cx="0.288415097582" cy="0.173686727028" r="0.009549631740" fill="#D2B1DE" fill-opacity="0.5923"></circle><circle cx="0.294004989213" cy="0.158803664180" r="0.010905608776" fill="#D2B1DE" fill-opacity="0.4657"></circle><circle cx="0.197805486043" cy="0.249506847619" r="0.018837998873" fill="#FFE498" fill-opacity="0.5195"></circle><circle cx="0.190449293466" cy="0.260816622257" r="0.005886200166" fill="#D2B1DE" fill-opacity="0.3400"></circle><circle cx="0.367189513851" cy="0.165001995616" r="0.007176168122" fill="#FFE498" fill-opacity="0.4451"></circle><circle cx="0.365623257420" cy="0.172080769328" r="0.005303501899" fill="#FFE498" fill-opacity="0.3928"></circle><circle cx="0.472580477738" cy="0.021705944321" r="0.013849478814" fill="#D2B1DE" fill-opacity="0.5389"></circle><circle cx="0.466974873880" cy="0.030463047150" r="0.006866043338" fill="#FFE498" fill-opacity="0.5400"></circle><circle cx="0.586858848283" cy="0.172296283139" r="0.008513455681" fill="#D2B1DE" fill-opacity="0.5815"></circle><circle cx="0.585341503020" cy="0.181149775146" r="0.013920861612" fill="#FFE498" fill-opacity="0.3780"></circle><circle cx="0.152899488351" cy="0.508751361135" r="0.010947018922" fill="#FFE498" fill-opacity="0.4830"></circle><circle cx="0.136175901718" cy="0.495738516805" r="0.019517194069" fill="#D2B1DE" fill-opacity="0.3603"></circle><circle cx="0.884333786227" cy="0.016866042389" r="0.008371744911" fill="#FFE498" fill-opacity="0.5198"></circle><circle cx="0.878035012182" cy="0.025571457748" r="0.014056918003" fill="#FFE498" fill-opacity="0.4276"></circle><circle cx="0.017100194685" cy="0.880155191295" r="0.012672719506" fill="#D2B1DE" fill-opacity="0.5814"></circle><circle cx="0.030699588110" cy="0.900320236536" r="0.017294132393" fill="#D2B1DE" fill-opacity="0.5066"></circle><circle cx="0.944727485165" cy="0.017501281205" r="0.010320309771" fill="#FFE498" fill-opacity="0.5770"></circle><circle cx="0.954529059744" cy="0.012890779331" r="0.005772425062" fill="#FFE498" fill-opacity="0.5924"></circle><circle cx="0.011960392445" cy="0.948876631778" r="0.006501419587" fill="#D2B1DE" fill-opacity="0.3912"></circle><circle cx="0.020166382306" cy="0.952249159245" r="0.007523149742" fill="#D2B1DE" fill-opacity="0.3314"></circle><circle cx="0.963486414238" cy="0.098593671954" r="0.012591458796" fill="#D2B1DE" fill-opacity="0.2824"></circle><circle cx="0.968525190626" cy="0.110074580028" r="0.005080166516" fill="#D2B1DE" fill-opacity="0.5015"></circle><circle cx="0.142275206013" cy="0.974009845168" r="0.010624580444" fill="#D2B1DE" fill-opacity="0.2844"></circle><circle cx="0.131843989933" cy="0.983763910493" r="0.009312197678" fill="#FFE498" fill-opacity="0.5659"></circle><circle cx="0.907754187275" cy="0.292730164259" r="0.016757127279" fill="#D2B1DE" fill-opacity="0.5795"></circle><circle cx="0.915282089109" cy="0.271236387500" r="0.012534769459" fill="#FFE498" fill-opacity="0.5603"></circle><circle cx="0.679977459612" cy="0.457396505948" r="0.012983229769" fill="#FFE498" fill-opacity="0.3841"></circle><circle cx="0.656099262525" cy="0.465670155757" r="0.019976663212" fill="#FFE498" fill-opacity="0.6300"></circle><circle cx="0.477715592053" cy="0.593919008991" r="0.019066544569" fill="#FFE498" fill-opacity="0.4846"></circle><circle cx="0.486832110354" cy="0.593559094014" r="0.008394269647" fill="#D2B1DE" fill-opacity="0.3608"></circle><circle cx="0.743384124077" cy="0.449499523685" r="0.017505000309" fill="#D2B1DE" fill-opacity="0.4571"></circle><circle cx="0.732346473304" cy="0.463439055529" r="0.012374517875" fill="#D2B1DE" fill-opacity="0.2693"></circle><circle cx="0.440507845379" cy="0.898484077164" r="0.013396181936" fill="#FFE498" fill-opacity="0.4124"></circle><circle cx="0.453685163204" cy="0.902207225625" r="0.005451664157" fill="#D2B1DE" fill-opacity="0.4265"></circle><circle cx="0.574468594320" cy="0.556244297643" r="0.006023661704" fill="#D2B1DE" fill-opacity="0.4302"></circle><circle cx="0.575083870160" cy="0.549601992094" r="0.006037218786" fill="#D2B1DE" fill-opacity="0.3360"></circle><circle cx="0.616299632989" cy="0.669545359868" r="0.008312278647" fill="#D2B1DE" fill-opacity="0.4261"></circle><circle cx="0.611871933175" cy="0.670888539463" r="0.018862668210" fill="#FFE498" fill-opacity="0.6012"></circle><circle cx="0.778773100390" cy="0.588263253872" r="0.012907260546" fill="#FFE498" fill-opacity="0.5130"></circle><circle cx="0.799190695141" cy="0.587326865573" r="0.014355020555" fill="#FFE498" fill-opacity="0.5437"></circle><circle cx="0.588522289019" cy="0.774281383476" r="0.005913329508" fill="#D2B1DE" fill-opacity="0.3192"></circle><circle cx="0.595966588821" cy="0.761860402810" r="0.015232261242" fill="#D2B1DE" fill-opacity="0.3588"></circle><circle cx="0.460093521459" cy="0.175034561472" r="0.006886605134" fill="#FFE498" fill-opacity="0.4966"></circle><circle cx="0.455987176435" cy="0.170159086279" r="0.005252142862" fill="#D2B1DE" fill-opacity="0.3717"></circle><circle cx="0.174849044169" cy="0.455726207121" r="0.005194870882" fill="#FFE498" fill-opacity="0.5949"></circle><circle cx="0.177625607785" cy="0.460057972979" r="0.005138983497" fill="#FFE498" fill-opacity="0.4106"></circle><circle cx="0.101666527911" cy="0.316835177905" r="0.013049836201" fill="#FFE498" fill-opacity="0.3996"></circle><circle cx="0.114131270567" cy="0.325163359404" r="0.008405162288" fill="#D2B1DE" fill-opacity="0.3551"></circle><circle cx="0.419097142091" cy="0.111937782889" r="0.010678509368" fill="#FFE498" fill-opacity="0.4924"></circle><circle cx="0.418709950704" cy="0.088045036379" r="0.019136018861" fill="#FFE498" fill-opacity="0.4445"></circle><circle cx="0.106421101564" cy="0.410571992488" r="0.014233274381" fill="#FFE498" fill-opacity="0.4942"></circle><circle cx="0.099308594695" cy="0.420430020877" r="0.005673162439" fill="#D2B1DE" fill-opacity="0.3314"></circle><circle cx="0.307145884179" cy="0.192417513625" r="0.009549631740" fill="#D2B1DE" fill-opacity="0.5923"></circle><circle cx="0.322028947027" cy="0.186827621993" r="0.010905608776" fill="#D2B1DE" fill-opacity="0.4657"></circle><circle cx="0.231325763588" cy="0.283027125164" r="0.018837998873" fill="#FFE498" fill-opacity="0.5195"></circle><circle cx="0.220015988950" cy="0.290383317741" r="0.005886200166" fill="#D2B1DE" fill-opacity="0.3400"></circle><circle cx="0.165001995616" cy="0.367189513851" r="0.007176168122" fill="#FFE498" fill-opacity="0.4451"></circle><circle cx="0.172080769328" cy="0.365623257420" r="0.005303501899" fill="#FFE498" fill-opacity="0.3928"></circle><circle cx="0.021705944321" cy="0.472580477738" r="0.013849478814" fill="#D2B1DE" fill-opacity="0.5389"></circle><circle cx="0.030463047150" cy="0.466974873880" r="0.006866043338" fill="#FFE498" fill-opacity="0.5400"></circle><circle cx="0.706859998960" cy="0.122590179027" r="0.008513455681" fill="#D2B1DE" fill-opacity="0.5815"></circle><circle cx="0.714193288321" cy="0.127777618138" r="0.013920861612" fill="#FFE498" fill-opacity="0.3780"></circle><circle cx="0.053644240076" cy="0.748374727656" r="0.010947018922" fill="#FFE498" fill-opacity="0.4830"></circle><circle cx="0.032617408094" cy="0.745750836611" r="0.019517194069" fill="#D2B1DE" fill-opacity="0.3603"></circle><circle cx="0.856914424129" cy="0.083062238239" r="0.008371744911" fill="#FFE498" fill-opacity="0.5198"></circle><circle cx="0.858616176522" cy="0.072452674165" r="0.014056918003" fill="#FFE498" fill-opacity="0.4276"></circle><circle cx="0.079941954750" cy="0.854125281992" r="0.012672719506" fill="#D2B1DE" fill-opacity="0.5814"></circle><circle cx="0.084584571672" cy="0.878000345536" r="0.017294132393" fill="#D2B1DE" fill-opacity="0.5066"></circle><circle cx="0.982498718795" cy="0.055272514835" r="0.010320309771" fill="#FFE498" fill-opacity="0.5770"></circle><circle cx="0.987109220669" cy="0.045470940256" r="0.005772425062" fill="#FFE498" fill-opacity="0.5924"></circle><circle cx="0.051123368222" cy="0.988039607555" r="0.006501419587" fill="#D2B1DE" fill-opacity="0.3912"></circle><circle cx="0.047750840755" cy="0.979833617694" r="0.007523149742" fill="#D2B1DE" fill-opacity="0.3314"></circle><circle cx="0.918758562822" cy="0.117120554627" r="0.012591458796" fill="#D2B1DE" fill-opacity="0.2824"></circle><circle cx="0.923313837822" cy="0.128801735533" r="0.005080166516" fill="#D2B1DE" fill-opacity="0.5015"></circle><circle cx="0.155449252944" cy="0.942204882396" r="0.010624580444" fill="#D2B1DE" fill-opacity="0.2844"></circle><circle cx="0.154970435053" cy="0.927931733034" r="0.009312197678" fill="#FFE498" fill-opacity="0.5659"></circle><circle cx="0.292730164259" cy="0.907754187275" r="0.016757127279" fill="#D2B1DE" fill-opacity="0.5795"></circle><circle cx="0.271236387500" cy="0.915282089109" r="0.012534769459" fill="#FFE498" fill-opacity="0.5603"></circle><circle cx="0.956817056426" cy="0.734236102761" r="0.012983229769" fill="#FFE498" fill-opacity="0.3841"></circle><circle cx="0.948543406616" cy="0.758114299848" r="0.019976663212" fill="#FFE498" fill-opacity="0.6300"></circle><circle cx="0.820294553382" cy="0.936497970320" r="0.019066544569" fill="#FFE498" fill-opacity="0.4846"></circle><circle cx="0.820654468359" cy="0.927381452019" r="0.008394269647" fill="#D2B1DE" fill-opacity="0.3608"></circle><circle cx="0.964714038688" cy="0.670829438296" r="0.017505000309" fill="#D2B1DE" fill-opacity="0.4571"></circle><circle cx="0.950774506844" cy="0.681867089069" r="0.012374517875" fill="#D2B1DE" fill-opacity="0.2693"></circle><circle cx="0.515729485209" cy="0.973705716994" r="0.013396181936" fill="#FFE498" fill-opacity="0.4124"></circle><circle cx="0.512006336748" cy="0.960528399169" r="0.005451664157" fill="#D2B1DE" fill-opacity="0.4265"></circle><circle cx="0.857969264730" cy="0.839744968054" r="0.006023661704" fill="#D2B1DE" fill-opacity="0.4302"></circle><circle cx="0.864611570279" cy="0.839129692213" r="0.006037218786" fill="#D2B1DE" fill-opacity="0.3360"></circle><circle cx="0.744668202505" cy="0.797913929384" r="0.008312278647" fill="#D2B1DE" fill-opacity="0.4261"></circle><circle cx="0.743325022910" cy="0.802341629198" r="0.018862668210" fill="#FFE498" fill-opacity="0.6012"></circle><circle cx="0.825950308501" cy="0.635440461983" r="0.012907260546" fill="#FFE498" fill-opacity="0.5130"></circle><circle cx="0.826886696800" cy="0.615022867232" r="0.014355020555" fill="#FFE498" fill-opacity="0.5437"></circle><circle cx="0.639932178897" cy="0.825691273354" r="0.005913329508" fill="#D2B1DE" fill-opacity="0.3192"></circle><circle cx="0.652353159563" cy="0.818246973552" r="0.015232261242" fill="#D2B1DE" fill-opacity="0.3588"></circle></g></svg>