<svg xmlns="http://www.w3.org/2000/svg" width="6in" height="6in" viewBox="0 0 6 6"><rect x="0" y="0" width="100%" height="100%" fill="white"></rect><g transform="scale(6 -6) translate(0 -1)"><circle cx="0.312828437102" cy="0.063023134482" r="0.014537757530" fill="#FFE498" fill-opacity="0.5623"></circle><circle cx="0.297432770694" cy="0.048499367167" r="0.017548678629" fill="#D2B1DE" fill-opacity="0.3848"></circle><circle cx="0.057808770842" cy="0.273442912995" r="0.006062195622" fill="#FFE498" fill-opacity="0.5650"></circle><circle cx="0.047606669554" cy="0.265038952921" r="0.012376076388" fill="#FFE498" fill-opacity="0.4976"></circle><circle cx="0.366864086704" cy="0.016820053635" r="0.013064697830" fill="#D2B1DE" fill-opacity="0.4704"></circle><circle cx="0.366946769822" cy="0.029284246118" r="0.006202081891" fill="#D2B1DE" fill-opacity="0.5064"></circle><circle cx="0.106633694386" cy="0.366560765790" r="0.017781750557" fill="#D2B1DE" fill-opacity="0.2783"></circle><circle cx="0.090530260380" cy="0.368664230840" r="0.011823547591" fill="#FFE498" fill-opacity="0.5316"></circle><circle cx="0.551756945118" cy="0.055963036511" r="0.009210094010" fill="#D2B1DE" fill-opacity="0.4616"></circle><circle cx="0.561972113934" cy="0.046209831203" r="0.014639405114" fill="#D2B1DE" fill-opacity="0.5327"></circle><circle cx="0.102152738217" cy="0.499139389219" r="0.017313737014" fill="#FFE498" fill-opacity="0.5498"></circle><circle cx="0.081307266790" cy="0.510486819244" r="0.017517313437" fill="#FFE498" fill-opacity="0.5701"></circle><circle cx="0.753325198515" cy="0.141114430683" r="0.010453983430" fill="#D2B1DE" fill-opacity="0.2172"></circle><circle cx="0.747515595204" cy="0.143080626639" r="0.005350043338" fill="#FFE498" fill-opacity="0.6945"></circle><circle cx="0.086911353226" cy="0.812349392590" r="0.018958792198" fill="#D2B1DE" fill-opacity="0.4759"></circle><circle cx="0.076316918852" cy="0.797140226729" r="0.017985078581" fill="#D2B1DE" fill-opacity="0.3689"></circle><circle cx="0.808918037955" cy="0.009576392651" r="0.006886605134" fill="#FFE498" fill-opacity="0.4966"></circle><circle cx="0.804042562762" cy="0.013682737675" r="0.005252142862" fill="#D2B1DE" fill-opacity="0.3717"></circle><circle cx="0.013943706989" cy="0.808732520653" r="0.005194870882" fill="#FFE498" fill-opacity="0.5949"></circle><circle cx="0.009611941131" cy="0.811509084268" r="0.005138983497" fill="#FFE498" fill-opacity="0.4106"></circle><circle cx="0.961442165655" cy="0.069148135492" r="0.015998398979" fill="#D2B1DE" fill-opacity="0.2567"></circle><circle cx="0.979242581689" cy="0.089873252063" r="0.017220932783" fill="#D2B1DE" fill-opacity="0.4657"></circle><circle cx="0.648218903257" cy="0.430053870064" r="0.005495382007" fill="#FFE498" fill-opacity="0.6102"></circle><circle cx="0.662917385152" cy="0.433073955782" r="0.015276291942" fill="#FFE498" fill-opacity="0.6445"></circle><circle cx="0.512883688615" cy="0.599146576701" r="0.017906891593" fill="#FFE498" fill-opacity="0.4866"></circle><circle cx="0.494192738172" cy="0.606822286461" r="0.008451546628" fill="#D2B1DE" fill-opacity="0.5283"></circle><circle cx="0.638003821993" cy="0.588765380547" r="0.018806766130" fill="#FFE498" fill-opacity="0.4345"></circle><circle cx="0.626838442686" cy="0.598799019949" r="0.013657705929" fill="#D2B1DE" fill-opacity="0.3394"></circle><circle cx="0.643239288153" cy="0.675383417927" r="0.012214883764" fill="#FFE498" fill-opacity="0.5405"></circle><circle cx="0.651973693453" cy="0.672386680593" r="0.006664633707" fill="#D2B1DE" fill-opacity="0.3161"></circle><circle cx="0.839563545676" cy="0.606943183288" r="0.019652131036" fill="#FFE498" fill-opacity="0.5507"></circle><circle cx="0.855241906314" cy="0.596120048707" r="0.006313039098" fill="#FFE498" fill-opacity="0.4183"></circle><circle cx="0.660425109839" cy="0.818569685740" r="0.019582511901" fill="#D2B1DE" fill-opacity="0.3795"></circle><circle cx="0.641104746148" cy="0.813412510712" r="0.018420647738" fill="#FFE498" fill-opacity="0.5740"></circle><circle cx="0.947712549636" cy="0.577555348366" r="0.017453959601" fill="#D2B1DE" fill-opacity="0.4951"></circle><circle cx="0.931103547784" cy="0.578066262642" r="0.005950624037" fill="#D2B1DE" fill-opacity="0.4630"></circle><circle cx="0.832183400927" cy="0.786158316298" r="0.015454747830" fill="#FFE498" fill-opacity="0.4876"></circle><circle cx="0.834723404563" cy="0.801609112998" r="0.013332919689" fill="#D2B1DE" fill-opacity="0.5992"></circle><circle cx="0.265767194987" cy="0.176639023459" r="0.014537757530" fill="#FFE498" fill-opacity="0.5623"></circle><circle cx="0.244610960512" cy="0.176022497698" r="0.017548678629" fill="#D2B1DE" fill-opacity="0.3848"></circle><circle cx="0.152476364172" cy="0.234230311920" r="0.006062195622" fill="#FFE498" fill-opacity="0.5650"></circle><circle cx="0.153747842018" cy="0.221073839760" r="0.012376076388" fill="#FFE498" fill-opacity="0.4976"></circle><circle cx="0.271305657468" cy="0.247518509497" r="0.013064697830" fill="#D2B1DE" fill-opacity="0.4704"></circle><circle cx="0.280177638288" cy="0.238763460264" r="0.006202081891" fill="#D2B1DE" fill-opacity="0.5064"></circle><circle cx="0.183796194803" cy="0.334599011610" r="0.017781750557" fill="#D2B1DE" fill-opacity="0.2783"></circle><circle cx="0.196670416591" cy="0.324699538625" r="0.011823547591" fill="#FFE498" fill-opacity="0.5316"></circle><circle cx="0.429722920072" cy="0.350579234847" r="0.009210094010" fill="#D2B1DE" fill-opacity="0.4616"></circle><circle cx="0.430049577602" cy="0.364699007600" r="0.014639405114" fill="#D2B1DE" fill-opacity="0.5327"></circle><circle cx="0.280711952964" cy="0.425177740784" r="0.017313737014" fill="#FFE498" fill-opacity="0.5498"></circle><circle cx="0.303475771887" cy="0.418461611301" r="0.017517313437" fill="#FFE498" fill-opacity="0.5701"></circle><circle cx="0.858885569317" cy="0.246674801485" r="0.010453983430" fill="#D2B1DE" fill-opacity="0.2172"></circle><circle cx="0.856919373361" cy="0.252484404796" r="0.005350043338" fill="#FFE498" fill-opacity="0.6945"></circle><circle cx="0.187650607410" cy="0.913088646774" r="0.018958792198" fill="#D2B1DE" fill-opacity="0.4759"></circle><circle cx="0.202859773271" cy="0.923683081148" r="0.017985078581" fill="#D2B1DE" fill-opacity="0.3689"></circle><circle cx="0.069148135492" cy="0.961442165655" r="0.015998398979" fill="#D2B1DE" fill-opacity="0.2567"></circle><circle cx="0.089873252063" cy="0.979242581689" r="0.017220932783" fill="#D2B1DE" fill-opacity="0.4657"></circle><circle cx="0.765994659116" cy="0.430053870064" r="0.005495382007" fill="#FFE498" fill-opacity="0.6102"></circle><circle cx="0.751296177221" cy="0.433073955782" r="0.015276291942" fill="#FFE498" fill-opacity="0.6445"></circle><circle cx="0.512883688615" cy="0.815066985672" r="0.017906891593" fill="#FFE498" fill-opacity="0.4866"></circle><circle cx="0.494192738173" cy="0.807391275912" r="0.008451546628" fill="#D2B1DE" fill-opacity="0.5283"></circle><circle cx="0.776209740380" cy="0.588765380547" r="0.018806766130" fill="#FFE498" fill-opacity="0.4345"></circle><circle cx="0.787375119687" cy="0.598799019949" r="0.013657705929" fill="#D2B1DE" fill-opacity="0.3394"></circle><circle cx="0.643239288153" cy="0.738830144446" r="0.012214883764" fill="#FFE498" fill-opacity="0.5405"></circle><circle cx="0.651973693453" cy="0.741826881780" r="0.006664633707" fill="#D2B1DE" fill-opacity="0.3161"></circle><circle cx="0.884272064104" cy="0.625462057974" r="0.019652131036" fill="#FFE498" fill-opacity="0.5507"></circle><circle cx="0.880838900835" cy="0.606722670994" r="0.006313039098" fill="#FFE498" fill-opacity="0.4183"></circle><circle cx="0.678124391633" cy="0.861299531893" r="0.019582511901" fill="#D2B1DE" fill-opacity="0.3795"></circle><circle cx="0.668109504887" cy="0.878607765508" r="0.018420647738" fill="#FFE498" fill-opacity="0.5740"></circle><circle cx="0.577555348366" cy="0.947712549636" r="0.017453959601" fill="#D2B1DE" fill-opacity="0.4951"></circle><circle cx="0.578066262642" cy="0.931103547784" r="0.005950624037" fill="#D2B1DE" fill-opacity="0.4630"></circle><circle cx="0.786158316298" cy="0.832183400927" r="0.015454747830" fill="#FFE498" fill-opacity="0.4876"></circle><circle cx="0.801609112998" cy="0.834723404563" r="0.013332919689" fill="#D2B1DE" fill-opacity="0.5992"></circle></g></svg>