<svg xmlns="http://www.w3.org/2000/svg" xmlns:xlink="http://www.w3.org/1999/xlink" width="423.2533333333" height="218.4561147796" viewBox="0 0 423.2533333333 218.4561147796" preserveAspectRatio="xMinYMin meet" version="1.1">
  <g stroke="#f0f0f0" stroke-width="1">
    <line x1="-72.8177777778" y1="170.3290600263" x2="-72.8177777778" y2="156.4549440214" />
    <line x1="-77.3688888889" y1="163.3989660480" x2="-68.2666666667" y2="163.3989660480" />
    <line x1="-72.8177777778" y1="100.3919599343" x2="-72.8177777778" y2="86.2313883350" />
    <line x1="-77.3688888889" y1="93.3190376513" x2="-68.2666666667" y2="93.3190376513" />
    <line x1="-72.8177777778" y1="28.9899139072" x2="-72.8177777778" y2="14.5263098874" />
    <line x1="-77.3688888889" y1="21.7659052684" x2="-68.2666666667" y2="21.7659052684" />
    <line x1="-27.3066666667" y1="170.3290600263" x2="-27.3066666667" y2="156.4549440214" />
    <line x1="-31.8577777778" y1="163.3989660480" x2="-22.7555555556" y2="163.3989660480" />
    <line x1="-27.3066666667" y1="100.3919599343" x2="-27.3066666667" y2="86.2313883350" />
    <line x1="-31.8577777778" y1="93.3190376513" x2="-22.7555555556" y2="93.3190376513" />
    <line x1="-27.3066666667" y1="28.9899139072" x2="-27.3066666667" y2="14.5263098874" />
    <line x1="-31.8577777778" y1="21.7659052684" x2="-22.7555555556" y2="21.7659052684" />
    <line x1="18.2044444444" y1="170.3290600263" x2="18.2044444444" y2="156.4549440214" />
    <line x1="13.6533333333" y1="163.3989660480" x2="22.7555555556" y2="163.3989660480" />
    <line x1="18.2044444444" y1="100.3919599343" x2="18.2044444444" y2="86.2313883350" />
    <line x1="13.6533333333" y1="93.3190376513" x2="22.7555555556" y2="93.3190376513" />
    <line x1="18.2044444444" y1="28.9899139072" x2="18.2044444444" y2="14.5263098874" />
    <line x1="13.6533333333" y1="21.7659052684" x2="22.7555555556" y2="21.7659052684" />
    <line x1="63.7155555556" y1="170.3290600263" x2="63.7155555556" y2="156.4549440214" />
    <line x1="59.1644444444" y1="163.3989660480" x2="68.2666666667" y2="163.3989660480" />
    <line x1="63.7155555556" y1="100.3919599343" x2="63.7155555556" y2="86.2313883350" />
    <line x1="59.1644444444" y1="93.3190376513" x2="68.2666666667" y2="93.3190376513" />
    <line x1="63.7155555556" y1="28.9899139072" x2="63.7155555556" y2="14.5263098874" />
    <line x1="59.1644444444" y1="21.7659052684" x2="68.2666666667" y2="21.7659052684" />
    <line x1="109.2266666667" y1="170.3290600263" x2="109.2266666667" y2="156.4549440214" />
    <line x1="104.6755555556" y1="163.3989660480" x2="113.7777777778" y2="163.3989660480" />
    <line x1="109.2266666667" y1="100.3919599343" x2="109.2266666667" y2="86.2313883350" />
    <line x1="104.6755555556" y1="93.3190376513" x2="113.7777777778" y2="93.3190376513" />
    <line x1="109.2266666667" y1="28.9899139072" x2="109.2266666667" y2="14.5263098874" />
    <line x1="104.6755555556" y1="21.7659052684" x2="113.7777777778" y2="21.7659052684" />
    <line x1="154.7377777778" y1="170.3290600263" x2="154.7377777778" y2="156.4549440214" />
    <line x1="150.1866666667" y1="163.3989660480" x2="159.2888888889" y2="163.3989660480" />
    <line x1="154.7377777778" y1="100.3919599343" x2="154.7377777778" y2="86.2313883350" />
    <line x1="150.1866666667" y1="93.3190376513" x2="159.2888888889" y2="93.3190376513" />
    <line x1="154.7377777778" y1="28.9899139072" x2="154.7377777778" y2="14.5263098874" />
    <line x1="150.1866666667" y1="21.7659052684" x2="159.2888888889" y2="21.7659052684" />
    <line x1="200.2488888889" y1="170.3290600263" x2="200.2488888889" y2="156.4549440214" />
    <line x1="195.6977777778" y1="163.3989660480" x2="204.8000000000" y2="163.3989660480" />
    <line x1="200.2488888889" y1="100.3919599343" x2="200.2488888889" y2="86.2313883350" />
    <line x1="195.6977777778" y1="93.3190376513" x2="204.8000000000" y2="93.3190376513" />
    <line x1="200.2488888889" y1="28.9899139072" x2="200.2488888889" y2="14.5263098874" />
    <line x1="195.6977777778" y1="21.7659052684" x2="204.8000000000" y2="21.7659052684" />
    <line x1="245.7600000000" y1="170.3290600263" x2="245.7600000000" y2="156.4549440214" />
    <line x1="241.2088888889" y1="163.3989660480" x2="250.3111111111" y2="163.3989660480" />
    <line x1="245.7600000000" y1="100.3919599343" x2="245.7600000000" y2="86.2313883350" />
    <line x1="241.2088888889" y1="93.3190376513" x2="250.3111111111" y2="93.3190376513" />
    <line x1="245.7600000000" y1="28.9899139072" x2="245.7600000000" y2="14.5263098874" />
    <line x1="241.2088888889" y1="21.7659052684" x2="250.3111111111" y2="21.7659052684" />
    <line x1="291.2711111111" y1="170.3290600263" x2="291.2711111111" y2="156.4549440214" />
    <line x1="286.7200000000" y1="163.3989660480" x2="295.8222222222" y2="163.3989660480" />
    <line x1="291.2711111111" y1="100.3919599343" x2="291.2711111111" y2="86.2313883350" />
    <line x1="286.7200000000" y1="93.3190376513" x2="295.8222222222" y2="93.3190376513" />
    <line x1="291.2711111111" y1="28.9899139072" x2="291.2711111111" y2="14.5263098874" />
    <line x1="286.7200000000" y1="21.7659052684" x2="295.8222222222" y2="21.7659052684" />
    <line x1="336.7822222222" y1="170.3290600263" x2="336.7822222222" y2="156.4549440214" />
    <line x1="332.2311111111" y1="163.3989660480" x2="341.3333333333" y2="163.3989660480" />
    <line x1="336.7822222222" y1="100.3919599343" x2="336.7822222222" y2="86.2313883350" />
    <line x1="332.2311111111" y1="93.3190376513" x2="341.3333333333" y2="93.3190376513" />
    <line x1="336.7822222222" y1="28.9899139072" x2="336.7822222222" y2="14.5263098874" />
    <line x1="332.2311111111" y1="21.7659052684" x2="341.3333333333" y2="21.7659052684" />
    <line x1="382.2933333333" y1="170.3290600263" x2="382.2933333333" y2="156.4549440214" />
    <line x1="377.7422222222" y1="163.3989660480" x2="386.8444444444" y2="163.3989660480" />
    <line x1="382.2933333333" y1="100.3919599343" x2="382.2933333333" y2="86.2313883350" />
    <line x1="377.7422222222" y1="93.3190376513" x2="386.8444444444" y2="93.3190376513" />
    <line x1="382.2933333333" y1="28.9899139072" x2="382.2933333333" y2="14.5263098874" />
    <line x1="377.7422222222" y1="21.7659052684" x2="386.8444444444" y2="21.7659052684" />
  </g>
  <g stroke="black" stroke-width="1">
    <line x1="37.3823209877" y1="90.1181527199" x2="37.3823209877" y2="84.1181527199" />
    <line x1="39.9803971990" y1="88.6181527199" x2="34.7842447763" y2="85.6181527199" />
    <line x1="39.9803971990" y1="85.6181527199" x2="34.7842447763" y2="88.6181527199" />
  </g>
  <g stroke="black" stroke-width="1" fill="none">
    <circle cx="31.2383209877" cy="211.2222923486" r="2.5" />
    <circle cx="6.3715555556" cy="18.1480615020" r="2.5" />
    <circle cx="416.4266666667" cy="201.3441694854" r="2.5" />
    <circle cx="195.9000493827" cy="97.7020506252" r="2.5" />
    <circle cx="382.5082469136" cy="90.9384471812" r="2.5" />
    <circle cx="18.6216296296" cy="115.3147748492" r="2.5" />
    <circle cx="246.7460740741" cy="74.6823336925" r="2.5" />
    <circle cx="233.9271111111" cy="147.9100661366" r="2.5" />
    <circle cx="395.7191111111" cy="189.3921299923" r="2.5" />
  </g>
  <g fill="black" font-family="Arial" font-size="11" text-anchor="middle">
    <text dominant-baseline="hanging" x="31.2383209877 " y="197.2222923486">1</text>
    <text dominant-baseline="hanging" x="6.3715555556 " y="4.1480615020">2</text>
    <text dominant-baseline="hanging" x="416.4266666667 " y="187.3441694854">3</text>
    <text dominant-baseline="hanging" x="195.9000493827 " y="83.7020506252">4</text>
    <text dominant-baseline="hanging" x="382.5082469136 " y="76.9384471812">5</text>
    <text dominant-baseline="hanging" x="18.6216296296 " y="101.3147748492">6</text>
    <text dominant-baseline="hanging" x="246.7460740741 " y="60.6823336925">7</text>
    <text dominant-baseline="hanging" x="233.9271111111 " y="133.9100661366">8</text>
    <text dominant-baseline="hanging" x="395.7191111111 " y="175.3921299923">9</text>
  </g>
</svg>