<?xml version="1.0" encoding="UTF-8" standalone="no"?>
<!DOCTYPE svg PUBLIC "-//W3C//DTD SVG 1.1//EN" "http://www.w3.org/Graphics/SVG/1.1/DTD/svg11.dtd">
<svg width="100%" height="100%" viewBox="0 0 658 1404" version="1.1" xmlns="http://www.w3.org/2000/svg" xmlns:xlink="http://www.w3.org/1999/xlink" xml:space="preserve" xmlns:serif="http://www.serif.com/" style="fill-rule:evenodd;clip-rule:evenodd;stroke-linejoin:round;stroke-miterlimit:2;">
    <g transform="matrix(1,0,0,1,-34926.4,-661.366)">
        <g id="Artboard3" transform="matrix(0.13771,0,0,0.670236,30158.5,351.088)">
            <rect x="34622.6" y="462.939" width="4770.91" height="2094.63" style="fill:none;"/>
            <g transform="matrix(7.26164,0,0,1.49201,-165393,-2978.03)">
                <g transform="matrix(1.21974,0.229145,-0.20029,1.12413,26113.9,-968.105)">
                    <path d="M1987.81,3011.83C1987.81,3011.83 1973.74,3123.71 1972.07,3140.27C1962.95,3230.47 1952.78,3280.56 1931.7,3302.34C1910.62,3324.12 1857.86,3350.41 1819.92,3352.53C1781.99,3354.65 1738.95,3361.39 1738.95,3361.39C1738.95,3361.39 1789.47,3375.91 1823.87,3384.24C1855.71,3391.96 1904.03,3429.86 1920.48,3451.68C1943.44,3482.14 1962.82,3531.52 1968.37,3605.92C1973.92,3680.32 1995.24,3749.47 1995.24,3749.47C1995.24,3749.47 2012.18,3639.78 2013.56,3607.81C2014.93,3575.84 2025.62,3496.55 2064.39,3452.34C2103.17,3408.12 2156.82,3382.82 2200.66,3373.39C2244.16,3364.03 2249.2,3359.45 2240.8,3358.83C2222.89,3357.49 2193.68,3354.73 2163.8,3351.41C2128.1,3347.44 2080.18,3344.98 2047.9,3307.89C2012.2,3266.89 2012.98,3207.25 2005.68,3137.69C1998.87,3072.85 1996.3,3017.16 1987.81,3011.83Z" style="fill:rgb(225,190,65);"/>
                </g>
                <g transform="matrix(0.435963,0.0819015,-0.0797614,0.44766,27159.6,809.925)">
                    <path d="M1987.81,3011.83C1987.81,3011.83 1973.74,3123.71 1972.07,3140.27C1962.95,3230.47 1952.78,3280.56 1931.7,3302.34C1910.62,3324.12 1857.86,3350.41 1819.92,3352.53C1781.99,3354.65 1738.95,3361.39 1738.95,3361.39C1738.95,3361.39 1789.47,3375.91 1823.87,3384.24C1855.71,3391.96 1904.03,3429.86 1920.48,3451.68C1943.44,3482.14 1962.82,3531.52 1968.37,3605.92C1973.92,3680.32 1995.24,3749.47 1995.24,3749.47C1995.24,3749.47 2012.18,3639.78 2013.56,3607.81C2014.93,3575.84 2025.62,3496.55 2064.39,3452.34C2103.17,3408.12 2156.82,3382.82 2200.66,3373.39C2244.16,3364.03 2249.2,3359.45 2240.8,3358.83C2222.89,3357.49 2193.68,3354.73 2163.8,3351.41C2128.1,3347.44 2080.18,3344.98 2047.9,3307.89C2012.2,3266.89 2012.98,3207.25 2005.68,3137.69C1998.87,3072.85 1996.3,3017.16 1987.81,3011.83Z" style="fill:rgb(225,190,65);"/>
                </g>
            </g>
        </g>
    </g>
</svg>
