<?xml version="1.0" encoding="UTF-8" standalone="no"?>
<!-- Created with Inkscape (http://www.inkscape.org/) -->

<svg
   width="1920"
   height="1080"
   viewBox="0 0 1920 1080"
   version="1.1"
   id="svg1"
   xml:space="preserve"
   sodipodi:docname="blacklight_books.svg"
   inkscape:version="1.4 (e7c3feb1, 2024-10-09)"
   xmlns:inkscape="http://www.inkscape.org/namespaces/inkscape"
   xmlns:sodipodi="http://sodipodi.sourceforge.net/DTD/sodipodi-0.dtd"
   xmlns:xlink="http://www.w3.org/1999/xlink"
   xmlns="http://www.w3.org/2000/svg"
   xmlns:svg="http://www.w3.org/2000/svg"><sodipodi:namedview
     id="namedview1"
     pagecolor="#ffffff"
     bordercolor="#000000"
     borderopacity="0.25"
     inkscape:showpageshadow="2"
     inkscape:pageopacity="0.0"
     inkscape:pagecheckerboard="0"
     inkscape:deskcolor="#d1d1d1"
     inkscape:zoom="1.4526554"
     inkscape:cx="905.92719"
     inkscape:cy="549.33883"
     inkscape:window-width="2056"
     inkscape:window-height="1167"
     inkscape:window-x="71"
     inkscape:window-y="84"
     inkscape:window-maximized="0"
     inkscape:current-layer="svg1" /><defs
     id="defs1"><filter
       style="color-interpolation-filters:sRGB"
       id="filter1986"
       x="-0.31207244"
       y="-0.19217485"
       width="1.6241449"
       height="1.3843497"><feGaussianBlur
         stdDeviation="2.3330201"
         id="feGaussianBlur1986" /></filter><filter
       style="color-interpolation-filters:sRGB"
       id="filter1988"
       x="-0.99780819"
       y="-0.22719079"
       width="2.9999793"
       height="1.454383"><feGaussianBlur
         stdDeviation="2.288464"
         id="feGaussianBlur1988" /></filter><radialGradient
       xlink:href="#linearGradient803"
       id="radialGradient811"
       gradientUnits="userSpaceOnUse"
       gradientTransform="matrix(1,0,0,0.92727278,-4.335545,9.1199065)"
       cx="941.60577"
       cy="161.85486"
       fx="941.60577"
       fy="161.85486"
       r="24.087589" /><linearGradient
       id="linearGradient803"><stop
         style="stop-color:#ffffff;stop-opacity:1;"
         offset="0"
         id="stop803" /><stop
         style="stop-color:#eeeeee;stop-opacity:0;"
         offset="1"
         id="stop804" /></linearGradient><filter
       style="color-interpolation-filters:sRGB"
       id="filter1895"
       x="-0.44463776"
       y="-0.21531532"
       width="1.8894711"
       height="1.4174017"><feGaussianBlur
         stdDeviation="2.3317444"
         id="feGaussianBlur1895" /></filter><filter
       style="color-interpolation-filters:sRGB"
       id="filter1879"
       x="-0.36213049"
       y="-0.11197551"
       width="1.7253541"
       height="1.2247923"><feGaussianBlur
         stdDeviation="1.9080996"
         id="feGaussianBlur1879" /></filter><filter
       style="color-interpolation-filters:sRGB"
       id="filter1880"
       x="-0.39727584"
       y="-0.10693215"
       width="1.7945517"
       height="1.2140293"><feGaussianBlur
         stdDeviation="1.9080996"
         id="feGaussianBlur1880" /></filter><filter
       style="color-interpolation-filters:sRGB"
       id="filter1881"
       x="-0.3743419"
       y="-0.11687435"
       width="1.7486826"
       height="1.234211"><feGaussianBlur
         stdDeviation="1.9080996"
         id="feGaussianBlur1881" /></filter><filter
       style="color-interpolation-filters:sRGB"
       id="filter1891"
       x="-0.53464481"
       y="-0.32923509"
       width="2.0692896"
       height="1.6584702"><feGaussianBlur
         stdDeviation="4.0260309"
         id="feGaussianBlur1891" /></filter><filter
       style="color-interpolation-filters:sRGB"
       id="filter1893"
       x="-0.48245961"
       y="-0.16968838"
       width="1.9649192"
       height="1.3393768"><feGaussianBlur
         stdDeviation="3.531397"
         id="feGaussianBlur1893" /></filter><filter
       style="color-interpolation-filters:sRGB"
       id="filter1892"
       x="-0.48245855"
       y="-0.16968838"
       width="1.9649171"
       height="1.3393768"><feGaussianBlur
         stdDeviation="3.531397"
         id="feGaussianBlur1892" /></filter><filter
       style="color-interpolation-filters:sRGB"
       id="filter1894"
       x="-0.48246088"
       y="-0.16968838"
       width="1.9649218"
       height="1.3393768"><feGaussianBlur
         stdDeviation="3.531397"
         id="feGaussianBlur1894" /></filter><filter
       style="color-interpolation-filters:sRGB"
       id="filter1882"
       x="-0.33947326"
       y="-0.10110687"
       width="1.6789904"
       height="1.2022862"><feGaussianBlur
         stdDeviation="2.0554614"
         id="feGaussianBlur1882" /></filter></defs><g
     id="layer14"
     style="display:inline"
     transform="translate(1.9961234e-4,3.1319471e-4)"><g
       id="g811"
       style="display:inline"
       transform="matrix(0.12528663,0,0,0.12528663,636.86889,227.63059)"><rect
         style="display:inline;fill:#d2d2d2;fill-opacity:1;stroke:#a8a8a8;stroke-width:8;stroke-linecap:round;stroke-linejoin:round;stroke-dasharray:none;stroke-opacity:1"
         id="rect809"
         width="589.91125"
         height="338.58032"
         x="635.49524"
         y="159.8322" /><ellipse
         style="display:inline;fill:#626262;fill-opacity:1;stroke:#404040;stroke-width:4;stroke-linecap:round;stroke-linejoin:round;stroke-dasharray:none;stroke-opacity:1"
         id="ellipse809"
         cx="936.83228"
         cy="172.78015"
         rx="24.087589"
         ry="22.335766" /><ellipse
         style="display:inline;fill:url(#radialGradient811);fill-opacity:1;stroke:none;stroke-width:4;stroke-linecap:round;stroke-linejoin:round;stroke-dasharray:none;stroke-opacity:1"
         id="ellipse810"
         cx="936.83228"
         cy="172.78015"
         rx="24.087589"
         ry="22.335766" /><ellipse
         style="display:inline;fill:none;fill-opacity:1;stroke:#404040;stroke-width:4;stroke-linecap:round;stroke-linejoin:round;stroke-dasharray:none;stroke-opacity:1"
         id="ellipse811"
         cx="936.83228"
         cy="172.78015"
         rx="24.087589"
         ry="22.335766" /></g><path
       style="opacity:1;fill:#2b2b2b;fill-opacity:1;stroke:none;stroke-width:8.51819;stroke-linecap:round;stroke-linejoin:round;stroke-dasharray:none;stroke-opacity:0.924078"
       id="path811"
       d="m 723.19416,259.29166 c 0.24853,-2.40146 0.80911,-4.56148 1.60801,-6.39379 0.10743,-0.14532 0.20017,-0.34998 0.32229,-0.43625 0.0912,-0.0645 0.3862,-0.008 0.2898,0.004 -0.55295,0.0713 -1.11785,-0.057 -1.66003,0.17314 -0.10714,0.0455 0.17595,0.26595 0.25201,0.42471 0.21022,0.43879 0.37186,0.964 0.54147,1.46363 0.34742,0.82001 0.6076,2.09939 1.11881,2.59609 0.0889,0.0863 0.1898,0.1435 0.28835,0.13443 0.74476,-0.0683 1.48615,-0.24356 2.22922,-0.36534 0.6607,-1.26009 1.26055,-2.66515 2.08175,-3.52037 0.15039,-0.1566 0.31172,-0.26625 0.46758,-0.39938 1.33717,-0.14935 -0.69375,-0.0415 -1.02755,0.11811 -0.13228,0.0633 0.2519,0.2102 0.36981,0.34658 0.34217,0.39575 0.63042,0.98467 0.93145,1.49081 0.59526,1.08201 1.31248,1.17976 2.07439,1.20603 0.84121,-0.0375 1.64638,0.46279 2.45928,0.81841 1.2307,0.3369 2.67668,1.01563 3.76853,-0.40795 0.34542,-0.57943 0.53851,-1.414 0.76079,-2.18116 0,0 -1.88601,-0.20996 -1.88601,-0.20996 v 0 c -0.23136,0.71957 -0.43918,1.49094 -0.80157,1.9806 -0.74635,0.737 -1.57089,0.31446 1.06908,0.46399 0.10449,0.006 -0.20911,0.0248 -0.31351,0.0141 -0.15823,-0.0161 -0.53792,-0.14129 -0.69008,-0.18805 -0.82253,-0.33091 -1.6297,-0.87575 -2.47586,-0.89038 -0.73204,-1.3e-4 -1.4561,0.0484 -2.05249,-0.94798 -0.25885,-0.41848 -1.03093,-1.93677 -1.31826,-2.00758 -1.88746,-0.46505 -1.66301,-0.47994 -2.75117,-0.0411 -0.45498,0.45014 -0.51289,0.46176 -0.94092,1.08614 -0.58682,0.85598 -1.04649,1.99789 -1.64228,2.82797 0.53559,0.0722 1.07303,0.10138 1.60677,0.21643 0.0946,0.0204 -0.19035,0.10844 -0.28343,0.0685 -0.47547,-0.20345 -0.86643,-1.75238 -1.14499,-2.4329 -0.0734,-0.23167 -0.64583,-2.08668 -0.76347,-2.12741 -0.72042,-0.24943 -1.45822,-0.23957 -2.18913,-0.25956 -0.0986,-0.002 -0.19607,0.0877 -0.27994,0.19208 -0.1122,0.13967 -0.19813,0.35092 -0.29719,0.52638 -0.76077,1.97481 -1.31808,4.2117 -1.67795,6.60776 z" /><path
       style="opacity:1;fill:#2b2b2b;fill-opacity:1;stroke:none;stroke-width:8.93445;stroke-linecap:round;stroke-linejoin:round;stroke-dasharray:none;stroke-opacity:0.924078"
       id="path814"
       d="m 723.88241,269.61915 c 0.49387,-1.91421 1.1891,-3.564 1.89952,-5.15533 0.30146,-0.56126 0.57522,-1.21918 0.93693,-1.63092 0.50461,-0.57441 2.81221,-0.27027 -1.50425,-0.12001 0.47195,0.40039 0.70191,1.49341 0.97424,2.30797 0.0996,0.29794 0.20655,0.58545 0.30982,0.87816 0.46994,1.08631 0.88199,2.74805 1.62501,3.1124 0.73867,-0.11844 1.48698,-0.0863 2.21598,-0.35589 0.10438,-0.0387 0.12704,-0.34659 0.18184,-0.53141 0.32764,-1.10497 0.62851,-2.18042 1.02213,-3.20058 0.17778,-0.33868 0.39219,-0.80185 0.6176,-1.02862 0.0937,-0.0945 0.20138,-0.11547 0.30207,-0.17301 -0.5734,0.0308 -1.14932,-0.0211 -1.72022,0.0927 -0.10396,0.0211 0.20502,0.0979 0.29942,0.18909 0.1175,0.11347 0.22075,0.28009 0.33112,0.42016 0.66556,1.23244 1.29673,2.53147 2.09123,3.42028 2.17089,1.16713 2.58495,0.62734 3.53405,-2.12442 0.27999,-0.80688 0.54749,-1.6839 0.95578,-2.25708 0.0712,-0.10011 0.31818,-0.23118 0.23172,-0.23787 -0.60865,-0.047 -1.2176,0.0764 -1.82641,0.115 0.0598,0.0558 0.1324,0.0736 0.1795,0.1673 0.29313,0.58237 0.43627,1.62547 0.59151,2.36292 0.25706,1.22111 0.1412,0.69154 0.41096,1.86864 0.63281,2.42079 0.82832,1.95778 2.70417,1.22227 0.0455,-0.0163 0.15117,-0.90861 0.20087,-1.29298 0.12291,-0.87851 0.37914,-2.58641 0.87177,-2.91597 0.0794,-0.0531 0.16715,-0.008 0.25072,-0.0125 -2.52267,0.19538 -2.10546,-0.2877 -1.37493,0.39282 0.4232,0.39422 0.80015,0.96973 1.21513,1.39651 0.91973,0.40958 0.65342,0.33637 2.48909,-0.13552 0.0911,-0.0233 0.11677,-0.30559 0.19954,-0.38657 0.1337,-0.13082 0.28417,-0.17972 0.43047,-0.22984 0.18147,-0.062 0.73344,-0.0885 0.54962,-0.10539 -0.44817,-0.0409 -0.89719,0.0216 -1.34577,0.0326 0.8298,0.0865 1.58456,0.82149 2.37621,1.23399 2.69471,0.0776 2.19492,0.82985 2.86097,-2.95601 0.26816,-1.13216 0.47165,-2.76383 1.04998,-3.45774 0.0688,-0.0825 0.15349,-0.0904 0.23023,-0.13536 0.87981,0.32723 -0.42547,-0.18765 -1.63359,0.18296 -0.0971,0.0298 0.15769,0.24094 0.22561,0.38516 0.32664,0.69358 0.57457,1.58365 0.83328,2.37809 0.64345,1.93208 1.33409,3.81471 2.20049,5.35653 1.00684,1.51157 1.94916,0.89738 3.24637,0.81414 0.0304,-0.0736 0.0669,-0.13881 0.0913,-0.22121 0.0627,-0.21178 0.10386,-0.63068 0.13915,-0.82392 0.0558,-0.30602 0.11801,-0.60737 0.18369,-0.90518 0.28528,-1.29343 0.35951,-1.51396 0.70742,-2.83437 0.83433,-3.04327 1.76184,-5.52192 3.1844,-7.4865 0.14756,-0.13694 0.28714,-0.31766 0.44267,-0.41138 0.12456,-0.0749 0.51716,-0.0931 0.38727,-0.0885 -0.5525,0.0183 -1.11221,-0.0633 -1.65646,0.13129 -0.12146,0.0434 0.22848,0.19864 0.32937,0.34304 0.2651,0.37938 0.41118,0.8156 0.61487,1.32008 0.62787,1.86168 1.25064,3.72107 1.93716,5.49607 0.74134,1.93442 0.91485,1.42678 2.65917,0.87379 0.009,-10e-4 0.0752,-0.67555 0.11041,-1.02501 0.11665,-0.69184 0.1861,-1.72343 0.50385,-2.19572 0.0525,-0.0781 0.12607,-0.0639 0.1891,-0.096 -0.6099,0.0552 -1.2198,0.11043 -1.82969,0.16567 0.0824,0.13286 0.17649,0.24063 0.24725,0.39904 0.14388,0.32209 0.467,1.38438 0.56605,1.70379 0.28021,0.90342 0.55992,1.80707 0.84274,2.70713 0.6964,1.90846 1.02055,1.2093 2.68249,0.97616 0.0872,-0.0125 0.62938,-1.22808 0.71191,-1.39367 0.21145,-0.33101 0.33849,-0.60151 0.60599,-0.73882 0.11416,-0.0586 0.46994,-0.0592 0.35224,-0.0531 -0.53526,0.028 -1.07596,-0.0456 -1.60527,0.11891 -0.15032,0.0469 0.29575,0.14696 0.44027,0.24327 0.15817,0.10539 0.31117,0.2406 0.46674,0.36088 0.57824,0.48551 1.13066,1.22301 1.77939,1.19534 2.40339,-0.10258 1.68301,0.56843 2.69997,-0.56927 0.49791,-0.83529 0.89849,-1.8684 1.36706,-2.7686 0.8177,0.0849 -0.78055,-0.0879 -1.75162,0.13081 -0.0765,0.0163 0.13147,0.16467 0.19145,0.26282 0.084,0.13739 0.16246,0.28894 0.23945,0.44255 0.0287,0.0573 0.49703,1.06208 0.52252,1.1167 1.1592,2.28672 1.0641,1.57148 3.16567,1.39147 0.18987,-1.22381 0.23521,-2.5173 0.40156,-3.76027 0.1676,-0.7787 0.51918,-2.16263 0.9897,-2.33481 0.065,-0.0238 0.13192,0.0125 0.19787,0.0211 -2.76913,-0.10902 -1.99041,-0.34568 -1.21894,0.82454 0.37309,0.56595 0.736,1.13646 1.12262,1.66539 0.82811,1.17978 1.77575,1.70915 2.75855,2.03522 1.19763,0.20628 2.51107,0.88596 3.59575,-0.36854 0.037,-0.0456 0.074,-0.0912 0.11094,-0.13678 0,0 -2.05077,-0.43459 -2.05077,-0.43459 v 0 c -0.0348,0.0406 -0.0695,0.0811 -0.10427,0.12188 -0.0954,0.0987 -0.17676,0.19559 -0.28186,0.25144 -0.0686,0.0363 -0.28029,0.0713 -0.20942,0.0763 3.34095,0.24619 1.63803,0.0382 0.91602,-0.0858 -0.97673,-0.26833 -1.9308,-0.70436 -2.75914,-1.85719 -0.38488,-0.5081 -0.73752,-1.05706 -1.09433,-1.64279 -0.0172,-0.0285 -0.50433,-0.85357 -0.55552,-0.86514 -0.74749,-0.16934 -1.50304,-0.11986 -2.25457,-0.17992 -0.61406,0.39625 -0.94435,1.65059 -1.1673,2.80283 -0.1161,0.8814 -0.1001,0.7008 -0.18624,1.58645 -0.0506,0.52063 -0.0703,1.17709 -0.18663,1.66447 -0.0158,0.0658 -0.0497,0.10609 -0.0746,0.15896 0.64575,0.0125 1.29165,0.008 1.93724,0.04 0.0488,10e-4 -0.0969,0.0695 -0.14433,0.0476 -0.32681,-0.15118 -0.64663,-0.95483 -0.90429,-1.33271 -0.83705,-1.76761 -1.58644,-4.41693 -3.24748,-1.96809 -0.42301,0.91478 -0.80017,1.94577 -1.3229,2.63752 -0.85145,0.71514 -0.3613,0.19356 1.27692,0.39853 0.13735,0.0163 -0.27566,0.0608 -0.41254,0.032 -0.50065,-0.10539 -0.92167,-0.69542 -1.37496,-1.07788 -0.0867,-0.0746 -0.77273,-0.6859 -0.89068,-0.70374 -1.47102,-0.2228 -2.33819,-0.83836 -3.34769,0.9247 -0.10779,0.20988 -0.37849,0.75894 -0.51036,0.93478 -0.0656,0.0876 -0.29328,0.17544 -0.21534,0.19234 0.5984,0.12862 1.20246,0.0995 1.8037,0.14899 -0.0772,-0.0727 -0.16493,-0.11043 -0.23164,-0.21796 -0.0954,-0.15369 -0.16341,-0.36654 -0.24511,-0.54984 -0.56197,-1.67056 -1.04529,-3.443 -1.61614,-5.09486 -0.7436,-0.0329 -1.48759,-0.15856 -2.23078,-0.0987 -0.30123,0.0241 -0.62696,2.16938 -0.69243,2.64778 -0.024,0.17055 -0.042,0.34529 -0.0719,0.512 -0.015,0.0837 -0.10593,0.22816 -0.0623,0.23526 0.65126,0.10562 1.30643,0.0485 1.95965,0.0723 0.0454,10e-4 -0.0945,0.0298 -0.13634,-0.006 -0.17709,-0.15104 -0.32569,-0.57981 -0.43952,-0.84074 -0.71818,-1.72599 -1.34697,-3.57518 -1.93962,-5.48786 -0.14361,-0.38944 -0.67026,-1.89866 -0.93128,-1.96008 -1.35636,-0.31891 -2.11234,-0.65972 -3.12688,0.55585 -1.32682,2.03819 -2.31963,4.73349 -3.13473,7.66862 -0.38542,1.36357 -0.4444,1.54018 -0.78513,2.8568 -0.11913,0.46039 -0.21635,0.94371 -0.33883,1.40047 -0.0412,0.15385 -0.0646,0.14789 -0.13776,0.21819 3.77761,0.0911 2.02813,0.29574 1.31863,-0.16016 -0.24558,-0.15794 -0.28564,-0.24041 -0.51666,-0.50975 -0.9124,-1.41666 -1.62439,-3.25699 -2.23543,-5.22312 -0.91726,-3.0143 -0.9876,-4.3475 -3.41558,-3.19191 -0.67958,0.85582 -0.95084,2.48886 -1.24908,3.92068 -0.13137,0.67205 -0.23983,1.48833 -0.42585,2.11208 -0.033,0.11043 -0.0763,0.21246 -0.12835,0.2864 -0.0374,0.0531 -0.17644,0.0782 -0.13086,0.0816 0.61094,0.0478 1.22265,0.0345 1.83398,0.0517 -0.83489,-0.22207 -1.60184,-1.16989 -2.45392,-1.28501 -0.84846,0.005 -1.69728,-0.0402 -2.54538,0.009 -0.38894,0.0232 -0.70775,0.22221 -1.05676,0.54498 -0.0705,0.0652 -0.27122,0.24085 -0.19431,0.25913 0.59263,0.14069 1.19307,0.0587 1.78897,0.11954 0.0802,0.008 -0.15996,0.0253 -0.23994,0.0382 -0.3209,-0.25336 -0.59596,-0.60936 -0.89074,-0.97137 -1.05439,-1.29489 -1.21281,-1.14105 -2.98065,-0.9062 -0.0858,0.0681 -0.17947,0.10433 -0.25734,0.20436 -0.50893,0.65346 -0.68719,2.099 -0.86454,3.16887 -0.0358,0.21699 -0.0621,0.44149 -0.10751,0.65092 -0.0326,0.15025 -0.20452,0.39579 -0.12491,0.42142 0.63271,0.2035 1.28007,0.10585 1.92016,0.15604 0.0558,0.005 -0.12004,0.042 -0.16735,-0.0183 -0.16277,-0.20798 -0.34569,-0.93121 -0.4256,-1.19988 -0.21918,-0.91912 -0.21934,-0.88642 -0.41535,-1.84702 -0.17131,-0.83959 -0.30388,-1.79147 -0.54161,-2.56892 -0.0512,-0.16791 -0.12523,-0.30191 -0.18785,-0.45286 -0.73933,0.0368 -1.48122,-0.0211 -2.21799,0.11031 -0.29286,0.0518 -0.99259,2.17798 -1.16722,2.66531 -0.20863,0.57765 -0.41347,1.24229 -0.72066,1.63085 -0.0779,0.0986 -0.34424,0.20128 -0.25299,0.22038 0.47872,0.1007 2.54672,0.12989 1.44336,0.0721 -0.83217,-0.74188 -1.46828,-2.05318 -2.09658,-3.35715 -0.0686,-0.10773 -0.49371,-0.82941 -0.62195,-0.84423 -1.68337,-0.19477 -2.2539,-0.65223 -3.19225,1.47217 -0.29283,0.80566 -0.55932,1.63344 -0.82744,2.47358 -0.0758,0.23727 -0.14436,0.48496 -0.22928,0.70899 -0.0556,0.14679 -0.28062,0.3694 -0.19064,0.39892 0.60489,0.19824 1.22449,0.0939 1.83674,0.14085 -0.069,0.0183 -0.13776,0.0722 -0.20688,0.0562 -0.52753,-0.12298 -1.14268,-2.04104 -1.46334,-2.78801 -0.40226,-1.1625 -0.69834,-2.53502 -1.22314,-3.48982 -2.40186,-0.0979 -2.10356,-0.82452 -3.43183,2.01228 -0.71313,1.6584 -1.40491,3.3616 -1.98956,5.22073 z" /><path
       style="opacity:1;fill:#000000;fill-opacity:1;stroke:#000000;stroke-width:2;stroke-linecap:round;stroke-linejoin:round;stroke-dasharray:none;stroke-opacity:1"
       d="m 721.53281,265.40145 c 1.0219,0 2.0438,0 3.0657,0 2.48175,0 4.9635,0 7.44525,0 1.01514,0 2.0564,0.10093 3.0657,0 2.92898,-0.2929 5.81059,-0.43796 8.75912,-0.43796 2.27696,0 5.48678,0.27218 7.66423,0 0.29864,-0.0373 0.57798,-0.17641 0.87592,-0.21898 0.99967,-0.14281 2.07013,0.16593 3.06569,0 0.16099,-0.0268 0.27696,-0.19214 0.43796,-0.21897 0.63379,-0.10564 1.34043,0.12607 1.9708,0 0.22634,-0.0453 0.42925,-0.18104 0.65693,-0.21898 0.432,-0.072 0.88442,0.0859 1.31387,0 0.16005,-0.032 0.27791,-0.18697 0.43796,-0.21898 0.90575,-0.18115 1.92811,0.10207 2.84671,0 1.16419,-0.12935 2.3306,-0.32065 3.50365,-0.43796 1.73485,-0.17348 3.51891,0.15787 5.25548,0 0.51401,-0.0467 1.01883,-0.17225 1.53284,-0.21897 1.13164,-0.10288 1.71958,0.0628 2.84672,-0.21898 1.44574,-0.36144 4.01315,0.1944 5.47445,0.43795 0.60988,0.10165 1.35152,0 1.9708,0 0.62608,0 1.9339,0.25588 2.40876,-0.21897"
       id="path815" /><path
       style="opacity:1;fill:#2b2b2b;fill-opacity:1;stroke:none;stroke-width:7.79455;stroke-linecap:round;stroke-linejoin:round;stroke-dasharray:none;stroke-opacity:0.746204"
       id="path817"
       d="m 749.45702,284.59895 c 0.12631,-0.0968 0.30036,-0.2227 0.41548,-0.33646 0.44527,-0.44001 0.77431,-0.97123 1.15689,-1.45325 1.19798,-1.71994 2.16861,-3.55665 3.03569,-5.431 0.14158,-0.31842 0.27172,-0.64121 0.42474,-0.95527 0.0982,-0.20151 0.0977,-0.52018 0.32824,-0.59013 0.70279,-0.21318 1.47376,-0.20509 2.21444,-0.18118 0.11598,0.004 0.1525,0.16256 0.19855,0.25905 0.14279,0.29921 0.29232,1.00167 0.35847,1.27247 0.22092,1.0933 0.42312,2.18935 0.64666,3.28224 0.1444,0.70598 0.32661,1.61 0.51516,2.31418 0.0722,0.26951 0.16482,0.53418 0.24723,0.80127 0.41958,0.75088 0.54457,0.69212 -1.5291,0.4896 -0.1332,-0.0129 0.19876,-0.16497 0.27861,-0.26242 0.47486,-0.57956 0.75724,-1.27597 1.13477,-1.9044 0.60784,-1.18696 0.33055,-0.62979 0.91953,-1.84405 0.24638,-0.50792 0.47489,-1.02312 0.73432,-1.52568 0.0562,-0.10882 0.28445,-0.48414 0.37144,-0.62822 1.18957,-0.007 2.07522,-0.55343 2.25667,0.35415 0.0762,0.40517 0.14449,0.81155 0.18525,1.22124 0.19278,1.25095 0.42364,2.50449 0.81679,3.71778 0.4272,0.9392 0.37014,0.41352 -1.56987,0.62463 -0.0665,0.007 0.14343,0.0177 0.20042,-0.0143 0.0999,-0.0559 0.17499,-0.14482 0.24086,-0.23287 0.12088,-0.16155 0.4754,-0.83535 0.55152,-0.97618 0.3248,-0.62855 0.64969,-1.25708 0.97502,-1.88541 0.18488,-0.35706 0.31082,-0.6242 0.52354,-0.95898 0.0644,-0.10138 0.13923,-0.19699 0.20884,-0.29548 0.0818,-0.0644 0.13772,-0.18171 0.24534,-0.19323 1.21322,-0.12977 2.1009,-0.33704 2.9969,0.31423 0.39788,0.28921 0.58584,0.5257 0.91997,0.88064 0.14942,0.19572 0.30793,0.38598 0.44826,0.58715 0.59262,0.84953 1.07959,1.78212 1.36642,2.75349 0.0173,0.0783 0.0306,0.15727 0.0518,0.23472 0.0104,0.0382 0.0863,0.10936 0.0429,0.11164 -0.65272,0.0342 -1.30773,-0.0242 -1.96139,-0.0112 -0.0299,6e-4 0.042,0.0525 0.0716,0.0487 0.0826,-0.0103 0.23625,-0.21748 0.25355,-0.23732 0.75967,-1.16681 1.13167,-2.50155 1.47226,-3.80871 0.24133,-1.07152 0.25267,-1.03429 0.41742,-2.11204 0.084,-0.55021 0.12499,-1.10551 0.21471,-1.655 0.029,-0.17721 -0.0717,-0.46619 0.11428,-0.52734 0.66909,-0.22008 1.41538,-0.13905 2.12307,-0.20858 0.0616,0.0561 0.13832,0.10132 0.18491,0.16827 0.16082,0.23112 0.43531,0.88838 0.51797,1.08351 0.40753,0.96202 0.77409,1.93779 1.16321,2.90589 0.63258,1.55807 0.18257,0.44044 0.71077,1.77181 0.0622,0.157 0.11616,0.317 0.18815,0.47055 0.0343,0.0732 0.21657,0.19547 0.1298,0.20763 -0.60808,0.0851 -2.64269,0.0697 -1.84535,0.0416 0.43572,-0.59441 0.53066,-1.36704 0.70066,-2.04639 0.0744,-0.49998 0.13758,-0.99408 0.15426,-1.49875 0.003,-0.10801 -0.11,-0.29184 0.004,-0.32417 1.94406,-0.552 1.793,-0.81511 2.07159,-0.15703 0.28899,0.94711 0.52032,1.90845 0.83517,2.84924 0.18019,0.58837 0.34841,1.17999 0.53874,1.76575 0.0355,0.10941 0.068,0.21984 0.11067,0.32711 0.0216,0.0541 0.14479,0.1493 0.0817,0.15581 -0.64354,0.0664 -1.29513,0.0242 -1.94271,0.0363 0.019,0.008 0.0377,0.0317 0.0569,0.0241 0.13247,-0.0517 0.29797,-0.67715 0.34651,-0.78797 0.26904,-1.01423 0.46602,-2.04374 0.65131,-3.07277 0.18986,-1.11077 0.32559,-2.22827 0.52122,-3.33833 0.68569,-0.0509 1.36951,-0.13079 2.05708,-0.1528 0.003,-1e-4 0.049,0.12138 0.0709,0.20937 0.0501,0.20165 0.0769,0.40808 0.12639,0.60987 0.0756,0.40507 0.1348,0.73493 0.44778,1.05028 0.78156,0.93101 1.56348,1.86169 2.31965,2.80998 0.79884,1.02755 1.63512,2.05464 2.15784,3.22819 l -2.0084,0.0258 c -0.0126,-0.0716 -0.018,-0.1446 -0.0378,-0.2149 -0.29992,-1.06625 -1.07909,-2.05848 -1.75951,-2.94798 -0.77301,-0.99356 -1.65224,-1.89993 -2.57425,-2.77901 -0.042,-0.0398 -0.2529,-0.23137 -0.29628,-0.29815 -0.14495,-0.22309 -0.14446,-0.59502 -0.18378,-0.84724 -0.0518,-0.19679 -0.0812,-0.40476 -0.16269,-0.59468 -0.0149,-0.0347 -0.0228,-0.0799 -0.0587,-0.098 -0.0208,-0.0105 -0.0802,0.039 -0.0563,0.0399 0.65103,0.0275 1.30313,0.0269 1.95469,0.0403 -0.29046,0.56959 -0.40928,1.19299 -0.53333,1.80518 -0.19978,0.98591 -0.1056,0.48439 -0.27756,1.47604 -0.15881,1.02642 -0.30024,2.05518 -0.46127,3.08125 -0.0781,0.31186 -0.10813,0.64612 -0.28987,0.92676 -0.68949,-0.038 -1.38829,-0.005 -2.06846,-0.11399 -0.0821,-0.0131 -0.0271,-0.14916 -0.0383,-0.22406 -0.0169,-0.11338 -0.0282,-0.2274 -0.0458,-0.3407 -0.0921,-0.59553 -0.22827,-1.1769 -0.37804,-1.76247 -0.17933,-0.64301 -0.37705,-1.28147 -0.62002,-1.90729 -0.12176,-0.31365 -0.23414,-0.62917 -0.4455,-0.90229 -0.0273,0.024 -0.12012,0.0696 -0.0821,0.072 0.64801,0.0422 1.31202,-0.0695 1.9483,0.0495 0.11109,0.0207 -0.0546,0.19958 -0.0752,0.30062 -0.10196,0.49795 -0.17695,1.00267 -0.26498,1.50279 -0.16614,0.70217 -0.2437,1.42995 -0.52142,2.10666 -0.41218,0.61225 -0.19244,0.34743 -2.12977,0.0102 -0.10494,-0.0183 -0.0387,-0.19041 -0.0559,-0.28597 -0.0291,-0.16194 -0.0508,-0.32497 -0.0827,-0.48646 -0.17761,-0.89671 -0.17332,-0.79412 -0.4575,-1.76975 -0.32301,-0.99224 -0.73499,-1.95964 -1.23104,-2.89135 -0.11993,-0.22527 -0.44151,-0.84723 -0.70526,-1.05029 -0.0756,-0.0583 -0.19046,-0.0504 -0.28568,-0.0755 0.57576,0.0532 1.19796,-0.0525 1.72728,0.15948 0.16385,0.0657 -0.16742,0.28859 -0.22356,0.44269 -0.0861,0.23639 -0.1419,0.48114 -0.20156,0.72415 -0.0736,0.29986 -0.12956,0.60309 -0.19814,0.90393 -0.16103,0.70641 -0.3304,1.41122 -0.49294,2.11734 -0.32741,1.29414 -0.59085,2.6165 -1.12513,3.85821 -0.43108,0.84306 -0.55387,0.48919 -2.27559,0.2201 -0.065,-0.0102 -0.0104,-0.11919 -0.0136,-0.17888 -0.004,-0.0819 -0.006,-0.16395 -0.009,-0.24593 -0.12393,-0.95954 -0.56692,-1.88401 -1.14215,-2.69254 -0.14075,-0.19784 -0.30466,-0.38134 -0.457,-0.57201 -0.41774,-0.41576 -0.85313,-0.8626 -1.45361,-1.06464 -0.13135,-0.0441 -0.5527,-0.0733 -0.41258,-0.073 1.7935,0.004 1.99263,-0.1612 1.34418,0.20149 -0.0788,0.0813 -0.16388,0.15789 -0.23635,0.24386 -0.68451,0.81197 -1.19371,1.87146 -1.65113,2.80179 -0.0849,0.18065 -0.16912,0.36151 -0.2545,0.54194 -0.0198,0.0417 -0.36099,0.83691 -0.52,0.82397 -2.25049,-0.18309 -1.96627,0.29411 -2.21337,-0.78575 -0.21991,-1.25498 -0.52286,-2.49531 -0.81186,-3.73808 -0.0769,-0.41311 -0.22115,-0.80984 -0.37589,-1.20294 -0.007,-0.0398 -0.0168,-0.10966 -0.0357,-0.14846 -0.0267,-0.0549 -0.071,-0.0934 -0.12806,-0.11948 0.63787,0.0226 1.27575,0.045 1.91363,0.0676 -0.0709,0.0529 -0.15096,0.0971 -0.2127,0.15868 -0.2595,0.25893 -0.60059,0.75364 -0.76941,1.0174 -0.55175,0.86209 -0.99415,1.77485 -1.44261,2.68295 -0.12551,0.26491 -0.2508,0.5299 -0.37653,0.79472 -0.11567,0.24359 -0.40259,0.86083 -0.55428,1.12872 -0.0573,0.10132 -0.0682,0.27911 -0.19286,0.29356 -2.24732,0.26044 -2.0085,0.51815 -2.18987,-0.55328 -0.16597,-1.84088 -0.45312,-3.67584 -0.91553,-5.47594 -0.0809,-0.3147 -0.179,-0.62554 -0.2685,-0.93831 -0.0991,-0.27006 -0.3171,-0.97224 -0.5431,-1.24321 -0.0729,-0.0874 -0.42296,-0.18525 -0.302,-0.18243 0.5257,0.0122 1.13469,-0.0682 1.56023,0.21166 0.19654,0.12926 -0.32395,0.32982 -0.45862,0.51291 -0.21997,0.29902 -0.40165,0.61974 -0.60247,0.92961 -0.76126,1.32968 -1.38883,2.71672 -2.10222,4.06688 -0.34609,0.65501 -0.42298,0.77034 -0.78335,1.38111 -0.24554,0.43063 -0.53795,0.83654 -0.8112,1.25255 -0.10683,0.16265 -0.15372,0.27169 -0.30365,0.4039 -0.0842,0.0743 -0.18183,0.13508 -0.27275,0.20263 -0.11764,0.0776 -0.2329,0.15822 -0.35292,0.23277 -0.36358,0.22584 -0.73765,0.43764 -1.10157,0.66303 z m -4.77914,1.22803 c -0.041,-2.38417 -0.38646,-4.75263 -0.81224,-7.10221 -0.0509,-0.22095 -0.14261,-0.68188 -0.24078,-0.92528 -0.0245,-0.0608 -0.1745,-0.16773 -0.10318,-0.16993 0.62668,-0.0193 1.25444,0.0462 1.87682,0.11527 0.0585,0.006 -0.11317,0.039 -0.15603,0.0758 -0.0921,0.0791 -0.16166,0.17734 -0.24248,0.26601 -1.04074,1.12682 -1.97052,2.32968 -2.85563,3.5592 -0.31437,0.37668 -0.53284,0.83238 -0.89712,1.17672 -0.0491,0.0465 -0.10155,0.11738 -0.17247,0.11347 -2.2547,-0.1245 -1.9505,0.34951 -2.24301,-0.71775 -0.1812,-0.76091 -0.35135,-1.52528 -0.58649,-2.27461 -0.1207,-0.38461 -0.33282,-1.00465 -0.54486,-1.3726 -0.0856,-0.14852 -0.20877,-0.27661 -0.31316,-0.41492 -1.16125,-0.18715 0.84371,-0.10946 1.1763,0.0806 0.19052,0.10886 -0.32066,0.28952 -0.45062,0.45618 -0.53583,0.68713 -0.85431,1.50112 -1.19491,2.27523 -0.35217,0.86898 -0.66825,1.74946 -1.02212,2.61789 -0.2872,0.64246 -0.24177,0.63303 -2.08702,0.0274 -0.20391,-0.0669 0.0263,-0.39281 0.0183,-0.58915 -0.0405,-0.99579 -0.26228,-1.96366 -0.47826,-2.93696 -0.29638,-1.08563 -0.61816,-2.17292 -1.05609,-3.22011 -0.005,-0.009 -0.10379,-0.22979 -0.17467,-0.23608 -0.0403,-0.004 -0.14235,0.0572 -0.10196,0.06 0.59619,0.0405 1.20935,-0.064 1.79259,0.0551 0.15024,0.0307 -0.26434,0.14489 -0.38413,0.23256 -0.22321,0.16338 -0.42841,0.34595 -0.64261,0.51893 -1.8532,1.70649 -3.23617,3.75486 -4.52878,5.82617 -0.24847,0.37285 -0.45655,0.76655 -0.69989,1.14205 -0.51326,0.79203 -1.02279,0.90511 -2.42293,0.10276 -0.26961,-0.15449 -0.0152,-0.57779 -0.0227,-0.8667 -0.15981,-2.26255 -0.5244,-4.52127 -1.17472,-6.71277 -0.09,-0.30321 -0.19689,-0.60207 -0.29534,-0.90311 -0.045,-0.10681 -0.27417,-0.79302 -0.49415,-0.93037 -0.0558,-0.0349 -0.26531,0.0316 -0.19829,0.041 0.58433,0.0811 1.24312,-0.0794 1.76271,0.17595 0.19627,0.0965 -0.22686,0.3489 -0.32508,0.53055 -0.13332,0.24658 -0.24592,0.50193 -0.36889,0.75291 -0.67587,1.49963 -1.34374,3.00229 -1.99284,4.51161 l -1.78474,-0.0679 v 0 c 0.81143,-1.45535 1.50537,-2.95984 2.09932,-4.49923 0.0905,-0.25393 0.18342,-0.50716 0.27152,-0.76179 0.0651,-0.18817 -0.0126,-0.49015 0.18806,-0.56652 0.65781,-0.25033 1.40276,-0.24846 2.11309,-0.30917 0.0585,-0.005 0.0948,0.0697 0.11813,0.11846 0.0833,0.1743 0.22099,0.90317 0.23523,0.97013 0.51189,2.54047 0.9044,5.10124 1.50573,7.62634 0.45245,1.3332 0.59787,0.80466 -1.52676,1.01996 -0.076,0.007 0.16174,-0.002 0.22495,-0.0408 0.11984,-0.0739 0.20937,-0.18265 0.30151,-0.28407 0.23796,-0.2619 0.70024,-0.88544 0.88541,-1.12888 1.43986,-1.97596 2.83746,-3.97989 4.42295,-5.86482 0.16293,-0.18312 0.3195,-0.37104 0.48881,-0.54936 0.0909,-0.0957 0.15381,-0.24954 0.29094,-0.27182 0.70498,-0.11454 1.42821,-0.11274 2.14433,-0.12383 0.0488,-7.5e-4 0.0797,0.0534 0.10884,0.089 0.0548,0.0671 0.0945,0.22551 0.11613,0.29373 0.25386,1.07705 0.45085,2.16437 0.70169,3.24208 0.21687,0.98023 0.39649,1.97724 0.69212,2.94153 0.0549,0.17896 0.39209,0.46233 0.19987,0.52697 -2.7381,0.92079 -2.31701,0.4785 -1.88449,-0.0247 0.57423,-0.80017 0.91417,-1.71966 1.3245,-2.59188 0.34415,-0.77667 0.67282,-1.56978 1.08996,-2.31775 0.10381,-0.18614 0.12222,-0.48253 0.34245,-0.54332 1.85275,-0.51136 1.71215,-0.51919 2.51607,0.0198 0.0785,0.14835 0.16923,0.29192 0.23568,0.44505 0.18179,0.41886 0.3337,0.96306 0.46355,1.38987 0.2304,0.75739 0.44813,1.51984 0.75609,2.25549 0.49304,0.8907 0.40482,0.40934 -1.53081,0.56192 -0.0787,0.006 0.16695,0.01 0.23531,-0.026 0.11709,-0.0615 0.20349,-0.16238 0.29511,-0.25261 0.24418,-0.24046 0.56747,-0.64128 0.77606,-0.89017 0.9205,-1.17146 1.81592,-2.35969 2.67035,-3.57164 0.0608,-0.094 0.12561,-0.18604 0.18247,-0.28208 0.0453,-0.0765 0.0281,-0.22938 0.12355,-0.23477 0.68885,-0.0389 1.38569,0.0108 2.06696,0.1109 0.0718,0.0106 0.0185,0.13075 0.0234,0.19646 0.0236,0.31188 0.0215,0.6251 0.0494,0.93676 0.11585,2.37704 0.33775,4.75201 0.75068,7.10297 -0.41692,0.46443 -0.90235,0.67767 -1.62669,0.0149 z" /><path
       style="display:inline;opacity:1;fill:none;fill-opacity:1;stroke:#8147ff;stroke-width:1.98916;stroke-linecap:round;stroke-linejoin:round;stroke-dasharray:none;stroke-opacity:0.746204"
       d="m 720.80634,281.15776 c 1.1575,0.17761 2.29579,-0.16542 3.43121,-0.22119 4.61965,-0.22688 9.31232,0 13.9393,0 3.29041,0 6.81669,-0.2804 10.07918,0 0.43331,0.0373 0.85404,0.17656 1.2867,0.22119 2.85753,0.29473 5.9234,0 8.79248,0 1.62715,0 3.30868,0.10466 4.93236,0 0.9706,0.14863 1.85041,-0.36799 2.78786,-0.44236 2.46865,-0.19587 5.02984,0 7.50577,0 0.71484,0 1.43042,0.0334 2.14451,0 1.5013,-0.0704 3.00504,-0.10231 4.50346,-0.22119 0.29387,-0.0233 0.56454,-0.19093 0.85781,-0.22118 1.53299,-0.15812 3.17473,0 4.71791,0 0.71256,0 1.93006,-0.34201 1.93006,0.66354"
       id="path816" /></g><path
     style="display:inline;fill:#a783f6;fill-opacity:1;stroke:#830cad;stroke-width:1;stroke-linejoin:round;stroke-dasharray:none;stroke-opacity:1;filter:url(#filter1882)"
     id="path1876"
     d="m 1049.6512,520.55145 c 0.1257,-1.00229 0.4947,-1.95344 0.7071,-2.93875 0.1131,-0.52471 0.2032,-1.05415 0.3049,-1.58123 0.8518,-4.54385 1.4704,-9.12912 1.9387,-13.7278 0.2421,-2.71202 0.4689,-5.46304 0.04,-8.17018 -0.059,-0.37328 -0.1544,-0.73989 -0.2316,-1.10983 -0.4107,-1.61487 -0.921,-2.71703 -2.1796,-3.8059 -0.9705,-0.66849 -1.8695,-0.7508 -3.01,-0.61904 -1.1392,0.26355 -2.2015,0.82125 -3.0488,1.63715 -0.2298,0.2213 -0.4336,0.46835 -0.6504,0.70252 -2.1733,2.73658 -3.0993,6.17605 -4.0026,9.4929 -0.8746,3.4813 -1.4902,7.02548 -1.8952,10.59207 -0.2577,2.26942 -0.3021,3.19414 -0.4663,5.45802 -0.1544,3.08806 -0.3487,6.18339 -0.2544,9.27713 0.055,1.80008 0.1201,2.1544 0.2961,3.91449 0.3031,2.82189 1.1165,5.53875 2.3141,8.0998 0.6553,1.44279 1.5707,2.58464 2.8413,3.51193 0.758,0.55479 1.5972,0.88958 2.5295,0.95891 0.768,-0.012 1.4559,-0.26819 2.1,-0.6698 0.8632,-0.6689 1.3366,-1.688 1.7737,-2.66235 1.0652,-2.59055 1.7364,-5.33876 2.1976,-8.09889 0.1495,-0.89423 0.2612,-1.79441 0.3918,-2.69161 0.6033,-4.7037 0.6948,-9.45741 0.4157,-14.18847 -0.1714,-2.90584 -0.3586,-4.29316 -0.6713,-7.12428 -0.067,-0.60264 -0.9146,-0.50798 -0.8481,0.0946 v 0 c 0.3104,2.80655 0.4963,4.18317 0.6668,7.06293 0.2771,4.6785 0.1884,9.37954 -0.4074,14.03122 -0.1284,0.88412 -0.2382,1.77118 -0.3851,2.65239 -0.4494,2.6955 -1.1015,5.38048 -2.1386,7.91148 -0.3629,0.81989 -0.7529,1.69318 -1.4485,2.2865 -0.4886,0.31228 -1.007,0.51333 -1.593,0.54043 -0.7721,-0.0367 -1.4583,-0.35154 -2.0845,-0.79896 -1.14,-0.81674 -1.9894,-1.8955 -2.568,-3.18136 -1.1601,-2.47124 -1.9421,-5.09647 -2.237,-7.8205 -0.1732,-1.7226 -0.2377,-2.07373 -0.2919,-3.83683 -0.094,-3.07016 0.1,-6.14193 0.2521,-9.20648 0.3885,-5.36041 0.9742,-10.67215 2.3337,-15.88626 0.8655,-3.18425 1.7417,-6.49486 3.8061,-9.13713 0.1913,-0.20956 0.3709,-0.43035 0.5736,-0.62871 0.7218,-0.70634 1.6296,-1.19652 2.603,-1.44179 0.821,-0.10949 1.6467,-0.0612 2.3529,0.42084 1.0966,0.92553 1.5451,1.941 1.8979,3.3304 0.073,0.34354 0.1634,0.68381 0.2188,1.03066 0.4222,2.64555 0.1945,5.33424 -0.041,7.98468 -0.4654,4.57339 -1.0809,9.1334 -1.9276,13.6523 -0.098,0.51185 -0.1853,1.02601 -0.2948,1.53552 -0.2264,1.05282 -0.6348,2.06982 -0.7327,3.14723 0,0.60634 0.8532,0.60634 0.8532,0 z" /><path
     style="display:inline;fill:#a783f6;fill-opacity:1;stroke:#a783f6;stroke-width:1;stroke-linejoin:round;stroke-dasharray:none;stroke-opacity:1"
     id="path1735"
     d="m 1049.6512,520.55145 c 0.1257,-1.00229 0.4947,-1.95344 0.7071,-2.93875 0.1131,-0.52471 0.2032,-1.05415 0.3049,-1.58123 0.8518,-4.54385 1.4704,-9.12912 1.9387,-13.7278 0.2421,-2.71202 0.4689,-5.46304 0.04,-8.17018 -0.059,-0.37328 -0.1544,-0.73989 -0.2316,-1.10983 -0.4107,-1.61487 -0.921,-2.71703 -2.1796,-3.8059 -0.9705,-0.66849 -1.8695,-0.7508 -3.01,-0.61904 -1.1392,0.26355 -2.2015,0.82125 -3.0488,1.63715 -0.2298,0.2213 -0.4336,0.46835 -0.6504,0.70252 -2.1733,2.73658 -3.0993,6.17605 -4.0026,9.4929 -0.8746,3.4813 -1.4902,7.02548 -1.8952,10.59207 -0.2577,2.26942 -0.3021,3.19414 -0.4663,5.45802 -0.1544,3.08806 -0.3487,6.18339 -0.2544,9.27713 0.055,1.80008 0.1201,2.1544 0.2961,3.91449 0.3031,2.82189 1.1165,5.53875 2.3141,8.0998 0.6553,1.44279 1.5707,2.58464 2.8413,3.51193 0.758,0.55479 1.5972,0.88958 2.5295,0.95891 0.768,-0.012 1.4559,-0.26819 2.1,-0.6698 0.8632,-0.6689 1.3366,-1.688 1.7737,-2.66235 1.0652,-2.59055 1.7364,-5.33876 2.1976,-8.09889 0.1495,-0.89423 0.2612,-1.79441 0.3918,-2.69161 0.6033,-4.7037 0.6948,-9.45741 0.4157,-14.18847 -0.1714,-2.90584 -0.3586,-4.29316 -0.6713,-7.12428 -0.067,-0.60264 -0.9146,-0.50798 -0.8481,0.0946 v 0 c 0.3104,2.80655 0.4963,4.18317 0.6668,7.06293 0.2771,4.6785 0.1884,9.37954 -0.4074,14.03122 -0.1284,0.88412 -0.2382,1.77118 -0.3851,2.65239 -0.4494,2.6955 -1.1015,5.38048 -2.1386,7.91148 -0.3629,0.81989 -0.7529,1.69318 -1.4485,2.2865 -0.4886,0.31228 -1.007,0.51333 -1.593,0.54043 -0.7721,-0.0367 -1.4583,-0.35154 -2.0845,-0.79896 -1.14,-0.81674 -1.9894,-1.8955 -2.568,-3.18136 -1.1601,-2.47124 -1.9421,-5.09647 -2.237,-7.8205 -0.1732,-1.7226 -0.2377,-2.07373 -0.2919,-3.83683 -0.094,-3.07016 0.1,-6.14193 0.2521,-9.20648 0.3885,-5.36041 0.9742,-10.67215 2.3337,-15.88626 0.8655,-3.18425 1.7417,-6.49486 3.8061,-9.13713 0.1913,-0.20956 0.3709,-0.43035 0.5736,-0.62871 0.7218,-0.70634 1.6296,-1.19652 2.603,-1.44179 0.821,-0.10949 1.6467,-0.0612 2.3529,0.42084 1.0966,0.92553 1.5451,1.941 1.8979,3.3304 0.073,0.34354 0.1634,0.68381 0.2188,1.03066 0.4222,2.64555 0.1945,5.33424 -0.041,7.98468 -0.4654,4.57339 -1.0809,9.1334 -1.9276,13.6523 -0.098,0.51185 -0.1853,1.02601 -0.2948,1.53552 -0.2264,1.05282 -0.6348,2.06982 -0.7327,3.14723 0,0.60634 0.8532,0.60634 0.8532,0 z" /><path
     id="path1344"
     style="fill:none;fill-opacity:1;stroke:#d8b4f6;stroke-width:5;stroke-linecap:round;stroke-linejoin:round;stroke-dasharray:none;stroke-opacity:1;filter:url(#filter1894)"
     d="m 960.55821,222.18521 h 22.74869 v 64.67946 h -22.74869 z" /><path
     id="path1594"
     style="fill:none;fill-opacity:1;stroke:#d8b4f6;stroke-width:5;stroke-linecap:round;stroke-linejoin:round;stroke-dasharray:none;stroke-opacity:1;filter:url(#filter1892)"
     d="m 936.47251,394.36635 h 22.7488 v 64.67946 h -22.7488 z" /><path
     id="path1729"
     style="fill:none;fill-opacity:1;stroke:#d8b4f6;stroke-width:5;stroke-linecap:round;stroke-linejoin:round;stroke-dasharray:none;stroke-opacity:1;filter:url(#filter1893)"
     d="m 888.30126,394.36635 h 22.74875 v 64.67946 h -22.74875 z" /><path
     id="path1732"
     style="fill:none;fill-opacity:1;stroke:#d8b4f6;stroke-width:5;stroke-linecap:round;stroke-linejoin:round;stroke-dasharray:none;stroke-opacity:1;filter:url(#filter1891)"
     d="m 1032.8151,521.45054 v -36.94161 h 22.7487 v 36.94161 z" /><path
     style="fill:#a783f6;fill-opacity:1;stroke:#8a1fe4;stroke-width:3;stroke-linejoin:round;stroke-dasharray:none;stroke-opacity:1;filter:url(#filter1881)"
     id="path1877"
     d="m 896.51276,409.31076 c -0.85304,2.73327 -1.35699,5.55929 -1.87729,8.37241 -1.12327,6.13342 -1.66998,12.35536 -1.95718,18.58132 -0.10372,2.5558 -0.0593,5.12307 0.36642,7.64945 0.1809,1.07348 0.27483,1.35101 0.53711,2.35608 0.42269,1.37239 0.96807,2.2658 2.17966,3.00245 0.68925,0.35106 1.45649,0.36985 2.21029,0.38264 0.79094,0.0397 1.52955,-0.23225 2.19632,-0.64199 0.89502,-0.81482 1.25559,-2.0289 1.64372,-3.14686 0.86622,-2.42014 1.41009,-4.936 1.87652,-7.46163 0.62903,-3.72747 0.98743,-7.49688 1.23297,-11.26871 0.0711,-1.09141 0.14437,-2.18306 0.18145,-3.27621 0.0375,-1.10702 0.0283,-2.21517 0.0424,-3.32274 -0.1138,-4.35493 -0.2843,-8.7927 -1.50234,-13.00251 -0.14833,-0.51268 -0.34464,-1.00974 -0.51695,-1.5146 -0.59356,-1.16965 -1.46765,-3.23071 -3.02324,-3.32503 -0.23486,-0.0143 -0.46648,0.0627 -0.69972,0.0941 -0.24535,0.12284 -0.50581,0.21848 -0.73608,0.36852 -1.94734,1.26882 -3.29682,3.99633 -4.37031,5.98129 -1.3393,2.73865 -2.29791,5.64983 -2.79075,8.66919 -0.37725,2.31127 -0.35548,3.07959 -0.49262,5.46774 -0.0871,4.193 0.11185,8.42769 0.72037,12.57945 0.31382,2.14116 0.60097,3.27437 1.05873,5.34117 0.83246,3.05314 1.91372,6.08316 3.64389,8.74117 0.23922,0.36752 0.5102,0.71262 0.76529,1.06892 0.67899,0.7579 1.64194,2.03783 2.7185,2.2383 0.22168,0.0413 0.474,0.0895 0.67598,-0.0121 0.36683,-0.18457 0.62752,-0.53441 0.94128,-0.80162 0.29593,-0.48185 0.62784,-0.94271 0.88777,-1.44557 1.37643,-2.66288 2.09218,-5.57068 2.592,-8.51869 0.60995,-3.59761 0.83821,-6.5249 1.20376,-10.1686 0.62677,-8.34623 1.05731,-16.71812 1.00977,-25.09087 -0.11816,-1.57734 0.032,-4.0362 -1.08964,-5.34303 -0.0994,-0.11576 -0.22654,-0.20343 -0.33982,-0.30514 -0.62815,-0.41897 -1.128,-0.308 -1.79506,-0.0758 -1.08036,0.41613 -2.01029,1.1454 -2.95679,1.80268 -1.25295,0.82954 -2.3179,1.8986 -3.39613,2.94012 -0.38008,0.36738 0.13096,0.91382 0.51103,0.54645 v 0 c 1.04878,-1.01441 2.08357,-2.05696 3.30346,-2.86398 0.89193,-0.6195 1.76708,-1.3112 2.78093,-1.71271 0.37005,-0.13181 0.7092,-0.27816 1.07523,-0.0596 0.0722,0.0569 0.15409,0.1029 0.21665,0.17056 0.98121,1.06146 0.84488,3.61617 0.94849,4.9049 0.0479,8.34575 -0.38237,16.69064 -1.00597,25.01002 -0.36402,3.6322 -0.58725,6.50386 -1.19135,10.08822 -0.56502,3.35249 -1.41969,6.70349 -3.26983,9.57903 -0.15869,0.19714 -0.27694,0.43678 -0.47605,0.59143 -0.22168,0.17218 -0.6576,-0.0148 -0.8297,-0.10902 -0.77484,-0.42428 -1.34463,-1.15498 -1.91531,-1.80924 -0.24351,-0.33863 -0.50238,-0.66638 -0.73052,-1.0159 -1.68917,-2.58783 -2.74001,-5.54199 -3.55433,-8.51559 -0.44918,-2.02554 -0.73814,-3.16836 -1.04576,-5.26431 -0.6034,-4.11099 -0.8007,-8.29499 -0.71645,-12.44688 0.13297,-2.34136 0.11127,-3.09494 0.4786,-5.35926 0.47785,-2.94558 1.41049,-5.78569 2.71434,-8.45826 1.0526,-1.94866 2.20832,-4.36252 4.06205,-5.67521 0.16296,-0.1154 0.34702,-0.19646 0.52053,-0.2947 0.13754,-0.0337 0.27124,-0.0957 0.41261,-0.1011 1.17053,-0.0449 2.06498,2.01866 2.48371,2.83681 0.1661,0.4838 0.35561,0.95993 0.49832,1.45139 1.20382,4.14581 1.36454,8.51907 1.47982,12.80821 -0.0137,1.09669 -0.004,2.19393 -0.0412,3.29006 -0.0368,1.08814 -0.10981,2.1748 -0.18047,3.26121 -0.24355,3.74444 -0.59864,7.48655 -1.22241,11.18706 -0.45866,2.48785 -0.99392,4.9661 -1.84703,7.34992 -0.33171,0.95745 -0.63379,2.00051 -1.33329,2.75564 -0.53893,0.34614 -1.15059,0.56265 -1.7952,0.53004 -0.62414,-0.0101 -1.26678,-0.009 -1.84588,-0.27837 -0.99584,-0.58525 -1.51163,-1.42658 -1.83941,-2.54659 -0.25334,-0.96627 -0.3447,-1.2357 -0.51969,-2.26925 -0.41979,-2.47922 -0.46136,-4.9989 -0.35974,-7.50723 0.2851,-6.19106 0.82863,-12.37819 1.94523,-18.47729 0.51393,-2.77957 1.01041,-5.57224 1.85199,-8.27328 0.16584,-0.5058 -0.53776,-0.74424 -0.7036,-0.23844 z" /><path
     style="fill:#a783f6;fill-opacity:1;stroke:#8a1fe4;stroke-width:3;stroke-linejoin:round;stroke-dasharray:none;stroke-opacity:1;filter:url(#filter1880)"
     id="path1878"
     d="m 969.21991,231.99297 c -1.3096,6.16176 -1.7066,12.47063 -2.1753,18.73807 -0.301,8.73519 -1.5286,17.55861 -0.4287,26.27743 0.579,2.55759 1.8799,5.24066 4.57009,6.12779 0.351,0.11576 0.7292,0.12135 1.0938,0.18204 3.0619,-0.44708 4.0823,-3.41787 4.9537,-5.99371 2.0288,-8.44274 2.1247,-17.25872 2.1267,-25.90127 -0.2513,-7.3639 -0.5312,-14.99713 -3.363,-21.9008 -1.1716,-2.19423 -2.3949,-3.34273 -4.9369,-2.8612 -1.78229,0.69441 -2.67209,2.34205 -3.39859,4.00448 -1.6025,3.70947 -2.1795,7.71196 -2.7079,11.68515 -0.8119,7.93219 -1.0732,15.91105 -0.7802,23.87679 0.283,4.62003 1.158,9.1463 2.7545,13.48542 0.2343,0.63584 1.1335,0.30448 0.8992,-0.33136 v 0 c -1.566,-4.24256 -2.4148,-8.67139 -2.696,-13.18937 -0.2924,-7.91181 -0.031,-15.8366 0.7725,-23.7153 0.5153,-3.88549 1.0727,-7.80147 2.6371,-11.43017 0.5886,-1.37 1.2921,-2.78929 2.71309,-3.4471 2.0336,-0.46794 2.908,0.55979 3.8571,2.28764 2.8035,6.77757 3.0219,14.30599 3.2907,21.53569 -5e-4,8.53971 -0.095,17.24916 -2.0766,25.59582 -0.7047,2.1068 -1.4724,4.74372 -3.9076,5.35092 -2.84699,-0.33251 -4.27629,-2.90239 -4.85089,-5.48222 -1.1069,-8.65221 0.1531,-17.41621 0.4335,-26.08522 0.4656,-6.22833 0.8582,-12.49821 2.15939,-18.62157 0.133,-0.66448 -0.80679,-0.85242 -0.93969,-0.18795 z" /><path
     style="fill:#a783f6;fill-opacity:1;stroke:#8a1fe4;stroke-width:3;stroke-linejoin:round;stroke-dasharray:none;stroke-opacity:1;filter:url(#filter1879)"
     id="path1879"
     d="m 944.35671,427.97339 c -0.3097,-1.12283 -0.3883,-2.33325 -0.4646,-3.50738 -0.1416,-2.17656 -0.103,-2.02905 -0.1139,-4.36911 0.053,-3.89697 0.385,-7.83954 1.2544,-11.59893 0.1125,-0.4867 0.2563,-0.96155 0.3844,-1.44233 0.2335,-0.56712 0.5239,-1.83745 1.1019,-2.11598 0.3331,-0.16051 1.0496,0.7771 1.2009,0.94255 0.2375,0.40329 0.4916,0.79246 0.7126,1.20988 0.6798,1.28369 1.1392,2.40484 1.6565,3.8279 0.7202,1.98105 1.3075,3.91361 1.8522,5.98456 0.308,1.17104 0.5701,2.35979 0.8551,3.53969 1.0817,4.83344 1.8485,9.76803 2.3326,14.74606 0.2551,2.624 0.3362,4.11845 0.5083,6.7049 0.051,1.966 0.1341,3.16921 0,5.09157 -0.078,1.10931 -0.2231,2.2825 -0.6163,3.30363 -0.3969,1.0306 -0.6413,1.13826 -1.3163,1.84438 -0.8404,0.66997 -1.7826,1.01184 -2.756,1.23787 -0.4789,0.11121 -1.1932,0.26104 -1.693,0.14281 -0.2377,-0.0563 -0.4506,-0.21912 -0.6759,-0.32867 -0.2296,-0.37355 -0.496,-0.71648 -0.6887,-1.12063 -0.7638,-1.60168 -1.2471,-3.26474 -1.6614,-5.05582 -0.6338,-2.74001 -1.0141,-5.3837 -1.3312,-8.21215 -0.1854,-1.6543 -0.3063,-3.31865 -0.4596,-4.97797 -0.5868,-8.03521 -0.9092,-16.10592 -0.7378,-24.17324 0.053,-1.80832 0.1679,-3.61627 0.4628,-5.39121 0.1137,-0.68438 0.2535,-1.39853 0.4813,-2.04401 0.074,-0.20925 0.1783,-0.39993 0.2674,-0.59989 0.1034,-0.0881 0.1908,-0.21641 0.3103,-0.26443 0.4574,-0.1838 1.0392,0.46966 1.2948,0.78217 0.6939,0.84808 0.9654,1.37598 1.5698,2.36612 1.3238,2.38247 2.5116,4.89179 3.535,7.49194 0.7469,1.89749 0.9443,2.58167 1.5873,4.52313 1.6445,5.22101 1.9333,10.85335 2.1915,16.38893 0.032,3.61875 0.2068,7.35618 -0.6223,10.878 -0.1272,0.53995 -0.3,1.06179 -0.45,1.59268 -0.7516,2.17904 -1.6188,4.33688 -3.0493,5.95634 -0.1147,0.0622 -0.2224,0.15025 -0.344,0.18649 -0.8036,0.23923 -1.8579,-1.0568 -2.3683,-1.61647 -0.2777,-0.40079 -0.5747,-0.78217 -0.8329,-1.20234 -1.8414,-2.99614 -3.11,-6.50328 -4.1139,-10.03376 -0.3265,-1.1483 -0.5983,-2.31925 -0.8975,-3.47888 -1.2336,-5.40005 -1.9113,-10.95982 -2.2732,-16.54436 -0.1507,-2.81329 0.1959,-5.61683 0.4568,-8.40464 0.2414,-2.30027 0.441,-4.63008 0.9906,-6.85647 0.173,-0.50736 0.5595,-0.76545 0.9241,-1.03703 0.4533,-0.33919 0.065,-1.13212 -0.3878,-0.79293 v 0 c -0.5271,0.39597 -1.0297,0.81026 -1.2531,1.56019 -0.5595,2.28106 -0.7755,4.66272 -1.0182,7.01972 -0.2663,2.84782 -0.6173,5.71149 -0.4593,8.58528 0.3672,5.65499 1.0543,11.28482 2.3064,16.75216 0.3041,1.17712 0.5803,2.36588 0.9124,3.5314 1.0333,3.62617 2.3418,7.23579 4.245,10.30424 0.2805,0.45228 0.6035,0.86181 0.9052,1.29271 0.8303,0.89981 1.9617,2.24642 3.1929,1.75363 0.1872,-0.075 0.3488,-0.22553 0.5233,-0.33829 0.1566,-0.18046 0.3227,-0.34912 0.4699,-0.54141 1.2578,-1.64376 2.0598,-3.74034 2.7786,-5.79124 0.4365,-1.56023 0.5402,-1.73744 0.7806,-3.34209 0.4682,-3.12595 0.3873,-6.3244 0.332,-9.48637 -0.2635,-5.6381 -0.5662,-11.37149 -2.2462,-16.68688 -0.6562,-1.97957 -0.8528,-2.66218 -1.6152,-4.59793 -1.0426,-2.64696 -2.2528,-5.20124 -3.603,-7.62504 -0.7646,-1.24655 -2.3145,-4.30704 -3.9331,-3.30963 -0.1984,0.12224 -0.3323,0.36289 -0.4984,0.54431 -0.1047,0.2436 -0.2263,0.47729 -0.3143,0.73081 -0.2397,0.69 -0.3928,1.46417 -0.5132,2.19385 -0.3004,1.81995 -0.4201,3.67305 -0.4738,5.5269 -0.1715,8.11058 0.151,16.22459 0.7424,24.30279 0.155,1.67488 0.2771,3.35489 0.4649,5.02462 0.322,2.86384 0.7144,5.58597 1.3618,8.3615 0.3817,1.63691 1.0075,3.86606 1.7944,5.34803 0.2775,0.52247 0.6732,0.93255 1.0097,1.39883 0.3065,0.12788 0.6007,0.31543 0.9194,0.38363 0.5488,0.11746 1.3382,-0.0395 1.87,-0.16575 1.0962,-0.26018 2.1476,-0.66317 3.0823,-1.44298 0.8039,-0.88852 1.0661,-0.99853 1.5347,-2.24965 0.968,-2.58407 0.6982,-6.01925 0.6532,-8.76453 -0.1735,-2.60525 -0.2551,-4.11005 -0.5127,-6.75382 -0.4893,-5.02554 -1.2641,-10.00718 -2.357,-14.88657 -0.2889,-1.19455 -0.5546,-2.39812 -0.8668,-3.58367 -0.5518,-2.09547 -1.1543,-4.07749 -1.8855,-6.08276 -0.5091,-1.39652 -1.0401,-2.7018 -1.7272,-3.97182 -0.2555,-0.47215 -0.5519,-0.90839 -0.8278,-1.36259 -0.4547,-0.46857 -0.8494,-1.02351 -1.4857,-1.11708 -1.1759,-0.17293 -1.6549,1.73062 -2.0159,2.70536 -0.1331,0.50198 -0.2822,0.9979 -0.3993,1.50593 -0.8841,3.83529 -1.2248,7.85532 -1.2769,11.83039 0.012,2.36781 -0.027,2.25634 0.1176,4.45692 0.087,1.32867 0.1578,2.74006 0.6107,3.96997 0.3179,0.52424 0.9173,-0.0318 0.5994,-0.55604 z" /><path
     style="fill:#a783f6;fill-opacity:1;stroke:#a783f6;stroke-width:1;stroke-linejoin:round;stroke-dasharray:none;stroke-opacity:1"
     id="path1814"
     d="m 896.51276,409.31076 c -0.85304,2.73327 -1.35699,5.55929 -1.87729,8.37241 -1.12327,6.13342 -1.66998,12.35536 -1.95718,18.58132 -0.10372,2.5558 -0.0593,5.12307 0.36642,7.64945 0.1809,1.07348 0.27483,1.35101 0.53711,2.35608 0.42269,1.37239 0.96807,2.2658 2.17966,3.00245 0.68925,0.35106 1.45649,0.36985 2.21029,0.38264 0.79094,0.0397 1.52955,-0.23225 2.19632,-0.64199 0.89502,-0.81482 1.25559,-2.0289 1.64372,-3.14686 0.86622,-2.42014 1.41009,-4.936 1.87652,-7.46163 0.62903,-3.72747 0.98743,-7.49688 1.23297,-11.26871 0.0711,-1.09141 0.14437,-2.18306 0.18145,-3.27621 0.0375,-1.10702 0.0283,-2.21517 0.0424,-3.32274 -0.1138,-4.35493 -0.2843,-8.7927 -1.50234,-13.00251 -0.14833,-0.51268 -0.34464,-1.00974 -0.51695,-1.5146 -0.59356,-1.16965 -1.46765,-3.23071 -3.02324,-3.32503 -0.23486,-0.0143 -0.46648,0.0627 -0.69972,0.0941 -0.24535,0.12284 -0.50581,0.21848 -0.73608,0.36852 -1.94734,1.26882 -3.29682,3.99633 -4.37031,5.98129 -1.3393,2.73865 -2.29791,5.64983 -2.79075,8.66919 -0.37725,2.31127 -0.35548,3.07959 -0.49262,5.46774 -0.0871,4.193 0.11185,8.42769 0.72037,12.57945 0.31382,2.14116 0.60097,3.27437 1.05873,5.34117 0.83246,3.05314 1.91372,6.08316 3.64389,8.74117 0.23922,0.36752 0.5102,0.71262 0.76529,1.06892 0.67899,0.7579 1.64194,2.03783 2.7185,2.2383 0.22168,0.0413 0.474,0.0895 0.67598,-0.0121 0.36683,-0.18457 0.62752,-0.53441 0.94128,-0.80162 0.29593,-0.48185 0.62784,-0.94271 0.88777,-1.44557 1.37643,-2.66288 2.09218,-5.57068 2.592,-8.51869 0.60995,-3.59761 0.83821,-6.5249 1.20376,-10.1686 0.62677,-8.34623 1.05731,-16.71812 1.00977,-25.09087 -0.11816,-1.57734 0.032,-4.0362 -1.08964,-5.34303 -0.0994,-0.11576 -0.22654,-0.20343 -0.33982,-0.30514 -0.62815,-0.41897 -1.128,-0.308 -1.79506,-0.0758 -1.08036,0.41613 -2.01029,1.1454 -2.95679,1.80268 -1.25295,0.82954 -2.3179,1.8986 -3.39613,2.94012 -0.38008,0.36738 0.13096,0.91382 0.51103,0.54645 v 0 c 1.04878,-1.01441 2.08357,-2.05696 3.30346,-2.86398 0.89193,-0.6195 1.76708,-1.3112 2.78093,-1.71271 0.37005,-0.13181 0.7092,-0.27816 1.07523,-0.0596 0.0722,0.0569 0.15409,0.1029 0.21665,0.17056 0.98121,1.06146 0.84488,3.61617 0.94849,4.9049 0.0479,8.34575 -0.38237,16.69064 -1.00597,25.01002 -0.36402,3.6322 -0.58725,6.50386 -1.19135,10.08822 -0.56502,3.35249 -1.41969,6.70349 -3.26983,9.57903 -0.15869,0.19714 -0.27694,0.43678 -0.47605,0.59143 -0.22168,0.17218 -0.6576,-0.0148 -0.8297,-0.10902 -0.77484,-0.42428 -1.34463,-1.15498 -1.91531,-1.80924 -0.24351,-0.33863 -0.50238,-0.66638 -0.73052,-1.0159 -1.68917,-2.58783 -2.74001,-5.54199 -3.55433,-8.51559 -0.44918,-2.02554 -0.73814,-3.16836 -1.04576,-5.26431 -0.6034,-4.11099 -0.8007,-8.29499 -0.71645,-12.44688 0.13297,-2.34136 0.11127,-3.09494 0.4786,-5.35926 0.47785,-2.94558 1.41049,-5.78569 2.71434,-8.45826 1.0526,-1.94866 2.20832,-4.36252 4.06205,-5.67521 0.16296,-0.1154 0.34702,-0.19646 0.52053,-0.2947 0.13754,-0.0337 0.27124,-0.0957 0.41261,-0.1011 1.17053,-0.0449 2.06498,2.01866 2.48371,2.83681 0.1661,0.4838 0.35561,0.95993 0.49832,1.45139 1.20382,4.14581 1.36454,8.51907 1.47982,12.80821 -0.0137,1.09669 -0.004,2.19393 -0.0412,3.29006 -0.0368,1.08814 -0.10981,2.1748 -0.18047,3.26121 -0.24355,3.74444 -0.59864,7.48655 -1.22241,11.18706 -0.45866,2.48785 -0.99392,4.9661 -1.84703,7.34992 -0.33171,0.95745 -0.63379,2.00051 -1.33329,2.75564 -0.53893,0.34614 -1.15059,0.56265 -1.7952,0.53004 -0.62414,-0.0101 -1.26678,-0.009 -1.84588,-0.27837 -0.99584,-0.58525 -1.51163,-1.42658 -1.83941,-2.54659 -0.25334,-0.96627 -0.3447,-1.2357 -0.51969,-2.26925 -0.41979,-2.47922 -0.46136,-4.9989 -0.35974,-7.50723 0.2851,-6.19106 0.82863,-12.37819 1.94523,-18.47729 0.51393,-2.77957 1.01041,-5.57224 1.85199,-8.27328 0.16584,-0.5058 -0.53776,-0.74424 -0.7036,-0.23844 z" /><path
     style="fill:#a783f6;fill-opacity:1;stroke:#a783f6;stroke-width:1;stroke-linejoin:round;stroke-dasharray:none;stroke-opacity:1"
     id="path1867"
     d="m 969.21991,231.99297 c -1.3096,6.16176 -1.7066,12.47063 -2.1753,18.73807 -0.301,8.73519 -1.5286,17.55861 -0.4287,26.27743 0.579,2.55759 1.8799,5.24066 4.57009,6.12779 0.351,0.11576 0.7292,0.12135 1.0938,0.18204 3.0619,-0.44708 4.0823,-3.41787 4.9537,-5.99371 2.0288,-8.44274 2.1247,-17.25872 2.1267,-25.90127 -0.2513,-7.3639 -0.5312,-14.99713 -3.363,-21.9008 -1.1716,-2.19423 -2.3949,-3.34273 -4.9369,-2.8612 -1.78229,0.69441 -2.67209,2.34205 -3.39859,4.00448 -1.6025,3.70947 -2.1795,7.71196 -2.7079,11.68515 -0.8119,7.93219 -1.0732,15.91105 -0.7802,23.87679 0.283,4.62003 1.158,9.1463 2.7545,13.48542 0.2343,0.63584 1.1335,0.30448 0.8992,-0.33136 v 0 c -1.566,-4.24256 -2.4148,-8.67139 -2.696,-13.18937 -0.2924,-7.91181 -0.031,-15.8366 0.7725,-23.7153 0.5153,-3.88549 1.0727,-7.80147 2.6371,-11.43017 0.5886,-1.37 1.2921,-2.78929 2.71309,-3.4471 2.0336,-0.46794 2.908,0.55979 3.8571,2.28764 2.8035,6.77757 3.0219,14.30599 3.2907,21.53569 -5e-4,8.53971 -0.095,17.24916 -2.0766,25.59582 -0.7047,2.1068 -1.4724,4.74372 -3.9076,5.35092 -2.84699,-0.33251 -4.27629,-2.90239 -4.85089,-5.48222 -1.1069,-8.65221 0.1531,-17.41621 0.4335,-26.08522 0.4656,-6.22833 0.8582,-12.49821 2.15939,-18.62157 0.133,-0.66448 -0.80679,-0.85242 -0.93969,-0.18795 z" /><path
     style="fill:#a783f6;fill-opacity:1;stroke:#a783f6;stroke-width:1;stroke-linejoin:round;stroke-dasharray:none;stroke-opacity:1"
     id="path1875"
     d="m 944.35671,427.97339 c -0.3097,-1.12283 -0.3883,-2.33325 -0.4646,-3.50738 -0.1416,-2.17656 -0.103,-2.02905 -0.1139,-4.36911 0.053,-3.89697 0.385,-7.83954 1.2544,-11.59893 0.1125,-0.4867 0.2563,-0.96155 0.3844,-1.44233 0.2335,-0.56712 0.5239,-1.83745 1.1019,-2.11598 0.3331,-0.16051 1.0496,0.7771 1.2009,0.94255 0.2375,0.40329 0.4916,0.79246 0.7126,1.20988 0.6798,1.28369 1.1392,2.40484 1.6565,3.8279 0.7202,1.98105 1.3075,3.91361 1.8522,5.98456 0.308,1.17104 0.5701,2.35979 0.8551,3.53969 1.0817,4.83344 1.8485,9.76803 2.3326,14.74606 0.2551,2.624 0.3362,4.11845 0.5083,6.7049 0.051,1.966 0.1341,3.16921 0,5.09157 -0.078,1.10931 -0.2231,2.2825 -0.6163,3.30363 -0.3969,1.0306 -0.6413,1.13826 -1.3163,1.84438 -0.8404,0.66997 -1.7826,1.01184 -2.756,1.23787 -0.4789,0.11121 -1.1932,0.26104 -1.693,0.14281 -0.2377,-0.0563 -0.4506,-0.21912 -0.6759,-0.32867 -0.2296,-0.37355 -0.496,-0.71648 -0.6887,-1.12063 -0.7638,-1.60168 -1.2471,-3.26474 -1.6614,-5.05582 -0.6338,-2.74001 -1.0141,-5.3837 -1.3312,-8.21215 -0.1854,-1.6543 -0.3063,-3.31865 -0.4596,-4.97797 -0.5868,-8.03521 -0.9092,-16.10592 -0.7378,-24.17324 0.053,-1.80832 0.1679,-3.61627 0.4628,-5.39121 0.1137,-0.68438 0.2535,-1.39853 0.4813,-2.04401 0.074,-0.20925 0.1783,-0.39993 0.2674,-0.59989 0.1034,-0.0881 0.1908,-0.21641 0.3103,-0.26443 0.4574,-0.1838 1.0392,0.46966 1.2948,0.78217 0.6939,0.84808 0.9654,1.37598 1.5698,2.36612 1.3238,2.38247 2.5116,4.89179 3.535,7.49194 0.7469,1.89749 0.9443,2.58167 1.5873,4.52313 1.6445,5.22101 1.9333,10.85335 2.1915,16.38893 0.032,3.61875 0.2068,7.35618 -0.6223,10.878 -0.1272,0.53995 -0.3,1.06179 -0.45,1.59268 -0.7516,2.17904 -1.6188,4.33688 -3.0493,5.95634 -0.1147,0.0622 -0.2224,0.15025 -0.344,0.18649 -0.8036,0.23923 -1.8579,-1.0568 -2.3683,-1.61647 -0.2777,-0.40079 -0.5747,-0.78217 -0.8329,-1.20234 -1.8414,-2.99614 -3.11,-6.50328 -4.1139,-10.03376 -0.3265,-1.1483 -0.5983,-2.31925 -0.8975,-3.47888 -1.2336,-5.40005 -1.9113,-10.95982 -2.2732,-16.54436 -0.1507,-2.81329 0.1959,-5.61683 0.4568,-8.40464 0.2414,-2.30027 0.441,-4.63008 0.9906,-6.85647 0.173,-0.50736 0.5595,-0.76545 0.9241,-1.03703 0.4533,-0.33919 0.065,-1.13212 -0.3878,-0.79293 v 0 c -0.5271,0.39597 -1.0297,0.81026 -1.2531,1.56019 -0.5595,2.28106 -0.7755,4.66272 -1.0182,7.01972 -0.2663,2.84782 -0.6173,5.71149 -0.4593,8.58528 0.3672,5.65499 1.0543,11.28482 2.3064,16.75216 0.3041,1.17712 0.5803,2.36588 0.9124,3.5314 1.0333,3.62617 2.3418,7.23579 4.245,10.30424 0.2805,0.45228 0.6035,0.86181 0.9052,1.29271 0.8303,0.89981 1.9617,2.24642 3.1929,1.75363 0.1872,-0.075 0.3488,-0.22553 0.5233,-0.33829 0.1566,-0.18046 0.3227,-0.34912 0.4699,-0.54141 1.2578,-1.64376 2.0598,-3.74034 2.7786,-5.79124 0.4365,-1.56023 0.5402,-1.73744 0.7806,-3.34209 0.4682,-3.12595 0.3873,-6.3244 0.332,-9.48637 -0.2635,-5.6381 -0.5662,-11.37149 -2.2462,-16.68688 -0.6562,-1.97957 -0.8528,-2.66218 -1.6152,-4.59793 -1.0426,-2.64696 -2.2528,-5.20124 -3.603,-7.62504 -0.7646,-1.24655 -2.3145,-4.30704 -3.9331,-3.30963 -0.1984,0.12224 -0.3323,0.36289 -0.4984,0.54431 -0.1047,0.2436 -0.2263,0.47729 -0.3143,0.73081 -0.2397,0.69 -0.3928,1.46417 -0.5132,2.19385 -0.3004,1.81995 -0.4201,3.67305 -0.4738,5.5269 -0.1715,8.11058 0.151,16.22459 0.7424,24.30279 0.155,1.67488 0.2771,3.35489 0.4649,5.02462 0.322,2.86384 0.7144,5.58597 1.3618,8.3615 0.3817,1.63691 1.0075,3.86606 1.7944,5.34803 0.2775,0.52247 0.6732,0.93255 1.0097,1.39883 0.3065,0.12788 0.6007,0.31543 0.9194,0.38363 0.5488,0.11746 1.3382,-0.0395 1.87,-0.16575 1.0962,-0.26018 2.1476,-0.66317 3.0823,-1.44298 0.8039,-0.88852 1.0661,-0.99853 1.5347,-2.24965 0.968,-2.58407 0.6982,-6.01925 0.6532,-8.76453 -0.1735,-2.60525 -0.2551,-4.11005 -0.5127,-6.75382 -0.4893,-5.02554 -1.2641,-10.00718 -2.357,-14.88657 -0.2889,-1.19455 -0.5546,-2.39812 -0.8668,-3.58367 -0.5518,-2.09547 -1.1543,-4.07749 -1.8855,-6.08276 -0.5091,-1.39652 -1.0401,-2.7018 -1.7272,-3.97182 -0.2555,-0.47215 -0.5519,-0.90839 -0.8278,-1.36259 -0.4547,-0.46857 -0.8494,-1.02351 -1.4857,-1.11708 -1.1759,-0.17293 -1.6549,1.73062 -2.0159,2.70536 -0.1331,0.50198 -0.2822,0.9979 -0.3993,1.50593 -0.8841,3.83529 -1.2248,7.85532 -1.2769,11.83039 0.012,2.36781 -0.027,2.25634 0.1176,4.45692 0.087,1.32867 0.1578,2.74006 0.6107,3.96997 0.3179,0.52424 0.9173,-0.0318 0.5994,-0.55604 z" /><path
     id="path1890"
     style="display:inline;fill:none;fill-opacity:1;stroke:#8a1fe4;stroke-width:3;stroke-linejoin:round;stroke-dasharray:none;stroke-opacity:1;filter:url(#filter1895)"
     d="m 1051.8736,521.45113 c 0.081,-2.50536 0.037,-5.01516 -0.1108,-7.51861 -0.1714,-2.90584 -0.3586,-4.29316 -0.6713,-7.12428 -0.067,-0.60264 -0.9146,-0.50798 -0.8481,0.0946 v 0 c 0.3104,2.80655 0.4963,4.18317 0.6668,7.06293 0.1476,2.49276 0.1914,4.99193 0.11,7.48662 m -13.241,-0.001 c 0.055,-1.63706 0.148,-3.27342 0.2291,-4.90772 0.3885,-5.3604 0.9742,-10.67216 2.3337,-15.88626 0.8655,-3.18425 1.7417,-6.49486 3.8061,-9.13713 0.1913,-0.20956 0.3709,-0.43035 0.5736,-0.62871 0.7218,-0.70634 1.6296,-1.19652 2.603,-1.44179 0.821,-0.10949 1.6467,-0.0612 2.3529,0.42084 1.0966,0.92553 1.5451,1.941 1.8979,3.3304 0.073,0.34354 0.1634,0.68381 0.2188,1.03066 0.4222,2.64555 0.1945,5.33424 -0.041,7.98468 -0.4654,4.57339 -1.0809,9.1334 -1.9276,13.6523 -0.098,0.51185 -0.1853,1.02601 -0.2948,1.53552 -0.2264,1.05282 -0.6348,2.06982 -0.7327,3.14723 0,0.60634 0.8532,0.60634 0.8532,0 l -2e-4,5e-5 v 0 c 0.1257,-1.00229 0.4947,-1.95344 0.7071,-2.93875 0.1131,-0.52471 0.2032,-1.05415 0.3049,-1.58123 0.8518,-4.54385 1.4704,-9.12912 1.9387,-13.7278 0.2421,-2.71202 0.4689,-5.46304 0.04,-8.17018 -0.059,-0.37328 -0.1544,-0.73989 -0.2316,-1.10983 -0.4107,-1.61487 -0.921,-2.71703 -2.1796,-3.8059 -0.9705,-0.66849 -1.8695,-0.7508 -3.01,-0.61904 -1.1392,0.26355 -2.2015,0.82125 -3.0488,1.63715 -0.2298,0.2213 -0.4336,0.46835 -0.6504,0.70252 -2.1733,2.73658 -3.0993,6.17605 -4.0026,9.4929 -0.8746,3.4813 -1.4902,7.02548 -1.8952,10.59207 -0.2577,2.26942 -0.3021,3.19414 -0.4663,5.45802 -0.083,1.65515 -0.177,3.3124 -0.2321,4.97036" /><path
     id="path1887"
     style="display:inline;fill:none;fill-opacity:1;stroke:#a783f6;stroke-width:1;stroke-linejoin:round;stroke-dasharray:none;stroke-opacity:1"
     d="m 1051.8736,521.45113 c 0.081,-2.50536 0.037,-5.01516 -0.1108,-7.51861 -0.1714,-2.90584 -0.3586,-4.29316 -0.6713,-7.12428 -0.067,-0.60264 -0.9146,-0.50798 -0.8481,0.0946 v 0 c 0.3104,2.80655 0.4963,4.18317 0.6668,7.06293 0.1476,2.49276 0.1914,4.99193 0.11,7.48662 m -13.241,-0.001 c 0.055,-1.63706 0.148,-3.27342 0.2291,-4.90772 0.3885,-5.3604 0.9742,-10.67216 2.3337,-15.88626 0.8655,-3.18425 1.7417,-6.49486 3.8061,-9.13713 0.1913,-0.20956 0.3709,-0.43035 0.5736,-0.62871 0.7218,-0.70634 1.6296,-1.19652 2.603,-1.44179 0.821,-0.10949 1.6467,-0.0612 2.3529,0.42084 1.0966,0.92553 1.5451,1.941 1.8979,3.3304 0.073,0.34354 0.1634,0.68381 0.2188,1.03066 0.4222,2.64555 0.1945,5.33424 -0.041,7.98468 -0.4654,4.57339 -1.0809,9.1334 -1.9276,13.6523 -0.098,0.51185 -0.1853,1.02601 -0.2948,1.53552 -0.2264,1.05282 -0.6348,2.06982 -0.7327,3.14723 0,0.60634 0.8532,0.60634 0.8532,0 l -2e-4,5e-5 v 0 c 0.1257,-1.00229 0.4947,-1.95344 0.7071,-2.93875 0.1131,-0.52471 0.2032,-1.05415 0.3049,-1.58123 0.8518,-4.54385 1.4704,-9.12912 1.9387,-13.7278 0.2421,-2.71202 0.4689,-5.46304 0.04,-8.17018 -0.059,-0.37328 -0.1544,-0.73989 -0.2316,-1.10983 -0.4107,-1.61487 -0.921,-2.71703 -2.1796,-3.8059 -0.9705,-0.66849 -1.8695,-0.7508 -3.01,-0.61904 -1.1392,0.26355 -2.2015,0.82125 -3.0488,1.63715 -0.2298,0.2213 -0.4336,0.46835 -0.6504,0.70252 -2.1733,2.73658 -3.0993,6.17605 -4.0026,9.4929 -0.8746,3.4813 -1.4902,7.02548 -1.8952,10.59207 -0.2577,2.26942 -0.3021,3.19414 -0.4663,5.45802 -0.083,1.65515 -0.177,3.3124 -0.2321,4.97036" /></svg>
