<?xml version="1.0" encoding="UTF-8"?>
<svg width="1920" height="1080" version="1.1" viewBox="0 0 1920 1080" xml:space="preserve" xmlns="http://www.w3.org/2000/svg" xmlns:xlink="http://www.w3.org/1999/xlink"><defs><radialGradient id="a" cx="941.61" cy="161.85" r="24.088" gradientTransform="matrix(1 0 0 .92727 -4.3355 9.1199)" gradientUnits="userSpaceOnUse"><stop stop-color="#fff" offset="0"/><stop stop-color="#eee" stop-opacity="0" offset="1"/></radialGradient><filter id="b" x="-.44464" y="-.21532" width="1.8895" height="1.4174" color-interpolation-filters="sRGB"><feGaussianBlur stdDeviation="2.3317444"/></filter><filter id="j" x="-.36213" y="-.11198" width="1.7254" height="1.2248" color-interpolation-filters="sRGB"><feGaussianBlur stdDeviation="1.9080996"/></filter><filter id="i" x="-.39728" y="-.10693" width="1.7946" height="1.214" color-interpolation-filters="sRGB"><feGaussianBlur stdDeviation="1.9080996"/></filter><filter id="h" x="-.37434" y="-.11687" width="1.7487" height="1.2342" color-interpolation-filters="sRGB"><feGaussianBlur stdDeviation="1.9080996"/></filter><filter id="f" x="-.53464" y="-.32924" width="2.0693" height="1.6585" color-interpolation-filters="sRGB"><feGaussianBlur stdDeviation="4.0260309"/></filter><filter id="d" x="-.48246" y="-.16969" width="1.9649" height="1.3394" color-interpolation-filters="sRGB"><feGaussianBlur stdDeviation="3.531397"/></filter><filter id="e" x="-.48246" y="-.16969" width="1.9649" height="1.3394" color-interpolation-filters="sRGB"><feGaussianBlur stdDeviation="3.531397"/></filter><filter id="c" x="-.48246" y="-.16969" width="1.9649" height="1.3394" color-interpolation-filters="sRGB"><feGaussianBlur stdDeviation="3.531397"/></filter><filter id="g" x="-.33947" y="-.10111" width="1.679" height="1.2023" color-interpolation-filters="sRGB"><feGaussianBlur stdDeviation="2.0554614"/></filter></defs><g transform="translate(.00019961 .00031319)"><g transform="matrix(.12529 0 0 .12529 636.87 227.63)"><rect x="635.5" y="159.83" width="589.91" height="338.58" fill="#d2d2d2" stroke="#a8a8a8" stroke-linecap="round" stroke-linejoin="round" stroke-width="8"/><ellipse cx="936.83" cy="172.78" rx="24.088" ry="22.336" fill="#626262" stroke="#404040" stroke-linecap="round" stroke-linejoin="round" stroke-width="4"/><ellipse cx="936.83" cy="172.78" rx="24.088" ry="22.336" fill="url(#a)"/><ellipse cx="936.83" cy="172.78" rx="24.088" ry="22.336" fill="none" stroke="#404040" stroke-linecap="round" stroke-linejoin="round" stroke-width="4"/></g><path d="m723.19 259.29c0.24853-2.4015 0.80911-4.5615 1.608-6.3938 0.10743-0.14532 0.20017-0.34998 0.32229-0.43625 0.0912-0.0645 0.3862-8e-3 0.2898 4e-3 -0.55295 0.0713-1.1178-0.057-1.66 0.17314-0.10714 0.0455 0.17595 0.26595 0.25201 0.42471 0.21022 0.43879 0.37186 0.964 0.54147 1.4636 0.34742 0.82001 0.6076 2.0994 1.1188 2.5961 0.0889 0.0863 0.1898 0.1435 0.28835 0.13443 0.74476-0.0683 1.4862-0.24356 2.2292-0.36534 0.6607-1.2601 1.2606-2.6652 2.0818-3.5204 0.15039-0.1566 0.31172-0.26625 0.46758-0.39938 1.3372-0.14935-0.69375-0.0415-1.0276 0.11811-0.13228 0.0633 0.2519 0.2102 0.36981 0.34658 0.34217 0.39575 0.63042 0.98467 0.93145 1.4908 0.59526 1.082 1.3125 1.1798 2.0744 1.206 0.84121-0.0375 1.6464 0.46279 2.4593 0.81841 1.2307 0.3369 2.6767 1.0156 3.7685-0.40795 0.34542-0.57943 0.53851-1.414 0.76079-2.1812l-1.886-0.20996c-0.23136 0.71957-0.43918 1.4909-0.80157 1.9806-0.74635 0.737-1.5709 0.31446 1.0691 0.46399 0.10449 6e-3 -0.20911 0.0248-0.31351 0.0141-0.15823-0.0161-0.53792-0.14129-0.69008-0.18805-0.82253-0.33091-1.6297-0.87575-2.4759-0.89038-0.73204-1.3e-4 -1.4561 0.0484-2.0525-0.94798-0.25885-0.41848-1.0309-1.9368-1.3183-2.0076-1.8875-0.46505-1.663-0.47994-2.7512-0.0411-0.45498 0.45014-0.51289 0.46176-0.94092 1.0861-0.58682 0.85598-1.0465 1.9979-1.6423 2.828 0.53559 0.0722 1.073 0.10138 1.6068 0.21643 0.0946 0.0204-0.19035 0.10844-0.28343 0.0685-0.47547-0.20345-0.86643-1.7524-1.145-2.4329-0.0734-0.23167-0.64583-2.0867-0.76347-2.1274-0.72042-0.24943-1.4582-0.23957-2.1891-0.25956-0.0986-2e-3 -0.19607 0.0877-0.27994 0.19208-0.1122 0.13967-0.19813 0.35092-0.29719 0.52638-0.76077 1.9748-1.3181 4.2117-1.678 6.6078z" fill="#2b2b2b"/><path d="m723.88 269.62c0.49387-1.9142 1.1891-3.564 1.8995-5.1553 0.30146-0.56126 0.57522-1.2192 0.93693-1.6309 0.50461-0.57441 2.8122-0.27027-1.5042-0.12001 0.47195 0.40039 0.70191 1.4934 0.97424 2.308 0.0996 0.29794 0.20655 0.58545 0.30982 0.87816 0.46994 1.0863 0.88199 2.748 1.625 3.1124 0.73867-0.11844 1.487-0.0863 2.216-0.35589 0.10438-0.0387 0.12704-0.34659 0.18184-0.53141 0.32764-1.105 0.62851-2.1804 1.0221-3.2006 0.17778-0.33868 0.39219-0.80185 0.6176-1.0286 0.0937-0.0945 0.20138-0.11547 0.30207-0.17301-0.5734 0.0308-1.1493-0.0211-1.7202 0.0927-0.10396 0.0211 0.20502 0.0979 0.29942 0.18909 0.1175 0.11347 0.22075 0.28009 0.33112 0.42016 0.66556 1.2324 1.2967 2.5315 2.0912 3.4203 2.1709 1.1671 2.585 0.62734 3.534-2.1244 0.27999-0.80688 0.54749-1.6839 0.95578-2.2571 0.0712-0.10011 0.31818-0.23118 0.23172-0.23787-0.60865-0.047-1.2176 0.0764-1.8264 0.115 0.0598 0.0558 0.1324 0.0736 0.1795 0.1673 0.29313 0.58237 0.43627 1.6255 0.59151 2.3629 0.25706 1.2211 0.1412 0.69154 0.41096 1.8686 0.63281 2.4208 0.82832 1.9578 2.7042 1.2223 0.0455-0.0163 0.15117-0.90861 0.20087-1.293 0.12291-0.87851 0.37914-2.5864 0.87177-2.916 0.0794-0.0531 0.16715-8e-3 0.25072-0.0125-2.5227 0.19538-2.1055-0.2877-1.3749 0.39282 0.4232 0.39422 0.80015 0.96973 1.2151 1.3965 0.91973 0.40958 0.65342 0.33637 2.4891-0.13552 0.0911-0.0233 0.11677-0.30559 0.19954-0.38657 0.1337-0.13082 0.28417-0.17972 0.43047-0.22984 0.18147-0.062 0.73344-0.0885 0.54962-0.10539-0.44817-0.0409-0.89719 0.0216-1.3458 0.0326 0.8298 0.0865 1.5846 0.82149 2.3762 1.234 2.6947 0.0776 2.1949 0.82985 2.861-2.956 0.26816-1.1322 0.47165-2.7638 1.05-3.4577 0.0688-0.0825 0.15349-0.0904 0.23023-0.13536 0.87981 0.32723-0.42547-0.18765-1.6336 0.18296-0.0971 0.0298 0.15769 0.24094 0.22561 0.38516 0.32664 0.69358 0.57457 1.5836 0.83328 2.3781 0.64345 1.9321 1.3341 3.8147 2.2005 5.3565 1.0068 1.5116 1.9492 0.89738 3.2464 0.81414 0.0304-0.0736 0.0669-0.13881 0.0913-0.22121 0.0627-0.21178 0.10386-0.63068 0.13915-0.82392 0.0558-0.30602 0.11801-0.60737 0.18369-0.90518 0.28528-1.2934 0.35951-1.514 0.70742-2.8344 0.83433-3.0433 1.7618-5.5219 3.1844-7.4865 0.14756-0.13694 0.28714-0.31766 0.44267-0.41138 0.12456-0.0749 0.51716-0.0931 0.38727-0.0885-0.5525 0.0183-1.1122-0.0633-1.6565 0.13129-0.12146 0.0434 0.22848 0.19864 0.32937 0.34304 0.2651 0.37938 0.41118 0.8156 0.61487 1.3201 0.62787 1.8617 1.2506 3.7211 1.9372 5.4961 0.74134 1.9344 0.91485 1.4268 2.6592 0.87379 9e-3 -1e-3 0.0752-0.67555 0.11041-1.025 0.11665-0.69184 0.1861-1.7234 0.50385-2.1957 0.0525-0.0781 0.12607-0.0639 0.1891-0.096-0.6099 0.0552-1.2198 0.11043-1.8297 0.16567 0.0824 0.13286 0.17649 0.24063 0.24725 0.39904 0.14388 0.32209 0.467 1.3844 0.56605 1.7038 0.28021 0.90342 0.55992 1.8071 0.84274 2.7071 0.6964 1.9085 1.0206 1.2093 2.6825 0.97616 0.0872-0.0125 0.62938-1.2281 0.71191-1.3937 0.21145-0.33101 0.33849-0.60151 0.60599-0.73882 0.11416-0.0586 0.46994-0.0592 0.35224-0.0531-0.53526 0.028-1.076-0.0456-1.6053 0.11891-0.15032 0.0469 0.29575 0.14696 0.44027 0.24327 0.15817 0.10539 0.31117 0.2406 0.46674 0.36088 0.57824 0.48551 1.1307 1.223 1.7794 1.1953 2.4034-0.10258 1.683 0.56843 2.7-0.56927 0.49791-0.83529 0.89849-1.8684 1.3671-2.7686 0.8177 0.0849-0.78055-0.0879-1.7516 0.13081-0.0765 0.0163 0.13147 0.16467 0.19145 0.26282 0.084 0.13739 0.16246 0.28894 0.23945 0.44255 0.0287 0.0573 0.49703 1.0621 0.52252 1.1167 1.1592 2.2867 1.0641 1.5715 3.1657 1.3915 0.18987-1.2238 0.23521-2.5173 0.40156-3.7603 0.1676-0.7787 0.51918-2.1626 0.9897-2.3348 0.065-0.0238 0.13192 0.0125 0.19787 0.0211-2.7691-0.10902-1.9904-0.34568-1.2189 0.82454 0.37309 0.56595 0.736 1.1365 1.1226 1.6654 0.82811 1.1798 1.7758 1.7092 2.7586 2.0352 1.1976 0.20628 2.5111 0.88596 3.5958-0.36854 0.037-0.0456 0.074-0.0912 0.11094-0.13678 0 0-2.0508-0.43459-2.0508-0.43459-0.0348 0.0406-0.0695 0.0811-0.10427 0.12188-0.0954 0.0987-0.17676 0.19559-0.28186 0.25144-0.0686 0.0363-0.28029 0.0713-0.20942 0.0763 3.341 0.24619 1.638 0.0382 0.91602-0.0858-0.97673-0.26833-1.9308-0.70436-2.7591-1.8572-0.38488-0.5081-0.73752-1.0571-1.0943-1.6428-0.0172-0.0285-0.50433-0.85357-0.55552-0.86514-0.74749-0.16934-1.503-0.11986-2.2546-0.17992-0.61406 0.39625-0.94435 1.6506-1.1673 2.8028-0.1161 0.8814-0.1001 0.7008-0.18624 1.5864-0.0506 0.52063-0.0703 1.1771-0.18663 1.6645-0.0158 0.0658-0.0497 0.10609-0.0746 0.15896 0.64575 0.0125 1.2916 8e-3 1.9372 0.04 0.0488 1e-3 -0.0969 0.0695-0.14433 0.0476-0.32681-0.15118-0.64663-0.95483-0.90429-1.3327-0.83705-1.7676-1.5864-4.4169-3.2475-1.9681-0.42301 0.91478-0.80017 1.9458-1.3229 2.6375-0.85145 0.71514-0.3613 0.19356 1.2769 0.39853 0.13735 0.0163-0.27566 0.0608-0.41254 0.032-0.50065-0.10539-0.92167-0.69542-1.375-1.0779-0.0867-0.0746-0.77273-0.6859-0.89068-0.70374-1.471-0.2228-2.3382-0.83836-3.3477 0.9247-0.10779 0.20988-0.37849 0.75894-0.51036 0.93478-0.0656 0.0876-0.29328 0.17544-0.21534 0.19234 0.5984 0.12862 1.2025 0.0995 1.8037 0.14899-0.0772-0.0727-0.16493-0.11043-0.23164-0.21796-0.0954-0.15369-0.16341-0.36654-0.24511-0.54984-0.56197-1.6706-1.0453-3.443-1.6161-5.0949-0.7436-0.0329-1.4876-0.15856-2.2308-0.0987-0.30123 0.0241-0.62696 2.1694-0.69243 2.6478-0.024 0.17055-0.042 0.34529-0.0719 0.512-0.015 0.0837-0.10593 0.22816-0.0623 0.23526 0.65126 0.10562 1.3064 0.0485 1.9596 0.0723 0.0454 1e-3 -0.0945 0.0298-0.13634-6e-3 -0.17709-0.15104-0.32569-0.57981-0.43952-0.84074-0.71818-1.726-1.347-3.5752-1.9396-5.4879-0.14361-0.38944-0.67026-1.8987-0.93128-1.9601-1.3564-0.31891-2.1123-0.65972-3.1269 0.55585-1.3268 2.0382-2.3196 4.7335-3.1347 7.6686-0.38542 1.3636-0.4444 1.5402-0.78513 2.8568-0.11913 0.46039-0.21635 0.94371-0.33883 1.4005-0.0412 0.15385-0.0646 0.14789-0.13776 0.21819 3.7776 0.0911 2.0281 0.29574 1.3186-0.16016-0.24558-0.15794-0.28564-0.24041-0.51666-0.50975-0.9124-1.4167-1.6244-3.257-2.2354-5.2231-0.91726-3.0143-0.9876-4.3475-3.4156-3.1919-0.67958 0.85582-0.95084 2.4889-1.2491 3.9207-0.13137 0.67205-0.23983 1.4883-0.42585 2.1121-0.033 0.11043-0.0763 0.21246-0.12835 0.2864-0.0374 0.0531-0.17644 0.0782-0.13086 0.0816 0.61094 0.0478 1.2226 0.0345 1.834 0.0517-0.83489-0.22207-1.6018-1.1699-2.4539-1.285-0.84846 5e-3 -1.6973-0.0402-2.5454 9e-3 -0.38894 0.0232-0.70775 0.22221-1.0568 0.54498-0.0705 0.0652-0.27122 0.24085-0.19431 0.25913 0.59263 0.14069 1.1931 0.0587 1.789 0.11954 0.0802 8e-3 -0.15996 0.0253-0.23994 0.0382-0.3209-0.25336-0.59596-0.60936-0.89074-0.97137-1.0544-1.2949-1.2128-1.141-2.9806-0.9062-0.0858 0.0681-0.17947 0.10433-0.25734 0.20436-0.50893 0.65346-0.68719 2.099-0.86454 3.1689-0.0358 0.21699-0.0621 0.44149-0.10751 0.65092-0.0326 0.15025-0.20452 0.39579-0.12491 0.42142 0.63271 0.2035 1.2801 0.10585 1.9202 0.15604 0.0558 5e-3 -0.12004 0.042-0.16735-0.0183-0.16277-0.20798-0.34569-0.93121-0.4256-1.1999-0.21918-0.91912-0.21934-0.88642-0.41535-1.847-0.17131-0.83959-0.30388-1.7915-0.54161-2.5689-0.0512-0.16791-0.12523-0.30191-0.18785-0.45286-0.73933 0.0368-1.4812-0.0211-2.218 0.11031-0.29286 0.0518-0.99259 2.178-1.1672 2.6653-0.20863 0.57765-0.41347 1.2423-0.72066 1.6308-0.0779 0.0986-0.34424 0.20128-0.25299 0.22038 0.47872 0.1007 2.5467 0.12989 1.4434 0.0721-0.83217-0.74188-1.4683-2.0532-2.0966-3.3572-0.0686-0.10773-0.49371-0.82941-0.62195-0.84423-1.6834-0.19477-2.2539-0.65223-3.1922 1.4722-0.29283 0.80566-0.55932 1.6334-0.82744 2.4736-0.0758 0.23727-0.14436 0.48496-0.22928 0.70899-0.0556 0.14679-0.28062 0.3694-0.19064 0.39892 0.60489 0.19824 1.2245 0.0939 1.8367 0.14085-0.069 0.0183-0.13776 0.0722-0.20688 0.0562-0.52753-0.12298-1.1427-2.041-1.4633-2.788-0.40226-1.1625-0.69834-2.535-1.2231-3.4898-2.4019-0.0979-2.1036-0.82452-3.4318 2.0123-0.71313 1.6584-1.4049 3.3616-1.9896 5.2207z" fill="#2b2b2b"/><path d="m721.53 265.4h3.0657 7.4452c1.0151 0 2.0564 0.10093 3.0657 0 2.929-0.2929 5.8106-0.43796 8.7591-0.43796 2.277 0 5.4868 0.27218 7.6642 0 0.29864-0.0373 0.57798-0.17641 0.87592-0.21898 0.99967-0.14281 2.0701 0.16593 3.0657 0 0.16099-0.0268 0.27696-0.19214 0.43796-0.21897 0.63379-0.10564 1.3404 0.12607 1.9708 0 0.22634-0.0453 0.42925-0.18104 0.65693-0.21898 0.432-0.072 0.88442 0.0859 1.3139 0 0.16005-0.032 0.27791-0.18697 0.43796-0.21898 0.90575-0.18115 1.9281 0.10207 2.8467 0 1.1642-0.12935 2.3306-0.32065 3.5036-0.43796 1.7348-0.17348 3.5189 0.15787 5.2555 0 0.51401-0.0467 1.0188-0.17225 1.5328-0.21897 1.1316-0.10288 1.7196 0.0628 2.8467-0.21898 1.4457-0.36144 4.0132 0.1944 5.4744 0.43795 0.60988 0.10165 1.3515 0 1.9708 0 0.62608 0 1.9339 0.25588 2.4088-0.21897" stroke="#000" stroke-linecap="round" stroke-linejoin="round" stroke-width="2"/><path d="m749.46 284.6c0.12631-0.0968 0.30036-0.2227 0.41548-0.33646 0.44527-0.44001 0.77431-0.97123 1.1569-1.4532 1.198-1.7199 2.1686-3.5566 3.0357-5.431 0.14158-0.31842 0.27172-0.64121 0.42474-0.95527 0.0982-0.20151 0.0977-0.52018 0.32824-0.59013 0.70279-0.21318 1.4738-0.20509 2.2144-0.18118 0.11598 4e-3 0.1525 0.16256 0.19855 0.25905 0.14279 0.29921 0.29232 1.0017 0.35847 1.2725 0.22092 1.0933 0.42312 2.1894 0.64666 3.2822 0.1444 0.70598 0.32661 1.61 0.51516 2.3142 0.0722 0.26951 0.16482 0.53418 0.24723 0.80127 0.41958 0.75088 0.54457 0.69212-1.5291 0.4896-0.1332-0.0129 0.19876-0.16497 0.27861-0.26242 0.47486-0.57956 0.75724-1.276 1.1348-1.9044 0.60784-1.187 0.33055-0.62979 0.91953-1.844 0.24638-0.50792 0.47489-1.0231 0.73432-1.5257 0.0562-0.10882 0.28445-0.48414 0.37144-0.62822 1.1896-7e-3 2.0752-0.55343 2.2567 0.35415 0.0762 0.40517 0.14449 0.81155 0.18525 1.2212 0.19278 1.251 0.42364 2.5045 0.81679 3.7178 0.4272 0.9392 0.37014 0.41352-1.5699 0.62463-0.0665 7e-3 0.14343 0.0177 0.20042-0.0143 0.0999-0.0559 0.17499-0.14482 0.24086-0.23287 0.12088-0.16155 0.4754-0.83535 0.55152-0.97618 0.3248-0.62855 0.64969-1.2571 0.97502-1.8854 0.18488-0.35706 0.31082-0.6242 0.52354-0.95898 0.0644-0.10138 0.13923-0.19699 0.20884-0.29548 0.0818-0.0644 0.13772-0.18171 0.24534-0.19323 1.2132-0.12977 2.1009-0.33704 2.9969 0.31423 0.39788 0.28921 0.58584 0.5257 0.91997 0.88064 0.14942 0.19572 0.30793 0.38598 0.44826 0.58715 0.59262 0.84953 1.0796 1.7821 1.3664 2.7535 0.0173 0.0783 0.0306 0.15727 0.0518 0.23472 0.0104 0.0382 0.0863 0.10936 0.0429 0.11164-0.65272 0.0342-1.3077-0.0242-1.9614-0.0112-0.0299 6e-4 0.042 0.0525 0.0716 0.0487 0.0826-0.0103 0.23625-0.21748 0.25355-0.23732 0.75967-1.1668 1.1317-2.5016 1.4723-3.8087 0.24133-1.0715 0.25267-1.0343 0.41742-2.112 0.084-0.55021 0.12499-1.1055 0.21471-1.655 0.029-0.17721-0.0717-0.46619 0.11428-0.52734 0.66909-0.22008 1.4154-0.13905 2.1231-0.20858 0.0616 0.0561 0.13832 0.10132 0.18491 0.16827 0.16082 0.23112 0.43531 0.88838 0.51797 1.0835 0.40753 0.96202 0.77409 1.9378 1.1632 2.9059 0.63258 1.5581 0.18257 0.44044 0.71077 1.7718 0.0622 0.157 0.11616 0.317 0.18815 0.47055 0.0343 0.0732 0.21657 0.19547 0.1298 0.20763-0.60808 0.0851-2.6427 0.0697-1.8454 0.0416 0.43572-0.59441 0.53066-1.367 0.70066-2.0464 0.0744-0.49998 0.13758-0.99408 0.15426-1.4988 3e-3 -0.10801-0.11-0.29184 4e-3 -0.32417 1.9441-0.552 1.793-0.81511 2.0716-0.15703 0.28899 0.94711 0.52032 1.9084 0.83517 2.8492 0.18019 0.58837 0.34841 1.18 0.53874 1.7658 0.0355 0.10941 0.068 0.21984 0.11067 0.32711 0.0216 0.0541 0.14479 0.1493 0.0817 0.15581-0.64354 0.0664-1.2951 0.0242-1.9427 0.0363 0.019 8e-3 0.0377 0.0317 0.0569 0.0241 0.13247-0.0517 0.29797-0.67715 0.34651-0.78797 0.26904-1.0142 0.46602-2.0437 0.65131-3.0728 0.18986-1.1108 0.32559-2.2283 0.52122-3.3383 0.68569-0.0509 1.3695-0.13079 2.0571-0.1528 3e-3 -1e-4 0.049 0.12138 0.0709 0.20937 0.0501 0.20165 0.0769 0.40808 0.12639 0.60987 0.0756 0.40507 0.1348 0.73493 0.44778 1.0503 0.78156 0.93101 1.5635 1.8617 2.3196 2.81 0.79884 1.0276 1.6351 2.0546 2.1578 3.2282l-2.0084 0.0258c-0.0126-0.0716-0.018-0.1446-0.0378-0.2149-0.29992-1.0662-1.0791-2.0585-1.7595-2.948-0.77301-0.99356-1.6522-1.8999-2.5742-2.779-0.042-0.0398-0.2529-0.23137-0.29628-0.29815-0.14495-0.22309-0.14446-0.59502-0.18378-0.84724-0.0518-0.19679-0.0812-0.40476-0.16269-0.59468-0.0149-0.0347-0.0228-0.0799-0.0587-0.098-0.0208-0.0105-0.0802 0.039-0.0563 0.0399 0.65103 0.0275 1.3031 0.0269 1.9547 0.0403-0.29046 0.56959-0.40928 1.193-0.53333 1.8052-0.19978 0.98591-0.1056 0.48439-0.27756 1.476-0.15881 1.0264-0.30024 2.0552-0.46127 3.0812-0.0781 0.31186-0.10813 0.64612-0.28987 0.92676-0.68949-0.038-1.3883-5e-3 -2.0685-0.11399-0.0821-0.0131-0.0271-0.14916-0.0383-0.22406-0.0169-0.11338-0.0282-0.2274-0.0458-0.3407-0.0921-0.59553-0.22827-1.1769-0.37804-1.7625-0.17933-0.64301-0.37705-1.2815-0.62002-1.9073-0.12176-0.31365-0.23414-0.62917-0.4455-0.90229-0.0273 0.024-0.12012 0.0696-0.0821 0.072 0.64801 0.0422 1.312-0.0695 1.9483 0.0495 0.11109 0.0207-0.0546 0.19958-0.0752 0.30062-0.10196 0.49795-0.17695 1.0027-0.26498 1.5028-0.16614 0.70217-0.2437 1.43-0.52142 2.1067-0.41218 0.61225-0.19244 0.34743-2.1298 0.0102-0.10494-0.0183-0.0387-0.19041-0.0559-0.28597-0.0291-0.16194-0.0508-0.32497-0.0827-0.48646-0.17761-0.89671-0.17332-0.79412-0.4575-1.7698-0.32301-0.99224-0.73499-1.9596-1.231-2.8914-0.11993-0.22527-0.44151-0.84723-0.70526-1.0503-0.0756-0.0583-0.19046-0.0504-0.28568-0.0755 0.57576 0.0532 1.198-0.0525 1.7273 0.15948 0.16385 0.0657-0.16742 0.28859-0.22356 0.44269-0.0861 0.23639-0.1419 0.48114-0.20156 0.72415-0.0736 0.29986-0.12956 0.60309-0.19814 0.90393-0.16103 0.70641-0.3304 1.4112-0.49294 2.1173-0.32741 1.2941-0.59085 2.6165-1.1251 3.8582-0.43108 0.84306-0.55387 0.48919-2.2756 0.2201-0.065-0.0102-0.0104-0.11919-0.0136-0.17888-4e-3 -0.0819-6e-3 -0.16395-9e-3 -0.24593-0.12393-0.95954-0.56692-1.884-1.1422-2.6925-0.14075-0.19784-0.30466-0.38134-0.457-0.57201-0.41774-0.41576-0.85313-0.8626-1.4536-1.0646-0.13135-0.0441-0.5527-0.0733-0.41258-0.073 1.7935 4e-3 1.9926-0.1612 1.3442 0.20149-0.0788 0.0813-0.16388 0.15789-0.23635 0.24386-0.68451 0.81197-1.1937 1.8715-1.6511 2.8018-0.0849 0.18065-0.16912 0.36151-0.2545 0.54194-0.0198 0.0417-0.36099 0.83691-0.52 0.82397-2.2505-0.18309-1.9663 0.29411-2.2134-0.78575-0.21991-1.255-0.52286-2.4953-0.81186-3.7381-0.0769-0.41311-0.22115-0.80984-0.37589-1.2029-7e-3 -0.0398-0.0168-0.10966-0.0357-0.14846-0.0267-0.0549-0.071-0.0934-0.12806-0.11948 0.63787 0.0226 1.2758 0.045 1.9136 0.0676-0.0709 0.0529-0.15096 0.0971-0.2127 0.15868-0.2595 0.25893-0.60059 0.75364-0.76941 1.0174-0.55175 0.86209-0.99415 1.7748-1.4426 2.683-0.12551 0.26491-0.2508 0.5299-0.37653 0.79472-0.11567 0.24359-0.40259 0.86083-0.55428 1.1287-0.0573 0.10132-0.0682 0.27911-0.19286 0.29356-2.2473 0.26044-2.0085 0.51815-2.1899-0.55328-0.16597-1.8409-0.45312-3.6758-0.91553-5.4759-0.0809-0.3147-0.179-0.62554-0.2685-0.93831-0.0991-0.27006-0.3171-0.97224-0.5431-1.2432-0.0729-0.0874-0.42296-0.18525-0.302-0.18243 0.5257 0.0122 1.1347-0.0682 1.5602 0.21166 0.19654 0.12926-0.32395 0.32982-0.45862 0.51291-0.21997 0.29902-0.40165 0.61974-0.60247 0.92961-0.76126 1.3297-1.3888 2.7167-2.1022 4.0669-0.34609 0.65501-0.42298 0.77034-0.78335 1.3811-0.24554 0.43063-0.53795 0.83654-0.8112 1.2526-0.10683 0.16265-0.15372 0.27169-0.30365 0.4039-0.0842 0.0743-0.18183 0.13508-0.27275 0.20263-0.11764 0.0776-0.2329 0.15822-0.35292 0.23277-0.36358 0.22584-0.73765 0.43764-1.1016 0.66303zm-4.7791 1.228c-0.041-2.3842-0.38646-4.7526-0.81224-7.1022-0.0509-0.22095-0.14261-0.68188-0.24078-0.92528-0.0245-0.0608-0.1745-0.16773-0.10318-0.16993 0.62668-0.0193 1.2544 0.0462 1.8768 0.11527 0.0585 6e-3 -0.11317 0.039-0.15603 0.0758-0.0921 0.0791-0.16166 0.17734-0.24248 0.26601-1.0407 1.1268-1.9705 2.3297-2.8556 3.5592-0.31437 0.37668-0.53284 0.83238-0.89712 1.1767-0.0491 0.0465-0.10155 0.11738-0.17247 0.11347-2.2547-0.1245-1.9505 0.34951-2.243-0.71775-0.1812-0.76091-0.35135-1.5253-0.58649-2.2746-0.1207-0.38461-0.33282-1.0046-0.54486-1.3726-0.0856-0.14852-0.20877-0.27661-0.31316-0.41492-1.1612-0.18715 0.84371-0.10946 1.1763 0.0806 0.19052 0.10886-0.32066 0.28952-0.45062 0.45618-0.53583 0.68713-0.85431 1.5011-1.1949 2.2752-0.35217 0.86898-0.66825 1.7495-1.0221 2.6179-0.2872 0.64246-0.24177 0.63303-2.087 0.0274-0.20391-0.0669 0.0263-0.39281 0.0183-0.58915-0.0405-0.99579-0.26228-1.9637-0.47826-2.937-0.29638-1.0856-0.61816-2.1729-1.0561-3.2201-5e-3 -9e-3 -0.10379-0.22979-0.17467-0.23608-0.0403-4e-3 -0.14235 0.0572-0.10196 0.06 0.59619 0.0405 1.2094-0.064 1.7926 0.0551 0.15024 0.0307-0.26434 0.14489-0.38413 0.23256-0.22321 0.16338-0.42841 0.34595-0.64261 0.51893-1.8532 1.7065-3.2362 3.7549-4.5288 5.8262-0.24847 0.37285-0.45655 0.76655-0.69989 1.142-0.51326 0.79203-1.0228 0.90511-2.4229 0.10276-0.26961-0.15449-0.0152-0.57779-0.0227-0.8667-0.15981-2.2626-0.5244-4.5213-1.1747-6.7128-0.09-0.30321-0.19689-0.60207-0.29534-0.90311-0.045-0.10681-0.27417-0.79302-0.49415-0.93037-0.0558-0.0349-0.26531 0.0316-0.19829 0.041 0.58433 0.0811 1.2431-0.0794 1.7627 0.17595 0.19627 0.0965-0.22686 0.3489-0.32508 0.53055-0.13332 0.24658-0.24592 0.50193-0.36889 0.75291-0.67587 1.4996-1.3437 3.0023-1.9928 4.5116l-1.7847-0.0679c0.81143-1.4554 1.5054-2.9598 2.0993-4.4992 0.0905-0.25393 0.18342-0.50716 0.27152-0.76179 0.0651-0.18817-0.0126-0.49015 0.18806-0.56652 0.65781-0.25033 1.4028-0.24846 2.1131-0.30917 0.0585-5e-3 0.0948 0.0697 0.11813 0.11846 0.0833 0.1743 0.22099 0.90317 0.23523 0.97013 0.51189 2.5405 0.9044 5.1012 1.5057 7.6263 0.45245 1.3332 0.59787 0.80466-1.5268 1.02-0.076 7e-3 0.16174-2e-3 0.22495-0.0408 0.11984-0.0739 0.20937-0.18265 0.30151-0.28407 0.23796-0.2619 0.70024-0.88544 0.88541-1.1289 1.4399-1.976 2.8375-3.9799 4.423-5.8648 0.16293-0.18312 0.3195-0.37104 0.48881-0.54936 0.0909-0.0957 0.15381-0.24954 0.29094-0.27182 0.70498-0.11454 1.4282-0.11274 2.1443-0.12383 0.0488-7.5e-4 0.0797 0.0534 0.10884 0.089 0.0548 0.0671 0.0945 0.22551 0.11613 0.29373 0.25386 1.077 0.45085 2.1644 0.70169 3.2421 0.21687 0.98023 0.39649 1.9772 0.69212 2.9415 0.0549 0.17896 0.39209 0.46233 0.19987 0.52697-2.7381 0.92079-2.317 0.4785-1.8845-0.0247 0.57423-0.80017 0.91417-1.7197 1.3245-2.5919 0.34415-0.77667 0.67282-1.5698 1.09-2.3178 0.10381-0.18614 0.12222-0.48253 0.34245-0.54332 1.8528-0.51136 1.7122-0.51919 2.5161 0.0198 0.0785 0.14835 0.16923 0.29192 0.23568 0.44505 0.18179 0.41886 0.3337 0.96306 0.46355 1.3899 0.2304 0.75739 0.44813 1.5198 0.75609 2.2555 0.49304 0.8907 0.40482 0.40934-1.5308 0.56192-0.0787 6e-3 0.16695 0.01 0.23531-0.026 0.11709-0.0615 0.20349-0.16238 0.29511-0.25261 0.24418-0.24046 0.56747-0.64128 0.77606-0.89017 0.9205-1.1715 1.8159-2.3597 2.6704-3.5716 0.0608-0.094 0.12561-0.18604 0.18247-0.28208 0.0453-0.0765 0.0281-0.22938 0.12355-0.23477 0.68885-0.0389 1.3857 0.0108 2.067 0.1109 0.0718 0.0106 0.0185 0.13075 0.0234 0.19646 0.0236 0.31188 0.0215 0.6251 0.0494 0.93676 0.11585 2.377 0.33775 4.752 0.75068 7.103-0.41692 0.46443-0.90235 0.67767-1.6267 0.0149z" fill="#2b2b2b"/><path d="m720.81 281.16c1.1575 0.17761 2.2958-0.16542 3.4312-0.22119 4.6196-0.22688 9.3123 0 13.939 0 3.2904 0 6.8167-0.2804 10.079 0 0.43331 0.0373 0.85404 0.17656 1.2867 0.22119 2.8575 0.29473 5.9234 0 8.7925 0 1.6272 0 3.3087 0.10466 4.9324 0 0.9706 0.14863 1.8504-0.36799 2.7879-0.44236 2.4686-0.19587 5.0298 0 7.5058 0 0.71484 0 1.4304 0.0334 2.1445 0 1.5013-0.0704 3.005-0.10231 4.5035-0.22119 0.29387-0.0233 0.56454-0.19093 0.85781-0.22118 1.533-0.15812 3.1747 0 4.7179 0 0.71256 0 1.9301-0.34201 1.9301 0.66354" fill="none" stroke="#8147ff" stroke-linecap="round" stroke-linejoin="round" stroke-opacity=".7462" stroke-width="1.9892"/></g><path d="m1049.7 520.55c0.1257-1.0023 0.4947-1.9534 0.7071-2.9388 0.1131-0.52471 0.2032-1.0542 0.3049-1.5812 0.8518-4.5438 1.4704-9.1291 1.9387-13.728 0.2421-2.712 0.4689-5.463 0.04-8.1702-0.059-0.37328-0.1544-0.73989-0.2316-1.1098-0.4107-1.6149-0.921-2.717-2.1796-3.8059-0.9705-0.66849-1.8695-0.7508-3.01-0.61904-1.1392 0.26355-2.2015 0.82125-3.0488 1.6372-0.2298 0.2213-0.4336 0.46835-0.6504 0.70252-2.1733 2.7366-3.0993 6.176-4.0026 9.4929-0.8746 3.4813-1.4902 7.0255-1.8952 10.592-0.2577 2.2694-0.3021 3.1941-0.4663 5.458-0.1544 3.0881-0.3487 6.1834-0.2544 9.2771 0.055 1.8001 0.1201 2.1544 0.2961 3.9145 0.3031 2.8219 1.1165 5.5388 2.3141 8.0998 0.6553 1.4428 1.5707 2.5846 2.8413 3.5119 0.758 0.55479 1.5972 0.88958 2.5295 0.95891 0.768-0.012 1.4559-0.26819 2.1-0.6698 0.8632-0.6689 1.3366-1.688 1.7737-2.6624 1.0652-2.5906 1.7364-5.3388 2.1976-8.0989 0.1495-0.89423 0.2612-1.7944 0.3918-2.6916 0.6033-4.7037 0.6948-9.4574 0.4157-14.188-0.1714-2.9058-0.3586-4.2932-0.6713-7.1243-0.067-0.60264-0.9146-0.50798-0.8481 0.0946 0.3104 2.8066 0.4963 4.1832 0.6668 7.0629 0.2771 4.6785 0.1884 9.3795-0.4074 14.031-0.1284 0.88412-0.2382 1.7712-0.3851 2.6524-0.4494 2.6955-1.1015 5.3805-2.1386 7.9115-0.3629 0.81989-0.7529 1.6932-1.4485 2.2865-0.4886 0.31228-1.007 0.51333-1.593 0.54043-0.7721-0.0367-1.4583-0.35154-2.0845-0.79896-1.14-0.81674-1.9894-1.8955-2.568-3.1814-1.1601-2.4712-1.9421-5.0965-2.237-7.8205-0.1732-1.7226-0.2377-2.0737-0.2919-3.8368-0.094-3.0702 0.1-6.1419 0.2521-9.2065 0.3885-5.3604 0.9742-10.672 2.3337-15.886 0.8655-3.1842 1.7417-6.4949 3.8061-9.1371 0.1913-0.20956 0.3709-0.43035 0.5736-0.62871 0.7218-0.70634 1.6296-1.1965 2.603-1.4418 0.821-0.10949 1.6467-0.0612 2.3529 0.42084 1.0966 0.92553 1.5451 1.941 1.8979 3.3304 0.073 0.34354 0.1634 0.68381 0.2188 1.0307 0.4222 2.6456 0.1945 5.3342-0.041 7.9847-0.4654 4.5734-1.0809 9.1334-1.9276 13.652-0.098 0.51185-0.1853 1.026-0.2948 1.5355-0.2264 1.0528-0.6348 2.0698-0.7327 3.1472 0 0.60634 0.8532 0.60634 0.8532 0z" fill="#a783f6" filter="url(#g)" stroke="#830cad" stroke-linejoin="round"/><path d="m1049.7 520.55c0.1257-1.0023 0.4947-1.9534 0.7071-2.9388 0.1131-0.52471 0.2032-1.0542 0.3049-1.5812 0.8518-4.5438 1.4704-9.1291 1.9387-13.728 0.2421-2.712 0.4689-5.463 0.04-8.1702-0.059-0.37328-0.1544-0.73989-0.2316-1.1098-0.4107-1.6149-0.921-2.717-2.1796-3.8059-0.9705-0.66849-1.8695-0.7508-3.01-0.61904-1.1392 0.26355-2.2015 0.82125-3.0488 1.6372-0.2298 0.2213-0.4336 0.46835-0.6504 0.70252-2.1733 2.7366-3.0993 6.176-4.0026 9.4929-0.8746 3.4813-1.4902 7.0255-1.8952 10.592-0.2577 2.2694-0.3021 3.1941-0.4663 5.458-0.1544 3.0881-0.3487 6.1834-0.2544 9.2771 0.055 1.8001 0.1201 2.1544 0.2961 3.9145 0.3031 2.8219 1.1165 5.5388 2.3141 8.0998 0.6553 1.4428 1.5707 2.5846 2.8413 3.5119 0.758 0.55479 1.5972 0.88958 2.5295 0.95891 0.768-0.012 1.4559-0.26819 2.1-0.6698 0.8632-0.6689 1.3366-1.688 1.7737-2.6624 1.0652-2.5906 1.7364-5.3388 2.1976-8.0989 0.1495-0.89423 0.2612-1.7944 0.3918-2.6916 0.6033-4.7037 0.6948-9.4574 0.4157-14.188-0.1714-2.9058-0.3586-4.2932-0.6713-7.1243-0.067-0.60264-0.9146-0.50798-0.8481 0.0946 0.3104 2.8066 0.4963 4.1832 0.6668 7.0629 0.2771 4.6785 0.1884 9.3795-0.4074 14.031-0.1284 0.88412-0.2382 1.7712-0.3851 2.6524-0.4494 2.6955-1.1015 5.3805-2.1386 7.9115-0.3629 0.81989-0.7529 1.6932-1.4485 2.2865-0.4886 0.31228-1.007 0.51333-1.593 0.54043-0.7721-0.0367-1.4583-0.35154-2.0845-0.79896-1.14-0.81674-1.9894-1.8955-2.568-3.1814-1.1601-2.4712-1.9421-5.0965-2.237-7.8205-0.1732-1.7226-0.2377-2.0737-0.2919-3.8368-0.094-3.0702 0.1-6.1419 0.2521-9.2065 0.3885-5.3604 0.9742-10.672 2.3337-15.886 0.8655-3.1842 1.7417-6.4949 3.8061-9.1371 0.1913-0.20956 0.3709-0.43035 0.5736-0.62871 0.7218-0.70634 1.6296-1.1965 2.603-1.4418 0.821-0.10949 1.6467-0.0612 2.3529 0.42084 1.0966 0.92553 1.5451 1.941 1.8979 3.3304 0.073 0.34354 0.1634 0.68381 0.2188 1.0307 0.4222 2.6456 0.1945 5.3342-0.041 7.9847-0.4654 4.5734-1.0809 9.1334-1.9276 13.652-0.098 0.51185-0.1853 1.026-0.2948 1.5355-0.2264 1.0528-0.6348 2.0698-0.7327 3.1472 0 0.60634 0.8532 0.60634 0.8532 0z" fill="#a783f6" stroke="#a783f6" stroke-linejoin="round"/><path d="m960.56 222.19h22.749v64.679h-22.749z" fill="none" filter="url(#c)" stroke="#d8b4f6" stroke-linecap="round" stroke-linejoin="round" stroke-width="5"/><path d="m936.47 394.37h22.749v64.679h-22.749z" fill="none" filter="url(#e)" stroke="#d8b4f6" stroke-linecap="round" stroke-linejoin="round" stroke-width="5"/><path d="m888.3 394.37h22.749v64.679h-22.749z" fill="none" filter="url(#d)" stroke="#d8b4f6" stroke-linecap="round" stroke-linejoin="round" stroke-width="5"/><path d="m1032.8 521.45v-36.942h22.749v36.942z" fill="none" filter="url(#f)" stroke="#d8b4f6" stroke-linecap="round" stroke-linejoin="round" stroke-width="5"/><path d="m896.51 409.31c-0.85304 2.7333-1.357 5.5593-1.8773 8.3724-1.1233 6.1334-1.67 12.355-1.9572 18.581-0.10372 2.5558-0.0593 5.1231 0.36642 7.6494 0.1809 1.0735 0.27483 1.351 0.53711 2.3561 0.42269 1.3724 0.96807 2.2658 2.1797 3.0024 0.68925 0.35106 1.4565 0.36985 2.2103 0.38264 0.79094 0.0397 1.5296-0.23225 2.1963-0.64199 0.89502-0.81482 1.2556-2.0289 1.6437-3.1469 0.86622-2.4201 1.4101-4.936 1.8765-7.4616 0.62903-3.7275 0.98743-7.4969 1.233-11.269 0.0711-1.0914 0.14437-2.1831 0.18145-3.2762 0.0375-1.107 0.0283-2.2152 0.0424-3.3227-0.1138-4.3549-0.2843-8.7927-1.5023-13.003-0.14833-0.51268-0.34464-1.0097-0.51695-1.5146-0.59356-1.1696-1.4676-3.2307-3.0232-3.325-0.23486-0.0143-0.46648 0.0627-0.69972 0.0941-0.24535 0.12284-0.50581 0.21848-0.73608 0.36852-1.9473 1.2688-3.2968 3.9963-4.3703 5.9813-1.3393 2.7386-2.2979 5.6498-2.7908 8.6692-0.37725 2.3113-0.35548 3.0796-0.49262 5.4677-0.0871 4.193 0.11185 8.4277 0.72037 12.579 0.31382 2.1412 0.60097 3.2744 1.0587 5.3412 0.83246 3.0531 1.9137 6.0832 3.6439 8.7412 0.23922 0.36752 0.5102 0.71262 0.76529 1.0689 0.67899 0.7579 1.6419 2.0378 2.7185 2.2383 0.22168 0.0413 0.474 0.0895 0.67598-0.0121 0.36683-0.18457 0.62752-0.53441 0.94128-0.80162 0.29593-0.48185 0.62784-0.94271 0.88777-1.4456 1.3764-2.6629 2.0922-5.5707 2.592-8.5187 0.60995-3.5976 0.83821-6.5249 1.2038-10.169 0.62677-8.3462 1.0573-16.718 1.0098-25.091-0.11816-1.5773 0.032-4.0362-1.0896-5.343-0.0994-0.11576-0.22654-0.20343-0.33982-0.30514-0.62815-0.41897-1.128-0.308-1.7951-0.0758-1.0804 0.41613-2.0103 1.1454-2.9568 1.8027-1.253 0.82954-2.3179 1.8986-3.3961 2.9401-0.38008 0.36738 0.13096 0.91382 0.51103 0.54645 1.0488-1.0144 2.0836-2.057 3.3035-2.864 0.89193-0.6195 1.7671-1.3112 2.7809-1.7127 0.37005-0.13181 0.7092-0.27816 1.0752-0.0596 0.0722 0.0569 0.15409 0.1029 0.21665 0.17056 0.98121 1.0615 0.84488 3.6162 0.94849 4.9049 0.0479 8.3458-0.38237 16.691-1.006 25.01-0.36402 3.6322-0.58725 6.5039-1.1914 10.088-0.56502 3.3525-1.4197 6.7035-3.2698 9.579-0.15869 0.19714-0.27694 0.43678-0.47605 0.59143-0.22168 0.17218-0.6576-0.0148-0.8297-0.10902-0.77484-0.42428-1.3446-1.155-1.9153-1.8092-0.24351-0.33863-0.50238-0.66638-0.73052-1.0159-1.6892-2.5878-2.74-5.542-3.5543-8.5156-0.44918-2.0255-0.73814-3.1684-1.0458-5.2643-0.6034-4.111-0.8007-8.295-0.71645-12.447 0.13297-2.3414 0.11127-3.0949 0.4786-5.3593 0.47785-2.9456 1.4105-5.7857 2.7143-8.4583 1.0526-1.9487 2.2083-4.3625 4.062-5.6752 0.16296-0.1154 0.34702-0.19646 0.52053-0.2947 0.13754-0.0337 0.27124-0.0957 0.41261-0.1011 1.1705-0.0449 2.065 2.0187 2.4837 2.8368 0.1661 0.4838 0.35561 0.95993 0.49832 1.4514 1.2038 4.1458 1.3645 8.5191 1.4798 12.808-0.0137 1.0967-4e-3 2.1939-0.0412 3.2901-0.0368 1.0881-0.10981 2.1748-0.18047 3.2612-0.24355 3.7444-0.59864 7.4866-1.2224 11.187-0.45866 2.4878-0.99392 4.9661-1.847 7.3499-0.33171 0.95745-0.63379 2.0005-1.3333 2.7556-0.53893 0.34614-1.1506 0.56265-1.7952 0.53004-0.62414-0.0101-1.2668-9e-3 -1.8459-0.27837-0.99584-0.58525-1.5116-1.4266-1.8394-2.5466-0.25334-0.96627-0.3447-1.2357-0.51969-2.2692-0.41979-2.4792-0.46136-4.9989-0.35974-7.5072 0.2851-6.1911 0.82863-12.378 1.9452-18.477 0.51393-2.7796 1.0104-5.5722 1.852-8.2733 0.16584-0.5058-0.53776-0.74424-0.7036-0.23844z" fill="#a783f6" filter="url(#h)" stroke="#8a1fe4" stroke-linejoin="round" stroke-width="3"/><path d="m969.22 231.99c-1.3096 6.1618-1.7066 12.471-2.1753 18.738-0.301 8.7352-1.5286 17.559-0.4287 26.277 0.579 2.5576 1.8799 5.2407 4.5701 6.1278 0.351 0.11576 0.7292 0.12135 1.0938 0.18204 3.0619-0.44708 4.0823-3.4179 4.9537-5.9937 2.0288-8.4427 2.1247-17.259 2.1267-25.901-0.2513-7.3639-0.5312-14.997-3.363-21.901-1.1716-2.1942-2.3949-3.3427-4.9369-2.8612-1.7823 0.69441-2.6721 2.342-3.3986 4.0045-1.6025 3.7095-2.1795 7.712-2.7079 11.685-0.8119 7.9322-1.0732 15.911-0.7802 23.877 0.283 4.62 1.158 9.1463 2.7545 13.485 0.2343 0.63584 1.1335 0.30448 0.8992-0.33136-1.566-4.2426-2.4148-8.6714-2.696-13.189-0.2924-7.9118-0.031-15.837 0.7725-23.715 0.5153-3.8855 1.0727-7.8015 2.6371-11.43 0.5886-1.37 1.2921-2.7893 2.7131-3.4471 2.0336-0.46794 2.908 0.55979 3.8571 2.2876 2.8035 6.7776 3.0219 14.306 3.2907 21.536-5e-4 8.5397-0.095 17.249-2.0766 25.596-0.7047 2.1068-1.4724 4.7437-3.9076 5.3509-2.847-0.33251-4.2763-2.9024-4.8509-5.4822-1.1069-8.6522 0.1531-17.416 0.4335-26.085 0.4656-6.2283 0.8582-12.498 2.1594-18.622 0.133-0.66448-0.80679-0.85242-0.93969-0.18795z" fill="#a783f6" filter="url(#i)" stroke="#8a1fe4" stroke-linejoin="round" stroke-width="3"/><path d="m944.36 427.97c-0.3097-1.1228-0.3883-2.3332-0.4646-3.5074-0.1416-2.1766-0.103-2.029-0.1139-4.3691 0.053-3.897 0.385-7.8395 1.2544-11.599 0.1125-0.4867 0.2563-0.96155 0.3844-1.4423 0.2335-0.56712 0.5239-1.8374 1.1019-2.116 0.3331-0.16051 1.0496 0.7771 1.2009 0.94255 0.2375 0.40329 0.4916 0.79246 0.7126 1.2099 0.6798 1.2837 1.1392 2.4048 1.6565 3.8279 0.7202 1.981 1.3075 3.9136 1.8522 5.9846 0.308 1.171 0.5701 2.3598 0.8551 3.5397 1.0817 4.8334 1.8485 9.768 2.3326 14.746 0.2551 2.624 0.3362 4.1184 0.5083 6.7049 0.051 1.966 0.1341 3.1692 0 5.0916-0.078 1.1093-0.2231 2.2825-0.6163 3.3036-0.3969 1.0306-0.6413 1.1383-1.3163 1.8444-0.8404 0.66997-1.7826 1.0118-2.756 1.2379-0.4789 0.11121-1.1932 0.26104-1.693 0.14281-0.2377-0.0563-0.4506-0.21912-0.6759-0.32867-0.2296-0.37355-0.496-0.71648-0.6887-1.1206-0.7638-1.6017-1.2471-3.2647-1.6614-5.0558-0.6338-2.74-1.0141-5.3837-1.3312-8.2122-0.1854-1.6543-0.3063-3.3186-0.4596-4.978-0.5868-8.0352-0.9092-16.106-0.7378-24.173 0.053-1.8083 0.1679-3.6163 0.4628-5.3912 0.1137-0.68438 0.2535-1.3985 0.4813-2.044 0.074-0.20925 0.1783-0.39993 0.2674-0.59989 0.1034-0.0881 0.1908-0.21641 0.3103-0.26443 0.4574-0.1838 1.0392 0.46966 1.2948 0.78217 0.6939 0.84808 0.9654 1.376 1.5698 2.3661 1.3238 2.3825 2.5116 4.8918 3.535 7.4919 0.7469 1.8975 0.9443 2.5817 1.5873 4.5231 1.6445 5.221 1.9333 10.853 2.1915 16.389 0.032 3.6188 0.2068 7.3562-0.6223 10.878-0.1272 0.53995-0.3 1.0618-0.45 1.5927-0.7516 2.179-1.6188 4.3369-3.0493 5.9563-0.1147 0.0622-0.2224 0.15025-0.344 0.18649-0.8036 0.23923-1.8579-1.0568-2.3683-1.6165-0.2777-0.40079-0.5747-0.78217-0.8329-1.2023-1.8414-2.9961-3.11-6.5033-4.1139-10.034-0.3265-1.1483-0.5983-2.3192-0.8975-3.4789-1.2336-5.4-1.9113-10.96-2.2732-16.544-0.1507-2.8133 0.1959-5.6168 0.4568-8.4046 0.2414-2.3003 0.441-4.6301 0.9906-6.8565 0.173-0.50736 0.5595-0.76545 0.9241-1.037 0.4533-0.33919 0.065-1.1321-0.3878-0.79293-0.5271 0.39597-1.0297 0.81026-1.2531 1.5602-0.5595 2.2811-0.7755 4.6627-1.0182 7.0197-0.2663 2.8478-0.6173 5.7115-0.4593 8.5853 0.3672 5.655 1.0543 11.285 2.3064 16.752 0.3041 1.1771 0.5803 2.3659 0.9124 3.5314 1.0333 3.6262 2.3418 7.2358 4.245 10.304 0.2805 0.45228 0.6035 0.86181 0.9052 1.2927 0.8303 0.89981 1.9617 2.2464 3.1929 1.7536 0.1872-0.075 0.3488-0.22553 0.5233-0.33829 0.1566-0.18046 0.3227-0.34912 0.4699-0.54141 1.2578-1.6438 2.0598-3.7403 2.7786-5.7912 0.4365-1.5602 0.5402-1.7374 0.7806-3.3421 0.4682-3.126 0.3873-6.3244 0.332-9.4864-0.2635-5.6381-0.5662-11.371-2.2462-16.687-0.6562-1.9796-0.8528-2.6622-1.6152-4.5979-1.0426-2.647-2.2528-5.2012-3.603-7.625-0.7646-1.2466-2.3145-4.307-3.9331-3.3096-0.1984 0.12224-0.3323 0.36289-0.4984 0.54431-0.1047 0.2436-0.2263 0.47729-0.3143 0.73081-0.2397 0.69-0.3928 1.4642-0.5132 2.1938-0.3004 1.82-0.4201 3.673-0.4738 5.5269-0.1715 8.1106 0.151 16.225 0.7424 24.303 0.155 1.6749 0.2771 3.3549 0.4649 5.0246 0.322 2.8638 0.7144 5.586 1.3618 8.3615 0.3817 1.6369 1.0075 3.8661 1.7944 5.348 0.2775 0.52247 0.6732 0.93255 1.0097 1.3988 0.3065 0.12788 0.6007 0.31543 0.9194 0.38363 0.5488 0.11746 1.3382-0.0395 1.87-0.16575 1.0962-0.26018 2.1476-0.66317 3.0823-1.443 0.8039-0.88852 1.0661-0.99853 1.5347-2.2496 0.968-2.5841 0.6982-6.0192 0.6532-8.7645-0.1735-2.6052-0.2551-4.11-0.5127-6.7538-0.4893-5.0255-1.2641-10.007-2.357-14.887-0.2889-1.1946-0.5546-2.3981-0.8668-3.5837-0.5518-2.0955-1.1543-4.0775-1.8855-6.0828-0.5091-1.3965-1.0401-2.7018-1.7272-3.9718-0.2555-0.47215-0.5519-0.90839-0.8278-1.3626-0.4547-0.46857-0.8494-1.0235-1.4857-1.1171-1.1759-0.17293-1.6549 1.7306-2.0159 2.7054-0.1331 0.50198-0.2822 0.9979-0.3993 1.5059-0.8841 3.8353-1.2248 7.8553-1.2769 11.83 0.012 2.3678-0.027 2.2563 0.1176 4.4569 0.087 1.3287 0.1578 2.7401 0.6107 3.97 0.3179 0.52424 0.9173-0.0318 0.5994-0.55604z" fill="#a783f6" filter="url(#j)" stroke="#8a1fe4" stroke-linejoin="round" stroke-width="3"/><path d="m896.51 409.31c-0.85304 2.7333-1.357 5.5593-1.8773 8.3724-1.1233 6.1334-1.67 12.355-1.9572 18.581-0.10372 2.5558-0.0593 5.1231 0.36642 7.6494 0.1809 1.0735 0.27483 1.351 0.53711 2.3561 0.42269 1.3724 0.96807 2.2658 2.1797 3.0024 0.68925 0.35106 1.4565 0.36985 2.2103 0.38264 0.79094 0.0397 1.5296-0.23225 2.1963-0.64199 0.89502-0.81482 1.2556-2.0289 1.6437-3.1469 0.86622-2.4201 1.4101-4.936 1.8765-7.4616 0.62903-3.7275 0.98743-7.4969 1.233-11.269 0.0711-1.0914 0.14437-2.1831 0.18145-3.2762 0.0375-1.107 0.0283-2.2152 0.0424-3.3227-0.1138-4.3549-0.2843-8.7927-1.5023-13.003-0.14833-0.51268-0.34464-1.0097-0.51695-1.5146-0.59356-1.1696-1.4676-3.2307-3.0232-3.325-0.23486-0.0143-0.46648 0.0627-0.69972 0.0941-0.24535 0.12284-0.50581 0.21848-0.73608 0.36852-1.9473 1.2688-3.2968 3.9963-4.3703 5.9813-1.3393 2.7386-2.2979 5.6498-2.7908 8.6692-0.37725 2.3113-0.35548 3.0796-0.49262 5.4677-0.0871 4.193 0.11185 8.4277 0.72037 12.579 0.31382 2.1412 0.60097 3.2744 1.0587 5.3412 0.83246 3.0531 1.9137 6.0832 3.6439 8.7412 0.23922 0.36752 0.5102 0.71262 0.76529 1.0689 0.67899 0.7579 1.6419 2.0378 2.7185 2.2383 0.22168 0.0413 0.474 0.0895 0.67598-0.0121 0.36683-0.18457 0.62752-0.53441 0.94128-0.80162 0.29593-0.48185 0.62784-0.94271 0.88777-1.4456 1.3764-2.6629 2.0922-5.5707 2.592-8.5187 0.60995-3.5976 0.83821-6.5249 1.2038-10.169 0.62677-8.3462 1.0573-16.718 1.0098-25.091-0.11816-1.5773 0.032-4.0362-1.0896-5.343-0.0994-0.11576-0.22654-0.20343-0.33982-0.30514-0.62815-0.41897-1.128-0.308-1.7951-0.0758-1.0804 0.41613-2.0103 1.1454-2.9568 1.8027-1.253 0.82954-2.3179 1.8986-3.3961 2.9401-0.38008 0.36738 0.13096 0.91382 0.51103 0.54645 1.0488-1.0144 2.0836-2.057 3.3035-2.864 0.89193-0.6195 1.7671-1.3112 2.7809-1.7127 0.37005-0.13181 0.7092-0.27816 1.0752-0.0596 0.0722 0.0569 0.15409 0.1029 0.21665 0.17056 0.98121 1.0615 0.84488 3.6162 0.94849 4.9049 0.0479 8.3458-0.38237 16.691-1.006 25.01-0.36402 3.6322-0.58725 6.5039-1.1914 10.088-0.56502 3.3525-1.4197 6.7035-3.2698 9.579-0.15869 0.19714-0.27694 0.43678-0.47605 0.59143-0.22168 0.17218-0.6576-0.0148-0.8297-0.10902-0.77484-0.42428-1.3446-1.155-1.9153-1.8092-0.24351-0.33863-0.50238-0.66638-0.73052-1.0159-1.6892-2.5878-2.74-5.542-3.5543-8.5156-0.44918-2.0255-0.73814-3.1684-1.0458-5.2643-0.6034-4.111-0.8007-8.295-0.71645-12.447 0.13297-2.3414 0.11127-3.0949 0.4786-5.3593 0.47785-2.9456 1.4105-5.7857 2.7143-8.4583 1.0526-1.9487 2.2083-4.3625 4.062-5.6752 0.16296-0.1154 0.34702-0.19646 0.52053-0.2947 0.13754-0.0337 0.27124-0.0957 0.41261-0.1011 1.1705-0.0449 2.065 2.0187 2.4837 2.8368 0.1661 0.4838 0.35561 0.95993 0.49832 1.4514 1.2038 4.1458 1.3645 8.5191 1.4798 12.808-0.0137 1.0967-4e-3 2.1939-0.0412 3.2901-0.0368 1.0881-0.10981 2.1748-0.18047 3.2612-0.24355 3.7444-0.59864 7.4866-1.2224 11.187-0.45866 2.4878-0.99392 4.9661-1.847 7.3499-0.33171 0.95745-0.63379 2.0005-1.3333 2.7556-0.53893 0.34614-1.1506 0.56265-1.7952 0.53004-0.62414-0.0101-1.2668-9e-3 -1.8459-0.27837-0.99584-0.58525-1.5116-1.4266-1.8394-2.5466-0.25334-0.96627-0.3447-1.2357-0.51969-2.2692-0.41979-2.4792-0.46136-4.9989-0.35974-7.5072 0.2851-6.1911 0.82863-12.378 1.9452-18.477 0.51393-2.7796 1.0104-5.5722 1.852-8.2733 0.16584-0.5058-0.53776-0.74424-0.7036-0.23844z" fill="#a783f6" stroke="#a783f6" stroke-linejoin="round"/><path d="m969.22 231.99c-1.3096 6.1618-1.7066 12.471-2.1753 18.738-0.301 8.7352-1.5286 17.559-0.4287 26.277 0.579 2.5576 1.8799 5.2407 4.5701 6.1278 0.351 0.11576 0.7292 0.12135 1.0938 0.18204 3.0619-0.44708 4.0823-3.4179 4.9537-5.9937 2.0288-8.4427 2.1247-17.259 2.1267-25.901-0.2513-7.3639-0.5312-14.997-3.363-21.901-1.1716-2.1942-2.3949-3.3427-4.9369-2.8612-1.7823 0.69441-2.6721 2.342-3.3986 4.0045-1.6025 3.7095-2.1795 7.712-2.7079 11.685-0.8119 7.9322-1.0732 15.911-0.7802 23.877 0.283 4.62 1.158 9.1463 2.7545 13.485 0.2343 0.63584 1.1335 0.30448 0.8992-0.33136-1.566-4.2426-2.4148-8.6714-2.696-13.189-0.2924-7.9118-0.031-15.837 0.7725-23.715 0.5153-3.8855 1.0727-7.8015 2.6371-11.43 0.5886-1.37 1.2921-2.7893 2.7131-3.4471 2.0336-0.46794 2.908 0.55979 3.8571 2.2876 2.8035 6.7776 3.0219 14.306 3.2907 21.536-5e-4 8.5397-0.095 17.249-2.0766 25.596-0.7047 2.1068-1.4724 4.7437-3.9076 5.3509-2.847-0.33251-4.2763-2.9024-4.8509-5.4822-1.1069-8.6522 0.1531-17.416 0.4335-26.085 0.4656-6.2283 0.8582-12.498 2.1594-18.622 0.133-0.66448-0.80679-0.85242-0.93969-0.18795z" fill="#a783f6" stroke="#a783f6" stroke-linejoin="round"/><path d="m944.36 427.97c-0.3097-1.1228-0.3883-2.3332-0.4646-3.5074-0.1416-2.1766-0.103-2.029-0.1139-4.3691 0.053-3.897 0.385-7.8395 1.2544-11.599 0.1125-0.4867 0.2563-0.96155 0.3844-1.4423 0.2335-0.56712 0.5239-1.8374 1.1019-2.116 0.3331-0.16051 1.0496 0.7771 1.2009 0.94255 0.2375 0.40329 0.4916 0.79246 0.7126 1.2099 0.6798 1.2837 1.1392 2.4048 1.6565 3.8279 0.7202 1.981 1.3075 3.9136 1.8522 5.9846 0.308 1.171 0.5701 2.3598 0.8551 3.5397 1.0817 4.8334 1.8485 9.768 2.3326 14.746 0.2551 2.624 0.3362 4.1184 0.5083 6.7049 0.051 1.966 0.1341 3.1692 0 5.0916-0.078 1.1093-0.2231 2.2825-0.6163 3.3036-0.3969 1.0306-0.6413 1.1383-1.3163 1.8444-0.8404 0.66997-1.7826 1.0118-2.756 1.2379-0.4789 0.11121-1.1932 0.26104-1.693 0.14281-0.2377-0.0563-0.4506-0.21912-0.6759-0.32867-0.2296-0.37355-0.496-0.71648-0.6887-1.1206-0.7638-1.6017-1.2471-3.2647-1.6614-5.0558-0.6338-2.74-1.0141-5.3837-1.3312-8.2122-0.1854-1.6543-0.3063-3.3186-0.4596-4.978-0.5868-8.0352-0.9092-16.106-0.7378-24.173 0.053-1.8083 0.1679-3.6163 0.4628-5.3912 0.1137-0.68438 0.2535-1.3985 0.4813-2.044 0.074-0.20925 0.1783-0.39993 0.2674-0.59989 0.1034-0.0881 0.1908-0.21641 0.3103-0.26443 0.4574-0.1838 1.0392 0.46966 1.2948 0.78217 0.6939 0.84808 0.9654 1.376 1.5698 2.3661 1.3238 2.3825 2.5116 4.8918 3.535 7.4919 0.7469 1.8975 0.9443 2.5817 1.5873 4.5231 1.6445 5.221 1.9333 10.853 2.1915 16.389 0.032 3.6188 0.2068 7.3562-0.6223 10.878-0.1272 0.53995-0.3 1.0618-0.45 1.5927-0.7516 2.179-1.6188 4.3369-3.0493 5.9563-0.1147 0.0622-0.2224 0.15025-0.344 0.18649-0.8036 0.23923-1.8579-1.0568-2.3683-1.6165-0.2777-0.40079-0.5747-0.78217-0.8329-1.2023-1.8414-2.9961-3.11-6.5033-4.1139-10.034-0.3265-1.1483-0.5983-2.3192-0.8975-3.4789-1.2336-5.4-1.9113-10.96-2.2732-16.544-0.1507-2.8133 0.1959-5.6168 0.4568-8.4046 0.2414-2.3003 0.441-4.6301 0.9906-6.8565 0.173-0.50736 0.5595-0.76545 0.9241-1.037 0.4533-0.33919 0.065-1.1321-0.3878-0.79293-0.5271 0.39597-1.0297 0.81026-1.2531 1.5602-0.5595 2.2811-0.7755 4.6627-1.0182 7.0197-0.2663 2.8478-0.6173 5.7115-0.4593 8.5853 0.3672 5.655 1.0543 11.285 2.3064 16.752 0.3041 1.1771 0.5803 2.3659 0.9124 3.5314 1.0333 3.6262 2.3418 7.2358 4.245 10.304 0.2805 0.45228 0.6035 0.86181 0.9052 1.2927 0.8303 0.89981 1.9617 2.2464 3.1929 1.7536 0.1872-0.075 0.3488-0.22553 0.5233-0.33829 0.1566-0.18046 0.3227-0.34912 0.4699-0.54141 1.2578-1.6438 2.0598-3.7403 2.7786-5.7912 0.4365-1.5602 0.5402-1.7374 0.7806-3.3421 0.4682-3.126 0.3873-6.3244 0.332-9.4864-0.2635-5.6381-0.5662-11.371-2.2462-16.687-0.6562-1.9796-0.8528-2.6622-1.6152-4.5979-1.0426-2.647-2.2528-5.2012-3.603-7.625-0.7646-1.2466-2.3145-4.307-3.9331-3.3096-0.1984 0.12224-0.3323 0.36289-0.4984 0.54431-0.1047 0.2436-0.2263 0.47729-0.3143 0.73081-0.2397 0.69-0.3928 1.4642-0.5132 2.1938-0.3004 1.82-0.4201 3.673-0.4738 5.5269-0.1715 8.1106 0.151 16.225 0.7424 24.303 0.155 1.6749 0.2771 3.3549 0.4649 5.0246 0.322 2.8638 0.7144 5.586 1.3618 8.3615 0.3817 1.6369 1.0075 3.8661 1.7944 5.348 0.2775 0.52247 0.6732 0.93255 1.0097 1.3988 0.3065 0.12788 0.6007 0.31543 0.9194 0.38363 0.5488 0.11746 1.3382-0.0395 1.87-0.16575 1.0962-0.26018 2.1476-0.66317 3.0823-1.443 0.8039-0.88852 1.0661-0.99853 1.5347-2.2496 0.968-2.5841 0.6982-6.0192 0.6532-8.7645-0.1735-2.6052-0.2551-4.11-0.5127-6.7538-0.4893-5.0255-1.2641-10.007-2.357-14.887-0.2889-1.1946-0.5546-2.3981-0.8668-3.5837-0.5518-2.0955-1.1543-4.0775-1.8855-6.0828-0.5091-1.3965-1.0401-2.7018-1.7272-3.9718-0.2555-0.47215-0.5519-0.90839-0.8278-1.3626-0.4547-0.46857-0.8494-1.0235-1.4857-1.1171-1.1759-0.17293-1.6549 1.7306-2.0159 2.7054-0.1331 0.50198-0.2822 0.9979-0.3993 1.5059-0.8841 3.8353-1.2248 7.8553-1.2769 11.83 0.012 2.3678-0.027 2.2563 0.1176 4.4569 0.087 1.3287 0.1578 2.7401 0.6107 3.97 0.3179 0.52424 0.9173-0.0318 0.5994-0.55604z" fill="#a783f6" stroke="#a783f6" stroke-linejoin="round"/><path d="m1051.9 521.45c0.081-2.5054 0.037-5.0152-0.1108-7.5186-0.1714-2.9058-0.3586-4.2932-0.6713-7.1243-0.067-0.60264-0.9146-0.50798-0.8481 0.0946 0.3104 2.8066 0.4963 4.1832 0.6668 7.0629 0.1476 2.4928 0.1914 4.9919 0.11 7.4866m-13.241-1e-3c0.055-1.6371 0.148-3.2734 0.2291-4.9077 0.3885-5.3604 0.9742-10.672 2.3337-15.886 0.8655-3.1842 1.7417-6.4949 3.8061-9.1371 0.1913-0.20956 0.3709-0.43035 0.5736-0.62871 0.7218-0.70634 1.6296-1.1965 2.603-1.4418 0.821-0.10949 1.6467-0.0612 2.3529 0.42084 1.0966 0.92553 1.5451 1.941 1.8979 3.3304 0.073 0.34354 0.1634 0.68381 0.2188 1.0307 0.4222 2.6456 0.1945 5.3342-0.041 7.9847-0.4654 4.5734-1.0809 9.1334-1.9276 13.652-0.098 0.51185-0.1853 1.026-0.2948 1.5355-0.2264 1.0528-0.6348 2.0698-0.7327 3.1472 0 0.60634 0.8532 0.60634 0.8532 0l-2e-4 5e-5c0.1257-1.0023 0.4947-1.9534 0.7071-2.9388 0.1131-0.52471 0.2032-1.0542 0.3049-1.5812 0.8518-4.5438 1.4704-9.1291 1.9387-13.728 0.2421-2.712 0.4689-5.463 0.04-8.1702-0.059-0.37328-0.1544-0.73989-0.2316-1.1098-0.4107-1.6149-0.921-2.717-2.1796-3.8059-0.9705-0.66849-1.8695-0.7508-3.01-0.61904-1.1392 0.26355-2.2015 0.82125-3.0488 1.6372-0.2298 0.2213-0.4336 0.46835-0.6504 0.70252-2.1733 2.7366-3.0993 6.176-4.0026 9.4929-0.8746 3.4813-1.4902 7.0255-1.8952 10.592-0.2577 2.2694-0.3021 3.1941-0.4663 5.458-0.083 1.6552-0.177 3.3124-0.2321 4.9704" fill="none" filter="url(#b)" stroke="#8a1fe4" stroke-linejoin="round" stroke-width="3"/><path d="m1051.9 521.45c0.081-2.5054 0.037-5.0152-0.1108-7.5186-0.1714-2.9058-0.3586-4.2932-0.6713-7.1243-0.067-0.60264-0.9146-0.50798-0.8481 0.0946 0.3104 2.8066 0.4963 4.1832 0.6668 7.0629 0.1476 2.4928 0.1914 4.9919 0.11 7.4866m-13.241-1e-3c0.055-1.6371 0.148-3.2734 0.2291-4.9077 0.3885-5.3604 0.9742-10.672 2.3337-15.886 0.8655-3.1842 1.7417-6.4949 3.8061-9.1371 0.1913-0.20956 0.3709-0.43035 0.5736-0.62871 0.7218-0.70634 1.6296-1.1965 2.603-1.4418 0.821-0.10949 1.6467-0.0612 2.3529 0.42084 1.0966 0.92553 1.5451 1.941 1.8979 3.3304 0.073 0.34354 0.1634 0.68381 0.2188 1.0307 0.4222 2.6456 0.1945 5.3342-0.041 7.9847-0.4654 4.5734-1.0809 9.1334-1.9276 13.652-0.098 0.51185-0.1853 1.026-0.2948 1.5355-0.2264 1.0528-0.6348 2.0698-0.7327 3.1472 0 0.60634 0.8532 0.60634 0.8532 0l-2e-4 5e-5c0.1257-1.0023 0.4947-1.9534 0.7071-2.9388 0.1131-0.52471 0.2032-1.0542 0.3049-1.5812 0.8518-4.5438 1.4704-9.1291 1.9387-13.728 0.2421-2.712 0.4689-5.463 0.04-8.1702-0.059-0.37328-0.1544-0.73989-0.2316-1.1098-0.4107-1.6149-0.921-2.717-2.1796-3.8059-0.9705-0.66849-1.8695-0.7508-3.01-0.61904-1.1392 0.26355-2.2015 0.82125-3.0488 1.6372-0.2298 0.2213-0.4336 0.46835-0.6504 0.70252-2.1733 2.7366-3.0993 6.176-4.0026 9.4929-0.8746 3.4813-1.4902 7.0255-1.8952 10.592-0.2577 2.2694-0.3021 3.1941-0.4663 5.458-0.083 1.6552-0.177 3.3124-0.2321 4.9704" fill="none" stroke="#a783f6" stroke-linejoin="round"/></svg>
