<?xml version="1.0" encoding="UTF-8" standalone="no"?>
<!-- Created with Inkscape (http://www.inkscape.org/) -->

<svg
   width="64.595093"
   height="52.691223"
   viewBox="0 0 64.595093 52.691223"
   version="1.1"
   id="svg1"
   xml:space="preserve"
   inkscape:version="1.3.2 (091e20e, 2023-11-25)"
   sodipodi:docname="north_view_all_draft4.svg"
   inkscape:export-filename="family_north_frame_draft2_export.png"
   inkscape:export-xdpi="96"
   inkscape:export-ydpi="96"
   xmlns:inkscape="http://www.inkscape.org/namespaces/inkscape"
   xmlns:sodipodi="http://sodipodi.sourceforge.net/DTD/sodipodi-0.dtd"
   xmlns="http://www.w3.org/2000/svg"
   xmlns:svg="http://www.w3.org/2000/svg"><sodipodi:namedview
     id="namedview1"
     pagecolor="#ffffff"
     bordercolor="#000000"
     borderopacity="0.25"
     inkscape:showpageshadow="2"
     inkscape:pageopacity="0.0"
     inkscape:pagecheckerboard="0"
     inkscape:deskcolor="#d1d1d1"
     inkscape:document-units="mm"
     inkscape:zoom="0.40364013"
     inkscape:cx="817.55995"
     inkscape:cy="577.24687"
     inkscape:window-width="1376"
     inkscape:window-height="717"
     inkscape:window-x="19"
     inkscape:window-y="55"
     inkscape:window-maximized="0"
     inkscape:current-layer="g97" /><defs
     id="defs1" /><g
     id="g97"
     inkscape:label="note big"
     style="display:inline"
     transform="matrix(0.10062296,0,0,0.10062296,-79.447786,-28.920085)"><g
       id="g519"
       transform="matrix(22.149386,-6.1586968,6.1586968,22.149386,-20568.089,-6921.9052)"
       style="stroke-width:0.217489;stroke-dasharray:none"><path
         d="m 825.82617,560.36719 c 0,0 -2.02421,1.44026 -3.13476,1.98437 -3.22699,1.58103 -10.13868,3.66406 -10.13868,3.66406 0,0 0.57375,-1.17474 0.53321,-1.79882 -0.0425,-0.6547 -0.2804,-1.39676 -0.79883,-1.79883 -0.8477,-0.65744 -1.82115,-1.63777 -3.17383,-0.5332 -2.52547,2.79764 -0.76165,4.20569 0,6.08593 0.59844,1.47735 2.1236,2.38965 3.32798,3.43376 2.20993,1.91585 7.10309,5.15115 7.10309,5.15115 0.0218,-0.0139 0.0547,-0.0293 0.0547,-0.0293 v 0 c 10e-6,0 1.41294,0.59918 1.86737,-0.98706 0.55066,-2.29848 -0.0787,-2.90304 -1.46698,-3.13404 l -0.40773,0.0889 3.85499,-3.11823 7.95899,-6.55469 c 0,0 -3.49401,-1.16006 -4.99414,-2.18555 -1.54644,-1.05715 -2.61268,-5.27189 -3.96836,-3.97914 -1.21131,1.15508 3.38298,3.71065 3.38298,3.71065 z"
         style="fill:#c9c9c9;fill-opacity:1;stroke:#000000;stroke-width:0.86457;stroke-linecap:round;stroke-linejoin:round;stroke-dasharray:none;paint-order:markers fill stroke"
         id="path518"
         sodipodi:nodetypes="cacaacaacsccccccaacc" /><path
         style="display:inline;fill:none;stroke:#000000;stroke-width:9.93809;stroke-linejoin:bevel;stroke-dasharray:none"
         d="m 1037.8125,716.51708 c 10.5529,-14.67955 16.3314,-34.0308 29.1095,-47.08468 7.2501,-7.40666 4.8371,17.34703 14.5545,17.34703 0.809,0 1.9082,0.63505 2.4259,0 15.9889,-19.60089 28.907,-44.86421 41.2383,-66.90968 2.6911,-4.81112 4.1668,-10.32925 7.2774,-14.86887 2.623,-3.82815 6.7263,-6.36475 9.7031,-9.91255 5.7289,-6.82786 3.097,-7.32924 9.7032,-12.39061 6.3236,-4.84512 12.7305,-3.00786 19.4062,-4.95632 6.8299,-1.99348 19.9038,-8.93792 24.2578,-14.86888 9.9596,-13.56579 14.7421,-34.88527 26.6837,-47.08458 1.5118,-1.54428 18.705,-1.67944 21.8321,-2.47816 11.7096,-2.99057 26.6837,-20.78015 26.6837,-32.21571"
         id="path378"
         inkscape:label="path378"
         transform="matrix(0.04190794,0.01165262,-0.01165262,0.04190794,781.30788,529.7548)" /><path
         style="display:inline;fill:none;stroke:#000000;stroke-width:0.432285;stroke-linejoin:bevel;stroke-dasharray:none"
         d="m 813.62536,568.96429 c -0.33867,1.25884 -0.51599,1.33933 0.5083,0.14133 0.98606,-1.1533 3.20056,-3.95887 4.55138,-4.55238 0.64689,-0.28423 0.22176,0.47366 0.23338,0.73619 0.0103,0.23256 0.13076,0.7571 0.46557,0.68887 0.22164,-0.0452 0.36302,-0.27717 0.55102,-0.40621 0.52982,-0.36362 1.08911,-0.77665 1.69698,-0.98262 0.18645,-0.0632 0.51608,0.22079 0.71162,0.19786 0.25266,-0.0296 0.47351,-0.20993 0.72546,-0.24581 0.14406,-0.0205 0.29146,0.0297 0.43552,0.009 0.87712,-0.12493 1.43792,-0.8123 2.11745,-1.31324 0.16445,-0.12122 0.49154,-0.19225 0.55103,-0.4062"
         id="path370" /><path
         d="m 831.40569,562.82123 -7.95899,6.55469 -3.85499,3.11819 c 0,0 1.36563,0.27932 1.77535,0.77911 0.27321,0.33327 0.40107,0.84999 0.27725,1.26277 -0.27333,0.91116 -1.39785,1.59732 -2.04522,1.99032 0,0 0.48651,0.13045 0.73147,0.10469 0.82337,-0.0866 1.60603,-0.45706 2.3317,-0.85559 0.97668,-0.53638 1.78955,-1.32921 2.65558,-2.03035 2.23677,-1.81089 6.55664,-5.61719 6.55664,-5.61719 0,0 2.53691,-1.79746 3.4414,-3.0293 0.32205,-0.43861 0.7705,-0.95882 0.66221,-1.49208 -0.0999,-0.49168 -0.62605,-0.86071 -1.09884,-1.0286 -1.09376,-0.38841 -2.42858,-0.85707 -3.47352,0.24334 z"
         style="fill:#c9c9c9;fill-opacity:1;stroke:#000000;stroke-width:0.86457;stroke-linecap:round;stroke-linejoin:round;stroke-dasharray:none;paint-order:markers fill stroke"
         id="path517"
         sodipodi:nodetypes="cccaacaaacaaacc" /><path
         style="display:inline;fill:none;stroke:#000000;stroke-width:9.93809;stroke-linejoin:bevel;stroke-dasharray:none"
         d="m 878.29603,621.21338 c 0,-5.30952 -0.70362,-12.4727 2.17624,-17.40974 7.32656,-12.55996 33.21449,-47.07444 47.87685,-54.40557 3.29795,-1.64903 9.89565,3.95555 15.2336,2.17614 6.03431,-2.01137 7.92374,-8.31431 13.05736,-10.88112 0.64895,-0.32398 1.66324,0.51281 2.17624,0 0.5128,-0.5128 -0.51281,-1.66324 0,-2.17614 1.3804,-1.3805 6.89296,0.90536 8.70487,0 5.97001,-2.985 13.33384,-32.8277 26.11472,-41.34832 4.7034,-3.13556 12.01219,2.74172 15.23349,4.35249 2.3815,1.19068 10.2576,0.69964 13.0574,0 16.84,-4.20997 19.5183,-30.43331 28.2909,-34.81959 6.9901,-3.49503 11.4227,3.26933 17.4098,-8.70487"
         id="path381"
         transform="matrix(0.04190794,0.01165262,-0.01165262,0.04190794,781.30788,529.7548)" /><path
         d="m 825.05859,555.36328 c -0.77294,-0.36691 -1.70905,0.18421 -2.5332,0.41406 -2.91746,0.81366 -8.43164,3.38672 -8.43164,3.38672 -1.00354,0.12098 -4.41393,1.58005 -4.98047,2.72071 1.35268,-1.10457 2.32613,-0.12424 3.17383,0.5332 0.51843,0.40207 0.7563,1.14413 0.79883,1.79883 0.0405,0.62408 -0.53321,1.79882 -0.53321,1.79882 0,0 6.91169,-2.08302 10.13868,-3.66406 1.65926,-0.81294 4.68359,-2.96484 4.68359,-2.96484 0.80382,-2.47551 -0.91839,-3.35981 -2.31641,-4.02344 z"
         style="fill:#c9c9c9;fill-opacity:1;stroke:#000000;stroke-width:0.86457;stroke-linecap:round;stroke-linejoin:round;stroke-dasharray:none;paint-order:markers fill stroke"
         id="path519"
         sodipodi:nodetypes="aaccaacaca" /></g></g></svg>
