<?xml version="1.0" encoding="UTF-8"?>
<svg width="64.595" height="52.691" version="1.1" viewBox="0 0 64.595 52.691" xml:space="preserve" xmlns="http://www.w3.org/2000/svg"><g transform="matrix(.10062 0 0 .10062 -79.448 -28.92)"><g transform="matrix(22.149 -6.1587 6.1587 22.149 -20568 -6921.9)" stroke="#000"><path d="m825.83 560.37s-2.0242 1.4403-3.1348 1.9844c-3.227 1.581-10.139 3.6641-10.139 3.6641s0.57375-1.1747 0.53321-1.7988c-0.0425-0.6547-0.2804-1.3968-0.79883-1.7988-0.8477-0.65744-1.8212-1.6378-3.1738-0.5332-2.5255 2.7976-0.76165 4.2057 0 6.0859 0.59844 1.4774 2.1236 2.3896 3.328 3.4338 2.2099 1.9158 7.1031 5.1512 7.1031 5.1512 0.0218-0.0139 0.0547-0.0293 0.0547-0.0293v0c1e-5 0 1.4129 0.59918 1.8674-0.98706 0.55066-2.2985-0.0787-2.903-1.467-3.134l-0.40773 0.0889 3.855-3.1182 7.959-6.5547s-3.494-1.1601-4.9941-2.1856c-1.5464-1.0572-2.6127-5.2719-3.9684-3.9791-1.2113 1.1551 3.383 3.7106 3.383 3.7106z" fill="#c9c9c9" stroke-linecap="round" stroke-linejoin="round" stroke-width=".86457" style="paint-order:markers fill stroke"/><path transform="matrix(.041908 .011653 -.011653 .041908 781.31 529.75)" d="m1037.8 716.52c10.553-14.68 16.331-34.031 29.11-47.085 7.2501-7.4067 4.8371 17.347 14.554 17.347 0.809 0 1.9082 0.63505 2.4259 0 15.989-19.601 28.907-44.864 41.238-66.91 2.6911-4.8111 4.1668-10.329 7.2774-14.869 2.623-3.8282 6.7263-6.3648 9.7031-9.9126 5.7289-6.8279 3.097-7.3292 9.7032-12.391 6.3236-4.8451 12.73-3.0079 19.406-4.9563 6.8299-1.9935 19.904-8.9379 24.258-14.869 9.9596-13.566 14.742-34.885 26.684-47.085 1.5118-1.5443 18.705-1.6794 21.832-2.4782 11.71-2.9906 26.684-20.78 26.684-32.216" fill="none" stroke-linejoin="bevel" stroke-width="9.9381"/><path d="m813.63 568.96c-0.33867 1.2588-0.51599 1.3393 0.5083 0.14133 0.98606-1.1533 3.2006-3.9589 4.5514-4.5524 0.64689-0.28423 0.22176 0.47366 0.23338 0.73619 0.0103 0.23256 0.13076 0.7571 0.46557 0.68887 0.22164-0.0452 0.36302-0.27717 0.55102-0.40621 0.52982-0.36362 1.0891-0.77665 1.697-0.98262 0.18645-0.0632 0.51608 0.22079 0.71162 0.19786 0.25266-0.0296 0.47351-0.20993 0.72546-0.24581 0.14406-0.0205 0.29146 0.0297 0.43552 9e-3 0.87712-0.12493 1.4379-0.8123 2.1174-1.3132 0.16445-0.12122 0.49154-0.19225 0.55103-0.4062" fill="none" stroke-linejoin="bevel" stroke-width=".43228"/><path d="m831.41 562.82-7.959 6.5547-3.855 3.1182s1.3656 0.27932 1.7754 0.77911c0.27321 0.33327 0.40107 0.84999 0.27725 1.2628-0.27333 0.91116-1.3978 1.5973-2.0452 1.9903 0 0 0.48651 0.13045 0.73147 0.10469 0.82337-0.0866 1.606-0.45706 2.3317-0.85559 0.97668-0.53638 1.7896-1.3292 2.6556-2.0304 2.2368-1.8109 6.5566-5.6172 6.5566-5.6172s2.5369-1.7975 3.4414-3.0293c0.32205-0.43861 0.7705-0.95882 0.66221-1.4921-0.0999-0.49168-0.62605-0.86071-1.0988-1.0286-1.0938-0.38841-2.4286-0.85707-3.4735 0.24334z" fill="#c9c9c9" stroke-linecap="round" stroke-linejoin="round" stroke-width=".86457" style="paint-order:markers fill stroke"/><path transform="matrix(.041908 .011653 -.011653 .041908 781.31 529.75)" d="m878.3 621.21c0-5.3095-0.70362-12.473 2.1762-17.41 7.3266-12.56 33.214-47.074 47.877-54.406 3.298-1.649 9.8956 3.9556 15.234 2.1761 6.0343-2.0114 7.9237-8.3143 13.057-10.881 0.64895-0.32398 1.6632 0.51281 2.1762 0 0.5128-0.5128-0.51281-1.6632 0-2.1761 1.3804-1.3805 6.893 0.90536 8.7049 0 5.97-2.985 13.334-32.828 26.115-41.348 4.7034-3.1356 12.012 2.7417 15.233 4.3525 2.3815 1.1907 10.258 0.69964 13.057 0 16.84-4.21 19.518-30.433 28.291-34.82 6.9901-3.495 11.423 3.2693 17.41-8.7049" fill="none" stroke-linejoin="bevel" stroke-width="9.9381"/><path d="m825.06 555.36c-0.77294-0.36691-1.709 0.18421-2.5332 0.41406-2.9175 0.81366-8.4316 3.3867-8.4316 3.3867-1.0035 0.12098-4.4139 1.58-4.9805 2.7207 1.3527-1.1046 2.3261-0.12424 3.1738 0.5332 0.51843 0.40207 0.7563 1.1441 0.79883 1.7988 0.0405 0.62408-0.53321 1.7988-0.53321 1.7988s6.9117-2.083 10.139-3.6641c1.6593-0.81294 4.6836-2.9648 4.6836-2.9648 0.80382-2.4755-0.91839-3.3598-2.3164-4.0234z" fill="#c9c9c9" stroke-linecap="round" stroke-linejoin="round" stroke-width=".86457" style="paint-order:markers fill stroke"/></g></g></svg>
