<?xml version="1.0" encoding="UTF-8" standalone="no"?>
<!-- Created with Inkscape (http://www.inkscape.org/) -->

<svg
   width="108.94397"
   height="94.474548"
   viewBox="0 0 108.94397 94.474548"
   version="1.1"
   id="svg1"
   xml:space="preserve"
   xmlns="http://www.w3.org/2000/svg"
   xmlns:svg="http://www.w3.org/2000/svg"><defs
     id="defs1" /><g
     id="g797"
     style="display:inline"
     transform="matrix(0.13452653,0,0,0.13452653,-22.176714,-29.487036)"><g
       id="g798"
       transform="matrix(1.2342004,0,0,1.2342004,-226.73852,-68.007335)"><path
         id="path760"
         style="fill:#6e5225;fill-opacity:1;stroke:#000000;stroke-width:9.93809;stroke-linecap:round;stroke-linejoin:round;stroke-dasharray:none;paint-order:markers fill stroke"
         d="m 496.57388,792.39202 c -12.59258,5.76273 -27.69162,4.63024 -41.43968,2.96504 -18.08052,-2.18997 -36.13074,-7.84635 -51.99175,-16.79786 -21.33086,-12.03854 -42.05722,-27.69295 -55.47885,-48.18176 -15.43093,-23.55609 -23.78991,-52.48284 -25.30361,-80.60243 -0.67029,-12.45175 1.76205,-25.52012 7.30851,-36.68847 8.46143,-17.03792 19.99359,-36.16333 37.85596,-42.70717 23.61115,-8.64989 51.69938,0.525 74.66484,10.76681 30.3837,13.55009 58.33029,36.17384 76.60585,63.97273 18.40008,27.98831 36.77086,63.87135 28.55326,96.34256 -5.88131,23.23949 -28.97649,40.95512 -50.77453,50.93055 z" /><path
         id="path761"
         style="fill:#6e5225;fill-opacity:1;stroke:#000000;stroke-width:9.93809;stroke-linecap:round;stroke-linejoin:round;stroke-dasharray:none;paint-order:markers fill stroke"
         d="m 899.37475,462.46584 -51.359,-96.05232 -76.72351,-97.74339 c 0,0 30.55278,-27.52391 49.78082,-30.35889 20.70522,-3.05278 42.59515,5.43231 60.75906,15.82933 27.70452,15.85806 52.76327,39.49798 67.75099,67.68284 12.96184,24.37514 24.54229,55.13035 15.76921,81.30649 -9.39941,28.04491 -65.97757,59.33594 -65.97757,59.33594 z" /><path
         style="display:inline;fill:#84622c;fill-opacity:1;stroke:#000000;stroke-width:9.93809;stroke-linecap:round;stroke-linejoin:round;stroke-dasharray:none;stroke-dashoffset:0;stroke-opacity:1;paint-order:markers fill stroke"
         d="M 390.35469,562.65992 771.29224,268.67013 c 0,0 49.70011,4.24625 71.65063,14.8869 20.52119,9.94782 38.5092,25.89309 52.41943,43.96463 16.22142,21.07416 33.99622,45.61908 33.91973,72.21324 -0.065,23.16511 -29.90728,62.73094 -29.90728,62.73094 l -366.18878,301.6172 c 0,0 32.13141,-25.6638 35.8303,-44.28943 6.52438,-32.85333 -9.95389,-68.48629 -28.55326,-96.34256 -16.88041,-25.28178 -42.39569,-46.69065 -70.82692,-57.45082 -24.73817,-9.36248 -79.2814,-3.34031 -79.2814,-3.34031 z"
         id="path762" /><path
         style="fill:none;fill-opacity:1;stroke:#000000;stroke-width:6;stroke-linecap:round;stroke-linejoin:round;stroke-dasharray:none;stroke-dashoffset:0;stroke-opacity:1;paint-order:markers fill stroke"
         d="M 431.36021,547.80641 792.9601,268.67013"
         id="path763" /><path
         style="display:inline;fill:none;fill-opacity:1;stroke:#000000;stroke-width:9.93809;stroke-linecap:round;stroke-linejoin:round;stroke-dasharray:none;stroke-dashoffset:0;stroke-opacity:1;paint-order:markers fill stroke"
         d="M 496.49231,576.56173 848.81,296.91593"
         id="path764" /><path
         style="fill:none;fill-opacity:1;stroke:#000000;stroke-width:9.93809;stroke-linecap:round;stroke-linejoin:round;stroke-dasharray:none;stroke-dashoffset:0;stroke-opacity:1;paint-order:markers fill stroke"
         d="M 534.07273,608.7686 886.62908,321.20734"
         id="path765" /><path
         style="fill:none;fill-opacity:1;stroke:#000000;stroke-width:9.93809;stroke-linecap:round;stroke-linejoin:round;stroke-dasharray:none;stroke-dashoffset:0;stroke-opacity:1;paint-order:markers fill stroke"
         d="m 456.14143,552.50412 348.54055,-270.97"
         id="path766" /><path
         style="fill:none;fill-opacity:1;stroke:#000000;stroke-width:9.93809;stroke-linecap:round;stroke-linejoin:round;stroke-dasharray:none;stroke-dashoffset:0;stroke-opacity:1;paint-order:markers fill stroke"
         d="M 565.3141,661.78073 916.28467,372.84541"
         id="path767" /><path
         style="display:inline;fill:none;fill-opacity:1;stroke:#000000;stroke-width:9.93809;stroke-linecap:round;stroke-linejoin:round;stroke-dasharray:none;stroke-dashoffset:0;stroke-opacity:1;paint-order:markers fill stroke"
         d="M 573.66574,710.49467 921.80889,425.64077"
         id="path768" /><path
         style="display:inline;fill:#a06e1f;fill-opacity:1;stroke:#000000;stroke-width:9.93809;stroke-linecap:round;stroke-linejoin:round;stroke-dasharray:none;stroke-dashoffset:0;stroke-opacity:1;paint-order:markers fill stroke"
         d="m 716.51956,307.25742 c 0,0 10.73402,-31.92227 23.31143,-41.68004 12.14507,-9.42236 29.24323,-10.75202 44.57888,-11.8015 18.4307,-1.26129 37.73661,0.19789 55.00854,6.75244 22.11807,8.39362 41.66694,23.58561 58.44421,40.26449 15.41325,15.32287 29.42162,33.2209 37.30608,53.47414 8.36784,21.49492 11.1652,45.60216 9.19969,68.58452 -0.92622,10.83006 -3.97739,21.91019 -9.76018,31.11386 -5.75602,9.16105 -13.94324,17.48791 -23.68677,22.19113 -9.51923,4.59495 -31.3704,4.6327 -31.3704,4.6327 0,0 15.76155,-8.38895 21.50221,-14.97065 6.32975,-7.25709 11.9391,-16.17625 13.13246,-25.73167 3.89317,-31.1755 -4.38672,-65.17229 -20.88392,-91.91007 -17.68887,-28.66918 -46.13055,-53.40399 -78.03474,-64.21791 -23.30112,-7.89791 -50.77027,-6.16986 -73.76454,2.58129 -10.11098,3.84803 -15.04486,16.72177 -24.98295,20.71727 z"
         id="path769" /><g
         id="g776"><path
           style="fill:#af8b54;fill-opacity:1;stroke:#000000;stroke-width:3;stroke-linecap:round;stroke-linejoin:round;stroke-dasharray:none;stroke-opacity:1"
           d="m 663.5339,341.31555 15.45765,-1.41206 -22.25404,16.52287 z"
           id="path770" /><path
           style="fill:#af8b54;fill-opacity:1;stroke:#000000;stroke-width:3;stroke-linecap:round;stroke-linejoin:round;stroke-dasharray:none;stroke-opacity:1"
           d="m 703.8522,311.7092 15.45765,-1.41206 -22.25404,16.52287 z"
           id="path771" /><path
           style="fill:#af8b54;fill-opacity:1;stroke:#000000;stroke-width:3;stroke-linecap:round;stroke-linejoin:round;stroke-dasharray:none;stroke-opacity:1"
           d="m 622.96747,372.94299 15.45765,-1.41206 -22.25404,16.52287 z"
           id="path772" /><path
           style="fill:#af8b54;fill-opacity:1;stroke:#000000;stroke-width:3;stroke-linecap:round;stroke-linejoin:round;stroke-dasharray:none;stroke-opacity:1"
           d="m 579.59897,406.46572 15.45765,-1.41206 -22.25404,16.52287 z"
           id="path773" /><path
           style="fill:#af8b54;fill-opacity:1;stroke:#000000;stroke-width:3;stroke-linecap:round;stroke-linejoin:round;stroke-dasharray:none;stroke-opacity:1"
           d="m 540.48874,436.63633 15.45765,-1.41206 -22.25404,16.52287 z"
           id="path774" /><path
           style="fill:#af8b54;fill-opacity:1;stroke:#000000;stroke-width:3;stroke-linecap:round;stroke-linejoin:round;stroke-dasharray:none;stroke-opacity:1"
           d="m 498.69241,469.49004 15.45765,-1.41206 -22.25404,16.52287 z"
           id="path775" /><path
           style="fill:#af8b54;fill-opacity:1;stroke:#000000;stroke-width:3;stroke-linecap:round;stroke-linejoin:round;stroke-dasharray:none;stroke-opacity:1"
           d="m 455.97266,502.47444 15.45765,-1.41206 -22.25404,16.52287 z"
           id="path776" /></g><g
         id="g785"
         style="display:inline"><path
           id="path777"
           style="display:inline;fill:#5e4722;fill-opacity:1;stroke:#000000;stroke-width:9.93809;stroke-linejoin:round;stroke-dasharray:none;stroke-opacity:1"
           d="m 629.07272,687.88398 -2.47453,7.28952 -13.55818,5.91608 6.83556,-5.10599 3.76502,-19.24668 v -33.12046 l -5.47405,-34.75783 -27.09415,-44.33823 -28.46509,-30.79278 -34.21204,-18.88467 -32.24777,-7.6332 -33.66603,0.74032 -13.30519,9.63519 6.79639,-15.11081 43.03395,-2.56886 33.93914,8.75849 35.03396,19.70659 29.47497,31.13083 28.55002,44.41114 5.47405,37.22358 v 30.65471 z" /><path
           style="fill:#e0c86c;fill-opacity:1;stroke:#000000;stroke-width:9.93809;stroke-linecap:round;stroke-linejoin:round;stroke-dasharray:none;stroke-opacity:1"
           d="m 920.548,348.49294 h -21.36987 l 6.57535,-23.83561 z"
           id="path778" /><path
           id="path779"
           style="display:inline;fill:#5e4722;fill-opacity:1;stroke:#000000;stroke-width:9.93809;stroke-linejoin:round;stroke-dasharray:none;stroke-opacity:1"
           d="m 667.35921,654.22561 -2.47453,7.28952 -13.55818,5.91608 6.83556,-5.10599 3.76502,-19.24668 v -33.12046 l -5.47405,-34.75783 -27.09415,-44.33823 -28.46509,-30.79278 -34.21204,-18.88467 -32.24777,-7.6332 -31.41094,2.78805 -10.91637,7.79308 6.58574,-14.64246 38.60069,-3.24283 33.93914,8.75849 35.03396,19.70659 29.47497,31.13083 28.55002,44.41114 5.47405,37.22358 v 30.65471 z" /><path
           id="path780"
           style="display:inline;fill:#5e4722;fill-opacity:1;stroke:#000000;stroke-width:9.93809;stroke-linejoin:round;stroke-dasharray:none;stroke-opacity:1"
           d="m 709.5888,622.04587 -1.6369,6.12716 -13.53975,2.93216 6.83556,-5.10599 2.90896,-15.1004 v -33.12046 l -5.47405,-34.75783 -27.09415,-44.33823 -28.46509,-30.79278 -34.21204,-18.88467 -32.24777,-7.6332 -33.01887,2.98623 -9.30844,7.5949 6.58574,-14.64246 38.60069,-3.24283 33.93914,8.75849 35.03396,19.70659 29.47497,31.13083 28.55002,44.41114 5.47405,37.22358 v 30.65471 z" /><path
           id="path781"
           style="display:inline;fill:#5e4722;fill-opacity:1;stroke:#000000;stroke-width:9.93809;stroke-linejoin:round;stroke-dasharray:none;stroke-opacity:1"
           d="m 751.02376,590.71289 -3.6369,4.70834 -13.53975,2.93216 9.33068,-7.9311 3.68775,-20.32043 -1.27391,-23.6565 -5.47405,-34.75783 -27.09415,-44.33823 -28.46509,-30.79278 -34.21204,-18.88467 -32.24777,-8.21438 -33.16659,2.73048 -12.12936,9.38858 6.79639,-15.11081 41.35868,-3.73123 33.93914,8.75849 35.03396,19.70659 29.47497,31.13083 28.55002,44.41114 5.47405,37.22358 v 30.65471 z" /><path
           id="path782"
           style="display:inline;fill:#5e4722;fill-opacity:1;stroke:#000000;stroke-width:9.93809;stroke-linejoin:round;stroke-dasharray:none;stroke-opacity:1"
           d="m 791.48635,557.77135 -3.6369,4.70834 -13.53975,2.93216 9.33068,-7.9311 4.26893,-19.73925 -1.27391,-23.6565 -5.47405,-34.75783 -27.09415,-44.33823 -28.46509,-30.79278 -34.21204,-18.88467 -32.24777,-8.21438 -33.16659,2.73048 -9.80463,8.22621 6.79639,-15.11081 39.03395,-2.56886 33.93914,8.75849 35.03396,19.70659 29.47497,31.13083 28.55002,44.41114 5.47405,37.22358 v 30.65471 z" /><path
           id="path783"
           style="display:inline;fill:#5e4722;fill-opacity:1;stroke:#000000;stroke-width:9.93809;stroke-linejoin:round;stroke-dasharray:none;stroke-opacity:1"
           d="m 831.17048,518.64337 -2.17342,9.04651 -9.79289,2.94639 2.70435,-7.70978 4.82367,-17.65006 -1.27391,-23.6565 -5.47405,-34.75783 -27.09415,-44.33823 -28.46509,-30.79278 -34.21204,-18.88467 -32.24777,-8.21438 -31.42304,3.56811 -9.80463,8.22621 6.79639,-15.11081 37.2904,-3.40649 33.93914,8.75849 35.03396,19.70659 29.47497,31.13083 28.55002,44.41114 5.47405,37.22358 v 30.65471 z" /><path
           id="path784"
           style="display:inline;fill:#5e4722;fill-opacity:1;stroke:#000000;stroke-width:9.93809;stroke-linejoin:round;stroke-dasharray:none;stroke-opacity:1"
           d="m 872.65115,485.03701 -2.17342,9.04651 -11.27341,3.39183 4.18487,-8.15522 3.15636,-15.0167 -1.27391,-23.6565 -5.47405,-34.75783 -27.09415,-44.33823 -28.46509,-30.79278 -34.21204,-18.88467 -32.24777,-8.21438 -30.9181,4.93476 -9.80463,8.22621 6.79639,-15.11081 36.78546,-4.77314 33.93914,8.75849 35.03396,19.70659 29.47497,31.13083 28.55002,44.41114 5.47405,37.22358 v 30.65471 z" /><path
           id="path785"
           style="display:inline;fill:#5e4722;fill-opacity:1;stroke:#000000;stroke-width:9.93809;stroke-linejoin:round;stroke-dasharray:none;stroke-opacity:1"
           d="m 585.49827,720.99518 -1.31217,8.77663 -14.72054,4.42897 6.83556,-5.10599 3.76502,-19.24668 v -33.12046 l -5.47405,-34.75783 -27.09415,-44.33823 -28.46509,-30.79278 -34.21204,-18.88467 -32.24777,-7.6332 -33.66603,0.74032 -13.30519,9.63519 6.79639,-15.11081 43.03395,-2.56886 33.93914,8.75849 35.03396,19.70659 29.47497,31.13083 28.55002,44.41114 5.47405,37.22358 v 30.65471 z" /></g><path
         style="display:inline;fill:#a06e1f;fill-opacity:1;stroke:#000000;stroke-width:9.93809;stroke-linecap:round;stroke-linejoin:round;stroke-dasharray:none;stroke-dashoffset:0;stroke-opacity:1;paint-order:markers fill stroke"
         d="m 334.7714,598.30403 c 0,0 5.37838,-17.42785 11.25466,-24.04462 9.5152,-10.71425 22.66965,-18.97997 36.50895,-22.69591 21.46161,-5.76258 45.26695,-4.00718 66.63221,2.10298 24.23636,6.93125 46.5629,21.20913 65.41841,37.93975 15.95743,14.15913 29.4007,31.83889 38.46845,51.14941 11.34169,24.15304 19.44269,51.21676 18.49863,77.88345 -0.38457,10.86279 -3.97739,21.91019 -9.76018,31.11386 -5.75602,9.16105 -23.68676,22.19114 -23.68676,22.19114 l -15.09727,5.79506 c 0,0 20.32917,-26.9347 22.01517,-42.92714 3.2887,-31.19481 -7.53109,-64.49025 -24.53756,-90.84762 -18.26397,-28.30628 -47.07653,-50.93608 -78.03474,-64.21791 -22.76554,-9.76697 -49.83962,-15.46588 -73.76454,-9.04237 -13.67969,3.67281 -33.91543,25.59992 -33.91543,25.59992 z"
         id="path786" /><path
         style="display:inline;fill:none;stroke:#423216;stroke-width:9.93809;stroke-linecap:round;stroke-linejoin:round;stroke-dasharray:none;stroke-opacity:1"
         d="m 331.48373,609.81088 c 0,0 5.50725,-10.79889 10.35343,-11.71574 4.84618,-0.91685 12.31896,-3.45849 16.25001,-3.38234 19.09315,0.36989 38.91109,2.88799 56.2422,10.90782 27.77813,12.8541 52.9896,33.15419 71.67434,57.39739 14.56195,18.89392 24.22086,42.0459 29.03021,65.41042 2.7418,13.32005 4.00528,27.95572 -0.47695,40.79515 -3.22216,9.22995 -6.67341,13.13277 -17.98309,23.16844"
         id="path787" /><path
         style="display:inline;fill:#e0c86c;fill-opacity:1;stroke:#000000;stroke-width:9.93809;stroke-linecap:round;stroke-linejoin:round;stroke-dasharray:none;stroke-opacity:1"
         d="m 522.73971,633.69864 h 21.36987 l -6.57535,23.83561 z"
         id="path788" /><g
         id="g796"><path
           id="path789"
           style="display:inline;fill:#986e35;fill-opacity:1;stroke:#000000;stroke-width:9.93809;stroke-linejoin:round;stroke-dasharray:none;stroke-opacity:1"
           d="m 870.47773,494.08352 3.13701,-14.47666 v -30.65471 l -5.47405,-37.22358 -29.5599,-45.98207 -28.46509,-29.5599 -35.03396,-19.70659 -33.93914,-8.75849 -37.2904,3.98768 22.78549,-18.7518 41.93987,-4.56886 33.93914,8.75849 35.03396,19.70659 28.46509,29.5599 29.5599,45.98207 5.47405,37.22358 v 30.65471 l -4.29938,13.89548 z" /><path
           id="path790"
           style="display:inline;fill:#986e35;fill-opacity:1;stroke:#000000;stroke-width:9.93809;stroke-linejoin:round;stroke-dasharray:none;stroke-opacity:1"
           d="m 828.99706,527.68988 4.29938,-17.89548 v -30.65471 l -5.47405,-37.22358 -29.5599,-45.98207 -28.46509,-29.5599 -35.03396,-19.70659 -33.93914,-8.75849 -37.2904,3.40649 25.69141,-18.17061 39.03395,-4.56886 33.93914,8.75849 35.03396,19.70659 28.46509,29.5599 29.5599,45.98207 5.47405,37.22358 v 30.65471 l -3.13701,14.40838 z" /><path
           id="path791"
           style="display:inline;fill:#986e35;fill-opacity:1;stroke:#000000;stroke-width:9.93809;stroke-linejoin:round;stroke-dasharray:none;stroke-opacity:1"
           d="m 787.84945,562.47969 6.62411,-20.22022 v -30.65471 l -5.47405,-37.22358 -29.5599,-45.98207 -28.46509,-29.5599 -35.03396,-19.70659 -33.93914,-8.75849 -39.03395,2.56886 27.43496,-19.33298 39.03395,-2.56886 33.93914,8.75849 35.03396,19.70659 28.46509,29.5599 29.5599,45.98207 5.47405,37.22358 v 30.65471 l -5.46174,15.57075 z" /><path
           id="path792"
           style="display:inline;fill:#986e35;fill-opacity:1;stroke:#000000;stroke-width:9.93809;stroke-linejoin:round;stroke-dasharray:none;stroke-opacity:1"
           d="m 747.38686,595.42123 6.04293,-20.8014 v -30.65471 l -5.47406,-37.22358 -29.55989,-45.98207 -28.4651,-29.5599 -35.03395,-19.70659 -33.93914,-8.75849 -41.35868,3.73123 28.59733,-21.07653 40.19632,-1.98768 33.93913,8.75849 35.03396,19.70659 28.46509,29.5599 29.5599,45.98207 5.47405,37.22358 v 30.65471 l -5.46174,17.3143 z" /><path
           id="path793"
           style="display:inline;fill:#986e35;fill-opacity:1;stroke:#000000;stroke-width:9.93809;stroke-linejoin:round;stroke-dasharray:none;stroke-opacity:1"
           d="m 707.9519,628.17303 4.04293,-22.22022 V 575.2981 l -5.47405,-37.22358 -29.5599,-45.98207 -28.46509,-29.5599 -35.03396,-19.70659 -33.93914,-8.75849 -39.03395,2.56886 27.43497,-19.33298 39.03395,-2.56886 33.93913,8.75849 35.03396,19.70659 28.46509,29.5599 29.5599,45.98207 5.47405,37.22358 v 30.65471 l -4.04292,19.3143 z" /><path
           id="path794"
           style="display:inline;fill:#986e35;fill-opacity:1;stroke:#000000;stroke-width:9.93809;stroke-linejoin:round;stroke-dasharray:none;stroke-opacity:1"
           d="m 666.15557,661.60792 4.04293,-22.8014 v -30.65471 l -5.47405,-37.22358 -29.5599,-45.98207 -28.46509,-29.5599 -35.03396,-19.70659 -33.93914,-8.75849 -39.03395,2.56886 25.69142,-19.33298 40.7775,-2.56886 33.93913,8.75849 35.03396,19.70659 28.46509,29.5599 29.5599,45.98207 5.47405,37.22358 v 30.65471 l -2.88055,19.89548 z" /><path
           id="path795"
           style="display:inline;fill:#986e35;fill-opacity:1;stroke:#000000;stroke-width:9.93809;stroke-linejoin:round;stroke-dasharray:none;stroke-opacity:1"
           d="m 626.59819,695.1735 2.88056,-23.38258 v -30.65471 l -5.47405,-37.22358 -29.5599,-45.98207 -28.46509,-29.5599 -35.03396,-19.70659 -33.93914,-8.75849 -41.03395,2.56886 25.69142,-19.33298 42.7775,-2.56886 33.93913,8.75849 35.03396,19.70659 28.46509,29.5599 29.5599,45.98207 5.47405,37.22358 v 30.65471 l -5.20529,21.63903 z" /><path
           id="path796"
           style="display:inline;fill:#986e35;fill-opacity:1;stroke:#000000;stroke-width:9.93809;stroke-linejoin:round;stroke-dasharray:none;stroke-opacity:1"
           d="m 584.1861,729.77181 3.7182,-24.86969 v -30.65471 l -5.47405,-37.22358 -29.5599,-45.98207 -28.46509,-29.5599 -35.03396,-19.70659 -33.93914,-8.75849 -43.03395,2.56886 26.2726,-19.33298 44.19632,-2.56886 33.93913,8.75849 35.03396,19.70659 28.46509,29.5599 29.5599,45.98207 5.47405,37.22358 v 30.65471 l -3.71819,21.96377 z" /></g></g></g></svg>
