<?xml version="1.0" encoding="UTF-8"?>
<svg width="108.94" height="94.475" version="1.1" viewBox="0 0 108.94 94.475" xml:space="preserve" xmlns="http://www.w3.org/2000/svg"><g transform="matrix(.13453 0 0 .13453 -22.177 -29.487)"><g transform="matrix(1.2342 0 0 1.2342 -226.74 -68.007)" stroke-linejoin="round"><path d="m496.57 792.39c-12.593 5.7627-27.692 4.6302-41.44 2.965-18.081-2.19-36.131-7.8464-51.992-16.798-21.331-12.039-42.057-27.693-55.479-48.182-15.431-23.556-23.79-52.483-25.304-80.602-0.67029-12.452 1.762-25.52 7.3085-36.688 8.4614-17.038 19.994-36.163 37.856-42.707 23.611-8.6499 51.699 0.525 74.665 10.767 30.384 13.55 58.33 36.174 76.606 63.973 18.4 27.988 36.771 63.871 28.553 96.343-5.8813 23.239-28.976 40.955-50.775 50.931z" fill="#6e5225" stroke="#000" stroke-linecap="round" stroke-width="9.9381" style="paint-order:markers fill stroke"/><path d="m899.37 462.47-51.359-96.052-76.724-97.743s30.553-27.524 49.781-30.359c20.705-3.0528 42.595 5.4323 60.759 15.829 27.705 15.858 52.763 39.498 67.751 67.683 12.962 24.375 24.542 55.13 15.769 81.306-9.3994 28.045-65.978 59.336-65.978 59.336z" fill="#6e5225" stroke="#000" stroke-linecap="round" stroke-width="9.9381" style="paint-order:markers fill stroke"/><path d="m390.35 562.66 380.94-293.99s49.7 4.2462 71.651 14.887c20.521 9.9478 38.509 25.893 52.419 43.965 16.221 21.074 33.996 45.619 33.92 72.213-0.065 23.165-29.907 62.731-29.907 62.731l-366.19 301.62s32.131-25.664 35.83-44.289c6.5244-32.853-9.9539-68.486-28.553-96.343-16.88-25.282-42.396-46.691-70.827-57.451-24.738-9.3625-79.281-3.3403-79.281-3.3403z" fill="#84622c" stroke="#000" stroke-linecap="round" stroke-width="9.9381" style="paint-order:markers fill stroke"/><path d="m431.36 547.81 361.6-279.14" fill="none" stroke="#000" stroke-linecap="round" stroke-width="6" style="paint-order:markers fill stroke"/><path d="m496.49 576.56 352.32-279.65" fill="none" stroke="#000" stroke-linecap="round" stroke-width="9.9381" style="paint-order:markers fill stroke"/><path d="m534.07 608.77 352.56-287.56" fill="none" stroke="#000" stroke-linecap="round" stroke-width="9.9381" style="paint-order:markers fill stroke"/><path d="m456.14 552.5 348.54-270.97" fill="none" stroke="#000" stroke-linecap="round" stroke-width="9.9381" style="paint-order:markers fill stroke"/><path d="m565.31 661.78 350.97-288.94" fill="none" stroke="#000" stroke-linecap="round" stroke-width="9.9381" style="paint-order:markers fill stroke"/><path d="m573.67 710.49 348.14-284.85" fill="none" stroke="#000" stroke-linecap="round" stroke-width="9.9381" style="paint-order:markers fill stroke"/><path d="m716.52 307.26s10.734-31.922 23.311-41.68c12.145-9.4224 29.243-10.752 44.579-11.802 18.431-1.2613 37.737 0.19789 55.009 6.7524 22.118 8.3936 41.667 23.586 58.444 40.264 15.413 15.323 29.422 33.221 37.306 53.474 8.3678 21.495 11.165 45.602 9.1997 68.585-0.92622 10.83-3.9774 21.91-9.7602 31.114-5.756 9.161-13.943 17.488-23.687 22.191-9.5192 4.595-31.37 4.6327-31.37 4.6327s15.762-8.389 21.502-14.971c6.3298-7.2571 11.939-16.176 13.132-25.732 3.8932-31.176-4.3867-65.172-20.884-91.91-17.689-28.669-46.131-53.404-78.035-64.218-23.301-7.8979-50.77-6.1699-73.765 2.5813-10.111 3.848-15.045 16.722-24.983 20.717z" fill="#a06e1f" stroke="#000" stroke-linecap="round" stroke-width="9.9381" style="paint-order:markers fill stroke"/><g fill="#af8b54" stroke="#000" stroke-linecap="round" stroke-width="3"><path d="m663.53 341.32 15.458-1.4121-22.254 16.523z"/><path d="m703.85 311.71 15.458-1.4121-22.254 16.523z"/><path d="m622.97 372.94 15.458-1.4121-22.254 16.523z"/><path d="m579.6 406.47 15.458-1.4121-22.254 16.523z"/><path d="m540.49 436.64 15.458-1.4121-22.254 16.523z"/><path d="m498.69 469.49 15.458-1.4121-22.254 16.523z"/><path d="m455.97 502.47 15.458-1.4121-22.254 16.523z"/></g><g stroke="#000" stroke-width="9.9381"><path d="m629.07 687.88-2.4745 7.2895-13.558 5.9161 6.8356-5.106 3.765-19.247v-33.12l-5.474-34.758-27.094-44.338-28.465-30.793-34.212-18.885-32.248-7.6332-33.666 0.74032-13.305 9.6352 6.7964-15.111 43.034-2.5689 33.939 8.7585 35.034 19.707 29.475 31.131 28.55 44.411 5.474 37.224v30.655z" fill="#5e4722"/><path d="m920.55 348.49h-21.37l6.5754-23.836z" fill="#e0c86c" stroke-linecap="round"/><path d="m667.36 654.23-2.4745 7.2895-13.558 5.9161 6.8356-5.106 3.765-19.247v-33.12l-5.474-34.758-27.094-44.338-28.465-30.793-34.212-18.885-32.248-7.6332-31.411 2.788-10.916 7.7931 6.5857-14.642 38.601-3.2428 33.939 8.7585 35.034 19.707 29.475 31.131 28.55 44.411 5.474 37.224v30.655z" fill="#5e4722"/><path d="m709.59 622.05-1.6369 6.1272-13.54 2.9322 6.8356-5.106 2.909-15.1v-33.12l-5.474-34.758-27.094-44.338-28.465-30.793-34.212-18.885-32.248-7.6332-33.019 2.9862-9.3084 7.5949 6.5857-14.642 38.601-3.2428 33.939 8.7585 35.034 19.707 29.475 31.131 28.55 44.411 5.474 37.224v30.655z" fill="#5e4722"/><path d="m751.02 590.71-3.6369 4.7083-13.54 2.9322 9.3307-7.9311 3.6878-20.32-1.2739-23.656-5.474-34.758-27.094-44.338-28.465-30.793-34.212-18.885-32.248-8.2144-33.167 2.7305-12.129 9.3886 6.7964-15.111 41.359-3.7312 33.939 8.7585 35.034 19.707 29.475 31.131 28.55 44.411 5.474 37.224v30.655z" fill="#5e4722"/><path d="m791.49 557.77-3.6369 4.7083-13.54 2.9322 9.3307-7.9311 4.2689-19.739-1.2739-23.656-5.474-34.758-27.094-44.338-28.465-30.793-34.212-18.885-32.248-8.2144-33.167 2.7305-9.8046 8.2262 6.7964-15.111 39.034-2.5689 33.939 8.7585 35.034 19.707 29.475 31.131 28.55 44.411 5.474 37.224v30.655z" fill="#5e4722"/><path d="m831.17 518.64-2.1734 9.0465-9.7929 2.9464 2.7044-7.7098 4.8237-17.65-1.2739-23.656-5.474-34.758-27.094-44.338-28.465-30.793-34.212-18.885-32.248-8.2144-31.423 3.5681-9.8046 8.2262 6.7964-15.111 37.29-3.4065 33.939 8.7585 35.034 19.707 29.475 31.131 28.55 44.411 5.474 37.224v30.655z" fill="#5e4722"/><path d="m872.65 485.04-2.1734 9.0465-11.273 3.3918 4.1849-8.1552 3.1564-15.017-1.2739-23.656-5.474-34.758-27.094-44.338-28.465-30.793-34.212-18.885-32.248-8.2144-30.918 4.9348-9.8046 8.2262 6.7964-15.111 36.785-4.7731 33.939 8.7585 35.034 19.707 29.475 31.131 28.55 44.411 5.474 37.224v30.655z" fill="#5e4722"/><path d="m585.5 721-1.3122 8.7766-14.721 4.429 6.8356-5.106 3.765-19.247v-33.12l-5.474-34.758-27.094-44.338-28.465-30.793-34.212-18.885-32.248-7.6332-33.666 0.74032-13.305 9.6352 6.7964-15.111 43.034-2.5689 33.939 8.7585 35.034 19.707 29.475 31.131 28.55 44.411 5.474 37.224v30.655z" fill="#5e4722"/></g><path d="m334.77 598.3s5.3784-17.428 11.255-24.045c9.5152-10.714 22.67-18.98 36.509-22.696 21.462-5.7626 45.267-4.0072 66.632 2.103 24.236 6.9312 46.563 21.209 65.418 37.94 15.957 14.159 29.401 31.839 38.468 51.149 11.342 24.153 19.443 51.217 18.499 77.883-0.38457 10.863-3.9774 21.91-9.7602 31.114-5.756 9.161-23.687 22.191-23.687 22.191l-15.097 5.7951s20.329-26.935 22.015-42.927c3.2887-31.195-7.5311-64.49-24.538-90.848-18.264-28.306-47.077-50.936-78.035-64.218-22.766-9.767-49.84-15.466-73.765-9.0424-13.68 3.6728-33.915 25.6-33.915 25.6z" fill="#a06e1f" stroke="#000" stroke-linecap="round" stroke-width="9.9381" style="paint-order:markers fill stroke"/><path d="m331.48 609.81s5.5072-10.799 10.353-11.716 12.319-3.4585 16.25-3.3823c19.093 0.36989 38.911 2.888 56.242 10.908 27.778 12.854 52.99 33.154 71.674 57.397 14.562 18.894 24.221 42.046 29.03 65.41 2.7418 13.32 4.0053 27.956-0.47695 40.795-3.2222 9.23-6.6734 13.133-17.983 23.168" fill="none" stroke="#423216" stroke-linecap="round" stroke-width="9.9381"/><path d="m522.74 633.7h21.37l-6.5754 23.836z" fill="#e0c86c" stroke="#000" stroke-linecap="round" stroke-width="9.9381"/><g fill="#986e35" stroke="#000" stroke-width="9.9381"><path d="m870.48 494.08 3.137-14.477v-30.655l-5.474-37.224-29.56-45.982-28.465-29.56-35.034-19.707-33.939-8.7585-37.29 3.9877 22.785-18.752 41.94-4.5689 33.939 8.7585 35.034 19.707 28.465 29.56 29.56 45.982 5.474 37.224v30.655l-4.2994 13.895z"/><path d="m829 527.69 4.2994-17.895v-30.655l-5.474-37.224-29.56-45.982-28.465-29.56-35.034-19.707-33.939-8.7585-37.29 3.4065 25.691-18.171 39.034-4.5689 33.939 8.7585 35.034 19.707 28.465 29.56 29.56 45.982 5.474 37.224v30.655l-3.137 14.408z"/><path d="m787.85 562.48 6.6241-20.22v-30.655l-5.474-37.224-29.56-45.982-28.465-29.56-35.034-19.707-33.939-8.7585-39.034 2.5689 27.435-19.333 39.034-2.5689 33.939 8.7585 35.034 19.707 28.465 29.56 29.56 45.982 5.474 37.224v30.655l-5.4617 15.571z"/><path d="m747.39 595.42 6.0429-20.801v-30.655l-5.4741-37.224-29.56-45.982-28.465-29.56-35.034-19.707-33.939-8.7585-41.359 3.7312 28.597-21.077 40.196-1.9877 33.939 8.7585 35.034 19.707 28.465 29.56 29.56 45.982 5.474 37.224v30.655l-5.4617 17.314z"/><path d="m707.95 628.17 4.0429-22.22v-30.655l-5.474-37.224-29.56-45.982-28.465-29.56-35.034-19.707-33.939-8.7585-39.034 2.5689 27.435-19.333 39.034-2.5689 33.939 8.7585 35.034 19.707 28.465 29.56 29.56 45.982 5.474 37.224v30.655l-4.0429 19.314z"/><path d="m666.16 661.61 4.0429-22.801v-30.655l-5.474-37.224-29.56-45.982-28.465-29.56-35.034-19.707-33.939-8.7585-39.034 2.5689 25.691-19.333 40.778-2.5689 33.939 8.7585 35.034 19.707 28.465 29.56 29.56 45.982 5.474 37.224v30.655l-2.8806 19.895z"/><path d="m626.6 695.17 2.8806-23.383v-30.655l-5.474-37.224-29.56-45.982-28.465-29.56-35.034-19.707-33.939-8.7585-41.034 2.5689 25.691-19.333 42.778-2.5689 33.939 8.7585 35.034 19.707 28.465 29.56 29.56 45.982 5.474 37.224v30.655l-5.2053 21.639z"/><path d="m584.19 729.77 3.7182-24.87v-30.655l-5.474-37.224-29.56-45.982-28.465-29.56-35.034-19.707-33.939-8.7585-43.034 2.5689 26.273-19.333 44.196-2.5689 33.939 8.7585 35.034 19.707 28.465 29.56 29.56 45.982 5.474 37.224v30.655l-3.7182 21.964z"/></g></g></g></svg>
