<?xml version="1.0" encoding="UTF-8" standalone="no"?>
<!-- Created with Inkscape (http://www.inkscape.org/) -->

<svg
   width="423.40527"
   height="539.08478"
   viewBox="0 0 423.40527 539.08478"
   version="1.1"
   id="svg1"
   xml:space="preserve"
   sodipodi:docname="globe_draft2_modal_export.svg"
   inkscape:version="1.3.2 (091e20e, 2023-11-25)"
   xmlns:inkscape="http://www.inkscape.org/namespaces/inkscape"
   xmlns:sodipodi="http://sodipodi.sourceforge.net/DTD/sodipodi-0.dtd"
   xmlns="http://www.w3.org/2000/svg"
   xmlns:svg="http://www.w3.org/2000/svg"><sodipodi:namedview
     id="namedview1"
     pagecolor="#ffffff"
     bordercolor="#000000"
     borderopacity="0.25"
     inkscape:showpageshadow="2"
     inkscape:pageopacity="0.0"
     inkscape:pagecheckerboard="0"
     inkscape:deskcolor="#d1d1d1"
     inkscape:zoom="0.43777901"
     inkscape:cx="211.29382"
     inkscape:cy="269.54239"
     inkscape:window-width="1312"
     inkscape:window-height="449"
     inkscape:window-x="0"
     inkscape:window-y="25"
     inkscape:window-maximized="0"
     inkscape:current-layer="svg1" /><defs
     id="defs1" /><g
     id="g502"
     style="display:inline"
     transform="translate(-736.01086,-277.79953)"><path
       style="display:none;fill:none;fill-opacity:1;stroke:#51301d;stroke-width:3;stroke-dasharray:9, 3;stroke-dashoffset:0;stroke-opacity:1"
       d="m 529.41973,856.56117 c 0,0 1.56014,-30.27135 4.99453,-44.95073 4.01357,-17.15492 9.0511,-34.53583 18.07379,-49.66828 11.13934,-18.6824 26.79776,-34.65769 43.33638,-48.78536 15.73597,-13.44203 33.42408,-24.9671 52.29103,-33.47283 12.84842,-5.79242 26.75362,-9.30989 40.66165,-11.59041 9.20005,-1.50855 18.65991,-2.24402 27.93734,-1.32437 6.83084,0.67712 19.9781,4.99453 19.9781,4.99453"
       id="path477" /><path
       style="display:none;fill:#d4cdc5;stroke:#51301d;stroke-width:3;stroke-dasharray:none"
       d="M 363.76128,84.759912 379.65376,510.3253 H 981.80231 L 994.16313,84.759912 Z"
       id="path490" /><g
       id="g503"
       transform="translate(315.32845,-322.33575)"><rect
         style="fill:#5b3d11;fill-opacity:1;stroke:#000000;stroke-width:4;stroke-dasharray:none;stroke-opacity:1"
         id="rect474"
         width="34.875534"
         height="224.78929"
         x="704.34998"
         y="825.99396" /><circle
         style="fill:#bbdedc;fill-opacity:1;stroke:#000000;stroke-width:4.4317;stroke-dasharray:none;stroke-opacity:1"
         id="circle474"
         cx="632.37073"
         cy="763.15643"
         r="137.41599" /><path
         style="fill:#789d6e;fill-opacity:1;stroke:#000000;stroke-width:3;stroke-dasharray:none;stroke-opacity:1"
         d="m 501.86451,749.83559 c -0.83099,7.26837 -2.26883,20.46457 4.17852,26.80572 8.40353,8.26512 23.41139,2.84831 35.02444,4.86536 9.50512,1.65093 18.84548,4.15681 28.33085,5.91763 7.42272,1.37792 15.39838,0.70206 22.35506,3.63464 16.25355,6.85166 24.90959,31.63305 42.54744,31.46148 7.08747,-0.0689 12.6227,-7.28163 16.8478,-12.97246 6.05705,-8.15831 10.4904,-18.34443 10.81422,-28.50026 0.36082,-11.3164 -4.84291,-22.38209 -10.00243,-32.4603 -4.77781,-9.33261 -15.26506,-15.28093 -18.97033,-25.08888 -5.60105,-14.82611 3.78292,-33.36916 -3.56295,-47.41278 -4.02812,-7.70085 -12.35984,-12.77106 -20.24136,-16.4331 -9.07466,-4.21642 -19.48433,-5.70419 -29.49026,-5.61006 -7.6516,0.072 -15.74565,1.0557 -22.46667,4.71357 -17.55628,9.55488 -32.2223,25.27952 -42.20438,42.59647 -8.36291,14.508 -9.73471,18.52371 -13.15995,48.48297 z"
         id="path475" /><rect
         style="fill:#5b3d11;fill-opacity:1;stroke:#000000;stroke-width:4;stroke-dasharray:none;stroke-opacity:1"
         id="rect475"
         width="34.778065"
         height="152.44469"
         x="627.69586"
         y="917.534" /><path
         style="fill:#789d6e;fill-opacity:1;stroke:#000000;stroke-width:3;stroke-dasharray:none;stroke-opacity:1"
         d="m 651.93009,897.84223 c 0,0 4.03323,-9.52668 7.34548,-13.39424 6.02825,-7.0389 14.53846,-11.50491 22.03172,-16.95807 10.29927,-7.4952 20.9478,-14.49905 31.49131,-21.6466 7.50584,-5.08829 17.36351,-10.08233 22.6157,-15.11905 l 12.04997,3.87351 c 0,0 -15.83764,23.17929 -26.24815,32.38143 -9.72492,8.59613 -21.16132,15.36732 -33.0301,20.62083 -11.48361,5.08303 -20.59901,10.82529 -36.25593,10.24219 z"
         id="path476" /><rect
         style="fill:#5b3d11;fill-opacity:1;stroke:#000000;stroke-width:4;stroke-dasharray:none;stroke-opacity:1"
         id="rect477"
         width="34.561764"
         height="263.5484"
         x="466.97168"
         y="798.84222" /><rect
         style="fill:#5b3d11;fill-opacity:1;stroke:#000000;stroke-width:4;stroke-dasharray:none;stroke-opacity:1"
         id="rect478"
         width="34.561676"
         height="283.9241"
         x="774.99011"
         y="806.97107" /><g
         id="g479"
         transform="translate(-1.7518246,-262.45257)"
         style="fill:#5b3d11;fill-opacity:1"><path
           style="fill:#5b3d11;fill-opacity:1;stroke:#000000;stroke-width:4;stroke-dasharray:none;stroke-opacity:1"
           d="m 775.83932,1064.4583 c 0,0 -7.44073,4.8898 -9.17963,8.7405 -1.11424,2.4674 -1.14948,5.5414 -0.31216,8.116 1.35199,4.1571 8.11611,10.3011 8.11611,10.3011 l 0.53902,7.9262 c 0,0 3.72067,2.8303 5.90923,3.5049 3.81091,1.1746 7.95326,0.8401 11.94004,0.7486 4.42106,-0.1014 8.99497,-0.033 13.18866,-1.4365 2.00815,-0.6719 5.45764,-3.2514 5.45764,-3.2514 l -0.51212,-9.0525 c 0,0 6.48104,-4.4003 7.98904,-7.8039 1.13884,-2.5704 1.25773,-5.7807 0.31216,-8.4283 -1.35361,-3.7901 -7.98904,-9.0525 -7.98904,-9.0525 0,0 -7.87944,1.3511 -11.86201,1.5608 -4.05377,0.2134 -8.12798,0.015 -12.17415,-0.3122 -3.83046,-0.3099 -11.42279,-1.5608 -11.42279,-1.5608 z"
           id="path478" /><path
           style="fill:#5b3d11;fill-opacity:1;stroke:#000000;stroke-width:4;stroke-dasharray:none;stroke-opacity:1"
           d="m 774.74453,1090.9489 c 0,0 5.12148,2.4982 7.88321,3.0657 4.14938,0.8527 8.48259,0.8276 12.70073,0.438 2.68043,-0.2476 5.31127,-0.9575 7.88321,-1.7519 2.25341,-0.696 6.56934,-2.6277 6.56934,-2.6277"
           id="path479" /></g><g
         id="g481"
         transform="translate(-308.32117,-265.15327)"
         style="fill:#5b3d11;fill-opacity:1"><path
           style="fill:#5b3d11;fill-opacity:1;stroke:#000000;stroke-width:4;stroke-dasharray:none;stroke-opacity:1"
           d="m 775.83932,1064.4583 c 0,0 -7.44073,4.8898 -9.17963,8.7405 -1.11424,2.4674 -1.14948,5.5414 -0.31216,8.116 1.35199,4.1571 8.11611,10.3011 8.11611,10.3011 l 0.22934,7.9262 c 0,0 3.93733,2.8292 6.21891,3.5049 3.82368,1.1324 7.95326,0.8401 11.94004,0.7486 4.42106,-0.1014 8.97166,-0.105 13.18866,-1.4365 1.53079,-0.4834 4.21891,-2.3224 4.21891,-2.3224 l 0.72661,-9.9815 c 0,0 6.48104,-4.4003 7.98904,-7.8039 1.13884,-2.5704 1.25773,-5.7807 0.31216,-8.4283 -1.35361,-3.7901 -7.98904,-9.0525 -7.98904,-9.0525 0,0 -7.87944,1.3511 -11.86201,1.5608 -4.05377,0.2134 -8.12798,0.015 -12.17415,-0.3122 -3.83046,-0.3099 -11.42279,-1.5608 -11.42279,-1.5608 z"
           id="path480" /><path
           style="fill:#5b3d11;fill-opacity:1;stroke:#000000;stroke-width:4;stroke-dasharray:none;stroke-opacity:1"
           d="m 772.26708,1089.4005 c 0,0 6.67686,3.7643 10.36066,4.6141 4.12768,0.9522 8.48259,0.8276 12.70073,0.438 2.68043,-0.2476 5.28594,-1.0446 7.88321,-1.7519 2.74422,-0.7473 8.11775,-2.6277 8.11775,-2.6277"
           id="path481" /></g><path
         style="fill:#789d6e;fill-opacity:1;stroke:#000000;stroke-width:3;stroke-dasharray:none;stroke-opacity:1"
         d="m 569.40233,640.53348 c 0,0 31.32225,11.87354 47.7719,12.53324 12.35089,0.49533 36.50696,-6.50775 36.50696,-6.50775 5.01503,-3.34335 28.4855,13.39852 34.47232,11.54621 6.30882,-1.95193 6.47297,-16.62381 6.47297,-16.62381 0,0 -19.15604,-10.94304 -29.73733,-13.50223 -16.49915,-3.99049 -34.0518,-4.8005 -50.86499,-2.46325 -15.54425,2.16085 -44.62183,15.01759 -44.62183,15.01759 z"
         id="path482" /><path
         style="fill:#282842;fill-opacity:0.167849;stroke:none;stroke-width:4;stroke-dasharray:none;stroke-opacity:1"
         d="m 666.56935,627.15329 c 0,0 11.08819,19.9515 14.8905,30.65693 8.13018,22.8906 17.10341,46.66173 16.64234,70.9489 -0.4598,24.22042 -9.88501,47.74005 -19.27007,70.073 -10.3405,24.60656 -22.5465,49.2595 -40.29197,69.19708 C 627.86375,880.02447 600,896.93431 600,896.93431 c 0,0 19.78684,3.3427 29.78102,3.50365 13.77045,0.22177 28.05833,0.717 41.16789,-3.50365 20.06628,-6.46039 39.35482,-17.54816 54.30656,-32.40877 19.00051,-18.8847 34.51898,-42.92449 41.60586,-68.75911 4.44142,-16.19083 1.31871,-33.66817 -0.43797,-50.36497 -1.68357,-16.00189 -2.36345,-32.94591 -9.63504,-47.29927 -9.62144,-18.99173 -25.95543,-34.43569 -42.9197,-47.29927 -14.04594,-10.65067 -47.29927,-23.64963 -47.29927,-23.64963 z"
         id="path483" /><path
         style="fill:#907326;fill-opacity:1;stroke:#000000;stroke-width:4.4317;stroke-dasharray:none;stroke-opacity:1"
         d="m 589.66891,627.43448 c 5.62933,-3.37541 11.15695,-7.21823 17.42095,-9.17915 7.72889,-2.41951 16.01938,-3.13003 24.11619,-2.95267 12.12179,0.26551 24.4908,1.82831 35.87627,5.99712 11.75274,4.30328 22.9453,10.844 32.27495,19.18683 8.9414,7.99565 16.2896,17.99589 21.71776,28.69234 7.39436,14.57093 11.00349,30.90633 14.0784,46.95419 2.90432,15.15747 4.29278,30.69212 4.03805,46.12324 -0.2592,15.70212 -2.01159,31.49648 -5.65579,46.77208 -3.92393,16.44815 -9.35906,32.75918 -17.30125,47.6877 -5.35123,10.05842 -11.95282,19.69043 -20.13208,27.62183 -7.87969,7.64091 -16.98144,14.54541 -27.19418,18.56699 -10.70539,4.2156 -22.61999,5.45446 -34.12266,5.19937 -8.70355,-0.19301 -17.30778,-2.48491 -25.61931,-5.07485 -6.7243,-2.09535 -19.39025,-8.39512 -19.39025,-8.39512 l -19.34859,-8.39777 c 0,0 7.64968,11.7395 12.8953,16.24181 5.64564,4.84564 12.43511,8.40595 19.38265,11.06775 10.57083,4.04997 21.8803,6.77929 33.19344,7.17637 12.74119,0.44721 25.90253,-1.01381 37.85808,-5.44134 9.61988,-3.56256 18.13042,-9.89788 25.96603,-16.51886 8.37621,-7.07779 15.96115,-15.29652 22.04259,-24.42187 7.48677,-11.2341 12.79653,-23.89253 17.30378,-36.61816 4.22758,-11.93605 7.11148,-24.38477 9.00596,-36.90487 2.83451,-18.73254 4.87432,-37.83835 3.4648,-56.73163 -1.67477,-22.44857 -5.86302,-45.0899 -14.07332,-66.05019 -6.06064,-15.47238 -14.01213,-30.82582 -25.4909,-42.84097 -10.95388,-11.46576 -24.87302,-20.6211 -39.72928,-26.16574 -14.66395,-5.47286 -30.97674,-7.77554 -46.54729,-6.18108 -14.56098,1.49109 -29.17248,6.52024 -41.45427,14.48284 -12.25339,7.94419 -30.07065,31.85995 -30.07065,31.85995 l 21.53847,-12.30357 c 0,0 9.13736,-6.56316 13.95615,-9.45257 z"
         id="path484" /><g
         id="g488"
         style="fill:#5b3d11;fill-opacity:1"><rect
           style="fill:#5b3d11;fill-opacity:1;stroke:#000000;stroke-width:4;stroke-dasharray:none;stroke-opacity:1"
           id="rect484"
           width="34.439594"
           height="298.55811"
           x="558.86713"
           y="831.01086" /><g
           id="g486"
           transform="translate(-217.04487,-242.87587)"
           style="fill:#5b3d11;fill-opacity:1"><path
             style="fill:#5b3d11;fill-opacity:1;stroke:#000000;stroke-width:4;stroke-dasharray:none;stroke-opacity:1"
             d="m 775.83932,1064.4583 c 0,0 -7.44073,4.8898 -9.17963,8.7405 -1.11424,2.4674 -1.19221,5.5557 -0.31216,8.116 1.41617,4.12 8.42579,9.9914 8.42579,9.9914 l 1.15838,10.4036 c 0,0 3.17891,2.0774 4.98019,2.5759 3.84338,1.0636 7.95445,0.8822 11.94004,0.7486 3.70263,-0.1241 7.42487,-0.5457 11.02089,-1.4365 2.15572,-0.534 6.24478,-2.3223 6.24478,-2.3223 l -0.20244,-11.2203 c 0,0 7.33208,-4.212 9.05999,-7.8039 1.21875,-2.5335 1.25773,-5.7807 0.31216,-8.4283 -1.35361,-3.7901 -7.98904,-9.0525 -7.98904,-9.0525 0,0 -7.87944,1.3511 -11.86201,1.5608 -4.05377,0.2134 -8.12798,0.015 -12.17415,-0.3122 -3.83046,-0.3099 -11.42279,-1.5608 -11.42279,-1.5608 z"
             id="path485" /><path
             style="fill:#5b3d11;fill-opacity:1;stroke:#000000;stroke-width:4;stroke-dasharray:none;stroke-opacity:1"
             d="m 772.88644,1089.0908 c 0,0 6.2172,4.0193 9.7413,4.9238 4.1031,1.0531 8.48259,0.8276 12.70073,0.438 2.68043,-0.2476 5.31888,-0.9332 7.88321,-1.7519 2.90466,-0.9273 8.42744,-3.5568 8.42744,-3.5568"
             id="path486" /></g><g
           id="g487"
           transform="translate(0,-6)"
           style="fill:#5b3d11;fill-opacity:1" /></g><path
         id="path488"
         style="fill:#482f0d;fill-opacity:1;stroke:#000000;stroke-width:4.4317;stroke-dasharray:none;stroke-opacity:1"
         d="m 768.36198,742.40478 c 8.90923,3.87673 12.45247,8.13897 12.45258,12.61297 -3.4e-4,17.89603 -52.54104,26.76818 -149.77743,26.76842 -97.23752,6e-5 -147.47433,-11.63895 -147.47467,-29.53518 1.1e-4,-4.47407 4.92685,-8.73634 13.83626,-12.61308 l 2.72548,-16.08448 c -5.16977,1.03376 -11.05351,2.5876 -15.78916,3.73504 -37.88521,9.17943 -61.3173,18.90617 -61.31641,32.91338 -1.8e-4,3.5018 -0.26425,6.82544 0,10.22278 0.67878,8.72694 -0.75967,21.65594 4.06046,25.94407 8.97324,7.98281 37.49023,15.94122 57.25605,20.38225 48.38659,10.8716 98.46573,14.61201 148.03496,14.85717 49.56923,0.24517 99.68582,-2.56057 148.03692,-13.3797 19.60223,-4.38623 41.47114,-11.14873 56.60466,-20.671 6.98495,-4.39504 3.92369,-16.09038 4.71277,-24.30519 0.32177,-3.34989 2.2e-4,-6.59408 0,-10.09592 8.9e-4,-14.00733 -23.43165,-26.68865 -61.31743,-35.86809 -4.73573,-1.14743 -11.08066,-2.24014 -16.2505,-3.27389 z" /><path
         style="display:inline;fill:#5b3d11;fill-opacity:1;stroke:#000000;stroke-width:4.4317;stroke-dasharray:none;stroke-opacity:1"
         d="m 764.47872,724.11938 3.63826,15.7735 c 10.2285,3.98892 13.54864,8.17026 13.54876,13.78838 -3.4e-4,17.89601 -53.39232,28.4913 -150.62861,28.49153 -97.23743,6e-5 -149.97911,-11.24738 -149.97945,-29.1436 1.4e-4,-5.7608 5.53956,-10.61582 16.19473,-14.57035 l 4.29611,-17.19302 c -47.83134,7.64227 -78.53091,19.96866 -78.52989,35.98156 -10e-4,28.01438 93.72849,50.72486 209.35147,50.72503 115.6241,2.1e-4 209.35612,-16.80144 209.35435,-44.8161 8.6e-4,-16.08614 -29.03796,-29.74389 -77.24573,-39.03693 z"
         id="path489" /><g
         id="g491"
         transform="translate(161.16787,-6.1313866)"
         style="fill:#5b3d11;fill-opacity:1"><path
           style="fill:#5b3d11;fill-opacity:1;stroke:#000000;stroke-width:4;stroke-dasharray:none;stroke-opacity:1"
           d="m 466.49089,1036.3641 c 0,0 -7.44073,4.8898 -9.17963,8.7405 -1.11424,2.4674 -1.14948,5.5414 -0.31216,8.116 1.35199,4.1571 5.53766,6.7711 8.11611,10.3011 1.45342,1.9898 3.28447,3.8134 4.13982,6.1243 1.44957,3.9162 1.43252,12.4455 1.43252,12.4455 0,0 8.36614,2.4676 12.67119,2.5004 4.66538,0.036 13.77138,-2.5004 13.77138,-2.5004 0,0 0.0811,-8.5561 1.6223,-12.4455 0.92733,-2.3402 2.96729,-4.0673 4.41811,-6.1243 2.18527,-3.0984 5.26084,-5.8836 6.45619,-9.3646 0.91307,-2.659 1.25773,-5.7807 0.31216,-8.4283 -1.35361,-3.7901 -7.98904,-9.0525 -7.98904,-9.0525 0,0 -7.87944,1.3511 -11.86201,1.5608 -4.05377,0.2134 -8.12798,0.015 -12.17415,-0.3122 -3.83046,-0.3099 -11.42279,-1.5608 -11.42279,-1.5608 z"
           id="path491" /></g><g
         id="g492"
         transform="translate(238.24816,-32.715327)"
         style="fill:#5b3d11;fill-opacity:1"><path
           style="fill:#5b3d11;fill-opacity:1;stroke:#000000;stroke-width:4;stroke-dasharray:none;stroke-opacity:1"
           d="m 466.49089,1036.3641 c 0,0 -7.44073,4.8898 -9.17963,8.7405 -1.11424,2.4674 -1.14948,5.5414 -0.31216,8.116 1.35199,4.1571 5.53766,6.7711 8.11611,10.3011 1.45342,1.9898 3.28447,3.8134 4.13982,6.1243 1.44957,3.9162 1.43252,12.4455 1.43252,12.4455 0,0 8.36614,2.4676 12.67119,2.5004 4.66538,0.036 13.77138,-2.5004 13.77138,-2.5004 0,0 0.0811,-8.5561 1.6223,-12.4455 0.92733,-2.3402 2.96729,-4.0673 4.41811,-6.1243 2.18527,-3.0984 5.26084,-5.8836 6.45619,-9.3646 0.91307,-2.659 1.25773,-5.7807 0.31216,-8.4283 -1.35361,-3.7901 -7.98904,-9.0525 -7.98904,-9.0525 0,0 -7.87944,1.3511 -11.86201,1.5608 -4.05377,0.2134 -8.12798,0.015 -12.17415,-0.3122 -3.83046,-0.3099 -11.42279,-1.5608 -11.42279,-1.5608 z"
           id="path492" /></g><g
         id="g493"
         transform="translate(308.7591,17.518247)"
         style="fill:#5b3d11;fill-opacity:1"><path
           style="fill:#5b3d11;fill-opacity:1;stroke:#000000;stroke-width:4;stroke-dasharray:none;stroke-opacity:1"
           d="m 466.49089,1036.3641 c 0,0 -7.44073,4.8898 -9.17963,8.7405 -1.11424,2.4674 -1.14948,5.5414 -0.31216,8.116 1.35199,4.1571 5.53766,6.7711 8.11611,10.3011 1.45342,1.9898 3.28447,3.8134 4.13982,6.1243 1.44957,3.9162 1.43252,12.4455 1.43252,12.4455 0,0 8.36614,2.4676 12.67119,2.5004 4.66538,0.036 13.77138,-2.5004 13.77138,-2.5004 0,0 0.0811,-8.5561 1.6223,-12.4455 0.92733,-2.3402 2.96729,-4.0673 4.41811,-6.1243 2.18527,-3.0984 5.26084,-5.8836 6.45619,-9.3646 0.91307,-2.659 1.25773,-5.7807 0.31216,-8.4283 -1.35361,-3.7901 -7.98904,-9.0525 -7.98904,-9.0525 0,0 -7.87944,1.3511 -11.86201,1.5608 -4.05377,0.2134 -8.12798,0.015 -12.17415,-0.3122 -3.83046,-0.3099 -11.42279,-1.5608 -11.42279,-1.5608 z"
           id="path493" /></g><g
         id="g494"
         transform="translate(0,-10.262773)"
         style="fill:#5b3d11;fill-opacity:1"><path
           style="fill:#5b3d11;fill-opacity:1;stroke:#000000;stroke-width:4;stroke-dasharray:none;stroke-opacity:1"
           d="m 466.49089,1036.3641 c 0,0 -7.44073,4.8898 -9.17963,8.7405 -1.11424,2.4674 -1.14948,5.5414 -0.31216,8.116 1.35199,4.1571 5.53766,6.7711 8.11611,10.3011 1.45342,1.9898 3.28447,3.8134 4.13982,6.1243 1.44957,3.9162 1.43252,12.4455 1.43252,12.4455 0,0 8.36614,2.4676 12.67119,2.5004 4.66538,0.036 13.77138,-2.5004 13.77138,-2.5004 0,0 0.0811,-8.5561 1.6223,-12.4455 0.92733,-2.3402 2.96729,-4.0673 4.41811,-6.1243 2.18527,-3.0984 5.26084,-5.8836 6.45619,-9.3646 0.91307,-2.659 1.25773,-5.7807 0.31216,-8.4283 -1.35361,-3.7901 -7.98904,-9.0525 -7.98904,-9.0525 0,0 -7.87944,1.3511 -11.86201,1.5608 -4.05377,0.2134 -8.12798,0.015 -12.17415,-0.3122 -3.83046,-0.3099 -11.42279,-1.5608 -11.42279,-1.5608 z"
           id="path494" /></g><g
         id="g496"
         transform="translate(-149.34307,-145.64967)"
         style="fill:#5b3d11;fill-opacity:1"><path
           style="fill:#5b3d11;fill-opacity:1;stroke:#000000;stroke-width:4;stroke-dasharray:none;stroke-opacity:1"
           d="m 775.83932,1065.0777 c 0,0 -7.43034,4.4291 -9.17963,8.1211 -1.15922,2.4466 -1.14948,5.5414 -0.31216,8.116 1.35199,4.1571 8.11611,10.3011 8.11611,10.3011 l 1.15838,9.1649 c 0,0 3.42372,1.822 5.28987,2.2662 3.87944,0.9234 7.95326,0.8401 11.94004,0.7486 4.42106,-0.1014 9.03469,0.08 13.18866,-1.4365 1.82523,-0.6665 4.83828,-3.2514 4.83828,-3.2514 l 0.10724,-9.0525 c 0,0 6.48104,-4.4003 7.98904,-7.8039 1.13884,-2.5704 1.25773,-5.7807 0.31216,-8.4283 -1.35361,-3.7901 -7.98904,-9.0525 -7.98904,-9.0525 0,0 -7.87944,1.3511 -11.86201,1.5608 -4.05377,0.2134 -8.12067,-0.093 -12.17415,-0.3122 -3.81495,-0.206 -11.42279,-0.9414 -11.42279,-0.9414 z"
           id="path495" /><path
           style="fill:#5b3d11;fill-opacity:1;stroke:#000000;stroke-width:4;stroke-dasharray:none;stroke-opacity:1"
           d="m 774.74453,1090.9489 c 0,0 5.12148,2.4982 7.88321,3.0657 4.14938,0.8527 8.48259,0.8276 12.70073,0.438 2.68043,-0.2476 5.31127,-0.9575 7.88321,-1.7519 2.25341,-0.696 6.56934,-2.6277 6.56934,-2.6277"
           id="path496" /></g><g
         id="g497"
         transform="translate(91.532843,52.627734)"
         style="fill:#5b3d11;fill-opacity:1"><path
           style="fill:#5b3d11;fill-opacity:1;stroke:#000000;stroke-width:4;stroke-dasharray:none;stroke-opacity:1"
           d="m 466.49089,1036.3641 c 0,0 -7.44073,4.8898 -9.17963,8.7405 -1.11424,2.4674 -1.14948,5.5414 -0.31216,8.116 1.35199,4.1571 5.53766,6.7711 8.11611,10.3011 1.45342,1.9898 3.28447,3.8134 4.13982,6.1243 1.44957,3.9162 1.43252,12.4455 1.43252,12.4455 0,0 8.36614,2.4676 12.67119,2.5004 4.66538,0.036 13.77138,-2.5004 13.77138,-2.5004 0,0 0.0811,-8.5561 1.6223,-12.4455 0.92733,-2.3402 2.96729,-4.0673 4.41811,-6.1243 2.18527,-3.0984 5.26084,-5.8836 6.45619,-9.3646 0.91307,-2.659 1.25773,-5.7807 0.31216,-8.4283 -1.35361,-3.7901 -7.98904,-9.0525 -7.98904,-9.0525 0,0 -7.87944,1.3511 -11.86201,1.5608 -4.05377,0.2134 -8.12798,0.015 -12.17415,-0.3122 -3.83046,-0.3099 -11.42279,-1.5608 -11.42279,-1.5608 z"
           id="path497" /></g><path
         style="fill:none;fill-opacity:1;stroke:#000000;stroke-width:2;stroke-linejoin:bevel;stroke-dasharray:none"
         d="m 461.42587,1049.0341 c 0,0 6.24884,3.3797 9.60013,4.5033 3.0553,1.0244 6.25325,1.6649 9.45823,2 2.87469,0.3006 5.79273,0.2631 8.67109,0 3.40163,-0.311 6.91306,-0.5722 10.07758,-1.8581 2.75184,-1.1182 7.4065,-4.9549 7.4065,-4.9549"
         id="path498" /><path
         style="fill:none;fill-opacity:1;stroke:#000000;stroke-width:2;stroke-linejoin:bevel;stroke-dasharray:none"
         d="m 552.782,1112.5965 c 0,0 6.24884,3.3797 9.60013,4.5033 3.0553,1.0244 6.25325,1.6649 9.45823,2 2.87469,0.3006 5.79273,0.2631 8.67109,0 3.40163,-0.311 6.91306,-0.5722 10.07758,-1.8581 2.75184,-1.1182 7.4065,-4.9549 7.4065,-4.9549"
         id="path499" /><path
         style="fill:none;fill-opacity:1;stroke:#000000;stroke-width:2;stroke-linejoin:bevel;stroke-dasharray:none"
         d="m 621.84104,1052.6084 c 0,0 6.24884,3.3797 9.60013,4.5033 3.0553,1.0244 6.25325,1.6649 9.45823,2 2.87469,0.3006 5.79273,0.2631 8.67109,0 3.40163,-0.311 6.91306,-0.5722 10.07758,-1.8581 2.75184,-1.1182 7.4065,-4.9549 7.4065,-4.9549"
         id="path500" /><path
         style="fill:none;fill-opacity:1;stroke:#000000;stroke-width:2;stroke-linejoin:bevel;stroke-dasharray:none"
         d="m 698.64212,1026.4791 c 0,0 6.24884,3.3797 9.60013,4.5033 3.0553,1.0244 6.25325,1.6649 9.45823,2 2.87469,0.3006 5.79273,0.2631 8.67109,0 3.40163,-0.311 6.91306,-0.5722 10.07758,-1.8581 2.75184,-1.1182 7.4065,-4.9549 7.4065,-4.9549"
         id="path501" /><path
         style="fill:none;fill-opacity:1;stroke:#000000;stroke-width:2;stroke-linejoin:bevel;stroke-dasharray:none"
         d="m 769.55925,1076.1442 c 0,0 6.24884,3.3797 9.60013,4.5033 3.0553,1.0244 6.25325,1.6649 9.45823,2 2.87469,0.3006 5.79273,0.2631 8.67109,0 3.40163,-0.311 6.91306,-0.5722 10.07758,-1.8581 2.75184,-1.1182 7.4065,-4.9549 7.4065,-4.9549"
         id="path502" /></g></g></svg>
