<?xml version="1.0" encoding="UTF-8"?>
<svg width="423.41" height="539.08" version="1.1" viewBox="0 0 423.41 539.08" xml:space="preserve" xmlns="http://www.w3.org/2000/svg"><g transform="translate(-736.01 -277.8)"><path d="m529.42 856.56s1.5601-30.271 4.9945-44.951c4.0136-17.155 9.0511-34.536 18.074-49.668 11.139-18.682 26.798-34.658 43.336-48.785 15.736-13.442 33.424-24.967 52.291-33.473 12.848-5.7924 26.754-9.3099 40.662-11.59 9.2-1.5086 18.66-2.244 27.937-1.3244 6.8308 0.67712 19.978 4.9945 19.978 4.9945" display="none" fill="none" stroke="#51301d" stroke-dasharray="9, 3" stroke-width="3"/><path d="m363.76 84.76 15.892 425.57h602.15l12.361-425.57z" display="none" fill="#d4cdc5" stroke="#51301d" stroke-width="3"/><g transform="translate(315.33 -322.34)"><rect x="704.35" y="825.99" width="34.876" height="224.79" fill="#5b3d11" stroke="#000" stroke-width="4"/><circle cx="632.37" cy="763.16" r="137.42" fill="#bbdedc" stroke="#000" stroke-width="4.4317"/><path d="m501.86 749.84c-0.83099 7.2684-2.2688 20.465 4.1785 26.806 8.4035 8.2651 23.411 2.8483 35.024 4.8654 9.5051 1.6509 18.845 4.1568 28.331 5.9176 7.4227 1.3779 15.398 0.70206 22.355 3.6346 16.254 6.8517 24.91 31.633 42.547 31.461 7.0875-0.0689 12.623-7.2816 16.848-12.972 6.057-8.1583 10.49-18.344 10.814-28.5 0.36082-11.316-4.8429-22.382-10.002-32.46-4.7778-9.3326-15.265-15.281-18.97-25.089-5.601-14.826 3.7829-33.369-3.563-47.413-4.0281-7.7008-12.36-12.771-20.241-16.433-9.0747-4.2164-19.484-5.7042-29.49-5.6101-7.6516 0.072-15.746 1.0557-22.467 4.7136-17.556 9.5549-32.222 25.28-42.204 42.596-8.3629 14.508-9.7347 18.524-13.16 48.483z" fill="#789d6e" stroke="#000" stroke-width="3"/><rect x="627.7" y="917.53" width="34.778" height="152.44" fill="#5b3d11" stroke="#000" stroke-width="4"/><path d="m651.93 897.84s4.0332-9.5267 7.3455-13.394c6.0282-7.0389 14.538-11.505 22.032-16.958 10.299-7.4952 20.948-14.499 31.491-21.647 7.5058-5.0883 17.364-10.082 22.616-15.119l12.05 3.8735s-15.838 23.179-26.248 32.381c-9.7249 8.5961-21.161 15.367-33.03 20.621-11.484 5.083-20.599 10.825-36.256 10.242z" fill="#789d6e" stroke="#000" stroke-width="3"/><rect x="466.97" y="798.84" width="34.562" height="263.55" fill="#5b3d11" stroke="#000" stroke-width="4"/><rect x="774.99" y="806.97" width="34.562" height="283.92" fill="#5b3d11" stroke="#000" stroke-width="4"/><g transform="translate(-1.7518 -262.45)" fill="#5b3d11" stroke="#000" stroke-width="4"><path d="m775.84 1064.5s-7.4407 4.8898-9.1796 8.7405c-1.1142 2.4674-1.1495 5.5414-0.31216 8.116 1.352 4.1571 8.1161 10.301 8.1161 10.301l0.53902 7.9262s3.7207 2.8303 5.9092 3.5049c3.8109 1.1746 7.9533 0.8401 11.94 0.7486 4.4211-0.1014 8.995-0.033 13.189-1.4365 2.0082-0.6719 5.4576-3.2514 5.4576-3.2514l-0.51212-9.0525s6.481-4.4003 7.989-7.8039c1.1388-2.5704 1.2577-5.7807 0.31216-8.4283-1.3536-3.7901-7.989-9.0525-7.989-9.0525s-7.8794 1.3511-11.862 1.5608c-4.0538 0.2134-8.128 0.015-12.174-0.3122-3.8305-0.3099-11.423-1.5608-11.423-1.5608z"/><path d="m774.74 1090.9s5.1215 2.4982 7.8832 3.0657c4.1494 0.8527 8.4826 0.8276 12.701 0.438 2.6804-0.2476 5.3113-0.9575 7.8832-1.7519 2.2534-0.696 6.5693-2.6277 6.5693-2.6277"/></g><g transform="translate(-308.32 -265.15)" fill="#5b3d11" stroke="#000" stroke-width="4"><path d="m775.84 1064.5s-7.4407 4.8898-9.1796 8.7405c-1.1142 2.4674-1.1495 5.5414-0.31216 8.116 1.352 4.1571 8.1161 10.301 8.1161 10.301l0.22934 7.9262s3.9373 2.8292 6.2189 3.5049c3.8237 1.1324 7.9533 0.8401 11.94 0.7486 4.4211-0.1014 8.9717-0.105 13.189-1.4365 1.5308-0.4834 4.2189-2.3224 4.2189-2.3224l0.72661-9.9815s6.481-4.4003 7.989-7.8039c1.1388-2.5704 1.2577-5.7807 0.31216-8.4283-1.3536-3.7901-7.989-9.0525-7.989-9.0525s-7.8794 1.3511-11.862 1.5608c-4.0538 0.2134-8.128 0.015-12.174-0.3122-3.8305-0.3099-11.423-1.5608-11.423-1.5608z"/><path d="m772.27 1089.4s6.6769 3.7643 10.361 4.6141c4.1277 0.9522 8.4826 0.8276 12.701 0.438 2.6804-0.2476 5.2859-1.0446 7.8832-1.7519 2.7442-0.7473 8.1178-2.6277 8.1178-2.6277"/></g><path d="m569.4 640.53s31.322 11.874 47.772 12.533c12.351 0.49533 36.507-6.5078 36.507-6.5078 5.015-3.3434 28.486 13.399 34.472 11.546 6.3088-1.9519 6.473-16.624 6.473-16.624s-19.156-10.943-29.737-13.502c-16.499-3.9905-34.052-4.8005-50.865-2.4632-15.544 2.1608-44.622 15.018-44.622 15.018z" fill="#789d6e" stroke="#000" stroke-width="3"/><path d="m666.57 627.15s11.088 19.952 14.89 30.657c8.1302 22.891 17.103 46.662 16.642 70.949-0.4598 24.22-9.885 47.74-19.27 70.073-10.34 24.607-22.546 49.26-40.292 69.197-10.676 11.995-38.54 28.905-38.54 28.905s19.787 3.3427 29.781 3.5036c13.77 0.22177 28.058 0.717 41.168-3.5036 20.066-6.4604 39.355-17.548 54.307-32.409 19.001-18.885 34.519-42.924 41.606-68.759 4.4414-16.191 1.3187-33.668-0.43797-50.365-1.6836-16.002-2.3634-32.946-9.635-47.299-9.6214-18.992-25.955-34.436-42.92-47.299-14.046-10.651-47.299-23.65-47.299-23.65z" fill="#282842" fill-opacity=".16785"/><path d="m589.67 627.43c5.6293-3.3754 11.157-7.2182 17.421-9.1792 7.7289-2.4195 16.019-3.13 24.116-2.9527 12.122 0.26551 24.491 1.8283 35.876 5.9971 11.753 4.3033 22.945 10.844 32.275 19.187 8.9414 7.9956 16.29 17.996 21.718 28.692 7.3944 14.571 11.003 30.906 14.078 46.954 2.9043 15.157 4.2928 30.692 4.038 46.123-0.2592 15.702-2.0116 31.496-5.6558 46.772-3.9239 16.448-9.3591 32.759-17.301 47.688-5.3512 10.058-11.953 19.69-20.132 27.622-7.8797 7.6409-16.981 14.545-27.194 18.567-10.705 4.2156-22.62 5.4545-34.123 5.1994-8.7036-0.19301-17.308-2.4849-25.619-5.0748-6.7243-2.0954-19.39-8.3951-19.39-8.3951l-19.349-8.3978s7.6497 11.74 12.895 16.242c5.6456 4.8456 12.435 8.406 19.383 11.068 10.571 4.05 21.88 6.7793 33.193 7.1764 12.741 0.44721 25.903-1.0138 37.858-5.4413 9.6199-3.5626 18.13-9.8979 25.966-16.519 8.3762-7.0778 15.961-15.297 22.043-24.422 7.4868-11.234 12.797-23.893 17.304-36.618 4.2276-11.936 7.1115-24.385 9.006-36.905 2.8345-18.733 4.8743-37.838 3.4648-56.732-1.6748-22.449-5.863-45.09-14.073-66.05-6.0606-15.472-14.012-30.826-25.491-42.841-10.954-11.466-24.873-20.621-39.729-26.166-14.664-5.4729-30.977-7.7755-46.547-6.1811-14.561 1.4911-29.172 6.5202-41.454 14.483-12.253 7.9442-30.071 31.86-30.071 31.86l21.538-12.304s9.1374-6.5632 13.956-9.4526z" fill="#907326" stroke="#000" stroke-width="4.4317"/><g fill="#5b3d11" stroke="#000" stroke-width="4"><rect x="558.87" y="831.01" width="34.44" height="298.56"/><g transform="translate(-217.04 -242.88)"><path d="m775.84 1064.5s-7.4407 4.8898-9.1796 8.7405c-1.1142 2.4674-1.1922 5.5557-0.31216 8.116 1.4162 4.12 8.4258 9.9914 8.4258 9.9914l1.1584 10.404s3.1789 2.0774 4.9802 2.5759c3.8434 1.0636 7.9544 0.8822 11.94 0.7486 3.7026-0.1241 7.4249-0.5457 11.021-1.4365 2.1557-0.534 6.2448-2.3223 6.2448-2.3223l-0.20244-11.22s7.3321-4.212 9.06-7.8039c1.2188-2.5335 1.2577-5.7807 0.31216-8.4283-1.3536-3.7901-7.989-9.0525-7.989-9.0525s-7.8794 1.3511-11.862 1.5608c-4.0538 0.2134-8.128 0.015-12.174-0.3122-3.8305-0.3099-11.423-1.5608-11.423-1.5608z"/><path d="m772.89 1089.1s6.2172 4.0193 9.7413 4.9238c4.1031 1.0531 8.4826 0.8276 12.701 0.438 2.6804-0.2476 5.3189-0.9332 7.8832-1.7519 2.9047-0.9273 8.4274-3.5568 8.4274-3.5568"/></g></g><path d="m768.36 742.4c8.9092 3.8767 12.452 8.139 12.453 12.613-3.4e-4 17.896-52.541 26.768-149.78 26.768-97.238 6e-5 -147.47-11.639-147.47-29.535 1.1e-4 -4.4741 4.9268-8.7363 13.836-12.613l2.7255-16.084c-5.1698 1.0338-11.054 2.5876-15.789 3.735-37.885 9.1794-61.317 18.906-61.316 32.913-1.8e-4 3.5018-0.26425 6.8254 0 10.223 0.67878 8.7269-0.75967 21.656 4.0605 25.944 8.9732 7.9828 37.49 15.941 57.256 20.382 48.387 10.872 98.466 14.612 148.03 14.857 49.569 0.24517 99.686-2.5606 148.04-13.38 19.602-4.3862 41.471-11.149 56.605-20.671 6.985-4.395 3.9237-16.09 4.7128-24.305 0.32177-3.3499 2.2e-4 -6.5941 0-10.096 8.9e-4 -14.007-23.432-26.689-61.317-35.868-4.7357-1.1474-11.081-2.2401-16.25-3.2739z" fill="#482f0d" stroke="#000" stroke-width="4.4317"/><path d="m764.48 724.12 3.6383 15.774c10.228 3.9889 13.549 8.1703 13.549 13.788-3.4e-4 17.896-53.392 28.491-150.63 28.492-97.237 6e-5 -149.98-11.247-149.98-29.144 1.4e-4 -5.7608 5.5396-10.616 16.195-14.57l4.2961-17.193c-47.831 7.6423-78.531 19.969-78.53 35.982-1e-3 28.014 93.728 50.725 209.35 50.725 115.62 2.1e-4 209.36-16.801 209.35-44.816 8.6e-4 -16.086-29.038-29.744-77.246-39.037z" fill="#5b3d11" stroke="#000" stroke-width="4.4317"/><g transform="translate(161.17 -6.1314)" fill="#5b3d11"><path d="m466.49 1036.4s-7.4407 4.8898-9.1796 8.7405c-1.1142 2.4674-1.1495 5.5414-0.31216 8.116 1.352 4.1571 5.5377 6.7711 8.1161 10.301 1.4534 1.9898 3.2845 3.8134 4.1398 6.1243 1.4496 3.9162 1.4325 12.446 1.4325 12.446s8.3661 2.4676 12.671 2.5004c4.6654 0.036 13.771-2.5004 13.771-2.5004s0.0811-8.5561 1.6223-12.446c0.92733-2.3402 2.9673-4.0673 4.4181-6.1243 2.1853-3.0984 5.2608-5.8836 6.4562-9.3646 0.91307-2.659 1.2577-5.7807 0.31216-8.4283-1.3536-3.7901-7.989-9.0525-7.989-9.0525s-7.8794 1.3511-11.862 1.5608c-4.0538 0.2134-8.128 0.015-12.174-0.3122-3.8305-0.3099-11.423-1.5608-11.423-1.5608z" fill="#5b3d11" stroke="#000" stroke-width="4"/></g><g transform="translate(238.25 -32.715)" fill="#5b3d11"><path d="m466.49 1036.4s-7.4407 4.8898-9.1796 8.7405c-1.1142 2.4674-1.1495 5.5414-0.31216 8.116 1.352 4.1571 5.5377 6.7711 8.1161 10.301 1.4534 1.9898 3.2845 3.8134 4.1398 6.1243 1.4496 3.9162 1.4325 12.446 1.4325 12.446s8.3661 2.4676 12.671 2.5004c4.6654 0.036 13.771-2.5004 13.771-2.5004s0.0811-8.5561 1.6223-12.446c0.92733-2.3402 2.9673-4.0673 4.4181-6.1243 2.1853-3.0984 5.2608-5.8836 6.4562-9.3646 0.91307-2.659 1.2577-5.7807 0.31216-8.4283-1.3536-3.7901-7.989-9.0525-7.989-9.0525s-7.8794 1.3511-11.862 1.5608c-4.0538 0.2134-8.128 0.015-12.174-0.3122-3.8305-0.3099-11.423-1.5608-11.423-1.5608z" fill="#5b3d11" stroke="#000" stroke-width="4"/></g><g transform="translate(308.76 17.518)" fill="#5b3d11"><path d="m466.49 1036.4s-7.4407 4.8898-9.1796 8.7405c-1.1142 2.4674-1.1495 5.5414-0.31216 8.116 1.352 4.1571 5.5377 6.7711 8.1161 10.301 1.4534 1.9898 3.2845 3.8134 4.1398 6.1243 1.4496 3.9162 1.4325 12.446 1.4325 12.446s8.3661 2.4676 12.671 2.5004c4.6654 0.036 13.771-2.5004 13.771-2.5004s0.0811-8.5561 1.6223-12.446c0.92733-2.3402 2.9673-4.0673 4.4181-6.1243 2.1853-3.0984 5.2608-5.8836 6.4562-9.3646 0.91307-2.659 1.2577-5.7807 0.31216-8.4283-1.3536-3.7901-7.989-9.0525-7.989-9.0525s-7.8794 1.3511-11.862 1.5608c-4.0538 0.2134-8.128 0.015-12.174-0.3122-3.8305-0.3099-11.423-1.5608-11.423-1.5608z" fill="#5b3d11" stroke="#000" stroke-width="4"/></g><g transform="translate(0 -10.263)" fill="#5b3d11"><path d="m466.49 1036.4s-7.4407 4.8898-9.1796 8.7405c-1.1142 2.4674-1.1495 5.5414-0.31216 8.116 1.352 4.1571 5.5377 6.7711 8.1161 10.301 1.4534 1.9898 3.2845 3.8134 4.1398 6.1243 1.4496 3.9162 1.4325 12.446 1.4325 12.446s8.3661 2.4676 12.671 2.5004c4.6654 0.036 13.771-2.5004 13.771-2.5004s0.0811-8.5561 1.6223-12.446c0.92733-2.3402 2.9673-4.0673 4.4181-6.1243 2.1853-3.0984 5.2608-5.8836 6.4562-9.3646 0.91307-2.659 1.2577-5.7807 0.31216-8.4283-1.3536-3.7901-7.989-9.0525-7.989-9.0525s-7.8794 1.3511-11.862 1.5608c-4.0538 0.2134-8.128 0.015-12.174-0.3122-3.8305-0.3099-11.423-1.5608-11.423-1.5608z" fill="#5b3d11" stroke="#000" stroke-width="4"/></g><g transform="translate(-149.34 -145.65)" fill="#5b3d11" stroke="#000" stroke-width="4"><path d="m775.84 1065.1s-7.4303 4.4291-9.1796 8.1211c-1.1592 2.4466-1.1495 5.5414-0.31216 8.116 1.352 4.1571 8.1161 10.301 8.1161 10.301l1.1584 9.1649s3.4237 1.822 5.2899 2.2662c3.8794 0.9234 7.9533 0.8401 11.94 0.7486 4.4211-0.1014 9.0347 0.08 13.189-1.4365 1.8252-0.6665 4.8383-3.2514 4.8383-3.2514l0.10724-9.0525s6.481-4.4003 7.989-7.8039c1.1388-2.5704 1.2577-5.7807 0.31216-8.4283-1.3536-3.7901-7.989-9.0525-7.989-9.0525s-7.8794 1.3511-11.862 1.5608c-4.0538 0.2134-8.1207-0.093-12.174-0.3122-3.815-0.206-11.423-0.9414-11.423-0.9414z"/><path d="m774.74 1090.9s5.1215 2.4982 7.8832 3.0657c4.1494 0.8527 8.4826 0.8276 12.701 0.438 2.6804-0.2476 5.3113-0.9575 7.8832-1.7519 2.2534-0.696 6.5693-2.6277 6.5693-2.6277"/></g><g transform="translate(91.533 52.628)" fill="#5b3d11"><path d="m466.49 1036.4s-7.4407 4.8898-9.1796 8.7405c-1.1142 2.4674-1.1495 5.5414-0.31216 8.116 1.352 4.1571 5.5377 6.7711 8.1161 10.301 1.4534 1.9898 3.2845 3.8134 4.1398 6.1243 1.4496 3.9162 1.4325 12.446 1.4325 12.446s8.3661 2.4676 12.671 2.5004c4.6654 0.036 13.771-2.5004 13.771-2.5004s0.0811-8.5561 1.6223-12.446c0.92733-2.3402 2.9673-4.0673 4.4181-6.1243 2.1853-3.0984 5.2608-5.8836 6.4562-9.3646 0.91307-2.659 1.2577-5.7807 0.31216-8.4283-1.3536-3.7901-7.989-9.0525-7.989-9.0525s-7.8794 1.3511-11.862 1.5608c-4.0538 0.2134-8.128 0.015-12.174-0.3122-3.8305-0.3099-11.423-1.5608-11.423-1.5608z" fill="#5b3d11" stroke="#000" stroke-width="4"/></g><path d="m461.43 1049s6.2488 3.3797 9.6001 4.5033c3.0553 1.0244 6.2532 1.6649 9.4582 2 2.8747 0.3006 5.7927 0.2631 8.6711 0 3.4016-0.311 6.9131-0.5722 10.078-1.8581 2.7518-1.1182 7.4065-4.9549 7.4065-4.9549" fill="none" stroke="#000" stroke-linejoin="bevel" stroke-width="2"/><path d="m552.78 1112.6s6.2488 3.3797 9.6001 4.5033c3.0553 1.0244 6.2532 1.6649 9.4582 2 2.8747 0.3006 5.7927 0.2631 8.6711 0 3.4016-0.311 6.9131-0.5722 10.078-1.8581 2.7518-1.1182 7.4065-4.9549 7.4065-4.9549" fill="none" stroke="#000" stroke-linejoin="bevel" stroke-width="2"/><path d="m621.84 1052.6s6.2488 3.3797 9.6001 4.5033c3.0553 1.0244 6.2532 1.6649 9.4582 2 2.8747 0.3006 5.7927 0.2631 8.6711 0 3.4016-0.311 6.9131-0.5722 10.078-1.8581 2.7518-1.1182 7.4065-4.9549 7.4065-4.9549" fill="none" stroke="#000" stroke-linejoin="bevel" stroke-width="2"/><path d="m698.64 1026.5s6.2488 3.3797 9.6001 4.5033c3.0553 1.0244 6.2532 1.6649 9.4582 2 2.8747 0.3006 5.7927 0.2631 8.6711 0 3.4016-0.311 6.9131-0.5722 10.078-1.8581 2.7518-1.1182 7.4065-4.9549 7.4065-4.9549" fill="none" stroke="#000" stroke-linejoin="bevel" stroke-width="2"/><path d="m769.56 1076.1s6.2488 3.3797 9.6001 4.5033c3.0553 1.0244 6.2532 1.6649 9.4582 2 2.8747 0.3006 5.7927 0.2631 8.6711 0 3.4016-0.311 6.9131-0.5722 10.078-1.8581 2.7518-1.1182 7.4065-4.9549 7.4065-4.9549" fill="none" stroke="#000" stroke-linejoin="bevel" stroke-width="2"/></g></g></svg>
