<?xml version="1.0" encoding="UTF-8" standalone="no"?>
<!-- Created with Inkscape (http://www.inkscape.org/) -->

<svg
   width="137.19165"
   height="210.20239"
   viewBox="0 0 137.19165 210.20239"
   version="1.1"
   id="svg1"
   xml:space="preserve"
   xmlns="http://www.w3.org/2000/svg"
   xmlns:svg="http://www.w3.org/2000/svg"><defs
     id="defs1" /><g
     id="g341"
     style="display:inline"
     transform="matrix(1.1113308,0,0,1.1113308,-1284.0224,-442.79251)"><path
       style="fill:#a2754e;fill-opacity:1;stroke:#c49f84;stroke-width:2.1852;stroke-linecap:round;stroke-linejoin:round;stroke-dasharray:none;stroke-opacity:1"
       d="m 1189.3263,442.17466 c 0,0 -1.3476,1.50172 -1.4421,2.44245 -0.087,0.8647 0.8528,2.46373 0.8528,2.46373 l 1.8952,0.94758 c 0,0 -1.5801,1.37814 -2.0847,2.27422 -0.3875,0.68805 -0.9101,1.52414 -0.6633,2.27421 0.2607,0.7921 1.9899,1.51615 1.9899,1.51615 0,0 -2.3689,2.0847 -2.3689,2.84277 0,0.75807 0.2842,2.27421 0.2842,2.27421 l 2.6532,1.51615 c 0,0 -2.1059,1.64094 -2.4637,2.84277 -0.2001,0.6722 -0.087,1.49018 0.2843,2.0847 0.4229,0.67579 1.9899,1.32663 1.9899,1.32663 0,0 -1.6891,1.03061 -2.2742,1.8004 -0.394,0.51846 -0.7438,1.14942 -0.758,1.80044 -0.019,0.90922 0.3822,1.84615 0.9476,2.55848 0.5345,0.67337 2.1521,1.4214 2.1521,1.4214 0,0 -1.77,0.61205 -2.4364,1.23186 -0.5393,0.50177 -1.0703,1.1615 -1.1371,1.89518 -0.098,1.07504 0.4906,2.16785 1.1371,3.03228 0.5743,0.76761 2.2979,1.72925 2.2979,1.72925 0,0 -2.1141,1.39958 -2.7718,2.44014 -0.2456,0.38878 -0.3857,0.86679 -0.3789,1.32664 0.012,0.72914 0.2365,1.49333 0.6632,2.0847 0.5027,0.69681 2.0847,1.51614 2.0847,1.51614 0,0 -2.0125,2.12109 -2.6532,3.41132 -0.7798,1.57025 -1.3562,5.08175 -1.3562,5.08175 l 9.0775,0.18951 c 0,0 -0.5017,-2.88425 -1.183,-4.15176 -0.9419,-1.75238 -3.8851,-4.53082 -3.8851,-4.53082 0,0 2.6919,-0.17608 3.5061,-1.08973 0.5668,-0.6359 0.6066,-1.6697 0.4738,-2.51111 -0.1233,-0.78189 -0.6073,-1.4966 -1.1371,-2.0847 -0.6612,-0.73397 -2.44,-1.68208 -2.44,-1.68208 0,0 3.1032,-1.35021 3.6718,-2.67683 0.5686,-1.32663 -0.5685,-2.84276 -0.9475,-3.60084 -0.379,-0.75808 -2.5858,-1.6109 -2.5858,-1.6109 0,0 2.0918,-1.40256 2.6806,-2.46374 0.4149,-0.74779 0.7697,-1.71919 0.4737,-2.52151 -0.4775,-1.29379 -3.2218,-2.59547 -3.2218,-2.59547 0,0 3.1124,-1.25342 3.6956,-2.65326 0.3075,-0.7382 0.05,-1.69376 -0.379,-2.36897 -0.4506,-0.7101 -2.0846,-1.42139 -2.0846,-1.42139 l 2.4636,-1.80042 -0.5686,-2.36897 -2.7479,-1.89518 2.8428,-1.61091 c 0,0 2.0846,-2.46373 -0.3791,-3.41131 -2.4637,-0.9476 -2.2742,-1.61091 -2.2742,-1.61091 0,0 2.658,-1.86218 3.2218,-2.36897 1.1734,-1.05476 -0.045,-3.59321 -0.475,-3.56754 -0.026,10e-4 -1.8513,-0.17983 -1.8513,-0.17983 z"
       id="path109" /><g
       id="g113"
       transform="matrix(0.91538304,0,0,0.98900045,124.45355,-23.447674)"
       style="display:inline"><path
         id="path112"
         style="fill:#00621b;fill-opacity:1;stroke:#56a131;stroke-width:2.55233;stroke-linejoin:round;stroke-dasharray:none;stroke-opacity:1"
         d="m 1158.34,441.08429 c -3.3331,2.28672 -6.3113,5.02364 -9.0542,7.90468 -5.2199,5.48269 -9.9747,11.3374 -13.9559,17.71345 -3.1586,5.05879 -7.7665,16.11821 -7.7665,16.11821 0,0 25.0716,5.11042 37.7496,6.73829 14.3556,1.84323 41.7825,3.41636 41.7825,3.41636 l 20.0972,-21.6356 c 0,0 0.5875,-9.89413 -0.4875,-14.69152 -1.4147,-6.31324 -3.0279,-13.2084 -7.7187,-17.97511 -5.7508,-5.84378 -14.4293,-10.2233 -22.8243,-10.77261 -8.9067,-0.29742 -11.4647,0.60048 -22.1658,4.46392 -11.587,6.44803 -11.1432,5.61614 -15.6564,8.71993 z" /><path
         style="display:inline;fill:none;fill-opacity:1;stroke:#488829;stroke-width:2.55233;stroke-linejoin:round;stroke-dasharray:none;stroke-opacity:0.415049"
         d="m 1207.0955,492.97528 c 0,0 4.139,-16.06557 2.454,-23.89222 -1.8582,-8.63141 -6.3723,-17.07758 -13.3089,-22.90106 -6.5326,-5.48429 -15.2411,-10.12946 -24.4102,-9.44823 -2.1324,0.15843 -4.199,0.65892 -6.2015,1.40672 -2.0025,0.74779 -9.3848,5.54857 -11.261,6.69619"
         id="path113" /></g><path
       style="display:inline;fill:none;fill-opacity:1;stroke:#488829;stroke-width:2.42772;stroke-linecap:round;stroke-linejoin:round;stroke-dasharray:none;stroke-opacity:0.415049"
       d="m 1229.4084,464.1051 c 0,0 3.7886,-15.88886 2.2463,-23.62941 -1.701,-8.53648 -5.8331,-16.88974 -12.1827,-22.64917 -5.98,-5.42397 -13.9516,-10.01803 -22.3448,-9.3443 -1.9519,0.15669 -3.8437,0.65167 -5.6767,1.39125 -1.8331,0.73957 -8.5907,5.48754 -10.3081,6.62253"
       id="path114" /><path
       id="path292"
       style="fill:#654226;fill-opacity:1;stroke:#804930;stroke-width:2.42849;stroke-linejoin:round;stroke-dasharray:none;stroke-opacity:1"
       d="m 1207.2794,563.99394 70.1197,-0.42082 0.2264,8.24963 c 0,8.90115 -15.4536,14.54224 -34.7818,14.54224 -19.3282,0 -35.5653,-6.26822 -35.5651,-15.16937 z" /><path
       style="display:inline;fill:#835125;fill-opacity:1;stroke:#8e4923;stroke-width:2.42849;stroke-linejoin:round;stroke-dasharray:none;stroke-opacity:1"
       d="m 1247.6991,536.60706 c 2.9573,0.98372 5.4944,3.55342 8.0405,5.35933 2.5475,1.82796 5.125,3.6167 7.6121,5.52582 2.5361,1.94659 5.1943,3.77486 7.4493,6.04112 1.8619,1.87127 4.9572,6.17582 4.9572,6.17582 0,0 1.9977,3.63123 1.4298,5.40686 -1.5874,4.9634 -7.2546,7.89271 -12.0251,9.98962 -7.0482,3.09805 -15.1901,2.91892 -22.8867,3.11014 -5.3369,0.13259 -10.8133,0.0629 -15.957,-1.36585 -6.3736,-1.77038 -13.5394,-3.69807 -17.8125,-8.74754 v -6e-5 c -0.9233,-1.09103 -1.2273,-4.10838 -1.2273,-4.10838 0,0 1.271,-4.79684 2.5738,-6.86427 1.8198,-2.88798 4.613,-5.04123 7.098,-7.38154 2.3835,-2.24486 4.844,-4.42388 7.4756,-6.37213 3.3673,-2.49298 6.5419,-6.01259 10.591,-6.76894 z"
       id="path310" /><path
       id="path297"
       style="display:inline;fill:#654226;fill-opacity:1;stroke:#804930;stroke-width:2.42849;stroke-linejoin:round;stroke-opacity:1"
       d="m 1221.8134,443.18269 9.7827,0.40203 4.8913,0.20101 c 0,0 3.0752,0.26982 4.5123,-0.17802 1.2909,-0.40229 3.4268,-2.17108 3.4268,-2.17108 l 3.0477,-2.55013 6.0954,-5.10024 3.7714,-4.13128 -9.8264,-0.0973 -1.4647,-7.17148 4.5565,-0.26802 4.4212,0.0878 c 0,0 5.7873,0.0318 8.6619,0.32355 1.3668,0.13871 3.0022,-0.19343 4.0652,0.67678 1.0236,0.83802 1.5109,2.38989 1.4118,3.70907 -0.087,1.1566 -1.7096,3.03065 -1.7096,3.03065 l -1.8992,2.65163 -2.9673,3.10519 c 0,0 1.8716,26.65552 -0.98,39.52097 -1.1601,5.23408 -4.2756,9.83291 -6.4325,14.74102 -2.3765,5.40804 -5.6205,10.50572 -7.1716,16.20562 -1.6989,6.24349 -2.5221,12.82031 -2.2226,19.2839 0.1748,3.77497 2.3337,11.09421 2.3337,11.09421 -4.1404,2.21415 -8.5342,3.24632 -13.7396,0.49005 0,0 1.0457,-5.76993 1.4837,-8.66858 1.1413,-7.55319 0.8952,-15.37341 2.9807,-22.72215 1.6928,-5.9645 4.9925,-11.35207 7.6288,-16.96369 2.1578,-4.59273 5.4729,-8.74545 6.7007,-13.66896 2.5049,-10.04344 1.0259,-31.03632 1.0259,-31.03632 l -9.3181,7.86812 c -3.0427,1.43173 -6.382,1.65445 -6.382,1.65445 l -5.2933,-0.40203 -10.5867,-0.80406 -21.2267,-0.99139 c -1.1182,1.11816 -2.6629,1.80974 -4.3691,1.80976 -3.4125,2e-5 -6.179,-2.76633 -6.179,-6.17884 0,-3.41252 2.7665,-6.17887 6.179,-6.17884 1.7062,1e-5 3.2509,0.69159 4.3691,1.80975 z" /><path
       id="path338"
       style="display:inline;fill:none;stroke:#a26a3d;stroke-width:2.42849;stroke-linejoin:round;stroke-opacity:1"
       d="m 1221.8134,443.18269 9.7827,0.40203 4.8913,0.20101 c 0,0 3.0752,0.26982 4.5123,-0.17802 1.2909,-0.40229 3.4268,-2.17108 3.4268,-2.17108 l 3.0477,-2.55013 6.0954,-5.10024 3.7714,-4.13128 -9.8264,-0.0973 -1.4647,-7.17148 4.5565,-0.26802 4.4212,0.0878 c 0,0 5.7873,0.0318 8.6619,0.32355 1.3668,0.13871 3.0022,-0.19343 4.0652,0.67678 1.0236,0.83802 1.5109,2.38989 1.4118,3.70907 -0.087,1.1566 -1.7096,3.03065 -1.7096,3.03065 l -1.8992,2.65163 -2.9673,3.10519 c 0,0 1.8716,26.65552 -0.98,39.52097 -1.1601,5.23408 -4.2756,9.83291 -6.4325,14.74102 -2.3765,5.40804 -5.6205,10.50572 -7.1716,16.20562 -1.6989,6.24349 -2.5221,12.82031 -2.2226,19.2839 0.1748,3.77497 2.3337,11.09421 2.3337,11.09421 -4.1404,2.21415 -8.5342,3.24632 -13.7396,0.49005 0,0 1.0457,-5.76993 1.4837,-8.66858 1.1413,-7.55319 0.8952,-15.37341 2.9807,-22.72215 1.6928,-5.9645 4.9925,-11.35207 7.6288,-16.96369 2.1578,-4.59273 5.4729,-8.74545 6.7007,-13.66896 2.5049,-10.04344 1.0259,-31.03632 1.0259,-31.03632 l -9.3181,7.86812 c -3.0427,1.43173 -6.382,1.65445 -6.382,1.65445 l -5.2933,-0.40203 -10.5867,-0.80406 -21.2267,-0.99139 c -1.1182,1.11816 -2.6629,1.80974 -4.3691,1.80976 -3.4125,2e-5 -6.179,-2.76633 -6.179,-6.17884 0,-3.41252 2.7665,-6.17887 6.179,-6.17884 1.7062,1e-5 3.2509,0.69159 4.3691,1.80975 z" /><path
       style="fill:none;fill-opacity:1;stroke:#a26a3d;stroke-width:2.42849;stroke-linejoin:round;stroke-dasharray:none;stroke-opacity:1"
       d="m 1247.6991,536.60706 c 2.9573,0.98372 5.4944,3.55342 8.0405,5.35933 2.5475,1.82796 5.125,3.6167 7.6121,5.52582 2.5361,1.94659 5.1943,3.77486 7.4493,6.04112 1.8619,1.87127 4.9572,6.17582 4.9572,6.17582 0,0 1.9977,3.63123 1.4298,5.40686 -1.5874,4.9634 -7.2546,7.89271 -12.0251,9.98962 -7.0482,3.09805 -15.1901,2.91892 -22.8867,3.11014 -5.3369,0.13259 -10.8133,0.0629 -15.957,-1.36585 -6.3736,-1.77038 -13.5394,-3.69807 -17.8125,-8.74754 v -6e-5 c -0.9233,-1.09103 -1.2273,-4.10838 -1.2273,-4.10838 0,0 1.271,-4.79684 2.5738,-6.86427 1.8198,-2.88798 4.613,-5.04123 7.098,-7.38154 2.3835,-2.24486 4.844,-4.42388 7.4756,-6.37213 3.3673,-2.49298 6.5419,-6.01259 10.591,-6.76894"
       id="path339" /><path
       id="path340"
       style="display:inline;fill:none;fill-opacity:1;stroke:#a26a3d;stroke-width:2.42849;stroke-linejoin:round;stroke-dasharray:none;stroke-opacity:1"
       d="m 1277.3991,563.57312 0.2264,8.24963 c 0,8.90115 -15.4536,14.54224 -34.7818,14.54224 -19.3282,0 -35.5653,-6.26822 -35.5651,-15.16937 l 8e-4,-7.20168" /><path
       id="path341"
       style="display:inline;fill:none;fill-opacity:1;stroke:#56a131;stroke-width:2.42849;stroke-linejoin:round;stroke-dasharray:none;stroke-opacity:1"
       d="m 1247.8435,432.4495 c -0.087,-1.58458 -0.2388,-3.08579 -0.4848,-4.27193 -1.295,-6.24382 -2.7717,-13.06312 -7.0656,-17.7774 -5.2641,-5.7795 -13.2083,-10.11084 -20.8929,-10.65412 -7.8384,-0.55413 -18.7024,2.92537 -23.2491,6.11155 l -11.3728,6.92728 c -3.051,2.26157 -5.7772,4.96839 -8.288,7.81775 -4.7782,5.42237 -9.1307,11.21268 -12.775,17.5186 -2.8913,5.00315 -7.1094,15.94092 -7.1094,15.94092 0,0 22.9502,5.0542 34.5555,6.66417 13.1408,1.82296 38.247,3.37878 38.247,3.37878 l 4.473,-5.20283" /></g></svg>
