<?xml version="1.0" encoding="UTF-8"?>
<svg width="137.19" height="210.2" version="1.1" viewBox="0 0 137.19 210.2" xml:space="preserve" xmlns="http://www.w3.org/2000/svg"><g transform="matrix(1.1113 0 0 1.1113 -1284 -442.79)" stroke-linejoin="round"><path d="m1189.3 442.17s-1.3476 1.5017-1.4421 2.4424c-0.087 0.8647 0.8528 2.4637 0.8528 2.4637l1.8952 0.94758s-1.5801 1.3781-2.0847 2.2742c-0.3875 0.68805-0.9101 1.5241-0.6633 2.2742 0.2607 0.7921 1.9899 1.5162 1.9899 1.5162s-2.3689 2.0847-2.3689 2.8428 0.2842 2.2742 0.2842 2.2742l2.6532 1.5162s-2.1059 1.6409-2.4637 2.8428c-0.2001 0.6722-0.087 1.4902 0.2843 2.0847 0.4229 0.67579 1.9899 1.3266 1.9899 1.3266s-1.6891 1.0306-2.2742 1.8004c-0.394 0.51846-0.7438 1.1494-0.758 1.8004-0.019 0.90922 0.3822 1.8462 0.9476 2.5585 0.5345 0.67337 2.1521 1.4214 2.1521 1.4214s-1.77 0.61205-2.4364 1.2319c-0.5393 0.50177-1.0703 1.1615-1.1371 1.8952-0.098 1.075 0.4906 2.1678 1.1371 3.0323 0.5743 0.76761 2.2979 1.7292 2.2979 1.7292s-2.1141 1.3996-2.7718 2.4401c-0.2456 0.38878-0.3857 0.86679-0.3789 1.3266 0.012 0.72914 0.2365 1.4933 0.6632 2.0847 0.5027 0.69681 2.0847 1.5161 2.0847 1.5161s-2.0125 2.1211-2.6532 3.4113c-0.7798 1.5702-1.3562 5.0818-1.3562 5.0818l9.0775 0.18951s-0.5017-2.8842-1.183-4.1518c-0.9419-1.7524-3.8851-4.5308-3.8851-4.5308s2.6919-0.17608 3.5061-1.0897c0.5668-0.6359 0.6066-1.6697 0.4738-2.5111-0.1233-0.78189-0.6073-1.4966-1.1371-2.0847-0.6612-0.73397-2.44-1.6821-2.44-1.6821s3.1032-1.3502 3.6718-2.6768c0.5686-1.3266-0.5685-2.8428-0.9475-3.6008s-2.5858-1.6109-2.5858-1.6109 2.0918-1.4026 2.6806-2.4637c0.4149-0.74779 0.7697-1.7192 0.4737-2.5215-0.4775-1.2938-3.2218-2.5955-3.2218-2.5955s3.1124-1.2534 3.6956-2.6533c0.3075-0.7382 0.05-1.6938-0.379-2.369-0.4506-0.7101-2.0846-1.4214-2.0846-1.4214l2.4636-1.8004-0.5686-2.369-2.7479-1.8952 2.8428-1.6109s2.0846-2.4637-0.3791-3.4113c-2.4637-0.9476-2.2742-1.6109-2.2742-1.6109s2.658-1.8622 3.2218-2.369c1.1734-1.0548-0.045-3.5932-0.475-3.5675-0.026 1e-3 -1.8513-0.17983-1.8513-0.17983z" fill="#a2754e" stroke="#c49f84" stroke-linecap="round" stroke-width="2.1852"/><g transform="matrix(.91538 0 0 .989 124.45 -23.448)" stroke-width="2.5523"><path d="m1158.3 441.08c-3.3331 2.2867-6.3113 5.0236-9.0542 7.9047-5.2199 5.4827-9.9747 11.337-13.956 17.713-3.1586 5.0588-7.7665 16.118-7.7665 16.118s25.072 5.1104 37.75 6.7383c14.356 1.8432 41.782 3.4164 41.782 3.4164l20.097-21.636s0.5875-9.8941-0.4875-14.692c-1.4147-6.3132-3.0279-13.208-7.7187-17.975-5.7508-5.8438-14.429-10.223-22.824-10.773-8.9067-0.29742-11.465 0.60048-22.166 4.4639-11.587 6.448-11.143 5.6161-15.656 8.7199z" fill="#00621b" stroke="#56a131"/><path d="m1207.1 492.98s4.139-16.066 2.454-23.892c-1.8582-8.6314-6.3723-17.078-13.309-22.901-6.5326-5.4843-15.241-10.129-24.41-9.4482-2.1324 0.15843-4.199 0.65892-6.2015 1.4067-2.0025 0.74779-9.3848 5.5486-11.261 6.6962" fill="none" stroke="#488829" stroke-opacity=".41505"/></g><path d="m1229.4 464.11s3.7886-15.889 2.2463-23.629c-1.701-8.5365-5.8331-16.89-12.183-22.649-5.98-5.424-13.952-10.018-22.345-9.3443-1.9519 0.15669-3.8437 0.65167-5.6767 1.3912-1.8331 0.73957-8.5907 5.4875-10.308 6.6225" fill="none" stroke="#488829" stroke-linecap="round" stroke-opacity=".41505" stroke-width="2.4277"/><path d="m1207.3 563.99 70.12-0.42082 0.2264 8.2496c0 8.9012-15.454 14.542-34.782 14.542s-35.565-6.2682-35.565-15.169z" fill="#654226" stroke="#804930" stroke-width="2.4285"/><path d="m1247.7 536.61c2.9573 0.98372 5.4944 3.5534 8.0405 5.3593 2.5475 1.828 5.125 3.6167 7.6121 5.5258 2.5361 1.9466 5.1943 3.7749 7.4493 6.0411 1.8619 1.8713 4.9572 6.1758 4.9572 6.1758s1.9977 3.6312 1.4298 5.4069c-1.5874 4.9634-7.2546 7.8927-12.025 9.9896-7.0482 3.098-15.19 2.9189-22.887 3.1101-5.3369 0.13259-10.813 0.0629-15.957-1.3658-6.3736-1.7704-13.539-3.6981-17.812-8.7475v-6e-5c-0.9233-1.091-1.2273-4.1084-1.2273-4.1084s1.271-4.7968 2.5738-6.8643c1.8198-2.888 4.613-5.0412 7.098-7.3815 2.3835-2.2449 4.844-4.4239 7.4756-6.3721 3.3673-2.493 6.5419-6.0126 10.591-6.7689z" fill="#835125" stroke="#8e4923" stroke-width="2.4285"/><path d="m1221.8 443.18 14.674 0.60304s3.0752 0.26982 4.5123-0.17802c1.2909-0.40229 3.4268-2.1711 3.4268-2.1711l9.1431-7.6504 3.7714-4.1313-9.8264-0.0973-1.4647-7.1715 4.5565-0.26802 4.4212 0.0878s5.7873 0.0318 8.6619 0.32355c1.3668 0.13871 3.0022-0.19343 4.0652 0.67678 1.0236 0.83802 1.5109 2.3899 1.4118 3.7091-0.087 1.1566-1.7096 3.0306-1.7096 3.0306l-1.8992 2.6516-2.9673 3.1052s1.8716 26.656-0.98 39.521c-1.1601 5.2341-4.2756 9.8329-6.4325 14.741-2.3765 5.408-5.6205 10.506-7.1716 16.206-1.6989 6.2435-2.5221 12.82-2.2226 19.284 0.1748 3.775 2.3337 11.094 2.3337 11.094-4.1404 2.2142-8.5342 3.2463-13.74 0.49005 0 0 1.0457-5.7699 1.4837-8.6686 1.1413-7.5532 0.8952-15.373 2.9807-22.722 1.6928-5.9645 4.9925-11.352 7.6288-16.964 2.1578-4.5927 5.4729-8.7454 6.7007-13.669 2.5049-10.043 1.0259-31.036 1.0259-31.036l-9.3181 7.8681c-3.0427 1.4317-6.382 1.6544-6.382 1.6544l-15.88-1.2061-21.227-0.99139c-1.1182 1.1182-2.6629 1.8097-4.3691 1.8098-3.4125 2e-5 -6.179-2.7663-6.179-6.1788 0-3.4125 2.7665-6.1789 6.179-6.1788 1.7062 1e-5 3.2509 0.69159 4.3691 1.8098z" fill="#654226" stroke="#804930" stroke-width="2.4285"/><path d="m1221.8 443.18 14.674 0.60304s3.0752 0.26982 4.5123-0.17802c1.2909-0.40229 3.4268-2.1711 3.4268-2.1711l9.1431-7.6504 3.7714-4.1313-9.8264-0.0973-1.4647-7.1715 4.5565-0.26802 4.4212 0.0878s5.7873 0.0318 8.6619 0.32355c1.3668 0.13871 3.0022-0.19343 4.0652 0.67678 1.0236 0.83802 1.5109 2.3899 1.4118 3.7091-0.087 1.1566-1.7096 3.0306-1.7096 3.0306l-1.8992 2.6516-2.9673 3.1052s1.8716 26.656-0.98 39.521c-1.1601 5.2341-4.2756 9.8329-6.4325 14.741-2.3765 5.408-5.6205 10.506-7.1716 16.206-1.6989 6.2435-2.5221 12.82-2.2226 19.284 0.1748 3.775 2.3337 11.094 2.3337 11.094-4.1404 2.2142-8.5342 3.2463-13.74 0.49005 0 0 1.0457-5.7699 1.4837-8.6686 1.1413-7.5532 0.8952-15.373 2.9807-22.722 1.6928-5.9645 4.9925-11.352 7.6288-16.964 2.1578-4.5927 5.4729-8.7454 6.7007-13.669 2.5049-10.043 1.0259-31.036 1.0259-31.036l-9.3181 7.8681c-3.0427 1.4317-6.382 1.6544-6.382 1.6544l-15.88-1.2061-21.227-0.99139c-1.1182 1.1182-2.6629 1.8097-4.3691 1.8098-3.4125 2e-5 -6.179-2.7663-6.179-6.1788 0-3.4125 2.7665-6.1789 6.179-6.1788 1.7062 1e-5 3.2509 0.69159 4.3691 1.8098z" fill="none" stroke="#a26a3d" stroke-width="2.4285"/><path d="m1247.7 536.61c2.9573 0.98372 5.4944 3.5534 8.0405 5.3593 2.5475 1.828 5.125 3.6167 7.6121 5.5258 2.5361 1.9466 5.1943 3.7749 7.4493 6.0411 1.8619 1.8713 4.9572 6.1758 4.9572 6.1758s1.9977 3.6312 1.4298 5.4069c-1.5874 4.9634-7.2546 7.8927-12.025 9.9896-7.0482 3.098-15.19 2.9189-22.887 3.1101-5.3369 0.13259-10.813 0.0629-15.957-1.3658-6.3736-1.7704-13.539-3.6981-17.812-8.7475v-6e-5c-0.9233-1.091-1.2273-4.1084-1.2273-4.1084s1.271-4.7968 2.5738-6.8643c1.8198-2.888 4.613-5.0412 7.098-7.3815 2.3835-2.2449 4.844-4.4239 7.4756-6.3721 3.3673-2.493 6.5419-6.0126 10.591-6.7689" fill="none" stroke="#a26a3d" stroke-width="2.4285"/><path d="m1277.4 563.57 0.2264 8.2496c0 8.9012-15.454 14.542-34.782 14.542s-35.565-6.2682-35.565-15.169l8e-4 -7.2017" fill="none" stroke="#a26a3d" stroke-width="2.4285"/><path d="m1247.8 432.45c-0.087-1.5846-0.2388-3.0858-0.4848-4.2719-1.295-6.2438-2.7717-13.063-7.0656-17.777-5.2641-5.7795-13.208-10.111-20.893-10.654-7.8384-0.55413-18.702 2.9254-23.249 6.1116l-11.373 6.9273c-3.051 2.2616-5.7772 4.9684-8.288 7.8178-4.7782 5.4224-9.1307 11.213-12.775 17.519-2.8913 5.0032-7.1094 15.941-7.1094 15.941s22.95 5.0542 34.556 6.6642c13.141 1.823 38.247 3.3788 38.247 3.3788l4.473-5.2028" fill="none" stroke="#56a131" stroke-width="2.4285"/></g></svg>
