<?xml version="1.0" encoding="UTF-8" standalone="no"?>
<!DOCTYPE svg PUBLIC "-//W3C//DTD SVG 1.1//EN" "http://www.w3.org/Graphics/SVG/1.1/DTD/svg11.dtd">
<svg width="100%" height="100%" viewBox="0 0 190 100" version="1.1" xmlns="http://www.w3.org/2000/svg" xmlns:xlink="http://www.w3.org/1999/xlink" xml:space="preserve" xmlns:serif="http://www.serif.com/" style="fill-rule:evenodd;clip-rule:evenodd;stroke-linejoin:round;stroke-miterlimit:2;">
    <g transform="matrix(1,0,0,1,-1705.98,-952.799)">
        <g transform="matrix(1,0,0,1,0,22)">
            <g transform="matrix(0.902219,0,0,1,230.226,97.7959)">
                <g transform="matrix(50,0,0,50,1670.06,931.9)">
                    <path d="M0.46,-0.59C0.474,-0.59 0.483,-0.588 0.489,-0.583C0.494,-0.578 0.497,-0.57 0.497,-0.559L0.497,-0.446C0.497,-0.435 0.494,-0.427 0.489,-0.422C0.483,-0.417 0.474,-0.415 0.46,-0.415C0.448,-0.415 0.44,-0.419 0.435,-0.427C0.419,-0.457 0.397,-0.479 0.369,-0.495C0.341,-0.51 0.309,-0.518 0.272,-0.518C0.237,-0.518 0.209,-0.51 0.189,-0.493C0.169,-0.477 0.16,-0.454 0.16,-0.426C0.16,-0.413 0.163,-0.402 0.17,-0.393C0.177,-0.383 0.187,-0.376 0.199,-0.369C0.211,-0.363 0.224,-0.358 0.239,-0.354C0.255,-0.351 0.275,-0.347 0.301,-0.342C0.329,-0.336 0.351,-0.332 0.367,-0.328C0.384,-0.324 0.4,-0.319 0.416,-0.313C0.449,-0.299 0.474,-0.28 0.492,-0.256C0.511,-0.233 0.52,-0.2 0.52,-0.16C0.52,-0.126 0.512,-0.096 0.496,-0.07C0.48,-0.045 0.457,-0.025 0.425,-0.011C0.394,0.004 0.357,0.011 0.313,0.011C0.281,0.011 0.251,0.005 0.223,-0.007C0.195,-0.019 0.171,-0.036 0.15,-0.059L0.15,-0.021C0.15,-0.01 0.148,-0.001 0.142,0.003C0.137,0.008 0.127,0.011 0.114,0.011C0.1,0.011 0.091,0.008 0.085,0.003C0.08,-0.001 0.077,-0.01 0.077,-0.021L0.077,-0.167C0.077,-0.179 0.08,-0.187 0.085,-0.192C0.091,-0.197 0.1,-0.199 0.114,-0.199C0.128,-0.199 0.137,-0.192 0.142,-0.179C0.155,-0.141 0.177,-0.112 0.206,-0.092C0.235,-0.072 0.271,-0.062 0.313,-0.062C0.355,-0.062 0.387,-0.07 0.409,-0.088C0.432,-0.106 0.443,-0.13 0.443,-0.16C0.443,-0.18 0.438,-0.197 0.427,-0.209C0.417,-0.222 0.402,-0.233 0.383,-0.242C0.37,-0.247 0.357,-0.252 0.342,-0.255C0.328,-0.258 0.308,-0.263 0.282,-0.268C0.256,-0.273 0.233,-0.278 0.215,-0.283C0.197,-0.287 0.18,-0.293 0.165,-0.3C0.139,-0.312 0.119,-0.327 0.104,-0.347C0.09,-0.367 0.083,-0.394 0.083,-0.426C0.083,-0.46 0.09,-0.489 0.106,-0.514C0.123,-0.538 0.145,-0.557 0.174,-0.57C0.203,-0.584 0.236,-0.59 0.272,-0.59C0.301,-0.59 0.329,-0.585 0.355,-0.574C0.382,-0.563 0.405,-0.548 0.424,-0.529L0.424,-0.559C0.424,-0.57 0.427,-0.578 0.432,-0.583C0.438,-0.588 0.447,-0.59 0.46,-0.59Z" style="fill:rgb(3,0,81);fill-opacity:0.33;fill-rule:nonzero;stroke:white;stroke-width:0.02px;"/>
                </g>
                <g transform="matrix(50,0,0,50,1698.04,931.9)">
                    <path d="M0.304,-0.462C0.351,-0.462 0.392,-0.452 0.425,-0.433C0.458,-0.414 0.484,-0.388 0.502,-0.354C0.52,-0.32 0.53,-0.282 0.533,-0.238C0.533,-0.227 0.53,-0.219 0.525,-0.214C0.521,-0.21 0.513,-0.208 0.502,-0.208L0.148,-0.208C0.151,-0.159 0.165,-0.122 0.191,-0.097C0.218,-0.072 0.256,-0.06 0.304,-0.06C0.334,-0.06 0.364,-0.064 0.393,-0.071C0.422,-0.079 0.448,-0.089 0.47,-0.102C0.476,-0.105 0.481,-0.106 0.485,-0.106C0.497,-0.106 0.506,-0.098 0.513,-0.081C0.516,-0.074 0.518,-0.068 0.518,-0.062C0.518,-0.049 0.51,-0.039 0.496,-0.032C0.471,-0.019 0.441,-0.009 0.407,-0.001C0.373,0.007 0.339,0.011 0.304,0.011C0.255,0.011 0.213,0.001 0.178,-0.018C0.143,-0.036 0.117,-0.064 0.099,-0.099C0.08,-0.135 0.071,-0.177 0.071,-0.226C0.071,-0.272 0.081,-0.313 0.101,-0.349C0.121,-0.385 0.148,-0.413 0.184,-0.432C0.219,-0.452 0.259,-0.462 0.304,-0.462ZM0.304,-0.391C0.264,-0.391 0.231,-0.381 0.205,-0.36C0.179,-0.34 0.161,-0.312 0.153,-0.276L0.452,-0.276C0.445,-0.313 0.429,-0.342 0.404,-0.361C0.38,-0.381 0.347,-0.391 0.304,-0.391Z" style="fill:rgb(3,0,81);fill-opacity:0.33;fill-rule:nonzero;stroke:white;stroke-width:0.02px;"/>
                </g>
                <g transform="matrix(50,0,0,50,1726.02,931.9)">
                    <path d="M0.302,-0.462C0.363,-0.462 0.409,-0.448 0.439,-0.421C0.47,-0.394 0.485,-0.353 0.485,-0.299L0.485,-0.105C0.485,-0.079 0.496,-0.066 0.518,-0.066L0.535,-0.066C0.546,-0.066 0.554,-0.064 0.558,-0.059C0.563,-0.054 0.565,-0.045 0.565,-0.033C0.565,-0.021 0.563,-0.013 0.558,-0.007C0.554,-0.002 0.546,-0 0.535,-0L0.503,-0C0.482,-0 0.464,-0.005 0.449,-0.016C0.434,-0.026 0.424,-0.042 0.419,-0.063C0.393,-0.039 0.364,-0.021 0.333,-0.008C0.302,0.004 0.269,0.011 0.234,0.011C0.201,0.011 0.172,0.005 0.146,-0.006C0.121,-0.017 0.102,-0.034 0.087,-0.055C0.073,-0.077 0.066,-0.102 0.066,-0.132C0.066,-0.183 0.084,-0.221 0.121,-0.246C0.158,-0.27 0.205,-0.283 0.264,-0.283C0.315,-0.283 0.365,-0.274 0.412,-0.258L0.412,-0.299C0.412,-0.331 0.403,-0.354 0.385,-0.369C0.368,-0.384 0.339,-0.391 0.3,-0.391C0.275,-0.391 0.25,-0.388 0.224,-0.381C0.197,-0.374 0.172,-0.365 0.148,-0.353C0.143,-0.35 0.138,-0.348 0.133,-0.348C0.123,-0.348 0.114,-0.356 0.106,-0.372C0.103,-0.379 0.101,-0.386 0.101,-0.391C0.101,-0.403 0.107,-0.411 0.119,-0.417C0.146,-0.432 0.176,-0.443 0.207,-0.45C0.239,-0.458 0.27,-0.462 0.302,-0.462ZM0.264,-0.214C0.227,-0.214 0.197,-0.207 0.175,-0.194C0.154,-0.182 0.143,-0.161 0.143,-0.133C0.143,-0.11 0.151,-0.091 0.167,-0.078C0.184,-0.065 0.207,-0.058 0.237,-0.058C0.302,-0.058 0.36,-0.085 0.412,-0.139L0.412,-0.192C0.39,-0.199 0.366,-0.204 0.341,-0.208C0.315,-0.212 0.29,-0.214 0.264,-0.214Z" style="fill:rgb(3,0,81);fill-opacity:0.33;fill-rule:nonzero;stroke:white;stroke-width:0.02px;"/>
                </g>
                <g transform="matrix(50,0,0,50,1754,931.9)">
                    <path d="M0.449,-0.462C0.475,-0.462 0.498,-0.455 0.521,-0.442C0.534,-0.435 0.54,-0.424 0.54,-0.412C0.54,-0.406 0.539,-0.399 0.536,-0.392C0.529,-0.373 0.519,-0.364 0.507,-0.364C0.502,-0.364 0.498,-0.365 0.494,-0.368C0.478,-0.376 0.461,-0.381 0.442,-0.381C0.413,-0.381 0.384,-0.371 0.354,-0.35C0.324,-0.33 0.3,-0.303 0.281,-0.269C0.262,-0.235 0.252,-0.199 0.252,-0.161L0.252,-0.066L0.417,-0.066C0.428,-0.066 0.436,-0.064 0.44,-0.059C0.445,-0.054 0.448,-0.045 0.448,-0.033C0.448,-0.021 0.445,-0.013 0.44,-0.007C0.436,-0.002 0.428,-0 0.417,-0L0.103,-0C0.091,-0 0.083,-0.002 0.079,-0.007C0.074,-0.013 0.072,-0.021 0.072,-0.033C0.072,-0.045 0.074,-0.054 0.079,-0.059C0.083,-0.064 0.091,-0.066 0.103,-0.066L0.179,-0.066L0.179,-0.385L0.117,-0.385C0.106,-0.385 0.098,-0.387 0.093,-0.392C0.089,-0.397 0.086,-0.406 0.086,-0.418C0.086,-0.43 0.089,-0.438 0.093,-0.443C0.098,-0.449 0.106,-0.451 0.117,-0.451L0.217,-0.451C0.228,-0.451 0.236,-0.449 0.24,-0.443C0.245,-0.438 0.248,-0.43 0.248,-0.418L0.248,-0.319C0.263,-0.348 0.282,-0.373 0.304,-0.395C0.326,-0.416 0.35,-0.433 0.375,-0.444C0.4,-0.456 0.425,-0.462 0.449,-0.462Z" style="fill:rgb(3,0,81);fill-opacity:0.33;fill-rule:nonzero;stroke:white;stroke-width:0.02px;"/>
                </g>
                <g transform="matrix(50,0,0,50,1781.98,931.9)">
                    <path d="M0.476,-0.462C0.489,-0.462 0.498,-0.459 0.504,-0.455C0.509,-0.45 0.512,-0.442 0.512,-0.43L0.512,-0.289C0.512,-0.277 0.509,-0.269 0.504,-0.264C0.498,-0.259 0.489,-0.257 0.476,-0.257C0.462,-0.257 0.453,-0.259 0.447,-0.264C0.442,-0.269 0.439,-0.277 0.439,-0.289C0.439,-0.308 0.434,-0.326 0.423,-0.341C0.413,-0.357 0.397,-0.368 0.376,-0.377C0.356,-0.385 0.331,-0.39 0.302,-0.39C0.271,-0.39 0.243,-0.383 0.218,-0.369C0.194,-0.355 0.174,-0.335 0.16,-0.31C0.146,-0.285 0.139,-0.257 0.139,-0.226C0.139,-0.194 0.146,-0.166 0.159,-0.141C0.172,-0.116 0.191,-0.097 0.214,-0.083C0.238,-0.069 0.266,-0.062 0.297,-0.062C0.327,-0.062 0.356,-0.066 0.384,-0.075C0.413,-0.085 0.438,-0.098 0.461,-0.116C0.468,-0.121 0.475,-0.124 0.48,-0.124C0.49,-0.124 0.499,-0.117 0.507,-0.104C0.512,-0.095 0.514,-0.088 0.514,-0.08C0.514,-0.069 0.509,-0.059 0.499,-0.052C0.472,-0.032 0.442,-0.017 0.406,-0.006C0.371,0.005 0.334,0.011 0.297,0.011C0.251,0.011 0.21,0 0.174,-0.02C0.138,-0.041 0.111,-0.069 0.091,-0.104C0.072,-0.14 0.062,-0.181 0.062,-0.226C0.062,-0.271 0.072,-0.311 0.092,-0.347C0.112,-0.382 0.139,-0.411 0.175,-0.431C0.211,-0.452 0.251,-0.462 0.297,-0.462C0.326,-0.462 0.353,-0.457 0.377,-0.446C0.401,-0.435 0.422,-0.42 0.439,-0.401L0.439,-0.43C0.439,-0.442 0.442,-0.45 0.447,-0.455C0.453,-0.459 0.462,-0.462 0.476,-0.462Z" style="fill:rgb(3,0,81);fill-opacity:0.33;fill-rule:nonzero;stroke:white;stroke-width:0.02px;"/>
                </g>
                <g transform="matrix(50,0,0,50,1809.96,931.9)">
                    <path d="M0.156,-0.641C0.167,-0.641 0.175,-0.638 0.179,-0.633C0.184,-0.628 0.187,-0.619 0.187,-0.607L0.187,-0.364C0.208,-0.396 0.232,-0.42 0.26,-0.437C0.288,-0.453 0.318,-0.462 0.35,-0.462C0.38,-0.462 0.405,-0.455 0.427,-0.442C0.449,-0.43 0.466,-0.411 0.478,-0.387C0.489,-0.363 0.495,-0.335 0.495,-0.303L0.495,-0.066L0.535,-0.066C0.546,-0.066 0.554,-0.064 0.559,-0.059C0.563,-0.054 0.566,-0.045 0.566,-0.033C0.566,-0.021 0.563,-0.013 0.559,-0.007C0.554,-0.002 0.546,-0 0.535,-0L0.377,-0C0.366,-0 0.358,-0.002 0.353,-0.007C0.348,-0.013 0.346,-0.021 0.346,-0.033C0.346,-0.045 0.348,-0.054 0.353,-0.059C0.358,-0.064 0.366,-0.066 0.377,-0.066L0.422,-0.066L0.422,-0.295C0.422,-0.324 0.415,-0.347 0.402,-0.364C0.389,-0.381 0.369,-0.39 0.343,-0.39C0.315,-0.39 0.289,-0.382 0.265,-0.366C0.241,-0.35 0.222,-0.328 0.208,-0.3C0.194,-0.272 0.187,-0.241 0.187,-0.206L0.187,-0.066L0.231,-0.066C0.243,-0.066 0.25,-0.064 0.255,-0.059C0.26,-0.054 0.262,-0.045 0.262,-0.033C0.262,-0.021 0.26,-0.013 0.255,-0.007C0.25,-0.002 0.243,-0 0.231,-0L0.073,-0C0.062,-0 0.054,-0.002 0.049,-0.007C0.045,-0.013 0.042,-0.021 0.042,-0.033C0.042,-0.045 0.045,-0.054 0.049,-0.059C0.054,-0.064 0.062,-0.066 0.073,-0.066L0.113,-0.066L0.113,-0.574L0.068,-0.574C0.057,-0.574 0.049,-0.577 0.044,-0.582C0.04,-0.587 0.038,-0.595 0.038,-0.607C0.038,-0.619 0.04,-0.628 0.044,-0.633C0.049,-0.638 0.057,-0.641 0.068,-0.641L0.156,-0.641Z" style="fill:rgb(3,0,81);fill-opacity:0.33;fill-rule:nonzero;stroke:white;stroke-width:0.02px;"/>
                </g>
            </g>
            <g transform="matrix(0.22572,0,0,0.190086,1385.42,824.064)">
                <g transform="matrix(394.558,0,0,394.558,1419,873)">
                    <path d="M0.195,0.09C0.116,0.09 0.06,0.063 0.027,0.007C0.002,-0.036 -0.003,-0.083 0.01,-0.133C0.024,-0.183 0.05,-0.218 0.089,-0.238C0.107,-0.247 0.127,-0.251 0.148,-0.251C0.205,-0.251 0.243,-0.229 0.264,-0.186C0.273,-0.166 0.278,-0.148 0.278,-0.13C0.278,-0.113 0.274,-0.096 0.268,-0.08C0.254,-0.043 0.231,-0.025 0.2,-0.025C0.19,-0.025 0.183,-0.029 0.179,-0.036L0.178,-0.04C0.201,-0.04 0.218,-0.056 0.231,-0.089C0.238,-0.105 0.241,-0.121 0.241,-0.137C0.241,-0.153 0.237,-0.17 0.23,-0.187C0.217,-0.22 0.189,-0.236 0.146,-0.236C0.104,-0.236 0.07,-0.215 0.045,-0.174C0.028,-0.146 0.02,-0.117 0.02,-0.086C0.02,-0.073 0.021,-0.059 0.024,-0.046C0.035,0.005 0.064,0.039 0.11,0.057C0.131,0.065 0.157,0.069 0.188,0.069C0.219,0.069 0.248,0.062 0.274,0.047C0.302,0.033 0.323,0.014 0.34,-0.011C0.357,-0.036 0.371,-0.064 0.383,-0.094C0.395,-0.125 0.405,-0.159 0.412,-0.197C0.42,-0.235 0.427,-0.27 0.432,-0.304C0.447,-0.399 0.461,-0.465 0.473,-0.502C0.423,-0.505 0.397,-0.507 0.395,-0.507C0.319,-0.507 0.266,-0.482 0.236,-0.433C0.222,-0.41 0.215,-0.387 0.215,-0.364C0.215,-0.353 0.217,-0.342 0.22,-0.33C0.23,-0.298 0.247,-0.282 0.273,-0.282C0.273,-0.278 0.271,-0.274 0.266,-0.27C0.262,-0.267 0.257,-0.265 0.25,-0.265C0.22,-0.265 0.198,-0.281 0.186,-0.312C0.18,-0.327 0.177,-0.344 0.177,-0.362C0.177,-0.381 0.182,-0.401 0.193,-0.423C0.216,-0.474 0.259,-0.506 0.322,-0.52C0.341,-0.524 0.359,-0.526 0.375,-0.526C0.392,-0.526 0.426,-0.524 0.479,-0.519C0.503,-0.58 0.538,-0.61 0.582,-0.61C0.586,-0.61 0.589,-0.609 0.592,-0.606C0.595,-0.604 0.598,-0.601 0.599,-0.597C0.56,-0.597 0.533,-0.57 0.516,-0.517L0.532,-0.517C0.587,-0.517 0.625,-0.534 0.647,-0.569C0.656,-0.582 0.66,-0.594 0.66,-0.603C0.66,-0.628 0.651,-0.641 0.634,-0.641C0.637,-0.65 0.643,-0.655 0.652,-0.655C0.667,-0.655 0.678,-0.646 0.683,-0.626C0.685,-0.619 0.686,-0.613 0.686,-0.606C0.686,-0.587 0.678,-0.568 0.663,-0.55C0.635,-0.515 0.591,-0.498 0.531,-0.498L0.511,-0.498C0.502,-0.461 0.494,-0.415 0.49,-0.362C0.485,-0.308 0.479,-0.264 0.474,-0.229C0.468,-0.194 0.462,-0.162 0.454,-0.133C0.447,-0.103 0.437,-0.075 0.422,-0.046C0.409,-0.018 0.392,0.006 0.373,0.025C0.354,0.045 0.329,0.06 0.298,0.072C0.268,0.084 0.234,0.09 0.195,0.09Z" style="fill:white;fill-rule:nonzero;"/>
                </g>
                <g transform="matrix(394.558,0,0,394.558,1646.27,873)">
                    <path d="M0.175,-0.502C0.194,-0.552 0.204,-0.586 0.204,-0.604C0.204,-0.622 0.199,-0.632 0.19,-0.633C0.165,-0.633 0.139,-0.593 0.112,-0.512C0.085,-0.432 0.064,-0.349 0.049,-0.262C0.034,-0.177 0.026,-0.116 0.026,-0.08C0.026,-0.02 0.041,0.01 0.071,0.01C0.071,0.014 0.069,0.018 0.064,0.022C0.059,0.025 0.054,0.027 0.047,0.027C0.003,0.027 -0.018,-0.012 -0.018,-0.09C-0.018,-0.119 -0.013,-0.163 -0.002,-0.222C0.008,-0.282 0.022,-0.345 0.039,-0.41C0.056,-0.475 0.078,-0.531 0.106,-0.579C0.133,-0.628 0.161,-0.652 0.189,-0.652C0.211,-0.652 0.222,-0.638 0.222,-0.61C0.222,-0.588 0.216,-0.558 0.202,-0.52C0.177,-0.445 0.14,-0.371 0.092,-0.296C0.079,-0.276 0.068,-0.26 0.058,-0.248C0.055,-0.245 0.054,-0.246 0.054,-0.251C0.053,-0.261 0.055,-0.27 0.061,-0.278C0.105,-0.343 0.143,-0.418 0.175,-0.502Z" style="fill:white;fill-rule:nonzero;"/>
                </g>
                <g transform="matrix(394.558,0,0,394.558,1721.07,873)">
                    <path d="M0.175,-0.502C0.194,-0.552 0.204,-0.586 0.204,-0.604C0.204,-0.622 0.199,-0.632 0.19,-0.633C0.165,-0.633 0.139,-0.593 0.112,-0.512C0.085,-0.432 0.064,-0.349 0.049,-0.262C0.034,-0.177 0.026,-0.116 0.026,-0.08C0.026,-0.02 0.041,0.01 0.071,0.01C0.071,0.014 0.069,0.018 0.064,0.022C0.059,0.025 0.054,0.027 0.047,0.027C0.003,0.027 -0.018,-0.012 -0.018,-0.09C-0.018,-0.119 -0.013,-0.163 -0.002,-0.222C0.008,-0.282 0.022,-0.345 0.039,-0.41C0.056,-0.475 0.078,-0.531 0.106,-0.579C0.133,-0.628 0.161,-0.652 0.189,-0.652C0.211,-0.652 0.222,-0.638 0.222,-0.61C0.222,-0.588 0.216,-0.558 0.202,-0.52C0.177,-0.445 0.14,-0.371 0.092,-0.296C0.079,-0.276 0.068,-0.26 0.058,-0.248C0.055,-0.245 0.054,-0.246 0.054,-0.251C0.053,-0.261 0.055,-0.27 0.061,-0.278C0.105,-0.343 0.143,-0.418 0.175,-0.502Z" style="fill:white;fill-rule:nonzero;"/>
                </g>
                <g transform="matrix(394.558,0,0,394.558,1795.88,873)">
                    <path d="M0.02,-0.117C0.02,-0.052 0.043,-0.02 0.089,-0.02C0.106,-0.02 0.124,-0.027 0.142,-0.042C0.162,-0.058 0.179,-0.076 0.194,-0.098C0.229,-0.147 0.253,-0.187 0.266,-0.218L0.277,-0.24L0.298,-0.24C0.289,-0.219 0.276,-0.192 0.258,-0.161C0.241,-0.13 0.224,-0.104 0.208,-0.082C0.192,-0.061 0.173,-0.042 0.151,-0.024C0.129,-0.007 0.109,0.002 0.089,0.002C0.01,0.002 -0.03,-0.043 -0.03,-0.131C-0.03,-0.172 -0.018,-0.213 0.006,-0.254C0.039,-0.311 0.08,-0.34 0.129,-0.34C0.163,-0.34 0.18,-0.321 0.18,-0.284C0.18,-0.256 0.169,-0.227 0.148,-0.198C0.118,-0.157 0.083,-0.137 0.043,-0.136C0.037,-0.136 0.034,-0.139 0.032,-0.144L0.031,-0.147C0.059,-0.147 0.085,-0.165 0.11,-0.202C0.136,-0.238 0.149,-0.269 0.149,-0.294C0.149,-0.31 0.142,-0.318 0.13,-0.318C0.101,-0.318 0.075,-0.294 0.05,-0.244C0.03,-0.202 0.02,-0.159 0.02,-0.117Z" style="fill:white;fill-rule:nonzero;"/>
                </g>
                <g transform="matrix(394.558,0,0,394.558,1904.78,873)">
                    <path d="M0.214,-0.292C0.228,-0.292 0.234,-0.281 0.234,-0.258C0.234,-0.242 0.226,-0.196 0.208,-0.119C0.19,-0.043 0.175,0.02 0.161,0.07C0.147,0.121 0.134,0.158 0.122,0.182C0.109,0.206 0.094,0.231 0.077,0.255C0.06,0.28 0.041,0.297 0.02,0.306C-0.001,0.315 -0.025,0.319 -0.052,0.319C-0.103,0.319 -0.128,0.293 -0.128,0.242C-0.128,0.211 -0.117,0.178 -0.094,0.143C-0.061,0.091 -0.016,0.057 0.039,0.041C0.059,0.035 0.079,0.032 0.101,0.032C0.105,0.032 0.106,0.036 0.106,0.043C0.106,0.051 0.105,0.054 0.101,0.054C0.038,0.054 -0.015,0.079 -0.058,0.129C-0.089,0.166 -0.105,0.202 -0.105,0.237C-0.105,0.271 -0.091,0.291 -0.065,0.297L-0.052,0.298C-0.008,0.298 0.026,0.279 0.052,0.243C0.078,0.206 0.099,0.16 0.114,0.104C0.129,0.047 0.148,-0.041 0.171,-0.162L0.165,-0.162C0.107,-0.053 0.06,0.001 0.022,0.001C-0.02,0.001 -0.041,-0.031 -0.041,-0.094C-0.041,-0.131 -0.031,-0.171 -0.012,-0.215C0.015,-0.274 0.049,-0.313 0.09,-0.331C0.104,-0.337 0.118,-0.34 0.133,-0.34C0.148,-0.34 0.159,-0.336 0.168,-0.327C0.177,-0.319 0.181,-0.309 0.181,-0.298C0.181,-0.294 0.178,-0.291 0.173,-0.291C0.168,-0.292 0.166,-0.294 0.166,-0.299C0.166,-0.304 0.163,-0.308 0.158,-0.312C0.153,-0.316 0.146,-0.318 0.136,-0.318C0.102,-0.318 0.072,-0.288 0.045,-0.228C0.019,-0.172 0.006,-0.119 0.006,-0.069C0.006,-0.038 0.013,-0.022 0.026,-0.022C0.044,-0.022 0.067,-0.043 0.095,-0.085C0.138,-0.148 0.171,-0.209 0.195,-0.27C0.202,-0.285 0.208,-0.292 0.214,-0.292Z" style="fill:white;fill-rule:nonzero;"/>
                </g>
                <g transform="matrix(394.558,0,0,394.558,2027.25,873)">
                    <path d="M0.022,0.001C-0.02,0.001 -0.041,-0.031 -0.041,-0.094C-0.041,-0.131 -0.031,-0.171 -0.012,-0.215C0.015,-0.274 0.049,-0.313 0.09,-0.331C0.104,-0.337 0.118,-0.34 0.133,-0.34C0.148,-0.34 0.159,-0.336 0.168,-0.327C0.177,-0.319 0.181,-0.309 0.181,-0.298C0.181,-0.294 0.178,-0.291 0.173,-0.291C0.168,-0.292 0.166,-0.294 0.166,-0.299C0.166,-0.304 0.163,-0.308 0.158,-0.312C0.153,-0.316 0.146,-0.318 0.136,-0.318C0.102,-0.318 0.072,-0.288 0.045,-0.228C0.019,-0.172 0.006,-0.119 0.006,-0.069C0.006,-0.038 0.013,-0.022 0.026,-0.022C0.04,-0.022 0.057,-0.034 0.076,-0.057C0.096,-0.08 0.114,-0.107 0.13,-0.138C0.166,-0.203 0.187,-0.245 0.194,-0.264C0.2,-0.283 0.207,-0.292 0.214,-0.292C0.228,-0.292 0.234,-0.281 0.234,-0.258C0.234,-0.251 0.234,-0.243 0.232,-0.234C0.214,-0.149 0.205,-0.1 0.203,-0.086C0.202,-0.073 0.202,-0.063 0.202,-0.058C0.202,-0.032 0.208,-0.019 0.22,-0.019C0.234,-0.019 0.253,-0.038 0.278,-0.074C0.303,-0.111 0.325,-0.148 0.343,-0.185L0.37,-0.24L0.392,-0.24C0.389,-0.234 0.385,-0.225 0.379,-0.214C0.374,-0.203 0.365,-0.183 0.35,-0.155C0.335,-0.127 0.32,-0.103 0.306,-0.082C0.293,-0.06 0.278,-0.041 0.261,-0.023C0.244,-0.006 0.23,0.002 0.218,0.002C0.178,0.002 0.158,-0.026 0.158,-0.084C0.158,-0.103 0.161,-0.126 0.165,-0.151L0.159,-0.151C0.105,-0.05 0.059,0.001 0.022,0.001Z" style="fill:white;fill-rule:nonzero;"/>
                </g>
                <g transform="matrix(394.558,0,0,394.558,2173.08,873)">
                    <path d="M0.175,-0.502C0.194,-0.552 0.204,-0.586 0.204,-0.604C0.204,-0.622 0.199,-0.632 0.19,-0.633C0.165,-0.633 0.139,-0.593 0.112,-0.512C0.085,-0.432 0.064,-0.349 0.049,-0.262C0.034,-0.177 0.026,-0.116 0.026,-0.08C0.026,-0.02 0.041,0.01 0.071,0.01C0.071,0.014 0.069,0.018 0.064,0.022C0.059,0.025 0.054,0.027 0.047,0.027C0.003,0.027 -0.018,-0.012 -0.018,-0.09C-0.018,-0.119 -0.013,-0.163 -0.002,-0.222C0.008,-0.282 0.022,-0.345 0.039,-0.41C0.056,-0.475 0.078,-0.531 0.106,-0.579C0.133,-0.628 0.161,-0.652 0.189,-0.652C0.211,-0.652 0.222,-0.638 0.222,-0.61C0.222,-0.588 0.216,-0.558 0.202,-0.52C0.177,-0.445 0.14,-0.371 0.092,-0.296C0.079,-0.276 0.068,-0.26 0.058,-0.248C0.055,-0.245 0.054,-0.246 0.054,-0.251C0.053,-0.261 0.055,-0.27 0.061,-0.278C0.105,-0.343 0.143,-0.418 0.175,-0.502Z" style="fill:white;fill-rule:nonzero;"/>
                </g>
            </g>
            <g transform="matrix(0.902219,0,0,1,252.195,26.0914)">
                <g transform="matrix(41.6667,0,0,41.6667,1719.19,931.9)">
                    <path d="M0.509,-0.58C0.52,-0.58 0.528,-0.577 0.533,-0.572C0.538,-0.567 0.54,-0.558 0.54,-0.546L0.54,-0.362C0.54,-0.351 0.537,-0.343 0.532,-0.338C0.526,-0.333 0.517,-0.331 0.503,-0.331C0.49,-0.331 0.481,-0.333 0.475,-0.338C0.47,-0.343 0.467,-0.351 0.467,-0.362L0.467,-0.513L0.336,-0.513L0.336,-0.066L0.452,-0.066C0.463,-0.066 0.471,-0.064 0.475,-0.059C0.48,-0.054 0.482,-0.045 0.482,-0.033C0.482,-0.021 0.48,-0.013 0.475,-0.007C0.471,-0.002 0.463,-0 0.452,-0L0.148,-0C0.137,-0 0.129,-0.002 0.124,-0.007C0.119,-0.013 0.117,-0.021 0.117,-0.033C0.117,-0.045 0.119,-0.054 0.124,-0.059C0.129,-0.064 0.137,-0.066 0.148,-0.066L0.263,-0.066L0.263,-0.513L0.133,-0.513L0.133,-0.362C0.133,-0.351 0.13,-0.343 0.125,-0.338C0.119,-0.333 0.11,-0.331 0.096,-0.331C0.083,-0.331 0.073,-0.333 0.068,-0.338C0.062,-0.343 0.06,-0.351 0.06,-0.362L0.06,-0.546C0.06,-0.558 0.062,-0.567 0.066,-0.572C0.071,-0.577 0.079,-0.58 0.09,-0.58L0.509,-0.58Z" style="fill:rgb(3,0,81);fill-opacity:0.33;fill-rule:nonzero;stroke:white;stroke-width:0.03px;"/>
                </g>
                <g transform="matrix(41.6667,0,0,41.6667,1742.51,931.9)">
                    <path d="M0.156,-0.641C0.167,-0.641 0.175,-0.638 0.179,-0.633C0.184,-0.628 0.187,-0.619 0.187,-0.607L0.187,-0.364C0.208,-0.396 0.232,-0.42 0.26,-0.437C0.288,-0.453 0.318,-0.462 0.35,-0.462C0.38,-0.462 0.405,-0.455 0.427,-0.442C0.449,-0.43 0.466,-0.411 0.478,-0.387C0.489,-0.363 0.495,-0.335 0.495,-0.303L0.495,-0.066L0.535,-0.066C0.546,-0.066 0.554,-0.064 0.559,-0.059C0.563,-0.054 0.566,-0.045 0.566,-0.033C0.566,-0.021 0.563,-0.013 0.559,-0.007C0.554,-0.002 0.546,-0 0.535,-0L0.377,-0C0.366,-0 0.358,-0.002 0.353,-0.007C0.348,-0.013 0.346,-0.021 0.346,-0.033C0.346,-0.045 0.348,-0.054 0.353,-0.059C0.358,-0.064 0.366,-0.066 0.377,-0.066L0.422,-0.066L0.422,-0.295C0.422,-0.324 0.415,-0.347 0.402,-0.364C0.389,-0.381 0.369,-0.39 0.343,-0.39C0.315,-0.39 0.289,-0.382 0.265,-0.366C0.241,-0.35 0.222,-0.328 0.208,-0.3C0.194,-0.272 0.187,-0.241 0.187,-0.206L0.187,-0.066L0.231,-0.066C0.243,-0.066 0.25,-0.064 0.255,-0.059C0.26,-0.054 0.262,-0.045 0.262,-0.033C0.262,-0.021 0.26,-0.013 0.255,-0.007C0.25,-0.002 0.243,-0 0.231,-0L0.073,-0C0.062,-0 0.054,-0.002 0.049,-0.007C0.045,-0.013 0.042,-0.021 0.042,-0.033C0.042,-0.045 0.045,-0.054 0.049,-0.059C0.054,-0.064 0.062,-0.066 0.073,-0.066L0.113,-0.066L0.113,-0.574L0.068,-0.574C0.057,-0.574 0.049,-0.577 0.044,-0.582C0.04,-0.587 0.038,-0.595 0.038,-0.607C0.038,-0.619 0.04,-0.628 0.044,-0.633C0.049,-0.638 0.057,-0.641 0.068,-0.641L0.156,-0.641Z" style="fill:rgb(3,0,81);fill-opacity:0.33;fill-rule:nonzero;stroke:white;stroke-width:0.03px;"/>
                </g>
                <g transform="matrix(41.6667,0,0,41.6667,1765.83,931.9)">
                    <path d="M0.304,-0.462C0.351,-0.462 0.392,-0.452 0.425,-0.433C0.458,-0.414 0.484,-0.388 0.502,-0.354C0.52,-0.32 0.53,-0.282 0.533,-0.238C0.533,-0.227 0.53,-0.219 0.525,-0.214C0.521,-0.21 0.513,-0.208 0.502,-0.208L0.148,-0.208C0.151,-0.159 0.165,-0.122 0.191,-0.097C0.218,-0.072 0.256,-0.06 0.304,-0.06C0.334,-0.06 0.364,-0.064 0.393,-0.071C0.422,-0.079 0.448,-0.089 0.47,-0.102C0.476,-0.105 0.481,-0.106 0.485,-0.106C0.497,-0.106 0.506,-0.098 0.513,-0.081C0.516,-0.074 0.518,-0.068 0.518,-0.062C0.518,-0.049 0.51,-0.039 0.496,-0.032C0.471,-0.019 0.441,-0.009 0.407,-0.001C0.373,0.007 0.339,0.011 0.304,0.011C0.255,0.011 0.213,0.001 0.178,-0.018C0.143,-0.036 0.117,-0.064 0.099,-0.099C0.08,-0.135 0.071,-0.177 0.071,-0.226C0.071,-0.272 0.081,-0.313 0.101,-0.349C0.121,-0.385 0.148,-0.413 0.184,-0.432C0.219,-0.452 0.259,-0.462 0.304,-0.462ZM0.304,-0.391C0.264,-0.391 0.231,-0.381 0.205,-0.36C0.179,-0.34 0.161,-0.312 0.153,-0.276L0.452,-0.276C0.445,-0.313 0.429,-0.342 0.404,-0.361C0.38,-0.381 0.347,-0.391 0.304,-0.391Z" style="fill:rgb(3,0,81);fill-opacity:0.33;fill-rule:nonzero;stroke:white;stroke-width:0.03px;"/>
                </g>
            </g>
        </g>
    </g>
</svg>
