<?xml version="1.0" encoding="UTF-8"?>
<!DOCTYPE svg  PUBLIC '-//W3C//DTD SVG 1.1//EN'  'http://www.w3.org/Graphics/SVG/1.1/DTD/svg11.dtd'>
<svg clip-rule="evenodd" fill-rule="evenodd" stroke-linejoin="round" stroke-miterlimit="2" version="1.1" viewBox="0 0 190 100" xml:space="preserve" xmlns="http://www.w3.org/2000/svg">
    <g transform="translate(-1706 -952.8)">
        <g transform="translate(0 22)">
            <g transform="matrix(.90222 0 0 1 230.23 97.796)">
                <g transform="matrix(50 0 0 50 1670.1 931.9)">
                    <path d="m0.46-0.59c0.014 0 0.023 2e-3 0.029 7e-3 5e-3 5e-3 8e-3 0.013 8e-3 0.024v0.113c0 0.011-3e-3 0.019-8e-3 0.024-6e-3 5e-3 -0.015 7e-3 -0.029 7e-3 -0.012 0-0.02-4e-3 -0.025-0.012-0.016-0.03-0.038-0.052-0.066-0.068-0.028-0.015-0.06-0.023-0.097-0.023-0.035 0-0.063 8e-3 -0.083 0.025-0.02 0.016-0.029 0.039-0.029 0.067 0 0.013 3e-3 0.024 0.01 0.033 7e-3 0.01 0.017 0.017 0.029 0.024 0.012 6e-3 0.025 0.011 0.04 0.015 0.016 3e-3 0.036 7e-3 0.062 0.012 0.028 6e-3 0.05 0.01 0.066 0.014 0.017 4e-3 0.033 9e-3 0.049 0.015 0.033 0.014 0.058 0.033 0.076 0.057 0.019 0.023 0.028 0.056 0.028 0.096 0 0.034-8e-3 0.064-0.024 0.09-0.016 0.025-0.039 0.045-0.071 0.059-0.031 0.015-0.068 0.022-0.112 0.022-0.032 0-0.062-6e-3 -0.09-0.018s-0.052-0.029-0.073-0.052v0.038c0 0.011-2e-3 0.02-8e-3 0.024-5e-3 5e-3 -0.015 8e-3 -0.028 8e-3 -0.014 0-0.023-3e-3 -0.029-8e-3 -5e-3 -4e-3 -8e-3 -0.013-8e-3 -0.024v-0.146c0-0.012 3e-3 -0.02 8e-3 -0.025 6e-3 -5e-3 0.015-7e-3 0.029-7e-3s0.023 7e-3 0.028 0.02c0.013 0.038 0.035 0.067 0.064 0.087s0.065 0.03 0.107 0.03 0.074-8e-3 0.096-0.026c0.023-0.018 0.034-0.042 0.034-0.072 0-0.02-5e-3 -0.037-0.016-0.049-0.01-0.013-0.025-0.024-0.044-0.033-0.013-5e-3 -0.026-0.01-0.041-0.013-0.014-3e-3 -0.034-8e-3 -0.06-0.013s-0.049-0.01-0.067-0.015c-0.018-4e-3 -0.035-0.01-0.05-0.017-0.026-0.012-0.046-0.027-0.061-0.047-0.014-0.02-0.021-0.047-0.021-0.079 0-0.034 7e-3 -0.063 0.023-0.088 0.017-0.024 0.039-0.043 0.068-0.056 0.029-0.014 0.062-0.02 0.098-0.02 0.029 0 0.057 5e-3 0.083 0.016 0.027 0.011 0.05 0.026 0.069 0.045v-0.03c0-0.011 3e-3 -0.019 8e-3 -0.024 6e-3 -5e-3 0.015-7e-3 0.028-7e-3z" fill="#030051" fill-opacity=".33" fill-rule="nonzero" stroke="#fff" stroke-width=".02px"/>
                </g>
                <g transform="matrix(50 0 0 50 1698 931.9)">
                    <path d="m0.304-0.462c0.047 0 0.088 0.01 0.121 0.029s0.059 0.045 0.077 0.079 0.028 0.072 0.031 0.116c0 0.011-3e-3 0.019-8e-3 0.024-4e-3 4e-3 -0.012 6e-3 -0.023 6e-3h-0.354c3e-3 0.049 0.017 0.086 0.043 0.111 0.027 0.025 0.065 0.037 0.113 0.037 0.03 0 0.06-4e-3 0.089-0.011 0.029-8e-3 0.055-0.018 0.077-0.031 6e-3 -3e-3 0.011-4e-3 0.015-4e-3 0.012 0 0.021 8e-3 0.028 0.025 3e-3 7e-3 5e-3 0.013 5e-3 0.019 0 0.013-8e-3 0.023-0.022 0.03-0.025 0.013-0.055 0.023-0.089 0.031s-0.068 0.012-0.103 0.012c-0.049 0-0.091-0.01-0.126-0.029-0.035-0.018-0.061-0.046-0.079-0.081-0.019-0.036-0.028-0.078-0.028-0.127 0-0.046 0.01-0.087 0.03-0.123s0.047-0.064 0.083-0.083c0.035-0.02 0.075-0.03 0.12-0.03zm0 0.071c-0.04 0-0.073 0.01-0.099 0.031-0.026 0.02-0.044 0.048-0.052 0.084h0.299c-7e-3 -0.037-0.023-0.066-0.048-0.085-0.024-0.02-0.057-0.03-0.1-0.03z" fill="#030051" fill-opacity=".33" fill-rule="nonzero" stroke="#fff" stroke-width=".02px"/>
                </g>
                <g transform="matrix(50 0 0 50 1726 931.9)">
                    <path d="m0.302-0.462c0.061 0 0.107 0.014 0.137 0.041 0.031 0.027 0.046 0.068 0.046 0.122v0.194c0 0.026 0.011 0.039 0.033 0.039h0.017c0.011 0 0.019 2e-3 0.023 7e-3 5e-3 5e-3 7e-3 0.014 7e-3 0.026s-2e-3 0.02-7e-3 0.026c-4e-3 5e-3 -0.012 7e-3 -0.023 7e-3h-0.032c-0.021-0-0.039-5e-3 -0.054-0.016-0.015-0.01-0.025-0.026-0.03-0.047-0.026 0.024-0.055 0.042-0.086 0.055-0.031 0.012-0.064 0.019-0.099 0.019-0.033 0-0.062-6e-3 -0.088-0.017-0.025-0.011-0.044-0.028-0.059-0.049-0.014-0.022-0.021-0.047-0.021-0.077 0-0.051 0.018-0.089 0.055-0.114 0.037-0.024 0.084-0.037 0.143-0.037 0.051 0 0.101 9e-3 0.148 0.025v-0.041c0-0.032-9e-3 -0.055-0.027-0.07-0.017-0.015-0.046-0.022-0.085-0.022-0.025 0-0.05 3e-3 -0.076 0.01-0.027 7e-3 -0.052 0.016-0.076 0.028-5e-3 3e-3 -0.01 5e-3 -0.015 5e-3 -0.01 0-0.019-8e-3 -0.027-0.024-3e-3 -7e-3 -5e-3 -0.014-5e-3 -0.019 0-0.012 6e-3 -0.02 0.018-0.026 0.027-0.015 0.057-0.026 0.088-0.033 0.032-8e-3 0.063-0.012 0.095-0.012zm-0.038 0.248c-0.037 0-0.067 7e-3 -0.089 0.02-0.021 0.012-0.032 0.033-0.032 0.061 0 0.023 8e-3 0.042 0.024 0.055 0.017 0.013 0.04 0.02 0.07 0.02 0.065 0 0.123-0.027 0.175-0.081v-0.053c-0.022-7e-3 -0.046-0.012-0.071-0.016-0.026-4e-3 -0.051-6e-3 -0.077-6e-3z" fill="#030051" fill-opacity=".33" fill-rule="nonzero" stroke="#fff" stroke-width=".02px"/>
                </g>
                <g transform="matrix(50,0,0,50,1754,931.9)">
                    <path d="m0.449-0.462c0.026 0 0.049 7e-3 0.072 0.02 0.013 7e-3 0.019 0.018 0.019 0.03 0 6e-3 -1e-3 0.013-4e-3 0.02-7e-3 0.019-0.017 0.028-0.029 0.028-5e-3 0-9e-3 -1e-3 -0.013-4e-3 -0.016-8e-3 -0.033-0.013-0.052-0.013-0.029 0-0.058 0.01-0.088 0.031-0.03 0.02-0.054 0.047-0.073 0.081s-0.029 0.07-0.029 0.108v0.095h0.165c0.011 0 0.019 2e-3 0.023 7e-3 5e-3 5e-3 8e-3 0.014 8e-3 0.026s-3e-3 0.02-8e-3 0.026c-4e-3 5e-3 -0.012 7e-3 -0.023 7e-3h-0.314c-0.012-0-0.02-2e-3 -0.024-7e-3 -5e-3 -6e-3 -7e-3 -0.014-7e-3 -0.026s2e-3 -0.021 7e-3 -0.026c4e-3 -5e-3 0.012-7e-3 0.024-7e-3h0.076v-0.319h-0.062c-0.011 0-0.019-2e-3 -0.024-7e-3 -4e-3 -5e-3 -7e-3 -0.014-7e-3 -0.026s3e-3 -0.02 7e-3 -0.025c5e-3 -6e-3 0.013-8e-3 0.024-8e-3h0.1c0.011 0 0.019 2e-3 0.023 8e-3 5e-3 5e-3 8e-3 0.013 8e-3 0.025v0.099c0.015-0.029 0.034-0.054 0.056-0.076 0.022-0.021 0.046-0.038 0.071-0.049 0.025-0.012 0.05-0.018 0.074-0.018z" fill="#030051" fill-opacity=".33" fill-rule="nonzero" stroke="#fff" stroke-width=".02px"/>
                </g>
                <g transform="matrix(50 0 0 50 1782 931.9)">
                    <path d="m0.476-0.462c0.013 0 0.022 3e-3 0.028 7e-3 5e-3 5e-3 8e-3 0.013 8e-3 0.025v0.141c0 0.012-3e-3 0.02-8e-3 0.025-6e-3 5e-3 -0.015 7e-3 -0.028 7e-3 -0.014 0-0.023-2e-3 -0.029-7e-3 -5e-3 -5e-3 -8e-3 -0.013-8e-3 -0.025 0-0.019-5e-3 -0.037-0.016-0.052-0.01-0.016-0.026-0.027-0.047-0.036-0.02-8e-3 -0.045-0.013-0.074-0.013-0.031 0-0.059 7e-3 -0.084 0.021-0.024 0.014-0.044 0.034-0.058 0.059s-0.021 0.053-0.021 0.084c0 0.032 7e-3 0.06 0.02 0.085s0.032 0.044 0.055 0.058c0.024 0.014 0.052 0.021 0.083 0.021 0.03 0 0.059-4e-3 0.087-0.013 0.029-0.01 0.054-0.023 0.077-0.041 7e-3 -5e-3 0.014-8e-3 0.019-8e-3 0.01 0 0.019 7e-3 0.027 0.02 5e-3 9e-3 7e-3 0.016 7e-3 0.024 0 0.011-5e-3 0.021-0.015 0.028-0.027 0.02-0.057 0.035-0.093 0.046-0.035 0.011-0.072 0.017-0.109 0.017-0.046 0-0.087-0.011-0.123-0.031-0.036-0.021-0.063-0.049-0.083-0.084-0.019-0.036-0.029-0.077-0.029-0.122s0.01-0.085 0.03-0.121c0.02-0.035 0.047-0.064 0.083-0.084 0.036-0.021 0.076-0.031 0.122-0.031 0.029 0 0.056 5e-3 0.08 0.016s0.045 0.026 0.062 0.045v-0.029c0-0.012 3e-3 -0.02 8e-3 -0.025 6e-3 -4e-3 0.015-7e-3 0.029-7e-3z" fill="#030051" fill-opacity=".33" fill-rule="nonzero" stroke="#fff" stroke-width=".02px"/>
                </g>
                <g transform="matrix(50 0 0 50 1810 931.9)">
                    <path d="m0.156-0.641c0.011 0 0.019 3e-3 0.023 8e-3 5e-3 5e-3 8e-3 0.014 8e-3 0.026v0.243c0.021-0.032 0.045-0.056 0.073-0.073 0.028-0.016 0.058-0.025 0.09-0.025 0.03 0 0.055 7e-3 0.077 0.02 0.022 0.012 0.039 0.031 0.051 0.055 0.011 0.024 0.017 0.052 0.017 0.084v0.237h0.04c0.011 0 0.019 2e-3 0.024 7e-3 4e-3 5e-3 7e-3 0.014 7e-3 0.026s-3e-3 0.02-7e-3 0.026c-5e-3 5e-3 -0.013 7e-3 -0.024 7e-3h-0.158c-0.011-0-0.019-2e-3 -0.024-7e-3 -5e-3 -6e-3 -7e-3 -0.014-7e-3 -0.026s2e-3 -0.021 7e-3 -0.026 0.013-7e-3 0.024-7e-3h0.045v-0.229c0-0.029-7e-3 -0.052-0.02-0.069s-0.033-0.026-0.059-0.026c-0.028 0-0.054 8e-3 -0.078 0.024s-0.043 0.038-0.057 0.066-0.021 0.059-0.021 0.094v0.14h0.044c0.012 0 0.019 2e-3 0.024 7e-3s7e-3 0.014 7e-3 0.026-2e-3 0.02-7e-3 0.026c-5e-3 5e-3 -0.012 7e-3 -0.024 7e-3h-0.158c-0.011-0-0.019-2e-3 -0.024-7e-3 -4e-3 -6e-3 -7e-3 -0.014-7e-3 -0.026s3e-3 -0.021 7e-3 -0.026c5e-3 -5e-3 0.013-7e-3 0.024-7e-3h0.04v-0.508h-0.045c-0.011 0-0.019-3e-3 -0.024-8e-3 -4e-3 -5e-3 -6e-3 -0.013-6e-3 -0.025s2e-3 -0.021 6e-3 -0.026c5e-3 -5e-3 0.013-8e-3 0.024-8e-3h0.088z" fill="#030051" fill-opacity=".33" fill-rule="nonzero" stroke="#fff" stroke-width=".02px"/>
                </g>
            </g>
            <g transform="matrix(.22572 0 0 .19009 1385.4 824.06)">
                <g transform="matrix(394.56 0 0 394.56 1419 873)">
                    <path d="m0.195 0.09c-0.079 0-0.135-0.027-0.168-0.083-0.025-0.043-0.03-0.09-0.017-0.14 0.014-0.05 0.04-0.085 0.079-0.105 0.018-9e-3 0.038-0.013 0.059-0.013 0.057 0 0.095 0.022 0.116 0.065 9e-3 0.02 0.014 0.038 0.014 0.056 0 0.017-4e-3 0.034-0.01 0.05-0.014 0.037-0.037 0.055-0.068 0.055-0.01 0-0.017-4e-3 -0.021-0.011l-1e-3 -4e-3c0.023 0 0.04-0.016 0.053-0.049 7e-3 -0.016 0.01-0.032 0.01-0.048s-4e-3 -0.033-0.011-0.05c-0.013-0.033-0.041-0.049-0.084-0.049-0.042 0-0.076 0.021-0.101 0.062-0.017 0.028-0.025 0.057-0.025 0.088 0 0.013 1e-3 0.027 4e-3 0.04 0.011 0.051 0.04 0.085 0.086 0.103 0.021 8e-3 0.047 0.012 0.078 0.012s0.06-7e-3 0.086-0.022c0.028-0.014 0.049-0.033 0.066-0.058s0.031-0.053 0.043-0.083c0.012-0.031 0.022-0.065 0.029-0.103 8e-3 -0.038 0.015-0.073 0.02-0.107 0.015-0.095 0.029-0.161 0.041-0.198-0.05-3e-3 -0.076-5e-3 -0.078-5e-3 -0.076 0-0.129 0.025-0.159 0.074-0.014 0.023-0.021 0.046-0.021 0.069 0 0.011 2e-3 0.022 5e-3 0.034 0.01 0.032 0.027 0.048 0.053 0.048 0 4e-3 -2e-3 8e-3 -7e-3 0.012-4e-3 3e-3 -9e-3 5e-3 -0.016 5e-3 -0.03 0-0.052-0.016-0.064-0.047-6e-3 -0.015-9e-3 -0.032-9e-3 -0.05 0-0.019 5e-3 -0.039 0.016-0.061 0.023-0.051 0.066-0.083 0.129-0.097 0.019-4e-3 0.037-6e-3 0.053-6e-3 0.017 0 0.051 2e-3 0.104 7e-3 0.024-0.061 0.059-0.091 0.103-0.091 4e-3 0 7e-3 1e-3 0.01 4e-3 3e-3 2e-3 6e-3 5e-3 7e-3 9e-3 -0.039 0-0.066 0.027-0.083 0.08h0.016c0.055 0 0.093-0.017 0.115-0.052 9e-3 -0.013 0.013-0.025 0.013-0.034 0-0.025-9e-3 -0.038-0.026-0.038 3e-3 -9e-3 9e-3 -0.014 0.018-0.014 0.015 0 0.026 9e-3 0.031 0.029 2e-3 7e-3 3e-3 0.013 3e-3 0.02 0 0.019-8e-3 0.038-0.023 0.056-0.028 0.035-0.072 0.052-0.132 0.052h-0.02c-9e-3 0.037-0.017 0.083-0.021 0.136-5e-3 0.054-0.011 0.098-0.016 0.133-6e-3 0.035-0.012 0.067-0.02 0.096-7e-3 0.03-0.017 0.058-0.032 0.087-0.013 0.028-0.03 0.052-0.049 0.071-0.019 0.02-0.044 0.035-0.075 0.047-0.03 0.012-0.064 0.018-0.103 0.018z" fill="#fff" fill-rule="nonzero"/>
                </g>
                <g transform="matrix(394.56 0 0 394.56 1646.3 873)">
                    <path d="m0.175-0.502c0.019-0.05 0.029-0.084 0.029-0.102s-5e-3 -0.028-0.014-0.029c-0.025 0-0.051 0.04-0.078 0.121-0.027 0.08-0.048 0.163-0.063 0.25-0.015 0.085-0.023 0.146-0.023 0.182 0 0.06 0.015 0.09 0.045 0.09 0 4e-3 -2e-3 8e-3 -7e-3 0.012-5e-3 3e-3 -0.01 5e-3 -0.017 5e-3 -0.044 0-0.065-0.039-0.065-0.117 0-0.029 5e-3 -0.073 0.016-0.132 0.01-0.06 0.024-0.123 0.041-0.188s0.039-0.121 0.067-0.169c0.027-0.049 0.055-0.073 0.083-0.073 0.022 0 0.033 0.014 0.033 0.042 0 0.022-6e-3 0.052-0.02 0.09-0.025 0.075-0.062 0.149-0.11 0.224-0.013 0.02-0.024 0.036-0.034 0.048-3e-3 3e-3 -4e-3 2e-3 -4e-3 -3e-3 -1e-3 -0.01 1e-3 -0.019 7e-3 -0.027 0.044-0.065 0.082-0.14 0.114-0.224z" fill="#fff" fill-rule="nonzero"/>
                </g>
                <g transform="matrix(394.56 0 0 394.56 1721.1 873)">
                    <path d="m0.175-0.502c0.019-0.05 0.029-0.084 0.029-0.102s-5e-3 -0.028-0.014-0.029c-0.025 0-0.051 0.04-0.078 0.121-0.027 0.08-0.048 0.163-0.063 0.25-0.015 0.085-0.023 0.146-0.023 0.182 0 0.06 0.015 0.09 0.045 0.09 0 4e-3 -2e-3 8e-3 -7e-3 0.012-5e-3 3e-3 -0.01 5e-3 -0.017 5e-3 -0.044 0-0.065-0.039-0.065-0.117 0-0.029 5e-3 -0.073 0.016-0.132 0.01-0.06 0.024-0.123 0.041-0.188s0.039-0.121 0.067-0.169c0.027-0.049 0.055-0.073 0.083-0.073 0.022 0 0.033 0.014 0.033 0.042 0 0.022-6e-3 0.052-0.02 0.09-0.025 0.075-0.062 0.149-0.11 0.224-0.013 0.02-0.024 0.036-0.034 0.048-3e-3 3e-3 -4e-3 2e-3 -4e-3 -3e-3 -1e-3 -0.01 1e-3 -0.019 7e-3 -0.027 0.044-0.065 0.082-0.14 0.114-0.224z" fill="#fff" fill-rule="nonzero"/>
                </g>
                <g transform="matrix(394.56 0 0 394.56 1795.9 873)">
                    <path d="m0.02-0.117c0 0.065 0.023 0.097 0.069 0.097 0.017 0 0.035-7e-3 0.053-0.022 0.02-0.016 0.037-0.034 0.052-0.056 0.035-0.049 0.059-0.089 0.072-0.12l0.011-0.022h0.021c-9e-3 0.021-0.022 0.048-0.04 0.079-0.017 0.031-0.034 0.057-0.05 0.079-0.016 0.021-0.035 0.04-0.057 0.058-0.022 0.017-0.042 0.026-0.062 0.026-0.079 0-0.119-0.045-0.119-0.133 0-0.041 0.012-0.082 0.036-0.123 0.033-0.057 0.074-0.086 0.123-0.086 0.034 0 0.051 0.019 0.051 0.056 0 0.028-0.011 0.057-0.032 0.086-0.03 0.041-0.065 0.061-0.105 0.062-6e-3 0-9e-3 -3e-3 -0.011-8e-3l-1e-3 -3e-3c0.028 0 0.054-0.018 0.079-0.055 0.026-0.036 0.039-0.067 0.039-0.092 0-0.016-7e-3 -0.024-0.019-0.024-0.029 0-0.055 0.024-0.08 0.074-0.02 0.042-0.03 0.085-0.03 0.127z" fill="#fff" fill-rule="nonzero"/>
                </g>
                <g transform="matrix(394.56 0 0 394.56 1904.8 873)">
                    <path d="m0.214-0.292c0.014 0 0.02 0.011 0.02 0.034 0 0.016-8e-3 0.062-0.026 0.139-0.018 0.076-0.033 0.139-0.047 0.189-0.014 0.051-0.027 0.088-0.039 0.112-0.013 0.024-0.028 0.049-0.045 0.073-0.017 0.025-0.036 0.042-0.057 0.051s-0.045 0.013-0.072 0.013c-0.051 0-0.076-0.026-0.076-0.077 0-0.031 0.011-0.064 0.034-0.099 0.033-0.052 0.078-0.086 0.133-0.102 0.02-6e-3 0.04-9e-3 0.062-9e-3 4e-3 0 5e-3 4e-3 5e-3 0.011 0 8e-3 -1e-3 0.011-5e-3 0.011-0.063 0-0.116 0.025-0.159 0.075-0.031 0.037-0.047 0.073-0.047 0.108 0 0.034 0.014 0.054 0.04 0.06l0.013 1e-3c0.044 0 0.078-0.019 0.104-0.055 0.026-0.037 0.047-0.083 0.062-0.139 0.015-0.057 0.034-0.145 0.057-0.266h-6e-3c-0.058 0.109-0.105 0.163-0.143 0.163-0.042 0-0.063-0.032-0.063-0.095 0-0.037 0.01-0.077 0.029-0.121 0.027-0.059 0.061-0.098 0.102-0.116 0.014-6e-3 0.028-9e-3 0.043-9e-3s0.026 4e-3 0.035 0.013c9e-3 8e-3 0.013 0.018 0.013 0.029 0 4e-3 -3e-3 7e-3 -8e-3 7e-3 -5e-3 -1e-3 -7e-3 -3e-3 -7e-3 -8e-3s-3e-3 -9e-3 -8e-3 -0.013-0.012-6e-3 -0.022-6e-3c-0.034 0-0.064 0.03-0.091 0.09-0.026 0.056-0.039 0.109-0.039 0.159 0 0.031 7e-3 0.047 0.02 0.047 0.018 0 0.041-0.021 0.069-0.063 0.043-0.063 0.076-0.124 0.1-0.185 7e-3 -0.015 0.013-0.022 0.019-0.022z" fill="#fff" fill-rule="nonzero"/>
                </g>
                <g transform="matrix(394.56 0 0 394.56 2027.2 873)">
                    <path d="m0.022 1e-3c-0.042 0-0.063-0.032-0.063-0.095 0-0.037 0.01-0.077 0.029-0.121 0.027-0.059 0.061-0.098 0.102-0.116 0.014-6e-3 0.028-9e-3 0.043-9e-3s0.026 4e-3 0.035 0.013c9e-3 8e-3 0.013 0.018 0.013 0.029 0 4e-3 -3e-3 7e-3 -8e-3 7e-3 -5e-3 -1e-3 -7e-3 -3e-3 -7e-3 -8e-3s-3e-3 -9e-3 -8e-3 -0.013-0.012-6e-3 -0.022-6e-3c-0.034 0-0.064 0.03-0.091 0.09-0.026 0.056-0.039 0.109-0.039 0.159 0 0.031 7e-3 0.047 0.02 0.047 0.014 0 0.031-0.012 0.05-0.035 0.02-0.023 0.038-0.05 0.054-0.081 0.036-0.065 0.057-0.107 0.064-0.126 6e-3 -0.019 0.013-0.028 0.02-0.028 0.014 0 0.02 0.011 0.02 0.034 0 7e-3 0 0.015-2e-3 0.024-0.018 0.085-0.027 0.134-0.029 0.148-1e-3 0.013-1e-3 0.023-1e-3 0.028 0 0.026 6e-3 0.039 0.018 0.039 0.014 0 0.033-0.019 0.058-0.055 0.025-0.037 0.047-0.074 0.065-0.111l0.027-0.055h0.022c-3e-3 6e-3 -7e-3 0.015-0.013 0.026-5e-3 0.011-0.014 0.031-0.029 0.059s-0.03 0.052-0.044 0.073c-0.013 0.022-0.028 0.041-0.045 0.059-0.017 0.017-0.031 0.025-0.043 0.025-0.04 0-0.06-0.028-0.06-0.086 0-0.019 3e-3 -0.042 7e-3 -0.067h-6e-3c-0.054 0.101-0.1 0.152-0.137 0.152z" fill="#fff" fill-rule="nonzero"/>
                </g>
                <g transform="matrix(394.56 0 0 394.56 2173.1 873)">
                    <path d="m0.175-0.502c0.019-0.05 0.029-0.084 0.029-0.102s-5e-3 -0.028-0.014-0.029c-0.025 0-0.051 0.04-0.078 0.121-0.027 0.08-0.048 0.163-0.063 0.25-0.015 0.085-0.023 0.146-0.023 0.182 0 0.06 0.015 0.09 0.045 0.09 0 4e-3 -2e-3 8e-3 -7e-3 0.012-5e-3 3e-3 -0.01 5e-3 -0.017 5e-3 -0.044 0-0.065-0.039-0.065-0.117 0-0.029 5e-3 -0.073 0.016-0.132 0.01-0.06 0.024-0.123 0.041-0.188s0.039-0.121 0.067-0.169c0.027-0.049 0.055-0.073 0.083-0.073 0.022 0 0.033 0.014 0.033 0.042 0 0.022-6e-3 0.052-0.02 0.09-0.025 0.075-0.062 0.149-0.11 0.224-0.013 0.02-0.024 0.036-0.034 0.048-3e-3 3e-3 -4e-3 2e-3 -4e-3 -3e-3 -1e-3 -0.01 1e-3 -0.019 7e-3 -0.027 0.044-0.065 0.082-0.14 0.114-0.224z" fill="#fff" fill-rule="nonzero"/>
                </g>
            </g>
            <g transform="matrix(.90222 0 0 1 252.2 26.091)">
                <g transform="matrix(41.667 0 0 41.667 1719.2 931.9)">
                    <path d="m0.509-0.58c0.011 0 0.019 3e-3 0.024 8e-3s7e-3 0.014 7e-3 0.026v0.184c0 0.011-3e-3 0.019-8e-3 0.024-6e-3 5e-3 -0.015 7e-3 -0.029 7e-3 -0.013 0-0.022-2e-3 -0.028-7e-3 -5e-3 -5e-3 -8e-3 -0.013-8e-3 -0.024v-0.151h-0.131v0.447h0.116c0.011 0 0.019 2e-3 0.023 7e-3 5e-3 5e-3 7e-3 0.014 7e-3 0.026s-2e-3 0.02-7e-3 0.026c-4e-3 5e-3 -0.012 7e-3 -0.023 7e-3h-0.304c-0.011-0-0.019-2e-3 -0.024-7e-3 -5e-3 -6e-3 -7e-3 -0.014-7e-3 -0.026s2e-3 -0.021 7e-3 -0.026 0.013-7e-3 0.024-7e-3h0.115v-0.447h-0.13v0.151c0 0.011-3e-3 0.019-8e-3 0.024-6e-3 5e-3 -0.015 7e-3 -0.029 7e-3 -0.013 0-0.023-2e-3 -0.028-7e-3 -6e-3 -5e-3 -8e-3 -0.013-8e-3 -0.024v-0.184c0-0.012 2e-3 -0.021 6e-3 -0.026 5e-3 -5e-3 0.013-8e-3 0.024-8e-3h0.419z" fill="#030051" fill-opacity=".33" fill-rule="nonzero" stroke="#fff" stroke-width=".03px"/>
                </g>
                <g transform="matrix(41.667 0 0 41.667 1742.5 931.9)">
                    <path d="m0.156-0.641c0.011 0 0.019 3e-3 0.023 8e-3 5e-3 5e-3 8e-3 0.014 8e-3 0.026v0.243c0.021-0.032 0.045-0.056 0.073-0.073 0.028-0.016 0.058-0.025 0.09-0.025 0.03 0 0.055 7e-3 0.077 0.02 0.022 0.012 0.039 0.031 0.051 0.055 0.011 0.024 0.017 0.052 0.017 0.084v0.237h0.04c0.011 0 0.019 2e-3 0.024 7e-3 4e-3 5e-3 7e-3 0.014 7e-3 0.026s-3e-3 0.02-7e-3 0.026c-5e-3 5e-3 -0.013 7e-3 -0.024 7e-3h-0.158c-0.011-0-0.019-2e-3 -0.024-7e-3 -5e-3 -6e-3 -7e-3 -0.014-7e-3 -0.026s2e-3 -0.021 7e-3 -0.026 0.013-7e-3 0.024-7e-3h0.045v-0.229c0-0.029-7e-3 -0.052-0.02-0.069s-0.033-0.026-0.059-0.026c-0.028 0-0.054 8e-3 -0.078 0.024s-0.043 0.038-0.057 0.066-0.021 0.059-0.021 0.094v0.14h0.044c0.012 0 0.019 2e-3 0.024 7e-3s7e-3 0.014 7e-3 0.026-2e-3 0.02-7e-3 0.026c-5e-3 5e-3 -0.012 7e-3 -0.024 7e-3h-0.158c-0.011-0-0.019-2e-3 -0.024-7e-3 -4e-3 -6e-3 -7e-3 -0.014-7e-3 -0.026s3e-3 -0.021 7e-3 -0.026c5e-3 -5e-3 0.013-7e-3 0.024-7e-3h0.04v-0.508h-0.045c-0.011 0-0.019-3e-3 -0.024-8e-3 -4e-3 -5e-3 -6e-3 -0.013-6e-3 -0.025s2e-3 -0.021 6e-3 -0.026c5e-3 -5e-3 0.013-8e-3 0.024-8e-3h0.088z" fill="#030051" fill-opacity=".33" fill-rule="nonzero" stroke="#fff" stroke-width=".03px"/>
                </g>
                <g transform="matrix(41.667 0 0 41.667 1765.8 931.9)">
                    <path d="m0.304-0.462c0.047 0 0.088 0.01 0.121 0.029s0.059 0.045 0.077 0.079 0.028 0.072 0.031 0.116c0 0.011-3e-3 0.019-8e-3 0.024-4e-3 4e-3 -0.012 6e-3 -0.023 6e-3h-0.354c3e-3 0.049 0.017 0.086 0.043 0.111 0.027 0.025 0.065 0.037 0.113 0.037 0.03 0 0.06-4e-3 0.089-0.011 0.029-8e-3 0.055-0.018 0.077-0.031 6e-3 -3e-3 0.011-4e-3 0.015-4e-3 0.012 0 0.021 8e-3 0.028 0.025 3e-3 7e-3 5e-3 0.013 5e-3 0.019 0 0.013-8e-3 0.023-0.022 0.03-0.025 0.013-0.055 0.023-0.089 0.031s-0.068 0.012-0.103 0.012c-0.049 0-0.091-0.01-0.126-0.029-0.035-0.018-0.061-0.046-0.079-0.081-0.019-0.036-0.028-0.078-0.028-0.127 0-0.046 0.01-0.087 0.03-0.123s0.047-0.064 0.083-0.083c0.035-0.02 0.075-0.03 0.12-0.03zm0 0.071c-0.04 0-0.073 0.01-0.099 0.031-0.026 0.02-0.044 0.048-0.052 0.084h0.299c-7e-3 -0.037-0.023-0.066-0.048-0.085-0.024-0.02-0.057-0.03-0.1-0.03z" fill="#030051" fill-opacity=".33" fill-rule="nonzero" stroke="#fff" stroke-width=".03px"/>
                </g>
            </g>
        </g>
    </g>
</svg>
