<?xml version="1.0" encoding="UTF-8"?>
<svg width="432.14" height="361.23" version="1.1" viewBox="0 0 432.14 361.23" xml:space="preserve" xmlns="http://www.w3.org/2000/svg"><g transform="translate(584.24 -674.43)"><path d="m-583.78 755.27 4.9396 2.3307c6.2217 2.9357 13.048 4.9614 18.489 9.171 5.9425 4.5975 10.213 11.053 14.766 17.03 7.0592 9.267 13.081 19.283 19.375 29.086 13.391 20.857 30.425 38.641 39.114 63.238 3.2382 9.1664 5.2582 18.687 7.1697 28.244 1.9115 9.5564 6.2117 21.646 9.0157 30.954 4.1951 13.926 9.5476 16.971 13.019 26.03 2.7819 7.2587 4.0881 15 6.1792 22.487 4.3093 15.429-0.7325 37.23 13.122 46.231 8.8248 5.7334 21.445 5.8059 30.582 1.2666 10.562-5.2474 13.346-19.451 20.189-29.057 6.0344-8.4702 10.685-18.223 18.401-25.196 7.2537-6.5546 25.311-14.817 25.311-14.817 9.6144-3.8874 17.799 0.30382 25.737-3.1101 9.2326-3.9704 13.676-16.074 23.215-19.238 13.986-4.6398 29.418 2.6263 44.149 2.27 7.9293-0.19174 15.746-2.4749 23.677-2.369 14.774 0.19726 29.25 6.8292 43.974 5.5892 7.9825-0.67224 17.828-0.85597 22.998-6.9747 5.4482-6.4474 11.318-15.965 3.2039-25.12-8.1137-9.155-42.276-15.835-61.24-27.788-13.323-8.3972-23.053-21.678-36.17-30.393-10.995-7.305-23.931-11.259-35.234-18.078-13.062-7.8803-25.284-17.101-37.47-26.278-9.9037-7.4582-19.679-15.121-28.937-23.368-8.5931-7.6541-16.861-15.701-24.64-24.181-6.3122-6.8814-12.972-13.633-17.827-21.61-5.9904-9.8434-9.4994-21.014-13.577-31.791-3.0322-8.0142-2.3183-18.062-8.0813-24.403-4.4633-4.9111-11.846-9.8886-18.217-8.0318-5.7466 1.6748-7.3924 9.5336-9.9662 14.938-3.5844 7.5261-1.8625 17.66-7.4047 23.887-3.0913 3.4733-8.3555 4.1423-12.755 5.6474-18.124 6.2002-36.71 12.042-55.785 13.795-6.6874 0.61436-15.691-0.31987-20.111-1.1919-9.1388-1.8029-9.0079-1.4532-13.325-2.87l-22.188-7.2822" fill="#210c00" stroke="#000" stroke-linejoin="round" stroke-width="2.1459"/><path d="m-455.53 1027.8" fill="none" stroke="#989898" stroke-linejoin="round" stroke-width="1.0729"/><path d="m-443.5 1005.3 5.8241-0.036-1.6115 15.605z" fill="none" stroke="#989898" stroke-linejoin="round" stroke-width="1.0729"/><path d="m-430.51 1011.9 5.433-0.2041-3.5132 13.257z" fill="none" stroke="#989898" stroke-linejoin="round" stroke-width="1.0729"/><path d="m-418.14 1013.7 3.0929 13.558 1.4098-13.654z" fill="none" stroke="#989898" stroke-linejoin="round" stroke-width="1.0729"/><path d="m-406.91 1010.9 2.3109 13.221 2.974-12.98z" fill="none" stroke="#989898" stroke-linejoin="round" stroke-width="1.0729"/><path d="m-187.05 932.12-3.4963 4.2654 9.6988 2.7252z" fill="none" stroke="#989898" stroke-linejoin="round" stroke-width="1.0729"/><path d="m-182 932.14 2.7215-5.8183 6.9765 9.3196z" fill="none" stroke="#989898" stroke-linejoin="round" stroke-width="1.0729"/><path d="m-173.84 923.23 2.3321-4.2664 7.3638 10.096z" fill="none" stroke="#989898" stroke-linejoin="round" stroke-width="1.0729"/><path d="m-171.63 914.4 3.4597-4.4891 5.1749 9.3348z" fill="none" stroke="#989898" stroke-linejoin="round" stroke-width="1.0729"/><path d="m-449.86 695.2" fill="none" stroke="#989898" stroke-linejoin="round" stroke-width="1.0729"/><path d="m-441.47 689.95 3.0757 0.1211-1.9753-7.5086z" fill="none" stroke="#989898" stroke-linejoin="round" stroke-width="1.0729"/><path d="m-434.46 688.96 1.765-7.6726 0.7841 7.7315z" fill="none" stroke="#989898" stroke-linejoin="round" stroke-width="1.0729"/><path d="m-428.11 690.57 1.3218-7.4826 1.6703 7.3512z" fill="none" stroke="#989898" stroke-linejoin="round" stroke-width="1.0729"/><path d="m-580.1 727.04 5.1666 2.1862-1.5386 2.5695-3.851-3.7831" fill="none" stroke="#989898" stroke-linejoin="round" stroke-width="1.0729"/><path d="m-580.87 733.03 2.268 0.45822-1.5386 2.5695-0.9658-0.8199" fill="none" stroke="#989898" stroke-linejoin="round" stroke-width="1.0729"/><path d="m-548.15 724.68c0.9589 4.5134 3.2331 8.8021 6.0715 12.44 2.7923 3.5781 6.4759 6.5176 10.418 8.7671 5.1165 2.9199 10.835 5.0848 16.676 5.8535 7.188 0.94601 14.588-0.17898 21.687-1.6484 7.4905-1.5504 15.357-3.1992 21.692-7.4868 4.9929-3.3793 9.948-8.6745 11.832-13.68 2.9838-7.9262 0.3958-13.399-7.3956-19.973 6.5659-0.4791 12.057-4.4094 12.357-10.591 0.2956-6.1042-7.0649-11.089-12.874-12.674-3.1632-0.86317-6.6189 0.9011-9.5432 2.3836-2.7121 1.3749-7.0146 5.832-7.0146 5.832s-2.7331-2.8446-10.162-5.057c-7.4286-2.2124-17.786-1.1369-23.589-3.3143-6.364-2.3877-14.378-8.4419-14.378-8.4419-6.7268-1.7014-13.017-2.6784-15.337 2.9349 3.6054-3.6342-1.2284 4.1633-3.8283 10.122-1.3591 9.213 1.9205 13.585 3.9934 17.446 0 0-1.7892 11.513-0.6048 17.088z" fill="#220c00" stroke="#000" stroke-linejoin="round" stroke-width="2.4472"/><path d="m-516.43 708.37c0-2.3661 6.0137-8.2414 10.402-9.4551 3.603-0.99659 7.8295 0.31286 10.938 2.3761 3.2777 2.1754 7.3709 5.7636 6.7884 9.6542-0.8558 5.7136-8.3676 8.3776-13.685 10.635-2.5439 1.0798-8.2064 1.1756-8.2064 1.1756" fill="none" stroke="#000" stroke-linejoin="round" stroke-width="2.5771"/><path d="m-548.37 702.66 6.9625-1.4147 10.572-6.5448c6.3891-2.2757 9.0783-5.116 10.824-8.0551l-2.2655-2.0138-10.321-5.7896-11.327-1.5103-4.0275 6.7965-2.7691 5.6435c-0.024 6.7245 0.4328 9.401 2.3513 12.888z" fill="#351a00"/><path d="m-474.82 710.59 8.0858-2.0568 7.781-2.5956" fill="none" stroke="#000" stroke-linejoin="round" stroke-width="2.6719"/><path d="m-547.71 680.02s2.8788 6.4861 5.8912 7.0826c3.7093 0.73451 10.031-5.2988 10.031-5.2988 0.5914-1.9654 0.3963-3.5382-0.5855-4.7187 0 0-6.7829-2.0897-10.025-1.1887-2.1595 0.60017-5.3115 4.1236-5.3115 4.1236z" fill="#110f0e" stroke="#000" stroke-linejoin="round" stroke-width="2.4472"/><path d="m-469.78 750.86 25.876-0.0768m-13.022 11.718 16.373-2.375m-13.453 10.295s3.4215 1.0344 6.3687 2.2126c2.9472 1.1782 17.193 2.038 17.193 2.038m-4.9271 19.623 15.167 3.1702m-10.837 16.236c-5.5483 2.2005 22.182 3.1152 18.962 6.1634m-6.4818 7.6633 13.052-1.3681" fill="none" stroke="#341200" stroke-linejoin="round" stroke-width="2"/><path d="m-571.49 737.94 9.3647-3.7459m-1.2487 6.8675 10.613-3.1216" fill="#210c00" stroke="#3c1500" stroke-linejoin="round" stroke-width="2"/><path d="m-422.44 910.71 15.294 11.665m-4.0506 12.52 13.403 11.497m-8.3338 5.6472 11.44 10.395m-7.4729 8.712 10.627 7.9524" fill="none" stroke="#5c2200" stroke-linejoin="round" stroke-width="2"/><path d="m-429.72 702.98s14.359-1.2486 11.238 1e-5m-6.8675 5.6188 11.238 3.7459m-5.6189 4.3702 6.8675 8.7404" fill="#210c00" stroke="#3c1500" stroke-linejoin="round" stroke-width="2"/><path d="m-304.17 832.58 19.354-3.1216 3.1216 10.613 15.608-4.9945-6.2431 8.1161 18.105 2.4973 1.2486 9.3647 21.111 5.2486-5.6189 7.4918 21.227 3.1216-8.1161 8.1161 21.227 1.8729-5.6189 6.2432 7.4918 14.359" fill="#210c00" stroke="#000" stroke-linejoin="round" stroke-width="2"/><path d="m-399.8 751.05 23.724 6.2432-3.7459 6.8675 11.862 4.3702 1.8729 8.7404 16.232 3.1216-3.1216 9.3647 21.227 6.2432-2.4973 3.7459 8.7404 3.7459-4.3702 5.6188 17.481 0.62432-8.7405 13.735" fill="#210c00" stroke="#000" stroke-linejoin="round" stroke-width="2"/><path d="m-345.49 927.11 13.111-4.3702-1.873 6.8675s16.857-5.6188 11.862-1.873c-4.9945 3.7459-9.3647 7.4918-4.9945 7.4918s12.486 2.4973 12.486 2.4973l-0.6243 5.6188 5.6188 0.62432-3.1215 6.2432 2.4972 4.3702" fill="none" stroke="#4a1b00" stroke-linejoin="round" stroke-width="2"/><path d="m-480.12 694.79 8.1363-4.9616-2.5413 3.6097 8.6593-0.4901-6.1731 3.8603 5.107-1.0923-6.7976 3.0334 4.643 3.6408-9.3982-2.5615" fill="none" stroke="#331200" stroke-linejoin="round" stroke-width="2"/><path d="m-432.33 913.34 17.348 12.088m-3.857 13.941 15.263 11.993m-8.8856 6.5957 13.055 10.875m-7.7954 9.9209 12.047 8.2315" fill="none" stroke="#4a1b00" stroke-linejoin="round" stroke-width="2.1985"/><path d="m-482.48 756.13 25.876-0.0768m-13.022 11.718 16.373-2.375m-13.453 10.295s3.4215 1.0344 6.3687 2.2126c2.9472 1.1782 17.193 2.038 17.193 2.038m-4.9271 19.623 15.167 3.1702m-10.837 16.236c-5.5483 2.2005 22.182 3.1152 18.962 6.1634m-6.4818 7.6633 13.052-1.3681" fill="none" stroke="#3c1500" stroke-linejoin="round" stroke-width="2"/><path d="m-473.79 759.13 25.876-0.0768m-13.022 11.718 16.373-2.375m-13.453 10.295s3.4215 1.0344 6.3687 2.2126c2.9472 1.1782 17.193 2.038 17.193 2.038m-4.9271 19.623 15.167 3.1702m-10.837 16.236c-5.5483 2.2005 22.182 3.1152 18.962 6.1634m-6.4818 7.6633 13.052-1.3681" fill="none" stroke="#461800" stroke-linejoin="round" stroke-width="2"/><path d="m-478.67 898.81 29.827 3.5398m-16.911 9.7774 19.252-0.0625m-17.177 8.3087s3.7741 1.5018 6.9783 3.0796c3.2042 1.5778 19.479 4.4195 19.479 4.4195m-8.8698 18.732 16.961 5.2569m-15.128 14.553c-6.751 1.4024 25.052 6.1826 20.846 8.7494m-8.7154 6.6782 15.262 0.46998" fill="none" stroke="#3c1500" stroke-linejoin="round" stroke-width="2.1569"/><path d="m-431.12 765.46 37.372-0.0767m-18.807 11.704 23.648-2.3722m-19.431 10.283s4.9416 1.0331 9.1982 2.21c4.2566 1.1768 24.832 2.0356 24.832 2.0356m-7.1162 19.6 21.906 3.1665m-15.651 16.216c-8.0134 2.1978 32.037 3.1115 27.387 6.1561m-9.3616 7.6542 18.852-1.3665" fill="none" stroke="#3b1500" stroke-linejoin="round" stroke-width="2.4022"/><path d="m-422.91 881.77-33.063 2.5131m15.225-12.877-20.639 3.9032m15.949-11.503s-4.4984-0.70616-8.4079-1.6c-3.9095-0.89384-22.222-0.40708-22.222-0.40708m3.9218-19.974-19.77-1.7235m11.885-17.162c6.8251-2.7102-28.728-1.0083-24.983-4.342m7.3568-8.2293-16.517 2.5894" fill="none" stroke="#461800" stroke-linejoin="round" stroke-width="2.2646"/><path d="m-493.45 789.5-23.545 10.732m7.0366-16.043-13.94 8.9104m8.0162-14.924s-3.5438 0.46733-6.7146 0.60814c-3.1709 0.14082-16.506 5.2274-16.506 5.2274m-3.5962-19.91-15.126 3.361m3.1843-19.259c4.1487-4.2911-21.495 6.3014-19.817 2.1974m2.7484-9.6533-10.453 6.1868" fill="none" stroke="#3c1500" stroke-linejoin="round" stroke-width="2"/><path d="m-574.06 738.47 7.8554-6.3263m0.81908 6.9318 9.2323-6.0954" fill="#210c00" stroke="#3c1500" stroke-linejoin="round" stroke-width="2"/><path d="m-429.88 702.09s14.625-5.2747 10.481-4.6978m-5.6389 12.146 12.46 7.8798m-8.0932 3.6032 5.6888 12.61" fill="#210c00" stroke="#431800" stroke-linejoin="round" stroke-width="2.4891"/><path d="m-399.8 751.05 23.724 6.2432m-3.7459 6.8675 11.862 4.3702m1.8729 8.7404 16.232 3.1216m-3.1216 9.3647 21.227 6.2432m-2.4973 3.7459 8.7404 3.7459m-4.3702 5.6188 17.481 0.62432" fill="#210c00" stroke="#3c1500" stroke-linecap="round" stroke-linejoin="round" stroke-width="1.9994"/><path d="m-304.17 832.58 19.354-3.1216 3.1216 10.613 15.608-4.9945-6.2431 8.1161 18.105 2.4973 1.2486 9.3647 21.111 5.2486-5.6189 7.4918 21.227 3.1216-8.1161 8.1161 21.227 1.8729-5.6189 6.2432 7.4918 14.359" fill="#210c00" stroke="#000" stroke-linejoin="round" stroke-width="2"/><path d="m-304.17 832.58 19.354-3.1216m3.1216 10.613 15.608-4.9945m-6.2431 8.1161 18.105 2.4973m1.2486 9.3647 21.111 5.2486m-5.6189 7.4918 21.227 3.1216m-8.1161 8.1161 21.227 1.8729m-5.6189 6.2432 7.4918 14.359" fill="none" stroke="#4a1b00" stroke-linecap="round" stroke-linejoin="round" stroke-width="2"/><path d="m-432.33 913.34 17.348 12.088m-3.857 13.941 15.263 11.993m-8.8856 6.5957 13.055 10.875m-7.7954 9.9209 12.047 8.2315" fill="none" stroke="#4a1b00" stroke-linejoin="round" stroke-width="2.1985"/><path d="m-286.76 909.43 12.202 14.87m12.368-4.4935 11.966 12.986m5.3471-8.5294 10.795 11.063m8.4406-7.7781 8.3254 10.337" fill="none" stroke="#4a1b00" stroke-linejoin="round" stroke-width="2"/><path d="m-285.14 894.26 11.931 20.394m12.404-6.4173 11.726 17.789m5.4671-11.894 10.589 15.146m8.5399-10.903 8.138 14.18" fill="none" stroke="#5c2200" stroke-linejoin="round" stroke-width="2"/><path d="m-274.14 884.81 11.666 25.974m12.448-8.3601 11.492 22.641m5.5914-15.292 10.388 19.27m8.6452-14.058 7.954 18.062" fill="none" stroke="#4a1b00" stroke-linejoin="round" stroke-width="2"/><path d="m-414.43 886.29 25.876-0.0768m-13.022 11.718 16.373-2.375m-13.453 10.295s3.4215 1.0344 6.3687 2.2126c2.9472 1.1782 17.193 2.038 17.193 2.038m-4.9271 19.623 15.167 3.1702m-10.837 16.236c-5.5483 2.2005 22.182 3.1152 18.962 6.1634m-6.4818 7.6633 13.052-1.3681" fill="none" stroke="#3c1500" stroke-linejoin="round" stroke-width="2"/><path d="m-482.38 759.27 29.33-0.0871m-14.76 13.283 18.559-2.6921m-15.249 11.67s3.8782 1.1724 7.2188 2.508c3.3406 1.3355 19.489 2.3101 19.489 2.3101m-5.5848 22.243 17.192 3.5934m-12.283 18.403c-6.2889 2.4942 25.143 3.5311 21.494 6.9862m-7.347 8.6863 14.795-1.5508" fill="none" stroke="#4f1b00" stroke-linejoin="round" stroke-width="2.267"/><path d="m-377.92 803.11 32.691-0.0767m-16.452 11.709 20.685-2.3731m-16.997 10.287s4.3226 1.0335 8.0461 2.2108c3.7234 1.1773 21.722 2.0364 21.722 2.0364m-6.2248 19.608 19.162 3.1677m-13.691 16.223c-7.0096 2.1987 28.024 3.1127 23.957 6.1585m-8.189 7.6572 16.49-1.367" fill="none" stroke="#3c1500" stroke-linejoin="round" stroke-width="2.2471"/><path d="m-400.44 846.68 25.895-0.0614m-13.032 9.3654 16.386-1.8982m-13.464 8.2281s3.4241 0.82668 6.3736 1.7683c2.9494 0.94163 17.207 1.6288 17.207 1.6288m-4.9309 15.683 15.179 2.5337m-10.845 12.976c-5.5525 1.7586 22.199 2.4897 18.977 4.9258m-6.4868 6.1246 13.062-1.0934" fill="none" stroke="#3c1500" stroke-linejoin="round" stroke-width="1.7886"/><path d="m-447.19 705.93 17.451 5.4425m-15.396 4.5273 16.091 3.629m-15.428 3.3111s2.9579 1.9128 5.4298 3.7771 15.699 7.229 15.699 7.229m-9.8412 13.169 13.486 7.4122m-14.527 8.6577c-5.8217-0.17715 20.126 9.6929 16.279 10.926m-8.1476 3.634 12.689 3.2892" fill="none" stroke="#3c1500" stroke-linejoin="round" stroke-width="1.7886"/><path d="m-319.33 858.4 35.578-10.817m-14.534 16.612 21.841-9.0692m-15.538 15.431s5.0058-0.4315 9.4006-0.52853c4.3948-0.097 24.243-5.1898 24.243-5.1898m-1.1159 20.81 21.782-3.266m-10.224 20.025c-6.9984 4.4078 31.417-6.231 27.867-1.9795m-6.7062 10.019 17.563-6.7276" fill="none" stroke="#3c1500" stroke-linejoin="round" stroke-width="2.3962"/><path d="m-444.56 894.31 20.08 15.315m-5.3181 16.437 17.597 15.094m-10.941 7.4141 15.02 13.647m-9.8112 11.438 13.952 10.441" fill="none" stroke="#4a1b00" stroke-linejoin="round" stroke-width="2.6258"/><path d="m-501.89 761.13 33.279-9.1393m-12.667 19.633 20.245-8.7774m-13.72 17.952s4.7654 0.136 8.9705 0.62286c4.2051 0.48683 22.843-3.3837 22.843-3.3837m0.51402 26.98 20.63-1.2186m-8.2762 24.684c-6.3727 4.7708 29.64-3.7401 26.561 1.3082m-5.6657 12.128 16.323-6.3212" fill="none" stroke="#3c1500" stroke-linejoin="round" stroke-width="2.6674"/><path d="m-355.21 938.2 10.963-8.4147m0.47406 7.1025s14.095-10.819 10.599-5.6465m-2.272 8.7126c4.1302-1.4281 12.617-1.7202 12.617-1.7202m1.2462 5.5144 5.5143-1.2461m-0.90991 6.9205 3.7882 3.3142" fill="none" stroke="#4a1b00" stroke-linejoin="round" stroke-width="2"/><path d="m-386.6 837.19 37.186-0.0767m-18.714 11.705 23.53-2.3723m-19.334 10.283s4.917 1.0332 9.1524 2.21c4.2354 1.1768 24.708 2.0356 24.708 2.0356m-7.0807 19.6 21.797 3.1665m-15.573 16.217c-7.9734 2.1979 31.877 3.1116 27.251 6.1562m-9.3149 7.6544 18.758-1.3665" fill="none" stroke="#290e00" stroke-linejoin="round" stroke-width="2.3962"/><path d="m-505.52 789.5 37.186-0.0767m-18.714 11.705 23.53-2.3723m-19.334 10.283s4.917 1.0332 9.1524 2.21c4.2354 1.1768 24.708 2.0356 24.708 2.0356m-7.0807 19.6 21.797 3.1665m-15.573 16.217c-7.9734 2.1979 31.877 3.1116 27.251 6.1562m-9.3149 7.6544 18.758-1.3665" fill="none" stroke="#2c0f00" stroke-linejoin="round" stroke-width="2.3962"/><path d="m-358.57 802.82-37.186 0.0767m18.714-11.705-23.53 2.3723m19.334-10.283s-4.917-1.0332-9.1524-2.21c-4.2354-1.1768-24.708-2.0356-24.708-2.0356m7.0807-19.6-21.797-3.1665m15.573-16.217c7.9734-2.1979-31.877-3.1116-27.251-6.1562m9.3149-7.6544-18.758 1.3665" fill="none" stroke="#290e00" stroke-linejoin="round" stroke-width="2.3962"/><path d="m-565.6 751.72 37.186-0.0767m-18.714 11.705 23.53-2.3723m-19.334 10.283s4.917 1.0332 9.1524 2.21c4.2354 1.1768 24.708 2.0356 24.708 2.0356m-7.0807 19.6 21.797 3.1665m-15.573 16.217c-7.9734 2.1979 31.877 3.1116 27.251 6.1562m-9.3149 7.6544 18.758-1.3665" fill="none" stroke="#2c0f00" stroke-linejoin="round" stroke-width="2.3962"/></g></svg>
