<?xml version="1.0" encoding="UTF-8"?>
<svg width="695.11" height="102.65" version="1.1" viewBox="0 0 695.11 102.65" xml:space="preserve" xmlns="http://www.w3.org/2000/svg"><defs><clipPath id="g"><rect x="-1930" width="1920" height="1080" fill="#2a0f00" stroke="#000" stroke-linecap="round" stroke-width="3"/></clipPath><clipPath id="f"><rect x="-1930" y="795.33" width="1233.3" height="284.67" fill="#2a0f00" stroke="#694324" stroke-linecap="round" stroke-width="2"/></clipPath><clipPath id="e"><rect x="-1930" y="854.72" width="1072.7" height="225.28" fill="#2a0f00" stroke="#694324" stroke-linecap="round" stroke-width="2"/></clipPath><clipPath id="d"><rect x="-1930" y="854.72" width="1072.7" height="225.28" fill="#2a0f00" stroke="#694324" stroke-linecap="round" stroke-width="2"/></clipPath><clipPath id="c"><rect x="-1774.6" y="831.77" width="751.96" height="231.62" fill="#2a0f00" stroke="#694324" stroke-linecap="round" stroke-width="1.6979"/></clipPath><clipPath id="b"><rect x="-1716.6" y="834.9" width="1072.7" height="225.28" fill="#2a0f00" stroke="#694324" stroke-linecap="round" stroke-width="2"/></clipPath><clipPath id="a"><rect x="-1930" y="854.72" width="1072.7" height="225.28" fill="#2a0f00" stroke="#694324" stroke-linecap="round" stroke-width="2"/></clipPath></defs><g transform="translate(1757.3 -977.35)" clip-path="url(#g)"><path d="m-1719.6 1049.6s-15.368-1.4335-22.762-3.4969c-3.3889-0.9457-7.2846-1.5259-9.7551-4.031-2.6182-2.6548-3.7918-6.6829-4.1278-10.396-0.5843-6.4587 1.1007-15.32 3.8174-19.077 3.9323-5.4385 11.277-4.6974 17.265-5.1408 13.165-0.9747 26.272 2.9481 39.205 5.5888 12.598 2.5721 37.264 9.9613 37.264 9.9613l-17.624 19.637z" fill="#220c00" stroke="#000" stroke-linejoin="round" stroke-width="2"/><path d="m-1566.8 1005.1c0.4388-0.7986 16.156-21.136-12.228-26.247-7.5531-1.3601-21.554-0.45793-27.773 6.7604-2.5389 2.9469-1.0527 11.622-1.0527 11.622" fill="#1a0900" stroke="#000" stroke-linejoin="round" stroke-width="2"/><path d="m-1717.2 1068.3-10.154 6.1804 2.2073 8.3877 11.036 3.9731 19.424-1.7658 3.5316-10.154-16.334-7.9463-7.5048 1.7658z" clip-path="url(#e)" fill="#855c6f"/><path d="m-1481.7 1044.2c28.131 1.515 114.72 3.8541 142.88 3.0145 28.41-0.8472 62.217-4.4312 93.041-8.9807 20.691-3.0539 26.177-9.4471 61.534-12.272 23.156-1.8501 23.816 1.2869 37.015 0.1514 15.129-1.3015 27.058-0.5613 44.536-6.3994 17.477-5.8382 32.555-7.6598 38.088 7.1048 2.0305 5.418 2.2086 16.169-2.1876 22.851-4.3963 6.6822-8.9873 23.31-11.128 30.111-2.8357 9.0098-5.6016 20.182-13.962 24.442-18.299 9.3238-61.246-6.7237-61.246-6.7237l-21.744 3.2915-114.06-5.0567c-4.013-1.3509-425.47-1.8456-429.41-2.4787-3.9388-0.6331-8.0745-3.1706-12.876-12.139-0.4457-3.6217 0.7762-6.8105 3.2429-8.6578 1.9713-1.4763 7.3687-0.5402 7.3687-0.5402s-3.8889 1.3708-5.1283 2.8926c-0.9858 1.2106-1.6632 2.9177-1.4273 4.461 0.2912 1.9047 1.5687 3.9373 3.3258 4.728 8.6676 3.9004 27.341 2.0234 28.335-3.1891-0.3385-2.9998-10.242-6.6054-17.644-8.2092s-13.696-2.3687-14.523-4.0588c-3.3074-6.7603-5.6729-9.5614-3.6832-14.919 3.1808-8.5649 10.027-7.4242 25.635-10.172 12.336-2.016 29.622-5.9367 39.294-12.928 5.5872-4.0385 8.7012-12 14.502-16.446 5.6716-4.3478 13.762-6.5434 19.211-9.5165 9.0092-4.9157 15.429-6.0735 23.572-7.0372 8.3144-0.98395 16.866-0.25179 25.08 1.3687 5.2429 1.0343 15.14 5.2714 15.14 5.2714s12.93 8.4997 17.784 14.378c2.156 2.6109 4.649 9.2476 7.0653 16.189z" clip-path="url(#f)" fill="#220c00" stroke="#000" stroke-linejoin="round" stroke-width="2"/><path d="m-1709.7 1073-12.967-1.9829 0.4974 6.4047 5.927-6.6246 2.9624 6.0183 3.8227-3.9982 3.7916 6.2109 4.4881-3.7896 1.5031 4.7899 3.425-0.9919z" clip-path="url(#d)" fill="#dcd7d1" stroke="#000" stroke-linejoin="round"/><path d="m-1545 1033.4c1.1182 3.1579 2.1655 5.9268 3.0903 7.8415 3.699 7.6589 26.841 7.725 26.841 7.725" fill="none" stroke="#000" stroke-linejoin="round" stroke-width="2"/><path d="m-1617.3 1045.2s-6.2623-19.735-1.4001-27.533c5.0315-8.0692 16.712-11.17 26.221-11.238 7.6517-0.055 17.43 2.0967 21.227 8.7404 4.3805 7.6659 0.1458 18.296-3.7459 26.221-1.5476 3.1517-7.3403 7.5546-7.3403 7.5546l-7.4918 4.9945" fill="#2a0f00" stroke="#000" stroke-linejoin="round" stroke-width="2"/><path d="m-1646.6 1045.3c-1.0694 3.609-5.7365 3.3809-10.458 0.08-4.7-3.2851-4.9087-7.3196-2.191-10.98 2.7178-3.6608 7.3081-4.5894 10.502 0.1729 4.3658 6.5099 2.1474 7.8616 2.1474 10.727z" stroke="#3b1d00" stroke-linejoin="round" stroke-width="2"/><g transform="translate(66)" fill="none" stroke="#857c78" stroke-linejoin="round" stroke-width="1.8987"><path d="m-1155.9 1020.3 1.0103 3.8197 6.9279-5.1019z"/><path d="m-1147.7 1024.9 1.5411 4.0879 6.7258-5.8658z"/><path d="m-1142.5 1032 1.0102 3.8197 6.6249-6.2477z"/><path d="m-1141.6 1042 2.1986 3.0967 4.7037-6.5569z"/><path d="m-1155.9 1020.3 1.0103 3.8197 6.9279-5.1019z"/><path d="m-1147.7 1024.9 1.5411 4.0879 6.7258-5.8658z"/><path d="m-1142.5 1032 1.0102 3.8197 6.6249-6.2477z"/><path d="m-1141.6 1042 2.1986 3.0967 4.7037-6.5569z"/></g><path d="m-1748.7 1013.4 3.1685 6.8165 1.9075-3.2115z" fill="#362415" stroke="#989898" stroke-linejoin="round" stroke-width="1.1782"/><path d="m-1737.1 1014.1-2.9031 1.4784-2.2313-5.841z" fill="#362415" stroke="#989898" stroke-linejoin="round" stroke-width="1.1782"/><path d="m-1746.4 1022.9-1.0745 3.8404-4.7086-5.2032z" fill="#362415" stroke="#989898" stroke-linejoin="round" stroke-width="1.1782"/><path d="m-1225.3 1036 22.86-13.138 9.6 1.8512 10.856-3.0501 12.738-8.2394 3.6665 8.5854 25.702-15.528-4.8111 17.269 22.719-10.079 2.5568 7.5796 13.712-10.799-0.9524 10.38 4.701 5.7588" fill="#220c00" stroke="#000" stroke-linejoin="round" stroke-width="2"/><path d="m-1670.2 1033.8s-3.0729 8.0642-2.0872 12.004c1.2517 5.0033 9.7 7.0459 9.5162 12.2-0.1651 4.632-7.0281 6.2935-9.3112 10.327-2.6823 4.7392-4.7711 15.625-4.7711 15.625l-21.508-9.8619s-13.111-5.3066-14.984-5.3066c-1.873 0-9.6769-1.873-9.6769-1.873l-4.6824-1.2486 10.301-0.9365 4.6824-3.7459-1.5608-5.931-4.6824-8.1161 0.033-0.9971 9.02-1.188 13.735-2.8094 13.111-3.7459 7.4918-2.1851z" clip-path="url(#a)" fill="#3b1d00"/><path d="m-1654.8 1033.5s2.4761 0.9514 3.4179 1.8382c1.2545 1.1813 2.0688 2.8011 2.7177 4.3974 0.2834 0.6971 0.4898 2.2038 0.4898 2.2038" fill="none" stroke="#808080" stroke-linejoin="round" stroke-width="2"/><path d="m-1732.1 1059s-0.047-3.7237 0.7509-5.6636c0.7983-1.9398 2.1301-4.5932 3.0154-4.9498 1.7705-0.7132 8.3103-3.1649 8.6579-2.6274 0.6951 1.0751 2.8426 4.7425 3.6576 6.3715 1.6299 3.2582 2.9243 7.1034 1.5819 9.4515-2.6546 4.6434-14.922 3.3045-14.922 3.3045z" fill="#180e00" stroke="#000" stroke-linejoin="round" stroke-width="2"/><ellipse transform="rotate(-18.179)" cx="-1971" cy="467.53" rx=".89338" ry="3.7057" fill="none" stroke="#000" stroke-linejoin="round" stroke-width="2.3448"/><path d="m-1531.8 1039.1 25.008-16.652-7.2148 11.345 21.316-5.3602-3.8346 7.2332 17.267-3.166-1.57 8.696 14.422-6.823 5.2087 11.024 21.681-4.5218 2.9885 6.6977 21.788-5.6633 12.972 11.496" fill="#220c00" stroke="#000" stroke-linejoin="round" stroke-width="2"/><path d="m-1722.2 1011.9 19.96-10.141-3.0144 8.8475 13.583-2.6801 0.044 6.7917 16.472-3.8438-7.3663 10.283" fill="#220c00" stroke="#000" stroke-linejoin="round" stroke-width="2"/><path d="m-1560.4 1009.3 14.984 1.2487-4.6824 11.238 15.92 3.4338-10.301 9.989 8.7404 4.9946-15.608 9.989h14.984l-1.873 4.9945" fill="#211300" stroke="#000" stroke-linejoin="round" stroke-width="2"/><path d="m-1402.4 1053.4 27.55-12.674 3.9108 3.9551 26.978-13.229 3.0822 8.2737 30.836-10.7-1.9307 8.7278 25.102-9.4803-1.7425 12.521 26.618-10.435 5.6293 6.8991 13.35-4.0179 11.182 10.227" fill="#220c00" stroke="#000" stroke-linejoin="round" stroke-width="2"/><path d="m-1606.7 1016.6 12.071-3.0056-3.1245 9.238s18.956-9.3686 15.918-2.3798c-3.0388 6.9886-10.163 7.7076-10.163 7.7076l14.045 7.9511-16.57 11.103 5.9242 3.6914" fill="#2a0f00" stroke="#3c1500" stroke-linejoin="round" stroke-width="2"/><path d="m-1601 995.68 1.873-8.7404 1.8729 4.9945 9.9891-6.8675-4.3702 7.4918s18.105-5.6188 13.111-3.7459-8.7404 6.2432-8.7404 6.2432 18.729-1.873 13.111-0.62432-10.613 3.7459-10.613 3.7459" fill="#220c00" stroke="#3c1500" stroke-linejoin="round" stroke-width="2"/><path d="m-1748.6 1029.7 0.7734 3.9121-4.7701-1.9352z" fill="#362415" stroke="#989898" stroke-linejoin="round" stroke-width="1.1782"/><g fill="#220c00" stroke="#3c1500" stroke-linecap="round" stroke-width="3"><path d="m-1420 1067.2 27.252-12.078"/><path d="m-1403.2 1069 27.871-14.555"/><path d="m-1372.6 1063.4 21.058-13.936"/></g><g transform="matrix(-.099245 -1.3773 .74031 -.18464 -2503.5 -849.02)" fill="#220c00" stroke="#3c1500" stroke-linecap="round" stroke-width="1.9631"><path d="m-1517.2 1083.3 7.4324-17.652"/><path d="m-1504.8 1069-4.6452 23.536"/><path d="m-1501.1 1069.3 1.8581 16.723"/></g><g transform="matrix(.49097 0 0 .49097 -833.19 521.39)" fill="#220c00" stroke="#3c1500" stroke-linecap="round" stroke-width="4.0736"><path d="m-1420 1067.2 27.252-12.078"/><path d="m-1403.2 1069 27.871-14.555"/><path d="m-1372.6 1063.4 21.058-13.936"/></g><g transform="rotate(14.108 -1395.5 744.13)" fill="#220c00" stroke="#3c1500" stroke-linecap="round" stroke-width="3"><path d="m-1420 1067.2 27.252-12.078"/><path d="m-1403.2 1069 27.871-14.555"/><path d="m-1372.6 1063.4 21.058-13.936"/></g><g transform="rotate(263.13 -1528.4 1096.8)" fill="#220c00" stroke="#3c1500" stroke-linecap="round" stroke-width="3"><path d="m-1504.8 1069-4.2267 25.767"/><path d="m-1501.1 1069.3 1.8581 16.723"/></g><g transform="translate(-213.37 19.82)" clip-path="url(#b)" fill="#220c00" stroke="#3c1500" stroke-linecap="round" stroke-width="3"><path d="m-1417.2 1066.1 24.465-10.994"/><path d="m-1403.2 1069 27.871-14.555"/><path d="m-1372.6 1063.4 21.058-13.936"/></g><g transform="translate(-59.459 4.9549)" fill="#220c00" stroke="#3c1500" stroke-linecap="round" stroke-width="3"><path d="m-1420 1067.2 27.252-12.078"/><path d="m-1403.2 1069 27.871-14.555"/><path d="m-1372.6 1063.4 21.058-13.936"/></g><g transform="translate(208.17 -19.51)" fill="#220c00" stroke="#3c1500" stroke-linecap="round" stroke-width="3"><path d="m-1420 1067.2 27.252-12.078"/><path d="m-1403.2 1069 27.871-14.555"/><path d="m-1372.6 1063.4 21.058-13.936"/></g><g transform="rotate(233.55 -1426 1019.2)" fill="#220c00" stroke="#3c1500" stroke-linecap="round" stroke-width="2"><path d="m-1517.2 1083.3 7.4324-17.652"/><path d="m-1504.8 1069-4.6452 23.536"/><path d="m-1501.1 1069.3 1.8581 16.723"/></g><g transform="translate(185.87 -22.916)" fill="#220c00" stroke="#3c1500" stroke-linecap="round" stroke-width="2"><path d="m-1420 1067.2 27.252-12.078"/><path d="m-1403.2 1069 27.871-14.555"/><path d="m-1372.6 1063.4 21.058-13.936"/></g><g transform="rotate(209.31 -1301.3 1015.7)" fill="#220c00" stroke="#3c1500" stroke-linecap="round" stroke-width="2"><path d="m-1517.2 1083.3 7.4324-17.652"/><path d="m-1504.8 1069-4.6452 23.536"/><path d="m-1501.1 1069.3 1.8581 16.723"/></g><g transform="matrix(-.51452 .099881 -.099881 -.51452 -1718 1713.9)" fill="#220c00" stroke="#3c1500" stroke-linecap="round" stroke-width="3.8159"><path d="m-1420 1067.2 27.252-12.078"/><path d="m-1403.2 1069 27.871-14.555"/><path d="m-1372.6 1063.4 21.058-13.936"/></g><g transform="translate(104.7 -5.0429)" fill="#220c00" stroke="#3c1500" stroke-linecap="round" stroke-width="4"><path d="m-1420 1067.2 27.252-12.078"/><path d="m-1403.2 1069 27.871-14.555"/><path d="m-1372.6 1063.4 21.058-13.936"/></g><g transform="translate(-12.387 -12.697)"><g transform="rotate(-79.881 -1512.3 1076.9)" fill="#220c00" stroke="#3c1500" stroke-linecap="round" stroke-width="3"><path d="m-1517.2 1083.3 7.4324-17.652"/><path d="m-1504.8 1069-4.6452 23.536"/><path d="m-1501.1 1069.3 1.8581 16.723"/></g></g><g transform="matrix(.66299 .13617 -.10913 .82726 -671.72 329.81)" fill="#220c00" stroke="#3c1500" stroke-linecap="round" stroke-width="2.6647"><path d="m-1420 1067.2 27.252-12.078"/><path d="m-1403.2 1069 27.871-14.555"/><path d="m-1372.6 1063.4 21.058-13.936"/></g><g transform="matrix(.51139 .035146 .012822 .84821 -990.5 179.03)" fill="#220c00" stroke="#3c1500" stroke-linecap="round" stroke-width="3.0383"><path d="m-1420 1067.2 27.252-12.078"/><path d="m-1403.2 1069 27.871-14.555"/><path d="m-1372.6 1063.4 21.058-13.936"/></g><g transform="matrix(.43077 -.67054 .67054 .43077 -1639.8 -421.99)" fill="#220c00" stroke="#3c1500" stroke-linecap="round" stroke-width="2.5094"><path d="m-1517.2 1083.3 7.4324-17.652"/><path d="m-1504.8 1069-4.6452 23.536"/><path d="m-1501.1 1069.3 1.8581 16.723"/></g><g transform="matrix(1.4266 0 0 .97264 756.51 36.416)" fill="#220c00" stroke="#3c1500" stroke-linecap="round" stroke-width="2.5468"><path d="m-1420 1067.2 27.252-12.078"/><path d="m-1403.2 1069 27.871-14.555"/><path d="m-1372.6 1063.4 21.058-13.936"/></g><g transform="matrix(1.4266 0 0 .97264 601.67 45.707)" clip-path="url(#c)" fill="#220c00" stroke="#3c1500" stroke-linecap="round" stroke-width="2.5468"><path d="m-1420 1067.2 27.252-12.078"/><path d="m-1403.2 1069 27.871-14.555"/><path d="m-1372.6 1063.4 21.058-13.936"/></g><g transform="matrix(.61361 0 0 1.0243 -287.02 -19.887)" fill="#220c00" stroke="#3c1500" stroke-linecap="round" stroke-width="2.5468"><path d="m-1420 1067.2 27.252-12.078"/><path d="m-1403.2 1069 27.871-14.555"/><path d="m-1372.6 1063.4 21.058-13.936"/></g></g></svg>
