<?xml version="1.0" encoding="UTF-8" standalone="no"?>
<!-- Created with Inkscape (http://www.inkscape.org/) -->

<svg
   width="432.14136"
   height="361.23486"
   viewBox="0 0 432.14136 361.23486"
   version="1.1"
   id="svg1"
   xml:space="preserve"
   xmlns="http://www.w3.org/2000/svg"
   xmlns:svg="http://www.w3.org/2000/svg"><defs
     id="defs1" /><g
     id="layer4-1"
     style="display:inline"
     transform="translate(584.23756,-674.42701)"><path
       style="fill:#210c00;fill-opacity:1;stroke:#000000;stroke-width:2.14586;stroke-linejoin:round;stroke-dasharray:none;stroke-opacity:1"
       d="m -583.7797,755.26666 4.9396,2.33072 c 6.2217,2.93567 13.0477,4.96141 18.489,9.17103 5.9425,4.59746 10.2134,11.053 14.7662,17.02981 7.0592,9.26704 13.081,19.28321 19.3751,29.086 13.3914,20.85667 30.4248,38.64113 39.1141,63.23816 3.2382,9.16636 5.2582,18.68724 7.1697,28.24361 1.9115,9.55638 6.2117,21.6455 9.0157,30.95384 4.1951,13.92645 9.5476,16.97109 13.0193,26.0301 2.7819,7.2587 4.0881,15 6.1792,22.48695 4.3093,15.42862 -0.7325,37.23022 13.1219,46.23122 8.8248,5.7334 21.4447,5.8059 30.5819,1.2666 10.5624,-5.2474 13.3457,-19.4511 20.189,-29.0567 6.0344,-8.47019 10.6848,-18.223 18.4011,-25.19559 7.2537,-6.55463 25.3112,-14.81749 25.3112,-14.81749 9.6144,-3.88737 17.7987,0.30382 25.7372,-3.11006 9.2326,-3.97039 13.6759,-16.07403 23.2149,-19.23849 13.9863,-4.63985 29.4177,2.62626 44.1493,2.27003 7.9293,-0.19174 15.7457,-2.47489 23.6766,-2.369 14.7745,0.19726 29.25,6.82917 43.9737,5.58923 7.9825,-0.67224 17.8275,-0.85597 22.998,-6.9747 5.4482,-6.44745 11.3175,-15.96503 3.2039,-25.11998 -8.1137,-9.15497 -42.2763,-15.83519 -61.2402,-27.7882 -13.3226,-8.39724 -23.0533,-21.67841 -36.1701,-30.39349 -10.9947,-7.30503 -23.9309,-11.25896 -35.2336,-18.07766 -13.0624,-7.88027 -25.2836,-17.1007 -37.4699,-26.27778 -9.9037,-7.45818 -19.6788,-15.12134 -28.9367,-23.36755 -8.5931,-7.65411 -16.8608,-15.70095 -24.6397,-24.18132 -6.3122,-6.88142 -12.9725,-13.63271 -17.8271,-21.60963 -5.9904,-9.84345 -9.4994,-21.01374 -13.5771,-31.79111 -3.0322,-8.01424 -2.3183,-18.0616 -8.0813,-24.40279 -4.4633,-4.91107 -11.8455,-9.88858 -18.2166,-8.03177 -5.7466,1.6748 -7.3924,9.53358 -9.9662,14.9377 -3.5844,7.52608 -1.8625,17.65992 -7.4047,23.88678 -3.0913,3.47326 -8.3555,4.14233 -12.7549,5.64736 -18.124,6.20018 -36.7105,12.04228 -55.7854,13.79466 -6.6874,0.61436 -15.6911,-0.31987 -20.1114,-1.1919 -9.1388,-1.80288 -9.0079,-1.45316 -13.3248,-2.86996 l -22.1883,-7.28222"
       id="path14-1" /><path
       style="fill:none;stroke:#989898;stroke-width:1.07293;stroke-linejoin:round;stroke-dasharray:none;stroke-opacity:1"
       d="M -455.5342,1027.8232 Z"
       id="path15-4" /><path
       style="fill:none;stroke:#989898;stroke-width:1.07293;stroke-linejoin:round;stroke-dasharray:none;stroke-opacity:1"
       d="m -443.5027,1005.2899 5.8241,-0.036 -1.6115,15.6049 z"
       id="path16-8" /><path
       style="fill:none;stroke:#989898;stroke-width:1.07293;stroke-linejoin:round;stroke-dasharray:none;stroke-opacity:1"
       d="m -430.5128,1011.9411 5.433,-0.2041 -3.5132,13.2566 z"
       id="path17-4" /><path
       style="fill:none;stroke:#989898;stroke-width:1.07293;stroke-linejoin:round;stroke-dasharray:none;stroke-opacity:1"
       d="m -418.136,1013.7127 3.0929,13.5583 1.4098,-13.6543 z"
       id="path18-5" /><path
       style="fill:none;stroke:#989898;stroke-width:1.07293;stroke-linejoin:round;stroke-dasharray:none;stroke-opacity:1"
       d="m -406.9116,1010.8812 2.3109,13.2213 2.974,-12.9797 z"
       id="path19-7" /><path
       style="fill:none;stroke:#989898;stroke-width:1.07293;stroke-linejoin:round;stroke-dasharray:none;stroke-opacity:1"
       d="m -187.0472,932.11509 -3.4963,4.26539 9.6988,2.72516 z"
       id="path20-3" /><path
       style="fill:none;stroke:#989898;stroke-width:1.07293;stroke-linejoin:round;stroke-dasharray:none;stroke-opacity:1"
       d="m -182.0021,932.14308 2.7215,-5.81828 6.9765,9.31955 z"
       id="path21-7" /><path
       style="fill:none;stroke:#989898;stroke-width:1.07293;stroke-linejoin:round;stroke-dasharray:none;stroke-opacity:1"
       d="m -173.8449,923.22535 2.3321,-4.26643 7.3638,10.09598 z"
       id="path22-5" /><path
       style="fill:none;stroke:#989898;stroke-width:1.07293;stroke-linejoin:round;stroke-dasharray:none;stroke-opacity:1"
       d="m -171.6285,914.3994 3.4597,-4.48913 5.1749,9.33483 z"
       id="path23-3" /><path
       style="fill:none;stroke:#989898;stroke-width:1.07293;stroke-linejoin:round;stroke-dasharray:none;stroke-opacity:1"
       d="M -449.862,695.1952 Z"
       id="path32-6" /><path
       style="fill:none;stroke:#989898;stroke-width:1.07293;stroke-linejoin:round;stroke-dasharray:none;stroke-opacity:1"
       d="m -441.4703,689.94819 3.0757,0.1211 -1.9753,-7.50859 z"
       id="path34-8" /><path
       style="fill:none;stroke:#989898;stroke-width:1.07293;stroke-linejoin:round;stroke-dasharray:none;stroke-opacity:1"
       d="m -434.4615,688.95797 1.765,-7.67259 0.7841,7.73152 z"
       id="path35-1" /><path
       style="fill:none;stroke:#989898;stroke-width:1.07293;stroke-linejoin:round;stroke-dasharray:none;stroke-opacity:1"
       d="m -428.1098,690.5725 1.3218,-7.48258 1.6703,7.35124 z"
       id="path36-7" /><path
       style="fill:none;stroke:#989898;stroke-width:1.07293;stroke-linejoin:round;stroke-dasharray:none;stroke-opacity:1"
       d="m -580.1044,727.04219 5.1666,2.18617 -1.5386,2.56953 -3.851,-3.7831"
       id="path37-0" /><path
       style="fill:none;stroke:#989898;stroke-width:1.07293;stroke-linejoin:round;stroke-dasharray:none;stroke-opacity:1"
       d="m -580.8747,733.02828 2.268,0.45822 -1.5386,2.56954 -0.9658,-0.8199"
       id="path38-0" /><path
       style="fill:#220c00;fill-opacity:1;stroke:#000000;stroke-width:2.44716;stroke-linejoin:round;stroke-dasharray:none;stroke-opacity:1"
       d="m -548.1543,724.67561 c 0.9589,4.51337 3.2331,8.80212 6.0715,12.43973 2.7923,3.57811 6.4759,6.51755 10.4178,8.7671 5.1165,2.91989 10.835,5.08482 16.6758,5.85353 7.188,0.94601 14.5877,-0.17898 21.6871,-1.6484 7.4905,-1.55041 15.3574,-3.19924 21.6923,-7.48682 4.9929,-3.37932 9.948,-8.67454 11.8321,-13.67966 2.9838,-7.92616 0.3958,-13.39862 -7.3956,-19.97349 6.5659,-0.4791 12.0574,-4.40939 12.3567,-10.59083 0.2956,-6.1042 -7.0649,-11.089 -12.8745,-12.67436 -3.1632,-0.86317 -6.6189,0.9011 -9.5432,2.38363 -2.7121,1.37491 -7.0146,5.83203 -7.0146,5.83203 0,0 -2.7331,-2.8446 -10.1616,-5.05696 -7.4286,-2.21235 -17.7858,-1.1369 -23.5892,-3.31428 -6.364,-2.38774 -14.3783,-8.44188 -14.3783,-8.44188 -6.7268,-1.70145 -13.017,-2.67835 -15.3366,2.93491 3.6054,-3.63418 -1.2284,4.16331 -3.8283,10.12201 -1.3591,9.21303 1.9205,13.58503 3.9934,17.44598 0,0 -1.7892,11.51271 -0.6048,17.08776 z"
       id="path40-2" /><path
       style="fill:none;stroke:#000000;stroke-width:2.57711;stroke-linejoin:round;stroke-opacity:1"
       d="m -516.4256,708.36581 c 0,-2.36614 6.0137,-8.24143 10.4019,-9.45511 3.603,-0.99659 7.8295,0.31286 10.9385,2.37607 3.2777,2.17539 7.3709,5.76358 6.7884,9.65417 -0.8558,5.7136 -8.3676,8.37764 -13.6853,10.63521 -2.5439,1.07982 -8.2064,1.17563 -8.2064,1.17563"
       id="path41-6" /><path
       style="fill:#351a00;fill-opacity:1;stroke:none;stroke-width:2.28082;stroke-linejoin:round;stroke-dasharray:none;stroke-opacity:1"
       d="m -548.367,702.66172 6.9625,-1.41469 10.5723,-6.54475 c 6.3891,-2.27573 9.0783,-5.11598 10.824,-8.05507 l -2.2655,-2.01376 -10.3206,-5.78959 -11.3274,-1.51034 -4.0275,6.79647 -2.7691,5.6435 c -0.024,6.72449 0.4328,9.401 2.3513,12.88823 z"
       id="path55-9" /><path
       style="fill:none;stroke:#000000;stroke-width:2.67191;stroke-linejoin:round;stroke-opacity:1"
       d="m -474.8176,710.58984 8.0858,-2.05682 7.781,-2.59563"
       id="path42-7" /><path
       style="fill:#110f0e;fill-opacity:1;stroke:#000000;stroke-width:2.44716;stroke-linejoin:round;stroke-dasharray:none;stroke-opacity:1"
       d="m -547.7146,680.01986 c 0,0 2.8788,6.48607 5.8912,7.08256 3.7093,0.73451 10.0309,-5.29881 10.0309,-5.29881 0.5914,-1.96535 0.3963,-3.53825 -0.5855,-4.71866 0,0 -6.7829,-2.08968 -10.0251,-1.18866 -2.1595,0.60017 -5.3115,4.12357 -5.3115,4.12357 z"
       id="path43-4" /><path
       style="fill:none;fill-opacity:1;stroke:#341200;stroke-width:2;stroke-linejoin:round;stroke-dasharray:none;stroke-opacity:1"
       d="m -469.7788,750.86108 25.8757,-0.0768 m -13.0219,11.7184 16.3731,-2.37504 m -13.4534,10.29533 c 0,0 3.4215,1.03437 6.3687,2.21259 2.9472,1.17821 17.1934,2.03803 17.1934,2.03803 m -4.9271,19.62332 15.1674,3.17025 m -10.8368,16.23571 c -5.5483,2.20046 22.1819,3.11523 18.9624,6.16341 m -6.4818,7.66332 13.0525,-1.36813"
       id="path45-7" /><path
       style="fill:#210c00;fill-opacity:1;stroke:#3c1500;stroke-width:2;stroke-linejoin:round;stroke-dasharray:none;stroke-opacity:1"
       d="m -571.4889,737.9412 9.3647,-3.7459 m -1.2487,6.86748 10.6134,-3.12159"
       id="path46-5" /><path
       style="fill:none;fill-opacity:1;stroke:#5c2200;stroke-width:2;stroke-linejoin:round;stroke-dasharray:none;stroke-opacity:1"
       d="m -422.43567,910.70764 15.29435,11.66503 m -4.05063,12.51989 13.40299,11.49676 m -8.33375,5.64715 11.44035,10.39473 m -7.47289,8.71195 10.62704,7.95243"
       id="path47-8" /><path
       style="fill:#210c00;fill-opacity:1;stroke:#3c1500;stroke-width:2;stroke-linejoin:round;stroke-dasharray:none;stroke-opacity:1"
       d="m -429.7177,702.9795 c 0,0 14.3594,-1.24862 11.2378,10e-6 m -6.8675,5.61884 11.2377,3.7459 m -5.6189,4.3702 6.8675,8.74042"
       id="path48-6" /><path
       style="fill:#210c00;fill-opacity:1;stroke:#000000;stroke-width:2;stroke-linejoin:round;stroke-dasharray:none;stroke-opacity:1"
       d="m -304.1658,832.58308 19.3538,-3.12157 3.1216,10.61336 15.6079,-4.99453 -6.2431,8.11611 18.1051,2.49726 1.2486,9.36474 21.1107,5.24863 -5.6189,7.49179 21.2267,3.12158 -8.1161,8.11611 21.2268,1.87294 -5.6189,6.24315 7.4918,14.35927"
       id="path49-57" /><path
       style="fill:#210c00;fill-opacity:1;stroke:#000000;stroke-width:2;stroke-linejoin:round;stroke-dasharray:none;stroke-opacity:1"
       d="m -399.8022,751.05182 23.7241,6.24316 -3.7459,6.86747 11.862,4.37021 1.8729,8.74042 16.2322,3.12158 -3.1216,9.36474 21.2268,6.24315 -2.4973,3.7459 8.7404,3.74589 -4.3702,5.61884 17.4809,0.62432 -8.7405,13.73495"
       id="path50-5" /><path
       style="fill:none;fill-opacity:1;stroke:#4a1b00;stroke-width:2;stroke-linejoin:round;stroke-dasharray:none;stroke-opacity:1"
       d="m -345.4867,927.10886 13.1107,-4.37021 -1.873,6.86748 c 0,0 16.8566,-5.61884 11.862,-1.87295 -4.9945,3.74589 -9.3647,7.49179 -4.9945,7.49179 4.3702,0 12.4863,2.49726 12.4863,2.49726 l -0.6243,5.61884 5.6188,0.62432 -3.1215,6.24316 2.4972,4.37021"
       id="path51-7" /><path
       style="fill:none;fill-opacity:1;stroke:#331200;stroke-width:2;stroke-linejoin:round;stroke-opacity:1"
       d="m -480.1243,694.78509 8.1363,-4.96156 -2.5413,3.60968 8.6593,-0.4901 -6.1731,3.86028 5.107,-1.09231 -6.7976,3.03338 4.643,3.64078 -9.3982,-2.56147"
       id="path1-9" /><path
       style="fill:none;fill-opacity:1;stroke:#4a1b00;stroke-width:2.19851;stroke-linejoin:round;stroke-dasharray:none;stroke-opacity:1"
       d="m -432.33081,913.3429 17.34803,12.0883 m -3.85697,13.94121 15.26291,11.99285 m -8.8856,6.5957 13.05538,10.87533 m -7.79535,9.92089 12.04678,8.23151"
       id="path732" /><path
       style="fill:none;fill-opacity:1;stroke:#3c1500;stroke-width:2;stroke-linejoin:round;stroke-dasharray:none;stroke-opacity:1"
       d="m -482.47575,756.12567 25.8757,-0.0768 m -13.0219,11.7184 16.3731,-2.37504 m -13.4534,10.29533 c 0,0 3.4215,1.03437 6.3687,2.21259 2.9472,1.17821 17.1934,2.03803 17.1934,2.03803 m -4.9271,19.62332 15.1674,3.17025 m -10.8368,16.23571 c -5.5483,2.20046 22.1819,3.11523 18.9624,6.16341 m -6.4818,7.66332 13.0525,-1.36813"
       id="path733" /><path
       style="fill:none;fill-opacity:1;stroke:#461800;stroke-width:2;stroke-linejoin:round;stroke-dasharray:none;stroke-opacity:1"
       d="m -473.78533,759.12912 25.8757,-0.0768 m -13.0219,11.7184 16.3731,-2.37504 m -13.4534,10.29533 c 0,0 3.4215,1.03437 6.3687,2.21259 2.9472,1.17821 17.1934,2.03803 17.1934,2.03803 m -4.9271,19.62332 15.1674,3.17025 m -10.8368,16.23571 c -5.5483,2.20046 22.1819,3.11523 18.9624,6.16341 m -6.4818,7.66332 13.0525,-1.36813"
       id="path734" /><path
       style="fill:none;fill-opacity:1;stroke:#3c1500;stroke-width:2.15688;stroke-linejoin:round;stroke-dasharray:none;stroke-opacity:1"
       d="m -478.66634,898.81342 29.82742,3.53983 m -16.91085,9.77735 19.25209,-0.0625 m -17.17652,8.30873 c 0,0 3.77409,1.50176 6.97827,3.07962 3.20419,1.57784 19.47928,4.4195 19.47928,4.4195 m -8.86984,18.73155 16.96064,5.25688 m -15.12806,14.55322 c -6.75096,1.40236 25.05196,6.18263 20.8464,8.74935 m -8.71536,6.67818 15.26216,0.46998"
       id="path735" /><path
       style="fill:none;fill-opacity:1;stroke:#3b1500;stroke-width:2.40215;stroke-linejoin:round;stroke-dasharray:none;stroke-opacity:1"
       d="m -431.12349,765.46162 37.37204,-0.0767 m -18.80741,11.70448 23.64752,-2.37222 m -19.43062,10.2831 c 0,0 4.94164,1.03314 9.19825,2.20996 4.25662,1.17681 24.83228,2.03561 24.83228,2.03561 m -7.11617,19.60001 21.90614,3.16649 m -15.65149,16.21642 c -8.01336,2.19785 32.03712,3.11153 27.38722,6.15609 m -9.3616,7.65422 18.8516,-1.36651"
       id="path736" /><path
       style="fill:none;fill-opacity:1;stroke:#461800;stroke-width:2.26462;stroke-linejoin:round;stroke-dasharray:none;stroke-opacity:1"
       d="m -422.91003,881.77245 -33.0632,2.51314 m 15.22498,-12.87683 -20.63941,3.90318 m 15.94879,-11.50264 c 0,0 -4.49836,-0.70616 -8.4079,-1.60002 -3.90954,-0.89384 -22.22213,-0.40708 -22.22213,-0.40708 m 3.92176,-19.97365 -19.7697,-1.72354 m 11.88524,-17.16219 c 6.82506,-2.71021 -28.72849,-1.00827 -24.98259,-4.34198 m 7.35683,-8.22934 -16.51715,2.58939"
       id="path737" /><path
       style="fill:none;fill-opacity:1;stroke:#3c1500;stroke-width:2;stroke-linejoin:round;stroke-dasharray:none;stroke-opacity:1"
       d="m -493.44741,789.49721 -23.54538,10.73183 m 7.03663,-16.04295 -13.93998,8.91044 m 8.01617,-14.92411 c 0,0 -3.54376,0.46733 -6.71462,0.60814 -3.17086,0.14082 -16.50578,5.22741 -16.50578,5.22741 m -3.59621,-19.91025 -15.12628,3.36097 m 3.18433,-19.25862 c 4.14874,-4.29111 -21.49498,6.30137 -19.81747,2.19741 m 2.74839,-9.65332 -10.45334,6.1868"
       id="path738" /><path
       style="fill:#210c00;fill-opacity:1;stroke:#3c1500;stroke-width:2;stroke-linejoin:round;stroke-dasharray:none;stroke-opacity:1"
       d="m -574.05828,738.47021 7.85543,-6.32627 m 0.81908,6.93185 9.23227,-6.09539"
       id="path739" /><path
       style="fill:#210c00;fill-opacity:1;stroke:#431800;stroke-width:2.48908;stroke-linejoin:round;stroke-dasharray:none;stroke-opacity:1"
       d="m -429.88,702.08615 c 0,0 14.62518,-5.27472 10.48094,-4.69775 m -5.63888,12.14567 12.45965,7.87981 m -8.09317,3.60319 5.68884,12.60999"
       id="path740" /><path
       style="display:inline;fill:#210c00;fill-opacity:1;stroke:#3c1500;stroke-width:1.99937;stroke-linecap:round;stroke-linejoin:round;stroke-dasharray:none;stroke-opacity:1"
       d="m -399.8022,751.05182 23.7241,6.24316 m -3.7459,6.86747 11.862,4.37021 m 1.8729,8.74042 16.2322,3.12158 m -3.1216,9.36474 21.2268,6.24315 m -2.4973,3.7459 8.7404,3.74589 m -4.3702,5.61884 17.4809,0.62432"
       id="path741" /><path
       style="fill:#210c00;fill-opacity:1;stroke:#000000;stroke-width:2;stroke-linejoin:round;stroke-dasharray:none;stroke-opacity:1"
       d="m -304.1658,832.58308 19.3538,-3.12157 3.1216,10.61336 15.6079,-4.99453 -6.2431,8.11611 18.1051,2.49726 1.2486,9.36474 21.1107,5.24863 -5.6189,7.49179 21.2267,3.12158 -8.1161,8.11611 21.2268,1.87294 -5.6189,6.24315 7.4918,14.35927"
       id="path742" /><path
       style="fill:none;fill-opacity:1;stroke:#4a1b00;stroke-width:2;stroke-linecap:round;stroke-linejoin:round;stroke-dasharray:none;stroke-opacity:1"
       d="m -304.1658,832.58308 19.3538,-3.12157 m 3.1216,10.61336 15.6079,-4.99453 m -6.2431,8.11611 18.1051,2.49726 m 1.2486,9.36474 21.1107,5.24863 m -5.6189,7.49179 21.2267,3.12158 m -8.1161,8.11611 21.2268,1.87294 m -5.6189,6.24315 7.4918,14.35927"
       id="path743" /><path
       style="fill:none;fill-opacity:1;stroke:#4a1b00;stroke-width:2.19851;stroke-linejoin:round;stroke-dasharray:none;stroke-opacity:1"
       d="m -432.33081,913.3429 17.34803,12.0883 m -3.85697,13.94121 15.26291,11.99285 m -8.8856,6.5957 13.05538,10.87533 m -7.79535,9.92089 12.04678,8.23151"
       id="path744" /><path
       style="fill:none;fill-opacity:1;stroke:#4a1b00;stroke-width:2;stroke-linejoin:round;stroke-dasharray:none;stroke-opacity:1"
       d="m -286.76332,909.43172 12.20174,14.8697 m 12.36787,-4.49346 11.96628,12.98552 m 5.34711,-8.52937 10.79514,11.06332 m 8.44059,-7.77809 8.32544,10.33741"
       id="path731" /><path
       style="fill:none;fill-opacity:1;stroke:#5c2200;stroke-width:2;stroke-linejoin:round;stroke-dasharray:none;stroke-opacity:1"
       d="m -285.14399,894.26487 11.9314,20.39411 m 12.40395,-6.41734 11.72648,17.78914 m 5.46711,-11.8939 10.58913,15.14636 m 8.5399,-10.90275 8.13795,14.18048"
       id="path745" /><path
       style="fill:none;fill-opacity:1;stroke:#4a1b00;stroke-width:2;stroke-linejoin:round;stroke-dasharray:none;stroke-opacity:1"
       d="m -274.14223,884.80818 11.66635,25.97382 m 12.448,-8.36007 11.49207,22.64088 m 5.59142,-15.29177 10.38807,19.27031 m 8.64525,-14.0583 7.95404,18.06201"
       id="path746" /><path
       style="fill:none;fill-opacity:1;stroke:#3c1500;stroke-width:2;stroke-linejoin:round;stroke-dasharray:none;stroke-opacity:1"
       d="m -414.42624,886.29204 25.8757,-0.0768 m -13.0219,11.7184 16.3731,-2.37504 m -13.4534,10.29533 c 0,0 3.4215,1.03437 6.3687,2.21259 2.9472,1.17821 17.1934,2.03803 17.1934,2.03803 m -4.9271,19.62332 15.1674,3.17025 m -10.8368,16.23571 c -5.5483,2.20046 22.1819,3.11523 18.9624,6.16341 m -6.4818,7.66332 13.0525,-1.36813"
       id="path747" /><path
       style="fill:none;fill-opacity:1;stroke:#4f1b00;stroke-width:2.26698;stroke-linejoin:round;stroke-dasharray:none;stroke-opacity:1"
       d="m -482.37891,759.27286 29.32983,-0.0871 m -14.76018,13.28268 18.55873,-2.69208 m -15.24928,11.66965 c 0,0 3.87823,1.17245 7.21885,2.50795 3.34062,1.33548 19.48854,2.31008 19.48854,2.31008 m -5.58482,22.24283 17.19209,3.59344 m -12.2834,18.40301 c -6.28894,2.4942 25.14295,3.53108 21.49368,6.98616 m -7.34705,8.6863 14.79487,-1.55076"
       id="path748" /><path
       style="fill:none;fill-opacity:1;stroke:#3c1500;stroke-width:2.2471;stroke-linejoin:round;stroke-dasharray:none;stroke-opacity:1"
       d="m -377.91692,803.11115 32.69082,-0.0767 m -16.45159,11.70898 20.68544,-2.37313 m -16.99676,10.28704 c 0,0 4.32265,1.03354 8.04609,2.21081 3.72343,1.17727 21.72179,2.0364 21.72179,2.0364 m -6.2248,19.60753 19.16219,3.1677 m -13.691,16.22265 c -7.00961,2.1987 28.02416,3.11273 23.95671,6.15846 m -8.18897,7.65715 16.49026,-1.36703"
       id="path749" /><path
       style="fill:none;fill-opacity:1;stroke:#3c1500;stroke-width:1.78865;stroke-linejoin:round;stroke-dasharray:none;stroke-opacity:1"
       d="m -400.43624,846.68175 25.89548,-0.0614 m -13.03185,9.36543 16.38562,-1.89815 m -13.46369,8.2281 c 0,0 3.42412,0.82668 6.37357,1.76832 2.94945,0.94163 17.20655,1.62881 17.20655,1.62881 m -4.93087,15.6831 15.17899,2.53368 m -10.84508,12.9757 c -5.55254,1.75862 22.19886,2.48971 18.9769,4.92584 m -6.48676,6.12458 13.06248,-1.09342"
       id="path750" /><path
       style="fill:none;fill-opacity:1;stroke:#3c1500;stroke-width:1.78865;stroke-linejoin:round;stroke-dasharray:none;stroke-opacity:1"
       d="m -447.18578,705.92927 17.45062,5.44252 m -15.39624,4.52728 16.09105,3.62902 m -15.42755,3.31113 c 0,0 2.95789,1.91283 5.4298,3.77712 2.47191,1.86429 15.69905,7.22899 15.69905,7.22899 m -9.8412,13.16906 13.48631,7.4122 m -14.52685,8.65767 c -5.82169,-0.17715 20.12552,9.69286 16.27909,10.92603 m -8.14756,3.63398 12.68878,3.28916"
       id="path751" /><path
       style="fill:none;fill-opacity:1;stroke:#3c1500;stroke-width:2.39617;stroke-linejoin:round;stroke-dasharray:none;stroke-opacity:1"
       d="m -319.32624,858.40342 35.57778,-10.817 m -14.53393,16.61222 21.84083,-9.0692 m -15.53827,15.43059 c 0,0 5.00582,-0.4315 9.4006,-0.52853 4.39479,-0.097 24.24293,-5.18985 24.24293,-5.18985 m -1.11588,20.81021 21.78227,-3.26599 m -10.22407,20.02457 c -6.99838,4.40781 31.41699,-6.23102 27.86722,-1.97951 m -6.70624,10.01916 17.5629,-6.72764"
       id="path752" /><path
       style="fill:none;fill-opacity:1;stroke:#4a1b00;stroke-width:2.6258;stroke-linejoin:round;stroke-dasharray:none;stroke-opacity:1"
       d="m -444.55681,894.31409 20.07993,15.31501 m -5.31807,16.43734 17.59677,15.09408 m -10.94137,7.41414 15.02002,13.64723 m -9.81115,11.4379 13.95223,10.44074"
       id="path753" /><path
       style="fill:none;fill-opacity:1;stroke:#3c1500;stroke-width:2.66745;stroke-linejoin:round;stroke-dasharray:none;stroke-opacity:1"
       d="m -501.89347,761.13039 33.27905,-9.13929 m -12.66699,19.63289 20.24485,-8.77742 m -13.71959,17.95195 c 0,0 4.76537,0.136 8.9705,0.62286 4.20513,0.48683 22.84252,-3.38374 22.84252,-3.38374 m 0.51402,26.97957 20.63033,-1.21856 m -8.2762,24.68393 c -6.37271,4.77078 29.63982,-3.74008 26.56081,1.30821 m -5.66566,12.12844 16.32253,-6.32124"
       id="path754" /><path
       style="fill:none;fill-opacity:1;stroke:#4a1b00;stroke-width:2;stroke-linejoin:round;stroke-dasharray:none;stroke-opacity:1"
       d="m -355.21439,938.20466 10.96273,-8.41473 m 0.47406,7.10251 c 0,0 14.09494,-10.81891 10.59868,-5.6465 m -2.27203,8.71262 c 4.13025,-1.42813 12.61683,-1.72024 12.61683,-1.72024 m 1.24616,5.51435 5.51433,-1.24612 m -0.90991,6.92047 3.78824,3.3142"
       id="path755" /><path
       style="fill:none;fill-opacity:1;stroke:#290e00;stroke-width:2.39617;stroke-linejoin:round;stroke-dasharray:none;stroke-opacity:1"
       d="m -386.60128,837.19017 37.18575,-0.0767 m -18.71366,11.70469 23.52965,-2.37226 m -19.33378,10.28328 c 0,0 4.91701,1.03316 9.15241,2.21 4.2354,1.17683 24.7085,2.03565 24.7085,2.03565 m -7.0807,19.60035 21.79695,3.16654 m -15.57348,16.21671 c -7.97342,2.19789 31.87743,3.11159 27.25071,6.1562 m -9.31494,7.65435 18.75764,-1.36653"
       id="path756" /><path
       style="fill:none;fill-opacity:1;stroke:#2c0f00;stroke-width:2.39617;stroke-linejoin:round;stroke-dasharray:none;stroke-opacity:1"
       d="m -505.51909,789.49917 37.18575,-0.0767 m -18.71366,11.70469 23.52965,-2.37226 m -19.33378,10.28328 c 0,0 4.91701,1.03316 9.15241,2.21 4.2354,1.17683 24.7085,2.03565 24.7085,2.03565 m -7.0807,19.60035 21.79695,3.16654 m -15.57348,16.21671 c -7.97342,2.19789 31.87743,3.11159 27.25071,6.1562 m -9.31494,7.65435 18.75764,-1.36653"
       id="path757" /><path
       style="fill:none;fill-opacity:1;stroke:#290e00;stroke-width:2.39617;stroke-linejoin:round;stroke-dasharray:none;stroke-opacity:1"
       d="m -358.56546,802.82304 -37.18575,0.0767 m 18.71366,-11.70469 -23.52965,2.37226 m 19.33378,-10.28328 c 0,0 -4.91701,-1.03316 -9.15241,-2.21 -4.2354,-1.17683 -24.7085,-2.03565 -24.7085,-2.03565 m 7.0807,-19.60035 -21.79695,-3.16654 m 15.57348,-16.21671 c 7.97342,-2.19789 -31.87743,-3.11159 -27.25071,-6.1562 m 9.31494,-7.65435 -18.75764,1.36653"
       id="path758" /><path
       style="fill:none;fill-opacity:1;stroke:#2c0f00;stroke-width:2.39617;stroke-linejoin:round;stroke-dasharray:none;stroke-opacity:1"
       d="m -565.59736,751.71799 37.18575,-0.0767 m -18.71366,11.70469 23.52965,-2.37226 M -542.9294,771.257 c 0,0 4.91701,1.03316 9.15241,2.21 4.2354,1.17683 24.7085,2.03565 24.7085,2.03565 m -7.0807,19.60035 21.79695,3.16654 m -15.57348,16.21671 c -7.97342,2.19789 31.87743,3.11159 27.25071,6.1562 m -9.31494,7.65435 18.75764,-1.36653"
       id="path759" /></g></svg>
