<?xml version="1.0" encoding="UTF-8" standalone="no"?>
<!-- Created with Inkscape (http://www.inkscape.org/) -->

<svg
   width="695.11334"
   height="102.65417"
   viewBox="0 0 695.11334 102.65417"
   version="1.1"
   id="svg1"
   xml:space="preserve"
   xmlns="http://www.w3.org/2000/svg"
   xmlns:svg="http://www.w3.org/2000/svg"><defs
     id="defs1"><clipPath
       clipPathUnits="userSpaceOnUse"
       id="clipPath825"><rect
         style="display:inline;opacity:1;fill:#2a0f00;fill-opacity:1;stroke:#000000;stroke-width:3;stroke-linecap:round;stroke-linejoin:miter;stroke-dasharray:none;stroke-opacity:1"
         id="rect826"
         width="1920"
         height="1080"
         x="-1930"
         y="0" /></clipPath><clipPath
       clipPathUnits="userSpaceOnUse"
       id="clipPath827"><rect
         style="display:inline;opacity:1;fill:#2a0f00;fill-opacity:1;stroke:#694324;stroke-width:2;stroke-linecap:round;stroke-linejoin:miter;stroke-dasharray:none;stroke-opacity:1"
         id="rect828"
         width="1233.2847"
         height="284.67157"
         x="-1930"
         y="795.32843" /></clipPath><clipPath
       clipPathUnits="userSpaceOnUse"
       id="clipPath834"><rect
         style="opacity:1;fill:#2a0f00;fill-opacity:1;stroke:#694324;stroke-width:2;stroke-linecap:round;stroke-linejoin:miter;stroke-dasharray:none;stroke-opacity:1"
         id="rect835"
         width="1072.7375"
         height="225.27826"
         x="-1930"
         y="854.72174" /></clipPath><clipPath
       clipPathUnits="userSpaceOnUse"
       id="clipPath835"><rect
         style="opacity:1;fill:#2a0f00;fill-opacity:1;stroke:#694324;stroke-width:2;stroke-linecap:round;stroke-linejoin:miter;stroke-dasharray:none;stroke-opacity:1"
         id="rect836"
         width="1072.7375"
         height="225.27826"
         x="-1930"
         y="854.72174" /></clipPath><clipPath
       clipPathUnits="userSpaceOnUse"
       id="clipPath836"><rect
         style="opacity:1;fill:#2a0f00;fill-opacity:1;stroke:#694324;stroke-width:1.69787;stroke-linecap:round;stroke-linejoin:miter;stroke-dasharray:none;stroke-opacity:1"
         id="rect837"
         width="751.95984"
         height="231.61578"
         x="-1774.6304"
         y="831.77423" /></clipPath><clipPath
       clipPathUnits="userSpaceOnUse"
       id="clipPath837"><rect
         style="opacity:1;fill:#2a0f00;fill-opacity:1;stroke:#694324;stroke-width:2;stroke-linecap:round;stroke-linejoin:miter;stroke-dasharray:none;stroke-opacity:1"
         id="rect838"
         width="1072.7375"
         height="225.27826"
         x="-1716.6293"
         y="834.9021" /></clipPath><clipPath
       clipPathUnits="userSpaceOnUse"
       id="clipPath838"><rect
         style="display:inline;opacity:1;fill:#2a0f00;fill-opacity:1;stroke:#694324;stroke-width:2;stroke-linecap:round;stroke-linejoin:miter;stroke-dasharray:none;stroke-opacity:1"
         id="rect839"
         width="1072.7375"
         height="225.27826"
         x="-1930"
         y="854.72174" /></clipPath></defs><g
     id="g742"
     style="display:inline"
     transform="translate(1757.3317,-977.3458)"
     clip-path="url(#clipPath825)"><path
       style="fill:#220c00;fill-opacity:1;stroke:#000000;stroke-width:2;stroke-linejoin:round;stroke-opacity:1"
       d="m -1719.5697,1049.5884 c 0,0 -15.3685,-1.4335 -22.7625,-3.4969 -3.3889,-0.9457 -7.2846,-1.5259 -9.7551,-4.031 -2.6182,-2.6548 -3.7918,-6.6829 -4.1278,-10.3964 -0.5843,-6.4587 1.1007,-15.3196 3.8174,-19.077 3.9323,-5.4385 11.2766,-4.6974 17.2648,-5.1408 13.1646,-0.9747 26.2717,2.9481 39.2054,5.5888 12.5977,2.5721 37.2644,9.9613 37.2644,9.9613 l -17.6245,19.637 z"
       id="path717" /><path
       style="fill:#1a0900;fill-opacity:1;stroke:#000000;stroke-width:2;stroke-linejoin:round;stroke-opacity:1"
       d="m -1566.7753,1005.1285 c 0.4388,-0.7986 16.1564,-21.13594 -12.2277,-26.24717 -7.5531,-1.36011 -21.5537,-0.45793 -27.7729,6.76035 -2.5389,2.94686 -1.0527,11.62174 -1.0527,11.62174"
       id="path718" /><path
       style="display:inline;fill:#855c6f;fill-opacity:1;stroke:none;stroke-width:1;stroke-linejoin:round;stroke-dasharray:none;stroke-opacity:1"
       d="m -1717.2173,1068.3281 -10.1535,6.1804 2.2073,8.3877 11.0364,3.9731 19.4242,-1.7658 3.5316,-10.1535 -16.3339,-7.9463 -7.5048,1.7658 z"
       id="path719"
       clip-path="url(#clipPath834)" /><path
       id="path720"
       style="display:inline;fill:#220c00;fill-opacity:1;stroke:#000000;stroke-width:2;stroke-linejoin:round;stroke-opacity:1"
       d="m -1481.6944,1044.1778 c 28.1312,1.515 114.7248,3.8541 142.8843,3.0145 28.4105,-0.8472 62.2174,-4.4312 93.0414,-8.9807 20.6909,-3.0539 26.1767,-9.4471 61.5335,-12.2719 23.1565,-1.8501 23.8165,1.2869 37.0152,0.1514 15.1289,-1.3015 27.0585,-0.5613 44.5355,-6.3994 17.477,-5.8382 32.5551,-7.6598 38.0884,7.1048 2.0305,5.418 2.2086,16.169 -2.1876,22.8513 -4.3963,6.6822 -8.9873,23.3102 -11.1278,30.1112 -2.8357,9.0098 -5.6016,20.1823 -13.9618,24.4419 -18.2994,9.3238 -61.2456,-6.7237 -61.2456,-6.7237 l -21.744,3.2915 -114.0622,-5.0567 c -4.013,-1.3509 -425.4706,-1.8456 -429.4093,-2.4787 -3.9388,-0.6331 -8.0745,-3.1706 -12.8755,-12.1388 -0.4457,-3.6217 0.7762,-6.8105 3.2429,-8.6578 1.9713,-1.4763 7.3687,-0.5402 7.3687,-0.5402 0,0 -3.8889,1.3708 -5.1283,2.8926 -0.9858,1.2106 -1.6632,2.9177 -1.4273,4.461 0.2912,1.9047 1.5687,3.9373 3.3258,4.728 8.6676,3.9004 27.3406,2.0234 28.3354,-3.1891 -0.3385,-2.9998 -10.2421,-6.6054 -17.6445,-8.2092 -7.4024,-1.6038 -13.6958,-2.3687 -14.5227,-4.0588 -3.3074,-6.7603 -5.6729,-9.5614 -3.6832,-14.9192 3.1808,-8.5649 10.0266,-7.4242 25.6349,-10.1718 12.3362,-2.016 29.6216,-5.9367 39.294,-12.9279 5.5872,-4.0385 8.7012,-11.9995 14.5018,-16.4462 5.6716,-4.3478 13.7624,-6.5434 19.2112,-9.5165 9.0092,-4.91572 15.4292,-6.07352 23.5725,-7.03724 8.3144,-0.98395 16.8657,-0.25179 25.0798,1.3687 5.2429,1.03433 15.1404,5.27144 15.1404,5.27144 0,0 12.93,8.4997 17.7838,14.3776 2.156,2.6109 4.649,9.2476 7.0653,16.189 z"
       clip-path="url(#clipPath827)" /><path
       style="display:inline;fill:#dcd7d1;fill-opacity:1;stroke:#000000;stroke-width:1;stroke-linejoin:round;stroke-dasharray:none;stroke-opacity:1"
       d="m -1709.7095,1072.9565 -12.9669,-1.9829 0.4974,6.4047 5.927,-6.6246 2.9624,6.0183 3.8227,-3.9982 3.7916,6.2109 4.4881,-3.7896 1.5031,4.7899 3.425,-0.9919 z"
       id="path721"
       clip-path="url(#clipPath835)" /><path
       style="fill:none;stroke:#000000;stroke-width:2;stroke-linejoin:round;stroke-opacity:1"
       d="m -1544.9586,1033.4064 c 1.1182,3.1579 2.1655,5.9268 3.0903,7.8415 3.699,7.6589 26.8414,7.725 26.8414,7.725"
       id="path722" /><path
       style="fill:#2a0f00;fill-opacity:1;stroke:#000000;stroke-width:2;stroke-linejoin:round;stroke-opacity:1"
       d="m -1617.2843,1045.1765 c 0,0 -6.2623,-19.735 -1.4001,-27.5327 5.0315,-8.0692 16.7122,-11.1698 26.2213,-11.2377 7.6517,-0.055 17.4303,2.0967 21.2267,8.7404 4.3805,7.6659 0.1458,18.2961 -3.7459,26.2213 -1.5476,3.1517 -7.3403,7.5546 -7.3403,7.5546 l -7.4918,4.9945"
       id="path723" /><path
       id="path724"
       style="fill:#000000;fill-opacity:1;stroke:#3b1d00;stroke-width:2;stroke-linejoin:round;stroke-dasharray:none;stroke-opacity:1"
       d="m -1646.6074,1045.2986 c -1.0694,3.609 -5.7365,3.3809 -10.4584,0.08 -4.7,-3.2851 -4.9087,-7.3196 -2.191,-10.9803 2.7178,-3.6608 7.3081,-4.5894 10.502,0.1729 4.3658,6.5099 2.1474,7.8616 2.1474,10.7268 z" /><g
       id="g817"
       transform="translate(66)"><path
         style="display:inline;fill:none;stroke:#857c78;stroke-width:1.89873;stroke-linejoin:round;stroke-opacity:1"
         d="m -1155.8794,1020.2896 1.0103,3.8197 6.9279,-5.1019 z"
         id="path24-5" /><path
         style="display:inline;fill:none;stroke:#857c78;stroke-width:1.89873;stroke-linejoin:round;stroke-opacity:1"
         d="m -1147.7144,1024.8812 1.5411,4.0879 6.7258,-5.8658 z"
         id="path25-8" /><path
         style="display:inline;fill:none;stroke:#857c78;stroke-width:1.89873;stroke-linejoin:round;stroke-opacity:1"
         d="m -1142.4783,1031.954 1.0102,3.8197 6.6249,-6.2477 z"
         id="path26-8" /><path
         style="display:inline;fill:none;stroke:#857c78;stroke-width:1.89873;stroke-linejoin:round;stroke-opacity:1"
         d="m -1141.5935,1042.014 2.1986,3.0967 4.7037,-6.5569 z"
         id="path27-8" /><path
         style="fill:none;stroke:#857c78;stroke-width:1.89873;stroke-linejoin:round;stroke-opacity:1"
         d="m -1155.8794,1020.2896 1.0103,3.8197 6.9279,-5.1019 z"
         id="path725" /><path
         style="fill:none;stroke:#857c78;stroke-width:1.89873;stroke-linejoin:round;stroke-opacity:1"
         d="m -1147.7144,1024.8812 1.5411,4.0879 6.7258,-5.8658 z"
         id="path726" /><path
         style="fill:none;stroke:#857c78;stroke-width:1.89873;stroke-linejoin:round;stroke-opacity:1"
         d="m -1142.4783,1031.954 1.0102,3.8197 6.6249,-6.2477 z"
         id="path727" /><path
         style="fill:none;stroke:#857c78;stroke-width:1.89873;stroke-linejoin:round;stroke-opacity:1"
         d="m -1141.5935,1042.014 2.1986,3.0967 4.7037,-6.5569 z"
         id="path728" /></g><path
       style="fill:#362415;fill-opacity:1;stroke:#989898;stroke-width:1.17825;stroke-linejoin:round;stroke-dasharray:none;stroke-opacity:1"
       d="m -1748.7351,1013.3708 3.1685,6.8165 1.9075,-3.2115 z"
       id="path729" /><path
       style="fill:#362415;fill-opacity:1;stroke:#989898;stroke-width:1.17825;stroke-linejoin:round;stroke-dasharray:none;stroke-opacity:1"
       d="m -1737.1262,1014.1168 -2.9031,1.4784 -2.2313,-5.841 z"
       id="path730" /><path
       style="fill:#362415;fill-opacity:1;stroke:#989898;stroke-width:1.17825;stroke-linejoin:round;stroke-dasharray:none;stroke-opacity:1"
       d="m -1746.3957,1022.9171 -1.0745,3.8404 -4.7086,-5.2032 z"
       id="path731" /><path
       style="display:inline;fill:#220c00;fill-opacity:1;stroke:#000000;stroke-width:2;stroke-linejoin:round;stroke-dasharray:none;stroke-opacity:1"
       d="m -1225.3156,1035.9766 22.8599,-13.1385 9.6,1.8512 10.8564,-3.0501 12.7378,-8.2394 3.6665,8.5854 25.7019,-15.5281 -4.8111,17.2688 22.7187,-10.0787 2.5568,7.5796 13.7125,-10.7986 -0.9524,10.3804 4.701,5.7588"
       id="path732" /><path
       style="fill:#3b1d00;fill-opacity:1;stroke:none;stroke-width:1;stroke-linejoin:round;stroke-dasharray:none;stroke-opacity:1"
       d="m -1670.2177,1033.8408 c 0,0 -3.0729,8.0642 -2.0872,12.0043 1.2517,5.0033 9.7,7.0459 9.5162,12.2002 -0.1651,4.632 -7.0281,6.2935 -9.3112,10.3272 -2.6823,4.7392 -4.7711,15.6246 -4.7711,15.6246 l -21.5079,-9.8619 c 0,0 -13.1106,-5.3066 -14.9835,-5.3066 -1.873,0 -9.6769,-1.873 -9.6769,-1.873 l -4.6824,-1.2486 10.3012,-0.9365 4.6824,-3.7459 -1.5608,-5.931 -4.6824,-8.1161 0.033,-0.9971 9.02,-1.188 13.7349,-2.8094 13.1107,-3.7459 7.4918,-2.1851 z"
       id="path733"
       clip-path="url(#clipPath838)" /><path
       style="fill:none;fill-opacity:1;stroke:#808080;stroke-width:2;stroke-linejoin:round;stroke-dasharray:none;stroke-opacity:1"
       d="m -1654.7554,1033.4686 c 0,0 2.4761,0.9514 3.4179,1.8382 1.2545,1.1813 2.0688,2.8011 2.7177,4.3974 0.2834,0.6971 0.4898,2.2038 0.4898,2.2038"
       id="path734" /><path
       style="fill:#180e00;fill-opacity:1;stroke:#000000;stroke-width:2;stroke-linejoin:round;stroke-opacity:1"
       d="m -1732.0561,1058.9528 c 0,0 -0.047,-3.7237 0.7509,-5.6636 0.7983,-1.9398 2.1301,-4.5932 3.0154,-4.9498 1.7705,-0.7132 8.3103,-3.1649 8.6579,-2.6274 0.6951,1.0751 2.8426,4.7425 3.6576,6.3715 1.6299,3.2582 2.9243,7.1034 1.5819,9.4515 -2.6546,4.6434 -14.9216,3.3045 -14.9216,3.3045 z"
       id="path735" /><ellipse
       style="fill:none;stroke:#000000;stroke-width:2.3448;stroke-linejoin:round;stroke-opacity:1"
       id="ellipse735"
       cx="-1971.0165"
       cy="467.53189"
       rx="0.89337534"
       ry="3.7057457"
       transform="rotate(-18.178939)" /><path
       style="fill:#220c00;fill-opacity:1;stroke:#000000;stroke-width:2;stroke-linejoin:round;stroke-dasharray:none;stroke-opacity:1"
       d="m -1531.8105,1039.1033 25.0078,-16.6516 -7.2148,11.3448 21.3155,-5.3602 -3.8346,7.2332 17.2666,-3.166 -1.57,8.696 14.422,-6.823 5.2087,11.0235 21.6812,-4.5218 2.9885,6.6977 21.7883,-5.6633 12.9722,11.4963"
       id="path736" /><path
       style="fill:#220c00;fill-opacity:1;stroke:#000000;stroke-width:2;stroke-linejoin:round;stroke-dasharray:none;stroke-opacity:1"
       d="m -1722.1954,1011.8866 19.9597,-10.1406 -3.0144,8.8475 13.5834,-2.6801 0.044,6.7917 16.4725,-3.8438 -7.3663,10.2829"
       id="path737" /><path
       style="fill:#211300;fill-opacity:1;stroke:#000000;stroke-width:2;stroke-linejoin:round;stroke-dasharray:none;stroke-opacity:1"
       d="m -1560.3883,1009.2875 14.9836,1.2487 -4.6824,11.2376 15.9201,3.4338 -10.3012,9.989 8.7404,4.9946 -15.6079,9.989 h 14.9836 l -1.873,4.9945"
       id="path738" /><path
       style="fill:#220c00;fill-opacity:1;stroke:#000000;stroke-width:2;stroke-linejoin:round;stroke-dasharray:none;stroke-opacity:1"
       d="m -1402.3985,1053.4089 27.5499,-12.6744 3.9108,3.9551 26.9781,-13.2286 3.0822,8.2737 30.8362,-10.7003 -1.9307,8.7278 25.1023,-9.4803 -1.7425,12.5208 26.6176,-10.4352 5.6293,6.8991 13.35,-4.0179 11.1823,10.2274"
       id="path739" /><path
       style="fill:#2a0f00;fill-opacity:1;stroke:#3c1500;stroke-width:2;stroke-linejoin:round;stroke-dasharray:none;stroke-opacity:1"
       d="m -1606.7099,1016.6469 12.0708,-3.0056 -3.1245,9.238 c 0,0 18.9565,-9.3686 15.9177,-2.3798 -3.0388,6.9886 -10.1634,7.7076 -10.1634,7.7076 l 14.0453,7.9511 -16.57,11.1033 5.9242,3.6914"
       id="path740" /><path
       style="fill:#220c00;fill-opacity:1;stroke:#3c1500;stroke-width:2;stroke-linejoin:round;stroke-dasharray:none;stroke-opacity:1"
       d="m -1601.017,995.67647 1.873,-8.74042 1.8729,4.99453 9.9891,-6.86747 -4.3702,7.49179 c 0,0 18.1051,-5.61885 13.1106,-3.7459 -4.9945,1.87295 -8.7404,6.24316 -8.7404,6.24316 0,0 18.7294,-1.87295 13.1106,-0.62432 -5.6188,1.24863 -10.6134,3.7459 -10.6134,3.7459"
       id="path741" /><path
       style="fill:#362415;fill-opacity:1;stroke:#989898;stroke-width:1.17825;stroke-linejoin:round;stroke-dasharray:none;stroke-opacity:1"
       d="m -1748.5703,1029.6815 0.7734,3.9121 -4.7701,-1.9352 z"
       id="path742" /><g
       id="g766"><path
         style="opacity:1;fill:#220c00;fill-opacity:1;stroke:#3c1500;stroke-width:3;stroke-linecap:round;stroke-linejoin:miter;stroke-dasharray:none;stroke-opacity:1"
         d="m -1419.9541,1067.1634 27.252,-12.0775"
         id="path760" /><path
         style="opacity:1;fill:#220c00;fill-opacity:1;stroke:#3c1500;stroke-width:3;stroke-linecap:round;stroke-linejoin:miter;stroke-dasharray:none;stroke-opacity:1"
         d="m -1403.2313,1069.0215 27.8714,-14.555"
         id="path761" /><path
         style="opacity:1;fill:#220c00;fill-opacity:1;stroke:#3c1500;stroke-width:3;stroke-linecap:round;stroke-linejoin:miter;stroke-dasharray:none;stroke-opacity:1"
         d="m -1372.5728,1063.4473 21.0584,-13.9357"
         id="path762" /></g><g
       id="g765"
       transform="matrix(-0.09924522,-1.3773298,0.74031398,-0.18464247,-2503.5426,-849.02455)"
       style="stroke-width:1.96307;stroke-dasharray:none"><path
         style="opacity:1;fill:#220c00;fill-opacity:1;stroke:#3c1500;stroke-width:1.96307;stroke-linecap:round;stroke-linejoin:miter;stroke-dasharray:none;stroke-opacity:1"
         d="m -1517.1942,1083.2669 7.4324,-17.6519"
         id="path763" /><path
         style="opacity:1;fill:#220c00;fill-opacity:1;stroke:#3c1500;stroke-width:1.96307;stroke-linecap:round;stroke-linejoin:miter;stroke-dasharray:none;stroke-opacity:1"
         d="m -1504.8069,1069.0215 -4.6452,23.5358"
         id="path764" /><path
         style="opacity:1;fill:#220c00;fill-opacity:1;stroke:#3c1500;stroke-width:1.96307;stroke-linecap:round;stroke-linejoin:miter;stroke-dasharray:none;stroke-opacity:1"
         d="m -1501.0907,1069.3312 1.8581,16.7228"
         id="path765" /></g><g
       id="g768"
       transform="matrix(0.49096948,0,0,0.49096948,-833.19087,521.3923)"
       style="stroke-width:4.07357;stroke-dasharray:none"><path
         style="opacity:1;fill:#220c00;fill-opacity:1;stroke:#3c1500;stroke-width:4.07357;stroke-linecap:round;stroke-linejoin:miter;stroke-dasharray:none;stroke-opacity:1"
         d="m -1419.9541,1067.1634 27.252,-12.0775"
         id="path766" /><path
         style="opacity:1;fill:#220c00;fill-opacity:1;stroke:#3c1500;stroke-width:4.07357;stroke-linecap:round;stroke-linejoin:miter;stroke-dasharray:none;stroke-opacity:1"
         d="m -1403.2313,1069.0215 27.8714,-14.555"
         id="path767" /><path
         style="opacity:1;fill:#220c00;fill-opacity:1;stroke:#3c1500;stroke-width:4.07357;stroke-linecap:round;stroke-linejoin:miter;stroke-dasharray:none;stroke-opacity:1"
         d="m -1372.5728,1063.4473 21.0584,-13.9357"
         id="path768" /></g><g
       id="g777"
       transform="rotate(14.108167,-1395.5094,744.12854)"><path
         style="opacity:1;fill:#220c00;fill-opacity:1;stroke:#3c1500;stroke-width:3;stroke-linecap:round;stroke-linejoin:miter;stroke-dasharray:none;stroke-opacity:1"
         d="m -1419.9541,1067.1634 27.252,-12.0775"
         id="path775" /><path
         style="opacity:1;fill:#220c00;fill-opacity:1;stroke:#3c1500;stroke-width:3;stroke-linecap:round;stroke-linejoin:miter;stroke-dasharray:none;stroke-opacity:1"
         d="m -1403.2313,1069.0215 27.8714,-14.555"
         id="path776" /><path
         style="opacity:1;fill:#220c00;fill-opacity:1;stroke:#3c1500;stroke-width:3;stroke-linecap:round;stroke-linejoin:miter;stroke-dasharray:none;stroke-opacity:1"
         d="m -1372.5728,1063.4473 21.0584,-13.9357"
         id="path777" /></g><g
       id="g780"
       transform="rotate(-96.870731,-1528.3525,1096.7884)"><path
         style="opacity:1;fill:#220c00;fill-opacity:1;stroke:#3c1500;stroke-width:3;stroke-linecap:round;stroke-linejoin:miter;stroke-dasharray:none;stroke-opacity:1"
         d="m -1504.8069,1069.0215 -4.2267,25.7671"
         id="path779" /><path
         style="opacity:1;fill:#220c00;fill-opacity:1;stroke:#3c1500;stroke-width:3;stroke-linecap:round;stroke-linejoin:miter;stroke-dasharray:none;stroke-opacity:1"
         d="m -1501.0907,1069.3312 1.8581,16.7228"
         id="path780" /></g><g
       id="g783"
       transform="translate(-213.37075,19.819634)"
       clip-path="url(#clipPath837)"><path
         style="opacity:1;fill:#220c00;fill-opacity:1;stroke:#3c1500;stroke-width:3;stroke-linecap:round;stroke-linejoin:miter;stroke-dasharray:none;stroke-opacity:1"
         d="m -1417.167,1066.0795 24.4649,-10.9936"
         id="path781" /><path
         style="opacity:1;fill:#220c00;fill-opacity:1;stroke:#3c1500;stroke-width:3;stroke-linecap:round;stroke-linejoin:miter;stroke-dasharray:none;stroke-opacity:1"
         d="m -1403.2313,1069.0215 27.8714,-14.555"
         id="path782" /><path
         style="opacity:1;fill:#220c00;fill-opacity:1;stroke:#3c1500;stroke-width:3;stroke-linecap:round;stroke-linejoin:miter;stroke-dasharray:none;stroke-opacity:1"
         d="m -1372.5728,1063.4473 21.0584,-13.9357"
         id="path783" /></g><g
       id="g786"
       transform="translate(-59.458903,4.9549089)"><path
         style="opacity:1;fill:#220c00;fill-opacity:1;stroke:#3c1500;stroke-width:3;stroke-linecap:round;stroke-linejoin:miter;stroke-dasharray:none;stroke-opacity:1"
         d="m -1419.9541,1067.1634 27.252,-12.0775"
         id="path784" /><path
         style="opacity:1;fill:#220c00;fill-opacity:1;stroke:#3c1500;stroke-width:3;stroke-linecap:round;stroke-linejoin:miter;stroke-dasharray:none;stroke-opacity:1"
         d="m -1403.2313,1069.0215 27.8714,-14.555"
         id="path785" /><path
         style="opacity:1;fill:#220c00;fill-opacity:1;stroke:#3c1500;stroke-width:3;stroke-linecap:round;stroke-linejoin:miter;stroke-dasharray:none;stroke-opacity:1"
         d="m -1372.5728,1063.4473 21.0584,-13.9357"
         id="path786" /></g><g
       id="g789"
       transform="translate(208.16981,-19.509953)"
       style="stroke-width:3;stroke-dasharray:none"><path
         style="opacity:1;fill:#220c00;fill-opacity:1;stroke:#3c1500;stroke-width:3;stroke-linecap:round;stroke-linejoin:miter;stroke-dasharray:none;stroke-opacity:1"
         d="m -1419.9541,1067.1634 27.252,-12.0775"
         id="path787" /><path
         style="opacity:1;fill:#220c00;fill-opacity:1;stroke:#3c1500;stroke-width:3;stroke-linecap:round;stroke-linejoin:miter;stroke-dasharray:none;stroke-opacity:1"
         d="m -1403.2313,1069.0215 27.8714,-14.555"
         id="path788" /><path
         style="opacity:1;fill:#220c00;fill-opacity:1;stroke:#3c1500;stroke-width:3;stroke-linecap:round;stroke-linejoin:miter;stroke-dasharray:none;stroke-opacity:1"
         d="m -1372.5728,1063.4473 21.0584,-13.9357"
         id="path789" /></g><g
       id="g792"
       transform="rotate(-126.45078,-1425.9992,1019.2004)"
       style="stroke-width:2;stroke-dasharray:none"><path
         style="opacity:1;fill:#220c00;fill-opacity:1;stroke:#3c1500;stroke-width:2;stroke-linecap:round;stroke-linejoin:miter;stroke-dasharray:none;stroke-opacity:1"
         d="m -1517.1942,1083.2669 7.4324,-17.6519"
         id="path790" /><path
         style="opacity:1;fill:#220c00;fill-opacity:1;stroke:#3c1500;stroke-width:2;stroke-linecap:round;stroke-linejoin:miter;stroke-dasharray:none;stroke-opacity:1"
         d="m -1504.8069,1069.0215 -4.6452,23.5358"
         id="path791" /><path
         style="opacity:1;fill:#220c00;fill-opacity:1;stroke:#3c1500;stroke-width:2;stroke-linecap:round;stroke-linejoin:miter;stroke-dasharray:none;stroke-opacity:1"
         d="m -1501.0907,1069.3312 1.8581,16.7228"
         id="path792" /></g><g
       id="g795"
       transform="translate(185.87272,-22.916453)"
       style="stroke-width:2;stroke-dasharray:none"><path
         style="opacity:1;fill:#220c00;fill-opacity:1;stroke:#3c1500;stroke-width:2;stroke-linecap:round;stroke-linejoin:miter;stroke-dasharray:none;stroke-opacity:1"
         d="m -1419.9541,1067.1634 27.252,-12.0775"
         id="path793" /><path
         style="opacity:1;fill:#220c00;fill-opacity:1;stroke:#3c1500;stroke-width:2;stroke-linecap:round;stroke-linejoin:miter;stroke-dasharray:none;stroke-opacity:1"
         d="m -1403.2313,1069.0215 27.8714,-14.555"
         id="path794" /><path
         style="opacity:1;fill:#220c00;fill-opacity:1;stroke:#3c1500;stroke-width:2;stroke-linecap:round;stroke-linejoin:miter;stroke-dasharray:none;stroke-opacity:1"
         d="m -1372.5728,1063.4473 21.0584,-13.9357"
         id="path795" /></g><g
       id="g798"
       transform="rotate(-150.68632,-1301.2872,1015.6853)"
       style="stroke-width:2;stroke-dasharray:none"><path
         style="opacity:1;fill:#220c00;fill-opacity:1;stroke:#3c1500;stroke-width:2;stroke-linecap:round;stroke-linejoin:miter;stroke-dasharray:none;stroke-opacity:1"
         d="m -1517.1942,1083.2669 7.4324,-17.6519"
         id="path796" /><path
         style="opacity:1;fill:#220c00;fill-opacity:1;stroke:#3c1500;stroke-width:2;stroke-linecap:round;stroke-linejoin:miter;stroke-dasharray:none;stroke-opacity:1"
         d="m -1504.8069,1069.0215 -4.6452,23.5358"
         id="path797" /><path
         style="opacity:1;fill:#220c00;fill-opacity:1;stroke:#3c1500;stroke-width:2;stroke-linecap:round;stroke-linejoin:miter;stroke-dasharray:none;stroke-opacity:1"
         d="m -1501.0907,1069.3312 1.8581,16.7228"
         id="path798" /></g><g
       id="g801"
       transform="matrix(-0.51451622,0.09988132,-0.09988132,-0.51451622,-1718.0184,1713.94)"
       style="stroke-width:3.81591;stroke-dasharray:none"><path
         style="opacity:1;fill:#220c00;fill-opacity:1;stroke:#3c1500;stroke-width:3.81591;stroke-linecap:round;stroke-linejoin:miter;stroke-dasharray:none;stroke-opacity:1"
         d="m -1419.9541,1067.1634 27.252,-12.0775"
         id="path799" /><path
         style="opacity:1;fill:#220c00;fill-opacity:1;stroke:#3c1500;stroke-width:3.81591;stroke-linecap:round;stroke-linejoin:miter;stroke-dasharray:none;stroke-opacity:1"
         d="m -1403.2313,1069.0215 27.8714,-14.555"
         id="path800" /><path
         style="opacity:1;fill:#220c00;fill-opacity:1;stroke:#3c1500;stroke-width:3.81591;stroke-linecap:round;stroke-linejoin:miter;stroke-dasharray:none;stroke-opacity:1"
         d="m -1372.5728,1063.4473 21.0584,-13.9357"
         id="path801" /></g><g
       id="g804"
       transform="translate(104.69823,-5.0429422)"
       style="stroke-width:4;stroke-dasharray:none"><path
         style="opacity:1;fill:#220c00;fill-opacity:1;stroke:#3c1500;stroke-width:4;stroke-linecap:round;stroke-linejoin:miter;stroke-dasharray:none;stroke-opacity:1"
         d="m -1419.9541,1067.1634 27.252,-12.0775"
         id="path802" /><path
         style="opacity:1;fill:#220c00;fill-opacity:1;stroke:#3c1500;stroke-width:4;stroke-linecap:round;stroke-linejoin:miter;stroke-dasharray:none;stroke-opacity:1"
         d="m -1403.2313,1069.0215 27.8714,-14.555"
         id="path803" /><path
         style="opacity:1;fill:#220c00;fill-opacity:1;stroke:#3c1500;stroke-width:4;stroke-linecap:round;stroke-linejoin:miter;stroke-dasharray:none;stroke-opacity:1"
         d="m -1372.5728,1063.4473 21.0584,-13.9357"
         id="path804" /></g><g
       id="g807"
       transform="translate(-12.387272,-12.696953)"><g
         id="g808"
         transform="rotate(-79.880937,-1512.3463,1076.8839)"><path
           style="opacity:1;fill:#220c00;fill-opacity:1;stroke:#3c1500;stroke-width:3;stroke-linecap:round;stroke-linejoin:miter;stroke-dasharray:none;stroke-opacity:1"
           d="m -1517.1942,1083.2669 7.4324,-17.6519"
           id="path805" /><path
           style="opacity:1;fill:#220c00;fill-opacity:1;stroke:#3c1500;stroke-width:3;stroke-linecap:round;stroke-linejoin:miter;stroke-dasharray:none;stroke-opacity:1"
           d="m -1504.8069,1069.0215 -4.6452,23.5358"
           id="path806" /><path
           style="opacity:1;fill:#220c00;fill-opacity:1;stroke:#3c1500;stroke-width:3;stroke-linecap:round;stroke-linejoin:miter;stroke-dasharray:none;stroke-opacity:1"
           d="m -1501.0907,1069.3312 1.8581,16.7228"
           id="path807" /></g></g><g
       id="g810"
       transform="matrix(0.66298992,0.13616889,-0.10913012,0.82725655,-671.71919,329.81021)"
       style="stroke-width:2.66472;stroke-dasharray:none"><path
         style="opacity:1;fill:#220c00;fill-opacity:1;stroke:#3c1500;stroke-width:2.66472;stroke-linecap:round;stroke-linejoin:miter;stroke-dasharray:none;stroke-opacity:1"
         d="m -1419.9541,1067.1634 27.252,-12.0775"
         id="path808" /><path
         style="opacity:1;fill:#220c00;fill-opacity:1;stroke:#3c1500;stroke-width:2.66472;stroke-linecap:round;stroke-linejoin:miter;stroke-dasharray:none;stroke-opacity:1"
         d="m -1403.2313,1069.0215 27.8714,-14.555"
         id="path809" /><path
         style="opacity:1;fill:#220c00;fill-opacity:1;stroke:#3c1500;stroke-width:2.66472;stroke-linecap:round;stroke-linejoin:miter;stroke-dasharray:none;stroke-opacity:1"
         d="m -1372.5728,1063.4473 21.0584,-13.9357"
         id="path810" /></g><g
       id="g813"
       transform="matrix(0.51138758,0.0351464,0.0128222,0.84821195,-990.49505,179.02719)"
       style="stroke-width:3.03828;stroke-dasharray:none"><path
         style="opacity:1;fill:#220c00;fill-opacity:1;stroke:#3c1500;stroke-width:3.03828;stroke-linecap:round;stroke-linejoin:miter;stroke-dasharray:none;stroke-opacity:1"
         d="m -1419.9541,1067.1634 27.252,-12.0775"
         id="path811" /><path
         style="opacity:1;fill:#220c00;fill-opacity:1;stroke:#3c1500;stroke-width:3.03828;stroke-linecap:round;stroke-linejoin:miter;stroke-dasharray:none;stroke-opacity:1"
         d="m -1403.2313,1069.0215 27.8714,-14.555"
         id="path812" /><path
         style="opacity:1;fill:#220c00;fill-opacity:1;stroke:#3c1500;stroke-width:3.03828;stroke-linecap:round;stroke-linejoin:miter;stroke-dasharray:none;stroke-opacity:1"
         d="m -1372.5728,1063.4473 21.0584,-13.9357"
         id="path813" /></g><g
       id="g816"
       transform="matrix(0.43077048,-0.67053982,0.67053982,0.43077048,-1639.8279,-421.99254)"
       style="stroke-width:2.50945;stroke-dasharray:none"><path
         style="opacity:1;fill:#220c00;fill-opacity:1;stroke:#3c1500;stroke-width:2.50945;stroke-linecap:round;stroke-linejoin:miter;stroke-dasharray:none;stroke-opacity:1"
         d="m -1517.1942,1083.2669 7.4324,-17.6519"
         id="path814" /><path
         style="opacity:1;fill:#220c00;fill-opacity:1;stroke:#3c1500;stroke-width:2.50945;stroke-linecap:round;stroke-linejoin:miter;stroke-dasharray:none;stroke-opacity:1"
         d="m -1504.8069,1069.0215 -4.6452,23.5358"
         id="path815" /><path
         style="opacity:1;fill:#220c00;fill-opacity:1;stroke:#3c1500;stroke-width:2.50945;stroke-linecap:round;stroke-linejoin:miter;stroke-dasharray:none;stroke-opacity:1"
         d="m -1501.0907,1069.3312 1.8581,16.7228"
         id="path816" /></g><g
       id="g819"
       transform="matrix(1.4265889,0,0,0.97263775,756.50893,36.416279)"
       style="stroke-width:2.54681;stroke-dasharray:none"><path
         style="opacity:1;fill:#220c00;fill-opacity:1;stroke:#3c1500;stroke-width:2.54681;stroke-linecap:round;stroke-linejoin:miter;stroke-dasharray:none;stroke-opacity:1"
         d="m -1419.9541,1067.1634 27.252,-12.0775"
         id="path817" /><path
         style="opacity:1;fill:#220c00;fill-opacity:1;stroke:#3c1500;stroke-width:2.54681;stroke-linecap:round;stroke-linejoin:miter;stroke-dasharray:none;stroke-opacity:1"
         d="m -1403.2313,1069.0215 27.8714,-14.555"
         id="path818" /><path
         style="opacity:1;fill:#220c00;fill-opacity:1;stroke:#3c1500;stroke-width:2.54681;stroke-linecap:round;stroke-linejoin:miter;stroke-dasharray:none;stroke-opacity:1"
         d="m -1372.5728,1063.4473 21.0584,-13.9357"
         id="path819" /></g><g
       id="g822"
       transform="matrix(1.4265889,0,0,0.97263775,601.66804,45.706733)"
       style="stroke-width:2.54681;stroke-dasharray:none"
       clip-path="url(#clipPath836)"><path
         style="opacity:1;fill:#220c00;fill-opacity:1;stroke:#3c1500;stroke-width:2.54681;stroke-linecap:round;stroke-linejoin:miter;stroke-dasharray:none;stroke-opacity:1"
         d="m -1419.9541,1067.1634 27.252,-12.0775"
         id="path820" /><path
         style="opacity:1;fill:#220c00;fill-opacity:1;stroke:#3c1500;stroke-width:2.54681;stroke-linecap:round;stroke-linejoin:miter;stroke-dasharray:none;stroke-opacity:1"
         d="m -1403.2313,1069.0215 27.8714,-14.555"
         id="path821" /><path
         style="opacity:1;fill:#220c00;fill-opacity:1;stroke:#3c1500;stroke-width:2.54681;stroke-linecap:round;stroke-linejoin:miter;stroke-dasharray:none;stroke-opacity:1"
         d="m -1372.5728,1063.4473 21.0584,-13.9357"
         id="path822" /></g><g
       id="g825"
       transform="matrix(0.61361465,0,0,1.0243375,-287.01859,-19.886846)"
       style="stroke-width:2.54681;stroke-dasharray:none"><path
         style="opacity:1;fill:#220c00;fill-opacity:1;stroke:#3c1500;stroke-width:2.54681;stroke-linecap:round;stroke-linejoin:miter;stroke-dasharray:none;stroke-opacity:1"
         d="m -1419.9541,1067.1634 27.252,-12.0775"
         id="path823" /><path
         style="opacity:1;fill:#220c00;fill-opacity:1;stroke:#3c1500;stroke-width:2.54681;stroke-linecap:round;stroke-linejoin:miter;stroke-dasharray:none;stroke-opacity:1"
         d="m -1403.2313,1069.0215 27.8714,-14.555"
         id="path824" /><path
         style="opacity:1;fill:#220c00;fill-opacity:1;stroke:#3c1500;stroke-width:2.54681;stroke-linecap:round;stroke-linejoin:miter;stroke-dasharray:none;stroke-opacity:1"
         d="m -1372.5728,1063.4473 21.0584,-13.9357"
         id="path825" /></g></g></svg>
