<?xml version="1.0" encoding="UTF-8"?>
<svg width="240" height="278.7" version="1.1" viewBox="0 0 240 278.7" xml:space="preserve" xmlns="http://www.w3.org/2000/svg"><g transform="translate(-1219.5 -88.674)"><g transform="matrix(1.0099 0 0 .99964 -13.048 -.26504)" stroke="#020707" stroke-linejoin="round"><path d="m1244.6 90.47 19.209 22.117 169.02 0.0311 23.812-22.148z" fill="#8b6b1f" stroke-width="3"/><path d="m1432.8 112.62 23.812-22.148-33.524 275.8-17.673-20.072z" fill="#8b6b1f" stroke-width="3"/><path d="m1405.5 346.2 17.673 20.072-201.13-0.46824 21.714-19.954z" fill="#8b6b1f" stroke-width="3"/><path d="m1263.8 112.59-19.209-22.117-22.609 275.33 21.714-19.954z" fill="#8b6b1f" stroke-width="3"/><path d="m1251.5 133.89c-2.7539-0.0999-4.7226-2.36-4.3962-5.054 0.3236-2.694 2.8261-4.8011 5.5863-4.7012 2.7605 0.0999 4.7291 2.3694 4.3963 5.0634-0.3298 2.694-2.8323 4.7917-5.5864 4.6918zm1.6078-19.111c-2.7633-0.0999-4.7386-2.3787-4.4119-5.0914 0.3266-2.7158 2.8387-4.8354 5.6115-4.7356 2.7695 0.0999 4.7449 2.3849 4.4089 5.1008-0.3329 2.7127-2.8419 4.8261-5.6085 4.7262zm-2.4054 28.613c-2.7508-0.0999-4.7164-2.3506-4.393-5.0352 0.3266-2.6846 2.8229-4.7824 5.577-4.6825 2.7569 0.0999 4.7195 2.36 4.3898 5.0446-0.3297 2.6815-2.8261 4.773-5.5738 4.6731zm-17.613 209.29c-2.638-0.0967-4.5282-2.1727-4.2268-4.6419 0.3046-2.4723 2.691-4.3984 5.3353-4.3016 2.641 0.0967 4.5344 2.179 4.2267 4.6513-0.3078 2.4692-2.6974 4.3891-5.3352 4.2923zm1.4759-17.522c-2.6473-0.0967-4.547-2.1883-4.2425-4.6731 0.3046-2.4911 2.7038-4.4296 5.3542-4.3329 2.6532 0.0967 4.55 2.1945 4.2422 4.6825-0.3109 2.488-2.7069 4.4234-5.3539 4.3235zm0.741-8.8062c-2.6536-0.0967-4.5534-2.1976-4.2488-4.6918 0.3047-2.4973 2.7069-4.4452 5.3636-4.3484 2.6565 0.0967 4.5595 2.2039 4.2487 4.7012-0.3111 2.4942-2.7131 4.4359-5.3635 4.3391zm0.7442-8.8374c-2.6564-0.0967-4.5628-2.2039-4.255-4.7074 0.3046-2.5067 2.7132-4.464 5.373-4.3672 2.6628 0.0999 4.5658 2.2101 4.2549 4.7168-0.3109 2.5036-2.7162 4.4546-5.3729 4.3578zm0.7443-8.8717c-2.6598-0.0967-4.5691-2.2101-4.2614-4.7231 0.3077-2.5161 2.7195-4.4796 5.3855-4.3797 2.666 0.0967 4.5752 2.2164 4.2612 4.7324-0.3139 2.5129-2.7225 4.4671-5.3853 4.3703zm15.509-184.29c-2.7603-0.0999-4.7323-2.3693-4.4057-5.0727 0.3267-2.7065 2.8325-4.8199 5.5989-4.72 2.7633 0.0999 4.7355 2.3787 4.4025 5.0821-0.3298 2.7034-2.8356 4.8105-5.5957 4.7106zm-14.759 175.39c-2.6659-0.0999-4.5783-2.2195-4.2706-4.7418 0.3109-2.5254 2.7257-4.4952 5.3981-4.3984 2.669 0.0999 4.5813 2.2257 4.2673 4.7512-0.314 2.5223-2.7288 4.4858-5.3948 4.3891zm0.7504-8.9342c-2.6688-0.0999-4.5845-2.2289-4.2736-4.7574 0.3079-2.5348 2.7288-4.5108 5.4041-4.414 2.6756 0.0967 4.5912 2.232 4.274 4.7668-0.3142 2.5317-2.732 4.5014-5.4045 4.4047zm0.757-8.9654c-2.6753-0.0999-4.594-2.2351-4.2832-4.7761 0.3108-2.541 2.7351-4.5264 5.4136-4.4296 2.6817 0.0999 4.5971 2.2414 4.2832 4.7855-0.3141 2.5379-2.7383 4.517-5.4136 4.4202zm0.7566-8.9997c-2.6817-0.0967-4.6034-2.2414-4.2894-4.7917 0.3109-2.5504 2.7383-4.542 5.4262-4.4452 2.685 0.0999 4.6037 2.2507 4.2866 4.8011-0.3143 2.5504-2.7447 4.5327-5.4234 4.4359zm0.7601-9.0309c-2.6849-0.0967-4.6096-2.2476-4.299-4.8074 0.314-2.5598 2.7477-4.5607 5.4388-4.4608 2.688 0.0967 4.613 2.2538 4.2959 4.8167-0.3172 2.5566-2.751 4.5514-5.4357 4.4515zm0.763-9.0622c-2.6912-0.0967-4.6192-2.257-4.3052-4.8261 0.3141-2.5691 2.7509-4.5764 5.4482-4.4765 2.6942 0.0967 4.6194 2.2632 4.3023 4.8323-0.3172 2.5691-2.7573 4.567-5.4453 4.4702zm0.763-9.0965c-2.6943-0.0967-4.6254-2.2632-4.3113-4.8417 0.3138-2.5785 2.7601-4.592 5.4574-4.4952 2.7007 0.0999 4.632 2.2726 4.3117 4.8511-0.3204 2.5785-2.7635 4.5857-5.4578 4.4858zm0.7694-9.1277c-2.7005-0.0999-4.635-2.2726-4.3178-4.8604 0.314-2.5879 2.7634-4.6076 5.467-4.5108 2.707 0.0999 4.6381 2.2788 4.3178 4.8698-0.3201 2.5847-2.7663 4.6013-5.467 4.5014zm0.7694-9.162c-2.7038-0.0967-4.6412-2.2819-4.3241-4.876 0.3171-2.5972 2.7697-4.6263 5.4796-4.5295 2.7101 0.0999 4.6445 2.2882 4.3241 4.8854-0.3202 2.5972-2.7728 4.6201-5.4796 4.5202zm0.7755-9.1933c-2.7099-0.0999-4.6506-2.2913-4.3335-4.8948 0.3173-2.6097 2.7761-4.645 5.4893-4.5451 2.7161 0.0999 4.6537 2.2944 4.3333 4.901-0.3232 2.6066-2.779 4.6357-5.4891 4.5389zm0.7755-9.2307c-2.7129-0.0967-4.6567-2.2944-4.3395-4.9104 0.3171-2.616 2.782-4.6606 5.5018-4.5608 2.7192 0.0967 4.6598 2.3007 4.3364 4.9197-0.3203 2.6128-2.7853 4.6513-5.4987 4.5514zm0.7792-9.262c-2.7196-0.0967-4.6666-2.3038-4.3462-4.9291 0.3201-2.6253 2.7853-4.6762 5.5113-4.5794 2.7254 0.0999 4.6692 2.3132 4.3457 4.9384-0.3234 2.6253-2.7916 4.67-5.5108 4.5701zm0.7819-9.2963c-2.7228-0.0967-4.6729-2.31-4.3525-4.9447 0.3203-2.6378 2.7914-4.695 5.5205-4.5982 2.7288 0.0999 4.6789 2.3194 4.3554 4.9572-0.3266 2.6347-2.7978 4.6856-5.5234 4.5857zm0.7849-9.3275c-2.7289-0.0999-4.6821-2.3225-4.3618-4.9665 0.3234-2.644 2.8011-4.7106 5.5331-4.6138 2.7351 0.0999 4.6883 2.3288 4.3617 4.9759-0.3265 2.6409-2.8043 4.7012-5.533 4.6044zm0.7881-9.365c-2.7351-0.0999-4.6882-2.3288-4.368-4.9822 0.3234-2.6565 2.8042-4.7293 5.5426-4.6326 2.7412 0.0999 4.6975 2.3381 4.3678 4.9915-0.3264 2.6534-2.8071 4.7231-5.5424 4.6232zm0.7915-9.3993c-2.7383-0.0999-4.698-2.335-4.3744-5.0009 0.3202-2.6628 2.8075-4.748 5.5519-4.6481 2.7477 0.0999 4.7039 2.3444 4.3773 5.0103-0.3296 2.6628-2.8167 4.7386-5.5548 4.6388zm-15.283 181.65c-2.6442-0.0967-4.5379-2.182-4.2363-4.6606 0.3045-2.4786 2.6974-4.414 5.3447-4.3172 2.6471 0.0999 4.5438 2.1883 4.2331 4.67-0.308 2.4755-2.7007 4.4046-5.3415 4.3079zm16.078-191.08c-2.7444-0.0999-4.7072-2.3444-4.3835-5.0165 0.3235-2.6753 2.8166-4.7668 5.5642-4.6669 2.7509 0.0999 4.7136 2.3538 4.3839 5.029-0.33 2.6721-2.82 4.7543-5.5646 4.6544zm191.06-19.573c-2.7603-0.0999-4.6537-2.3662-4.2266-5.0633 0.427-2.7002 3.0145-4.8105 5.7778-4.7106 2.7665 0.0999 4.6602 2.3724 4.227 5.0727-0.4303 2.6971-3.018 4.8011-5.7782 4.7012zm2.3143-19.145c-2.7695-0.10303-4.6694-2.385-4.2392-5.1008 0.427-2.7221 3.0271-4.8479 5.803-4.748 2.776 0.10301 4.6727 2.3912 4.2392 5.1102-0.4332 2.719-3.0332 4.8386-5.803 4.7387zm-3.4636 28.666c-2.7569-0.0999-4.6443-2.3568-4.2204-5.0446 0.4239-2.6909 3.0052-4.7949 5.7654-4.695 2.7601 0.10302 4.6507 2.3662 4.2203 5.0571-0.4302 2.6878-3.0114 4.7824-5.7653 4.6825zm-25.341 209.66c-2.6439-0.0967-4.4652-2.1758-4.0726-4.6481 0.3956-2.4755 2.8605-4.4078 5.5107-4.311 2.6473 0.0967 4.4684 2.1852 4.0696 4.6606-0.3988 2.4724-2.8669 4.3953-5.5077 4.2985zm2.1195-17.55c-2.6502-0.0967-4.4808-2.1914-4.082-4.6825 0.3957-2.4942 2.8732-4.439 5.5298-4.3391 2.6564 0.0967 4.4841 2.1977 4.0823 4.6887-0.402 2.4911-2.8766 4.4296-5.5301 4.3329zm1.0678-8.8218c-2.6567-0.0967-4.4872-2.2008-4.0916-4.7012 0.3988-2.5005 2.8794-4.4515 5.5422-4.3547 2.6632 0.0967 4.4937 2.207 4.0887 4.7075-0.4019 2.5004-2.8828 4.4452-5.5393 4.3485zm1.0707-8.853c-2.6629-0.0999-4.4966-2.2101-4.0979-4.7168 0.3988-2.5129 2.8858-4.4702 5.5518-4.3734 2.6662 0.0999 4.4999 2.2164 4.0949 4.7262-0.4019 2.5067-2.8889 4.4609-5.5488 4.3641zm1.0739-8.8874c-2.666-0.0967-4.5028-2.2133-4.104-4.7324 0.4017-2.5192 2.8919-4.4858 5.5644-4.3859 2.6691 0.0967 4.5062 2.2195 4.101 4.7387-0.4051 2.5192-2.8953 4.4765-5.5614 4.3797zm22.314-184.62c-2.7665-0.0999-4.66-2.3756-4.233-5.082 0.4271-2.7096 3.0176-4.8292 5.7904-4.7293 2.7699 0.10301 4.6667 2.3818 4.2331 5.0914-0.4332 2.7096-3.024 4.8198-5.7905 4.7199zm-21.237 175.71c-2.6724-0.0999-4.5125-2.2257-4.1106-4.7512 0.402-2.5285 2.8984-4.5014 5.5741-4.4046 2.6784 0.0999 4.5153 2.2288 4.1103 4.7605-0.4082 2.5254-2.9015 4.4921-5.5738 4.3953zm1.0803-8.9498c-2.6757-0.0999-4.5189-2.232-4.1138-4.7668 0.402-2.5379 2.9048-4.517 5.5833-4.4203 2.6817 0.0967 4.5251 2.2382 4.1168 4.7761-0.4082 2.5348-2.9078 4.5077-5.5863 4.4109zm1.0864-8.981c-2.6818-0.0999-4.525-2.2382-4.1231-4.7855 0.4051-2.5442 2.911-4.5327 5.599-4.4359 2.6848 0.0999 4.5281 2.2444 4.1199 4.7917-0.4114 2.5442-2.9141 4.5264-5.5958 4.4296zm1.0897-9.0154c-2.6848-0.0967-4.5345-2.2444-4.1294-4.798 0.4082-2.5566 2.9174-4.5514 5.6085-4.4546 2.691 0.0999 4.5375 2.2538 4.1261 4.8073-0.4082 2.5535-2.9204 4.5451-5.6052 4.4452zm1.0928-9.0466c-2.6911-0.0967-4.5409-2.2538-4.1356-4.8167 0.4082-2.566 2.9234-4.567 5.6209-4.4671 2.6943 0.0967 4.5438 2.257 4.1324 4.823-0.4114 2.5629-2.9266 4.5608-5.6177 4.4609zm1.0989-9.0778c-2.6973-0.0999-4.5499-2.2632-4.1417-4.8354 0.4082-2.5723 2.9297-4.5826 5.6304-4.4858 2.7003 0.0999 4.5531 2.2694 4.1385 4.8448-0.4145 2.5722-2.9327 4.5732-5.6272 4.4765zm1.0992-9.1121c-2.6974-0.0999-4.5564-2.2694-4.1451-4.851 0.4084-2.5848 2.9331-4.6013 5.6397-4.5014 2.7037 0.0967 4.5598 2.2757 4.145 4.8573-0.4144 2.5816-2.9391 4.592-5.6396 4.4952zm1.1054-9.1464c-2.7037-0.0967-4.5626-2.2757-4.1544-4.8667 0.4113-2.5941 2.9422-4.6169 5.6522-4.5202 2.7099 0.0999 4.5722 2.285 4.1545 4.8791-0.4144 2.5879-2.9455 4.6076-5.6523 4.5077zm1.1116-9.1777c-2.71-0.0967-4.5752-2.285-4.1607-4.8854 0.4113-2.6035 2.9486-4.6325 5.6617-4.5358 2.7164 0.0999 4.5786 2.2913 4.1609 4.8948-0.4178 2.6003-2.952 4.6263-5.6619 4.5264zm1.1115-9.2089c-2.713-0.0999-4.5814-2.2944-4.1669-4.9041 0.4144-2.6128 2.9549-4.6513 5.6742-4.5545 2.7195 0.0999 4.5848 2.3006 4.1672 4.9135-0.4176 2.6097-2.9581 4.6419-5.6745 4.5451zm1.1179-9.2463c-2.7194-0.0999-4.5877-2.3007-4.1731-4.9197 0.4144-2.6222 2.961-4.67 5.6867-4.5701 2.7227 0.0999 4.591 2.3069 4.1703 4.9291-0.4177 2.6191-2.9643 4.6606-5.6839 4.5607zm1.1211-9.2776c-2.7256-0.0999-4.5972-2.31-4.1795-4.9385 0.4175-2.6315 2.9674-4.6887 5.6964-4.5888 2.7318 0.0999 4.6034 2.3163 4.1794 4.9478-0.4206 2.6284-2.9704 4.6762-5.6963 4.5795zm1.1274-9.315c-2.732-0.0999-4.6068-2.3163-4.1892-4.9541 0.4177-2.6409 2.9738-4.7043 5.7091-4.6044 2.7351 0.0999 4.6098 2.3225 4.1859 4.9634-0.4209 2.6378-2.9769 4.695-5.7058 4.5951zm1.1273-9.3462c-2.732-0.0999-4.6098-2.3256-4.1922-4.9728 0.4176-2.6503 2.9802-4.7231 5.7215-4.6232 2.7381 0.0999 4.6161 2.3319 4.1921 4.9822-0.4239 2.6503-2.9863 4.7137-5.7214 4.6138zm1.1369-9.3806c-2.7414-0.0999-4.6227-2.3319-4.2018-4.9915 0.4207-2.6597 2.9864-4.7387 5.7311-4.6388 2.7443 0.0999 4.6254 2.3381 4.2014 5.0009-0.427 2.6565-2.9927 4.7293-5.7307 4.6294zm1.1366-9.4149c-2.7444-0.0999-4.6288-2.3412-4.2079-5.0102 0.424-2.669 2.9958-4.7574 5.7434-4.6575 2.7509 0.0999 4.6348 2.3475 4.2079 5.0196-0.4272 2.6659-2.9989 4.748-5.7434 4.6481zm-21.994 181.96c-2.6471-0.0967-4.4746-2.1851-4.0791-4.6669 0.3988-2.4848 2.8702-4.4203 5.5203-4.3235 2.6535 0.0967 4.4781 2.1914 4.0763 4.6763-0.399 2.4817-2.8703 4.4109-5.5175 4.3141zm23.137-191.42c-2.7508-0.0999-4.638-2.3475-4.2141-5.0259 0.424-2.6815 2.999-4.7761 5.756-4.6762 2.7538 0.10302 4.6411 2.3569 4.2109 5.0384-0.427 2.6784-3.0052 4.7636-5.7528 4.6638zm-194.07 203.38c-0.2134 2.463-2.5276 4.4546-5.1717 4.4484-2.6441-6e-3 -4.616-2.0072-4.4089-4.4702 0.2073-2.4661 2.5248-4.4608 5.172-4.4546 2.6472 6e-3 4.6222 2.0104 4.4086 4.4765zm157.28 0.35273c-0.292 2.4661-2.6785 4.4578-5.3288 4.4515-2.6504-3e-3 -4.5661-2.0072-4.277-4.4733 0.2856-2.4692 2.6722-4.4671 5.3258-4.4609 2.6565 6e-3 4.572 2.0135 4.28 4.4827zm-9.8413-0.0219c-0.2891 2.4661-2.6692 4.4577-5.3196 4.4515-2.6502-6e-3 -4.569-2.0072-4.2863-4.4734 0.2826-2.4692 2.663-4.4671 5.3195-4.4608 2.6535 6e-3 4.572 2.0135 4.2864 4.4827zm-9.8415-0.0219c-0.2826 2.4661-2.6598 4.4577-5.3068 4.4515-2.6503-6e-3 -4.5753-2.0072-4.2956-4.4733 0.2761-2.4693 2.6533-4.4671 5.3066-4.4609 2.6566 6e-3 4.5784 2.0135 4.2958 4.4827zm-9.838-0.0219c-0.2763 2.4661-2.6506 4.4577-5.2977 4.4515-2.6502-6e-3 -4.5782-2.0072-4.3049-4.4733 0.2731-2.4692 2.647-4.4671 5.3003-4.4608 2.6535 6e-3 4.5785 2.0134 4.3023 4.4827zm-9.8382-0.0219c-0.2701 2.4661-2.6377 4.4577-5.2883 4.4515-2.647-6e-3 -4.5783-2.0072-4.3114-4.4733 0.2669-2.4692 2.6345-4.4671 5.2883-4.4609 2.6534 6e-3 4.5846 2.0135 4.3114 4.4827zm-9.835-0.0219c-0.2669 2.463-2.6316 4.4577-5.2787 4.4515-2.6475-6e-3 -4.5817-2.0104-4.321-4.4733 0.2637-2.4692 2.6283-4.4671 5.2818-4.4609 2.6536 6e-3 4.5848 2.0135 4.3179 4.4827zm-9.8322-0.0219c-0.2638 2.463-2.622 4.4546-5.2692 4.4484-2.6502-6e-3 -4.5878-2.0072-4.3302-4.4702 0.2576-2.4692 2.619-4.4671 5.2692-4.4609 2.6534 6e-3 4.591 2.0135 4.3302 4.4827zm-9.8318-0.025c-0.2576 2.4661-2.6128 4.4577-5.2599 4.4515-2.6501-6e-3 -4.5908-2.0072-4.3365-4.4702 0.2512-2.4692 2.6063-4.4671 5.2597-4.4608 2.6503 6e-3 4.5942 2.0135 4.3367 4.4796zm-9.8318-0.0219c-0.2514 2.4661-2.6033 4.4577-5.2506 4.4515-2.6472-6e-3 -4.5908-2.0072-4.3428-4.4702 0.2481-2.4692 2.5969-4.4671 5.2504-4.4608 2.6504 6e-3 4.5942 2.0135 4.343 4.4796zm-9.8288-0.0219c-0.2481 2.4661-2.5937 4.4577-5.2409 4.4515-2.6475-6e-3 -4.5943-2.0072-4.3526-4.4734 0.2451-2.4661 2.5906-4.4608 5.2413-4.4577 2.6502 6e-3 4.6002 2.0135 4.3522 4.4796zm-9.8289-0.0219c-0.2418 2.4661-2.5844 4.4577-5.2282 4.4515-2.6473-6e-3 -4.6007-2.0072-4.3619-4.4734 0.2385-2.4661 2.5813-4.4608 5.2316-4.4577 2.6502 6e-3 4.6034 2.0135 4.3585 4.4796zm-9.8258-0.0219c-0.2354 2.4661-2.5747 4.4546-5.2188 4.4515-2.6471-6e-3 -4.6034-2.0072-4.368-4.4733 0.2324-2.4661 2.5687-4.4608 5.2189-4.4577 2.6504 6e-3 4.6067 2.0135 4.3679 4.4796zm-9.8222-0.0219c-0.2325 2.4661-2.5658 4.4546-5.2129 4.4484-2.644-6e-3 -4.6034-2.0041-4.3742-4.4702 0.2261-2.4661 2.5591-4.4609 5.2094-4.4546 2.6504 3e-3 4.61 2.0104 4.3777 4.4764zm-9.8226-0.0219c-0.2292 2.463-2.556 4.4546-5.2034 4.4484-2.6439-6e-3 -4.6066-2.0072-4.3837-4.4702 0.2229-2.4661 2.553-4.4609 5.2032-4.4546 2.6472 3e-3 4.6131 2.0104 4.3839 4.4765zm-9.8226-0.0219c-0.2228 2.463-2.5465 4.4546-5.1904 4.4484-2.6444-6e-3 -4.6101-2.0072-4.3935-4.4702 0.2199-2.4661 2.5436-4.4608 5.1941-4.4546 2.6471 6e-3 4.616 2.0104 4.3898 4.4765zm147.49 0.3309c-0.2982 2.4661-2.688 4.4609-5.3384 4.4546-2.6503-6e-3 -4.5625-2.0104-4.2706-4.4764 0.292-2.4693 2.6816-4.4671 5.3382-4.4609 2.6568 6e-3 4.5659 2.0134 4.2708 4.4827zm-157.3-0.35257c-0.2198 2.463-2.5403 4.4546-5.1843 4.4484-2.6441-6e-3 -4.6131-2.0072-4.3994-4.4702 0.2133-2.4661 2.5341-4.4608 5.1812-4.4546 2.6503 6e-3 4.6191 2.0104 4.4025 4.4764zm15.575-253.56c-0.2449 2.822-2.7822 5.107-5.6647 5.107-2.8794 0-5.0212-2.285-4.7825-5.107 0.2418-2.8282 2.7759-5.1195 5.6647-5.1195 2.889 0 5.0275 2.2944 4.7825 5.1195zm171.5 0.0155c-0.339 2.8282-2.9579 5.1164-5.8467 5.1164-2.8924 0-4.9649-2.2882-4.629-5.1164 0.3329-2.8313 2.952-5.1258 5.8472-5.1258 2.8983 0 4.9677 2.2975 4.6285 5.1258zm-10.733 0c-0.3329 2.8251-2.9456 5.1164-5.8376 5.1164-2.8889-3e-3 -4.9647-2.2913-4.6383-5.1164 0.3297-2.8313 2.9425-5.1258 5.8378-5.1258 2.8984 0 4.974 2.2944 4.6381 5.1258zm-10.73 0c-0.3297 2.8251-2.9361 5.1133-5.8248 5.1133-2.8889 0-4.9709-2.2882-4.6474-5.1164 0.3202-2.8282 2.9297-5.1258 5.8248-5.1226 2.8952 0 4.9741 2.2944 4.6474 5.1258zm-10.73-3e-3c-0.3235 2.8282-2.9237 5.1164-5.8126 5.1164-2.889 0-4.974-2.2913-4.657-5.1164 0.3141-2.8282 2.9173-5.1258 5.8126-5.1258 2.895 0 4.9804 2.2975 4.657 5.1258zm-10.727 0c-0.3172 2.8251-2.9143 5.1133-5.8032 5.1133-2.889 0-4.9772-2.2882-4.6663-5.1133 0.3109-2.8313 2.9078-5.1258 5.8029-5.1258 2.8955 0 4.9837 2.2975 4.6666 5.1258zm-10.724 0c-0.3108 2.8251-2.9045 5.1133-5.7938 5.1133-2.8856 0-4.9802-2.2913-4.6755-5.1164 0.3045-2.8282 2.8983-5.1226 5.7904-5.1226 2.8953 0 4.9898 2.2944 4.6789 5.1258zm-10.724-3e-3c-0.3046 2.8251-2.8921 5.1133-5.781 5.1133-2.886 0-4.9836-2.2882-4.6852-5.1133 0.2982-2.8282 2.8857-5.1226 5.7779-5.1226 2.8952 0 4.9929 2.2944 4.6883 5.1226zm-10.724 0c-0.2983 2.8251-2.8793 5.1133-5.7652 5.1133-2.8892 0-4.9899-2.2882-4.6978-5.1133 0.295-2.8282 2.8765-5.1226 5.7686-5.1226 2.892 0 4.9958 2.2944 4.6944 5.1226zm-10.717 0c-0.2952 2.8251-2.8701 5.1102-5.7559 5.1102s-4.9931-2.2882-4.7073-5.1133c0.2889-2.8282 2.8671-5.1226 5.7561-5.1226 2.8921 0 4.9991 2.2975 4.7071 5.1257zm-10.718-3e-3c-0.2889 2.8251-2.8606 5.1133-5.7462 5.1133-2.886 0-4.9961-2.2882-4.7136-5.1133 0.2827-2.8282 2.8544-5.1226 5.7435-5.1226 2.892 0 5.0022 2.2944 4.7163 5.1226zm-10.717 0c-0.2795 2.8251-2.8483 5.1102-5.731 5.1102-2.8858 0-5.0021-2.2882-4.726-5.1102 0.2764-2.8282 2.8419-5.1226 5.734-5.1226 2.8889 0 5.0055 2.2944 4.723 5.1226zm-10.711 0c-0.2764 2.822-2.8388 5.1102-5.7216 5.1102-2.8858 0-5.0053-2.2882-4.7353-5.1133 0.2703-2.8251 2.8323-5.1195 5.7213-5.1195 2.8892 0 5.0087 2.2944 4.7356 5.1226zm-10.714-3e-3c-0.2669 2.8251-2.8261 5.1102-5.7089 5.1102-2.8827 0-5.0087-2.2882-4.7448-5.1102 0.2639-2.8282 2.8229-5.1195 5.7122-5.1195 2.889 0 5.0117 2.2944 4.7415 5.1195zm-10.708 0c-0.2639 2.822-2.8169 5.1102-5.6995 5.1102-2.8828 0-5.012-2.2882-4.7542-5.1102 0.2605-2.8282 2.8102-5.1226 5.6994-5.1226 2.8891 0.0032 5.0179 2.2944 4.7543 5.1226zm-10.708 0c-0.2577 2.822-2.8042 5.107-5.6868 5.107-2.8829 0-5.015-2.285-4.764-5.1102 0.2514-2.8251 2.7982-5.1195 5.6871-5.1195 2.889 0 5.0211 2.2944 4.7637 5.1226zm-10.705-3e-3c-0.2544 2.8251-2.7947 5.1102-5.6774 5.1102s-5.018-2.2882-4.7732-5.1102c0.2483-2.8251 2.7887-5.1195 5.6775-5.1195 2.8859 0 5.0244 2.2944 4.7731 5.1195zm-36.969 243.72 20.104-233.26s169.02 0.0311 169.02 0.0311l-27.386 233.58zm207.04-249.86-31.829 264.59-191.42 0.33403c-0.081 1.2518 22.349-265.18 22.349-265.18zm-211.53 254.23 20.418-242.43s178.74-0.6368 178.74-0.6368l-29.012 243.5zm24.591-237.63-19.209-22.117-22.609 275.33 21.714-19.954zm141.64 233.61 17.673 20.072s-201.13-0.46824-201.13-0.46824l21.714-19.954zm27.386-233.58 23.812-22.148-33.524 275.8-17.673-20.072zm-188.23-22.148 19.209 22.117s169.02 0.0311 169.02 0.0311l23.812-22.148z" fill="none" stroke-width="2"/></g></g></svg>
