<?xml version="1.0" encoding="UTF-8" standalone="no"?>
<!-- Created with Inkscape (http://www.inkscape.org/) -->

<svg
   width="240"
   height="278.69904"
   viewBox="0 0 240 278.69904"
   version="1.1"
   id="svg1"
   xml:space="preserve"
   inkscape:version="1.3.2 (091e20e, 2023-11-25)"
   sodipodi:docname="north_view_all_draft10_circles.svg"
   inkscape:export-filename="family_north_frame_draft2_export.png"
   inkscape:export-xdpi="96"
   inkscape:export-ydpi="96"
   xmlns:inkscape="http://www.inkscape.org/namespaces/inkscape"
   xmlns:sodipodi="http://sodipodi.sourceforge.net/DTD/sodipodi-0.dtd"
   xmlns="http://www.w3.org/2000/svg"
   xmlns:svg="http://www.w3.org/2000/svg"><sodipodi:namedview
     id="namedview1"
     pagecolor="#ffffff"
     bordercolor="#000000"
     borderopacity="0.25"
     inkscape:showpageshadow="2"
     inkscape:pageopacity="0.0"
     inkscape:pagecheckerboard="0"
     inkscape:deskcolor="#d1d1d1"
     inkscape:document-units="mm"
     inkscape:zoom="2.0000002"
     inkscape:cx="1326.7499"
     inkscape:cy="180.99999"
     inkscape:window-width="1352"
     inkscape:window-height="719"
     inkscape:window-x="16"
     inkscape:window-y="25"
     inkscape:window-maximized="0"
     inkscape:current-layer="layer22"
     inkscape:export-bgcolor="#ffffff00"
     showguides="true"><inkscape:page
       x="0"
       y="-1.8263863e-05"
       width="240"
       height="278.69904"
       id="page1"
       margin="0"
       bleed="0" /></sodipodi:namedview><defs
     id="defs1" /><g
     inkscape:groupmode="layer"
     id="layer22"
     inkscape:label="safe frame north perspective"
     style="display:inline"
     transform="translate(-1219.5027,-88.673584)"><g
       id="g1529"
       inkscape:export-filename="safe_frame_only_perspective_draft3_export.svg"
       inkscape:export-xdpi="96"
       inkscape:export-ydpi="96"
       style="display:inline"
       transform="matrix(1.0098735,0,0,0.99964445,-13.048304,-0.26503879)"><path
         style="display:inline;fill:#8b6b1f;fill-opacity:1;stroke:#020707;stroke-width:3;stroke-linejoin:round;stroke-dasharray:none;stroke-opacity:1"
         d="m 1244.6097,90.470409 19.2087,22.116931 169.0235,0.0311 23.812,-22.148143 z"
         id="path1525" /><path
         style="display:inline;fill:#8b6b1f;fill-opacity:1;stroke:#020707;stroke-width:3;stroke-linejoin:round;stroke-dasharray:none;stroke-opacity:1"
         d="m 1432.8419,112.61827 23.812,-22.148149 -33.5244,275.798339 -17.6732,-20.07225 z"
         id="path1526" /><path
         style="display:inline;fill:#8b6b1f;fill-opacity:1;stroke:#020707;stroke-width:3;stroke-linejoin:round;stroke-dasharray:none;stroke-opacity:1"
         d="m 1405.4563,346.19621 17.6732,20.07225 -201.1291,-0.46824 21.7143,-19.95365 z"
         id="path1527" /><path
         style="display:inline;fill:#8b6b1f;fill-opacity:1;stroke:#020707;stroke-width:3;stroke-linejoin:round;stroke-dasharray:none;stroke-opacity:1"
         d="m 1263.8184,112.58705 -19.2087,-22.116929 -22.6093,275.330099 21.7143,-19.95365 z"
         id="path1528" /><path
         id="path1529"
         fill="none"
         stroke="#000000"
         stroke-width="0.293523"
         d="m 1251.4899,133.88954 c -2.7539,-0.0999 -4.7226,-2.35999 -4.3962,-5.05398 0.3236,-2.69399 2.8261,-4.8011 5.5863,-4.70122 2.7605,0.0999 4.7291,2.36936 4.3963,5.06335 -0.3298,2.69397 -2.8323,4.79172 -5.5864,4.69185 z m 1.6078,-19.11077 c -2.7633,-0.0999 -4.7386,-2.37873 -4.4119,-5.09144 0.3266,-2.71585 2.8387,-4.83544 5.6115,-4.73556 2.7695,0.0999 4.7449,2.38494 4.4089,5.10078 -0.3329,2.71274 -2.8419,4.82609 -5.6085,4.72622 z m -2.4054,28.61308 c -2.7508,-0.0999 -4.7164,-2.35061 -4.393,-5.03524 0.3266,-2.68461 2.8229,-4.78238 5.577,-4.68247 2.7569,0.0999 4.7195,2.35997 4.3898,5.04459 -0.3297,2.68151 -2.8261,4.77302 -5.5738,4.67312 z m -17.6132,209.29145 c -2.638,-0.0967 -4.5282,-2.17266 -4.2268,-4.64191 0.3046,-2.47234 2.691,-4.39842 5.3353,-4.30165 2.641,0.0967 4.5344,2.17895 4.2267,4.65128 -0.3078,2.46923 -2.6974,4.38906 -5.3352,4.29228 z m 1.4759,-17.52187 c -2.6473,-0.0967 -4.547,-2.18827 -4.2425,-4.6731 0.3046,-2.4911 2.7038,-4.42963 5.3542,-4.33289 2.6532,0.0967 4.55,2.19454 4.2422,4.6825 -0.3109,2.48797 -2.7069,4.42339 -5.3539,4.32349 z m 0.741,-8.80618 c -2.6536,-0.0967 -4.5534,-2.19765 -4.2488,-4.69184 0.3047,-2.49733 2.7069,-4.44525 5.3636,-4.34845 2.6565,0.0967 4.5595,2.20388 4.2487,4.70119 -0.3111,2.49421 -2.7131,4.43587 -5.3635,4.3391 z m 0.7442,-8.83741 c -2.6564,-0.0967 -4.5628,-2.20389 -4.255,-4.70745 0.3046,-2.5067 2.7132,-4.46398 5.373,-4.36719 2.6628,0.0999 4.5658,2.21013 4.2549,4.7168 -0.3109,2.50358 -2.7162,4.45461 -5.3729,4.35784 z m 0.7443,-8.87173 c -2.6598,-0.0967 -4.5691,-2.21014 -4.2614,-4.72307 0.3077,-2.51608 2.7195,-4.47958 5.3855,-4.37971 2.666,0.0967 4.5752,2.21638 4.2612,4.73245 -0.3139,2.51293 -2.7225,4.46708 -5.3853,4.37033 z m 15.5094,-184.29324 c -2.7603,-0.0999 -4.7323,-2.36933 -4.4057,-5.07268 0.3267,-2.70649 2.8325,-4.81986 5.5989,-4.71997 2.7633,0.0999 4.7355,2.37871 4.4025,5.08206 -0.3298,2.70335 -2.8356,4.81048 -5.5957,4.71059 z m -14.759,175.39339 c -2.6659,-0.0999 -4.5783,-2.21951 -4.2706,-4.7418 0.3109,-2.52543 2.7257,-4.49518 5.3981,-4.39842 2.669,0.0999 4.5813,2.22573 4.2673,4.75115 -0.314,2.52231 -2.7288,4.48585 -5.3948,4.38907 z m 0.7504,-8.93418 c -2.6688,-0.0999 -4.5845,-2.22887 -4.2736,-4.75741 0.3079,-2.53478 2.7288,-4.5108 5.4041,-4.41405 2.6756,0.0967 4.5912,2.23199 4.274,4.76678 -0.3142,2.53169 -2.732,4.50144 -5.4045,4.40468 z m 0.757,-8.9654 c -2.6753,-0.0999 -4.594,-2.23512 -4.2832,-4.77614 0.3108,-2.54103 2.7351,-4.5264 5.4136,-4.42964 2.6817,0.0999 4.5971,2.24135 4.2832,4.78553 -0.3141,2.5379 -2.7383,4.51701 -5.4136,4.42025 z m 0.7566,-8.99974 c -2.6817,-0.0967 -4.6034,-2.24135 -4.2894,-4.79174 0.3109,-2.5504 2.7383,-4.54202 5.4262,-4.44525 2.685,0.0999 4.6037,2.25071 4.2866,4.80111 -0.3143,2.55041 -2.7447,4.53266 -5.4234,4.43588 z m 0.7601,-9.03094 c -2.6849,-0.0967 -4.6096,-2.24762 -4.299,-4.80738 0.314,-2.55975 2.7477,-4.56072 5.4388,-4.46082 2.688,0.0967 4.613,2.25382 4.2959,4.8167 -0.3172,2.55665 -2.751,4.55137 -5.4357,4.4515 z m 0.763,-9.06218 c -2.6912,-0.0967 -4.6192,-2.25696 -4.3052,-4.82607 0.3141,-2.56914 2.7509,-4.57637 5.4482,-4.47647 2.6942,0.0967 4.6194,2.2632 4.3023,4.83233 -0.3172,2.56911 -2.7573,4.56699 -5.4453,4.47021 z m 0.763,-9.09651 c -2.6943,-0.0967 -4.6254,-2.2632 -4.3113,-4.84168 0.3138,-2.57849 2.7601,-4.59196 5.4574,-4.4952 2.7007,0.0999 4.632,2.27258 4.3117,4.85107 -0.3204,2.57846 -2.7635,4.58569 -5.4578,4.48581 z m 0.7694,-9.12772 c -2.7005,-0.0999 -4.635,-2.27257 -4.3178,-4.86042 0.314,-2.58786 2.7634,-4.60756 5.467,-4.5108 2.707,0.0999 4.6381,2.27882 4.3178,4.86979 -0.3201,2.58473 -2.7663,4.60133 -5.467,4.50143 z m 0.7694,-9.16205 c -2.7038,-0.0967 -4.6412,-2.28194 -4.3241,-4.87603 0.3171,-2.59722 2.7697,-4.62629 5.4796,-4.52952 2.7101,0.0999 4.6445,2.28817 4.3241,4.88539 -0.3202,2.59721 -2.7728,4.62006 -5.4796,4.52016 z m 0.7755,-9.19329 c -2.7099,-0.0999 -4.6506,-2.29129 -4.3335,-4.89476 0.3173,-2.60969 2.7761,-4.64502 5.4893,-4.54512 2.7161,0.0999 4.6537,2.29442 4.3333,4.90099 -0.3232,2.60658 -2.779,4.63566 -5.4891,4.53889 z m 0.7755,-9.23073 c -2.7129,-0.0967 -4.6567,-2.29443 -4.3395,-4.91036 0.3171,-2.61595 2.782,-4.66065 5.5018,-4.56075 2.7192,0.0967 4.6598,2.30066 4.3364,4.91973 -0.3203,2.61284 -2.7853,4.65128 -5.4987,4.55138 z m 0.7792,-9.26197 c -2.7196,-0.0967 -4.6666,-2.30377 -4.3462,-4.9291 0.3201,-2.6253 2.7853,-4.67622 5.5113,-4.57945 2.7254,0.0999 4.6692,2.31315 4.3457,4.93845 -0.3234,2.62533 -2.7916,4.67001 -5.5108,4.5701 z m 0.7819,-9.29628 c -2.7228,-0.0967 -4.6729,-2.31003 -4.3525,-4.9447 0.3203,-2.6378 2.7914,-4.69498 5.5205,-4.59821 2.7288,0.0999 4.6789,2.31941 4.3554,4.95719 -0.3266,2.63468 -2.7978,4.6856 -5.5234,4.58572 z m 0.7849,-9.32752 c -2.7289,-0.0999 -4.6821,-2.3225 -4.3618,-4.96654 0.3234,-2.64404 2.8011,-4.71058 5.5331,-4.61381 2.7351,0.0999 4.6883,2.32876 4.3617,4.97592 -0.3265,2.64094 -2.8043,4.70121 -5.533,4.60443 z m 0.7881,-9.36496 c -2.7351,-0.0999 -4.6882,-2.32876 -4.368,-4.98216 0.3234,-2.65653 2.8042,-4.72932 5.5426,-4.63255 2.7412,0.0999 4.6975,2.33812 4.3678,4.99153 -0.3264,2.65341 -2.8071,4.72307 -5.5424,4.62318 z m 0.7915,-9.3993 c -2.7383,-0.0999 -4.698,-2.33502 -4.3744,-5.00091 0.3202,-2.66276 2.8075,-4.74802 5.5519,-4.64813 2.7477,0.0999 4.7039,2.34435 4.3773,5.01026 -0.3296,2.66276 -2.8167,4.73865 -5.5548,4.63878 z m -15.2833,181.64605 c -2.6442,-0.0967 -4.5379,-2.18205 -4.2363,-4.66063 0.3045,-2.47861 2.6974,-4.41403 5.3447,-4.31725 2.6471,0.0999 4.5438,2.18829 4.2331,4.66999 -0.308,2.47548 -2.7007,4.40465 -5.3415,4.30789 z m 16.0776,-191.07971 c -2.7444,-0.0999 -4.7072,-2.34435 -4.3835,-5.0165 0.3235,-2.67526 2.8166,-4.76679 5.5642,-4.66688 2.7509,0.0999 4.7136,2.35375 4.3839,5.02899 -0.33,2.67214 -2.82,4.75428 -5.5646,4.65439 z m 191.0552,-19.57279 c -2.7603,-0.0999 -4.6537,-2.3662 -4.2266,-5.06332 0.427,-2.70023 3.0145,-4.81047 5.7778,-4.71057 2.7665,0.0999 4.6602,2.37245 4.227,5.07267 -0.4303,2.69711 -3.018,4.80111 -5.7782,4.70122 z m 2.3143,-19.1451 c -2.7695,-0.10303 -4.6694,-2.38495 -4.2392,-5.1008 0.427,-2.7221 3.0271,-4.84794 5.803,-4.74803 2.776,0.10301 4.6727,2.39119 4.2392,5.11015 -0.4332,2.71895 -3.0332,4.83857 -5.803,4.73868 z m -3.4636,28.66617 c -2.7569,-0.0999 -4.6443,-2.35685 -4.2204,-5.0446 0.4239,-2.69087 3.0052,-4.79486 5.7654,-4.69499 2.7601,0.10302 4.6507,2.36623 4.2203,5.05709 -0.4302,2.68775 -3.0114,4.7824 -5.7653,4.6825 z m -25.3413,209.6598 c -2.6439,-0.0967 -4.4652,-2.17579 -4.0726,-4.64814 0.3956,-2.47547 2.8605,-4.40778 5.5107,-4.31101 2.6473,0.0967 4.4684,2.18516 4.0696,4.66063 -0.3988,2.47235 -2.8669,4.39527 -5.5077,4.29852 z m 2.1195,-17.54996 c -2.6502,-0.0967 -4.4808,-2.19141 -4.082,-4.68249 0.3957,-2.4942 2.8732,-4.43899 5.5298,-4.33909 2.6564,0.0967 4.4841,2.19766 4.0823,4.68872 -0.402,2.49109 -2.8766,4.42962 -5.5301,4.33286 z m 1.0678,-8.82179 c -2.6567,-0.0967 -4.4872,-2.20077 -4.0916,-4.70122 0.3988,-2.50046 2.8794,-4.45149 5.5422,-4.35472 2.6632,0.0967 4.4937,2.20702 4.0887,4.70747 -0.4019,2.50045 -2.8828,4.44523 -5.5393,4.34847 z m 1.0707,-8.85302 c -2.6629,-0.0999 -4.4966,-2.21014 -4.0979,-4.71683 0.3988,-2.51293 2.8858,-4.47021 5.5518,-4.37344 2.6662,0.0999 4.4999,2.21636 4.0949,4.72619 -0.4019,2.50668 -2.8889,4.46087 -5.5488,4.36408 z m 1.0739,-8.88735 c -2.666,-0.0967 -4.5028,-2.21326 -4.104,-4.73243 0.4017,-2.5192 2.8919,-4.48584 5.5644,-4.38594 2.6691,0.0967 4.5062,2.21948 4.101,4.73866 -0.4051,2.51918 -2.8953,4.47648 -5.5614,4.37971 z m 22.3143,-184.62414 c -2.7665,-0.0999 -4.66,-2.37558 -4.233,-5.08205 0.4271,-2.70961 3.0176,-4.82921 5.7904,-4.72929 2.7699,0.10301 4.6667,2.3818 4.2331,5.09141 -0.4332,2.70959 -3.024,4.81984 -5.7905,4.71993 z m -21.2371,175.70868 c -2.6724,-0.0999 -4.5125,-2.22574 -4.1106,-4.75117 0.402,-2.52854 2.8984,-4.50144 5.5741,-4.40465 2.6784,0.0999 4.5153,2.22885 4.1103,4.76052 -0.4082,2.52544 -2.9015,4.49207 -5.5738,4.3953 z m 1.0803,-8.9498 c -2.6757,-0.0999 -4.5189,-2.23197 -4.1138,-4.76676 0.402,-2.5379 2.9048,-4.51702 5.5833,-4.42027 2.6817,0.0967 4.5251,2.23824 4.1168,4.77614 -0.4082,2.53478 -2.9078,4.50768 -5.5863,4.41089 z m 1.0864,-8.981 c -2.6818,-0.0999 -4.525,-2.23823 -4.1231,-4.78549 0.4051,-2.54415 2.911,-4.53267 5.599,-4.43586 2.6848,0.0999 4.5281,2.24445 4.1199,4.79172 -0.4114,2.54416 -2.9141,4.52641 -5.5958,4.42963 z m 1.0897,-9.01535 c -2.6848,-0.0967 -4.5345,-2.24445 -4.1294,-4.798 0.4082,-2.55661 2.9174,-4.55135 5.6085,-4.45456 2.691,0.0999 4.5375,2.2538 4.1261,4.80734 -0.4082,2.55351 -2.9204,4.54511 -5.6052,4.44522 z m 1.0928,-9.04655 c -2.6911,-0.0967 -4.5409,-2.25383 -4.1356,-4.81672 0.4082,-2.56599 2.9234,-4.56698 5.6209,-4.4671 2.6943,0.0967 4.5438,2.25697 4.1324,4.82296 -0.4114,2.5629 -2.9266,4.56075 -5.6177,4.46086 z m 1.0989,-9.07776 c -2.6973,-0.0999 -4.5499,-2.26322 -4.1417,-4.83545 0.4082,-2.57228 2.9297,-4.58259 5.6304,-4.48582 2.7003,0.0999 4.5531,2.26942 4.1385,4.8448 -0.4145,2.57225 -2.9327,4.57323 -5.6272,4.47647 z m 1.0992,-9.11214 c -2.6974,-0.0999 -4.5564,-2.26944 -4.1451,-4.85104 0.4084,-2.58475 2.9331,-4.60132 5.6397,-4.50142 2.7037,0.0967 4.5598,2.27567 4.145,4.85729 -0.4144,2.5816 -2.9391,4.59197 -5.6396,4.49517 z m 1.1054,-9.14645 c -2.7037,-0.0967 -4.5626,-2.27568 -4.1544,-4.86666 0.4113,-2.59408 2.9422,-4.61692 5.6522,-4.52015 2.7099,0.0999 4.5722,2.28504 4.1545,4.87914 -0.4144,2.58786 -2.9455,4.60756 -5.6523,4.50767 z m 1.1116,-9.17767 c -2.71,-0.0967 -4.5752,-2.28504 -4.1607,-4.88539 0.4113,-2.60346 2.9486,-4.63253 5.6617,-4.53575 2.7164,0.0999 4.5786,2.29128 4.1609,4.89475 -0.4178,2.60033 -2.952,4.62629 -5.6619,4.52639 z m 1.1115,-9.20888 c -2.713,-0.0999 -4.5814,-2.29442 -4.1669,-4.90414 0.4144,-2.61281 2.9549,-4.65126 5.6742,-4.55447 2.7195,0.0999 4.5848,2.30065 4.1672,4.91347 -0.4176,2.60972 -2.9581,4.64191 -5.6745,4.54514 z m 1.1179,-9.24634 c -2.7194,-0.0999 -4.5877,-2.30066 -4.1731,-4.91973 0.4144,-2.6222 2.961,-4.66998 5.6867,-4.57009 2.7227,0.0999 4.591,2.30688 4.1703,4.92909 -0.4177,2.61906 -2.9643,4.66062 -5.6839,4.56073 z m 1.1211,-9.27758 c -2.7256,-0.0999 -4.5972,-2.31002 -4.1795,-4.93846 0.4175,-2.63154 2.9674,-4.68872 5.6964,-4.58882 2.7318,0.0999 4.6034,2.31628 4.1794,4.94782 -0.4206,2.62843 -2.9704,4.67624 -5.6963,4.57946 z m 1.1274,-9.31502 c -2.732,-0.0999 -4.6068,-2.31626 -4.1892,-4.95407 0.4177,-2.6409 2.9738,-4.70432 5.7091,-4.60443 2.7351,0.0999 4.6098,2.3225 4.1859,4.96343 -0.4209,2.63779 -2.9769,4.69497 -5.7058,4.59507 z m 1.1273,-9.34623 c -2.732,-0.0999 -4.6098,-2.32562 -4.1922,-4.9728 0.4176,-2.65028 2.9802,-4.72307 5.7215,-4.62317 2.7381,0.0999 4.6161,2.33189 4.1921,4.98215 -0.4239,2.65029 -2.9863,4.7137 -5.7214,4.61382 z m 1.1369,-9.38057 c -2.7414,-0.0999 -4.6227,-2.33188 -4.2018,-4.99153 0.4207,-2.65966 2.9864,-4.73868 5.7311,-4.63878 2.7443,0.0999 4.6254,2.33812 4.2014,5.0009 -0.427,2.65654 -2.9927,4.72929 -5.7307,4.62941 z m 1.1366,-9.41493 c -2.7444,-0.0999 -4.6288,-2.34122 -4.2079,-5.01025 0.424,-2.66901 2.9958,-4.75741 5.7434,-4.65752 2.7509,0.0999 4.6348,2.34749 4.2079,5.01963 -0.4272,2.66591 -2.9989,4.74803 -5.7434,4.64814 z m -21.9939,181.96446 c -2.6471,-0.0967 -4.4746,-2.18514 -4.0791,-4.66686 0.3988,-2.48484 2.8702,-4.42026 5.5203,-4.3235 2.6535,0.0967 4.4781,2.1914 4.0763,4.67626 -0.399,2.48172 -2.8703,4.4109 -5.5175,4.3141 z m 23.1369,-191.41682 c -2.7508,-0.0999 -4.638,-2.34749 -4.2141,-5.02587 0.424,-2.68151 2.999,-4.77614 5.756,-4.67625 2.7538,0.10302 4.6411,2.35686 4.2109,5.03836 -0.427,2.6784 -3.0052,4.76364 -5.7528,4.66376 z m -194.0699,203.37591 c -0.2134,2.46301 -2.5276,4.45461 -5.1717,4.44836 -2.6441,-0.006 -4.616,-2.00722 -4.4089,-4.47022 0.2073,-2.4661 2.5248,-4.46084 5.172,-4.45461 2.6472,0.006 4.6222,2.01036 4.4086,4.47647 z m 157.2764,0.35273 c -0.292,2.46612 -2.6785,4.45775 -5.3288,4.45151 -2.6504,-0.003 -4.5661,-2.00723 -4.277,-4.47334 0.2856,-2.46925 2.6722,-4.4671 5.3258,-4.46086 2.6565,0.006 4.572,2.01346 4.28,4.48269 z m -9.8413,-0.0219 c -0.2891,2.46611 -2.6692,4.45773 -5.3196,4.45149 -2.6502,-0.006 -4.569,-2.00723 -4.2863,-4.47335 0.2826,-2.46924 2.663,-4.4671 5.3195,-4.46085 2.6535,0.006 4.572,2.01346 4.2864,4.48271 z m -9.8415,-0.0219 c -0.2826,2.46612 -2.6598,4.45774 -5.3068,4.45149 -2.6503,-0.006 -4.5753,-2.00723 -4.2956,-4.47333 0.2761,-2.46926 2.6533,-4.46709 5.3066,-4.46087 2.6566,0.006 4.5784,2.01347 4.2958,4.48271 z m -9.838,-0.0219 c -0.2763,2.4661 -2.6506,4.45771 -5.2977,4.45147 -2.6502,-0.006 -4.5782,-2.00723 -4.3049,-4.47333 0.2731,-2.46924 2.647,-4.4671 5.3003,-4.46084 2.6535,0.006 4.5785,2.01344 4.3023,4.4827 z m -9.8382,-0.0219 c -0.2701,2.4661 -2.6377,4.45772 -5.2883,4.45149 -2.647,-0.006 -4.5783,-2.00722 -4.3114,-4.47333 0.2669,-2.46925 2.6345,-4.4671 5.2883,-4.46086 2.6534,0.006 4.5846,2.01347 4.3114,4.4827 z m -9.835,-0.0219 c -0.2669,2.46297 -2.6316,4.45771 -5.2787,4.45147 -2.6475,-0.006 -4.5817,-2.01035 -4.321,-4.47333 0.2637,-2.46924 2.6283,-4.46711 5.2818,-4.46086 2.6536,0.006 4.5848,2.01348 4.3179,4.48272 z m -9.8322,-0.0219 c -0.2638,2.46299 -2.622,4.4546 -5.2692,4.44837 -2.6502,-0.006 -4.5878,-2.00722 -4.3302,-4.47022 0.2576,-2.46924 2.619,-4.46711 5.2692,-4.46086 2.6534,0.006 4.591,2.01348 4.3302,4.48271 z m -9.8318,-0.025 c -0.2576,2.46611 -2.6128,4.45772 -5.2599,4.45148 -2.6501,-0.006 -4.5908,-2.0072 -4.3365,-4.47022 0.2512,-2.46923 2.6063,-4.46709 5.2597,-4.46084 2.6503,0.006 4.5942,2.01346 4.3367,4.47958 z m -9.8318,-0.0219 c -0.2514,2.46613 -2.6033,4.45773 -5.2506,4.45148 -2.6472,-0.006 -4.5908,-2.00722 -4.3428,-4.47022 0.2481,-2.46921 2.5969,-4.46707 5.2504,-4.46085 2.6504,0.006 4.5942,2.01347 4.343,4.47959 z m -9.8288,-0.0219 c -0.2481,2.46612 -2.5937,4.45774 -5.2409,4.45149 -2.6475,-0.006 -4.5943,-2.00722 -4.3526,-4.47335 0.2451,-2.46609 2.5906,-4.46084 5.2413,-4.45772 2.6502,0.006 4.6002,2.01348 4.3522,4.47958 z m -9.8289,-0.0219 c -0.2418,2.46613 -2.5844,4.45774 -5.2282,4.4515 -2.6473,-0.006 -4.6007,-2.00723 -4.3619,-4.47335 0.2385,-2.4661 2.5813,-4.46084 5.2316,-4.45772 2.6502,0.006 4.6034,2.01348 4.3585,4.47957 z m -9.8258,-0.0219 c -0.2354,2.46612 -2.5747,4.45462 -5.2188,4.45149 -2.6471,-0.006 -4.6034,-2.00722 -4.368,-4.47334 0.2324,-2.46611 2.5687,-4.46085 5.2189,-4.45774 2.6504,0.006 4.6067,2.01348 4.3679,4.47959 z m -9.8222,-0.0219 c -0.2325,2.46613 -2.5658,4.4546 -5.2129,4.44837 -2.644,-0.006 -4.6034,-2.00409 -4.3742,-4.47021 0.2261,-2.4661 2.5591,-4.46086 5.2094,-4.45461 2.6504,0.003 4.61,2.01036 4.3777,4.47645 z m -9.8226,-0.0219 c -0.2292,2.463 -2.556,4.45461 -5.2034,4.44835 -2.6439,-0.006 -4.6066,-2.0072 -4.3837,-4.47021 0.2229,-2.4661 2.553,-4.46086 5.2032,-4.45461 2.6472,0.003 4.6131,2.01037 4.3839,4.47647 z m -9.8226,-0.0219 c -0.2228,2.46301 -2.5465,4.45462 -5.1904,4.44838 -2.6444,-0.006 -4.6101,-2.00723 -4.3935,-4.47024 0.2199,-2.46608 2.5436,-4.46084 5.1941,-4.4546 2.6471,0.006 4.616,2.01036 4.3898,4.47646 z m 147.4852,0.3309 c -0.2982,2.4661 -2.688,4.46086 -5.3384,4.45461 -2.6503,-0.006 -4.5625,-2.01036 -4.2706,-4.47645 0.292,-2.46927 2.6816,-4.46711 5.3382,-4.46086 2.6568,0.006 4.5659,2.01345 4.2708,4.4827 z m -157.3014,-0.35257 c -0.2198,2.463 -2.5403,4.45463 -5.1843,4.44838 -2.6441,-0.006 -4.6131,-2.00722 -4.3994,-4.47022 0.2133,-2.46612 2.5341,-4.46085 5.1812,-4.45461 2.6503,0.006 4.6191,2.01037 4.4025,4.47645 z m 15.5752,-253.55995 c -0.2449,2.822 -2.7822,5.10705 -5.6647,5.10705 -2.8794,0 -5.0212,-2.28505 -4.7825,-5.10705 0.2418,-2.828204 2.7759,-5.119498 5.6647,-5.119498 2.889,0 5.0275,2.294418 4.7825,5.119498 z m 171.495,0.0155 c -0.339,2.82824 -2.9579,5.11641 -5.8467,5.11641 -2.8924,0 -4.9649,-2.28817 -4.629,-5.11641 0.3329,-2.831338 2.952,-5.125755 5.8472,-5.125755 2.8983,0 4.9677,2.297535 4.6285,5.125755 z m -10.733,0 c -0.3329,2.82511 -2.9456,5.11641 -5.8376,5.11641 -2.8889,-0.003 -4.9647,-2.2913 -4.6383,-5.11641 0.3297,-2.831338 2.9425,-5.125755 5.8378,-5.125755 2.8984,0 4.974,2.294417 4.6381,5.125755 z m -10.7302,0 c -0.3297,2.82511 -2.9361,5.1133 -5.8248,5.1133 -2.8889,0 -4.9709,-2.28819 -4.6474,-5.11641 0.3202,-2.828228 2.9297,-5.125768 5.8248,-5.122645 2.8952,0 4.9741,2.294417 4.6474,5.125755 z m -10.7297,-0.003 c -0.3235,2.82822 -2.9237,5.11641 -5.8126,5.11641 -2.889,0 -4.974,-2.29132 -4.657,-5.11641 0.3141,-2.828225 2.9173,-5.12576 5.8126,-5.12576 2.895,0 4.9804,2.297535 4.657,5.12576 z m -10.7269,0 c -0.3172,2.82509 -2.9143,5.11328 -5.8032,5.11328 -2.889,0 -4.9772,-2.28819 -4.6663,-5.11328 0.3109,-2.831343 2.9078,-5.12576 5.8029,-5.12576 2.8955,0 4.9837,2.297535 4.6666,5.12576 z m -10.7239,0 c -0.3108,2.82509 -2.9045,5.11328 -5.7938,5.11328 -2.8856,0 -4.9802,-2.2913 -4.6755,-5.1164 0.3045,-2.828223 2.8983,-5.12264 5.7904,-5.12264 2.8953,0 4.9898,2.294417 4.6789,5.12576 z m -10.7237,-0.003 c -0.3046,2.82511 -2.8921,5.11329 -5.781,5.11329 -2.886,0 -4.9836,-2.28818 -4.6852,-5.11329 0.2982,-2.828208 2.8857,-5.122626 5.7779,-5.122626 2.8952,0 4.9929,2.294418 4.6883,5.122626 z m -10.7238,0 c -0.2983,2.82511 -2.8793,5.11329 -5.7652,5.11329 -2.8892,0 -4.9899,-2.28818 -4.6978,-5.11329 0.295,-2.828208 2.8765,-5.122626 5.7686,-5.122626 2.892,0 4.9958,2.294418 4.6944,5.122626 z m -10.7174,0 c -0.2952,2.82511 -2.8701,5.11016 -5.7559,5.11016 -2.8858,0 -4.9931,-2.28817 -4.7073,-5.11327 0.2889,-2.828216 2.8671,-5.122635 5.7561,-5.122635 2.8921,0 4.9991,2.297537 4.7071,5.125745 z m -10.7176,-0.003 c -0.2889,2.82511 -2.8606,5.11329 -5.7462,5.11329 -2.886,0 -4.9961,-2.28818 -4.7136,-5.11329 0.2827,-2.828213 2.8544,-5.12263 5.7435,-5.12263 2.892,0 5.0022,2.294417 4.7163,5.12263 z m -10.7172,0 c -0.2795,2.82511 -2.8483,5.11016 -5.731,5.11016 -2.8858,0 -5.0021,-2.28817 -4.726,-5.11016 0.2764,-2.828213 2.8419,-5.12263 5.734,-5.12263 2.8889,0 5.0055,2.294417 4.723,5.12263 z m -10.7112,0 c -0.2764,2.82199 -2.8388,5.11016 -5.7216,5.11016 -2.8858,0 -5.0053,-2.28817 -4.7353,-5.11328 0.2703,-2.825093 2.8323,-5.11951 5.7213,-5.11951 2.8892,0 5.0087,2.294417 4.7356,5.12263 z m -10.7144,-0.003 c -0.2669,2.82512 -2.8261,5.11018 -5.7089,5.11018 -2.8827,0 -5.0087,-2.28818 -4.7448,-5.11018 0.2639,-2.828207 2.8229,-5.119501 5.7122,-5.119501 2.889,0 5.0117,2.294417 4.7415,5.119501 z m -10.7079,0 c -0.2639,2.822 -2.8169,5.11018 -5.6995,5.11018 -2.8828,0 -5.012,-2.28818 -4.7542,-5.11018 0.2605,-2.828207 2.8102,-5.122623 5.6994,-5.122623 2.8891,0.0032 5.0179,2.294416 4.7543,5.122623 z m -10.7081,0 c -0.2577,2.822 -2.8042,5.10705 -5.6868,5.10705 -2.8829,0 -5.015,-2.28505 -4.764,-5.11017 0.2514,-2.825087 2.7982,-5.119503 5.6871,-5.119503 2.889,0 5.0211,2.294416 4.7637,5.122623 z m -10.7051,-0.003 c -0.2544,2.82511 -2.7947,5.11016 -5.6774,5.11016 -2.8827,0 -5.018,-2.28818 -4.7732,-5.11016 0.2483,-2.825098 2.7887,-5.119516 5.6775,-5.119516 2.8859,0 5.0244,2.294418 4.7731,5.119516 z m -36.9694,243.71708 c 0,0 20.1037,-233.25952 20.1037,-233.25952 0,0 169.0235,0.0311 169.0235,0.0311 0,0 -27.3856,233.57793 -27.3856,233.57793 z M 1450.7568,95.98269 c 0,0 -31.8292,264.58848 -31.8292,264.58848 0,0 -191.4161,0.33403 -191.4161,0.33403 -0.081,1.25178 22.3488,-265.184727 22.3488,-265.184727 z m -211.5293,254.23085 c 0,0 20.4177,-242.43407 20.4177,-242.43407 0,0 178.7424,-0.6368 178.7424,-0.6368 0,0 -29.0121,243.50167 -29.0121,243.50167 z m 24.5909,-237.62649 c 0,0 -19.2087,-22.116929 -19.2087,-22.116929 0,0 -22.6093,275.330099 -22.6093,275.330099 0,0 21.7143,-19.95365 21.7143,-19.95365 z m 141.6379,233.60916 c 0,0 17.6732,20.07225 17.6732,20.07225 0,0 -201.1291,-0.46824 -201.1291,-0.46824 0,0 21.7143,-19.95365 21.7143,-19.95365 z m 27.3856,-233.57794 c 0,0 23.812,-22.148149 23.812,-22.148149 0,0 -33.5244,275.798339 -33.5244,275.798339 0,0 -17.6732,-20.07225 -17.6732,-20.07225 z M 1244.6097,90.470409 c 0,0 19.2087,22.116931 19.2087,22.116931 0,0 169.0235,0.0311 169.0235,0.0311 0,0 23.812,-22.148143 23.812,-22.148143 z"
         style="display:inline;stroke:#020707;stroke-width:2;stroke-linejoin:round;stroke-dasharray:none;stroke-opacity:1" /></g></g></svg>
