<?xml version="1.0" encoding="UTF-8" standalone="no"?>
<!-- Created with Inkscape (http://www.inkscape.org/) -->

<svg
   width="254.24216"
   height="455.93832"
   viewBox="0 0 254.24216 455.93832"
   version="1.1"
   id="svg1"
   xml:space="preserve"
   xmlns:xlink="http://www.w3.org/1999/xlink"
   xmlns="http://www.w3.org/2000/svg"
   xmlns:svg="http://www.w3.org/2000/svg"><defs
     id="defs1"><linearGradient
       id="linearGradient349"><stop
         style="stop-color:#815a12;stop-opacity:1;"
         offset="0.51535088"
         id="stop350" /><stop
         style="stop-color:#583e0c;stop-opacity:1;"
         offset="1"
         id="stop349" /></linearGradient><filter
       style="color-interpolation-filters:sRGB"
       id="filter111"
       x="-0.11363486"
       y="-0.065972797"
       width="1.2272697"
       height="1.1319456"><feGaussianBlur
         stdDeviation="8.874604"
         id="feGaussianBlur111" /></filter><filter
       style="color-interpolation-filters:sRGB"
       id="filter344"
       x="-0.090274378"
       y="-0.08713985"
       width="1.1805488"
       height="1.1742797"><feGaussianBlur
         stdDeviation="2.2898061"
         id="feGaussianBlur344" /></filter><radialGradient
       xlink:href="#linearGradient349"
       id="radialGradient350"
       cx="893.6167"
       cy="321.50772"
       fx="893.6167"
       fy="321.50772"
       r="31.500002"
       gradientUnits="userSpaceOnUse" /><radialGradient
       xlink:href="#linearGradient349"
       id="radialGradient351"
       gradientUnits="userSpaceOnUse"
       cx="893.6167"
       cy="321.50772"
       fx="893.6167"
       fy="321.50772"
       r="31.500002"
       gradientTransform="translate(-66.569336)" /></defs><g
     id="layer9"
     style="display:inline"
     transform="translate(-718.10599,-190.78903)"><path
       id="path107"
       style="fill:#722f10;fill-opacity:1;stroke:#431402;stroke-width:6;stroke-linecap:round;stroke-linejoin:round;stroke-dasharray:none;stroke-opacity:1"
       d="m 914.0891,213.4719 c -16.62931,-1.14531 -23.0379,-5.73778 -30.89582,-9.84143 0,0 -6.50778,-5.2992 -10.2986,-6.94689 -3.9534,-1.71835 -8.28196,-2.89455 -12.5872,-2.89455 -4.30524,0 -8.6338,1.1762 -12.58719,2.89455 -3.79082,1.64769 -10.29861,6.94689 -10.29861,6.94689 -7.85792,4.10365 -14.2665,8.69612 -30.89582,9.84143 -16.39539,19.16648 -29.44857,19.73358 -42.91086,22.57739 l 10e-6,407.67805 h 193.43637 l -0.0257,-407.67805 c -13.48797,-2.84381 -26.54115,-3.41091 -42.93658,-22.57739 z" /><path
       style="display:inline;opacity:1;fill:none;fill-opacity:1;stroke:#3e1202;stroke-width:2;stroke-linecap:round;stroke-linejoin:round;stroke-dasharray:none;stroke-opacity:1"
       d="m 815.94364,223.32777 -10.41778,15.29233 54.8062,31.16091 54.75704,-31.16091 -9.93094,-15.79327"
       id="path463" /><path
       style="opacity:1;fill:none;fill-opacity:1;stroke:#3e1202;stroke-width:2;stroke-linecap:round;stroke-linejoin:round;stroke-dasharray:none;stroke-opacity:1"
       d="m 837.42168,203.63047 22.91038,66.15054 22.86122,-66.15054"
       id="path464" /><path
       style="display:inline;opacity:1;fill:none;fill-opacity:1;stroke:#3e1102;stroke-width:2;stroke-linecap:round;stroke-linejoin:round;stroke-dasharray:none;stroke-opacity:1"
       d="m 806.52586,213.4719 53.8062,56.30911 53.75704,-56.30911"
       id="path367" /><rect
       style="display:inline;opacity:0.75;fill:#310d00;fill-opacity:1;stroke:none;stroke-width:8;stroke-linecap:round;stroke-linejoin:round;stroke-dasharray:none;stroke-opacity:1;filter:url(#filter111)"
       id="rect111"
       width="187.43413"
       height="322.84595"
       x="763.61499"
       y="265.78101" /><rect
       style="fill:#722f10;fill-opacity:1;stroke:#431402;stroke-width:8;stroke-linecap:round;stroke-linejoin:round;stroke-dasharray:none;stroke-opacity:1"
       id="rect107"
       width="163.54996"
       height="297.84595"
       x="779.49927"
       y="276.78101" /><g
       id="g355"
       transform="matrix(0.80848367,0,0,0.80848367,153.79622,74.928147)"><path
         style="fill:#815a12;fill-opacity:1;stroke:#251c19;stroke-width:4.2976;stroke-linecap:round;stroke-linejoin:round;stroke-dasharray:none;stroke-opacity:1"
         d="m 713.96852,338.7804 c 5.56364,1.99364 10.41831,5.67859 16.31126,6.94988 10.2175,2.20421 31.60305,0.86873 31.60305,0.86873 l 1.01945,-6.08114 v -15.6372 c 0,0 -22.0441,3.03465 -32.6225,0.86873 -7.54184,-1.54418 -13.44565,-6.70546 -20.38906,-9.55607 -3.19216,-1.31054 -9.75658,-3.46059 -9.75658,-3.46059 l 2.03892,22.58708 c 0,0 7.93809,2.07836 11.79546,3.46058 z"
         id="path113" /><g
         id="g352"><path
           style="fill:#3d2a22;fill-opacity:1;stroke:#000000;stroke-width:5;stroke-linecap:round;stroke-linejoin:round;stroke-dasharray:none;stroke-opacity:1"
           d="m 717.96613,319.78135 c -0.0795,-1.40888 0.16078,-3.07499 1.16008,-4.07131 1.68224,-1.67724 4.52987,-1.46796 6.85952,-1.93247 5.08496,-1.01391 10.26031,-1.79732 15.44512,-1.847 4.61073,-0.0442 9.25236,0.42676 13.76391,1.37898 2.88754,0.60946 6.56323,0.45461 8.41465,2.75278 1.21336,1.50616 0.98722,3.87973 0.58889,5.77238 -0.43407,2.06254 -1.91572,3.77038 -3.12279,5.49823 -1.20579,1.72601 -4.08384,4.81868 -4.08384,4.81868 0,0 -1.14195,13.29903 -1.43684,19.96459 -0.31225,7.05806 -0.99098,14.15602 -0.35135,21.19197 0.65305,7.18366 2.41801,14.24192 4.25454,21.2175 3.13066,11.89099 11.49813,35.05085 11.49813,35.05085 0,0 1.63264,10.51894 -1.25949,14.35338 -2.73096,3.62075 -8.28733,3.84195 -12.70498,4.86777 -6.29321,1.46136 -12.84244,1.81804 -19.30275,1.75066 -6.18276,-0.0645 -12.50217,-0.31736 -18.43451,-2.06034 -5.37614,-1.57957 -11.93167,-2.81824 -15.06104,-7.46635 -2.50859,-3.72605 -1.00353,-13.43806 -1.00353,-13.43806 0,0 10.00142,-22.36261 14.07165,-33.90085 2.35947,-6.68856 4.63323,-13.4566 5.97876,-20.42033 1.37327,-7.10724 1.56137,-14.39566 2.1013,-21.6142 0.473,-6.32383 0.99647,-18.99837 0.99647,-18.99837 0,0 -4.05363,-3.64025 -5.50708,-5.90579 -1.35517,-2.11235 -2.7234,-4.457 -2.86482,-6.9627 z"
           id="path111" /><path
           style="fill:#3d2a22;fill-opacity:1;stroke:#000000;stroke-width:4.53201;stroke-linecap:round;stroke-linejoin:round;stroke-dasharray:none;stroke-opacity:1"
           d="m 704.60175,427.74624 c 0,0 5.52394,4.81202 9.04633,6.31449 5.04304,2.1511 10.88041,2.94182 16.53297,3.53612 4.94952,0.52038 10.03129,0.56561 14.97324,0 5.57209,-0.63773 11.09436,-1.90962 16.22103,-3.7887 2.81167,-1.03055 7.79856,-4.04127 7.79856,-4.04127"
           id="path114" /></g><path
         style="fill:#815a12;fill-opacity:1;stroke:#251c19;stroke-width:4.2976;stroke-linecap:round;stroke-linejoin:round;stroke-dasharray:none;stroke-opacity:1"
         d="m 719.96852,346.7804 c 5.56364,1.99364 10.41831,5.67859 16.31126,6.94988 10.2175,2.20421 31.60305,0.86873 31.60305,0.86873 l 1.01945,-6.08114 v -15.6372 c 0,0 -22.0441,3.03465 -32.6225,0.86873 -7.54184,-1.54418 -13.44565,-6.70546 -20.38906,-9.55607 -3.19216,-1.31054 -9.75658,-3.46059 -9.75658,-3.46059 l 2.03892,22.58708 c 0,0 7.93809,2.07836 11.79546,3.46058 z"
         id="path109" /><path
         style="fill:none;fill-opacity:1;stroke:#694324;stroke-width:4.94753;stroke-linecap:square;stroke-linejoin:round;stroke-dasharray:none;stroke-opacity:1"
         d="m 741.02186,310.07298 c -2.10997,-4.90003 2.40532,5.24164 3.50365,9.63503 0.5232,2.09282 1.75183,6.13139 1.75183,6.13139 0,0 4.36453,23.35611 7.44525,34.81752 1.65373,6.15251 4.09203,12.0699 5.91242,18.17518 1.51279,5.07363 2.3583,9.92163 4.16058,15.32847 0.29451,0.88353 2.88524,7.80653 3.9416,11.82481 2.91173,11.07585 4.01072,22.37712 6.56934,33.72263 0.62963,13.69874 1.08582,26.96902 0.87592,41.16788 0,0 1.56514,27.09337 1.54841,40.65478 -0.0157,12.73623 -1.54841,38.17733 -1.54841,38.17733 -0.21343,5.26219 -1.31129,8.72812 -1.75183,14.0146 -1.03776,12.45314 -4.4913,37.66423 -21.0219,37.66423 -1.45985,0 -2.99462,0.46165 -4.37956,0 -4.78104,-1.59368 -21.47201,-12.31141 -22.77372,-17.51824 -1.82349,-13.86671 -0.59353,-27.55996 2.62774,-41.16789 0.95598,-3.82391 0.97928,-7.52413 1.75182,-11.38686 1.42033,-7.10162 3.50294,-14.01176 5.25548,-21.02189 0.79171,-3.16687 1.72138,-5.84881 2.51309,-9.01568 0.58475,-2.33898 1.2729,-4.99152 2.62774,-7.0073 2.65853,-3.95546 2.44888,-3.73508 4.54894,-10.03541 1.2035,-3.27162 2.2519,-5.04708 3.28468,-7.60949 0.93255,-2.31374 1.89204,-4.62365 2.62774,-7.0073 1.15481,-3.74154 1.21566,-9.83418 2.79197,-11.41048 0.20645,-0.20646 0.76015,-8.39595 -0.34726,-13.20094"
         id="path112" /></g><ellipse
       style="display:inline;opacity:0.487864;mix-blend-mode:normal;fill:#4c1b07;fill-opacity:1;stroke:none;stroke-width:3.00094;stroke-linecap:round;stroke-linejoin:round;stroke-dasharray:none;stroke-opacity:1;filter:url(#filter344)"
       id="ellipse344"
       cx="860.33209"
       cy="460.29193"
       rx="30.437954"
       ry="31.532845"
       transform="matrix(2.0392182,0,0,2.0392182,-894.07277,-478.2742)" /><rect
       style="fill:none;fill-opacity:1;stroke:#222222;stroke-width:15.0005;stroke-linecap:round;stroke-linejoin:round;stroke-dasharray:none;stroke-opacity:1"
       id="rect108"
       width="107.6076"
       height="152.84439"
       x="806.52826"
       y="376.89853" /><g
       id="g516"
       transform="matrix(0.90672648,0,0,0.90672648,80.246283,35.898807)"><path
         style="display:inline;fill:#3d2a22;fill-opacity:1;stroke:#000000;stroke-width:5;stroke-linecap:round;stroke-linejoin:round;stroke-dasharray:none;stroke-opacity:1"
         d="m 835.76297,449.20101 2.31726,-8.49663 10.42767,-8.68972 6.37246,-19.5036 c 0,0 3.95308,-3.50822 6.37247,-3.4759 2.3072,0.0309 5.98625,3.4759 5.98625,3.4759 l 4.82762,18.34497 8.49662,8.68972 3.08968,6.17936 v 6.56558 l -4.0552,6.37246 -5.98625,6.37246 -4.44142,19.88981 -2.51037,6.75868 -6.08281,3.28279 -6.27591,-3.47589 -2.89657,-6.37247 -4.24831,-20.08292 -8.30351,-8.30351 z"
         id="path292" /><ellipse
         style="fill:#7a5a1e;fill-opacity:1;stroke:#000000;stroke-width:5.31817;stroke-linecap:round;stroke-linejoin:round;stroke-dasharray:none;stroke-opacity:1"
         id="path297"
         cx="860.33197"
         cy="460.36145"
         rx="53.958046"
         ry="55.898983" /><g
         id="g344"
         transform="matrix(1.5167432,0,0,1.5167432,-443.69063,-228.03574)"><ellipse
           style="fill:#a98053;fill-opacity:1;stroke:#000000;stroke-width:3.84232;stroke-linecap:round;stroke-linejoin:round;stroke-dasharray:none;stroke-opacity:1"
           id="path310"
           cx="860.55109"
           cy="450.39633"
           rx="17.967319"
           ry="18.526302" /><ellipse
           style="fill:#3d2a22;fill-opacity:1;stroke:#000000;stroke-width:3.84232;stroke-linecap:round;stroke-linejoin:round;stroke-dasharray:none;stroke-opacity:1"
           id="ellipse310"
           cx="860.55109"
           cy="462.99887"
           rx="23.703136"
           ry="24.440567" /><g
           id="g343"
           transform="matrix(1.2807723,0,0,1.2807723,-257.01449,-140.78344)"><ellipse
             style="fill:#a98053;fill-opacity:1;stroke:#000000;stroke-width:2;stroke-linecap:round;stroke-linejoin:round;stroke-dasharray:none;stroke-opacity:1"
             id="ellipse311"
             cx="872.64673"
             cy="466.65671"
             rx="8.2418098"
             ry="8.4982224" /><g
             id="g342"><circle
               style="fill:#000000;fill-opacity:1;stroke:none;stroke-width:3.32121;stroke-linecap:round;stroke-linejoin:round;stroke-dasharray:none;stroke-opacity:1"
               id="path326"
               cx="868.2616"
               cy="463.67413"
               r="1" /><circle
               style="fill:#000000;fill-opacity:1;stroke:none;stroke-width:3.32121;stroke-linecap:round;stroke-linejoin:round;stroke-dasharray:none;stroke-opacity:1"
               id="circle326"
               cx="870.50677"
               cy="461.69992"
               r="1" /><circle
               style="fill:#000000;fill-opacity:1;stroke:none;stroke-width:3.32121;stroke-linecap:round;stroke-linejoin:round;stroke-dasharray:none;stroke-opacity:1"
               id="circle327"
               cx="867.48737"
               cy="466.34515"
               r="1" /><circle
               style="fill:#000000;fill-opacity:1;stroke:none;stroke-width:3.32121;stroke-linecap:round;stroke-linejoin:round;stroke-dasharray:none;stroke-opacity:1"
               id="circle328"
               cx="873.33264"
               cy="461.19669"
               r="1" /><circle
               style="fill:#000000;fill-opacity:1;stroke:none;stroke-width:3.32121;stroke-linecap:round;stroke-linejoin:round;stroke-dasharray:none;stroke-opacity:1"
               id="circle329"
               cx="868.30029"
               cy="469.24841"
               r="1" /><circle
               style="fill:#000000;fill-opacity:1;stroke:none;stroke-width:3.32121;stroke-linecap:round;stroke-linejoin:round;stroke-dasharray:none;stroke-opacity:1"
               id="circle330"
               cx="870.19708"
               cy="471.41617"
               r="1" /><circle
               style="fill:#000000;fill-opacity:1;stroke:none;stroke-width:3.32121;stroke-linecap:round;stroke-linejoin:round;stroke-dasharray:none;stroke-opacity:1"
               id="circle331"
               cx="876.04236"
               cy="462.43539"
               r="1" /><circle
               style="fill:#000000;fill-opacity:1;stroke:none;stroke-width:3.32121;stroke-linecap:round;stroke-linejoin:round;stroke-dasharray:none;stroke-opacity:1"
               id="circle332"
               cx="877.66815"
               cy="464.95157"
               r="1" /><circle
               style="fill:#000000;fill-opacity:1;stroke:none;stroke-width:3.32121;stroke-linecap:round;stroke-linejoin:round;stroke-dasharray:none;stroke-opacity:1"
               id="circle333"
               cx="877.66815"
               cy="467.89352"
               r="1" /><circle
               style="fill:#000000;fill-opacity:1;stroke:none;stroke-width:3.32121;stroke-linecap:round;stroke-linejoin:round;stroke-dasharray:none;stroke-opacity:1"
               id="circle334"
               cx="873.21649"
               cy="471.9968"
               r="1" /><circle
               style="fill:#000000;fill-opacity:1;stroke:none;stroke-width:3.32121;stroke-linecap:round;stroke-linejoin:round;stroke-dasharray:none;stroke-opacity:1"
               id="circle335"
               cx="875.84882"
               cy="470.56451"
               r="1" /><circle
               style="fill:#000000;fill-opacity:1;stroke:none;stroke-width:3.32121;stroke-linecap:round;stroke-linejoin:round;stroke-dasharray:none;stroke-opacity:1"
               id="circle336"
               cx="870.85516"
               cy="464.48703"
               r="1" /><circle
               style="fill:#000000;fill-opacity:1;stroke:none;stroke-width:3.32121;stroke-linecap:round;stroke-linejoin:round;stroke-dasharray:none;stroke-opacity:1"
               id="circle337"
               cx="873.60364"
               cy="463.9064"
               r="1" /><circle
               style="fill:#000000;fill-opacity:1;stroke:none;stroke-width:3.32121;stroke-linecap:round;stroke-linejoin:round;stroke-dasharray:none;stroke-opacity:1"
               id="circle338"
               cx="875.22949"
               cy="466.03543"
               r="1" /><circle
               style="fill:#000000;fill-opacity:1;stroke:none;stroke-width:3.32121;stroke-linecap:round;stroke-linejoin:round;stroke-dasharray:none;stroke-opacity:1"
               id="circle339"
               cx="874.53271"
               cy="468.47418"
               r="1" /><circle
               style="fill:#000000;fill-opacity:1;stroke:none;stroke-width:3.32121;stroke-linecap:round;stroke-linejoin:round;stroke-dasharray:none;stroke-opacity:1"
               id="circle340"
               cx="872.67462"
               cy="466.38385"
               r="1" /><circle
               style="fill:#000000;fill-opacity:1;stroke:none;stroke-width:3.32121;stroke-linecap:round;stroke-linejoin:round;stroke-dasharray:none;stroke-opacity:1"
               id="circle341"
               cx="870.08099"
               cy="467.23547"
               r="1" /><circle
               style="fill:#000000;fill-opacity:1;stroke:none;stroke-width:3.32121;stroke-linecap:round;stroke-linejoin:round;stroke-dasharray:none;stroke-opacity:1"
               id="circle342"
               cx="871.78424"
               cy="469.13226"
               r="1" /></g></g></g></g><g
       id="g351"
       style="display:inline"><circle
         style="fill:url(#radialGradient351);fill-opacity:1;stroke:none;stroke-width:3.99996;stroke-linecap:round;stroke-linejoin:round;stroke-dasharray:none;stroke-opacity:1"
         id="circle350"
         cx="827.04736"
         cy="321.50772"
         r="29.500021" /><circle
         style="fill:#583e0c;fill-opacity:1;stroke:#583e0c;stroke-width:2;stroke-linecap:round;stroke-linejoin:round;stroke-dasharray:none;stroke-opacity:1"
         id="circle348"
         cx="827.04736"
         cy="321.50772"
         r="4" /><circle
         style="fill:none;fill-opacity:1;stroke:#431402;stroke-width:3.99996;stroke-linecap:round;stroke-linejoin:round;stroke-dasharray:none;stroke-opacity:1"
         id="path108"
         cx="827.04736"
         cy="321.50772"
         r="29.500021" /><circle
         style="fill:url(#radialGradient350);fill-opacity:1;stroke:none;stroke-width:3.99996;stroke-linecap:round;stroke-linejoin:round;stroke-dasharray:none;stroke-opacity:1"
         id="circle349"
         cx="893.6167"
         cy="321.50772"
         r="29.500021" /><circle
         style="fill:none;fill-opacity:1;stroke:#431402;stroke-width:3.99996;stroke-linecap:round;stroke-linejoin:round;stroke-dasharray:none;stroke-opacity:1"
         id="circle108"
         cx="893.6167"
         cy="321.50772"
         r="29.500021" /><circle
         style="fill:#583e0c;fill-opacity:1;stroke:#583e0c;stroke-width:2;stroke-linecap:round;stroke-linejoin:round;stroke-dasharray:none;stroke-opacity:1"
         id="circle347"
         cx="893.6167"
         cy="321.50772"
         r="4" /></g><g
       id="g463"
       transform="matrix(2.0429083,0,0,2.0429083,-800.17236,-657.73111)"><path
         id="path423"
         style="opacity:1;fill:none;fill-opacity:1;stroke:#3e1202;stroke-width:1.99937;stroke-linecap:round;stroke-linejoin:round;stroke-dasharray:none;stroke-opacity:1"
         d="m 797.27913,633.42 c -3.2411,0.0593 -5.91836,-2.51658 -5.98423,-5.75755 l 4.90803,-4.26102 h 1.93868 l 4.90725,4.04609 c 0.0527,3.24121 -2.52864,5.91321 -5.76973,5.97248 z" /><g
         id="g452"
         style="display:inline"><path
           style="opacity:1;fill:none;fill-opacity:1;stroke:#3e1202;stroke-width:2;stroke-linecap:round;stroke-linejoin:round;stroke-dasharray:none;stroke-opacity:1"
           d="m 765.00261,612.26275 h 94.98081 v 6.94525 h -94.98081 z"
           id="path424" /><path
           style="opacity:1;fill:none;fill-opacity:1;stroke:#3e1202;stroke-width:1.99937;stroke-linecap:round;stroke-linejoin:round;stroke-dasharray:none;stroke-opacity:1"
           d="m 765.00261,619.208 v 4.19343 h 94.98081 V 619.208 Z"
           id="path425" /><g
           id="g427"><path
             style="opacity:1;fill:none;fill-opacity:1;stroke:#3e1202;stroke-width:2;stroke-linecap:round;stroke-linejoin:round;stroke-dasharray:none;stroke-opacity:1"
             d="m 766.8333,623.40143 14.89051,10.35611 14.47912,-10.35611 z"
             id="path426" /><path
             style="opacity:1;fill:none;fill-opacity:1;stroke:#3e1202;stroke-width:1;stroke-linecap:round;stroke-linejoin:round;stroke-dasharray:none;stroke-opacity:1"
             d="m 772.6148,623.40143 9.1223,4.30213 9.30369,-4.30213 z"
             id="path427" /></g><g
           id="g429"
           transform="translate(62.61662)"><path
             style="opacity:1;fill:none;fill-opacity:1;stroke:#3e1202;stroke-width:2;stroke-linecap:round;stroke-linejoin:round;stroke-dasharray:none;stroke-opacity:1"
             d="m 766.8333,623.40143 14.89051,10.35611 14.47912,-10.35611 z"
             id="path428" /><path
             style="opacity:1;fill:none;fill-opacity:1;stroke:#3e1202;stroke-width:1;stroke-linecap:round;stroke-linejoin:round;stroke-dasharray:none;stroke-opacity:1"
             d="m 772.6148,623.40143 9.1223,4.30213 9.30369,-4.30213 z"
             id="path429" /></g><g
           id="g431"
           transform="translate(93.92493)" /><g
           id="g433"
           transform="translate(125.23324)" /><g
           id="g435"
           transform="translate(156.54155)" /><g
           id="g437"
           transform="translate(31.36718,-0.02919715)"><path
             id="path436"
             style="opacity:1;fill:none;stroke:#3e1202;stroke-width:2;stroke-linecap:round;stroke-linejoin:round;stroke-dasharray:none"
             d="m 802.98999,627.47672 c 0.0527,3.24121 -2.52864,5.91321 -5.76973,5.97248 -3.2411,0.0593 -5.91836,-2.51658 -5.98423,-5.75755" /></g><g
           id="g439"
           transform="translate(62.67549,-0.02919715)"><path
             id="path438"
             style="opacity:1;fill:none;stroke:#3e1202;stroke-width:2;stroke-linecap:round;stroke-linejoin:round;stroke-dasharray:none"
             d="m 797.22026,633.4492 c -3.2411,0.0593 -5.91836,-2.51658 -5.98423,-5.75755" /></g><g
           id="g441"
           transform="translate(93.9838,-0.02919715)" /><g
           id="g443"
           transform="translate(125.29211,-0.02919715)" /><g
           id="g445"
           style="display:inline"><path
             id="path444"
             style="opacity:1;fill:none;stroke:#3e1202;stroke-width:2;stroke-linecap:round;stroke-linejoin:round;stroke-dasharray:none"
             d="m 802.98999,627.47672 c 0.0527,3.24121 -2.52864,5.91321 -5.76973,5.97248 -3.2411,0.0593 -5.91836,-2.51658 -5.98423,-5.75755"
             transform="translate(0.05887042,-0.02919715)" /></g><g
           id="g447"
           transform="translate(156.87809,-0.02919715)" /><g
           id="g449"
           transform="translate(-31.21765,-0.02919715)"><path
             id="path448"
             style="opacity:1;fill:none;stroke:#3e1202;stroke-width:2;stroke-linecap:round;stroke-linejoin:round;stroke-dasharray:none"
             d="m 802.98999,627.47672 c 0.0527,3.24121 -2.52864,5.91321 -5.76973,5.97248" /></g><g
           id="g451"
           transform="translate(31.30831)"
           style="stroke-width:1;stroke-dasharray:none"><path
             style="opacity:1;fill:none;fill-opacity:1;stroke:#3e1202;stroke-width:2;stroke-linecap:round;stroke-linejoin:round;stroke-dasharray:none;stroke-opacity:1"
             d="m 766.8333,623.40143 14.89051,10.35611 14.47912,-10.35611 z"
             id="path450" /><path
             style="opacity:1;fill:none;fill-opacity:1;stroke:#3e1202;stroke-width:1;stroke-linecap:round;stroke-linejoin:round;stroke-dasharray:none;stroke-opacity:1"
             d="m 772.6148,623.40143 9.1223,4.30213 9.30369,-4.30213 z"
             id="path451" /></g></g><g
         id="g456"
         style="display:inline"><path
           id="path456"
           style="fill:#722f10;fill-opacity:1;stroke:#3e1202;stroke-width:2;stroke-linecap:round;stroke-linejoin:round;stroke-dasharray:none;stroke-opacity:1"
           d="m 803.04886,627.44752 c 0.0527,3.24121 -2.52864,5.91321 -5.76973,5.97248 -3.2411,0.0593 -5.91836,-2.51658 -5.98423,-5.75755 l -0.0692,-0.70111 1.35742,-0.97088 3.61978,-2.58903 h 1.93868 l 3.72263,2.58903 1.16332,0.80907 z" /></g></g><path
       style="opacity:1;fill:none;fill-opacity:1;stroke:#431402;stroke-width:2;stroke-linecap:round;stroke-linejoin:round;stroke-dasharray:none;stroke-opacity:1"
       d="m 763.615,246.30391 96.71706,23.4771 97.20403,-23.4771"
       id="path516" /></g></svg>
