<?xml version="1.0" encoding="UTF-8" standalone="no"?>
<!-- Created with Inkscape (http://www.inkscape.org/) -->

<svg
   width="228.63184"
   height="162.22791"
   viewBox="0 0 228.63184 162.22791"
   version="1.1"
   id="svg1"
   xml:space="preserve"
   xmlns="http://www.w3.org/2000/svg"
   xmlns:svg="http://www.w3.org/2000/svg"><defs
     id="defs1" /><g
     id="g728"
     style="display:inline"
     transform="translate(-846.13538,-427.41119)"><g
       id="g730"
       transform="matrix(1.2592619,0,0,1.2592619,-256.80779,-152.87093)"><path
         style="fill:#272727;fill-opacity:1;stroke:#000000;stroke-width:1;stroke-linejoin:round;stroke-dasharray:none;stroke-opacity:1"
         d="m 1039.4255,472.14103 4.9189,0.22604 c 0,0 1.6281,4.44791 1.8233,6.78007 0.2358,2.81614 -0.1158,5.69975 -0.8098,8.43921 -0.3874,1.52931 -1.8454,4.35826 -1.8454,4.35826 l -6.3044,-0.1914 -0.1784,-1.70759 c -2.7039,-0.0374 -0.6884,0.0994 -3.3806,-0.12891 l 0.7129,-4.63132 0.1425,-7.04418 -0.7128,-4.15191 c 2.4519,-0.0953 -0.2544,-0.21697 2.1987,-0.25948 l 2.4909,-0.0399 z"
         id="path362" /><path
         style="fill:#272727;fill-opacity:1;stroke:#000000;stroke-width:1;stroke-linejoin:round;stroke-dasharray:none;stroke-opacity:1"
         d="m 914.4646,472.14103 -4.91889,0.22604 c 0,0 -1.62812,4.44791 -1.82337,6.78007 -0.23576,2.81614 0.11588,5.69975 0.80983,8.43921 0.3874,1.52931 1.84536,4.35826 1.84536,4.35826 l 6.30449,-0.1914 0.17836,-1.70759 c 2.70393,-0.0374 0.68839,0.0994 3.38056,-0.12891 l -0.71282,-4.63132 -0.14253,-7.04418 0.71278,-4.15191 c -2.45192,-0.0953 0.25446,-0.21697 -2.19873,-0.25948 l -2.49083,-0.0399 z"
         id="path363" /><path
         style="fill:#8e8e8e;fill-opacity:1;stroke:#000000;stroke-width:1;stroke-linejoin:round;stroke-dasharray:none;stroke-opacity:1"
         d="m 906.88047,480.34474 c 0,0 -2.32267,0.59684 -3.51177,0.70235 -1.26992,0.11267 -2.55014,-0.0248 -3.82394,-0.078 -2.05735,-0.0861 -4.10755,-0.30929 -6.16511,-0.3902 -1.68975,-0.0664 -3.42969,-0.47887 -5.07257,-0.0781 -1.49255,0.3641 -2.90531,1.16949 -4.05805,2.1851 -1.34322,1.18344 -2.44578,2.71248 -3.12158,4.37021 -1.15275,2.82769 -0.67636,6.08707 -1.40471,9.05257 -0.65535,2.66826 -1.94019,5.15055 -2.65335,7.80395 -0.27543,1.02476 -0.91145,2.10004 -0.62431,3.12158 0.24907,0.8861 1.02978,1.65986 1.87295,2.02902 0.76253,0.33386 1.74403,0.35436 2.49726,0 1.77212,-0.83369 2.84244,-2.7887 3.74589,-4.52629 1.54295,-2.96752 2.17189,-6.36703 2.65334,-9.67688 0.35206,-2.42032 -0.45582,-4.96771 0.15609,-7.33572 0.27947,-1.08153 0.6045,-2.38816 1.56078,-2.9655 1.73701,-1.04869 4.05858,-0.0461 6.08708,0 2.29093,0.052 4.57836,0.41713 6.86748,0.31217 1.52144,-0.0698 3.05395,-0.23456 4.52628,-0.62432 0.54169,-0.1434 0.31198,-0.17725 1.5608,-0.62431 l -0.15609,-3.74589 z"
         id="path364" /><path
         style="fill:#343434;fill-opacity:1;stroke:#000000;stroke-width:2;stroke-linejoin:round;stroke-dasharray:none;stroke-opacity:1"
         d="m 907.03658,549.18014 c -1.41955,6.09741 -5.13497,11.46486 -6.86747,17.48084 -1.24265,4.31502 -3.24078,8.80927 -2.49727,13.23768 0.55561,3.30928 1.63893,8.74043 4.99453,8.74043 h 11.23768 48.69663 65.55312 23.0997 c 3.3556,0 4.4389,-5.43115 4.9945,-8.74042 0.7435,-4.42841 -1.0633,-8.98243 -2.4973,-13.23768 -2.0805,-6.17357 -7.0465,-11.19019 -8.7404,-17.48085 -2.6023,-9.66431 -1.5606,-19.96348 -1.8729,-29.96715 -0.1687,-5.40446 1.0872,-10.92461 0,-16.22127 -0.6373,-3.10503 -1.6282,-6.38188 -3.7459,-8.74041 -2.5524,-2.84259 -9.9891,-5.61884 -9.9891,-5.61884 h -26.8455 -33.08874 -21.85105 -23.724 c 0,0 -8.16025,4.66934 -11.23769,8.1161 -2.54437,2.84972 -4.65077,6.29344 -5.61884,9.98905 -0.73828,2.81838 0,5.82695 0,8.74042 0,3.95035 -0.0858,7.90163 0,11.85105 0.10408,4.78981 0.71939,9.56926 0.62432,14.35926 -0.0497,2.50543 -0.0561,5.05114 -0.62432,7.49179 z"
         id="path365" /><path
         style="fill:#ffffff;fill-opacity:1;stroke:#e7e7e7;stroke-width:2;stroke-linejoin:round;stroke-dasharray:none;stroke-opacity:1"
         d="m 921.70799,493.65142 c 0,0 -1.28311,-8.72078 -1.24864,-13.11063 0.0148,-1.88441 0.29099,-3.76408 0.62432,-5.61884 0.45532,-2.53353 1.03492,-5.0579 1.87294,-7.49179 0.66726,-1.93794 2.49727,-5.61884 2.49727,-5.61884 h 50.56957 51.81815 c 0,0 2.7889,6.66653 3.746,10.14054 0.6048,2.19523 0.9528,4.45826 1.2486,6.71598 0.3525,2.69036 0.6903,5.40355 0.6243,8.11611 -0.056,2.3066 -0.8659,6.86747 -0.8659,6.86747 z"
         id="path366" /><path
         style="fill:#151515;fill-opacity:1;stroke:#000000;stroke-width:1;stroke-linejoin:round;stroke-dasharray:none;stroke-opacity:1"
         d="m 913.27971,548.39515 -4.68237,10.92553 c 0,0 -2.80942,6.24315 -2.80942,9.67689 0,3.43374 6.55532,5.17964 6.55532,5.17964 l 8.1161,1.68783 h 112.74706 c 0,0 5.3469,-0.72272 7.7615,-1.83507 2.1013,-0.96802 4.6599,-1.9834 5.6032,-4.09593 0.8527,-1.9097 0.01,-4.24954 -0.6243,-6.24315 -0.8309,-2.62046 -4.3702,-5.61885 -4.058,-7.17964 0.3122,-1.56079 -3.4338,-8.42825 -3.4338,-8.42825 l -2,-11.16869 v -8.58434 c 0,0 0.6975,-4.50334 0,-6.58435 -0.7459,-2.22534 -1.8962,-5.61248 -4.2432,-5.61884 l -115.1862,-0.31215 c -2.33828,-0.006 -3.09597,3.68484 -3.74589,5.93099 -0.58112,2.00834 0,6.27218 0,6.27218 v 8.27219 z"
         id="path367" /><g
         id="g423"
         style="fill:#4c4c4c;fill-opacity:1"
         transform="translate(27.711073,-2)"><g
           id="g376"
           transform="matrix(0.51131826,0,0,0.51131826,415.56423,278.66863)"
           style="fill:#4c4c4c;fill-opacity:1;stroke-width:1.95573;stroke-dasharray:none"><path
             style="fill:#4c4c4c;fill-opacity:1;stroke:#000000;stroke-width:1.95573;stroke-linejoin:round;stroke-dasharray:none;stroke-opacity:1"
             d="m 976.89805,549.17555 v 9.36473 h 4.52629 v -9.36473 z"
             id="path368" /><ellipse
             style="fill:#4c4c4c;fill-opacity:1;stroke:#000000;stroke-width:1.95573;stroke-linejoin:round;stroke-dasharray:none;stroke-opacity:1"
             id="ellipse376"
             cx="979.16119"
             cy="546.21002"
             rx="9.2866964"
             ry="3.2776575" /></g><g
           id="g377"
           transform="matrix(0.51131826,0,0,0.51131826,427.94157,278.66863)"
           style="fill:#4c4c4c;fill-opacity:1;stroke-width:1.95573;stroke-dasharray:none"><path
             style="fill:#4c4c4c;fill-opacity:1;stroke:#000000;stroke-width:1.95573;stroke-linejoin:round;stroke-dasharray:none;stroke-opacity:1"
             d="m 976.89805,549.17555 v 9.36473 h 4.52629 v -9.36473 z"
             id="path376" /><ellipse
             style="fill:#4c4c4c;fill-opacity:1;stroke:#000000;stroke-width:1.95573;stroke-linejoin:round;stroke-dasharray:none;stroke-opacity:1"
             id="ellipse377"
             cx="979.16119"
             cy="546.21002"
             rx="9.2866964"
             ry="3.2776575" /></g><g
           id="g379"
           transform="matrix(0.51131826,0,0,0.51131826,440.3189,278.66863)"
           style="fill:#4c4c4c;fill-opacity:1;stroke-width:1.95573;stroke-dasharray:none"><path
             style="fill:#4c4c4c;fill-opacity:1;stroke:#000000;stroke-width:1.95573;stroke-linejoin:round;stroke-dasharray:none;stroke-opacity:1"
             d="m 976.89805,549.17555 v 9.36473 h 4.52629 v -9.36473 z"
             id="path377" /><ellipse
             style="fill:#4c4c4c;fill-opacity:1;stroke:#000000;stroke-width:1.95573;stroke-linejoin:round;stroke-dasharray:none;stroke-opacity:1"
             id="ellipse379"
             cx="979.16119"
             cy="546.21002"
             rx="9.2866964"
             ry="3.2776575" /></g><g
           id="g380"
           transform="matrix(0.51131826,0,0,0.51131826,452.69624,278.66863)"
           style="fill:#4c4c4c;fill-opacity:1;stroke-width:1.95573;stroke-dasharray:none"><path
             style="fill:#4c4c4c;fill-opacity:1;stroke:#000000;stroke-width:1.95573;stroke-linejoin:round;stroke-dasharray:none;stroke-opacity:1"
             d="m 976.89805,549.17555 v 9.36473 h 4.52629 v -9.36473 z"
             id="path379" /><ellipse
             style="fill:#4c4c4c;fill-opacity:1;stroke:#000000;stroke-width:1.95573;stroke-linejoin:round;stroke-dasharray:none;stroke-opacity:1"
             id="ellipse380"
             cx="979.16119"
             cy="546.21002"
             rx="9.2866964"
             ry="3.2776575" /></g><g
           id="g397"
           transform="matrix(0.51131826,0,0,0.51131826,465.07357,278.66863)"
           style="fill:#4c4c4c;fill-opacity:1;stroke-width:1.95573;stroke-dasharray:none"><path
             style="fill:#4c4c4c;fill-opacity:1;stroke:#000000;stroke-width:1.95573;stroke-linejoin:round;stroke-dasharray:none;stroke-opacity:1"
             d="m 976.89805,549.17555 v 9.36473 h 4.52629 v -9.36473 z"
             id="path380" /><ellipse
             style="fill:#4c4c4c;fill-opacity:1;stroke:#000000;stroke-width:1.95573;stroke-linejoin:round;stroke-dasharray:none;stroke-opacity:1"
             id="ellipse397"
             cx="979.16119"
             cy="546.21002"
             rx="9.2866964"
             ry="3.2776575" /></g><g
           id="g420"
           transform="matrix(0.51131826,0,0,0.51131826,477.45091,278.66863)"
           style="fill:#4c4c4c;fill-opacity:1;stroke-width:1.95573;stroke-dasharray:none"><path
             style="fill:#4c4c4c;fill-opacity:1;stroke:#000000;stroke-width:1.95573;stroke-linejoin:round;stroke-dasharray:none;stroke-opacity:1"
             d="m 976.89805,549.17555 v 9.36473 h 4.52629 v -9.36473 z"
             id="path397" /><ellipse
             style="fill:#4c4c4c;fill-opacity:1;stroke:#000000;stroke-width:1.95573;stroke-linejoin:round;stroke-dasharray:none;stroke-opacity:1"
             id="ellipse420"
             cx="979.16119"
             cy="546.21002"
             rx="9.2866964"
             ry="3.2776575" /></g><g
           id="g421"
           transform="matrix(0.51131826,0,0,0.51131826,489.82824,278.66863)"
           style="fill:#4c4c4c;fill-opacity:1;stroke-width:1.95573;stroke-dasharray:none"><path
             style="fill:#4c4c4c;fill-opacity:1;stroke:#000000;stroke-width:1.95573;stroke-linejoin:round;stroke-dasharray:none;stroke-opacity:1"
             d="m 976.89805,549.17555 v 9.36473 h 4.52629 v -9.36473 z"
             id="path420" /><ellipse
             style="fill:#4c4c4c;fill-opacity:1;stroke:#000000;stroke-width:1.95573;stroke-linejoin:round;stroke-dasharray:none;stroke-opacity:1"
             id="ellipse421"
             cx="979.16119"
             cy="546.21002"
             rx="9.2866964"
             ry="3.2776575" /></g><g
           id="g422"
           transform="matrix(0.51131826,0,0,0.51131826,403.1869,278.66863)"
           style="fill:#4c4c4c;fill-opacity:1;stroke-width:1.95573;stroke-dasharray:none"><path
             style="fill:#4c4c4c;fill-opacity:1;stroke:#000000;stroke-width:1.95573;stroke-linejoin:round;stroke-dasharray:none;stroke-opacity:1"
             d="m 976.89805,549.17555 v 9.36473 h 4.52629 v -9.36473 z"
             id="path421" /><ellipse
             style="fill:#4c4c4c;fill-opacity:1;stroke:#000000;stroke-width:1.95573;stroke-linejoin:round;stroke-dasharray:none;stroke-opacity:1"
             id="ellipse422"
             cx="979.16119"
             cy="546.21002"
             rx="9.2866964"
             ry="3.2776575" /></g></g><g
         id="g424"
         transform="matrix(0.68726153,0,0,0.68726153,367.65573,182.83361)"
         style="fill:#4c4c4c;fill-opacity:1;stroke-width:1.95573;stroke-dasharray:none"><path
           style="fill:#4c4c4c;fill-opacity:1;stroke:#000000;stroke-width:1.95573;stroke-linejoin:round;stroke-dasharray:none;stroke-opacity:1"
           d="m 976.89805,549.17555 v 9.36473 h 4.52629 v -9.36473 z"
           id="path423" /><ellipse
           style="fill:#4c4c4c;fill-opacity:1;stroke:#000000;stroke-width:1.95573;stroke-linejoin:round;stroke-dasharray:none;stroke-opacity:1"
           id="ellipse423"
           cx="979.16119"
           cy="546.21002"
           rx="9.2866964"
           ry="3.2776575" /></g><g
         id="g425"
         transform="matrix(0.68726824,0,0,0.68726807,363.10428,163.87778)"
         style="fill:#4c4c4c;fill-opacity:1;stroke-width:1.95573;stroke-dasharray:none"><path
           style="fill:#4c4c4c;fill-opacity:1;stroke:#000000;stroke-width:1.95573;stroke-linejoin:round;stroke-dasharray:none;stroke-opacity:1"
           d="m 976.44384,556.89704 v 9.36473 h 4.52629 v -9.36473 z"
           id="path424" /><ellipse
           style="fill:#4c4c4c;fill-opacity:1;stroke:#000000;stroke-width:1.95573;stroke-linejoin:round;stroke-dasharray:none;stroke-opacity:1"
           id="ellipse424"
           cx="978.70697"
           cy="553.93152"
           rx="9.2866964"
           ry="3.2776575" /></g><g
         id="g426"
         transform="matrix(0.68726153,0,0,0.68726153,362.09514,151.79351)"
         style="fill:#4c4c4c;fill-opacity:1;stroke-width:1.95573;stroke-dasharray:none"><path
           style="fill:#4c4c4c;fill-opacity:1;stroke:#000000;stroke-width:1.95573;stroke-linejoin:round;stroke-dasharray:none;stroke-opacity:1"
           d="m 973.71861,553.2634 v 9.36473 h 4.52629 v -9.36473 z"
           id="path425" /><ellipse
           style="fill:#4c4c4c;fill-opacity:1;stroke:#000000;stroke-width:1.95573;stroke-linejoin:round;stroke-dasharray:none;stroke-opacity:1"
           id="ellipse425"
           cx="975.98175"
           cy="550.29785"
           rx="9.2866964"
           ry="3.2776575" /></g><g
         id="g427"
         transform="matrix(-0.68726153,0,0,0.68726153,1584.1971,182.83361)"
         style="fill:#4c4c4c;fill-opacity:1;stroke-width:1.95573;stroke-dasharray:none"><path
           style="fill:#4c4c4c;fill-opacity:1;stroke:#000000;stroke-width:1.95573;stroke-linejoin:round;stroke-dasharray:none;stroke-opacity:1"
           d="m 976.89805,549.17555 v 9.36473 h 4.52629 v -9.36473 z"
           id="path426" /><ellipse
           style="fill:#4c4c4c;fill-opacity:1;stroke:#000000;stroke-width:1.95573;stroke-linejoin:round;stroke-dasharray:none;stroke-opacity:1"
           id="ellipse426"
           cx="979.16119"
           cy="546.21002"
           rx="9.2866964"
           ry="3.2776575" /></g><g
         id="g428"
         transform="matrix(-0.68726824,0,0,0.68726807,1588.1256,169.18451)"
         style="fill:#4c4c4c;fill-opacity:1;stroke-width:1.95573;stroke-dasharray:none"><path
           style="fill:#4c4c4c;fill-opacity:1;stroke:#000000;stroke-width:1.95573;stroke-linejoin:round;stroke-dasharray:none;stroke-opacity:1"
           d="m 976.89805,549.17555 v 9.36473 h 4.52629 v -9.36473 z"
           id="path427" /><ellipse
           style="fill:#4c4c4c;fill-opacity:1;stroke:#000000;stroke-width:1.95573;stroke-linejoin:round;stroke-dasharray:none;stroke-opacity:1"
           id="ellipse427"
           cx="979.16119"
           cy="546.21002"
           rx="9.2866964"
           ry="3.2776575" /></g><path
         style="fill:#8e8e8e;fill-opacity:1;stroke:#000000;stroke-width:1;stroke-linejoin:round;stroke-dasharray:none;stroke-opacity:1"
         d="m 916.90951,478.60979 c 2.1851,0.31216 120.97919,0 120.97919,0 v 4.05805 H 916.90951 c -1.72979,-1.35268 -0.66157,-2.70537 0,-4.05805 z"
         id="path428" /><g
         id="g429"
         transform="matrix(-0.68726153,0,0,0.68726153,1589.7578,154.60293)"
         style="fill:#4c4c4c;fill-opacity:1;stroke-width:1.95573;stroke-dasharray:none"><path
           style="fill:#4c4c4c;fill-opacity:1;stroke:#000000;stroke-width:1.95573;stroke-linejoin:round;stroke-dasharray:none;stroke-opacity:1"
           d="m 976.89805,549.17555 v 9.36473 h 4.52629 v -9.36473 z"
           id="path429" /><ellipse
           style="fill:#4c4c4c;fill-opacity:1;stroke:#000000;stroke-width:1.95573;stroke-linejoin:round;stroke-dasharray:none;stroke-opacity:1"
           id="ellipse429"
           cx="979.16119"
           cy="546.21002"
           rx="9.2866964"
           ry="3.2776575" /></g><g
         id="g472"
         transform="translate(27.711073,2)"><g
           id="g430"
           transform="matrix(0.51131826,0,0,0.51131826,409.51707,266.66863)"
           style="fill:#4c4c4c;fill-opacity:1;stroke-width:1.95573;stroke-dasharray:none"><path
             style="fill:#4c4c4c;fill-opacity:1;stroke:#000000;stroke-width:1.95573;stroke-linejoin:round;stroke-dasharray:none;stroke-opacity:1"
             d="m 976.89805,549.17555 v 9.36473 h 4.52629 v -9.36473 z"
             id="path430" /><ellipse
             style="fill:#4c4c4c;fill-opacity:1;stroke:#000000;stroke-width:1.95573;stroke-linejoin:round;stroke-dasharray:none;stroke-opacity:1"
             id="ellipse430"
             cx="979.16119"
             cy="546.21002"
             rx="9.2866964"
             ry="3.2776575" /></g><g
           id="g431"
           transform="matrix(0.51131826,0,0,0.51131826,421.84723,266.66863)"
           style="fill:#4c4c4c;fill-opacity:1;stroke-width:1.95573;stroke-dasharray:none"><path
             style="fill:#4c4c4c;fill-opacity:1;stroke:#000000;stroke-width:1.95573;stroke-linejoin:round;stroke-dasharray:none;stroke-opacity:1"
             d="m 976.89805,549.17555 v 9.36473 h 4.52629 v -9.36473 z"
             id="path431" /><ellipse
             style="fill:#4c4c4c;fill-opacity:1;stroke:#000000;stroke-width:1.95573;stroke-linejoin:round;stroke-dasharray:none;stroke-opacity:1"
             id="ellipse431"
             cx="979.16119"
             cy="546.21002"
             rx="9.2866964"
             ry="3.2776575" /></g><g
           id="g432"
           transform="matrix(0.51131826,0,0,0.51131826,434.1774,266.66863)"
           style="fill:#4c4c4c;fill-opacity:1;stroke-width:1.95573;stroke-dasharray:none"><path
             style="fill:#4c4c4c;fill-opacity:1;stroke:#000000;stroke-width:1.95573;stroke-linejoin:round;stroke-dasharray:none;stroke-opacity:1"
             d="m 976.89805,549.17555 v 9.36473 h 4.52629 v -9.36473 z"
             id="path432" /><ellipse
             style="fill:#4c4c4c;fill-opacity:1;stroke:#000000;stroke-width:1.95573;stroke-linejoin:round;stroke-dasharray:none;stroke-opacity:1"
             id="ellipse432"
             cx="979.16119"
             cy="546.21002"
             rx="9.2866964"
             ry="3.2776575" /></g><g
           id="g433"
           transform="matrix(0.51131826,0,0,0.51131826,446.50757,266.66863)"
           style="fill:#4c4c4c;fill-opacity:1;stroke-width:1.95573;stroke-dasharray:none"><path
             style="fill:#4c4c4c;fill-opacity:1;stroke:#000000;stroke-width:1.95573;stroke-linejoin:round;stroke-dasharray:none;stroke-opacity:1"
             d="m 976.89805,549.17555 v 9.36473 h 4.52629 v -9.36473 z"
             id="path433" /><ellipse
             style="fill:#4c4c4c;fill-opacity:1;stroke:#000000;stroke-width:1.95573;stroke-linejoin:round;stroke-dasharray:none;stroke-opacity:1"
             id="ellipse433"
             cx="979.16119"
             cy="546.21002"
             rx="9.2866964"
             ry="3.2776575" /></g><g
           id="g434"
           transform="matrix(0.51131826,0,0,0.51131826,458.83774,266.66863)"
           style="fill:#4c4c4c;fill-opacity:1;stroke-width:1.95573;stroke-dasharray:none"><path
             style="fill:#4c4c4c;fill-opacity:1;stroke:#000000;stroke-width:1.95573;stroke-linejoin:round;stroke-dasharray:none;stroke-opacity:1"
             d="m 976.89805,549.17555 v 9.36473 h 4.52629 v -9.36473 z"
             id="path434" /><ellipse
             style="fill:#4c4c4c;fill-opacity:1;stroke:#000000;stroke-width:1.95573;stroke-linejoin:round;stroke-dasharray:none;stroke-opacity:1"
             id="ellipse434"
             cx="979.16119"
             cy="546.21002"
             rx="9.2866964"
             ry="3.2776575" /></g><g
           id="g435"
           transform="matrix(0.51131826,0,0,0.51131826,471.1679,266.66863)"
           style="fill:#4c4c4c;fill-opacity:1;stroke-width:1.95573;stroke-dasharray:none"><path
             style="fill:#4c4c4c;fill-opacity:1;stroke:#000000;stroke-width:1.95573;stroke-linejoin:round;stroke-dasharray:none;stroke-opacity:1"
             d="m 976.89805,549.17555 v 9.36473 h 4.52629 v -9.36473 z"
             id="path435" /><ellipse
             style="fill:#4c4c4c;fill-opacity:1;stroke:#000000;stroke-width:1.95573;stroke-linejoin:round;stroke-dasharray:none;stroke-opacity:1"
             id="ellipse435"
             cx="979.16119"
             cy="546.21002"
             rx="9.2866964"
             ry="3.2776575" /></g><g
           id="g436"
           transform="matrix(0.51131826,0,0,0.51131826,483.49807,266.66863)"
           style="fill:#4c4c4c;fill-opacity:1;stroke-width:1.95573;stroke-dasharray:none"><path
             style="fill:#4c4c4c;fill-opacity:1;stroke:#000000;stroke-width:1.95573;stroke-linejoin:round;stroke-dasharray:none;stroke-opacity:1"
             d="m 976.89805,549.17555 v 9.36473 h 4.52629 v -9.36473 z"
             id="path436" /><ellipse
             style="fill:#4c4c4c;fill-opacity:1;stroke:#000000;stroke-width:1.95573;stroke-linejoin:round;stroke-dasharray:none;stroke-opacity:1"
             id="ellipse436"
             cx="979.16119"
             cy="546.21002"
             rx="9.2866964"
             ry="3.2776575" /></g><g
           id="g437"
           transform="matrix(0.51131826,0,0,0.51131826,495.82824,266.66863)"
           style="fill:#4c4c4c;fill-opacity:1;stroke-width:1.95573;stroke-dasharray:none"><path
             style="fill:#4c4c4c;fill-opacity:1;stroke:#000000;stroke-width:1.95573;stroke-linejoin:round;stroke-dasharray:none;stroke-opacity:1"
             d="m 976.89805,549.17555 v 9.36473 h 4.52629 v -9.36473 z"
             id="path437" /><ellipse
             style="fill:#4c4c4c;fill-opacity:1;stroke:#000000;stroke-width:1.95573;stroke-linejoin:round;stroke-dasharray:none;stroke-opacity:1"
             id="ellipse437"
             cx="979.16119"
             cy="546.21002"
             rx="9.2866964"
             ry="3.2776575" /></g><g
           id="g471"
           transform="matrix(0.51131826,0,0,0.51131826,397.1869,266.66863)"
           style="fill:#4c4c4c;fill-opacity:1;stroke-width:1.95573;stroke-dasharray:none"><path
             style="fill:#4c4c4c;fill-opacity:1;stroke:#000000;stroke-width:1.95573;stroke-linejoin:round;stroke-dasharray:none;stroke-opacity:1"
             d="m 976.89805,549.17555 v 9.36473 h 4.52629 v -9.36473 z"
             id="path438" /><ellipse
             style="fill:#4c4c4c;fill-opacity:1;stroke:#000000;stroke-width:1.95573;stroke-linejoin:round;stroke-dasharray:none;stroke-opacity:1"
             id="ellipse467"
             cx="979.16119"
             cy="546.21002"
             rx="9.2866964"
             ry="3.2776575" /></g></g><g
         id="g489"
         style="fill:#424242;fill-opacity:1"
         transform="translate(27.997091,-0.6388)"><path
           id="path487"
           style="fill:#424242;fill-opacity:1;stroke:#000000;stroke-width:1;stroke-linejoin:round;stroke-dasharray:none;stroke-opacity:1"
           d="m 890.27424,573.79604 1.4707,2.7078 h 114.11686 l 1.7838,-2.70782 v 2e-5 c 0.5502,-2.70537 -0.563,-5.41073 -4.9945,-8.1161 H 894.64445 c -5.5403,2.70537 -4.38439,5.41073 -4.37021,8.1161 z" /></g><g
         id="g716"
         transform="translate(29.711073,-6)"><g
           id="g510"
           transform="matrix(0.51131826,0,0,0.51131826,409.51707,266.66863)"
           style="fill:#4c4c4c;fill-opacity:1;stroke-width:1.95573;stroke-dasharray:none"><path
             style="fill:#4c4c4c;fill-opacity:1;stroke:#000000;stroke-width:1.95573;stroke-linejoin:round;stroke-dasharray:none;stroke-opacity:1"
             d="m 976.89805,549.17555 v 9.36473 h 4.52629 v -9.36473 z"
             id="path510" /><ellipse
             style="fill:#4c4c4c;fill-opacity:1;stroke:#000000;stroke-width:1.95573;stroke-linejoin:round;stroke-dasharray:none;stroke-opacity:1"
             id="ellipse510"
             cx="979.16119"
             cy="546.21002"
             rx="9.2866964"
             ry="3.2776575" /></g><g
           id="g511"
           transform="matrix(0.51131826,0,0,0.51131826,421.84723,266.66863)"
           style="fill:#4c4c4c;fill-opacity:1;stroke-width:1.95573;stroke-dasharray:none"><path
             style="fill:#4c4c4c;fill-opacity:1;stroke:#000000;stroke-width:1.95573;stroke-linejoin:round;stroke-dasharray:none;stroke-opacity:1"
             d="m 976.89805,549.17555 v 9.36473 h 4.52629 v -9.36473 z"
             id="path511" /><ellipse
             style="fill:#4c4c4c;fill-opacity:1;stroke:#000000;stroke-width:1.95573;stroke-linejoin:round;stroke-dasharray:none;stroke-opacity:1"
             id="ellipse511"
             cx="979.16119"
             cy="546.21002"
             rx="9.2866964"
             ry="3.2776575" /></g><g
           id="g512"
           transform="matrix(0.51131826,0,0,0.51131826,434.1774,266.66863)"
           style="fill:#4c4c4c;fill-opacity:1;stroke-width:1.95573;stroke-dasharray:none"><path
             style="fill:#4c4c4c;fill-opacity:1;stroke:#000000;stroke-width:1.95573;stroke-linejoin:round;stroke-dasharray:none;stroke-opacity:1"
             d="m 976.89805,549.17555 v 9.36473 h 4.52629 v -9.36473 z"
             id="path512" /><ellipse
             style="fill:#4c4c4c;fill-opacity:1;stroke:#000000;stroke-width:1.95573;stroke-linejoin:round;stroke-dasharray:none;stroke-opacity:1"
             id="ellipse512"
             cx="979.16119"
             cy="546.21002"
             rx="9.2866964"
             ry="3.2776575" /></g><g
           id="g513"
           transform="matrix(0.51131826,0,0,0.51131826,446.50757,266.66863)"
           style="fill:#4c4c4c;fill-opacity:1;stroke-width:1.95573;stroke-dasharray:none"><path
             style="fill:#4c4c4c;fill-opacity:1;stroke:#000000;stroke-width:1.95573;stroke-linejoin:round;stroke-dasharray:none;stroke-opacity:1"
             d="m 976.89805,549.17555 v 9.36473 h 4.52629 v -9.36473 z"
             id="path513" /><ellipse
             style="fill:#4c4c4c;fill-opacity:1;stroke:#000000;stroke-width:1.95573;stroke-linejoin:round;stroke-dasharray:none;stroke-opacity:1"
             id="ellipse513"
             cx="979.16119"
             cy="546.21002"
             rx="9.2866964"
             ry="3.2776575" /></g><g
           id="g514"
           transform="matrix(0.51131826,0,0,0.51131826,458.83774,266.66863)"
           style="fill:#4c4c4c;fill-opacity:1;stroke-width:1.95573;stroke-dasharray:none"><path
             style="fill:#4c4c4c;fill-opacity:1;stroke:#000000;stroke-width:1.95573;stroke-linejoin:round;stroke-dasharray:none;stroke-opacity:1"
             d="m 976.89805,549.17555 v 9.36473 h 4.52629 v -9.36473 z"
             id="path514" /><ellipse
             style="fill:#4c4c4c;fill-opacity:1;stroke:#000000;stroke-width:1.95573;stroke-linejoin:round;stroke-dasharray:none;stroke-opacity:1"
             id="ellipse514"
             cx="979.16119"
             cy="546.21002"
             rx="9.2866964"
             ry="3.2776575" /></g><g
           id="g515"
           transform="matrix(0.51131826,0,0,0.51131826,471.1679,266.66863)"
           style="fill:#4c4c4c;fill-opacity:1;stroke-width:1.95573;stroke-dasharray:none"><path
             style="fill:#4c4c4c;fill-opacity:1;stroke:#000000;stroke-width:1.95573;stroke-linejoin:round;stroke-dasharray:none;stroke-opacity:1"
             d="m 976.89805,549.17555 v 9.36473 h 4.52629 v -9.36473 z"
             id="path515" /><ellipse
             style="fill:#4c4c4c;fill-opacity:1;stroke:#000000;stroke-width:1.95573;stroke-linejoin:round;stroke-dasharray:none;stroke-opacity:1"
             id="ellipse515"
             cx="979.16119"
             cy="546.21002"
             rx="9.2866964"
             ry="3.2776575" /></g><g
           id="g516"
           transform="matrix(0.51131826,0,0,0.51131826,483.49807,266.66863)"
           style="fill:#4c4c4c;fill-opacity:1;stroke-width:1.95573;stroke-dasharray:none"><path
             style="fill:#4c4c4c;fill-opacity:1;stroke:#000000;stroke-width:1.95573;stroke-linejoin:round;stroke-dasharray:none;stroke-opacity:1"
             d="m 976.89805,549.17555 v 9.36473 h 4.52629 v -9.36473 z"
             id="path516" /><ellipse
             style="fill:#4c4c4c;fill-opacity:1;stroke:#000000;stroke-width:1.95573;stroke-linejoin:round;stroke-dasharray:none;stroke-opacity:1"
             id="ellipse516"
             cx="979.16119"
             cy="546.21002"
             rx="9.2866964"
             ry="3.2776575" /></g><g
           id="g714"
           transform="matrix(0.51131826,0,0,0.51131826,495.82824,266.66863)"
           style="fill:#4c4c4c;fill-opacity:1;stroke-width:1.95573;stroke-dasharray:none"><path
             style="fill:#4c4c4c;fill-opacity:1;stroke:#000000;stroke-width:1.95573;stroke-linejoin:round;stroke-dasharray:none;stroke-opacity:1"
             d="m 976.89805,549.17555 v 9.36473 h 4.52629 v -9.36473 z"
             id="path713" /><ellipse
             style="fill:#4c4c4c;fill-opacity:1;stroke:#000000;stroke-width:1.95573;stroke-linejoin:round;stroke-dasharray:none;stroke-opacity:1"
             id="ellipse713"
             cx="979.16119"
             cy="546.21002"
             rx="9.2866964"
             ry="3.2776575" /></g><g
           id="g715"
           transform="matrix(0.51131826,0,0,0.51131826,397.1869,266.66863)"
           style="fill:#4c4c4c;fill-opacity:1;stroke-width:1.95573;stroke-dasharray:none"><path
             style="fill:#4c4c4c;fill-opacity:1;stroke:#000000;stroke-width:1.95573;stroke-linejoin:round;stroke-dasharray:none;stroke-opacity:1"
             d="m 976.89805,549.17555 v 9.36473 h 4.52629 v -9.36473 z"
             id="path714" /><ellipse
             style="fill:#4c4c4c;fill-opacity:1;stroke:#000000;stroke-width:1.95573;stroke-linejoin:round;stroke-dasharray:none;stroke-opacity:1"
             id="ellipse714"
             cx="979.16119"
             cy="546.21002"
             rx="9.2866964"
             ry="3.2776575" /></g></g><g
         id="g725"
         style="fill:#4c4c4c;fill-opacity:1"
         transform="translate(27.711073,-26)"><g
           id="g717"
           transform="matrix(0.51131826,0,0,0.51131826,415.56423,278.66863)"
           style="fill:#4c4c4c;fill-opacity:1;stroke-width:1.95573;stroke-dasharray:none"><path
             style="fill:#4c4c4c;fill-opacity:1;stroke:#000000;stroke-width:1.95573;stroke-linejoin:round;stroke-dasharray:none;stroke-opacity:1"
             d="m 976.89805,549.17555 v 9.36473 h 4.52629 v -9.36473 z"
             id="path716" /><ellipse
             style="fill:#4c4c4c;fill-opacity:1;stroke:#000000;stroke-width:1.95573;stroke-linejoin:round;stroke-dasharray:none;stroke-opacity:1"
             id="ellipse716"
             cx="979.16119"
             cy="546.21002"
             rx="9.2866964"
             ry="3.2776575" /></g><g
           id="g718"
           transform="matrix(0.51131826,0,0,0.51131826,427.94157,278.66863)"
           style="fill:#4c4c4c;fill-opacity:1;stroke-width:1.95573;stroke-dasharray:none"><path
             style="fill:#4c4c4c;fill-opacity:1;stroke:#000000;stroke-width:1.95573;stroke-linejoin:round;stroke-dasharray:none;stroke-opacity:1"
             d="m 976.89805,549.17555 v 9.36473 h 4.52629 v -9.36473 z"
             id="path717" /><ellipse
             style="fill:#4c4c4c;fill-opacity:1;stroke:#000000;stroke-width:1.95573;stroke-linejoin:round;stroke-dasharray:none;stroke-opacity:1"
             id="ellipse717"
             cx="979.16119"
             cy="546.21002"
             rx="9.2866964"
             ry="3.2776575" /></g><g
           id="g719"
           transform="matrix(0.51131826,0,0,0.51131826,440.3189,278.66863)"
           style="fill:#4c4c4c;fill-opacity:1;stroke-width:1.95573;stroke-dasharray:none"><path
             style="fill:#4c4c4c;fill-opacity:1;stroke:#000000;stroke-width:1.95573;stroke-linejoin:round;stroke-dasharray:none;stroke-opacity:1"
             d="m 976.89805,549.17555 v 9.36473 h 4.52629 v -9.36473 z"
             id="path718" /><ellipse
             style="fill:#4c4c4c;fill-opacity:1;stroke:#000000;stroke-width:1.95573;stroke-linejoin:round;stroke-dasharray:none;stroke-opacity:1"
             id="ellipse718"
             cx="979.16119"
             cy="546.21002"
             rx="9.2866964"
             ry="3.2776575" /></g><g
           id="g720"
           transform="matrix(0.51131826,0,0,0.51131826,452.69624,278.66863)"
           style="fill:#4c4c4c;fill-opacity:1;stroke-width:1.95573;stroke-dasharray:none"><path
             style="fill:#4c4c4c;fill-opacity:1;stroke:#000000;stroke-width:1.95573;stroke-linejoin:round;stroke-dasharray:none;stroke-opacity:1"
             d="m 976.89805,549.17555 v 9.36473 h 4.52629 v -9.36473 z"
             id="path719" /><ellipse
             style="fill:#4c4c4c;fill-opacity:1;stroke:#000000;stroke-width:1.95573;stroke-linejoin:round;stroke-dasharray:none;stroke-opacity:1"
             id="ellipse719"
             cx="979.16119"
             cy="546.21002"
             rx="9.2866964"
             ry="3.2776575" /></g><g
           id="g721"
           transform="matrix(0.51131826,0,0,0.51131826,465.07357,278.66863)"
           style="fill:#4c4c4c;fill-opacity:1;stroke-width:1.95573;stroke-dasharray:none"><path
             style="fill:#4c4c4c;fill-opacity:1;stroke:#000000;stroke-width:1.95573;stroke-linejoin:round;stroke-dasharray:none;stroke-opacity:1"
             d="m 976.89805,549.17555 v 9.36473 h 4.52629 v -9.36473 z"
             id="path720" /><ellipse
             style="fill:#4c4c4c;fill-opacity:1;stroke:#000000;stroke-width:1.95573;stroke-linejoin:round;stroke-dasharray:none;stroke-opacity:1"
             id="ellipse720"
             cx="979.16119"
             cy="546.21002"
             rx="9.2866964"
             ry="3.2776575" /></g><g
           id="g722"
           transform="matrix(0.51131826,0,0,0.51131826,477.45091,278.66863)"
           style="fill:#4c4c4c;fill-opacity:1;stroke-width:1.95573;stroke-dasharray:none"><path
             style="fill:#4c4c4c;fill-opacity:1;stroke:#000000;stroke-width:1.95573;stroke-linejoin:round;stroke-dasharray:none;stroke-opacity:1"
             d="m 976.89805,549.17555 v 9.36473 h 4.52629 v -9.36473 z"
             id="path721" /><ellipse
             style="fill:#4c4c4c;fill-opacity:1;stroke:#000000;stroke-width:1.95573;stroke-linejoin:round;stroke-dasharray:none;stroke-opacity:1"
             id="ellipse721"
             cx="979.16119"
             cy="546.21002"
             rx="9.2866964"
             ry="3.2776575" /></g><g
           id="g723"
           transform="matrix(0.51131826,0,0,0.51131826,489.82824,278.66863)"
           style="fill:#4c4c4c;fill-opacity:1;stroke-width:1.95573;stroke-dasharray:none"><path
             style="fill:#4c4c4c;fill-opacity:1;stroke:#000000;stroke-width:1.95573;stroke-linejoin:round;stroke-dasharray:none;stroke-opacity:1"
             d="m 976.89805,549.17555 v 9.36473 h 4.52629 v -9.36473 z"
             id="path722" /><ellipse
             style="fill:#4c4c4c;fill-opacity:1;stroke:#000000;stroke-width:1.95573;stroke-linejoin:round;stroke-dasharray:none;stroke-opacity:1"
             id="ellipse722"
             cx="979.16119"
             cy="546.21002"
             rx="9.2866964"
             ry="3.2776575" /></g><g
           id="g724"
           transform="matrix(0.51131826,0,0,0.51131826,403.1869,278.66863)"
           style="fill:#4c4c4c;fill-opacity:1;stroke-width:1.95573;stroke-dasharray:none"><path
             style="fill:#4c4c4c;fill-opacity:1;stroke:#000000;stroke-width:1.95573;stroke-linejoin:round;stroke-dasharray:none;stroke-opacity:1"
             d="m 976.89805,549.17555 v 9.36473 h 4.52629 v -9.36473 z"
             id="path723" /><ellipse
             style="fill:#4c4c4c;fill-opacity:1;stroke:#000000;stroke-width:1.95573;stroke-linejoin:round;stroke-dasharray:none;stroke-opacity:1"
             id="ellipse723"
             cx="979.16119"
             cy="546.21002"
             rx="9.2866964"
             ry="3.2776575" /></g></g><path
         style="fill:#424242;fill-opacity:1;stroke:#000000;stroke-width:1.00014;stroke-linejoin:round;stroke-dasharray:none;stroke-opacity:1"
         d="m 922.92949,477.16959 c 0,0 -0.57043,0.88339 -0.74043,1.3756 -0.19143,0.55426 -0.29207,1.14707 -0.29993,1.7334 -0.009,0.69408 0.0883,1.39962 0.29993,2.0607 0.1645,0.51377 0.74043,1.43906 0.74043,1.43906 h 3.75356 l 0.57293,-1.07071 c 0,0 -1.11359,-0.013 -1.4561,-0.37945 -0.46021,-0.49232 -0.40192,-1.31287 -0.37689,-1.98633 0.018,-0.48503 0.0548,-1.04339 0.37689,-1.40647 0.33931,-0.38247 1.42374,-0.57074 1.42374,-0.57074 l -0.76137,-1.19506 z"
         id="path725" /><path
         style="fill:#424242;fill-opacity:1;stroke:#000000;stroke-width:1.00014;stroke-linejoin:round;stroke-dasharray:none;stroke-opacity:1"
         d="m 1030.2149,477.16959 c 0,0 0.5704,0.88339 0.7404,1.3756 0.1915,0.55426 0.2921,1.14707 0.3,1.7334 0.01,0.69408 -0.088,1.39962 -0.3,2.0607 -0.1645,0.51377 -0.7404,1.43906 -0.7404,1.43906 h -3.7535 l -0.573,-1.07071 c 0,0 1.1136,-0.013 1.4561,-0.37945 0.4602,-0.49232 0.4019,-1.31287 0.3769,-1.98633 -0.018,-0.48503 -0.055,-1.04339 -0.3769,-1.40647 -0.3393,-0.38247 -1.4237,-0.57074 -1.4237,-0.57074 l 0.7614,-1.19506 z"
         id="path726" /><path
         id="path727"
         style="fill:#4b4b4b;stroke:#000000;stroke-linejoin:round"
         d="m 914.57252,478.00353 h 3.27771 l 0.86745,16.23221 h -3.27771 z" /><path
         id="path728"
         style="fill:#4b4b4b;stroke:#000000;stroke-linejoin:round"
         d="m 1039.6541,477.37921 h -3.2777 l -0.8674,16.23221 h 3.2777 z" /></g></g></svg>
