<?xml version="1.0" encoding="UTF-8"?>
<svg width="228.63" height="162.23" version="1.1" viewBox="0 0 228.63 162.23" xml:space="preserve" xmlns="http://www.w3.org/2000/svg"><g transform="translate(-846.14 -427.41)"><g transform="matrix(1.2593 0 0 1.2593 -256.81 -152.87)"><path d="m1039.4 472.14 4.9189 0.22604s1.6281 4.4479 1.8233 6.7801c0.2358 2.8161-0.1158 5.6998-0.8098 8.4392-0.3874 1.5293-1.8454 4.3583-1.8454 4.3583l-6.3044-0.1914-0.1784-1.7076c-2.7039-0.0374-0.6884 0.0994-3.3806-0.12891l0.7129-4.6313 0.1425-7.0442-0.7128-4.1519c2.4519-0.0953-0.2544-0.21697 2.1987-0.25948l2.4909-0.0399z" fill="#272727" stroke="#000" stroke-linejoin="round"/><path d="m914.46 472.14-4.9189 0.22604s-1.6281 4.4479-1.8234 6.7801c-0.23576 2.8161 0.11588 5.6998 0.80983 8.4392 0.3874 1.5293 1.8454 4.3583 1.8454 4.3583l6.3045-0.1914 0.17836-1.7076c2.7039-0.0374 0.68839 0.0994 3.3806-0.12891l-0.71282-4.6313-0.14253-7.0442 0.71278-4.1519c-2.4519-0.0953 0.25446-0.21697-2.1987-0.25948l-2.4908-0.0399z" fill="#272727" stroke="#000" stroke-linejoin="round"/><path d="m906.88 480.34s-2.3227 0.59684-3.5118 0.70235c-1.2699 0.11267-2.5501-0.0248-3.8239-0.078-2.0574-0.0861-4.1076-0.30929-6.1651-0.3902-1.6898-0.0664-3.4297-0.47887-5.0726-0.0781-1.4926 0.3641-2.9053 1.1695-4.058 2.1851-1.3432 1.1834-2.4458 2.7125-3.1216 4.3702-1.1528 2.8277-0.67636 6.0871-1.4047 9.0526-0.65535 2.6683-1.9402 5.1506-2.6534 7.804-0.27543 1.0248-0.91145 2.1-0.62431 3.1216 0.24907 0.8861 1.0298 1.6599 1.873 2.029 0.76253 0.33386 1.744 0.35436 2.4973 0 1.7721-0.83369 2.8424-2.7887 3.7459-4.5263 1.543-2.9675 2.1719-6.367 2.6533-9.6769 0.35206-2.4203-0.45582-4.9677 0.15609-7.3357 0.27947-1.0815 0.6045-2.3882 1.5608-2.9655 1.737-1.0487 4.0586-0.0461 6.0871 0 2.2909 0.052 4.5784 0.41713 6.8675 0.31217 1.5214-0.0698 3.054-0.23456 4.5263-0.62432 0.54169-0.1434 0.31198-0.17725 1.5608-0.62431l-0.15609-3.7459z" fill="#8e8e8e" stroke="#000" stroke-linejoin="round"/><path d="m907.04 549.18c-1.4196 6.0974-5.135 11.465-6.8675 17.481-1.2426 4.315-3.2408 8.8093-2.4973 13.238 0.55561 3.3093 1.6389 8.7404 4.9945 8.7404h148.59c3.3556 0 4.4389-5.4312 4.9945-8.7404 0.7435-4.4284-1.0633-8.9824-2.4973-13.238-2.0805-6.1736-7.0465-11.19-8.7404-17.481-2.6023-9.6643-1.5606-19.963-1.8729-29.967-0.1687-5.4045 1.0872-10.925 0-16.221-0.6373-3.105-1.6282-6.3819-3.7459-8.7404-2.5524-2.8426-9.9891-5.6188-9.9891-5.6188h-105.51s-8.1602 4.6693-11.238 8.1161c-2.5444 2.8497-4.6508 6.2934-5.6188 9.989-0.73828 2.8184 0 5.827 0 8.7404 0 3.9504-0.0858 7.9016 0 11.851 0.10408 4.7898 0.71939 9.5693 0.62432 14.359-0.0497 2.5054-0.0561 5.0511-0.62432 7.4918z" fill="#343434" stroke="#000" stroke-linejoin="round" stroke-width="2"/><path d="m921.71 493.65s-1.2831-8.7208-1.2486-13.111c0.0148-1.8844 0.29099-3.7641 0.62432-5.6188 0.45532-2.5335 1.0349-5.0579 1.8729-7.4918 0.66726-1.9379 2.4973-5.6188 2.4973-5.6188h102.39s2.7889 6.6665 3.746 10.141c0.6048 2.1952 0.9528 4.4583 1.2486 6.716 0.3525 2.6904 0.6903 5.4036 0.6243 8.1161-0.056 2.3066-0.8659 6.8675-0.8659 6.8675z" fill="#fff" stroke="#e7e7e7" stroke-linejoin="round" stroke-width="2"/><path d="m913.28 548.4-4.6824 10.926s-2.8094 6.2432-2.8094 9.6769 6.5553 5.1796 6.5553 5.1796l8.1161 1.6878h112.75s5.3469-0.72272 7.7615-1.8351c2.1013-0.96802 4.6599-1.9834 5.6032-4.0959 0.8527-1.9097 0.01-4.2495-0.6243-6.2432-0.8309-2.6205-4.3702-5.6188-4.058-7.1796s-3.4338-8.4282-3.4338-8.4282l-2-11.169v-8.5843s0.6975-4.5033 0-6.5844c-0.7459-2.2253-1.8962-5.6125-4.2432-5.6188l-115.19-0.31215c-2.3383-6e-3 -3.096 3.6848-3.7459 5.931-0.58112 2.0083 0 6.2722 0 6.2722v8.2722z" fill="#151515" stroke="#000" stroke-linejoin="round"/><g transform="translate(27.711 -2)" fill="#4c4c4c" stroke="#000" stroke-linejoin="round" stroke-width="1.9557"><g transform="matrix(.51132 0 0 .51132 415.56 278.67)"><path d="m976.9 549.18v9.3647h4.5263v-9.3647z"/><ellipse cx="979.16" cy="546.21" rx="9.2867" ry="3.2777"/></g><g transform="matrix(.51132 0 0 .51132 427.94 278.67)"><path d="m976.9 549.18v9.3647h4.5263v-9.3647z"/><ellipse cx="979.16" cy="546.21" rx="9.2867" ry="3.2777"/></g><g transform="matrix(.51132 0 0 .51132 440.32 278.67)"><path d="m976.9 549.18v9.3647h4.5263v-9.3647z"/><ellipse cx="979.16" cy="546.21" rx="9.2867" ry="3.2777"/></g><g transform="matrix(.51132 0 0 .51132 452.7 278.67)"><path d="m976.9 549.18v9.3647h4.5263v-9.3647z"/><ellipse cx="979.16" cy="546.21" rx="9.2867" ry="3.2777"/></g><g transform="matrix(.51132 0 0 .51132 465.07 278.67)"><path d="m976.9 549.18v9.3647h4.5263v-9.3647z"/><ellipse cx="979.16" cy="546.21" rx="9.2867" ry="3.2777"/></g><g transform="matrix(.51132 0 0 .51132 477.45 278.67)"><path d="m976.9 549.18v9.3647h4.5263v-9.3647z"/><ellipse cx="979.16" cy="546.21" rx="9.2867" ry="3.2777"/></g><g transform="matrix(.51132 0 0 .51132 489.83 278.67)"><path d="m976.9 549.18v9.3647h4.5263v-9.3647z"/><ellipse cx="979.16" cy="546.21" rx="9.2867" ry="3.2777"/></g><g transform="matrix(.51132 0 0 .51132 403.19 278.67)"><path d="m976.9 549.18v9.3647h4.5263v-9.3647z"/><ellipse cx="979.16" cy="546.21" rx="9.2867" ry="3.2777"/></g></g><g transform="matrix(.68726 0 0 .68726 367.66 182.83)" fill="#4c4c4c" stroke="#000" stroke-linejoin="round" stroke-width="1.9557"><path d="m976.9 549.18v9.3647h4.5263v-9.3647z"/><ellipse cx="979.16" cy="546.21" rx="9.2867" ry="3.2777"/></g><g transform="matrix(.68727 0 0 .68727 363.1 163.88)" fill="#4c4c4c" stroke="#000" stroke-linejoin="round" stroke-width="1.9557"><path d="m976.44 556.9v9.3647h4.5263v-9.3647z"/><ellipse cx="978.71" cy="553.93" rx="9.2867" ry="3.2777"/></g><g transform="matrix(.68726 0 0 .68726 362.1 151.79)" fill="#4c4c4c" stroke="#000" stroke-linejoin="round" stroke-width="1.9557"><path d="m973.72 553.26v9.3647h4.5263v-9.3647z"/><ellipse cx="975.98" cy="550.3" rx="9.2867" ry="3.2777"/></g><g transform="matrix(-.68726 0 0 .68726 1584.2 182.83)" fill="#4c4c4c" stroke="#000" stroke-linejoin="round" stroke-width="1.9557"><path d="m976.9 549.18v9.3647h4.5263v-9.3647z"/><ellipse cx="979.16" cy="546.21" rx="9.2867" ry="3.2777"/></g><g transform="matrix(-.68727 0 0 .68727 1588.1 169.18)" fill="#4c4c4c" stroke="#000" stroke-linejoin="round" stroke-width="1.9557"><path d="m976.9 549.18v9.3647h4.5263v-9.3647z"/><ellipse cx="979.16" cy="546.21" rx="9.2867" ry="3.2777"/></g><path d="m916.91 478.61c2.1851 0.31216 120.98 0 120.98 0v4.058h-120.98c-1.7298-1.3527-0.66157-2.7054 0-4.058z" fill="#8e8e8e" stroke="#000" stroke-linejoin="round"/><g transform="matrix(-.68726 0 0 .68726 1589.8 154.6)" fill="#4c4c4c" stroke="#000" stroke-linejoin="round" stroke-width="1.9557"><path d="m976.9 549.18v9.3647h4.5263v-9.3647z"/><ellipse cx="979.16" cy="546.21" rx="9.2867" ry="3.2777"/></g><g transform="translate(27.711 2)" fill="#4c4c4c" stroke="#000" stroke-linejoin="round" stroke-width="1.9557"><g transform="matrix(.51132 0 0 .51132 409.52 266.67)"><path d="m976.9 549.18v9.3647h4.5263v-9.3647z"/><ellipse cx="979.16" cy="546.21" rx="9.2867" ry="3.2777"/></g><g transform="matrix(.51132 0 0 .51132 421.85 266.67)"><path d="m976.9 549.18v9.3647h4.5263v-9.3647z"/><ellipse cx="979.16" cy="546.21" rx="9.2867" ry="3.2777"/></g><g transform="matrix(.51132 0 0 .51132 434.18 266.67)"><path d="m976.9 549.18v9.3647h4.5263v-9.3647z"/><ellipse cx="979.16" cy="546.21" rx="9.2867" ry="3.2777"/></g><g transform="matrix(.51132 0 0 .51132 446.51 266.67)"><path d="m976.9 549.18v9.3647h4.5263v-9.3647z"/><ellipse cx="979.16" cy="546.21" rx="9.2867" ry="3.2777"/></g><g transform="matrix(.51132 0 0 .51132 458.84 266.67)"><path d="m976.9 549.18v9.3647h4.5263v-9.3647z"/><ellipse cx="979.16" cy="546.21" rx="9.2867" ry="3.2777"/></g><g transform="matrix(.51132 0 0 .51132 471.17 266.67)"><path d="m976.9 549.18v9.3647h4.5263v-9.3647z"/><ellipse cx="979.16" cy="546.21" rx="9.2867" ry="3.2777"/></g><g transform="matrix(.51132 0 0 .51132 483.5 266.67)"><path d="m976.9 549.18v9.3647h4.5263v-9.3647z"/><ellipse cx="979.16" cy="546.21" rx="9.2867" ry="3.2777"/></g><g transform="matrix(.51132 0 0 .51132 495.83 266.67)"><path d="m976.9 549.18v9.3647h4.5263v-9.3647z"/><ellipse cx="979.16" cy="546.21" rx="9.2867" ry="3.2777"/></g><g transform="matrix(.51132 0 0 .51132 397.19 266.67)"><path d="m976.9 549.18v9.3647h4.5263v-9.3647z"/><ellipse cx="979.16" cy="546.21" rx="9.2867" ry="3.2777"/></g></g><g transform="translate(27.997 -.6388)" fill="#424242"><path d="m890.27 573.8 1.4707 2.7078h114.12l1.7838-2.7078v2e-5c0.5502-2.7054-0.563-5.4107-4.9945-8.1161h-108.01c-5.5403 2.7054-4.3844 5.4107-4.3702 8.1161z" fill="#424242" stroke="#000" stroke-linejoin="round"/></g><g transform="translate(29.711 -6)" fill="#4c4c4c" stroke="#000" stroke-linejoin="round" stroke-width="1.9557"><g transform="matrix(.51132 0 0 .51132 409.52 266.67)"><path d="m976.9 549.18v9.3647h4.5263v-9.3647z"/><ellipse cx="979.16" cy="546.21" rx="9.2867" ry="3.2777"/></g><g transform="matrix(.51132 0 0 .51132 421.85 266.67)"><path d="m976.9 549.18v9.3647h4.5263v-9.3647z"/><ellipse cx="979.16" cy="546.21" rx="9.2867" ry="3.2777"/></g><g transform="matrix(.51132 0 0 .51132 434.18 266.67)"><path d="m976.9 549.18v9.3647h4.5263v-9.3647z"/><ellipse cx="979.16" cy="546.21" rx="9.2867" ry="3.2777"/></g><g transform="matrix(.51132 0 0 .51132 446.51 266.67)"><path d="m976.9 549.18v9.3647h4.5263v-9.3647z"/><ellipse cx="979.16" cy="546.21" rx="9.2867" ry="3.2777"/></g><g transform="matrix(.51132 0 0 .51132 458.84 266.67)"><path d="m976.9 549.18v9.3647h4.5263v-9.3647z"/><ellipse cx="979.16" cy="546.21" rx="9.2867" ry="3.2777"/></g><g transform="matrix(.51132 0 0 .51132 471.17 266.67)"><path d="m976.9 549.18v9.3647h4.5263v-9.3647z"/><ellipse cx="979.16" cy="546.21" rx="9.2867" ry="3.2777"/></g><g transform="matrix(.51132 0 0 .51132 483.5 266.67)"><path d="m976.9 549.18v9.3647h4.5263v-9.3647z"/><ellipse cx="979.16" cy="546.21" rx="9.2867" ry="3.2777"/></g><g transform="matrix(.51132 0 0 .51132 495.83 266.67)"><path d="m976.9 549.18v9.3647h4.5263v-9.3647z"/><ellipse cx="979.16" cy="546.21" rx="9.2867" ry="3.2777"/></g><g transform="matrix(.51132 0 0 .51132 397.19 266.67)"><path d="m976.9 549.18v9.3647h4.5263v-9.3647z"/><ellipse cx="979.16" cy="546.21" rx="9.2867" ry="3.2777"/></g></g><g transform="translate(27.711 -26)" fill="#4c4c4c" stroke="#000" stroke-linejoin="round" stroke-width="1.9557"><g transform="matrix(.51132 0 0 .51132 415.56 278.67)"><path d="m976.9 549.18v9.3647h4.5263v-9.3647z"/><ellipse cx="979.16" cy="546.21" rx="9.2867" ry="3.2777"/></g><g transform="matrix(.51132 0 0 .51132 427.94 278.67)"><path d="m976.9 549.18v9.3647h4.5263v-9.3647z"/><ellipse cx="979.16" cy="546.21" rx="9.2867" ry="3.2777"/></g><g transform="matrix(.51132 0 0 .51132 440.32 278.67)"><path d="m976.9 549.18v9.3647h4.5263v-9.3647z"/><ellipse cx="979.16" cy="546.21" rx="9.2867" ry="3.2777"/></g><g transform="matrix(.51132 0 0 .51132 452.7 278.67)"><path d="m976.9 549.18v9.3647h4.5263v-9.3647z"/><ellipse cx="979.16" cy="546.21" rx="9.2867" ry="3.2777"/></g><g transform="matrix(.51132 0 0 .51132 465.07 278.67)"><path d="m976.9 549.18v9.3647h4.5263v-9.3647z"/><ellipse cx="979.16" cy="546.21" rx="9.2867" ry="3.2777"/></g><g transform="matrix(.51132 0 0 .51132 477.45 278.67)"><path d="m976.9 549.18v9.3647h4.5263v-9.3647z"/><ellipse cx="979.16" cy="546.21" rx="9.2867" ry="3.2777"/></g><g transform="matrix(.51132 0 0 .51132 489.83 278.67)"><path d="m976.9 549.18v9.3647h4.5263v-9.3647z"/><ellipse cx="979.16" cy="546.21" rx="9.2867" ry="3.2777"/></g><g transform="matrix(.51132 0 0 .51132 403.19 278.67)"><path d="m976.9 549.18v9.3647h4.5263v-9.3647z"/><ellipse cx="979.16" cy="546.21" rx="9.2867" ry="3.2777"/></g></g><path d="m922.93 477.17s-0.57043 0.88339-0.74043 1.3756c-0.19143 0.55426-0.29207 1.1471-0.29993 1.7334-9e-3 0.69408 0.0883 1.3996 0.29993 2.0607 0.1645 0.51377 0.74043 1.4391 0.74043 1.4391h3.7536l0.57293-1.0707s-1.1136-0.013-1.4561-0.37945c-0.46021-0.49232-0.40192-1.3129-0.37689-1.9863 0.018-0.48503 0.0548-1.0434 0.37689-1.4065 0.33931-0.38247 1.4237-0.57074 1.4237-0.57074l-0.76137-1.1951z" fill="#424242" stroke="#000" stroke-linejoin="round" stroke-width="1.0001"/><path d="m1030.2 477.17s0.5704 0.88339 0.7404 1.3756c0.1915 0.55426 0.2921 1.1471 0.3 1.7334 0.01 0.69408-0.088 1.3996-0.3 2.0607-0.1645 0.51377-0.7404 1.4391-0.7404 1.4391h-3.7535l-0.573-1.0707s1.1136-0.013 1.4561-0.37945c0.4602-0.49232 0.4019-1.3129 0.3769-1.9863-0.018-0.48503-0.055-1.0434-0.3769-1.4065-0.3393-0.38247-1.4237-0.57074-1.4237-0.57074l0.7614-1.1951z" fill="#424242" stroke="#000" stroke-linejoin="round" stroke-width="1.0001"/><path d="m914.57 478h3.2777l0.86745 16.232h-3.2777z" fill="#4b4b4b" stroke="#000" stroke-linejoin="round"/><path d="m1039.7 477.38h-3.2777l-0.8674 16.232h3.2777z" fill="#4b4b4b" stroke="#000" stroke-linejoin="round"/></g></g></svg>
