<?xml version="1.0" encoding="UTF-8"?>
<!-- Created with Inkscape (http://www.inkscape.org/) -->
<svg width="111.77" height="65.003" version="1.1" viewBox="0 0 111.77 65.003" xml:space="preserve" xmlns="http://www.w3.org/2000/svg"><g transform="translate(-694.09 -447.05)"><g transform="matrix(1.2978 0 0 .99349 -223.41 2.9948)" fill="#565656" stroke="#888" stroke-linecap="round" stroke-linejoin="round" stroke-width="3"><path d="m749.88 453.24c-6.6906 6e-3 -19.732-4.605-19.732-4.605 3.7583 7.0182 11.587 11.455 20.147 11.418 8.5606-0.0369 16.343-4.5408 20.028-11.591 0 0-13.509 4.7717-20.443 4.7784z"/><path d="m750.35 476.51c-3.3453 3e-3 -9.8727-0.0802-17.097-1.697-7.224-1.6168-15.144-4.7672-15.144-4.7672s4.6776 5.7396 11.259 9.2903c6.5817 3.5507 15.067 4.9124 20.932 4.9158 5.8796 3e-3 14.828-1.3584 21.431-4.9108s10.86-9.2953 10.86-9.2953-8.8638 3.5101-16.057 5.1253c-7.1935 1.6152-12.717 1.3356-16.184 1.339z"/><path d="m750.05 502.77c-4.3126 4e-3 -10.56-0.72277-19.873-2.8071-9.3129-2.0843-21.692-7.3845-21.692-7.3845s6.0303 7.3994 14.515 11.977c8.4849 4.5774 19.424 6.3329 26.985 6.3372 7.5798 4e-3 19.116-1.7512 27.628-6.3308 8.5122-4.5796 14-11.983 14-11.983s-12.136 5.0959-21.409 7.1782c-9.2736 2.0823-15.685 3.0091-20.155 3.0134z"/></g></g></svg>
