<?xml version="1.0" encoding="UTF-8"?>
<!-- Created with Inkscape (http://www.inkscape.org/) -->
<svg width="258.18" height="455.94" version="1.1" viewBox="0 0 258.18 455.94" xml:space="preserve" xmlns="http://www.w3.org/2000/svg" xmlns:xlink="http://www.w3.org/1999/xlink"><defs><linearGradient id="linearGradient349"><stop stop-color="#815a12" offset=".51535"/><stop stop-color="#583e0c" offset="1"/></linearGradient><filter id="filter111" x="-.11363" y="-.065973" width="1.2273" height="1.1319" color-interpolation-filters="sRGB"><feGaussianBlur stdDeviation="8.874604"/></filter><filter id="filter344" x="-.090274" y="-.08714" width="1.1805" height="1.1743" color-interpolation-filters="sRGB"><feGaussianBlur stdDeviation="2.2898061"/></filter><radialGradient id="radialGradient350" cx="893.62" cy="321.51" r="31.5" gradientUnits="userSpaceOnUse" xlink:href="#linearGradient349"/><radialGradient id="radialGradient351" cx="893.62" cy="321.51" r="31.5" gradientTransform="translate(-66.569)" gradientUnits="userSpaceOnUse" xlink:href="#linearGradient349"/><filter id="filter515" x="-.41911" y="-.67942" width="1.8382" height="2.3588" color-interpolation-filters="sRGB"><feGaussianBlur stdDeviation="1.6817411"/></filter><filter id="filter516" x="-.41251" y="-.48395" width="1.825" height="1.9679" color-interpolation-filters="sRGB"><feGaussianBlur stdDeviation="2.0204018"/></filter></defs><g transform="translate(-718.11 -190.79)"><path d="m914.09 213.47c-16.629-1.1453-23.038-5.7378-30.896-9.8414 0 0-6.5078-5.2992-10.299-6.9469-3.9534-1.7184-8.282-2.8946-12.587-2.8946s-8.6338 1.1762-12.587 2.8946c-3.7908 1.6477-10.299 6.9469-10.299 6.9469-7.8579 4.1036-14.266 8.6961-30.896 9.8414-16.395 19.166-29.449 19.734-42.911 22.577l1e-5 407.68h193.44l-0.0257-407.68c-13.488-2.8438-26.541-3.4109-42.937-22.577z" fill="#722f10" stroke="#431402" stroke-linecap="round" stroke-linejoin="round" stroke-width="6"/><g fill="none" stroke-linecap="round" stroke-linejoin="round" stroke-width="2"><path d="m815.94 223.33-10.418 15.292 54.806 31.161 54.757-31.161-9.9309-15.793" stroke="#3e1202"/><path d="m837.42 203.63 22.91 66.151 22.861-66.151" stroke="#3e1202"/><path d="m806.53 213.47 53.806 56.309 53.757-56.309" stroke="#3e1102"/></g><g><rect x="767.56" y="265.78" width="187.43" height="322.85" fill="#310d00" filter="url(#filter111)" opacity=".75"/><rect x="779.5" y="276.78" width="163.55" height="297.85" fill="#722f10" stroke="#431402" stroke-linecap="round" stroke-linejoin="round" stroke-width="8"/><path d="m731.03 348.83c4.4981 1.6118 8.423 4.591 13.187 5.6189 8.2607 1.7821 25.551 0.70236 25.551 0.70236l0.82421-4.9165v-12.642s-17.822 2.4535-26.375 0.70236c-6.0975-1.2484-10.871-5.4213-16.484-7.7259-2.5808-1.0596-7.888-2.7978-7.888-2.7978l1.6484 18.261s6.4178 1.6803 9.5364 2.7978z" fill="#815a12" stroke="#251c19" stroke-linecap="round" stroke-linejoin="round" stroke-width="3.4745"/></g><g transform="matrix(.80848 0 0 .80848 153.8 74.928)" fill="#3d2a22" stroke="#000" stroke-linecap="round" stroke-linejoin="round"><path d="m717.97 319.78c-0.0795-1.4089 0.16078-3.075 1.1601-4.0713 1.6822-1.6772 4.5299-1.468 6.8595-1.9325 5.085-1.0139 10.26-1.7973 15.445-1.847 4.6107-0.0442 9.2524 0.42676 13.764 1.379 2.8875 0.60946 6.5632 0.45461 8.4146 2.7528 1.2134 1.5062 0.98722 3.8797 0.58889 5.7724-0.43407 2.0625-1.9157 3.7704-3.1228 5.4982-1.2058 1.726-4.0838 4.8187-4.0838 4.8187s-1.142 13.299-1.4368 19.965c-0.31225 7.0581-0.99098 14.156-0.35135 21.192 0.65305 7.1837 2.418 14.242 4.2545 21.218 3.1307 11.891 11.498 35.051 11.498 35.051s1.6326 10.519-1.2595 14.353c-2.731 3.6208-8.2873 3.842-12.705 4.8678-6.2932 1.4614-12.842 1.818-19.303 1.7507-6.1828-0.0645-12.502-0.31736-18.435-2.0603-5.3761-1.5796-11.932-2.8182-15.061-7.4664-2.5086-3.726-1.0035-13.438-1.0035-13.438s10.001-22.363 14.072-33.901c2.3595-6.6886 4.6332-13.457 5.9788-20.42 1.3733-7.1072 1.5614-14.396 2.1013-21.614 0.473-6.3238 0.99647-18.998 0.99647-18.998s-4.0536-3.6402-5.5071-5.9058c-1.3552-2.1124-2.7234-4.457-2.8648-6.9627z" stroke-width="5"/><path d="m704.6 427.75s5.5239 4.812 9.0463 6.3145c5.043 2.1511 10.88 2.9418 16.533 3.5361 4.9495 0.52038 10.031 0.56561 14.973 0 5.5721-0.63773 11.094-1.9096 16.221-3.7887 2.8117-1.0306 7.7986-4.0413 7.7986-4.0413" stroke-width="4.532"/></g><path d="m735.88 355.29c4.4981 1.6118 8.423 4.591 13.187 5.6189 8.2607 1.7821 25.551 0.70236 25.551 0.70236l0.82421-4.9165v-12.642s-17.822 2.4535-26.375 0.70236c-6.0975-1.2484-10.871-5.4213-16.484-7.7259-2.5808-1.0596-7.888-2.7978-7.888-2.7978l1.6484 18.261s6.4178 1.6803 9.5364 2.7978z" fill="#815a12" stroke="#251c19" stroke-linecap="round" stroke-linejoin="round" stroke-width="3.4745"/><path d="m752.9 325.62c-1.7059-3.9616 1.9447 4.2378 2.8326 7.7898 0.423 1.692 1.4163 4.9571 1.4163 4.9571s3.5286 18.883 6.0194 28.149c1.337 4.9742 3.3083 9.7583 4.7801 14.694 1.2231 4.102 1.9066 8.0215 3.3638 12.393 0.23811 0.71432 2.3327 6.3114 3.1867 9.5602 2.3541 8.9546 3.2426 18.092 5.3112 27.264 0.50904 11.075 0.87786 21.804 0.70816 33.284 0 0 1.2654 21.905 1.2519 32.869-0.0127 10.297-1.2519 30.866-1.2519 30.866-0.17255 4.2544-1.0602 7.0566-1.4163 11.331-0.83902 10.068-3.6312 30.451-16.996 30.451-1.1803 0-2.4211 0.37323-3.5408 0-3.8654-1.2885-17.36-9.9536-18.412-14.163-1.4743-11.211-0.47986-22.282 2.1245-33.284 0.7729-3.0916 0.79174-6.0831 1.4163-9.2061 1.1483-5.7416 2.8321-11.328 4.249-16.996 0.64009-2.5604 1.3917-4.7287 2.0318-7.289 0.47277-1.891 1.0291-4.0356 2.1245-5.6653 2.1494-3.1979 1.9799-3.0198 3.6777-8.1135 0.97301-2.645 1.8206-4.0805 2.6556-6.1522 0.75395-1.8706 1.5297-3.7381 2.1245-5.6653 0.93364-3.025 0.98284-7.9508 2.2573-9.2252 0.16691-0.16692 0.61457-6.788-0.28075-10.673" fill="none" stroke="#694324" stroke-linecap="square" stroke-linejoin="round" stroke-width="4"/><ellipse transform="matrix(2.0392 0 0 2.0392 -894.07 -478.27)" cx="860.33" cy="460.29" rx="30.438" ry="31.533" fill="#4c1b07" filter="url(#filter344)" opacity=".48786" style="mix-blend-mode:normal"/><rect x="806.53" y="376.9" width="107.61" height="152.84" fill="none" stroke="#222" stroke-linecap="round" stroke-linejoin="round" stroke-width="15"/><g transform="matrix(.90673 0 0 .90673 80.246 35.899)"><path d="m835.76 449.2 2.3173-8.4966 10.428-8.6897 6.3725-19.504s3.9531-3.5082 6.3725-3.4759c2.3072 0.0309 5.9862 3.4759 5.9862 3.4759l4.8276 18.345 8.4966 8.6897 3.0897 6.1794v6.5656l-4.0552 6.3725-5.9862 6.3725-4.4414 19.89-2.5104 6.7587-6.0828 3.2828-6.2759-3.4759-2.8966-6.3725-4.2483-20.083-8.3035-8.3035z" fill="#3d2a22" stroke="#000" stroke-linecap="round" stroke-linejoin="round" stroke-width="5"/><ellipse cx="860.33" cy="460.36" rx="53.958" ry="55.899" fill="#7a5a1e" stroke="#000" stroke-linecap="round" stroke-linejoin="round" stroke-width="5.3182"/><g transform="matrix(1.5167 0 0 1.5167 -443.69 -228.04)"><ellipse cx="860.55" cy="450.4" rx="17.967" ry="18.526" fill="#a98053" stroke="#000" stroke-linecap="round" stroke-linejoin="round" stroke-width="3.8423"/><ellipse cx="860.55" cy="463" rx="23.703" ry="24.441" fill="#3d2a22" stroke="#000" stroke-linecap="round" stroke-linejoin="round" stroke-width="3.8423"/><g transform="matrix(1.2808 0 0 1.2808 -257.01 -140.78)"><ellipse cx="872.65" cy="466.66" rx="8.2418" ry="8.4982" fill="#a98053" stroke="#000" stroke-linecap="round" stroke-linejoin="round" stroke-width="2"/><g><circle cx="868.26" cy="463.67" r="1"/><circle cx="870.51" cy="461.7" r="1"/><circle cx="867.49" cy="466.35" r="1"/><circle cx="873.33" cy="461.2" r="1"/><circle cx="868.3" cy="469.25" r="1"/><circle cx="870.2" cy="471.42" r="1"/><circle cx="876.04" cy="462.44" r="1"/><circle cx="877.67" cy="464.95" r="1"/><circle cx="877.67" cy="467.89" r="1"/><circle cx="873.22" cy="472" r="1"/><circle cx="875.85" cy="470.56" r="1"/><circle cx="870.86" cy="464.49" r="1"/><circle cx="873.6" cy="463.91" r="1"/><circle cx="875.23" cy="466.04" r="1"/><circle cx="874.53" cy="468.47" r="1"/><circle cx="872.67" cy="466.38" r="1"/><circle cx="870.08" cy="467.24" r="1"/><circle cx="871.78" cy="469.13" r="1"/></g></g></g></g><g><circle cx="827.05" cy="321.51" r="29.5" fill="url(#radialGradient351)"/><circle cx="827.05" cy="321.51" r="4" fill="#583e0c" stroke="#583e0c" stroke-linecap="round" stroke-linejoin="round" stroke-width="2"/><circle cx="827.05" cy="321.51" r="29.5" fill="none" stroke="#431402" stroke-linecap="round" stroke-linejoin="round" stroke-width="4"/><circle cx="893.62" cy="321.51" r="29.5" fill="url(#radialGradient350)"/><circle cx="893.62" cy="321.51" r="29.5" fill="none" stroke="#431402" stroke-linecap="round" stroke-linejoin="round" stroke-width="4"/><circle cx="893.62" cy="321.51" r="4" fill="#583e0c" stroke="#583e0c" stroke-linecap="round" stroke-linejoin="round" stroke-width="2"/></g><g transform="matrix(2.0429 0 0 2.0429 -800.17 -657.73)"><path d="m797.28 633.42c-3.2411 0.0593-5.9184-2.5166-5.9842-5.7576l4.908-4.261h1.9387l4.9072 4.0461c0.0527 3.2412-2.5286 5.9132-5.7697 5.9725z" fill="none" stroke="#3e1202" stroke-linecap="round" stroke-linejoin="round" stroke-width="1.9994"/><g><path d="m765 612.26h94.981v6.9452h-94.981z" fill="none" stroke="#3e1202" stroke-linecap="round" stroke-linejoin="round" stroke-width="2"/><path d="m765 619.21v4.1934h94.981v-4.1934z" fill="none" stroke="#3e1202" stroke-linecap="round" stroke-linejoin="round" stroke-width="1.9994"/><g fill="none" stroke="#3e1202" stroke-linecap="round" stroke-linejoin="round"><path d="m766.83 623.4 14.891 10.356 14.479-10.356z" stroke-width="2"/><path d="m772.61 623.4 9.1223 4.3021 9.3037-4.3021z"/></g><g transform="translate(62.617)" fill="none" stroke="#3e1202" stroke-linecap="round" stroke-linejoin="round"><path d="m766.83 623.4 14.891 10.356 14.479-10.356z" stroke-width="2"/><path d="m772.61 623.4 9.1223 4.3021 9.3037-4.3021z"/></g><g transform="translate(31.367 -.029197)"><path d="m802.99 627.48c0.0527 3.2412-2.5286 5.9132-5.7697 5.9725-3.2411 0.0593-5.9184-2.5166-5.9842-5.7576" fill="none" stroke="#3e1202" stroke-linecap="round" stroke-linejoin="round" stroke-width="2"/></g><g transform="translate(62.675 -.029197)"><path d="m797.22 633.45c-3.2411 0.0593-5.9184-2.5166-5.9842-5.7576" fill="none" stroke="#3e1202" stroke-linecap="round" stroke-linejoin="round" stroke-width="2"/></g><g><path transform="translate(.05887 -.029197)" d="m802.99 627.48c0.0527 3.2412-2.5286 5.9132-5.7697 5.9725-3.2411 0.0593-5.9184-2.5166-5.9842-5.7576" fill="none" stroke="#3e1202" stroke-linecap="round" stroke-linejoin="round" stroke-width="2"/></g><g transform="translate(-31.218 -.029197)"><path d="m802.99 627.48c0.0527 3.2412-2.5286 5.9132-5.7697 5.9725" fill="none" stroke="#3e1202" stroke-linecap="round" stroke-linejoin="round" stroke-width="2"/></g><g transform="translate(31.308)" fill="none" stroke="#3e1202" stroke-linecap="round" stroke-linejoin="round"><path d="m766.83 623.4 14.891 10.356 14.479-10.356z" stroke-width="2"/><path d="m772.61 623.4 9.1223 4.3021 9.3037-4.3021z"/></g><g><path d="m796.2 623.4h1.9387l4.9072 4.0461c0.0527 3.2412-2.5286 5.9132-5.7697 5.9725-3.2411 0.0593-5.9184-2.5166-5.9842-5.7576z" fill="#321307"/><path transform="translate(3.322e-5)" d="m802.63 629.74c-0.28523 0.70722-0.70424 1.3469-1.2262 1.8872-1.0439 1.0806-2.4995 1.7634-4.12 1.793-1.6206 0.0297-3.1001-0.59949-4.1828-1.6412-0.54134-0.52084-0.98346-1.1448-1.2944-1.8411l0.67168-0.60416 3.6198-2.589h1.9387l3.7226 2.589z" fill="#8147ff" stroke="#3e1202" stroke-linecap="round" stroke-linejoin="round"/><path transform="translate(3.322e-5)" d="m802.63 629.74c-0.28523 0.70722-0.70424 1.3469-1.2262 1.8872-1.0439 1.0806-2.4995 1.7634-4.12 1.793-1.6206 0.0297-3.1001-0.59949-4.1828-1.6412-0.54134-0.52084-0.98346-1.1448-1.2944-1.8411l0.67168-0.60416 3.6198-2.589h1.9387l3.7226 2.589z" fill="#eee6ff" filter="url(#filter515)" opacity=".76" stroke="#3e1202" stroke-linecap="round" stroke-linejoin="round"/></g><g fill="none" stroke="#3e1202" stroke-linecap="round" stroke-linejoin="round" stroke-width="2"><path transform="translate(.05887 -.029197)" d="m802.99 627.48c0.0527 3.2412-2.5286 5.9132-5.7697 5.9725-3.2411 0.0593-5.9184-2.5166-5.9842-5.7576"/><path d="m798.14 623.4 14.891 10.356 14.479-10.356z"/><path d="m766.83 623.4 14.891 10.356 14.479-10.356z"/></g><path d="m796.2 623.4h1.9387l4.9072 4.0461c0.0527 3.2412-2.5286 5.9132-5.7697 5.9725-3.2411 0.0593-5.9184-2.5166-5.9842-5.7576z" display="none" fill="#c7adff" filter="url(#filter516)" opacity=".68689"/></g></g><g stroke="#431402" stroke-linecap="round" stroke-linejoin="round"><path d="m763.62 246.3 96.717 23.477 97.204-23.477" fill="none" stroke-width="2"/><path d="m778.52 561.44h166.53v16.499h-166.53z" fill="#722f10" stroke-width="4"/><path d="m791.96 543.87h139.64l13.441 17.572h-166.53z" fill="#803d20" stroke-width="4"/></g></g></svg>
