<?xml version="1.0" encoding="UTF-8" standalone="no"?>
<!-- Created with Inkscape (http://www.inkscape.org/) -->

<svg
   version="1.1"
   id="svg1"
   width="346.66666"
   height="373.33334"
   viewBox="0 0 346.66666 373.33334"
   sodipodi:docname="sheepwolves-day3-sol.pdf"
   xmlns:inkscape="http://www.inkscape.org/namespaces/inkscape"
   xmlns:sodipodi="http://sodipodi.sourceforge.net/DTD/sodipodi-0.dtd"
   xmlns="http://www.w3.org/2000/svg"
   xmlns:svg="http://www.w3.org/2000/svg">
  <defs
     id="defs1" />
  <sodipodi:namedview
     id="namedview1"
     pagecolor="#ffffff"
     bordercolor="#666666"
     borderopacity="1.0"
     inkscape:showpageshadow="2"
     inkscape:pageopacity="0.0"
     inkscape:pagecheckerboard="0"
     inkscape:deskcolor="#d1d1d1">
    <inkscape:page
       x="0"
       y="0"
       inkscape:label="1"
       id="page1"
       width="346.66666"
       height="373.33334"
       margin="0"
       bleed="0" />
  </sodipodi:namedview>
  <g
     id="g1"
     inkscape:groupmode="layer"
     inkscape:label="1">
    <path
       id="path1"
       d="m 200,1900 h 100 l 50,86.6 -50,86.6 H 200 l -50,-86.6 50,-86.6 m 0,-173.2 h 100 l 50,86.6 -50,86.6 H 200 l -50,-86.6 50,-86.6 m 0,-173.2 h 100 l 50,86.6 -50,86.6 H 200 l -50,-86.6 50,-86.6 m 0,-173.2 h 100 l 50,86.6 -50,86.6 H 200 l -50,-86.6 50,-86.6 m 0,-173.2 h 100 l 50,86.6 -50,86.6 H 200 l -50,-86.6 50,-86.6 m 0,-173.2 h 100 l 50,86.6 -50,86.6 H 200 l -50,-86.6 50,-86.6 m 0,-173.199 H 300 L 350,947.398 300,1034 H 200 l -50,-86.602 50,-86.597 m 0,-173.199 h 100 l 50,86.597 -50,86.602 H 200 l -50,-86.602 50,-86.597"
       style="fill:none;stroke:#000000;stroke-width:4;stroke-linecap:butt;stroke-linejoin:miter;stroke-miterlimit:10;stroke-dasharray:10, 20, 10, 20, 10, 20, 10, 0;stroke-dashoffset:800;stroke-opacity:1"
       transform="matrix(0.13333333,0,0,-0.13333333,0,373.33333)" />
    <path
       id="path2"
       d="m 350,1986.6 h 100 l 50,86.6 -50,86.6 H 350 l -50,-86.6 50,-86.6 m 0,-173.2 h 100 l 50,86.6 -50,86.6 H 350 l -50,-86.6 50,-86.6 m 0,-173.2 h 100 l 50,86.6 -50,86.6 H 350 l -50,-86.6 50,-86.6 m 0,-173.2 h 100 l 50,86.6 -50,86.6 H 350 l -50,-86.6 50,-86.6 m 0,-173.2 h 100 l 50,86.6 -50,86.6 H 350 l -50,-86.6 50,-86.6 m 0,-173.2 h 100 l 50,86.6 -50,86.6 H 350 l -50,-86.6 50,-86.6 m 0,-173.202 h 100 l 50,86.602 -50,86.6 H 350 l -50,-86.6 50,-86.602 m 0,-173.199 h 100 l 50,86.602 -50,86.597 H 350 l -50,-86.597 50,-86.602 M 350,601 h 100 l 50,86.602 -50,86.597 H 350 L 300,687.602 350,601"
       style="fill:none;stroke:#000000;stroke-width:4;stroke-linecap:butt;stroke-linejoin:miter;stroke-miterlimit:10;stroke-dasharray:10, 20, 10, 20, 10, 20, 10, 0;stroke-dashoffset:800;stroke-opacity:1"
       transform="matrix(0.13333333,0,0,-0.13333333,0,373.33333)" />
    <path
       id="path3"
       d="m 500,2073.2 h 100 l 50,86.6 -50,86.6 H 500 l -50,-86.6 50,-86.6 m 0,-173.2 h 100 l 50,86.6 -50,86.6 H 500 l -50,-86.6 50,-86.6 m 0,-173.2 h 100 l 50,86.6 -50,86.6 H 500 l -50,-86.6 50,-86.6 m 0,-173.2 h 100 l 50,86.6 -50,86.6 H 500 l -50,-86.6 50,-86.6 m 0,-173.2 h 100 l 50,86.6 -50,86.6 H 500 l -50,-86.6 50,-86.6 m 0,-173.2 h 100 l 50,86.6 -50,86.6 H 500 l -50,-86.6 50,-86.6 m 0,-173.2 h 100 l 50,86.6 -50,86.6 H 500 l -50,-86.6 50,-86.6 m 0,-173.199 H 600 L 650,947.398 600,1034 H 500 l -50,-86.602 50,-86.597 m 0,-173.199 h 100 l 50,86.597 -50,86.602 H 500 l -50,-86.602 50,-86.597 m 0,-173.204 H 600 L 650,601 600,687.602 H 500 L 450,601 500,514.398"
       style="fill:none;stroke:#000000;stroke-width:4;stroke-linecap:butt;stroke-linejoin:miter;stroke-miterlimit:10;stroke-dasharray:10, 20, 10, 20, 10, 20, 10, 0;stroke-dashoffset:800;stroke-opacity:1"
       transform="matrix(0.13333333,0,0,-0.13333333,0,373.33333)" />
    <path
       id="path4"
       d="m 650,2159.8 h 100 l 50,86.6 -50,86.6 H 650 l -50,-86.6 50,-86.6 m 0,-173.2 h 100 l 50,86.6 -50,86.6 H 650 l -50,-86.6 50,-86.6 m 0,-173.2 h 100 l 50,86.6 -50,86.6 H 650 l -50,-86.6 50,-86.6 m 0,-173.2 h 100 l 50,86.6 -50,86.6 H 650 l -50,-86.6 50,-86.6 m 0,-173.2 h 100 l 50,86.6 -50,86.6 H 650 l -50,-86.6 50,-86.6 m 0,-173.2 h 100 l 50,86.6 -50,86.6 H 650 l -50,-86.6 50,-86.6 m 0,-173.2 h 100 l 50,86.6 -50,86.6 H 650 l -50,-86.6 50,-86.6 m 0,-173.202 h 100 l 50,86.602 -50,86.6 H 650 l -50,-86.6 50,-86.602 m 0,-173.199 h 100 l 50,86.602 -50,86.597 H 650 l -50,-86.597 50,-86.602 M 650,601 h 100 l 50,86.602 -50,86.597 H 650 L 600,687.602 650,601 m 0,-173.199 H 750 L 800,514.398 750,601 H 650 l -50,-86.602 50,-86.597"
       style="fill:none;stroke:#000000;stroke-width:4;stroke-linecap:butt;stroke-linejoin:miter;stroke-miterlimit:10;stroke-dasharray:10, 20, 10, 20, 10, 20, 10, 0;stroke-dashoffset:800;stroke-opacity:1"
       transform="matrix(0.13333333,0,0,-0.13333333,0,373.33333)" />
    <path
       id="path5"
       d="m 800,2246.4 h 100 l 50,86.6 -50,86.6 H 800 l -50,-86.6 50,-86.6 m 0,-173.2 h 100 l 50,86.6 -50,86.6 H 800 l -50,-86.6 50,-86.6 m 0,-173.2 h 100 l 50,86.6 -50,86.6 H 800 l -50,-86.6 50,-86.6 m 0,-173.2 h 100 l 50,86.6 -50,86.6 H 800 l -50,-86.6 50,-86.6 m 0,-173.2 h 100 l 50,86.6 -50,86.6 H 800 l -50,-86.6 50,-86.6 m 0,-173.2 h 100 l 50,86.6 -50,86.6 H 800 l -50,-86.6 50,-86.6 m 0,-173.2 h 100 l 50,86.6 -50,86.6 H 800 l -50,-86.6 50,-86.6 m 0,-173.2 h 100 l 50,86.6 -50,86.6 H 800 l -50,-86.6 50,-86.6 m 0,-173.199 H 900 L 950,947.398 900,1034 H 800 l -50,-86.602 50,-86.597 m 0,-173.199 h 100 l 50,86.597 -50,86.602 H 800 l -50,-86.602 50,-86.597 m 0,-173.204 H 900 L 950,601 900,687.602 H 800 L 750,601 800,514.398 m 0,-173.199 h 100 l 50,86.602 -50,86.597 H 800 l -50,-86.597 50,-86.602"
       style="fill:none;stroke:#000000;stroke-width:4;stroke-linecap:butt;stroke-linejoin:miter;stroke-miterlimit:10;stroke-dasharray:10, 20, 10, 20, 10, 20, 10, 0;stroke-dashoffset:800;stroke-opacity:1"
       transform="matrix(0.13333333,0,0,-0.13333333,0,373.33333)" />
    <path
       id="path6"
       d="m 950,2333 h 100 l 50,86.6 -50,86.6 H 950 l -50,-86.6 50,-86.6 m 0,-173.2 h 100 l 50,86.6 -50,86.6 H 950 l -50,-86.6 50,-86.6 m 0,-173.2 h 100 l 50,86.6 -50,86.6 H 950 l -50,-86.6 50,-86.6 m 0,-173.2 h 100 l 50,86.6 -50,86.6 H 950 l -50,-86.6 50,-86.6 m 0,-173.2 h 100 l 50,86.6 -50,86.6 H 950 l -50,-86.6 50,-86.6 m 0,-173.2 h 100 l 50,86.6 -50,86.6 H 950 l -50,-86.6 50,-86.6 m 0,-173.2 h 100 l 50,86.6 -50,86.6 H 950 l -50,-86.6 50,-86.6 m 0,-173.2 h 100 l 50,86.6 -50,86.6 H 950 l -50,-86.6 50,-86.6 m 0,-173.202 h 100 l 50,86.602 -50,86.6 H 950 l -50,-86.6 50,-86.602 m 0,-173.199 h 100 l 50,86.602 -50,86.597 H 950 l -50,-86.597 50,-86.602 M 950,601 h 100 l 50,86.602 -50,86.597 H 950 L 900,687.602 950,601 m 0,-173.199 h 100 l 50,86.597 L 1050,601 H 950 l -50,-86.602 50,-86.597 m 0,-173.199 h 100 l 50,86.597 -50,86.602 H 950 l -50,-86.602 50,-86.597"
       style="fill:none;stroke:#000000;stroke-width:4;stroke-linecap:butt;stroke-linejoin:miter;stroke-miterlimit:10;stroke-dasharray:10, 20, 10, 20, 10, 20, 10, 0;stroke-dashoffset:800;stroke-opacity:1"
       transform="matrix(0.13333333,0,0,-0.13333333,0,373.33333)" />
    <path
       id="path7"
       d="m 1100,2419.6 h 100 l 50,86.6 -50,86.6 h -100 l -50,-86.6 50,-86.6 m 0,-173.2 h 100 l 50,86.6 -50,86.6 h -100 l -50,-86.6 50,-86.6 m 0,-173.2 h 100 l 50,86.6 -50,86.6 h -100 l -50,-86.6 50,-86.6 m 0,-173.2 h 100 l 50,86.6 -50,86.6 h -100 l -50,-86.6 50,-86.6 m 0,-173.2 h 100 l 50,86.6 -50,86.6 h -100 l -50,-86.6 50,-86.6 m 0,-173.2 h 100 l 50,86.6 -50,86.6 h -100 l -50,-86.6 50,-86.6 m 0,-173.2 h 100 l 50,86.6 -50,86.6 h -100 l -50,-86.6 50,-86.6 m 0,-173.2 h 100 l 50,86.6 -50,86.6 h -100 l -50,-86.6 50,-86.6 m 0,-173.2 h 100 l 50,86.6 -50,86.6 h -100 l -50,-86.6 50,-86.6 m 0,-173.199 h 100 l 50,86.597 -50,86.602 h -100 l -50,-86.602 50,-86.597 m 0,-173.199 h 100 l 50,86.597 -50,86.602 h -100 l -50,-86.602 50,-86.597 m 0,-173.204 h 100 l 50,86.602 -50,86.602 H 1100 L 1050,601 l 50,-86.602 m 0,-173.199 h 100 l 50,86.602 -50,86.597 h -100 l -50,-86.597 50,-86.602 M 1100,168 h 100 l 50,86.602 -50,86.597 H 1100 L 1050,254.602 1100,168"
       style="fill:none;stroke:#000000;stroke-width:4;stroke-linecap:butt;stroke-linejoin:miter;stroke-miterlimit:10;stroke-dasharray:10, 20, 10, 20, 10, 20, 10, 0;stroke-dashoffset:800;stroke-opacity:1"
       transform="matrix(0.13333333,0,0,-0.13333333,0,373.33333)" />
    <path
       id="path8"
       d="m 1250,2506.2 h 100 l 50,86.6 -50,86.6 h -100 l -50,-86.6 50,-86.6 m 0,-173.2 h 100 l 50,86.6 -50,86.6 h -100 l -50,-86.6 50,-86.6 m 0,-173.2 h 100 l 50,86.6 -50,86.6 h -100 l -50,-86.6 50,-86.6 m 0,-173.2 h 100 l 50,86.6 -50,86.6 h -100 l -50,-86.6 50,-86.6 m 0,-173.2 h 100 l 50,86.6 -50,86.6 h -100 l -50,-86.6 50,-86.6 m 0,-173.2 h 100 l 50,86.6 -50,86.6 h -100 l -50,-86.6 50,-86.6 m 0,-173.2 h 100 l 50,86.6 -50,86.6 h -100 l -50,-86.6 50,-86.6 m 0,-173.2 h 100 l 50,86.6 -50,86.6 h -100 l -50,-86.6 50,-86.6 m 0,-173.2 h 100 l 50,86.6 -50,86.6 h -100 l -50,-86.6 50,-86.6 m 0,-173.198 h 100 l 50,86.598 -50,86.6 h -100 l -50,-86.6 50,-86.598 m 0,-173.203 h 100 l 50,86.602 -50,86.601 h -100 l -50,-86.601 50,-86.602 M 1250,601 h 100 l 50,86.602 -50,86.597 H 1250 L 1200,687.602 1250,601 m 0,-173.199 h 100 l 50,86.601 -50,86.598 h -100 l -50,-86.598 50,-86.601 m 0,-173.199 h 100 l 50,86.597 -50,86.602 h -100 l -50,-86.602 50,-86.597 m 0,-173.1997 h 100 L 1400,168 1350,254.602 H 1250 L 1200,168 1250,81.4023"
       style="fill:none;stroke:#000000;stroke-width:4;stroke-linecap:butt;stroke-linejoin:miter;stroke-miterlimit:10;stroke-dasharray:10, 20, 10, 20, 10, 20, 10, 0;stroke-dashoffset:800;stroke-opacity:1"
       transform="matrix(0.13333333,0,0,-0.13333333,0,373.33333)" />
    <path
       id="path9"
       d="m 1400,2419.6 h 100 l 50,86.6 -50,86.6 h -100 l -50,-86.6 50,-86.6 m 0,-173.2 h 100 l 50,86.6 -50,86.6 h -100 l -50,-86.6 50,-86.6 m 0,-173.2 h 100 l 50,86.6 -50,86.6 h -100 l -50,-86.6 50,-86.6 m 0,-173.2 h 100 l 50,86.6 -50,86.6 h -100 l -50,-86.6 50,-86.6 m 0,-173.2 h 100 l 50,86.6 -50,86.6 h -100 l -50,-86.6 50,-86.6 m 0,-173.2 h 100 l 50,86.6 -50,86.6 h -100 l -50,-86.6 50,-86.6 m 0,-173.2 h 100 l 50,86.6 -50,86.6 h -100 l -50,-86.6 50,-86.6 m 0,-173.2 h 100 l 50,86.6 -50,86.6 h -100 l -50,-86.6 50,-86.6 m 0,-173.2 h 100 l 50,86.6 -50,86.6 h -100 l -50,-86.6 50,-86.6 m 0,-173.199 h 100 l 50,86.601 -50,86.598 h -100 l -50,-86.598 50,-86.601 m 0,-173.199 h 100 l 50,86.597 -50,86.602 h -100 l -50,-86.602 50,-86.597 m 0,-173.2 h 100 l 50,86.598 -50,86.602 H 1400 L 1350,601 l 50,-86.598 m 0,-173.203 h 100 l 50,86.602 -50,86.601 h -100 l -50,-86.601 50,-86.602 M 1400,168 h 100 l 50,86.602 -50,86.597 H 1400 L 1350,254.602 1400,168"
       style="fill:none;stroke:#000000;stroke-width:4;stroke-linecap:butt;stroke-linejoin:miter;stroke-miterlimit:10;stroke-dasharray:10, 20, 10, 20, 10, 20, 10, 0;stroke-dashoffset:800;stroke-opacity:1"
       transform="matrix(0.13333333,0,0,-0.13333333,0,373.33333)" />
    <path
       id="path10"
       d="m 1550,2333 h 100 l 50,86.6 -50,86.6 h -100 l -50,-86.6 50,-86.6 m 0,-173.2 h 100 l 50,86.6 -50,86.6 h -100 l -50,-86.6 50,-86.6 m 0,-173.2 h 100 l 50,86.6 -50,86.6 h -100 l -50,-86.6 50,-86.6 m 0,-173.2 h 100 l 50,86.6 -50,86.6 h -100 l -50,-86.6 50,-86.6 m 0,-173.2 h 100 l 50,86.6 -50,86.6 h -100 l -50,-86.6 50,-86.6 m 0,-173.2 h 100 l 50,86.6 -50,86.6 h -100 l -50,-86.6 50,-86.6 m 0,-173.2 h 100 l 50,86.6 -50,86.6 h -100 l -50,-86.6 50,-86.6 m 0,-173.2 h 100 l 50,86.6 -50,86.6 h -100 l -50,-86.6 50,-86.6 m 0,-173.198 h 100 l 50,86.598 -50,86.6 h -100 l -50,-86.6 50,-86.598 m 0,-173.203 h 100 l 50,86.602 -50,86.601 h -100 l -50,-86.601 50,-86.602 M 1550,601 h 100 l 50,86.602 -50,86.597 H 1550 L 1500,687.602 1550,601 m 0,-173.199 h 100 l 50,86.601 -50,86.598 h -100 l -50,-86.598 50,-86.601 m 0,-173.199 h 100 l 50,86.597 -50,86.602 h -100 l -50,-86.602 50,-86.597"
       style="fill:none;stroke:#000000;stroke-width:4;stroke-linecap:butt;stroke-linejoin:miter;stroke-miterlimit:10;stroke-dasharray:10, 20, 10, 20, 10, 20, 10, 0;stroke-dashoffset:800;stroke-opacity:1"
       transform="matrix(0.13333333,0,0,-0.13333333,0,373.33333)" />
    <path
       id="path11"
       d="m 1700,2246.4 h 100 l 50,86.6 -50,86.6 h -100 l -50,-86.6 50,-86.6 m 0,-173.2 h 100 l 50,86.6 -50,86.6 h -100 l -50,-86.6 50,-86.6 m 0,-173.2 h 100 l 50,86.6 -50,86.6 h -100 l -50,-86.6 50,-86.6 m 0,-173.2 h 100 l 50,86.6 -50,86.6 h -100 l -50,-86.6 50,-86.6 m 0,-173.2 h 100 l 50,86.6 -50,86.6 h -100 l -50,-86.6 50,-86.6 m 0,-173.2 h 100 l 50,86.6 -50,86.6 h -100 l -50,-86.6 50,-86.6 m 0,-173.2 h 100 l 50,86.6 -50,86.6 h -100 l -50,-86.6 50,-86.6 m 0,-173.2 h 100 l 50,86.6 -50,86.6 h -100 l -50,-86.6 50,-86.6 m 0,-173.199 h 100 l 50,86.601 -50,86.598 h -100 l -50,-86.598 50,-86.601 m 0,-173.199 h 100 l 50,86.597 -50,86.602 h -100 l -50,-86.602 50,-86.597 m 0,-173.2 h 100 l 50,86.598 -50,86.602 H 1700 L 1650,601 l 50,-86.598 m 0,-173.203 h 100 l 50,86.602 -50,86.601 h -100 l -50,-86.601 50,-86.602"
       style="fill:none;stroke:#000000;stroke-width:4;stroke-linecap:butt;stroke-linejoin:miter;stroke-miterlimit:10;stroke-dasharray:10, 20, 10, 20, 10, 20, 10, 0;stroke-dashoffset:800;stroke-opacity:1"
       transform="matrix(0.13333333,0,0,-0.13333333,0,373.33333)" />
    <path
       id="path12"
       d="m 1850,2159.8 h 100 l 50,86.6 -50,86.6 h -100 l -50,-86.6 50,-86.6 m 0,-173.2 h 100 l 50,86.6 -50,86.6 h -100 l -50,-86.6 50,-86.6 m 0,-173.2 h 100 l 50,86.6 -50,86.6 h -100 l -50,-86.6 50,-86.6 m 0,-173.2 h 100 l 50,86.6 -50,86.6 h -100 l -50,-86.6 50,-86.6 m 0,-173.2 h 100 l 50,86.6 -50,86.6 h -100 l -50,-86.6 50,-86.6 m 0,-173.2 h 100 l 50,86.6 -50,86.6 h -100 l -50,-86.6 50,-86.6 m 0,-173.2 h 100 l 50,86.6 -50,86.6 h -100 l -50,-86.6 50,-86.6 m 0,-173.202 h 100 l 50,86.602 -50,86.6 h -100 l -50,-86.6 50,-86.602 m 0,-173.199 h 100 l 50,86.602 -50,86.597 h -100 l -50,-86.597 50,-86.602 M 1850,601 h 100 l 50,86.602 -50,86.597 H 1850 L 1800,687.602 1850,601 m 0,-173.199 h 100 l 50,86.597 -50,86.602 h -100 l -50,-86.602 50,-86.597"
       style="fill:none;stroke:#000000;stroke-width:4;stroke-linecap:butt;stroke-linejoin:miter;stroke-miterlimit:10;stroke-dasharray:10, 20, 10, 20, 10, 20, 10, 0;stroke-dashoffset:800;stroke-opacity:1"
       transform="matrix(0.13333333,0,0,-0.13333333,0,373.33333)" />
    <path
       id="path13"
       d="m 2000,2073.2 h 100 l 50,86.6 -50,86.6 h -100 l -50,-86.6 50,-86.6 m 0,-173.2 h 100 l 50,86.6 -50,86.6 h -100 l -50,-86.6 50,-86.6 m 0,-173.2 h 100 l 50,86.6 -50,86.6 h -100 l -50,-86.6 50,-86.6 m 0,-173.2 h 100 l 50,86.6 -50,86.6 h -100 l -50,-86.6 50,-86.6 m 0,-173.2 h 100 l 50,86.6 -50,86.6 h -100 l -50,-86.6 50,-86.6 m 0,-173.2 h 100 l 50,86.6 -50,86.6 h -100 l -50,-86.6 50,-86.6 m 0,-173.2 h 100 l 50,86.6 -50,86.6 h -100 l -50,-86.6 50,-86.6 m 0,-173.199 h 100 l 50,86.597 -50,86.602 h -100 l -50,-86.602 50,-86.597 m 0,-173.199 h 100 l 50,86.597 -50,86.602 h -100 l -50,-86.602 50,-86.597 m 0,-173.204 h 100 l 50,86.602 -50,86.602 H 2000 L 1950,601 l 50,-86.602"
       style="fill:none;stroke:#000000;stroke-width:4;stroke-linecap:butt;stroke-linejoin:miter;stroke-miterlimit:10;stroke-dasharray:10, 20, 10, 20, 10, 20, 10, 0;stroke-dashoffset:800;stroke-opacity:1"
       transform="matrix(0.13333333,0,0,-0.13333333,0,373.33333)" />
    <path
       id="path14"
       d="m 2150,1986.6 h 100 l 50,86.6 -50,86.6 h -100 l -50,-86.6 50,-86.6 m 0,-173.2 h 100 l 50,86.6 -50,86.6 h -100 l -50,-86.6 50,-86.6 m 0,-173.2 h 100 l 50,86.6 -50,86.6 h -100 l -50,-86.6 50,-86.6 m 0,-173.2 h 100 l 50,86.6 -50,86.6 h -100 l -50,-86.6 50,-86.6 m 0,-173.2 h 100 l 50,86.6 -50,86.6 h -100 l -50,-86.6 50,-86.6 m 0,-173.2 h 100 l 50,86.6 -50,86.6 h -100 l -50,-86.6 50,-86.6 m 0,-173.202 h 100 l 50,86.602 -50,86.6 h -100 l -50,-86.6 50,-86.602 m 0,-173.199 h 100 l 50,86.602 -50,86.597 h -100 l -50,-86.597 50,-86.602 M 2150,601 h 100 l 50,86.602 -50,86.597 H 2150 L 2100,687.602 2150,601"
       style="fill:none;stroke:#000000;stroke-width:4;stroke-linecap:butt;stroke-linejoin:miter;stroke-miterlimit:10;stroke-dasharray:10, 20, 10, 20, 10, 20, 10, 0;stroke-dashoffset:800;stroke-opacity:1"
       transform="matrix(0.13333333,0,0,-0.13333333,0,373.33333)" />
    <path
       id="path15"
       d="m 2300,1900 h 100 l 50,86.6 -50,86.6 h -100 l -50,-86.6 50,-86.6 m 0,-173.2 h 100 l 50,86.6 -50,86.6 h -100 l -50,-86.6 50,-86.6 m 0,-173.2 h 100 l 50,86.6 -50,86.6 h -100 l -50,-86.6 50,-86.6 m 0,-173.2 h 100 l 50,86.6 -50,86.6 h -100 l -50,-86.6 50,-86.6 m 0,-173.2 h 100 l 50,86.6 -50,86.6 h -100 l -50,-86.6 50,-86.6 m 0,-173.2 h 100 l 50,86.6 -50,86.6 h -100 l -50,-86.6 50,-86.6 m 0,-173.199 h 100 l 50,86.597 -50,86.602 h -100 l -50,-86.602 50,-86.597 m 0,-173.199 h 100 l 50,86.597 -50,86.602 h -100 l -50,-86.602 50,-86.597"
       style="fill:none;stroke:#000000;stroke-width:4;stroke-linecap:butt;stroke-linejoin:miter;stroke-miterlimit:10;stroke-dasharray:10, 20, 10, 20, 10, 20, 10, 0;stroke-dashoffset:800;stroke-opacity:1"
       transform="matrix(0.13333333,0,0,-0.13333333,0,373.33333)" />
    <path
       id="path16"
       d="M 5.7079703,-8.5078906 H 1.3251578 L 0.68062656,-3.8789844 H 1.6532828 c 0.4921875,-0.5859375 0.9023438,-0.7851562 1.5703125,-0.7851562 1.1484375,0 1.8515625,0.7734375 1.8515625,2.0390625 0,1.21875 -0.703125,1.96874998 -1.8632812,1.96874998 -0.9140625,0 -1.4882813,-0.46874998 -1.734375,-1.42968748 H 0.42281406 c 0.140625,0.6914062 0.2578125,1.03125 0.515625,1.34765623 0.48046874,0.64453125 1.34765624,1.01953125 2.29687504,1.01953125 1.7226562,0 2.9179687,-1.25390625 2.9179687,-3.05859378 0,-1.6757812 -1.1132812,-2.8242187 -2.7421875,-2.8242187 -0.5976562,0 -1.078125,0.1523437 -1.5703125,0.515625 l 0.328125,-2.3789063 H 5.7079703 Z M 2.6493766,30.644453 h 0.5742187 c 1.1601563,0 1.7695313,0.539063 1.7695313,1.582031 0,1.089844 -0.65625,1.757813 -1.7578125,1.757813 -1.1601563,0 -1.7226563,-0.585938 -1.7929688,-1.863281 H 0.38765781 c 0.046875,0.691406 0.1640625,1.148437 0.375,1.535156 0.43359379,0.84375 1.26562499,1.265625 2.42578129,1.265625 1.7578125,0 2.8828125,-1.066406 2.8828125,-2.707031 0,-1.101563 -0.421875,-1.699219 -1.4414063,-2.0625 0.796875,-0.328125 1.1953125,-0.925782 1.1953125,-1.804688 0,-1.488281 -0.9726562,-2.378906 -2.6015625,-2.378906 -1.7109375,0 -2.62499999,0.960937 -2.66015624,2.789062 H 1.6181266 c 0.011719,-0.527343 0.058594,-0.820312 0.1992187,-1.089843 0.234375,-0.492188 0.7617188,-0.785157 1.4179688,-0.785157 0.9375,0 1.5,0.574219 1.5,1.5 0,0.621094 -0.2109375,0.984375 -0.6796875,1.195313 -0.28125,0.117187 -0.6679688,0.164062 -1.40625,0.175781 z M 5.7079703,60.773359 H 1.3251578 L 0.68062656,65.402266 H 1.6532828 c 0.4921875,-0.585938 0.9023438,-0.785157 1.5703125,-0.785157 1.1484375,0 1.8515625,0.773438 1.8515625,2.039063 0,1.21875 -0.703125,1.96875 -1.8632812,1.96875 -0.9140625,0 -1.4882813,-0.46875 -1.734375,-1.429688 H 0.42281406 c 0.140625,0.691407 0.2578125,1.03125 0.515625,1.347657 0.48046874,0.644531 1.34765624,1.019531 2.29687504,1.019531 1.7226562,0 2.9179687,-1.253906 2.9179687,-3.058594 0,-1.675781 -1.1132812,-2.824219 -2.7421875,-2.824219 -0.5976562,0 -1.078125,0.152344 -1.5703125,0.515625 l 0.328125,-2.378906 H 5.7079703 Z M 17.649377,21.984297 h 0.574218 c 1.160157,0 1.769532,0.539062 1.769532,1.582031 0,1.089844 -0.65625,1.757813 -1.757813,1.757813 -1.160156,0 -1.722656,-0.585938 -1.792969,-1.863282 h -1.054687 c 0.04687,0.691407 0.164062,1.148438 0.375,1.535157 0.433594,0.84375 1.265625,1.265625 2.425781,1.265625 1.757813,0 2.882813,-1.066407 2.882813,-2.707032 0,-1.101562 -0.421875,-1.699218 -1.441407,-2.0625 0.796875,-0.328125 1.195313,-0.925781 1.195313,-1.804687 0,-1.488281 -0.972656,-2.378906 -2.601563,-2.378906 -1.710937,0 -2.625,0.960937 -2.660156,2.789062 h 1.054688 c 0.01172,-0.527344 0.05859,-0.820312 0.199218,-1.089844 0.234375,-0.492187 0.761719,-0.785156 1.417969,-0.785156 0.9375,0 1.5,0.574219 1.5,1.5 0,0.621094 -0.210937,0.984375 -0.679687,1.195313 -0.28125,0.117187 -0.667969,0.164062 -1.40625,0.175781 z m 0.65625,64.602539 c -0.796875,0 -1.511719,0.351562 -1.957032,0.949219 -0.550781,0.761718 -0.832031,1.910156 -0.832031,3.527343 0,2.917969 0.960938,4.476563 2.789063,4.476563 1.792968,0 2.777343,-1.558594 2.777343,-4.40625 0,-1.6875 -0.257812,-2.8125 -0.820312,-3.597656 -0.445313,-0.609375 -1.160156,-0.949219 -1.957031,-0.949219 z m 0,0.9375 c 1.136718,0 1.699218,1.160156 1.699218,3.515625 0,2.460937 -0.550781,3.621094 -1.722656,3.621094 -1.125,0 -1.6875,-1.207032 -1.6875,-3.585938 0,-2.390625 0.5625,-3.550781 1.710938,-3.550781 z m 15,-113.516602 c -0.796875,0 -1.511719,0.351563 -1.957032,0.949219 -0.550781,0.761719 -0.832031,1.910156 -0.832031,3.527344 0,2.917969 0.960938,4.476562 2.789063,4.476562 1.792968,0 2.777343,-1.558593 2.777343,-4.40625 0,-1.6875 -0.257812,-2.8125 -0.820312,-3.597656 -0.445313,-0.609375 -1.160156,-0.949219 -1.957031,-0.949219 z m 0,0.9375 c 1.136718,0 1.699218,1.160157 1.699218,3.515625 0,2.460938 -0.550781,3.621094 -1.722656,3.621094 -1.125,0 -1.6875,-1.207031 -1.6875,-3.585937 0,-2.390625 0.5625,-3.550782 1.710938,-3.550782 z M 33.106408,132.38371 v 6.17578 h 1.054687 v -8.67187 h -0.691406 c -0.375,1.32422 -0.609375,1.51172 -2.25,1.72265 v 0.77344 z M 48.305627,34.625898 c -0.796875,0 -1.511719,0.351563 -1.957032,0.949219 -0.550781,0.761719 -0.832031,1.910156 -0.832031,3.527344 0,2.917969 0.960938,4.476562 2.789063,4.476562 1.792968,0 2.777343,-1.558593 2.777343,-4.40625 0,-1.6875 -0.257812,-2.8125 -0.820312,-3.597656 -0.445313,-0.609375 -1.160156,-0.949219 -1.957031,-0.949219 z m 0,0.9375 c 1.136718,0 1.699218,1.160157 1.699218,3.515625 0,2.460938 -0.550781,3.621094 -1.722656,3.621094 -1.125,0 -1.6875,-1.207031 -1.6875,-3.585937 0,-2.390625 0.5625,-3.550782 1.710938,-3.550782 z m 0,0"
       style="fill:#000000;fill-opacity:1;fill-rule:nonzero;stroke:none"
       aria-label="5&#10; &#10;3&#10; &#10;5&#10; &#10; &#10;3&#10; &#10; &#10; &#10;0&#10;0&#10; &#10; &#10; &#10; &#10; &#10; &#10; &#10; &#10;1&#10; &#10; &#10; &#10; &#10;0&#10; "
       transform="matrix(1.3333333,0,0,1.3333333,28.885467,114.22667)" />
    <path
       id="path17"
       d="m 5.2607422,-4.5350156 c -0.023437,-1.2421875 -0.8320313,-1.9335938 -2.2851563,-1.9335938 -1.4648437,0 -2.41406246,0.7617188 -2.41406246,1.921875 0,0.984375 0.50390626,1.453125 1.99218746,1.8164063 l 0.9375,0.2226562 c 0.6914063,0.1640625 0.9726563,0.421875 0.9726563,0.8671875 0,0.5976563 -0.5859375,0.99609378 -1.4648438,0.99609378 -0.5390625,0 -0.9960937,-0.1640625 -1.2421875,-0.42187498 C 1.5927734,-1.2420469 1.5224609,-1.4295469 1.4638672,-1.8748594 H 0.40917969 c 0.046875,1.45312503 0.86718751,2.15625003 2.50781251,2.15625003 1.5820312,0 2.5898437,-0.78515625 2.5898437,-1.99218753 0,-0.9375 -0.5273437,-1.453125 -1.78125,-1.7578125 L 2.7763672,-3.6912656 c -0.8203125,-0.1992188 -1.171875,-0.4570313 -1.171875,-0.9023438 0,-0.5859375 0.515625,-0.9492187 1.3359375,-0.9492187 0.796875,0 1.2304687,0.3515625 1.2539062,1.0078125 z m 0,0"
       style="fill:#008000;fill-opacity:1;fill-rule:nonzero;stroke:none"
       aria-label="s"
       transform="matrix(1.3333333,0,0,1.3333333,89.333333,216.992)" />
    <path
       id="path18"
       d="m 5.2607422,-4.5343906 c -0.023437,-1.2421875 -0.8320313,-1.9335938 -2.2851563,-1.9335938 -1.4648437,0 -2.41406246,0.7617188 -2.41406246,1.921875 0,0.984375 0.50390626,1.453125 1.99218746,1.8164063 l 0.9375,0.2226562 c 0.6914063,0.1640625 0.9726563,0.421875 0.9726563,0.8671875 0,0.5976563 -0.5859375,0.99609377 -1.4648438,0.99609377 -0.5390625,0 -0.9960937,-0.1640625 -1.2421875,-0.42187497 C 1.5927734,-1.2414219 1.5224609,-1.4289219 1.4638672,-1.8742344 H 0.40917969 c 0.046875,1.45312502 0.86718751,2.15625002 2.50781251,2.15625002 1.5820312,0 2.5898437,-0.78515625 2.5898437,-1.99218752 0,-0.9375 -0.5273437,-1.453125 -1.78125,-1.7578125 L 2.7763672,-3.6906406 c -0.8203125,-0.1992188 -1.171875,-0.4570313 -1.171875,-0.9023438 0,-0.5859375 0.515625,-0.9492187 1.3359375,-0.9492187 0.796875,0 1.2304687,0.3515625 1.2539062,1.0078125 z m 0,0"
       style="fill:#008000;fill-opacity:1;fill-rule:nonzero;stroke:none"
       aria-label=" s"
       transform="matrix(1.3333333,0,0,1.3333333,89.333333,263.17867)" />
    <path
       id="path19"
       d="m 2.6493766,-3.9966578 h 0.5742187 c 1.1601563,0 1.7695313,0.5390625 1.7695313,1.5820312 0,1.0898438 -0.65625,1.75781254 -1.7578125,1.75781254 -1.1601563,0 -1.7226563,-0.58593754 -1.7929688,-1.86328124 H 0.38765781 c 0.046875,0.6914062 0.1640625,1.1484375 0.375,1.53515624 0.43359379,0.84375 1.26562499,1.265625 2.42578129,1.265625 1.7578125,0 2.8828125,-1.06640625 2.8828125,-2.70703124 0,-1.1015625 -0.421875,-1.6992188 -1.4414063,-2.0625 0.796875,-0.328125 1.1953125,-0.9257813 1.1953125,-1.8046875 0,-1.4882813 -0.9726562,-2.3789063 -2.6015625,-2.3789063 -1.7109375,0 -2.62499999,0.9609375 -2.66015624,2.7890625 H 1.6181266 c 0.011719,-0.5273437 0.058594,-0.8203125 0.1992187,-1.0898437 0.234375,-0.4921875 0.7617188,-0.7851563 1.4179688,-0.7851563 0.9375,0 1.5,0.5742188 1.5,1.5 0,0.6210938 -0.2109375,0.984375 -0.6796875,1.1953125 -0.28125,0.1171875 -0.6679688,0.1640625 -1.40625,0.1757813 z M 20.70797,-173.04842 h -4.382812 l -0.644531,4.62891 h 0.972656 c 0.492187,-0.58594 0.902344,-0.78516 1.570312,-0.78516 1.148438,0 1.851563,0.77344 1.851563,2.03907 0,1.21875 -0.703125,1.96875 -1.863281,1.96875 -0.914063,0 -1.488282,-0.46875 -1.734375,-1.42969 h -1.054688 c 0.140625,0.69141 0.257813,1.03125 0.515625,1.34766 0.480469,0.64453 1.347656,1.01953 2.296875,1.01953 1.722656,0 2.917969,-1.25391 2.917969,-3.0586 0,-1.67578 -1.113281,-2.82422 -2.742188,-2.82422 -0.597656,0 -1.078125,0.15235 -1.570312,0.51563 l 0.328125,-2.37891 h 3.539062 z m 0.363282,24.78516 h -4.476563 c 0.105469,-0.72656 0.492188,-1.17187 1.535156,-1.81641 l 1.207032,-0.66796 c 1.183593,-0.65625 1.792968,-1.54688 1.792968,-2.61329 0,-0.72656 -0.28125,-1.39453 -0.785156,-1.86328 -0.503906,-0.45703 -1.136719,-0.66797 -1.933594,-0.66797 -1.078125,0 -1.886718,0.375 -2.355468,1.125 -0.292969,0.45704 -0.433594,0.9961 -0.457032,1.875 h 1.054688 c 0.03516,-0.59765 0.117187,-0.9375 0.257812,-1.23046 0.269532,-0.52735 0.820313,-0.85547 1.464844,-0.85547 0.960938,0 1.675781,0.70312 1.675781,1.64062 0,0.69141 -0.398437,1.28906 -1.148437,1.72266 l -1.101563,0.65625 c -1.78125,1.01953 -2.296875,1.82812 -2.390625,3.72656 h 5.660157 z m 0,86.598633 h -4.476563 c 0.105469,-0.726562 0.492188,-1.171875 1.535156,-1.816406 l 1.207032,-0.667969 c 1.183593,-0.65625 1.792968,-1.546875 1.792968,-2.613281 0,-0.726562 -0.28125,-1.394531 -0.785156,-1.863281 -0.503906,-0.457031 -1.136719,-0.667969 -1.933594,-0.667969 -1.078125,0 -1.886718,0.375 -2.355468,1.125 -0.292969,0.457031 -0.433594,0.996094 -0.457032,1.875 h 1.054688 c 0.03516,-0.597656 0.117187,-0.9375 0.257812,-1.230469 0.269532,-0.527343 0.820313,-0.855468 1.464844,-0.855468 0.960938,0 1.675781,0.703125 1.675781,1.640625 0,0.691406 -0.398437,1.289062 -1.148437,1.722656 l -1.101563,0.65625 c -1.78125,1.019531 -2.296875,1.828125 -2.390625,3.726562 h 5.660157 z m 0,0"
       style="fill:#000000;fill-opacity:1;fill-rule:nonzero;stroke:none"
       aria-label="3&#10;5&#10;2&#10; &#10; &#10; &#10; &#10;2"
       transform="matrix(1.3333333,0,0,1.3333333,88.885467,287.42653)" />
    <path
       id="path20"
       d="m 5.2607422,-4.5348594 c -0.023437,-1.2421875 -0.8320313,-1.9335937 -2.2851563,-1.9335937 -1.4648437,0 -2.41406246,0.7617187 -2.41406246,1.921875 0,0.984375 0.50390626,1.453125 1.99218746,1.8164062 l 0.9375,0.2226563 c 0.6914063,0.1640625 0.9726563,0.421875 0.9726563,0.8671875 0,0.5976562 -0.5859375,0.99609373 -1.4648438,0.99609373 -0.5390625,0 -0.9960937,-0.1640625 -1.2421875,-0.42187503 C 1.5927734,-1.2418906 1.5224609,-1.4293906 1.4638672,-1.8747031 H 0.40917969 c 0.046875,1.45312498 0.86718751,2.15624998 2.50781251,2.15624998 1.5820312,0 2.5898437,-0.78515625 2.5898437,-1.99218748 0,-0.9375 -0.5273437,-1.453125 -1.78125,-1.7578125 L 2.7763672,-3.6911094 c -0.8203125,-0.1992187 -1.171875,-0.4570312 -1.171875,-0.9023437 0,-0.5859375 0.515625,-0.9492188 1.3359375,-0.9492188 0.796875,0 1.2304687,0.3515625 1.2539062,1.0078125 z m 0,0"
       style="fill:#008000;fill-opacity:1;fill-rule:nonzero;stroke:none"
       aria-label="s"
       transform="matrix(1.3333333,0,0,1.3333333,109.33333,228.53867)" />
    <path
       id="path21"
       d="M 6.0712516,-1.0439016 H 1.5946891 c 0.1054687,-0.7265625 0.4921875,-1.171875 1.5351562,-1.8164062 l 1.2070313,-0.6679688 c 1.1835937,-0.65625 1.7929687,-1.546875 1.7929687,-2.6132812 0,-0.7265625 -0.28125,-1.3945313 -0.7851562,-1.8632813 -0.5039063,-0.4570312 -1.1367188,-0.6679687 -1.9335938,-0.6679687 -1.078125,0 -1.8867187,0.375 -2.3554687,1.125 -0.29296879,0.4570312 -0.43359379,0.9960937 -0.45703129,1.875 H 1.6532828 c 0.035156,-0.5976563 0.1171875,-0.9375 0.2578125,-1.2304688 0.2695313,-0.5273437 0.8203125,-0.8554687 1.4648438,-0.8554687 0.9609375,0 1.6757812,0.703125 1.6757812,1.640625 0,0.6914062 -0.3984375,1.2890625 -1.1484375,1.7226562 l -1.1015625,0.65625 c -1.78125,1.0195313 -2.29687499,1.828125 -2.39062499,3.72656254 H 6.0712516 Z M 3.1064078,45.784223 v 6.175782 H 4.1610953 V 43.28813 H 3.4696891 c -0.375,1.324218 -0.609375,1.511718 -2.25,1.722656 v 0.773437 z M 21.071252,-148.26363 h -4.476563 c 0.105469,-0.72656 0.492188,-1.17187 1.535156,-1.8164 l 1.207032,-0.66797 c 1.183593,-0.65625 1.792968,-1.54688 1.792968,-2.61328 0,-0.72657 -0.28125,-1.39454 -0.785156,-1.86329 -0.503906,-0.45703 -1.136719,-0.66796 -1.933594,-0.66796 -1.078125,0 -1.886718,0.375 -2.355468,1.125 -0.292969,0.45703 -0.433594,0.99609 -0.457032,1.875 h 1.054688 c 0.03516,-0.59766 0.117187,-0.9375 0.257812,-1.23047 0.269532,-0.52735 0.820313,-0.85547 1.464844,-0.85547 0.960938,0 1.675781,0.70312 1.675781,1.64062 0,0.69141 -0.398437,1.28907 -1.148437,1.72266 l -1.101563,0.65625 c -1.78125,1.01953 -2.296875,1.82812 -2.390625,3.72656 h 5.660157 z m -3.421875,49.007814 h 0.574218 c 1.160157,0 1.769532,0.539063 1.769532,1.582032 0,1.089843 -0.65625,1.757812 -1.757813,1.757812 -1.160156,0 -1.722656,-0.585937 -1.792969,-1.863281 h -1.054687 c 0.04687,0.691406 0.164062,1.148437 0.375,1.535156 0.433594,0.84375 1.265625,1.265625 2.425781,1.265625 1.757813,0 2.882813,-1.066406 2.882813,-2.707031 0,-1.101563 -0.421875,-1.699219 -1.441407,-2.0625 0.796875,-0.328127 1.195313,-0.925777 1.195313,-1.804687 0,-1.48828 -0.972656,-2.37891 -2.601563,-2.37891 -1.710937,0 -2.625,0.96094 -2.660156,2.78907 h 1.054688 c 0.01172,-0.52735 0.05859,-0.82032 0.199218,-1.08985 0.234375,-0.49219 0.761719,-0.78515 1.417969,-0.78515 0.9375,0 1.5,0.57421 1.5,1.5 0,0.62109 -0.210937,0.98437 -0.679687,1.19531 -0.28125,0.11719 -0.667969,0.16406 -1.40625,0.17578 z m 0.457031,32.460938 v 6.175781 h 1.054687 v -8.671875 h -0.691406 c -0.375,1.324219 -0.609375,1.511719 -2.25,1.722656 v 0.773438 z m -0.457031,36.817383 h 0.574218 c 1.160157,0 1.769532,0.539062 1.769532,1.582031 0,1.089844 -0.65625,1.757812 -1.757813,1.757812 -1.160156,0 -1.722656,-0.585937 -1.792969,-1.863281 h -1.054687 c 0.04687,0.691406 0.164062,1.148438 0.375,1.535156 0.433594,0.84375 1.265625,1.265625 2.425781,1.265625 1.757813,0 2.882813,-1.066406 2.882813,-2.707031 0,-1.101562 -0.421875,-1.699219 -1.441407,-2.0625 0.796875,-0.328125 1.195313,-0.925781 1.195313,-1.804687 0,-1.488282 -0.972656,-2.378907 -2.601563,-2.378907 -1.710937,0 -2.625,0.960938 -2.660156,2.789063 h 1.054688 c 0.01172,-0.527344 0.05859,-0.820313 0.199218,-1.089844 0.234375,-0.492187 0.761719,-0.785156 1.417969,-0.785156 0.9375,0 1.5,0.574219 1.5,1.5 0,0.621094 -0.210937,0.984375 -0.679687,1.195312 -0.28125,0.117188 -0.667969,0.164063 -1.40625,0.175782 z m 0,34.6406247 h 0.574218 c 1.160157,0 1.769532,0.5390625 1.769532,1.5820312 0,1.0898438 -0.65625,1.7578125 -1.757813,1.7578125 -1.160156,0 -1.722656,-0.5859375 -1.792969,-1.8632812 h -1.054687 c 0.04687,0.6914062 0.164062,1.1484375 0.375,1.5351562 0.433594,0.84375 1.265625,1.265625 2.425781,1.265625 1.757813,0 2.882813,-1.0664062 2.882813,-2.7070312 0,-1.1015625 -0.421875,-1.6992188 -1.441407,-2.0625 0.796875,-0.328125 1.195313,-0.9257813 1.195313,-1.8046875 0,-1.48828126 -0.972656,-2.37890626 -2.601563,-2.37890626 -1.710937,0 -2.625,0.9609375 -2.660156,2.78906246 h 1.054688 c 0.01172,-0.5273437 0.05859,-0.8203125 0.199218,-1.0898437 0.234375,-0.4921875 0.761719,-0.78515626 1.417969,-0.78515626 0.9375,0 1.5,0.57421876 1.5,1.49999996 0,0.6210938 -0.210937,0.984375 -0.679687,1.1953125 -0.28125,0.1171875 -0.667969,0.1640625 -1.40625,0.1757813 z m 0.457031,32.4609373 v 6.175781 h 1.054687 v -8.671875 h -0.691406 c -0.375,1.324219 -0.609375,1.511719 -2.25,1.722657 v 0.773437 z M 32.649377,-107.91597 h 0.574218 c 1.160157,0 1.769532,0.53906 1.769532,1.58203 0,1.08984 -0.65625,1.75781 -1.757813,1.75781 -1.160156,0 -1.722656,-0.58594 -1.792969,-1.86328 h -1.054687 c 0.04687,0.69141 0.164062,1.14844 0.375,1.53516 0.433594,0.84375 1.265625,1.26562 2.425781,1.26562 1.757813,0 2.882813,-1.0664 2.882813,-2.70703 0,-1.10156 -0.421875,-1.69922 -1.441407,-2.0625 0.796875,-0.32812 1.195313,-0.92578 1.195313,-1.80469 0,-1.48828 -0.972656,-2.3789 -2.601563,-2.3789 -1.710937,0 -2.625,0.96093 -2.660156,2.78906 h 1.054688 c 0.01172,-0.52734 0.05859,-0.82031 0.199218,-1.08984 0.234375,-0.49219 0.761719,-0.78516 1.417969,-0.78516 0.9375,0 1.5,0.57422 1.5,1.5 0,0.62109 -0.210937,0.98437 -0.679687,1.19531 -0.28125,0.11719 -0.667969,0.16406 -1.40625,0.17578 z m 0,34.637693 h 0.574218 c 1.160157,0 1.769532,0.539063 1.769532,1.582032 0,1.089843 -0.65625,1.757812 -1.757813,1.757812 -1.160156,0 -1.722656,-0.585937 -1.792969,-1.863281 h -1.054687 c 0.04687,0.691406 0.164062,1.148437 0.375,1.535156 0.433594,0.84375 1.265625,1.265625 2.425781,1.265625 1.757813,0 2.882813,-1.066406 2.882813,-2.707031 0,-1.101563 -0.421875,-1.699219 -1.441407,-2.0625 0.796875,-0.328125 1.195313,-0.925781 1.195313,-1.804688 0,-1.488281 -0.972656,-2.378906 -2.601563,-2.378906 -1.710937,0 -2.625,0.960938 -2.660156,2.789063 h 1.054688 c 0.01172,-0.527344 0.05859,-0.820313 0.199218,-1.089844 0.234375,-0.492188 0.761719,-0.785156 1.417969,-0.785156 0.9375,0 1.5,0.574218 1.5,1.5 0,0.621093 -0.210937,0.984375 -0.679687,1.195312 -0.28125,0.117188 -0.667969,0.164063 -1.40625,0.175781 z m 0,0"
       style="fill:#000000;fill-opacity:1;fill-rule:nonzero;stroke:none"
       aria-label="2&#10; &#10; &#10;1&#10;2&#10; &#10; &#10;3&#10; &#10;1&#10; &#10;3&#10; &#10;3&#10; &#10;1&#10; &#10; &#10; &#10;3&#10; &#10;3&#10; &#10; "
       transform="matrix(1.3333333,0,0,1.3333333,108.88547,252.7864)" />
    <path
       id="path22"
       d="m 5.2607422,-4.5348594 c -0.023437,-1.2421875 -0.8320313,-1.9335937 -2.2851563,-1.9335937 -1.4648437,0 -2.41406246,0.7617187 -2.41406246,1.921875 0,0.984375 0.50390626,1.453125 1.99218746,1.8164062 l 0.9375,0.2226563 c 0.6914063,0.1640625 0.9726563,0.421875 0.9726563,0.8671875 0,0.5976562 -0.5859375,0.99609373 -1.4648438,0.99609373 -0.5390625,0 -0.9960937,-0.1640625 -1.2421875,-0.42187503 C 1.5927734,-1.2418906 1.5224609,-1.4293906 1.4638672,-1.8747031 H 0.40917969 c 0.046875,1.45312498 0.86718751,2.15624998 2.50781251,2.15624998 1.5820312,0 2.5898437,-0.78515625 2.5898437,-1.99218748 0,-0.9375 -0.5273437,-1.453125 -1.78125,-1.7578125 L 2.7763672,-3.6911094 c -0.8203125,-0.1992187 -1.171875,-0.4570312 -1.171875,-0.9023437 0,-0.5859375 0.515625,-0.9492188 1.3359375,-0.9492188 0.796875,0 1.2304687,0.3515625 1.2539062,1.0078125 z m 0,0"
       style="fill:#008000;fill-opacity:1;fill-rule:nonzero;stroke:none"
       aria-label="s"
       transform="matrix(1.3333333,0,0,1.3333333,149.33333,228.53867)" />
    <path
       id="path23"
       d="M 5.7080403,-8.5070953 H 1.3252278 L 0.68069656,-3.8781891 H 1.6533528 c 0.4921875,-0.5859375 0.9023438,-0.7851562 1.5703125,-0.7851562 1.1484375,0 1.8515625,0.7734375 1.8515625,2.0390625 0,1.21875 -0.703125,1.96874999 -1.8632812,1.96874999 -0.9140625,0 -1.4882813,-0.46874999 -1.734375,-1.42968749 H 0.42288406 c 0.140625,0.6914062 0.2578125,1.03125 0.515625,1.34765624 0.48046874,0.64453125 1.34765624,1.01953125 2.29687504,1.01953125 1.7226562,0 2.9179687,-1.25390625 2.9179687,-3.05859379 0,-1.6757812 -1.1132812,-2.8242187 -2.7421875,-2.8242187 -0.5976562,0 -1.078125,0.1523437 -1.5703125,0.515625 l 0.328125,-2.3789063 H 5.7080403 Z M 18.305697,-225.17213 c -0.796875,0 -1.511719,0.35156 -1.957032,0.94921 -0.550781,0.76172 -0.832031,1.91016 -0.832031,3.52735 0,2.91797 0.960938,4.47656 2.789063,4.47656 1.792968,0 2.777343,-1.55859 2.777343,-4.40625 0,-1.6875 -0.257812,-2.8125 -0.820312,-3.59766 -0.445313,-0.60937 -1.160156,-0.94921 -1.957031,-0.94921 z m 0,0.9375 c 1.136718,0 1.699218,1.16015 1.699218,3.51562 0,2.46094 -0.550781,3.62109 -1.722656,3.62109 -1.125,0 -1.6875,-1.20703 -1.6875,-3.58593 0,-2.39063 0.5625,-3.55078 1.710938,-3.55078 z m 2.402343,51.1875 h -4.382812 l -0.644531,4.6289 h 0.972656 c 0.492187,-0.58594 0.902344,-0.78515 1.570312,-0.78515 1.148438,0 1.851563,0.77343 1.851563,2.03906 0,1.21875 -0.703125,1.96875 -1.863281,1.96875 -0.914063,0 -1.488282,-0.46875 -1.734375,-1.42969 h -1.054688 c 0.140625,0.69141 0.257813,1.03125 0.515625,1.34766 0.480469,0.64453 1.347656,1.01953 2.296875,1.01953 1.722656,0 2.917969,-1.25391 2.917969,-3.0586 0,-1.67578 -1.113281,-2.82421 -2.742188,-2.82421 -0.597656,0 -1.078125,0.15234 -1.570312,0.51562 l 0.328125,-2.37891 h 3.539062 z m 0,86.598628 h -4.382812 l -0.644531,4.628907 h 0.972656 c 0.492187,-0.585938 0.902344,-0.785157 1.570312,-0.785157 1.148438,0 1.851563,0.773438 1.851563,2.039063 0,1.21875 -0.703125,1.96875 -1.863281,1.96875 -0.914063,0 -1.488282,-0.46875 -1.734375,-1.429688 h -1.054688 c 0.140625,0.691407 0.257813,1.03125 0.515625,1.347657 0.480469,0.644531 1.347656,1.019531 2.296875,1.019531 1.722656,0 2.917969,-1.253906 2.917969,-3.058594 0,-1.675781 -1.113281,-2.824219 -2.742188,-2.824219 -0.597656,0 -1.078125,0.152344 -1.570312,0.515625 l 0.328125,-2.378906 h 3.539062 z m -2.601562,36.972657 v 6.175781 h 1.054687 v -8.671875 h -0.691406 c -0.375,1.324219 -0.609375,1.511719 -2.25,1.722656 v 0.773438 z m 2.964844,22.453125 h -4.476563 c 0.105469,-0.726563 0.492188,-1.171875 1.535156,-1.816407 l 1.207032,-0.667968 c 1.183593,-0.65625 1.792968,-1.546875 1.792968,-2.613282 0,-0.726562 -0.28125,-1.394531 -0.785156,-1.863281 -0.503906,-0.457031 -1.136719,-0.667969 -1.933594,-0.667969 -1.078125,0 -1.886718,0.375 -2.355468,1.125 -0.292969,0.457032 -0.433594,0.996094 -0.457032,1.875 h 1.054688 c 0.03516,-0.597656 0.117187,-0.9375 0.257812,-1.230468 0.269532,-0.527344 0.820313,-0.855469 1.464844,-0.855469 0.960938,0 1.675781,0.703125 1.675781,1.640625 0,0.691406 -0.398437,1.289062 -1.148437,1.722656 l -1.101563,0.65625 c -1.78125,1.019531 -2.296875,1.828125 -2.390625,3.726563 h 5.660157 z M 18.92679,6.5632172 v 2.0976562 h 1.054688 V 6.5632172 h 1.253906 V 5.6139984 H 19.981478 V -0.01100156 H 19.196322 L 15.340853,5.4499359 v 1.1132813 z m 0,-0.9492188 H 16.266634 L 18.92679,1.7819672 Z m 15,-198.2314484 v 2.09766 h 1.054688 v -2.09766 h 1.253906 v -0.94922 h -1.253906 v -5.625 h -0.785156 l -3.855469,5.46094 v 1.11328 z m 0,-0.94922 h -2.660156 l 2.660156,-3.83203 z m 0,0"
       style="fill:#000000;fill-opacity:1;fill-rule:nonzero;stroke:none"
       aria-label="    5&#10; &#10;0&#10; &#10; &#10;5&#10; &#10; &#10; &#10; &#10;5&#10; &#10;1&#10;2&#10; &#10;4&#10; &#10; &#10;4&#10; "
       transform="matrix(1.3333333,0,0,1.3333333,148.88537,345.1592)" />
    <path
       id="path24"
       d="m 5.2607422,-4.5361094 c -0.023437,-1.2421875 -0.8320313,-1.9335937 -2.2851563,-1.9335937 -1.4648437,0 -2.41406246,0.7617187 -2.41406246,1.921875 0,0.984375 0.50390626,1.453125 1.99218746,1.8164062 l 0.9375,0.2226563 c 0.6914063,0.1640625 0.9726563,0.421875 0.9726563,0.8671875 0,0.5976562 -0.5859375,0.99609373 -1.4648438,0.99609373 -0.5390625,0 -0.9960937,-0.1640625 -1.2421875,-0.42187503 C 1.5927734,-1.2431406 1.5224609,-1.4306406 1.4638672,-1.8759531 H 0.40917969 c 0.046875,1.45312498 0.86718751,2.15624998 2.50781251,2.15624998 1.5820312,0 2.5898437,-0.78515625 2.5898437,-1.99218748 0,-0.9375 -0.5273437,-1.453125 -1.78125,-1.7578125 L 2.7763672,-3.6923594 c -0.8203125,-0.1992187 -1.171875,-0.4570312 -1.171875,-0.9023437 0,-0.5859375 0.515625,-0.9492188 1.3359375,-0.9492188 0.796875,0 1.2304687,0.3515625 1.2539062,1.0078125 z m 0,0"
       style="fill:#008000;fill-opacity:1;fill-rule:nonzero;stroke:none"
       aria-label="s"
       transform="matrix(1.3333333,0,0,1.3333333,189.33333,136.16533)" />
    <path
       id="path25"
       d="m 2.6494766,-3.9955469 h 0.5742187 c 1.1601563,0 1.7695313,0.5390625 1.7695313,1.5820313 0,1.0898437 -0.65625,1.75781247 -1.7578125,1.75781247 -1.1601563,0 -1.7226563,-0.58593747 -1.7929688,-1.86328127 H 0.38775781 c 0.046875,0.6914063 0.1640625,1.1484375 0.375,1.53515627 0.43359379,0.84375 1.26562499,1.265625 2.42578129,1.265625 1.7578125,0 2.8828125,-1.06640625 2.8828125,-2.70703127 0,-1.1015625 -0.421875,-1.6992187 -1.4414063,-2.0625 0.796875,-0.328125 1.1953125,-0.9257812 1.1953125,-1.8046875 0,-1.4882812 -0.9726562,-2.3789062 -2.6015625,-2.3789062 -1.7109375,0 -2.62499999,0.9609375 -2.66015624,2.7890625 H 1.6182266 c 0.011719,-0.5273438 0.058594,-0.8203125 0.1992187,-1.0898438 0.234375,-0.4921875 0.7617188,-0.7851562 1.4179688,-0.7851562 0.9375,0 1.5,0.5742187 1.5,1.5 0,0.6210937 -0.2109375,0.984375 -0.6796875,1.1953125 -0.28125,0.1171875 -0.6679688,0.1640625 -1.40625,0.1757812 z m 0.65625,12.6445313 c -0.796875,0 -1.5117188,0.3515625 -1.9570313,0.9492187 -0.55078124,0.7617189 -0.83203124,1.9101559 -0.83203124,3.5273439 0,2.917969 0.96093754,4.476562 2.78906254,4.476562 1.7929687,0 2.7773437,-1.558593 2.7773437,-4.40625 0,-1.6875 -0.2578125,-2.8125 -0.8203125,-3.5976559 C 4.8174453,8.9888281 4.1026016,8.6489844 3.3057266,8.6489844 Z m 0,0.9375 c 1.1367187,0 1.6992187,1.1601566 1.6992187,3.5156246 0,2.460938 -0.5507812,3.621094 -1.7226562,3.621094 -1.125,0 -1.6875,-1.207031 -1.6875,-3.585937 0,-2.390625 0.5625,-3.5507816 1.7109375,-3.5507816 z M 3.1065078,63.106016 v 6.175781 H 4.1611953 V 60.609922 H 3.4697891 c -0.375,1.324219 -0.609375,1.511719 -2.25,1.722656 v 0.773438 z m 0,0"
       style="fill:#000000;fill-opacity:1;fill-rule:nonzero;stroke:none"
       aria-label="3&#10;0&#10; &#10; &#10;1&#10; &#10; &#10; "
       transform="matrix(1.3333333,0,0,1.3333333,188.88533,160.41333)" />
    <path
       id="path26"
       d="m 5.2607422,-4.5361266 c -0.023437,-1.2421875 -0.8320313,-1.9335937 -2.2851563,-1.9335937 -1.4648437,0 -2.41406246,0.7617187 -2.41406246,1.921875 0,0.984375 0.50390626,1.453125 1.99218746,1.8164062 l 0.9375,0.2226563 c 0.6914063,0.1640625 0.9726563,0.421875 0.9726563,0.8671875 0,0.5976562 -0.5859375,0.99609374 -1.4648438,0.99609374 -0.5390625,0 -0.9960937,-0.1640625 -1.2421875,-0.42187504 C 1.5927734,-1.2431578 1.5224609,-1.4306578 1.4638672,-1.8759703 H 0.40917969 c 0.046875,1.45312499 0.86718751,2.15624999 2.50781251,2.15624999 1.5820312,0 2.5898437,-0.78515625 2.5898437,-1.99218749 0,-0.9375 -0.5273437,-1.453125 -1.78125,-1.7578125 L 2.7763672,-3.6923766 c -0.8203125,-0.1992187 -1.171875,-0.4570312 -1.171875,-0.9023437 0,-0.5859375 0.515625,-0.9492188 1.3359375,-0.9492188 0.796875,0 1.2304687,0.3515625 1.2539062,1.0078125 z m 0,0"
       style="fill:#008000;fill-opacity:1;fill-rule:nonzero;stroke:none"
       aria-label="s"
       transform="matrix(1.3333333,0,0,1.3333333,189.33333,344.0052)" />
    <path
       id="path27"
       d="M 3.9267903,-2.0968656 V 7.90625e-4 H 4.9814778 V -2.0968656 H 6.2353841 V -3.0460844 H 4.9814778 v -5.625 H 4.1963216 l -3.85546879,5.4609375 v 1.1132813 z m 0,-0.9492188 H 1.2666341 L 3.9267903,-6.8781156 Z M 2.6494466,13.325009 h 0.5742187 c 1.1601563,0 1.7695313,0.539063 1.7695313,1.582032 0,1.089843 -0.65625,1.757812 -1.7578125,1.757812 -1.1601563,0 -1.7226563,-0.585937 -1.7929688,-1.863281 H 0.38772781 c 0.046875,0.691406 0.1640625,1.148437 0.375,1.535156 0.43359379,0.84375 1.26562499,1.265625 2.42578129,1.265625 1.7578125,0 2.8828125,-1.066406 2.8828125,-2.707031 0,-1.101563 -0.421875,-1.699219 -1.4414063,-2.0625 0.796875,-0.328125 1.1953125,-0.925781 1.1953125,-1.804688 0,-1.4882809 -0.9726562,-2.3789059 -2.6015625,-2.3789059 -1.7109375,0 -2.62499999,0.9609375 -2.66015624,2.7890629 H 1.6181966 c 0.011719,-0.527344 0.058594,-0.820313 0.1992187,-1.089844 0.234375,-0.4921876 0.7617188,-0.7851564 1.4179688,-0.7851564 0.9375,0 1.5,0.5742184 1.5,1.5000004 0,0.621093 -0.2109375,0.984375 -0.6796875,1.195312 -0.28125,0.117188 -0.6679688,0.164063 -1.40625,0.175781 z m 0.4570312,84.418946 v 6.175785 H 4.1611653 V 95.247861 H 3.4697591 c -0.375,1.324219 -0.609375,1.511719 -2.25,1.722656 v 0.773438 z m 0.8203125,21.398435 v 2.09766 h 1.0546875 v -2.09766 h 1.2539063 v -0.94922 H 4.9814778 v -5.625 H 4.1963216 l -3.85546879,5.46094 v 1.11328 z m 0,-0.94922 H 1.2666341 l 2.6601562,-3.83203 z M 18.305697,-69.292178 c -0.796875,0 -1.511719,0.351562 -1.957032,0.949219 -0.550781,0.761718 -0.832031,1.910156 -0.832031,3.527343 0,2.917969 0.960938,4.476563 2.789063,4.476563 1.792968,0 2.777343,-1.558594 2.777343,-4.40625 0,-1.6875 -0.257812,-2.8125 -0.820312,-3.597656 -0.445313,-0.609375 -1.160156,-0.949219 -1.957031,-0.949219 z m 0,0.9375 c 1.136718,0 1.699218,1.160156 1.699218,3.515625 0,2.460937 -0.550781,3.621094 -1.722656,3.621094 -1.125,0 -1.6875,-1.207032 -1.6875,-3.585938 0,-2.390625 0.5625,-3.550781 1.710938,-3.550781 z m 0,0"
       style="fill:#000000;fill-opacity:1;fill-rule:nonzero;stroke:none"
       aria-label="    4&#10;3&#10; &#10; &#10; &#10; &#10;1&#10;4&#10;0&#10; &#10; &#10; &#10; &#10; "
       transform="matrix(1.3333333,0,0,1.3333333,208.88537,148.86613)" />
    <path
       id="path28"
       d="m 5.2607422,-4.5351719 c -0.023437,-1.2421875 -0.8320313,-1.9335937 -2.2851563,-1.9335937 -1.4648437,0 -2.41406246,0.7617187 -2.41406246,1.921875 0,0.984375 0.50390626,1.453125 1.99218746,1.8164062 l 0.9375,0.2226563 c 0.6914063,0.1640625 0.9726563,0.421875 0.9726563,0.8671875 0,0.5976562 -0.5859375,0.99609373 -1.4648438,0.99609373 -0.5390625,0 -0.9960937,-0.1640625 -1.2421875,-0.42187503 C 1.5927734,-1.2422031 1.5224609,-1.4297031 1.4638672,-1.8750156 H 0.40917969 c 0.046875,1.45312498 0.86718751,2.15624998 2.50781251,2.15624998 1.5820312,0 2.5898437,-0.78515625 2.5898437,-1.99218748 0,-0.9375 -0.5273437,-1.453125 -1.78125,-1.7578125 L 2.7763672,-3.6914219 c -0.8203125,-0.1992187 -1.171875,-0.4570312 -1.171875,-0.9023437 0,-0.5859375 0.515625,-0.9492188 1.3359375,-0.9492188 0.796875,0 1.2304687,0.3515625 1.2539062,1.0078125 z m 0,0"
       style="fill:#008000;fill-opacity:1;fill-rule:nonzero;stroke:none"
       aria-label="s"
       transform="matrix(1.3333333,0,0,1.3333333,229.33333,205.44533)" />
    <path
       id="path29"
       d="m 3.1065078,-6.1772266 v 6.17578129 H 4.1611953 V -8.6733203 H 3.4697891 c -0.375,1.3242187 -0.609375,1.5117187 -2.25,1.7226562 v 0.7734375 z M 18.106508,-66.795391 v 6.175782 h 1.054687 v -8.671875 h -0.691406 c -0.375,1.324218 -0.609375,1.511718 -2.25,1.722656 v 0.773437 z m -0.457031,36.820313 h 0.574218 c 1.160157,0 1.769532,0.539062 1.769532,1.582031 0,1.089844 -0.65625,1.757813 -1.757813,1.757813 -1.160156,0 -1.722656,-0.585938 -1.792969,-1.863282 h -1.054687 c 0.04687,0.691407 0.164062,1.148438 0.375,1.535157 0.433594,0.84375 1.265625,1.265625 2.425781,1.265625 1.757813,0 2.882813,-1.066407 2.882813,-2.707032 0,-1.101562 -0.421875,-1.699218 -1.441407,-2.0625 0.796875,-0.328125 1.195313,-0.925781 1.195313,-1.804687 0,-1.488281 -0.972656,-2.378906 -2.601563,-2.378906 -1.710937,0 -2.625,0.960937 -2.660156,2.789062 h 1.054688 c 0.01172,-0.527344 0.05859,-0.820312 0.199218,-1.089844 0.234375,-0.492187 0.761719,-0.785156 1.417969,-0.785156 0.9375,0 1.5,0.574219 1.5,1.5 0,0.621094 -0.210937,0.984375 -0.679687,1.195313 -0.28125,0.117187 -0.667969,0.164062 -1.40625,0.175781 z m 0,0"
       style="fill:#000000;fill-opacity:1;fill-rule:nonzero;stroke:none"
       aria-label="1&#10; &#10; &#10; &#10;1&#10; &#10;3&#10; &#10; &#10; &#10; "
       transform="matrix(1.3333333,0,0,1.3333333,228.88533,229.69333)" />
    <path
       id="path30"
       d="m 5.2607422,-4.5364953 c -0.023437,-1.2421875 -0.8320313,-1.9335938 -2.2851563,-1.9335938 -1.4648437,0 -2.41406246,0.7617188 -2.41406246,1.921875 0,0.984375 0.50390626,1.453125 1.99218746,1.8164063 l 0.9375,0.2226562 c 0.6914063,0.1640625 0.9726563,0.421875 0.9726563,0.8671875 0,0.5976563 -0.5859375,0.99609379 -1.4648438,0.99609379 -0.5390625,0 -0.9960937,-0.1640625 -1.2421875,-0.42187499 C 1.5927734,-1.2435266 1.5224609,-1.4310266 1.4638672,-1.8763391 H 0.40917969 c 0.046875,1.45312504 0.86718751,2.15625004 2.50781251,2.15625004 1.5820312,0 2.5898437,-0.78515625 2.5898437,-1.99218754 0,-0.9375 -0.5273437,-1.453125 -1.78125,-1.7578125 L 2.7763672,-3.6927453 c -0.8203125,-0.1992188 -1.171875,-0.4570313 -1.171875,-0.9023438 0,-0.5859375 0.515625,-0.9492187 1.3359375,-0.9492187 0.796875,0 1.2304687,0.3515625 1.2539062,1.0078125 z m 0,0"
       style="fill:#008000;fill-opacity:1;fill-rule:nonzero;stroke:none"
       aria-label="s"
       transform="matrix(1.3333333,0,0,1.3333333,249.33333,309.36507)" />
    <path
       id="path31"
       d="M 3.1064778,-6.1753469 V 4.34375e-4 H 4.1611653 V -8.6714406 H 3.4697591 c -0.375,1.3242187 -0.609375,1.5117187 -2.25,1.7226562 v 0.7734375 z M 2.6494466,65.282661 h 0.5742187 c 1.1601563,0 1.7695313,0.539062 1.7695313,1.582031 0,1.089844 -0.65625,1.757813 -1.7578125,1.757813 -1.1601563,0 -1.7226563,-0.585938 -1.7929688,-1.863282 H 0.38772781 c 0.046875,0.691407 0.1640625,1.148438 0.375,1.535157 0.43359379,0.84375 1.26562499,1.265625 2.42578129,1.265625 1.7578125,0 2.8828125,-1.066407 2.8828125,-2.707032 0,-1.101562 -0.421875,-1.699218 -1.4414063,-2.0625 0.796875,-0.328125 1.1953125,-0.925781 1.1953125,-1.804687 0,-1.488281 -0.9726562,-2.378906 -2.6015625,-2.378906 -1.7109375,0 -2.62499999,0.960937 -2.66015624,2.789062 H 1.6181966 c 0.011719,-0.527344 0.058594,-0.820312 0.1992187,-1.089844 0.234375,-0.492187 0.7617188,-0.785156 1.4179688,-0.785156 0.9375,0 1.5,0.574219 1.5,1.5 0,0.621094 -0.2109375,0.984375 -0.6796875,1.195313 -0.28125,0.117187 -0.6679688,0.164062 -1.40625,0.175781 z m 0,17.320312 h 0.5742187 c 1.1601563,0 1.7695313,0.539063 1.7695313,1.582032 0,1.089843 -0.65625,1.757812 -1.7578125,1.757812 -1.1601563,0 -1.7226563,-0.585937 -1.7929688,-1.863281 H 0.38772781 c 0.046875,0.691406 0.1640625,1.148437 0.375,1.535156 0.43359379,0.84375 1.26562499,1.265625 2.42578129,1.265625 1.7578125,0 2.8828125,-1.066406 2.8828125,-2.707031 0,-1.101563 -0.421875,-1.699219 -1.4414063,-2.0625 0.796875,-0.328125 1.1953125,-0.925781 1.1953125,-1.804688 0,-1.488281 -0.9726562,-2.378906 -2.6015625,-2.378906 -1.7109375,0 -2.62499999,0.960938 -2.66015624,2.789063 H 1.6181966 c 0.011719,-0.527344 0.058594,-0.820313 0.1992187,-1.089844 0.234375,-0.492188 0.7617188,-0.785156 1.4179688,-0.785156 0.9375,0 1.5,0.574218 1.5,1.5 0,0.621093 -0.2109375,0.984375 -0.6796875,1.195312 -0.28125,0.117188 -0.6679688,0.164063 -1.40625,0.175781 z m 0,0"
       style="fill:#000000;fill-opacity:1;fill-rule:nonzero;stroke:none"
       aria-label="  1&#10; &#10; &#10; &#10;3&#10;3"
       transform="matrix(1.3333333,0,0,1.3333333,268.88537,137.31973)" />
    <path
       id="path32"
       d="m 5.2607422,-4.5343344 c -0.023437,-1.2421875 -0.8320313,-1.9335937 -2.2851563,-1.9335937 -1.4648437,0 -2.41406246,0.7617187 -2.41406246,1.921875 0,0.984375 0.50390626,1.453125 1.99218746,1.8164062 l 0.9375,0.2226563 c 0.6914063,0.1640625 0.9726563,0.421875 0.9726563,0.8671875 0,0.5976562 -0.5859375,0.99609373 -1.4648438,0.99609373 -0.5390625,0 -0.9960937,-0.1640625 -1.2421875,-0.42187503 C 1.5927734,-1.2413656 1.5224609,-1.4288656 1.4638672,-1.8741781 H 0.40917969 c 0.046875,1.45312498 0.86718751,2.15624998 2.50781251,2.15624998 1.5820312,0 2.5898437,-0.78515625 2.5898437,-1.99218748 0,-0.9375 -0.5273437,-1.453125 -1.78125,-1.7578125 L 2.7763672,-3.6905844 c -0.8203125,-0.1992187 -1.171875,-0.4570312 -1.171875,-0.9023437 0,-0.5859375 0.515625,-0.9492188 1.3359375,-0.9492188 0.796875,0 1.2304687,0.3515625 1.2539062,1.0078125 z m 0,0"
       style="fill:#008000;fill-opacity:1;fill-rule:nonzero;stroke:none"
       aria-label="s"
       transform="matrix(1.3333333,0,0,1.3333333,269.33333,274.72547)" />
    <path
       id="path33"
       d="M 6.0713516,-1.0435766 H 1.5947891 c 0.1054687,-0.7265625 0.4921875,-1.171875 1.5351562,-1.8164062 l 1.2070313,-0.6679688 c 1.1835937,-0.65625 1.7929687,-1.546875 1.7929687,-2.6132812 0,-0.7265625 -0.28125,-1.3945313 -0.7851562,-1.8632813 -0.5039063,-0.4570312 -1.1367188,-0.6679687 -1.9335938,-0.6679687 -1.078125,0 -1.8867187,0.375 -2.3554687,1.125 -0.29296879,0.4570312 -0.43359379,0.9960937 -0.45703129,1.875 H 1.6533828 c 0.035156,-0.5976563 0.1171875,-0.9375 0.2578125,-1.2304688 0.2695313,-0.5273437 0.8203125,-0.8554687 1.4648438,-0.8554687 0.9609375,0 1.6757812,0.703125 1.6757812,1.640625 0,0.6914062 -0.3984375,1.2890625 -1.1484375,1.7226562 l -1.1015625,0.65625 c -1.78125,1.0195313 -2.29687499,1.828125 -2.39062499,3.72656254 H 6.0713516 Z M 20.70807,-155.72815 h -4.382812 l -0.644531,4.62891 h 0.972656 c 0.492187,-0.58594 0.902344,-0.78516 1.570312,-0.78516 1.148438,0 1.851563,0.77344 1.851563,2.03907 0,1.21875 -0.703125,1.96875 -1.863281,1.96875 -0.914063,0 -1.488282,-0.46875 -1.734375,-1.42969 h -1.054688 c 0.140625,0.6914 0.257813,1.03125 0.515625,1.34765 0.480469,0.64454 1.347656,1.01954 2.296875,1.01954 1.722656,0 2.917969,-1.25391 2.917969,-3.0586 0,-1.67578 -1.113281,-2.82422 -2.742188,-2.82422 -0.597656,0 -1.078125,0.15235 -1.570312,0.51563 l 0.328125,-2.37891 h 3.539062 z m -1.78125,41.05078 v 2.09766 h 1.054688 v -2.09766 h 1.253906 v -0.94921 h -1.253906 v -5.625 h -0.785156 l -3.855469,5.46093 v 1.11328 z m 0,-0.94921 h -2.660156 l 2.660156,-3.83204 z m -1.277343,16.371089 h 0.574218 c 1.160157,0 1.769532,0.539063 1.769532,1.582032 0,1.089843 -0.65625,1.757812 -1.757813,1.757812 -1.160156,0 -1.722656,-0.585937 -1.792969,-1.863281 h -1.054687 c 0.04687,0.691406 0.164062,1.148437 0.375,1.535156 0.433594,0.84375 1.265625,1.265625 2.425781,1.265625 1.757813,0 2.882813,-1.066406 2.882813,-2.707031 0,-1.101563 -0.421875,-1.699219 -1.441407,-2.0625 0.796875,-0.328122 1.195313,-0.925782 1.195313,-1.804692 0,-1.48828 -0.972656,-2.3789 -2.601563,-2.3789 -1.710937,0 -2.625,0.96094 -2.660156,2.78906 h 1.054688 c 0.01172,-0.52734 0.05859,-0.82031 0.199218,-1.08984 0.234375,-0.49219 0.761719,-0.78516 1.417969,-0.78516 0.9375,0 1.5,0.57422 1.5,1.5 0,0.62109 -0.210937,0.98438 -0.679687,1.19531 -0.28125,0.11719 -0.667969,0.16407 -1.40625,0.17578 z m 3.421875,37.59375 h -4.476563 c 0.105469,-0.726562 0.492188,-1.171875 1.535156,-1.816406 l 1.207032,-0.667969 c 1.183593,-0.65625 1.792968,-1.546875 1.792968,-2.613281 0,-0.726562 -0.28125,-1.394531 -0.785156,-1.863281 -0.503906,-0.457031 -1.136719,-0.667969 -1.933594,-0.667969 -1.078125,0 -1.886718,0.375 -2.355468,1.125 -0.292969,0.457031 -0.433594,0.996094 -0.457032,1.875 h 1.054688 c 0.03516,-0.597656 0.117187,-0.9375 0.257812,-1.230469 0.269532,-0.527343 0.820313,-0.855468 1.464844,-0.855468 0.960938,0 1.675781,0.703125 1.675781,1.640625 0,0.691406 -0.398437,1.289062 -1.148437,1.722656 l -1.101563,0.65625 c -1.78125,1.019531 -2.296875,1.828125 -2.390625,3.726562 h 5.660157 z m 0,0"
       style="fill:#000000;fill-opacity:1;fill-rule:nonzero;stroke:none"
       aria-label="2&#10;5&#10; &#10;4&#10;3&#10; &#10;2"
       transform="matrix(1.3333333,0,0,1.3333333,268.88533,298.97347)" />
    <path
       id="path34"
       d="m 5.2607422,-4.5348031 c -0.023437,-1.2421875 -0.8320313,-1.9335938 -2.2851563,-1.9335938 -1.4648437,0 -2.41406246,0.7617188 -2.41406246,1.921875 0,0.984375 0.50390626,1.453125 1.99218746,1.8164063 l 0.9375,0.2226562 c 0.6914063,0.1640625 0.9726563,0.421875 0.9726563,0.8671875 0,0.5976563 -0.5859375,0.99609378 -1.4648438,0.99609378 -0.5390625,0 -0.9960937,-0.1640625 -1.2421875,-0.42187498 C 1.5927734,-1.2418344 1.5224609,-1.4293344 1.4638672,-1.8746469 H 0.40917969 c 0.046875,1.45312503 0.86718751,2.15625003 2.50781251,2.15625003 1.5820312,0 2.5898437,-0.78515625 2.5898437,-1.99218753 0,-0.9375 -0.5273437,-1.453125 -1.78125,-1.7578125 L 2.7763672,-3.6910531 c -0.8203125,-0.1992188 -1.171875,-0.4570313 -1.171875,-0.9023438 0,-0.5859375 0.515625,-0.9492187 1.3359375,-0.9492187 0.796875,0 1.2304687,0.3515625 1.2539062,1.0078125 z m 0,0"
       style="fill:#008000;fill-opacity:1;fill-rule:nonzero;stroke:none"
       aria-label="s"
       transform="matrix(1.3333333,0,0,1.3333333,289.33333,240.08547)" />
    <path
       id="path35"
       d="M 3.9268203,-2.0977344 V -7.8125e-5 H 4.9815078 V -2.0977344 H 6.2354141 V -3.0469531 H 4.9815078 v -5.625 H 4.1963516 l -3.85546879,5.4609375 v 1.1132812 z m 0,-0.9492187 H 1.2666641 l 2.6601562,-3.8320313 z m 0,0"
       style="fill:#000000;fill-opacity:1;fill-rule:nonzero;stroke:none"
       aria-label="4&#10; "
       transform="matrix(1.3333333,0,0,1.3333333,308.88533,114.22667)" />
    <path
       id="path36"
       d="m 5.2607422,-4.5357969 c -0.023437,-1.2421875 -0.8320313,-1.9335937 -2.2851563,-1.9335937 -1.4648437,0 -2.41406246,0.7617187 -2.41406246,1.921875 0,0.984375 0.50390626,1.453125 1.99218746,1.8164062 l 0.9375,0.2226563 c 0.6914063,0.1640625 0.9726563,0.421875 0.9726563,0.8671875 0,0.5976562 -0.5859375,0.99609373 -1.4648438,0.99609373 -0.5390625,0 -0.9960937,-0.1640625 -1.2421875,-0.42187503 C 1.5927734,-1.2428281 1.5224609,-1.4303281 1.4638672,-1.8756406 H 0.40917969 c 0.046875,1.45312498 0.86718751,2.15624998 2.50781251,2.15624998 1.5820312,0 2.5898437,-0.78515625 2.5898437,-1.99218748 0,-0.9375 -0.5273437,-1.453125 -1.78125,-1.7578125 L 2.7763672,-3.6920469 c -0.8203125,-0.1992187 -1.171875,-0.4570312 -1.171875,-0.9023437 0,-0.5859375 0.515625,-0.9492188 1.3359375,-0.9492188 0.796875,0 1.2304687,0.3515625 1.2539062,1.0078125 z m 0,17.3203129 c -0.023437,-1.242188 -0.8320313,-1.933594 -2.2851563,-1.933594 -1.4648437,0 -2.41406246,0.761719 -2.41406246,1.921875 0,0.984375 0.50390626,1.453125 1.99218746,1.816406 l 0.9375,0.222656 c 0.6914063,0.164063 0.9726563,0.421875 0.9726563,0.867188 0,0.597656 -0.5859375,0.996094 -1.4648438,0.996094 -0.5390625,0 -0.9960937,-0.164063 -1.2421875,-0.421875 C 1.5927734,16.077484 1.5224609,15.889984 1.4638672,15.444672 H 0.40917969 c 0.046875,1.453125 0.86718751,2.15625 2.50781251,2.15625 1.5820312,0 2.5898437,-0.785156 2.5898437,-1.992188 0,-0.9375 -0.5273437,-1.453125 -1.78125,-1.757812 L 2.7763672,13.628266 c -0.8203125,-0.199219 -1.171875,-0.457032 -1.171875,-0.902344 0,-0.585938 0.515625,-0.949219 1.3359375,-0.949219 0.796875,0 1.2304687,0.351563 1.2539062,1.007813 z m 0,0"
       style="fill:#008000;fill-opacity:1;fill-rule:nonzero;stroke:none"
       aria-label="s&#10;s"
       transform="matrix(1.3333333,0,0,1.3333333,309.33333,159.25867)" />
    <path
       id="path37"
       d="M 6.0713216,-1.0439016 H 1.5947591 c 0.1054687,-0.7265625 0.4921875,-1.171875 1.5351562,-1.8164062 l 1.2070313,-0.6679688 c 1.1835937,-0.65625 1.7929687,-1.546875 1.7929687,-2.6132812 0,-0.7265625 -0.28125,-1.3945313 -0.7851562,-1.8632813 -0.5039063,-0.4570312 -1.1367188,-0.6679687 -1.9335938,-0.6679687 -1.078125,0 -1.8867187,0.375 -2.3554687,1.125 -0.29296879,0.4570312 -0.43359379,0.9960937 -0.45703129,1.875 H 1.6533528 c 0.035156,-0.5976563 0.1171875,-0.9375 0.2578125,-1.2304688 0.2695313,-0.5273437 0.8203125,-0.8554687 1.4648438,-0.8554687 0.9609375,0 1.6757812,0.703125 1.6757812,1.640625 0,0.6914062 -0.3984375,1.2890625 -1.1484375,1.7226562 l -1.1015625,0.65625 c -1.78125,1.0195313 -2.29687499,1.828125 -2.39062499,3.72656254 H 6.0713216 Z M 2.6494466,13.323286 h 0.5742187 c 1.1601563,0 1.7695313,0.539062 1.7695313,1.582031 0,1.089844 -0.65625,1.757813 -1.7578125,1.757813 -1.1601563,0 -1.7226563,-0.585938 -1.7929688,-1.863282 H 0.38772781 c 0.046875,0.691407 0.1640625,1.148438 0.375,1.535157 0.43359379,0.84375 1.26562499,1.265625 2.42578129,1.265625 1.7578125,0 2.8828125,-1.066407 2.8828125,-2.707032 0,-1.101562 -0.421875,-1.699218 -1.4414063,-2.0625 0.796875,-0.328125 1.1953125,-0.925781 1.1953125,-1.804687 0,-1.4882813 -0.9726562,-2.3789063 -2.6015625,-2.3789063 -1.7109375,0 -2.62499999,0.9609375 -2.66015624,2.7890623 H 1.6181966 c 0.011719,-0.527344 0.058594,-0.820312 0.1992187,-1.089844 0.234375,-0.4921871 0.7617188,-0.7851558 1.4179688,-0.7851558 0.9375,0 1.5,0.5742188 1.5,1.4999998 0,0.621094 -0.2109375,0.984375 -0.6796875,1.195313 -0.28125,0.117187 -0.6679688,0.164062 -1.40625,0.175781 z m 0,0"
       style="fill:#000000;fill-opacity:1;fill-rule:nonzero;stroke:none"
       aria-label="  2&#10;3"
       transform="matrix(1.3333333,0,0,1.3333333,308.88537,252.7864)" />
    <path
       id="path38"
       d="m 200,1900 -50,86.6 50,86.6 h 100 l 50,-86.6 -50,-86.6 50,-86.6 h 100 l 50,86.6 h 100 l 50,86.6 h 100 l 50,-86.6 h 100 l 50,-86.6 h 100 l 50,86.6 h 100 l 50,-86.6 h 100 l 50,86.6 -50,86.6 h -100 l -50,86.6 h -100 l -50,86.6 H 950 l -50,86.6 H 800 l -50,86.6 50,86.6 h 100 l 50,-86.6 h 100 l 50,-86.6 h 100 l 50,-86.6 h 100 l 50,86.6 h 100 l 50,-86.6 -50,-86.6 50,-86.6 -50,-86.6 50,-86.6 h 100 l 50,-86.6 h 100 l 50,-86.6 -50,-86.6 50,-86.6 h 100 l 50,-86.6 h 100 l 50,-86.6 h 100 l 50,86.6 -50,86.6 50,86.6 -50,86.6 h -100 l -50,86.6 50,86.6 h 100 l 50,86.6 -50,86.6 h -100 l -50,86.6 50,86.6 h 100 l 50,-86.6 h 100 l 50,-86.6 -50,-86.6 50,-86.6 -50,-86.6 50,-86.6 -50,-86.6 50,-86.6 -50,-86.6 50,-86.6 -50,-86.6 50,-86.6 -50,-86.6 50,-86.602 -50,-86.597 50,-86.602 -50,-86.597 H 2300 L 2250,601 h -100 l -50,-86.602 h -100 l -50,-86.597 h -100 l -50,-86.602 h -100 l -50,-86.597 H 1550 L 1500,168 H 1400 L 1350,81.3984 H 1250 L 1200,168 h -100 l -50,86.602 50,86.597 h 100 l 50,-86.597 h 100 l 50,86.597 -50,86.602 50,86.597 -50,86.602 50,86.602 h 100 l 50,-86.602 -50,-86.602 50,-86.597 h 100 l 50,86.597 h 100 l 50,86.602 -50,86.602 50,86.597 h 100 l 50,86.602 h 100 l 50,86.597 -50,86.602 50,86.6 -50,86.6 h -100 l -50,86.6 h -100 l -50,-86.6 h -100 l -50,86.6 50,86.6 -50,86.6 50,86.6 -50,86.6 h -100 l -50,86.6 h -100 l -50,-86.6 h -100 l -50,86.6 h -100 l -50,-86.6 H 950 l -50,86.6 H 800 l -50,86.6 H 650 l -50,-86.6 H 500 l -50,-86.6 50,-86.6 -50,-86.6 50,-86.6 h 100 l 50,-86.6 h 100 l 50,-86.6 h 100 l 50,-86.6 h 100 l 50,86.6 h 100 l 50,-86.6 h 100 l 50,-86.6 -50,-86.602 H 1250 L 1200,1034 h -100 l -50,-86.602 H 950 L 900,860.801 950,774.199 900,687.602 950,601 900,514.398 H 800 L 750,601 H 650 l -50,86.602 50,86.597 -50,86.602 50,86.597 h 100 l 50,86.602 -50,86.6 H 650 l -50,86.6 H 500 l -50,86.6 H 350 l -50,-86.6 H 200 l -50,86.6 50,86.6 h 100 l 50,86.6 -50,86.6 50,86.6 -50,86.6 H 200 l -50,86.6 50,86.6"
       style="fill:none;stroke:#000000;stroke-width:16;stroke-linecap:butt;stroke-linejoin:miter;stroke-miterlimit:10;stroke-dasharray:none;stroke-opacity:1"
       transform="matrix(0.13333333,0,0,-0.13333333,0,373.33333)" />
  </g>
</svg>
