<?xml version="1.0" encoding="UTF-8" standalone="no"?>
<!-- Created with Inkscape (http://www.inkscape.org/) -->

<svg
   version="1.1"
   id="svg1"
   width="346.66666"
   height="373.33334"
   viewBox="0 0 346.66666 373.33334"
   sodipodi:docname="sheepwolves-day5-sol.pdf"
   xmlns:inkscape="http://www.inkscape.org/namespaces/inkscape"
   xmlns:sodipodi="http://sodipodi.sourceforge.net/DTD/sodipodi-0.dtd"
   xmlns="http://www.w3.org/2000/svg"
   xmlns:svg="http://www.w3.org/2000/svg">
  <defs
     id="defs1" />
  <sodipodi:namedview
     id="namedview1"
     pagecolor="#ffffff"
     bordercolor="#666666"
     borderopacity="1.0"
     inkscape:showpageshadow="2"
     inkscape:pageopacity="0.0"
     inkscape:pagecheckerboard="0"
     inkscape:deskcolor="#d1d1d1">
    <inkscape:page
       x="0"
       y="0"
       inkscape:label="1"
       id="page1"
       width="346.66666"
       height="373.33334"
       margin="0"
       bleed="0" />
  </sodipodi:namedview>
  <g
     id="g1"
     inkscape:groupmode="layer"
     inkscape:label="1">
    <path
       id="path1"
       d="m 200,1900 h 100 l 50,86.6 -50,86.6 H 200 l -50,-86.6 50,-86.6 m 0,-173.2 h 100 l 50,86.6 -50,86.6 H 200 l -50,-86.6 50,-86.6 m 0,-173.2 h 100 l 50,86.6 -50,86.6 H 200 l -50,-86.6 50,-86.6 m 0,-173.2 h 100 l 50,86.6 -50,86.6 H 200 l -50,-86.6 50,-86.6 m 0,-173.2 h 100 l 50,86.6 -50,86.6 H 200 l -50,-86.6 50,-86.6 m 0,-173.2 h 100 l 50,86.6 -50,86.6 H 200 l -50,-86.6 50,-86.6 m 0,-173.199 H 300 L 350,947.398 300,1034 H 200 l -50,-86.602 50,-86.597 m 0,-173.199 h 100 l 50,86.597 -50,86.602 H 200 l -50,-86.602 50,-86.597"
       style="fill:none;stroke:#000000;stroke-width:4;stroke-linecap:butt;stroke-linejoin:miter;stroke-miterlimit:10;stroke-dasharray:10, 20, 10, 20, 10, 20, 10, 0;stroke-dashoffset:800;stroke-opacity:1"
       transform="matrix(0.13333333,0,0,-0.13333333,0,373.33333)" />
    <path
       id="path2"
       d="m 350,1986.6 h 100 l 50,86.6 -50,86.6 H 350 l -50,-86.6 50,-86.6 m 0,-173.2 h 100 l 50,86.6 -50,86.6 H 350 l -50,-86.6 50,-86.6 m 0,-173.2 h 100 l 50,86.6 -50,86.6 H 350 l -50,-86.6 50,-86.6 m 0,-173.2 h 100 l 50,86.6 -50,86.6 H 350 l -50,-86.6 50,-86.6 m 0,-173.2 h 100 l 50,86.6 -50,86.6 H 350 l -50,-86.6 50,-86.6 m 0,-173.2 h 100 l 50,86.6 -50,86.6 H 350 l -50,-86.6 50,-86.6 m 0,-173.202 h 100 l 50,86.602 -50,86.6 H 350 l -50,-86.6 50,-86.602 m 0,-173.199 h 100 l 50,86.602 -50,86.597 H 350 l -50,-86.597 50,-86.602 M 350,601 h 100 l 50,86.602 -50,86.597 H 350 L 300,687.602 350,601"
       style="fill:none;stroke:#000000;stroke-width:4;stroke-linecap:butt;stroke-linejoin:miter;stroke-miterlimit:10;stroke-dasharray:10, 20, 10, 20, 10, 20, 10, 0;stroke-dashoffset:800;stroke-opacity:1"
       transform="matrix(0.13333333,0,0,-0.13333333,0,373.33333)" />
    <path
       id="path3"
       d="m 500,2073.2 h 100 l 50,86.6 -50,86.6 H 500 l -50,-86.6 50,-86.6 m 0,-173.2 h 100 l 50,86.6 -50,86.6 H 500 l -50,-86.6 50,-86.6 m 0,-173.2 h 100 l 50,86.6 -50,86.6 H 500 l -50,-86.6 50,-86.6 m 0,-173.2 h 100 l 50,86.6 -50,86.6 H 500 l -50,-86.6 50,-86.6 m 0,-173.2 h 100 l 50,86.6 -50,86.6 H 500 l -50,-86.6 50,-86.6 m 0,-173.2 h 100 l 50,86.6 -50,86.6 H 500 l -50,-86.6 50,-86.6 m 0,-173.2 h 100 l 50,86.6 -50,86.6 H 500 l -50,-86.6 50,-86.6 m 0,-173.199 H 600 L 650,947.398 600,1034 H 500 l -50,-86.602 50,-86.597 m 0,-173.199 h 100 l 50,86.597 -50,86.602 H 500 l -50,-86.602 50,-86.597 m 0,-173.204 H 600 L 650,601 600,687.602 H 500 L 450,601 500,514.398"
       style="fill:none;stroke:#000000;stroke-width:4;stroke-linecap:butt;stroke-linejoin:miter;stroke-miterlimit:10;stroke-dasharray:10, 20, 10, 20, 10, 20, 10, 0;stroke-dashoffset:800;stroke-opacity:1"
       transform="matrix(0.13333333,0,0,-0.13333333,0,373.33333)" />
    <path
       id="path4"
       d="m 650,2159.8 h 100 l 50,86.6 -50,86.6 H 650 l -50,-86.6 50,-86.6 m 0,-173.2 h 100 l 50,86.6 -50,86.6 H 650 l -50,-86.6 50,-86.6 m 0,-173.2 h 100 l 50,86.6 -50,86.6 H 650 l -50,-86.6 50,-86.6 m 0,-173.2 h 100 l 50,86.6 -50,86.6 H 650 l -50,-86.6 50,-86.6 m 0,-173.2 h 100 l 50,86.6 -50,86.6 H 650 l -50,-86.6 50,-86.6 m 0,-173.2 h 100 l 50,86.6 -50,86.6 H 650 l -50,-86.6 50,-86.6 m 0,-173.2 h 100 l 50,86.6 -50,86.6 H 650 l -50,-86.6 50,-86.6 m 0,-173.202 h 100 l 50,86.602 -50,86.6 H 650 l -50,-86.6 50,-86.602 m 0,-173.199 h 100 l 50,86.602 -50,86.597 H 650 l -50,-86.597 50,-86.602 M 650,601 h 100 l 50,86.602 -50,86.597 H 650 L 600,687.602 650,601 m 0,-173.199 H 750 L 800,514.398 750,601 H 650 l -50,-86.602 50,-86.597"
       style="fill:none;stroke:#000000;stroke-width:4;stroke-linecap:butt;stroke-linejoin:miter;stroke-miterlimit:10;stroke-dasharray:10, 20, 10, 20, 10, 20, 10, 0;stroke-dashoffset:800;stroke-opacity:1"
       transform="matrix(0.13333333,0,0,-0.13333333,0,373.33333)" />
    <path
       id="path5"
       d="m 800,2246.4 h 100 l 50,86.6 -50,86.6 H 800 l -50,-86.6 50,-86.6 m 0,-173.2 h 100 l 50,86.6 -50,86.6 H 800 l -50,-86.6 50,-86.6 m 0,-173.2 h 100 l 50,86.6 -50,86.6 H 800 l -50,-86.6 50,-86.6 m 0,-173.2 h 100 l 50,86.6 -50,86.6 H 800 l -50,-86.6 50,-86.6 m 0,-173.2 h 100 l 50,86.6 -50,86.6 H 800 l -50,-86.6 50,-86.6 m 0,-173.2 h 100 l 50,86.6 -50,86.6 H 800 l -50,-86.6 50,-86.6 m 0,-173.2 h 100 l 50,86.6 -50,86.6 H 800 l -50,-86.6 50,-86.6 m 0,-173.2 h 100 l 50,86.6 -50,86.6 H 800 l -50,-86.6 50,-86.6 m 0,-173.199 H 900 L 950,947.398 900,1034 H 800 l -50,-86.602 50,-86.597 m 0,-173.199 h 100 l 50,86.597 -50,86.602 H 800 l -50,-86.602 50,-86.597 m 0,-173.204 H 900 L 950,601 900,687.602 H 800 L 750,601 800,514.398 m 0,-173.199 h 100 l 50,86.602 -50,86.597 H 800 l -50,-86.597 50,-86.602"
       style="fill:none;stroke:#000000;stroke-width:4;stroke-linecap:butt;stroke-linejoin:miter;stroke-miterlimit:10;stroke-dasharray:10, 20, 10, 20, 10, 20, 10, 0;stroke-dashoffset:800;stroke-opacity:1"
       transform="matrix(0.13333333,0,0,-0.13333333,0,373.33333)" />
    <path
       id="path6"
       d="m 950,2333 h 100 l 50,86.6 -50,86.6 H 950 l -50,-86.6 50,-86.6 m 0,-173.2 h 100 l 50,86.6 -50,86.6 H 950 l -50,-86.6 50,-86.6 m 0,-173.2 h 100 l 50,86.6 -50,86.6 H 950 l -50,-86.6 50,-86.6 m 0,-173.2 h 100 l 50,86.6 -50,86.6 H 950 l -50,-86.6 50,-86.6 m 0,-173.2 h 100 l 50,86.6 -50,86.6 H 950 l -50,-86.6 50,-86.6 m 0,-173.2 h 100 l 50,86.6 -50,86.6 H 950 l -50,-86.6 50,-86.6 m 0,-173.2 h 100 l 50,86.6 -50,86.6 H 950 l -50,-86.6 50,-86.6 m 0,-173.2 h 100 l 50,86.6 -50,86.6 H 950 l -50,-86.6 50,-86.6 m 0,-173.202 h 100 l 50,86.602 -50,86.6 H 950 l -50,-86.6 50,-86.602 m 0,-173.199 h 100 l 50,86.602 -50,86.597 H 950 l -50,-86.597 50,-86.602 M 950,601 h 100 l 50,86.602 -50,86.597 H 950 L 900,687.602 950,601 m 0,-173.199 h 100 l 50,86.597 L 1050,601 H 950 l -50,-86.602 50,-86.597 m 0,-173.199 h 100 l 50,86.597 -50,86.602 H 950 l -50,-86.602 50,-86.597"
       style="fill:none;stroke:#000000;stroke-width:4;stroke-linecap:butt;stroke-linejoin:miter;stroke-miterlimit:10;stroke-dasharray:10, 20, 10, 20, 10, 20, 10, 0;stroke-dashoffset:800;stroke-opacity:1"
       transform="matrix(0.13333333,0,0,-0.13333333,0,373.33333)" />
    <path
       id="path7"
       d="m 1100,2419.6 h 100 l 50,86.6 -50,86.6 h -100 l -50,-86.6 50,-86.6 m 0,-173.2 h 100 l 50,86.6 -50,86.6 h -100 l -50,-86.6 50,-86.6 m 0,-173.2 h 100 l 50,86.6 -50,86.6 h -100 l -50,-86.6 50,-86.6 m 0,-173.2 h 100 l 50,86.6 -50,86.6 h -100 l -50,-86.6 50,-86.6 m 0,-173.2 h 100 l 50,86.6 -50,86.6 h -100 l -50,-86.6 50,-86.6 m 0,-173.2 h 100 l 50,86.6 -50,86.6 h -100 l -50,-86.6 50,-86.6 m 0,-173.2 h 100 l 50,86.6 -50,86.6 h -100 l -50,-86.6 50,-86.6 m 0,-173.2 h 100 l 50,86.6 -50,86.6 h -100 l -50,-86.6 50,-86.6 m 0,-173.2 h 100 l 50,86.6 -50,86.6 h -100 l -50,-86.6 50,-86.6 m 0,-173.199 h 100 l 50,86.597 -50,86.602 h -100 l -50,-86.602 50,-86.597 m 0,-173.199 h 100 l 50,86.597 -50,86.602 h -100 l -50,-86.602 50,-86.597 m 0,-173.204 h 100 l 50,86.602 -50,86.602 H 1100 L 1050,601 l 50,-86.602 m 0,-173.199 h 100 l 50,86.602 -50,86.597 h -100 l -50,-86.597 50,-86.602 M 1100,168 h 100 l 50,86.602 -50,86.597 H 1100 L 1050,254.602 1100,168"
       style="fill:none;stroke:#000000;stroke-width:4;stroke-linecap:butt;stroke-linejoin:miter;stroke-miterlimit:10;stroke-dasharray:10, 20, 10, 20, 10, 20, 10, 0;stroke-dashoffset:800;stroke-opacity:1"
       transform="matrix(0.13333333,0,0,-0.13333333,0,373.33333)" />
    <path
       id="path8"
       d="m 1250,2506.2 h 100 l 50,86.6 -50,86.6 h -100 l -50,-86.6 50,-86.6 m 0,-173.2 h 100 l 50,86.6 -50,86.6 h -100 l -50,-86.6 50,-86.6 m 0,-173.2 h 100 l 50,86.6 -50,86.6 h -100 l -50,-86.6 50,-86.6 m 0,-173.2 h 100 l 50,86.6 -50,86.6 h -100 l -50,-86.6 50,-86.6 m 0,-173.2 h 100 l 50,86.6 -50,86.6 h -100 l -50,-86.6 50,-86.6 m 0,-173.2 h 100 l 50,86.6 -50,86.6 h -100 l -50,-86.6 50,-86.6 m 0,-173.2 h 100 l 50,86.6 -50,86.6 h -100 l -50,-86.6 50,-86.6 m 0,-173.2 h 100 l 50,86.6 -50,86.6 h -100 l -50,-86.6 50,-86.6 m 0,-173.2 h 100 l 50,86.6 -50,86.6 h -100 l -50,-86.6 50,-86.6 m 0,-173.198 h 100 l 50,86.598 -50,86.6 h -100 l -50,-86.6 50,-86.598 m 0,-173.203 h 100 l 50,86.602 -50,86.601 h -100 l -50,-86.601 50,-86.602 M 1250,601 h 100 l 50,86.602 -50,86.597 H 1250 L 1200,687.602 1250,601 m 0,-173.199 h 100 l 50,86.601 -50,86.598 h -100 l -50,-86.598 50,-86.601 m 0,-173.199 h 100 l 50,86.597 -50,86.602 h -100 l -50,-86.602 50,-86.597 m 0,-173.1997 h 100 L 1400,168 1350,254.602 H 1250 L 1200,168 1250,81.4023"
       style="fill:none;stroke:#000000;stroke-width:4;stroke-linecap:butt;stroke-linejoin:miter;stroke-miterlimit:10;stroke-dasharray:10, 20, 10, 20, 10, 20, 10, 0;stroke-dashoffset:800;stroke-opacity:1"
       transform="matrix(0.13333333,0,0,-0.13333333,0,373.33333)" />
    <path
       id="path9"
       d="m 1400,2419.6 h 100 l 50,86.6 -50,86.6 h -100 l -50,-86.6 50,-86.6 m 0,-173.2 h 100 l 50,86.6 -50,86.6 h -100 l -50,-86.6 50,-86.6 m 0,-173.2 h 100 l 50,86.6 -50,86.6 h -100 l -50,-86.6 50,-86.6 m 0,-173.2 h 100 l 50,86.6 -50,86.6 h -100 l -50,-86.6 50,-86.6 m 0,-173.2 h 100 l 50,86.6 -50,86.6 h -100 l -50,-86.6 50,-86.6 m 0,-173.2 h 100 l 50,86.6 -50,86.6 h -100 l -50,-86.6 50,-86.6 m 0,-173.2 h 100 l 50,86.6 -50,86.6 h -100 l -50,-86.6 50,-86.6 m 0,-173.2 h 100 l 50,86.6 -50,86.6 h -100 l -50,-86.6 50,-86.6 m 0,-173.2 h 100 l 50,86.6 -50,86.6 h -100 l -50,-86.6 50,-86.6 m 0,-173.199 h 100 l 50,86.601 -50,86.598 h -100 l -50,-86.598 50,-86.601 m 0,-173.199 h 100 l 50,86.597 -50,86.602 h -100 l -50,-86.602 50,-86.597 m 0,-173.2 h 100 l 50,86.598 -50,86.602 H 1400 L 1350,601 l 50,-86.598 m 0,-173.203 h 100 l 50,86.602 -50,86.601 h -100 l -50,-86.601 50,-86.602 M 1400,168 h 100 l 50,86.602 -50,86.597 H 1400 L 1350,254.602 1400,168"
       style="fill:none;stroke:#000000;stroke-width:4;stroke-linecap:butt;stroke-linejoin:miter;stroke-miterlimit:10;stroke-dasharray:10, 20, 10, 20, 10, 20, 10, 0;stroke-dashoffset:800;stroke-opacity:1"
       transform="matrix(0.13333333,0,0,-0.13333333,0,373.33333)" />
    <path
       id="path10"
       d="m 1550,2333 h 100 l 50,86.6 -50,86.6 h -100 l -50,-86.6 50,-86.6 m 0,-173.2 h 100 l 50,86.6 -50,86.6 h -100 l -50,-86.6 50,-86.6 m 0,-173.2 h 100 l 50,86.6 -50,86.6 h -100 l -50,-86.6 50,-86.6 m 0,-173.2 h 100 l 50,86.6 -50,86.6 h -100 l -50,-86.6 50,-86.6 m 0,-173.2 h 100 l 50,86.6 -50,86.6 h -100 l -50,-86.6 50,-86.6 m 0,-173.2 h 100 l 50,86.6 -50,86.6 h -100 l -50,-86.6 50,-86.6 m 0,-173.2 h 100 l 50,86.6 -50,86.6 h -100 l -50,-86.6 50,-86.6 m 0,-173.2 h 100 l 50,86.6 -50,86.6 h -100 l -50,-86.6 50,-86.6 m 0,-173.198 h 100 l 50,86.598 -50,86.6 h -100 l -50,-86.6 50,-86.598 m 0,-173.203 h 100 l 50,86.602 -50,86.601 h -100 l -50,-86.601 50,-86.602 M 1550,601 h 100 l 50,86.602 -50,86.597 H 1550 L 1500,687.602 1550,601 m 0,-173.199 h 100 l 50,86.601 -50,86.598 h -100 l -50,-86.598 50,-86.601 m 0,-173.199 h 100 l 50,86.597 -50,86.602 h -100 l -50,-86.602 50,-86.597"
       style="fill:none;stroke:#000000;stroke-width:4;stroke-linecap:butt;stroke-linejoin:miter;stroke-miterlimit:10;stroke-dasharray:10, 20, 10, 20, 10, 20, 10, 0;stroke-dashoffset:800;stroke-opacity:1"
       transform="matrix(0.13333333,0,0,-0.13333333,0,373.33333)" />
    <path
       id="path11"
       d="m 1700,2246.4 h 100 l 50,86.6 -50,86.6 h -100 l -50,-86.6 50,-86.6 m 0,-173.2 h 100 l 50,86.6 -50,86.6 h -100 l -50,-86.6 50,-86.6 m 0,-173.2 h 100 l 50,86.6 -50,86.6 h -100 l -50,-86.6 50,-86.6 m 0,-173.2 h 100 l 50,86.6 -50,86.6 h -100 l -50,-86.6 50,-86.6 m 0,-173.2 h 100 l 50,86.6 -50,86.6 h -100 l -50,-86.6 50,-86.6 m 0,-173.2 h 100 l 50,86.6 -50,86.6 h -100 l -50,-86.6 50,-86.6 m 0,-173.2 h 100 l 50,86.6 -50,86.6 h -100 l -50,-86.6 50,-86.6 m 0,-173.2 h 100 l 50,86.6 -50,86.6 h -100 l -50,-86.6 50,-86.6 m 0,-173.199 h 100 l 50,86.601 -50,86.598 h -100 l -50,-86.598 50,-86.601 m 0,-173.199 h 100 l 50,86.597 -50,86.602 h -100 l -50,-86.602 50,-86.597 m 0,-173.2 h 100 l 50,86.598 -50,86.602 H 1700 L 1650,601 l 50,-86.598 m 0,-173.203 h 100 l 50,86.602 -50,86.601 h -100 l -50,-86.601 50,-86.602"
       style="fill:none;stroke:#000000;stroke-width:4;stroke-linecap:butt;stroke-linejoin:miter;stroke-miterlimit:10;stroke-dasharray:10, 20, 10, 20, 10, 20, 10, 0;stroke-dashoffset:800;stroke-opacity:1"
       transform="matrix(0.13333333,0,0,-0.13333333,0,373.33333)" />
    <path
       id="path12"
       d="m 1850,2159.8 h 100 l 50,86.6 -50,86.6 h -100 l -50,-86.6 50,-86.6 m 0,-173.2 h 100 l 50,86.6 -50,86.6 h -100 l -50,-86.6 50,-86.6 m 0,-173.2 h 100 l 50,86.6 -50,86.6 h -100 l -50,-86.6 50,-86.6 m 0,-173.2 h 100 l 50,86.6 -50,86.6 h -100 l -50,-86.6 50,-86.6 m 0,-173.2 h 100 l 50,86.6 -50,86.6 h -100 l -50,-86.6 50,-86.6 m 0,-173.2 h 100 l 50,86.6 -50,86.6 h -100 l -50,-86.6 50,-86.6 m 0,-173.2 h 100 l 50,86.6 -50,86.6 h -100 l -50,-86.6 50,-86.6 m 0,-173.202 h 100 l 50,86.602 -50,86.6 h -100 l -50,-86.6 50,-86.602 m 0,-173.199 h 100 l 50,86.602 -50,86.597 h -100 l -50,-86.597 50,-86.602 M 1850,601 h 100 l 50,86.602 -50,86.597 H 1850 L 1800,687.602 1850,601 m 0,-173.199 h 100 l 50,86.597 -50,86.602 h -100 l -50,-86.602 50,-86.597"
       style="fill:none;stroke:#000000;stroke-width:4;stroke-linecap:butt;stroke-linejoin:miter;stroke-miterlimit:10;stroke-dasharray:10, 20, 10, 20, 10, 20, 10, 0;stroke-dashoffset:800;stroke-opacity:1"
       transform="matrix(0.13333333,0,0,-0.13333333,0,373.33333)" />
    <path
       id="path13"
       d="m 2000,2073.2 h 100 l 50,86.6 -50,86.6 h -100 l -50,-86.6 50,-86.6 m 0,-173.2 h 100 l 50,86.6 -50,86.6 h -100 l -50,-86.6 50,-86.6 m 0,-173.2 h 100 l 50,86.6 -50,86.6 h -100 l -50,-86.6 50,-86.6 m 0,-173.2 h 100 l 50,86.6 -50,86.6 h -100 l -50,-86.6 50,-86.6 m 0,-173.2 h 100 l 50,86.6 -50,86.6 h -100 l -50,-86.6 50,-86.6 m 0,-173.2 h 100 l 50,86.6 -50,86.6 h -100 l -50,-86.6 50,-86.6 m 0,-173.2 h 100 l 50,86.6 -50,86.6 h -100 l -50,-86.6 50,-86.6 m 0,-173.199 h 100 l 50,86.597 -50,86.602 h -100 l -50,-86.602 50,-86.597 m 0,-173.199 h 100 l 50,86.597 -50,86.602 h -100 l -50,-86.602 50,-86.597 m 0,-173.204 h 100 l 50,86.602 -50,86.602 H 2000 L 1950,601 l 50,-86.602"
       style="fill:none;stroke:#000000;stroke-width:4;stroke-linecap:butt;stroke-linejoin:miter;stroke-miterlimit:10;stroke-dasharray:10, 20, 10, 20, 10, 20, 10, 0;stroke-dashoffset:800;stroke-opacity:1"
       transform="matrix(0.13333333,0,0,-0.13333333,0,373.33333)" />
    <path
       id="path14"
       d="m 2150,1986.6 h 100 l 50,86.6 -50,86.6 h -100 l -50,-86.6 50,-86.6 m 0,-173.2 h 100 l 50,86.6 -50,86.6 h -100 l -50,-86.6 50,-86.6 m 0,-173.2 h 100 l 50,86.6 -50,86.6 h -100 l -50,-86.6 50,-86.6 m 0,-173.2 h 100 l 50,86.6 -50,86.6 h -100 l -50,-86.6 50,-86.6 m 0,-173.2 h 100 l 50,86.6 -50,86.6 h -100 l -50,-86.6 50,-86.6 m 0,-173.2 h 100 l 50,86.6 -50,86.6 h -100 l -50,-86.6 50,-86.6 m 0,-173.202 h 100 l 50,86.602 -50,86.6 h -100 l -50,-86.6 50,-86.602 m 0,-173.199 h 100 l 50,86.602 -50,86.597 h -100 l -50,-86.597 50,-86.602 M 2150,601 h 100 l 50,86.602 -50,86.597 H 2150 L 2100,687.602 2150,601"
       style="fill:none;stroke:#000000;stroke-width:4;stroke-linecap:butt;stroke-linejoin:miter;stroke-miterlimit:10;stroke-dasharray:10, 20, 10, 20, 10, 20, 10, 0;stroke-dashoffset:800;stroke-opacity:1"
       transform="matrix(0.13333333,0,0,-0.13333333,0,373.33333)" />
    <path
       id="path15"
       d="m 2300,1900 h 100 l 50,86.6 -50,86.6 h -100 l -50,-86.6 50,-86.6 m 0,-173.2 h 100 l 50,86.6 -50,86.6 h -100 l -50,-86.6 50,-86.6 m 0,-173.2 h 100 l 50,86.6 -50,86.6 h -100 l -50,-86.6 50,-86.6 m 0,-173.2 h 100 l 50,86.6 -50,86.6 h -100 l -50,-86.6 50,-86.6 m 0,-173.2 h 100 l 50,86.6 -50,86.6 h -100 l -50,-86.6 50,-86.6 m 0,-173.2 h 100 l 50,86.6 -50,86.6 h -100 l -50,-86.6 50,-86.6 m 0,-173.199 h 100 l 50,86.597 -50,86.602 h -100 l -50,-86.602 50,-86.597 m 0,-173.199 h 100 l 50,86.597 -50,86.602 h -100 l -50,-86.602 50,-86.597"
       style="fill:none;stroke:#000000;stroke-width:4;stroke-linecap:butt;stroke-linejoin:miter;stroke-miterlimit:10;stroke-dasharray:10, 20, 10, 20, 10, 20, 10, 0;stroke-dashoffset:800;stroke-opacity:1"
       transform="matrix(0.13333333,0,0,-0.13333333,0,373.33333)" />
    <path
       id="path16"
       d="m 3.3056966,-8.6707156 c -0.796875,0 -1.5117188,0.3515625 -1.9570313,0.9492187 -0.55078124,0.7617188 -0.83203124,1.9101563 -0.83203124,3.5273438 0,2.9179687 0.96093754,4.47656247 2.78906254,4.47656247 1.7929687,0 2.7773437,-1.55859377 2.7773437,-4.40624997 0,-1.6875 -0.2578125,-2.8125 -0.8203125,-3.5976563 -0.4453125,-0.609375 -1.1601562,-0.9492187 -1.9570312,-0.9492187 z m 0,0.9375 c 1.1367187,0 1.6992187,1.1601562 1.6992187,3.515625 0,2.4609375 -0.5507812,3.62109372 -1.7226562,3.62109372 -1.125,0 -1.6875,-1.20703122 -1.6875,-3.58593752 0,-2.390625 0.5625,-3.5507812 1.7109375,-3.5507812 z M 33.305697,-25.991028 c -0.796875,0 -1.511719,0.351562 -1.957032,0.949219 -0.550781,0.761718 -0.832031,1.910156 -0.832031,3.527343 0,2.917969 0.960938,4.476563 2.789063,4.476563 1.792968,0 2.777343,-1.558594 2.777343,-4.40625 0,-1.6875 -0.257812,-2.8125 -0.820312,-3.597656 -0.445313,-0.609375 -1.160156,-0.949219 -1.957031,-0.949219 z m 0,0.9375 c 1.136718,0 1.699218,1.160156 1.699218,3.515625 0,2.460937 -0.550781,3.621094 -1.722656,3.621094 -1.125,0 -1.6875,-1.207032 -1.6875,-3.585938 0,-2.390625 0.5625,-3.550781 1.710938,-3.550781 z m 0,68.34082 c -0.796875,0 -1.511719,0.351563 -1.957032,0.949219 -0.550781,0.761719 -0.832031,1.910156 -0.832031,3.527344 0,2.917968 0.960938,4.476562 2.789063,4.476562 1.792968,0 2.777343,-1.558594 2.777343,-4.40625 0,-1.6875 -0.257812,-2.8125 -0.820312,-3.597656 -0.445313,-0.609375 -1.160156,-0.949219 -1.957031,-0.949219 z m 0,0.9375 c 1.136718,0 1.699218,1.160156 1.699218,3.515625 0,2.460938 -0.550781,3.621094 -1.722656,3.621094 -1.125,0 -1.6875,-1.207031 -1.6875,-3.585938 0,-2.390625 0.5625,-3.550781 1.710938,-3.550781 z M 50.70804,-86.448059 h -4.382812 l -0.644531,4.628906 h 0.972656 c 0.492187,-0.585938 0.902344,-0.785156 1.570312,-0.785156 1.148438,0 1.851563,0.773437 1.851563,2.039062 0,1.21875 -0.703125,1.96875 -1.863281,1.96875 -0.914063,0 -1.488282,-0.46875 -1.734375,-1.429687 h -1.054688 c 0.140625,0.691406 0.257813,1.03125 0.515625,1.347656 0.480469,0.644531 1.347656,1.019531 2.296875,1.019531 1.722656,0 2.917969,-1.253906 2.917969,-3.058594 0,-1.675781 -1.113281,-2.824218 -2.742188,-2.824218 -0.597656,0 -1.078125,0.152343 -1.570312,0.515625 l 0.328125,-2.378907 h 3.539062 z m 0.363282,42.105468 h -4.476563 c 0.105469,-0.726562 0.492188,-1.171875 1.535156,-1.816406 l 1.207032,-0.667969 c 1.183593,-0.65625 1.792968,-1.546875 1.792968,-2.613281 0,-0.726562 -0.28125,-1.394531 -0.785156,-1.863281 -0.503906,-0.457031 -1.136719,-0.667969 -1.933594,-0.667969 -1.078125,0 -1.886718,0.375 -2.355468,1.125 -0.292969,0.457031 -0.433594,0.996094 -0.457032,1.875 h 1.054688 c 0.03516,-0.597656 0.117187,-0.9375 0.257812,-1.230469 0.269532,-0.527343 0.820313,-0.855468 1.464844,-0.855468 0.960938,0 1.675781,0.703125 1.675781,1.640625 0,0.691406 -0.398437,1.289062 -1.148437,1.722656 l -1.101563,0.65625 c -1.78125,1.019531 -2.296875,1.828125 -2.390625,3.726562 h 5.660157 z M 50.70804,0.15057344 H 46.325228 L 45.680697,4.7794797 h 0.972656 c 0.492187,-0.5859375 0.902344,-0.7851563 1.570312,-0.7851563 1.148438,0 1.851563,0.7734375 1.851563,2.0390625 0,1.21875 -0.703125,1.96875 -1.863281,1.96875 -0.914063,0 -1.488282,-0.46875 -1.734375,-1.4296875 h -1.054688 c 0.140625,0.6914063 0.257813,1.03125 0.515625,1.3476563 0.480469,0.6445312 1.347656,1.0195312 2.296875,1.0195312 1.722656,0 2.917969,-1.2539062 2.917969,-3.0585937 0,-1.6757813 -1.113281,-2.8242188 -2.742188,-2.8242188 -0.597656,0 -1.078125,0.1523438 -1.570312,0.515625 l 0.328125,-2.3789062 h 3.539062 z m 0,0"
       style="fill:#000000;fill-opacity:1;fill-rule:nonzero;stroke:none"
       aria-label="   0&#10; &#10; &#10; &#10;0&#10; &#10; &#10; &#10;0&#10;5&#10; &#10;2&#10; &#10; &#10;5&#10; "
       transform="matrix(1.3333333,0,0,1.3333333,28.885373,183.50627)" />
    <path
       id="path17"
       d="m 5.2607422,-4.5338047 c -0.023437,-1.2421875 -0.8320313,-1.9335937 -2.2851563,-1.9335937 -1.4648437,0 -2.41406246,0.7617187 -2.41406246,1.921875 0,0.984375 0.50390626,1.453125 1.99218746,1.8164062 l 0.9375,0.2226563 c 0.6914063,0.1640625 0.9726563,0.421875 0.9726563,0.8671875 0,0.5976562 -0.5859375,0.99609371 -1.4648438,0.99609371 -0.5390625,0 -0.9960937,-0.1640625 -1.2421875,-0.42187501 C 1.5927734,-1.2408359 1.5224609,-1.4283359 1.4638672,-1.8736484 H 0.40917969 c 0.046875,1.45312496 0.86718751,2.15624996 2.50781251,2.15624996 1.5820312,0 2.5898437,-0.78515625 2.5898437,-1.99218746 0,-0.9375 -0.5273437,-1.453125 -1.78125,-1.7578125 L 2.7763672,-3.6900547 c -0.8203125,-0.1992187 -1.171875,-0.4570312 -1.171875,-0.9023437 0,-0.5859375 0.515625,-0.9492188 1.3359375,-0.9492188 0.796875,0 1.2304687,0.3515625 1.2539062,1.0078125 z m 0,0"
       style="fill:#008000;fill-opacity:1;fill-rule:nonzero;stroke:none"
       aria-label="s"
       transform="matrix(1.3333333,0,0,1.3333333,109.33333,89.978667)" />
    <path
       id="path18"
       d="M 5.7080403,-8.5071078 H 1.3252278 L 0.68069656,-3.8782016 H 1.6533528 c 0.4921875,-0.5859375 0.9023438,-0.7851562 1.5703125,-0.7851562 1.1484375,0 1.8515625,0.7734375 1.8515625,2.0390625 0,1.21875 -0.703125,1.96874999 -1.8632812,1.96874999 -0.9140625,0 -1.4882813,-0.46874999 -1.734375,-1.42968749 H 0.42288406 c 0.140625,0.6914062 0.2578125,1.03125 0.515625,1.34765624 0.48046874,0.64453125 1.34765624,1.01953125 2.29687504,1.01953125 1.7226562,0 2.9179687,-1.25390625 2.9179687,-3.05859379 0,-1.6757812 -1.1132812,-2.8242187 -2.7421875,-2.8242187 -0.5976562,0 -1.078125,0.1523437 -1.5703125,0.515625 l 0.328125,-2.3789063 H 5.7080403 Z M 18.106478,-188.03543 v 6.17578 h 1.054687 v -8.67187 h -0.691406 c -0.375,1.32422 -0.609375,1.51172 -2.25,1.72265 v 0.77344 z m 2.964844,39.77344 h -4.476563 c 0.105469,-0.72656 0.492188,-1.17188 1.535156,-1.81641 l 1.207032,-0.66797 c 1.183593,-0.65625 1.792968,-1.54687 1.792968,-2.61328 0,-0.72656 -0.28125,-1.39453 -0.785156,-1.86328 -0.503906,-0.45703 -1.136719,-0.66797 -1.933594,-0.66797 -1.078125,0 -1.886718,0.375 -2.355468,1.125 -0.292969,0.45703 -0.433594,0.9961 -0.457032,1.875 h 1.054688 c 0.03516,-0.59765 0.117187,-0.9375 0.257812,-1.23047 0.269532,-0.52734 0.820313,-0.85546 1.464844,-0.85546 0.960938,0 1.675781,0.70312 1.675781,1.64062 0,0.69141 -0.398437,1.28906 -1.148437,1.72266 l -1.101563,0.65625 c -1.78125,1.01953 -2.296875,1.82812 -2.390625,3.72656 h 5.660157 z m -2.765625,113.610351 c -0.796875,0 -1.511719,0.351562 -1.957032,0.949219 -0.550781,0.761718 -0.832031,1.910156 -0.832031,3.527343 0,2.917969 0.960938,4.476563 2.789063,4.476563 1.792968,0 2.777343,-1.558594 2.777343,-4.40625 0,-1.6875 -0.257812,-2.8125 -0.820312,-3.597656 -0.445313,-0.609375 -1.160156,-0.949219 -1.957031,-0.949219 z m 0,0.9375 c 1.136718,0 1.699218,1.160156 1.699218,3.515625 0,2.460937 -0.550781,3.621094 -1.722656,3.621094 -1.125,0 -1.6875,-1.207032 -1.6875,-3.585938 0,-2.390625 0.5625,-3.550781 1.710938,-3.550781 z M 18.92679,6.5632047 v 2.0976562 h 1.054688 V 6.5632047 h 1.253906 V 5.6139859 H 19.981478 V -0.01101406 H 19.196322 L 15.340853,5.4499234 v 1.1132813 z m 0,-0.9492188 H 16.266634 L 18.92679,1.7819547 Z M 33.305697,-95.272733 c -0.796875,0 -1.511719,0.351563 -1.957032,0.949219 -0.550781,0.761719 -0.832031,1.910156 -0.832031,3.527344 0,2.917968 0.960938,4.476562 2.789063,4.476562 1.792968,0 2.777343,-1.558594 2.777343,-4.40625 0,-1.6875 -0.257812,-2.8125 -0.820312,-3.597656 -0.445313,-0.609375 -1.160156,-0.949219 -1.957031,-0.949219 z m 0,0.9375 c 1.136718,0 1.699218,1.160156 1.699218,3.515625 0,2.460938 -0.550781,3.621094 -1.722656,3.621094 -1.125,0 -1.6875,-1.207031 -1.6875,-3.585938 0,-2.390625 0.5625,-3.550781 1.710938,-3.550781 z m 2.402343,33.867188 h -4.382812 l -0.644531,4.628906 h 0.972656 c 0.492187,-0.585938 0.902344,-0.785156 1.570312,-0.785156 1.148438,0 1.851563,0.773437 1.851563,2.039062 0,1.21875 -0.703125,1.96875 -1.863281,1.96875 -0.914063,0 -1.488282,-0.46875 -1.734375,-1.429687 h -1.054688 c 0.140625,0.691406 0.257813,1.03125 0.515625,1.347656 0.480469,0.644531 1.347656,1.019531 2.296875,1.019531 1.722656,0 2.917969,-1.253906 2.917969,-3.058594 0,-1.675781 -1.113281,-2.824218 -2.742188,-2.824218 -0.597656,0 -1.078125,0.152343 -1.570312,0.515625 l 0.328125,-2.378907 H 35.70804 Z M 48.106478,-205.35574 v 6.17578 h 1.054687 v -8.67187 h -0.691406 c -0.375,1.32421 -0.609375,1.51171 -2.25,1.72265 v 0.77344 z m 2.601562,32.30566 h -4.382812 l -0.644531,4.62891 h 0.972656 c 0.492187,-0.58594 0.902344,-0.78516 1.570312,-0.78516 1.148438,0 1.851563,0.77344 1.851563,2.03907 0,1.21875 -0.703125,1.96875 -1.863281,1.96875 -0.914063,0 -1.488282,-0.46875 -1.734375,-1.42969 h -1.054688 c 0.140625,0.6914 0.257813,1.03125 0.515625,1.34765 0.480469,0.64454 1.347656,1.01954 2.296875,1.01954 1.722656,0 2.917969,-1.25391 2.917969,-3.0586 0,-1.67578 -1.113281,-2.82422 -2.742188,-2.82422 -0.597656,0 -1.078125,0.15235 -1.570312,0.51563 l 0.328125,-2.37891 h 3.539062 z m -1.78125,23.73047 v 2.09766 h 1.054688 v -2.09766 h 1.253906 v -0.94922 h -1.253906 v -5.625 h -0.785156 l -3.855469,5.46094 v 1.11328 z m 0,-0.94922 h -2.660156 l 2.660156,-3.83203 z m 1.78125,11.85938 h -4.382812 l -0.644531,4.6289 h 0.972656 c 0.492187,-0.58593 0.902344,-0.78515 1.570312,-0.78515 1.148438,0 1.851563,0.77344 1.851563,2.03906 0,1.21875 -0.703125,1.96875 -1.863281,1.96875 -0.914063,0 -1.488282,-0.46875 -1.734375,-1.42969 h -1.054688 c 0.140625,0.69141 0.257813,1.03125 0.515625,1.34766 0.480469,0.64453 1.347656,1.01953 2.296875,1.01953 1.722656,0 2.917969,-1.25391 2.917969,-3.05859 0,-1.67578 -1.113281,-2.82422 -2.742188,-2.82422 -0.597656,0 -1.078125,0.15234 -1.570312,0.51562 l 0.328125,-2.3789 h 3.539062 z m -1.78125,75.691405 v 2.097656 h 1.054688 v -2.097656 h 1.253906 v -0.949219 h -1.253906 v -5.625 h -0.785156 l -3.855469,5.460937 v 1.113282 z m 0,-0.949219 h -2.660156 l 2.660156,-3.832031 z M 47.649447,-47.2991 h 0.574218 c 1.160157,0 1.769532,0.539062 1.769532,1.582031 0,1.089844 -0.65625,1.757813 -1.757813,1.757813 -1.160156,0 -1.722656,-0.585938 -1.792969,-1.863282 h -1.054687 c 0.04687,0.691407 0.164062,1.148438 0.375,1.535157 0.433594,0.84375 1.265625,1.265625 2.425781,1.265625 1.757813,0 2.882813,-1.066407 2.882813,-2.707032 0,-1.101562 -0.421875,-1.699218 -1.441407,-2.0625 0.796875,-0.328125 1.195313,-0.925781 1.195313,-1.804687 0,-1.488281 -0.972656,-2.378906 -2.601563,-2.378906 -1.710937,0 -2.625,0.960937 -2.660156,2.789062 h 1.054688 c 0.01172,-0.527344 0.05859,-0.820312 0.199218,-1.089844 0.234375,-0.492187 0.761719,-0.785156 1.417969,-0.785156 0.9375,0 1.5,0.574219 1.5,1.5 0,0.621094 -0.210937,0.984375 -0.679687,1.195313 -0.28125,0.117187 -0.667969,0.164062 -1.40625,0.175781 z m 0.65625,29.964844 c -0.796875,0 -1.511719,0.351562 -1.957032,0.949218 -0.550781,0.761719 -0.832031,1.910157 -0.832031,3.527344 0,2.917969 0.960938,4.4765627 2.789063,4.4765627 1.792968,0 2.777343,-1.5585937 2.777343,-4.4062497 0,-1.6875 -0.257812,-2.8125 -0.820312,-3.597657 -0.445313,-0.609375 -1.160156,-0.949218 -1.957031,-0.949218 z m 0,0.9375 c 1.136718,0 1.699218,1.160156 1.699218,3.515625 0,2.460937 -0.550781,3.6210935 -1.722656,3.6210935 -1.125,0 -1.6875,-1.2070315 -1.6875,-3.5859375 0,-2.390625 0.5625,-3.550781 1.710938,-3.550781 z m 0.621093,40.277343 v 2.097657 h 1.054688 v -2.097657 h 1.253906 v -0.949218 h -1.253906 v -5.625 h -0.785156 l -3.855469,5.460937 v 1.113281 z m 0,-0.949218 H 46.266634 L 48.92679,19.099337 Z M 65.70804,-216.35086 h -4.382812 l -0.644531,4.62891 h 0.972656 c 0.492187,-0.58594 0.902344,-0.78516 1.570312,-0.78516 1.148438,0 1.851563,0.77344 1.851563,2.03906 0,1.21875 -0.703125,1.96875 -1.863281,1.96875 -0.914063,0 -1.488282,-0.46875 -1.734375,-1.42968 h -1.054688 c 0.140625,0.6914 0.257813,1.03125 0.515625,1.34765 0.480469,0.64453 1.347656,1.01953 2.296875,1.01953 1.722656,0 2.917969,-1.2539 2.917969,-3.05859 0,-1.67578 -1.113281,-2.82422 -2.742188,-2.82422 -0.597656,0 -1.078125,0.15235 -1.570312,0.51563 l 0.328125,-2.37891 h 3.539062 z m 0,51.96094 h -4.382812 l -0.644531,4.62891 h 0.972656 c 0.492187,-0.58594 0.902344,-0.78516 1.570312,-0.78516 1.148438,0 1.851563,0.77344 1.851563,2.03906 0,1.21875 -0.703125,1.96875 -1.863281,1.96875 -0.914063,0 -1.488282,-0.46875 -1.734375,-1.42969 h -1.054688 c 0.140625,0.69141 0.257813,1.03125 0.515625,1.34766 0.480469,0.64453 1.347656,1.01953 2.296875,1.01953 1.722656,0 2.917969,-1.2539 2.917969,-3.05859 0,-1.67578 -1.113281,-2.82422 -2.742188,-2.82422 -0.597656,0 -1.078125,0.15234 -1.570312,0.51562 l 0.328125,-2.3789 h 3.539062 z m 0,51.96094 h -4.382812 l -0.644531,4.6289 h 0.972656 c 0.492187,-0.58593 0.902344,-0.78515 1.570312,-0.78515 1.148438,0 1.851563,0.77343 1.851563,2.03906 0,1.21875 -0.703125,1.96875 -1.863281,1.96875 -0.914063,0 -1.488282,-0.46875 -1.734375,-1.42969 h -1.054688 c 0.140625,0.69141 0.257813,1.03125 0.515625,1.34766 0.480469,0.64453 1.347656,1.01953 2.296875,1.01953 1.722656,0 2.917969,-1.25391 2.917969,-3.05859 0,-1.67579 -1.113281,-2.82422 -2.742188,-2.82422 -0.597656,0 -1.078125,0.15234 -1.570312,0.51562 l 0.328125,-2.3789 h 3.539062 z m -1.78125,23.730466 v 2.097656 h 1.054688 v -2.097656 h 1.253906 v -0.949219 h -1.253906 v -5.625 h -0.785156 l -3.855469,5.460938 v 1.113281 z m 0,-0.949219 h -2.660156 l 2.660156,-3.832031 z m 1.78125,11.859375 h -4.382812 l -0.644531,4.628906 h 0.972656 c 0.492187,-0.585937 0.902344,-0.785156 1.570312,-0.785156 1.148438,0 1.851563,0.773438 1.851563,2.039063 0,1.21875 -0.703125,1.96875 -1.863281,1.96875 -0.914063,0 -1.488282,-0.46875 -1.734375,-1.429688 h -1.054688 c 0.140625,0.691406 0.257813,1.03125 0.515625,1.347656 0.480469,0.644532 1.347656,1.019532 2.296875,1.019532 1.722656,0 2.917969,-1.253907 2.917969,-3.058594 0,-1.675781 -1.113281,-2.824219 -2.742188,-2.824219 -0.597656,0 -1.078125,0.152344 -1.570312,0.515625 l 0.328125,-2.378906 h 3.539062 z m 0,0"
       style="fill:#000000;fill-opacity:1;fill-rule:nonzero;stroke:none"
       aria-label="         5&#10; &#10;1&#10; &#10;2&#10; &#10; &#10; &#10; &#10; &#10; &#10;0&#10; &#10;4&#10; &#10; &#10; &#10; &#10; &#10; &#10; &#10;0&#10; &#10;5&#10; &#10;1&#10; &#10;5&#10;4&#10;5&#10; &#10; &#10; &#10;4&#10;3&#10; &#10;0&#10; &#10;4&#10;5&#10; &#10; &#10;5&#10; &#10; &#10;5&#10;4&#10;5"
       transform="matrix(1.3333333,0,0,1.3333333,108.88537,322.06547)" />
    <path
       id="path19"
       d="m 5.2607422,-4.5343469 c -0.023437,-1.2421875 -0.8320313,-1.9335937 -2.2851563,-1.9335937 -1.4648437,0 -2.41406246,0.7617187 -2.41406246,1.921875 0,0.984375 0.50390626,1.453125 1.99218746,1.8164062 l 0.9375,0.2226563 c 0.6914063,0.1640625 0.9726563,0.421875 0.9726563,0.8671875 0,0.5976562 -0.5859375,0.99609373 -1.4648438,0.99609373 -0.5390625,0 -0.9960937,-0.1640625 -1.2421875,-0.42187503 C 1.5927734,-1.2413781 1.5224609,-1.4288781 1.4638672,-1.8741906 H 0.40917969 c 0.046875,1.45312498 0.86718751,2.15624998 2.50781251,2.15624998 1.5820312,0 2.5898437,-0.78515625 2.5898437,-1.99218748 0,-0.9375 -0.5273437,-1.453125 -1.78125,-1.7578125 L 2.7763672,-3.6905969 c -0.8203125,-0.1992187 -1.171875,-0.4570312 -1.171875,-0.9023437 0,-0.5859375 0.515625,-0.9492188 1.3359375,-0.9492188 0.796875,0 1.2304687,0.3515625 1.2539062,1.0078125 z m 0,0"
       style="fill:#008000;fill-opacity:1;fill-rule:nonzero;stroke:none"
       aria-label="s"
       transform="matrix(1.3333333,0,0,1.3333333,189.33333,251.63173)" />
    <path
       id="path20"
       d="M 3.9267903,-2.0978391 V -1.828125e-4 H 4.9814778 V -2.0978391 H 6.2353841 V -3.0470578 H 4.9814778 v -5.625 H 4.1963216 l -3.85546879,5.4609375 v 1.1132812 z m 0,-0.9492187 H 1.2666341 L 3.9267903,-6.8790891 Z M 17.649447,-133.89569 h 0.574218 c 1.160157,0 1.769532,0.53906 1.769532,1.58203 0,1.08984 -0.65625,1.75781 -1.757813,1.75781 -1.160156,0 -1.722656,-0.58593 -1.792969,-1.86328 h -1.054687 c 0.04687,0.69141 0.164062,1.14844 0.375,1.53516 0.433594,0.84375 1.265625,1.26562 2.425781,1.26562 1.757813,0 2.882813,-1.0664 2.882813,-2.70703 0,-1.10156 -0.421875,-1.69922 -1.441407,-2.0625 0.796875,-0.32812 1.195313,-0.92578 1.195313,-1.80469 0,-1.48828 -0.972656,-2.3789 -2.601563,-2.3789 -1.710937,0 -2.625,0.96094 -2.660156,2.78906 h 1.054688 c 0.01172,-0.52734 0.05859,-0.82031 0.199218,-1.08984 0.234375,-0.49219 0.761719,-0.78516 1.417969,-0.78516 0.9375,0 1.5,0.57422 1.5,1.5 0,0.62109 -0.210937,0.98438 -0.679687,1.19531 -0.28125,0.11719 -0.667969,0.16407 -1.40625,0.17578 z m 3.421875,20.27344 h -4.476563 c 0.105469,-0.72657 0.492188,-1.17188 1.535156,-1.81641 l 1.207032,-0.66797 c 1.183593,-0.65625 1.792968,-1.54687 1.792968,-2.61328 0,-0.72656 -0.28125,-1.39453 -0.785156,-1.86328 -0.503906,-0.45703 -1.136719,-0.66797 -1.933594,-0.66797 -1.078125,0 -1.886718,0.375 -2.355468,1.125 -0.292969,0.45703 -0.433594,0.99609 -0.457032,1.875 h 1.054688 c 0.03516,-0.59766 0.117187,-0.9375 0.257812,-1.23047 0.269532,-0.52734 0.820313,-0.85547 1.464844,-0.85547 0.960938,0 1.675781,0.70313 1.675781,1.64063 0,0.6914 -0.398437,1.28906 -1.148437,1.72265 l -1.101563,0.65625 c -1.78125,1.01954 -2.296875,1.82813 -2.390625,3.72657 h 5.660157 z m 15,-95.25879 h -4.476563 c 0.105469,-0.72656 0.492188,-1.17188 1.535156,-1.81641 l 1.207032,-0.66797 c 1.183593,-0.65625 1.792968,-1.54687 1.792968,-2.61328 0,-0.72656 -0.28125,-1.39453 -0.785156,-1.86328 -0.503906,-0.45703 -1.136719,-0.66797 -1.933594,-0.66797 -1.078125,0 -1.886718,0.375 -2.355468,1.125 -0.292969,0.45703 -0.433594,0.9961 -0.457032,1.875 h 1.054688 c 0.03516,-0.59765 0.117187,-0.9375 0.257812,-1.23047 0.269532,-0.52734 0.820313,-0.85547 1.464844,-0.85547 0.960938,0 1.675781,0.70313 1.675781,1.64063 0,0.69141 -0.398437,1.28906 -1.148437,1.72266 l -1.101563,0.65625 c -1.78125,1.01953 -2.296875,1.82812 -2.390625,3.72656 h 5.660157 z m 0,34.64062 h -4.476563 c 0.105469,-0.72656 0.492188,-1.17187 1.535156,-1.8164 l 1.207032,-0.66797 c 1.183593,-0.65625 1.792968,-1.54688 1.792968,-2.61328 0,-0.72657 -0.28125,-1.39453 -0.785156,-1.86328 -0.503906,-0.45704 -1.136719,-0.66797 -1.933594,-0.66797 -1.078125,0 -1.886718,0.375 -2.355468,1.125 -0.292969,0.45703 -0.433594,0.99609 -0.457032,1.875 h 1.054688 c 0.03516,-0.59766 0.117187,-0.9375 0.257812,-1.23047 0.269532,-0.52735 0.820313,-0.85547 1.464844,-0.85547 0.960938,0 1.675781,0.70312 1.675781,1.64062 0,0.69141 -0.398437,1.28907 -1.148437,1.72266 l -1.101563,0.65625 c -1.78125,1.01953 -2.296875,1.82813 -2.390625,3.72656 h 5.660157 z m 0,17.32032 h -4.476563 c 0.105469,-0.72657 0.492188,-1.17188 1.535156,-1.81641 l 1.207032,-0.66797 c 1.183593,-0.65625 1.792968,-1.54687 1.792968,-2.61328 0,-0.72656 -0.28125,-1.39453 -0.785156,-1.86328 -0.503906,-0.45703 -1.136719,-0.66797 -1.933594,-0.66797 -1.078125,0 -1.886718,0.375 -2.355468,1.125 -0.292969,0.45703 -0.433594,0.99609 -0.457032,1.875 h 1.054688 c 0.03516,-0.59766 0.117187,-0.9375 0.257812,-1.23047 0.269532,-0.52734 0.820313,-0.85547 1.464844,-0.85547 0.960938,0 1.675781,0.70313 1.675781,1.64063 0,0.6914 -0.398437,1.28906 -1.148437,1.72265 l -1.101563,0.65625 c -1.78125,1.01953 -2.296875,1.82813 -2.390625,3.72657 h 5.660157 z m 0,69.278316 h -4.476563 c 0.105469,-0.726563 0.492188,-1.171875 1.535156,-1.816407 l 1.207032,-0.667968 c 1.183593,-0.65625 1.792968,-1.546875 1.792968,-2.613282 0,-0.726562 -0.28125,-1.394531 -0.785156,-1.863281 -0.503906,-0.457031 -1.136719,-0.667969 -1.933594,-0.667969 -1.078125,0 -1.886718,0.375 -2.355468,1.125 -0.292969,0.457032 -0.433594,0.996094 -0.457032,1.875 h 1.054688 c 0.03516,-0.597656 0.117187,-0.9375 0.257812,-1.230468 0.269532,-0.527344 0.820313,-0.855469 1.464844,-0.855469 0.960938,0 1.675781,0.703125 1.675781,1.640625 0,0.691406 -0.398437,1.289062 -1.148437,1.722656 l -1.101563,0.65625 c -1.78125,1.019531 -2.296875,1.828125 -2.390625,3.726563 h 5.660157 z m -3.421875,14.367187 h 0.574218 c 1.160157,0 1.769532,0.539063 1.769532,1.582031 0,1.089844 -0.65625,1.757813 -1.757813,1.757813 -1.160156,0 -1.722656,-0.585938 -1.792969,-1.863281 h -1.054687 c 0.04687,0.691406 0.164062,1.148437 0.375,1.535156 0.433594,0.84375 1.265625,1.265625 2.425781,1.265625 1.757813,0 2.882813,-1.066406 2.882813,-2.707031 0,-1.101563 -0.421875,-1.699219 -1.441407,-2.0625 0.796875,-0.328125 1.195313,-0.925782 1.195313,-1.804688 0,-1.488281 -0.972656,-2.378906 -2.601563,-2.378906 -1.710937,0 -2.625,0.960937 -2.660156,2.789062 h 1.054688 c 0.01172,-0.527343 0.05859,-0.820312 0.199218,-1.089843 0.234375,-0.492188 0.761719,-0.785157 1.417969,-0.785157 0.9375,0 1.5,0.574219 1.5,1.5 0,0.621094 -0.210937,0.984375 -0.679687,1.195313 -0.28125,0.117187 -0.667969,0.164062 -1.40625,0.175781 z m 0,51.960938 h 0.574218 c 1.160157,0 1.769532,0.539062 1.769532,1.582031 0,1.089844 -0.65625,1.757812 -1.757813,1.757812 -1.160156,0 -1.722656,-0.585937 -1.792969,-1.863281 h -1.054687 c 0.04687,0.691406 0.164062,1.148438 0.375,1.535156 0.433594,0.84375 1.265625,1.265625 2.425781,1.265625 1.757813,0 2.882813,-1.066406 2.882813,-2.707031 0,-1.101562 -0.421875,-1.699219 -1.441407,-2.0625 0.796875,-0.328125 1.195313,-0.925781 1.195313,-1.804687 0,-1.488282 -0.972656,-2.378907 -2.601563,-2.378907 -1.710937,0 -2.625,0.960938 -2.660156,2.789063 h 1.054688 c 0.01172,-0.527344 0.05859,-0.820313 0.199218,-1.089844 0.234375,-0.492187 0.761719,-0.785156 1.417969,-0.785156 0.9375,0 1.5,0.574219 1.5,1.5 0,0.621094 -0.210937,0.984375 -0.679687,1.195312 -0.28125,0.117188 -0.667969,0.164063 -1.40625,0.175782 z m 15.65625,-117.254881 c -0.796875,0 -1.511719,0.35156 -1.957032,0.94922 -0.550781,0.76172 -0.832031,1.91015 -0.832031,3.52734 0,2.91797 0.960938,4.47656 2.789063,4.47656 1.792968,0 2.777343,-1.55859 2.777343,-4.40625 0,-1.6875 -0.257812,-2.8125 -0.820312,-3.59765 -0.445313,-0.60938 -1.160156,-0.94922 -1.957031,-0.94922 z m 0,0.9375 c 1.136718,0 1.699218,1.16015 1.699218,3.51562 0,2.46094 -0.550781,3.6211 -1.722656,3.6211 -1.125,0 -1.6875,-1.20703 -1.6875,-3.58594 0,-2.39063 0.5625,-3.55078 1.710938,-3.55078 z m -0.65625,90.339842 h 0.574218 c 1.160157,0 1.769532,0.539062 1.769532,1.582031 0,1.089844 -0.65625,1.757812 -1.757813,1.757812 -1.160156,0 -1.722656,-0.585937 -1.792969,-1.863281 h -1.054687 c 0.04687,0.691406 0.164062,1.148438 0.375,1.535156 0.433594,0.84375 1.265625,1.265625 2.425781,1.265625 1.757813,0 2.882813,-1.066406 2.882813,-2.707031 0,-1.101562 -0.421875,-1.699219 -1.441407,-2.0625 0.796875,-0.328125 1.195313,-0.925781 1.195313,-1.804687 0,-1.488282 -0.972656,-2.378907 -2.601563,-2.378907 -1.710937,0 -2.625,0.960938 -2.660156,2.789063 h 1.054688 c 0.01172,-0.527344 0.05859,-0.820313 0.199218,-1.089844 0.234375,-0.492187 0.761719,-0.785156 1.417969,-0.785156 0.9375,0 1.5,0.574219 1.5,1.5 0,0.621094 -0.210937,0.984375 -0.679687,1.195312 -0.28125,0.117188 -0.667969,0.164063 -1.40625,0.175782 z m 3.058593,12.808593 h -4.382812 l -0.644531,4.628907 h 0.972656 c 0.492187,-0.585938 0.902344,-0.785157 1.570312,-0.785157 1.148438,0 1.851563,0.773438 1.851563,2.039063 0,1.21875 -0.703125,1.96875 -1.863281,1.96875 -0.914063,0 -1.488282,-0.46875 -1.734375,-1.429688 h -1.054688 c 0.140625,0.691407 0.257813,1.03125 0.515625,1.347657 0.480469,0.644531 1.347656,1.019531 2.296875,1.019531 1.722656,0 2.917969,-1.253906 2.917969,-3.058594 0,-1.675781 -1.113281,-2.824219 -2.742188,-2.824219 -0.597656,0 -1.078125,0.152344 -1.570312,0.515625 l 0.328125,-2.378906 H 50.70804 Z M 63.305697,-199.18671 c -0.796875,0 -1.511719,0.35157 -1.957032,0.94922 -0.550781,0.76172 -0.832031,1.91016 -0.832031,3.52735 0,2.91797 0.960938,4.47656 2.789063,4.47656 1.792968,0 2.777343,-1.55859 2.777343,-4.40625 0,-1.6875 -0.257812,-2.8125 -0.820312,-3.59766 -0.445313,-0.60937 -1.160156,-0.94922 -1.957031,-0.94922 z m 0,0.9375 c 1.136718,0 1.699218,1.16016 1.699218,3.51563 0,2.46094 -0.550781,3.62109 -1.722656,3.62109 -1.125,0 -1.6875,-1.20703 -1.6875,-3.58593 0,-2.39063 0.5625,-3.55079 1.710938,-3.55079 z m 0.621093,109.558598 v 2.097656 h 1.054688 v -2.097656 h 1.253906 v -0.949219 h -1.253906 v -5.625 h -0.785156 l -3.855469,5.460937 v 1.113282 z m 0,-0.949219 h -2.660156 l 2.660156,-3.832031 z m 0,52.907226 v 2.097657 h 1.054688 v -2.097657 h 1.253906 v -0.949218 h -1.253906 v -5.625 h -0.785156 l -3.855469,5.460937 v 1.113281 z m 0,-0.949218 h -2.660156 l 2.660156,-3.832032 z m 16.78125,-83.399417 h -4.382812 l -0.644531,4.62891 h 0.972656 c 0.492187,-0.58594 0.902344,-0.78516 1.570312,-0.78516 1.148438,0 1.851563,0.77344 1.851563,2.03907 0,1.21875 -0.703125,1.96875 -1.863281,1.96875 -0.914063,0 -1.488282,-0.46875 -1.734375,-1.42969 h -1.054688 c 0.140625,0.6914 0.257813,1.03125 0.515625,1.34765 0.480469,0.64454 1.347656,1.01954 2.296875,1.01954 1.722656,0 2.917969,-1.25391 2.917969,-3.0586 0,-1.67578 -1.113281,-2.82422 -2.742188,-2.82422 -0.597656,0 -1.078125,0.15235 -1.570312,0.51563 l 0.328125,-2.37891 h 3.539062 z m 0.363282,76.746096 h -4.476563 c 0.105469,-0.726562 0.492188,-1.171875 1.535156,-1.816406 l 1.207032,-0.667969 c 1.183593,-0.65625 1.792968,-1.546875 1.792968,-2.613281 0,-0.726562 -0.28125,-1.394531 -0.785156,-1.863281 -0.503906,-0.457031 -1.136719,-0.667969 -1.933594,-0.667969 -1.078125,0 -1.886718,0.375 -2.355468,1.125 -0.292969,0.457031 -0.433594,0.996094 -0.457032,1.875 h 1.054688 c 0.03516,-0.597656 0.117187,-0.9375 0.257812,-1.230469 0.269532,-0.527343 0.820313,-0.855468 1.464844,-0.855468 0.960938,0 1.675781,0.703125 1.675781,1.640625 0,0.691406 -0.398437,1.289062 -1.148437,1.722656 l -1.101563,0.65625 c -1.78125,1.019531 -2.296875,1.828125 -2.390625,3.726562 h 5.660157 z M 93.106478,-162.04706 v 6.17578 h 1.054687 v -8.67187 h -0.691406 c -0.375,1.32422 -0.609375,1.51172 -2.25,1.72265 v 0.77344 z m 2.964844,39.77344 h -4.476563 c 0.105469,-0.72656 0.492188,-1.17188 1.535156,-1.81641 l 1.207032,-0.66797 c 1.183593,-0.65625 1.792968,-1.54687 1.792968,-2.61328 0,-0.72656 -0.28125,-1.39453 -0.785156,-1.86328 -0.503906,-0.45703 -1.136719,-0.66797 -1.933594,-0.66797 -1.078125,0 -1.886718,0.375 -2.355468,1.125 -0.292969,0.45703 -0.433594,0.9961 -0.457032,1.875 h 1.054688 c 0.03516,-0.59765 0.117187,-0.9375 0.257812,-1.23047 0.269532,-0.52734 0.820313,-0.85546 1.464844,-0.85546 0.960938,0 1.675781,0.70312 1.675781,1.64062 0,0.69141 -0.398437,1.28906 -1.148437,1.72266 l -1.101563,0.65625 c -1.78125,1.01953 -2.296875,1.82812 -2.390625,3.72656 h 5.660157 z m -2.765625,27.008789 c -0.796875,0 -1.511719,0.351562 -1.957032,0.949219 -0.550781,0.761718 -0.832031,1.910156 -0.832031,3.527343 0,2.917969 0.960938,4.476563 2.789063,4.476563 1.792968,0 2.777343,-1.558594 2.777343,-4.40625 0,-1.6875 -0.257812,-2.8125 -0.820312,-3.597656 -0.445313,-0.609375 -1.160156,-0.949219 -1.957031,-0.949219 z m 0,0.9375 c 1.136718,0 1.699218,1.160156 1.699218,3.515625 0,2.460937 -0.550781,3.621094 -1.722656,3.621094 -1.125,0 -1.6875,-1.207032 -1.6875,-3.585938 0,-2.390625 0.5625,-3.550781 1.710938,-3.550781 z m 0,0"
       style="fill:#000000;fill-opacity:1;fill-rule:nonzero;stroke:none"
       aria-label="   4&#10; &#10; &#10; &#10; &#10; &#10;3&#10;2&#10;2&#10; &#10;2&#10;2&#10; &#10; &#10; &#10;2&#10;3&#10; &#10; &#10;3&#10; &#10; &#10; &#10; &#10;0&#10; &#10; &#10; &#10; &#10;3&#10;5&#10;0&#10; &#10; &#10; &#10; &#10; &#10;4&#10; &#10; &#10;4&#10; &#10; &#10; &#10; &#10;5&#10; &#10; &#10; &#10;2&#10; &#10;1&#10; &#10;2&#10; &#10;0"
       transform="matrix(1.3333333,0,0,1.3333333,188.88537,345.1604)" />
    <path
       id="path21"
       d="m 600,2246.4 50,86.6 h 100 l 50,-86.6 h 100 l 50,-86.6 -50,-86.6 50,-86.6 -50,-86.6 50,-86.6 -50,-86.6 50,-86.6 h 100 l 50,86.6 h 100 l 50,-86.6 h 100 l 50,86.6 -50,86.6 h -100 l -50,86.6 50,86.6 -50,86.6 50,86.6 h 100 l 50,-86.6 -50,-86.6 50,-86.6 h 100 l 50,86.6 -50,86.6 50,86.6 -50,86.6 50,86.6 -50,86.6 h -100 l -50,86.6 50,86.6 h 100 l 50,-86.6 h 100 l 50,-86.6 -50,-86.6 50,-86.6 -50,-86.6 50,-86.6 h 100 l 50,-86.6 h 100 l 50,-86.6 h 100 l 50,-86.6 h 100 l 50,-86.6 -50,-86.6 50,-86.6 -50,-86.6 50,-86.6 -50,-86.6 h -100 l -50,86.6 50,86.6 -50,86.6 50,86.6 -50,86.6 h -100 l -50,86.6 h -100 l -50,-86.6 h -100 l -50,-86.6 50,-86.6 -50,-86.6 50,-86.6 h 100 l 50,-86.6 h 100 l 50,-86.6 h 100 l 50,-86.6 -50,-86.6 50,-86.602 -50,-86.597 50,-86.602 -50,-86.597 50,-86.602 -50,-86.602 h -100 l -50,-86.597 h -100 l -50,86.597 50,86.602 h 100 l 50,86.602 -50,86.597 50,86.602 -50,86.597 50,86.602 -50,86.6 h -100 l -50,-86.6 h -100 l -50,-86.602 50,-86.597 -50,-86.602 50,-86.597 -50,-86.602 50,-86.602 -50,-86.597 50,-86.602 -50,-86.597 H 1550 L 1500,168 H 1400 L 1350,81.3984 H 1250 L 1200,168 h -100 l -50,86.602 H 950 l -50,86.597 H 800 l -50,86.602 50,86.597 h 100 l 50,-86.597 h 100 l 50,-86.602 h 100 l 50,-86.597 h 100 l 50,86.597 h 100 l 50,86.602 -50,86.597 50,86.602 -50,86.602 50,86.597 -50,86.602 h -100 l -50,86.597 h -100 l -50,-86.597 h -100 l -50,86.597 50,86.602 h 100 l 50,86.6 h 100 l 50,-86.6 h 100 l 50,86.6 -50,86.6 h -100 l -50,86.6 50,86.6 h 100 l 50,86.6 -50,86.6 h -100 l -50,-86.6 h -100 l -50,86.6 H 1100 L 1050,1467 H 950 l -50,-86.6 H 800 l -50,-86.6 H 650 l -50,86.6 50,86.6 h 100 l 50,86.6 -50,86.6 50,86.6 -50,86.6 50,86.6 -50,86.6 50,86.6 -50,86.6 H 650 l -50,86.6"
       style="fill:none;stroke:#000000;stroke-width:16;stroke-linecap:butt;stroke-linejoin:miter;stroke-miterlimit:10;stroke-dasharray:none;stroke-opacity:1"
       transform="matrix(0.13333333,0,0,-0.13333333,0,373.33333)" />
  </g>
</svg>
