<?xml version="1.0" encoding="UTF-8" standalone="no"?>
<!-- Created with Inkscape (http://www.inkscape.org/) -->

<svg
   version="1.1"
   id="svg1"
   width="346.66666"
   height="373.33334"
   viewBox="0 0 346.66666 373.33334"
   sodipodi:docname="sheepwolves-day1-sol.pdf"
   xmlns:inkscape="http://www.inkscape.org/namespaces/inkscape"
   xmlns:sodipodi="http://sodipodi.sourceforge.net/DTD/sodipodi-0.dtd"
   xmlns="http://www.w3.org/2000/svg"
   xmlns:svg="http://www.w3.org/2000/svg">
  <defs
     id="defs1" />
  <sodipodi:namedview
     id="namedview1"
     pagecolor="#ffffff"
     bordercolor="#666666"
     borderopacity="1.0"
     inkscape:showpageshadow="2"
     inkscape:pageopacity="0.0"
     inkscape:pagecheckerboard="0"
     inkscape:deskcolor="#d1d1d1">
    <inkscape:page
       x="0"
       y="0"
       inkscape:label="1"
       id="page1"
       width="346.66666"
       height="373.33334"
       margin="0"
       bleed="0" />
  </sodipodi:namedview>
  <g
     id="g1"
     inkscape:groupmode="layer"
     inkscape:label="1">
    <path
       id="path1"
       d="m 200,1900 h 100 l 50,86.6 -50,86.6 H 200 l -50,-86.6 50,-86.6 m 0,-173.2 h 100 l 50,86.6 -50,86.6 H 200 l -50,-86.6 50,-86.6 m 0,-173.2 h 100 l 50,86.6 -50,86.6 H 200 l -50,-86.6 50,-86.6 m 0,-173.2 h 100 l 50,86.6 -50,86.6 H 200 l -50,-86.6 50,-86.6 m 0,-173.2 h 100 l 50,86.6 -50,86.6 H 200 l -50,-86.6 50,-86.6 m 0,-173.2 h 100 l 50,86.6 -50,86.6 H 200 l -50,-86.6 50,-86.6 m 0,-173.199 H 300 L 350,947.398 300,1034 H 200 l -50,-86.602 50,-86.597 m 0,-173.199 h 100 l 50,86.597 -50,86.602 H 200 l -50,-86.602 50,-86.597"
       style="fill:none;stroke:#000000;stroke-width:4;stroke-linecap:butt;stroke-linejoin:miter;stroke-miterlimit:10;stroke-dasharray:10, 20, 10, 20, 10, 20, 10, 0;stroke-dashoffset:800;stroke-opacity:1"
       transform="matrix(0.13333333,0,0,-0.13333333,0,373.33333)" />
    <path
       id="path2"
       d="m 350,1986.6 h 100 l 50,86.6 -50,86.6 H 350 l -50,-86.6 50,-86.6 m 0,-173.2 h 100 l 50,86.6 -50,86.6 H 350 l -50,-86.6 50,-86.6 m 0,-173.2 h 100 l 50,86.6 -50,86.6 H 350 l -50,-86.6 50,-86.6 m 0,-173.2 h 100 l 50,86.6 -50,86.6 H 350 l -50,-86.6 50,-86.6 m 0,-173.2 h 100 l 50,86.6 -50,86.6 H 350 l -50,-86.6 50,-86.6 m 0,-173.2 h 100 l 50,86.6 -50,86.6 H 350 l -50,-86.6 50,-86.6 m 0,-173.202 h 100 l 50,86.602 -50,86.6 H 350 l -50,-86.6 50,-86.602 m 0,-173.199 h 100 l 50,86.602 -50,86.597 H 350 l -50,-86.597 50,-86.602 M 350,601 h 100 l 50,86.602 -50,86.597 H 350 L 300,687.602 350,601"
       style="fill:none;stroke:#000000;stroke-width:4;stroke-linecap:butt;stroke-linejoin:miter;stroke-miterlimit:10;stroke-dasharray:10, 20, 10, 20, 10, 20, 10, 0;stroke-dashoffset:800;stroke-opacity:1"
       transform="matrix(0.13333333,0,0,-0.13333333,0,373.33333)" />
    <path
       id="path3"
       d="m 500,2073.2 h 100 l 50,86.6 -50,86.6 H 500 l -50,-86.6 50,-86.6 m 0,-173.2 h 100 l 50,86.6 -50,86.6 H 500 l -50,-86.6 50,-86.6 m 0,-173.2 h 100 l 50,86.6 -50,86.6 H 500 l -50,-86.6 50,-86.6 m 0,-173.2 h 100 l 50,86.6 -50,86.6 H 500 l -50,-86.6 50,-86.6 m 0,-173.2 h 100 l 50,86.6 -50,86.6 H 500 l -50,-86.6 50,-86.6 m 0,-173.2 h 100 l 50,86.6 -50,86.6 H 500 l -50,-86.6 50,-86.6 m 0,-173.2 h 100 l 50,86.6 -50,86.6 H 500 l -50,-86.6 50,-86.6 m 0,-173.199 H 600 L 650,947.398 600,1034 H 500 l -50,-86.602 50,-86.597 m 0,-173.199 h 100 l 50,86.597 -50,86.602 H 500 l -50,-86.602 50,-86.597 m 0,-173.204 H 600 L 650,601 600,687.602 H 500 L 450,601 500,514.398"
       style="fill:none;stroke:#000000;stroke-width:4;stroke-linecap:butt;stroke-linejoin:miter;stroke-miterlimit:10;stroke-dasharray:10, 20, 10, 20, 10, 20, 10, 0;stroke-dashoffset:800;stroke-opacity:1"
       transform="matrix(0.13333333,0,0,-0.13333333,0,373.33333)" />
    <path
       id="path4"
       d="m 650,2159.8 h 100 l 50,86.6 -50,86.6 H 650 l -50,-86.6 50,-86.6 m 0,-173.2 h 100 l 50,86.6 -50,86.6 H 650 l -50,-86.6 50,-86.6 m 0,-173.2 h 100 l 50,86.6 -50,86.6 H 650 l -50,-86.6 50,-86.6 m 0,-173.2 h 100 l 50,86.6 -50,86.6 H 650 l -50,-86.6 50,-86.6 m 0,-173.2 h 100 l 50,86.6 -50,86.6 H 650 l -50,-86.6 50,-86.6 m 0,-173.2 h 100 l 50,86.6 -50,86.6 H 650 l -50,-86.6 50,-86.6 m 0,-173.2 h 100 l 50,86.6 -50,86.6 H 650 l -50,-86.6 50,-86.6 m 0,-173.202 h 100 l 50,86.602 -50,86.6 H 650 l -50,-86.6 50,-86.602 m 0,-173.199 h 100 l 50,86.602 -50,86.597 H 650 l -50,-86.597 50,-86.602 M 650,601 h 100 l 50,86.602 -50,86.597 H 650 L 600,687.602 650,601 m 0,-173.199 H 750 L 800,514.398 750,601 H 650 l -50,-86.602 50,-86.597"
       style="fill:none;stroke:#000000;stroke-width:4;stroke-linecap:butt;stroke-linejoin:miter;stroke-miterlimit:10;stroke-dasharray:10, 20, 10, 20, 10, 20, 10, 0;stroke-dashoffset:800;stroke-opacity:1"
       transform="matrix(0.13333333,0,0,-0.13333333,0,373.33333)" />
    <path
       id="path5"
       d="m 800,2246.4 h 100 l 50,86.6 -50,86.6 H 800 l -50,-86.6 50,-86.6 m 0,-173.2 h 100 l 50,86.6 -50,86.6 H 800 l -50,-86.6 50,-86.6 m 0,-173.2 h 100 l 50,86.6 -50,86.6 H 800 l -50,-86.6 50,-86.6 m 0,-173.2 h 100 l 50,86.6 -50,86.6 H 800 l -50,-86.6 50,-86.6 m 0,-173.2 h 100 l 50,86.6 -50,86.6 H 800 l -50,-86.6 50,-86.6 m 0,-173.2 h 100 l 50,86.6 -50,86.6 H 800 l -50,-86.6 50,-86.6 m 0,-173.2 h 100 l 50,86.6 -50,86.6 H 800 l -50,-86.6 50,-86.6 m 0,-173.2 h 100 l 50,86.6 -50,86.6 H 800 l -50,-86.6 50,-86.6 m 0,-173.199 H 900 L 950,947.398 900,1034 H 800 l -50,-86.602 50,-86.597 m 0,-173.199 h 100 l 50,86.597 -50,86.602 H 800 l -50,-86.602 50,-86.597 m 0,-173.204 H 900 L 950,601 900,687.602 H 800 L 750,601 800,514.398 m 0,-173.199 h 100 l 50,86.602 -50,86.597 H 800 l -50,-86.597 50,-86.602"
       style="fill:none;stroke:#000000;stroke-width:4;stroke-linecap:butt;stroke-linejoin:miter;stroke-miterlimit:10;stroke-dasharray:10, 20, 10, 20, 10, 20, 10, 0;stroke-dashoffset:800;stroke-opacity:1"
       transform="matrix(0.13333333,0,0,-0.13333333,0,373.33333)" />
    <path
       id="path6"
       d="m 950,2333 h 100 l 50,86.6 -50,86.6 H 950 l -50,-86.6 50,-86.6 m 0,-173.2 h 100 l 50,86.6 -50,86.6 H 950 l -50,-86.6 50,-86.6 m 0,-173.2 h 100 l 50,86.6 -50,86.6 H 950 l -50,-86.6 50,-86.6 m 0,-173.2 h 100 l 50,86.6 -50,86.6 H 950 l -50,-86.6 50,-86.6 m 0,-173.2 h 100 l 50,86.6 -50,86.6 H 950 l -50,-86.6 50,-86.6 m 0,-173.2 h 100 l 50,86.6 -50,86.6 H 950 l -50,-86.6 50,-86.6 m 0,-173.2 h 100 l 50,86.6 -50,86.6 H 950 l -50,-86.6 50,-86.6 m 0,-173.2 h 100 l 50,86.6 -50,86.6 H 950 l -50,-86.6 50,-86.6 m 0,-173.202 h 100 l 50,86.602 -50,86.6 H 950 l -50,-86.6 50,-86.602 m 0,-173.199 h 100 l 50,86.602 -50,86.597 H 950 l -50,-86.597 50,-86.602 M 950,601 h 100 l 50,86.602 -50,86.597 H 950 L 900,687.602 950,601 m 0,-173.199 h 100 l 50,86.597 L 1050,601 H 950 l -50,-86.602 50,-86.597 m 0,-173.199 h 100 l 50,86.597 -50,86.602 H 950 l -50,-86.602 50,-86.597"
       style="fill:none;stroke:#000000;stroke-width:4;stroke-linecap:butt;stroke-linejoin:miter;stroke-miterlimit:10;stroke-dasharray:10, 20, 10, 20, 10, 20, 10, 0;stroke-dashoffset:800;stroke-opacity:1"
       transform="matrix(0.13333333,0,0,-0.13333333,0,373.33333)" />
    <path
       id="path7"
       d="m 1100,2419.6 h 100 l 50,86.6 -50,86.6 h -100 l -50,-86.6 50,-86.6 m 0,-173.2 h 100 l 50,86.6 -50,86.6 h -100 l -50,-86.6 50,-86.6 m 0,-173.2 h 100 l 50,86.6 -50,86.6 h -100 l -50,-86.6 50,-86.6 m 0,-173.2 h 100 l 50,86.6 -50,86.6 h -100 l -50,-86.6 50,-86.6 m 0,-173.2 h 100 l 50,86.6 -50,86.6 h -100 l -50,-86.6 50,-86.6 m 0,-173.2 h 100 l 50,86.6 -50,86.6 h -100 l -50,-86.6 50,-86.6 m 0,-173.2 h 100 l 50,86.6 -50,86.6 h -100 l -50,-86.6 50,-86.6 m 0,-173.2 h 100 l 50,86.6 -50,86.6 h -100 l -50,-86.6 50,-86.6 m 0,-173.2 h 100 l 50,86.6 -50,86.6 h -100 l -50,-86.6 50,-86.6 m 0,-173.199 h 100 l 50,86.597 -50,86.602 h -100 l -50,-86.602 50,-86.597 m 0,-173.199 h 100 l 50,86.597 -50,86.602 h -100 l -50,-86.602 50,-86.597 m 0,-173.204 h 100 l 50,86.602 -50,86.602 H 1100 L 1050,601 l 50,-86.602 m 0,-173.199 h 100 l 50,86.602 -50,86.597 h -100 l -50,-86.597 50,-86.602 M 1100,168 h 100 l 50,86.602 -50,86.597 H 1100 L 1050,254.602 1100,168"
       style="fill:none;stroke:#000000;stroke-width:4;stroke-linecap:butt;stroke-linejoin:miter;stroke-miterlimit:10;stroke-dasharray:10, 20, 10, 20, 10, 20, 10, 0;stroke-dashoffset:800;stroke-opacity:1"
       transform="matrix(0.13333333,0,0,-0.13333333,0,373.33333)" />
    <path
       id="path8"
       d="m 1250,2506.2 h 100 l 50,86.6 -50,86.6 h -100 l -50,-86.6 50,-86.6 m 0,-173.2 h 100 l 50,86.6 -50,86.6 h -100 l -50,-86.6 50,-86.6 m 0,-173.2 h 100 l 50,86.6 -50,86.6 h -100 l -50,-86.6 50,-86.6 m 0,-173.2 h 100 l 50,86.6 -50,86.6 h -100 l -50,-86.6 50,-86.6 m 0,-173.2 h 100 l 50,86.6 -50,86.6 h -100 l -50,-86.6 50,-86.6 m 0,-173.2 h 100 l 50,86.6 -50,86.6 h -100 l -50,-86.6 50,-86.6 m 0,-173.2 h 100 l 50,86.6 -50,86.6 h -100 l -50,-86.6 50,-86.6 m 0,-173.2 h 100 l 50,86.6 -50,86.6 h -100 l -50,-86.6 50,-86.6 m 0,-173.2 h 100 l 50,86.6 -50,86.6 h -100 l -50,-86.6 50,-86.6 m 0,-173.198 h 100 l 50,86.598 -50,86.6 h -100 l -50,-86.6 50,-86.598 m 0,-173.203 h 100 l 50,86.602 -50,86.601 h -100 l -50,-86.601 50,-86.602 M 1250,601 h 100 l 50,86.602 -50,86.597 H 1250 L 1200,687.602 1250,601 m 0,-173.199 h 100 l 50,86.601 -50,86.598 h -100 l -50,-86.598 50,-86.601 m 0,-173.199 h 100 l 50,86.597 -50,86.602 h -100 l -50,-86.602 50,-86.597 m 0,-173.1997 h 100 L 1400,168 1350,254.602 H 1250 L 1200,168 1250,81.4023"
       style="fill:none;stroke:#000000;stroke-width:4;stroke-linecap:butt;stroke-linejoin:miter;stroke-miterlimit:10;stroke-dasharray:10, 20, 10, 20, 10, 20, 10, 0;stroke-dashoffset:800;stroke-opacity:1"
       transform="matrix(0.13333333,0,0,-0.13333333,0,373.33333)" />
    <path
       id="path9"
       d="m 1400,2419.6 h 100 l 50,86.6 -50,86.6 h -100 l -50,-86.6 50,-86.6 m 0,-173.2 h 100 l 50,86.6 -50,86.6 h -100 l -50,-86.6 50,-86.6 m 0,-173.2 h 100 l 50,86.6 -50,86.6 h -100 l -50,-86.6 50,-86.6 m 0,-173.2 h 100 l 50,86.6 -50,86.6 h -100 l -50,-86.6 50,-86.6 m 0,-173.2 h 100 l 50,86.6 -50,86.6 h -100 l -50,-86.6 50,-86.6 m 0,-173.2 h 100 l 50,86.6 -50,86.6 h -100 l -50,-86.6 50,-86.6 m 0,-173.2 h 100 l 50,86.6 -50,86.6 h -100 l -50,-86.6 50,-86.6 m 0,-173.2 h 100 l 50,86.6 -50,86.6 h -100 l -50,-86.6 50,-86.6 m 0,-173.2 h 100 l 50,86.6 -50,86.6 h -100 l -50,-86.6 50,-86.6 m 0,-173.199 h 100 l 50,86.601 -50,86.598 h -100 l -50,-86.598 50,-86.601 m 0,-173.199 h 100 l 50,86.597 -50,86.602 h -100 l -50,-86.602 50,-86.597 m 0,-173.2 h 100 l 50,86.598 -50,86.602 H 1400 L 1350,601 l 50,-86.598 m 0,-173.203 h 100 l 50,86.602 -50,86.601 h -100 l -50,-86.601 50,-86.602 M 1400,168 h 100 l 50,86.602 -50,86.597 H 1400 L 1350,254.602 1400,168"
       style="fill:none;stroke:#000000;stroke-width:4;stroke-linecap:butt;stroke-linejoin:miter;stroke-miterlimit:10;stroke-dasharray:10, 20, 10, 20, 10, 20, 10, 0;stroke-dashoffset:800;stroke-opacity:1"
       transform="matrix(0.13333333,0,0,-0.13333333,0,373.33333)" />
    <path
       id="path10"
       d="m 1550,2333 h 100 l 50,86.6 -50,86.6 h -100 l -50,-86.6 50,-86.6 m 0,-173.2 h 100 l 50,86.6 -50,86.6 h -100 l -50,-86.6 50,-86.6 m 0,-173.2 h 100 l 50,86.6 -50,86.6 h -100 l -50,-86.6 50,-86.6 m 0,-173.2 h 100 l 50,86.6 -50,86.6 h -100 l -50,-86.6 50,-86.6 m 0,-173.2 h 100 l 50,86.6 -50,86.6 h -100 l -50,-86.6 50,-86.6 m 0,-173.2 h 100 l 50,86.6 -50,86.6 h -100 l -50,-86.6 50,-86.6 m 0,-173.2 h 100 l 50,86.6 -50,86.6 h -100 l -50,-86.6 50,-86.6 m 0,-173.2 h 100 l 50,86.6 -50,86.6 h -100 l -50,-86.6 50,-86.6 m 0,-173.198 h 100 l 50,86.598 -50,86.6 h -100 l -50,-86.6 50,-86.598 m 0,-173.203 h 100 l 50,86.602 -50,86.601 h -100 l -50,-86.601 50,-86.602 M 1550,601 h 100 l 50,86.602 -50,86.597 H 1550 L 1500,687.602 1550,601 m 0,-173.199 h 100 l 50,86.601 -50,86.598 h -100 l -50,-86.598 50,-86.601 m 0,-173.199 h 100 l 50,86.597 -50,86.602 h -100 l -50,-86.602 50,-86.597"
       style="fill:none;stroke:#000000;stroke-width:4;stroke-linecap:butt;stroke-linejoin:miter;stroke-miterlimit:10;stroke-dasharray:10, 20, 10, 20, 10, 20, 10, 0;stroke-dashoffset:800;stroke-opacity:1"
       transform="matrix(0.13333333,0,0,-0.13333333,0,373.33333)" />
    <path
       id="path11"
       d="m 1700,2246.4 h 100 l 50,86.6 -50,86.6 h -100 l -50,-86.6 50,-86.6 m 0,-173.2 h 100 l 50,86.6 -50,86.6 h -100 l -50,-86.6 50,-86.6 m 0,-173.2 h 100 l 50,86.6 -50,86.6 h -100 l -50,-86.6 50,-86.6 m 0,-173.2 h 100 l 50,86.6 -50,86.6 h -100 l -50,-86.6 50,-86.6 m 0,-173.2 h 100 l 50,86.6 -50,86.6 h -100 l -50,-86.6 50,-86.6 m 0,-173.2 h 100 l 50,86.6 -50,86.6 h -100 l -50,-86.6 50,-86.6 m 0,-173.2 h 100 l 50,86.6 -50,86.6 h -100 l -50,-86.6 50,-86.6 m 0,-173.2 h 100 l 50,86.6 -50,86.6 h -100 l -50,-86.6 50,-86.6 m 0,-173.199 h 100 l 50,86.601 -50,86.598 h -100 l -50,-86.598 50,-86.601 m 0,-173.199 h 100 l 50,86.597 -50,86.602 h -100 l -50,-86.602 50,-86.597 m 0,-173.2 h 100 l 50,86.598 -50,86.602 H 1700 L 1650,601 l 50,-86.598 m 0,-173.203 h 100 l 50,86.602 -50,86.601 h -100 l -50,-86.601 50,-86.602"
       style="fill:none;stroke:#000000;stroke-width:4;stroke-linecap:butt;stroke-linejoin:miter;stroke-miterlimit:10;stroke-dasharray:10, 20, 10, 20, 10, 20, 10, 0;stroke-dashoffset:800;stroke-opacity:1"
       transform="matrix(0.13333333,0,0,-0.13333333,0,373.33333)" />
    <path
       id="path12"
       d="m 1850,2159.8 h 100 l 50,86.6 -50,86.6 h -100 l -50,-86.6 50,-86.6 m 0,-173.2 h 100 l 50,86.6 -50,86.6 h -100 l -50,-86.6 50,-86.6 m 0,-173.2 h 100 l 50,86.6 -50,86.6 h -100 l -50,-86.6 50,-86.6 m 0,-173.2 h 100 l 50,86.6 -50,86.6 h -100 l -50,-86.6 50,-86.6 m 0,-173.2 h 100 l 50,86.6 -50,86.6 h -100 l -50,-86.6 50,-86.6 m 0,-173.2 h 100 l 50,86.6 -50,86.6 h -100 l -50,-86.6 50,-86.6 m 0,-173.2 h 100 l 50,86.6 -50,86.6 h -100 l -50,-86.6 50,-86.6 m 0,-173.202 h 100 l 50,86.602 -50,86.6 h -100 l -50,-86.6 50,-86.602 m 0,-173.199 h 100 l 50,86.602 -50,86.597 h -100 l -50,-86.597 50,-86.602 M 1850,601 h 100 l 50,86.602 -50,86.597 H 1850 L 1800,687.602 1850,601 m 0,-173.199 h 100 l 50,86.597 -50,86.602 h -100 l -50,-86.602 50,-86.597"
       style="fill:none;stroke:#000000;stroke-width:4;stroke-linecap:butt;stroke-linejoin:miter;stroke-miterlimit:10;stroke-dasharray:10, 20, 10, 20, 10, 20, 10, 0;stroke-dashoffset:800;stroke-opacity:1"
       transform="matrix(0.13333333,0,0,-0.13333333,0,373.33333)" />
    <path
       id="path13"
       d="m 2000,2073.2 h 100 l 50,86.6 -50,86.6 h -100 l -50,-86.6 50,-86.6 m 0,-173.2 h 100 l 50,86.6 -50,86.6 h -100 l -50,-86.6 50,-86.6 m 0,-173.2 h 100 l 50,86.6 -50,86.6 h -100 l -50,-86.6 50,-86.6 m 0,-173.2 h 100 l 50,86.6 -50,86.6 h -100 l -50,-86.6 50,-86.6 m 0,-173.2 h 100 l 50,86.6 -50,86.6 h -100 l -50,-86.6 50,-86.6 m 0,-173.2 h 100 l 50,86.6 -50,86.6 h -100 l -50,-86.6 50,-86.6 m 0,-173.2 h 100 l 50,86.6 -50,86.6 h -100 l -50,-86.6 50,-86.6 m 0,-173.199 h 100 l 50,86.597 -50,86.602 h -100 l -50,-86.602 50,-86.597 m 0,-173.199 h 100 l 50,86.597 -50,86.602 h -100 l -50,-86.602 50,-86.597 m 0,-173.204 h 100 l 50,86.602 -50,86.602 H 2000 L 1950,601 l 50,-86.602"
       style="fill:none;stroke:#000000;stroke-width:4;stroke-linecap:butt;stroke-linejoin:miter;stroke-miterlimit:10;stroke-dasharray:10, 20, 10, 20, 10, 20, 10, 0;stroke-dashoffset:800;stroke-opacity:1"
       transform="matrix(0.13333333,0,0,-0.13333333,0,373.33333)" />
    <path
       id="path14"
       d="m 2150,1986.6 h 100 l 50,86.6 -50,86.6 h -100 l -50,-86.6 50,-86.6 m 0,-173.2 h 100 l 50,86.6 -50,86.6 h -100 l -50,-86.6 50,-86.6 m 0,-173.2 h 100 l 50,86.6 -50,86.6 h -100 l -50,-86.6 50,-86.6 m 0,-173.2 h 100 l 50,86.6 -50,86.6 h -100 l -50,-86.6 50,-86.6 m 0,-173.2 h 100 l 50,86.6 -50,86.6 h -100 l -50,-86.6 50,-86.6 m 0,-173.2 h 100 l 50,86.6 -50,86.6 h -100 l -50,-86.6 50,-86.6 m 0,-173.202 h 100 l 50,86.602 -50,86.6 h -100 l -50,-86.6 50,-86.602 m 0,-173.199 h 100 l 50,86.602 -50,86.597 h -100 l -50,-86.597 50,-86.602 M 2150,601 h 100 l 50,86.602 -50,86.597 H 2150 L 2100,687.602 2150,601"
       style="fill:none;stroke:#000000;stroke-width:4;stroke-linecap:butt;stroke-linejoin:miter;stroke-miterlimit:10;stroke-dasharray:10, 20, 10, 20, 10, 20, 10, 0;stroke-dashoffset:800;stroke-opacity:1"
       transform="matrix(0.13333333,0,0,-0.13333333,0,373.33333)" />
    <path
       id="path15"
       d="m 2300,1900 h 100 l 50,86.6 -50,86.6 h -100 l -50,-86.6 50,-86.6 m 0,-173.2 h 100 l 50,86.6 -50,86.6 h -100 l -50,-86.6 50,-86.6 m 0,-173.2 h 100 l 50,86.6 -50,86.6 h -100 l -50,-86.6 50,-86.6 m 0,-173.2 h 100 l 50,86.6 -50,86.6 h -100 l -50,-86.6 50,-86.6 m 0,-173.2 h 100 l 50,86.6 -50,86.6 h -100 l -50,-86.6 50,-86.6 m 0,-173.2 h 100 l 50,86.6 -50,86.6 h -100 l -50,-86.6 50,-86.6 m 0,-173.199 h 100 l 50,86.597 -50,86.602 h -100 l -50,-86.602 50,-86.597 m 0,-173.199 h 100 l 50,86.597 -50,86.602 h -100 l -50,-86.602 50,-86.597"
       style="fill:none;stroke:#000000;stroke-width:4;stroke-linecap:butt;stroke-linejoin:miter;stroke-miterlimit:10;stroke-dasharray:10, 20, 10, 20, 10, 20, 10, 0;stroke-dashoffset:800;stroke-opacity:1"
       transform="matrix(0.13333333,0,0,-0.13333333,0,373.33333)" />
    <path
       id="path16"
       d="M 6.6451166,-1.71875e-4 8.4966791,-6.2931406 h -1.125 L 6.1177728,-1.3947031 4.8873041,-6.2931406 H 3.6568353 L 2.4615228,-1.3947031 1.1724603,-6.2931406 H 0.07089781 L 1.8990228,-1.71875e-4 h 1.125 L 4.2310541,-4.9337656 5.5083978,-1.71875e-4 Z m 0,0"
       style="fill:#008000;fill-opacity:1;fill-rule:nonzero;stroke:none"
       aria-label="   w"
       transform="matrix(1.3333333,0,0,1.3333333,7.5578133,193.89867)" />
    <path
       id="path17"
       d="M 6.6451166,7.65625e-4 8.4966791,-6.2922031 h -1.125 L 6.1177728,-1.3937656 4.8873041,-6.2922031 H 3.6568353 L 2.4615228,-1.3937656 1.1724603,-6.2922031 H 0.07089781 L 1.8990228,7.65625e-4 h 1.125 L 4.2310541,-4.9328281 5.5083978,7.65625e-4 Z m 0,0"
       style="fill:#008000;fill-opacity:1;fill-rule:nonzero;stroke:none"
       aria-label="  w"
       transform="matrix(1.3333333,0,0,1.3333333,7.5578133,263.17867)" />
    <path
       id="path18"
       d="M 6.0712516,-1.0430469 H 1.5946891 c 0.1054687,-0.7265625 0.4921875,-1.171875 1.5351562,-1.8164062 l 1.2070313,-0.6679688 c 1.1835937,-0.65625 1.7929687,-1.546875 1.7929687,-2.6132812 0,-0.7265625 -0.28125,-1.3945313 -0.7851562,-1.8632813 -0.5039063,-0.4570312 -1.1367188,-0.6679687 -1.9335938,-0.6679687 -1.078125,0 -1.8867187,0.375 -2.3554687,1.125 -0.29296879,0.4570312 -0.43359379,0.9960937 -0.45703129,1.875 H 1.6532828 c 0.035156,-0.5976563 0.1171875,-0.9375 0.2578125,-1.2304688 0.2695313,-0.5273437 0.8203125,-0.8554687 1.4648438,-0.8554687 0.9609375,0 1.6757812,0.703125 1.6757812,1.640625 0,0.6914062 -0.3984375,1.2890625 -1.1484375,1.7226562 l -1.1015625,0.65625 c -1.78125,1.0195313 -2.29687499,1.828125 -2.39062499,3.72656253 H 6.0712516 Z m 0,17.3203129 H 1.5946891 c 0.1054687,-0.726563 0.4921875,-1.171875 1.5351562,-1.816407 l 1.2070313,-0.667968 c 1.1835937,-0.65625 1.7929687,-1.546875 1.7929687,-2.613282 0,-0.726562 -0.28125,-1.3945309 -0.7851562,-1.8632809 C 4.8407828,8.8592969 4.2079703,8.6483594 3.4110953,8.6483594 c -1.078125,0 -1.8867187,0.375 -2.3554687,1.125 C 0.76265781,10.230391 0.62203281,10.769453 0.59859531,11.648359 H 1.6532828 c 0.035156,-0.597656 0.1171875,-0.9375 0.2578125,-1.230468 0.2695313,-0.5273441 0.8203125,-0.8554691 1.4648438,-0.8554691 0.9609375,0 1.6757812,0.7031251 1.6757812,1.6406251 0,0.691406 -0.3984375,1.289062 -1.1484375,1.722656 l -1.1015625,0.65625 c -1.78125,1.019531 -2.29687499,1.828125 -2.39062499,3.726563 H 6.0712516 Z m -2.9648438,12.1875 v 6.175781 H 4.1610953 V 25.968672 H 3.4696891 c -0.375,1.324219 -0.609375,1.511719 -2.25,1.722656 v 0.773438 z m 0,34.637695 v 6.175781 H 4.1610953 V 60.606367 H 3.4696891 c -0.375,1.324219 -0.609375,1.511719 -2.25,1.722656 v 0.773438 z M 5.7079703,78.090742 H 1.3251578 L 0.68062656,82.719648 H 1.6532828 c 0.4921875,-0.585937 0.9023438,-0.785156 1.5703125,-0.785156 1.1484375,0 1.8515625,0.773438 1.8515625,2.039063 0,1.21875 -0.703125,1.96875 -1.8632812,1.96875 -0.9140625,0 -1.4882813,-0.46875 -1.734375,-1.429688 H 0.42281406 c 0.140625,0.691406 0.2578125,1.03125 0.515625,1.347656 0.48046874,0.644532 1.34765624,1.019532 2.29687504,1.019532 1.7226562,0 2.9179687,-1.253907 2.9179687,-3.058594 0,-1.675781 -1.1132812,-2.824219 -2.7421875,-2.824219 -0.5976562,0 -1.078125,0.152344 -1.5703125,0.515625 l 0.328125,-2.378906 H 5.7079703 Z M 18.92672,6.5624219 v 2.0976562 h 1.054688 V 6.5624219 h 1.253906 V 5.6132031 H 19.981408 V -0.01179687 H 19.196252 L 15.340783,5.4491406 v 1.1132813 z m 0,-0.9492188 H 16.266564 L 18.92672,1.7811719 Z M 33.106408,45.782148 v 6.175782 h 1.054687 v -8.671875 h -0.691406 c -0.375,1.324218 -0.609375,1.511718 -2.25,1.722656 v 0.773437 z m 2.964844,22.453125 h -4.476563 c 0.105469,-0.726562 0.492188,-1.171875 1.535156,-1.816406 l 1.207032,-0.667969 c 1.183593,-0.65625 1.792968,-1.546875 1.792968,-2.613281 0,-0.726562 -0.28125,-1.394531 -0.785156,-1.863281 -0.503906,-0.457031 -1.136719,-0.667969 -1.933594,-0.667969 -1.078125,0 -1.886718,0.375 -2.355468,1.125 -0.292969,0.457031 -0.433594,0.996094 -0.457032,1.875 h 1.054688 c 0.03516,-0.597656 0.117187,-0.9375 0.257812,-1.230469 0.269532,-0.527343 0.820313,-0.855468 1.464844,-0.855468 0.960938,0 1.675781,0.703125 1.675781,1.640625 0,0.691406 -0.398437,1.289062 -1.148437,1.722656 l -1.101563,0.65625 c -1.78125,1.019531 -2.296875,1.828125 -2.390625,3.726562 h 5.660157 z m 0,0"
       style="fill:#000000;fill-opacity:1;fill-rule:nonzero;stroke:none"
       aria-label="2&#10;2&#10;1&#10; &#10;1&#10;5&#10; &#10;4&#10; &#10; &#10; &#10; &#10;1&#10;2&#10; "
       transform="matrix(1.3333333,0,0,1.3333333,28.885467,114.22667)" />
    <path
       id="path19"
       d="M 6.6450766,8.09375e-4 8.4966391,-6.2921594 h -1.125 L 6.1177328,-1.3937219 4.8872641,-6.2921594 H 3.6567953 L 2.4614828,-1.3937219 1.1724203,-6.2921594 H 0.07085781 L 1.8989828,8.09375e-4 h 1.125 L 4.2310141,-4.9327844 5.5083578,8.09375e-4 Z m 0,0"
       style="fill:#008000;fill-opacity:1;fill-rule:nonzero;stroke:none"
       aria-label="w"
       transform="matrix(1.3333333,0,0,1.3333333,67.557867,251.63173)" />
    <path
       id="path20"
       d="m 3.3056266,-8.6728953 c -0.796875,0 -1.5117188,0.3515625 -1.9570313,0.9492187 -0.55078124,0.7617188 -0.83203124,1.9101563 -0.83203124,3.5273438 0,2.9179687 0.96093754,4.47656249 2.78906254,4.47656249 1.7929687,0 2.7773437,-1.55859379 2.7773437,-4.40624999 0,-1.6875 -0.2578125,-2.8125 -0.8203125,-3.5976563 -0.4453125,-0.609375 -1.1601562,-0.9492187 -1.9570312,-0.9492187 z m 0,0.9375 c 1.1367187,0 1.6992187,1.1601562 1.6992187,3.515625 0,2.4609375 -0.5507812,3.62109374 -1.7226562,3.62109374 -1.125,0 -1.6875,-1.20703124 -1.6875,-3.58593754 0,-2.390625 0.5625,-3.5507812 1.7109375,-3.5507812 z M 3.1064078,11.143511 v 6.175781 H 4.1610953 V 8.6474172 H 3.4696891 c -0.375,1.3242187 -0.609375,1.5117188 -2.25,1.7226558 v 0.773438 z M 21.071252,-148.26372 h -4.476563 c 0.105469,-0.72656 0.492188,-1.17187 1.535156,-1.8164 l 1.207032,-0.66797 c 1.183593,-0.65625 1.792968,-1.54688 1.792968,-2.61328 0,-0.72656 -0.28125,-1.39453 -0.785156,-1.86328 -0.503906,-0.45703 -1.136719,-0.66797 -1.933594,-0.66797 -1.078125,0 -1.886718,0.375 -2.355468,1.125 -0.292969,0.45703 -0.433594,0.99609 -0.457032,1.875 h 1.054688 c 0.03516,-0.59766 0.117187,-0.9375 0.257812,-1.23047 0.269532,-0.52734 0.820313,-0.85547 1.464844,-0.85547 0.960938,0 1.675781,0.70313 1.675781,1.64063 0,0.6914 -0.398437,1.28906 -1.148437,1.72265 l -1.101563,0.65625 c -1.78125,1.01953 -2.296875,1.82813 -2.390625,3.72656 h 5.660157 z m -3.421875,14.36719 h 0.574218 c 1.160157,0 1.769532,0.53906 1.769532,1.58203 0,1.08985 -0.65625,1.75782 -1.757813,1.75782 -1.160156,0 -1.722656,-0.58594 -1.792969,-1.86329 h -1.054687 c 0.04687,0.69141 0.164062,1.14844 0.375,1.53516 0.433594,0.84375 1.265625,1.26563 2.425781,1.26563 1.757813,0 2.882813,-1.06641 2.882813,-2.70704 0,-1.10156 -0.421875,-1.69921 -1.441407,-2.0625 0.796875,-0.32812 1.195313,-0.92578 1.195313,-1.80468 0,-1.48828 -0.972656,-2.37891 -2.601563,-2.37891 -1.710937,0 -2.625,0.96094 -2.660156,2.78906 h 1.054688 c 0.01172,-0.52734 0.05859,-0.82031 0.199218,-1.08984 0.234375,-0.49219 0.761719,-0.78516 1.417969,-0.78516 0.9375,0 1.5,0.57422 1.5,1.5 0,0.6211 -0.210937,0.98438 -0.679687,1.19532 -0.28125,0.11718 -0.667969,0.16406 -1.40625,0.17578 z m 0,0"
       style="fill:#000000;fill-opacity:1;fill-rule:nonzero;stroke:none"
       aria-label="0&#10;1&#10;2&#10;3&#10; &#10; &#10; &#10; "
       transform="matrix(1.3333333,0,0,1.3333333,68.885467,275.88027)" />
    <path
       id="path21"
       d="m 5.2607422,-4.5350156 c -0.023437,-1.2421875 -0.8320313,-1.9335938 -2.2851563,-1.9335938 -1.4648437,0 -2.41406246,0.7617188 -2.41406246,1.921875 0,0.984375 0.50390626,1.453125 1.99218746,1.8164063 l 0.9375,0.2226562 c 0.6914063,0.1640625 0.9726563,0.421875 0.9726563,0.8671875 0,0.5976563 -0.5859375,0.99609378 -1.4648438,0.99609378 -0.5390625,0 -0.9960937,-0.1640625 -1.2421875,-0.42187498 C 1.5927734,-1.2420469 1.5224609,-1.4295469 1.4638672,-1.8748594 H 0.40917969 c 0.046875,1.45312503 0.86718751,2.15625003 2.50781251,2.15625003 1.5820312,0 2.5898437,-0.78515625 2.5898437,-1.99218753 0,-0.9375 -0.5273437,-1.453125 -1.78125,-1.7578125 L 2.7763672,-3.6912656 c -0.8203125,-0.1992188 -1.171875,-0.4570313 -1.171875,-0.9023438 0,-0.5859375 0.515625,-0.9492187 1.3359375,-0.9492187 0.796875,0 1.2304687,0.3515625 1.2539062,1.0078125 z m 0,0"
       style="fill:#008000;fill-opacity:1;fill-rule:nonzero;stroke:none"
       aria-label="s"
       transform="matrix(1.3333333,0,0,1.3333333,89.333333,216.992)" />
    <path
       id="path22"
       d="M 6.0712516,-1.0443578 H 1.5946891 c 0.1054687,-0.7265625 0.4921875,-1.171875 1.5351562,-1.8164063 l 1.2070313,-0.6679687 c 1.1835937,-0.65625 1.7929687,-1.546875 1.7929687,-2.6132813 0,-0.7265625 -0.28125,-1.3945312 -0.7851562,-1.8632812 -0.5039063,-0.4570313 -1.1367188,-0.6679688 -1.9335938,-0.6679688 -1.078125,0 -1.8867187,0.375 -2.3554687,1.125 -0.29296879,0.4570313 -0.43359379,0.9960938 -0.45703129,1.875 H 1.6532828 c 0.035156,-0.5976562 0.1171875,-0.9375 0.2578125,-1.2304687 0.2695313,-0.5273438 0.8203125,-0.8554688 1.4648438,-0.8554688 0.9609375,0 1.6757812,0.703125 1.6757812,1.640625 0,0.6914063 -0.3984375,1.2890625 -1.1484375,1.7226563 l -1.1015625,0.65625 c -1.78125,1.0195312 -2.29687499,1.828125 -2.39062499,3.72656249 H 6.0712516 Z M 5.7079703,43.451736 H 1.3251578 L 0.68062656,48.080642 H 1.6532828 c 0.4921875,-0.585937 0.9023438,-0.785156 1.5703125,-0.785156 1.1484375,0 1.8515625,0.773437 1.8515625,2.039062 0,1.21875 -0.703125,1.96875 -1.8632812,1.96875 -0.9140625,0 -1.4882813,-0.46875 -1.734375,-1.429687 H 0.42281406 c 0.140625,0.691406 0.2578125,1.03125 0.515625,1.347656 0.48046874,0.644531 1.34765624,1.019531 2.29687504,1.019531 1.7226562,0 2.9179687,-1.253906 2.9179687,-3.058593 0,-1.675782 -1.1132812,-2.824219 -2.7421875,-2.824219 -0.5976562,0 -1.078125,0.152344 -1.5703125,0.515625 l 0.328125,-2.378906 H 5.7079703 Z M 17.649377,-116.57658 h 0.574218 c 1.160157,0 1.769532,0.53906 1.769532,1.58203 0,1.08984 -0.65625,1.75781 -1.757813,1.75781 -1.160156,0 -1.722656,-0.58594 -1.792969,-1.86328 h -1.054687 c 0.04687,0.6914 0.164062,1.14844 0.375,1.53515 0.433594,0.84375 1.265625,1.26563 2.425781,1.26563 1.757813,0 2.882813,-1.06641 2.882813,-2.70703 0,-1.10156 -0.421875,-1.69922 -1.441407,-2.0625 0.796875,-0.32813 1.195313,-0.92578 1.195313,-1.80469 0,-1.48828 -0.972656,-2.37891 -2.601563,-2.37891 -1.710937,0 -2.625,0.96094 -2.660156,2.78907 h 1.054688 c 0.01172,-0.52735 0.05859,-0.82032 0.199218,-1.08985 0.234375,-0.49218 0.761719,-0.78515 1.417969,-0.78515 0.9375,0 1.5,0.57422 1.5,1.5 0,0.62109 -0.210937,0.98437 -0.679687,1.19531 -0.28125,0.11719 -0.667969,0.16406 -1.40625,0.17578 z m 3.421875,20.273433 h -4.476563 c 0.105469,-0.726562 0.492188,-1.171875 1.535156,-1.816406 l 1.207032,-0.667969 c 1.183593,-0.65625 1.792968,-1.546878 1.792968,-2.613278 0,-0.72657 -0.28125,-1.39453 -0.785156,-1.86328 -0.503906,-0.45704 -1.136719,-0.66797 -1.933594,-0.66797 -1.078125,0 -1.886718,0.375 -2.355468,1.125 -0.292969,0.45703 -0.433594,0.99609 -0.457032,1.875 h 1.054688 c 0.03516,-0.59766 0.117187,-0.9375 0.257812,-1.23047 0.269532,-0.52735 0.820313,-0.85547 1.464844,-0.85547 0.960938,0 1.675781,0.70312 1.675781,1.64062 0,0.69141 -0.398437,1.28907 -1.148437,1.722661 l -1.101563,0.65625 c -1.78125,1.019531 -2.296875,1.828125 -2.390625,3.726562 h 5.660157 z m 0,0"
       style="fill:#000000;fill-opacity:1;fill-rule:nonzero;stroke:none"
       aria-label="2&#10; &#10; &#10;5&#10; &#10;3&#10;2&#10; "
       transform="matrix(1.3333333,0,0,1.3333333,88.885467,241.24013)" />
    <path
       id="path23"
       d="m 5.2607422,-4.5357969 c -0.023437,-1.2421875 -0.8320313,-1.9335937 -2.2851563,-1.9335937 -1.4648437,0 -2.41406246,0.7617187 -2.41406246,1.921875 0,0.984375 0.50390626,1.453125 1.99218746,1.8164062 l 0.9375,0.2226563 c 0.6914063,0.1640625 0.9726563,0.421875 0.9726563,0.8671875 0,0.5976562 -0.5859375,0.99609373 -1.4648438,0.99609373 -0.5390625,0 -0.9960937,-0.1640625 -1.2421875,-0.42187503 C 1.5927734,-1.2428281 1.5224609,-1.4303281 1.4638672,-1.8756406 H 0.40917969 c 0.046875,1.45312498 0.86718751,2.15624998 2.50781251,2.15624998 1.5820312,0 2.5898437,-0.78515625 2.5898437,-1.99218748 0,-0.9375 -0.5273437,-1.453125 -1.78125,-1.7578125 L 2.7763672,-3.6920469 c -0.8203125,-0.1992187 -1.171875,-0.4570312 -1.171875,-0.9023437 0,-0.5859375 0.515625,-0.9492188 1.3359375,-0.9492188 0.796875,0 1.2304687,0.3515625 1.2539062,1.0078125 z m 0,17.3203129 c -0.023437,-1.242188 -0.8320313,-1.933594 -2.2851563,-1.933594 -1.4648437,0 -2.41406246,0.761719 -2.41406246,1.921875 0,0.984375 0.50390626,1.453125 1.99218746,1.816406 l 0.9375,0.222656 c 0.6914063,0.164063 0.9726563,0.421875 0.9726563,0.867188 0,0.597656 -0.5859375,0.996094 -1.4648438,0.996094 -0.5390625,0 -0.9960937,-0.164063 -1.2421875,-0.421875 C 1.5927734,16.077484 1.5224609,15.889984 1.4638672,15.444672 H 0.40917969 c 0.046875,1.453125 0.86718751,2.15625 2.50781251,2.15625 1.5820312,0 2.5898437,-0.785156 2.5898437,-1.992188 0,-0.9375 -0.5273437,-1.453125 -1.78125,-1.757812 L 2.7763672,13.628266 c -0.8203125,-0.199219 -1.171875,-0.457032 -1.171875,-0.902344 0,-0.585938 0.515625,-0.949219 1.3359375,-0.949219 0.796875,0 1.2304687,0.351563 1.2539062,1.007813 z m 0,0"
       style="fill:#008000;fill-opacity:1;fill-rule:nonzero;stroke:none"
       aria-label="s&#10;s"
       transform="matrix(1.3333333,0,0,1.3333333,109.33333,159.25867)" />
    <path
       id="path24"
       d="M 3.1064778,-6.1767016 V -9.203125e-4 H 4.1611653 V -8.6727953 H 3.4697591 c -0.375,1.3242187 -0.609375,1.5117187 -2.25,1.7226562 v 0.7734375 z M 17.649447,-151.21674 h 0.574218 c 1.160157,0 1.769532,0.53906 1.769532,1.58203 0,1.08984 -0.65625,1.75781 -1.757813,1.75781 -1.160156,0 -1.722656,-0.58593 -1.792969,-1.86328 h -1.054687 c 0.04687,0.69141 0.164062,1.14844 0.375,1.53516 0.433594,0.84375 1.265625,1.26562 2.425781,1.26562 1.757813,0 2.882813,-1.0664 2.882813,-2.70703 0,-1.10156 -0.421875,-1.69922 -1.441407,-2.0625 0.796875,-0.32812 1.195313,-0.92578 1.195313,-1.80469 0,-1.48828 -0.972656,-2.3789 -2.601563,-2.3789 -1.710937,0 -2.625,0.96094 -2.660156,2.78906 h 1.054688 c 0.01172,-0.52734 0.05859,-0.82031 0.199218,-1.08984 0.234375,-0.49219 0.761719,-0.78516 1.417969,-0.78516 0.9375,0 1.5,0.57422 1.5,1.5 0,0.62109 -0.210937,0.98438 -0.679687,1.19531 -0.28125,0.11719 -0.667969,0.16407 -1.40625,0.17578 z m 0.457031,49.78125 v 6.175781 h 1.054687 v -8.671871 h -0.691406 c -0.375,1.32421 -0.609375,1.51171 -2.25,1.72265 v 0.77344 z m 0.820312,56.039062 v 2.097656 h 1.054688 v -2.097656 h 1.253906 v -0.949219 h -1.253906 v -5.625 h -0.785156 l -3.855469,5.460938 v 1.113281 z m 0,-0.949219 h -2.660156 l 2.660156,-3.832031 z m 2.144532,19.321289 h -4.476563 c 0.105469,-0.726562 0.492188,-1.171875 1.535156,-1.816406 l 1.207032,-0.667969 c 1.183593,-0.65625 1.792968,-1.546875 1.792968,-2.613281 0,-0.726563 -0.28125,-1.394531 -0.785156,-1.863281 -0.503906,-0.457032 -1.136719,-0.667969 -1.933594,-0.667969 -1.078125,0 -1.886718,0.375 -2.355468,1.125 -0.292969,0.457031 -0.433594,0.996094 -0.457032,1.875 h 1.054688 c 0.03516,-0.597656 0.117187,-0.9375 0.257812,-1.230469 0.269532,-0.527344 0.820313,-0.855469 1.464844,-0.855469 0.960938,0 1.675781,0.703125 1.675781,1.640625 0,0.691407 -0.398437,1.289063 -1.148437,1.722657 l -1.101563,0.65625 c -1.78125,1.019531 -2.296875,1.828125 -2.390625,3.726562 h 5.660157 z M 17.649447,4.6631422 h 0.574218 c 1.160157,0 1.769532,0.5390625 1.769532,1.5820312 0,1.0898438 -0.65625,1.7578125 -1.757813,1.7578125 -1.160156,0 -1.722656,-0.5859375 -1.792969,-1.8632812 h -1.054687 c 0.04687,0.6914062 0.164062,1.1484375 0.375,1.5351562 0.433594,0.84375 1.265625,1.265625 2.425781,1.265625 1.757813,0 2.882813,-1.0664062 2.882813,-2.7070312 0,-1.1015625 -0.421875,-1.6992188 -1.441407,-2.0625 0.796875,-0.328125 1.195313,-0.9257813 1.195313,-1.8046875 0,-1.48828126 -0.972656,-2.37890626 -2.601563,-2.37890626 -1.710937,0 -2.625,0.9609375 -2.660156,2.78906246 h 1.054688 c 0.01172,-0.5273437 0.05859,-0.8203125 0.199218,-1.0898437 0.234375,-0.4921875 0.761719,-0.78515626 1.417969,-0.78515626 0.9375,0 1.5,0.57421876 1.5,1.49999996 0,0.6210938 -0.210937,0.984375 -0.679687,1.1953125 -0.28125,0.1171875 -0.667969,0.1640625 -1.40625,0.1757813 z M 18.106478,37.12408 v 6.175781 h 1.054687 v -8.671875 h -0.691406 c -0.375,1.324219 -0.609375,1.511719 -2.25,1.722656 v 0.773438 z m 15.199219,-184.35645 c -0.796875,0 -1.511719,0.35157 -1.957032,0.94922 -0.550781,0.76172 -0.832031,1.91016 -0.832031,3.52735 0,2.91797 0.960938,4.47656 2.789063,4.47656 1.792968,0 2.777343,-1.55859 2.777343,-4.40625 0,-1.6875 -0.257812,-2.8125 -0.820312,-3.59766 -0.445313,-0.60937 -1.160156,-0.94922 -1.957031,-0.94922 z m 0,0.9375 c 1.136718,0 1.699218,1.16016 1.699218,3.51563 0,2.46094 -0.550781,3.62109 -1.722656,3.62109 -1.125,0 -1.6875,-1.20703 -1.6875,-3.58593 0,-2.39063 0.5625,-3.55079 1.710938,-3.55079 z m 0,0"
       style="fill:#000000;fill-opacity:1;fill-rule:nonzero;stroke:none"
       aria-label="   1&#10; &#10;3&#10; &#10; &#10;1&#10; &#10; &#10;4&#10;2&#10; &#10;3&#10; &#10;1&#10; &#10; &#10;0&#10; &#10; &#10; &#10; &#10; "
       transform="matrix(1.3333333,0,0,1.3333333,108.88537,275.88013)" />
    <path
       id="path25"
       d="m 5.2607422,-4.5348594 c -0.023437,-1.2421875 -0.8320313,-1.9335937 -2.2851563,-1.9335937 -1.4648437,0 -2.41406246,0.7617187 -2.41406246,1.921875 0,0.984375 0.50390626,1.453125 1.99218746,1.8164062 l 0.9375,0.2226563 c 0.6914063,0.1640625 0.9726563,0.421875 0.9726563,0.8671875 0,0.5976562 -0.5859375,0.99609373 -1.4648438,0.99609373 -0.5390625,0 -0.9960937,-0.1640625 -1.2421875,-0.42187503 C 1.5927734,-1.2418906 1.5224609,-1.4293906 1.4638672,-1.8747031 H 0.40917969 c 0.046875,1.45312498 0.86718751,2.15624998 2.50781251,2.15624998 1.5820312,0 2.5898437,-0.78515625 2.5898437,-1.99218748 0,-0.9375 -0.5273437,-1.453125 -1.78125,-1.7578125 L 2.7763672,-3.6911094 c -0.8203125,-0.1992187 -1.171875,-0.4570312 -1.171875,-0.9023437 0,-0.5859375 0.515625,-0.9492188 1.3359375,-0.9492188 0.796875,0 1.2304687,0.3515625 1.2539062,1.0078125 z m 0,0"
       style="fill:#008000;fill-opacity:1;fill-rule:nonzero;stroke:none"
       aria-label="s"
       transform="matrix(1.3333333,0,0,1.3333333,149.33333,228.53867)" />
    <path
       id="path26"
       d="M 6.0713216,-1.0434891 H 1.5947591 c 0.1054687,-0.7265625 0.4921875,-1.171875 1.5351562,-1.8164062 l 1.2070313,-0.6679688 c 1.1835937,-0.65625 1.7929687,-1.546875 1.7929687,-2.6132812 0,-0.7265625 -0.28125,-1.3945313 -0.7851562,-1.8632813 -0.5039063,-0.4570312 -1.1367188,-0.6679687 -1.9335938,-0.6679687 -1.078125,0 -1.8867187,0.375 -2.3554687,1.125 -0.29296879,0.4570312 -0.43359379,0.9960937 -0.45703129,1.875 H 1.6533528 c 0.035156,-0.5976563 0.1171875,-0.9375 0.2578125,-1.2304688 0.2695313,-0.5273437 0.8203125,-0.8554687 1.4648438,-0.8554687 0.9609375,0 1.6757812,0.703125 1.6757812,1.640625 0,0.6914062 -0.3984375,1.2890625 -1.1484375,1.7226562 l -1.1015625,0.65625 c -1.78125,1.0195313 -2.29687499,1.828125 -2.39062499,3.72656254 H 6.0713216 Z m 0,0"
       style="fill:#000000;fill-opacity:1;fill-rule:nonzero;stroke:none"
       aria-label=" 2"
       transform="matrix(1.3333333,0,0,1.3333333,148.88537,275.8796)" />
    <path
       id="path27"
       d="m 5.2607422,-4.5340219 c -0.023437,-1.2421875 -0.8320313,-1.9335937 -2.2851563,-1.9335937 -1.4648437,0 -2.41406246,0.7617187 -2.41406246,1.921875 0,0.984375 0.50390626,1.453125 1.99218746,1.8164062 l 0.9375,0.2226563 c 0.6914063,0.1640625 0.9726563,0.421875 0.9726563,0.8671875 0,0.5976562 -0.5859375,0.99609372 -1.4648438,0.99609372 -0.5390625,0 -0.9960937,-0.1640625 -1.2421875,-0.42187502 C 1.5927734,-1.2410531 1.5224609,-1.4285531 1.4638672,-1.8738656 H 0.40917969 c 0.046875,1.45312497 0.86718751,2.15624997 2.50781251,2.15624997 1.5820312,0 2.5898437,-0.78515625 2.5898437,-1.99218747 0,-0.9375 -0.5273437,-1.453125 -1.78125,-1.7578125 L 2.7763672,-3.6902719 c -0.8203125,-0.1992187 -1.171875,-0.4570312 -1.171875,-0.9023437 0,-0.5859375 0.515625,-0.9492188 1.3359375,-0.9492188 0.796875,0 1.2304687,0.3515625 1.2539062,1.0078125 z m 0,0"
       style="fill:#008000;fill-opacity:1;fill-rule:nonzero;stroke:none"
       aria-label="s"
       transform="matrix(1.3333333,0,0,1.3333333,149.33333,297.8188)" />
    <path
       id="path28"
       d="m 3.9268203,-2.0988281 v 2.09765623 H 4.9815078 V -2.0988281 H 6.2354141 V -3.0480469 H 4.9815078 v -5.625 H 4.1963516 l -3.85546879,5.4609375 v 1.1132813 z m 0,-0.9492188 H 1.2666641 L 3.9268203,-6.8800781 Z M 2.6494766,134.5623 h 0.5742187 c 1.1601563,0 1.7695313,0.53907 1.7695313,1.58204 0,1.08984 -0.65625,1.75781 -1.7578125,1.75781 -1.1601563,0 -1.7226563,-0.58594 -1.7929688,-1.86328 H 0.38775781 c 0.046875,0.6914 0.1640625,1.14843 0.375,1.53515 0.43359379,0.84375 1.26562499,1.26563 2.42578129,1.26563 1.7578125,0 2.8828125,-1.06641 2.8828125,-2.70703 0,-1.10157 -0.421875,-1.69922 -1.4414063,-2.0625 0.796875,-0.32813 1.1953125,-0.92578 1.1953125,-1.80469 0,-1.48828 -0.9726562,-2.37891 -2.6015625,-2.37891 -1.7109375,0 -2.62499999,0.96094 -2.66015624,2.78907 H 1.6182266 c 0.011719,-0.52735 0.058594,-0.82032 0.1992187,-1.08985 0.234375,-0.49219 0.7617188,-0.78515 1.4179688,-0.78515 0.9375,0 1.5,0.57421 1.5,1.5 0,0.62109 -0.2109375,0.98437 -0.6796875,1.19531 -0.28125,0.11719 -0.6679688,0.16406 -1.40625,0.17578 z m 0,0"
       style="fill:#000000;fill-opacity:1;fill-rule:nonzero;stroke:none"
       aria-label="4&#10; &#10; &#10; &#10; &#10; &#10; &#10; &#10;3"
       transform="matrix(1.3333333,0,0,1.3333333,168.88533,33.4)" />
    <path
       id="path29"
       d="m 5.2607422,-4.5348031 c -0.023437,-1.2421875 -0.8320313,-1.9335938 -2.2851563,-1.9335938 -1.4648437,0 -2.41406246,0.7617188 -2.41406246,1.921875 0,0.984375 0.50390626,1.453125 1.99218746,1.8164063 l 0.9375,0.2226562 c 0.6914063,0.1640625 0.9726563,0.421875 0.9726563,0.8671875 0,0.5976563 -0.5859375,0.99609378 -1.4648438,0.99609378 -0.5390625,0 -0.9960937,-0.1640625 -1.2421875,-0.42187498 C 1.5927734,-1.2418344 1.5224609,-1.4293344 1.4638672,-1.8746469 H 0.40917969 c 0.046875,1.45312503 0.86718751,2.15625003 2.50781251,2.15625003 1.5820312,0 2.5898437,-0.78515625 2.5898437,-1.99218753 0,-0.9375 -0.5273437,-1.453125 -1.78125,-1.7578125 L 2.7763672,-3.6910531 c -0.8203125,-0.1992188 -1.171875,-0.4570313 -1.171875,-0.9023438 0,-0.5859375 0.515625,-0.9492187 1.3359375,-0.9492187 0.796875,0 1.2304687,0.3515625 1.2539062,1.0078125 z m 0,0"
       style="fill:#008000;fill-opacity:1;fill-rule:nonzero;stroke:none"
       aria-label="s"
       transform="matrix(1.3333333,0,0,1.3333333,169.33333,240.08547)" />
    <path
       id="path30"
       d="m 3.3056966,-8.6716141 c -0.796875,0 -1.5117188,0.3515625 -1.9570313,0.9492188 -0.55078124,0.7617187 -0.83203124,1.9101562 -0.83203124,3.5273437 0,2.9179688 0.96093754,4.47656254 2.78906254,4.47656254 1.7929687,0 2.7773437,-1.55859374 2.7773437,-4.40625004 0,-1.6875 -0.2578125,-2.8125 -0.8203125,-3.5976562 -0.4453125,-0.609375 -1.1601562,-0.9492188 -1.9570312,-0.9492188 z m 0,0.9375 c 1.1367187,0 1.6992187,1.1601563 1.6992187,3.515625 0,2.4609375 -0.5507812,3.62109379 -1.7226562,3.62109379 -1.125,0 -1.6875,-1.20703129 -1.6875,-3.58593749 0,-2.390625 0.5625,-3.5507813 1.7109375,-3.5507813 z m 0,0"
       style="fill:#000000;fill-opacity:1;fill-rule:nonzero;stroke:none"
       aria-label="   0"
       transform="matrix(1.3333333,0,0,1.3333333,168.88537,333.61293)" />
    <path
       id="path31"
       d="M 6.6454766,4.140625e-4 8.4970391,-6.2925547 h -1.125 L 6.1181328,-1.3941172 4.8876641,-6.2925547 H 3.6571953 L 2.4618828,-1.3941172 1.1728203,-6.2925547 H 0.07125781 L 1.8993828,4.140625e-4 h 1.125 L 4.2314141,-4.9331797 5.5087578,4.140625e-4 Z M 6.5927422,12.78557 c -0.023437,-1.242187 -0.8320313,-1.933593 -2.2851563,-1.933593 -1.4648437,0 -2.4140625,0.761718 -2.4140625,1.921875 0,0.984375 0.5039063,1.453125 1.9921875,1.816406 l 0.9375,0.222656 c 0.6914063,0.164063 0.9726563,0.421875 0.9726563,0.867188 0,0.597656 -0.5859375,0.996093 -1.4648438,0.996093 -0.5390625,0 -0.9960937,-0.164062 -1.2421875,-0.421875 C 2.9247734,16.078539 2.8544609,15.891039 2.7958672,15.445727 H 1.7411797 c 0.046875,1.453125 0.8671875,2.15625 2.5078125,2.15625 1.5820312,0 2.5898437,-0.785157 2.5898437,-1.992188 0,-0.9375 -0.5273437,-1.453125 -1.78125,-1.757812 L 4.1083672,13.62932 c -0.8203125,-0.199218 -1.171875,-0.457031 -1.171875,-0.902343 0,-0.585938 0.515625,-0.949219 1.3359375,-0.949219 0.796875,0 1.2304687,0.351562 1.2539062,1.007812 z m 0,0"
       style="fill:#008000;fill-opacity:1;fill-rule:nonzero;stroke:none"
       aria-label="w&#10;s"
       transform="matrix(1.3333333,0,0,1.3333333,187.55733,20.698667)" />
    <path
       id="path32"
       d="M 6.0713516,-1.0436719 H 1.5947891 c 0.1054687,-0.7265625 0.4921875,-1.171875 1.5351562,-1.8164062 l 1.2070313,-0.6679688 c 1.1835937,-0.65625 1.7929687,-1.546875 1.7929687,-2.6132812 0,-0.7265625 -0.28125,-1.3945313 -0.7851562,-1.8632813 -0.5039063,-0.4570312 -1.1367188,-0.6679687 -1.9335938,-0.6679687 -1.078125,0 -1.8867187,0.375 -2.3554687,1.125 -0.29296879,0.4570312 -0.43359379,0.9960937 -0.45703129,1.875 H 1.6533828 c 0.035156,-0.5976563 0.1171875,-0.9375 0.2578125,-1.2304688 0.2695313,-0.5273437 0.8203125,-0.8554687 1.4648438,-0.8554687 0.9609375,0 1.6757812,0.703125 1.6757812,1.640625 0,0.6914062 -0.3984375,1.2890625 -1.1484375,1.7226562 l -1.1015625,0.65625 c -1.78125,1.0195313 -2.29687499,1.828125 -2.39062499,3.72656252 H 6.0713516 Z m 0,103.9189419 H 1.5947891 c 0.1054687,-0.72656 0.4921875,-1.17187 1.5351562,-1.8164 l 1.2070313,-0.66797 c 1.1835937,-0.656252 1.7929687,-1.546877 1.7929687,-2.613283 0,-0.726562 -0.28125,-1.394531 -0.7851562,-1.863281 -0.5039063,-0.457031 -1.1367188,-0.667969 -1.9335938,-0.667969 -1.078125,0 -1.8867187,0.375 -2.3554687,1.125 -0.29296879,0.457031 -0.43359379,0.996094 -0.45703129,1.875 H 1.6533828 c 0.035156,-0.597656 0.1171875,-0.9375 0.2578125,-1.230469 0.2695313,-0.527343 0.8203125,-0.855468 1.4648438,-0.855468 0.9609375,0 1.6757812,0.703125 1.6757812,1.640625 0,0.691406 -0.3984375,1.289062 -1.1484375,1.722656 l -1.1015625,0.656249 c -1.78125,1.01953 -2.29687499,1.82813 -2.39062499,3.72656 H 6.0713516 Z m -3.421875,14.36719 h 0.5742187 c 1.1601563,0 1.7695313,0.53906 1.7695313,1.58203 0,1.08985 -0.65625,1.75781 -1.7578125,1.75781 -1.1601563,0 -1.7226563,-0.58593 -1.7929688,-1.86328 H 0.38775781 c 0.046875,0.69141 0.1640625,1.14844 0.375,1.53516 0.43359379,0.84375 1.26562499,1.26562 2.42578129,1.26562 1.7578125,0 2.8828125,-1.0664 2.8828125,-2.70703 0,-1.10156 -0.421875,-1.69922 -1.4414063,-2.0625 0.796875,-0.32812 1.1953125,-0.92578 1.1953125,-1.80468 0,-1.48829 -0.9726562,-2.37891 -2.6015625,-2.37891 -1.7109375,0 -2.62499999,0.96094 -2.66015624,2.78906 H 1.6182266 c 0.011719,-0.52734 0.058594,-0.82031 0.1992187,-1.08984 0.234375,-0.49219 0.7617188,-0.78516 1.4179688,-0.78516 0.9375,0 1.5,0.57422 1.5,1.5 0,0.6211 -0.2109375,0.98438 -0.6796875,1.19531 -0.28125,0.11719 -0.6679688,0.16407 -1.40625,0.17579 z m 3.0585937,12.80859 H 1.3252578 l -0.64453124,4.62891 H 1.6533828 c 0.4921875,-0.58594 0.9023438,-0.78516 1.5703125,-0.78516 1.1484375,0 1.8515625,0.77344 1.8515625,2.03907 0,1.21875 -0.703125,1.96875 -1.8632812,1.96875 -0.9140625,0 -1.4882813,-0.46875 -1.734375,-1.42969 H 0.42291406 c 0.140625,0.69141 0.2578125,1.03125 0.515625,1.34766 0.48046874,0.64453 1.34765624,1.01953 2.29687504,1.01953 1.7226562,0 2.9179687,-1.25391 2.9179687,-3.0586 0,-1.67578 -1.1132812,-2.82422 -2.7421875,-2.82422 -0.5976562,0 -1.078125,0.15235 -1.5703125,0.51563 l 0.328125,-2.37891 h 3.5390625 z m 0,0"
       style="fill:#000000;fill-opacity:1;fill-rule:nonzero;stroke:none"
       aria-label="2&#10; &#10; &#10; &#10; &#10; &#10;2&#10;3&#10;5"
       transform="matrix(1.3333333,0,0,1.3333333,188.88533,68.04)" />
    <path
       id="path33"
       d="m 5.2607422,-4.5340344 c -0.023437,-1.2421875 -0.8320313,-1.9335937 -2.2851563,-1.9335937 -1.4648437,0 -2.41406246,0.7617187 -2.41406246,1.921875 0,0.984375 0.50390626,1.453125 1.99218746,1.8164062 l 0.9375,0.2226563 c 0.6914063,0.1640625 0.9726563,0.421875 0.9726563,0.8671875 0,0.5976562 -0.5859375,0.99609373 -1.4648438,0.99609373 -0.5390625,0 -0.9960937,-0.1640625 -1.2421875,-0.42187503 C 1.5927734,-1.2410656 1.5224609,-1.4285656 1.4638672,-1.8738781 H 0.40917969 c 0.046875,1.45312498 0.86718751,2.15624998 2.50781251,2.15624998 1.5820312,0 2.5898437,-0.78515625 2.5898437,-1.99218748 0,-0.9375 -0.5273437,-1.453125 -1.78125,-1.7578125 L 2.7763672,-3.6902844 c -0.8203125,-0.1992187 -1.171875,-0.4570312 -1.171875,-0.9023437 0,-0.5859375 0.515625,-0.9492188 1.3359375,-0.9492188 0.796875,0 1.2304687,0.3515625 1.2539062,1.0078125 z m 0,0"
       style="fill:#008000;fill-opacity:1;fill-rule:nonzero;stroke:none"
       aria-label="s"
       transform="matrix(1.3333333,0,0,1.3333333,189.33333,274.72507)" />
    <path
       id="path34"
       d="m 2.6494766,-3.9967016 h 0.5742187 c 1.1601563,0 1.7695313,0.5390625 1.7695313,1.5820313 0,1.0898437 -0.65625,1.75781249 -1.7578125,1.75781249 -1.1601563,0 -1.7226563,-0.58593749 -1.7929688,-1.86328129 H 0.38775781 c 0.046875,0.6914063 0.1640625,1.1484375 0.375,1.53515629 0.43359379,0.84375 1.26562499,1.265625 2.42578129,1.265625 1.7578125,0 2.8828125,-1.06640625 2.8828125,-2.70703129 0,-1.1015625 -0.421875,-1.6992187 -1.4414063,-2.0625 0.796875,-0.328125 1.1953125,-0.9257812 1.1953125,-1.8046875 0,-1.4882812 -0.9726562,-2.3789062 -2.6015625,-2.3789062 -1.7109375,0 -2.62499999,0.9609375 -2.66015624,2.7890625 H 1.6182266 c 0.011719,-0.5273438 0.058594,-0.8203125 0.1992187,-1.0898438 0.234375,-0.4921875 0.7617188,-0.7851562 1.4179688,-0.7851562 0.9375,0 1.5,0.5742187 1.5,1.5 0,0.6210937 -0.2109375,0.984375 -0.6796875,1.1953125 -0.28125,0.1171875 -0.6679688,0.1640625 -1.40625,0.1757812 z m 0,0"
       style="fill:#000000;fill-opacity:1;fill-rule:nonzero;stroke:none"
       aria-label="3&#10; &#10; "
       transform="matrix(1.3333333,0,0,1.3333333,188.88533,298.97347)" />
    <path
       id="path35"
       d="M 6.6454766,-5.878125e-4 8.4970391,-6.2935566 h -1.125 L 6.1181328,-1.3951191 4.8876641,-6.2935566 H 3.6571953 L 2.4618828,-1.3951191 1.1728203,-6.2935566 H 0.07125781 L 1.8993828,-5.878125e-4 h 1.125 L 4.2314141,-4.9341816 5.5087578,-5.878125e-4 Z m 0,0"
       style="fill:#008000;fill-opacity:1;fill-rule:nonzero;stroke:none"
       aria-label="w"
       transform="matrix(1.3333333,0,0,1.3333333,187.55733,367.09844)" />
    <path
       id="path36"
       d="M 5.7080403,-8.5085719 H 1.3252278 L 0.68069656,-3.8796656 H 1.6533528 c 0.4921875,-0.5859375 0.9023438,-0.7851563 1.5703125,-0.7851563 1.1484375,0 1.8515625,0.7734375 1.8515625,2.0390625 0,1.21875 -0.703125,1.96875003 -1.8632812,1.96875003 -0.9140625,0 -1.4882813,-0.46875003 -1.734375,-1.42968753 H 0.42288406 c 0.140625,0.6914063 0.2578125,1.03125 0.515625,1.34765628 0.48046874,0.64453125 1.34765624,1.01953125 2.29687504,1.01953125 1.7226562,0 2.9179687,-1.25390625 2.9179687,-3.05859373 0,-1.6757813 -1.1132812,-2.8242188 -2.7421875,-2.8242188 -0.5976562,0 -1.078125,0.1523438 -1.5703125,0.515625 l 0.328125,-2.3789062 H 5.7080403 Z M 3.3056966,25.967991 c -0.796875,0 -1.5117188,0.351562 -1.9570313,0.949218 -0.55078124,0.761719 -0.83203124,1.910157 -0.83203124,3.527344 0,2.917969 0.96093754,4.476563 2.78906254,4.476563 1.7929687,0 2.7773437,-1.558594 2.7773437,-4.40625 0,-1.6875 -0.2578125,-2.8125 -0.8203125,-3.597657 C 4.8174153,26.307834 4.1025716,25.967991 3.3056966,25.967991 Z m 0,0.9375 c 1.1367187,0 1.6992187,1.160156 1.6992187,3.515625 0,2.460937 -0.5507812,3.621093 -1.7226562,3.621093 -1.125,0 -1.6875,-1.207031 -1.6875,-3.585937 0,-2.390625 0.5625,-3.550781 1.7109375,-3.550781 z m 2.765625,75.972659 H 1.5947591 c 0.1054687,-0.72657 0.4921875,-1.17188 1.5351562,-1.81641 l 1.2070313,-0.66797 c 1.1835937,-0.656248 1.7929687,-1.546873 1.7929687,-2.613279 0,-0.726563 -0.28125,-1.394532 -0.7851562,-1.863282 -0.5039063,-0.457031 -1.1367188,-0.667968 -1.9335938,-0.667968 -1.078125,0 -1.8867187,0.375 -2.3554687,1.125 -0.29296879,0.457031 -0.43359379,0.996093 -0.45703129,1.875 H 1.6533528 c 0.035156,-0.597657 0.1171875,-0.9375 0.2578125,-1.230469 0.2695313,-0.527344 0.8203125,-0.855469 1.4648438,-0.855469 0.9609375,0 1.6757812,0.703125 1.6757812,1.640625 0,0.691406 -0.3984375,1.289063 -1.1484375,1.722656 l -1.1015625,0.656246 c -1.78125,1.01954 -2.29687499,1.82813 -2.39062499,3.72657 H 6.0713216 Z m -3.421875,14.36425 h 0.5742187 c 1.1601563,0 1.7695313,0.53907 1.7695313,1.58204 0,1.08984 -0.65625,1.75781 -1.7578125,1.75781 -1.1601563,0 -1.7226563,-0.58594 -1.7929688,-1.86328 H 0.38772781 c 0.046875,0.6914 0.1640625,1.14843 0.375,1.53515 0.43359379,0.84375 1.26562499,1.26563 2.42578129,1.26563 1.7578125,0 2.8828125,-1.06641 2.8828125,-2.70703 0,-1.10157 -0.421875,-1.69922 -1.4414063,-2.0625 0.796875,-0.32813 1.1953125,-0.92578 1.1953125,-1.80469 0,-1.48828 -0.9726562,-2.37891 -2.6015625,-2.37891 -1.7109375,0 -2.62499999,0.96094 -2.66015624,2.78907 H 1.6181966 c 0.011719,-0.52735 0.058594,-0.82032 0.1992187,-1.08985 0.234375,-0.49219 0.7617188,-0.78515 1.4179688,-0.78515 0.9375,0 1.5,0.57421 1.5,1.5 0,0.62109 -0.2109375,0.98437 -0.6796875,1.19531 -0.28125,0.11719 -0.6679688,0.16406 -1.40625,0.17578 z m 0,0"
       style="fill:#000000;fill-opacity:1;fill-rule:nonzero;stroke:none"
       aria-label=" 5&#10; &#10;0&#10; &#10; &#10; &#10;2&#10;3"
       transform="matrix(1.3333333,0,0,1.3333333,208.88537,56.4932)" />
    <path
       id="path37"
       d="m 5.2607422,-4.5348031 c -0.023437,-1.2421875 -0.8320313,-1.9335938 -2.2851563,-1.9335938 -1.4648437,0 -2.41406246,0.7617188 -2.41406246,1.921875 0,0.984375 0.50390626,1.453125 1.99218746,1.8164063 l 0.9375,0.2226562 c 0.6914063,0.1640625 0.9726563,0.421875 0.9726563,0.8671875 0,0.5976563 -0.5859375,0.99609378 -1.4648438,0.99609378 -0.5390625,0 -0.9960937,-0.1640625 -1.2421875,-0.42187498 C 1.5927734,-1.2418344 1.5224609,-1.4293344 1.4638672,-1.8746469 H 0.40917969 c 0.046875,1.45312503 0.86718751,2.15625003 2.50781251,2.15625003 1.5820312,0 2.5898437,-0.78515625 2.5898437,-1.99218753 0,-0.9375 -0.5273437,-1.453125 -1.78125,-1.7578125 L 2.7763672,-3.6910531 c -0.8203125,-0.1992188 -1.171875,-0.4570313 -1.171875,-0.9023438 0,-0.5859375 0.515625,-0.9492187 1.3359375,-0.9492187 0.796875,0 1.2304687,0.3515625 1.2539062,1.0078125 z m 0,0"
       style="fill:#008000;fill-opacity:1;fill-rule:nonzero;stroke:none"
       aria-label="s"
       transform="matrix(1.3333333,0,0,1.3333333,209.33333,240.08547)" />
    <path
       id="path38"
       d="M 6.0713516,-1.0439453 H 1.5947891 c 0.1054687,-0.7265625 0.4921875,-1.171875 1.5351562,-1.8164063 l 1.2070313,-0.6679687 c 1.1835937,-0.65625 1.7929687,-1.546875 1.7929687,-2.6132813 0,-0.7265625 -0.28125,-1.3945312 -0.7851562,-1.8632812 -0.5039063,-0.4570313 -1.1367188,-0.6679688 -1.9335938,-0.6679688 -1.078125,0 -1.8867187,0.375 -2.3554687,1.125 -0.29296879,0.4570313 -0.43359379,0.9960938 -0.45703129,1.875 H 1.6533828 c 0.035156,-0.5976562 0.1171875,-0.9375 0.2578125,-1.2304687 0.2695313,-0.5273438 0.8203125,-0.8554688 1.4648438,-0.8554688 0.9609375,0 1.6757812,0.703125 1.6757812,1.640625 0,0.6914063 -0.3984375,1.2890625 -1.1484375,1.7226563 l -1.1015625,0.65625 c -1.78125,1.0195312 -2.29687499,1.828125 -2.39062499,3.72656249 H 6.0713516 Z M 3.9268203,15.22168 v 2.097656 H 4.9815078 V 15.22168 H 6.2354141 V 14.272461 H 4.9815078 V 8.6474609 H 4.1963516 L 0.34088281,14.108398 v 1.113282 z m 0,-0.949219 H 1.2666641 L 3.9268203,10.44043 Z M 3.1065078,28.463867 v 6.175781 H 4.1611953 V 25.967773 H 3.4697891 c -0.375,1.324219 -0.609375,1.511719 -2.25,1.722657 v 0.773437 z m 0,0"
       style="fill:#000000;fill-opacity:1;fill-rule:nonzero;stroke:none"
       aria-label="2&#10;4&#10;1"
       transform="matrix(1.3333333,0,0,1.3333333,208.88533,264.33333)" />
    <path
       id="path39"
       d="M 6.6454766,7.265625e-4 8.4970391,-6.2922422 h -1.125 L 6.1181328,-1.3938047 4.8876641,-6.2922422 H 3.6571953 L 2.4618828,-1.3938047 1.1728203,-6.2922422 H 0.07125781 L 1.8993828,7.265625e-4 h 1.125 L 4.2314141,-4.9328672 5.5087578,7.265625e-4 Z m 0,0"
       style="fill:#008000;fill-opacity:1;fill-rule:nonzero;stroke:none"
       aria-label="w"
       transform="matrix(1.3333333,0,0,1.3333333,227.55733,43.792)" />
    <path
       id="path40"
       d="M 5.7080403,-8.5072781 H 1.3252278 L 0.68069656,-3.8783719 H 1.6533528 c 0.4921875,-0.5859375 0.9023438,-0.7851562 1.5703125,-0.7851562 1.1484375,0 1.8515625,0.7734375 1.8515625,2.0390625 0,1.21875 -0.703125,1.96874997 -1.8632812,1.96874997 -0.9140625,0 -1.4882813,-0.46874997 -1.734375,-1.42968747 H 0.42288406 c 0.140625,0.6914062 0.2578125,1.03125 0.515625,1.34765622 0.48046874,0.64453125 1.34765624,1.01953125 2.29687504,1.01953125 1.7226562,0 2.9179687,-1.25390625 2.9179687,-3.05859377 0,-1.6757812 -1.1132812,-2.8242187 -2.7421875,-2.8242187 -0.5976562,0 -1.078125,0.1523437 -1.5703125,0.515625 l 0.328125,-2.3789063 h 3.5390625 z m 0,0"
       style="fill:#000000;fill-opacity:1;fill-rule:nonzero;stroke:none"
       aria-label="   5"
       transform="matrix(1.3333333,0,0,1.3333333,228.88537,137.3196)" />
    <path
       id="path41"
       d="m 5.2607422,-4.5357969 c -0.023437,-1.2421875 -0.8320313,-1.9335937 -2.2851563,-1.9335937 -1.4648437,0 -2.41406246,0.7617187 -2.41406246,1.921875 0,0.984375 0.50390626,1.453125 1.99218746,1.8164062 l 0.9375,0.2226563 c 0.6914063,0.1640625 0.9726563,0.421875 0.9726563,0.8671875 0,0.5976562 -0.5859375,0.99609373 -1.4648438,0.99609373 -0.5390625,0 -0.9960937,-0.1640625 -1.2421875,-0.42187503 C 1.5927734,-1.2428281 1.5224609,-1.4303281 1.4638672,-1.8756406 H 0.40917969 c 0.046875,1.45312498 0.86718751,2.15624998 2.50781251,2.15624998 1.5820312,0 2.5898437,-0.78515625 2.5898437,-1.99218748 0,-0.9375 -0.5273437,-1.453125 -1.78125,-1.7578125 L 2.7763672,-3.6920469 c -0.8203125,-0.1992187 -1.171875,-0.4570312 -1.171875,-0.9023437 0,-0.5859375 0.515625,-0.9492188 1.3359375,-0.9492188 0.796875,0 1.2304687,0.3515625 1.2539062,1.0078125 z m 0,17.3203129 c -0.023437,-1.242188 -0.8320313,-1.933594 -2.2851563,-1.933594 -1.4648437,0 -2.41406246,0.761719 -2.41406246,1.921875 0,0.984375 0.50390626,1.453125 1.99218746,1.816406 l 0.9375,0.222656 c 0.6914063,0.164063 0.9726563,0.421875 0.9726563,0.867188 0,0.597656 -0.5859375,0.996094 -1.4648438,0.996094 -0.5390625,0 -0.9960937,-0.164063 -1.2421875,-0.421875 C 1.5927734,16.077484 1.5224609,15.889984 1.4638672,15.444672 H 0.40917969 c 0.046875,1.453125 0.86718751,2.15625 2.50781251,2.15625 1.5820312,0 2.5898437,-0.785156 2.5898437,-1.992188 0,-0.9375 -0.5273437,-1.453125 -1.78125,-1.757812 L 2.7763672,13.628266 c -0.8203125,-0.199219 -1.171875,-0.457032 -1.171875,-0.902344 0,-0.585938 0.515625,-0.949219 1.3359375,-0.949219 0.796875,0 1.2304687,0.351563 1.2539062,1.007813 z m 0,0"
       style="fill:#008000;fill-opacity:1;fill-rule:nonzero;stroke:none"
       aria-label="s&#10;s"
       transform="matrix(1.3333333,0,0,1.3333333,229.33333,159.25867)" />
    <path
       id="path42"
       d="M 3.9268203,-2.0964844 V 0.00117188 H 4.9815078 V -2.0964844 H 6.2354141 V -3.0457031 H 4.9815078 v -5.625 H 4.1963516 l -3.85546879,5.4609375 v 1.1132812 z m 0,-0.9492187 H 1.2666641 l 2.6601562,-3.8320313 z m 0,0"
       style="fill:#000000;fill-opacity:1;fill-rule:nonzero;stroke:none"
       aria-label="4"
       transform="matrix(1.3333333,0,0,1.3333333,228.88533,206.6)" />
    <path
       id="path43"
       d="m 5.2607422,-4.5348594 c -0.023437,-1.2421875 -0.8320313,-1.9335937 -2.2851563,-1.9335937 -1.4648437,0 -2.41406246,0.7617187 -2.41406246,1.921875 0,0.984375 0.50390626,1.453125 1.99218746,1.8164062 l 0.9375,0.2226563 c 0.6914063,0.1640625 0.9726563,0.421875 0.9726563,0.8671875 0,0.5976562 -0.5859375,0.99609373 -1.4648438,0.99609373 -0.5390625,0 -0.9960937,-0.1640625 -1.2421875,-0.42187503 C 1.5927734,-1.2418906 1.5224609,-1.4293906 1.4638672,-1.8747031 H 0.40917969 c 0.046875,1.45312498 0.86718751,2.15624998 2.50781251,2.15624998 1.5820312,0 2.5898437,-0.78515625 2.5898437,-1.99218748 0,-0.9375 -0.5273437,-1.453125 -1.78125,-1.7578125 L 2.7763672,-3.6911094 c -0.8203125,-0.1992187 -1.171875,-0.4570312 -1.171875,-0.9023437 0,-0.5859375 0.515625,-0.9492188 1.3359375,-0.9492188 0.796875,0 1.2304687,0.3515625 1.2539062,1.0078125 z m 0,17.3203124 c -0.023437,-1.242187 -0.8320313,-1.933594 -2.2851563,-1.933594 -1.4648437,0 -2.41406246,0.761719 -2.41406246,1.921875 0,0.984375 0.50390626,1.453125 1.99218746,1.816407 l 0.9375,0.222656 c 0.6914063,0.164062 0.9726563,0.421875 0.9726563,0.867187 0,0.597657 -0.5859375,0.996094 -1.4648438,0.996094 -0.5390625,0 -0.9960937,-0.164062 -1.2421875,-0.421875 C 1.5927734,16.078422 1.5224609,15.890922 1.4638672,15.445609 H 0.40917969 c 0.046875,1.453125 0.86718751,2.15625 2.50781251,2.15625 1.5820312,0 2.5898437,-0.785156 2.5898437,-1.992187 0,-0.9375 -0.5273437,-1.453125 -1.78125,-1.757813 L 2.7763672,13.629203 c -0.8203125,-0.199219 -1.171875,-0.457031 -1.171875,-0.902344 0,-0.585937 0.515625,-0.949218 1.3359375,-0.949218 0.796875,0 1.2304687,0.351562 1.2539062,1.007812 z m 0,0"
       style="fill:#008000;fill-opacity:1;fill-rule:nonzero;stroke:none"
       aria-label="s&#10;s"
       transform="matrix(1.3333333,0,0,1.3333333,229.33333,228.53867)" />
    <path
       id="path44"
       d="M 3.1064778,-6.1763891 V -6.078125e-4 H 4.1611653 V -8.6724828 H 3.4697591 c -0.375,1.3242187 -0.609375,1.5117187 -2.25,1.7226562 v 0.7734375 z M 20.70804,-86.449827 h -4.382812 l -0.644531,4.628907 h 0.972656 c 0.492187,-0.585938 0.902344,-0.785157 1.570312,-0.785157 1.148438,0 1.851563,0.773438 1.851563,2.039063 0,1.21875 -0.703125,1.96875 -1.863281,1.96875 -0.914063,0 -1.488282,-0.46875 -1.734375,-1.429688 h -1.054688 c 0.140625,0.691407 0.257813,1.03125 0.515625,1.347657 0.480469,0.644531 1.347656,1.019531 2.296875,1.019531 1.722656,0 2.917969,-1.253906 2.917969,-3.058594 0,-1.675781 -1.113281,-2.824219 -2.742188,-2.824219 -0.597656,0 -1.078125,0.152344 -1.570312,0.515625 l 0.328125,-2.378906 h 3.539062 z m -3.058593,21.832032 h 0.574218 c 1.160157,0 1.769532,0.539062 1.769532,1.582031 0,1.089844 -0.65625,1.757812 -1.757813,1.757812 -1.160156,0 -1.722656,-0.585937 -1.792969,-1.863281 h -1.054687 c 0.04687,0.691406 0.164062,1.148438 0.375,1.535156 0.433594,0.84375 1.265625,1.265625 2.425781,1.265625 1.757813,0 2.882813,-1.066406 2.882813,-2.707031 0,-1.101562 -0.421875,-1.699219 -1.441407,-2.0625 0.796875,-0.328125 1.195313,-0.925781 1.195313,-1.804687 0,-1.488282 -0.972656,-2.378907 -2.601563,-2.378907 -1.710937,0 -2.625,0.960938 -2.660156,2.789063 h 1.054688 c 0.01172,-0.527344 0.05859,-0.820313 0.199218,-1.089844 0.234375,-0.492187 0.761719,-0.785156 1.417969,-0.785156 0.9375,0 1.5,0.574219 1.5,1.5 0,0.621094 -0.210937,0.984375 -0.679687,1.195312 -0.28125,0.117188 -0.667969,0.164063 -1.40625,0.175782 z m 0,0"
       style="fill:#000000;fill-opacity:1;fill-rule:nonzero;stroke:none"
       aria-label=" 1&#10; &#10; &#10; &#10; &#10; &#10; &#10;5&#10;3"
       transform="matrix(1.3333333,0,0,1.3333333,228.88537,298.97347)" />
    <path
       id="path45"
       d="m 5.2607422,-4.5348031 c -0.023437,-1.2421875 -0.8320313,-1.9335938 -2.2851563,-1.9335938 -1.4648437,0 -2.41406246,0.7617188 -2.41406246,1.921875 0,0.984375 0.50390626,1.453125 1.99218746,1.8164063 l 0.9375,0.2226562 c 0.6914063,0.1640625 0.9726563,0.421875 0.9726563,0.8671875 0,0.5976563 -0.5859375,0.99609378 -1.4648438,0.99609378 -0.5390625,0 -0.9960937,-0.1640625 -1.2421875,-0.42187498 C 1.5927734,-1.2418344 1.5224609,-1.4293344 1.4638672,-1.8746469 H 0.40917969 c 0.046875,1.45312503 0.86718751,2.15625003 2.50781251,2.15625003 1.5820312,0 2.5898437,-0.78515625 2.5898437,-1.99218753 0,-0.9375 -0.5273437,-1.453125 -1.78125,-1.7578125 L 2.7763672,-3.6910531 c -0.8203125,-0.1992188 -1.171875,-0.4570313 -1.171875,-0.9023438 0,-0.5859375 0.515625,-0.9492187 1.3359375,-0.9492187 0.796875,0 1.2304687,0.3515625 1.2539062,1.0078125 z m 0,0"
       style="fill:#008000;fill-opacity:1;fill-rule:nonzero;stroke:none"
       aria-label="s"
       transform="matrix(1.3333333,0,0,1.3333333,249.33333,240.08547)" />
    <path
       id="path46"
       d="m 2.6494766,-3.9970703 h 0.5742187 c 1.1601563,0 1.7695313,0.5390625 1.7695313,1.5820312 0,1.0898438 -0.65625,1.75781254 -1.7578125,1.75781254 -1.1601563,0 -1.7226563,-0.58593754 -1.7929688,-1.86328124 H 0.38775781 c 0.046875,0.6914062 0.1640625,1.1484375 0.375,1.53515624 0.43359379,0.84375 1.26562499,1.265625 2.42578129,1.265625 1.7578125,0 2.8828125,-1.06640625 2.8828125,-2.70703124 0,-1.1015625 -0.421875,-1.6992188 -1.4414063,-2.0625 0.796875,-0.328125 1.1953125,-0.9257813 1.1953125,-1.8046875 0,-1.4882813 -0.9726562,-2.3789063 -2.6015625,-2.3789063 -1.7109375,0 -2.62499999,0.9609375 -2.66015624,2.7890625 H 1.6182266 c 0.011719,-0.5273437 0.058594,-0.8203125 0.1992187,-1.0898437 0.234375,-0.4921875 0.7617188,-0.7851563 1.4179688,-0.7851563 0.9375,0 1.5,0.5742188 1.5,1.5 0,0.6210938 -0.2109375,0.984375 -0.6796875,1.1953125 -0.28125,0.1171875 -0.6679688,0.1640625 -1.40625,0.1757813 z m 0,0"
       style="fill:#000000;fill-opacity:1;fill-rule:nonzero;stroke:none"
       aria-label="3&#10; &#10; "
       transform="matrix(1.3333333,0,0,1.3333333,248.88533,264.33333)" />
    <path
       id="path47"
       d="M 6.6454766,-0.00132656 8.4970391,-6.2942953 h -1.125 L 6.1181328,-1.3958578 4.8876641,-6.2942953 H 3.6571953 L 2.4618828,-1.3958578 1.1728203,-6.2942953 H 0.07125781 l 1.82812499,6.29296874 h 1.125 l 1.2070313,-4.93359374 1.2773437,4.93359374 z m 0,0"
       style="fill:#008000;fill-opacity:1;fill-rule:nonzero;stroke:none"
       aria-label="w"
       transform="matrix(1.3333333,0,0,1.3333333,247.55733,332.4588)" />
    <path
       id="path48"
       d="M 3.9267903,-2.0962969 V 0.00135937 H 4.9814778 V -2.0962969 H 6.2353841 V -3.0455156 H 4.9814778 v -5.625 H 4.1963216 l -3.85546879,5.4609375 v 1.1132812 z m 0,-0.9492187 H 1.2666341 l 2.6601562,-3.8320313 z m 0,0"
       style="fill:#000000;fill-opacity:1;fill-rule:nonzero;stroke:none"
       aria-label="     4"
       transform="matrix(1.3333333,0,0,1.3333333,268.88537,183.506)" />
    <path
       id="path49"
       d="m 5.2607422,-4.5351719 c -0.023437,-1.2421875 -0.8320313,-1.9335937 -2.2851563,-1.9335937 -1.4648437,0 -2.41406246,0.7617187 -2.41406246,1.921875 0,0.984375 0.50390626,1.453125 1.99218746,1.8164062 l 0.9375,0.2226563 c 0.6914063,0.1640625 0.9726563,0.421875 0.9726563,0.8671875 0,0.5976562 -0.5859375,0.99609373 -1.4648438,0.99609373 -0.5390625,0 -0.9960937,-0.1640625 -1.2421875,-0.42187503 C 1.5927734,-1.2422031 1.5224609,-1.4297031 1.4638672,-1.8750156 H 0.40917969 c 0.046875,1.45312498 0.86718751,2.15624998 2.50781251,2.15624998 1.5820312,0 2.5898437,-0.78515625 2.5898437,-1.99218748 0,-0.9375 -0.5273437,-1.453125 -1.78125,-1.7578125 L 2.7763672,-3.6914219 c -0.8203125,-0.1992187 -1.171875,-0.4570312 -1.171875,-0.9023437 0,-0.5859375 0.515625,-0.9492188 1.3359375,-0.9492188 0.796875,0 1.2304687,0.3515625 1.2539062,1.0078125 z m 0,0"
       style="fill:#008000;fill-opacity:1;fill-rule:nonzero;stroke:none"
       aria-label="s"
       transform="matrix(1.3333333,0,0,1.3333333,269.33333,205.44533)" />
    <path
       id="path50"
       d="m 3.9268203,-2.0991016 v 2.09765629 H 4.9815078 V -2.0991016 H 6.2354141 V -3.0483203 H 4.9815078 v -5.625 H 4.1963516 l -3.85546879,5.4609375 v 1.1132812 z m 0,-0.9492187 H 1.2666641 l 2.6601562,-3.8320313 z m 0,18.2695313 v 2.097656 H 4.9815078 V 15.221211 H 6.2354141 V 14.271992 H 4.9815078 V 8.6469922 H 4.1963516 L 0.34088281,14.10793 v 1.113281 z m 0,-0.949219 H 1.2666641 l 2.6601562,-3.832031 z m 0,0"
       style="fill:#000000;fill-opacity:1;fill-rule:nonzero;stroke:none"
       aria-label="4&#10;4&#10; &#10; &#10; &#10; &#10; &#10; "
       transform="matrix(1.3333333,0,0,1.3333333,268.88533,229.69333)" />
    <path
       id="path51"
       d="M 6.6454766,1.40625e-4 8.4970391,-6.2928281 h -1.125 L 6.1181328,-1.3943906 4.8876641,-6.2928281 H 3.6571953 L 2.4618828,-1.3943906 1.1728203,-6.2928281 H 0.07125781 L 1.8993828,1.40625e-4 h 1.125 L 4.2314141,-4.9334531 5.5087578,1.40625e-4 Z m 0,0"
       style="fill:#008000;fill-opacity:1;fill-rule:nonzero;stroke:none"
       aria-label="w"
       transform="matrix(1.3333333,0,0,1.3333333,287.55733,216.992)" />
    <path
       id="path52"
       d="M 3.9267903,-2.0986328 V -9.765625e-4 H 4.9814778 V -2.0986328 H 6.2353841 V -3.0478516 H 4.9814778 v -5.625 H 4.1963216 l -3.85546879,5.4609375 v 1.1132813 z m 0,-0.9492188 H 1.2666341 l 2.6601562,-3.8320312 z m 0,0"
       style="fill:#000000;fill-opacity:1;fill-rule:nonzero;stroke:none"
       aria-label=" 4&#10; "
       transform="matrix(1.3333333,0,0,1.3333333,288.88537,264.33333)" />
    <path
       id="path53"
       d="M 6.6454766,-0.00133906 8.4970391,-6.2943078 h -1.125 L 6.1181328,-1.3958703 4.8876641,-6.2943078 H 3.6571953 L 2.4618828,-1.3958703 1.1728203,-6.2943078 H 0.07125781 l 1.82812499,6.29296874 h 1.125 L 4.2314141,-4.9349328 5.5087578,-0.00133906 Z M 21.645477,-164.54138 l 1.851562,-6.29297 h -1.125 l -1.253906,4.89844 -1.230469,-4.89844 h -1.230469 l -1.195312,4.89844 -1.289063,-4.89844 h -1.101562 l 1.828125,6.29297 h 1.125 l 1.207031,-4.93359 1.277344,4.93359 z m 0,0"
       style="fill:#008000;fill-opacity:1;fill-rule:nonzero;stroke:none"
       aria-label="w&#10;w"
       transform="matrix(1.3333333,0,0,1.3333333,287.55733,309.36507)" />
    <path
       id="path54"
       d="m 3.3056966,-8.6715281 c -0.796875,0 -1.5117188,0.3515625 -1.9570313,0.9492187 -0.55078124,0.7617188 -0.83203124,1.9101563 -0.83203124,3.5273438 0,2.9179687 0.96093754,4.47656247 2.78906254,4.47656247 1.7929687,0 2.7773437,-1.55859377 2.7773437,-4.40624997 0,-1.6875 -0.2578125,-2.8125 -0.8203125,-3.5976563 -0.4453125,-0.609375 -1.1601562,-0.9492187 -1.9570312,-0.9492187 z m 0,0.9375 c 1.1367187,0 1.6992187,1.1601562 1.6992187,3.515625 0,2.4609375 -0.5507812,3.62109372 -1.7226562,3.62109372 -1.125,0 -1.6875,-1.20703122 -1.6875,-3.58593752 0,-2.390625 0.5625,-3.5507812 1.7109375,-3.5507812 z M 5.7080403,78.091167 H 1.3252278 L 0.68069656,82.720073 H 1.6533528 c 0.4921875,-0.585937 0.9023438,-0.785156 1.5703125,-0.785156 1.1484375,0 1.8515625,0.773438 1.8515625,2.039063 0,1.21875 -0.703125,1.96875 -1.8632812,1.96875 -0.9140625,0 -1.4882813,-0.46875 -1.734375,-1.429688 H 0.42288406 c 0.140625,0.691406 0.2578125,1.03125 0.515625,1.347656 0.48046874,0.644532 1.34765624,1.019532 2.29687504,1.019532 1.7226562,0 2.9179687,-1.253907 2.9179687,-3.058594 0,-1.675781 -1.1132812,-2.824219 -2.7421875,-2.824219 -0.5976562,0 -1.078125,0.152344 -1.5703125,0.515625 l 0.328125,-2.378906 h 3.5390625 z m 0,0"
       style="fill:#000000;fill-opacity:1;fill-rule:nonzero;stroke:none"
       aria-label="  0&#10; &#10; &#10; &#10; &#10;5&#10; "
       transform="matrix(1.3333333,0,0,1.3333333,308.88537,160.4136)" />
    <path
       id="path55"
       d="M 6.6454766,-0.00110937 8.4970391,-6.2940781 h -1.125 L 6.1181328,-1.3956406 4.8876641,-6.2940781 H 3.6571953 L 2.4618828,-1.3956406 1.1728203,-6.2940781 H 0.07125781 l 1.82812499,6.29296873 h 1.125 l 1.2070313,-4.93359373 1.2773437,4.93359373 z m 0,0"
       style="fill:#008000;fill-opacity:1;fill-rule:nonzero;stroke:none"
       aria-label="w"
       transform="matrix(1.3333333,0,0,1.3333333,327.55733,124.61867)" />
    <path
       id="path56"
       d="m 300,1900 50,86.6 -50,86.6 50,86.6 h 100 l 50,86.6 h 100 l 50,86.6 h 100 l 50,86.6 h 100 l 50,86.6 h 100 l 50,86.6 h 100 l 50,86.6 h 100 l 50,-86.6 h 100 l 50,-86.6 h 100 l 50,-86.6 -50,-86.6 h -100 l -50,86.6 h -100 l -50,86.6 h -100 l -50,-86.6 H 1100 L 1050,2333 H 950 l -50,-86.6 50,-86.6 -50,-86.6 H 800 l -50,-86.6 H 650 l -50,86.6 H 500 l -50,-86.6 50,-86.6 -50,-86.6 50,-86.6 h 100 l 50,86.6 h 100 l 50,-86.6 h 100 l 50,-86.6 -50,-86.6 50,-86.6 -50,-86.6 50,-86.6 h 100 l 50,-86.6 h 100 l 50,-86.6 h 100 l 50,86.6 h 100 l 50,86.6 h 100 l 50,-86.6 h 100 l 50,86.6 h 100 l 50,86.6 -50,86.6 h -100 l -50,-86.6 h -100 l -50,86.6 50,86.6 -50,86.6 50,86.6 -50,86.6 50,86.6 h 100 l 50,-86.6 -50,-86.6 50,-86.6 h 100 l 50,-86.6 h 100 l 50,-86.6 -50,-86.6 50,-86.6 -50,-86.6 h -100 l -50,-86.6 50,-86.6 h 100 l 50,-86.602 h 100 l 50,-86.597 h 100 l 50,-86.602 -50,-86.597 h -100 l -50,86.597 h -100 l -50,86.602 h -100 l -50,86.597 h -100 l -50,-86.597 h -100 l -50,-86.602 50,-86.597 L 1650,601 h -100 l -50,86.602 H 1400 L 1350,601 h -100 l -50,-86.602 h -100 l -50,-86.597 H 950 l -50,86.597 H 800 L 750,427.801 H 650 L 600,514.398 650,601 h 100 l 50,86.602 H 900 L 950,601 h 100 l 50,86.602 h 100 l 50,86.597 h 100 l 50,86.602 h 100 l 50,86.597 -50,86.602 h -100 l -50,-86.602 H 1250 L 1200,1034 h -100 l -50,86.6 H 950 l -50,86.6 H 800 l -50,-86.6 H 650 L 600,1034 H 500 L 450,947.398 H 350 L 300,1034 H 200 l -50,86.6 50,86.6 h 100 l 50,-86.6 h 100 l 50,86.6 h 100 l 50,86.6 h 100 l 50,86.6 -50,86.6 50,86.6 -50,86.6 H 650 l -50,-86.6 H 500 l -50,86.6 H 350 l -50,86.6 50,86.6 -50,86.6"
       style="fill:none;stroke:#000000;stroke-width:16;stroke-linecap:butt;stroke-linejoin:miter;stroke-miterlimit:10;stroke-dasharray:none;stroke-opacity:1"
       transform="matrix(0.13333333,0,0,-0.13333333,0,373.33333)" />
  </g>
</svg>
