<?xml version="1.0" encoding="UTF-8" standalone="no"?>
<!-- Created with Inkscape (http://www.inkscape.org/) -->

<svg
   version="1.1"
   id="svg1"
   width="346.66666"
   height="373.33334"
   viewBox="0 0 346.66666 373.33334"
   sodipodi:docname="sheepwolves-day1-sol2.pdf"
   xmlns:inkscape="http://www.inkscape.org/namespaces/inkscape"
   xmlns:sodipodi="http://sodipodi.sourceforge.net/DTD/sodipodi-0.dtd"
   xmlns="http://www.w3.org/2000/svg"
   xmlns:svg="http://www.w3.org/2000/svg">
  <defs
     id="defs1" />
  <sodipodi:namedview
     id="namedview1"
     pagecolor="#ffffff"
     bordercolor="#666666"
     borderopacity="1.0"
     inkscape:showpageshadow="2"
     inkscape:pageopacity="0.0"
     inkscape:pagecheckerboard="0"
     inkscape:deskcolor="#d1d1d1">
    <inkscape:page
       x="0"
       y="0"
       inkscape:label="1"
       id="page1"
       width="346.66666"
       height="373.33334"
       margin="0"
       bleed="0" />
  </sodipodi:namedview>
  <g
     id="g1"
     inkscape:groupmode="layer"
     inkscape:label="1">
    <path
       id="path1"
       d="m 200,1900 h 100 l 50,-86.6 h 100 l 50,86.6 h 100 l 50,-86.6 h 100 l 50,86.6 -50,86.6 50,86.6 -50,86.6 50,86.6 -50,86.6 50,86.6 h 100 l 50,86.6 h 100 l 50,-86.6 -50,-86.6 H 950 l -50,-86.6 50,-86.6 -50,-86.6 50,-86.6 -50,-86.6 50,-86.6 -50,-86.6 50,-86.6 -50,-86.6 50,-86.6 -50,-86.6 50,-86.6 h 100 l 50,-86.6 h 100 l 50,-86.6 h 100 l 50,-86.6 -50,-86.602 50,-86.597 h 100 l 50,86.597 -50,86.602 50,86.6 h 100 l 50,86.6 -50,86.6 50,86.6 -50,86.6 50,86.6 -50,86.6 h -100 l -50,86.6 h -100 l -50,86.6 50,86.6 h 100 l 50,-86.6 h 100 l 50,86.6 h 100 l 50,-86.6 -50,-86.6 50,-86.6 h 100 l 50,-86.6 h 100 l 50,-86.6 h 100 l 50,86.6 -50,86.6 50,86.6 h 100 l 50,-86.6 -50,-86.6 50,-86.6 -50,-86.6 h -100 l -50,-86.6 h -100 l -50,-86.6 h -100 l -50,-86.6 h -100 l -50,-86.6 50,-86.602 h 100 l 50,-86.597 h 100 l 50,-86.602 h 100 l 50,86.602 -50,86.597 h -100 l -50,86.602 50,86.6 h 100 l 50,-86.6 h 100 l 50,-86.602 -50,-86.597 50,-86.602 -50,-86.597 H 2300 L 2250,601 h -100 l -50,86.602 h -100 l -50,86.597 h -100 l -50,86.602 h -100 l -50,-86.602 50,-86.597 h 100 L 1850,601 h 100 l 50,-86.602 -50,-86.597 h -100 l -50,86.597 H 1700 L 1650,601 h -100 l -50,-86.602 h -100 l -50,-86.597 50,-86.602 h 100 L 1550,254.602 1500,168 h -100 l -50,86.602 h -100 l -50,86.597 50,86.602 -50,86.597 50,86.602 -50,86.602 50,86.597 -50,86.602 50,86.597 -50,86.602 h -100 l -50,86.6 H 950 L 900,1034 H 800 L 750,947.398 800,860.801 750,774.199 800,687.602 750,601 800,514.398 h 100 l 50,-86.597 -50,-86.602 H 800 l -50,86.602 H 650 l -50,86.597 H 500 L 450,601 l 50,86.602 h 100 l 50,86.597 -50,86.602 50,86.597 -50,86.602 50,86.6 -50,86.6 H 500 l -50,-86.6 H 350 L 300,1034 H 200 l -50,86.6 50,86.6 h 100 l 50,86.6 h 100 l 50,86.6 h 100 l 50,-86.6 h 100 l 50,86.6 -50,86.6 50,86.6 -50,86.6 H 650 l -50,86.6 H 500 l -50,-86.6 H 350 l -50,86.6 H 200 l -50,86.6 50,86.6"
       style="fill:#ffffcc;fill-opacity:1;fill-rule:nonzero;stroke:none"
       transform="matrix(0.13333333,0,0,-0.13333333,0,373.33333)" />
    <path
       id="path2"
       d="m 200,1900 h 100 l 50,86.6 -50,86.6 H 200 l -50,-86.6 50,-86.6 m 0,-173.2 h 100 l 50,86.6 -50,86.6 H 200 l -50,-86.6 50,-86.6 m 0,-173.2 h 100 l 50,86.6 -50,86.6 H 200 l -50,-86.6 50,-86.6 m 0,-173.2 h 100 l 50,86.6 -50,86.6 H 200 l -50,-86.6 50,-86.6 m 0,-173.2 h 100 l 50,86.6 -50,86.6 H 200 l -50,-86.6 50,-86.6 m 0,-173.2 h 100 l 50,86.6 -50,86.6 H 200 l -50,-86.6 50,-86.6 m 0,-173.199 H 300 L 350,947.398 300,1034 H 200 l -50,-86.602 50,-86.597 m 0,-173.199 h 100 l 50,86.597 -50,86.602 H 200 l -50,-86.602 50,-86.597"
       style="fill:none;stroke:#000000;stroke-width:4;stroke-linecap:butt;stroke-linejoin:miter;stroke-miterlimit:10;stroke-dasharray:10, 20, 10, 20, 10, 20, 10, 0;stroke-dashoffset:800;stroke-opacity:1"
       transform="matrix(0.13333333,0,0,-0.13333333,0,373.33333)" />
    <path
       id="path3"
       d="m 350,1986.6 h 100 l 50,86.6 -50,86.6 H 350 l -50,-86.6 50,-86.6 m 0,-173.2 h 100 l 50,86.6 -50,86.6 H 350 l -50,-86.6 50,-86.6 m 0,-173.2 h 100 l 50,86.6 -50,86.6 H 350 l -50,-86.6 50,-86.6 m 0,-173.2 h 100 l 50,86.6 -50,86.6 H 350 l -50,-86.6 50,-86.6 m 0,-173.2 h 100 l 50,86.6 -50,86.6 H 350 l -50,-86.6 50,-86.6 m 0,-173.2 h 100 l 50,86.6 -50,86.6 H 350 l -50,-86.6 50,-86.6 m 0,-173.202 h 100 l 50,86.602 -50,86.6 H 350 l -50,-86.6 50,-86.602 m 0,-173.199 h 100 l 50,86.602 -50,86.597 H 350 l -50,-86.597 50,-86.602 M 350,601 h 100 l 50,86.602 -50,86.597 H 350 L 300,687.602 350,601"
       style="fill:none;stroke:#000000;stroke-width:4;stroke-linecap:butt;stroke-linejoin:miter;stroke-miterlimit:10;stroke-dasharray:10, 20, 10, 20, 10, 20, 10, 0;stroke-dashoffset:800;stroke-opacity:1"
       transform="matrix(0.13333333,0,0,-0.13333333,0,373.33333)" />
    <path
       id="path4"
       d="m 500,2073.2 h 100 l 50,86.6 -50,86.6 H 500 l -50,-86.6 50,-86.6 m 0,-173.2 h 100 l 50,86.6 -50,86.6 H 500 l -50,-86.6 50,-86.6 m 0,-173.2 h 100 l 50,86.6 -50,86.6 H 500 l -50,-86.6 50,-86.6 m 0,-173.2 h 100 l 50,86.6 -50,86.6 H 500 l -50,-86.6 50,-86.6 m 0,-173.2 h 100 l 50,86.6 -50,86.6 H 500 l -50,-86.6 50,-86.6 m 0,-173.2 h 100 l 50,86.6 -50,86.6 H 500 l -50,-86.6 50,-86.6 m 0,-173.2 h 100 l 50,86.6 -50,86.6 H 500 l -50,-86.6 50,-86.6 m 0,-173.199 H 600 L 650,947.398 600,1034 H 500 l -50,-86.602 50,-86.597 m 0,-173.199 h 100 l 50,86.597 -50,86.602 H 500 l -50,-86.602 50,-86.597 m 0,-173.204 H 600 L 650,601 600,687.602 H 500 L 450,601 500,514.398"
       style="fill:none;stroke:#000000;stroke-width:4;stroke-linecap:butt;stroke-linejoin:miter;stroke-miterlimit:10;stroke-dasharray:10, 20, 10, 20, 10, 20, 10, 0;stroke-dashoffset:800;stroke-opacity:1"
       transform="matrix(0.13333333,0,0,-0.13333333,0,373.33333)" />
    <path
       id="path5"
       d="m 650,2159.8 h 100 l 50,86.6 -50,86.6 H 650 l -50,-86.6 50,-86.6 m 0,-173.2 h 100 l 50,86.6 -50,86.6 H 650 l -50,-86.6 50,-86.6 m 0,-173.2 h 100 l 50,86.6 -50,86.6 H 650 l -50,-86.6 50,-86.6 m 0,-173.2 h 100 l 50,86.6 -50,86.6 H 650 l -50,-86.6 50,-86.6 m 0,-173.2 h 100 l 50,86.6 -50,86.6 H 650 l -50,-86.6 50,-86.6 m 0,-173.2 h 100 l 50,86.6 -50,86.6 H 650 l -50,-86.6 50,-86.6 m 0,-173.2 h 100 l 50,86.6 -50,86.6 H 650 l -50,-86.6 50,-86.6 m 0,-173.202 h 100 l 50,86.602 -50,86.6 H 650 l -50,-86.6 50,-86.602 m 0,-173.199 h 100 l 50,86.602 -50,86.597 H 650 l -50,-86.597 50,-86.602 M 650,601 h 100 l 50,86.602 -50,86.597 H 650 L 600,687.602 650,601 m 0,-173.199 H 750 L 800,514.398 750,601 H 650 l -50,-86.602 50,-86.597"
       style="fill:none;stroke:#000000;stroke-width:4;stroke-linecap:butt;stroke-linejoin:miter;stroke-miterlimit:10;stroke-dasharray:10, 20, 10, 20, 10, 20, 10, 0;stroke-dashoffset:800;stroke-opacity:1"
       transform="matrix(0.13333333,0,0,-0.13333333,0,373.33333)" />
    <path
       id="path6"
       d="m 800,2246.4 h 100 l 50,86.6 -50,86.6 H 800 l -50,-86.6 50,-86.6 m 0,-173.2 h 100 l 50,86.6 -50,86.6 H 800 l -50,-86.6 50,-86.6 m 0,-173.2 h 100 l 50,86.6 -50,86.6 H 800 l -50,-86.6 50,-86.6 m 0,-173.2 h 100 l 50,86.6 -50,86.6 H 800 l -50,-86.6 50,-86.6 m 0,-173.2 h 100 l 50,86.6 -50,86.6 H 800 l -50,-86.6 50,-86.6 m 0,-173.2 h 100 l 50,86.6 -50,86.6 H 800 l -50,-86.6 50,-86.6 m 0,-173.2 h 100 l 50,86.6 -50,86.6 H 800 l -50,-86.6 50,-86.6 m 0,-173.2 h 100 l 50,86.6 -50,86.6 H 800 l -50,-86.6 50,-86.6 m 0,-173.199 H 900 L 950,947.398 900,1034 H 800 l -50,-86.602 50,-86.597 m 0,-173.199 h 100 l 50,86.597 -50,86.602 H 800 l -50,-86.602 50,-86.597 m 0,-173.204 H 900 L 950,601 900,687.602 H 800 L 750,601 800,514.398 m 0,-173.199 h 100 l 50,86.602 -50,86.597 H 800 l -50,-86.597 50,-86.602"
       style="fill:none;stroke:#000000;stroke-width:4;stroke-linecap:butt;stroke-linejoin:miter;stroke-miterlimit:10;stroke-dasharray:10, 20, 10, 20, 10, 20, 10, 0;stroke-dashoffset:800;stroke-opacity:1"
       transform="matrix(0.13333333,0,0,-0.13333333,0,373.33333)" />
    <path
       id="path7"
       d="m 950,2333 h 100 l 50,86.6 -50,86.6 H 950 l -50,-86.6 50,-86.6 m 0,-173.2 h 100 l 50,86.6 -50,86.6 H 950 l -50,-86.6 50,-86.6 m 0,-173.2 h 100 l 50,86.6 -50,86.6 H 950 l -50,-86.6 50,-86.6 m 0,-173.2 h 100 l 50,86.6 -50,86.6 H 950 l -50,-86.6 50,-86.6 m 0,-173.2 h 100 l 50,86.6 -50,86.6 H 950 l -50,-86.6 50,-86.6 m 0,-173.2 h 100 l 50,86.6 -50,86.6 H 950 l -50,-86.6 50,-86.6 m 0,-173.2 h 100 l 50,86.6 -50,86.6 H 950 l -50,-86.6 50,-86.6 m 0,-173.2 h 100 l 50,86.6 -50,86.6 H 950 l -50,-86.6 50,-86.6 m 0,-173.202 h 100 l 50,86.602 -50,86.6 H 950 l -50,-86.6 50,-86.602 m 0,-173.199 h 100 l 50,86.602 -50,86.597 H 950 l -50,-86.597 50,-86.602 M 950,601 h 100 l 50,86.602 -50,86.597 H 950 L 900,687.602 950,601 m 0,-173.199 h 100 l 50,86.597 L 1050,601 H 950 l -50,-86.602 50,-86.597 m 0,-173.199 h 100 l 50,86.597 -50,86.602 H 950 l -50,-86.602 50,-86.597"
       style="fill:none;stroke:#000000;stroke-width:4;stroke-linecap:butt;stroke-linejoin:miter;stroke-miterlimit:10;stroke-dasharray:10, 20, 10, 20, 10, 20, 10, 0;stroke-dashoffset:800;stroke-opacity:1"
       transform="matrix(0.13333333,0,0,-0.13333333,0,373.33333)" />
    <path
       id="path8"
       d="m 1100,2419.6 h 100 l 50,86.6 -50,86.6 h -100 l -50,-86.6 50,-86.6 m 0,-173.2 h 100 l 50,86.6 -50,86.6 h -100 l -50,-86.6 50,-86.6 m 0,-173.2 h 100 l 50,86.6 -50,86.6 h -100 l -50,-86.6 50,-86.6 m 0,-173.2 h 100 l 50,86.6 -50,86.6 h -100 l -50,-86.6 50,-86.6 m 0,-173.2 h 100 l 50,86.6 -50,86.6 h -100 l -50,-86.6 50,-86.6 m 0,-173.2 h 100 l 50,86.6 -50,86.6 h -100 l -50,-86.6 50,-86.6 m 0,-173.2 h 100 l 50,86.6 -50,86.6 h -100 l -50,-86.6 50,-86.6 m 0,-173.2 h 100 l 50,86.6 -50,86.6 h -100 l -50,-86.6 50,-86.6 m 0,-173.2 h 100 l 50,86.6 -50,86.6 h -100 l -50,-86.6 50,-86.6 m 0,-173.199 h 100 l 50,86.597 -50,86.602 h -100 l -50,-86.602 50,-86.597 m 0,-173.199 h 100 l 50,86.597 -50,86.602 h -100 l -50,-86.602 50,-86.597 m 0,-173.204 h 100 l 50,86.602 -50,86.602 H 1100 L 1050,601 l 50,-86.602 m 0,-173.199 h 100 l 50,86.602 -50,86.597 h -100 l -50,-86.597 50,-86.602 M 1100,168 h 100 l 50,86.602 -50,86.597 H 1100 L 1050,254.602 1100,168"
       style="fill:none;stroke:#000000;stroke-width:4;stroke-linecap:butt;stroke-linejoin:miter;stroke-miterlimit:10;stroke-dasharray:10, 20, 10, 20, 10, 20, 10, 0;stroke-dashoffset:800;stroke-opacity:1"
       transform="matrix(0.13333333,0,0,-0.13333333,0,373.33333)" />
    <path
       id="path9"
       d="m 1250,2506.2 h 100 l 50,86.6 -50,86.6 h -100 l -50,-86.6 50,-86.6 m 0,-173.2 h 100 l 50,86.6 -50,86.6 h -100 l -50,-86.6 50,-86.6 m 0,-173.2 h 100 l 50,86.6 -50,86.6 h -100 l -50,-86.6 50,-86.6 m 0,-173.2 h 100 l 50,86.6 -50,86.6 h -100 l -50,-86.6 50,-86.6 m 0,-173.2 h 100 l 50,86.6 -50,86.6 h -100 l -50,-86.6 50,-86.6 m 0,-173.2 h 100 l 50,86.6 -50,86.6 h -100 l -50,-86.6 50,-86.6 m 0,-173.2 h 100 l 50,86.6 -50,86.6 h -100 l -50,-86.6 50,-86.6 m 0,-173.2 h 100 l 50,86.6 -50,86.6 h -100 l -50,-86.6 50,-86.6 m 0,-173.2 h 100 l 50,86.6 -50,86.6 h -100 l -50,-86.6 50,-86.6 m 0,-173.198 h 100 l 50,86.598 -50,86.6 h -100 l -50,-86.6 50,-86.598 m 0,-173.203 h 100 l 50,86.602 -50,86.601 h -100 l -50,-86.601 50,-86.602 M 1250,601 h 100 l 50,86.602 -50,86.597 H 1250 L 1200,687.602 1250,601 m 0,-173.199 h 100 l 50,86.601 -50,86.598 h -100 l -50,-86.598 50,-86.601 m 0,-173.199 h 100 l 50,86.597 -50,86.602 h -100 l -50,-86.602 50,-86.597 m 0,-173.1997 h 100 L 1400,168 1350,254.602 H 1250 L 1200,168 1250,81.4023"
       style="fill:none;stroke:#000000;stroke-width:4;stroke-linecap:butt;stroke-linejoin:miter;stroke-miterlimit:10;stroke-dasharray:10, 20, 10, 20, 10, 20, 10, 0;stroke-dashoffset:800;stroke-opacity:1"
       transform="matrix(0.13333333,0,0,-0.13333333,0,373.33333)" />
    <path
       id="path10"
       d="m 1400,2419.6 h 100 l 50,86.6 -50,86.6 h -100 l -50,-86.6 50,-86.6 m 0,-173.2 h 100 l 50,86.6 -50,86.6 h -100 l -50,-86.6 50,-86.6 m 0,-173.2 h 100 l 50,86.6 -50,86.6 h -100 l -50,-86.6 50,-86.6 m 0,-173.2 h 100 l 50,86.6 -50,86.6 h -100 l -50,-86.6 50,-86.6 m 0,-173.2 h 100 l 50,86.6 -50,86.6 h -100 l -50,-86.6 50,-86.6 m 0,-173.2 h 100 l 50,86.6 -50,86.6 h -100 l -50,-86.6 50,-86.6 m 0,-173.2 h 100 l 50,86.6 -50,86.6 h -100 l -50,-86.6 50,-86.6 m 0,-173.2 h 100 l 50,86.6 -50,86.6 h -100 l -50,-86.6 50,-86.6 m 0,-173.2 h 100 l 50,86.6 -50,86.6 h -100 l -50,-86.6 50,-86.6 m 0,-173.199 h 100 l 50,86.601 -50,86.598 h -100 l -50,-86.598 50,-86.601 m 0,-173.199 h 100 l 50,86.597 -50,86.602 h -100 l -50,-86.602 50,-86.597 m 0,-173.2 h 100 l 50,86.598 -50,86.602 H 1400 L 1350,601 l 50,-86.598 m 0,-173.203 h 100 l 50,86.602 -50,86.601 h -100 l -50,-86.601 50,-86.602 M 1400,168 h 100 l 50,86.602 -50,86.597 H 1400 L 1350,254.602 1400,168"
       style="fill:none;stroke:#000000;stroke-width:4;stroke-linecap:butt;stroke-linejoin:miter;stroke-miterlimit:10;stroke-dasharray:10, 20, 10, 20, 10, 20, 10, 0;stroke-dashoffset:800;stroke-opacity:1"
       transform="matrix(0.13333333,0,0,-0.13333333,0,373.33333)" />
    <path
       id="path11"
       d="m 1550,2333 h 100 l 50,86.6 -50,86.6 h -100 l -50,-86.6 50,-86.6 m 0,-173.2 h 100 l 50,86.6 -50,86.6 h -100 l -50,-86.6 50,-86.6 m 0,-173.2 h 100 l 50,86.6 -50,86.6 h -100 l -50,-86.6 50,-86.6 m 0,-173.2 h 100 l 50,86.6 -50,86.6 h -100 l -50,-86.6 50,-86.6 m 0,-173.2 h 100 l 50,86.6 -50,86.6 h -100 l -50,-86.6 50,-86.6 m 0,-173.2 h 100 l 50,86.6 -50,86.6 h -100 l -50,-86.6 50,-86.6 m 0,-173.2 h 100 l 50,86.6 -50,86.6 h -100 l -50,-86.6 50,-86.6 m 0,-173.2 h 100 l 50,86.6 -50,86.6 h -100 l -50,-86.6 50,-86.6 m 0,-173.198 h 100 l 50,86.598 -50,86.6 h -100 l -50,-86.6 50,-86.598 m 0,-173.203 h 100 l 50,86.602 -50,86.601 h -100 l -50,-86.601 50,-86.602 M 1550,601 h 100 l 50,86.602 -50,86.597 H 1550 L 1500,687.602 1550,601 m 0,-173.199 h 100 l 50,86.601 -50,86.598 h -100 l -50,-86.598 50,-86.601 m 0,-173.199 h 100 l 50,86.597 -50,86.602 h -100 l -50,-86.602 50,-86.597"
       style="fill:none;stroke:#000000;stroke-width:4;stroke-linecap:butt;stroke-linejoin:miter;stroke-miterlimit:10;stroke-dasharray:10, 20, 10, 20, 10, 20, 10, 0;stroke-dashoffset:800;stroke-opacity:1"
       transform="matrix(0.13333333,0,0,-0.13333333,0,373.33333)" />
    <path
       id="path12"
       d="m 1700,2246.4 h 100 l 50,86.6 -50,86.6 h -100 l -50,-86.6 50,-86.6 m 0,-173.2 h 100 l 50,86.6 -50,86.6 h -100 l -50,-86.6 50,-86.6 m 0,-173.2 h 100 l 50,86.6 -50,86.6 h -100 l -50,-86.6 50,-86.6 m 0,-173.2 h 100 l 50,86.6 -50,86.6 h -100 l -50,-86.6 50,-86.6 m 0,-173.2 h 100 l 50,86.6 -50,86.6 h -100 l -50,-86.6 50,-86.6 m 0,-173.2 h 100 l 50,86.6 -50,86.6 h -100 l -50,-86.6 50,-86.6 m 0,-173.2 h 100 l 50,86.6 -50,86.6 h -100 l -50,-86.6 50,-86.6 m 0,-173.2 h 100 l 50,86.6 -50,86.6 h -100 l -50,-86.6 50,-86.6 m 0,-173.199 h 100 l 50,86.601 -50,86.598 h -100 l -50,-86.598 50,-86.601 m 0,-173.199 h 100 l 50,86.597 -50,86.602 h -100 l -50,-86.602 50,-86.597 m 0,-173.2 h 100 l 50,86.598 -50,86.602 H 1700 L 1650,601 l 50,-86.598 m 0,-173.203 h 100 l 50,86.602 -50,86.601 h -100 l -50,-86.601 50,-86.602"
       style="fill:none;stroke:#000000;stroke-width:4;stroke-linecap:butt;stroke-linejoin:miter;stroke-miterlimit:10;stroke-dasharray:10, 20, 10, 20, 10, 20, 10, 0;stroke-dashoffset:800;stroke-opacity:1"
       transform="matrix(0.13333333,0,0,-0.13333333,0,373.33333)" />
    <path
       id="path13"
       d="m 1850,2159.8 h 100 l 50,86.6 -50,86.6 h -100 l -50,-86.6 50,-86.6 m 0,-173.2 h 100 l 50,86.6 -50,86.6 h -100 l -50,-86.6 50,-86.6 m 0,-173.2 h 100 l 50,86.6 -50,86.6 h -100 l -50,-86.6 50,-86.6 m 0,-173.2 h 100 l 50,86.6 -50,86.6 h -100 l -50,-86.6 50,-86.6 m 0,-173.2 h 100 l 50,86.6 -50,86.6 h -100 l -50,-86.6 50,-86.6 m 0,-173.2 h 100 l 50,86.6 -50,86.6 h -100 l -50,-86.6 50,-86.6 m 0,-173.2 h 100 l 50,86.6 -50,86.6 h -100 l -50,-86.6 50,-86.6 m 0,-173.202 h 100 l 50,86.602 -50,86.6 h -100 l -50,-86.6 50,-86.602 m 0,-173.199 h 100 l 50,86.602 -50,86.597 h -100 l -50,-86.597 50,-86.602 M 1850,601 h 100 l 50,86.602 -50,86.597 H 1850 L 1800,687.602 1850,601 m 0,-173.199 h 100 l 50,86.597 -50,86.602 h -100 l -50,-86.602 50,-86.597"
       style="fill:none;stroke:#000000;stroke-width:4;stroke-linecap:butt;stroke-linejoin:miter;stroke-miterlimit:10;stroke-dasharray:10, 20, 10, 20, 10, 20, 10, 0;stroke-dashoffset:800;stroke-opacity:1"
       transform="matrix(0.13333333,0,0,-0.13333333,0,373.33333)" />
    <path
       id="path14"
       d="m 2000,2073.2 h 100 l 50,86.6 -50,86.6 h -100 l -50,-86.6 50,-86.6 m 0,-173.2 h 100 l 50,86.6 -50,86.6 h -100 l -50,-86.6 50,-86.6 m 0,-173.2 h 100 l 50,86.6 -50,86.6 h -100 l -50,-86.6 50,-86.6 m 0,-173.2 h 100 l 50,86.6 -50,86.6 h -100 l -50,-86.6 50,-86.6 m 0,-173.2 h 100 l 50,86.6 -50,86.6 h -100 l -50,-86.6 50,-86.6 m 0,-173.2 h 100 l 50,86.6 -50,86.6 h -100 l -50,-86.6 50,-86.6 m 0,-173.2 h 100 l 50,86.6 -50,86.6 h -100 l -50,-86.6 50,-86.6 m 0,-173.199 h 100 l 50,86.597 -50,86.602 h -100 l -50,-86.602 50,-86.597 m 0,-173.199 h 100 l 50,86.597 -50,86.602 h -100 l -50,-86.602 50,-86.597 m 0,-173.204 h 100 l 50,86.602 -50,86.602 H 2000 L 1950,601 l 50,-86.602"
       style="fill:none;stroke:#000000;stroke-width:4;stroke-linecap:butt;stroke-linejoin:miter;stroke-miterlimit:10;stroke-dasharray:10, 20, 10, 20, 10, 20, 10, 0;stroke-dashoffset:800;stroke-opacity:1"
       transform="matrix(0.13333333,0,0,-0.13333333,0,373.33333)" />
    <path
       id="path15"
       d="m 2150,1986.6 h 100 l 50,86.6 -50,86.6 h -100 l -50,-86.6 50,-86.6 m 0,-173.2 h 100 l 50,86.6 -50,86.6 h -100 l -50,-86.6 50,-86.6 m 0,-173.2 h 100 l 50,86.6 -50,86.6 h -100 l -50,-86.6 50,-86.6 m 0,-173.2 h 100 l 50,86.6 -50,86.6 h -100 l -50,-86.6 50,-86.6 m 0,-173.2 h 100 l 50,86.6 -50,86.6 h -100 l -50,-86.6 50,-86.6 m 0,-173.2 h 100 l 50,86.6 -50,86.6 h -100 l -50,-86.6 50,-86.6 m 0,-173.202 h 100 l 50,86.602 -50,86.6 h -100 l -50,-86.6 50,-86.602 m 0,-173.199 h 100 l 50,86.602 -50,86.597 h -100 l -50,-86.597 50,-86.602 M 2150,601 h 100 l 50,86.602 -50,86.597 H 2150 L 2100,687.602 2150,601"
       style="fill:none;stroke:#000000;stroke-width:4;stroke-linecap:butt;stroke-linejoin:miter;stroke-miterlimit:10;stroke-dasharray:10, 20, 10, 20, 10, 20, 10, 0;stroke-dashoffset:800;stroke-opacity:1"
       transform="matrix(0.13333333,0,0,-0.13333333,0,373.33333)" />
    <path
       id="path16"
       d="m 2300,1900 h 100 l 50,86.6 -50,86.6 h -100 l -50,-86.6 50,-86.6 m 0,-173.2 h 100 l 50,86.6 -50,86.6 h -100 l -50,-86.6 50,-86.6 m 0,-173.2 h 100 l 50,86.6 -50,86.6 h -100 l -50,-86.6 50,-86.6 m 0,-173.2 h 100 l 50,86.6 -50,86.6 h -100 l -50,-86.6 50,-86.6 m 0,-173.2 h 100 l 50,86.6 -50,86.6 h -100 l -50,-86.6 50,-86.6 m 0,-173.2 h 100 l 50,86.6 -50,86.6 h -100 l -50,-86.6 50,-86.6 m 0,-173.199 h 100 l 50,86.597 -50,86.602 h -100 l -50,-86.602 50,-86.597 m 0,-173.199 h 100 l 50,86.597 -50,86.602 h -100 l -50,-86.602 50,-86.597"
       style="fill:none;stroke:#000000;stroke-width:4;stroke-linecap:butt;stroke-linejoin:miter;stroke-miterlimit:10;stroke-dasharray:10, 20, 10, 20, 10, 20, 10, 0;stroke-dashoffset:800;stroke-opacity:1"
       transform="matrix(0.13333333,0,0,-0.13333333,0,373.33333)" />
    <path
       id="path17"
       d="M 6.6451166,-1.71875e-4 8.4966791,-6.2931406 h -1.125 L 6.1177728,-1.3947031 4.8873041,-6.2931406 H 3.6568353 L 2.4615228,-1.3947031 1.1724603,-6.2931406 H 0.07089781 L 1.8990228,-1.71875e-4 h 1.125 L 4.2310541,-4.9337656 5.5083978,-1.71875e-4 Z m 0,0"
       style="fill:#008000;fill-opacity:1;fill-rule:nonzero;stroke:none"
       aria-label="   w"
       transform="matrix(1.3333333,0,0,1.3333333,7.5578133,193.89867)" />
    <path
       id="path18"
       d="M 6.6451166,7.65625e-4 8.4966791,-6.2922031 h -1.125 L 6.1177728,-1.3937656 4.8873041,-6.2922031 H 3.6568353 L 2.4615228,-1.3937656 1.1724603,-6.2922031 H 0.07089781 L 1.8990228,7.65625e-4 h 1.125 L 4.2310541,-4.9328281 5.5083978,7.65625e-4 Z m 0,0"
       style="fill:#008000;fill-opacity:1;fill-rule:nonzero;stroke:none"
       aria-label="  w"
       transform="matrix(1.3333333,0,0,1.3333333,7.5578133,263.17867)" />
    <path
       id="path19"
       d="M 6.6450766,8.09375e-4 8.4966391,-6.2921594 h -1.125 L 6.1177328,-1.3937219 4.8872641,-6.2921594 H 3.6567953 L 2.4614828,-1.3937219 1.1724203,-6.2921594 H 0.07085781 L 1.8989828,8.09375e-4 h 1.125 L 4.2310141,-4.9327844 5.5083578,8.09375e-4 Z m 0,0"
       style="fill:#008000;fill-opacity:1;fill-rule:nonzero;stroke:none"
       aria-label="       w"
       transform="matrix(1.3333333,0,0,1.3333333,67.557867,251.63173)" />
    <path
       id="path20"
       d="m 5.2607422,-4.5350156 c -0.023437,-1.2421875 -0.8320313,-1.9335938 -2.2851563,-1.9335938 -1.4648437,0 -2.41406246,0.7617188 -2.41406246,1.921875 0,0.984375 0.50390626,1.453125 1.99218746,1.8164063 l 0.9375,0.2226562 c 0.6914063,0.1640625 0.9726563,0.421875 0.9726563,0.8671875 0,0.5976563 -0.5859375,0.99609378 -1.4648438,0.99609378 -0.5390625,0 -0.9960937,-0.1640625 -1.2421875,-0.42187498 C 1.5927734,-1.2420469 1.5224609,-1.4295469 1.4638672,-1.8748594 H 0.40917969 c 0.046875,1.45312503 0.86718751,2.15625003 2.50781251,2.15625003 1.5820312,0 2.5898437,-0.78515625 2.5898437,-1.99218753 0,-0.9375 -0.5273437,-1.453125 -1.78125,-1.7578125 L 2.7763672,-3.6912656 c -0.8203125,-0.1992188 -1.171875,-0.4570313 -1.171875,-0.9023438 0,-0.5859375 0.515625,-0.9492187 1.3359375,-0.9492187 0.796875,0 1.2304687,0.3515625 1.2539062,1.0078125 z m 0,0"
       style="fill:#008000;fill-opacity:1;fill-rule:nonzero;stroke:none"
       aria-label="        s"
       transform="matrix(1.3333333,0,0,1.3333333,89.333333,216.992)" />
    <path
       id="path21"
       d="m 5.2607422,-4.5357969 c -0.023437,-1.2421875 -0.8320313,-1.9335937 -2.2851563,-1.9335937 -1.4648437,0 -2.41406246,0.7617187 -2.41406246,1.921875 0,0.984375 0.50390626,1.453125 1.99218746,1.8164062 l 0.9375,0.2226563 c 0.6914063,0.1640625 0.9726563,0.421875 0.9726563,0.8671875 0,0.5976562 -0.5859375,0.99609373 -1.4648438,0.99609373 -0.5390625,0 -0.9960937,-0.1640625 -1.2421875,-0.42187503 C 1.5927734,-1.2428281 1.5224609,-1.4303281 1.4638672,-1.8756406 H 0.40917969 c 0.046875,1.45312498 0.86718751,2.15624998 2.50781251,2.15624998 1.5820312,0 2.5898437,-0.78515625 2.5898437,-1.99218748 0,-0.9375 -0.5273437,-1.453125 -1.78125,-1.7578125 L 2.7763672,-3.6920469 c -0.8203125,-0.1992187 -1.171875,-0.4570312 -1.171875,-0.9023437 0,-0.5859375 0.515625,-0.9492188 1.3359375,-0.9492188 0.796875,0 1.2304687,0.3515625 1.2539062,1.0078125 z m 0,17.3203129 c -0.023437,-1.242188 -0.8320313,-1.933594 -2.2851563,-1.933594 -1.4648437,0 -2.41406246,0.761719 -2.41406246,1.921875 0,0.984375 0.50390626,1.453125 1.99218746,1.816406 l 0.9375,0.222656 c 0.6914063,0.164063 0.9726563,0.421875 0.9726563,0.867188 0,0.597656 -0.5859375,0.996094 -1.4648438,0.996094 -0.5390625,0 -0.9960937,-0.164063 -1.2421875,-0.421875 C 1.5927734,16.077484 1.5224609,15.889984 1.4638672,15.444672 H 0.40917969 c 0.046875,1.453125 0.86718751,2.15625 2.50781251,2.15625 1.5820312,0 2.5898437,-0.785156 2.5898437,-1.992188 0,-0.9375 -0.5273437,-1.453125 -1.78125,-1.757812 L 2.7763672,13.628266 c -0.8203125,-0.199219 -1.171875,-0.457032 -1.171875,-0.902344 0,-0.585938 0.515625,-0.949219 1.3359375,-0.949219 0.796875,0 1.2304687,0.351563 1.2539062,1.007813 z m 0,0"
       style="fill:#008000;fill-opacity:1;fill-rule:nonzero;stroke:none"
       aria-label="    s&#10;s"
       transform="matrix(1.3333333,0,0,1.3333333,109.33333,159.25867)" />
    <path
       id="path22"
       d="m 5.2607422,-4.5348594 c -0.023437,-1.2421875 -0.8320313,-1.9335937 -2.2851563,-1.9335937 -1.4648437,0 -2.41406246,0.7617187 -2.41406246,1.921875 0,0.984375 0.50390626,1.453125 1.99218746,1.8164062 l 0.9375,0.2226563 c 0.6914063,0.1640625 0.9726563,0.421875 0.9726563,0.8671875 0,0.5976562 -0.5859375,0.99609373 -1.4648438,0.99609373 -0.5390625,0 -0.9960937,-0.1640625 -1.2421875,-0.42187503 C 1.5927734,-1.2418906 1.5224609,-1.4293906 1.4638672,-1.8747031 H 0.40917969 c 0.046875,1.45312498 0.86718751,2.15624998 2.50781251,2.15624998 1.5820312,0 2.5898437,-0.78515625 2.5898437,-1.99218748 0,-0.9375 -0.5273437,-1.453125 -1.78125,-1.7578125 L 2.7763672,-3.6911094 c -0.8203125,-0.1992187 -1.171875,-0.4570312 -1.171875,-0.9023437 0,-0.5859375 0.515625,-0.9492188 1.3359375,-0.9492188 0.796875,0 1.2304687,0.3515625 1.2539062,1.0078125 z m 0,0"
       style="fill:#008000;fill-opacity:1;fill-rule:nonzero;stroke:none"
       aria-label="        s"
       transform="matrix(1.3333333,0,0,1.3333333,149.33333,228.53867)" />
    <path
       id="path23"
       d="m 5.2607422,-4.5340219 c -0.023437,-1.2421875 -0.8320313,-1.9335937 -2.2851563,-1.9335937 -1.4648437,0 -2.41406246,0.7617187 -2.41406246,1.921875 0,0.984375 0.50390626,1.453125 1.99218746,1.8164062 l 0.9375,0.2226563 c 0.6914063,0.1640625 0.9726563,0.421875 0.9726563,0.8671875 0,0.5976562 -0.5859375,0.99609372 -1.4648438,0.99609372 -0.5390625,0 -0.9960937,-0.1640625 -1.2421875,-0.42187502 C 1.5927734,-1.2410531 1.5224609,-1.4285531 1.4638672,-1.8738656 H 0.40917969 c 0.046875,1.45312497 0.86718751,2.15624997 2.50781251,2.15624997 1.5820312,0 2.5898437,-0.78515625 2.5898437,-1.99218747 0,-0.9375 -0.5273437,-1.453125 -1.78125,-1.7578125 L 2.7763672,-3.6902719 c -0.8203125,-0.1992187 -1.171875,-0.4570312 -1.171875,-0.9023437 0,-0.5859375 0.515625,-0.9492188 1.3359375,-0.9492188 0.796875,0 1.2304687,0.3515625 1.2539062,1.0078125 z m 0,0"
       style="fill:#008000;fill-opacity:1;fill-rule:nonzero;stroke:none"
       aria-label="  s"
       transform="matrix(1.3333333,0,0,1.3333333,149.33333,297.8188)" />
    <path
       id="path24"
       d="m 5.2607422,-4.5348031 c -0.023437,-1.2421875 -0.8320313,-1.9335938 -2.2851563,-1.9335938 -1.4648437,0 -2.41406246,0.7617188 -2.41406246,1.921875 0,0.984375 0.50390626,1.453125 1.99218746,1.8164063 l 0.9375,0.2226562 c 0.6914063,0.1640625 0.9726563,0.421875 0.9726563,0.8671875 0,0.5976563 -0.5859375,0.99609378 -1.4648438,0.99609378 -0.5390625,0 -0.9960937,-0.1640625 -1.2421875,-0.42187498 C 1.5927734,-1.2418344 1.5224609,-1.4293344 1.4638672,-1.8746469 H 0.40917969 c 0.046875,1.45312503 0.86718751,2.15625003 2.50781251,2.15625003 1.5820312,0 2.5898437,-0.78515625 2.5898437,-1.99218753 0,-0.9375 -0.5273437,-1.453125 -1.78125,-1.7578125 L 2.7763672,-3.6910531 c -0.8203125,-0.1992188 -1.171875,-0.4570313 -1.171875,-0.9023438 0,-0.5859375 0.515625,-0.9492187 1.3359375,-0.9492187 0.796875,0 1.2304687,0.3515625 1.2539062,1.0078125 z M 20.313477,-164.53969 l 1.851562,-6.29296 h -1.125 l -1.253906,4.89843 -1.230469,-4.89843 h -1.230469 l -1.195312,4.89843 -1.289063,-4.89843 h -1.101562 l 1.828125,6.29296 h 1.125 l 1.207031,-4.93359 1.277344,4.93359 z m -0.05273,12.78516 c -0.02344,-1.24219 -0.832031,-1.93359 -2.285156,-1.93359 -1.464844,0 -2.414063,0.76172 -2.414063,1.92187 0,0.98438 0.503907,1.45313 1.992188,1.81641 l 0.9375,0.22265 c 0.691406,0.16407 0.972656,0.42188 0.972656,0.86719 0,0.59766 -0.585937,0.9961 -1.464844,0.9961 -0.539062,0 -0.996093,-0.16407 -1.242187,-0.42188 -0.164063,-0.17578 -0.234375,-0.36328 -0.292969,-0.80859 H 15.40918 c 0.04687,1.45312 0.867187,2.15625 2.507812,2.15625 1.582031,0 2.589844,-0.78516 2.589844,-1.99219 0,-0.9375 -0.527344,-1.45313 -1.78125,-1.75781 l -0.949219,-0.22266 c -0.820312,-0.19922 -1.171875,-0.45703 -1.171875,-0.90234 0,-0.58594 0.515625,-0.94922 1.335938,-0.94922 0.796875,0 1.230468,0.35156 1.253906,1.00781 z m 0,0"
       style="fill:#008000;fill-opacity:1;fill-rule:nonzero;stroke:none"
       aria-label="         s&#10;w&#10;s"
       transform="matrix(1.3333333,0,0,1.3333333,169.33333,240.08547)" />
    <path
       id="path25"
       d="m 5.2607422,-4.5340344 c -0.023437,-1.2421875 -0.8320313,-1.9335937 -2.2851563,-1.9335937 -1.4648437,0 -2.41406246,0.7617187 -2.41406246,1.921875 0,0.984375 0.50390626,1.453125 1.99218746,1.8164062 l 0.9375,0.2226563 c 0.6914063,0.1640625 0.9726563,0.421875 0.9726563,0.8671875 0,0.5976562 -0.5859375,0.99609373 -1.4648438,0.99609373 -0.5390625,0 -0.9960937,-0.1640625 -1.2421875,-0.42187503 C 1.5927734,-1.2410656 1.5224609,-1.4285656 1.4638672,-1.8738781 H 0.40917969 c 0.046875,1.45312498 0.86718751,2.15624998 2.50781251,2.15624998 1.5820312,0 2.5898437,-0.78515625 2.5898437,-1.99218748 0,-0.9375 -0.5273437,-1.453125 -1.78125,-1.7578125 L 2.7763672,-3.6902844 c -0.8203125,-0.1992187 -1.171875,-0.4570312 -1.171875,-0.9023437 0,-0.5859375 0.515625,-0.9492188 1.3359375,-0.9492188 0.796875,0 1.2304687,0.3515625 1.2539062,1.0078125 z m 0,0"
       style="fill:#008000;fill-opacity:1;fill-rule:nonzero;stroke:none"
       aria-label="         s"
       transform="matrix(1.3333333,0,0,1.3333333,189.33333,274.72507)" />
    <path
       id="path26"
       d="M 6.6454766,-5.878125e-4 8.4970391,-6.2935566 h -1.125 L 6.1181328,-1.3951191 4.8876641,-6.2935566 H 3.6571953 L 2.4618828,-1.3951191 1.1728203,-6.2935566 H 0.07125781 L 1.8993828,-5.878125e-4 h 1.125 L 4.2314141,-4.9341816 5.5087578,-5.878125e-4 Z m 0,0"
       style="fill:#008000;fill-opacity:1;fill-rule:nonzero;stroke:none"
       aria-label="   w"
       transform="matrix(1.3333333,0,0,1.3333333,187.55733,367.09844)" />
    <path
       id="path27"
       d="m 5.2607422,-4.5348031 c -0.023437,-1.2421875 -0.8320313,-1.9335938 -2.2851563,-1.9335938 -1.4648437,0 -2.41406246,0.7617188 -2.41406246,1.921875 0,0.984375 0.50390626,1.453125 1.99218746,1.8164063 l 0.9375,0.2226562 c 0.6914063,0.1640625 0.9726563,0.421875 0.9726563,0.8671875 0,0.5976563 -0.5859375,0.99609378 -1.4648438,0.99609378 -0.5390625,0 -0.9960937,-0.1640625 -1.2421875,-0.42187498 C 1.5927734,-1.2418344 1.5224609,-1.4293344 1.4638672,-1.8746469 H 0.40917969 c 0.046875,1.45312503 0.86718751,2.15625003 2.50781251,2.15625003 1.5820312,0 2.5898437,-0.78515625 2.5898437,-1.99218753 0,-0.9375 -0.5273437,-1.453125 -1.78125,-1.7578125 L 2.7763672,-3.6910531 c -0.8203125,-0.1992188 -1.171875,-0.4570313 -1.171875,-0.9023438 0,-0.5859375 0.515625,-0.9492187 1.3359375,-0.9492187 0.796875,0 1.2304687,0.3515625 1.2539062,1.0078125 z M 20.313477,-147.21937 l 1.851562,-6.29297 h -1.125 l -1.253906,4.89844 -1.230469,-4.89844 h -1.230469 l -1.195312,4.89844 -1.289063,-4.89844 h -1.101562 l 1.828125,6.29297 h 1.125 l 1.207031,-4.9336 1.277344,4.9336 z m 0,0"
       style="fill:#008000;fill-opacity:1;fill-rule:nonzero;stroke:none"
       aria-label="         s&#10;w"
       transform="matrix(1.3333333,0,0,1.3333333,209.33333,240.08547)" />
    <path
       id="path28"
       d="m 5.2607422,-4.5357969 c -0.023437,-1.2421875 -0.8320313,-1.9335937 -2.2851563,-1.9335937 -1.4648437,0 -2.41406246,0.7617187 -2.41406246,1.921875 0,0.984375 0.50390626,1.453125 1.99218746,1.8164062 l 0.9375,0.2226563 c 0.6914063,0.1640625 0.9726563,0.421875 0.9726563,0.8671875 0,0.5976562 -0.5859375,0.99609373 -1.4648438,0.99609373 -0.5390625,0 -0.9960937,-0.1640625 -1.2421875,-0.42187503 C 1.5927734,-1.2428281 1.5224609,-1.4303281 1.4638672,-1.8756406 H 0.40917969 c 0.046875,1.45312498 0.86718751,2.15624998 2.50781251,2.15624998 1.5820312,0 2.5898437,-0.78515625 2.5898437,-1.99218748 0,-0.9375 -0.5273437,-1.453125 -1.78125,-1.7578125 L 2.7763672,-3.6920469 c -0.8203125,-0.1992187 -1.171875,-0.4570312 -1.171875,-0.9023437 0,-0.5859375 0.515625,-0.9492188 1.3359375,-0.9492188 0.796875,0 1.2304687,0.3515625 1.2539062,1.0078125 z m 0,17.3203129 c -0.023437,-1.242188 -0.8320313,-1.933594 -2.2851563,-1.933594 -1.4648437,0 -2.41406246,0.761719 -2.41406246,1.921875 0,0.984375 0.50390626,1.453125 1.99218746,1.816406 l 0.9375,0.222656 c 0.6914063,0.164063 0.9726563,0.421875 0.9726563,0.867188 0,0.597656 -0.5859375,0.996094 -1.4648438,0.996094 -0.5390625,0 -0.9960937,-0.164063 -1.2421875,-0.421875 C 1.5927734,16.077484 1.5224609,15.889984 1.4638672,15.444672 H 0.40917969 c 0.046875,1.453125 0.86718751,2.15625 2.50781251,2.15625 1.5820312,0 2.5898437,-0.785156 2.5898437,-1.992188 0,-0.9375 -0.5273437,-1.453125 -1.78125,-1.757812 L 2.7763672,13.628266 c -0.8203125,-0.199219 -1.171875,-0.457032 -1.171875,-0.902344 0,-0.585938 0.515625,-0.949219 1.3359375,-0.949219 0.796875,0 1.2304687,0.351563 1.2539062,1.007813 z m 0,0"
       style="fill:#008000;fill-opacity:1;fill-rule:nonzero;stroke:none"
       aria-label="    s&#10;s"
       transform="matrix(1.3333333,0,0,1.3333333,229.33333,159.25867)" />
    <path
       id="path29"
       d="m 5.2607422,-4.5348594 c -0.023437,-1.2421875 -0.8320313,-1.9335937 -2.2851563,-1.9335937 -1.4648437,0 -2.41406246,0.7617187 -2.41406246,1.921875 0,0.984375 0.50390626,1.453125 1.99218746,1.8164062 l 0.9375,0.2226563 c 0.6914063,0.1640625 0.9726563,0.421875 0.9726563,0.8671875 0,0.5976562 -0.5859375,0.99609373 -1.4648438,0.99609373 -0.5390625,0 -0.9960937,-0.1640625 -1.2421875,-0.42187503 C 1.5927734,-1.2418906 1.5224609,-1.4293906 1.4638672,-1.8747031 H 0.40917969 c 0.046875,1.45312498 0.86718751,2.15624998 2.50781251,2.15624998 1.5820312,0 2.5898437,-0.78515625 2.5898437,-1.99218748 0,-0.9375 -0.5273437,-1.453125 -1.78125,-1.7578125 L 2.7763672,-3.6911094 c -0.8203125,-0.1992187 -1.171875,-0.4570312 -1.171875,-0.9023437 0,-0.5859375 0.515625,-0.9492188 1.3359375,-0.9492188 0.796875,0 1.2304687,0.3515625 1.2539062,1.0078125 z m 0,17.3203124 c -0.023437,-1.242187 -0.8320313,-1.933594 -2.2851563,-1.933594 -1.4648437,0 -2.41406246,0.761719 -2.41406246,1.921875 0,0.984375 0.50390626,1.453125 1.99218746,1.816407 l 0.9375,0.222656 c 0.6914063,0.164062 0.9726563,0.421875 0.9726563,0.867187 0,0.597657 -0.5859375,0.996094 -1.4648438,0.996094 -0.5390625,0 -0.9960937,-0.164062 -1.2421875,-0.421875 C 1.5927734,16.078422 1.5224609,15.890922 1.4638672,15.445609 H 0.40917969 c 0.046875,1.453125 0.86718751,2.15625 2.50781251,2.15625 1.5820312,0 2.5898437,-0.785156 2.5898437,-1.992187 0,-0.9375 -0.5273437,-1.453125 -1.78125,-1.757813 L 2.7763672,13.629203 c -0.8203125,-0.199219 -1.171875,-0.457031 -1.171875,-0.902344 0,-0.585937 0.515625,-0.949218 1.3359375,-0.949218 0.796875,0 1.2304687,0.351562 1.2539062,1.007812 z m 0,0"
       style="fill:#008000;fill-opacity:1;fill-rule:nonzero;stroke:none"
       aria-label=" s&#10;s"
       transform="matrix(1.3333333,0,0,1.3333333,229.33333,228.53867)" />
    <path
       id="path30"
       d="m 5.2607422,-4.5348031 c -0.023437,-1.2421875 -0.8320313,-1.9335938 -2.2851563,-1.9335938 -1.4648437,0 -2.41406246,0.7617188 -2.41406246,1.921875 0,0.984375 0.50390626,1.453125 1.99218746,1.8164063 l 0.9375,0.2226562 c 0.6914063,0.1640625 0.9726563,0.421875 0.9726563,0.8671875 0,0.5976563 -0.5859375,0.99609378 -1.4648438,0.99609378 -0.5390625,0 -0.9960937,-0.1640625 -1.2421875,-0.42187498 C 1.5927734,-1.2418344 1.5224609,-1.4293344 1.4638672,-1.8746469 H 0.40917969 c 0.046875,1.45312503 0.86718751,2.15625003 2.50781251,2.15625003 1.5820312,0 2.5898437,-0.78515625 2.5898437,-1.99218753 0,-0.9375 -0.5273437,-1.453125 -1.78125,-1.7578125 L 2.7763672,-3.6910531 c -0.8203125,-0.1992188 -1.171875,-0.4570313 -1.171875,-0.9023438 0,-0.5859375 0.515625,-0.9492187 1.3359375,-0.9492187 0.796875,0 1.2304687,0.3515625 1.2539062,1.0078125 z m 0,0"
       style="fill:#008000;fill-opacity:1;fill-rule:nonzero;stroke:none"
       aria-label="        s"
       transform="matrix(1.3333333,0,0,1.3333333,249.33333,240.08547)" />
    <path
       id="path31"
       d="M 6.6454766,-0.00132656 8.4970391,-6.2942953 h -1.125 L 6.1181328,-1.3958578 4.8876641,-6.2942953 H 3.6571953 L 2.4618828,-1.3958578 1.1728203,-6.2942953 H 0.07125781 l 1.82812499,6.29296874 h 1.125 l 1.2070313,-4.93359374 1.2773437,4.93359374 z m 0,0"
       style="fill:#008000;fill-opacity:1;fill-rule:nonzero;stroke:none"
       aria-label="   w"
       transform="matrix(1.3333333,0,0,1.3333333,247.55733,332.4588)" />
    <path
       id="path32"
       d="m 5.2607422,-4.5351719 c -0.023437,-1.2421875 -0.8320313,-1.9335937 -2.2851563,-1.9335937 -1.4648437,0 -2.41406246,0.7617187 -2.41406246,1.921875 0,0.984375 0.50390626,1.453125 1.99218746,1.8164062 l 0.9375,0.2226563 c 0.6914063,0.1640625 0.9726563,0.421875 0.9726563,0.8671875 0,0.5976562 -0.5859375,0.99609373 -1.4648438,0.99609373 -0.5390625,0 -0.9960937,-0.1640625 -1.2421875,-0.42187503 C 1.5927734,-1.2422031 1.5224609,-1.4297031 1.4638672,-1.8750156 H 0.40917969 c 0.046875,1.45312498 0.86718751,2.15624998 2.50781251,2.15624998 1.5820312,0 2.5898437,-0.78515625 2.5898437,-1.99218748 0,-0.9375 -0.5273437,-1.453125 -1.78125,-1.7578125 L 2.7763672,-3.6914219 c -0.8203125,-0.1992187 -1.171875,-0.4570312 -1.171875,-0.9023437 0,-0.5859375 0.515625,-0.9492188 1.3359375,-0.9492188 0.796875,0 1.2304687,0.3515625 1.2539062,1.0078125 z m 0,0"
       style="fill:#008000;fill-opacity:1;fill-rule:nonzero;stroke:none"
       aria-label="      s"
       transform="matrix(1.3333333,0,0,1.3333333,269.33333,205.44533)" />
    <path
       id="path33"
       d="M 6.6454766,1.40625e-4 8.4970391,-6.2928281 h -1.125 L 6.1181328,-1.3943906 4.8876641,-6.2928281 H 3.6571953 L 2.4618828,-1.3943906 1.1728203,-6.2928281 H 0.07125781 L 1.8993828,1.40625e-4 h 1.125 L 4.2314141,-4.9334531 5.5087578,1.40625e-4 Z m 0,0"
       style="fill:#008000;fill-opacity:1;fill-rule:nonzero;stroke:none"
       aria-label="      w"
       transform="matrix(1.3333333,0,0,1.3333333,287.55733,216.992)" />
    <path
       id="path34"
       d="M 6.6454766,-0.00133906 8.4970391,-6.2943078 h -1.125 L 6.1181328,-1.3958703 4.8876641,-6.2943078 H 3.6571953 L 2.4618828,-1.3958703 1.1728203,-6.2943078 H 0.07125781 l 1.82812499,6.29296874 h 1.125 L 4.2314141,-4.9349328 5.5087578,-0.00133906 Z M 21.645477,-164.54138 l 1.851562,-6.29297 h -1.125 l -1.253906,4.89844 -1.230469,-4.89844 h -1.230469 l -1.195312,4.89844 -1.289063,-4.89844 h -1.101562 l 1.828125,6.29297 h 1.125 l 1.207031,-4.93359 1.277344,4.93359 z m 0,0"
       style="fill:#008000;fill-opacity:1;fill-rule:nonzero;stroke:none"
       aria-label="   w&#10;w"
       transform="matrix(1.3333333,0,0,1.3333333,287.55733,309.36507)" />
    <path
       id="path35"
       d="M 6.6454766,-0.00110937 8.4970391,-6.2940781 h -1.125 L 6.1181328,-1.3956406 4.8876641,-6.2940781 H 3.6571953 L 2.4618828,-1.3956406 1.1728203,-6.2940781 H 0.07125781 l 1.82812499,6.29296873 h 1.125 l 1.2070313,-4.93359373 1.2773437,4.93359373 z m 0,0"
       style="fill:#008000;fill-opacity:1;fill-rule:nonzero;stroke:none"
       aria-label=" w"
       transform="matrix(1.3333333,0,0,1.3333333,327.55733,124.61867)" />
    <path
       id="path36"
       d="m 300,1900 50,86.6 -50,86.6 50,86.6 h 100 l 50,86.6 h 100 l 50,86.6 h 100 l 50,86.6 h 100 l 50,86.6 h 100 l 50,86.6 h 100 l 50,86.6 h 100 l 50,-86.6 h 100 l 50,-86.6 h 100 l 50,-86.6 -50,-86.6 h -100 l -50,86.6 h -100 l -50,86.6 h -100 l -50,-86.6 H 1100 L 1050,2333 H 950 l -50,-86.6 50,-86.6 -50,-86.6 H 800 l -50,-86.6 H 650 l -50,86.6 H 500 l -50,-86.6 50,-86.6 -50,-86.6 50,-86.6 h 100 l 50,86.6 h 100 l 50,-86.6 h 100 l 50,-86.6 -50,-86.6 50,-86.6 -50,-86.6 50,-86.6 h 100 l 50,-86.6 h 100 l 50,-86.6 h 100 l 50,86.6 h 100 l 50,86.6 h 100 l 50,-86.6 h 100 l 50,86.6 h 100 l 50,86.6 -50,86.6 h -100 l -50,-86.6 h -100 l -50,86.6 50,86.6 -50,86.6 50,86.6 -50,86.6 50,86.6 h 100 l 50,-86.6 -50,-86.6 50,-86.6 h 100 l 50,-86.6 h 100 l 50,-86.6 -50,-86.6 50,-86.6 -50,-86.6 h -100 l -50,-86.6 50,-86.6 h 100 l 50,-86.602 h 100 l 50,-86.597 h 100 l 50,-86.602 -50,-86.597 h -100 l -50,86.597 h -100 l -50,86.602 h -100 l -50,86.597 h -100 l -50,-86.597 h -100 l -50,-86.602 50,-86.597 L 1650,601 h -100 l -50,86.602 H 1400 L 1350,601 h -100 l -50,-86.602 h -100 l -50,-86.597 H 950 l -50,86.597 H 800 L 750,427.801 H 650 L 600,514.398 650,601 h 100 l 50,86.602 H 900 L 950,601 h 100 l 50,86.602 h 100 l 50,86.597 h 100 l 50,86.602 h 100 l 50,86.597 -50,86.602 h -100 l -50,-86.602 H 1250 L 1200,1034 h -100 l -50,86.6 H 950 l -50,86.6 H 800 l -50,-86.6 H 650 L 600,1034 H 500 L 450,947.398 H 350 L 300,1034 H 200 l -50,86.6 50,86.6 h 100 l 50,-86.6 h 100 l 50,86.6 h 100 l 50,86.6 h 100 l 50,86.6 -50,86.6 50,86.6 -50,86.6 H 650 l -50,-86.6 H 500 l -50,86.6 H 350 l -50,86.6 50,86.6 -50,86.6"
       style="fill:none;stroke:#000000;stroke-width:16;stroke-linecap:butt;stroke-linejoin:miter;stroke-miterlimit:10;stroke-dasharray:none;stroke-opacity:1"
       transform="matrix(0.13333333,0,0,-0.13333333,0,373.33333)" />
    <path
       id="path37"
       d="M 250,1120.6 400,1034 700,1207.2"
       style="fill:none;stroke:#008000;stroke-width:8;stroke-linecap:butt;stroke-linejoin:miter;stroke-miterlimit:10;stroke-dasharray:none;stroke-opacity:1"
       transform="matrix(0.13333333,0,0,-0.13333333,0,373.33333)" />
    <path
       id="path38"
       d="m 400,1726.8 150,-86.6 150,86.6 150,-86.6 m -150,66.6 150,-86.6 V 1467"
       style="fill:none;stroke:#008000;stroke-width:8;stroke-linecap:butt;stroke-linejoin:miter;stroke-miterlimit:10;stroke-dasharray:none;stroke-opacity:1"
       transform="matrix(0.13333333,0,0,-0.13333333,0,373.33333)" />
    <path
       id="path39"
       d="m 1000,2419.6 300,173.2 150,-86.6"
       style="fill:none;stroke:#008000;stroke-width:8;stroke-linecap:butt;stroke-linejoin:miter;stroke-miterlimit:10;stroke-dasharray:none;stroke-opacity:1"
       transform="matrix(0.13333333,0,0,-0.13333333,0,373.33333)" />
    <path
       id="path40"
       d="m 850,1293.8 300,-173.2 m -150,66.6 300,-173.2"
       style="fill:none;stroke:#008000;stroke-width:8;stroke-linecap:butt;stroke-linejoin:miter;stroke-miterlimit:10;stroke-dasharray:none;stroke-opacity:1"
       transform="matrix(0.13333333,0,0,-0.13333333,0,373.33333)" />
    <path
       id="path41"
       d="M 700,514.398 850,601 1000,514.398 1150,601"
       style="fill:none;stroke:#008000;stroke-width:8;stroke-linecap:butt;stroke-linejoin:miter;stroke-miterlimit:10;stroke-dasharray:none;stroke-opacity:1"
       transform="matrix(0.13333333,0,0,-0.13333333,0,373.33333)" />
    <path
       id="path42"
       d="m 1300,687.602 150,86.597 m 140,-86.597 V 1034 m 20,-173.199 150,86.597 M 1900,1034 2350,774.199 m -600,346.401 150,86.6 m 150,86.6 V 1467 m -300,173.2 v 173.2 m 0,-346.4 150,86.6"
       style="fill:none;stroke:#008000;stroke-width:8;stroke-linecap:butt;stroke-linejoin:miter;stroke-miterlimit:10;stroke-dasharray:none;stroke-opacity:1"
       transform="matrix(0.13333333,0,0,-0.13333333,0,373.33333)" />
  </g>
</svg>
