<?xml version="1.0" encoding="UTF-8" standalone="no"?>
<!-- Created with Inkscape (http://www.inkscape.org/) -->

<svg
   version="1.1"
   id="svg1"
   width="346.66666"
   height="373.33334"
   viewBox="0 0 346.66666 373.33334"
   sodipodi:docname="sheepwolves-day2-sol.pdf"
   xmlns:inkscape="http://www.inkscape.org/namespaces/inkscape"
   xmlns:sodipodi="http://sodipodi.sourceforge.net/DTD/sodipodi-0.dtd"
   xmlns="http://www.w3.org/2000/svg"
   xmlns:svg="http://www.w3.org/2000/svg">
  <defs
     id="defs1" />
  <sodipodi:namedview
     id="namedview1"
     pagecolor="#ffffff"
     bordercolor="#666666"
     borderopacity="1.0"
     inkscape:showpageshadow="2"
     inkscape:pageopacity="0.0"
     inkscape:pagecheckerboard="0"
     inkscape:deskcolor="#d1d1d1">
    <inkscape:page
       x="0"
       y="0"
       inkscape:label="1"
       id="page1"
       width="346.66666"
       height="373.33334"
       margin="0"
       bleed="0" />
  </sodipodi:namedview>
  <g
     id="g1"
     inkscape:groupmode="layer"
     inkscape:label="1">
    <path
       id="path1"
       d="m 200,1900 h 100 l 50,86.6 -50,86.6 H 200 l -50,-86.6 50,-86.6 m 0,-173.2 h 100 l 50,86.6 -50,86.6 H 200 l -50,-86.6 50,-86.6 m 0,-173.2 h 100 l 50,86.6 -50,86.6 H 200 l -50,-86.6 50,-86.6 m 0,-173.2 h 100 l 50,86.6 -50,86.6 H 200 l -50,-86.6 50,-86.6 m 0,-173.2 h 100 l 50,86.6 -50,86.6 H 200 l -50,-86.6 50,-86.6 m 0,-173.2 h 100 l 50,86.6 -50,86.6 H 200 l -50,-86.6 50,-86.6 m 0,-173.199 H 300 L 350,947.398 300,1034 H 200 l -50,-86.602 50,-86.597 m 0,-173.199 h 100 l 50,86.597 -50,86.602 H 200 l -50,-86.602 50,-86.597"
       style="fill:none;stroke:#000000;stroke-width:4;stroke-linecap:butt;stroke-linejoin:miter;stroke-miterlimit:10;stroke-dasharray:10, 20, 10, 20, 10, 20, 10, 0;stroke-dashoffset:800;stroke-opacity:1"
       transform="matrix(0.13333333,0,0,-0.13333333,0,373.33333)" />
    <path
       id="path2"
       d="m 350,1986.6 h 100 l 50,86.6 -50,86.6 H 350 l -50,-86.6 50,-86.6 m 0,-173.2 h 100 l 50,86.6 -50,86.6 H 350 l -50,-86.6 50,-86.6 m 0,-173.2 h 100 l 50,86.6 -50,86.6 H 350 l -50,-86.6 50,-86.6 m 0,-173.2 h 100 l 50,86.6 -50,86.6 H 350 l -50,-86.6 50,-86.6 m 0,-173.2 h 100 l 50,86.6 -50,86.6 H 350 l -50,-86.6 50,-86.6 m 0,-173.2 h 100 l 50,86.6 -50,86.6 H 350 l -50,-86.6 50,-86.6 m 0,-173.202 h 100 l 50,86.602 -50,86.6 H 350 l -50,-86.6 50,-86.602 m 0,-173.199 h 100 l 50,86.602 -50,86.597 H 350 l -50,-86.597 50,-86.602 M 350,601 h 100 l 50,86.602 -50,86.597 H 350 L 300,687.602 350,601"
       style="fill:none;stroke:#000000;stroke-width:4;stroke-linecap:butt;stroke-linejoin:miter;stroke-miterlimit:10;stroke-dasharray:10, 20, 10, 20, 10, 20, 10, 0;stroke-dashoffset:800;stroke-opacity:1"
       transform="matrix(0.13333333,0,0,-0.13333333,0,373.33333)" />
    <path
       id="path3"
       d="m 500,2073.2 h 100 l 50,86.6 -50,86.6 H 500 l -50,-86.6 50,-86.6 m 0,-173.2 h 100 l 50,86.6 -50,86.6 H 500 l -50,-86.6 50,-86.6 m 0,-173.2 h 100 l 50,86.6 -50,86.6 H 500 l -50,-86.6 50,-86.6 m 0,-173.2 h 100 l 50,86.6 -50,86.6 H 500 l -50,-86.6 50,-86.6 m 0,-173.2 h 100 l 50,86.6 -50,86.6 H 500 l -50,-86.6 50,-86.6 m 0,-173.2 h 100 l 50,86.6 -50,86.6 H 500 l -50,-86.6 50,-86.6 m 0,-173.2 h 100 l 50,86.6 -50,86.6 H 500 l -50,-86.6 50,-86.6 m 0,-173.199 H 600 L 650,947.398 600,1034 H 500 l -50,-86.602 50,-86.597 m 0,-173.199 h 100 l 50,86.597 -50,86.602 H 500 l -50,-86.602 50,-86.597 m 0,-173.204 H 600 L 650,601 600,687.602 H 500 L 450,601 500,514.398"
       style="fill:none;stroke:#000000;stroke-width:4;stroke-linecap:butt;stroke-linejoin:miter;stroke-miterlimit:10;stroke-dasharray:10, 20, 10, 20, 10, 20, 10, 0;stroke-dashoffset:800;stroke-opacity:1"
       transform="matrix(0.13333333,0,0,-0.13333333,0,373.33333)" />
    <path
       id="path4"
       d="m 650,2159.8 h 100 l 50,86.6 -50,86.6 H 650 l -50,-86.6 50,-86.6 m 0,-173.2 h 100 l 50,86.6 -50,86.6 H 650 l -50,-86.6 50,-86.6 m 0,-173.2 h 100 l 50,86.6 -50,86.6 H 650 l -50,-86.6 50,-86.6 m 0,-173.2 h 100 l 50,86.6 -50,86.6 H 650 l -50,-86.6 50,-86.6 m 0,-173.2 h 100 l 50,86.6 -50,86.6 H 650 l -50,-86.6 50,-86.6 m 0,-173.2 h 100 l 50,86.6 -50,86.6 H 650 l -50,-86.6 50,-86.6 m 0,-173.2 h 100 l 50,86.6 -50,86.6 H 650 l -50,-86.6 50,-86.6 m 0,-173.202 h 100 l 50,86.602 -50,86.6 H 650 l -50,-86.6 50,-86.602 m 0,-173.199 h 100 l 50,86.602 -50,86.597 H 650 l -50,-86.597 50,-86.602 M 650,601 h 100 l 50,86.602 -50,86.597 H 650 L 600,687.602 650,601 m 0,-173.199 H 750 L 800,514.398 750,601 H 650 l -50,-86.602 50,-86.597"
       style="fill:none;stroke:#000000;stroke-width:4;stroke-linecap:butt;stroke-linejoin:miter;stroke-miterlimit:10;stroke-dasharray:10, 20, 10, 20, 10, 20, 10, 0;stroke-dashoffset:800;stroke-opacity:1"
       transform="matrix(0.13333333,0,0,-0.13333333,0,373.33333)" />
    <path
       id="path5"
       d="m 800,2246.4 h 100 l 50,86.6 -50,86.6 H 800 l -50,-86.6 50,-86.6 m 0,-173.2 h 100 l 50,86.6 -50,86.6 H 800 l -50,-86.6 50,-86.6 m 0,-173.2 h 100 l 50,86.6 -50,86.6 H 800 l -50,-86.6 50,-86.6 m 0,-173.2 h 100 l 50,86.6 -50,86.6 H 800 l -50,-86.6 50,-86.6 m 0,-173.2 h 100 l 50,86.6 -50,86.6 H 800 l -50,-86.6 50,-86.6 m 0,-173.2 h 100 l 50,86.6 -50,86.6 H 800 l -50,-86.6 50,-86.6 m 0,-173.2 h 100 l 50,86.6 -50,86.6 H 800 l -50,-86.6 50,-86.6 m 0,-173.2 h 100 l 50,86.6 -50,86.6 H 800 l -50,-86.6 50,-86.6 m 0,-173.199 H 900 L 950,947.398 900,1034 H 800 l -50,-86.602 50,-86.597 m 0,-173.199 h 100 l 50,86.597 -50,86.602 H 800 l -50,-86.602 50,-86.597 m 0,-173.204 H 900 L 950,601 900,687.602 H 800 L 750,601 800,514.398 m 0,-173.199 h 100 l 50,86.602 -50,86.597 H 800 l -50,-86.597 50,-86.602"
       style="fill:none;stroke:#000000;stroke-width:4;stroke-linecap:butt;stroke-linejoin:miter;stroke-miterlimit:10;stroke-dasharray:10, 20, 10, 20, 10, 20, 10, 0;stroke-dashoffset:800;stroke-opacity:1"
       transform="matrix(0.13333333,0,0,-0.13333333,0,373.33333)" />
    <path
       id="path6"
       d="m 950,2333 h 100 l 50,86.6 -50,86.6 H 950 l -50,-86.6 50,-86.6 m 0,-173.2 h 100 l 50,86.6 -50,86.6 H 950 l -50,-86.6 50,-86.6 m 0,-173.2 h 100 l 50,86.6 -50,86.6 H 950 l -50,-86.6 50,-86.6 m 0,-173.2 h 100 l 50,86.6 -50,86.6 H 950 l -50,-86.6 50,-86.6 m 0,-173.2 h 100 l 50,86.6 -50,86.6 H 950 l -50,-86.6 50,-86.6 m 0,-173.2 h 100 l 50,86.6 -50,86.6 H 950 l -50,-86.6 50,-86.6 m 0,-173.2 h 100 l 50,86.6 -50,86.6 H 950 l -50,-86.6 50,-86.6 m 0,-173.2 h 100 l 50,86.6 -50,86.6 H 950 l -50,-86.6 50,-86.6 m 0,-173.202 h 100 l 50,86.602 -50,86.6 H 950 l -50,-86.6 50,-86.602 m 0,-173.199 h 100 l 50,86.602 -50,86.597 H 950 l -50,-86.597 50,-86.602 M 950,601 h 100 l 50,86.602 -50,86.597 H 950 L 900,687.602 950,601 m 0,-173.199 h 100 l 50,86.597 L 1050,601 H 950 l -50,-86.602 50,-86.597 m 0,-173.199 h 100 l 50,86.597 -50,86.602 H 950 l -50,-86.602 50,-86.597"
       style="fill:none;stroke:#000000;stroke-width:4;stroke-linecap:butt;stroke-linejoin:miter;stroke-miterlimit:10;stroke-dasharray:10, 20, 10, 20, 10, 20, 10, 0;stroke-dashoffset:800;stroke-opacity:1"
       transform="matrix(0.13333333,0,0,-0.13333333,0,373.33333)" />
    <path
       id="path7"
       d="m 1100,2419.6 h 100 l 50,86.6 -50,86.6 h -100 l -50,-86.6 50,-86.6 m 0,-173.2 h 100 l 50,86.6 -50,86.6 h -100 l -50,-86.6 50,-86.6 m 0,-173.2 h 100 l 50,86.6 -50,86.6 h -100 l -50,-86.6 50,-86.6 m 0,-173.2 h 100 l 50,86.6 -50,86.6 h -100 l -50,-86.6 50,-86.6 m 0,-173.2 h 100 l 50,86.6 -50,86.6 h -100 l -50,-86.6 50,-86.6 m 0,-173.2 h 100 l 50,86.6 -50,86.6 h -100 l -50,-86.6 50,-86.6 m 0,-173.2 h 100 l 50,86.6 -50,86.6 h -100 l -50,-86.6 50,-86.6 m 0,-173.2 h 100 l 50,86.6 -50,86.6 h -100 l -50,-86.6 50,-86.6 m 0,-173.2 h 100 l 50,86.6 -50,86.6 h -100 l -50,-86.6 50,-86.6 m 0,-173.199 h 100 l 50,86.597 -50,86.602 h -100 l -50,-86.602 50,-86.597 m 0,-173.199 h 100 l 50,86.597 -50,86.602 h -100 l -50,-86.602 50,-86.597 m 0,-173.204 h 100 l 50,86.602 -50,86.602 H 1100 L 1050,601 l 50,-86.602 m 0,-173.199 h 100 l 50,86.602 -50,86.597 h -100 l -50,-86.597 50,-86.602 M 1100,168 h 100 l 50,86.602 -50,86.597 H 1100 L 1050,254.602 1100,168"
       style="fill:none;stroke:#000000;stroke-width:4;stroke-linecap:butt;stroke-linejoin:miter;stroke-miterlimit:10;stroke-dasharray:10, 20, 10, 20, 10, 20, 10, 0;stroke-dashoffset:800;stroke-opacity:1"
       transform="matrix(0.13333333,0,0,-0.13333333,0,373.33333)" />
    <path
       id="path8"
       d="m 1250,2506.2 h 100 l 50,86.6 -50,86.6 h -100 l -50,-86.6 50,-86.6 m 0,-173.2 h 100 l 50,86.6 -50,86.6 h -100 l -50,-86.6 50,-86.6 m 0,-173.2 h 100 l 50,86.6 -50,86.6 h -100 l -50,-86.6 50,-86.6 m 0,-173.2 h 100 l 50,86.6 -50,86.6 h -100 l -50,-86.6 50,-86.6 m 0,-173.2 h 100 l 50,86.6 -50,86.6 h -100 l -50,-86.6 50,-86.6 m 0,-173.2 h 100 l 50,86.6 -50,86.6 h -100 l -50,-86.6 50,-86.6 m 0,-173.2 h 100 l 50,86.6 -50,86.6 h -100 l -50,-86.6 50,-86.6 m 0,-173.2 h 100 l 50,86.6 -50,86.6 h -100 l -50,-86.6 50,-86.6 m 0,-173.2 h 100 l 50,86.6 -50,86.6 h -100 l -50,-86.6 50,-86.6 m 0,-173.198 h 100 l 50,86.598 -50,86.6 h -100 l -50,-86.6 50,-86.598 m 0,-173.203 h 100 l 50,86.602 -50,86.601 h -100 l -50,-86.601 50,-86.602 M 1250,601 h 100 l 50,86.602 -50,86.597 H 1250 L 1200,687.602 1250,601 m 0,-173.199 h 100 l 50,86.601 -50,86.598 h -100 l -50,-86.598 50,-86.601 m 0,-173.199 h 100 l 50,86.597 -50,86.602 h -100 l -50,-86.602 50,-86.597 m 0,-173.1997 h 100 L 1400,168 1350,254.602 H 1250 L 1200,168 1250,81.4023"
       style="fill:none;stroke:#000000;stroke-width:4;stroke-linecap:butt;stroke-linejoin:miter;stroke-miterlimit:10;stroke-dasharray:10, 20, 10, 20, 10, 20, 10, 0;stroke-dashoffset:800;stroke-opacity:1"
       transform="matrix(0.13333333,0,0,-0.13333333,0,373.33333)" />
    <path
       id="path9"
       d="m 1400,2419.6 h 100 l 50,86.6 -50,86.6 h -100 l -50,-86.6 50,-86.6 m 0,-173.2 h 100 l 50,86.6 -50,86.6 h -100 l -50,-86.6 50,-86.6 m 0,-173.2 h 100 l 50,86.6 -50,86.6 h -100 l -50,-86.6 50,-86.6 m 0,-173.2 h 100 l 50,86.6 -50,86.6 h -100 l -50,-86.6 50,-86.6 m 0,-173.2 h 100 l 50,86.6 -50,86.6 h -100 l -50,-86.6 50,-86.6 m 0,-173.2 h 100 l 50,86.6 -50,86.6 h -100 l -50,-86.6 50,-86.6 m 0,-173.2 h 100 l 50,86.6 -50,86.6 h -100 l -50,-86.6 50,-86.6 m 0,-173.2 h 100 l 50,86.6 -50,86.6 h -100 l -50,-86.6 50,-86.6 m 0,-173.2 h 100 l 50,86.6 -50,86.6 h -100 l -50,-86.6 50,-86.6 m 0,-173.199 h 100 l 50,86.601 -50,86.598 h -100 l -50,-86.598 50,-86.601 m 0,-173.199 h 100 l 50,86.597 -50,86.602 h -100 l -50,-86.602 50,-86.597 m 0,-173.2 h 100 l 50,86.598 -50,86.602 H 1400 L 1350,601 l 50,-86.598 m 0,-173.203 h 100 l 50,86.602 -50,86.601 h -100 l -50,-86.601 50,-86.602 M 1400,168 h 100 l 50,86.602 -50,86.597 H 1400 L 1350,254.602 1400,168"
       style="fill:none;stroke:#000000;stroke-width:4;stroke-linecap:butt;stroke-linejoin:miter;stroke-miterlimit:10;stroke-dasharray:10, 20, 10, 20, 10, 20, 10, 0;stroke-dashoffset:800;stroke-opacity:1"
       transform="matrix(0.13333333,0,0,-0.13333333,0,373.33333)" />
    <path
       id="path10"
       d="m 1550,2333 h 100 l 50,86.6 -50,86.6 h -100 l -50,-86.6 50,-86.6 m 0,-173.2 h 100 l 50,86.6 -50,86.6 h -100 l -50,-86.6 50,-86.6 m 0,-173.2 h 100 l 50,86.6 -50,86.6 h -100 l -50,-86.6 50,-86.6 m 0,-173.2 h 100 l 50,86.6 -50,86.6 h -100 l -50,-86.6 50,-86.6 m 0,-173.2 h 100 l 50,86.6 -50,86.6 h -100 l -50,-86.6 50,-86.6 m 0,-173.2 h 100 l 50,86.6 -50,86.6 h -100 l -50,-86.6 50,-86.6 m 0,-173.2 h 100 l 50,86.6 -50,86.6 h -100 l -50,-86.6 50,-86.6 m 0,-173.2 h 100 l 50,86.6 -50,86.6 h -100 l -50,-86.6 50,-86.6 m 0,-173.198 h 100 l 50,86.598 -50,86.6 h -100 l -50,-86.6 50,-86.598 m 0,-173.203 h 100 l 50,86.602 -50,86.601 h -100 l -50,-86.601 50,-86.602 M 1550,601 h 100 l 50,86.602 -50,86.597 H 1550 L 1500,687.602 1550,601 m 0,-173.199 h 100 l 50,86.601 -50,86.598 h -100 l -50,-86.598 50,-86.601 m 0,-173.199 h 100 l 50,86.597 -50,86.602 h -100 l -50,-86.602 50,-86.597"
       style="fill:none;stroke:#000000;stroke-width:4;stroke-linecap:butt;stroke-linejoin:miter;stroke-miterlimit:10;stroke-dasharray:10, 20, 10, 20, 10, 20, 10, 0;stroke-dashoffset:800;stroke-opacity:1"
       transform="matrix(0.13333333,0,0,-0.13333333,0,373.33333)" />
    <path
       id="path11"
       d="m 1700,2246.4 h 100 l 50,86.6 -50,86.6 h -100 l -50,-86.6 50,-86.6 m 0,-173.2 h 100 l 50,86.6 -50,86.6 h -100 l -50,-86.6 50,-86.6 m 0,-173.2 h 100 l 50,86.6 -50,86.6 h -100 l -50,-86.6 50,-86.6 m 0,-173.2 h 100 l 50,86.6 -50,86.6 h -100 l -50,-86.6 50,-86.6 m 0,-173.2 h 100 l 50,86.6 -50,86.6 h -100 l -50,-86.6 50,-86.6 m 0,-173.2 h 100 l 50,86.6 -50,86.6 h -100 l -50,-86.6 50,-86.6 m 0,-173.2 h 100 l 50,86.6 -50,86.6 h -100 l -50,-86.6 50,-86.6 m 0,-173.2 h 100 l 50,86.6 -50,86.6 h -100 l -50,-86.6 50,-86.6 m 0,-173.199 h 100 l 50,86.601 -50,86.598 h -100 l -50,-86.598 50,-86.601 m 0,-173.199 h 100 l 50,86.597 -50,86.602 h -100 l -50,-86.602 50,-86.597 m 0,-173.2 h 100 l 50,86.598 -50,86.602 H 1700 L 1650,601 l 50,-86.598 m 0,-173.203 h 100 l 50,86.602 -50,86.601 h -100 l -50,-86.601 50,-86.602"
       style="fill:none;stroke:#000000;stroke-width:4;stroke-linecap:butt;stroke-linejoin:miter;stroke-miterlimit:10;stroke-dasharray:10, 20, 10, 20, 10, 20, 10, 0;stroke-dashoffset:800;stroke-opacity:1"
       transform="matrix(0.13333333,0,0,-0.13333333,0,373.33333)" />
    <path
       id="path12"
       d="m 1850,2159.8 h 100 l 50,86.6 -50,86.6 h -100 l -50,-86.6 50,-86.6 m 0,-173.2 h 100 l 50,86.6 -50,86.6 h -100 l -50,-86.6 50,-86.6 m 0,-173.2 h 100 l 50,86.6 -50,86.6 h -100 l -50,-86.6 50,-86.6 m 0,-173.2 h 100 l 50,86.6 -50,86.6 h -100 l -50,-86.6 50,-86.6 m 0,-173.2 h 100 l 50,86.6 -50,86.6 h -100 l -50,-86.6 50,-86.6 m 0,-173.2 h 100 l 50,86.6 -50,86.6 h -100 l -50,-86.6 50,-86.6 m 0,-173.2 h 100 l 50,86.6 -50,86.6 h -100 l -50,-86.6 50,-86.6 m 0,-173.202 h 100 l 50,86.602 -50,86.6 h -100 l -50,-86.6 50,-86.602 m 0,-173.199 h 100 l 50,86.602 -50,86.597 h -100 l -50,-86.597 50,-86.602 M 1850,601 h 100 l 50,86.602 -50,86.597 H 1850 L 1800,687.602 1850,601 m 0,-173.199 h 100 l 50,86.597 -50,86.602 h -100 l -50,-86.602 50,-86.597"
       style="fill:none;stroke:#000000;stroke-width:4;stroke-linecap:butt;stroke-linejoin:miter;stroke-miterlimit:10;stroke-dasharray:10, 20, 10, 20, 10, 20, 10, 0;stroke-dashoffset:800;stroke-opacity:1"
       transform="matrix(0.13333333,0,0,-0.13333333,0,373.33333)" />
    <path
       id="path13"
       d="m 2000,2073.2 h 100 l 50,86.6 -50,86.6 h -100 l -50,-86.6 50,-86.6 m 0,-173.2 h 100 l 50,86.6 -50,86.6 h -100 l -50,-86.6 50,-86.6 m 0,-173.2 h 100 l 50,86.6 -50,86.6 h -100 l -50,-86.6 50,-86.6 m 0,-173.2 h 100 l 50,86.6 -50,86.6 h -100 l -50,-86.6 50,-86.6 m 0,-173.2 h 100 l 50,86.6 -50,86.6 h -100 l -50,-86.6 50,-86.6 m 0,-173.2 h 100 l 50,86.6 -50,86.6 h -100 l -50,-86.6 50,-86.6 m 0,-173.2 h 100 l 50,86.6 -50,86.6 h -100 l -50,-86.6 50,-86.6 m 0,-173.199 h 100 l 50,86.597 -50,86.602 h -100 l -50,-86.602 50,-86.597 m 0,-173.199 h 100 l 50,86.597 -50,86.602 h -100 l -50,-86.602 50,-86.597 m 0,-173.204 h 100 l 50,86.602 -50,86.602 H 2000 L 1950,601 l 50,-86.602"
       style="fill:none;stroke:#000000;stroke-width:4;stroke-linecap:butt;stroke-linejoin:miter;stroke-miterlimit:10;stroke-dasharray:10, 20, 10, 20, 10, 20, 10, 0;stroke-dashoffset:800;stroke-opacity:1"
       transform="matrix(0.13333333,0,0,-0.13333333,0,373.33333)" />
    <path
       id="path14"
       d="m 2150,1986.6 h 100 l 50,86.6 -50,86.6 h -100 l -50,-86.6 50,-86.6 m 0,-173.2 h 100 l 50,86.6 -50,86.6 h -100 l -50,-86.6 50,-86.6 m 0,-173.2 h 100 l 50,86.6 -50,86.6 h -100 l -50,-86.6 50,-86.6 m 0,-173.2 h 100 l 50,86.6 -50,86.6 h -100 l -50,-86.6 50,-86.6 m 0,-173.2 h 100 l 50,86.6 -50,86.6 h -100 l -50,-86.6 50,-86.6 m 0,-173.2 h 100 l 50,86.6 -50,86.6 h -100 l -50,-86.6 50,-86.6 m 0,-173.202 h 100 l 50,86.602 -50,86.6 h -100 l -50,-86.6 50,-86.602 m 0,-173.199 h 100 l 50,86.602 -50,86.597 h -100 l -50,-86.597 50,-86.602 M 2150,601 h 100 l 50,86.602 -50,86.597 H 2150 L 2100,687.602 2150,601"
       style="fill:none;stroke:#000000;stroke-width:4;stroke-linecap:butt;stroke-linejoin:miter;stroke-miterlimit:10;stroke-dasharray:10, 20, 10, 20, 10, 20, 10, 0;stroke-dashoffset:800;stroke-opacity:1"
       transform="matrix(0.13333333,0,0,-0.13333333,0,373.33333)" />
    <path
       id="path15"
       d="m 2300,1900 h 100 l 50,86.6 -50,86.6 h -100 l -50,-86.6 50,-86.6 m 0,-173.2 h 100 l 50,86.6 -50,86.6 h -100 l -50,-86.6 50,-86.6 m 0,-173.2 h 100 l 50,86.6 -50,86.6 h -100 l -50,-86.6 50,-86.6 m 0,-173.2 h 100 l 50,86.6 -50,86.6 h -100 l -50,-86.6 50,-86.6 m 0,-173.2 h 100 l 50,86.6 -50,86.6 h -100 l -50,-86.6 50,-86.6 m 0,-173.2 h 100 l 50,86.6 -50,86.6 h -100 l -50,-86.6 50,-86.6 m 0,-173.199 h 100 l 50,86.597 -50,86.602 h -100 l -50,-86.602 50,-86.597 m 0,-173.199 h 100 l 50,86.597 -50,86.602 h -100 l -50,-86.602 50,-86.597"
       style="fill:none;stroke:#000000;stroke-width:4;stroke-linecap:butt;stroke-linejoin:miter;stroke-miterlimit:10;stroke-dasharray:10, 20, 10, 20, 10, 20, 10, 0;stroke-dashoffset:800;stroke-opacity:1"
       transform="matrix(0.13333333,0,0,-0.13333333,0,373.33333)" />
    <path
       id="path16"
       d="M 3.1064078,-6.1758594 V -7.8125e-5 H 4.1610953 V -8.6719531 H 3.4696891 c -0.375,1.3242187 -0.609375,1.5117187 -2.25,1.7226562 v 0.7734375 z M 5.7079703,8.8124219 H 1.3251578 L 0.68062656,13.441328 H 1.6532828 c 0.4921875,-0.585937 0.9023438,-0.785156 1.5703125,-0.785156 1.1484375,0 1.8515625,0.773437 1.8515625,2.039062 0,1.21875 -0.703125,1.96875 -1.8632812,1.96875 -0.9140625,0 -1.4882813,-0.46875 -1.734375,-1.429687 H 0.42281406 c 0.140625,0.691406 0.2578125,1.03125 0.515625,1.347656 0.48046874,0.644531 1.34765624,1.019531 2.29687504,1.019531 1.7226562,0 2.9179687,-1.253906 2.9179687,-3.058593 0,-1.675782 -1.1132812,-2.824219 -2.7421875,-2.824219 -0.5976562,0 -1.078125,0.152344 -1.5703125,0.515625 L 2.1689078,9.8553906 H 5.7079703 Z M 6.0712516,68.238203 H 1.5946891 c 0.1054687,-0.726562 0.4921875,-1.171875 1.5351562,-1.816406 l 1.2070313,-0.667969 c 1.1835937,-0.65625 1.7929687,-1.546875 1.7929687,-2.613281 0,-0.726563 -0.28125,-1.394531 -0.7851562,-1.863281 -0.5039063,-0.457032 -1.1367188,-0.667969 -1.9335938,-0.667969 -1.078125,0 -1.8867187,0.375 -2.3554687,1.125 -0.29296879,0.457031 -0.43359379,0.996094 -0.45703129,1.875 H 1.6532828 c 0.035156,-0.597656 0.1171875,-0.9375 0.2578125,-1.230469 0.2695313,-0.527344 0.8203125,-0.855469 1.4648438,-0.855469 0.9609375,0 1.6757812,0.703125 1.6757812,1.640625 0,0.691407 -0.3984375,1.289063 -1.1484375,1.722657 l -1.1015625,0.65625 c -1.78125,1.019531 -2.29687499,1.828125 -2.39062499,3.726562 H 6.0712516 Z M 5.7079703,78.090742 H 1.3251578 L 0.68062656,82.719648 H 1.6532828 c 0.4921875,-0.585937 0.9023438,-0.785156 1.5703125,-0.785156 1.1484375,0 1.8515625,0.773438 1.8515625,2.039063 0,1.21875 -0.703125,1.96875 -1.8632812,1.96875 -0.9140625,0 -1.4882813,-0.46875 -1.734375,-1.429688 H 0.42281406 c 0.140625,0.691406 0.2578125,1.03125 0.515625,1.347656 0.48046874,0.644532 1.34765624,1.019532 2.29687504,1.019532 1.7226562,0 2.9179687,-1.253907 2.9179687,-3.058594 0,-1.675781 -1.1132812,-2.824219 -2.7421875,-2.824219 -0.5976562,0 -1.078125,0.152344 -1.5703125,0.515625 l 0.328125,-2.378906 H 5.7079703 Z M 18.106408,37.124922 v 6.175781 h 1.054687 v -8.671875 h -0.691406 c -0.375,1.324219 -0.609375,1.511719 -2.25,1.722656 v 0.773438 z m 0,86.598628 v 6.17579 h 1.054687 v -8.67188 h -0.691406 c -0.375,1.32422 -0.609375,1.51172 -2.25,1.72266 v 0.77343 z m 15,-129.8994094 V -7.8125e-5 h 1.054687 V -8.6719531 h -0.691406 c -0.375,1.3242187 -0.609375,1.5117187 -2.25,1.7226562 v 0.7734375 z M 32.649377,30.644453 h 0.574218 c 1.160157,0 1.769532,0.539063 1.769532,1.582031 0,1.089844 -0.65625,1.757813 -1.757813,1.757813 -1.160156,0 -1.722656,-0.585938 -1.792969,-1.863281 h -1.054687 c 0.04687,0.691406 0.164062,1.148437 0.375,1.535156 0.433594,0.84375 1.265625,1.265625 2.425781,1.265625 1.757813,0 2.882813,-1.066406 2.882813,-2.707031 0,-1.101563 -0.421875,-1.699219 -1.441407,-2.0625 0.796875,-0.328125 1.195313,-0.925782 1.195313,-1.804688 0,-1.488281 -0.972656,-2.378906 -2.601563,-2.378906 -1.710937,0 -2.625,0.960937 -2.660156,2.789062 h 1.054688 c 0.01172,-0.527343 0.05859,-0.820312 0.199218,-1.089843 0.234375,-0.492188 0.761719,-0.785157 1.417969,-0.785157 0.9375,0 1.5,0.574219 1.5,1.5 0,0.621094 -0.210937,0.984375 -0.679687,1.195313 -0.28125,0.117187 -0.667969,0.164062 -1.40625,0.175781 z m 1.277343,36.536133 v 2.097656 h 1.054688 v -2.097656 h 1.253906 v -0.949219 h -1.253906 v -5.625 h -0.785156 l -3.855469,5.460938 v 1.113281 z m 0,-0.949219 h -2.660156 l 2.660156,-3.832031 z m 0,18.269531 v 2.097657 h 1.054688 v -2.097657 h 1.253906 V 83.55168 h -1.253906 v -5.625 h -0.785156 l -3.855469,5.460937 v 1.113281 z m 0,-0.949218 h -2.660156 l 2.660156,-3.832032 z m 2.144532,19.32422 h -4.476563 c 0.105469,-0.72656 0.492188,-1.17188 1.535156,-1.81641 l 1.207032,-0.66797 c 1.183593,-0.656247 1.792968,-1.546872 1.792968,-2.613278 0,-0.726562 -0.28125,-1.394531 -0.785156,-1.863281 -0.503906,-0.457031 -1.136719,-0.667969 -1.933594,-0.667969 -1.078125,0 -1.886718,0.375 -2.355468,1.125 -0.292969,0.457031 -0.433594,0.996094 -0.457032,1.875 h 1.054688 c 0.03516,-0.597656 0.117187,-0.9375 0.257812,-1.230469 0.269532,-0.527343 0.820313,-0.855468 1.464844,-0.855468 0.960938,0 1.675781,0.703125 1.675781,1.640625 0,0.691406 -0.398437,1.289062 -1.148437,1.722656 l -1.101563,0.656254 c -1.78125,1.01953 -2.296875,1.82812 -2.390625,3.72656 h 5.660157 z m -2.144532,33.58594 v 2.09765 h 1.054688 v -2.09765 h 1.253906 v -0.94922 h -1.253906 v -5.625 h -0.785156 l -3.855469,5.46093 v 1.11329 z m 0,-0.94922 h -2.660156 l 2.660156,-3.83203 z M 47.649377,91.262617 h 0.574218 c 1.160157,0 1.769532,0.539063 1.769532,1.582031 0,1.089844 -0.65625,1.757813 -1.757813,1.757813 -1.160156,0 -1.722656,-0.585938 -1.792969,-1.863281 h -1.054687 c 0.04687,0.691406 0.164062,1.148437 0.375,1.535156 0.433594,0.84375 1.265625,1.265625 2.425781,1.265625 1.757813,0 2.882813,-1.066406 2.882813,-2.707031 0,-1.101563 -0.421875,-1.699219 -1.441407,-2.0625 0.796875,-0.328125 1.195313,-0.925782 1.195313,-1.804688 0,-1.488281 -0.972656,-2.378906 -2.601563,-2.378906 -1.710937,0 -2.625,0.960937 -2.660156,2.789062 h 1.054688 c 0.01172,-0.527343 0.05859,-0.820312 0.199218,-1.089843 0.234375,-0.492188 0.761719,-0.785157 1.417969,-0.785157 0.9375,0 1.5,0.574219 1.5,1.5 0,0.621094 -0.210937,0.984375 -0.679687,1.195313 -0.28125,0.117187 -0.667969,0.164062 -1.40625,0.175781 z M 63.92672,-36.738359 v 2.097656 h 1.054688 v -2.097656 h 1.253906 v -0.949219 h -1.253906 v -5.625 h -0.785156 l -3.855469,5.460937 v 1.113282 z m 0,-0.949219 h -2.660156 l 2.660156,-3.832031 z M 62.649377,99.922773 h 0.574218 c 1.160157,0 1.769532,0.539067 1.769532,1.582027 0,1.08985 -0.65625,1.75782 -1.757813,1.75782 -1.160156,0 -1.722656,-0.58594 -1.792969,-1.86328 h -1.054687 c 0.04687,0.6914 0.164062,1.14843 0.375,1.53515 0.433594,0.84375 1.265625,1.26563 2.425781,1.26563 1.757813,0 2.882813,-1.06641 2.882813,-2.70703 0,-1.10157 -0.421875,-1.699223 -1.441407,-2.062504 0.796875,-0.328125 1.195313,-0.925781 1.195313,-1.804688 0,-1.488281 -0.972656,-2.378906 -2.601563,-2.378906 -1.710937,0 -2.625,0.960938 -2.660156,2.789063 h 1.054688 c 0.01172,-0.527344 0.05859,-0.820313 0.199218,-1.089844 0.234375,-0.492188 0.761719,-0.785156 1.417969,-0.785156 0.9375,0 1.5,0.574218 1.5,1.5 0,0.621093 -0.210937,0.984375 -0.679687,1.195312 -0.28125,0.117188 -0.667969,0.164063 -1.40625,0.175781 z m 3.058593,47.446287 h -4.382812 l -0.644531,4.62891 h 0.972656 c 0.492187,-0.58594 0.902344,-0.78516 1.570312,-0.78516 1.148438,0 1.851563,0.77344 1.851563,2.03907 0,1.21875 -0.703125,1.96875 -1.863281,1.96875 -0.914063,0 -1.488282,-0.46875 -1.734375,-1.42969 h -1.054688 c 0.140625,0.6914 0.257813,1.03125 0.515625,1.34765 0.480469,0.64454 1.347656,1.01954 2.296875,1.01954 1.722656,0 2.917969,-1.25391 2.917969,-3.0586 0,-1.67578 -1.113281,-2.82422 -2.742188,-2.82422 -0.597656,0 -1.078125,0.15235 -1.570312,0.51563 l 0.328125,-2.37891 h 3.539062 z m 15,-199.177732 h -4.382812 l -0.644531,4.628906 h 0.972656 c 0.492187,-0.585937 0.902344,-0.785156 1.570312,-0.785156 1.148438,0 1.851563,0.773438 1.851563,2.039063 0,1.21875 -0.703125,1.96875 -1.863281,1.96875 -0.914063,0 -1.488282,-0.46875 -1.734375,-1.429688 h -1.054688 c 0.140625,0.691406 0.257813,1.03125 0.515625,1.347656 0.480469,0.644532 1.347656,1.019532 2.296875,1.019532 1.722656,0 2.917969,-1.253907 2.917969,-3.058594 0,-1.675781 -1.113281,-2.824219 -2.742188,-2.824219 -0.597656,0 -1.078125,0.152344 -1.570312,0.515625 l 0.328125,-2.378906 h 3.539062 z m -3.058593,143.06836 h 0.574218 c 1.160157,0 1.769532,0.539062 1.769532,1.582031 0,1.089844 -0.65625,1.757812 -1.757813,1.757812 -1.160156,0 -1.722656,-0.585937 -1.792969,-1.863281 h -1.054687 c 0.04687,0.691406 0.164062,1.148438 0.375,1.535156 0.433594,0.84375 1.265625,1.265625 2.425781,1.265625 1.757813,0 2.882813,-1.066406 2.882813,-2.707031 0,-1.101562 -0.421875,-1.699219 -1.441407,-2.0625 0.796875,-0.328125 1.195313,-0.925781 1.195313,-1.804687 0,-1.488282 -0.972656,-2.378907 -2.601563,-2.378907 -1.710937,0 -2.625,0.960938 -2.660156,2.789063 h 1.054688 c 0.01172,-0.527344 0.05859,-0.820313 0.199218,-1.089844 0.234375,-0.492187 0.761719,-0.785156 1.417969,-0.785156 0.9375,0 1.5,0.574219 1.5,1.5 0,0.621094 -0.210937,0.984375 -0.679687,1.195312 -0.28125,0.117188 -0.667969,0.164063 -1.40625,0.175782 z m 0.65625,29.964842 c -0.796875,0 -1.511719,0.35156 -1.957032,0.94922 -0.550781,0.76172 -0.832031,1.91016 -0.832031,3.52734 0,2.91797 0.960938,4.47657 2.789063,4.47657 1.792968,0 2.777343,-1.5586 2.777343,-4.40625 0,-1.6875 -0.257812,-2.8125 -0.820312,-3.59766 -0.445313,-0.60937 -1.160156,-0.94922 -1.957031,-0.94922 z m 0,0.9375 c 1.136718,0 1.699218,1.16016 1.699218,3.51563 0,2.46093 -0.550781,3.62109 -1.722656,3.62109 -1.125,0 -1.6875,-1.20703 -1.6875,-3.58594 0,-2.39062 0.5625,-3.55078 1.710938,-3.55078 z m 15,-148.157225 c -0.796875,0 -1.511719,0.351562 -1.957032,0.949218 -0.550781,0.761719 -0.832031,1.910157 -0.832031,3.527344 0,2.917969 0.960938,4.476563 2.789063,4.476563 1.792968,0 2.777343,-1.558594 2.777343,-4.40625 0,-1.6875 -0.257812,-2.8125 -0.820312,-3.597657 -0.445313,-0.609375 -1.160156,-0.949218 -1.957031,-0.949218 z m 0,0.9375 c 1.136718,0 1.699218,1.160156 1.699218,3.515625 0,2.460937 -0.550781,3.621093 -1.722656,3.621093 -1.125,0 -1.6875,-1.207031 -1.6875,-3.585937 0,-2.390625 0.5625,-3.550781 1.710938,-3.550781 z m 0,33.7031247 c -0.796875,0 -1.511719,0.3515625 -1.957032,0.9492187 -0.550781,0.7617186 -0.832031,1.9101566 -0.832031,3.5273436 0,2.917969 0.960938,4.476563 2.789063,4.476563 1.792968,0 2.777343,-1.558594 2.777343,-4.40625 0,-1.6875 -0.257812,-2.8125 -0.820312,-3.5976566 -0.445313,-0.609375 -1.160156,-0.9492187 -1.957031,-0.9492187 z m 0,0.9375 c 1.136718,0 1.699218,1.1601563 1.699218,3.5156253 0,2.460937 -0.550781,3.621093 -1.722656,3.621093 -1.125,0 -1.6875,-1.207031 -1.6875,-3.585937 0,-2.390625 0.5625,-3.5507813 1.710938,-3.5507813 z m 0,33.7031253 c -0.796875,0 -1.511719,0.351562 -1.957032,0.949218 -0.550781,0.761719 -0.832031,1.910157 -0.832031,3.527344 0,2.917969 0.960938,4.476563 2.789063,4.476563 1.792968,0 2.777343,-1.558594 2.777343,-4.40625 0,-1.6875 -0.257812,-2.8125 -0.820312,-3.597657 -0.445313,-0.609375 -1.160156,-0.949218 -1.957031,-0.949218 z m 0,0.9375 c 1.136718,0 1.699218,1.160156 1.699218,3.515625 0,2.460937 -0.550781,3.621093 -1.722656,3.621093 -1.125,0 -1.6875,-1.207031 -1.6875,-3.585937 0,-2.390625 0.5625,-3.550781 1.710938,-3.550781 z m -0.65625,55.696289 h 0.574218 c 1.160157,0 1.769532,0.539066 1.769532,1.582036 0,1.08984 -0.65625,1.75781 -1.757813,1.75781 -1.160156,0 -1.722656,-0.58594 -1.792969,-1.86328 h -1.054687 c 0.04687,0.6914 0.164062,1.14843 0.375,1.53515 0.433594,0.84375 1.265625,1.26563 2.425781,1.26563 1.757813,0 2.882813,-1.06641 2.882813,-2.70703 0,-1.10157 -0.421875,-1.699222 -1.441407,-2.062504 0.796875,-0.328125 1.195313,-0.925781 1.195313,-1.804687 0,-1.488281 -0.972656,-2.378906 -2.601563,-2.378906 -1.710937,0 -2.625,0.960937 -2.660156,2.789062 h 1.054688 c 0.01172,-0.527344 0.05859,-0.820312 0.199218,-1.089844 0.234375,-0.492187 0.761719,-0.785156 1.417969,-0.785156 0.9375,0 1.5,0.574219 1.5,1.5 0,0.621094 -0.210937,0.984375 -0.679687,1.195313 -0.28125,0.117187 -0.667969,0.164062 -1.40625,0.175781 z m 3.421875,54.914066 h -4.476563 c 0.105469,-0.72657 0.492188,-1.17188 1.535156,-1.81641 l 1.207032,-0.66797 c 1.183593,-0.65625 1.792968,-1.54687 1.792968,-2.61328 0,-0.72656 -0.28125,-1.39453 -0.785156,-1.86328 -0.503906,-0.45703 -1.136719,-0.66797 -1.933594,-0.66797 -1.078125,0 -1.886718,0.375 -2.355468,1.125 -0.292969,0.45703 -0.433594,0.99609 -0.457032,1.875 h 1.054688 c 0.03516,-0.59766 0.117187,-0.9375 0.257812,-1.23047 0.269532,-0.52734 0.820313,-0.85547 1.464844,-0.85547 0.960938,0 1.675781,0.70313 1.675781,1.64063 0,0.6914 -0.398437,1.28906 -1.148437,1.72265 l -1.101563,0.65625 c -1.78125,1.01954 -2.296875,1.82813 -2.390625,3.72657 h 5.660157 z m -2.964844,12.1875 v 6.17578 h 1.054687 v -8.67188 h -0.691406 c -0.375,1.32422 -0.609375,1.51172 -2.25,1.72266 v 0.77344 z M 111.07125,76.8925 h -4.47656 c 0.10547,-0.726562 0.49219,-1.171875 1.53516,-1.816406 l 1.20703,-0.667969 c 1.18359,-0.65625 1.79297,-1.546875 1.79297,-2.613281 0,-0.726563 -0.28125,-1.394531 -0.78516,-1.863281 -0.50391,-0.457032 -1.13672,-0.667969 -1.93359,-0.667969 -1.07813,0 -1.88672,0.375 -2.35547,1.125 -0.29297,0.457031 -0.4336,0.996094 -0.45703,1.875 h 1.05468 c 0.0352,-0.597656 0.11719,-0.9375 0.25782,-1.230469 0.26953,-0.527344 0.82031,-0.855469 1.46484,-0.855469 0.96094,0 1.67578,0.703125 1.67578,1.640625 0,0.691407 -0.39844,1.289063 -1.14844,1.722657 l -1.10156,0.65625 c -1.78125,1.019531 -2.29687,1.828125 -2.39062,3.726562 h 5.66015 z m -3.42187,31.6875 h 0.57422 c 1.16015,0 1.76953,0.53906 1.76953,1.58203 0,1.08985 -0.65625,1.75781 -1.75782,1.75781 -1.16015,0 -1.72265,-0.58593 -1.79296,-1.86328 h -1.05469 c 0.0469,0.69141 0.16406,1.14844 0.375,1.53516 0.43359,0.84375 1.26562,1.26562 2.42578,1.26562 1.75781,0 2.88281,-1.0664 2.88281,-2.70703 0,-1.10156 -0.42187,-1.69922 -1.4414,-2.0625 0.79687,-0.32812 1.19531,-0.92578 1.19531,-1.80468 0,-1.48829 -0.97266,-2.37891 -2.60156,-2.37891 -1.71094,0 -2.625,0.96094 -2.66016,2.78906 h 1.05469 c 0.0117,-0.52734 0.0586,-0.82031 0.19922,-1.08984 0.23437,-0.49219 0.76171,-0.78516 1.41796,-0.78516 0.9375,0 1.5,0.57422 1.5,1.5 0,0.6211 -0.21093,0.98438 -0.67968,1.19531 -0.28125,0.11719 -0.66797,0.16407 -1.40625,0.17579 z m 3.42187,72.23145 h -4.47656 c 0.10547,-0.72657 0.49219,-1.17188 1.53516,-1.81641 l 1.20703,-0.66797 c 1.18359,-0.65625 1.79297,-1.54687 1.79297,-2.61328 0,-0.72656 -0.28125,-1.39453 -0.78516,-1.86328 -0.50391,-0.45703 -1.13672,-0.66797 -1.93359,-0.66797 -1.07813,0 -1.88672,0.375 -2.35547,1.125 -0.29297,0.45703 -0.4336,0.99609 -0.45703,1.875 h 1.05468 c 0.0352,-0.59766 0.11719,-0.9375 0.25782,-1.23047 0.26953,-0.52734 0.82031,-0.85547 1.46484,-0.85547 0.96094,0 1.67578,0.70313 1.67578,1.64063 0,0.6914 -0.39844,1.28906 -1.14844,1.72265 l -1.10156,0.65625 c -1.78125,1.01953 -2.29687,1.82813 -2.39062,3.72657 h 5.66015 z m 12.23438,-224.126958 c -0.79688,0 -1.51172,0.351563 -1.95703,0.949219 -0.55079,0.761719 -0.83204,1.910156 -0.83204,3.527344 0,2.917968 0.96094,4.476562 2.78907,4.476562 1.79297,0 2.77734,-1.558594 2.77734,-4.40625 0,-1.6875 -0.25781,-2.8125 -0.82031,-3.597656 -0.44531,-0.609375 -1.16016,-0.949219 -1.95703,-0.949219 z m 0,0.9375 c 1.13672,0 1.69922,1.160156 1.69922,3.515625 0,2.460938 -0.55079,3.621094 -1.72266,3.621094 -1.125,0 -1.6875,-1.207031 -1.6875,-3.585938 0,-2.390625 0.5625,-3.550781 1.71094,-3.550781 z m 2.40234,51.1845705 h -4.38281 l -0.64453,4.6289065 h 0.97265 c 0.49219,-0.585938 0.90235,-0.785156 1.57032,-0.785156 1.14843,0 1.85156,0.773437 1.85156,2.039062 0,1.21875 -0.70313,1.96875 -1.86328,1.96875 -0.91407,0 -1.48828,-0.46875 -1.73438,-1.429687 h -1.05469 c 0.14063,0.691406 0.25782,1.03125 0.51563,1.347656 0.48047,0.644531 1.34766,1.019531 2.29687,1.019531 1.72266,0 2.91797,-1.253906 2.91797,-3.058594 0,-1.675781 -1.11328,-2.824218 -2.74218,-2.824218 -0.59766,0 -1.07813,0.152343 -1.57032,0.515625 l 0.32813,-2.3789067 h 3.53906 z m -2.40234,34.4765625 c -0.79688,0 -1.51172,0.351563 -1.95703,0.949219 -0.55079,0.761719 -0.83204,1.910156 -0.83204,3.527344 0,2.917968 0.96094,4.476562 2.78907,4.476562 1.79297,0 2.77734,-1.558594 2.77734,-4.40625 0,-1.6875 -0.25781,-2.8125 -0.82031,-3.597656 -0.44531,-0.609375 -1.16016,-0.949219 -1.95703,-0.949219 z m 0,0.9375 c 1.13672,0 1.69922,1.160156 1.69922,3.515625 0,2.460938 -0.55079,3.621094 -1.72266,3.621094 -1.125,0 -1.6875,-1.207031 -1.6875,-3.585938 0,-2.390625 0.5625,-3.550781 1.71094,-3.550781 z m 2.40234,51.1875 h -4.38281 l -0.64453,4.628905 h 0.97265 c 0.49219,-0.585936 0.90235,-0.785155 1.57032,-0.785155 1.14843,0 1.85156,0.773435 1.85156,2.039065 0,1.21875 -0.70313,1.96875 -1.86328,1.96875 -0.91407,0 -1.48828,-0.46875 -1.73438,-1.42969 h -1.05469 c 0.14063,0.69141 0.25782,1.03125 0.51563,1.34766 0.48047,0.64453 1.34766,1.01953 2.29687,1.01953 1.72266,0 2.91797,-1.25391 2.91797,-3.0586 0,-1.675777 -1.11328,-2.824215 -2.74218,-2.824215 -0.59766,0 -1.07813,0.152344 -1.57032,0.515625 l 0.32813,-2.378906 h 3.53906 z m 0.36328,42.105465 h -4.47656 c 0.10547,-0.72656 0.49219,-1.17187 1.53516,-1.8164 l 1.20703,-0.66797 c 1.18359,-0.65625 1.79297,-1.54688 1.79297,-2.61328 0,-0.72656 -0.28125,-1.39453 -0.78516,-1.86328 -0.50391,-0.45703 -1.13672,-0.66797 -1.93359,-0.66797 -1.07813,0 -1.88672,0.375 -2.35547,1.125 -0.29297,0.45703 -0.4336,0.99609 -0.45703,1.875 h 1.05468 c 0.0352,-0.59766 0.11719,-0.9375 0.25782,-1.23047 0.26953,-0.52734 0.82031,-0.85547 1.46484,-0.85547 0.96094,0 1.67578,0.70313 1.67578,1.64063 0,0.6914 -0.39844,1.28906 -1.14844,1.72265 l -1.10156,0.65625 c -1.78125,1.01953 -2.29687,1.82813 -2.39062,3.72656 h 5.66015 z m -0.36328,27.17286 h -4.38281 l -0.64453,4.6289 h 0.97265 c 0.49219,-0.58594 0.90235,-0.78515 1.57032,-0.78515 1.14843,0 1.85156,0.77343 1.85156,2.03906 0,1.21875 -0.70313,1.96875 -1.86328,1.96875 -0.91407,0 -1.48828,-0.46875 -1.73438,-1.42969 h -1.05469 c 0.14063,0.69141 0.25782,1.03125 0.51563,1.34766 0.48047,0.64453 1.34766,1.01953 2.29687,1.01953 1.72266,0 2.91797,-1.25391 2.91797,-3.0586 0,-1.67578 -1.11328,-2.82421 -2.74218,-2.82421 -0.59766,0 -1.07813,0.15234 -1.57032,0.51562 l 0.32813,-2.37891 h 3.53906 z M 137.64938,4.658125 h 0.57422 c 1.16015,0 1.76953,0.5390625 1.76953,1.5820313 0,1.0898437 -0.65625,1.7578125 -1.75782,1.7578125 -1.16015,0 -1.72265,-0.5859375 -1.79296,-1.8632813 h -1.05469 c 0.0469,0.6914063 0.16406,1.1484375 0.375,1.5351563 0.43359,0.84375 1.26562,1.265625 2.42578,1.265625 1.75781,0 2.88281,-1.0664063 2.88281,-2.7070313 0,-1.1015625 -0.42187,-1.6992187 -1.4414,-2.0625 0.79687,-0.328125 1.19531,-0.9257812 1.19531,-1.8046875 0,-1.48828125 -0.97266,-2.37890625 -2.60156,-2.37890625 -1.71094,0 -2.625,0.9609375 -2.66016,2.78906255 h 1.05469 c 0.0117,-0.5273438 0.0586,-0.8203125 0.19922,-1.0898438 0.23437,-0.4921875 0.76171,-0.78515625 1.41796,-0.78515625 0.9375,0 1.5,0.57421875 1.5,1.50000005 0,0.6210937 -0.21093,0.984375 -0.67968,1.1953125 -0.28125,0.1171875 -0.66797,0.1640625 -1.40625,0.1757812 z m 0,69.28125 h 0.57422 c 1.16015,0 1.76953,0.539063 1.76953,1.582031 0,1.089844 -0.65625,1.757813 -1.75782,1.757813 -1.16015,0 -1.72265,-0.585938 -1.79296,-1.863281 h -1.05469 c 0.0469,0.691406 0.16406,1.148437 0.375,1.535156 0.43359,0.84375 1.26562,1.265625 2.42578,1.265625 1.75781,0 2.88281,-1.066406 2.88281,-2.707031 0,-1.101563 -0.42187,-1.699219 -1.4414,-2.0625 0.79687,-0.328125 1.19531,-0.925782 1.19531,-1.804688 0,-1.488281 -0.97266,-2.378906 -2.60156,-2.378906 -1.71094,0 -2.625,0.960937 -2.66016,2.789062 h 1.05469 c 0.0117,-0.527343 0.0586,-0.820312 0.19922,-1.089843 0.23437,-0.492188 0.76171,-0.785157 1.41796,-0.785157 0.9375,0 1.5,0.574219 1.5,1.5 0,0.621094 -0.21093,0.984375 -0.67968,1.195313 -0.28125,0.117187 -0.66797,0.164062 -1.40625,0.175781 z m 0,17.320313 h 0.57422 c 1.16015,0 1.76953,0.539062 1.76953,1.582031 0,1.089844 -0.65625,1.757812 -1.75782,1.757812 -1.16015,0 -1.72265,-0.585937 -1.79296,-1.863281 h -1.05469 c 0.0469,0.691406 0.16406,1.148438 0.375,1.535156 0.43359,0.84375 1.26562,1.265625 2.42578,1.265625 1.75781,0 2.88281,-1.066406 2.88281,-2.707031 0,-1.101562 -0.42187,-1.699219 -1.4414,-2.0625 0.79687,-0.328125 1.19531,-0.925781 1.19531,-1.804687 0,-1.488282 -0.97266,-2.378907 -2.60156,-2.378907 -1.71094,0 -2.625,0.960938 -2.66016,2.789063 h 1.05469 c 0.0117,-0.527344 0.0586,-0.820313 0.19922,-1.089844 0.23437,-0.492187 0.76171,-0.785156 1.41796,-0.785156 0.9375,0 1.5,0.574219 1.5,1.5 0,0.621094 -0.21093,0.984375 -0.67968,1.195312 -0.28125,0.117188 -0.66797,0.164063 -1.40625,0.175782 z m 18.42187,-57.667969 h -4.47656 c 0.10547,-0.726563 0.49219,-1.171875 1.53516,-1.816406 l 1.20703,-0.667969 c 1.18359,-0.65625 1.79297,-1.546875 1.79297,-2.613281 0,-0.726563 -0.28125,-1.394532 -0.78516,-1.863282 -0.50391,-0.457031 -1.13672,-0.667968 -1.93359,-0.667968 -1.07813,0 -1.88672,0.375 -2.35547,1.125 -0.29297,0.457031 -0.4336,0.996093 -0.45703,1.875 h 1.05468 c 0.0352,-0.597657 0.11719,-0.9375 0.25782,-1.230469 0.26953,-0.527344 0.82031,-0.855469 1.46484,-0.855469 0.96094,0 1.67578,0.703125 1.67578,1.640625 0,0.691406 -0.39844,1.289063 -1.14844,1.722656 l -1.10156,0.65625 c -1.78125,1.019532 -2.29687,1.828125 -2.39062,3.726563 h 5.66015 z m 0,51.960937 h -4.47656 c 0.10547,-0.726562 0.49219,-1.171875 1.53516,-1.816406 l 1.20703,-0.667969 c 1.18359,-0.65625 1.79297,-1.546875 1.79297,-2.613281 0,-0.726562 -0.28125,-1.394531 -0.78516,-1.863281 -0.50391,-0.457031 -1.13672,-0.667969 -1.93359,-0.667969 -1.07813,0 -1.88672,0.375 -2.35547,1.125 -0.29297,0.457031 -0.4336,0.996094 -0.45703,1.875 h 1.05468 c 0.0352,-0.597656 0.11719,-0.9375 0.25782,-1.230469 0.26953,-0.527343 0.82031,-0.855468 1.46484,-0.855468 0.96094,0 1.67578,0.703125 1.67578,1.640625 0,0.691406 -0.39844,1.289062 -1.14844,1.722656 l -1.10156,0.65625 c -1.78125,1.019531 -2.29687,1.828125 -2.39062,3.726562 h 5.66015 z m 0,17.317384 h -4.47656 c 0.10547,-0.72656 0.49219,-1.17188 1.53516,-1.81641 l 1.20703,-0.66797 c 1.18359,-0.656246 1.79297,-1.546871 1.79297,-2.613277 0,-0.726563 -0.28125,-1.394531 -0.78516,-1.863281 -0.50391,-0.457032 -1.13672,-0.667969 -1.93359,-0.667969 -1.07813,0 -1.88672,0.375 -2.35547,1.125 -0.29297,0.457031 -0.4336,0.996094 -0.45703,1.875 h 1.05468 c 0.0352,-0.597656 0.11719,-0.9375 0.25782,-1.230469 0.26953,-0.527344 0.82031,-0.855469 1.46484,-0.855469 0.96094,0 1.67578,0.703125 1.67578,1.640625 0,0.691407 -0.39844,1.289063 -1.14844,1.722657 l -1.10156,0.656253 c -1.78125,1.01953 -2.29687,1.82812 -2.39062,3.72656 h 5.66015 z m -0.36328,9.85547 h -4.38281 l -0.64453,4.6289 h 0.97265 c 0.49219,-0.58593 0.90235,-0.78515 1.57032,-0.78515 1.14843,0 1.85156,0.77344 1.85156,2.03906 0,1.21875 -0.70313,1.96875 -1.86328,1.96875 -0.91407,0 -1.48828,-0.46875 -1.73438,-1.42969 h -1.05469 c 0.14063,0.69141 0.25782,1.03125 0.51563,1.34766 0.48047,0.64453 1.34766,1.01953 2.29687,1.01953 1.72266,0 2.91797,-1.25391 2.91797,-3.05859 0,-1.67578 -1.11328,-2.82422 -2.74218,-2.82422 -0.59766,0 -1.07813,0.15234 -1.57032,0.51562 l 0.32813,-2.3789 h 3.53906 z m -1.78125,23.73047 v 2.09765 h 1.05469 v -2.09765 h 1.2539 v -0.94922 h -1.2539 v -5.625 h -0.78516 l -3.85547,5.46094 v 1.11328 z m 0,-0.94922 h -2.66016 l 2.66016,-3.83203 z m 14.37891,-170.165041 c -0.79688,0 -1.51172,0.351562 -1.95703,0.949219 -0.55079,0.761718 -0.83204,1.910156 -0.83204,3.527343 0,2.917969 0.96094,4.476563 2.78907,4.476563 1.79297,0 2.77734,-1.558594 2.77734,-4.40625 0,-1.6875 -0.25781,-2.8125 -0.82031,-3.597656 -0.44531,-0.609375 -1.16016,-0.949219 -1.95703,-0.949219 z m 0,0.9375 c 1.13672,0 1.69922,1.160156 1.69922,3.515625 0,2.460937 -0.55079,3.621094 -1.72266,3.621094 -1.125,0 -1.6875,-1.207032 -1.6875,-3.585938 0,-2.390625 0.5625,-3.550781 1.71094,-3.550781 z m 0,85.664062 c -0.79688,0 -1.51172,0.351563 -1.95703,0.949219 -0.55079,0.761719 -0.83204,1.910156 -0.83204,3.527344 0,2.917969 0.96094,4.476562 2.78907,4.476562 1.79297,0 2.77734,-1.558593 2.77734,-4.40625 0,-1.6875 -0.25781,-2.8125 -0.82031,-3.597656 -0.44531,-0.609375 -1.16016,-0.949219 -1.95703,-0.949219 z m 0,0.9375 c 1.13672,0 1.69922,1.160157 1.69922,3.515625 0,2.460938 -0.55079,3.621094 -1.72266,3.621094 -1.125,0 -1.6875,-1.207031 -1.6875,-3.585937 0,-2.390625 0.5625,-3.550782 1.71094,-3.550782 z m 2.76562,24.008789 h -4.47656 c 0.10547,-0.726562 0.49219,-1.171875 1.53516,-1.816406 l 1.20703,-0.667969 c 1.18359,-0.65625 1.79297,-1.546875 1.79297,-2.613281 0,-0.726562 -0.28125,-1.394531 -0.78516,-1.863281 -0.50391,-0.457031 -1.13672,-0.667969 -1.93359,-0.667969 -1.07813,0 -1.88672,0.375 -2.35547,1.125 -0.29297,0.457031 -0.4336,0.996094 -0.45703,1.875 h 1.05468 c 0.0352,-0.597656 0.11719,-0.9375 0.25782,-1.230469 0.26953,-0.527343 0.82031,-0.855468 1.46484,-0.855468 0.96094,0 1.67578,0.703125 1.67578,1.640625 0,0.691406 -0.39844,1.289062 -1.14844,1.722656 l -1.10156,0.65625 c -1.78125,1.019531 -2.29687,1.828125 -2.39062,3.726562 h 5.66015 z m -0.36328,61.81641 h -4.38281 l -0.64453,4.6289 h 0.97265 c 0.49219,-0.58593 0.90235,-0.78515 1.57032,-0.78515 1.14843,0 1.85156,0.77343 1.85156,2.03906 0,1.21875 -0.70313,1.96875 -1.86328,1.96875 -0.91407,0 -1.48828,-0.46875 -1.73438,-1.42969 h -1.05469 c 0.14063,0.69141 0.25782,1.03125 0.51563,1.34766 0.48047,0.64453 1.34766,1.01953 2.29687,1.01953 1.72266,0 2.91797,-1.25391 2.91797,-3.05859 0,-1.67579 -1.11328,-2.82422 -2.74218,-2.82422 -0.59766,0 -1.07813,0.15234 -1.57032,0.51562 l 0.32813,-2.3789 h 3.53906 z M 183.30563,8.6425 c -0.79688,0 -1.51172,0.3515625 -1.95703,0.9492188 -0.55079,0.7617192 -0.83204,1.9101562 -0.83204,3.5273442 0,2.917968 0.96094,4.476562 2.78907,4.476562 1.79297,0 2.77734,-1.558594 2.77734,-4.40625 0,-1.6875 -0.25781,-2.8125 -0.82031,-3.5976562 C 184.81735,8.9823438 184.1025,8.6425 183.30563,8.6425 Z m 0,0.9375 c 1.13672,0 1.69922,1.160156 1.69922,3.515625 0,2.460938 -0.55079,3.621094 -1.72266,3.621094 -1.125,0 -1.6875,-1.207031 -1.6875,-3.585938 0,-2.390625 0.5625,-3.550781 1.71094,-3.550781 z m 2.76562,41.332031 h -4.47656 c 0.10547,-0.726562 0.49219,-1.171875 1.53516,-1.816406 l 1.20703,-0.667969 c 1.18359,-0.65625 1.79297,-1.546875 1.79297,-2.613281 0,-0.726562 -0.28125,-1.394531 -0.78516,-1.863281 -0.50391,-0.457031 -1.13672,-0.667969 -1.93359,-0.667969 -1.07813,0 -1.88672,0.375 -2.35547,1.125 -0.29297,0.457031 -0.4336,0.996094 -0.45703,1.875 h 1.05468 c 0.0352,-0.597656 0.11719,-0.9375 0.25782,-1.230469 0.26953,-0.527343 0.82031,-0.855468 1.46484,-0.855468 0.96094,0 1.67578,0.703125 1.67578,1.640625 0,0.691406 -0.39844,1.289062 -1.14844,1.722656 l -1.10156,0.65625 c -1.78125,1.019531 -2.29687,1.828125 -2.39062,3.726562 h 5.66015 z m -3.42187,49.004883 h 0.57422 c 1.16015,0 1.76953,0.539066 1.76953,1.582036 0,1.08984 -0.65625,1.75781 -1.75782,1.75781 -1.16015,0 -1.72265,-0.58594 -1.79296,-1.86328 h -1.05469 c 0.0469,0.6914 0.16406,1.14843 0.375,1.53515 0.43359,0.84375 1.26562,1.26563 2.42578,1.26563 1.75781,0 2.88281,-1.06641 2.88281,-2.70703 0,-1.10157 -0.42187,-1.699222 -1.4414,-2.062503 0.79687,-0.328125 1.19531,-0.925782 1.19531,-1.804688 0,-1.488281 -0.97266,-2.378906 -2.60156,-2.378906 -1.71094,0 -2.625,0.960937 -2.66016,2.789062 h 1.05469 c 0.0117,-0.527343 0.0586,-0.820312 0.19922,-1.089843 0.23437,-0.492188 0.76171,-0.785157 1.41796,-0.785157 0.9375,0 1.5,0.574219 1.5,1.5 0,0.621094 -0.21093,0.984375 -0.67968,1.195313 -0.28125,0.117187 -0.66797,0.164062 -1.40625,0.175781 z m 0,34.640626 h 0.57422 c 1.16015,0 1.76953,0.53906 1.76953,1.58203 0,1.08984 -0.65625,1.75781 -1.75782,1.75781 -1.16015,0 -1.72265,-0.58593 -1.79296,-1.86328 h -1.05469 c 0.0469,0.69141 0.16406,1.14844 0.375,1.53516 0.43359,0.84375 1.26562,1.26562 2.42578,1.26562 1.75781,0 2.88281,-1.0664 2.88281,-2.70703 0,-1.10156 -0.42187,-1.69922 -1.4414,-2.0625 0.79687,-0.32812 1.19531,-0.92578 1.19531,-1.80469 0,-1.48828 -0.97266,-2.3789 -2.60156,-2.3789 -1.71094,0 -2.625,0.96094 -2.66016,2.78906 h 1.05469 c 0.0117,-0.52734 0.0586,-0.82031 0.19922,-1.08984 0.23437,-0.49219 0.76171,-0.78516 1.41796,-0.78516 0.9375,0 1.5,0.57422 1.5,1.5 0,0.62109 -0.21093,0.98438 -0.67968,1.19531 -0.28125,0.11719 -0.66797,0.16407 -1.40625,0.17578 z m 18.05859,-47.812501 h -4.38281 l -0.64453,4.628906 h 0.97265 c 0.49219,-0.585937 0.90235,-0.785156 1.57032,-0.785156 1.14843,0 1.85156,0.773438 1.85156,2.039063 0,1.21875 -0.70313,1.96875 -1.86328,1.96875 -0.91407,0 -1.48828,-0.46875 -1.73438,-1.429688 h -1.05469 c 0.14063,0.691406 0.25782,1.03125 0.51563,1.347656 0.48047,0.644532 1.34766,1.019532 2.29687,1.019532 1.72266,0 2.91797,-1.253907 2.91797,-3.058594 0,-1.675781 -1.11328,-2.824219 -2.74218,-2.824219 -0.59766,0 -1.07813,0.152344 -1.57032,0.515625 l 0.32813,-2.378906 h 3.53906 z m 0,17.320311 h -4.38281 l -0.64453,4.62891 h 0.97265 c 0.49219,-0.58594 0.90235,-0.78516 1.57032,-0.78516 1.14843,0 1.85156,0.77344 1.85156,2.03906 0,1.21875 -0.70313,1.96875 -1.86328,1.96875 -0.91407,0 -1.48828,-0.46875 -1.73438,-1.42968 h -1.05469 c 0.14063,0.6914 0.25782,1.03125 0.51563,1.34765 0.48047,0.64453 1.34766,1.01953 2.29687,1.01953 1.72266,0 2.91797,-1.2539 2.91797,-3.05859 0,-1.67578 -1.11328,-2.82422 -2.74218,-2.82422 -0.59766,0 -1.07813,0.15235 -1.57032,0.51563 l 0.32813,-2.37891 h 3.53906 z m 15,-77.941405 h -4.38281 l -0.64453,4.628907 h 0.97265 c 0.49219,-0.585938 0.90235,-0.785157 1.57032,-0.785157 1.14843,0 1.85156,0.773438 1.85156,2.039063 0,1.21875 -0.70313,1.96875 -1.86328,1.96875 -0.91407,0 -1.48828,-0.46875 -1.73438,-1.429688 h -1.05469 c 0.14063,0.691407 0.25782,1.03125 0.51563,1.347657 0.48047,0.644531 1.34766,1.019531 2.29687,1.019531 1.72266,0 2.91797,-1.253906 2.91797,-3.058594 0,-1.675781 -1.11328,-2.824219 -2.74218,-2.824219 -0.59766,0 -1.07813,0.152344 -1.57032,0.515625 l 0.32813,-2.378906 h 3.53906 z m 0.36328,42.105469 h -4.47656 c 0.10547,-0.726562 0.49219,-1.171875 1.53516,-1.816406 l 1.20703,-0.667969 c 1.18359,-0.65625 1.79297,-1.546875 1.79297,-2.613281 0,-0.726563 -0.28125,-1.394531 -0.78516,-1.863281 -0.50391,-0.457032 -1.13672,-0.667969 -1.93359,-0.667969 -1.07813,0 -1.88672,0.375 -2.35547,1.125 -0.29297,0.457031 -0.4336,0.996094 -0.45703,1.875 h 1.05468 c 0.0352,-0.597656 0.11719,-0.9375 0.25782,-1.230469 0.26953,-0.527344 0.82031,-0.855469 1.46484,-0.855469 0.96094,0 1.67578,0.703125 1.67578,1.640625 0,0.691407 -0.39844,1.289063 -1.14844,1.722657 l -1.10156,0.65625 c -1.78125,1.019531 -2.29687,1.828125 -2.39062,3.726562 h 5.66015 z m -2.14453,50.906246 v 2.09766 h 1.05469 v -2.09766 h 1.2539 v -0.94921 h -1.2539 v -5.625 h -0.78516 l -3.85547,5.46093 v 1.11328 z m 0,-0.94921 h -2.66016 l 2.66016,-3.83204 z m 0,0"
       style="fill:#000000;fill-opacity:1;fill-rule:nonzero;stroke:none"
       aria-label="1&#10;5&#10; &#10; &#10;2&#10;5&#10; &#10; &#10; &#10;1&#10; &#10; &#10; &#10; &#10;1&#10; &#10;1&#10; &#10;3&#10; &#10;4&#10;4&#10;2&#10; &#10;4&#10; &#10; &#10; &#10; &#10; &#10; &#10; &#10;3&#10;4&#10; &#10; &#10; &#10; &#10; &#10; &#10; &#10;3&#10; &#10; &#10;5&#10;5&#10; &#10; &#10; &#10; &#10; &#10; &#10; &#10;3&#10; &#10;0&#10; &#10; &#10;0&#10; &#10;0&#10; &#10;0&#10; &#10; &#10;3&#10; &#10; &#10;2&#10;1&#10; &#10; &#10; &#10; &#10; &#10; &#10; &#10; &#10;2&#10; &#10;3&#10; &#10; &#10; &#10;2&#10; &#10;0&#10; &#10; &#10;5&#10; &#10;0&#10; &#10; &#10;5&#10; &#10;2&#10; &#10;5&#10; &#10; &#10; &#10;3&#10; &#10; &#10; &#10;3&#10;3&#10; &#10; &#10; &#10; &#10;2&#10; &#10; &#10;2&#10;2&#10;5&#10;4&#10;0&#10; &#10; &#10; &#10; &#10;0&#10;2&#10; &#10; &#10; &#10;5&#10; &#10; &#10;0&#10; &#10;2&#10; &#10; &#10;3&#10; &#10;3&#10; &#10; &#10; &#10; &#10; &#10; &#10;5&#10;5&#10; &#10; &#10;5&#10; &#10;2&#10; &#10; &#10;4"
       transform="matrix(1.3333333,0,0,1.3333333,28.885467,114.22667)" />
    <path
       id="path17"
       d="m 200,1900 h 100 l 50,-86.6 h 100 l 50,86.6 h 100 l 50,-86.6 h 100 l 50,86.6 -50,86.6 50,86.6 -50,86.6 50,86.6 -50,86.6 50,86.6 h 100 l 50,86.6 h 100 l 50,-86.6 -50,-86.6 H 950 l -50,-86.6 50,-86.6 -50,-86.6 50,-86.6 -50,-86.6 50,-86.6 -50,-86.6 50,-86.6 -50,-86.6 50,-86.6 -50,-86.6 50,-86.6 h 100 l 50,-86.6 h 100 l 50,-86.6 h 100 l 50,-86.6 -50,-86.602 50,-86.597 h 100 l 50,86.597 -50,86.602 50,86.6 h 100 l 50,86.6 -50,86.6 50,86.6 -50,86.6 50,86.6 -50,86.6 h -100 l -50,86.6 h -100 l -50,86.6 50,86.6 h 100 l 50,-86.6 h 100 l 50,86.6 h 100 l 50,-86.6 -50,-86.6 50,-86.6 h 100 l 50,-86.6 h 100 l 50,-86.6 h 100 l 50,86.6 -50,86.6 50,86.6 h 100 l 50,-86.6 -50,-86.6 50,-86.6 -50,-86.6 h -100 l -50,-86.6 h -100 l -50,-86.6 h -100 l -50,-86.6 h -100 l -50,-86.6 50,-86.602 h 100 l 50,-86.597 h 100 l 50,-86.602 h 100 l 50,86.602 -50,86.597 h -100 l -50,86.602 50,86.6 h 100 l 50,-86.6 h 100 l 50,-86.602 -50,-86.597 50,-86.602 -50,-86.597 H 2300 L 2250,601 h -100 l -50,86.602 h -100 l -50,86.597 h -100 l -50,86.602 h -100 l -50,-86.602 50,-86.597 h 100 L 1850,601 h 100 l 50,-86.602 -50,-86.597 h -100 l -50,86.597 H 1700 L 1650,601 h -100 l -50,-86.602 h -100 l -50,-86.597 50,-86.602 h 100 L 1550,254.602 1500,168 h -100 l -50,86.602 h -100 l -50,86.597 50,86.602 -50,86.597 50,86.602 -50,86.602 50,86.597 -50,86.602 50,86.597 -50,86.602 h -100 l -50,86.6 H 950 L 900,1034 H 800 L 750,947.398 800,860.801 750,774.199 800,687.602 750,601 800,514.398 h 100 l 50,-86.597 -50,-86.602 H 800 l -50,86.602 H 650 l -50,86.597 H 500 L 450,601 l 50,86.602 h 100 l 50,86.597 -50,86.602 50,86.597 -50,86.602 50,86.6 -50,86.6 H 500 l -50,-86.6 H 350 L 300,1034 H 200 l -50,86.6 50,86.6 h 100 l 50,86.6 h 100 l 50,86.6 h 100 l 50,-86.6 h 100 l 50,86.6 -50,86.6 50,86.6 -50,86.6 H 650 l -50,86.6 H 500 l -50,-86.6 H 350 l -50,86.6 H 200 l -50,86.6 50,86.6"
       style="fill:none;stroke:#000000;stroke-width:16;stroke-linecap:butt;stroke-linejoin:miter;stroke-miterlimit:10;stroke-dasharray:none;stroke-opacity:1"
       transform="matrix(0.13333333,0,0,-0.13333333,0,373.33333)" />
  </g>
</svg>
