<?xml version="1.0" encoding="UTF-8"?>
<svg width="1087.1" height="708.81" version="1.1" viewBox="0 0 1087.1 708.81" xml:space="preserve" xmlns="http://www.w3.org/2000/svg" xmlns:xlink="http://www.w3.org/1999/xlink"><defs><linearGradient id="n" x1="874.71" x2="874.97" y1="650.34" y2="455.47" gradientUnits="userSpaceOnUse"><stop stop-color="#f6ffff" stop-opacity="0" offset="0"/><stop stop-color="#005454" stop-opacity=".53539" offset="1"/></linearGradient><linearGradient id="m" x1="679.25" x2="825.53" y1="412.07" y2="412.07" gradientTransform="translate(228.98 -17.778)" gradientUnits="userSpaceOnUse"><stop stop-color="#e3f5ff" stop-opacity=".52125" offset="0"/><stop stop-color="#fff" stop-opacity="0" offset="1"/></linearGradient><linearGradient id="l" x1="679.25" x2="825.53" y1="412.07" y2="412.07" gradientTransform="matrix(.97835 -.17076 .25083 .97835 -25.31 109.3)" gradientUnits="userSpaceOnUse"><stop stop-color="#e3f5ff" stop-opacity=".62606" offset="0"/><stop stop-color="#fff" stop-opacity="0" offset="1"/></linearGradient><linearGradient id="k" x1="679.25" x2="825.53" y1="412.07" y2="412.07" gradientTransform="matrix(.99924 -.032072 .047113 .99924 142.59 16.578)" gradientUnits="userSpaceOnUse"><stop stop-color="#e3f5ff" stop-opacity=".68839" offset="0"/><stop stop-color="#fff" stop-opacity="0" offset="1"/></linearGradient><linearGradient id="j" x1="679.25" x2="825.53" y1="412.07" y2="412.07" gradientUnits="userSpaceOnUse"><stop stop-color="#e3f5ff" stop-opacity=".66606" offset="0"/><stop stop-color="#fff" stop-opacity="0" offset="1"/></linearGradient><linearGradient id="i" x1="679.25" x2="825.53" y1="412.07" y2="412.07" gradientTransform="matrix(.98211 -.15537 .22823 .98211 31.332 147.02)" gradientUnits="userSpaceOnUse"><stop stop-color="#e3f5ff" stop-opacity=".58924" offset="0"/><stop stop-color="#fff" stop-opacity="0" offset="1"/></linearGradient><linearGradient id="h" x1="717.1" x2="777.39" y1="387" y2="438.38" gradientTransform="matrix(-.48519 .72146 -1.0598 -.48519 1641.1 128.87)" gradientUnits="userSpaceOnUse"><stop stop-color="#e3f5ff" stop-opacity=".60073" offset="0"/><stop stop-color="#fff" stop-opacity="0" offset="1"/></linearGradient><linearGradient id="g" x1="679.25" x2="825.53" y1="412.07" y2="412.07" gradientTransform="matrix(.97663 -.17734 .2605 .97663 -172.04 168.92)" gradientUnits="userSpaceOnUse"><stop stop-color="#e3f5ff" stop-opacity=".66606" offset="0"/><stop stop-color="#fff" stop-opacity="0" offset="1"/></linearGradient><linearGradient id="f" x1="733.6" x2="824.62" y1="386.57" y2="431.87" gradientTransform="matrix(.936 -.29042 .42662 .936 -126.15 318.91)" gradientUnits="userSpaceOnUse"><stop stop-color="#e3f5ff" stop-opacity=".57507" offset="0"/><stop stop-color="#fff" stop-opacity="0" offset="1"/></linearGradient><linearGradient id="e" x1="733.6" x2="824.62" y1="386.57" y2="431.87" gradientTransform="matrix(.96643 -.21197 .31138 .96643 -169.63 260.55)" gradientUnits="userSpaceOnUse"><stop stop-color="#e3f5ff" stop-opacity=".66606" offset="0"/><stop stop-color="#fff" stop-opacity="0" offset="1"/></linearGradient><linearGradient id="d" x1="679.25" x2="825.53" y1="412.07" y2="412.07" gradientTransform="matrix(.64437 -.57605 .92795 .5876 30.353 688.24)" gradientUnits="userSpaceOnUse"><stop stop-color="#e3f5ff" stop-opacity=".66606" offset="0"/><stop stop-color="#fff" stop-opacity="0" offset="1"/></linearGradient><linearGradient id="c" x1="729.52" x2="822.98" y1="430.41" y2="376.85" gradientTransform="matrix(-.047285 .82415 -1.2107 -.047285 1604.4 -155.86)" gradientUnits="userSpaceOnUse"><stop stop-color="#e3f5ff" stop-opacity=".60073" offset="0"/><stop stop-color="#fff" stop-opacity="0" offset="1"/></linearGradient><linearGradient id="b" x1="729.52" x2="822.98" y1="430.41" y2="376.85" gradientTransform="matrix(-.047285 .82415 -1.2107 -.047285 1526.9 -135.88)" gradientUnits="userSpaceOnUse"><stop stop-color="#e3f5ff" stop-opacity=".50425" offset="0"/><stop stop-color="#fff" stop-opacity="0" offset="1"/></linearGradient><linearGradient id="a" x1="823.85" x2="778.22" y1="489.4" y2="435.98" gradientTransform="matrix(-.047285 .82415 -1.2107 -.047285 1526.9 -135.88)" gradientUnits="userSpaceOnUse"><stop stop-color="#e3f5ff" stop-opacity=".60073" offset="0"/><stop stop-color="#fff" stop-opacity="0" offset="1"/></linearGradient></defs><g transform="matrix(.82613 0 0 1.0013 -212.05 -161.23)"><g transform="matrix(2.2009 0 0 2.2009 -983.72 -580.67)"><path d="m568.91 396.34c-5.4167 17.827 1.1798 41.612 6.0037 61.938 6.9674 29.357 18.159 58.206 32.864 85.551 12.709 23.634 25.683 48.341 47.383 66.994 11.575 9.9493 28.933 18.075 42.239 22.298 26.658 8.4607 44.242 15.069 72.528 19.367 28.285 4.2979 57.356 2.5752 85.901 3.379 50.714 1.428 106.88 0.58565 155.36-15.293 29.674-9.7207 57.928-25.882 76.99-47.014 23.694-26.267 30.221-71.304 40.372-92.41 12.426-25.835 11.677-24.421 17.816-49.717 7.7043-31.745 16.285-55.22 9.4041-68.017-8.0291-14.932-38.222 4.2249-57.437 5.432-26.58 1.6697-53.634 6.9349-79.912 2.4973-22.134-3.7378-40.521-22.166-62.886-24.09-22.01-1.8935-43.156 9.689-65.028 12.789-26.032 3.6898-52.408 9.3642-78.575 6.8858-12.557-1.1893-23.188-9.8766-35.819-10.268-27.521-0.85352-52.489 14.964-79.86 17.476-29.797 2.7354-59.955-4.3085-89.88-2.7935-12.625 0.63913-34.383-5.128-37.459 4.9945z" fill="url(#n)" fill-opacity=".64642" stroke="#6a6e6e" stroke-linejoin="round" stroke-width="4"/><ellipse transform="matrix(.90222 .43128 -.57467 .81839 0 0)" cx="917.05" cy="186.23" rx="56.373" ry="36.826" fill="#09881a"/><ellipse transform="matrix(.97255 -.23269 .33158 .94343 0 0)" cx="646.18" cy="769.81" rx="58.048" ry="35.458" fill="#ff8610"/><ellipse transform="matrix(.98878 -.14936 .21662 .97626 0 0)" cx="824.04" cy="704.32" rx="58.475" ry="35.094" fill="#e5d40f"/><ellipse transform="matrix(.22125 -.97522 .98828 .15263 0 0)" cx="-355.7" cy="1142.7" rx="48.882" ry="41.986" fill="#520769"/><ellipse transform="matrix(.99289 .11902 -.17342 .98485 0 0)" cx="868.85" cy="469.09" rx="58.586" ry="34.999" fill="#e5d40f"/><ellipse transform="matrix(.8641 -.50332 .65013 .75982 0 0)" cx="393.87" cy="974.53" rx="55.572" ry="37.449" fill="#ff1148"/><ellipse transform="matrix(-.99461 -.10364 .1513 -.98849 0 0)" cx="-879.98" cy="-451.17" rx="58.633" ry="34.959" fill="#520769"/><ellipse transform="matrix(.98358 .18049 -.26027 .96554 0 0)" cx="1014.4" cy="392.06" rx="58.336" ry="35.213" fill="#09881a"/><g fill="none" stroke="#000" stroke-linejoin="round" stroke-width="4.398"><path d="m848.66 411.52 11.756 13.227 24.581 18.518 28.856 6.1725 14.695 4.8498-23.779 29.54 23.245 17.195 48.895-25.131-30.459-36.153 12.29-16.754-11.756-16.754-22.443-22.926-36.337-8.8179-27.787 5.2907-37.94-8.377-28.188 14.66 10.287 19.069 24.18-0.33067 15.63-12.676z"/><path d="m857.21 380.66-14.962 11.463m-20.306-18.518-8.5499 11.463-3.2062 15.872-5.3437 4.4089"/><path d="m908.5 479.42 22.443-18.518 16.031-2.6454 17.1 10.581 14.962 8.8179-32.062-35.272-1.0687-19.399-14.962 13.227-17.1-3.5272-4.8093 10.581 18.703 7.9361z"/></g><ellipse transform="matrix(.87453 .48497 -.63158 .77531 0 0)" cx="1043.6" cy="-130.52" rx="55.784" ry="37.286" fill="#ff1148" stroke="#ffa6b9" stroke-linejoin="round" stroke-width="4.4329"/><path d="m947.8 375.98s20.064-1.5435 29.709 0.31057c12.853 2.4706 25.08 7.6373 35.733 14.064 6.3068 3.805 12.109 8.5331 16.031 14.109 2.4321 3.4578 3.5545 7.5098 4.275 11.463 0.2649 1.4533 0.47 2.9914 0 4.4089-0.9763 2.9446-5.6503 7.8829-5.6503 7.8829" fill="none" stroke="#ffa6b9" stroke-linejoin="round" stroke-width="4.398"/><path d="m963.6 390.25s14.358-1.8706 18.137-1.8706c3.7785 0 23.427 10.6 23.427 10.6l13.603 11.223 3.7784 9.9763-12.847 3.7411-15.87-1.8706s-3.7785-4.3646-9.8243-12.47c-6.0456-8.1057-10.58-16.211-14.358-16.211s-6.0457-3.1176-6.0457-3.1176z" fill="#fcffd4" fill-opacity=".48493"/><path d="m982.49 369.05s19.648 9.3528 22.671 9.9763c3.0227 0.62352 22.671 13.094 25.694 16.211s8.3128 16.835 8.3128 16.835l3.7786-1.247-3.7786-10.6s-13.603-17.458-16.626-18.706c-3.0227-1.247-18.137-9.9763-21.16-10.6-3.0229-0.62352-18.893-1.8706-18.893-1.8706z" fill="#fcffd4" fill-opacity=".48493"/><path d="m913.67 375.58 27.206 4.9881c-6.8252 7.6861-3.086 19.36 0 28.682 0 0 9.0132 13.154 15.114 18.706 4.8098 4.3766 16.626 11.223 16.626 11.223l46.098 3.1176 32.496-23.07s-1.9227-14.786-6.0457-21.2c-6.0984-9.4856-15.544-17.835-26.45-23.694-11.149-5.9886-24.515-9.8306-37.786-10.6-8.0218-0.46494-23.702 3.7098-23.702 3.7098l-12.091-22.447c-0.13033 9.7122-6.4309 10.222-16.626 4.9882v6.8587s3.0228 8.1057-9.0685 5.6117c-12.091-2.4941-15.114-9.9763-10.58-1.247 2.2671 4.3646 7.5571 6.8587 6.9903 10.132s-2.181 4.2401-2.181 4.2401z" fill="url(#m)" stroke="#fff" stroke-linejoin="round" stroke-opacity=".81021" stroke-width="2.199"/><ellipse transform="matrix(.97294 .23105 -.32938 .9442 0 0)" cx="916.37" cy="188.72" rx="58.058" ry="35.45" fill="#e5d40f" stroke="#ffee79" stroke-linejoin="round" stroke-width="4.4096"/><path d="m778.67 367.45s12.864-5.0029 19.805-5.6694c10.402-0.99887 21.363-0.19732 31.253 2.6454 10.261 2.9495 19.169 8.6928 27.474 14.474 6.6304 4.6154 13.116 9.7171 17.498 15.894" fill="none" stroke="#ffee79" stroke-linejoin="round" stroke-width="4.398"/><path d="m795.83 369.68 18.137-2.4941s7.5571 2.4941 10.58 3.7411c3.0229 1.247 26.45 11.847 26.45 11.847l6.8013 12.47-6.8013 6.2352-17.381 3.7411-14.358-10.6s-11.336-8.7292-15.114-9.9763c-3.7786-1.247-15.114-0.62353-15.114-0.62353z" fill="#fcffd4" fill-opacity=".48493"/><path d="m834.38 360.95 39.297 25.564 3.7786-4.3646-30.228-20.576z" fill="#fcffd4" fill-opacity=".48493"/><path d="m743.23 377.23 27.868-0.38886c-4.7495 8.6852 1.837 20.092 7.1944 28.684 0 0 12.118 11.33 19.479 15.72 5.8035 3.4605 19.081 8.1414 19.081 8.1414l45.882-4.8214 26.005-28.119s-3.2704-11.808-7.4538-16.591c-7.765-8.8769-18.921-16.125-31.065-20.535-12.467-4.5276-26.81-6.1183-40.382-5.1653-8.803 0.6181-25.129 6.9536-25.129 6.9536l-14.437-23.014c1.1806 4.8704-2.0882 14.521-4.8582 15.634-2.6468 1.0638-4.6412-6.2634-10.156-7.915l1.7204 6.7102s3.4792 3.673-8.976 3.2976c-12.455-0.37542-15.778-3.4384-9.1523 4.3276 3.3128 3.883 4.5796 6.0433 4.8462 9.3427s-0.46702 7.7378-0.46702 7.7378z" fill="url(#l)" stroke="#fff" stroke-linejoin="round" stroke-opacity=".81021" stroke-width="2.199"/><ellipse transform="matrix(.86378 .50386 -.65068 .75936 0 0)" cx="990.68" cy="-109.03" rx="55.566" ry="37.454" fill="#09881a" stroke="#46ab33" stroke-linejoin="round" stroke-width="4.4342"/><path d="m897.28 379.34s-3.2013 11.236-1.1447 16.464c3.6459 9.2693 13.808 15.969 22.416 22.642 6.7429 5.2281 14.664 9.3629 22.547 13.36 5.871 2.9763 18.344 7.8631 18.344 7.8631" fill="none" stroke="#46ab33" stroke-linejoin="round" stroke-width="4.398"/><path d="m912.97 387.14h18.893s13.603 6.8587 16.626 10.6c3.0228 3.7411 15.87 18.706 15.87 18.706l3.0229 13.094-14.358-1.247s-6.8013-0.62351-9.8242-11.223-4.5343-16.835-11.336-18.082c-6.8014-1.247-24.183-11.223-24.183-11.223z" fill="#fcffd4" fill-opacity=".48493"/><path d="m881.79 385.95s-3.0413 14.414 0.23713 20.798c6.9992 13.628 24.246 21.999 38.313 31.184 7.8532 5.1275 25.45 13.174 25.45 13.174" fill="none" stroke="#46ab33" stroke-linejoin="round" stroke-width="4.398"/><path d="m887.27 405.22 15.87 14.341 12.091 9.9763 11.336 3.7411s3.7786-3.1176 0.7558-4.3646c-3.0228-1.247-16.626-12.47-20.404-14.964-3.7784-2.4941-14.358-13.717-14.358-13.717h-4.5342z" fill="#fcffd4" fill-opacity=".48493"/><path d="m867.74 390.33 7.776 1.7337c-6.4579 7.8992-4.9709 19.177-1.4481 28.393 0 0 9.6262 12.855 15.984 18.207 5.0124 4.219 17.142 10.682 17.142 10.682l33.363 15.978 40.453-35.318s-0.0748-10.683-2.4418-15.52c-4.9788-10.175-12.561-19.467-23.774-26.436-5.0343-3.1291-12.837-6.6516-19.568-8.7751s-14.655-3.1596-21.446-4.4333c-4.1282-0.77441-12.675 1.2038-12.675 1.2038l1.2944-20.521c0.16739 4.9649-5.0285 14.022-7.9865 14.733-2.8265 0.67996-3.2934-6.8199-8.3915-9.2157l0.32313 6.8535s2.6779 4.1048-9.5218 2.0004c-12.2-2.1044-14.848-5.5861-9.9062 2.9911 2.471 4.2886 3.2778 6.5943 2.8656 9.8835s-2.0431 7.5618-2.0431 7.5618z" fill="url(#k)" stroke="#fff" stroke-linejoin="round" stroke-opacity=".81021" stroke-width="2.199"/><g><ellipse transform="matrix(.87453 .48497 -.63158 .77531 0 0)" cx="875.04" cy="-.07465" rx="55.784" ry="37.286" fill="#520769" stroke="#c596bb" stroke-linejoin="round" stroke-width="4.4329"/><path d="m746.71 392.75c5.29-1.247 19.648 0.62352 19.648 0.62352l10.58 6.8587 10.58 7.4822 3.0229 11.847-12.091-4.9881-10.58-11.223-26.45-7.4822z" fill="#fcffd4" fill-opacity=".48493"/><path d="m723.06 391.44s4.3337 16.298 8.5499 23.808c4.0046 7.1336 9.1337 14.001 15.652 19.735 6.0927 5.3597 12.953 10.835 21.375 13.227 6.0101 1.7068 19.065 0.30674 19.065 0.30674" fill="none" stroke="#c596bb" stroke-linejoin="round" stroke-width="4.398"/><path d="m724.04 415.82s11.336 14.341 12.091 16.835c0.75571 2.4941 9.0686 11.223 9.0686 11.223s-5.29 4.3646-9.0686-0.62352c-3.7785-4.9882-11.336-14.341-12.847-16.835-1.5114-2.4941-3.0228-13.094 0.7557-10.6z" fill="#fcffd4" fill-opacity=".48493"/><path d="m684.69 393.36 27.206 4.9881c-6.8252 7.6861-3.086 19.36 0 28.682 0 0 9.0132 13.154 15.114 18.706 4.8098 4.3766 16.626 11.223 16.626 11.223l46.098 3.1176 32.496-23.07s-1.9226-14.786-6.0457-21.2c-6.0984-9.4856-15.544-17.835-26.45-23.694-11.149-5.9886-24.62-9.026-37.785-10.6-6.2375-0.74561-18.893 0.62352-18.893 0.62352l-12.091-22.447c-0.13033 9.7122-6.4309 10.222-16.626 4.9882v6.8587s3.0228 8.1057-9.0685 5.6117c-12.091-2.4941-15.114-9.9763-10.58-1.247 2.2671 4.3646 7.5571 6.8587 6.9903 10.132s-6.9903 7.3263-6.9903 7.3263z" fill="url(#j)" stroke="#fff" stroke-linejoin="round" stroke-opacity=".81021" stroke-width="2.199"/></g><ellipse transform="matrix(.97294 .23105 -.32938 .9442 0 0)" cx="978.53" cy="229.55" rx="58.058" ry="35.45" fill="#ff8610" stroke="#fdb144" stroke-linejoin="round" stroke-width="4.4096"/><path d="m833.54 414.37s5.8039 9.1065 9.7725 13.024c3.0734 3.0343 6.9689 5.441 10.687 7.9361 5.141 3.4497 10.465 6.7327 16.031 9.6997 7.9055 4.214 16.133 8.0402 24.581 11.463 6.5922 2.671 20.306 7.0543 20.306 7.0543" fill="none" stroke="#fdb144" stroke-linejoin="round" stroke-width="4.398"/><path d="m846.47 415.19 14.358 13.094 9.8242 4.9882-3.7785-11.223-4.5343-10.6z" fill="#fcffd4" fill-opacity=".48493"/><path d="m829.84 423.3 6.8014 7.4822-5.2899 1.8706-6.8015-0.62351z" fill="#fcffd4" fill-opacity=".48493"/><path d="m793.55 426.97 25.185 2.4356c-4.9489 8.609 4.0596 17.73 9.2179 26.405 0 0 11.854 11.518 19.113 16.023 5.7227 3.551 18.89 8.4394 18.89 8.4394l43.313-3.2186c8.9676-7.0712 18.944 11.671 26.649-27.706 0 0-2.9647-14.856-8.1041-20.763-7.5897-8.7224-19.336-15.101-31.384-19.16-12.316-4.1493-26.239-5.0394-39.529-4.5395-6.2961 0.23684-18.412 3.5477-18.412 3.5477l-16.998-20.166c0.72893 8.4369-9.2475 6.6948-15.19 7.482 0 0 2.4794 4.7359 2.0997 7.1769-0.30087 1.9345 3.9421-1.7108-3.3506 5.1567-8.2135 7.7345-16.586-1.277-10.141 6.5916 3.2227 3.9343-1.1657 2.9165-0.97524 6.2195s-0.38385 6.0769-0.38385 6.0769z" fill="url(#i)" stroke="#fff" stroke-linejoin="round" stroke-opacity=".81021" stroke-width="2.199"/><ellipse transform="matrix(.99598 -.08962 .13104 .99138 0 0)" cx="760.03" cy="544.74" rx="58.67" ry="34.926" fill="#e5d40f" stroke="#ffee79" stroke-linejoin="round" stroke-width="4.3999"/><path d="m796.57 461.98s23.477-8.66 36.054-9.8934c16.402-1.6085 49.374 3.449 49.374 3.449" fill="none" stroke="#ffee79" stroke-linejoin="round" stroke-width="4.398"/><path d="m816.59 474.13s14.544-5.9705 22.443-7.0184c8.0973-1.0742 16.434 0.10599 24.581 0.88178 7.5627 0.72012 22.443 3.4912 22.443 3.4912" fill="none" stroke="#ffee79" stroke-linejoin="round" stroke-width="4.398"/><path d="m873.67 476.92s-27.961-3.1176-30.984-2.4941c-3.0229 0.62351-10.58 7.4822-10.58 7.4822l9.8242 3.1176z" fill="#fcffd4" fill-opacity=".48493"/><path d="m818.51 460.71 21.916-4.3646 27.961 1.247 10.58 3.7411-2.2672 1.8706-36.274-1.8706-18.893 4.9881-3.7786-2.4941z" fill="#fcffd4" fill-opacity=".48493"/><path d="m794.32 455.1 13.603-9.3528 22.671-4.9881 15.87 1.8706 3.7786 2.4941s-17.381 0.62351-20.404 0.62351-25.694 8.1057-25.694 8.1057z" fill="#fcffd4" fill-opacity=".48493"/><path d="m892 432-18.413 14.385c-14.216-8.0237-20.158-8.7258-30.47-11.094 0 0-20.129-0.35462-29.692 1.8377-11.726 2.6881-23.451 6.9422-32.597 13.566-7.3935 5.3546-8.1196 9.2322-14.865 18.577l-26.183-7.7611c2.4971 0.50551 0.36526 6.0003-2.8244 7.7614 7.2648 7.6735-2.3199 7.1316-2.6926 5.7517 4.8493 4.3129 23.865 8.7998 29.448 12.703 5.5821 3.9031 11.632 15.677 16.819 17.46 17.63 6.0582 30.666-1.0262 45.796-2.9701 19.996-2.569 47.898 2.459 59.104-11.444 4.0561-5.0329-3.6454-17.881-3.6454-17.881l28.301 1.6147c-8.3146-4.9479-0.29776-10.148 2.78-14.415 0 0-5.9946-1.4666-8.0216-3.2721-1.6063-1.4308-0.9363 3.5929-2.6479-5.4278-1.9277-10.16 11.822-9.6831 0.37111-10.647-5.7256-0.482-1.9652-2.608-5.1595-4.6052-3.1942-1.9971-5.406-4.1393-5.406-4.1393z" fill="url(#h)" stroke="#fff" stroke-linejoin="round" stroke-opacity=".81021" stroke-width="2.199"/><ellipse transform="matrix(.96751 .25285 -.3584 .93357 0 0)" cx="805.55" cy="259.94" rx="57.919" ry="35.568" fill="#09881a" stroke="#46ab33" stroke-linejoin="round" stroke-width="4.4116"/><path d="m631.79 429.15s12.79-3.5027 19.313-3.0024c13.306 1.0205 25.613 6.7436 37.352 12.011 8.6278 3.8715 16.755 8.657 23.901 14.216 4.36 3.3912 11.353 11.499 11.353 11.499" fill="none" stroke="#46ab33" stroke-linejoin="round" stroke-width="4.398"/><path d="m665.85 422.05 26.45 13.094 25.694 13.717 9.0685 8.7292 3.0228-4.9881s-0.75571-3.7411-6.8014-7.4822c-6.0457-3.7411-10.58-6.2352-18.893-10.6-8.3128-4.3646-27.961-13.717-30.984-14.341-3.0228-0.62352-6.0457-0.62352-6.0457-0.62352z" fill="#fcffd4" fill-opacity=".48493"/><path d="m645.44 416.42s11.993-2.0298 17.931-1.3145c12.991 1.565 25.2 6.6327 36.596 12.011 8.481 4.0027 16.31 9.0792 23.145 14.839 5.5664 4.6904 14.246 15.801 14.246 15.801" fill="none" stroke="#46ab33" stroke-linejoin="round" stroke-width="4.398"/><path d="m646.2 439.51 15.87-1.8706s21.916 6.8587 25.694 10.6c3.7786 3.7411 12.091 11.847 12.091 11.847s-11.336 0.62352-14.358 0.62352c-3.0228 0-11.336-11.847-18.137-13.717-6.8014-1.8705-8.3128-2.4941-13.603-2.4941h-7.5571z" fill="#fcffd4" fill-opacity=".48493"/><path d="m599.12 431.66 27.869 0.047c-4.6634 8.7168 2.0295 19.455 7.4716 28.012 0 0 12.229 11.248 19.634 15.588 5.8375 3.4213 19.161 8.0127 19.161 8.0127l45.833-5.1302c8.6915-9.1917 31.393 11.396 26.795-25.207 0 0-5.0198-16.715-11.427-23.159-8.3775-8.4256-20.652-14.3-33.073-18.008-12.509-3.7351-26.491-5.1884-39.664-3.6513-6.9136 0.80677-19.357 6.6047-19.357 6.6047l-6.9688-17.132c2.4028 9.5083-3.6177 11.124-14.938 7.8199l1.7867 6.6984s5.0637 7.3802-7.3947 7.0887c-12.458-0.29155-17.36-7.0628-10.658 0.65831 3.3511 3.8606 9.1672 5.3582 9.4664 8.6557 0.2992 3.2975-4.9184 8.3948-4.9184 8.3948z" fill="url(#g)" stroke="#fff" stroke-linejoin="round" stroke-opacity=".81021" stroke-width="2.199"/><ellipse transform="matrix(.97501 .22218 -.31743 .94828 0 0)" cx="889.8" cy="308.71" rx="58.112" ry="35.405" fill="#ff1148" stroke="#ffa6b9" stroke-linejoin="round" stroke-width="4.4088"/><path d="m727.89 475.89s10.407-4.282 16.031-5.2907c8.5684-1.5369 17.516-1.3573 26.276-1.0331 9.7072 0.35929 20.288-0.45873 28.877 3.2914 5.3292 2.327 12.124 11.075 12.124 11.075" fill="none" stroke="#ffa6b9" stroke-linejoin="round" stroke-width="4.398"/><path d="m742.18 461.96 11.336-4.3646 19.648 1.247 15.114 3.1176 4.5343 4.9881h-11.336s-18.893-1.8706-24.183-1.8706c-5.29 0-18.893-3.7411-18.893-3.7411z" fill="#fcffd4" fill-opacity=".48493"/><path d="m827.5 489.8s-3.6041-12.675-8.5703-17.414c-8.9484-8.5394-22.133-14.38-35.4-17.141-16.012-3.3324-33.944-3.0615-49.508 1.4933-5.7979 1.6968-14.746 9.1568-14.746 9.1568l-21.624-15.881c4.0214 9.1284-0.39397 8.4955-12.169 6.5571l3.9948 8.6242s8.4249 3.6228-3.9566 4.8c-12.382 1.1772-18.403-4.9483-10.435 1.9054 3.9841 3.4269 9.9995 4.225 10.866 7.4536 0.86604 3.2286-3.4173 8.8876-3.4173 8.8876l69.831 5.9713c21.705-13.872 47.769-11.558 75.134-4.4134z" fill="url(#f)" stroke="#fff" stroke-linejoin="round" stroke-opacity=".81021" stroke-width="2.199"/><g><ellipse transform="matrix(.97294 .23105 -.32938 .9442 0 0)" cx="831.88" cy="331.74" rx="58.058" ry="35.45" fill="#ff8610" stroke="#fdb144" stroke-linejoin="round" stroke-width="4.4096"/><path d="m669.11 485.59s20.123-1.526 29.925 0c8.646 1.346 17.038 4.1987 24.581 7.9361 2.8157 1.3951 7.4811 5.2907 7.4811 5.2907" fill="none" stroke="#fdb144" stroke-linejoin="round" stroke-width="4.398"/><path d="m695.32 475.68 11.336 0.62351 16.626 3.1176 13.603 11.223 0.75572 3.1176-14.358-3.7411-35.518-11.223-6.8014-4.3646z" fill="#fcffd4" fill-opacity=".48493"/><path d="m755.2 500.22s-3.289-7.8326-6.5659-10.83c-8.7173-7.9726-20.575-13.942-32.94-17.292-12.639-3.4244-26.604-3.5043-39.818-2.2345-6.2603 0.60161-18.064 4.6074-18.064 4.6074l-11.194-24.862c2.8982 9.4138-4.1007 15.21-15.583 12.313l22.442 33.964c20.831 21.542-24.332 17.894 101.72 4.3332z" fill="url(#e)" stroke="#fff" stroke-linejoin="round" stroke-opacity=".81021" stroke-width="2.199"/><ellipse transform="matrix(.99598 -.08962 .13104 .99138 0 0)" cx="848.93" cy="578.57" rx="58.67" ry="34.926" fill="#520769" stroke="#c596bb" stroke-linejoin="round" stroke-width="4.3999"/><path d="m877.76 502.84 14.714-17.247s9.6186-7.9361 16.031-9.6997c6.4124-1.7636 19.422-0.48901 19.422-0.48901" fill="none" stroke="#c596bb" stroke-linejoin="round" stroke-width="4.398"/><path d="m899.37 494.38 6.8013-9.3528 6.8015-3.7411 5.2899 6.8587-7.5571 7.4822z" fill="#fcffd4" fill-opacity=".48493"/><path d="m897.1 470.06-6.0457 5.6117-3.0228 6.2352 5.29-1.8706 12.091-8.7292 7.5572-3.7411z" fill="#fcffd4" fill-opacity=".48493"/><path d="m885.34 529.07s18.014 2.5373 27.097 2.2848c7.1606-0.19908 21.128-2.9825 21.128-2.9825l31.195-22.831c1.5635-9.265 23.64-0.71868-0.46916-32.275 0 0-13.899-8.9259-22.166-10.867-11.788-2.7678-24.891-3.0682-36.763-0.55653-12.721 2.6912-25.155 8.293-34.184 16.161-5.5323 4.8211-10.84 17.797-10.84 17.797l-29.754-13.083c7.0146 8.276 2.8972 13.452-1.1184 16.498z" fill="url(#d)" stroke="#fff" stroke-linejoin="round" stroke-opacity=".81021" stroke-width="2.1014"/></g><ellipse transform="matrix(.78534 -.61907 .75684 .6536 0 0)" cx="354.17" cy="1029.2" rx="54.118" ry="38.531" fill="#ff8610" stroke="#fdb144" stroke-linejoin="round" stroke-width="4.4385"/><path d="m1059.6 428.91-21.16 14.341-6.0458 9.3528 17.381-4.9882 19.648-14.964z" fill="#fcffd4" fill-opacity=".48493"/><path d="m1067.9 415.82-18.893 4.9881-12.091 4.9881-3.7785 4.9881 10.58-2.4941z" fill="#fcffd4" fill-opacity=".48493"/><path d="m1024.7 443.01s17.441-13.856 28.104-18.257c4.9462-2.0412 10.561-2.8564 16.031-3.5272 10.225-1.2538 30.993-0.88179 30.993-0.88179" fill="none" stroke="#fdb144" stroke-linejoin="round" stroke-width="4.398"/><path d="m1080.8 393.36c-3.5457 11.845 3.3294 11.652 6.1857 16.102-17.054-1.9926-22.758-0.44856-33.272 1.2004 0 0-18.234 7.0444-25.628 12.507-9.0662 6.6982-17.291 14.8-21.93 24.083-3.7504 7.5039-2.318 11.245-3.3436 22.089l-27.64 2.6198c2.5099-0.46019 3.5512 5.2449 1.6383 7.9902 10.635 4.2212 1.7522 7.2411 0.67665 6.1406 6.6641 2.0923 26.12-0.8409 33.221 0.61607 7.1007 1.457 18.849 9.7982 24.456 9.4988 19.058-1.0177 42.451-7.7685 57.141-19.743 9.4004-7.6631 14.584-19.156 15.753-30.016 1.0331-9.5949-8.0336-28.128-8.0336-28.128l18.754-13.754-7.3903-0.71111s-6.1613 2.6414-8.9483 1.7644c2.3258-20.025 0.8745 2.914-9.2267-11.849-0.8108-0.965-3.8685 14.378-12.413-0.41044z" fill="url(#c)" stroke="#fff" stroke-linejoin="round" stroke-opacity=".81021" stroke-width="2.199"/><ellipse transform="matrix(.78534 -.61907 .75684 .6536 0 0)" cx="287.25" cy="994.11" rx="54.118" ry="38.531" fill="#e5d40f" stroke="#ffee79" stroke-linejoin="round" stroke-width="4.4385"/><path d="m999.57 430.25s9.5407 9.7765 11.538 15.658c1.4414 4.2455 1.585 9.0163 0 13.227-2.0517 5.4502-6.987 9.9749-11.756 14.109-9.9379 8.6137-20.912 17.406-34.383 21.635-6.4539 2.0262-13.812 2.0428-20.657 1.2914-6.061-0.66537-17.292-5.0497-17.292-5.0497" fill="none" stroke="#ffee79" stroke-linejoin="round" stroke-width="4.398"/><path d="m984.76 440.13-27.961 15.588s-14.358 8.7293-15.87 15.588c-1.5114 6.8587-1.5114 10.6-1.5114 10.6l15.87 6.8587s5.2901-3.7411 5.2901-8.7292c0-4.9882 15.114-16.211 15.114-16.211l17.381-11.223-4.5343-12.47z" fill="#fcffd4" fill-opacity=".48493"/><path d="m1018.3 409.81-8.7766 19.629c-17.054-1.9926-22.758-0.44856-33.273 1.2004 0 0-18.234 7.0444-25.628 12.507-9.0663 6.6982-17.291 14.8-21.931 24.083-3.7504 7.5039-2.3179 11.245-3.3435 22.089l-27.64 2.6198c2.5099-0.46019 3.5512 5.2449 1.6383 7.9902 10.635 4.2212 1.7522 7.2411 0.67665 6.1406 6.6641 2.0923 26.12-0.8409 33.221 0.61607s18.849 9.7982 24.457 9.4988c19.058-1.0177 42.452-7.7685 57.141-19.743 9.4004-7.6631 12.902-19.37 15.753-30.016 1.4145-5.2823 0.5163-16.224 0.5163-16.224l26.235-8.9037c-10.111-1.3941-5.719-8.9872-5.2528-13.938 0 0-6.1613 0.87787-8.9483 8.8e-4 -2.2086-0.69502 1.0911 3.5631-5.2897-3.8968-7.1864-8.4018 5.3947-13.004-5.3878-9.6796-5.3912 1.6621-3.1628-1.619-7.0991-2.2409-3.9362-0.6219-7.0697-1.7331-7.0697-1.7331z" fill="url(#b)" stroke="#fff" stroke-linejoin="round" stroke-opacity=".81021" stroke-width="2.199"/><path d="m1018.3 409.81-8.7766 19.629c-17.054-1.9926-22.758-0.44856-33.273 1.2004 0 0-18.234 7.0444-25.628 12.507-9.0663 6.6982-17.291 14.8-21.931 24.083-3.7504 7.5039-2.3179 11.245-3.3435 22.089l-27.64 2.6198c2.5099-0.46019 3.5512 5.2449 1.6383 7.9902 10.635 4.2212 1.7522 7.2411 0.67665 6.1406 6.6641 2.0923 26.12-0.8409 33.221 0.61607s18.849 9.7982 24.457 9.4988c19.058-1.0177 42.452-7.7685 57.141-19.743 9.4004-7.6631 12.902-19.37 15.753-30.016 1.4145-5.2823 0.5163-16.224 0.5163-16.224l26.235-8.9037c-10.111-1.3941-5.719-8.9872-5.2528-13.938 0 0-6.1613 0.87787-8.9483 8.8e-4 -2.2086-0.69502 1.0911 3.5631-5.2897-3.8968-7.1864-8.4018 5.3947-13.004-5.3878-9.6796-5.3912 1.6621-3.1628-1.619-7.0991-2.2409-3.9362-0.6219-7.0697-1.7331-7.0697-1.7331z" display="none" fill="url(#a)" stroke="#fff" stroke-linejoin="round" stroke-opacity=".81021" stroke-width="2.199"/><g fill="none" stroke="#bec6c6" stroke-linejoin="round"><path d="m1143.7 462.39 2.0894-13.805s-4.0944 11.008-5.6869 16.609c-2.1998 7.7368-5.3296 23.431-5.3296 23.431" display="none" stroke-width="3.0468"/><path d="m967.08 648.02s13.842-17.859 19.471-27.36c4.8062-8.1123 9.0678-16.503 12.129-25.173 4.7263-13.385 7.2512-27.266 9.5031-41.083 2.0731-12.72 3.6714-38.384 3.6714-38.384s7.8317 25.116 8.8983 37.98c1.3042 15.73 1.9341 32.023-3.1137 47.23-3.8256 11.524-10.133 23.102-20.075 31.791-8.1223 7.0978-30.484 14.999-30.484 14.999z" stroke-width="4.398"/><path d="m764.15 509.4c-7.9584 8.1596-15.618 16.586-22.073 25.605-4.8309 6.7498-9.6973 13.665-12.361 21.19-4.8347 13.658-7.7331 28.209-6.1804 42.38 1.0758 9.8182 5.1255 19.489 10.595 28.253 2.6682 4.2758 10.595 11.478 10.595 11.478s-7.0401-15.065-8.8292-22.956c-1.7086-7.5366-2.0843-15.295-1.7427-22.957 0.47631-10.686 1.5042-21.553 5.2744-31.784 5.6582-15.354 17.461-28.689 25.605-43.263 3.0934-5.5363 8.8292-16.775 8.8292-16.775s-6.6921 5.7328-9.7121 8.8292z" stroke-width="4.398"/><path d="m789.75 500.57s14.73 28.499 20.307 43.263c3.0016 7.9457 5.6117 16.044 7.0402 24.283 2.5541 14.73 5.3853 29.874 2.6718 44.584-2.0579 11.156-14.127 31.785-14.127 31.785s15.266-11.763 19.424-19.424c6.3428-11.685 6.8719-25.163 7.0633-37.965 0.19958-13.351-1.0112-27.078-6.1804-39.731-6.9687-17.058-32.668-46.795-32.668-46.795z" stroke-width="4.398"/><path d="m1103.3 569.36c0.611-9.5776 4.1269-32.907 5.2646-42.118s1.7865-18.333 0.442-27.556c-2.0486-14.052-15.01-40.614-15.01-40.614s18.151 18.252 22.956 29.136c4.4311 10.038 2.8272 20.936 4.7327 31.811" stroke-width="4.398"/><path d="m1068.2 611.71c-1.56-3.2891-25.123-34.819-29.1-54.352-3.2101-15.765-0.4385-32.408 4.8237-47.793 5.0444-14.748 25.086-41.05 25.086-41.05s-13.64 24.328-15.911 37.409c-2.6524 15.276-1.2432 31.195 2.9674 46.231 4.6945 16.764 24.432 47.517 24.432 47.517" stroke-width="4.398"/><path d="m853.32 533.24s-2.6949 27.587 0.30236 41.043c2.9249 13.131 9.1127 25.856 16.984 37.521 6.1434 9.1037 13.493 18.043 23.188 24.721 5.9494 4.0982 13.273 6.8396 20.633 8.8438 10.74 2.9247 33.503 4.418 33.503 4.418s-32.006-12.845-44.47-22.966c-8.7865-7.1344-13.962-16.792-20.121-25.602-7.4007-10.586-15.107-21.184-20.167-32.67-5.001-11.35-9.8518-35.308-9.8518-35.308z" stroke-width="4.398"/><path d="m715.55 524.76s-2.0809 21.633-5.574 32.026c-2.6601 7.9141-7.4434 15.241-11.586 22.709-6.3038 11.365-20.173 33.6-20.173 33.6s12.066-4.4579 16.649-8.2245c9.4513-7.7688 15.829-18.017 20.689-28.268 4.1736-8.8033 7.0866-18.327 6.9125-27.779-0.15177-8.2424-6.9172-24.063-6.9172-24.063z" stroke-width="4.398"/><path d="m600.27 482.86s2.821 28.916 6.3349 43.136c1.7049 6.8992 3.8372 13.791 7.1275 20.352 5.4167 10.8 13.097 20.887 20.591 30.947 5.196 6.9755 9.9279 14.307 16.864 20.349 4.5634 3.9747 21.267 17.501 15.956 10.174-5.3109-7.327-17.247-24.831-25.32-37.456-7.471-11.683-15.391-23.254-21.383-35.418-8.3494-16.95-20.171-52.084-20.171-52.084z" stroke-width="4.398"/></g><path d="m568.91 396.34c-2.8409 19.278 1.4152 41.575 6.0037 61.938 5.4901 24.364 13.149 48.225 25.579 71.287 8.4376 15.655 15.744 33.735 25.959 48.909s23.338 27.441 38.72 38.95c8.0978 6.0595 19.329 11.612 30.09 15.696 14.552 5.5231 27.814 7.9309 41.982 11.176 17.53 4.0152 35.092 8.3992 53.147 10.243 21.12 2.1569 39.542 0.56067 63.834 0.88619 24.292 0.32551 63.024-0.92883 87.132-1.2406 51.129-0.66118 126.15-35.673 125-39.116 15.469-9.994 31.23-34.184 31.23-34.184 10.136-22.109 15.964-37.973 30.964-79.735 6.2498-17.282 10.076-36.299 21.815-61.02 0 0 6.0481-17.769 7.2917-30.637s-2.3174-20.836-1.8871-33.131l-57.437 12.486c-5.8895 1.2803 97.448 0.16314 14.136 9.5516-4.2957 0.48408-4.2511 35.704-8.433 35.244-4.1819-0.45995-21.14 1.3173-25.242 0.1689s-26.341 28.285-30.397 26.704c-4.0561-1.5813-42.998 41.556-47.41 42.543l-75.211 16.822c-4.389 0.98165-78.687-14.721-82.809-16.068-4.1213-1.3468-23.241-13.044-27.452-13.802s-26.643-9.0924-30.978-9.005c-26.147 0.52742-45.898 24.978-71.441 23.371-26.147-1.6449-50.006-16.97-67.888-32.795-16.71-14.788-38.682-34.77-32.612-54.358 4.3377-13.998 68.631-25.702 43.044-24.849l-52.474-0.1481c-12.607 0.42022-16.093-3.1948-23.802-1.5616-4.039 0.85565-9.7568 0.9681-10.45 5.6739z" fill="#a2ffff" fill-opacity=".30536"/><path d="m1048.9 398.46c26.457 2.668 40.29-3.5289 48.671-0.64626 7.2546 2.4953 7.3271 25.709 3.0381 30.969-5.154 6.3208-9.9164-9.57-31.533 4.9717-8.1079 5.4543-16.258 15.32-23.71 21.641-12.241 10.384-22.573 23.767-36.978 30.85-27.548 13.545-59.225 18.819-89.901 19.978-26.444 0.99881-52.725-5.6661-78.575-11.326-18.221-3.9898-35.019-16.702-53.654-15.892-15.4 0.66866-27.993 13.553-43.033 16.927-13.691 3.071-28.442 6.4169-41.999 2.8002-17.399-4.6419-42.159-17.976-53.78-31.733-14.263-16.884-40.174-37.225-32.339-57.892 4.9556-13.072 63.539-14.685 63.539-14.685-77.757-2.6259-104.28-6.6443-109.77 5e-3 -3.1836-0.63672 1.7809 32.998 14.984 54.36 17.077 27.63 31.593 37.955 52.443 49.945 17.348 9.977 37.515 15.577 57.437 17.481 15.831 1.513 32.343-0.0175 47.448-4.9945 15.593-5.138 29.062-22.759 45.476-23.102 28.296-0.59101 44.801 29.905 71.895 38.086 24.819 7.4933 51.797 11.474 77.415 7.4918 31.322-4.8687 60.976-19.957 87.404-37.459 24.052-15.928 41.468-54.981 69.989-59.311 14.722-2.2352 17.701 21.74 32.399 19.355 10.458-1.6971 16.338-13.613 22.475-22.475 11.703-16.898 16.804-55.477 1.153-55.477-70.448 5.7272-47.201 9.57-88.438 14.102l-16.565-4.9e-4z" fill="#d6e2e2" stroke="#9eb0b0" stroke-linejoin="round" stroke-width="4.398"/><path d="m565.78 396.54c2.219 15.134 3.7972 41.482 9.1395 61.741 7.7082 29.231 18.159 58.206 32.864 85.551 12.709 23.634 25.479 48.503 47.383 66.994 13.451 11.355 35.88 20.721 49.185 24.943 26.658 8.4607 37.295 12.424 65.581 16.722 28.285 4.2979 49.34 2.5752 77.886 3.379 50.714 1.428 112.38 1.2722 163.37-15.293 29.708-9.65 57.928-25.882 76.99-47.014 23.694-26.267 30.221-71.304 40.372-92.41 12.426-25.835 12.727-32.516 15.171-38.154 2.0801-4.7987 6.6445-22.866 6.6445-22.866" fill="none" stroke="#6a6e6e" stroke-linecap="round" stroke-linejoin="round" stroke-width="4.398"/></g></g></svg>
