<?xml version="1.0" encoding="UTF-8" standalone="no"?>
<!-- Created with Inkscape (http://www.inkscape.org/) -->

<svg
   width="1087.0837"
   height="708.80707"
   viewBox="0 0 1087.0837 708.80707"
   version="1.1"
   id="svg1"
   xml:space="preserve"
   xmlns:xlink="http://www.w3.org/1999/xlink"
   xmlns="http://www.w3.org/2000/svg"
   xmlns:svg="http://www.w3.org/2000/svg"><defs
     id="defs1"><linearGradient
       id="linearGradient275"><stop
         style="stop-color:#f6ffff;stop-opacity:0;"
         offset="0"
         id="stop274" /><stop
         style="stop-color:#005454;stop-opacity:0.5353902;"
         offset="1"
         id="stop275" /></linearGradient><linearGradient
       id="linearGradient217"><stop
         style="stop-color:#e3f5ff;stop-opacity:0.60072595;"
         offset="0"
         id="stop216" /><stop
         style="stop-color:#ffffff;stop-opacity:0;"
         offset="1"
         id="stop217" /></linearGradient><linearGradient
       id="linearGradient215"><stop
         style="stop-color:#e3f5ff;stop-opacity:0.6660617;"
         offset="0"
         id="stop214" /><stop
         style="stop-color:#ffffff;stop-opacity:0;"
         offset="1"
         id="stop215" /></linearGradient><linearGradient
       id="linearGradient213"><stop
         style="stop-color:#e3f5ff;stop-opacity:0.6660617;"
         offset="0"
         id="stop212" /><stop
         style="stop-color:#ffffff;stop-opacity:0;"
         offset="1"
         id="stop213" /></linearGradient><linearGradient
       id="linearGradient211"><stop
         style="stop-color:#e3f5ff;stop-opacity:0.5750708;"
         offset="0"
         id="stop210" /><stop
         style="stop-color:#ffffff;stop-opacity:0;"
         offset="1"
         id="stop211" /></linearGradient><linearGradient
       id="linearGradient209"><stop
         style="stop-color:#e3f5ff;stop-opacity:0.6660617;"
         offset="0"
         id="stop208" /><stop
         style="stop-color:#ffffff;stop-opacity:0;"
         offset="1"
         id="stop209" /></linearGradient><linearGradient
       id="linearGradient207"><stop
         style="stop-color:#e3f5ff;stop-opacity:0.58923513;"
         offset="0"
         id="stop206" /><stop
         style="stop-color:#ffffff;stop-opacity:0;"
         offset="1"
         id="stop207" /></linearGradient><linearGradient
       id="linearGradient205"><stop
         style="stop-color:#e3f5ff;stop-opacity:0.52124643;"
         offset="0"
         id="stop204" /><stop
         style="stop-color:#ffffff;stop-opacity:0;"
         offset="1"
         id="stop205" /></linearGradient><linearGradient
       id="linearGradient203"><stop
         style="stop-color:#e3f5ff;stop-opacity:0.60072595;"
         offset="0"
         id="stop202" /><stop
         style="stop-color:#ffffff;stop-opacity:0;"
         offset="1"
         id="stop203" /></linearGradient><linearGradient
       id="linearGradient201"><stop
         style="stop-color:#e3f5ff;stop-opacity:0.60072595;"
         offset="0"
         id="stop200" /><stop
         style="stop-color:#ffffff;stop-opacity:0;"
         offset="1"
         id="stop201" /></linearGradient><linearGradient
       id="linearGradient153"><stop
         style="stop-color:#e3f5ff;stop-opacity:0.50424927;"
         offset="0"
         id="stop152" /><stop
         style="stop-color:#ffffff;stop-opacity:0;"
         offset="1"
         id="stop153" /></linearGradient><linearGradient
       id="linearGradient149"><stop
         style="stop-color:#e3f5ff;stop-opacity:0.62606233;"
         offset="0"
         id="stop148" /><stop
         style="stop-color:#ffffff;stop-opacity:0;"
         offset="1"
         id="stop149" /></linearGradient><linearGradient
       id="linearGradient147"><stop
         style="stop-color:#e3f5ff;stop-opacity:0.68838525;"
         offset="0"
         id="stop146" /><stop
         style="stop-color:#ffffff;stop-opacity:0;"
         offset="1"
         id="stop147" /></linearGradient><linearGradient
       id="linearGradient115"><stop
         style="stop-color:#e3f5ff;stop-opacity:0.6660617;"
         offset="0"
         id="stop115" /><stop
         style="stop-color:#ffffff;stop-opacity:0;"
         offset="1"
         id="stop116" /></linearGradient><linearGradient
       xlink:href="#linearGradient275"
       id="linearGradient259"
       gradientUnits="userSpaceOnUse"
       x1="874.71027"
       y1="650.34283"
       x2="874.9715"
       y2="455.46783" /><linearGradient
       xlink:href="#linearGradient205"
       id="linearGradient260"
       gradientUnits="userSpaceOnUse"
       gradientTransform="translate(228.97992,-17.777877)"
       x1="679.24799"
       y1="412.06537"
       x2="825.53015"
       y2="412.06537" /><linearGradient
       xlink:href="#linearGradient149"
       id="linearGradient261"
       gradientUnits="userSpaceOnUse"
       gradientTransform="matrix(0.97835004,-0.17075538,0.25083373,0.97835004,-25.309831,109.29838)"
       x1="679.24799"
       y1="412.06537"
       x2="825.53015"
       y2="412.06537" /><linearGradient
       xlink:href="#linearGradient147"
       id="linearGradient262"
       gradientUnits="userSpaceOnUse"
       gradientTransform="matrix(0.99924422,-0.032072,0.04711265,0.99924422,142.59341,16.577527)"
       x1="679.24799"
       y1="412.06537"
       x2="825.53015"
       y2="412.06537" /><linearGradient
       xlink:href="#linearGradient115"
       id="linearGradient263"
       gradientUnits="userSpaceOnUse"
       x1="679.24799"
       y1="412.06537"
       x2="825.53015"
       y2="412.06537" /><linearGradient
       xlink:href="#linearGradient207"
       id="linearGradient264"
       gradientUnits="userSpaceOnUse"
       gradientTransform="matrix(0.98211,-0.15536862,0.22823112,0.98211,31.332125,147.02234)"
       x1="679.24799"
       y1="412.06537"
       x2="825.53015"
       y2="412.06537" /><linearGradient
       xlink:href="#linearGradient201"
       id="linearGradient265"
       gradientUnits="userSpaceOnUse"
       gradientTransform="matrix(-0.48518517,0.72145635,-1.0597944,-0.48518517,1641.0807,128.8733)"
       x1="717.09601"
       y1="387.00452"
       x2="777.38867"
       y2="438.38031" /><linearGradient
       xlink:href="#linearGradient213"
       id="linearGradient266"
       gradientUnits="userSpaceOnUse"
       gradientTransform="matrix(0.97662867,-0.17733664,0.26050138,0.97662867,-172.04451,168.91939)"
       x1="679.24799"
       y1="412.06537"
       x2="825.53015"
       y2="412.06537" /><linearGradient
       xlink:href="#linearGradient211"
       id="linearGradient267"
       gradientUnits="userSpaceOnUse"
       gradientTransform="matrix(0.9360011,-0.29042452,0.42662355,0.9360011,-126.15299,318.90919)"
       x1="733.59912"
       y1="386.5665"
       x2="824.62378"
       y2="431.86697" /><linearGradient
       xlink:href="#linearGradient215"
       id="linearGradient268"
       gradientUnits="userSpaceOnUse"
       gradientTransform="matrix(0.966434,-0.21197455,0.31138326,0.966434,-169.63258,260.54825)"
       x1="733.59912"
       y1="386.5665"
       x2="824.62378"
       y2="431.86697" /><linearGradient
       xlink:href="#linearGradient209"
       id="linearGradient269"
       gradientUnits="userSpaceOnUse"
       gradientTransform="matrix(0.64436776,-0.57604996,0.92795346,0.58759663,30.353236,688.23624)"
       x1="679.24799"
       y1="412.06537"
       x2="825.53015"
       y2="412.06537" /><linearGradient
       xlink:href="#linearGradient217"
       id="linearGradient270"
       gradientUnits="userSpaceOnUse"
       gradientTransform="matrix(-0.04728522,0.82415362,-1.2106531,-0.04728521,1604.3734,-155.8574)"
       x1="729.51715"
       y1="430.40579"
       x2="822.97504"
       y2="376.85416" /><linearGradient
       xlink:href="#linearGradient153"
       id="linearGradient271"
       gradientUnits="userSpaceOnUse"
       gradientTransform="matrix(-0.04728522,0.82415362,-1.2106531,-0.04728521,1526.9046,-135.883)"
       x1="729.51715"
       y1="430.40579"
       x2="822.97504"
       y2="376.85416" /><linearGradient
       xlink:href="#linearGradient203"
       id="linearGradient272"
       gradientUnits="userSpaceOnUse"
       gradientTransform="matrix(-0.04728522,0.82415362,-1.2106531,-0.04728521,1526.9046,-135.883)"
       x1="823.84601"
       y1="489.39856"
       x2="778.22058"
       y2="435.98257" /></defs><g
     id="g258"
     transform="matrix(0.82613213,0,0,1.0012794,-212.05203,-161.23426)"
     style="display:inline"><g
       id="g259"
       transform="matrix(2.2009359,0,0,2.2009359,-983.71661,-580.67183)"><path
         style="display:inline;fill:url(#linearGradient259);fill-opacity:0.646417;stroke:#6a6e6e;stroke-width:4;stroke-linejoin:round;stroke-opacity:1"
         d="m 568.91194,396.34475 c -5.41668,17.82739 1.17978,41.61185 6.00367,61.93764 6.96737,29.35743 18.15927,58.20633 32.86356,85.55073 12.70889,23.63372 25.68274,48.34062 47.38306,66.99368 11.57471,9.94933 28.93335,18.07521 42.23854,22.29808 26.65757,8.46072 44.24219,15.06944 72.52765,19.36734 28.28547,4.2979 57.35587,2.57521 85.90112,3.37898 50.71394,1.428 106.88481,0.58565 155.35706,-15.29297 29.6742,-9.72072 57.9277,-25.88153 76.9897,-47.01382 23.6938,-26.26702 30.2213,-71.30395 40.3725,-92.40969 12.4256,-25.83484 11.6766,-24.42095 17.8158,-49.71687 7.7043,-31.74475 16.2848,-55.22044 9.4041,-68.0169 -8.0291,-14.93222 -38.2217,4.2249 -57.4371,5.43201 -26.5796,1.66972 -53.634,6.93494 -79.9124,2.49726 -22.13397,-3.73781 -40.52113,-22.16572 -62.88593,-24.08971 -22.0101,-1.89348 -43.1556,9.68903 -65.0284,12.78928 -26.0318,3.68976 -52.40786,9.36424 -78.575,6.88585 -12.5572,-1.18934 -23.18778,-9.87655 -35.81853,-10.26827 -27.52107,-0.85352 -52.48866,14.96363 -79.86027,17.47632 -29.79745,2.73537 -59.95515,-4.30846 -89.88018,-2.79347 -12.62456,0.63913 -34.3833,-5.12805 -37.45895,4.99453 z"
         id="path131" /><ellipse
         style="fill:#09881a;fill-opacity:1;stroke:none;stroke-width:4.42869;stroke-linejoin:round;stroke-opacity:1"
         id="ellipse131"
         ry="36.825951"
         rx="56.373116"
         cy="186.23407"
         cx="917.04907"
         transform="matrix(0.90221818,0.4312799,-0.57466862,0.8183862,0,0)" /><ellipse
         style="display:inline;fill:#ff8610;fill-opacity:1;stroke:none;stroke-width:4.40976;stroke-linejoin:round;stroke-opacity:1"
         id="ellipse132"
         ry="35.458447"
         rx="58.04805"
         cy="769.81152"
         cx="646.17926"
         transform="matrix(0.97255146,-0.2326879,0.33157507,0.94342884,0,0)" /><ellipse
         style="fill:#e5d40f;fill-opacity:1;stroke:none;stroke-width:4.40318;stroke-linejoin:round;stroke-opacity:1"
         id="ellipse133"
         ry="35.094475"
         rx="58.475319"
         cy="704.31787"
         cx="824.04303"
         transform="matrix(0.98878323,-0.14935768,0.21662149,0.97625567,0,0)" /><ellipse
         style="fill:#520769;fill-opacity:1;stroke:none;stroke-width:4.40339;stroke-linejoin:round;stroke-opacity:1"
         id="ellipse134"
         ry="41.986267"
         rx="48.881783"
         cy="1142.7347"
         cx="-355.69968"
         transform="matrix(0.2212505,-0.97521701,0.98828271,0.15263448,0,0)" /><ellipse
         style="fill:#e5d40f;fill-opacity:1;stroke:none;stroke-width:4.40135;stroke-linejoin:round;stroke-opacity:1"
         id="ellipse135"
         ry="34.999031"
         rx="58.586121"
         cy="469.09286"
         cx="868.84979"
         transform="matrix(0.99289205,0.11901837,-0.17341751,0.9848484,0,0)" /><ellipse
         style="fill:#ff1148;fill-opacity:1;stroke:none;stroke-width:4.43411;stroke-linejoin:round;stroke-opacity:1"
         id="ellipse136"
         ry="37.448719"
         rx="55.571999"
         cy="974.53412"
         cx="393.86908"
         transform="matrix(0.86410292,-0.50331516,0.65012853,0.75982425,0,0)" /><ellipse
         style="fill:#520769;fill-opacity:1;stroke:none;stroke-width:4.40056;stroke-linejoin:round;stroke-opacity:1"
         id="ellipse137"
         ry="34.958595"
         rx="58.632904"
         cy="-451.17145"
         cx="-879.97778"
         transform="matrix(-0.99461497,-0.10363908,0.15130427,-0.98848724,0,0)" /><ellipse
         style="fill:#09881a;fill-opacity:1;stroke:none;stroke-width:4.40541;stroke-linejoin:round;stroke-opacity:1"
         id="ellipse138"
         ry="35.213459"
         rx="58.336472"
         cy="392.06021"
         cx="1014.381"
         transform="matrix(0.98357685,0.18048984,-0.26027018,0.96553583,0,0)" /><g
         id="g144"
         style="display:inline"><path
           style="fill:none;fill-opacity:1;stroke:#000000;stroke-width:4.39802;stroke-linejoin:round;stroke-opacity:1"
           d="m 848.65568,411.52266 11.75607,13.22682 24.5809,18.51754 28.85582,6.17251 14.6951,4.84983 -23.77935,29.53989 23.24497,17.19485 48.89459,-25.13094 -30.45891,-36.1533 12.29046,-16.75396 -11.75611,-16.75396 -22.4434,-22.92649 -36.33697,-8.81787 -27.78709,5.29073 -37.94007,-8.37698 -28.18787,14.65971 10.28657,19.06866 24.18012,-0.33067 15.63024,-12.6757 z"
           id="path142" /><path
           id="path143"
           style="fill:none;fill-opacity:1;stroke:#000000;stroke-width:4.39802;stroke-linejoin:round;stroke-opacity:1"
           d="m 857.20556,380.6601 -14.96228,11.46324 m -20.30595,-18.51755 -8.54989,11.46324 -3.2062,15.87218 -5.34367,4.40894" /><path
           style="display:inline;fill:none;fill-opacity:1;stroke:#000000;stroke-width:4.39802;stroke-linejoin:round;stroke-opacity:1"
           d="m 908.50481,479.42031 22.44344,-18.51754 16.03097,-2.64536 17.09981,10.58145 14.96226,8.81788 -32.06203,-35.27151 -1.06874,-19.39933 -14.96228,13.22682 -17.09975,-3.52715 -4.80933,10.58144 18.70283,7.93609 z"
           id="path144" /></g><g
         id="g198"><ellipse
           style="fill:#ff1148;fill-opacity:1;stroke:#ffa6b9;stroke-width:4.43289;stroke-linejoin:round;stroke-opacity:1"
           id="ellipse155"
           ry="37.2855"
           rx="55.784378"
           cy="-130.51926"
           cx="1043.5753"
           transform="matrix(0.874531,0.48496962,-0.6315785,0.77531194,0,0)" /><path
           style="fill:none;fill-opacity:1;stroke:#ffa6b9;stroke-width:4.39802;stroke-linejoin:round;stroke-opacity:1"
           d="m 947.79837,375.98489 c 0,0 20.0637,-1.5435 29.7093,0.31057 12.8527,2.47055 25.08033,7.63732 35.73303,14.0643 6.3068,3.80502 12.1094,8.53308 16.031,14.1086 2.4321,3.4578 3.5545,7.5098 4.275,11.46323 0.2649,1.45331 0.47,2.99138 0,4.40894 -0.9763,2.94455 -5.6503,7.8829 -5.6503,7.8829"
           id="path195" /><path
           style="fill:#fcffd4;fill-opacity:0.484931;stroke:none;stroke-width:4;stroke-linejoin:round;stroke-dasharray:none;stroke-opacity:0.419178"
           d="m 963.60137,390.25332 c 0,0 14.3585,-1.87056 18.1371,-1.87056 3.7785,0 23.42693,10.59981 23.42693,10.59981 l 13.6028,11.22332 3.7784,9.97629 -12.847,3.74111 -15.86987,-1.87056 c 0,0 -3.77846,-4.36462 -9.82426,-12.47035 -6.0456,-8.10574 -10.5799,-16.21147 -14.3584,-16.21147 -3.7785,0 -6.0457,-3.11759 -6.0457,-3.11759 z"
           id="path196" /><path
           style="fill:#fcffd4;fill-opacity:0.484931;stroke:none;stroke-width:4;stroke-linejoin:round;stroke-dasharray:none;stroke-opacity:0.419178"
           d="m 982.49417,369.05371 c 0,0 19.64833,9.35276 22.67123,9.97628 3.0227,0.62352 22.6713,13.09388 25.6941,16.21147 3.0228,3.11759 8.3128,16.83498 8.3128,16.83498 l 3.7786,-1.24703 -3.7786,-10.59981 c 0,0 -13.6028,-17.4585 -16.6257,-18.70554 -3.0227,-1.24703 -18.1369,-9.97628 -21.1598,-10.5998 -3.02287,-0.62352 -18.89263,-1.87055 -18.89263,-1.87055 z"
           id="path197" /><path
           style="display:inline;fill:url(#linearGradient260);fill-opacity:1;stroke:#ffffff;stroke-width:2.19901;stroke-linejoin:round;stroke-dasharray:none;stroke-opacity:0.810207"
           d="m 913.67247,375.58206 27.20554,4.98814 c -6.82517,7.68613 -3.086,19.36021 0,28.68184 0,0 9.01324,13.15416 15.11418,18.70554 4.80984,4.37658 16.62561,11.22331 16.62561,11.22331 l 46.0983,3.1176 32.4955,-23.07016 c 0,0 -1.9227,-14.78649 -6.0457,-21.19962 -6.0984,-9.48558 -15.5436,-17.83532 -26.4498,-23.69368 -11.1488,-5.98862 -24.51494,-9.83065 -37.7855,-10.59981 -8.02181,-0.46494 -23.70203,3.70978 -23.70203,3.70978 l -12.09135,-22.44666 c -0.13033,9.71215 -6.43091,10.22228 -16.6256,4.98815 v 6.85871 c 0,0 3.02283,8.10573 -9.06852,5.61166 -12.09134,-2.49408 -15.11418,-9.9763 -10.57993,-1.24705 2.26713,4.36463 7.55709,6.8587 6.99031,10.13217 -0.56678,3.27347 -2.18101,4.24008 -2.18101,4.24008 z"
           id="path198" /></g><g
         id="g203"><ellipse
           style="fill:#e5d40f;fill-opacity:1;stroke:#ffee79;stroke-width:4.40961;stroke-linejoin:round;stroke-opacity:1"
           id="ellipse198"
           ry="35.449924"
           rx="58.05814"
           cy="188.72232"
           cx="916.37421"
           transform="matrix(0.97294207,0.23104918,-0.32937635,0.94419872,0,0)" /><path
           style="fill:none;fill-opacity:1;stroke:#ffee79;stroke-width:4.39802;stroke-linejoin:round;stroke-opacity:1"
           d="m 778.67396,367.44674 c 0,0 12.86408,-5.00294 19.80493,-5.66944 10.40201,-0.99887 21.36339,-0.19732 31.25258,2.64536 10.2608,2.94948 19.1693,8.69284 27.4741,14.47386 6.6304,4.61545 13.1161,9.71707 17.4984,15.89409"
           id="path200" /><path
           style="fill:#fcffd4;fill-opacity:0.484931;stroke:none;stroke-width:4;stroke-linejoin:round;stroke-dasharray:none;stroke-opacity:0.419178"
           d="m 795.83393,369.67722 18.13705,-2.49407 c 0,0 7.55714,2.49407 10.5799,3.74111 3.02289,1.24703 26.44989,11.84684 26.44989,11.84684 l 6.8013,12.47036 -6.8013,6.23518 -17.3814,3.74111 -14.35844,-10.59981 c 0,0 -11.3356,-8.72925 -15.11417,-9.97628 -3.77857,-1.24704 -15.11417,-0.62353 -15.11417,-0.62353 z"
           id="path201" /><path
           style="fill:#fcffd4;fill-opacity:0.484931;stroke:none;stroke-width:4;stroke-linejoin:round;stroke-dasharray:none;stroke-opacity:0.419178"
           d="m 834.37507,360.94797 39.2969,25.56424 3.7786,-4.36462 -30.2284,-20.5761 z"
           id="path202" /><path
           style="display:inline;fill:url(#linearGradient261);fill-opacity:1;stroke:#ffffff;stroke-width:2.19901;stroke-linejoin:round;stroke-dasharray:none;stroke-opacity:0.810207"
           d="m 743.22705,377.22703 27.86774,-0.38886 c -4.74947,8.68516 1.837,20.09153 7.19437,28.68439 0,0 12.11761,11.33032 19.47894,15.71974 5.8035,3.46052 19.08085,8.14142 19.08085,8.14142 l 45.88223,-4.82143 26.00521,-28.11947 c 0,0 -3.27039,-11.80825 -7.45382,-16.59073 -7.76501,-8.87692 -18.9206,-16.12461 -31.06465,-20.53481 -12.46722,-4.52756 -26.80954,-6.11828 -40.38191,-5.16529 -8.80296,0.6181 -25.12869,6.95364 -25.12869,6.95364 L 770.2702,338.09202 c 1.18057,4.87039 -2.08818,14.52074 -4.85824,15.63407 -2.64684,1.06379 -4.64115,-6.26344 -10.15622,-7.91501 l 1.7204,6.71022 c 0,0 3.47916,3.67297 -8.97601,3.29756 -12.45517,-0.37542 -15.77793,-3.43838 -9.15226,4.32764 3.31284,3.88301 4.57961,6.04331 4.8462,9.34269 0.26659,3.29938 -0.46702,7.73784 -0.46702,7.73784 z"
           id="path203" /></g><g
         id="g208"><ellipse
           style="fill:#09881a;fill-opacity:1;stroke:#46ab33;stroke-width:4.43416;stroke-linejoin:round;stroke-opacity:1"
           id="ellipse203"
           ry="37.45364"
           rx="55.565575"
           cy="-109.03034"
           cx="990.67627"
           transform="matrix(0.86378347,0.50386319,-0.65067568,0.75935575,0,0)" /><path
           style="fill:none;fill-opacity:1;stroke:#46ab33;stroke-width:4.39802;stroke-linejoin:round;stroke-opacity:1"
           d="m 897.28307,379.33741 c 0,0 -3.2013,11.23566 -1.1447,16.46436 3.6459,9.26932 13.8083,15.96875 22.4155,22.64236 6.7429,5.22813 14.6636,9.36292 22.5473,13.35964 5.871,2.97633 18.3441,7.86311 18.3441,7.86311"
           id="path204" /><path
           style="fill:#fcffd4;fill-opacity:0.484931;stroke:none;stroke-width:4;stroke-linejoin:round;stroke-dasharray:none;stroke-opacity:0.419178"
           d="m 912.96897,387.13572 h 18.8927 c 0,0 13.6027,6.85871 16.6256,10.59981 3.0228,3.74111 15.8698,18.70554 15.8698,18.70554 l 3.0229,13.09388 -14.3585,-1.24704 c 0,0 -6.8013,-0.62351 -9.8242,-11.22332 -3.0229,-10.59981 -4.5343,-16.83499 -11.3356,-18.08202 -6.8014,-1.24704 -24.1827,-11.22332 -24.1827,-11.22332 z"
           id="path205" /><path
           style="display:inline;fill:none;fill-opacity:1;stroke:#46ab33;stroke-width:4.39802;stroke-linejoin:round;stroke-opacity:1"
           d="m 881.7864,385.95082 c 0,0 -3.04128,14.41426 0.23713,20.79765 6.99924,13.62817 24.24588,21.99865 38.31336,31.1835 7.85322,5.12751 25.45029,13.17358 25.45029,13.17358"
           id="path206" /><path
           style="display:inline;fill:#fcffd4;fill-opacity:0.484931;stroke:none;stroke-width:4;stroke-linejoin:round;stroke-dasharray:none;stroke-opacity:0.419178"
           d="m 887.27477,405.21775 15.87,14.34091 12.0912,9.97629 11.3356,3.74111 c 0,0 3.7786,-3.11759 0.7558,-4.36462 -3.0228,-1.24704 -16.6256,-12.47037 -20.4042,-14.96444 -3.7784,-2.49407 -14.3585,-13.7174 -14.3585,-13.7174 h -4.5342 z"
           id="path207" /><path
           style="display:inline;fill:url(#linearGradient262);fill-opacity:1;stroke:#ffffff;stroke-width:2.19901;stroke-linejoin:round;stroke-dasharray:none;stroke-opacity:0.810207"
           d="m 867.74411,390.32595 7.77595,1.73369 c -6.4579,7.89922 -4.97094,19.17734 -1.4481,28.39294 0,0 9.62615,12.85516 15.98402,18.20667 5.0124,4.21901 17.14181,10.68161 17.14181,10.68161 l 33.36323,15.97769 40.45257,-35.31824 c 0,0 -0.0748,-10.68271 -2.44182,-15.52013 -4.97882,-10.17495 -12.56114,-19.46741 -23.77364,-26.4365 -5.03431,-3.12906 -12.83721,-6.65162 -19.56763,-8.77508 -6.73042,-2.12346 -14.65549,-3.15957 -21.44556,-4.43333 -4.1282,-0.77441 -12.67492,1.20379 -12.67492,1.20379 l 1.29444,-20.52102 c 0.16739,4.96492 -5.02846,14.02167 -7.98652,14.7333 -2.82647,0.67996 -3.29338,-6.81986 -8.3915,-9.21571 l 0.32313,6.85353 c 0,0 2.67794,4.10475 -9.52177,2.00036 -12.19971,-2.1044 -14.84828,-5.58612 -9.9062,2.99112 2.47104,4.28862 3.27775,6.59433 2.86562,9.8835 -0.41213,3.28917 -2.04311,7.56181 -2.04311,7.56181 z"
           id="path208" /></g><g
         id="g212"
         style="display:inline"><ellipse
           style="fill:#520769;fill-opacity:1;stroke:#c596bb;stroke-width:4.43289;stroke-linejoin:round;stroke-opacity:1"
           id="ellipse208"
           ry="37.2855"
           rx="55.784378"
           cy="-0.074649736"
           cx="875.03711"
           transform="matrix(0.874531,0.48496962,-0.6315785,0.77531194,0,0)" /><path
           style="display:inline;fill:#fcffd4;fill-opacity:0.484931;stroke:none;stroke-width:4;stroke-linejoin:round;stroke-dasharray:none;stroke-opacity:0.419178"
           d="m 746.71285,392.74739 c 5.28995,-1.24704 19.64843,0.62352 19.64843,0.62352 l 10.57991,6.85869 10.5799,7.48222 3.02288,11.84684 -12.09128,-4.98813 -10.58003,-11.22333 -26.44978,-7.48222 z"
           id="path209" /><path
           style="fill:none;fill-opacity:1;stroke:#c596bb;stroke-width:4.39802;stroke-linejoin:round;stroke-opacity:1"
           d="m 723.06145,391.4423 c 0,0 4.33368,16.29764 8.54988,23.80826 4.00455,7.13358 9.1337,14.00081 15.65205,19.73496 6.09269,5.3597 12.95345,10.83525 21.37467,13.22682 6.01006,1.70681 19.06474,0.30674 19.06474,0.30674"
           id="path210" /><path
           style="fill:#fcffd4;fill-opacity:0.484931;stroke:none;stroke-width:4;stroke-linejoin:round;stroke-dasharray:none;stroke-opacity:0.419178"
           d="m 724.04156,415.81756 c 0,0 11.33565,14.34091 12.09135,16.83498 0.75571,2.49407 9.06856,11.22333 9.06856,11.22333 0,0 -5.29001,4.36463 -9.06856,-0.62352 -3.77854,-4.98815 -11.33563,-14.34091 -12.84705,-16.83499 -1.51142,-2.49407 -3.02285,-13.09388 0.7557,-10.5998 z"
           id="path211" /><path
           style="display:inline;fill:url(#linearGradient263);fill-opacity:1;stroke:#ffffff;stroke-width:2.19901;stroke-linejoin:round;stroke-dasharray:none;stroke-opacity:0.810207"
           d="m 684.69255,393.35981 27.20554,4.98814 c -6.82517,7.68613 -3.086,19.36021 0,28.68184 0,0 9.01324,13.15416 15.11418,18.70554 4.80984,4.37658 16.62561,11.22331 16.62561,11.22331 l 46.09826,3.1176 32.49551,-23.07016 c 0,0 -1.92263,-14.78649 -6.04568,-21.19962 -6.09835,-9.48558 -15.54358,-17.83532 -26.44983,-23.69368 -11.14873,-5.98862 -24.61968,-9.02599 -37.78546,-10.59981 -6.23749,-0.74561 -18.89273,0.62352 -18.89273,0.62352 L 720.9666,359.68983 c -0.13033,9.71215 -6.43091,10.22228 -16.6256,4.98815 v 6.85871 c 0,0 3.02283,8.10573 -9.06852,5.61166 -12.09134,-2.49408 -15.11418,-9.9763 -10.57993,-1.24705 2.26713,4.36463 7.55709,6.8587 6.99031,10.13217 -0.56678,3.27347 -6.99031,7.32634 -6.99031,7.32634 z"
           id="path212" /></g><g
         id="g216"><ellipse
           style="fill:#ff8610;fill-opacity:1;stroke:#fdb144;stroke-width:4.40961;stroke-linejoin:round;stroke-opacity:1"
           id="ellipse212"
           ry="35.449924"
           rx="58.05814"
           cy="229.5473"
           cx="978.52716"
           transform="matrix(0.97294207,0.23104918,-0.32937635,0.94419872,0,0)" /><path
           style="fill:none;fill-opacity:1;stroke:#fdb144;stroke-width:4.39802;stroke-linejoin:round;stroke-opacity:1"
           d="m 833.53957,414.37036 c 0,0 5.8039,9.10648 9.7725,13.02448 3.0734,3.03426 6.9689,5.44104 10.6872,7.93608 5.141,3.4497 10.4651,6.73273 16.0311,9.69967 7.9055,4.21403 16.1327,8.04022 24.5809,11.46324 6.5922,2.67101 20.3059,7.0543 20.3059,7.0543"
           id="path213" /><path
           style="fill:#fcffd4;fill-opacity:0.484931;stroke:none;stroke-width:4;stroke-linejoin:round;stroke-dasharray:none;stroke-opacity:0.419178"
           d="m 846.46647,415.19404 14.3585,13.09387 9.8242,4.98815 -3.7785,-11.22333 -4.5343,-10.5998 z"
           id="path214" /><path
           style="fill:#fcffd4;fill-opacity:0.484931;stroke:none;stroke-width:4;stroke-linejoin:round;stroke-dasharray:none;stroke-opacity:0.419178"
           d="m 829.84087,423.29978 6.8014,7.4822 -5.2899,1.87056 -6.80149,-0.62351 z"
           id="path215" /><path
           style="display:inline;fill:url(#linearGradient264);fill-opacity:1;stroke:#ffffff;stroke-width:2.19901;stroke-linejoin:round;stroke-dasharray:none;stroke-opacity:0.810207"
           d="m 793.5525,426.96533 25.18544,2.43559 c -4.94886,8.60904 4.05965,17.72974 9.21793,26.40514 0,0 11.85417,11.51846 19.11292,16.02264 5.72272,3.55097 18.88978,8.43941 18.88978,8.43941 l 43.31329,-3.21861 c 8.96756,-7.07116 18.94434,11.67077 26.64883,-27.70622 0,0 -2.96469,-14.8564 -8.10412,-20.76284 -7.58968,-8.72237 -19.3361,-15.10125 -31.38425,-19.16033 -12.31613,-4.14931 -26.23936,-5.03937 -39.52872,-4.53949 -6.29608,0.23684 -18.4125,3.54771 -18.4125,3.54771 l -16.99801,-20.16648 c 0.72893,8.43688 -9.24746,6.69482 -15.18974,7.48201 0,0 2.47938,4.73591 2.09974,7.1769 -0.30087,1.93446 3.94212,-1.71077 -3.3506,5.15666 -8.21349,7.73448 -16.58632,-1.27705 -10.1409,6.59156 3.22272,3.9343 -1.16571,2.9165 -0.97524,6.21947 0.19047,3.30297 -0.38385,6.07688 -0.38385,6.07688 z"
           id="path216" /></g><g
         id="g223"><ellipse
           style="fill:#e5d40f;fill-opacity:1;stroke:#ffee79;stroke-width:4.39994;stroke-linejoin:round;stroke-opacity:1"
           id="ellipse216"
           ry="34.926479"
           rx="58.670006"
           cy="544.73566"
           cx="760.0257"
           transform="matrix(0.99597606,-0.08961973,0.13104036,0.99137703,0,0)" /><path
           style="fill:none;fill-opacity:1;stroke:#ffee79;stroke-width:4.39802;stroke-linejoin:round;stroke-opacity:1"
           d="m 796.57073,461.97832 c 0,0 23.47725,-8.66005 36.05394,-9.89343 16.4015,-1.60848 49.3742,3.44904 49.3742,3.44904"
           id="path218" /><path
           style="fill:none;fill-opacity:1;stroke:#ffee79;stroke-width:4.39802;stroke-linejoin:round;stroke-opacity:1"
           d="m 816.59368,474.12958 c 0,0 14.54439,-5.97051 22.44339,-7.01836 8.0973,-1.07418 16.4336,0.10599 24.5809,0.88178 7.5627,0.72012 22.4434,3.49122 22.4434,3.49122"
           id="path219" /><path
           style="fill:#fcffd4;fill-opacity:0.484931;stroke:none;stroke-width:4;stroke-linejoin:round;stroke-dasharray:none;stroke-opacity:0.419178"
           d="m 873.67197,476.92232 c 0,0 -27.9612,-3.11759 -30.984,-2.49407 -3.0229,0.62351 -10.5799,7.48222 -10.5799,7.48222 l 9.8242,3.11758 z"
           id="path220" /><path
           style="fill:#fcffd4;fill-opacity:0.484931;stroke:none;stroke-width:4;stroke-linejoin:round;stroke-dasharray:none;stroke-opacity:0.419178"
           d="m 818.50524,460.71085 21.91553,-4.36462 27.9612,1.24703 10.5801,3.74111 -2.2672,1.87055 -36.2741,-1.87055 -18.89265,4.98814 -3.77857,-2.49407 z"
           id="path221" /><path
           style="fill:#fcffd4;fill-opacity:0.484931;stroke:none;stroke-width:4;stroke-linejoin:round;stroke-dasharray:none;stroke-opacity:0.419178"
           d="m 794.32255,455.09919 13.60278,-9.35277 22.67124,-4.98814 15.8699,1.87055 3.7786,2.49408 c 0,0 -17.3814,0.62351 -20.4042,0.62351 -3.0228,0 -25.69411,8.10574 -25.69411,8.10574 z"
           id="path222" /><path
           style="display:inline;fill:url(#linearGradient265);fill-opacity:1;stroke:#ffffff;stroke-width:2.19901;stroke-linejoin:round;stroke-dasharray:none;stroke-opacity:0.810207"
           d="m 891.99646,431.99628 -18.41348,14.38492 c -14.21633,-8.02374 -20.15849,-8.72579 -30.46969,-11.09355 0,0 -20.12906,-0.35462 -29.69188,1.83768 -11.72563,2.68812 -23.45133,6.94223 -32.59748,13.56617 -7.39347,5.35459 -8.11959,9.23219 -14.86511,18.57729 l -26.1832,-7.76107 c 2.49707,0.50551 0.36526,6.00026 -2.82439,7.76143 7.26478,7.67346 -2.31989,7.13159 -2.69265,5.75172 4.84934,4.31293 23.86546,8.79985 29.44759,12.70295 5.58213,3.90311 11.63174,15.67709 16.81875,17.45951 17.6298,6.05821 30.66623,-1.02617 45.79646,-2.9701 19.99552,-2.56904 47.89849,2.45896 59.10366,-11.44449 4.05613,-5.03287 -3.64544,-17.88072 -3.64544,-17.88072 l 28.30072,1.6147 c -8.31456,-4.94791 -0.29776,-10.14768 2.78003,-14.41486 0,0 -5.99455,-1.46663 -8.02158,-3.2721 -1.60633,-1.43081 -0.9363,3.59291 -2.64791,-5.42776 -1.92769,-10.1596 11.82235,-9.68311 0.37111,-10.64718 -5.72558,-0.482 -1.96522,-2.60803 -5.15953,-4.60522 -3.19421,-1.99714 -5.40598,-4.13932 -5.40598,-4.13932 z"
           id="path223" /></g><g
         id="g228"><ellipse
           style="fill:#09881a;fill-opacity:1;stroke:#46ab33;stroke-width:4.4116;stroke-linejoin:round;stroke-opacity:1"
           id="ellipse223"
           ry="35.567505"
           rx="57.918549"
           cy="259.94055"
           cx="805.54541"
           transform="matrix(0.96750595,0.25284824,-0.35839701,0.93356927,0,0)" /><path
           style="fill:none;fill-opacity:1;stroke:#46ab33;stroke-width:4.39802;stroke-linejoin:round;stroke-opacity:1"
           d="m 631.78871,429.15021 c 0,0 12.78995,-3.50271 19.31266,-3.00241 13.3055,1.02054 25.6129,6.74356 37.35201,12.01112 8.62785,3.87148 16.75476,8.65705 23.90112,14.21557 4.35998,3.39124 11.35259,11.49934 11.35259,11.49934"
           id="path224" /><path
           style="fill:#fcffd4;fill-opacity:0.484931;stroke:none;stroke-width:4;stroke-linejoin:round;stroke-dasharray:none;stroke-opacity:0.419178"
           d="m 665.85195,422.05273 26.44982,13.09388 25.69413,13.7174 9.06851,8.72925 3.02283,-4.98814 c 0,0 -0.75571,-3.74111 -6.80138,-7.48221 -6.04568,-3.74112 -10.57993,-6.23519 -18.89274,-10.59981 -8.3128,-4.36463 -27.96124,-13.7174 -30.98407,-14.34092 -3.02285,-0.62352 -6.04568,-0.62352 -6.04568,-0.62352 z"
           id="path225" /><path
           style="fill:none;fill-opacity:1;stroke:#46ab33;stroke-width:4.39802;stroke-linejoin:round;stroke-opacity:1"
           d="m 645.43604,416.42247 c 0,0 11.99335,-2.02979 17.9309,-1.31447 12.99072,1.56504 25.2005,6.63273 36.5963,12.01111 8.48105,4.00274 16.30962,9.07915 23.14541,14.8391 5.56643,4.69036 14.24577,15.80129 14.24577,15.80129"
           id="path226" /><path
           style="fill:#fcffd4;fill-opacity:0.484931;stroke:none;stroke-width:4;stroke-linejoin:round;stroke-dasharray:none;stroke-opacity:0.419178"
           d="m 646.20351,439.51124 15.86989,-1.87055 c 0,0 21.91558,6.85869 25.69412,10.59981 3.77855,3.7411 12.09135,11.84683 12.09135,11.84683 0,0 -11.33564,0.62352 -14.35848,0.62352 -3.02283,0 -11.33564,-11.84684 -18.13702,-13.7174 -6.80139,-1.87054 -8.3128,-2.49407 -13.60277,-2.49407 -5.28996,0 -7.55709,0 -7.55709,0 z"
           id="path227" /><path
           style="display:inline;fill:url(#linearGradient266);fill-opacity:1;stroke:#ffffff;stroke-width:2.19901;stroke-linejoin:round;stroke-dasharray:none;stroke-opacity:0.810207"
           d="m 599.11663,431.66472 27.86913,0.047 c -4.66342,8.71684 2.02948,19.45499 7.47165,28.01151 0,0 12.22927,11.24834 19.63377,15.58807 5.83752,3.42132 19.16074,8.01267 19.16074,8.01267 l 45.83301,-5.13017 c 8.69154,-9.19167 31.39257,11.3957 26.79497,-25.20736 0,0 -5.01976,-16.71522 -11.42691,-23.1592 -8.37747,-8.42564 -20.65237,-14.29996 -33.07263,-18.0085 -12.50931,-3.73512 -26.49147,-5.18844 -39.66363,-3.65134 -6.91365,0.80677 -19.35749,6.60469 -19.35749,6.60469 l -6.9688,-17.13244 c 2.40275,9.50827 -3.61769,11.1238 -14.93762,7.81989 l 1.7867,6.69841 c 0,0 5.06374,7.38023 -7.39472,7.08869 -12.45847,-0.29155 -17.35978,-7.06285 -10.65753,0.65831 3.35114,3.86057 9.16717,5.35825 9.46639,8.65573 0.2992,3.29747 -4.91842,8.39475 -4.91842,8.39475 z"
           id="path228" /></g><g
         id="g231"><ellipse
           style="fill:#ff1148;fill-opacity:1;stroke:#ffa6b9;stroke-width:4.40883;stroke-linejoin:round;stroke-opacity:1"
           id="ellipse228"
           ry="35.404724"
           rx="58.111595"
           cy="308.71103"
           cx="889.80414"
           transform="matrix(0.9750054,0.22218117,-0.31743078,0.94828145,0,0)" /><path
           style="fill:none;fill-opacity:1;stroke:#ffa6b9;stroke-width:4.39802;stroke-linejoin:round;stroke-opacity:1"
           d="m 727.88871,475.89316 c 0,0 10.40705,-4.28199 16.031,-5.29073 8.56836,-1.53687 17.51598,-1.3573 26.27566,-1.03308 9.70725,0.35929 20.28833,-0.45873 28.8768,3.29138 5.32918,2.32695 12.12413,11.07548 12.12413,11.07548"
           id="path229" /><path
           style="fill:#fcffd4;fill-opacity:0.484931;stroke:none;stroke-width:4;stroke-linejoin:round;stroke-dasharray:none;stroke-opacity:0.419178"
           d="m 742.17859,461.95789 11.33559,-4.36463 19.64843,1.24703 15.11429,3.1176 4.53427,4.98814 h -11.33572 c 0,0 -18.89274,-1.87055 -24.18269,-1.87055 -5.28996,0 -18.89272,-3.74111 -18.89272,-3.74111 z"
           id="path230" /><path
           style="display:inline;fill:url(#linearGradient267);fill-opacity:1;stroke:#ffffff;stroke-width:2.19901;stroke-linejoin:round;stroke-dasharray:none;stroke-opacity:0.810207"
           d="m 827.5017,489.80083 c 0,0 -3.6041,-12.67482 -8.57033,-17.41408 -8.9484,-8.53943 -22.13337,-14.38006 -35.39972,-17.141 -16.01215,-3.33238 -33.94436,-3.06154 -49.50796,1.49329 -5.7979,1.69681 -14.74578,9.15678 -14.74578,9.15678 l -21.62372,-15.8809 c 4.02143,9.12844 -0.39397,8.49551 -12.16921,6.55714 l 3.99482,8.62423 c 0,0 8.42493,3.62281 -3.95661,4.79999 -12.38155,1.17715 -18.40302,-4.9483 -10.43486,1.90542 3.9841,3.42688 9.99954,4.22499 10.86556,7.45357 0.86604,3.22858 -3.41734,8.88762 -3.41734,8.88762 l 69.83134,5.97134 c 21.70458,-13.8721 47.76878,-11.55763 75.13381,-4.4134 z"
           id="path231" /></g><g
         id="g234"
         style="display:inline"><ellipse
           style="fill:#ff8610;fill-opacity:1;stroke:#fdb144;stroke-width:4.40961;stroke-linejoin:round;stroke-opacity:1"
           id="ellipse231"
           ry="35.449924"
           rx="58.05814"
           cy="331.73993"
           cx="831.87781"
           transform="matrix(0.97294207,0.23104918,-0.32937635,0.94419872,0,0)" /><path
           style="fill:none;fill-opacity:1;stroke:#fdb144;stroke-width:4.39802;stroke-linejoin:round;stroke-opacity:1"
           d="m 669.10832,485.59282 c 0,0 20.12267,-1.52597 29.92456,0 8.64603,1.34602 17.03791,4.19868 24.58088,7.93608 2.81571,1.39513 7.48114,5.29074 7.48114,5.29074"
           id="path232" /><path
           style="fill:#fcffd4;fill-opacity:0.484931;stroke:none;stroke-width:4;stroke-linejoin:round;stroke-dasharray:none;stroke-opacity:0.419178"
           d="m 695.32461,475.67529 11.33564,0.62351 16.62561,3.11759 13.60276,11.22333 0.75572,3.11759 -14.35848,-3.74111 -35.51834,-11.22332 -6.80138,-4.36463 z"
           id="path233" /><path
           style="display:inline;fill:url(#linearGradient268);fill-opacity:1;stroke:#ffffff;stroke-width:2.19901;stroke-linejoin:round;stroke-dasharray:none;stroke-opacity:0.810207"
           d="m 755.19838,500.21661 c 0,0 -3.28901,-7.83255 -6.56592,-10.82952 -8.71728,-7.9726 -20.57546,-13.94182 -32.93983,-17.29169 -12.63927,-3.42436 -26.60384,-3.50428 -39.81775,-2.23446 -6.2603,0.60161 -18.06443,4.60737 -18.06443,4.60737 l -11.19386,-24.86178 c 2.89824,9.41378 -4.10074,15.21039 -15.58305,12.31296 l 22.44164,33.96391 c 20.83063,21.54225 -24.33203,17.89396 101.7232,4.33321 z"
           id="path234" /></g><g
         id="g238"
         style="display:inline"><ellipse
           style="fill:#520769;fill-opacity:1;stroke:#c596bb;stroke-width:4.39994;stroke-linejoin:round;stroke-opacity:1"
           id="ellipse234"
           ry="34.926479"
           rx="58.670006"
           cy="578.56677"
           cx="848.92999"
           transform="matrix(0.99597606,-0.08961973,0.13104036,0.99137703,0,0)" /><path
           style="fill:none;fill-opacity:1;stroke:#c596bb;stroke-width:4.39802;stroke-linejoin:round;stroke-opacity:1"
           d="m 877.75997,502.83973 14.7138,-17.24691 c 0,0 9.6186,-7.93609 16.031,-9.69966 6.4124,-1.76358 19.4224,-0.48901 19.4224,-0.48901"
           id="path235" /><path
           style="fill:#fcffd4;fill-opacity:0.484931;stroke:none;stroke-width:4;stroke-linejoin:round;stroke-dasharray:none;stroke-opacity:0.419178"
           d="m 899.36617,494.38082 6.8013,-9.35277 6.8015,-3.7411 5.2899,6.85869 -7.5571,7.48222 z"
           id="path236" /><path
           style="fill:#fcffd4;fill-opacity:0.484931;stroke:none;stroke-width:4;stroke-linejoin:round;stroke-dasharray:none;stroke-opacity:0.419178"
           d="m 897.09897,470.06363 -6.0457,5.61166 -3.0228,6.23518 5.29,-1.87056 12.0913,-8.72925 7.5572,-3.74111 z"
           id="path237" /><path
           style="display:inline;fill:url(#linearGradient269);fill-opacity:1;stroke:#ffffff;stroke-width:2.10138;stroke-linejoin:round;stroke-dasharray:none;stroke-opacity:0.810207"
           d="m 885.34131,529.06871 c 0,0 18.01428,2.53727 27.09693,2.28482 7.1606,-0.19908 21.12778,-2.98246 21.12778,-2.98246 l 31.19509,-22.83056 c 1.56347,-9.26495 23.63975,-0.71868 -0.46916,-32.27487 0,0 -13.89944,-8.92588 -22.16571,-10.86672 -11.78831,-2.76779 -24.89051,-3.06815 -36.76279,-0.55653 -12.72123,2.69121 -25.15486,8.29305 -34.18388,16.16143 -5.53226,4.82111 -10.8396,17.79652 -10.8396,17.79652 L 830.5857,482.71725 c 7.01459,8.276 2.89717,13.45228 -1.11842,16.4984 z"
           id="path238" /></g><g
         id="g242"><ellipse
           style="fill:#ff8610;fill-opacity:1;stroke:#fdb144;stroke-width:4.43853;stroke-linejoin:round;stroke-opacity:1"
           id="ellipse238"
           ry="38.531448"
           rx="54.117935"
           cy="1029.1686"
           cx="354.16672"
           transform="matrix(0.78533593,-0.61906985,0.75684283,0.65359691,0,0)" /><path
           style="fill:#fcffd4;fill-opacity:0.484931;stroke:none;stroke-width:4;stroke-linejoin:round;stroke-dasharray:none;stroke-opacity:0.419178"
           d="m 1059.5764,428.91144 -21.1598,14.34091 -6.0458,9.35277 17.3814,-4.98815 19.6484,-14.96443 z"
           id="path239" /><path
           style="fill:#fcffd4;fill-opacity:0.484931;stroke:none;stroke-width:4;stroke-linejoin:round;stroke-dasharray:none;stroke-opacity:0.419178"
           d="m 1067.8892,415.81756 -18.8927,4.98814 -12.0914,4.98814 -3.7785,4.98814 10.58,-2.49407 z"
           id="path240" /><path
           style="display:inline;fill:none;fill-opacity:1;stroke:#fdb144;stroke-width:4.39802;stroke-linejoin:round;stroke-opacity:1"
           d="m 1024.6795,443.00674 c 0,0 17.4406,-13.85645 28.1044,-18.25727 4.9462,-2.04122 10.5607,-2.85638 16.031,-3.52715 10.2249,-1.25378 30.9933,-0.88179 30.9933,-0.88179"
           id="path241" /><path
           style="display:inline;fill:url(#linearGradient270);fill-opacity:1;stroke:#ffffff;stroke-width:2.19901;stroke-linejoin:round;stroke-dasharray:none;stroke-opacity:0.810207"
           d="m 1080.8129,393.36148 c -3.5457,11.8447 3.3294,11.65226 6.1857,16.10192 -17.054,-1.99262 -22.7576,-0.44856 -33.2723,1.20039 0,0 -18.2336,7.04439 -25.6276,12.50714 -9.0662,6.69825 -17.2911,14.80024 -21.9305,24.08301 -3.7504,7.5039 -2.318,11.24527 -3.3436,22.08918 l -27.63978,2.61975 c 2.50991,-0.46019 3.55122,5.24489 1.63833,7.99018 10.63476,4.22119 1.75216,7.24109 0.67665,6.14055 6.66407,2.09234 26.1204,-0.8409 33.221,0.61607 7.1007,1.45697 18.8492,9.79821 24.4564,9.49877 19.0577,-1.01772 42.4514,-7.76849 57.1407,-19.74302 9.4004,-7.66308 14.5836,-19.15592 15.753,-30.01633 1.0331,-9.59492 -8.0336,-28.1277 -8.0336,-28.1277 l 18.7543,-13.75353 -7.3903,-0.71111 c 0,0 -6.1613,2.64144 -8.9483,1.76445 2.3258,-20.02531 0.8745,2.91395 -9.2267,-11.84928 -0.8108,-0.965 -3.8685,14.37797 -12.4134,-0.41044 z"
           id="path242" /></g><g
         id="g246"><ellipse
           style="fill:#e5d40f;fill-opacity:1;stroke:#ffee79;stroke-width:4.43853;stroke-linejoin:round;stroke-opacity:1"
           id="ellipse242"
           ry="38.531448"
           rx="54.117935"
           cy="994.11414"
           cx="287.24539"
           transform="matrix(0.78533593,-0.61906985,0.75684283,0.65359691,0,0)" /><path
           style="fill:none;fill-opacity:1;stroke:#ffee79;stroke-width:4.39802;stroke-linejoin:round;stroke-opacity:1"
           d="m 999.56573,430.25397 c 0,0 9.54067,9.77649 11.53757,15.65841 1.4414,4.24552 1.585,9.01629 0,13.22681 -2.0517,5.45024 -6.987,9.97493 -11.75607,14.1086 -9.93786,8.6137 -20.91156,17.4059 -34.38296,21.63513 -6.4539,2.02617 -13.8118,2.04279 -20.6569,1.29135 -6.061,-0.66537 -17.2922,-5.04969 -17.2922,-5.04969"
           id="path243" /><path
           style="fill:#fcffd4;fill-opacity:0.484931;stroke:none;stroke-width:4;stroke-linejoin:round;stroke-dasharray:none;stroke-opacity:0.419178"
           d="m 984.76137,440.13476 -27.9613,15.58794 c 0,0 -14.3585,8.72927 -15.87,15.58796 -1.5114,6.8587 -1.5114,10.59981 -1.5114,10.59981 l 15.8699,6.85869 c 0,0 5.2901,-3.74111 5.2901,-8.72925 0,-4.98815 15.1141,-16.21147 15.1141,-16.21147 l 17.38126,-11.22332 -4.53426,-12.47036 z"
           id="path244" /><path
           style="display:inline;fill:url(#linearGradient271);fill-opacity:1;stroke:#ffffff;stroke-width:2.19901;stroke-linejoin:round;stroke-dasharray:none;stroke-opacity:0.810207"
           d="m 1018.3064,409.80873 -8.7766,19.62907 c -17.05409,-1.99262 -22.7577,-0.44856 -33.27255,1.20039 0,0 -18.23372,7.04439 -25.62773,12.50714 -9.06629,6.69825 -17.29128,14.80024 -21.93077,24.08301 -3.75042,7.5039 -2.31794,11.24527 -3.34354,22.08918 l -27.63983,2.61975 c 2.50991,-0.46019 3.55122,5.24489 1.63833,7.99018 10.63476,4.22119 1.75216,7.24109 0.67665,6.14055 6.66407,2.09234 26.12038,-0.8409 33.22112,0.61607 7.10074,1.45697 18.84936,9.79821 24.45653,9.49877 19.05786,-1.01772 42.45179,-7.76849 57.14109,-19.74302 9.4004,-7.66308 12.9021,-19.36991 15.753,-30.01633 1.4145,-5.28233 0.5163,-16.22357 0.5163,-16.22357 l 26.2354,-8.90369 c -10.1113,-1.39411 -5.719,-8.98722 -5.2528,-13.93793 0,0 -6.1613,0.87787 -8.9483,8.8e-4 -2.2086,-0.69502 1.0911,3.56306 -5.2897,-3.89682 -7.1864,-8.40176 5.3947,-13.00376 -5.3878,-9.67961 -5.3912,1.66209 -3.1628,-1.61899 -7.0991,-2.24089 -3.9362,-0.6219 -7.0697,-1.73313 -7.0697,-1.73313 z"
           id="path245" /><path
           style="display:none;fill:url(#linearGradient272);fill-opacity:1;stroke:#ffffff;stroke-width:2.19901;stroke-linejoin:round;stroke-dasharray:none;stroke-opacity:0.810207"
           d="m 1018.3064,409.80873 -8.7766,19.62907 c -17.05409,-1.99262 -22.7577,-0.44856 -33.27255,1.20039 0,0 -18.23372,7.04439 -25.62773,12.50714 -9.06629,6.69825 -17.29128,14.80024 -21.93077,24.08301 -3.75042,7.5039 -2.31794,11.24527 -3.34354,22.08918 l -27.63983,2.61975 c 2.50991,-0.46019 3.55122,5.24489 1.63833,7.99018 10.63476,4.22119 1.75216,7.24109 0.67665,6.14055 6.66407,2.09234 26.12038,-0.8409 33.22112,0.61607 7.10074,1.45697 18.84936,9.79821 24.45653,9.49877 19.05786,-1.01772 42.45179,-7.76849 57.14109,-19.74302 9.4004,-7.66308 12.9021,-19.36991 15.753,-30.01633 1.4145,-5.28233 0.5163,-16.22357 0.5163,-16.22357 l 26.2354,-8.90369 c -10.1113,-1.39411 -5.719,-8.98722 -5.2528,-13.93793 0,0 -6.1613,0.87787 -8.9483,8.8e-4 -2.2086,-0.69502 1.0911,3.56306 -5.2897,-3.89682 -7.1864,-8.40176 5.3947,-13.00376 -5.3878,-9.67961 -5.3912,1.66209 -3.1628,-1.61899 -7.0991,-2.24089 -3.9362,-0.6219 -7.0697,-1.73313 -7.0697,-1.73313 z"
           id="path246" /></g><g
         id="g255"
         style="display:inline"><path
           style="display:none;fill:none;fill-opacity:1;stroke:#bec6c6;stroke-width:3.04682;stroke-linejoin:round;stroke-opacity:1"
           d="m 1143.7404,462.39055 2.0894,-13.80457 c 0,0 -4.0944,11.00774 -5.6869,16.60857 -2.1998,7.73675 -5.3296,23.4313 -5.3296,23.4313"
           id="path247" /><path
           style="fill:none;fill-opacity:1;stroke:#bec6c6;stroke-width:4.39802;stroke-linejoin:round;stroke-dasharray:none;stroke-opacity:1"
           d="m 967.07986,648.02183 c 0,0 13.84214,-17.8586 19.47142,-27.36024 4.80617,-8.1123 9.06778,-16.50345 12.12885,-25.17268 4.72627,-13.38512 7.25117,-27.26601 9.50307,-41.08322 2.0731,-12.71987 3.6714,-38.38372 3.6714,-38.38372 0,0 7.8317,25.11574 8.8983,37.98005 1.3042,15.72977 1.9341,32.02329 -3.1137,47.22979 -3.8256,11.52449 -10.1328,23.1024 -20.07508,31.79061 -8.1223,7.09776 -30.48426,14.99941 -30.48426,14.99941 z"
           id="path248" /><path
           style="fill:none;fill-opacity:1;stroke:#bec6c6;stroke-width:4.39802;stroke-linejoin:round;stroke-dasharray:none;stroke-opacity:1"
           d="m 764.14998,509.4018 c -7.95844,8.15962 -15.61828,16.58599 -22.07289,25.60456 -4.83088,6.74985 -9.69728,13.66549 -12.36082,21.18998 -4.83469,13.65794 -7.73307,28.20919 -6.18041,42.37995 1.07576,9.81822 5.12553,19.48858 10.59499,28.25331 2.66822,4.27578 10.59499,11.47791 10.59499,11.47791 0,0 -7.04014,-15.0647 -8.82916,-22.95582 -1.70865,-7.53659 -2.08427,-15.29481 -1.74274,-22.95693 0.47631,-10.68624 1.50423,-21.55282 5.2744,-31.78384 5.65816,-15.35443 17.46132,-28.68858 25.60456,-43.26288 3.09335,-5.5363 8.82916,-16.7754 8.82916,-16.7754 0,0 -6.69207,5.73281 -9.71208,8.82916 z"
           id="path249" /><path
           style="fill:none;fill-opacity:1;stroke:#bec6c6;stroke-width:4.39802;stroke-linejoin:round;stroke-dasharray:none;stroke-opacity:1"
           d="m 789.75454,500.57264 c 0,0 14.72962,28.49875 20.30706,43.26287 3.00164,7.94568 5.61166,16.0442 7.04024,24.28301 2.55408,14.72965 5.3853,29.87419 2.67184,44.58443 -2.05792,11.15641 -14.12665,31.78497 -14.12665,31.78497 0,0 15.26569,-11.76332 19.42414,-19.42415 6.34282,-11.68496 6.87192,-25.163 7.0633,-37.96538 0.19958,-13.35135 -1.0112,-27.07832 -6.1804,-39.73121 -6.96873,-17.05769 -32.66787,-46.79454 -32.66787,-46.79454 z"
           id="path250" /><path
           style="fill:none;fill-opacity:1;stroke:#bec6c6;stroke-width:4.39802;stroke-linejoin:round;stroke-dasharray:none;stroke-opacity:1"
           d="m 1103.2627,569.3629 c 0.611,-9.57757 4.1269,-32.90655 5.2646,-42.11757 1.1377,-9.21102 1.7865,-18.33324 0.442,-27.5556 -2.0486,-14.05212 -15.0096,-40.61413 -15.0096,-40.61413 0,0 18.1512,18.25189 22.9558,29.13623 4.4311,10.03818 2.8272,20.9356 4.7327,31.81093"
           id="path251" /><path
           style="fill:none;fill-opacity:1;stroke:#bec6c6;stroke-width:4.39802;stroke-linejoin:round;stroke-dasharray:none;stroke-opacity:1"
           d="m 1068.2351,611.71032 c -1.56,-3.28914 -25.1233,-34.81923 -29.1005,-54.3518 -3.2101,-15.7652 -0.4385,-32.40773 4.8237,-47.79298 5.0444,-14.74843 25.0863,-41.05039 25.0863,-41.05039 0,0 -13.6396,24.32767 -15.911,37.40944 -2.6524,15.27584 -1.2432,31.19493 2.9674,46.23061 4.6945,16.76385 24.4325,47.51729 24.4325,47.51729"
           id="path252" /><path
           style="fill:none;fill-opacity:1;stroke:#bec6c6;stroke-width:4.39802;stroke-linejoin:round;stroke-dasharray:none;stroke-opacity:1"
           d="m 853.32447,533.24053 c 0,0 -2.69491,27.58685 0.30236,41.04261 2.92491,13.13092 9.11266,25.85643 16.98427,37.52109 6.1434,9.10369 13.49349,18.04274 23.18781,24.72052 5.94939,4.09815 13.27289,6.83955 20.6326,8.84382 10.73966,2.92473 33.50347,4.41797 33.50347,4.41797 0,0 -32.00586,-12.84536 -44.47014,-22.96597 -8.78647,-7.13435 -13.96185,-16.7916 -20.12117,-25.6023 -7.40069,-10.58643 -15.10678,-21.18436 -20.16744,-32.67014 -5.00097,-11.35033 -9.85176,-35.3076 -9.85176,-35.3076 z"
           id="path253" /><path
           style="fill:none;fill-opacity:1;stroke:#bec6c6;stroke-width:4.39802;stroke-linejoin:round;stroke-dasharray:none;stroke-opacity:1"
           d="m 715.54673,524.75807 c 0,0 -2.08089,21.63326 -5.57404,32.0258 -2.6601,7.91412 -7.4434,15.24062 -11.58551,22.7086 -6.3038,11.36537 -20.17311,33.60022 -20.17311,33.60022 0,0 12.06633,-4.45788 16.64863,-8.22446 9.45132,-7.76885 15.8287,-18.01734 20.68875,-28.26846 4.17365,-8.80331 7.08658,-18.32737 6.91252,-27.77914 -0.15177,-8.24243 -6.91724,-24.06256 -6.91724,-24.06256 z"
           id="path254" /><path
           style="display:inline;fill:none;fill-opacity:1;stroke:#bec6c6;stroke-width:4.39802;stroke-linejoin:round;stroke-dasharray:none;stroke-opacity:1"
           d="m 600.27074,482.85801 c 0,0 2.82101,28.91592 6.33494,43.1356 1.70491,6.89917 3.83725,13.79149 7.12752,20.35184 5.41672,10.80019 13.09745,20.88679 20.59109,30.94676 5.19603,6.9755 9.92794,14.30723 16.86418,20.34871 4.56341,3.97473 21.26681,17.50086 15.95589,10.17382 -5.31091,-7.32703 -17.24712,-24.8313 -25.31998,-37.4555 -7.47095,-11.68296 -15.39073,-23.2538 -21.38254,-35.41764 -8.34939,-16.94993 -20.1711,-52.08359 -20.1711,-52.08359 z"
           id="path255" /></g><path
         style="display:inline;fill:#a2ffff;fill-opacity:0.305361;stroke:none;stroke-width:4.39802;stroke-linejoin:round;stroke-dasharray:none;stroke-opacity:0.419178"
         d="m 568.91194,396.34475 c -2.84089,19.27764 1.41523,41.57477 6.00367,61.93764 5.49009,24.36429 13.14896,48.22503 25.57909,71.28693 8.43763,15.65451 15.74396,33.73503 25.95887,48.90878 10.21491,15.17375 23.33839,27.44072 38.71979,38.95035 8.09781,6.05946 19.32907,11.61217 30.08994,15.69643 14.5519,5.52314 27.81368,7.93086 41.98234,11.17618 17.52967,4.01515 35.09229,8.3992 53.14713,10.24305 21.11973,2.15686 39.54151,0.56067 63.83367,0.88619 24.29215,0.32551 63.02418,-0.92883 87.13243,-1.24058 51.1294,-0.66118 126.14743,-35.67324 124.99573,-39.11575 15.4687,-9.99395 31.2298,-34.18404 31.2298,-34.18404 10.1359,-22.10874 15.9643,-37.97255 30.9644,-79.73521 6.2498,-17.28236 10.0763,-36.29896 21.8153,-61.01996 0,0 6.0481,-17.76876 7.2917,-30.63716 1.2436,-12.8684 -2.3174,-20.83643 -1.8871,-33.13051 l -57.4371,12.48632 c -5.8895,1.28033 97.4484,0.16314 14.1362,9.55156 -4.2957,0.48408 -4.2511,35.70376 -8.433,35.2438 -4.1819,-0.45995 -21.1402,1.31733 -25.2423,0.1689 -4.1021,-1.14843 -26.3411,28.28536 -30.3972,26.70401 -4.0561,-1.58134 -42.9976,41.55575 -47.4098,42.54257 l -75.21133,16.82198 c -4.38895,0.98165 -78.6872,-14.72127 -82.8086,-16.06803 -4.1213,-1.34675 -23.24126,-13.04419 -27.45212,-13.80163 -4.21086,-0.75744 -26.64343,-9.09243 -30.97768,-9.005 -26.14706,0.52742 -45.89785,24.97766 -71.4408,23.37073 -26.14662,-1.64492 -50.00603,-16.96972 -67.88766,-32.79459 -16.70971,-14.78775 -38.68214,-34.7701 -32.61233,-54.35766 4.33773,-13.99807 68.63081,-25.70238 43.04418,-24.84949 l -52.47447,-0.1481 c -12.60679,0.42022 -16.09334,-3.19476 -23.80248,-1.56159 -4.03896,0.85565 -9.75679,0.9681 -10.45027,5.67388 z"
         id="path256" /><path
         id="path257"
         style="fill:#d6e2e2;fill-opacity:1;stroke:#9eb0b0;stroke-width:4.39802;stroke-linejoin:round;stroke-dasharray:none;stroke-opacity:1"
         d="m 1048.942,398.46025 c 26.4568,2.66801 40.2905,-3.52886 48.6712,-0.64626 7.2546,2.49528 7.3271,25.70917 3.0381,30.96919 -5.154,6.3208 -9.9164,-9.57005 -31.5328,4.97172 -8.1079,5.45432 -16.2581,15.3199 -23.7098,21.64124 -12.2412,10.38435 -22.5732,23.76708 -36.9785,30.85007 -27.54813,13.54527 -59.22513,18.81942 -89.90143,19.97811 -26.4435,0.99881 -52.7251,-5.66614 -78.575,-11.32642 -18.22121,-3.98983 -35.01914,-16.70164 -53.65445,-15.89248 -15.39975,0.66866 -27.99292,13.55304 -43.03341,16.92689 -13.69055,3.07102 -28.44242,6.41693 -41.99903,2.80022 -17.39946,-4.64193 -42.15903,-17.97638 -53.77989,-31.73299 -14.26257,-16.88383 -40.17376,-37.2251 -32.33893,-57.8915 4.95556,-13.07157 63.53874,-14.68511 63.53874,-14.68511 -77.75735,-2.62586 -104.28185,-6.64433 -109.77486,0.005 -3.18362,-0.63672 1.78091,32.99813 14.98358,54.35984 17.07699,27.63029 31.59258,37.95452 52.44253,49.94526 17.34846,9.97705 37.51506,15.57687 57.43705,17.48084 15.83124,1.51301 32.34346,-0.0175 47.448,-4.99452 15.59321,-5.13803 29.06198,-22.75925 45.47631,-23.10208 28.29614,-0.59101 44.80066,29.90538 71.89506,38.08566 24.8191,7.49333 51.7972,11.47392 77.4151,7.49179 31.3215,-4.86872 60.97646,-19.95706 87.40413,-37.45895 24.0518,-15.92842 41.4676,-54.98063 69.9887,-59.3108 14.7221,-2.23516 17.7006,21.73984 32.3991,19.35459 10.4582,-1.69713 16.3375,-13.61272 22.4754,-22.47536 11.7031,-16.89844 16.8035,-55.47656 1.153,-55.47656 -70.4476,5.72724 -47.2012,9.57003 -88.4385,14.10198 l -16.5653,-4.9e-4 z" /><path
         style="display:inline;fill:none;fill-opacity:1;stroke:#6a6e6e;stroke-width:4.39802;stroke-linecap:round;stroke-linejoin:round;stroke-dasharray:none;stroke-opacity:1"
         d="m 565.77614,396.54153 c 2.21899,15.13396 3.79715,41.4816 9.13947,61.74086 7.70817,29.23111 18.15927,58.20633 32.86356,85.55073 12.70889,23.63372 25.47935,48.50316 47.38306,66.99368 13.45134,11.35526 35.88012,20.72058 49.18531,24.94345 26.65757,8.46072 37.29542,12.42407 65.58088,16.72197 28.28547,4.2979 49.34037,2.57521 77.88562,3.37898 50.71394,1.428 112.37549,1.27224 163.37256,-15.29297 29.7081,-9.64998 57.9277,-25.88153 76.9897,-47.01382 23.6938,-26.26702 30.2213,-71.30395 40.3725,-92.40969 12.4256,-25.83484 12.7266,-32.51582 15.1708,-38.15436 2.0801,-4.79868 6.6445,-22.8656 6.6445,-22.8656"
         id="path258" /></g></g></svg>
