<?xml version="1.0" encoding="UTF-8"?>
<svg width="107.01" height="109.76" version="1.1" viewBox="0 0 107.01 109.76" xml:space="preserve" xmlns="http://www.w3.org/2000/svg"><defs><filter id="b" x="-.226" y="-.31663" width="1.452" height="1.6333" color-interpolation-filters="sRGB"><feGaussianBlur stdDeviation="1.3867218"/></filter><filter id="a" x="-.44294" y="-.56505" width="1.8859" height="2.1301" color-interpolation-filters="sRGB"><feGaussianBlur stdDeviation="0.83860363"/></filter><clipPath id="d"><path d="m1256.3 650.76c5.0582 0.64034 8.6827 4.9196 8.0956 9.5579-0.5878 4.6382-5.1648 7.8786-10.223 7.2376-5.0575-0.6412-8.6808-4.92-8.0937-9.5576 0.5877-4.6375 5.1634-7.8778 10.221-7.2379z" fill="#3a2800" stroke="#190a03" stroke-linejoin="bevel"/></clipPath><clipPath id="c"><path d="m1255.1 650.8c5.0986-3.4e-4 9.2321 3.7895 9.2324 8.4648-3e-4 4.6753-4.1338 8.4652-9.2324 8.4648-5.0979-6.2e-4 -9.2302-3.7902-9.2305-8.4648 3e-4 -4.6746 4.1326-8.4642 9.2305-8.4648z" fill="#3a2800" stroke="#190a03" stroke-linejoin="bevel"/></clipPath></defs><g transform="translate(-900.04 -351.49)"><g transform="matrix(5.5486 0 0 6.0523 -6012.7 -3580)"><path d="m1255.5 649.94c5.0986-3.4e-4 9.2321 3.7895 9.2324 8.4648-3e-4 4.6753-4.1338 8.4652-9.2324 8.4648-5.0979-6.2e-4 -9.2302-3.7902-9.2305-8.4648 3e-4 -4.6746 4.1326-8.4642 9.2305-8.4648z" fill="#4f3600" stroke="#190a03" stroke-linejoin="bevel" stroke-width=".69025"/><path d="m1253 652.83-1.6971 0.27372-1.8613 1.7518 0.219 0.9854s0.7664 0.60219 1.0401 0.54744c0.2738-0.0547 1.8613-0.9854 1.8613-0.9854l1.4234-1.4781z" clip-path="url(#c)" fill="#fbc944" filter="url(#a)"/><path transform="rotate(-7.2187 1256 660.66)" d="m1248.6 660.6 3.7226 1.8066 5.5839-1.0949s2.0803-2.2445 2.3541-2.6277c0.2737-0.38321 1.7518-3.2847 1.7518-3.2847l1.3138 4.5438-1.7518 3.7774-3.7226 2.1898-6.3504-0.27372-2.4635-3.1752z" clip-path="url(#d)" fill="#1a1100" filter="url(#b)" style="mix-blend-mode:normal"/></g></g></svg>
