<?xml version="1.0" encoding="UTF-8" standalone="no"?>
<!DOCTYPE svg PUBLIC "-//W3C//DTD SVG 1.1//EN" "http://www.w3.org/Graphics/SVG/1.1/DTD/svg11.dtd">
<svg width="100%" height="100%" viewBox="0 0 881 604" version="1.1" xmlns="http://www.w3.org/2000/svg" xmlns:xlink="http://www.w3.org/1999/xlink" xml:space="preserve" xmlns:serif="http://www.serif.com/" style="fill-rule:evenodd;clip-rule:evenodd;stroke-linejoin:round;stroke-miterlimit:2;">
    <g transform="matrix(1,0,0,1,-287.691,-313.814)">
        <g transform="matrix(1,0,0,1,-10.6818,18.2795)">
            <g transform="matrix(1,0,0,1,-379.439,-483.519)">
                <path d="M799.446,896.899C786.867,903.738 807.875,938.98 801.711,938.291C798.229,937.901 776.187,913.202 768.125,915.578C759.415,918.144 782.804,953.254 774.952,959.842C757.436,974.539 720.823,1050.84 715.229,1059.76C709.796,1068.42 700.146,1092.53 697.899,1111.98C696.242,1126.33 726.805,1138.29 744.214,1134.87C755.657,1132.62 773.025,1108.08 797.041,1103.8C804.44,1102.49 832.566,1075.07 853.011,1072.08C882.773,1067.73 893.121,1060.11 908.159,1062.69C915.112,1063.89 919.398,1131.83 921.688,1142.95C927.618,1171.73 933.922,1182.86 933.766,1201.94C933.548,1228.48 926.135,1237.95 917.034,1263.72C912.824,1275.64 900.76,1287.41 889.514,1293.04C883.937,1295.83 877.347,1299.62 872.028,1303.1C870.056,1304.39 856.577,1319.9 859.425,1323.05C870.76,1335.62 902.039,1331.24 915.457,1326.68C925.609,1323.23 933.647,1317.04 942.704,1310.13C951.448,1303.47 956.908,1286.25 962.002,1277C971.4,1259.93 979.336,1243.99 986.423,1225.88C992.001,1211.62 999.123,1204.21 1006.4,1190.7C1013.75,1177.04 1030.05,1126.73 1031.32,1141.15C1032.23,1151.49 1037.22,1171.82 1041.77,1183.18C1043.98,1188.68 1050.07,1218.69 1049.59,1228.4C1049.19,1236.75 1051.43,1248.15 1053.57,1256.25C1056.9,1268.82 1069.9,1269.36 1074.43,1280.47C1079.47,1292.84 1073.15,1323.07 1089.87,1325.25C1095.32,1325.96 1103.67,1324.51 1108.3,1321.73C1121.76,1313.65 1115.74,1301.83 1115.74,1286.64C1115.74,1283.19 1119.44,1269.29 1118.09,1266.85C1112.63,1257.03 1101.53,1253.5 1098.25,1241.2C1094.53,1227.24 1095.63,1213.69 1099.45,1200.67C1104.12,1184.78 1112.84,1169.7 1121.78,1155.65C1126.65,1147.99 1127,1123.97 1136.94,1120.14C1145.62,1116.81 1181.31,1113.38 1198.16,1118.89C1207.96,1122.1 1219.33,1124.92 1229.5,1126.64C1238.87,1128.23 1248.93,1124.99 1253.26,1134.24C1258.4,1145.21 1259.98,1174.26 1263.83,1187.43C1265.41,1192.87 1269.44,1200.94 1272.78,1205.71C1277.51,1212.47 1283.94,1220.92 1290.45,1225.4C1300.48,1232.32 1306.06,1246.42 1311.66,1255.3C1316.43,1262.86 1322.47,1266.25 1325.7,1274.82C1330.38,1287.23 1322.83,1293.38 1320.84,1298.38C1316.09,1310.27 1298.18,1347.15 1330.03,1342.04C1345.13,1339.61 1345.77,1316.41 1354.03,1305.97C1359.01,1299.68 1365.95,1295.96 1370.14,1288.99C1376.6,1278.21 1382.34,1264.53 1375.89,1253.5C1372.22,1247.22 1368.75,1242.86 1365.37,1236.39C1360.85,1227.72 1354.54,1201.62 1353.82,1192.82C1352.46,1176.17 1361.2,1139.59 1367.1,1135.01C1372.46,1130.86 1375.35,1126.67 1378.45,1128.98C1388.21,1136.27 1385.53,1163.33 1390.54,1173.68C1394.3,1181.46 1395.37,1186.45 1400.05,1193.58C1406.13,1202.85 1409.02,1216.5 1414.03,1226.36C1418.46,1235.1 1419.71,1250.93 1425.27,1262.81C1431.18,1275.43 1441.75,1295.99 1439.49,1307.08C1435.46,1326.83 1399.84,1317.97 1385.05,1328.58C1379.67,1332.44 1377.9,1337.46 1378.69,1345.81C1379.6,1355.56 1396.9,1359.17 1403.59,1359.47C1425.02,1360.4 1469.62,1356.06 1482.85,1337.63C1492.33,1324.43 1501.33,1275.05 1501.33,1264.06C1501.33,1246.91 1506.16,1245.34 1504.67,1228.58C1503.09,1210.84 1503.62,1183.22 1505.57,1165.56C1508.31,1140.73 1515.3,1118.89 1524.67,1096.29C1539.16,1061.32 1539.64,1010.03 1531.66,972.213C1527.21,951.156 1509.79,935.461 1497.59,918.764C1489.18,907.26 1482.92,895.96 1471.94,886.672C1465.41,881.146 1389.86,827.534 1361.28,824.501C1323.93,820.538 1232.68,795.302 1213.73,800.52C1207.86,802.138 1080.02,807.554 1041.01,810.773C1015.62,812.869 985.095,828.482 976.402,833.224C961.806,841.185 948.939,856.834 932.095,855.16C907.708,852.738 854.592,919.657 845.889,919.657C845.889,919.657 811.8,890.183 799.446,896.899Z" style="fill:rgb(47,38,29);"/>
            </g>
        </g>
        <g transform="matrix(1,0,0,1,-10.6818,18.2795)">
            <g transform="matrix(0.943742,-0.330682,0.330682,0.943742,-635.269,-111.771)">
                <path d="M658.929,1008.69C659.333,1009.57 659.569,1006.84 660.048,1006C661.137,1004.08 662.4,1002.26 663.904,1000.64C668.794,995.371 671.154,990.226 677.198,986.323C683.268,982.402 687.782,974.264 693.17,969.449C703.858,959.898 711.213,950.765 721.358,946.03C723.454,945.052 732.264,956.182 734.537,955.727C737.117,955.211 739.357,953.362 742.037,952.806C747.447,951.683 759.723,953.082 762.098,959.613C762.924,961.884 756.906,962.957 755.652,963.95C752.022,966.824 748.712,972.534 749.206,977.354C750.909,993.96 774.94,1012.58 763.694,1030.58C757.856,1039.92 743.95,1037.4 735.17,1039.49C721.419,1042.77 708.64,1051.28 693.904,1050.82C688.76,1050.66 684.494,1046.27 680.41,1043.71C668.069,1035.96 654.736,1026.13 658.813,1009.31C658.843,1009.19 658.929,1008.69 658.929,1008.69Z" style="fill:rgb(154,115,73);"/>
            </g>
        </g>
        <g transform="matrix(1,0,0,1,-10.6818,18.2795)">
            <g transform="matrix(0.943742,-0.330682,0.330682,0.943742,-601.51,-80.7231)">
                <path d="M627.792,972.666C628.92,966.916 639.338,956.889 645.297,961.481C654.74,968.757 655.241,986.564 645.658,990.908C638.962,993.944 626.018,981.712 627.792,972.666Z"/>
                <path d="M626.236,972.361C626.293,972.056 626.659,968.897 630.366,964.479C631.686,962.906 640.109,954.801 646.731,960.136C653.849,965.871 656.045,976.762 653.33,984.749C652.478,987.254 650.835,990.416 646.825,992.744C642.576,995.212 637.086,992.807 634.879,991.342C629.71,987.914 624.903,981.797 624.549,975.254C624.498,974.312 625.094,972.393 625.169,972.152L626.236,972.361ZM629.35,972.972L630.416,973.181C630.42,973.182 630.449,973.793 630.679,974.553C630.874,975.202 630.641,976.934 633.112,980.829C634.329,982.747 636.441,985.098 638.641,986.603C639.971,987.513 643.109,990.222 645.991,988.383C649.683,986.026 651.69,980.415 650.364,973.753C648.966,966.724 644.613,963.023 643.15,962.495C640.647,961.59 636.83,963.56 633.691,966.793C633.187,967.313 630.494,969.763 629.479,972.554C629.429,972.691 629.389,972.831 629.35,972.972Z"/>
            </g>
        </g>
        <g transform="matrix(1,0,0,1,-10.6818,18.2795)">
            <g transform="matrix(0.884794,-0.465982,0.465982,0.884794,-699.022,64.1153)">
                <path d="M637.855,970.454C636.507,969.11 636.475,969.013 636.475,967.109C636.475,964.695 636.885,964.75 638.59,963.036C648.121,953.454 665.028,938.409 712.585,904.598C713.631,903.854 732.704,890.641 749.561,879.619C752.307,877.824 757.164,873.928 771.728,869.123C774.882,868.082 783.841,865.422 793.365,863.81C799.117,862.837 802.835,862.547 804.475,862.438C804.737,862.421 804.873,862.412 807.631,863.307C808,863.426 811.615,864.599 812.133,865.117C812.145,865.129 813.268,867.773 813.264,867.782C812.889,868.712 812.842,869.861 812.133,870.57C811.762,870.941 811.469,870.366 806.174,873.281C806.014,873.369 805.868,873.49 805.695,873.548C805.6,873.58 801.176,874.001 793.036,876.055C792.764,876.124 784.796,877.965 774.058,881.801C762.536,885.916 758.992,888.944 756.734,890.457L709.416,922.134C661.06,954.649 647.833,967.347 645.548,969.478C643.649,971.248 643.794,971.831 641.197,971.831C639.296,971.831 639.201,971.796 637.855,970.454Z"/>
            </g>
        </g>
        <g transform="matrix(1,0,0,1,-10.6818,18.2795)">
            <g transform="matrix(0.943742,-0.330682,0.330682,0.943742,-677.263,-94.4219)">
                <path d="M852.922,880.305L852.899,880.304C852.845,877.846 852.732,877.851 852.733,875.391C852.736,866.736 852.378,848.177 861.292,840.055C861.901,839.5 865.412,836.302 870.805,836.107C876.096,835.915 880.817,839.362 884.772,842.631C885.64,843.349 889.001,846.127 894.682,852.628C898.861,857.41 904.553,864.913 908.266,871.601C909.826,874.411 911.37,877.531 911.647,878.309C912.448,880.563 917.614,894.51 912.426,902.854C911.843,903.792 911.194,904.624 911.114,904.686C910.394,905.246 909.767,905.955 908.953,906.366C908.58,906.554 906.431,907.639 903.744,906.767C900.973,905.868 899.864,903.658 899.671,903.275C898.408,900.762 899.143,898.464 899.27,898.066C899.507,897.326 899.922,896.625 900.226,896.168C900.194,896.157 900.162,896.145 900.128,896.133C899.9,896.052 900.194,894.067 897.556,887.932C897.466,887.723 897.055,886.619 896.113,884.578C895.744,883.777 895.257,881.858 893.038,876.876C892.515,875.7 889.151,867.243 883.013,858.182C882.291,857.116 878.277,851.701 875.266,849.377C874.978,849.154 872.726,847.416 871.284,847.168C870.915,847.104 870.197,847.326 870.056,847.371C869.46,847.647 865.207,849.114 864.637,865.272C864.49,869.449 864.462,869.444 864.432,875.423C864.425,876.872 864.221,881.048 863.693,882.934C862.527,887.091 856.469,899.43 854.32,901.399C852.034,903.494 848.296,902.55 847.663,899.237C847.356,897.633 848.189,896.477 848.331,896.28C848.334,896.276 848.441,896.209 848.61,896.103C850.539,890.874 852.691,882.89 852.922,880.305ZM900.294,896.192C900.295,896.531 901.013,896.486 901.754,896.808C901.235,896.521 901.039,896.457 900.294,896.192ZM900.378,895.947C900.545,895.711 900.643,895.595 900.593,895.655C900.497,895.768 900.427,895.864 900.378,895.947ZM855.155,897.843C855.188,897.866 855.22,897.89 855.253,897.913L855.237,897.826L855.155,897.843Z"/>
            </g>
        </g>
        <g transform="matrix(1,0,0,1,-10.6818,18.2795)">
            <g transform="matrix(0.824495,-0.565869,0.565869,0.824495,-756.762,187.751)">
                <path d="M637.092,993.494C634.31,989.282 634.027,989.315 634.191,989.088C634.726,988.35 635.041,987.38 635.802,986.879C639.565,984.405 643.728,988.505 644.223,988.992C645.691,990.438 647.15,992.436 648.461,994.188C648.971,994.869 649.585,996.394 651.051,998.931C652.382,1001.23 652.734,1001.49 653.23,1002.4C655.863,1007.25 659.815,1011.37 666.729,1013.65C666.748,1013.66 669.709,1014.55 675.219,1014.7C690.826,1015.13 707.254,1009.84 723.366,1014.04C738.001,1017.86 761.228,1013.5 779.579,1016.34C788.341,1017.7 792.104,1019.83 797.117,1022.07C808.649,1027.22 824.77,1033.75 847.676,1045.34C848.287,1045.65 848.282,1045.65 851.021,1047.67C851.202,1047.8 853.22,1049.28 853.275,1049.33C853.87,1049.84 854.567,1050.24 855.059,1050.85C855.284,1051.12 856.588,1052.73 856.422,1055.08C856.396,1055.45 856.25,1057.52 854.302,1059.21C854.034,1059.45 852.423,1060.85 850.069,1060.58C849.815,1060.55 849.852,1060.42 843.98,1058.61C842.595,1058.18 842.251,1058.12 841.481,1057.74C821.393,1047.87 806.941,1042.08 789.788,1034.24C784.247,1031.71 780.608,1029.22 758.525,1028.88C745.66,1028.68 731.407,1029.14 720.07,1025.67C704.055,1020.76 682.798,1028.13 664.706,1023.5C662.075,1022.83 651.275,1021.18 642.613,1009.31C640.998,1007.09 638.671,1001.25 638.382,1000.53C637.991,999.548 637.961,999.56 637.751,998.522C637.182,995.703 637.12,995.721 636.849,994.327C636.777,993.959 636.823,993.918 636.997,993.666L637.092,993.494Z"/>
            </g>
        </g>
        <g transform="matrix(1,0,0,1,-10.6818,18.2795)">
            <g transform="matrix(1,0,0,1,-378.967,-473.065)">
                <path d="M863.056,1310.68C864.534,1312.65 870.531,1316.26 878.024,1315.53C884.951,1314.85 893.3,1315.54 913.682,1311.78C928.522,1309.04 936.531,1300.29 942.346,1292.35C942.371,1292.32 944.245,1289.49 946.74,1284.8C954.05,1271.05 961.446,1251.04 962.3,1249.09C973.677,1223.17 974.221,1219.38 982.724,1202.75C992.373,1183.87 1006.38,1159.91 1013.38,1144.49C1018.71,1132.72 1023.73,1094.39 1032.37,1075.31C1032.6,1074.79 1033.93,1071.85 1037.53,1070.52C1038.63,1070.11 1039.83,1069.9 1041,1069.94C1044.86,1070.07 1047.09,1072.49 1047.47,1072.9C1050.01,1075.65 1049.9,1078.83 1049.88,1079.38C1049.8,1082 1049.45,1081.94 1048.44,1084.35C1041.1,1101.92 1036.27,1137.98 1029.87,1151.98C1020.4,1172.69 999.701,1206.07 990.768,1226.76C988.24,1232.61 983.059,1244.66 977.856,1256.06C977.432,1256.99 969.884,1271.81 963.382,1282.31C956.691,1293.12 952.791,1297.49 951.041,1299.8C936.64,1318.76 923.056,1321.3 910.014,1323.7C893.294,1326.77 886.949,1326.36 878.644,1327.26C865.123,1328.74 848.411,1320.06 850.81,1308.27C851.536,1304.7 853.585,1302.69 856.106,1299.95C859.226,1296.55 859.312,1296.63 862.23,1293.49C871.641,1283.36 874.871,1283.18 877.38,1282.12C879.141,1281.37 879.092,1281.27 880.862,1280.54C889.598,1276.97 897.671,1271.37 899.425,1268.32C899.78,1267.7 900.49,1265.57 907.127,1252.52C911.467,1244 915.713,1235.84 919.358,1227.12C919.359,1227.12 920.647,1223.29 921.801,1218.74C925.672,1203.44 925.642,1192.12 919.524,1169.58C918.139,1164.47 918.019,1164.51 917.094,1160.76C911.762,1139.14 909.968,1134.59 906.776,1097.16C906.648,1095.65 906.548,1094.74 905.64,1081.71C905.504,1079.76 905.691,1079.77 906.108,1075.56C907.121,1065.34 907.986,1056.76 908.689,1048.18C909.112,1043 911.75,1043.84 912.166,1043.97C913.074,1044.26 914.152,1044.24 914.887,1044.85C916.074,1045.83 915.952,1045.96 916.359,1047.44C918.676,1055.92 920.119,1061.58 923.363,1074.25C924.413,1078.34 924.594,1078.31 924.757,1080.25C927.074,1108 928.139,1120.8 929.739,1131.02C931.279,1140.85 935.099,1155.44 935.702,1158.74C939.82,1181.27 940.918,1196.04 936.947,1211.57C934.271,1222.03 930.412,1229.92 929.751,1231.74C924.543,1246.09 918.855,1256.53 911.958,1273.65C907.704,1284.2 888.507,1293.8 885.285,1294.94C882.641,1295.87 880.532,1296.37 880.112,1296.47L880.106,1296.45C879.236,1296.57 876.259,1298.2 870.698,1302.96C868.677,1304.69 864.228,1309.41 863.056,1310.68Z"/>
            </g>
        </g>
        <g transform="matrix(1,0,0,1,-10.6818,18.2795)">
            <g transform="matrix(1,0,0,1,-365.565,-485.167)">
                <path d="M1069.22,1334.07C1065.58,1332.69 1061.18,1329.19 1059.27,1320.1C1057.31,1310.85 1058.34,1298.08 1057.64,1291.76C1057.42,1289.8 1057.61,1289.74 1056.75,1287.96C1052.77,1279.75 1039.37,1277.76 1033.12,1264.18C1032.8,1263.5 1031.14,1259.74 1030.25,1257.39C1023.02,1238.37 1025.32,1220.74 1021.64,1202.37C1021.36,1200.99 1021.1,1200.94 1015.75,1182.55C1015.38,1181.3 1015.55,1181.27 1015.5,1179.97C1015.07,1170.55 1014.76,1162.22 1014.76,1162.21C1014.66,1160.8 1014.51,1160.82 1012.9,1144.63C1011.9,1134.56 1011.99,1134.17 1012.32,1133.23C1012.45,1132.86 1013.15,1131.81 1013.68,1131.49C1014.17,1131.18 1014.15,1131.14 1014.69,1130.96C1016.79,1130.23 1018.57,1131.65 1018.67,1131.86C1019.08,1132.74 1019.79,1133.57 1019.81,1134.54C1020.4,1136.72 1021.58,1141.16 1026.83,1158.53C1027.24,1159.89 1027.25,1159.89 1029.66,1166.11C1033.9,1177.08 1033.98,1177.05 1034.3,1178.02C1034.39,1178.27 1034.33,1178.28 1035.05,1183.39C1036.74,1195.42 1036.88,1195.44 1037.31,1198.88C1037.65,1201.73 1038.58,1205.14 1039.24,1218.85C1039.71,1228.78 1039.87,1243.29 1045.1,1255.38C1045.23,1255.7 1046.3,1257.87 1046.69,1258.51C1051.58,1266.57 1066.85,1268.35 1072.9,1283.73C1074.54,1287.9 1074.57,1292.13 1074.37,1299.18C1074.24,1303.6 1073.97,1309.3 1074.26,1313.79C1074.52,1317.64 1075.09,1319.29 1075.38,1319.95C1077.31,1319.96 1079.63,1319.91 1082.3,1319.4C1088.99,1318.1 1091.38,1314.86 1092.94,1311.04C1095.74,1304.23 1095.6,1294.66 1095.93,1291.89C1096.65,1285.86 1099.51,1279.42 1099.7,1274.19C1099.6,1272.76 1099.51,1272.6 1098.84,1271.87C1094.74,1267.38 1082.27,1260.91 1076.42,1241.55C1073.28,1231.16 1075.33,1220.02 1075.86,1216.84C1077.03,1209.82 1077.28,1209.87 1078.65,1201.45C1081.77,1182.45 1107.09,1139.03 1110.68,1124.35C1110.86,1123.62 1110.92,1123.11 1110.93,1123C1111.12,1123.01 1111.29,1123.02 1111.46,1123.03C1111.71,1121.07 1111.44,1119 1112.04,1117.12C1112.42,1115.94 1113.45,1115.05 1114.42,1114.28C1114.89,1113.9 1117.58,1111.75 1121.62,1112.22C1125.53,1112.67 1127.63,1115.3 1127.99,1115.76C1128.29,1116.13 1129.79,1118.02 1130.18,1121.28C1131.15,1129.46 1124.81,1142.25 1112.96,1166.09C1107.44,1177.19 1097.82,1196.17 1096.28,1204.47C1094.14,1216.03 1093.76,1215.95 1092.7,1222.55C1091.1,1232.6 1091.83,1236.34 1093.34,1240.94C1099.13,1258.67 1113.52,1259.16 1113.25,1273.8C1113.1,1281.36 1110.86,1286.07 1109.69,1291.92C1109.1,1294.92 1109.49,1297.4 1108.61,1304.03C1107.46,1312.74 1104.26,1326.69 1089.27,1332.29C1084.89,1333.92 1080.42,1334.51 1077.19,1334.74C1076.94,1334.84 1076.74,1334.91 1076.68,1334.92C1074.85,1335.33 1071.6,1334.97 1070.79,1334.7C1070.66,1334.66 1069.84,1334.39 1069.22,1334.07ZM1013.68,1137.35C1013.55,1137.35 1013.41,1137.35 1013.27,1137.36L1013.51,1137.56L1013.68,1137.35ZM1111.18,1124.38L1111.13,1124.39L1111.15,1124.48C1111.16,1124.44 1111.17,1124.41 1111.18,1124.38Z"/>
            </g>
        </g>
        <g transform="matrix(1,0,0,1,-10.6818,18.2795)">
            <g transform="matrix(1,0,0,1,-379.439,-483.519)">
                <path d="M1041.71,1076.26C1042.61,1076.37 1043.52,1075.87 1044.42,1075.98C1045.01,1076.05 1045.52,1076.46 1046.02,1076.79C1047.34,1077.63 1068.28,1095.14 1087.11,1104.49C1104.95,1113.35 1115.5,1112.35 1121.12,1112.06C1140.76,1111.07 1160.38,1107.88 1179.2,1109.28C1182.41,1109.52 1190.43,1109.9 1201.59,1112.8C1227.31,1119.49 1263.35,1128.99 1298.8,1131.86C1324.84,1133.96 1353.28,1135.62 1374.37,1123.53C1375.62,1122.82 1375.61,1122.76 1377.03,1122.57C1377.41,1122.52 1379.62,1122.23 1381.7,1123.82C1383.84,1125.45 1384.14,1127.72 1384.19,1128.12C1384.53,1130.71 1383.19,1132.48 1382.95,1132.78C1381.97,1134.08 1381.88,1134 1380.47,1134.81C1355.84,1148.92 1321.77,1146.29 1296.96,1144.06C1258.68,1140.63 1222.35,1130.49 1197.92,1124.3C1184.39,1120.87 1174.56,1121.25 1171.59,1121.32C1155.46,1121.73 1137.45,1125.97 1119.34,1127.2C1114.1,1127.55 1108.47,1126.72 1107.54,1126.58C1084.57,1123.18 1062.81,1107.24 1038.29,1086.43C1037.54,1085.8 1037.67,1085.69 1037.06,1084.91C1036.82,1084.61 1036.38,1084.38 1036.34,1083.99C1036.28,1083.38 1036.84,1082.82 1036.8,1082.2C1036.75,1081.04 1036.19,1079.95 1036.08,1078.8C1036.08,1078.74 1036.27,1076.94 1036.28,1076.78L1040.53,1073.42L1041.71,1076.26Z"/>
            </g>
        </g>
        <g transform="matrix(1,0,0,1,-10.6818,18.2795)">
            <g transform="matrix(1,0,0,1,-379.439,-483.519)">
                <path d="M852.28,920.058C852.224,920.152 852.161,920.242 852.089,920.328C850.586,922.114 848.619,921.685 848.306,921.617C846.695,921.265 845.46,919.858 845.281,918.264C845.132,916.945 845.746,915.892 845.852,915.711C846.337,914.879 849.437,910.572 849.514,910.486C850.959,908.879 887.089,876.001 903.852,862.591C908.57,858.817 915.602,853.096 925.705,853.866C933.078,854.427 935.662,856.988 944.74,849.599C955.74,840.645 972.071,831.116 976.619,828.662C998.583,816.81 1012.92,811.997 1015.35,811.035C1036.23,802.752 1044.22,804.276 1047.89,804.518C1072.58,806.147 1105.02,803.145 1108.34,802.931C1111.14,802.751 1139.85,801.562 1183.17,796.529C1184.06,796.426 1195.38,794.931 1200.88,794.027C1202.98,793.681 1218.71,789.895 1277.11,799.721C1328.68,808.398 1402.54,826.287 1423.59,840.645C1438.39,850.745 1447.69,856.576 1459.68,865.428C1461.5,866.767 1473.92,875.456 1485.19,886.648C1493.9,895.291 1497.86,904.107 1506.44,913.902C1514.71,923.349 1525.75,932.853 1533.38,945.665C1538.35,954 1538.55,963.076 1540.77,969.853C1547.52,990.48 1550.32,1008.64 1551.23,1025.05C1551.29,1026.09 1551.67,1038.18 1550.35,1051.8C1547.21,1084.09 1538.09,1110.89 1532.49,1127.38C1530.32,1133.78 1527.66,1141.47 1525.4,1148.37C1524.04,1152.49 1516.75,1168.98 1512.18,1189.16C1511.62,1191.64 1510.96,1192.74 1510.79,1193.02C1508.62,1196.64 1505.11,1197.51 1504.51,1197.66C1500.26,1198.72 1497.09,1196.8 1496.54,1196.47C1492.94,1194.29 1492.05,1190.79 1491.89,1190.18C1491.8,1189.8 1491.45,1188.43 1491.74,1185.23C1493.14,1169.78 1496.3,1155.18 1499.56,1141.85C1500.9,1136.37 1510.19,1110.13 1515.13,1090.67C1524.39,1054.13 1523.18,1031.41 1523.17,1025.01C1523.15,998.633 1517.08,978.156 1516.18,973.599C1514.69,966.036 1514.99,960.652 1512.66,956.275C1505.52,942.835 1494.14,933.773 1484.35,918.174C1478.1,908.229 1476.92,904.839 1469.92,897.431C1457.75,884.559 1444.51,875.089 1442.19,873.383C1433.33,866.859 1425.42,861.528 1414.5,853.7C1394.65,839.481 1302.51,815.717 1241.94,808.359C1212.81,804.82 1204.44,806.78 1202.17,807.119C1200.28,807.403 1198.75,807.632 1178.44,810.23C1140.66,815.063 1113.86,816.792 1109.34,817.096C1109.29,817.099 1097.59,817.57 1084.58,817.569C1056.65,817.566 1045.39,815.498 1042.7,815.385C1038.15,815.193 1030.6,816.264 1018.79,820.325C1017.21,820.869 1002.44,826.531 981.304,838.954C978.523,840.589 962.612,849.375 951.617,858.139C940.102,867.316 933.566,865.798 926.857,864.789C924.302,864.404 920.769,863.794 915.114,867.333C908.209,871.654 870.72,904.146 856.274,917.54C856.241,917.57 852.983,919.685 852.307,920.078C852.298,920.071 852.289,920.064 852.28,920.058ZM849.094,914.249C849.098,914.17 849.1,914.091 849.1,914.01L848.815,914.013C848.91,914.094 849.003,914.172 849.094,914.249Z"/>
            </g>
        </g>
        <g transform="matrix(1,0,0,1,-10.6818,18.2795)">
            <g transform="matrix(1,0,0,1,-379.439,-483.519)">
                <path d="M1384.73,1346.81C1384.8,1346.99 1385.56,1350.57 1393.74,1352.98C1396.55,1353.8 1399.8,1354.3 1401.5,1354.3C1407.21,1354.29 1416.97,1354.42 1427.03,1353.38C1430.7,1353 1449.72,1352.91 1464.95,1341.7C1465.8,1341.08 1470.38,1337.71 1474.55,1332.7C1480.07,1326.06 1480.77,1312.27 1484.24,1300.81C1486.82,1292.27 1490.7,1283.32 1491.84,1279.74C1497.29,1262.59 1496.64,1257.43 1496.18,1248.28C1495.04,1225.69 1493.65,1217.02 1492.69,1194.09C1492.66,1193.45 1492.66,1193.04 1492.66,1190.55C1492.66,1189.95 1492.66,1186.52 1495.52,1183.65C1496.41,1182.77 1497.47,1182.03 1498.62,1181.55C1499.18,1181.32 1502.41,1179.97 1506.21,1181.55C1509.88,1183.07 1511.18,1186.2 1511.41,1186.74C1512.39,1189.1 1512.18,1189.16 1512.19,1191.71C1512.2,1198.33 1511.68,1198.32 1511.88,1234.57C1511.89,1237.31 1511.94,1252.76 1511.63,1257.11C1510.69,1270.14 1505.31,1282.1 1504.06,1285.84C1499.52,1299.36 1497.81,1303.34 1496.12,1314.4C1494.39,1325.69 1492.92,1335.34 1486.39,1343.58C1468.84,1365.75 1444.28,1370.04 1428.99,1371.4C1427.7,1371.51 1421.02,1371.75 1411.56,1371.3C1411.06,1371.27 1401.34,1370.79 1398.96,1370.45C1396.52,1370.11 1383.7,1368.02 1376.02,1359.99C1373.67,1357.53 1371.75,1354.63 1370.39,1349.41C1367.98,1340.16 1370.13,1325.64 1379.76,1321.74C1387.06,1318.78 1393.18,1316.64 1400.3,1313.82C1404.59,1312.11 1428.1,1304.77 1429.23,1294.8C1429.75,1290.16 1426.51,1285.69 1424.21,1281.47C1418.89,1271.7 1416.84,1264.58 1413.07,1254.1C1409.03,1242.84 1409.46,1233.73 1405.48,1223.72C1401.77,1214.41 1398.38,1207.96 1397.68,1206.63C1386.62,1185.53 1377.71,1170.94 1373.9,1149.62C1373.18,1145.6 1372.77,1142.19 1372.66,1141.28C1372.57,1140.51 1371.95,1131.01 1373.05,1116.72C1374.6,1096.48 1378.37,1078.24 1384.19,1053.21C1384.53,1051.75 1384.53,1051.67 1385.75,1050.79C1385.77,1050.78 1388.48,1050.12 1388.49,1050.12C1389.07,1050.59 1389.8,1050.92 1390.24,1051.52C1390.24,1051.53 1391.57,1054.41 1391.57,1054.41C1390.69,1064.14 1387.38,1095.16 1388.79,1120.57C1389.41,1131.72 1390.63,1137.82 1390.77,1139.37C1392.29,1156.36 1396.25,1166.61 1397.6,1170.28C1401.86,1181.88 1407.52,1193.18 1411.56,1201.94C1413.66,1206.49 1419.02,1216.66 1421.36,1224.75C1423.73,1232.99 1424.53,1241.4 1427.38,1248.79C1432.24,1261.42 1433.63,1266.59 1440.09,1277.01C1442.25,1280.5 1456.5,1302.64 1428.37,1319.84C1422.39,1323.5 1415.64,1326.48 1406.86,1329.76C1404.48,1330.65 1394.13,1333.67 1386.01,1336.35C1385.03,1337.93 1383.66,1342.27 1384.73,1346.81Z"/>
            </g>
        </g>
        <g transform="matrix(1,0,0,1,-10.6818,18.2795)">
            <g transform="matrix(1,0,0,1,-387.978,-485.957)">
                <path d="M1369.87,1171.63C1371.51,1189.28 1370.76,1206.44 1375.54,1219.05C1382.81,1238.21 1390.41,1243.73 1393.01,1257.91C1393.28,1259.36 1395.09,1265.34 1394.53,1278.74C1394.4,1281.84 1393.95,1284.28 1392.35,1287.81C1387.01,1299.56 1374.37,1308.09 1368.5,1315.04C1364.8,1319.41 1363.14,1331.22 1358.64,1338.86C1353.34,1347.83 1347.01,1350 1341.22,1351.56C1338.5,1352.29 1324.72,1356.2 1317.21,1346.09C1314.34,1342.23 1313.36,1337.66 1313.06,1331.82C1312.72,1325.14 1313.71,1320.77 1313.92,1319.84C1316.53,1308.37 1326.35,1289.16 1325.06,1280.32C1324.83,1278.78 1324.61,1278.85 1323.52,1277.73C1317.19,1271.19 1310.03,1258.48 1305.94,1252.24C1299.54,1242.45 1295.22,1236.29 1291.58,1233.09C1278.54,1221.64 1272.14,1207.81 1270.22,1203.68C1270.18,1203.58 1267.96,1198.53 1265.32,1189.63C1260.68,1173.94 1257.29,1155.18 1253.94,1142.91C1253.78,1142.35 1252.89,1139.08 1254.87,1135.61C1255.48,1134.54 1256.31,1133.56 1257.28,1132.81C1260.48,1130.32 1263.9,1130.76 1264.49,1130.84C1268.38,1131.34 1270.44,1133.97 1270.79,1134.43C1272.26,1136.31 1272.12,1136.41 1272.75,1138.71C1273.21,1140.4 1274.81,1145.76 1279.77,1164.74C1282.02,1173.32 1284.91,1184.78 1289.28,1194.94C1290.36,1197.44 1294,1208.82 1304.21,1219.36C1308.72,1224.01 1312.02,1228.76 1320.26,1243.59C1321.82,1246.4 1328.18,1257.38 1331.95,1262.67C1335.8,1268.08 1336.56,1267.52 1338.51,1271.05C1345.91,1284.46 1334.45,1305.34 1329.76,1320.08C1328.6,1323.72 1328.36,1325.29 1328.26,1328.93C1328.18,1332.1 1328.51,1333.68 1329,1334.97C1329.33,1335.83 1329.78,1336.47 1329.95,1336.26C1330.09,1336.1 1332.24,1336.84 1338.99,1333.72C1339.63,1333.42 1341,1333.14 1343.37,1326.99C1346.23,1319.55 1347.65,1309.72 1354.02,1302.22C1361.34,1293.6 1372.9,1285.61 1375.02,1278.49C1375.14,1278.08 1375.44,1277.54 1375.54,1277.13C1376.77,1271.75 1377.13,1267.44 1377.2,1266.59C1377.56,1262.19 1377.26,1260.55 1377.16,1260.03C1375.32,1250.15 1368.43,1244.36 1360.92,1223.72C1355.64,1209.17 1356.51,1189.31 1355.1,1172.51C1354.79,1168.85 1356.28,1162.83 1366.83,1139.28C1367.72,1137.29 1367.72,1137.3 1368.6,1135.3C1368.61,1135.3 1368.61,1135.3 1368.61,1135.3C1368.91,1134.59 1369.37,1133.94 1369.76,1133.26C1369.97,1132.88 1371.31,1131.67 1372.62,1131.13C1373.13,1130.93 1376.24,1129.65 1379.46,1131.88C1382.68,1134.13 1382.56,1137.51 1382.54,1138.06C1382.47,1140.17 1382.1,1140.1 1376.8,1152.68C1370.95,1166.57 1370.08,1170.46 1369.87,1171.63ZM1380.29,1142.57C1380.36,1142.64 1380.43,1142.71 1380.51,1142.78L1380.92,1142.35C1380.71,1142.41 1380.5,1142.48 1380.29,1142.57Z"/>
            </g>
        </g>
        <g transform="matrix(1,0,0,1,-10.6818,18.2795)">
            <g transform="matrix(0.943742,-0.330682,0.330682,0.943742,-635.269,-111.771)">
                <path d="M778.36,891.003C778.281,882.666 774.116,859.4 778.869,850.444C781.462,845.558 787.627,843.21 794.377,848.755C802.423,855.365 810.688,872.402 814.036,878.577C814.617,879.648 814.702,880.941 814.716,881.154C814.743,881.559 814.897,883.898 813.109,885.974C812.836,886.291 811.264,888.116 808.43,888.314C808.025,888.342 805.685,888.504 803.61,886.707C802.286,885.559 802.355,885.479 801.642,883.878C799.228,878.462 792.813,862.991 787.321,857.413C786.889,858.99 786.399,861.808 786.174,866.759C785.644,878.441 786.902,890.276 785.772,893.476C784.952,895.798 782.486,897.064 780.084,895.903C778.615,895.194 778.191,893.811 778.12,893.578C778.116,893.562 778.285,891.788 778.36,891.003ZM783.473,889.092C783.518,889.079 783.562,889.065 783.607,889.051L783.516,889.006L783.473,889.092Z"/>
            </g>
        </g>
        <g transform="matrix(1,0,0,1,-10.6818,18.2795)">
            <g transform="matrix(1.60615,0,0,1.2197,-219.859,-145.376)">
                <path d="M377.738,572.432C377.396,573.098 377.216,573.981 376.708,574.427C376.699,574.434 374.914,574.901 374.909,574.897C374.403,574.45 373.731,574.218 373.394,573.55C372.823,572.421 372.838,572.34 373.063,571.017C373.096,570.821 373.001,570.613 372.8,569.674C372.122,566.515 372.336,564.894 372.366,564.54C372.418,563.939 372.43,563.942 372.634,563.402C372.817,562.917 373.068,562.116 374.189,560.408C375.173,558.91 376.39,557.902 376.604,557.725C376.68,557.663 377.183,557.132 378.878,556.387C381.17,555.381 385.385,554.172 391.648,556.992C391.721,557.024 391.791,557.067 391.865,557.092C391.903,557.105 391.948,557.082 391.984,557.105C392.565,557.485 393.289,557.642 393.705,558.297C393.712,558.307 394.294,560.747 394.291,560.753C393.991,561.508 393.883,562.469 393.387,563.016C392.89,563.564 392.155,563.548 391.534,563.793C391.505,563.804 391.474,563.779 391.445,563.783C391.135,563.831 387.169,564.973 384.815,567.542C383.664,568.798 383.723,568.875 383.253,569.598C383.22,569.649 383.214,569.64 382.795,570.156C382.791,570.159 382.788,570.163 382.785,570.167L382.784,570.166C382.002,570.947 381.926,571.13 381.136,571.716C381.125,571.724 380.746,571.761 380.496,571.814C380.443,571.826 380.441,571.776 379.828,571.888C379.758,571.901 379.689,571.934 379.619,571.925C379.461,571.905 379.309,571.822 379.151,571.802L379.387,571.944C378.324,572.238 377.846,572.395 377.771,572.404C377.747,572.407 377.743,572.41 377.738,572.432Z"/>
            </g>
        </g>
    </g>
</svg>
