<?xml version="1.0" encoding="UTF-8" standalone="no"?>
<!DOCTYPE svg PUBLIC "-//W3C//DTD SVG 1.1//EN" "http://www.w3.org/Graphics/SVG/1.1/DTD/svg11.dtd">
<svg width="100%" height="100%" viewBox="0 0 838 746" version="1.1" xmlns="http://www.w3.org/2000/svg" xmlns:xlink="http://www.w3.org/1999/xlink" xml:space="preserve" xmlns:serif="http://www.serif.com/" style="fill-rule:evenodd;clip-rule:evenodd;stroke-linejoin:round;stroke-miterlimit:2;">
    <g transform="matrix(1,0,0,1,-291.218,-1072.01)">
        <g transform="matrix(1,0,0,1,-8.25888,12.643)">
            <g transform="matrix(1,0,0,1,0.547786,-0.328693)">
                <path d="M455.316,1155.13C440.595,1159.09 421.154,1169.29 407.811,1176.46C385.988,1188.18 316.543,1238.52 326.601,1272.05C331.782,1289.32 344.46,1298.74 355.121,1309.4C363.048,1317.33 354.884,1332.66 362.61,1339.42C368.798,1344.83 458.914,1358.05 480.586,1363.86C505.005,1370.4 545.44,1390.33 545.135,1390.8C541.99,1395.61 535.12,1405.52 529.025,1410.45C514.022,1422.6 496.77,1427.58 475.155,1424.6C466.801,1423.45 440.05,1417 432.308,1424.74C421.449,1435.6 432.274,1452.21 439.399,1453.45C441.734,1453.86 436.116,1463.26 441.488,1472.93C442.54,1474.83 455.617,1478.71 457.337,1478.81C484.001,1480.33 500.728,1473.04 527.935,1482.11C545.736,1488.04 544.493,1502.88 565.149,1506.16C595.367,1510.97 642.823,1514.88 672.345,1506.53C675.449,1505.65 680.684,1505.39 688.545,1492.12C692.754,1485.02 707.041,1505.1 714.214,1509.05C730.179,1517.85 739.374,1530.98 753.656,1541.78C764.663,1550.11 792.37,1545.08 799.587,1553.74C819.66,1577.83 844.152,1604.62 837.602,1622.17C833.485,1633.2 813.226,1640.03 784.016,1641.98C774.466,1642.62 754.926,1618.31 747.417,1624.98C745.904,1626.33 747.976,1634.55 747.135,1636.51C745.008,1641.45 748.54,1646.47 736.388,1645.68C735.447,1645.62 729.008,1652.07 729.083,1652.25C735.146,1667.41 754.687,1659.67 746.991,1674.42C746.453,1675.45 738.21,1683.78 738.707,1685.02C739.297,1686.5 765.795,1670.9 769.525,1671.07C847.938,1674.71 900.484,1676.84 973.088,1621.89C1024.1,1583.28 1039.49,1512.65 1041.49,1491.67C1054.09,1359.65 1075.61,1266.44 957.682,1168.78C942.11,1155.88 928.051,1140.26 910.318,1130.17C878.483,1112.07 841.181,1101.78 805.967,1092.98C674.23,1060.04 638.393,1104.83 526.474,1142.14C522.497,1143.46 511.691,1151.99 512.811,1149.75C521.201,1132.97 518.402,1109.55 491.508,1104.11C442.144,1094.14 458.09,1154.38 455.316,1155.13Z" style="fill:rgb(94,76,57);"/>
            </g>
        </g>
        <g transform="matrix(1,0,0,1,-8.25888,12.643)">
            <path d="M515.658,1158.77C515.543,1160.08 515.547,1160.18 515.34,1160.37C515.324,1160.38 513.483,1159.83 513.398,1159.79C511.679,1158.82 511.258,1157.13 511.187,1156.84C511.026,1156.19 511.115,1155.51 511.082,1154.84C511.075,1154.7 511.126,1154.66 511.864,1154.14C511.869,1153.89 511.907,1153.65 511.994,1153.41C512.281,1152.62 513.816,1152.89 514.285,1152.25C514.306,1152.29 514.328,1152.32 514.351,1152.36C514.948,1151.92 515.654,1151.39 516.489,1150.77L516.463,1150.98C516.67,1151.11 516.874,1151.23 517.08,1151.36C517.628,1151.7 518.429,1151.9 519.236,1152.88C520.433,1154.32 520.584,1156.68 519.059,1158.31C518.971,1158.4 518.254,1159.17 517.635,1159.06C516.982,1158.94 516.313,1158.88 515.658,1158.77ZM514.285,1152.25C514.249,1152.19 514.214,1152.13 514.18,1152.06L514.374,1152.08C514.351,1152.14 514.321,1152.2 514.285,1152.25ZM516.489,1150.77L516.5,1150.67L516.607,1150.68C516.567,1150.71 516.528,1150.74 516.489,1150.77Z"/>
        </g>
        <g transform="matrix(1,0,0,1,-8.25888,12.643)">
            <g transform="matrix(0.678439,0.176374,-0.219701,0.8451,327.668,163.589)">
                <path d="M379.49,1206.11C378.129,1198.41 396.621,1185.02 397.143,1187.79C398.428,1194.6 401.563,1206.76 400.511,1215.52C399.581,1223.27 381.476,1217.32 379.49,1206.11Z" style="fill:rgb(154,115,73);"/>
                <path d="M364.747,1207.79C364.619,1206.86 362.022,1197.46 377.147,1184.47C386.269,1176.63 393.095,1174.82 398.978,1175.56C405.084,1176.33 410.596,1180.06 411.851,1185.69C412.171,1187.12 413.339,1192.95 413.466,1193.58C413.512,1193.81 416.756,1208.41 415.351,1217.22C413.305,1230.06 395.014,1235.96 378.498,1226.15C365.813,1218.61 364.632,1207.89 364.613,1207.8L364.747,1207.79Z"/>
            </g>
        </g>
        <g transform="matrix(1,0,0,1,-8.25888,12.643)">
            <g transform="matrix(0.700991,0,0,0.873191,43.7821,228.202)">
                <path d="M447.234,1246.7C445.055,1244.45 442.402,1242.13 439.09,1241C435.303,1239.71 431.067,1241.27 426.571,1238.46C424.217,1237 424.011,1235.81 421.561,1233.07C412.476,1222.9 392.698,1208.12 389.315,1185.12C386.311,1164.7 399.871,1148.1 405.463,1141.73C405.557,1141.63 410.212,1136.48 418.844,1129.66C447.471,1107.03 486.723,1091.38 503.724,1081.61C521.258,1071.52 567.834,1060.21 574.472,1057.51C577.425,1056.31 581.654,1056.06 585.339,1055.93C586.246,1055.75 587.323,1055.69 588.594,1055.84C595.433,1056.65 596.931,1064.23 589.996,1066.44C588.133,1067.04 583.786,1066.78 580.776,1067.49C573.275,1070.62 538.336,1080.28 519.644,1088.86C513.731,1091.57 514.053,1091.95 505.668,1096.57C480.111,1110.63 443.205,1128.88 423.04,1151.49C419.956,1154.94 406.033,1167.97 408.409,1185.34C409.105,1190.43 411.259,1196.82 416.021,1203.79C422.957,1213.95 430.512,1219.87 436.335,1227.84C440.415,1228.06 447.012,1228.79 455.958,1235.69C457.278,1236.71 461.415,1240.12 462.9,1242.26C467.469,1248.83 460.862,1254.25 460.14,1254.92C459.145,1255.85 459.13,1255.84 458.188,1256.8L458.19,1256.8C457.461,1257.64 457.044,1257.9 458.091,1259.73C458.272,1260.05 460.422,1263.4 463.109,1264.99C472.303,1270.45 496.558,1270.62 523.721,1271.11C525.883,1271.15 541.234,1271.8 552.69,1272.85C577.046,1275.08 587.012,1278.04 598.012,1280.9C626.337,1288.26 641.537,1292.88 657.021,1298.14C704.909,1314.41 726.961,1328.97 739.616,1342.82C740.653,1343.96 740.707,1344.02 740.491,1345.41C740.488,1345.43 738.864,1347.74 738.851,1347.74C737.782,1347.98 736.741,1348.56 735.639,1348.45C733.688,1348.25 733.74,1348.04 732.458,1346.84C713.31,1328.94 678.215,1316.14 628.932,1304.45C627.764,1304.18 610.25,1299.8 582.793,1294.08C567.838,1290.97 549.845,1289.98 525.111,1289.26C524.485,1289.24 505.95,1288.27 497.659,1287.56C472.13,1285.39 455.181,1281.8 446.808,1272.22C434.612,1258.27 442.553,1250.64 447.234,1246.7Z"/>
            </g>
        </g>
        <g transform="matrix(1,0,0,1,-8.25888,12.643)">
            <g transform="matrix(0.700991,0,0,0.873191,47.1278,321.869)">
                <path d="M1412.56,1283.27C1413.19,1280.76 1414.92,1273.51 1415.06,1253.08C1415.19,1232.42 1413.62,1214.71 1413.33,1211.38C1412.97,1207.38 1411.26,1168.83 1400.29,1127.38C1382.76,1061.14 1354.9,1030.19 1336.82,1012.38C1267.42,944 1153,904.995 1076.23,887.938C1054.19,883.043 1047.11,882.506 1042.98,882.077C1027.4,880.464 984.322,876.915 910.482,891.06C902.964,892.501 866.933,898.523 806.272,915.953C780.607,923.327 768.562,927.39 760.846,928.485C722.521,933.926 694.944,944.494 673.106,948.412C672.571,948.508 665.847,947.84 665.32,947.727C663.96,947.435 662.375,947.515 661.243,946.844C661.223,946.832 659.074,944.022 659.077,944.011C659.408,942.897 659.234,941.592 660.081,940.67C660.127,940.62 664.357,938.851 668.794,936.336C669.387,936 669.446,936.101 672.261,935.372C691.923,930.277 718.878,918.853 756.421,911.546C760.227,910.805 766.417,908.48 785.146,901.998C819.014,890.278 856.253,878.122 901.911,868.136C902.116,868.091 912.539,865.903 925.581,863.68C946.375,860.136 1002.22,851.302 1056.84,858.877C1071.86,860.96 1179.54,881.585 1274.35,933.533C1290.15,942.191 1339.28,969.751 1376.01,1011.83C1434.41,1078.73 1440.93,1175.59 1442.26,1196.94C1442.95,1207.92 1442.97,1212.24 1442.8,1221.12C1442.06,1258.43 1436.79,1282.69 1433.41,1289.55C1432.42,1291.57 1431.65,1292.8 1426.89,1296.73C1408.07,1312.29 1384.01,1317.85 1383.31,1327.52C1383.23,1328.55 1383.8,1330.41 1383.88,1330.69C1383.88,1330.69 1383.88,1330.7 1383.89,1330.71C1383.93,1330.87 1384.25,1332.05 1384.07,1333.14C1384,1333.51 1383.65,1335.63 1381.18,1337.15C1380.8,1337.39 1378.63,1338.73 1375.44,1338.39C1374.71,1338.31 1370.28,1337.83 1368.9,1333.31C1365.92,1323.59 1370.86,1317.08 1371.3,1316.44C1375.8,1309.75 1384.25,1304.59 1392.67,1299.08C1402.5,1292.66 1407.63,1288.68 1412.56,1283.27ZM1383.89,1330.71C1383.9,1330.73 1383.89,1330.73 1383.89,1330.71Z"/>
            </g>
        </g>
        <g transform="matrix(1,0,0,1,-8.25888,12.643)">
            <g transform="matrix(0.700991,0,0,0.873191,43.7821,228.202)">
                <path d="M583.551,1067.26C583.018,1067.42 582.486,1067.58 581.946,1067.72C581.894,1067.74 581.397,1067.5 581.319,1067.42C581.043,1067.12 580.257,1065.54 580.174,1065.38C579.363,1063.74 579.015,1063.07 578.676,1057.01C578.424,1052.49 578.504,1048.42 578.517,1047.48C578.521,1047.21 579.678,1032.22 581.324,1024.79C582.44,1019.75 583.905,1016.1 585.115,1013.59C585.551,1012.69 588.699,1008.58 592.545,1005.44C598.747,1000.36 602.557,999.7 604.272,998.772C614.108,993.45 626.178,993.353 632.376,993.428C645.361,993.583 652.713,996.025 656.254,997.318C700.44,1013.46 691.486,1064.05 652.844,1086.85C649.574,1088.78 647.155,1089.87 647.123,1089.88C645.588,1090.3 644.122,1090.95 642.516,1091.12C641.781,1091.19 637.548,1091.64 633.567,1089.19C629.458,1086.67 628.894,1083.17 628.796,1082.56C628.155,1078.58 630.744,1075.85 631.193,1075.38C633.237,1073.22 633.501,1073.43 636.4,1072.04C662.911,1059.36 675.98,1025.13 649.796,1012.23C649.268,1011.97 647.371,1011.04 642.852,1009.48C636.389,1007.24 622.344,1004.26 614.441,1005.98C612.072,1006.5 610.899,1007.02 610.278,1007.26C607.875,1009.27 605.172,1012.14 604.09,1018.63C603.939,1019.53 603.583,1019.65 602.62,1022.87C601.612,1026.23 601.332,1028.36 600.246,1038.23C599.404,1045.88 599.524,1046.61 599.211,1049.3C598.52,1055.22 598.474,1058.96 598.453,1060.52C598.662,1061.02 598.881,1061.36 598.885,1061.44C598.936,1062.48 598.954,1062.47 599.115,1063.51C599.127,1063.59 598.364,1064.1 597.708,1065.53C596.992,1067.09 597.083,1067.12 596.561,1067.84L594.917,1069.43L594.832,1069.39L593.179,1070.24L593.113,1070.18L591.426,1070.53L591.382,1070.45C590.947,1070.4 590.5,1070.46 590.064,1070.41C589.892,1070.39 589.743,1070.31 589.584,1070.25C589.381,1070.17 588.46,1070.06 587.441,1069.54C587.154,1069.4 585.547,1068.59 584.989,1066.9L583.551,1067.26ZM592.716,1061.86C593.247,1062.05 593.535,1062.2 593.422,1062.14C593.112,1061.97 592.885,1061.88 592.716,1061.86ZM584.619,1066.95L584.695,1066.93C584.67,1066.94 584.645,1066.95 584.619,1066.95Z"/>
            </g>
        </g>
        <g transform="matrix(1,0,0,1,-8.25888,12.643)">
            <g transform="matrix(0.178305,0.677934,-0.844471,0.222106,1639.6,650.984)">
                <path d="M681.691,1477.05C681.252,1477.29 678.766,1478.65 675.182,1478.1C674.078,1477.93 672.992,1477.59 672.046,1477.1C672.033,1477.1 668.521,1474.52 665.221,1471.61C663.902,1470.45 662.787,1469.39 662.785,1469.39C662.152,1468.61 660.302,1465.42 660.099,1465.07C650.826,1449.09 649.451,1432.48 647.523,1419.17C646.606,1412.84 645.255,1402.79 641.983,1393.69C641.094,1391.21 639.213,1387.11 638.652,1386.03C632.835,1374.81 623.535,1369.16 619.075,1366.51C617.938,1365.83 617.764,1365.39 617.714,1365.27C617.707,1365.25 617.905,1363.56 617.914,1363.56C619.525,1362.48 619.596,1362.07 621.578,1362.63C634.28,1366.19 642.001,1371.1 647.908,1376.47C649.074,1377.53 653.018,1381.64 655.112,1385.07C660.467,1393.85 662.516,1402.21 664.998,1415.44C667.453,1428.52 670.534,1445.57 681.508,1460.98C681.78,1461.36 681.822,1462.46 684.025,1467.28C685.203,1469.86 686.067,1469.81 685.424,1472.51C685.322,1472.94 684.743,1475.37 681.691,1477.05Z"/>
            </g>
        </g>
        <g transform="matrix(1,0,0,1,-8.25888,12.643)">
            <g transform="matrix(0.489629,0.501648,-0.62488,0.609908,1037.77,200.714)">
                <path d="M963.959,1279.97C969.651,1291.19 974.369,1300.13 978.896,1310.4C979.1,1310.86 979.107,1310.86 979.518,1313.24C980.614,1319.58 981.132,1324.46 980.882,1330.6C980.876,1330.74 980.43,1334.02 979.628,1336.92C976.664,1347.62 971.022,1352.95 970.061,1354.15C968.845,1355.67 964.143,1362.96 947.18,1374.77C937.674,1381.38 930.058,1385.32 923.868,1389.77C919.651,1392.8 919.669,1392.81 915.516,1395.9C904.088,1404.41 894.332,1413.98 880.658,1423.55C865.418,1434.21 844.768,1445.1 814.359,1442.13C812.457,1441.95 812.353,1442.02 812.257,1441.98C811.278,1441.57 810.033,1441.42 809.324,1440.74C809.308,1440.72 808.32,1438.18 808.326,1438.17C808.838,1437.39 809.024,1436.39 809.871,1435.82C811.937,1434.44 812.243,1435.1 814.938,1435.11C844.698,1435.22 862.005,1421.92 879.752,1404.61C895.599,1389.16 900.906,1384.37 906.064,1380.58C914.626,1374.29 919.131,1372.57 927.365,1368.32C945.752,1358.81 952.691,1353.29 957.034,1348.3C957.176,1348.14 957.401,1348.05 958.453,1345.99C962.281,1338.49 960.701,1332.11 960.62,1330.1C960.336,1323.05 958.085,1313.82 958.077,1313.6C958.041,1312.65 958.291,1311.75 958.09,1298.64C958.038,1295.25 958.075,1280.88 958.081,1280.86C958.273,1280.26 958.228,1279.57 958.662,1279.06C958.671,1279.05 960.299,1278.14 960.442,1278.07C960.515,1278.03 960.521,1278.07 965.149,1278.06L963.959,1279.97Z"/>
            </g>
        </g>
        <g transform="matrix(1,0,0,1,-8.25888,12.643)">
            <g transform="matrix(0.700991,0,0,0.873191,-25.574,178.711)">
                <path d="M673.501,1483.27C674.38,1483.36 677.209,1483.66 684.565,1482.82C688.159,1482.41 688.254,1482.23 689.466,1482.28C707.835,1483.03 731.436,1480.81 743.958,1481.28C769.913,1482.28 809.47,1491.14 826.443,1494.55C826.983,1494.66 828.431,1494.88 828.435,1494.88C829.04,1495.2 829.839,1495.36 830.246,1495.84C830.26,1495.86 830.7,1497.56 830.693,1497.57C830.297,1498.05 830.094,1498.69 829.496,1499.02C828.282,1499.68 828.171,1499.51 826.726,1499.28C826.67,1499.27 806.019,1496.39 790.339,1494.62C749.827,1490.03 738.707,1491.75 735.28,1492.07C727.051,1492.84 705.356,1495.31 688.476,1495.35C688.453,1495.35 681.413,1494.2 676.895,1492.78C670.452,1490.74 668.994,1489.09 668.194,1488.71C666.657,1487.97 661.806,1484.48 658.841,1478.22C658.743,1478.01 657.386,1475.27 656.689,1471.56C656.647,1471.34 656.552,1471.12 656.571,1470.89C656.612,1470.43 657.546,1468.29 657.644,1468.07C659.786,1463.16 662.818,1459.69 662.867,1459.59C662.88,1459.56 665.47,1448.66 674.488,1440.49C675.035,1440 678.021,1437.26 682.007,1435.51C682.804,1435.17 685.43,1434.57 687.882,1434.54C700.067,1434.34 709.853,1437.22 710.223,1437.24C710.312,1437.24 712.529,1436.88 717.53,1436.46C719.381,1436.31 726.704,1436.21 726.782,1436.23C728.076,1436.45 750.469,1442.9 753.92,1443.43C767.009,1445.45 795.752,1439.76 815.085,1440.38C816.67,1440.43 816.815,1440.28 817.956,1441.16C817.974,1441.18 818.98,1443.03 818.975,1443.04C818.666,1443.67 818.63,1444.45 818.038,1444.95C816.959,1445.84 816.796,1445.65 815.252,1445.78C794.335,1447.51 766.19,1457.54 749.312,1455.31C738.315,1453.86 732.808,1452.36 722.276,1450.39C721.682,1450.28 721.721,1450.2 718.88,1448.78C716.364,1447.52 716.332,1447.57 713.829,1446.29C711.349,1445.03 708.931,1443.93 708.9,1443.92C708.873,1443.92 704.198,1443.89 699.825,1444.35C698.996,1444.44 693.682,1445.01 689.632,1446.22C689.553,1446.24 688.727,1446.83 688.642,1446.85C683.452,1447.85 676.027,1454.06 671.677,1461.36C671.446,1461.74 671.392,1461.74 671.389,1462.17C671.35,1467.89 673.013,1471.07 673.021,1471.22C673.025,1471.29 671.821,1474.24 672.064,1477.74C672.257,1480.53 673.259,1482.4 673.521,1482.95L673.409,1483.03L673.488,1482.98C673.46,1483.07 673.425,1483.08 673.453,1483.15C673.463,1483.18 673.503,1483.2 673.487,1483.23C673.357,1483.42 673.164,1483.59 673.034,1483.79L673.501,1483.27Z"/>
            </g>
        </g>
        <g transform="matrix(1,0,0,1,-8.25888,12.643)">
            <g transform="matrix(0.619489,0.328057,-0.408645,0.771668,614.45,123.501)">
                <path d="M1096.61,1242.33C1095.86,1240.5 1096.61,1239.37 1096.78,1239.11C1097.72,1237.7 1099.68,1236.75 1101.69,1236.77C1101.94,1236.77 1103.37,1236.78 1104.75,1237.54C1106.58,1238.55 1107.02,1240.16 1107.32,1240.78C1108.31,1242.85 1110.5,1247.15 1110.78,1247.7C1111.95,1249.99 1114.79,1256.1 1118.06,1261.58C1118.09,1261.64 1120.31,1265.74 1121.41,1266.63C1121.47,1266.68 1121.58,1266.72 1121.64,1266.77C1122.07,1267.2 1124.26,1269.73 1128.72,1274.02C1129.54,1274.8 1131.5,1276.92 1135.23,1280.42C1137.29,1282.35 1138.08,1283.31 1142.57,1287.44C1143.34,1288.15 1143.21,1288.24 1152.07,1296.41C1152.98,1297.26 1153.69,1298.11 1166.56,1309.37C1167.14,1309.88 1187.51,1327.61 1196.1,1334.64C1212.62,1348.16 1223.71,1354.17 1245.38,1361.53C1257.81,1365.74 1259.4,1365.23 1272.17,1372.25C1274.9,1373.75 1279.62,1376.43 1283,1377.91C1283.24,1378.02 1283.5,1378.08 1283.7,1378.22C1283.71,1378.23 1284.85,1379.68 1286.24,1381.12C1286.54,1381.43 1286.57,1381.41 1286.76,1381.61C1288.84,1383.8 1291.08,1385.89 1292.96,1388.19C1294.78,1390.42 1294.49,1390.55 1294.7,1393.21C1294.7,1393.22 1292.97,1395.33 1292.95,1395.34C1291.98,1396.11 1290.88,1396.82 1289.61,1397.23C1284.03,1399.02 1284.09,1399.43 1278.08,1399.54C1275.29,1399.58 1271.77,1399.39 1271.71,1399.37C1270.15,1398.95 1266.29,1397.37 1265.83,1397.18C1257.54,1393.79 1250.86,1390 1244.2,1388.33C1228.03,1384.26 1210.99,1378.91 1193.94,1369.02C1176.93,1359.15 1161.92,1345.9 1147.05,1333.15C1140.96,1327.92 1131.37,1319.88 1121.4,1309.09C1117.45,1304.81 1115.3,1302.41 1110.06,1295.23C1109.49,1294.46 1105.26,1287.86 1104.17,1285.78C1103.72,1284.93 1101.52,1280.73 1098.96,1274.93C1097.11,1270.74 1096.63,1264.84 1096.56,1263.95C1095.79,1254.47 1096.16,1244.11 1096.31,1242.39L1096.61,1242.33ZM1105.84,1242.98L1106.42,1243.22L1106.85,1242.56C1106.5,1242.71 1106.16,1242.85 1105.84,1242.98Z"/>
            </g>
        </g>
        <g transform="matrix(1,0,0,1,-8.25888,12.643)">
            <g transform="matrix(0.873055,0,0,0.873191,-394.857,392)">
                <path d="M1304.14,1460.71C1286.61,1448.56 1279.95,1443.45 1279.81,1437.4C1279.76,1435.15 1280.73,1430.96 1286.42,1429.26C1290.29,1428.11 1296.64,1428.15 1299.95,1426.03C1300.35,1425.77 1302.45,1424.92 1300.58,1418.84C1298.37,1411.66 1293.21,1405.71 1294.46,1400.84C1295.36,1397.35 1299.42,1394.14 1304.81,1397.12C1309.41,1399.67 1320.05,1409.08 1338.65,1414.66C1338.68,1414.67 1341.69,1415.44 1345.65,1416.08C1361.7,1418.64 1374.21,1416.17 1380.41,1415.03C1384.37,1414.31 1386.28,1413.67 1386.45,1413.65C1387.39,1413.52 1396.27,1413.58 1413.33,1407.37C1420.91,1404.61 1426.85,1401.64 1429.3,1400.44L1430.6,1402.19C1420.61,1412.85 1411.98,1419.94 1402.08,1425.68C1396.72,1428.8 1392.59,1430.51 1390.98,1431.17C1390.64,1431.31 1384.98,1432.58 1378.45,1432.99C1354.45,1434.5 1338.71,1428.23 1333.82,1426.64C1325.47,1423.94 1318.53,1420.51 1313,1417.29C1314.03,1421.48 1314.21,1425.91 1312.34,1430.02C1309.47,1436.34 1303.26,1438.65 1297.94,1439.84C1304.16,1444.25 1312.47,1449.09 1313.74,1450.07C1317.93,1453.32 1320.37,1459.11 1317.55,1467.21C1328.9,1462.97 1343.52,1458.81 1361.83,1455.89C1387.21,1451.85 1399.93,1453.29 1409.79,1454.24C1411.91,1454.45 1421.4,1455.69 1428.99,1456.44C1430.64,1456.6 1448.98,1460.08 1461.05,1457.47C1462.86,1457.08 1468.49,1455.83 1473,1451.36C1475.75,1448.64 1475.56,1448.41 1483.17,1442.76C1489.45,1438.11 1493.28,1434.96 1492.9,1429.54C1492.83,1428.59 1492.31,1427.35 1492.31,1427.29C1492.36,1426.34 1492.05,1425.29 1492.45,1424.42C1492.46,1424.4 1494.57,1422.47 1494.58,1422.47C1497.74,1422.61 1498.5,1422.13 1499.53,1425.12C1499.67,1425.52 1500.61,1428.49 1500.86,1430.69C1502.31,1443.31 1489.59,1450.86 1484.07,1459.26C1471.88,1477.84 1444.42,1477.83 1434.61,1477.79C1428.42,1477.77 1426.91,1477.63 1426.24,1477.57C1412.56,1476.29 1400.89,1474.54 1393.33,1474.26C1377.57,1473.68 1349.71,1476.48 1324.58,1484.21C1303.38,1490.74 1295.56,1497.59 1293.56,1498.55C1291.29,1499.63 1289.6,1499.4 1288.73,1499.35C1287.51,1499.27 1286.2,1498.59 1286,1498.49C1285.46,1498.2 1282.2,1496.51 1281.61,1492.27C1281.43,1490.99 1281.7,1489.2 1281.73,1489.11C1282.48,1486.37 1284.47,1484.68 1285.78,1483.42C1289.14,1480.2 1302.18,1467.97 1304.14,1460.71Z"/>
            </g>
        </g>
        <g transform="matrix(1,0,0,1,-8.25888,12.643)">
            <g transform="matrix(0.700991,0,0,0.873191,26.7128,289.888)">
                <path d="M1110.81,1445.1C1110.84,1445.55 1111.02,1448.16 1108.44,1450.46C1107.65,1451.17 1106.67,1451.78 1105.6,1452.19C1103.13,1453.14 1103.02,1452.83 1100.29,1453.03C1074.74,1454.85 1058.53,1451.42 1047.88,1448.37C1031.91,1443.79 1020.62,1437.4 1011.75,1431.83C1003.97,1426.94 993.345,1418.53 991.813,1417.31C990.322,1416.13 990.362,1416.1 973.384,1402.37C966.014,1396.41 958.913,1390.23 941.847,1378.34C940.13,1377.14 939.818,1375.6 939.763,1375.33C939.759,1375.31 940.598,1372.17 940.609,1372.17C941.757,1371.62 942.742,1370.71 944.059,1370.54C946.658,1370.2 946.708,1370.42 948.97,1371.51C949.378,1371.7 969.433,1381.26 990.058,1393.98C1008.09,1405.11 1017.5,1411.32 1025.44,1416.01C1025.82,1416.23 1029.69,1418.7 1034.68,1421.41C1037.23,1422.8 1047.59,1428.83 1060.35,1432.67C1080.83,1438.83 1100.93,1438.04 1101.07,1438.06C1102.28,1438.2 1103.54,1438.16 1104.69,1438.49C1105.22,1438.64 1108.25,1439.51 1109.89,1442.24C1110.7,1443.59 1110.71,1443.6 1110.81,1445.1Z"/>
            </g>
        </g>
        <g transform="matrix(1,0,0,1,-8.25888,12.643)">
            <g transform="matrix(1,0,0,1,340.415,61.2156)">
                <path d="M659.567,1447.1C656.759,1425.2 687.862,1359.8 714.604,1400.24C750.561,1454.62 784.446,1547.44 773.789,1613.32C754.812,1730.63 586.311,1734.02 470.012,1712.6C420.02,1703.39 407.169,1622.59 430.254,1590.78C471.719,1533.65 582.663,1588.29 617.511,1538.7C642.948,1502.5 664.464,1485.3 659.567,1447.1Z" style="fill:rgb(109,76,41);"/>
                <path d="M654.035,1447.81C653.772,1445.48 652.721,1436.11 659.189,1419.14C667.662,1396.91 684.235,1375.85 703.319,1382.48C713.369,1385.97 719.557,1396.34 722.834,1401.43C755.279,1451.84 769.766,1504.76 770.686,1507.69C782.933,1546.79 785.05,1574.56 785.148,1591.01C785.148,1591.03 785.127,1597.6 784.342,1605.64C781.661,1633.09 769.733,1689.16 688.25,1717C640.967,1733.15 575.756,1737.11 502.68,1727.62C489.539,1725.91 469.651,1722.56 464.484,1721.24C411.521,1707.61 397.872,1626.17 421.069,1588.97C428.619,1576.87 439.649,1569.9 441.602,1568.66C487.363,1539.75 562.581,1566.45 599.653,1545.51C608.014,1540.78 611.668,1534.82 613.62,1532.13C628.635,1511.45 642.008,1497.05 648.882,1481.42C654.758,1468.06 654.422,1456.78 653.42,1447.88L654.035,1447.81ZM665.099,1446.39L665.713,1446.32C668.106,1464.98 665.683,1480.71 653.573,1500.34C645.619,1513.23 635.812,1524.61 623.223,1542.73C591.85,1587.9 509.466,1557.51 460.541,1577.71C439.635,1586.35 433.785,1601.8 433.103,1603.43C421.843,1630.37 429.779,1678.87 456.49,1696.92C464.481,1702.32 471.492,1703.1 477.167,1704.06C535.991,1714.04 578.998,1712.94 584.998,1712.84C623.518,1712.2 713.188,1706.65 749.673,1650.53C764.991,1626.96 765.919,1603.16 766.435,1588.25C766.841,1576.53 766.676,1550.31 756.891,1511.61C756.839,1511.4 753.994,1500.58 748.966,1486.13C737.355,1452.77 722.561,1423.81 709.418,1403.68C700.994,1390.79 694.306,1392.6 689.604,1395.45C675.945,1403.74 664.084,1432.65 665.043,1445.83C665.064,1446.12 665.069,1446.12 665.099,1446.39Z"/>
            </g>
        </g>
        <g transform="matrix(1,0,0,1,-8.25888,12.643)">
            <path d="M432.265,1435.44L432.281,1435.45C430.558,1437.24 429.921,1438.24 429.283,1440.38C430.04,1441.16 431.284,1442.53 434.26,1443.19C434.401,1443.22 434.426,1443.2 434.489,1443.33C435.082,1444.53 436.034,1446.52 439.915,1449.28C441.642,1450.52 441.684,1450.47 441.776,1450.63C441.784,1450.65 442.059,1453.03 442.054,1453.03C441.586,1453.63 441.3,1454.43 440.645,1454.81C439.613,1455.4 435.781,1455.15 435.359,1455.12C431.257,1454.85 428.417,1453.78 426.736,1452.99C426.561,1452.91 426.535,1452.92 425.969,1452.11C422.388,1446.95 422.618,1442.62 422.546,1442.45C422.529,1442.41 419.8,1439.17 418.931,1433.5C418.907,1433.35 418.85,1433.2 418.863,1433.04C418.864,1433.02 419.445,1431.78 420.054,1430.78C423.223,1425.55 427.078,1423.37 427.269,1423.15C427.325,1423.08 428.563,1418.51 432.44,1414.65C432.698,1414.39 432.724,1414.42 433.08,1414.33C438.629,1412.93 442.199,1414.2 444.367,1414.86C444.63,1414.94 444.882,1415.06 445.154,1415.1C445.325,1415.12 454.951,1415.1 460.268,1415.42C467.395,1415.87 467.803,1416.44 472.34,1417.73C474.29,1418.28 474.296,1418.25 476.24,1418.83C484.9,1421.46 490.782,1421.66 502.784,1421.3C504.435,1421.25 507.101,1419.65 509.56,1418.34C512.999,1416.52 514.742,1415.98 516.238,1415.72C520.905,1412.17 539.458,1394.47 543.509,1388.94C543.885,1389.12 544.034,1389.22 544.415,1389.4C544.824,1387.09 544.739,1386.97 544.954,1386.93C545.915,1386.74 546.879,1386.18 547.838,1386.38C550.133,1386.84 550.711,1388.8 550.802,1389.11C551.487,1391.44 550.154,1393.49 545.684,1398.68C539.467,1405.9 523.874,1422.28 520.373,1424.23C518.765,1425.13 518.551,1424.57 516.369,1425.59C512.676,1427.31 508.45,1430.83 503.277,1431.15C490.864,1431.92 483.286,1431.75 472.116,1428.33C471.344,1428.1 467.357,1426.52 465.125,1425.5C463.666,1424.84 455.022,1423.18 446.661,1422.56C446.019,1422.51 444.944,1422.44 444.941,1422.44C441.297,1423.37 440.902,1423.7 440.623,1423.94C439.941,1424.51 439.82,1424.5 438.661,1426.03C438.657,1426.04 438.652,1426.04 438.648,1426.05L438.638,1426.03C438.108,1425.96 435.784,1425.68 432.665,1427.05C432.552,1427.1 432.413,1427.11 432.328,1427.2C432.323,1427.21 431.652,1429.39 431.675,1431.73C431.695,1433.8 432.093,1434.91 432.265,1435.44ZM543.908,1392.06L543.779,1392.13L543.864,1392.28C543.879,1392.2 543.894,1392.13 543.908,1392.06Z"/>
        </g>
        <g transform="matrix(1,0,0,1,-8.25888,12.643)">
            <path d="M1032.52,1510.17C1032.18,1509.88 1031.76,1509.49 1031.43,1509.03C1031.23,1508.75 1030.07,1507.11 1030.43,1504.8C1030.48,1504.45 1030.8,1502.42 1032.77,1501.01C1034.68,1499.63 1036.65,1499.95 1037,1500C1040.7,1500.59 1042.82,1504.81 1043.11,1505.39C1046.14,1511.4 1047.23,1521.6 1048.05,1524.36C1055.66,1550 1064.16,1577.25 1061.48,1608.18C1058.7,1640.32 1045.55,1670.32 1033.69,1691.06C1022.88,1709.95 995.448,1716.28 973.611,1719.07C969.807,1719.56 957.411,1721.15 932.71,1721.26C931.533,1721.26 919.574,1721.07 910.524,1720.6C887.371,1719.37 872.905,1717.82 845.119,1715.36C835.625,1714.52 810.387,1711.75 794.992,1712.52C794.663,1712.54 793.427,1712.7 793.292,1712.72C792.791,1712.78 792.791,1712.81 792.746,1712.79C792.268,1712.6 792.419,1712.37 791.94,1712.18C792.21,1711.98 792.283,1711.58 792.553,1711.38C792.617,1711.33 793.486,1711.3 795.43,1710.99C813.467,1708.14 850.456,1708.36 867.05,1708.31C890.846,1708.23 915.253,1707.89 930.206,1707.24C937.177,1706.94 949.845,1706.69 965.749,1704.82C971.683,1704.12 1005.8,1700.95 1018.24,1687.1C1019.35,1685.87 1020,1685.33 1024.21,1677.64C1030.88,1665.43 1049.08,1629.7 1048.48,1592.47C1048.11,1569.7 1041.71,1546.84 1036.48,1527.72C1035.45,1523.97 1034.62,1514.23 1032.55,1510.23L1032.55,1510.23L1032.52,1510.17ZM1032.7,1510.32C1032.79,1510.4 1032.92,1510.5 1033.09,1510.61C1033.05,1510.58 1032.9,1510.47 1032.7,1510.32ZM1032.55,1510.12C1033.45,1509.39 1033.75,1509.15 1034.15,1508.68C1033.34,1509.46 1032.33,1509.67 1032.55,1510.12Z"/>
        </g>
        <g transform="matrix(1,0,0,1,-8.25888,12.643)">
            <g transform="matrix(1,0,0,1,-3.00069,-4.78085)">
                <path d="M442.885,1230.5C452.723,1237.89 464.68,1223.25 456.888,1216.81C449.299,1210.54 423.852,1216.2 442.885,1230.5Z"/>
                <path d="M440.561,1233.57C439.303,1232.85 428.625,1227.29 430.619,1218.24C432.78,1208.45 448.68,1204.04 458.63,1207.99C465.66,1210.77 467.394,1216.43 467.56,1216.89C469.922,1223.4 467.647,1230.82 461.925,1235.91C460.406,1237.26 457.55,1238.83 456.523,1239.1C454.362,1239.65 451.674,1240.06 448.172,1239.04C443.275,1237.6 441.081,1233.97 440.961,1233.86C440.84,1233.75 440.681,1233.68 440.561,1233.57ZM445.208,1227.43C445.325,1227.49 445.306,1227.59 445.787,1227.55C447.314,1227.41 447.903,1226.8 448.336,1226.38L448.168,1227.66C448.263,1227.22 448.276,1226.76 448.371,1226.32C448.374,1226.31 448.386,1226.32 448.687,1225.87C448.824,1225.66 448.96,1225.23 449.021,1225.02L448.993,1224.9C449.096,1224.7 449.13,1224.66 449.179,1224.45C449.24,1224.19 449.245,1224.17 449.308,1223.95L449.285,1223.9C449.536,1223.54 449.551,1223.53 449.736,1223.17L449.718,1223.15C449.878,1222.95 449.983,1222.85 450.126,1222.53C449.642,1222.34 449.153,1222.19 449.058,1222.16L449.059,1222.15C445.571,1221.26 443.923,1221.6 442.063,1221.91C442.024,1221.92 441.987,1221.93 441.95,1221.93C442.34,1222.31 442.411,1222.39 441.847,1221.95C441.657,1221.97 441.497,1221.97 441.36,1221.96C441.437,1222.22 441.572,1222.56 441.796,1223C442.828,1225.03 444.95,1227.15 445.208,1227.43ZM452.937,1221.93L453.228,1221.74C453.116,1221.81 453.019,1221.87 452.931,1221.93L452.937,1221.93ZM439.537,1219.6C439.509,1219.57 439.481,1219.54 439.452,1219.51C439.48,1219.54 439.508,1219.57 439.537,1219.6Z"/>
            </g>
        </g>
    </g>
</svg>
