<?xml version="1.0" encoding="UTF-8" standalone="no"?>
<!DOCTYPE svg PUBLIC "-//W3C//DTD SVG 1.1//EN" "http://www.w3.org/Graphics/SVG/1.1/DTD/svg11.dtd">
<svg width="100%" height="100%" viewBox="0 0 889 826" version="1.1" xmlns="http://www.w3.org/2000/svg" xmlns:xlink="http://www.w3.org/1999/xlink" xml:space="preserve" xmlns:serif="http://www.serif.com/" style="fill-rule:evenodd;clip-rule:evenodd;stroke-linejoin:round;stroke-miterlimit:2;">
    <g transform="matrix(1,0,0,1,-304.972,-1956.14)">
        <path d="M584.828,2071.67C585.169,2072.3 583.334,2071.36 582.683,2071.66C576.591,2074.43 571.245,2080.03 566.184,2084.28C564.144,2086 549.089,2105.36 545.237,2103.44C543.699,2102.67 542.553,2101.05 541.579,2099.71C535.919,2091.92 530.876,2083.76 525.366,2075.89C524.708,2074.95 511.808,2065.1 511.808,2068.36C511.808,2088.41 495.31,2103.5 492.727,2124.17C491.992,2130.05 496.59,2151.31 490.79,2149.13C477.131,2144 442.501,2166.2 440.431,2181.91C438.389,2197.43 420.569,2206.18 407.648,2214.48C388.71,2226.66 333.399,2247.9 323.502,2273.02C309.779,2307.85 366.944,2327.01 386.943,2323.84C402.848,2321.31 449.298,2317.74 466.772,2326.68C476.346,2331.57 517.366,2293.7 523.501,2306.45C527.496,2314.74 536.644,2327.85 539.507,2336.62C543.814,2349.81 580.577,2411.12 584.763,2434.57C590.78,2468.26 571.931,2499.55 570.129,2531.98C568.977,2552.73 564.794,2588.67 574.433,2607.95C583.048,2625.18 594.742,2639.84 601.549,2658.17C609.976,2680.86 612.955,2703.66 612.955,2727.82C612.955,2730.24 611.373,2752.74 613.314,2754.29C620.889,2760.35 639.415,2748.02 648.608,2748.7C650.108,2748.81 664.843,2752.45 664.843,2748.99C664.843,2742.43 655.085,2706.96 650.76,2696.98C641.588,2675.81 646.602,2655.6 642.295,2634.06C637.525,2610.21 625.38,2614.24 628.817,2589.04C634.021,2550.88 667.201,2493.07 661.328,2513.32C652.554,2543.58 644.909,2550.11 650.473,2581.98C654.302,2603.91 670.6,2619.59 677.804,2640.09C681.939,2651.86 681.382,2666.49 682.539,2678.83C684.225,2696.81 685.097,2742.85 706.499,2750.49C713.36,2752.94 749.21,2754.16 751.62,2743.32C754.285,2731.32 722.557,2666.7 717.115,2649.06C700.983,2596.75 710.422,2552.73 735.193,2505.94C740.956,2495.06 762.026,2497.22 771.634,2496.91C803.981,2495.86 836.338,2500.14 867.975,2491.31C879.122,2488.2 904.283,2486.66 904.276,2486.66C904.15,2486.53 917.232,2529.49 927.659,2542.53C957.682,2580.06 982.251,2567.55 980.6,2615.41C980.317,2623.62 973.247,2654.21 970.27,2659.17C960.892,2674.8 954.419,2691.97 945.091,2707.52C939.931,2716.12 931.831,2721.25 927.014,2730.41C922.728,2738.55 913.522,2760.86 932.752,2759.53C940.991,2758.96 948.618,2750.92 956.282,2748.12C966.412,2744.42 976.894,2744.5 984.689,2736C992.498,2727.48 1025.91,2666.92 1033.83,2666.92C1045.28,2666.92 1038.35,2694.87 1036.41,2698.63C1030.71,2709.63 1018.35,2738.52 1018.35,2751.58C1018.35,2770.59 1058.22,2759.49 1070.42,2757.89C1082.44,2756.3 1081.28,2722.51 1086.62,2712.9C1135.14,2625.58 1048.45,2615.48 1071.7,2527.32C1077.25,2506.28 1092.81,2491.91 1100.83,2472.37C1114.03,2440.19 1119.22,2403.08 1123.86,2368.79C1126.26,2351 1127.02,2333.46 1123.49,2315.82C1122.06,2308.67 1112.94,2294.04 1115.65,2286.8C1119.28,2277.14 1133.97,2271.73 1141.14,2264.55C1162.02,2243.68 1178.49,2166.69 1175.72,2151.07C1173.19,2136.81 1096.24,2173.4 1084.89,2184.74C1077.57,2192.07 1068.03,2227.91 1069.11,2231.48C1069.21,2231.81 1009.63,2209.11 1002.99,2207.42C973.538,2199.88 760.817,2229.55 683.4,2236.94C610.414,2243.89 616.326,2216.68 584.63,2168.83C579.277,2160.75 584.747,2144.25 585.552,2134.86C587.492,2112.22 586.063,2093.57 582.253,2071.66" style="fill:rgb(170,105,35);"/>
        <g>
            <g transform="matrix(1,0,0,1,-569.84,0)">
                <path d="M907.33,2307.39C872.476,2262.09 913.279,2244.73 916.489,2242.22C931.393,2230.6 965.554,2216.07 964.891,2218.68C956.361,2252.33 949.355,2263.1 943.201,2274.93C936.839,2287.16 936.366,2308.56 907.33,2307.39Z" style="fill:rgb(255,227,196);"/>
            </g>
            <g transform="matrix(1,0,0,1,-569.84,0)">
                <path d="M1179.12,2751.03C1179.66,2714.66 1174.89,2695.81 1178.1,2693.31C1193,2681.68 1220.61,2690.69 1219.95,2693.31C1211.42,2726.96 1240.23,2732.45 1234.08,2744.28C1227.72,2756.51 1208.16,2752.2 1179.12,2751.03Z" style="fill:rgb(255,227,196);"/>
            </g>
            <g transform="matrix(1,0,0,1,-486.891,-1.69308)">
                <path d="M1179.12,2751.03C1179.66,2714.66 1173.29,2697.51 1176.5,2695C1191.4,2683.37 1220.75,2692.39 1220.09,2695C1211.56,2728.65 1240.23,2732.45 1234.08,2744.28C1227.72,2756.51 1208.16,2752.2 1179.12,2751.03Z" style="fill:rgb(255,227,196);"/>
            </g>
            <g transform="matrix(1,0,0,1,-249.601,0)">
                <path d="M1170.66,2751.03C1179.61,2718.24 1210.59,2694.86 1213.8,2692.36C1228.7,2680.73 1254.76,2699.51 1254.1,2702.12C1245.57,2735.77 1240.23,2732.45 1234.08,2744.28C1227.72,2756.51 1199.7,2752.2 1170.66,2751.03Z" style="fill:rgb(255,227,196);"/>
            </g>
            <g transform="matrix(1,0,0,1,-158.663,6.76015)">
                <path d="M1179.12,2751.03C1179.66,2714.66 1192.64,2692.38 1195.85,2689.88C1210.75,2678.25 1248.73,2700.63 1248.07,2703.24C1239.54,2736.89 1240.23,2732.45 1234.08,2744.28C1227.72,2756.51 1208.16,2752.2 1179.12,2751.03Z" style="fill:rgb(255,227,196);"/>
            </g>
            <path d="M1120.58,2282.39C1120.23,2282.77 1098.98,2259.87 1100.27,2256.01C1107.9,2233.11 1130.1,2208.72 1142.26,2187.45C1148.5,2176.53 1170.14,2152.49 1170.47,2155.16C1172.11,2168.27 1167.24,2186.6 1166.9,2199.93C1166.01,2235.7 1154.2,2265.58 1120.58,2282.39Z" style="fill:rgb(255,227,196);"/>
        </g>
        <g>
            <path d="M342.071,2291.66C312.961,2292.35 328.161,2267.18 328.161,2267.18C334.587,2248.38 385.202,2226.07 392.193,2228.42C397.398,2230.18 364.559,2252.29 362.278,2270.11C360.699,2282.43 349.466,2291.49 342.071,2291.66Z" style="fill:rgb(59,28,0);"/>
            <path d="M659.846,2746.93C630.736,2747.62 611.183,2754.99 611.183,2754.99C617.609,2736.2 605.95,2717.64 612.941,2719.99C618.146,2721.75 656.749,2702.32 654.468,2720.13C652.89,2732.46 667.241,2746.76 659.846,2746.93Z" style="fill:rgb(59,28,0);"/>
            <g transform="matrix(0.983695,0.179844,-0.179844,0.983695,585.937,-71.5851)">
                <path d="M663.829,2742.82C634.719,2743.51 611.183,2754.99 611.183,2754.99C617.609,2736.2 600.771,2716.82 607.762,2719.18C612.967,2720.93 656.749,2702.32 654.468,2720.13C652.89,2732.46 671.224,2742.65 663.829,2742.82Z" style="fill:rgb(59,28,0);"/>
            </g>
            <g transform="matrix(0.983695,0.179844,-0.179844,0.983695,814.12,-64.9979)">
                <path d="M663.829,2742.82C634.719,2743.51 611.183,2754.99 611.183,2754.99C617.609,2736.2 621.442,2711.78 628.433,2714.13C633.638,2715.89 680.261,2699.67 677.979,2717.48C676.401,2729.8 671.224,2742.65 663.829,2742.82Z" style="fill:rgb(59,28,0);"/>
            </g>
            <g transform="matrix(0.983695,0.179844,-0.179844,0.983695,908.774,-53.2836)">
                <path d="M662.173,2733.76C635.628,2741.89 616.963,2750.09 614.348,2742.51C603.548,2720.3 604.54,2703.45 611.531,2705.81C616.736,2707.57 673.932,2688.92 671.651,2706.73C670.072,2719.05 669.246,2731.6 662.173,2733.76Z" style="fill:rgb(59,28,0);"/>
            </g>
        </g>
        <path d="M1169.08,2149.8C1169.21,2149.58 1169.96,2148.3 1171.24,2147.83C1171.26,2147.82 1174.18,2147.92 1174.18,2147.93C1176.48,2150.41 1177.43,2150.7 1175.76,2153.64C1172.77,2158.89 1158,2168.54 1154.57,2172.86C1133.15,2199.82 1124.08,2235.57 1098.16,2261.73C1096.98,2262.93 1096.89,2262.96 1095.2,2262.96C1095.18,2262.96 1092.22,2261.74 1092.22,2261.73C1091.81,2260.74 1091,2259.84 1091,2258.77C1090.99,2256.68 1091.32,2256.72 1092.79,2255.23C1116.97,2230.78 1126.49,2195.34 1148.37,2168.04C1152.53,2162.84 1166.33,2153.78 1169.08,2149.8L1169.08,2149.81C1169.07,2149.81 1169.07,2149.81 1169.07,2149.82C1169.05,2149.85 1169.06,2149.84 1169.08,2149.81C1169.08,2149.81 1169.08,2149.81 1169.08,2149.8Z"/>
        <g transform="matrix(0.948389,0,0,0.954806,118.902,229.039)">
            <path d="M493.666,2315.5C493.378,2315.73 491.734,2317.02 489.25,2316.72C488.49,2316.63 487.731,2316.39 487.062,2316.02C485.629,2315.22 485.709,2315.11 484.72,2313.8C466.196,2289.35 447.21,2212.44 423.481,2188.59C422.566,2187.68 419.751,2184.9 416.541,2183.47C416.465,2183.43 414.877,2182.85 409.967,2185.21C400.802,2189.62 390.577,2198.54 382.909,2201.36C364.421,2208.15 345.87,2195.99 328.569,2196.18C300.447,2196.5 271.519,2204.34 249.105,2197.36C243.209,2195.52 235.136,2192.4 227.458,2183.15C223.346,2178.19 199.643,2151.1 216.349,2121.83C220.766,2114.09 226.533,2108.8 227.593,2107.83C247.357,2089.71 272.841,2086.9 301.771,2067.79C314.491,2059.39 321.201,2051.56 333.722,2036.11C340.483,2027.76 349.595,2016.6 356.325,2011.68C372.421,1999.9 392.006,2001.89 410.255,2002.84C411.485,2002.9 411.462,2003.05 416.687,2004.05C416.948,2004.1 416.906,2004.18 418.126,2005.49C418.828,2006.24 419.101,2006.51 419.101,2006.52C419.244,2007.86 419.096,2009.21 419.093,2010.55C419.09,2011.9 419.238,2013.25 419.085,2014.59C419.082,2014.62 416.631,2016.98 416.607,2016.99C416.532,2017.02 410.412,2017.8 410.236,2017.8C407.644,2017.85 393.311,2016.57 383.034,2017.85C368.972,2019.6 364.028,2025.28 358.859,2031.01C344.371,2047.07 333.717,2065.81 313.734,2079.93C291.435,2095.68 272.845,2100.64 255.905,2108.99C247.289,2113.23 241.253,2117.34 235.019,2123.89C229.539,2129.64 218.461,2142.74 231.283,2166C233.08,2169.26 237.227,2175.79 240.612,2179.08C241.838,2180.27 245.378,2183.66 251.769,2185.98C264.022,2190.42 284.602,2187.99 291.294,2187.28C303.347,2185.99 323.337,2183.35 333.773,2184.18C352.07,2185.64 368.296,2195.22 380.675,2188.35C391.121,2182.56 408.844,2165.66 421.955,2171.71C443.349,2181.57 458.242,2221.69 473.624,2261.67C481.335,2281.71 488.2,2298.84 494.692,2307.16C496.202,2309.09 495.948,2311.18 495.904,2311.54C495.607,2313.98 493.953,2315.28 493.666,2315.5Z"/>
        </g>
        <g transform="matrix(0.948389,0,0,0.954806,118.902,229.039)">
            <path d="M415.326,1917.96C417.082,1917.41 417.18,1917.43 418.811,1918.29C420.614,1919.23 420.586,1919.39 421.167,1921.33C421.484,1922.39 423.804,1926.9 422.478,1934.42C422.384,1934.96 421.622,1938.22 419.009,1942.92C413.47,1952.87 407.117,1957.27 402.32,1971.69C399.116,1981.33 398.662,1990.88 399.639,1996.99C399.921,1998.75 400.28,2000 400.28,2000.01C400.277,2000.21 400.157,2000.19 399.805,2002.44C399.365,2005.24 399.899,2005.26 399.801,2005.49C399.794,2005.5 397.496,2007.66 397.487,2007.66C396.475,2007.63 395.379,2007.97 394.451,2007.56C394.418,2007.55 391.727,2004.93 390.418,2003.4C390.132,2003.06 390.122,2003.07 389.991,2002.65C386.769,1992.4 388.291,1982.48 388.592,1980.35C390.924,1963.84 398.129,1953.09 399.526,1951.01C403.733,1944.74 409.274,1938.49 411.15,1932.21C411.366,1931.49 412.416,1929.28 412.505,1926.02C412.566,1923.81 412.291,1923.83 412.309,1923.64C412.616,1920.45 412.515,1920.43 412.646,1920.19C413.501,1918.57 413.578,1918.51 415.326,1917.96Z"/>
        </g>
        <g transform="matrix(0.948389,0,0,0.954806,118.902,229.039)">
            <path d="M560.899,2098.93C561.349,2098.73 562.003,2098.49 562.664,2098.4C563.035,2098.35 565.18,2098.05 567.212,2099.54C567.523,2099.76 569.31,2101.07 569.686,2103.64C570.051,2106.13 568.767,2107.86 568.544,2108.16C566.051,2111.51 561.032,2111.3 560.329,2111.27C546.146,2110.69 517.657,2088.02 499.742,2055.53C497.159,2050.85 490.92,2039.09 486.878,2023.13C486.824,2022.92 486.656,2022.7 486.718,2022.49C486.725,2022.47 487.911,2020.79 487.922,2020.75C488.184,2019.71 488.154,2018.55 488.714,2017.63C488.831,2017.44 489.853,2015.77 490.916,2015.88C492.09,2016 493.311,2015.89 494.436,2016.25C494.911,2016.4 495.242,2016.88 495.475,2017.32C496.18,2018.64 495.701,2018.79 495.815,2018.84C496.631,2019.23 496.625,2019.23 497.635,2019.7C497.935,2019.83 503.908,2049.39 530.714,2077.72C544.538,2092.34 556.776,2098.84 560.899,2098.93ZM560.695,2099.02C560.594,2099.06 560.473,2099.12 560.328,2099.2C560.372,2099.18 560.503,2099.11 560.695,2099.02ZM561.032,2099C561.151,2099.8 561.161,2099.92 561.341,2100.54C561.186,2099.78 561.303,2099.13 561.032,2099Z"/>
        </g>
        <g transform="matrix(0.948389,0,0,0.954806,118.902,229.039)">
            <path d="M564.089,2100.55C564.771,2099.99 564.975,2098.98 565.657,2098.43C565.752,2098.35 566.073,2098.09 567.139,2098.06C569.017,2098.02 571.041,2097.99 575.878,2097.79C579.753,2097.62 603.234,2098.76 649.312,2092.76C682.815,2088.4 712.981,2082.6 756.942,2074.89C756.97,2074.89 776.236,2071.69 794.878,2069.02C863.718,2059.17 913.538,2058.68 958.179,2067.91C975.384,2071.47 999.724,2090.48 1005.07,2094.48C1024.88,2109.33 1049.75,2132.08 1055.51,2148.08C1063.46,2170.14 1067.18,2186.09 1069.12,2195.81C1069.13,2195.86 1070.67,2204.22 1071.58,2214.64C1074.53,2248.22 1068.36,2269.85 1065.2,2281.37C1050.44,2335.16 1014.3,2371.91 1006.39,2454.33C1005,2468.85 1012.74,2481.93 1023.74,2498.93C1034.56,2515.64 1043.38,2529.22 1044.37,2545.88C1046.25,2577.85 1026.75,2606.85 1016.44,2635.65C1015.94,2637.05 1014.76,2639.1 1012.72,2644.1C1009.55,2651.85 1010.26,2652.43 1007.95,2653.98C1007.93,2653.99 1004.74,2654.71 1004.73,2654.71C1003.84,2654.07 1002.67,2653.71 1002.06,2652.8C1000.79,2650.88 1001.04,2650.73 1001.26,2648.44C1001.94,2641.34 1003.26,2635.17 1003.89,2632.31C1003.96,2631.97 1005.97,2625.69 1010.58,2614.61C1020.11,2591.72 1032.17,2567.82 1029.55,2544.8C1026.75,2520.22 994.503,2494.43 990.765,2463.24C990.088,2457.59 990.355,2453.86 991.664,2444.05C1002.26,2364.64 1038.75,2327.38 1053.17,2275.92C1053.21,2275.77 1054.93,2269.36 1056.19,2260.91C1059.29,2240.3 1057.97,2220.1 1053.8,2199.36C1053.02,2195.5 1050.75,2179.78 1041.82,2152.8C1038.46,2142.66 1020.03,2122.28 995.448,2103.24C995.43,2103.22 991.088,2099.96 985.716,2096.36C964.071,2081.84 955.181,2081.1 954.374,2080.95C897.442,2070.59 836.093,2078.69 766.19,2091C762.667,2091.62 755.092,2092.95 722.099,2098.46C711.711,2100.19 682.994,2104.78 662.215,2107.32C638.045,2110.27 608.021,2113.12 577.09,2112.3C576.362,2112.28 574.783,2112.24 568.023,2111.54C567.525,2111.49 567.019,2111.49 566.531,2111.39C566.526,2111.39 564.934,2110.85 564.933,2110.85C564.488,2110.11 564.085,2109.35 563.657,2108.61C563.524,2108.38 563.003,2109.1 560.879,2106.75C560.738,2106.6 559.484,2105.21 559.815,2104.35C561.093,2101.01 560.974,2100.94 561.206,2100.74C562.381,2099.69 562.915,2101.59 564.089,2100.55Z"/>
        </g>
        <g transform="matrix(0.948389,0,0,0.954806,118.902,229.039)">
            <path d="M871.13,2270.4C872.555,2272.02 874.049,2273.58 875.475,2275.19C875.477,2275.19 876.006,2275.97 876.744,2277.03C876.829,2277.15 876.962,2277.25 876.998,2277.39C876.999,2277.4 877.048,2278.41 877.151,2280.02C877.414,2284.15 875.933,2315.98 891.29,2358.55C901.619,2387.18 915.556,2409.69 915.8,2410.1C919.852,2416.9 927.348,2427.74 930.278,2460.27C931.711,2476.18 931.822,2495.39 932.249,2497.8C933.276,2503.58 938.95,2509.73 939.929,2510.83C947.253,2519.09 960.069,2530.15 965.613,2537.1C980.778,2556.11 978.823,2566.84 972.232,2582.79C969.699,2588.92 969.631,2588.89 967.903,2594.2C963.351,2608.2 958.644,2617.81 957.007,2621.83C952.908,2631.9 949.729,2639.24 951.739,2642.03C953.222,2644.09 957.94,2645.96 958.209,2645.89C958.868,2645.72 959.462,2646.31 968.331,2644.52C970.316,2644.12 973.505,2643.43 973.513,2643.43C974.221,2643.33 979.837,2642.89 980.387,2642.85C987.137,2642.32 992.786,2642.11 998.179,2642.49C998.226,2642.5 1004.98,2643.5 1010.69,2646.52C1013.28,2647.89 1013.18,2648.08 1014.69,2650.58C1015.06,2651.19 1015.12,2651.96 1015.12,2652.67C1015.12,2652.69 1014.73,2654.68 1014.73,2654.68C1014.33,2655.2 1014.03,2655.81 1013.53,2656.24C1013,2656.7 1012.39,2657.17 1011.7,2657.31C1009.2,2657.84 1009.17,2657.97 1006.67,2657.49C1002.56,2656.7 997.786,2657.39 997.531,2657.39C995.249,2657.4 992.43,2656.99 979.039,2658.65C975.461,2659.1 975.467,2659.13 975.204,2659.13C963.175,2659.19 957.288,2658.89 953.019,2656.6C951.261,2655.66 939.563,2651.51 939.706,2639.98C939.805,2632.02 945.236,2622.46 948.062,2615.22C955.6,2595.93 955.622,2591.66 958.679,2582.94C962.192,2572.91 965.418,2565.88 962.501,2558.62C960.025,2552.46 954.411,2546.64 952.722,2544.6C943.942,2534.01 931.793,2523.38 924.138,2511.24C918.951,2503.01 919.187,2497.51 919.059,2494.9C917.936,2471.99 917.744,2439.17 906.082,2420.19C902.584,2414.5 894.16,2400.88 885.72,2381.83C880.817,2370.77 877.134,2359.4 876.49,2357.41C869.836,2336.87 864.156,2310.92 864.57,2280.53C864.57,2280.49 864.531,2280.49 864.811,2277.39C864.842,2277.03 864.893,2277.05 865.104,2276.76C865.249,2276.56 866.833,2274.4 866.936,2274.3C868.307,2272.97 869.759,2271.73 871.13,2270.4Z"/>
        </g>
        <g transform="matrix(0.948389,0,0,0.954806,118.902,229.039)">
            <path d="M569.1,2636.31C567.672,2630.15 562.13,2618.66 560.582,2611.06C558.347,2600.09 558.424,2600.08 556.105,2589.13C547.836,2550.1 548.917,2548.92 548.184,2543.34C545.712,2524.52 533.767,2496.33 530.875,2483.68C530.134,2480.43 528.983,2473.91 529.009,2468.13C529.155,2434.3 562.647,2388.15 582.545,2335.12C584.978,2328.64 593.212,2308.21 596.162,2284.28C596.332,2282.91 596.436,2282.93 596.819,2281.6C599.086,2273.73 600.019,2267.99 600.047,2267.94C600.773,2266.54 601.306,2265.03 602.23,2263.75C602.655,2263.16 603.339,2262.78 603.999,2262.47C604.017,2262.46 605.962,2262 605.97,2262.01C606.625,2262.16 607.325,2262.19 607.933,2262.48C611.192,2264.01 611.844,2267.89 611.94,2268.46C613.382,2277.04 613.774,2284.81 613.8,2285.25C613.802,2285.28 613.052,2295.16 609.827,2309.14C604.712,2331.31 596.857,2349.26 596.201,2350.82C575.381,2400.4 544.221,2444.96 545.767,2470.8C546.284,2479.44 548.362,2486.03 549.432,2489.74C555.165,2509.64 561.951,2529.2 562.626,2546.7C562.958,2555.28 567.552,2580.96 569.419,2591.31C569.461,2591.54 572.79,2608.5 573.175,2609.96C575.929,2620.41 583.988,2634.15 581.37,2642.29C580.135,2646.14 577.474,2647.19 576.972,2647.39C573.809,2648.64 556.318,2650.17 547.901,2650.69C520.851,2652.39 516.249,2649.77 514.01,2648.14C511.397,2646.25 510.192,2643.21 510.984,2640.12C513.584,2629.96 513.608,2619.2 512.276,2600.63C511.362,2587.89 511.095,2574.45 498.704,2542.09C496.858,2537.27 491.659,2524.17 490.491,2521.8C485.109,2510.9 471.091,2498.14 468.559,2484.33C464.62,2462.84 472.076,2442.34 473.483,2422.75C475.527,2394.29 478.14,2372.31 479.853,2346.37C480.363,2338.65 481.404,2329.31 481.806,2308.94C481.82,2308.25 481.74,2307.95 482.868,2305.48C483.01,2305.17 484.223,2302.53 484.357,2302.39C484.359,2302.38 484.388,2302.39 484.44,2302.39C484.445,2300.1 486.166,2299.09 486.446,2298.93C488.753,2297.57 492.069,2298.76 492.588,2301.91C492.635,2302.19 492.623,2303.25 493.112,2307.07C493.132,2307.22 493.295,2308.5 493.444,2308.95C493.46,2309 493.473,2309.05 493.481,2309.08L493.493,2309.08C493.494,2309.11 493.494,2309.14 493.494,2309.17C493.495,2309.18 493.495,2309.19 493.495,2309.2C493.585,2315.8 493.697,2326.88 492.812,2345.43C492.175,2358.79 488.132,2398.24 486.474,2420.06C485.584,2431.76 485.437,2432.09 482.595,2448.5C481.148,2456.86 478.78,2470.65 481.051,2482.29C483.109,2492.83 497.706,2505.96 503.017,2519C513.148,2543.89 522.505,2567.5 524.228,2592.93C525.3,2608.75 526.741,2624.31 524.032,2638.58C534.199,2639.79 558.228,2637.78 569.1,2636.31ZM491.032,2305.2L491.213,2305.4L491.449,2305.18C491.306,2305.19 491.167,2305.19 491.032,2305.2ZM492.412,2309.07C492.4,2309.07 492.389,2309.07 492.377,2309.07L492.412,2309.07Z"/>
        </g>
        <g transform="matrix(0.948389,0,0,0.954806,118.902,229.039)">
            <path d="M867.123,2337.7C867.873,2337.26 867.598,2337.42 867.123,2337.7ZM579.311,2363.88C578.277,2363.89 577.172,2364.29 576.209,2363.92C576.192,2363.91 573.966,2361.8 573.966,2361.79C573.895,2358.25 573.356,2357.36 576.729,2356.23C577.748,2355.88 577.779,2355.97 577.852,2355.92C578.058,2355.76 577.93,2355.64 581.406,2352.12C581.558,2351.97 581.68,2351.77 581.867,2351.66C582.149,2351.5 585.96,2350.52 586.317,2350.42C586.993,2350.25 586.989,2350.21 587.69,2350.22C596.453,2350.28 608.045,2351.28 613.251,2351.74C613.545,2351.77 622.047,2352.72 636.867,2354.71C653.291,2356.91 668.423,2359.08 672.889,2359.31C718.614,2361.75 793.169,2363.64 844.076,2345.69C846.184,2344.95 848.747,2344.47 854.73,2342.44C860.159,2340.6 864.989,2338.84 865.928,2338.38C866,2338.34 866.657,2337.97 867.123,2337.7C866.878,2337.84 868.656,2336.81 870.469,2336.57C871.002,2336.5 874.071,2336.1 876.964,2338.27C877.406,2338.61 879.951,2340.52 880.448,2344.21C880.929,2347.78 879.061,2350.24 878.736,2350.66C877.428,2352.38 877.326,2352.3 875.448,2353.37C873.656,2354.39 873.065,2355.06 868.411,2357.97C868.369,2358 865.285,2360.08 858.088,2363.59C857.644,2363.81 853.698,2365.73 852.493,2366.2C849.495,2367.36 843.798,2369.08 843.035,2369.31C820.348,2376.17 786.316,2382.46 731.01,2382.36C703.35,2382.3 672.285,2380.25 669.071,2379.91C659.407,2378.89 634.333,2374.78 612.695,2372C608.204,2371.42 596.317,2369.45 587.016,2368.79C586.142,2368.73 586.172,2368.62 585.355,2368.31C583.761,2367.73 582.515,2367.31 582.514,2367.31C582.3,2367.07 582.334,2367.04 579.982,2364.23C579.894,2364.13 579.772,2364.05 579.719,2363.92C579.482,2363.35 579.6,2363.31 579.362,2362.74L579.603,2363.8C579.495,2363.83 579.396,2363.85 579.291,2363.89C579.295,2363.88 579.308,2363.88 579.311,2363.88Z"/>
        </g>
        <g transform="matrix(0.948389,0,0,0.954806,118.902,229.039)">
            <path d="M656.815,2380.63C657.384,2381.02 657.852,2381.34 657.857,2381.37C657.891,2381.57 657.694,2382.73 657.348,2385.56C657.318,2385.8 657.336,2386.04 657.262,2386.27C657.261,2386.27 652.453,2395.91 647.144,2409.13C645.468,2413.3 639.777,2427.46 636.406,2441.97C634.378,2450.7 634.737,2453.86 634.662,2459.57C634.328,2484.98 631.834,2501.03 636.499,2526.89C639.725,2544.76 667.206,2613.8 669.728,2625.53C672.294,2637.47 666.342,2646.96 650.66,2648.18C642.394,2648.82 634.308,2647.5 625.457,2646.19C617.228,2644.98 608.765,2643.39 605.728,2643.61C603.543,2643.77 598.07,2642.88 596.928,2635.69C596.005,2629.88 596.652,2620.76 590.864,2592.99C589.602,2586.94 586.683,2570.35 580.01,2544.24C573.103,2517.22 567.469,2503.41 564.799,2500.06C562.091,2496.66 547.744,2479.78 549.088,2435.58C549.471,2422.97 551.079,2412.82 551.383,2411.38C552.31,2407 553.152,2403.88 553.519,2402.55C553.636,2402.13 553.758,2401.69 556.112,2397.67C556.801,2396.5 557.077,2396.08 557.244,2395.79C557.697,2395 558.012,2394.12 558.607,2393.43C558.878,2393.11 560.451,2391.29 563.234,2391.03C563.662,2390.98 566.107,2390.75 568.369,2392.62C568.69,2392.89 570.559,2394.44 570.787,2397.22C570.819,2397.61 570.328,2397.59 570.531,2402.15C570.622,2404.18 570.779,2405.98 570.778,2405.98C570.763,2406.11 570.192,2409.31 569.695,2414.25C569.527,2415.92 565.771,2437.52 568.799,2459.58C571.661,2480.43 578.689,2487.51 580.152,2489.55C582.003,2492.12 588.004,2500.76 597.69,2538.78C603.405,2561.2 607.676,2584.21 608.532,2589.87C611.706,2610.84 611.958,2621.23 612.169,2628.97C618.599,2630.05 626.241,2632.15 634.334,2633.33C634.918,2633.41 650.233,2635.89 655.298,2632.93C655.897,2632.57 656.815,2632.1 656.159,2628.61C654.328,2618.87 626.393,2549.25 622.788,2529.35C617.56,2500.49 620.678,2483.71 620.737,2454.16C620.761,2442.13 625.946,2427.79 627.068,2424.6C634.82,2402.57 646.466,2380.88 646.521,2380.82C647.146,2380.17 650.07,2377.59 651.254,2376.34C651.377,2376.21 651.972,2375.51 652.898,2375.1C653.567,2374.81 654.455,2374.74 654.491,2374.76C655.456,2375.29 656.587,2375.6 657.384,2376.35C657.406,2376.37 658.529,2378.5 658.628,2378.69C658.732,2378.89 658.582,2378.88 656.815,2380.63ZM655.127,2382.33C654.975,2382.49 654.818,2382.65 654.653,2382.82L655.191,2382.74L655.127,2382.33Z"/>
        </g>
        <g transform="matrix(0.948389,0,0,0.954806,118.902,229.039)">
            <path d="M901.016,2499.11C899.316,2492.06 888.668,2471.31 887.107,2467C886.265,2464.68 880.557,2460.05 879.912,2459.52C870.403,2451.81 856.767,2444.04 850.708,2436.23C842.477,2425.62 838.974,2413.99 834.545,2398.07C831.608,2387.51 829.115,2377.92 824.292,2370.06C824.204,2369.92 823.866,2369.1 823.04,2367.6C822.998,2367.52 822.905,2367.46 822.913,2367.37C822.931,2367.18 823.076,2367.24 823.908,2365.15C823.971,2364.99 823.964,2364.79 824.089,2364.68C825.078,2363.76 826.168,2362.95 827.207,2362.09C828.247,2361.23 829.234,2360.3 830.326,2359.51C830.399,2359.45 833.423,2359.23 833.486,2359.25C833.639,2359.3 835.281,2361.22 835.432,2361.39C835.527,2361.5 836.198,2362.09 838.088,2365.28C848.441,2382.76 850.529,2405.78 861.208,2422.86C863.791,2426.99 865.4,2428.62 870.131,2432.31C881.302,2441.03 898.734,2451.12 902.233,2461.93C903.087,2464.56 915.639,2489.12 916.602,2497.68C916.738,2498.88 917.59,2500.68 910.402,2523.32C902.344,2548.71 886.84,2591.37 883.89,2596.97C879.877,2604.6 870.009,2614.03 861.732,2623.35C858.575,2626.9 852.69,2633.74 851.747,2637.67C853.116,2638.33 857.646,2639.74 870.85,2638.6C886.726,2637.23 889.134,2636.59 891.54,2635.94C891.577,2635.93 894.083,2635.07 896.521,2633.13C899.89,2630.46 901.975,2627.47 904.185,2625.07C907.591,2621.38 916.592,2610.91 917.656,2609.49C925.813,2598.63 933.948,2574.2 941.247,2558.16C942.498,2555.41 946.6,2548.54 946.799,2548.41C946.984,2548.29 949.147,2547.16 949.167,2547.14C949.883,2546.47 950.488,2545.65 951.318,2545.12C951.696,2544.88 953.89,2543.47 956.829,2544.01C957.285,2544.09 959.863,2544.56 961.663,2547.18C961.916,2547.55 963.406,2549.72 962.782,2552.66C962.469,2554.14 961.468,2555.53 961.605,2555.34C961.636,2555.29 961.589,2555.37 961.815,2557.12C961.828,2557.22 961.879,2557.32 961.853,2557.41C961.802,2557.6 960.735,2559.22 958.194,2565.35C957.612,2566.75 957.373,2566.65 950.565,2582.73C944.696,2596.59 937.817,2612.98 929.636,2622.11C924.254,2628.12 917.201,2636.03 914.971,2638.01C904.763,2647.1 899.84,2647.92 894.478,2649.33C891.103,2650.22 887.359,2650.96 872.096,2652.36C857.744,2653.69 842.605,2653.35 838.472,2642.99C833.22,2629.82 851.929,2613.67 865.025,2598.33C870.824,2591.53 871.19,2589.88 872.594,2586.25C878.555,2570.83 898.037,2515.24 901.016,2499.11Z"/>
        </g>
        <g transform="matrix(0.948389,0,0,0.954806,118.902,229.039)">
            <path d="M413.008,1918.93C412.724,1918.33 412.458,1917.72 412.506,1917.08C412.639,1915.3 413.921,1914.29 414.134,1914.12C416.364,1912.36 420.611,1912.75 421.358,1917.57C421.427,1918.02 421.524,1919.05 421.622,1919.7C427.212,1927.48 430.998,1930.16 435.94,1934.28C444.483,1941.4 446.443,1948.9 446.768,1949.97C446.798,1950.07 447.117,1951.13 447.126,1951.19C447.219,1951.93 447.423,1952.67 447.355,1953.4C447.324,1953.74 447.144,1955.69 445.375,1957.17C443.548,1958.69 441.525,1958.51 441.174,1958.48C438.875,1958.27 437.605,1956.77 437.384,1956.51C436.258,1955.18 436.566,1955.01 435.816,1953.44C434.791,1951.3 433.089,1948.67 428.357,1944.2C427.662,1943.54 424.603,1940.31 424.28,1939.97C423.383,1939.03 418.189,1933.79 413.548,1923.71C413.042,1922.61 412.806,1921.21 413.008,1918.93ZM418.962,1920.59C419.029,1920.56 419.107,1920.51 419.202,1920.43C419.26,1920.38 419.166,1920.46 418.962,1920.59Z"/>
        </g>
        <g transform="matrix(0.948389,0,0,0.954806,118.902,229.039)">
            <path d="M1004.89,2101.97C1004.86,2103.12 1004.31,2103.93 1004.19,2104.11C1002.71,2106.3 999.444,2106.49 997.72,2104.48C997.085,2103.74 996.893,2102.94 996.857,2102.8C996.702,2102.15 996.576,2102.01 997.618,2094.42C1000.65,2072.34 1003.72,2063.17 1004.59,2060.54C1005.62,2057.47 1006.93,2053.62 1011.8,2047.4C1014.77,2043.6 1029.3,2024.38 1077.24,2010.35C1094.07,2005.42 1108.85,2003.04 1110.97,2003.11C1111.7,2003.14 1111.7,2003.11 1112.4,2003.3C1118.84,2005.04 1119.31,2012.2 1117.74,2027.53C1115.64,2048.02 1110.42,2076.8 1110.62,2092.64C1110.73,2101.5 1109.44,2129.01 1060.19,2159.76C1059.33,2160.3 1058.37,2160.89 1058.36,2160.89C1058.21,2160.94 1054.7,2161.98 1054.66,2161.98C1052.7,2162.02 1050.73,2162.31 1048.78,2162.11C1047.92,2162.01 1047.11,2161.58 1046.38,2161.11C1046.37,2161.1 1044.78,2159.52 1044.78,2159.51C1044.58,2158.8 1044.23,2158.11 1044.18,2157.38C1043.94,2153.32 1047.42,2149.83 1047.92,2149.32C1049.86,2147.37 1049.82,2147.32 1050.01,2147.18C1051.2,2146.29 1086.37,2127.21 1094.08,2102.68C1096.05,2096.41 1095.5,2093.55 1095.8,2087.72C1096.84,2067.37 1103.94,2032.32 1104.73,2017.49C1088.27,2020.19 1048.06,2029.1 1025.94,2049.18C1024.09,2050.85 1020.5,2053.99 1017,2059.19C1012.64,2065.66 1007.01,2090.08 1004.89,2101.97ZM997.21,2100.43C997.157,2100.41 997.102,2100.39 997.045,2100.36L996.972,2100.55C997.053,2100.51 997.132,2100.47 997.21,2100.43Z"/>
        </g>
        <path d="M592.746,1991.3C592.962,1991.01 594.2,1989.36 596.624,1989.01C597.369,1988.9 598.149,1988.94 598.878,1989.12C600.509,1989.54 600.448,1989.7 601.772,1990.74C641.643,2021.98 621.027,2060.28 603.225,2085.53C584.939,2111.47 560.764,2135.39 552.867,2154.18C552.776,2154.39 552.245,2155.65 550.806,2156.27C550.79,2156.28 547.859,2156.31 547.853,2156.31C547.153,2155.62 546.144,2155.15 545.759,2154.25C545.038,2152.57 545.245,2152.47 545.927,2150.77C557.963,2120.77 606.914,2078.72 613.302,2041.14C616.756,2020.83 605.677,2008.2 593.917,1999.53C591.991,1998.12 591.691,1996.01 591.64,1995.66C591.295,1993.24 592.531,1991.59 592.746,1991.3Z"/>
        <path d="M609.153,2049.39C608.879,2049.42 608.54,2049.46 608.11,2049.51C606.814,2045.77 606.644,2045.81 606.377,2043.97C605.176,2035.69 596.133,2034.97 585.896,2035.19C584.9,2035.22 582.354,2035.27 573.457,2035.93C556.747,2037.17 535.398,2045.95 512.141,2052.48C493.453,2057.72 483.773,2058.19 477.17,2058.05C450.207,2057.48 437.369,2041.71 430.851,2024.04C430.764,2023.81 430.416,2022.91 430.415,2022.9C430.298,2022.18 430.042,2021.47 430.067,2020.74C430.078,2020.4 430.143,2018.48 431.785,2016.93C433.481,2015.33 435.466,2015.4 435.81,2015.41C438.067,2015.49 439.387,2016.89 439.616,2017.13C440.749,2018.33 440.531,2018.47 441.174,2019.99C449.601,2039.9 463.391,2047.14 486.391,2044.36C498.268,2042.92 506.581,2040.86 527.404,2034.55C545.19,2029.17 559.54,2024.94 573.915,2024.39C581.692,2024.09 588.232,2023.55 595.914,2025.02C613.082,2028.33 614.452,2038.95 614.695,2043.43L614.689,2043.43C615.05,2045.5 616.356,2048.61 615.596,2050.7C615.482,2051.01 614.751,2053.03 612.354,2053.3C611.381,2053.41 610.47,2052.77 609.529,2052.5C609.302,2052.43 609.431,2052.31 609.153,2049.39ZM608.939,2047.35C608.93,2047.26 608.919,2047.17 608.909,2047.08L608.792,2047.24L608.939,2047.35Z"/>
        <path d="M513.991,2045.29C511.008,2045.84 509.29,2045.22 507.256,2044.27C501.297,2041.46 497.509,2037.4 495.722,2031.4C492.633,2021.02 497.46,2009.49 500.391,1999.01C501.407,1995.37 502.365,1995.94 506.099,1995.39C506.108,1995.39 508.956,1997.5 508.965,1997.52C510.121,1999.44 509.842,1999.59 509.331,2001.78C506.817,2012.55 502.502,2024.33 506.978,2031.21C507.013,2031.26 507.696,2032.59 509.495,2034.35C510.684,2035.51 511.674,2036.16 512.66,2036.86L512.624,2036.93C513.208,2037.06 513.853,2036.99 515.22,2037.24C516.816,2037.54 518.374,2038.36 519.295,2039.88C520.35,2041.63 519.87,2043.08 519.783,2043.35C519.777,2043.36 517.866,2045.59 517.857,2045.59C516.886,2045.66 515.868,2046.09 514.943,2045.79C514.587,2045.67 514.269,2045.49 513.991,2045.29ZM514.881,2042.7L515.678,2042.15C515.292,2042.4 515.077,2042.46 514.881,2042.7ZM512.988,2044.3C512.753,2044 512.649,2043.79 512.692,2043.88C512.805,2044.09 512.9,2044.23 512.988,2044.3Z"/>
        <path d="M550.027,2036.54C550.01,2036.56 549.992,2036.59 549.974,2036.62C549.145,2036.16 547.34,2035.46 545.664,2032.66C543.999,2029.87 543.033,2025.96 543.122,2018.59C543.271,2006.33 549.348,1999.66 552.716,1989.57C552.794,1989.33 553.243,1987.99 554.761,1987.23C554.776,1987.22 557.863,1987 557.87,1987.01C558.651,1987.68 559.747,1988.12 560.21,1989.05C561.064,1990.75 560.886,1990.87 560.256,1992.67C556.669,2002.92 551.027,2008.81 550.976,2019.21C550.958,2022.88 551.029,2027.39 552.831,2029.38C554.191,2030.13 555.137,2030.62 555.726,2031.9C556.369,2033.29 556.099,2035.05 555.026,2036.18C554.805,2036.41 553.399,2037.9 551.125,2037.23C550.704,2037.1 550.354,2036.84 550.027,2036.54ZM550.253,2030.6C550.297,2030.45 550.341,2030.3 550.387,2030.15L550.088,2030.35L550.253,2030.6Z"/>
        <path d="M526.563,2144.9C524.484,2143.99 522.721,2142.93 522.07,2140.4C521.196,2137.01 518.114,2130.45 517.367,2126.77C514.355,2111.94 518.321,2099.13 522.496,2087.78C529.199,2069.55 537.231,2056.82 537.931,2044.16C538.309,2037.34 537.306,2026.48 521.864,2007.95C517.674,2002.92 511.683,1996.64 504.704,1994.88C504.142,1994.73 504.206,1994.6 503.034,1993.94C500.158,1992.3 499.963,1992.81 499.718,1992.66C497.273,1991.23 496.668,1988.86 496.564,1988.46C495.833,1985.6 497.108,1983.46 497.331,1983.09C498.781,1980.67 501.129,1980.05 501.535,1979.94C501.62,1979.92 505.191,1979.58 508.119,1979.82C508.18,1979.82 508.297,1979.68 510.398,1980.45C518.251,1983.31 526.918,1989.5 537.83,2006.23C561.095,2041.89 545.662,2059.19 534.157,2088.42C528.154,2103.67 527.756,2110 527.535,2112.14C526.766,2119.56 527.925,2124.21 528.157,2125.95C528.662,2129.76 529.744,2132.75 530.341,2137.85C531.444,2138.59 533.002,2139.29 533.402,2141.26C533.899,2143.72 531.862,2146.16 529.215,2145.92C527.697,2145.78 526.987,2145.49 526.563,2144.9Z"/>
        <path d="M533.329,2014.25C533.758,2014.22 534.079,2014.19 534.081,2014.2C536.518,2016.27 537.511,2016.34 536.454,2019.36C535.906,2020.93 533.281,2024.44 527.894,2020.9C525.934,2019.61 525.404,2018.66 523.375,2017.89C522.289,2017.47 520.391,2015.84 513.483,2017.35C504.096,2019.4 496.462,2025.46 487.788,2030.53C462.528,2045.3 455.185,2062.62 428.538,2067.3C415.159,2069.65 400.609,2067.8 397.345,2067.16C388.207,2065.38 384.854,2061.44 383.867,2060.31C382.352,2058.57 381.535,2056.98 381.153,2056.18C380.905,2055.65 380.484,2053.04 380.731,2050.76C381.012,2048.16 380.376,2047.92 381.895,2045.8C382.116,2045.49 383.417,2043.66 385.913,2043.26C388.516,2042.84 390.307,2044.12 390.622,2044.34C391.273,2044.81 391.848,2045.41 392.268,2046.09C392.94,2047.18 393.155,2048.61 393.126,2048.41C393.092,2048.19 393.339,2048.97 394.772,2049.11L394.799,2049.09C395.142,2049.46 395.272,2049.53 395.841,2049.84L395.845,2049.83C397.187,2050.82 399.319,2052.07 409.951,2052.75C443.184,2054.87 447.545,2039.85 473.383,2023.23C474.692,2022.39 478.647,2019.84 490.268,2013.56C497.473,2009.67 506.348,2005.31 517.139,2005.42C522.672,2005.47 526.344,2007.23 528.669,2008.8C529.283,2009.21 531.467,2011.2 532.702,2013.27C532.945,2013.68 533.183,2014.03 533.329,2014.25ZM529.426,2016.25C529.358,2016.33 529.291,2016.47 529.221,2016.67C529.192,2016.76 529.257,2016.56 529.426,2016.25Z"/>
        <path d="M411.985,1989.45C412.285,1989.48 414.009,1989.69 415.277,1991.31C415.667,1991.81 415.971,1992.39 416.143,1993C416.319,1993.62 416.266,1994.29 416.301,1994.94C416.306,1995.05 416.257,1995.15 416.263,1995.26C416.283,1995.62 416.646,1997.12 416.685,1997.28C416.933,1998.31 416.907,1998.56 417.475,2000.67C417.476,2000.67 417.844,2010.88 423.61,2022.2C427.466,2029.78 431.593,2033.12 434.431,2034.95C435.229,2035.46 438.983,2037.8 444.076,2037.37C444.899,2037.29 445.092,2037.55 447.146,2037.58C447.729,2037.59 447.725,2037.56 448.311,2037.56C449.285,2037.58 450.342,2037.21 451.233,2037.6C451.248,2037.61 453.288,2039.77 453.287,2039.78C453.259,2040.75 453.587,2041.8 453.196,2042.68C452.571,2044.09 448.949,2046.15 448.534,2046.39C446.763,2047.39 446.404,2047.48 446.202,2047.53C441.965,2048.56 434.988,2049.32 426.876,2044.48C418.384,2039.41 408.643,2025.97 405.651,2007.42C405.232,2004.83 405.077,2002.81 405.022,2002.02C405,2001.71 404.917,2001.66 405.275,1999.12C405.791,1995.46 406.332,1995.05 406.484,1993.76C406.519,1993.46 406.722,1991.74 408.345,1990.47C409.961,1989.2 411.685,1989.41 411.985,1989.45Z"/>
        <path d="M478.545,2023.85L478.538,2023.9C474.107,2023.86 472.87,2024.26 469.924,2023.25C467.22,2022.32 460.702,2019.42 453.487,2004.38C451.365,1999.96 449.644,1995.21 449.099,1992.43C448.076,1987.24 447.941,1982.55 449.586,1978C449.935,1977.03 449.97,1977.04 450.642,1976.27C451.73,1975.01 452.991,1974.09 453.049,1974.08C455.058,1973.81 457.076,1973.61 459.085,1973.34C459.3,1975.35 459.543,1977.36 459.758,1979.37C459.762,1979.41 459.741,1979.45 459.742,1979.49C459.754,1979.92 460.086,1980.97 460.125,1981.1C460.179,1981.27 459.598,1982.04 460.017,1986.35C460.189,1988.11 460.421,1988.81 461.028,1991.83C462.367,1998.5 466.617,2009.42 470.958,2013.69C473.233,2015.93 474.542,2015.69 476.48,2015.86C479.937,2016.18 481.39,2016.34 482.512,2017.85C482.648,2018.03 483.425,2019.08 483.255,2020.59C483.042,2022.5 481.474,2023.37 481.225,2023.51C481.209,2023.52 479.176,2023.78 478.545,2023.85ZM476.097,2019.79C475.979,2019.57 475.854,2019.35 475.721,2019.11L475.651,2019.74C475.805,2019.76 475.953,2019.77 476.097,2019.79Z"/>
        <path d="M520.154,2171.85C520.973,2171.25 517.797,2168.12 517.475,2167.5C515.204,2163.1 513.785,2157.95 513.602,2153.01C513.129,2140.23 519.581,2122.29 528.523,2112.98C540.5,2100.5 554.563,2091.03 571.134,2086.29C573.997,2085.47 578.522,2081.27 578.522,2081.27C578.522,2081.27 578.573,2086.1 578.522,2088.51C578.294,2099.45 578.596,2109.04 580.387,2119.79C585.976,2153.32 586.907,2176.36 551.191,2191.67C549.955,2192.2 547.843,2189.06 547.174,2188.44C537.573,2179.53 528.619,2170.94 514.821,2170.94" style="fill:rgb(170,105,35);"/>
        <g transform="matrix(1,0,0,1,-567.327,-81.1748)">
            <path d="M1119.14,2264.92C1118.79,2265.29 1098.98,2259.87 1100.27,2256.01C1107.9,2233.11 1114.45,2210.34 1126.61,2189.07C1132.85,2178.14 1152.09,2152.28 1152.42,2154.96C1154.06,2168.06 1150.84,2189.93 1150.51,2203.27C1149.61,2239.04 1152.76,2248.11 1119.14,2264.92Z" style="fill:rgb(255,227,196);"/>
        </g>
        <g transform="matrix(0.948389,0,0,0.954806,118.902,229.039)">
            <path d="M488.449,1926.88C489.942,1922.31 489.749,1922.12 490.038,1922.1C491.062,1922.02 492.135,1921.56 493.11,1921.88C493.493,1922 494.827,1922.44 496.529,1925.54C496.619,1925.71 497.598,1927.49 497.624,1927.6C497.721,1928.01 497.578,1930.38 497.564,1930.62C497.535,1931.09 497.334,1934.44 496.931,1936.54C495.624,1943.33 492.71,1955.58 492.898,1958.16C494.791,1984.14 505.921,2011.29 492.207,2032.71C486.078,2042.28 476.793,2047.58 469.756,2050.7C468.45,2051.28 462.855,2052.77 462.694,2052.78C462.332,2052.78 458.637,2052.17 458.285,2052.11C458.279,2052.11 458.273,2052.12 458.266,2052.12C456.96,2051.93 455.502,2052.19 454.347,2051.55C451.395,2049.93 451.695,2046.96 451.74,2046.51C451.771,2046.2 451.957,2044.37 453.61,2043.15C454.43,2042.55 454.709,2043.05 455.437,2042.33C455.877,2041.9 456.612,2041.21 458.181,2039.53C458.491,2039.19 458.667,2039.49 463.298,2037.02C464.761,2036.24 476.064,2032.47 481.288,2022.61C489.757,2006.62 481.048,1982.47 480.09,1958.77C479.884,1953.68 482.902,1943.54 485.065,1933.54C485.166,1933.07 486.012,1930.55 486.572,1927.46C486.581,1927.4 486.601,1927.3 487.124,1927.1C487.318,1927.02 488.098,1926.94 488.184,1926.92C488.275,1926.91 488.363,1926.9 488.449,1926.88ZM488.27,1927.43L488.206,1927.46L488.239,1927.52C488.249,1927.49 488.259,1927.46 488.27,1927.43Z"/>
        </g>
        <g transform="matrix(0.948389,0,0,0.954806,118.902,229.039)">
            <path d="M424.963,2025.97L424.988,2025.98C424.177,2028.96 424.733,2032.3 422.336,2034.03C420.329,2035.48 416.81,2035.31 415.402,2031.41C415.191,2030.83 415.112,2030.87 413.232,2027.78C413.123,2027.6 412.979,2027.44 412.904,2027.24C412.903,2027.24 412.391,2025.32 411.909,2023.19C411.056,2019.44 410.828,2017.96 410.537,2014.41C407.079,1972.2 435.715,1959.17 458.701,1946.47C462.302,1944.48 462.264,1944.42 465.879,1942.46C465.943,1942.43 473.273,1938.49 478.532,1934.69C479.425,1934.05 479.409,1934.03 479.496,1933.99C479.806,1933.84 480.823,1933.68 484.387,1932.25C484.39,1932.24 484.386,1932.24 484.39,1932.24C486.843,1931.12 487.249,1930.34 489.167,1932.23C489.309,1932.37 490.102,1933.15 490.106,1934.55C490.109,1935.33 488.043,1939.38 487.835,1939.78C487.19,1941.05 486.56,1942.16 486.559,1942.17C485.584,1943.19 482.902,1945.43 482.575,1945.7C480.886,1947.11 478.103,1949.42 471.496,1953.64C464.25,1958.28 447.838,1965.65 437.615,1974.46C427.299,1983.35 420.724,1995.15 423.132,2016.6C423.255,2017.69 423.287,2018.67 423.443,2020.41C423.99,2020.61 424.442,2020.78 424.443,2020.79C424.862,2021.72 425.661,2022.56 425.692,2023.58C425.721,2024.56 425.294,2025.44 424.963,2025.97ZM423.91,2025.48C424.122,2025.59 424.365,2025.7 424.751,2025.89L424.948,2025.97C425.007,2025.65 424.525,2025.6 423.924,2025.4C423.92,2025.42 423.915,2025.45 423.91,2025.48ZM424.935,2026.02C424.71,2026.37 424.54,2026.56 424.608,2026.48C424.792,2026.29 424.895,2026.13 424.935,2026.02Z"/>
        </g>
        <path d="M475.799,2213.8C475.34,2214.21 474.722,2214.85 474.023,2215.83C472.105,2218.51 472.24,2218.6 472.036,2218.8C470.268,2220.54 468.437,2222.21 466.669,2223.95C465.377,2223.14 465.166,2223.44 464.115,2222.34C463.779,2221.99 462.229,2220.37 460.889,2217.2C459.141,2213.06 459.134,2209.99 459.15,2209.02C459.228,2204.1 461.399,2200.97 462.924,2199.14C462.931,2199.13 464.072,2197.84 465.854,2196.64C466.438,2196.25 468.611,2194.68 473.092,2194.2C474.015,2194.1 477.06,2194.19 479.348,2194.88C483.004,2195.98 486.131,2197.95 487.188,2198.62C487.519,2198.83 490.939,2201.24 493.326,2203.62C494.343,2204.63 494.323,2204.65 494.419,2204.73C494.472,2204.77 494.549,2204.78 494.603,2204.82C495.15,2205.25 495.775,2205.6 496.221,2206.13C496.425,2206.37 497.601,2207.77 497.425,2209.91C497.243,2212.12 495.796,2213.33 495.546,2213.54C493.902,2214.92 492.078,2214.77 491.761,2214.75C491.07,2214.69 490.424,2214.38 489.76,2214.18C489.705,2214.17 489.662,2214.12 489.606,2214.1C489.531,2214.09 486.097,2213.72 485.792,2213.68C484.585,2213.55 480.416,2213.21 478.237,2213.52C477.955,2213.56 477.65,2213.62 477.357,2213.7C477.043,2213.78 476.743,2213.87 476.503,2213.98C476.572,2214.12 476.641,2214.26 476.709,2214.4C476.773,2214.53 476.746,2214.48 476.488,2213.98C476.225,2214.1 476.036,2214.22 475.981,2214.33C475.945,2214.41 475.934,2214.39 475.883,2214.46L475.799,2213.8ZM477.396,2213.74C477.417,2213.76 477.416,2213.76 477.396,2213.74Z"/>
    </g>
</svg>
