<?xml version="1.0" encoding="UTF-8" standalone="no"?>
<!DOCTYPE svg PUBLIC "-//W3C//DTD SVG 1.1//EN" "http://www.w3.org/Graphics/SVG/1.1/DTD/svg11.dtd">
<svg width="100%" height="100%" viewBox="0 0 897 804" version="1.1" xmlns="http://www.w3.org/2000/svg" xmlns:xlink="http://www.w3.org/1999/xlink" xml:space="preserve" xmlns:serif="http://www.serif.com/" style="fill-rule:evenodd;clip-rule:evenodd;stroke-linejoin:round;stroke-miterlimit:2;">
    <g transform="matrix(1,0,0,1,-1284.39,-392.322)">
        <path d="M1645.65,633.156C1645.4,633.035 1642.88,633.073 1642.88,633.054C1642.88,632.365 1644.21,632.681 1644.85,632.414C1649.93,630.273 1654.57,627.325 1659.39,624.683C1672.32,617.605 1685.06,620.076 1698.92,617.867C1723.58,613.935 1754.82,610.195 1779.75,614.253C1791.36,616.142 1802.3,624.312 1814.06,626.924C1841.25,632.967 1868.66,632.224 1896.22,634.655C1909.86,635.859 1959.13,629.784 1970.74,626.284C1984.99,621.985 2003.72,624.307 2018.31,625.552C2057.66,628.911 2069.81,642.511 2102.48,654.646C2115.49,659.478 2127.5,652.972 2139.77,661.965C2165.08,680.528 2154.28,741.448 2151.52,748.241C2149.18,754.021 2141.29,758.985 2140.41,765.167C2138.12,781.2 2127.52,831.343 2124.43,839.681C2117.69,857.88 2112.61,874.332 2104.41,891.699C2094.01,913.687 2074.01,935.032 2072.29,960.043C2070.63,984.269 2082.01,1005.88 2090.13,1027.93C2093.7,1037.62 2100.8,1043.89 2105,1053.36C2109.56,1063.6 2113.12,1071.05 2113.97,1083.88C2115.45,1106.51 2096.58,1137.43 2084.91,1155.05C2080.07,1162.34 2083.26,1167.38 2075.94,1172.68C2072.25,1175.35 2058.33,1177.96 2053.95,1178.89C2042.78,1181.26 2045.21,1172.16 2043.01,1163.98C2041.82,1159.52 2038.46,1155.22 2038.9,1150.48C2039.74,1141.34 2041.23,1129.98 2045.13,1121.9C2047.83,1116.3 2053.91,1105.65 2052.87,1099.16C2051.48,1090.49 2051.51,1087.91 2049.69,1079.3C2049.62,1078.96 2049.32,1075.87 2048.64,1075.87C2042.19,1075.87 2031.3,1100.61 2029.15,1105.01C2016.74,1130.45 1995.77,1167.11 1964.1,1169.33C1957.8,1169.77 1944.72,1170.16 1939.54,1165.71C1928.98,1156.67 1946.47,1140.53 1952.16,1133.6C1972.2,1109.24 1991.22,1073.87 1997.27,1042.52C2000.24,1027.12 1995.85,1007.48 1983.96,996.502C1978.74,991.683 1971.98,988.611 1967.08,983.373C1959.88,975.675 1953.35,966.83 1946.22,958.945C1930.55,941.631 1935.36,914.866 1920.97,900.116C1912.19,891.118 1899.81,907.684 1888.24,906.095C1879.55,904.903 1861.89,905.055 1853.12,904.549C1832.35,903.351 1774.87,903.401 1768.14,905.235C1743.03,912.083 1744.16,941.075 1735.3,964.282C1721.23,1001.09 1737.55,1080.79 1741.43,1095.03C1744.92,1107.82 1781.57,1165.73 1745.81,1164.16C1735.87,1163.72 1734.14,1165.23 1725.74,1165.56C1720.57,1165.77 1723.57,1156.46 1712.4,1158.39C1702.81,1160.05 1706.01,1122.52 1703.01,1112.02C1699.93,1101.24 1682.02,1043.61 1676.59,1024.5C1671.68,1007.18 1662.57,992.301 1661.54,973.764C1659.54,937.646 1644.24,973.6 1644.69,985.825C1646.11,1024.16 1654.09,1025.85 1658.07,1064.2C1660.38,1086.49 1664.36,1105.16 1675.13,1131.13C1678.98,1140.42 1686.66,1161.25 1678.02,1166.49C1675.33,1168.12 1659.29,1171.73 1656.28,1172.03C1650.55,1172.6 1644.77,1173.56 1639.22,1171.39C1601.34,1156.59 1635.61,1120.23 1617.26,1085.2C1605.3,1062.37 1590.49,1045.25 1586.52,1018.87C1583.14,996.397 1589.95,977.981 1593.2,956.429C1595.98,937.991 1593.55,920.158 1593.84,901.763C1594.01,891.053 1597.9,880.673 1597,869.924C1594.72,842.947 1581.26,849.685 1572.29,832.596C1567.1,822.704 1569.43,809.615 1571.84,799.339C1578.24,772.026 1593.8,746.743 1607.11,722.349C1614.84,708.178 1620.11,692.942 1627.23,678.48" style="fill:rgb(152,133,112);"/>
        <path d="M2052.87,633.097C2060.37,639.315 2094.49,655.732 2104.76,658.043C2120.2,661.517 2134.69,648.797 2146.56,669.023C2157.49,687.651 2166.57,717.477 2158.18,739.423C2153.84,750.764 2140.85,754.026 2138.39,765.827C2136.37,775.503 2139.06,785.807 2138.09,795.562C2137.51,801.321 2118.71,841.741 2113.2,847.258C2111.42,849.031 2110.53,842.97 2108.8,841.149C2104.57,836.684 2099.98,832.574 2095.63,828.225C2075.9,808.498 2061.83,785.512 2057.06,757.8C2052.9,733.672 2056.17,707.127 2059.99,683.083C2062.86,664.998 2057.55,651.318 2052.87,633.097Z" style="fill:rgb(233,219,204);"/>
        <path d="M1657.68,626.375C1654.53,630.019 1576.84,605.649 1580.51,602.534C1605.09,581.7 1613.28,531.333 1599.62,524.648C1597.38,523.548 1580.28,527.043 1563.91,538.49C1543.02,553.096 1523.61,576.631 1519.33,576.329C1426.12,569.767 1423.93,628.584 1369.76,660.591C1350.76,671.818 1318.08,674.956 1304.99,693.66C1287.89,718.081 1299.08,727.463 1317.57,741.893C1327.08,749.318 1344.15,760.601 1356.28,763.936C1361.66,765.416 1420.31,765.554 1429.1,765.554C1442.22,765.554 1479.34,741.856 1491.76,739.544C1496.5,738.663 1502.47,766.81 1503.61,771.833C1508.31,792.506 1528.4,830.425 1540.64,847.672C1566.53,884.15 1603.17,862.448 1603.67,853.502C1604.76,833.93 1590.25,814.624 1598.84,796.32C1613.51,765.068 1664.59,662.747 1655.14,632.022" style="fill:rgb(94,76,57);"/>
        <path d="M1626.33,1137.16C1626.37,1137.57 1620.96,1158.99 1624.29,1164.59C1626.43,1168.16 1670.23,1168.57 1676.65,1164.59C1685.41,1159.15 1669.72,1136.95 1667.23,1136.43C1652.25,1133.32 1628.97,1137.09 1626.33,1137.16Z" style="fill:rgb(73,57,40);"/>
        <g transform="matrix(1,0,0,1,84.542,-2.58276)">
            <path d="M1624.05,1138.8C1624.09,1139.22 1614.69,1155.51 1624.29,1164.59C1627.32,1167.45 1670.23,1168.57 1676.65,1164.59C1685.41,1159.15 1675.83,1139.53 1673.39,1138.8C1652.42,1132.51 1630.32,1132.77 1624.05,1138.8Z" style="fill:rgb(73,57,40);"/>
        </g>
        <g transform="matrix(1,0,0,1,310.335,-2.58276)">
            <path d="M1644.87,1132.39C1644.92,1132.8 1614.69,1155.51 1624.29,1164.59C1627.32,1167.45 1670.23,1168.57 1676.65,1164.59C1685.41,1159.15 1695.66,1144.46 1693.17,1143.94C1678.2,1140.83 1665.38,1131.14 1644.87,1132.39Z" style="fill:rgb(73,57,40);"/>
        </g>
        <g transform="matrix(1,0,0,1,409.241,7.90615)">
            <path d="M1631.87,1136.27C1631.91,1136.69 1614.69,1155.51 1624.29,1164.59C1627.32,1167.45 1664.77,1167.27 1671.18,1163.29C1679.94,1157.86 1680.33,1141.72 1677.84,1141.2C1662.86,1138.09 1634.51,1136.2 1631.87,1136.27Z" style="fill:rgb(73,57,40);"/>
        </g>
        <g transform="matrix(0.948389,0,0,0.954806,1098.48,-1335.9)">
            <path d="M411.542,2179.08C403.668,2185.32 391.465,2197.34 384.565,2200.58C372.939,2206.04 338.367,2202.83 313.96,2202.13C302.484,2201.81 302.498,2202.38 288.621,2203.18C265.407,2204.53 252.042,2203.45 236.932,2191.59C236.182,2191 232.936,2188.45 227.968,2183.73C218.269,2174.52 199.371,2146 218.952,2118.04C220.062,2116.46 225.529,2108.8 233.83,2102.74C254.247,2087.85 279.625,2084.21 306.408,2064.44C323.996,2051.46 334.983,2031.88 351.393,2015.68C354.515,2012.6 366.061,2001.47 411.825,1994.9C427.887,1992.59 440.486,1992 442.876,1991.88C443.187,1991.87 450.049,1992.59 450.089,1992.62C451.057,1993.42 452.861,1995 452.891,1995.02C453.845,1995.51 454.99,1995.73 455.75,1996.49C455.911,1996.65 457.31,1998.04 456.943,1999.06C456.547,2000.16 456.362,2001.36 455.75,2002.36C455.49,2002.78 454.941,2002.99 454.458,2003.11C453.002,2003.48 452.975,2003 452.884,2003.08C451.867,2004.05 451.866,2004.04 450.867,2005.02C450.695,2005.19 450.561,2005.41 450.35,2005.53C450.343,2005.53 447.984,2005.93 444.352,2006.67C443.032,2006.94 442.746,2006.78 435.794,2007.4C404.706,2010.16 372.321,2017.46 362.842,2027.02C346.477,2043.52 335.408,2065.16 312.947,2080.59C284.38,2100.21 259.766,2103.77 242.325,2117.2C241.19,2118.08 236.416,2121.46 231.786,2127.33C228.914,2130.97 219.55,2143.64 229.561,2163.83C232.984,2170.73 236.57,2174.45 237.338,2175.24C248.77,2187.09 255.301,2189.98 264.037,2191.27C277.638,2193.28 298.394,2190.46 305.327,2190.24C322.321,2189.69 366.777,2193.46 378.415,2189.51C384.285,2187.52 402.19,2167.96 411.255,2163.84C418.716,2160.45 424.003,2165.13 424.203,2171.05C424.23,2171.87 423.936,2192.77 436.148,2224.69C451.519,2264.86 479.322,2302.11 509.446,2299.62C516.585,2299.03 521.219,2296.66 521.638,2296.57C522.406,2296.39 523.167,2296.1 523.955,2296.1C524.316,2296.1 526.396,2296.08 528.144,2297.77C528.41,2298.03 529.947,2299.51 529.968,2302.02C529.973,2302.57 530.001,2305.99 525.952,2307.68C480.504,2326.56 441.101,2276.7 422.067,2223.64C414.769,2203.3 412.352,2187.72 411.542,2179.08Z"/>
        </g>
        <g transform="matrix(0.948389,0,0,0.954806,1126.67,-1359.25)">
            <path d="M430.124,2032.89C429.804,2031.98 428.088,2032.1 427.768,2031.18C427.764,2031.17 428.241,2027.5 428.247,2027.49C428.956,2026.94 429.528,2026.13 430.381,2025.84C433.364,2024.81 433.442,2025.75 433.676,2025.63C434.261,2025.33 434.842,2025.02 435.426,2024.71C435.64,2024.6 435.829,2024.41 436.069,2024.38C436.074,2024.38 437.928,2024.78 437.945,2024.79C438.627,2025.01 443.681,2027.35 444.176,2027.58C446.041,2028.44 447.385,2028.94 455.413,2033.52C485.989,2050.95 504.215,2066.67 557.482,2069.93C564.076,2070.33 572.455,2068.55 590.975,2062.64C613.416,2055.48 631.819,2049.22 647.985,2048.56C688.54,2046.91 716.9,2070.28 760.38,2078.19C764.966,2079.02 790.74,2083.56 823.875,2079.48C858.48,2075.22 881.842,2064.68 919.879,2066.92C929.993,2067.52 958.284,2068.95 989.667,2083.97C1031.33,2103.9 1048.31,2132.69 1048.47,2132.94C1054.17,2141.99 1055.76,2147.49 1058.14,2155.17C1069.2,2190.79 1070.59,2212.58 1071.33,2224.21C1076.55,2305.94 1027.62,2340.7 1010.71,2425.59C1010.25,2427.91 1007.86,2438.91 1006.24,2454.32C1003.14,2483.8 1041.63,2511.55 1044.15,2544.47C1046.61,2576.47 1027.86,2604.68 1016.99,2634.06C1016.81,2634.56 1012.95,2642.07 1010.12,2651.11C1009.57,2652.88 1009.53,2652.94 1007.98,2653.98C1007.96,2653.99 1004.74,2654.71 1004.73,2654.7C1003.83,2654.07 1002.64,2653.71 1002.04,2652.79C1000.76,2650.87 1001.02,2650.73 1001.27,2648.44C1002,2641.78 1003.32,2635.56 1004.54,2630.62C1004.73,2629.85 1005.03,2628.6 1007.91,2621.29C1017.95,2595.81 1032.39,2570.2 1029.7,2545.08C1027.28,2522.51 999.773,2498.56 992.42,2471C989.641,2460.59 990.596,2453.75 991.443,2446.41C993.22,2431.02 996.047,2415.55 1001.7,2397.1C1023.15,2327.1 1062.69,2294.15 1058.13,2222.45C1058.12,2222.26 1057.61,2215 1055.82,2204.75C1054.19,2195.44 1050.58,2177.89 1041.49,2152.9C1040.19,2149.33 1037.74,2144.34 1031.47,2135.89C1015.92,2114.91 980.524,2084.78 922.533,2079.89C899.739,2077.96 877.804,2082.79 864.509,2085.82C842.68,2090.79 814.239,2098.4 773.069,2095.33C720.548,2091.41 690.352,2065.84 653.28,2065.81C637.771,2065.8 622.342,2070.79 599.803,2077.79C574.271,2085.71 564.88,2087.05 556.335,2086.41C495.063,2081.78 475.817,2061.69 441.043,2042.15C439.688,2041.39 438.143,2040.28 431.954,2036.73C431.457,2036.44 431.525,2036.36 431.094,2035.99C430.576,2035.54 430.557,2035.55 430.545,2035.51C430.145,2034.24 430.523,2034.16 430.124,2032.89Z"/>
        </g>
        <g transform="matrix(0.948389,0,0,0.954806,1133.91,-1357.41)">
            <path d="M871.13,2270.4C872.555,2272.02 874.049,2273.58 875.475,2275.19C875.477,2275.19 876.006,2275.97 876.744,2277.03C876.829,2277.15 876.962,2277.25 876.998,2277.39C876.999,2277.4 877.048,2278.41 877.151,2280.02C877.414,2284.15 875.933,2315.98 891.29,2358.55C901.619,2387.18 915.556,2409.69 915.8,2410.1C919.852,2416.9 927.348,2427.74 930.278,2460.27C931.711,2476.18 931.822,2495.39 932.249,2497.8C933.276,2503.58 938.95,2509.73 939.929,2510.83C947.253,2519.09 960.069,2530.15 965.613,2537.1C980.778,2556.11 978.823,2566.84 972.232,2582.79C969.699,2588.92 969.631,2588.89 967.903,2594.2C963.351,2608.2 958.644,2617.81 957.007,2621.83C952.908,2631.9 949.729,2639.24 951.739,2642.03C953.222,2644.09 957.94,2645.96 958.209,2645.89C958.868,2645.72 959.462,2646.31 968.331,2644.52C970.316,2644.12 973.505,2643.43 973.513,2643.43C974.221,2643.33 979.837,2642.89 980.387,2642.85C987.137,2642.32 992.786,2642.11 998.179,2642.49C998.226,2642.5 1004.98,2643.5 1010.69,2646.52C1013.28,2647.89 1013.18,2648.08 1014.69,2650.58C1015.06,2651.19 1015.12,2651.96 1015.12,2652.67C1015.12,2652.69 1014.73,2654.68 1014.73,2654.68C1014.33,2655.2 1014.03,2655.81 1013.53,2656.24C1013,2656.7 1012.39,2657.17 1011.7,2657.31C1009.2,2657.84 1009.17,2657.97 1006.67,2657.49C1002.56,2656.7 997.786,2657.39 997.531,2657.39C995.249,2657.4 992.43,2656.99 979.039,2658.65C975.461,2659.1 975.467,2659.13 975.204,2659.13C963.175,2659.19 957.288,2658.89 953.019,2656.6C951.261,2655.66 939.563,2651.51 939.706,2639.98C939.805,2632.02 945.236,2622.46 948.062,2615.22C955.6,2595.93 955.622,2591.66 958.679,2582.94C962.192,2572.91 965.418,2565.88 962.501,2558.62C960.025,2552.46 954.411,2546.64 952.722,2544.6C943.942,2534.01 931.793,2523.38 924.138,2511.24C918.951,2503.01 919.187,2497.51 919.059,2494.9C917.936,2471.99 917.744,2439.17 906.082,2420.19C902.584,2414.5 894.16,2400.88 885.72,2381.83C880.817,2370.77 877.134,2359.4 876.49,2357.41C869.836,2336.87 864.156,2310.92 864.57,2280.53C864.57,2280.49 864.531,2280.49 864.811,2277.39C864.842,2277.03 864.893,2277.05 865.104,2276.76C865.249,2276.56 866.833,2274.4 866.936,2274.3C868.307,2272.97 869.759,2271.73 871.13,2270.4Z"/>
        </g>
        <g transform="matrix(0.948389,0,0,0.954806,1133.91,-1357.41)">
            <path d="M569.1,2636.31C567.672,2630.15 562.13,2618.66 560.582,2611.06C558.347,2600.09 558.424,2600.08 556.105,2589.13C547.836,2550.1 548.917,2548.92 548.184,2543.34C545.712,2524.52 533.767,2496.33 530.875,2483.68C530.134,2480.43 528.983,2473.91 529.009,2468.13C529.155,2434.3 562.647,2388.15 582.545,2335.12C584.978,2328.64 593.212,2308.21 596.162,2284.28C596.332,2282.91 596.436,2282.93 596.819,2281.6C599.086,2273.73 600.019,2267.99 600.047,2267.94C600.773,2266.54 601.306,2265.03 602.23,2263.75C602.655,2263.16 603.339,2262.78 603.999,2262.47C604.017,2262.46 605.962,2262 605.97,2262.01C606.625,2262.16 607.325,2262.19 607.933,2262.48C611.192,2264.01 611.844,2267.89 611.94,2268.46C613.382,2277.04 613.774,2284.81 613.8,2285.25C613.802,2285.28 613.052,2295.16 609.827,2309.14C604.712,2331.31 596.857,2349.26 596.201,2350.82C575.381,2400.4 544.221,2444.96 545.767,2470.8C546.284,2479.44 548.362,2486.03 549.432,2489.74C555.165,2509.64 561.951,2529.2 562.626,2546.7C562.958,2555.28 567.552,2580.96 569.419,2591.31C569.461,2591.54 572.79,2608.5 573.175,2609.96C575.929,2620.41 583.988,2634.15 581.37,2642.29C580.135,2646.14 577.474,2647.19 576.972,2647.39C573.809,2648.64 556.318,2650.17 547.901,2650.69C520.851,2652.39 516.249,2649.77 514.01,2648.14C511.397,2646.25 510.192,2643.21 510.984,2640.12C513.584,2629.96 513.608,2619.2 512.276,2600.63C511.362,2587.89 511.095,2574.45 498.704,2542.09C496.858,2537.27 491.659,2524.17 490.491,2521.8C485.109,2510.9 471.091,2498.14 468.559,2484.33C464.62,2462.84 472.076,2442.34 473.483,2422.75C475.527,2394.29 478.14,2372.31 479.853,2346.37C480.363,2338.65 481.404,2329.31 481.806,2308.94C481.82,2308.25 481.74,2307.95 482.868,2305.48C483.01,2305.17 484.223,2302.53 484.357,2302.39C484.359,2302.38 484.388,2302.39 484.44,2302.39C484.445,2300.1 486.166,2299.09 486.446,2298.93C488.753,2297.57 492.069,2298.76 492.588,2301.91C492.635,2302.19 492.623,2303.25 493.112,2307.07C493.132,2307.22 493.295,2308.5 493.444,2308.95C493.46,2309 493.473,2309.05 493.481,2309.08L493.493,2309.08C493.494,2309.11 493.494,2309.14 493.494,2309.17C493.495,2309.18 493.495,2309.19 493.495,2309.2C493.585,2315.8 493.697,2326.88 492.812,2345.43C492.175,2358.79 488.132,2398.24 486.474,2420.06C485.584,2431.76 485.437,2432.09 482.595,2448.5C481.148,2456.86 478.78,2470.65 481.051,2482.29C483.109,2492.83 497.706,2505.96 503.017,2519C513.148,2543.89 522.505,2567.5 524.228,2592.93C525.3,2608.75 526.741,2624.31 524.032,2638.58C534.199,2639.79 558.228,2637.78 569.1,2636.31ZM491.032,2305.2L491.213,2305.4L491.449,2305.18C491.306,2305.19 491.167,2305.19 491.032,2305.2ZM492.412,2309.07C492.4,2309.07 492.389,2309.07 492.377,2309.07L492.412,2309.07Z"/>
        </g>
        <g transform="matrix(0.948389,0,0,0.954806,1133.91,-1357.41)">
            <path d="M867.123,2337.7C867.873,2337.26 867.598,2337.42 867.123,2337.7ZM579.311,2363.88C578.277,2363.89 577.172,2364.29 576.209,2363.92C576.192,2363.91 573.966,2361.8 573.966,2361.79C573.895,2358.25 573.356,2357.36 576.729,2356.23C577.748,2355.88 577.779,2355.97 577.852,2355.92C578.058,2355.76 577.93,2355.64 581.406,2352.12C581.558,2351.97 581.68,2351.77 581.867,2351.66C582.149,2351.5 585.96,2350.52 586.317,2350.42C586.993,2350.25 586.989,2350.21 587.69,2350.22C596.453,2350.28 608.045,2351.28 613.251,2351.74C613.545,2351.77 622.047,2352.72 636.867,2354.71C653.291,2356.91 668.423,2359.08 672.889,2359.31C718.614,2361.75 793.169,2363.64 844.076,2345.69C846.184,2344.95 848.747,2344.47 854.73,2342.44C860.159,2340.6 864.989,2338.84 865.928,2338.38C866,2338.34 866.657,2337.97 867.123,2337.7C866.878,2337.84 868.656,2336.81 870.469,2336.57C871.002,2336.5 874.071,2336.1 876.964,2338.27C877.406,2338.61 879.951,2340.52 880.448,2344.21C880.929,2347.78 879.061,2350.24 878.736,2350.66C877.428,2352.38 877.326,2352.3 875.448,2353.37C873.656,2354.39 873.065,2355.06 868.411,2357.97C868.369,2358 865.285,2360.08 858.088,2363.59C857.644,2363.81 853.698,2365.73 852.493,2366.2C849.495,2367.36 843.798,2369.08 843.035,2369.31C820.348,2376.17 786.316,2382.46 731.01,2382.36C703.35,2382.3 672.285,2380.25 669.071,2379.91C659.407,2378.89 634.333,2374.78 612.695,2372C608.204,2371.42 596.317,2369.45 587.016,2368.79C586.142,2368.73 586.172,2368.62 585.355,2368.31C583.761,2367.73 582.515,2367.31 582.514,2367.31C582.3,2367.07 582.334,2367.04 579.982,2364.23C579.894,2364.13 579.772,2364.05 579.719,2363.92C579.482,2363.35 579.6,2363.31 579.362,2362.74L579.603,2363.8C579.495,2363.83 579.396,2363.85 579.291,2363.89C579.295,2363.88 579.308,2363.88 579.311,2363.88Z"/>
        </g>
        <g transform="matrix(0.948389,0,0,0.954806,1133.91,-1357.41)">
            <path d="M656.815,2380.63C657.384,2381.02 657.852,2381.34 657.857,2381.37C657.891,2381.57 657.694,2382.73 657.348,2385.56C657.318,2385.8 657.336,2386.04 657.262,2386.27C657.261,2386.27 652.453,2395.91 647.144,2409.13C645.468,2413.3 639.777,2427.46 636.406,2441.97C634.378,2450.7 634.737,2453.86 634.662,2459.57C634.328,2484.98 631.834,2501.03 636.499,2526.89C639.725,2544.76 667.206,2613.8 669.728,2625.53C672.294,2637.47 666.342,2646.96 650.66,2648.18C642.394,2648.82 634.308,2647.5 625.457,2646.19C617.228,2644.98 608.765,2643.39 605.728,2643.61C603.543,2643.77 598.07,2642.88 596.928,2635.69C596.005,2629.88 596.652,2620.76 590.864,2592.99C589.602,2586.94 586.683,2570.35 580.01,2544.24C573.103,2517.22 567.469,2503.41 564.799,2500.06C562.091,2496.66 547.744,2479.78 549.088,2435.58C549.471,2422.97 551.079,2412.82 551.383,2411.38C552.31,2407 553.152,2403.88 553.519,2402.55C553.636,2402.13 553.758,2401.69 556.112,2397.67C556.801,2396.5 557.077,2396.08 557.244,2395.79C557.697,2395 558.012,2394.12 558.607,2393.43C558.878,2393.11 560.451,2391.29 563.234,2391.03C563.662,2390.98 566.107,2390.75 568.369,2392.62C568.69,2392.89 570.559,2394.44 570.787,2397.22C570.819,2397.61 570.328,2397.59 570.531,2402.15C570.622,2404.18 570.779,2405.98 570.778,2405.98C570.763,2406.11 570.192,2409.31 569.695,2414.25C569.527,2415.92 565.771,2437.52 568.799,2459.58C571.661,2480.43 578.689,2487.51 580.152,2489.55C582.003,2492.12 588.004,2500.76 597.69,2538.78C603.405,2561.2 607.676,2584.21 608.532,2589.87C611.706,2610.84 611.958,2621.23 612.169,2628.97C618.599,2630.05 626.241,2632.15 634.334,2633.33C634.918,2633.41 650.233,2635.89 655.298,2632.93C655.897,2632.57 656.815,2632.1 656.159,2628.61C654.328,2618.87 626.393,2549.25 622.788,2529.35C617.56,2500.49 620.678,2483.71 620.737,2454.16C620.761,2442.13 625.946,2427.79 627.068,2424.6C634.82,2402.57 646.466,2380.88 646.521,2380.82C647.146,2380.17 650.07,2377.59 651.254,2376.34C651.377,2376.21 651.972,2375.51 652.898,2375.1C653.567,2374.81 654.455,2374.74 654.491,2374.76C655.456,2375.29 656.587,2375.6 657.384,2376.35C657.406,2376.37 658.529,2378.5 658.628,2378.69C658.732,2378.89 658.582,2378.88 656.815,2380.63ZM655.127,2382.33C654.975,2382.49 654.818,2382.65 654.653,2382.82L655.191,2382.74L655.127,2382.33Z"/>
        </g>
        <g transform="matrix(0.948389,0,0,0.954806,1133.91,-1357.41)">
            <path d="M901.016,2499.11C899.316,2492.06 888.668,2471.31 887.107,2467C886.265,2464.68 880.557,2460.05 879.912,2459.52C870.403,2451.81 856.767,2444.04 850.708,2436.23C842.477,2425.62 838.974,2413.99 834.545,2398.07C831.608,2387.51 829.115,2377.92 824.292,2370.06C824.204,2369.92 823.866,2369.1 823.04,2367.6C822.998,2367.52 822.905,2367.46 822.913,2367.37C822.931,2367.18 823.076,2367.24 823.908,2365.15C823.971,2364.99 823.964,2364.79 824.089,2364.68C825.078,2363.76 826.168,2362.95 827.207,2362.09C828.247,2361.23 829.234,2360.3 830.326,2359.51C830.399,2359.45 833.423,2359.23 833.486,2359.25C833.639,2359.3 835.281,2361.22 835.432,2361.39C835.527,2361.5 836.198,2362.09 838.088,2365.28C848.441,2382.76 850.529,2405.78 861.208,2422.86C863.791,2426.99 865.4,2428.62 870.131,2432.31C881.302,2441.03 898.734,2451.12 902.233,2461.93C903.087,2464.56 915.639,2489.12 916.602,2497.68C916.738,2498.88 917.59,2500.68 910.402,2523.32C902.344,2548.71 886.84,2591.37 883.89,2596.97C879.877,2604.6 870.009,2614.03 861.732,2623.35C858.575,2626.9 852.69,2633.74 851.747,2637.67C853.116,2638.33 857.646,2639.74 870.85,2638.6C886.726,2637.23 889.134,2636.59 891.54,2635.94C891.577,2635.93 894.083,2635.07 896.521,2633.13C899.89,2630.46 901.975,2627.47 904.185,2625.07C907.591,2621.38 916.592,2610.91 917.656,2609.49C925.813,2598.63 933.948,2574.2 941.247,2558.16C942.498,2555.41 946.6,2548.54 946.799,2548.41C946.984,2548.29 949.147,2547.16 949.167,2547.14C949.883,2546.47 950.488,2545.65 951.318,2545.12C951.696,2544.88 953.89,2543.47 956.829,2544.01C957.285,2544.09 959.863,2544.56 961.663,2547.18C961.916,2547.55 963.406,2549.72 962.782,2552.66C962.469,2554.14 961.468,2555.53 961.605,2555.34C961.636,2555.29 961.589,2555.37 961.815,2557.12C961.828,2557.22 961.879,2557.32 961.853,2557.41C961.802,2557.6 960.735,2559.22 958.194,2565.35C957.612,2566.75 957.373,2566.65 950.565,2582.73C944.696,2596.59 937.817,2612.98 929.636,2622.11C924.254,2628.12 917.201,2636.03 914.971,2638.01C904.763,2647.1 899.84,2647.92 894.478,2649.33C891.103,2650.22 887.359,2650.96 872.096,2652.36C857.744,2653.69 842.605,2653.35 838.472,2642.99C833.22,2629.82 851.929,2613.67 865.025,2598.33C870.824,2591.53 871.19,2589.88 872.594,2586.25C878.555,2570.83 898.037,2515.24 901.016,2499.11Z"/>
        </g>
        <g transform="matrix(1,0,0,1,-26.8454,27.5627)">
            <path d="M1568.13,573.227C1567.89,573.136 1567.75,573.078 1567.73,573.053C1567.53,572.811 1566.56,567.024 1566.47,563.944C1566.37,560.606 1566.49,558.143 1566.54,557.293C1566.58,556.389 1567.78,551.023 1567.95,550.551C1567.99,550.443 1569.42,547.035 1571.26,543.711C1572.87,540.8 1580.56,526.214 1598.78,517.475C1600.68,516.567 1605.71,514.095 1618.28,511.127C1646.17,504.543 1662.19,508.661 1700.92,510.958C1705.49,511.229 1728.36,512.586 1758.18,512.289C1783.34,512.039 1829.3,476.041 1823.28,426.223C1822.89,422.982 1822.48,422.941 1823.26,419.769C1823.43,419.075 1824.42,415.072 1828.54,412.552C1829.17,412.168 1832.79,409.951 1837.64,411.141C1842.34,412.295 1844.48,415.812 1844.86,416.422C1846.3,418.788 1846.2,418.861 1846.6,421.602C1847.56,428.113 1853.27,463.117 1825.65,498.57C1806.5,523.159 1779.4,537.208 1758.36,537.246C1676.79,537.395 1657.67,528.259 1629.06,533.108C1625.21,533.761 1616.17,535.617 1610.82,537.698C1606.38,539.425 1595.44,544.139 1587.94,558.923C1587.35,560.091 1587.19,559.99 1585.72,562.152C1585.05,563.142 1585.12,563.189 1584.35,564.101C1582.3,566.522 1581.5,567.84 1580.26,569.419C1576.25,574.55 1575.21,577.043 1573.97,578.041C1571.89,579.723 1569.68,578.685 1569.6,578.599C1568.92,577.891 1567.95,577.355 1567.61,576.436C1567.6,576.417 1567.7,573.739 1567.7,573.505C1567.71,573.387 1567.75,573.352 1568.13,573.227ZM1572.63,571.668C1572.69,571.646 1572.76,571.623 1572.82,571.6L1572.69,571.546L1572.63,571.668Z"/>
        </g>
        <g transform="matrix(1,0,0,1,-26.8454,27.5627)">
            <path d="M1774.03,373.641C1774.75,373.602 1778.85,373.377 1782.48,376.641C1783.6,377.643 1784.55,378.878 1785.2,380.23C1786.38,382.705 1786.27,382.769 1786.4,385.512C1787.25,402.983 1788.44,447.537 1746.64,469.897C1724.41,481.789 1696.26,482.579 1690.41,482.816C1658.79,484.096 1627.48,479.471 1613.19,482.539C1611.24,482.959 1610.31,483.401 1609.94,483.591C1609.93,483.592 1605.95,486.42 1601.4,490.079C1578.92,508.131 1571.74,522.317 1569.36,526.619C1560.56,542.548 1560.69,555.779 1560.82,560.186C1560.98,565.855 1561.88,570.183 1561.89,570.369C1561.95,571.214 1562.16,572.064 1562.05,572.902C1561.69,575.495 1559.9,576.85 1559.59,577.084C1557.43,578.725 1555.15,578.401 1554.76,578.344C1552.17,577.976 1550.81,576.199 1550.58,575.891C1550.38,575.642 1549.84,574.932 1549.01,572.29C1540.72,545.781 1548.82,525.289 1552.55,516.938C1554.28,513.052 1557.13,508.366 1557.57,507.644C1562.39,499.707 1573.01,484.233 1596.61,465.854C1610.57,454.991 1640.8,459.172 1676.33,458.587C1683.34,458.472 1704.06,458.018 1720.77,453.285C1744.53,446.55 1755.6,433.258 1760.34,415.228C1762.98,405.182 1763.22,394.976 1763.03,387.989C1762.94,384.631 1762.5,384.545 1763.63,381.378C1763.87,380.712 1765.23,376.876 1769.54,374.807C1771.66,373.789 1771.68,373.77 1774.03,373.641Z"/>
        </g>
        <g transform="matrix(1,0,0,1,-26.9477,7.77823)">
            <path d="M1708.17,489.094L1708.16,489.091C1707.94,484.524 1707.63,482.547 1707.73,481.024C1708.17,474.044 1709.33,474.158 1709.97,469.227C1710.16,467.757 1710.72,463.295 1708.99,457.983C1708.95,457.868 1708.13,455.553 1707.66,454.475C1704.27,446.67 1696.87,438.861 1692.18,434.055C1688.34,430.119 1681.19,423.208 1681.08,423.05C1680.24,421.772 1679.13,420.632 1678.55,419.215C1678.28,418.567 1676.74,414.833 1678.55,410.451C1680.41,405.929 1684.26,404.342 1684.93,404.067C1689.31,402.264 1693.04,403.8 1693.69,404.067C1696.36,405.165 1696.27,405.352 1698.32,407.389C1710.42,419.453 1723.21,431.029 1728.86,447.356C1728.88,447.414 1730.97,452.782 1731.01,460.328C1731.02,463.053 1730.53,468.253 1728.71,473.227C1728.49,473.821 1727.3,477.058 1725.35,480.386C1725.2,480.626 1725.21,480.626 1725.01,480.815C1724.32,481.464 1723.39,484.273 1723.1,484.875C1720.78,489.689 1718.76,495.255 1715.07,497.784C1712.27,499.699 1709.46,499.195 1707.72,498.052C1707.5,497.911 1705.95,496.896 1705.53,495.691C1705.52,495.676 1705.67,492.759 1705.67,492.753C1706.4,492.097 1706.94,491.118 1707.86,490.791C1708.12,490.701 1708.33,490.661 1708.52,490.654C1708.25,490.432 1708.26,490.131 1708.17,489.094Z"/>
        </g>
        <path d="M2088.77,648.277C2088.78,648.163 2088.79,648.049 2088.81,647.936C2089.41,647.83 2092.08,647.358 2096.32,646.736C2096.83,646.661 2096.83,646.628 2099.92,646.613C2119.45,646.52 2127.74,648.932 2129.98,649.536C2141.42,652.618 2145.53,656.965 2149.2,661.783C2169.54,688.447 2176.93,754.697 2140.91,766.62C2139.7,767.018 2138.26,767.367 2138.23,767.368C2137.39,767.395 2136.54,767.584 2135.72,767.448C2133.15,767.027 2131.86,765.228 2131.63,764.917C2131.4,764.595 2130.06,762.736 2130.5,760.082C2130.56,759.703 2130.92,757.514 2133.03,755.998C2134.58,754.882 2134.72,755.17 2136.55,754.633C2156.62,748.764 2157.38,711.396 2147.92,685.158C2144.47,675.593 2140.37,669.382 2137,665.932C2133.5,662.346 2125.68,660.441 2118.31,659.136C2108.05,657.32 2097.18,657.113 2096.84,657.067C2096.13,656.972 2096.13,656.944 2087.97,655.672C2086.78,655.486 2086.3,655.099 2086.26,655.073C2086.12,654.976 2085.26,654.395 2084.81,653.471C2083.82,651.453 2085.05,649.558 2085.16,649.496C2086.05,649.025 2086.84,648.243 2087.83,648.086C2087.84,648.085 2088.26,648.171 2088.77,648.277ZM2091.29,653.423C2091.32,653.619 2091.35,653.823 2091.39,654.035L2091.62,653.605L2091.29,653.423Z"/>
        <g transform="matrix(1,0,0,1,-29.0866,8.59785)">
            <path d="M1647.27,490.585C1647.08,491.878 1646.3,493.045 1645.17,493.701C1643.3,494.788 1639.52,494.299 1637.81,492.395C1636.49,490.922 1636,488.472 1637.51,486.354C1637.75,486.011 1637.89,486.106 1639.26,483.564C1639.52,483.098 1642.3,478.264 1642.59,473.835C1642.8,470.67 1641.19,468.072 1638.93,464.761C1635.54,459.806 1626.68,450.38 1623.78,446.89C1617.36,439.189 1615.26,435.55 1614.08,433.789C1613.75,433.302 1611.88,430.509 1612.65,426.601C1612.89,425.399 1613.36,424.217 1614.04,423.196C1616.26,419.838 1619.63,419.17 1620.22,419.055C1624.05,418.296 1626.82,420.135 1627.3,420.454C1629.39,421.839 1629.18,422.072 1630.68,424.073C1634.79,429.534 1639.7,434.235 1646.84,441.943C1648.77,444.025 1655.18,450.902 1657.91,457.983C1659.18,461.278 1662.43,470.239 1656.6,480.501C1656.01,481.539 1653.96,485.285 1648.13,489.93C1648.05,489.996 1647.78,490.208 1647.27,490.585ZM1639.92,492.351C1639.91,492.364 1639.89,492.377 1639.87,492.389L1639.91,492.441C1639.92,492.411 1639.92,492.381 1639.92,492.351Z"/>
        </g>
        <g transform="matrix(1,0,0,1,-18.9535,-0.698328)">
            <path d="M1773.29,470.116C1773.29,470.116 1773.28,470.116 1773.28,470.116C1773.28,470.116 1773.28,470.116 1773.29,470.116ZM1773.29,470.116C1772.54,469.96 1771.74,469.944 1771.03,469.646C1770.71,469.509 1768.83,468.723 1767.92,466.532C1767.78,466.197 1766.97,464.27 1767.92,462.001C1768.83,459.804 1770.71,459.023 1771.03,458.887C1772.26,458.373 1772.29,458.404 1773.62,458.429C1774.5,458.445 1775.13,458.127 1777.27,458.127C1785.02,458.127 1790.81,462.98 1792.69,464.635C1794.02,465.808 1794.59,466.312 1796.56,468.977C1800.88,474.834 1803.41,481.768 1804.45,484.656C1804.89,485.891 1806.11,490.219 1806.26,490.895C1807.56,496.773 1807.99,501.38 1808.08,502.3C1808.25,504.131 1808.97,511.042 1808.07,518.435C1807.96,519.308 1807.44,523.56 1804.96,528.979C1804.46,530.067 1802.46,533.471 1800.07,535.858C1798,537.927 1796.01,539.336 1795.87,539.373C1795.69,539.421 1795.1,539.56 1790.72,542.813C1788.26,544.643 1788.07,545.154 1786.83,545.508C1786.63,545.567 1785.38,545.924 1784.17,545.574C1780.96,544.644 1780.04,541.073 1781.3,539.051C1781.55,538.655 1781.85,538.315 1782.16,538.026C1782.03,537.872 1782.01,537.722 1782.08,537.446C1782.15,537.184 1783.65,532.07 1784.53,530.364C1784.59,530.232 1785.3,529.325 1785.74,526.471C1785.99,524.882 1786.12,524.468 1786.19,523.03C1786.24,522.067 1786.56,521.116 1786.59,518.513C1786.59,518.376 1786.57,518.377 1786.49,516.795C1786.21,511.883 1784.57,502.8 1782.97,496.773C1782.77,496.022 1782.52,494.648 1781.82,492.086C1781.54,491.07 1781.19,489.367 1780.33,486.619C1779.97,485.477 1779.62,484.093 1778.62,481.562C1778.54,481.347 1778.31,480.607 1777.76,479.282C1777.44,478.519 1777.38,478.545 1777.15,477.75C1776.9,476.858 1776.64,476.132 1776.59,475.993C1776.32,475.24 1775.49,472.123 1774.17,470.702C1774.12,470.651 1773.72,470.217 1773.53,470.121C1773.53,470.117 1773.35,470.116 1773.29,470.116Z"/>
        </g>
        <g transform="matrix(1,0,0,1,-19.2052,3.04588)">
            <path d="M1726.65,544.793C1727.59,541.29 1728.07,540.99 1730.07,537.561C1732.31,533.71 1738.12,523.892 1739.14,511.154C1739.43,507.559 1739.29,502.351 1738.2,498.085C1735.25,486.426 1727.5,480.486 1720.8,477.084C1720.27,476.817 1717.24,475.281 1716,471.499C1715.61,470.33 1715.44,469.063 1715.53,467.834C1715.82,463.795 1718.43,461.546 1718.89,461.156C1721.86,458.6 1725.2,458.84 1725.78,458.882C1728.23,459.058 1728.21,459.226 1730.38,460.357C1747.16,469.085 1757.62,484.495 1757.67,504.255C1757.68,507.162 1757.13,514.072 1754.84,521.07C1750.85,533.242 1744.73,540.927 1739.16,547.634L1739.11,547.602C1737.95,549.495 1737.08,553.891 1733.16,555.276C1731.59,555.834 1728.03,556.229 1725.59,552.596C1724.22,550.569 1724.64,548.48 1724.71,548.123C1724.86,547.376 1725.15,546.641 1725.58,546.007C1725.91,545.514 1726.27,545.115 1726.65,544.793ZM1735.41,545.948C1735.44,545.962 1735.47,545.975 1735.5,545.988L1735.45,545.917L1735.41,545.948Z"/>
        </g>
        <g transform="matrix(1.07022,0,0,1,-142.612,10.4042)">
            <path d="M1656.84,476.056C1656.37,475.889 1654.94,475.341 1653.83,474.423C1653.4,474.074 1650.97,472.062 1650.48,468.237C1650.41,467.653 1649.99,464.289 1652.26,461.127C1654.46,458.064 1657.51,457.624 1658.04,457.548C1660.01,457.264 1660.03,457.331 1661.95,457.894C1664.02,458.5 1675.77,460.165 1684.12,473.073C1684.72,474.001 1686.53,477.211 1687.74,480.917C1694.12,500.454 1685.81,520.207 1685.61,520.709C1683.79,525.279 1682.62,527.242 1680.95,529.822C1680.39,530.691 1679.56,531.879 1679.52,531.919C1679.33,532.153 1677.32,534.088 1676.92,534.41C1676.2,535.003 1674.63,535.974 1673.93,536.567C1673.31,537.096 1672.47,537.469 1669.11,538.702C1669.03,538.729 1668.36,538.976 1668.17,539.011C1668.09,539.025 1668.05,539.02 1667.87,538.887C1667.76,539.127 1667.61,539.348 1667.43,539.533C1665.68,541.26 1663.82,540.395 1663.53,540.26C1662.07,539.582 1661.22,537.92 1661.36,536.318C1661.49,534.867 1661.87,534.997 1662.9,532.163C1663.01,531.881 1663.86,529.544 1664.16,528.629C1664.48,527.639 1664.42,527.625 1664.44,527.56L1666.14,529.188C1665.63,528.487 1664.85,528.047 1664.34,527.346C1664.31,527.312 1664.4,527.302 1664.73,525.078C1664.75,524.946 1664.92,524.397 1665.25,522.645C1665.32,522.264 1665.93,521.035 1666.74,518.267C1666.87,517.83 1668.04,514.587 1669,509.673C1670.84,500.17 1669.25,493.533 1668.93,492.178C1668.77,491.522 1668.5,490.143 1667.43,487.49C1667.16,486.808 1667.15,486.814 1666.07,484.633C1665.06,482.597 1662.97,479.541 1659.49,477.396C1657.73,476.307 1656.85,476.043 1656.84,476.056ZM1665.46,533.262L1665.51,532.932L1665.12,532.875C1665.24,533.008 1665.35,533.138 1665.46,533.262ZM1656.84,476.056C1656.98,476.106 1657.03,476.122 1656.97,476.104C1656.88,476.077 1656.84,476.059 1656.84,476.056Z"/>
        </g>
        <path d="M1541.5,571.155C1540.33,573.62 1538.74,579.639 1538.5,580.435C1537.78,582.844 1537.13,585.232 1537.13,585.232C1535.48,589.415 1535.4,589.38 1533.59,593.494C1531.55,598.115 1531.5,598.091 1529.51,602.728C1529.49,602.767 1529.5,602.767 1529.42,603.252L1525.59,602.916L1525.77,601.941L1522.12,601.228L1529.05,604.61C1528.75,604.948 1528.55,605.358 1528.26,605.696C1528.01,605.979 1526.74,606.918 1525.18,606.755C1523.32,606.559 1521.52,604.851 1521.75,602.477C1521.82,601.811 1521.85,601.815 1521.85,601.757C1521.84,601.512 1521.58,599.805 1520.96,592.88C1520.88,591.968 1520.57,586.788 1520.56,586.444C1520.56,585.987 1520.58,582.02 1520.59,581.891C1520.62,581.577 1521.35,576.693 1521.54,575.709C1521.61,575.359 1522.75,569.826 1523.85,566.597C1525.88,560.684 1527.72,559.315 1529.98,556.943C1530.26,556.646 1530.27,556.657 1533.58,553.306C1535.42,551.455 1543,544.196 1549.54,539.592C1553.01,537.145 1564.52,529.667 1571.38,526.586C1579.72,522.843 1588.12,521.349 1600.61,522.046C1602.73,522.164 1602.98,521.745 1604.5,523.231C1604.51,523.243 1605.73,526.111 1605.73,526.119C1605.34,527.085 1605.29,528.27 1604.56,529.014C1603.25,530.357 1603.09,530.232 1601.21,530.254C1600.98,530.256 1595.39,530.732 1590.58,531.877C1581.52,534.035 1576.55,537.151 1564.02,547.763C1554.17,556.097 1550.79,561.13 1546.61,565.705C1543.12,569.517 1542.77,569.843 1541.5,571.155Z"/>
        <path d="M1563.96,580.453C1563.95,580.469 1563.96,580.487 1563.96,580.509C1564.07,581.465 1564.6,582.462 1564.3,583.377C1564.29,583.392 1562.26,585.683 1562.25,585.684C1561.32,585.738 1560.34,586.13 1559.45,585.839C1556.62,584.917 1557.31,584.007 1557.07,583.963C1556.51,583.861 1556.53,584.046 1554.7,584.825C1554.34,584.98 1554.29,585.058 1553.99,584.795C1552.99,583.901 1552.03,583.256 1551.85,583.135C1551.4,582.83 1549.04,574.002 1539.65,567.966C1537.61,566.651 1537.17,566.285 1532.17,563.896C1514.59,555.481 1487.75,557.17 1483.16,557.27C1451.08,557.962 1435.49,549.004 1428.74,544.119C1425.93,542.088 1423.33,539.274 1422.9,538.811C1412.96,528.051 1412.33,515.591 1412.19,511.923C1412.1,509.423 1412.24,509.423 1412.16,506.92C1412.15,506.481 1412.08,503.964 1414.13,501.794C1414.76,501.129 1415.53,500.571 1416.37,500.196C1419.12,498.964 1421.51,499.889 1421.92,500.049C1424.64,501.099 1425.66,503.367 1425.84,503.761C1426.5,505.231 1426.43,505.263 1426.49,506.874C1426.52,507.649 1427.49,515.587 1432.66,521.777C1435.74,525.458 1439.46,527.638 1440.83,528.469C1456.76,538.132 1482.66,535.601 1486.81,535.399C1510.14,534.266 1526.59,537.133 1539.16,542.482C1542.09,543.728 1544.81,545.013 1548.86,547.896C1550.76,549.246 1554.94,552.284 1559.38,558.197C1565.22,565.965 1567.06,574.472 1567.69,577.236C1567.76,577.52 1567.84,577.52 1567.76,577.694C1567.71,577.796 1567.33,578.568 1567.02,578.905C1566.79,579.152 1566.7,579.171 1563.96,580.453ZM1563.96,580.441L1564.87,580.011C1564.18,580.316 1564,580.359 1563.96,580.441Z"/>
        <g transform="matrix(1,0,0,1,-12.6488,-15.5203)">
            <path d="M1552.68,541.562C1553.63,541.553 1554.56,542.054 1555.38,542.536C1555.79,542.779 1558.18,544.181 1558.98,547.345C1559.76,550.414 1558.39,552.737 1558.15,553.14C1557.86,553.633 1556.3,556.283 1552.25,557.172C1547.78,558.155 1544.1,555.101 1543.55,554.638C1538.3,550.285 1533.5,540.047 1524.24,532.129C1524.22,532.105 1521.99,530.357 1519.52,529.071C1512.84,525.597 1508.42,526.472 1505.17,526.58C1497.94,526.819 1494.6,526.786 1489.3,526.539C1465.47,525.434 1439.57,519.554 1437.03,480.363C1436.59,473.67 1436.91,467.534 1437.05,464.905C1437.09,464.196 1437.31,460.117 1440.94,456.921C1442.05,455.936 1443.38,455.143 1444.79,454.66C1445.48,454.424 1449.44,453.064 1453.86,455.226C1454.49,455.535 1458.14,457.318 1459.66,461.795C1460.66,464.736 1460.36,464.805 1460.16,467.907C1458.56,493.665 1465.45,498.338 1470.25,500.741C1478.34,504.789 1492.36,505.27 1499.7,505.875C1508.19,506.575 1513.39,506.473 1520.75,509.547C1528.26,512.685 1533.18,517.347 1536.83,520.966C1544.35,528.432 1549.26,537.18 1552.68,541.562ZM1546.88,542.997C1546.87,542.984 1546.86,542.971 1546.85,542.958L1546.79,543.003C1546.82,543.001 1546.85,542.999 1546.88,542.997Z"/>
        </g>
        <path d="M1600.83,526.998C1599.8,524.561 1599.65,524.516 1599.81,524.357C1600.51,523.675 1601.01,522.678 1601.92,522.317C1604.14,521.436 1605.71,522.82 1605.96,523.036C1607.21,524.14 1607.79,525.36 1609.03,537.245C1609.76,544.18 1611.73,566.275 1611.44,569.677C1610.92,575.915 1608.72,589.961 1590.68,601.397C1587.85,603.195 1586.82,603.675 1586.46,603.84C1584,604.985 1583.29,605.27 1579.93,606.285C1578.66,606.668 1572.31,607.997 1570.14,608.218C1565.95,608.644 1561.67,608.942 1561.62,608.949C1561.35,608.988 1561.38,609.088 1561.12,609.124C1560.49,609.209 1559.87,609.414 1559.24,609.376C1558.95,609.358 1557.28,609.257 1555.97,607.796C1554.62,606.287 1554.73,604.564 1554.75,604.266C1554.87,602.309 1556.11,601.194 1556.33,601.001C1556.8,600.579 1557.4,600.33 1557.96,600.03C1558.11,599.947 1558.3,599.945 1558.45,599.858C1558.46,599.853 1561.3,597.93 1563.67,596.259C1565.28,595.129 1565.24,595.09 1566.9,594.042C1570.54,591.73 1570.45,591.598 1573.58,589.61C1574.9,588.77 1574.86,588.713 1576.23,587.945C1577.54,587.207 1577.5,587.142 1578.84,586.469C1580.68,585.549 1585.12,583.135 1588.3,580.516C1594.35,575.547 1595.71,571.332 1596.6,567.906L1596.61,567.908C1597.01,565.262 1598.39,551.114 1599.18,540.106C1599.88,530.383 1599.76,528.168 1599.76,527.279L1600.5,527.094C1600.61,527.062 1600.72,527.03 1600.83,526.998ZM1601.73,529.189L1601.65,529.344L1601.82,529.429C1601.79,529.348 1601.76,529.267 1601.73,529.189Z"/>
        <g transform="matrix(0.99874,-0.0501743,0.0501743,0.99874,876.607,-1541.12)">
            <path d="M479.37,2200.95C479.5,2200.94 489.761,2199.18 496.49,2205.55C504.189,2212.84 501.994,2226.86 486.038,2229.65C479.017,2230.88 474.531,2229.74 473.564,2229.5C458.677,2225.74 458.451,2206.91 475.18,2201.85C477.341,2201.19 479.171,2200.99 479.37,2200.95Z"/>
        </g>
    </g>
</svg>
