<?xml version="1.0" encoding="UTF-8" standalone="no"?>
<!DOCTYPE svg PUBLIC "-//W3C//DTD SVG 1.1//EN" "http://www.w3.org/Graphics/SVG/1.1/DTD/svg11.dtd">
<svg width="100%" height="100%" viewBox="0 0 924 773" version="1.1" xmlns="http://www.w3.org/2000/svg" xmlns:xlink="http://www.w3.org/1999/xlink" xml:space="preserve" xmlns:serif="http://www.serif.com/" style="fill-rule:evenodd;clip-rule:evenodd;stroke-linejoin:round;stroke-miterlimit:2;">
    <g transform="matrix(1,0,0,1,-1263.42,-1428.95)">
        <g transform="matrix(0.989032,-0.147703,0.147703,0.989032,-278.027,234.9)">
            <path d="M1462.05,1780.56C1460.34,1781.62 1474,1790 1476.4,1794.01C1482.48,1804.14 1490.68,1820.43 1485.7,1831.24C1480.31,1842.91 1477.63,1910.3 1492.4,1915.35C1502.38,1918.76 1525.52,1884.17 1542.34,1862.8C1550.89,1851.94 1597.28,1857.11 1603.69,1841.08C1605.73,1835.98 1572.71,1818.02 1570.07,1814.5C1549.69,1787.32 1515.26,1762.36 1479.34,1769.01C1472.66,1770.25 1464.28,1773.43 1462.05,1780.56Z" style="fill:rgb(94,76,57);"/>
        </g>
        <g transform="matrix(1,0,0,1,1037.62,-580.482)">
            <path d="M637.521,2149.34C596.85,2146.28 567.914,2197.93 529.438,2198.83C509.25,2199.3 402.337,2210.83 396.537,2208.65C382.878,2203.52 340.51,2221.84 338.44,2237.55C336.398,2253.07 314.61,2293.72 301.689,2302.02C282.752,2314.2 229.613,2380.74 249.93,2406.16C273.301,2435.4 323.086,2436.8 386.136,2393.28C399.389,2384.13 416.727,2360.29 432.102,2359.72C442.847,2359.32 574.085,2417.59 578.272,2441.03C584.289,2474.73 571.931,2499.55 570.129,2531.98C568.977,2552.73 564.794,2588.67 574.433,2607.95C583.048,2625.18 594.742,2639.84 601.549,2658.17C609.976,2680.86 612.955,2703.66 612.955,2727.82C612.955,2730.24 611.373,2752.74 613.314,2754.29C620.889,2760.35 639.415,2748.02 648.608,2748.7C650.108,2748.81 664.172,2754.49 664.172,2751.03C664.172,2744.47 655.085,2706.96 650.76,2696.98C641.588,2675.81 646.602,2655.6 642.295,2634.06C637.525,2610.21 625.38,2614.24 628.817,2589.04C634.021,2550.88 667.201,2493.07 661.328,2513.32C652.554,2543.58 644.909,2550.11 650.473,2581.98C654.302,2603.91 670.6,2619.59 677.804,2640.09C681.939,2651.86 681.382,2666.49 682.539,2678.83C684.225,2696.81 685.097,2742.85 706.499,2750.49C713.36,2752.94 749.21,2754.16 751.62,2743.32C754.285,2731.32 722.557,2666.7 717.115,2649.06C710.76,2628.45 708.689,2586.48 718.738,2549.05C734.198,2491.47 762.047,2452.92 767.87,2452.74C800.216,2451.69 848.888,2459.37 880.525,2450.54C891.672,2447.43 904.283,2486.66 904.276,2486.66C904.15,2486.53 917.232,2529.49 927.659,2542.53C957.682,2580.06 982.251,2567.55 980.6,2615.41C980.317,2623.62 973.247,2654.21 970.27,2659.17C960.892,2674.8 954.419,2691.97 945.091,2707.52C939.931,2716.12 931.831,2721.25 927.014,2730.41C922.728,2738.55 913.522,2760.86 932.752,2759.53C940.991,2758.96 948.618,2750.92 956.282,2748.12C966.412,2744.42 976.894,2744.5 984.689,2736C992.498,2727.48 1025.91,2666.92 1033.83,2666.92C1045.28,2666.92 1038.35,2694.87 1036.41,2698.63C1030.71,2709.63 1018.35,2738.52 1018.35,2751.58C1018.35,2770.59 1058.22,2759.49 1070.42,2757.89C1082.44,2756.3 1081.28,2722.51 1086.62,2712.9C1135.14,2625.58 1048.45,2615.48 1071.7,2527.32C1077.25,2506.28 1092.81,2491.91 1100.83,2472.37C1114.03,2440.19 1119.22,2403.08 1123.86,2368.79C1126.26,2351 1127.02,2333.46 1123.49,2315.82C1122.06,2308.67 1112.94,2294.04 1115.65,2286.8C1119.28,2277.14 1068.03,2227.91 1069.11,2231.48C1069.21,2231.81 1009.84,2207.72 1002.99,2207.42C959.792,2205.53 850.416,2199.08 761.907,2183.07C706.577,2173.07 663.204,2151.27 637.521,2149.34Z" style="fill:rgb(100,64,24);"/>
        </g>
        <g>
            <path d="M1649.35,2138.87C1649.64,2164.17 1643.48,2173.75 1668.8,2176.33C1682.86,2177.76 1714.54,2187.6 1694.01,2139.05C1671.02,2136.48 1671.4,2137.22 1648.45,2138.76" style="fill:rgb(49,24,0);"/>
            <g transform="matrix(1,0,0,1,80.8873,-8.90641)">
                <path d="M1649.35,2138.87C1649.64,2164.17 1643.48,2173.75 1668.8,2176.33C1682.86,2177.76 1714.54,2187.6 1694.01,2139.05C1671.02,2136.48 1671.4,2137.22 1648.45,2138.76" style="fill:rgb(49,24,0);"/>
            </g>
            <g transform="matrix(1,0,0,1,417.437,0)">
                <path d="M1640.51,2148.82C1631.17,2164.99 1625.14,2175.94 1650.46,2178.53C1664.52,2179.96 1709.15,2195.45 1701.39,2148.82C1677.74,2139.04 1671.41,2135.82 1648.46,2137.36" style="fill:rgb(49,24,0);"/>
            </g>
            <g transform="matrix(1,0,0,1,316.246,0)">
                <path d="M1650.39,2148.82C1641.1,2173.81 1636.35,2175.52 1661.67,2178.1C1675.72,2179.53 1698.38,2179.03 1713.1,2148.82C1688.61,2142.35 1686.4,2135.82 1663.45,2137.36" style="fill:rgb(49,24,0);"/>
            </g>
        </g>
        <g transform="matrix(0.914243,-0.252195,0.253901,0.920429,539.895,-122.52)">
            <path d="M423.155,2010.56C421.621,2012.05 420.107,2013.57 418.573,2015.06C418.461,2015.17 416.422,2016.98 416.41,2016.98C416.059,2017.05 409.662,2017.77 409.545,2017.77C392.04,2017.17 374.197,2015.2 362.706,2026.87C346.028,2043.81 335.707,2064.26 313.706,2079.86C279.157,2104.37 258.707,2101.42 241.289,2123.54C239.19,2126.2 234.947,2131.6 229.607,2141.22C214.318,2168.77 224.129,2183.35 226.349,2186.65C232.648,2196.01 243.564,2201.53 256.462,2204.83C261.305,2206.07 267.816,2206.84 268.812,2206.96C307.171,2211.48 353.617,2200.08 378.929,2189.3C387.052,2185.84 403.162,2170.18 416.182,2170.41C419.082,2170.47 421.525,2171.03 427.162,2174.45C433.124,2178.06 452.452,2190.57 502.102,2246.03C510.054,2254.91 530.709,2278.42 549.06,2301.41C549.236,2301.63 551.253,2304.16 551.263,2304.18C551.616,2304.87 552.11,2305.52 552.32,2306.28C552.416,2306.62 552.971,2308.61 551.778,2310.73C550.546,2312.91 548.477,2313.48 548.118,2313.58C545.767,2314.22 543.952,2313.21 543.637,2313.04C542.949,2312.66 542.393,2312.07 541.834,2311.52C541.822,2311.51 539.43,2308.43 533.462,2301.23C504.785,2266.67 441.441,2194.91 416.507,2183.5C416.222,2183.37 414.885,2183.15 411.772,2184.37C403.069,2187.78 391.554,2197.75 383.844,2200.91C347.657,2215.78 292.986,2224.83 255.043,2216.44C246.705,2214.6 217.178,2208.55 208.486,2181.23C202.421,2162.17 210.536,2141.67 216.485,2130.55C217.703,2128.27 225.37,2115.01 234.516,2105.98C253.893,2086.83 274.544,2086.7 304.093,2066.31C323.679,2052.8 333.758,2033.54 351.112,2016.24C367.485,1999.92 388.406,2001.68 409.238,2002.79C410.769,2002.87 410.756,2002.95 412.26,2003.25C415.106,2003.81 416.638,2004.07 416.644,2004.08C416.832,2004.19 416.774,2004.25 418.608,2006.04C418.975,2006.4 418.97,2006.4 423.155,2010.56Z"/>
        </g>
        <g transform="matrix(0.948389,0,0,0.954806,1156.52,-351.443)">
            <path d="M303.982,2077.97C304.852,2077.29 305.358,2076.22 306.228,2075.55C306.6,2075.26 307.128,2075.26 307.589,2075.16C307.598,2075.16 311.878,2074.74 317.617,2074.1C321.157,2073.7 329.841,2073.27 344.851,2071.68C446.797,2060.89 469.345,2034.42 496.404,2017.44C514.153,2006.3 530.748,2001.28 556.326,2001.56C594.681,2002 633.053,2034.78 666.601,2039.61C666.61,2039.61 687.756,2042.43 719.777,2045.69C766.896,2050.49 807.712,2053.33 843.386,2056.07C859.538,2057.32 921.008,2060.2 958.306,2067.29C972.738,2070.03 992.42,2083.59 998.496,2087.84C1003.01,2090.99 1030.11,2111.64 1046.1,2132.66C1053.84,2142.81 1055.01,2147.82 1056.58,2152.74C1057.14,2154.5 1059.4,2161.59 1063.04,2174.95C1092.7,2284.05 1041.46,2319.99 1017.12,2400.39C1016.56,2402.24 1009.12,2424.82 1006.13,2454.3C1003.11,2484.18 1041.74,2511.42 1044.1,2544.95C1046.29,2576.04 1028.58,2603.66 1017.87,2631.68C1017.23,2633.36 1013.13,2641.13 1010.12,2651.11C1009.59,2652.89 1009.54,2652.95 1008,2653.98C1007.98,2653.99 1004.74,2654.7 1004.74,2654.7C1003.83,2654.06 1002.63,2653.71 1002.02,2652.79C1000.75,2650.87 1001.01,2650.72 1001.28,2648.44C1002.28,2640.07 1004.19,2632.54 1005.4,2628.05C1005.49,2627.72 1007.12,2623.01 1011.33,2612.99C1020.55,2591.12 1032.1,2567.88 1029.82,2545.36C1027,2517.6 987.43,2489.18 990.876,2452.83C994.571,2413.85 1004.48,2387.46 1008.62,2376.72C1035.74,2306.4 1076.28,2273.39 1049.33,2174.3C1048.14,2169.94 1042.95,2154.02 1041.55,2151.06C1035.81,2138.98 1013.74,2117.67 990.184,2101.14C989.305,2100.52 967.932,2084.48 955.358,2081.79C926.187,2075.55 877.847,2071.61 847.049,2069.13C833.121,2068.01 766.88,2064.46 712.957,2059.79C690.276,2057.83 666.627,2055.39 662.12,2054.68C625.648,2048.92 588.59,2018.88 556.202,2018.82C530.703,2018.78 517.849,2024.96 509.536,2029.67C483.554,2044.39 462.191,2070.75 376.145,2083.07C353.079,2086.37 331.763,2087.73 320.769,2088.36C319.847,2088.41 318.91,2088.46 309.23,2088.48C308.907,2088.48 308.581,2088.51 308.26,2088.48C308.245,2088.48 306.211,2088.12 306.209,2088.12C305.512,2087.5 304.977,2086.72 304.359,2086.03C304.179,2085.83 303.777,2086.51 301.406,2084.37C301.255,2084.23 300.041,2083.13 300.111,2082.17C300.175,2081.28 300.109,2080.37 300.308,2079.5C300.649,2078 300.965,2077.87 301.103,2077.81C302.49,2077.23 302.596,2078.55 303.982,2077.97Z"/>
        </g>
        <g transform="matrix(0.948389,0,0,0.954806,1156.52,-351.443)">
            <path d="M871.13,2270.4C872.555,2272.02 874.049,2273.58 875.475,2275.19C875.477,2275.19 876.006,2275.97 876.744,2277.03C876.829,2277.15 876.962,2277.25 876.998,2277.39C876.999,2277.4 877.048,2278.41 877.151,2280.02C877.414,2284.15 875.933,2315.98 891.29,2358.55C901.619,2387.18 915.556,2409.69 915.8,2410.1C919.852,2416.9 927.348,2427.74 930.278,2460.27C931.711,2476.18 931.822,2495.39 932.249,2497.8C933.276,2503.58 938.95,2509.73 939.929,2510.83C947.253,2519.09 960.069,2530.15 965.613,2537.1C980.778,2556.11 978.823,2566.84 972.232,2582.79C969.699,2588.92 969.631,2588.89 967.903,2594.2C963.351,2608.2 958.644,2617.81 957.007,2621.83C952.908,2631.9 949.729,2639.24 951.739,2642.03C953.222,2644.09 957.94,2645.96 958.209,2645.89C958.868,2645.72 959.462,2646.31 968.331,2644.52C970.316,2644.12 973.505,2643.43 973.513,2643.43C974.221,2643.33 979.837,2642.89 980.387,2642.85C987.137,2642.32 992.786,2642.11 998.179,2642.49C998.226,2642.5 1004.98,2643.5 1010.69,2646.52C1013.28,2647.89 1013.18,2648.08 1014.69,2650.58C1015.06,2651.19 1015.12,2651.96 1015.12,2652.67C1015.12,2652.69 1014.73,2654.68 1014.73,2654.68C1014.33,2655.2 1014.03,2655.81 1013.53,2656.24C1013,2656.7 1012.39,2657.17 1011.7,2657.31C1009.2,2657.84 1009.17,2657.97 1006.67,2657.49C1002.56,2656.7 997.786,2657.39 997.531,2657.39C995.249,2657.4 992.43,2656.99 979.039,2658.65C975.461,2659.1 975.467,2659.13 975.204,2659.13C963.175,2659.19 957.288,2658.89 953.019,2656.6C951.261,2655.66 939.563,2651.51 939.706,2639.98C939.805,2632.02 945.236,2622.46 948.062,2615.22C955.6,2595.93 955.622,2591.66 958.679,2582.94C962.192,2572.91 965.418,2565.88 962.501,2558.62C960.025,2552.46 954.411,2546.64 952.722,2544.6C943.942,2534.01 931.793,2523.38 924.138,2511.24C918.951,2503.01 919.187,2497.51 919.059,2494.9C917.936,2471.99 917.744,2439.17 906.082,2420.19C902.584,2414.5 894.16,2400.88 885.72,2381.83C880.817,2370.77 877.134,2359.4 876.49,2357.41C869.836,2336.87 864.156,2310.92 864.57,2280.53C864.57,2280.49 864.531,2280.49 864.811,2277.39C864.842,2277.03 864.893,2277.05 865.104,2276.76C865.249,2276.56 866.833,2274.4 866.936,2274.3C868.307,2272.97 869.759,2271.73 871.13,2270.4Z"/>
        </g>
        <g transform="matrix(0.948389,0,0,0.954806,1156.52,-351.443)">
            <path d="M569.1,2636.31C567.672,2630.15 562.13,2618.66 560.582,2611.06C558.347,2600.09 558.424,2600.08 556.105,2589.13C547.836,2550.1 548.917,2548.92 548.184,2543.34C545.712,2524.52 533.767,2496.33 530.875,2483.68C530.134,2480.43 528.983,2473.91 529.009,2468.13C529.155,2434.3 562.647,2388.15 582.545,2335.12C584.978,2328.64 593.212,2308.21 596.162,2284.28C596.332,2282.91 596.436,2282.93 596.819,2281.6C599.086,2273.73 600.019,2267.99 600.047,2267.94C600.773,2266.54 601.306,2265.03 602.23,2263.75C602.655,2263.16 603.339,2262.78 603.999,2262.47C604.017,2262.46 605.962,2262 605.97,2262.01C606.625,2262.16 607.325,2262.19 607.933,2262.48C611.192,2264.01 611.844,2267.89 611.94,2268.46C613.382,2277.04 613.774,2284.81 613.8,2285.25C613.802,2285.28 613.052,2295.16 609.827,2309.14C604.712,2331.31 596.857,2349.26 596.201,2350.82C575.381,2400.4 544.221,2444.96 545.767,2470.8C546.284,2479.44 548.362,2486.03 549.432,2489.74C555.165,2509.64 561.951,2529.2 562.626,2546.7C562.958,2555.28 567.552,2580.96 569.419,2591.31C569.461,2591.54 572.79,2608.5 573.175,2609.96C575.929,2620.41 583.988,2634.15 581.37,2642.29C580.135,2646.14 577.474,2647.19 576.972,2647.39C573.809,2648.64 556.318,2650.17 547.901,2650.69C520.851,2652.39 516.249,2649.77 514.01,2648.14C511.397,2646.25 510.192,2643.21 510.984,2640.12C513.584,2629.96 513.608,2619.2 512.276,2600.63C511.362,2587.89 511.095,2574.45 498.704,2542.09C496.858,2537.27 491.659,2524.17 490.491,2521.8C485.109,2510.9 471.091,2498.14 468.559,2484.33C464.62,2462.84 472.076,2442.34 473.483,2422.75C475.527,2394.29 478.14,2372.31 479.853,2346.37C480.363,2338.65 481.404,2329.31 481.806,2308.94C481.82,2308.25 481.74,2307.95 482.868,2305.48C483.01,2305.17 484.223,2302.53 484.357,2302.39C484.359,2302.38 484.388,2302.39 484.44,2302.39C484.445,2300.1 486.166,2299.09 486.446,2298.93C488.753,2297.57 492.069,2298.76 492.588,2301.91C492.635,2302.19 492.623,2303.25 493.112,2307.07C493.132,2307.22 493.295,2308.5 493.444,2308.95C493.46,2309 493.473,2309.05 493.481,2309.08L493.493,2309.08C493.494,2309.11 493.494,2309.14 493.494,2309.17C493.495,2309.18 493.495,2309.19 493.495,2309.2C493.585,2315.8 493.697,2326.88 492.812,2345.43C492.175,2358.79 488.132,2398.24 486.474,2420.06C485.584,2431.76 485.437,2432.09 482.595,2448.5C481.148,2456.86 478.78,2470.65 481.051,2482.29C483.109,2492.83 497.706,2505.96 503.017,2519C513.148,2543.89 522.505,2567.5 524.228,2592.93C525.3,2608.75 526.741,2624.31 524.032,2638.58C534.199,2639.79 558.228,2637.78 569.1,2636.31ZM491.032,2305.2L491.213,2305.4L491.449,2305.18C491.306,2305.19 491.167,2305.19 491.032,2305.2ZM492.412,2309.07C492.4,2309.07 492.389,2309.07 492.377,2309.07L492.412,2309.07Z"/>
        </g>
        <g transform="matrix(0.948389,0,0,-0.687288,1156.52,3499.84)">
            <path d="M579.387,2365.39C579.963,2366.34 580.515,2367.18 582.065,2369.76C582.185,2369.96 582.271,2370.21 582.424,2370.36C582.451,2370.38 583.384,2370.77 586.519,2372.33C586.841,2372.49 591.254,2372.46 609.284,2375.4C612.734,2375.96 612.75,2375.75 652.476,2381.65C669.186,2384.14 669.187,2384.14 685.984,2385.08C749.064,2388.61 806.379,2386.44 850.553,2371.01C850.554,2371.01 855.148,2368.91 860.575,2365.95C869.023,2361.34 871.499,2358.72 874.414,2357.06C876.393,2355.93 876.476,2356.05 877.98,2353.95C878.357,2353.42 880.531,2350.38 880.522,2345.37C880.512,2340.19 878.239,2337.1 877.845,2336.56C875.261,2333.05 872.165,2333.05 871.628,2333.06C869.226,2333.06 869.253,2333.39 867.031,2334.65C865.834,2335.33 854.318,2338.8 852.505,2339.31C847.03,2340.87 846.986,2340.56 843.681,2341.7C790.607,2359.92 712.929,2357.26 672.709,2355.25C665.833,2354.9 638.854,2350.74 612.913,2347.79C612.904,2347.79 606.214,2347.27 600.045,2346.95C596.681,2346.77 591.914,2346.57 587.596,2346.6C586.574,2346.6 586.591,2346.76 585.609,2347.14C585.316,2347.25 582.034,2348.52 581.959,2348.61C581.264,2349.49 578.872,2353.14 578.609,2353.54C578.146,2354.25 578.166,2354.28 578.113,2354.32C578.007,2354.39 577.978,2354.22 576.671,2354.75C576.417,2354.85 574.898,2355.46 574.092,2357.59C574.084,2357.61 573.814,2361.87 573.82,2361.88C574.483,2362.96 574.902,2364.47 575.814,2365.13C577.464,2366.31 577.561,2365.88 579.387,2365.39Z"/>
        </g>
        <g transform="matrix(0.948389,0,0,0.954806,1156.52,-351.443)">
            <path d="M680.735,2328.3C681.39,2328.72 681.757,2328.94 681.761,2328.98C681.779,2329.14 681.529,2330.65 681.109,2333.6C681.064,2333.92 681.08,2334.25 680.975,2334.55C680.974,2334.56 677.94,2340.89 673.039,2351.79C663.945,2372.02 659.43,2383.23 653.953,2396.26C638.818,2432.25 634.973,2447.69 634.704,2453.6C634.612,2455.6 634.956,2455.61 634.09,2478.67C633.533,2493.49 633.005,2507.55 636.49,2526.89C639.666,2544.52 666.166,2611.26 669.508,2624.29C672.831,2637.24 666.751,2647.66 648.314,2648.57C632.537,2649.35 611.48,2643.81 605.752,2644.22C603.145,2644.41 597.492,2643.19 596.326,2635.77C595.765,2632.21 595.755,2624.92 593.62,2610.92C593.472,2609.95 591.402,2592.75 583.705,2559.51C575.082,2522.27 567.921,2503.97 564.8,2500.06C562.092,2496.66 547.745,2479.78 549.088,2435.58C549.429,2424.36 550.758,2414.9 551.156,2412.88C552.203,2407.57 553.247,2403.7 553.384,2403.18C553.468,2402.87 553.441,2402.85 554.472,2400.85C555.926,2398.01 556.921,2396.36 557.244,2395.79C557.696,2395 558.009,2394.12 558.603,2393.43C558.875,2393.11 560.445,2391.29 563.23,2391.02C563.659,2390.98 566.106,2390.75 568.365,2392.62C568.686,2392.89 570.552,2394.43 570.783,2397.22C570.839,2397.9 570.178,2397.88 570.604,2405.76C570.643,2406.49 570.657,2406.49 570.65,2406.55C570.6,2406.98 570.007,2410.04 569.418,2416.28C569.274,2417.81 565.218,2442.2 569.777,2465.45C572.964,2481.71 579.015,2488 579.982,2489.31C582.074,2492.16 588.061,2500.92 597.711,2538.77C605.548,2569.51 610.55,2598.95 611.608,2609.79C612.423,2618.14 612.635,2624.05 612.762,2628.45C620.591,2629.79 630.529,2632.48 640.626,2633.65C650.687,2634.82 655.641,2633.63 656.167,2631.85C656.712,2630 656.126,2627.37 650.799,2612.29C639.857,2581.31 625.402,2544.11 622.671,2528.64C617.628,2500.07 620.659,2484.48 620.746,2454.15C620.763,2448.05 622.856,2433.71 642.817,2386.77C645.075,2381.46 658.344,2352.33 669.998,2329.57C670.304,2328.98 670.38,2329.03 670.847,2328.55C673.956,2325.37 674.011,2325.42 675.072,2324.16C675.399,2323.77 676.062,2323.06 677.034,2322.77C677.131,2322.74 678.101,2322.46 678.281,2322.56C679.245,2323.07 680.381,2323.36 681.173,2324.11C681.194,2324.13 682.319,2326.3 682.418,2326.49C682.518,2326.69 682.378,2326.69 680.735,2328.3ZM678.98,2330.07C678.809,2330.24 678.63,2330.43 678.443,2330.62L679.06,2330.51L678.98,2330.07Z"/>
        </g>
        <g transform="matrix(0.948389,0,0,0.954806,1156.52,-351.443)">
            <path d="M901.107,2499.11C899.437,2492.15 888.601,2470.8 887.338,2467.39C886.936,2466.3 885.921,2463.83 876.356,2456.68C865.37,2448.47 855.611,2442.84 850.072,2435.26C844.35,2427.44 840.024,2415.85 836.193,2403.57C832.438,2391.54 826.278,2363.63 820.391,2349.22C818.601,2344.84 817.568,2343.3 817.169,2342.38C816.488,2340.8 816.03,2340 816.031,2339.99C816.039,2339.76 816.217,2339.82 817.259,2337.33C817.351,2337.11 815.868,2337.62 816.136,2334.56C816.137,2334.55 817.762,2331.65 817.771,2331.65C818.699,2331.39 819.596,2330.79 820.558,2330.87C823.668,2331.14 823.238,2332.16 823.495,2332.16C823.758,2332.15 826.726,2332.04 826.788,2332.11C827.77,2333.17 829.365,2335.23 829.584,2335.55C830.802,2337.37 832.513,2340.9 832.744,2341.38C840.053,2356.48 845.399,2378.71 851.578,2397.95C852.633,2401.24 858.27,2421.06 864.744,2427.75C872.938,2436.22 895.148,2447.61 901.181,2459.65C901.954,2461.19 901.843,2461.33 902.639,2463.11C907.164,2473.26 916.15,2491.19 916.577,2498.4C916.63,2499.3 917.613,2502.57 903.942,2542.58C897.109,2562.58 886.398,2592.08 883.837,2596.94C879.829,2604.56 869.965,2613.99 861.693,2623.31C859.072,2626.26 852.685,2633.59 851.717,2637.69C853.069,2638.34 857.586,2639.77 870.852,2638.62C878.142,2637.99 885.098,2637.26 886.106,2637.04C892.123,2635.78 895.038,2633.67 895.708,2633.18C897.481,2631.9 897.794,2631.44 901.137,2628.16C904.886,2624.49 911.287,2616.94 916.526,2610.84C924.884,2601.1 933.549,2575.19 940.999,2558.69C942.199,2556.03 946.497,2548.68 946.73,2548.52C947.024,2548.33 949.15,2547.16 949.167,2547.14C949.881,2546.47 950.486,2545.65 951.314,2545.12C951.692,2544.87 953.884,2543.46 956.825,2544C957.281,2544.09 959.862,2544.56 961.659,2547.18C961.912,2547.55 963.399,2549.72 962.778,2552.66C962.466,2554.13 961.468,2555.53 961.605,2555.34C961.626,2555.31 961.595,2555.44 961.762,2557.09C961.776,2557.22 961.831,2557.36 961.804,2557.49C961.778,2557.62 960.574,2559.51 957.968,2565.82C957.404,2567.18 957.192,2567.09 950.578,2582.74C944.553,2596.98 937.785,2613.07 929.67,2622.14C921.8,2630.94 916.253,2637.21 911.473,2641.51C911.465,2641.51 908.607,2643.92 905.123,2645.89C897.439,2650.22 890.69,2650.21 887.428,2650.69C886.541,2650.82 871.51,2652.75 862.688,2652.88C855.861,2652.97 841.747,2652.65 838.268,2642.36C833.856,2629.31 852.028,2613.64 865.068,2598.36C870.872,2591.57 871.243,2589.92 872.651,2586.28C878.589,2570.92 898.125,2515.26 901.107,2499.11Z"/>
        </g>
        <g transform="matrix(0.980156,-0.198226,0.198226,0.980156,-450.467,384.994)">
            <path d="M1565.65,1616.31C1570.37,1623.67 1584.02,1624.19 1592.85,1616.19C1653.46,1561.22 1631.13,1620.59 1731.98,1584.03C1734.52,1583.11 1767.17,1552.69 1778.74,1541.81C1782.24,1538.51 1824.32,1460.38 1817.64,1453.7C1817.48,1453.53 1813.72,1457.15 1813.48,1457.35C1808.24,1461.78 1791.74,1504.86 1785.48,1507.7C1769.19,1515.11 1722.18,1551.26 1705.08,1556.33C1697.27,1558.64 1755.76,1506.63 1747.75,1508.13C1747.73,1508.13 1695.21,1538.32 1683.57,1538.33C1682.98,1538.33 1693.1,1512.82 1693.69,1512.8C1700.55,1512.51 1710.79,1516.83 1716.65,1513.34C1724.2,1508.86 1738.09,1498.72 1734.42,1487.72C1734.06,1486.63 1732.55,1489.05 1731.58,1489.65C1722.62,1495.19 1710.05,1496.56 1700.01,1498.99C1694.39,1500.35 1688.74,1501.54 1683.15,1503.05C1681,1503.63 1677.2,1506.84 1676.65,1504.67C1676.53,1504.19 1679.19,1502.75 1679.19,1502.75C1686.58,1497.98 1722.79,1468.75 1721.12,1465.08C1720.11,1462.86 1695.79,1480.52 1696.76,1471.78C1697.36,1466.37 1713.25,1445.23 1706.91,1441.42C1704.06,1439.71 1699.64,1443.63 1697.57,1445.28C1678.9,1460.21 1654.76,1501.17 1628.18,1528.58C1614.46,1542.72 1600.09,1553.25 1585.5,1554.74C1558.3,1557.5 1568.54,1488.35 1558,1461.23C1557.75,1460.6 1550.6,1507.43 1550.15,1507.43C1546.26,1507.43 1541.43,1470.09 1540.55,1473.87C1538.12,1484.28 1550.68,1531.12 1537.81,1535.06C1534.28,1536.14 1527.05,1491.08 1523.96,1490.02C1522.57,1489.54 1523.99,1506.11 1523.05,1507.52C1522.04,1509.03 1511,1480.93 1509.54,1482.39C1505.64,1486.29 1515.48,1513.4 1511.4,1511.51C1502.44,1507.34 1500.17,1488.05 1486.33,1479.54C1483.48,1477.78 1500.21,1518.32 1502.1,1521.01C1503.23,1522.62 1487.38,1508.52 1487.72,1510.46C1488.79,1516.56 1491.65,1522.26 1494.62,1527.62C1505.64,1547.51 1510.24,1574.47 1538.84,1582.65C1565.67,1590.33 1567.1,1599.5 1565.65,1616.31Z" style="fill:rgb(94,76,57);"/>
            <path d="M1495.7,1512.95C1490.81,1501.66 1483.85,1484.13 1483.49,1480.33C1483.21,1477.37 1485.83,1476.26 1487.63,1477.36C1499.8,1484.74 1503.62,1499.73 1509.29,1506.42C1508.03,1499.5 1504.64,1487.49 1506.37,1482.48C1507.45,1479.35 1510.41,1478.37 1512.63,1481.36C1514.41,1483.76 1517.66,1490.92 1520.44,1496.91C1520.39,1493.58 1520.43,1490.45 1521.01,1489.11C1521.99,1486.84 1525.37,1485.82 1527.34,1489.74C1530.46,1495.96 1535.35,1523.15 1538.48,1531.23C1539.85,1529.53 1541.35,1525.24 1540.85,1513.87C1540.12,1497.34 1535.63,1475.4 1538.71,1471.94C1539.87,1470.65 1542.5,1470.42 1543.47,1473.4C1544.61,1476.88 1546.9,1491.51 1549.16,1499.93C1551.43,1486.96 1555.4,1461.82 1555.91,1460.49C1556.54,1458.87 1558.71,1458.4 1559.86,1460.07C1559.95,1460.2 1561.59,1463.83 1563.02,1471.49C1567.88,1497.49 1565.13,1541.05 1578.03,1550.73C1580.74,1552.77 1583.87,1553.29 1590.43,1551.66C1616.52,1545.16 1642.94,1508.89 1663.98,1480.85C1667.83,1475.71 1682.39,1453.42 1694.17,1442.99C1697.48,1440.06 1703.37,1434.59 1708.95,1437.65C1714.84,1440.88 1712.23,1448.96 1712.15,1449.28C1710.67,1454.86 1706.84,1461.9 1704.28,1467.09C1709.57,1464.64 1716.41,1460.63 1719.5,1460.09C1724.41,1459.22 1727.84,1463.93 1725.09,1468.8C1723.87,1470.97 1720.77,1474.97 1707.58,1486.06C1706.43,1487.02 1701.16,1491.4 1694.54,1496.52C1696.16,1496.17 1698.02,1495.77 1700.15,1495.31C1711.14,1492.94 1721.15,1492.12 1729.95,1487.11C1730.99,1486.14 1732.68,1483.85 1735.11,1484.63C1736.68,1485.13 1737.14,1486.52 1737.21,1486.75C1740.72,1497.45 1731,1507.9 1717.87,1515.41C1711.35,1519.15 1702.31,1515.24 1694.84,1514.84C1692.88,1518.84 1687.81,1530.89 1685.77,1536.51C1689.62,1535.76 1699.62,1532.58 1726.25,1518.86C1728.17,1517.87 1728.13,1517.82 1729.96,1516.66C1740.69,1509.84 1746.24,1505.99 1746.75,1505.77C1749.07,1504.75 1752.57,1506.7 1750.55,1510.74C1748.47,1514.88 1740.28,1524.33 1730.01,1536.08C1728.91,1537.34 1728.49,1537.76 1726.96,1539.25C1735.73,1533.79 1745.74,1527.11 1756.26,1520.19C1776.23,1507.06 1780.93,1504.97 1783.48,1503.78C1788.63,1499.18 1802.04,1467.18 1808.19,1457.67C1809.61,1455.47 1810.1,1455.03 1812.92,1452.48C1814.76,1450.81 1816.1,1449.51 1818.17,1449.8C1819.25,1449.95 1820.17,1450.66 1820.21,1450.7C1822.32,1452.56 1822.27,1455.85 1822.27,1456.32C1822.24,1458.04 1822.56,1466 1803.48,1503.37C1794.33,1521.29 1782.83,1541.61 1780.55,1543.69C1769.28,1554.01 1758.15,1563.94 1757.23,1564.83C1736.64,1584.52 1734.17,1586.23 1733.01,1586.67C1698.71,1599.97 1679.88,1600.48 1676.99,1600.64C1650.16,1602.06 1641.81,1592.34 1627.48,1597.5C1614.2,1602.28 1598.11,1618.81 1594.53,1621.59C1590,1625.12 1584.36,1627.22 1578.57,1627.43C1578.16,1627.45 1573.95,1626.85 1570.05,1624.45C1565.95,1621.93 1564.46,1618.89 1563.98,1617.8L1562.92,1618.07C1562.81,1617.73 1562.61,1617.43 1562.5,1617.09C1562.21,1616.22 1562.89,1613.06 1562.84,1608.02C1562.72,1597.13 1557.89,1591.37 1538.03,1585.45C1508.01,1576.5 1503.62,1549.28 1492.5,1528.79C1490.64,1525.35 1486.8,1518.34 1485.46,1511.18C1485.45,1511.15 1485.17,1510.2 1485.6,1509.32C1485.98,1508.52 1487.3,1507.18 1489.57,1508.44C1490.93,1509.19 1493.29,1511.01 1495.7,1512.95ZM1568.91,1616.16C1570.32,1616.93 1572.75,1617.72 1576.34,1617.05C1578.03,1616.73 1577.99,1616.58 1578.14,1616.58C1578.92,1616.54 1583.76,1616.72 1588.7,1612.87C1591.66,1610.56 1608.11,1594.85 1622.76,1589.33C1640.5,1582.65 1648.98,1592.1 1671.6,1592.8C1694.83,1593.51 1720.91,1584.74 1730.88,1581.42C1733.4,1579.78 1741.82,1572.55 1754.24,1561.58C1756.43,1559.65 1774.97,1541.81 1776.9,1539.94C1781.42,1533.73 1803.34,1491.37 1811.43,1468.41C1805.1,1481.21 1795.6,1504.04 1789.89,1509.8C1787.85,1511.86 1787.49,1511.33 1781.85,1514.64C1762.35,1526.08 1722.49,1556.46 1706.47,1561.14C1701.55,1562.58 1697.26,1557.85 1700.45,1552.64C1702.58,1549.17 1710.27,1541.49 1720.54,1531.26C1721.51,1530.29 1721.48,1530.26 1722.98,1528.98C1729.78,1523.15 1734.95,1518.67 1738.75,1515.2C1729.41,1519.53 1729.3,1519.41 1728.43,1519.88C1717.93,1525.64 1692.08,1539.69 1683.75,1539.91C1683.57,1539.91 1682.3,1539.94 1682,1538.6C1681.92,1538.23 1681.67,1538.13 1684.77,1529.65C1685.85,1526.69 1690.88,1513.16 1691.99,1511.67C1692.65,1510.77 1693.38,1510.73 1695.08,1510.76C1701.86,1510.87 1710.88,1514.06 1715.43,1511.27C1717.84,1509.79 1730.8,1501.64 1732.04,1492.91C1731.63,1493.15 1731.15,1493.42 1730.59,1493.72C1721.73,1498.41 1711.72,1499.67 1699.78,1502.73C1696.22,1503.64 1684.93,1506.39 1683.86,1506.9C1681.91,1507.84 1677.96,1510.88 1674.64,1508.44C1673.2,1507.38 1670.73,1503.69 1675.22,1500.5C1676.42,1499.65 1676.48,1499.74 1677.68,1498.89C1682.25,1495.66 1692.76,1487.03 1701.73,1479.04C1700.32,1479.38 1699,1479.53 1697.81,1479.4C1693.04,1478.88 1689.75,1474.21 1692.39,1467.96C1694.95,1461.93 1702.21,1451.85 1703.75,1445.81C1702.78,1446.36 1701.23,1447.39 1698.78,1449.35C1690,1456.35 1679.92,1468.52 1668.84,1482.23C1662.22,1490.42 1642.31,1519.14 1622.56,1537.17C1613.47,1545.45 1600.19,1555.53 1585.54,1556.92C1570.6,1558.34 1566.45,1540.51 1564.61,1529.18C1561.69,1511.19 1561.76,1487.51 1558.5,1471.18C1556.38,1484.47 1553.07,1506.45 1552.45,1508.17C1551.72,1510.16 1548.82,1510.84 1546.87,1507.59C1546.45,1506.9 1546.04,1505.96 1545.63,1504.85C1546.87,1516.78 1547.25,1528.69 1543.19,1534.4C1541.55,1536.71 1538.8,1538.36 1536.79,1537.81C1533.71,1536.96 1532.18,1532.13 1527.84,1514.02C1527.4,1512.16 1526.79,1509.44 1526.11,1506.53C1526.04,1507.35 1525.92,1508 1525.75,1508.44C1524.93,1510.47 1521.99,1511.7 1519.86,1508.35C1518.08,1505.53 1514.73,1497.78 1511.9,1491.74C1513.01,1498.48 1515.29,1507.34 1515.06,1510.65C1514.85,1513.65 1512.54,1515.07 1510,1513.78C1504.5,1510.99 1501.6,1504.32 1497.76,1497.18C1495.01,1492.08 1492.74,1488.73 1490.44,1486.24C1494.28,1497.22 1502.59,1517.25 1504.16,1519.76C1505.54,1521.97 1503.11,1524.69 1500.58,1523.02C1499.33,1522.2 1495.09,1518.54 1491.55,1515.7C1493.5,1521.23 1496.45,1525.45 1499.8,1532.31C1509.07,1551.28 1515,1572.81 1539.32,1579.76C1553.19,1583.73 1565.42,1588.62 1568.41,1601.31C1569.65,1606.53 1569.18,1612.49 1568.91,1616.16Z"/>
        </g>
        <g transform="matrix(0.993727,-0.111834,0.111834,0.993727,-219.954,171.15)">
            <path d="M1487,1919.44C1485.35,1916.57 1483.17,1913.76 1480.99,1910.26C1480.77,1909.91 1480.04,1909.1 1478.86,1904.51C1477.31,1898.51 1476.41,1891.54 1476.38,1874.86C1476.35,1860.76 1480.27,1839.59 1477.64,1825.2C1477.39,1823.84 1477.07,1816.72 1472.83,1814.52C1472.73,1814.46 1472.62,1814.42 1472.52,1814.36C1472.47,1814.33 1472.36,1814.08 1472.33,1814.03C1472.31,1814 1472.25,1813.98 1472.25,1813.94C1472.24,1813.81 1472.35,1813.81 1472.34,1812.26C1472.34,1812.15 1472.34,1810.89 1472.28,1810.86C1471.46,1810.39 1470.32,1810.25 1469.81,1809.46C1469.81,1809.44 1469.35,1806.27 1469.35,1806.27C1469.89,1805.55 1470.22,1804.6 1470.98,1804.11C1473.48,1802.51 1473.8,1803.53 1473.95,1803.34C1474.08,1803.18 1474.57,1802.44 1475.9,1801.07C1476.09,1800.87 1476.08,1800.82 1476.35,1800.81C1477.1,1800.78 1477.11,1800.77 1477.82,1801.01C1484.35,1803.24 1490.9,1809 1493.68,1821.93C1493.72,1822.13 1494.74,1827.06 1494.37,1836.73C1493.85,1850.42 1490.84,1866.6 1490.41,1875.65C1489.78,1889.17 1489.57,1896.07 1491.56,1904.12C1492.23,1905.35 1493.6,1907.6 1494.93,1910.09C1496.58,1908.7 1498.83,1906.73 1501.98,1903.81C1501.99,1903.8 1504.44,1901.29 1506.89,1898.49C1514.8,1889.43 1515.92,1885.43 1519.02,1881.12C1529.1,1867.1 1551.79,1853.63 1569.49,1850.08C1573.25,1849.32 1577.57,1849.26 1579.02,1849.04C1584.03,1848.26 1590.32,1847.44 1595.32,1845.74C1595.96,1845.52 1595.97,1845.61 1596.64,1845.59C1599.31,1845.51 1600.94,1845.08 1601.08,1845.04C1601.84,1844.79 1602.57,1844.38 1603.36,1844.29C1605.82,1843.98 1607.49,1845.27 1607.79,1845.49C1609.81,1847.06 1610.08,1849.21 1610.13,1849.59C1610.43,1852.04 1609.14,1853.72 1608.92,1854.01C1607.73,1855.56 1604.53,1857.22 1604.11,1857.44C1601.62,1858.72 1599.12,1859.54 1598.5,1859.75C1598.41,1859.78 1595.41,1860.12 1589.6,1859.82C1581.78,1859.42 1579.85,1859.06 1578.34,1859.1C1574.53,1859.22 1570.11,1859.25 1561.78,1862.1C1549.23,1866.4 1532.43,1876.6 1525.28,1887.8C1523.25,1890.96 1520.66,1897.15 1509.04,1909.29C1507.46,1910.94 1506.53,1912.16 1503.47,1915.44C1501.71,1917.33 1500.31,1918.76 1498.37,1920.73L1498.38,1920.73C1498.17,1920.99 1498,1921.2 1497.86,1921.38C1496.84,1924.15 1493.96,1925.63 1491.34,1925.07C1489.84,1924.74 1487.28,1923.37 1487.01,1919.99C1487,1919.8 1487,1919.62 1487,1919.44Z"/>
        </g>
        <g transform="matrix(1,0,0,1,922.004,-508.134)">
            <path d="M491.435,2211.43C492.251,2210.82 492.148,2210.64 493.104,2210.19C493.39,2210.05 495.045,2209.27 497.069,2209.97C497.377,2210.07 499.157,2210.69 500.114,2212.69C501.042,2214.62 500.442,2216.35 500.338,2216.65C500.111,2217.31 499.656,2217.86 499.292,2218.45C499.243,2218.53 499.158,2218.58 499.102,2218.66C498.692,2219.21 497.757,2221.64 492.949,2225.17C492.363,2225.6 489.684,2227.58 484.803,2229.24C484.1,2229.48 481.661,2230.14 479.894,2230.24C477.45,2230.38 477.439,2230.38 475.043,2229.88C474.829,2229.84 474.322,2229.73 472.464,2228.99C471.917,2228.77 470.29,2227.93 469.317,2227.23C468.685,2226.78 466.977,2225.65 464.598,2222.63C464.195,2222.12 463.316,2220.69 462.927,2219.91C462.416,2218.89 462.048,2219.17 461.469,2218.18C461.309,2217.91 460.377,2216.32 460.853,2214.26C460.927,2213.94 461.344,2212.13 463.263,2210.95C463.533,2210.78 465.12,2209.8 467.186,2210.33C468.094,2210.57 468.94,2211.17 469.053,2211.25C468.945,2211.16 469.163,2211.33 470.756,2211.06C472.321,2210.79 472.322,2210.81 473.855,2210.4C473.993,2210.37 474.897,2210.13 475.586,2209.97C476.25,2209.83 476.237,2209.78 476.907,2209.67C477.544,2209.58 477.534,2209.51 478.144,2209.5C478.857,2209.5 478.861,2209.43 479.333,2209.53C480.1,2209.7 480.113,2209.63 480.864,2209.86C481.914,2210.17 481.924,2210.12 482.975,2210.43C483.318,2210.53 484.181,2210.84 487.472,2211.23C489.263,2211.44 489.659,2211.31 490.974,2211.42C491.202,2211.44 491.2,2211.43 491.429,2211.43L491.435,2211.43Z"/>
        </g>
    </g>
</svg>
