<svg width="206.0" height="206.0" viewBox="-103.0 -103.0 206.0 206.0" preserveAspectRatio="xMinYMin meet" version="1.1" xmlns="http://www.w3.org/2000/svg">
  <symbol id="cifrao" viewBox="0 0 500 600">
    <path stroke-width="55" d="m119,312c4,70 58,111 130,110c78,1 129,-34 125,-101c-11,-61 -78,-69 -122,-79c-48,-16 -118,-16 -117,-89c-1,-53 59,-84 117,-78c60,1 111,32 112,96" />
    <path stroke-width="40" d="m221,17l0,464m63,0l0,-464" />
  </symbol>
  <g transform="translate(-54.0 -54.0)">
    <circle fill="#F1DEC4" stroke="none" cx="0" cy="0" r="48.0" />
    <text fill="black" font-family="Garamond, serif" font-size="34.56" font-weight="bold" dominant-baseline="central" text-anchor="end" x="7.05024" y="0">14</text>
    <use href="#cifrao" height="34.56" width="28.8" x="3.24864" y="-15.2064" stroke="black" fill="none" />
    <g font-family="Arial, sans-serif" font-size="13.44" font-weight="bold" text-anchor="middle">
      <g transform="rotate(30)">
        <path fill="#558964" stroke="none" d="M 8.52 31.2 A 2.4 2.4 0 0 1 10.92 33.6V 46.7413478625 A 48.0 48.0 0 0 1 -10.92 46.7413478625 V 33.6 A 2.4 2.4 0 0 1 -8.52 31.2Z" />
        <text y="39.6" fill="black" dominant-baseline="central">2</text>
      </g>
      <g transform="rotate(90)">
        <path fill="#558964" stroke="none" d="M 8.52 31.2 A 2.4 2.4 0 0 1 10.92 33.6V 46.7413478625 A 48.0 48.0 0 0 1 -10.92 46.7413478625 V 33.6 A 2.4 2.4 0 0 1 -8.52 31.2Z" />
        <text y="39.6" fill="black" dominant-baseline="central">5</text>
      </g>
      <g transform="rotate(150)">
        <path fill="#558964" stroke="none" d="M 8.52 31.2 A 2.4 2.4 0 0 1 10.92 33.6V 46.7413478625 A 48.0 48.0 0 0 1 -10.92 46.7413478625 V 33.6 A 2.4 2.4 0 0 1 -8.52 31.2Z" />
        <text y="39.6" fill="black" dominant-baseline="central">3</text>
      </g>
      <g transform="rotate(210)">
        <path fill="#558964" stroke="none" d="M 8.52 31.2 A 2.4 2.4 0 0 1 10.92 33.6V 46.7413478625 A 48.0 48.0 0 0 1 -10.92 46.7413478625 V 33.6 A 2.4 2.4 0 0 1 -8.52 31.2Z" />
        <text y="39.6" fill="black" dominant-baseline="central">1</text>
      </g>
      <g transform="rotate(270)">
        <path fill="#558964" stroke="none" d="M 8.52 31.2 A 2.4 2.4 0 0 1 10.92 33.6V 46.7413478625 A 48.0 48.0 0 0 1 -10.92 46.7413478625 V 33.6 A 2.4 2.4 0 0 1 -8.52 31.2Z" />
        <text y="39.6" fill="black" dominant-baseline="central">U</text>
      </g>
      <g transform="rotate(330)">
        <path fill="#558964" stroke="none" d="M 8.52 31.2 A 2.4 2.4 0 0 1 10.92 33.6V 46.7413478625 A 48.0 48.0 0 0 1 -10.92 46.7413478625 V 33.6 A 2.4 2.4 0 0 1 -8.52 31.2Z" />
        <text y="39.6" fill="black" dominant-baseline="central">4</text>
      </g>
    </g>
    <circle cx="0" cy="39.6" r="2.4" fill="black" />
  </g>
  <g transform="translate(54.0 -54.0)">
    <circle fill="#DE5650" stroke="none" cx="0" cy="0" r="48.0" />
    <text fill="black" font-family="Garamond, serif" font-size="34.56" font-weight="bold" dominant-baseline="central" text-anchor="end" x="7.05024" y="0">25</text>
    <use href="#cifrao" height="34.56" width="28.8" x="3.24864" y="-15.2064" stroke="black" fill="none" />
    <g font-family="Arial, sans-serif" font-size="13.44" font-weight="bold" text-anchor="middle">
      <g transform="rotate(30)">
        <path fill="#F1DEC4" stroke="none" d="M 8.52 31.2 A 2.4 2.4 0 0 1 10.92 33.6V 46.7413478625 A 48.0 48.0 0 0 1 -10.92 46.7413478625 V 33.6 A 2.4 2.4 0 0 1 -8.52 31.2Z" />
        <text y="39.6" fill="black" dominant-baseline="central">4</text>
      </g>
      <g transform="rotate(90)">
        <path fill="#F1DEC4" stroke="none" d="M 8.52 31.2 A 2.4 2.4 0 0 1 10.92 33.6V 46.7413478625 A 48.0 48.0 0 0 1 -10.92 46.7413478625 V 33.6 A 2.4 2.4 0 0 1 -8.52 31.2Z" />
        <text y="39.6" fill="black" dominant-baseline="central">3</text>
      </g>
      <g transform="rotate(150)">
        <path fill="#F1DEC4" stroke="none" d="M 8.52 31.2 A 2.4 2.4 0 0 1 10.92 33.6V 46.7413478625 A 48.0 48.0 0 0 1 -10.92 46.7413478625 V 33.6 A 2.4 2.4 0 0 1 -8.52 31.2Z" />
        <text y="39.6" fill="black" dominant-baseline="central">1</text>
      </g>
      <g transform="rotate(210)">
        <path fill="#F1DEC4" stroke="none" d="M 8.52 31.2 A 2.4 2.4 0 0 1 10.92 33.6V 46.7413478625 A 48.0 48.0 0 0 1 -10.92 46.7413478625 V 33.6 A 2.4 2.4 0 0 1 -8.52 31.2Z" />
        <text y="39.6" fill="black" dominant-baseline="central">6</text>
      </g>
      <g transform="rotate(270)">
        <path fill="#F1DEC4" stroke="none" d="M 8.52 31.2 A 2.4 2.4 0 0 1 10.92 33.6V 46.7413478625 A 48.0 48.0 0 0 1 -10.92 46.7413478625 V 33.6 A 2.4 2.4 0 0 1 -8.52 31.2Z" />
        <text y="39.6" fill="black" dominant-baseline="central">Y</text>
      </g>
      <g transform="rotate(330)">
        <path fill="#F1DEC4" stroke="none" d="M 8.52 31.2 A 2.4 2.4 0 0 1 10.92 33.6V 46.7413478625 A 48.0 48.0 0 0 1 -10.92 46.7413478625 V 33.6 A 2.4 2.4 0 0 1 -8.52 31.2Z" />
        <text y="39.6" fill="black" dominant-baseline="central">2</text>
      </g>
    </g>
    <circle cx="0" cy="39.6" r="2.4" fill="black" />
  </g>
  <g transform="translate(-54.0 54.0)">
    <circle fill="#5F6399" stroke="none" cx="0" cy="0" r="48.0" />
    <text fill="black" font-family="Garamond, serif" font-size="34.56" font-weight="bold" dominant-baseline="central" text-anchor="end" x="7.05024" y="0">26</text>
    <use href="#cifrao" height="34.56" width="28.8" x="3.24864" y="-15.2064" stroke="black" fill="none" />
    <g font-family="Arial, sans-serif" font-size="13.44" font-weight="bold" text-anchor="middle">
      <g transform="rotate(30)">
        <path fill="#DE5650" stroke="none" d="M 8.52 31.2 A 2.4 2.4 0 0 1 10.92 33.6V 46.7413478625 A 48.0 48.0 0 0 1 -10.92 46.7413478625 V 33.6 A 2.4 2.4 0 0 1 -8.52 31.2Z" />
        <text y="39.6" fill="black" dominant-baseline="central">5</text>
      </g>
      <g transform="rotate(90)">
        <path fill="#DE5650" stroke="none" d="M 8.52 31.2 A 2.4 2.4 0 0 1 10.92 33.6V 46.7413478625 A 48.0 48.0 0 0 1 -10.92 46.7413478625 V 33.6 A 2.4 2.4 0 0 1 -8.52 31.2Z" />
        <text y="39.6" fill="black" dominant-baseline="central">6</text>
      </g>
      <g transform="rotate(150)">
        <path fill="#DE5650" stroke="none" d="M 8.52 31.2 A 2.4 2.4 0 0 1 10.92 33.6V 46.7413478625 A 48.0 48.0 0 0 1 -10.92 46.7413478625 V 33.6 A 2.4 2.4 0 0 1 -8.52 31.2Z" />
        <text y="39.6" fill="black" dominant-baseline="central">1</text>
      </g>
      <g transform="rotate(210)">
        <path fill="#DE5650" stroke="none" d="M 8.52 31.2 A 2.4 2.4 0 0 1 10.92 33.6V 46.7413478625 A 48.0 48.0 0 0 1 -10.92 46.7413478625 V 33.6 A 2.4 2.4 0 0 1 -8.52 31.2Z" />
        <text y="39.6" fill="black" dominant-baseline="central">2</text>
      </g>
      <g transform="rotate(270)">
        <path fill="#DE5650" stroke="none" d="M 8.52 31.2 A 2.4 2.4 0 0 1 10.92 33.6V 46.7413478625 A 48.0 48.0 0 0 1 -10.92 46.7413478625 V 33.6 A 2.4 2.4 0 0 1 -8.52 31.2Z" />
        <text y="39.6" fill="black" dominant-baseline="central">J</text>
      </g>
      <g transform="rotate(330)">
        <path fill="#DE5650" stroke="none" d="M 8.52 31.2 A 2.4 2.4 0 0 1 10.92 33.6V 46.7413478625 A 48.0 48.0 0 0 1 -10.92 46.7413478625 V 33.6 A 2.4 2.4 0 0 1 -8.52 31.2Z" />
        <text y="39.6" fill="black" dominant-baseline="central">4</text>
      </g>
    </g>
    <circle cx="0" cy="39.6" r="2.4" fill="black" />
  </g>
  <g transform="translate(54.0 54.0)">
    <circle fill="#558964" stroke="none" cx="0" cy="0" r="48.0" />
    <text fill="black" font-family="Garamond, serif" font-size="34.56" font-weight="bold" dominant-baseline="central" text-anchor="end" x="7.05024" y="0">28</text>
    <use href="#cifrao" height="34.56" width="28.8" x="3.24864" y="-15.2064" stroke="black" fill="none" />
    <g font-family="Arial, sans-serif" font-size="13.44" font-weight="bold" text-anchor="middle">
      <g transform="rotate(30)">
        <path fill="#5F6399" stroke="none" d="M 8.52 31.2 A 2.4 2.4 0 0 1 10.92 33.6V 46.7413478625 A 48.0 48.0 0 0 1 -10.92 46.7413478625 V 33.6 A 2.4 2.4 0 0 1 -8.52 31.2Z" />
        <text y="39.6" fill="black" dominant-baseline="central">1</text>
      </g>
      <g transform="rotate(90)">
        <path fill="#5F6399" stroke="none" d="M 8.52 31.2 A 2.4 2.4 0 0 1 10.92 33.6V 46.7413478625 A 48.0 48.0 0 0 1 -10.92 46.7413478625 V 33.6 A 2.4 2.4 0 0 1 -8.52 31.2Z" />
        <text y="39.6" fill="black" dominant-baseline="central">3</text>
      </g>
      <g transform="rotate(150)">
        <path fill="#5F6399" stroke="none" d="M 8.52 31.2 A 2.4 2.4 0 0 1 10.92 33.6V 46.7413478625 A 48.0 48.0 0 0 1 -10.92 46.7413478625 V 33.6 A 2.4 2.4 0 0 1 -8.52 31.2Z" />
        <text y="39.6" fill="black" dominant-baseline="central">4</text>
      </g>
      <g transform="rotate(210)">
        <path fill="#5F6399" stroke="none" d="M 8.52 31.2 A 2.4 2.4 0 0 1 10.92 33.6V 46.7413478625 A 48.0 48.0 0 0 1 -10.92 46.7413478625 V 33.6 A 2.4 2.4 0 0 1 -8.52 31.2Z" />
        <text y="39.6" fill="black" dominant-baseline="central">5</text>
      </g>
      <g transform="rotate(270)">
        <path fill="#5F6399" stroke="none" d="M 8.52 31.2 A 2.4 2.4 0 0 1 10.92 33.6V 46.7413478625 A 48.0 48.0 0 0 1 -10.92 46.7413478625 V 33.6 A 2.4 2.4 0 0 1 -8.52 31.2Z" />
        <text y="39.6" fill="black" dominant-baseline="central">V</text>
      </g>
      <g transform="rotate(330)">
        <path fill="#5F6399" stroke="none" d="M 8.52 31.2 A 2.4 2.4 0 0 1 10.92 33.6V 46.7413478625 A 48.0 48.0 0 0 1 -10.92 46.7413478625 V 33.6 A 2.4 2.4 0 0 1 -8.52 31.2Z" />
        <text y="39.6" fill="black" dominant-baseline="central">2</text>
      </g>
    </g>
    <circle cx="0" cy="39.6" r="2.4" fill="black" />
  </g>
</svg>