<svg width="735" height="435" viewBox="0 0 735 435" fill="none" xmlns="http://www.w3.org/2000/svg">
<rect x="9.5" y="9.5" width="716" height="416" rx="50.5" fill="#0D0F22" stroke="url(#paint0_linear_56_752)" stroke-width="19"/>
<path d="M241.802 86V98.78H216.782V111.47H240.902V124.25H216.782V149H203.282V86H241.802ZM251.358 149V86H264.948V149H251.358ZM313.74 121.91V86H327.24V149H315.81L290.61 109.58V149H277.11V86H290.61L313.74 121.91ZM365.343 86C371.223 86 376.623 87.41 381.543 90.23C386.523 92.99 390.453 96.8 393.333 101.66C396.273 106.46 397.743 111.8 397.743 117.68C397.743 123.56 396.303 128.9 393.423 133.7C390.543 138.44 386.613 142.19 381.633 144.95C376.653 147.65 371.223 149 365.343 149H339.513V86H365.343ZM365.343 136.13C368.763 136.13 371.913 135.32 374.793 133.7C377.733 132.02 380.043 129.77 381.723 126.95C383.403 124.13 384.243 121.01 384.243 117.59C384.243 114.17 383.403 111.02 381.723 108.14C380.043 105.26 377.733 102.98 374.793 101.3C371.913 99.62 368.763 98.78 365.343 98.78H353.013V136.13H365.343ZM465.14 86H478.64V127.76C478.64 132.14 477.56 136.04 475.4 139.46C473.24 142.82 470.27 145.46 466.49 147.38C462.77 149.24 458.6 150.17 453.98 150.17C449.36 150.17 445.19 149.24 441.47 147.38C437.75 145.46 434.81 142.82 432.65 139.46C430.49 136.04 429.41 132.14 429.41 127.76V86H443V127.76C443 130.52 444.08 132.71 446.24 134.33C448.4 135.89 450.98 136.67 453.98 136.67C457.28 136.67 459.95 135.89 461.99 134.33C464.09 132.77 465.14 130.58 465.14 127.76V86ZM509.727 150.17C503.487 150.17 498.237 148.79 493.977 146.03C489.777 143.27 486.807 139.52 485.067 134.78L496.497 128.12C497.697 131.12 499.377 133.34 501.537 134.78C503.757 136.22 506.607 136.94 510.087 136.94C512.907 136.94 515.067 136.28 516.567 134.96C518.127 133.64 518.907 132.17 518.907 130.55C518.907 129.35 518.547 128.33 517.827 127.49C517.107 126.65 515.877 125.87 514.137 125.15C512.397 124.37 509.877 123.5 506.577 122.54C500.817 120.86 496.227 118.58 492.807 115.7C489.387 112.82 487.677 108.71 487.677 103.37C487.677 99.59 488.607 96.32 490.467 93.56C492.387 90.74 494.907 88.58 498.027 87.08C501.207 85.58 504.627 84.83 508.287 84.83C513.387 84.83 517.857 86.06 521.697 88.52C525.537 90.92 528.537 94.34 530.697 98.78L518.997 105.44C517.857 102.92 516.417 101.09 514.677 99.95C512.937 98.75 510.807 98.15 508.287 98.15C506.367 98.15 504.717 98.69 503.337 99.77C501.957 100.79 501.267 101.99 501.267 103.37C501.267 104.51 501.537 105.5 502.077 106.34C502.677 107.12 503.727 107.87 505.227 108.59C506.787 109.31 509.067 110.12 512.067 111.02C516.087 112.28 519.537 113.69 522.417 115.25C525.357 116.75 527.757 118.82 529.617 121.46C531.537 124.1 532.497 127.4 532.497 131.36C532.497 135.14 531.507 138.47 529.527 141.35C527.547 144.17 524.817 146.36 521.337 147.92C517.917 149.42 514.047 150.17 509.727 150.17Z" fill="white"/>
<path d="M346.785 230.84C342.865 230.84 339.245 229.86 335.925 227.9C332.605 225.94 329.965 223.3 328.005 219.98C326.085 216.66 325.125 213.04 325.125 209.12C325.125 205.2 326.085 201.58 328.005 198.26C329.965 194.94 332.605 192.32 335.925 190.4C339.245 188.44 342.865 187.46 346.785 187.46C350.705 187.46 354.325 188.44 357.645 190.4C360.965 192.32 363.585 194.94 365.505 198.26C367.465 201.58 368.445 205.2 368.445 209.12C368.445 213.04 367.465 216.66 365.505 219.98C363.585 223.3 360.965 225.94 357.645 227.9C354.325 229.86 350.705 230.84 346.785 230.84ZM346.785 221.78C349.065 221.78 351.165 221.22 353.085 220.1C355.045 218.94 356.585 217.4 357.705 215.48C358.865 213.52 359.445 211.4 359.445 209.12C359.445 206.84 358.865 204.74 357.705 202.82C356.585 200.9 355.045 199.38 353.085 198.26C351.165 197.1 349.065 196.52 346.785 196.52C344.505 196.52 342.385 197.08 340.425 198.2C338.505 199.32 336.985 200.86 335.865 202.82C334.745 204.74 334.185 206.84 334.185 209.12C334.185 211.4 334.745 213.52 335.865 215.48C337.025 217.4 338.565 218.94 340.485 220.1C342.405 221.22 344.505 221.78 346.785 221.78ZM397.873 211.94V188H406.873V230H399.253L382.453 203.72V230H373.453V188H382.453L397.873 211.94Z" fill="white"/>
<path d="M338.48 291.789L321.625 320.886H320.276L303.421 291.136H303.168V334.897H289.641V269.202H304.79L320.866 299.985H321.056L332.833 277.251C334.075 274.845 335.954 272.828 338.266 271.419C340.577 270.011 343.232 269.266 345.939 269.266H352.26V334.897H338.754V291.789H338.48Z" fill="white"/>
<path d="M361.066 310.625C361.066 294.908 370.295 285.216 385.444 285.216C400.593 285.216 409.821 294.908 409.821 310.625C409.821 326.343 400.593 335.909 385.444 335.909C370.295 335.909 361.066 326.322 361.066 310.625ZM395.41 314.481V306.749C395.41 299.606 391.659 295.561 385.444 295.561C379.228 295.561 375.457 299.606 375.457 306.749V314.481C375.457 321.624 379.228 325.669 385.444 325.669C391.659 325.669 395.41 321.624 395.41 314.481Z" fill="white"/>
<path d="M425.728 324.068V297.162H414.541V286.332H439.655V298.974H440.308C442.415 292.653 447.009 286.332 455.837 286.332H460.451V299.143H450.106C443.785 299.143 439.571 301.86 439.571 307.317V324.068H455.563V334.897H414.541V324.068H425.728Z" fill="white"/>
<path d="M240.192 233.005H165.164C164.885 232.977 164.606 233.062 164.388 233.239C164.171 233.417 164.033 233.674 164.005 233.953C163.977 234.233 164.062 234.512 164.239 234.729C164.417 234.946 164.674 235.084 164.953 235.112L223.105 247.311C223.584 247.414 224.013 247.681 224.316 248.065C224.62 248.45 224.78 248.928 224.77 249.418V350.341C224.78 350.831 224.62 351.309 224.316 351.694C224.013 352.079 223.584 352.345 223.105 352.448L164.953 364.563C164.815 364.577 164.681 364.618 164.558 364.683C164.436 364.749 164.327 364.838 164.239 364.946C164.062 365.163 163.977 365.442 164.005 365.722C164.019 365.86 164.06 365.994 164.126 366.117C164.191 366.239 164.281 366.348 164.388 366.436C164.606 366.614 164.885 366.698 165.164 366.67H240.192C240.751 366.67 241.287 366.448 241.682 366.053C242.077 365.658 242.299 365.122 242.299 364.563V235.112C242.299 234.553 242.077 234.017 241.682 233.622C241.287 233.227 240.751 233.005 240.192 233.005V233.005Z" fill="url(#paint1_linear_56_752)"/>
<path d="M479.266 320.865V299.142H466.098V286.332H474.652C478.866 286.332 480.404 284.92 480.404 280.601V269.202H493.193V286.332H512.155V297.162H493.193V324.067H512.155V334.897H494.183C484.07 334.897 479.266 329.061 479.266 320.865Z" fill="white"/>
<path d="M569.296 286.353L547.215 340.734L546.414 342.714C543.591 349.772 539.167 353.712 530.886 353.712H521.3V342.925H529.411C531.687 342.925 533.099 342.166 533.794 340.67C533.947 340.37 534.061 340.052 534.131 339.722L535.985 334.645L534.405 330.747L516.412 286.374H531.371L538.429 306.749L542.854 320.865H543.591L547.805 306.749L555.053 286.332L569.296 286.353Z" fill="white"/>
<path d="M211.747 307.317C213.446 307.317 214.823 305.638 214.823 303.567C214.823 301.496 213.446 299.817 211.747 299.817C210.048 299.817 208.671 301.496 208.671 303.567C208.671 305.638 210.048 307.317 211.747 307.317Z" fill="white"/>
<defs>
<linearGradient id="paint0_linear_56_752" x1="367.92" y1="434.914" x2="367.92" y2="0.0171084" gradientUnits="userSpaceOnUse">
<stop stop-color="#90278E"/>
<stop offset="1" stop-color="#EC297B"/>
</linearGradient>
<linearGradient id="paint1_linear_56_752" x1="203.194" y1="366.649" x2="203.194" y2="233.005" gradientUnits="userSpaceOnUse">
<stop stop-color="#90278E"/>
<stop offset="1" stop-color="#EC297B"/>
</linearGradient>
</defs>
</svg>
