<?xml version="1.0" encoding="UTF-8" standalone="no"?>
<!-- Created with Inkscape (http://www.inkscape.org/) -->

<svg
   version="1.1"
   id="svg1"
   width="433.33334"
   height="353.33334"
   viewBox="0 0 433.33334 353.33334"
   xmlns="http://www.w3.org/2000/svg"
   xmlns:svg="http://www.w3.org/2000/svg">
  <defs
     id="defs1" />
  <g
     id="g1">
    <path
       id="path1"
       d="m 400,2520 c 0,44.18 -35.82,80 -80,80 -44.18,0 -80,-35.82 -80,-80 0,-44.18 35.82,-80 80,-80 44.18,0 80,35.82 80,80"
       style="fill:#80ff80;fill-opacity:1;fill-rule:nonzero;stroke:none"
       transform="matrix(0.13333333,0,0,-0.13333333,0,353.33333)" />
    <path
       id="path2"
       d="m 600,2520 c 0,44.18 -35.82,80 -80,80 -44.18,0 -80,-35.82 -80,-80 0,-44.18 35.82,-80 80,-80 44.18,0 80,35.82 80,80"
       style="fill:#80ff80;fill-opacity:1;fill-rule:nonzero;stroke:none"
       transform="matrix(0.13333333,0,0,-0.13333333,0,353.33333)" />
    <path
       id="path3"
       d="m 800,2520 c 0,44.18 -35.82,80 -80,80 -44.18,0 -80,-35.82 -80,-80 0,-44.18 35.82,-80 80,-80 44.18,0 80,35.82 80,80"
       style="fill:#80ff80;fill-opacity:1;fill-rule:nonzero;stroke:none"
       transform="matrix(0.13333333,0,0,-0.13333333,0,353.33333)" />
    <path
       id="path4"
       d="m 40,2240 h 160 v 160 H 40 Z"
       style="fill:#ff8080;fill-opacity:1;fill-rule:nonzero;stroke:none"
       transform="matrix(0.13333333,0,0,-0.13333333,0,353.33333)" />
    <path
       id="path5"
       d="m 40,2040 h 160 v 160 H 40 Z"
       style="fill:#ff8080;fill-opacity:1;fill-rule:nonzero;stroke:none"
       transform="matrix(0.13333333,0,0,-0.13333333,0,353.33333)" />
    <path
       id="path6"
       d="m 40,1840 h 160 v 160 H 40 Z"
       style="fill:#ff8080;fill-opacity:1;fill-rule:nonzero;stroke:none"
       transform="matrix(0.13333333,0,0,-0.13333333,0,353.33333)" />
    <path
       id="path7"
       d="M 20,20 H 3220 V 2420 H 20 Z"
       style="fill:none;stroke:#000000;stroke-width:12;stroke-linecap:butt;stroke-linejoin:miter;stroke-miterlimit:10;stroke-dasharray:none;stroke-opacity:1"
       transform="matrix(0.13333333,0,0,-0.13333333,0,353.33333)" />
    <path
       id="path8"
       d="M 220,20 H 3220 V 2620 H 220 Z"
       style="fill:none;stroke:#000000;stroke-width:12;stroke-linecap:butt;stroke-linejoin:miter;stroke-miterlimit:10;stroke-dasharray:none;stroke-opacity:1"
       transform="matrix(0.13333333,0,0,-0.13333333,0,353.33333)" />
    <path
       id="path9"
       d="M 20,20 H 3220 M 20,220 H 3220 M 20,420 H 3220 M 20,620 H 3220 M 20,820 H 3220 M 20,1020 H 3220 M 20,1220 H 3220 M 20,1420 H 3220 M 20,1620 H 3220 M 20,1820 H 3220 M 20,2020 H 3220 M 20,2220 H 3220 M 20,2420 H 3220 M 20,2620 h 3200"
       style="fill:none;stroke:#000000;stroke-width:4;stroke-linecap:butt;stroke-linejoin:miter;stroke-miterlimit:10;stroke-dasharray:none;stroke-opacity:1"
       transform="matrix(0.13333333,0,0,-0.13333333,0,353.33333)" />
    <path
       id="path10"
       d="M 20,20 V 2620 M 220,20 V 2620 M 420,20 V 2620 M 620,20 V 2620 M 820,20 V 2620 M 1020,20 V 2620 M 1220,20 V 2620 M 1420,20 V 2620 M 1620,20 V 2620 M 1820,20 V 2620 M 2020,20 V 2620 M 2220,20 V 2620 M 2420,20 V 2620 M 2620,20 V 2620 M 2820,20 V 2620 M 3020,20 V 2620 M 3220,20 v 2600"
       style="fill:none;stroke:#000000;stroke-width:4;stroke-linecap:butt;stroke-linejoin:miter;stroke-miterlimit:10;stroke-dasharray:none;stroke-opacity:1"
       transform="matrix(0.13333333,0,0,-0.13333333,0,353.33333)" />
    <text
       id="text10"
       xml:space="preserve"
       transform="matrix(1.3333333,0,0,1.3333333,38.2188,22.666667)"><tspan
         style="font-variant:normal;font-weight:normal;font-size:12px;font-family:Arial;writing-mode:lr-tb;fill:#000000;fill-opacity:1;fill-rule:nonzero;stroke:none"
         x="0 20.00004 40.00008 58.332119 61.668121 65.00412"
         y="0"
         id="tspan10">123...</tspan><tspan
         style="font-variant:normal;font-weight:normal;font-size:12px;font-family:Arial;writing-mode:lr-tb;fill:#000000;fill-opacity:1;fill-rule:nonzero;stroke:none"
         x="-20"
         y="20"
         id="tspan11">1</tspan><tspan
         style="font-variant:normal;font-weight:normal;font-size:12px;font-family:Arial;writing-mode:lr-tb;fill:#000000;fill-opacity:1;fill-rule:nonzero;stroke:none"
         x="-20"
         y="40"
         id="tspan12">2</tspan><tspan
         style="font-variant:normal;font-weight:normal;font-size:12px;font-family:Arial;writing-mode:lr-tb;fill:#000000;fill-opacity:1;fill-rule:nonzero;stroke:none"
         x="-20"
         y="60"
         id="tspan13">3</tspan><tspan
         style="font-variant:normal;font-weight:normal;font-size:12px;font-family:Arial;writing-mode:lr-tb;fill:#000000;fill-opacity:1;fill-rule:nonzero;stroke:none"
         x="-21.667971 -18.33197 -14.99597"
         y="80"
         id="tspan14">...</tspan><tspan
         style="font-variant:normal;font-weight:normal;font-size:12px;font-family:Arial;writing-mode:lr-tb;fill:#000000;fill-opacity:1;fill-rule:nonzero;stroke:none"
         x="-0.33006999 21.667971 40.000011 60.00005 79.334091 99.004395 119.67007 139.33411 161.66815 179.3342 198.66817 219.00418 239.99986 258.66782 279.33383"
         y="20"
         id="tspan15">FILLERFSIKQDLOS</tspan><tspan
         style="font-variant:normal;font-weight:normal;font-size:12px;font-family:Arial;writing-mode:lr-tb;fill:#000000;fill-opacity:1;fill-rule:nonzero;stroke:none"
         x="8e-06 19.669928 39.00433 61.668369 79.334412 100.00045 118.33873 139.33473 159.33472 179.33472 199.3347 218.66869 239.33469 260.00073 279.33478"
         y="40"
         id="tspan16">3THIS1MESSAGE7X</tspan><tspan
         style="font-variant:normal;font-weight:normal;font-size:12px;font-family:Arial;writing-mode:lr-tb;fill:#000000;fill-opacity:1;fill-rule:nonzero;stroke:none"
         x="-0.99569499 19.669985 40.000027 61.667946 79.333984 99.333977 119.33397 140.00002 159.00429 179.33398 199.00429 219.99997 238.66794 261.66797 278.668"
         y="60"
         id="tspan17">DF2ISXA8RED6QIO</tspan><tspan
         style="font-variant:normal;font-weight:normal;font-size:12px;font-family:Arial;writing-mode:lr-tb;fill:#000000;fill-opacity:1;fill-rule:nonzero;stroke:none"
         x="-0.66600698 19.004309 39.334 59.004318 79.004318 101.66836 119.0044 138.66841 160.00043 179.33447 199.33446 218.66844 239.00446 260.00012 279.00439"
         y="80"
         id="tspan18">XHERRING1EKOU3C</tspan><tspan
         style="font-variant:normal;font-weight:normal;font-size:12px;font-family:Arial;writing-mode:lr-tb;fill:#000000;fill-opacity:1;fill-rule:nonzero;stroke:none"
         x="9.0000003e-06 20.33593 39.00433 59.334023 79.669945 99.333984 119.33398 139.33397 159.33395 179.00426 199.99994 219.66986 239.99991 261.66782 278.66785"
         y="100"
         id="tspan19">7JUSTXBPACLT1IQ</tspan><tspan
         style="font-variant:normal;font-weight:normal;font-size:12px;font-family:Arial;writing-mode:lr-tb;fill:#000000;fill-opacity:1;fill-rule:nonzero;stroke:none"
         x="9.0000003e-06 19.334049 38.668041 60.000069 79.334106 99.334099 120.00014 139.33418 159.33417 179.33417 200.0002 219.00449 238.33847 260.00021 279.33426"
         y="120"
         id="tspan20">4SOLVE2BSYLRM9E</tspan><tspan
         style="font-variant:normal;font-weight:normal;font-size:12px;font-family:Arial;writing-mode:lr-tb;fill:#000000;fill-opacity:1;fill-rule:nonzero;stroke:none"
         x="-0.33006901 19.004332 39.334023 60.000065 78.66803 99.004036 121.66808 139.00412 159.3338 179.3338 199.0041 219.66978 241.66782 258.66788 279.33386"
         y="140"
         id="tspan21">THE6GRIDSXRTIOA</tspan><tspan
         style="font-variant:normal;font-weight:normal;font-size:12px;font-family:Arial;writing-mode:lr-tb;fill:#000000;fill-opacity:1;fill-rule:nonzero;stroke:none"
         x="-0.99569398 19.333998 39.334003 59.334007 80.000046 99.004326 119.33401 139.33401 160.00005 180.00009 199.33414 220.00017 240.00021 259.33426 279.00455"
         y="160"
         id="tspan22">UEBB1REALLY27SU</tspan><tspan
         style="font-variant:normal;font-weight:normal;font-size:12px;font-family:Arial;writing-mode:lr-tb;fill:#000000;fill-opacity:1;fill-rule:nonzero;stroke:none"
         x="-2.327724 21.667955 39.333996 59.334 79.334007 99.669922 119.00433 139.33401 158.668 179.33401 200.00005 219.33409 239.33409 260.336 279.33405"
         y="180"
         id="tspan23">WIKPATDAOX1BAJK</tspan><tspan
         style="font-variant:normal;font-weight:normal;font-size:12px;font-family:Arial;writing-mode:lr-tb;fill:#000000;fill-opacity:1;fill-rule:nonzero;stroke:none"
         x="-0.99569398 19.004311 39.004314 61.668354 78.668396 99.334412 119.00471 140.0004 158.66837 178.66837 199.33437 219.00467 241.66872 259.33475 280.00079"
         y="200"
         id="tspan24">RDUIOPNLOQSDIE6</tspan><tspan
         style="font-variant:normal;font-weight:normal;font-size:12px;font-family:Arial;writing-mode:lr-tb;fill:#000000;fill-opacity:1;fill-rule:nonzero;stroke:none"
         x="-0.66600603 19.333998 39.004314 59.004318 79.334007 99.66993 119.33397 139.00427 158.66827 180.00031 200.00035 219.00462 238.66862 259.00464 281.66867"
         y="220"
         id="tspan25">ABCDEFXDQ35RGCI</tspan><tspan
         style="font-variant:normal;font-weight:normal;font-size:12px;font-family:Arial;writing-mode:lr-tb;fill:#000000;fill-opacity:1;fill-rule:nonzero;stroke:none"
         x="9.9999997e-06 19.00429 38.668293 59.334309 79.004623 99.33432 119.33431 139.3343 159.33429 179.00459 199.67027 218.33862 238.66832 259.33432 279.67026"
         y="240"
         id="tspan26">LDOBUPAAERTMOSF</tspan></text>
  </g>
</svg>
