<?xml version="1.0" encoding="UTF-8" standalone="no"?>
<!-- Created with Inkscape (http://www.inkscape.org/) -->

<svg
   version="1.1"
   id="svg1"
   width="273.33334"
   height="286.66666"
   viewBox="0 0 273.33334 286.66666"
   xmlns="http://www.w3.org/2000/svg"
   xmlns:svg="http://www.w3.org/2000/svg">
  <defs
     id="defs1" />
  <g
     id="g1">
    <text
       id="text1"
       xml:space="preserve"
       transform="matrix(1.3333333,0,0,1.3333333,13.478667,12)"><tspan
         style="font-variant:normal;font-weight:normal;font-size:8px;font-family:Arial;writing-mode:lr-tb;fill:#000000;fill-opacity:1;fill-rule:nonzero;stroke:none"
         x="0 2.664 7.112 9.776 14.224 16.888 19.112"
         y="0"
         id="tspan1">[1-7] +</tspan></text>
    <path
       id="path1"
       d="m 380,2050 h 60 v 60 h -60 z"
       style="fill:#000000;fill-opacity:1;fill-rule:nonzero;stroke:none"
       transform="matrix(0.13333333,0,0,-0.13333333,0,286.66667)" />
    <path
       id="path2"
       d="m 470,2050 h 60 v 60 h -60 z"
       style="fill:#000000;fill-opacity:1;fill-rule:nonzero;stroke:none"
       transform="matrix(0.13333333,0,0,-0.13333333,0,286.66667)" />
    <path
       id="path3"
       d="M 220,20 H 2020 M 220,620 H 2020 M 220,1220 H 2020 M 220,1820 h 1800"
       style="fill:none;stroke:#000000;stroke-width:18;stroke-linecap:butt;stroke-linejoin:miter;stroke-miterlimit:10;stroke-dasharray:none;stroke-opacity:1"
       transform="matrix(0.13333333,0,0,-0.13333333,0,286.66667)" />
    <path
       id="path4"
       d="M 220,20 V 1820 M 820,20 V 1820 M 1420,20 V 1820 M 2020,20 v 1800"
       style="fill:none;stroke:#000000;stroke-width:18;stroke-linecap:butt;stroke-linejoin:miter;stroke-miterlimit:10;stroke-dasharray:none;stroke-opacity:1"
       transform="matrix(0.13333333,0,0,-0.13333333,0,286.66667)" />
    <path
       id="path5"
       d="M 220,20 H 2020 M 220,220 H 2020 M 220,420 H 2020 M 220,620 H 2020 M 220,820 H 2020 M 220,1020 H 2020 M 220,1220 H 2020 M 220,1420 H 2020 M 220,1620 H 2020 M 220,1820 h 1800"
       style="fill:none;stroke:#000000;stroke-width:4;stroke-linecap:butt;stroke-linejoin:miter;stroke-miterlimit:10;stroke-dasharray:none;stroke-opacity:1"
       transform="matrix(0.13333333,0,0,-0.13333333,0,286.66667)" />
    <path
       id="path6"
       d="M 220,20 V 1820 M 420,20 V 1820 M 620,20 V 1820 M 820,20 V 1820 M 1020,20 V 1820 M 1220,20 V 1820 M 1420,20 V 1820 M 1620,20 V 1820 M 1820,20 V 1820 M 2020,20 v 1800"
       style="fill:none;stroke:#000000;stroke-width:4;stroke-linecap:butt;stroke-linejoin:miter;stroke-miterlimit:10;stroke-dasharray:none;stroke-opacity:1"
       transform="matrix(0.13333333,0,0,-0.13333333,0,286.66667)" />
    <path
       id="path7"
       d="m 870,1850 h 139.996 v 140 H 870 Z"
       style="fill:#ff8080;fill-opacity:1;fill-rule:nonzero;stroke:none"
       transform="matrix(0.13333333,0,0,-0.13333333,0,286.66667)" />
    <path
       id="path8"
       d="m 410,1920 c 0,38.66 -31.344,70 -70,70 -38.656,0 -70,-31.34 -70,-70 0,-38.66 31.344,-70 70,-70 38.656,0 70,31.34 70,70"
       style="fill:#80ff80;fill-opacity:1;fill-rule:nonzero;stroke:none"
       transform="matrix(0.13333333,0,0,-0.13333333,0,286.66667)" />
    <text
       id="text8"
       xml:space="preserve"
       transform="matrix(1.3333333,0,0,1.3333333,40.4428,36)"><tspan
         style="font-variant:normal;font-weight:normal;font-size:12px;font-family:Arial;writing-mode:lr-tb;fill:#000000;fill-opacity:1;fill-rule:nonzero;stroke:none"
         x="0 18.331968 40.000008 56.664013 60.000011 74.99604 81.668037 96.664017 100.00002 114.99606 121.66806 136.66405 140.00005 154.99608 161.66808"
         y="0"
         id="tspan8">? 1 ?23 521 020</tspan><tspan
         style="font-variant:normal;font-weight:normal;font-size:12px;font-family:Arial;writing-mode:lr-tb;fill:#000000;fill-opacity:1;fill-rule:nonzero;stroke:none"
         x="-21.667999"
         y="20"
         id="tspan9">2</tspan><tspan
         style="font-variant:normal;font-weight:normal;font-size:12px;font-family:Arial;writing-mode:lr-tb;fill:#000000;fill-opacity:1;fill-rule:nonzero;stroke:none"
         x="-25.003941 -18.33194"
         y="40"
         id="tspan10">19</tspan><tspan
         style="font-variant:normal;font-weight:normal;font-size:12px;font-family:Arial;writing-mode:lr-tb;fill:#000000;fill-opacity:1;fill-rule:nonzero;stroke:none"
         x="-21.667999"
         y="60"
         id="tspan11">1</tspan><tspan
         style="font-variant:normal;font-weight:normal;font-size:12px;font-family:Arial;writing-mode:lr-tb;fill:#000000;fill-opacity:1;fill-rule:nonzero;stroke:none"
         x="-25.003941 -18.33194"
         y="100"
         id="tspan12">21</tspan><tspan
         style="font-variant:normal;font-weight:normal;font-size:12px;font-family:Arial;writing-mode:lr-tb;fill:#000000;fill-opacity:1;fill-rule:nonzero;stroke:none"
         x="-21.667999"
         y="120"
         id="tspan13">6</tspan><tspan
         style="font-variant:normal;font-weight:normal;font-size:12px;font-family:Arial;writing-mode:lr-tb;fill:#000000;fill-opacity:1;fill-rule:nonzero;stroke:none"
         x="-25.003941 -18.33194"
         y="140"
         id="tspan14">11</tspan><tspan
         style="font-variant:normal;font-weight:normal;font-size:12px;font-family:Arial;writing-mode:lr-tb;fill:#000000;fill-opacity:1;fill-rule:nonzero;stroke:none"
         x="-25.003941 -18.33194"
         y="180"
         id="tspan15">22</tspan><tspan
         style="font-variant:normal;font-weight:normal;font-size:12px;font-family:Arial;writing-mode:lr-tb;fill:#000000;fill-opacity:1;fill-rule:nonzero;stroke:none"
         x="-1.66804"
         y="20"
         id="tspan16">6</tspan><tspan
         style="font-variant:normal;font-weight:normal;font-size:12px;font-family:Arial;writing-mode:lr-tb;fill:#000000;fill-opacity:1;fill-rule:nonzero;stroke:none"
         x="-7.0000002e-05 138.33221"
         y="60"
         id="tspan17"> 3</tspan><tspan
         style="font-variant:normal;font-weight:normal;font-size:12px;font-family:Arial;writing-mode:lr-tb;fill:#000000;fill-opacity:1;fill-rule:nonzero;stroke:none"
         x="-7.0000002e-05 118.33217"
         y="80"
         id="tspan18"> 6</tspan><tspan
         style="font-variant:normal;font-weight:normal;font-size:12px;font-family:Arial;writing-mode:lr-tb;fill:#000000;fill-opacity:1;fill-rule:nonzero;stroke:none"
         x="-1.66804 19.99988 58.331959"
         y="160"
         id="tspan19">3 6</tspan></text>
  </g>
</svg>
