<?xml version="1.0" encoding="UTF-8" standalone="no"?>
<!-- Created with Inkscape (http://www.inkscape.org/) -->

<svg
   version="1.1"
   id="svg1"
   width="353.33334"
   height="366.66666"
   viewBox="0 0 353.33334 366.66666"
   xmlns="http://www.w3.org/2000/svg"
   xmlns:svg="http://www.w3.org/2000/svg">
  <defs
     id="defs1" />
  <g
     id="g1">
    <text
       id="text1"
       xml:space="preserve"
       transform="matrix(1.3333333,0,0,1.3333333,19.384933,12)"><tspan
         style="font-variant:normal;font-weight:normal;font-size:8px;font-family:Arial;writing-mode:lr-tb;fill:#000000;fill-opacity:1;fill-rule:nonzero;stroke:none"
         x="0 2.664 7.112 9.776 14.224 18.672001 21.336 32.456001 37.344002 42.015999 45.127998 49.576 51.799999 56.248001 58.472 62.919998 65.143997 67.367996 69.592003 71.816002"
         y="0"
         id="tspan1">[1-45] ?={1,2,3,...}</tspan></text>
    <path
       id="path1"
       d="m 1020,1020 h 200 v 200 h -200 z"
       style="fill:#b2b2b2;fill-opacity:1;fill-rule:nonzero;stroke:none"
       transform="matrix(0.13333333,0,0,-0.13333333,0,366.66667)" />
    <path
       id="path2"
       d="m 1620,2020 h 200 v 200 h -200 z"
       style="fill:#b2b2b2;fill-opacity:1;fill-rule:nonzero;stroke:none"
       transform="matrix(0.13333333,0,0,-0.13333333,0,366.66667)" />
    <path
       id="path3"
       d="M 220,20 H 2620 V 2420 H 220 Z"
       style="fill:none;stroke:#000000;stroke-width:16;stroke-linecap:butt;stroke-linejoin:miter;stroke-miterlimit:10;stroke-dasharray:none;stroke-opacity:1"
       transform="matrix(0.13333333,0,0,-0.13333333,0,366.66667)" />
    <path
       id="path4"
       d="M 220,20 H 2620 M 220,220 H 2620 M 220,420 H 2620 M 220,620 H 2620 M 220,820 H 2620 M 220,1020 H 2620 M 220,1220 H 2620 M 220,1420 H 2620 M 220,1620 H 2620 M 220,1820 H 2620 M 220,2020 H 2620 M 220,2220 H 2620 M 220,2420 h 2400"
       style="fill:none;stroke:#000000;stroke-width:4;stroke-linecap:butt;stroke-linejoin:miter;stroke-miterlimit:10;stroke-dasharray:none;stroke-opacity:1"
       transform="matrix(0.13333333,0,0,-0.13333333,0,366.66667)" />
    <path
       id="path5"
       d="M 220,20 V 2420 M 420,20 V 2420 M 620,20 V 2420 M 820,20 V 2420 M 1020,20 V 2420 M 1220,20 V 2420 M 1420,20 V 2420 M 1620,20 V 2420 M 1820,20 V 2420 M 2020,20 V 2420 M 2220,20 V 2420 M 2420,20 V 2420 M 2620,20 v 2400"
       style="fill:none;stroke:#000000;stroke-width:4;stroke-linecap:butt;stroke-linejoin:miter;stroke-miterlimit:10;stroke-dasharray:none;stroke-opacity:1"
       transform="matrix(0.13333333,0,0,-0.13333333,0,366.66667)" />
    <path
       id="path6"
       d="m 50,1450 h 140 v 140 H 50 Z"
       style="fill:#ff8080;fill-opacity:1;fill-rule:nonzero;stroke:none"
       transform="matrix(0.13333333,0,0,-0.13333333,0,366.66667)" />
    <path
       id="path7"
       d="m 200,2320 c 0,44.18 -35.82,80 -80,80 -44.1797,0 -80,-35.82 -80,-80 0,-44.18 35.8203,-80 80,-80 44.18,0 80,35.82 80,80"
       style="fill:#80ff80;fill-opacity:1;fill-rule:nonzero;stroke:none"
       transform="matrix(0.13333333,0,0,-0.13333333,0,366.66667)" />
    <text
       id="text7"
       xml:space="preserve"
       transform="matrix(1.3333333,0,0,1.3333333,7.1041733,356)"><tspan
         style="font-variant:normal;font-weight:normal;font-size:12px;font-family:Arial;writing-mode:lr-tb;fill:#000000;fill-opacity:1;fill-rule:nonzero;stroke:none"
         x="0 6.6719999"
         y="0"
         id="tspan7">30</tspan><tspan
         style="font-variant:normal;font-weight:normal;font-size:12px;font-family:Arial;writing-mode:lr-tb;fill:#000000;fill-opacity:1;fill-rule:nonzero;stroke:none"
         x="3.3359399"
         y="-40"
         id="tspan8">?</tspan><tspan
         style="font-variant:normal;font-weight:normal;font-size:12px;font-family:Arial;writing-mode:lr-tb;fill:#000000;fill-opacity:1;fill-rule:nonzero;stroke:none"
         x="0 6.6719999"
         y="-80"
         id="tspan9">34</tspan><tspan
         style="font-variant:normal;font-weight:normal;font-size:12px;font-family:Arial;writing-mode:lr-tb;fill:#000000;fill-opacity:1;fill-rule:nonzero;stroke:none"
         x="3.3359399"
         y="-140"
         id="tspan10">?</tspan><tspan
         style="font-variant:normal;font-weight:normal;font-size:12px;font-family:Arial;writing-mode:lr-tb;fill:#000000;fill-opacity:1;fill-rule:nonzero;stroke:none"
         x="3.3359399"
         y="-220"
         id="tspan11">?</tspan><tspan
         style="font-variant:normal;font-weight:normal;font-size:12px;font-family:Arial;writing-mode:lr-tb;fill:#000000;fill-opacity:1;fill-rule:nonzero;stroke:none"
         x="20.00004 26.672041 40.000046 46.672043 199.99965 206.67165 239.9996 246.6716"
         y="-240"
         id="tspan12">42411918</tspan><tspan
         style="font-variant:normal;font-weight:normal;font-size:12px;font-family:Arial;writing-mode:lr-tb;fill:#000000;fill-opacity:1;fill-rule:nonzero;stroke:none"
         x="123.33604"
         y="-140"
         id="tspan13">1</tspan><tspan
         style="font-variant:normal;font-weight:normal;font-size:12px;font-family:Arial;writing-mode:lr-tb;fill:#000000;fill-opacity:1;fill-rule:nonzero;stroke:none"
         x="60.000141 66.672142"
         y="-40"
         id="tspan14">45</tspan></text>
  </g>
</svg>
