<?xml version="1.0" encoding="UTF-8" standalone="no"?>
<!-- Created with Inkscape (http://www.inkscape.org/) -->

<svg
   version="1.1"
   id="svg1"
   width="246.66667"
   height="246.66667"
   viewBox="0 0 246.66667 246.66667"
   xmlns="http://www.w3.org/2000/svg"
   xmlns:svg="http://www.w3.org/2000/svg">
  <defs
     id="defs1" />
  <g
     id="g1">
    <path
       id="path1"
       d="M 620,20 H 1820 V 1220 H 620 Z"
       style="fill:none;stroke:#000000;stroke-width:12;stroke-linecap:butt;stroke-linejoin:miter;stroke-miterlimit:10;stroke-dasharray:none;stroke-opacity:1"
       transform="matrix(0.13333333,0,0,-0.13333333,0,246.66667)" />
    <path
       id="path2"
       d="M 620,20 H 1820 M 620,220 H 1820 M 620,420 H 1820 M 620,620 H 1820 M 620,820 H 1820 M 620,1020 H 1820 M 620,1220 h 1200"
       style="fill:none;stroke:#000000;stroke-width:6;stroke-linecap:butt;stroke-linejoin:miter;stroke-miterlimit:10;stroke-dasharray:none;stroke-opacity:1"
       transform="matrix(0.13333333,0,0,-0.13333333,0,246.66667)" />
    <path
       id="path3"
       d="M 620,20 V 1220 M 820,20 V 1220 M 1020,20 V 1220 M 1220,20 V 1220 M 1420,20 V 1220 M 1620,20 V 1220 M 1820,20 v 1200"
       style="fill:none;stroke:#000000;stroke-width:6;stroke-linecap:butt;stroke-linejoin:miter;stroke-miterlimit:10;stroke-dasharray:none;stroke-opacity:1"
       transform="matrix(0.13333333,0,0,-0.13333333,0,246.66667)" />
    <text
       id="text3"
       xml:space="preserve"
       transform="matrix(1.3333333,0,0,1.3333333,40.442784,102.66667)"><tspan
         style="font-variant:normal;font-weight:normal;font-size:12px;font-family:Arial;writing-mode:lr-tb;fill:#000000;fill-opacity:1;fill-rule:nonzero;stroke:none"
         x="0 16.664003 20.000004"
         y="0"
         id="tspan3">4 1</tspan><tspan
         style="font-variant:normal;font-weight:normal;font-size:12px;font-family:Arial;writing-mode:lr-tb;fill:#000000;fill-opacity:1;fill-rule:nonzero;stroke:none"
         x="-22.334044 -18.998043 -3.3359921 8e-06 17.665964 21.001965"
         y="20"
         id="tspan4"> * 3 *</tspan><tspan
         style="font-variant:normal;font-weight:normal;font-size:12px;font-family:Arial;writing-mode:lr-tb;fill:#000000;fill-opacity:1;fill-rule:nonzero;stroke:none"
         x="-23.335995 -19.999994 -3.33599 9.9999997e-06 16.664015 20.000013"
         y="40"
         id="tspan5"> 2 ? 1</tspan><tspan
         style="font-variant:normal;font-weight:normal;font-size:12px;font-family:Arial;writing-mode:lr-tb;fill:#000000;fill-opacity:1;fill-rule:nonzero;stroke:none"
         x="-21.668024 4e-06 16.664007 20.000008"
         y="60"
         id="tspan6"> 2 2</tspan><tspan
         style="font-variant:normal;font-weight:normal;font-size:12px;font-family:Arial;writing-mode:lr-tb;fill:#000000;fill-opacity:1;fill-rule:nonzero;stroke:none"
         x="-21.668024 4e-06 16.664007 20.000008"
         y="80"
         id="tspan7"> 1 3</tspan><tspan
         style="font-variant:normal;font-weight:normal;font-size:12px;font-family:Arial;writing-mode:lr-tb;fill:#000000;fill-opacity:1;fill-rule:nonzero;stroke:none"
         x="-21.668024 20.000044"
         y="100"
         id="tspan8"> 5</tspan><tspan
         style="font-variant:normal;font-weight:normal;font-size:12px;font-family:Arial;writing-mode:lr-tb;fill:#000000;fill-opacity:1;fill-rule:nonzero;stroke:none"
         x="38.331978 80.000053"
         y="-60"
         id="tspan9"> 2</tspan><tspan
         style="font-variant:normal;font-weight:normal;font-size:12px;font-family:Arial;writing-mode:lr-tb;fill:#000000;fill-opacity:1;fill-rule:nonzero;stroke:none"
         x="38.331978 60.000015 76.664017 80.000023 96.664024 100.00002 116.66402 120.00003"
         y="-40"
         id="tspan10"> ? 1 3 1</tspan><tspan
         style="font-variant:normal;font-weight:normal;font-size:12px;font-family:Arial;writing-mode:lr-tb;fill:#000000;fill-opacity:1;fill-rule:nonzero;stroke:none"
         x="36.664005 40.000008 56.664009 60.000011 76.664017 80.000015 96.664017 100.00002 117.66598 121.00198 137.66597 141.00197"
         y="-20"
         id="tspan11"> ? 4 1 2 * *</tspan></text>
    <path
       id="path11"
       d="m 620,1020 h 200 v 200 H 620 Z"
       style="fill:#000000;fill-opacity:1;fill-rule:nonzero;stroke:none"
       transform="matrix(0.13333333,0,0,-0.13333333,0,246.66667)" />
    <path
       id="path12"
       d="m 820,1020 h 200 v 200 H 820 Z"
       style="fill:#000000;fill-opacity:1;fill-rule:nonzero;stroke:none"
       transform="matrix(0.13333333,0,0,-0.13333333,0,246.66667)" />
    <path
       id="path13"
       d="m 1020,1020 h 200 v 200 h -200 z"
       style="fill:#000000;fill-opacity:1;fill-rule:nonzero;stroke:none"
       transform="matrix(0.13333333,0,0,-0.13333333,0,246.66667)" />
    <path
       id="path14"
       d="m 1220,1020 h 200 v 200 h -200 z"
       style="fill:#000000;fill-opacity:1;fill-rule:nonzero;stroke:none"
       transform="matrix(0.13333333,0,0,-0.13333333,0,246.66667)" />
    <path
       id="path15"
       d="m 1620,1020 h 200 v 200 h -200 z"
       style="fill:#000000;fill-opacity:1;fill-rule:nonzero;stroke:none"
       transform="matrix(0.13333333,0,0,-0.13333333,0,246.66667)" />
    <path
       id="path16"
       d="m 620,820 h 200 v 200 H 620 Z"
       style="fill:#000000;fill-opacity:1;fill-rule:nonzero;stroke:none"
       transform="matrix(0.13333333,0,0,-0.13333333,0,246.66667)" />
    <path
       id="path17"
       d="m 1020,820 h 200 v 200 h -200 z"
       style="fill:#000000;fill-opacity:1;fill-rule:nonzero;stroke:none"
       transform="matrix(0.13333333,0,0,-0.13333333,0,246.66667)" />
    <path
       id="path18"
       d="m 1220,820 h 200 v 200 h -200 z"
       style="fill:#000000;fill-opacity:1;fill-rule:nonzero;stroke:none"
       transform="matrix(0.13333333,0,0,-0.13333333,0,246.66667)" />
    <path
       id="path19"
       d="m 1420,820 h 200 v 200 h -200 z"
       style="fill:#000000;fill-opacity:1;fill-rule:nonzero;stroke:none"
       transform="matrix(0.13333333,0,0,-0.13333333,0,246.66667)" />
    <path
       id="path20"
       d="M 620,620 H 820 V 820 H 620 Z"
       style="fill:#000000;fill-opacity:1;fill-rule:nonzero;stroke:none"
       transform="matrix(0.13333333,0,0,-0.13333333,0,246.66667)" />
    <path
       id="path21"
       d="m 820,620 h 200 V 820 H 820 Z"
       style="fill:#000000;fill-opacity:1;fill-rule:nonzero;stroke:none"
       transform="matrix(0.13333333,0,0,-0.13333333,0,246.66667)" />
    <path
       id="path22"
       d="m 1220,620 h 200 v 200 h -200 z"
       style="fill:#000000;fill-opacity:1;fill-rule:nonzero;stroke:none"
       transform="matrix(0.13333333,0,0,-0.13333333,0,246.66667)" />
    <path
       id="path23"
       d="m 1620,620 h 200 v 200 h -200 z"
       style="fill:#000000;fill-opacity:1;fill-rule:nonzero;stroke:none"
       transform="matrix(0.13333333,0,0,-0.13333333,0,246.66667)" />
    <path
       id="path24"
       d="m 820,420 h 200 V 620 H 820 Z"
       style="fill:#000000;fill-opacity:1;fill-rule:nonzero;stroke:none"
       transform="matrix(0.13333333,0,0,-0.13333333,0,246.66667)" />
    <path
       id="path25"
       d="m 1020,420 h 200 v 200 h -200 z"
       style="fill:#000000;fill-opacity:1;fill-rule:nonzero;stroke:none"
       transform="matrix(0.13333333,0,0,-0.13333333,0,246.66667)" />
    <path
       id="path26"
       d="m 1420,420 h 200 v 200 h -200 z"
       style="fill:#000000;fill-opacity:1;fill-rule:nonzero;stroke:none"
       transform="matrix(0.13333333,0,0,-0.13333333,0,246.66667)" />
    <path
       id="path27"
       d="m 1620,420 h 200 v 200 h -200 z"
       style="fill:#000000;fill-opacity:1;fill-rule:nonzero;stroke:none"
       transform="matrix(0.13333333,0,0,-0.13333333,0,246.66667)" />
    <path
       id="path28"
       d="m 820,220 h 200 V 420 H 820 Z"
       style="fill:#000000;fill-opacity:1;fill-rule:nonzero;stroke:none"
       transform="matrix(0.13333333,0,0,-0.13333333,0,246.66667)" />
    <path
       id="path29"
       d="m 1220,220 h 200 v 200 h -200 z"
       style="fill:#000000;fill-opacity:1;fill-rule:nonzero;stroke:none"
       transform="matrix(0.13333333,0,0,-0.13333333,0,246.66667)" />
    <path
       id="path30"
       d="m 1420,220 h 200 v 200 h -200 z"
       style="fill:#000000;fill-opacity:1;fill-rule:nonzero;stroke:none"
       transform="matrix(0.13333333,0,0,-0.13333333,0,246.66667)" />
    <path
       id="path31"
       d="m 1620,220 h 200 v 200 h -200 z"
       style="fill:#000000;fill-opacity:1;fill-rule:nonzero;stroke:none"
       transform="matrix(0.13333333,0,0,-0.13333333,0,246.66667)" />
    <path
       id="path32"
       d="m 820,20 h 200 V 220 H 820 Z"
       style="fill:#000000;fill-opacity:1;fill-rule:nonzero;stroke:none"
       transform="matrix(0.13333333,0,0,-0.13333333,0,246.66667)" />
    <path
       id="path33"
       d="m 1020,20 h 200 v 200 h -200 z"
       style="fill:#000000;fill-opacity:1;fill-rule:nonzero;stroke:none"
       transform="matrix(0.13333333,0,0,-0.13333333,0,246.66667)" />
    <path
       id="path34"
       d="m 1220,20 h 200 v 200 h -200 z"
       style="fill:#000000;fill-opacity:1;fill-rule:nonzero;stroke:none"
       transform="matrix(0.13333333,0,0,-0.13333333,0,246.66667)" />
    <path
       id="path35"
       d="m 1420,20 h 200 v 200 h -200 z"
       style="fill:#000000;fill-opacity:1;fill-rule:nonzero;stroke:none"
       transform="matrix(0.13333333,0,0,-0.13333333,0,246.66667)" />
    <path
       id="path36"
       d="m 1620,20 h 200 v 200 h -200 z"
       style="fill:#000000;fill-opacity:1;fill-rule:nonzero;stroke:none"
       transform="matrix(0.13333333,0,0,-0.13333333,0,246.66667)" />
  </g>
</svg>
