<?xml version="1.0" encoding="UTF-8" standalone="no"?>
<!-- Created with Inkscape (http://www.inkscape.org/) -->

<svg
   version="1.1"
   id="svg1"
   width="273.33334"
   height="273.33334"
   viewBox="0 0 273.33334 273.33334"
   xmlns="http://www.w3.org/2000/svg"
   xmlns:svg="http://www.w3.org/2000/svg">
  <defs
     id="defs1" />
  <g
     id="g1">
    <path
       id="path1"
       d="M 20,20 H 2020 V 2020 H 20 Z"
       style="fill:none;stroke:#000000;stroke-width:8;stroke-linecap:butt;stroke-linejoin:miter;stroke-miterlimit:10;stroke-dasharray:none;stroke-opacity:1"
       transform="matrix(0.13333333,0,0,-0.13333333,0,273.33333)" />
    <path
       id="path2"
       d="m 20,1820 h 400 v 200 H 20 Z"
       style="fill:#000000;fill-opacity:1;fill-rule:nonzero;stroke:none"
       transform="matrix(0.13333333,0,0,-0.13333333,0,273.33333)" />
    <path
       id="path3"
       d="m 420,1820 h 200 v 200 H 420 Z"
       style="fill:#000000;fill-opacity:1;fill-rule:nonzero;stroke:none"
       transform="matrix(0.13333333,0,0,-0.13333333,0,273.33333)" />
    <path
       id="path4"
       d="M 420,2020 620,1820"
       style="fill:none;stroke:#ffffff;stroke-width:8;stroke-linecap:butt;stroke-linejoin:miter;stroke-miterlimit:10;stroke-dasharray:none;stroke-opacity:1"
       transform="matrix(0.13333333,0,0,-0.13333333,0,273.33333)" />
    <text
       id="text4"
       xml:space="preserve"
       transform="matrix(1.3333333,0,0,1.3333333,59.403067,28)"><tspan
         style="font-variant:normal;font-weight:normal;font-size:8px;font-family:Arial;writing-mode:lr-tb;fill:#ffffff;fill-opacity:1;fill-rule:nonzero;stroke:none"
         x="0 4.448"
         y="0"
         id="tspan4">45</tspan></text>
    <path
       id="path5"
       d="m 620,1820 h 200 v 200 H 620 Z"
       style="fill:#000000;fill-opacity:1;fill-rule:nonzero;stroke:none"
       transform="matrix(0.13333333,0,0,-0.13333333,0,273.33333)" />
    <path
       id="path6"
       d="M 620,2020 820,1820"
       style="fill:none;stroke:#ffffff;stroke-width:8;stroke-linecap:butt;stroke-linejoin:miter;stroke-miterlimit:10;stroke-dasharray:none;stroke-opacity:1"
       transform="matrix(0.13333333,0,0,-0.13333333,0,273.33333)" />
    <text
       id="text6"
       xml:space="preserve"
       transform="matrix(1.3333333,0,0,1.3333333,86.069733,28)"><tspan
         style="font-variant:normal;font-weight:normal;font-size:8px;font-family:Arial;writing-mode:lr-tb;fill:#ffffff;fill-opacity:1;fill-rule:nonzero;stroke:none"
         x="0 4.448"
         y="0"
         id="tspan6">16</tspan></text>
    <path
       id="path7"
       d="m 820,1820 h 200 v 200 H 820 Z"
       style="fill:#000000;fill-opacity:1;fill-rule:nonzero;stroke:none"
       transform="matrix(0.13333333,0,0,-0.13333333,0,273.33333)" />
    <path
       id="path8"
       d="m 820,2020 200,-200"
       style="fill:none;stroke:#ffffff;stroke-width:8;stroke-linecap:butt;stroke-linejoin:miter;stroke-miterlimit:10;stroke-dasharray:none;stroke-opacity:1"
       transform="matrix(0.13333333,0,0,-0.13333333,0,273.33333)" />
    <text
       id="text8"
       xml:space="preserve"
       transform="matrix(1.3333333,0,0,1.3333333,112.7364,28)"><tspan
         style="font-variant:normal;font-weight:normal;font-size:8px;font-family:Arial;writing-mode:lr-tb;fill:#ffffff;fill-opacity:1;fill-rule:nonzero;stroke:none"
         x="0 4.448"
         y="0"
         id="tspan8">28</tspan></text>
    <path
       id="path9"
       d="m 1020,1820 h 200 v 200 h -200 z"
       style="fill:#000000;fill-opacity:1;fill-rule:nonzero;stroke:none"
       transform="matrix(0.13333333,0,0,-0.13333333,0,273.33333)" />
    <path
       id="path10"
       d="m 1220,1820 h 200 v 200 h -200 z"
       style="fill:#000000;fill-opacity:1;fill-rule:nonzero;stroke:none"
       transform="matrix(0.13333333,0,0,-0.13333333,0,273.33333)" />
    <path
       id="path11"
       d="m 1220,2020 200,-200"
       style="fill:none;stroke:#ffffff;stroke-width:8;stroke-linecap:butt;stroke-linejoin:miter;stroke-miterlimit:10;stroke-dasharray:none;stroke-opacity:1"
       transform="matrix(0.13333333,0,0,-0.13333333,0,273.33333)" />
    <text
       id="text11"
       xml:space="preserve"
       transform="matrix(1.3333333,0,0,1.3333333,169.03467,28)"><tspan
         style="font-variant:normal;font-weight:normal;font-size:8px;font-family:Arial;writing-mode:lr-tb;fill:#ffffff;fill-opacity:1;fill-rule:nonzero;stroke:none"
         x="0"
         y="0"
         id="tspan11">8</tspan></text>
    <path
       id="path12"
       d="m 1420,1820 h 200 v 200 h -200 z"
       style="fill:#000000;fill-opacity:1;fill-rule:nonzero;stroke:none"
       transform="matrix(0.13333333,0,0,-0.13333333,0,273.33333)" />
    <path
       id="path13"
       d="m 1420,2020 200,-200"
       style="fill:none;stroke:#ffffff;stroke-width:8;stroke-linecap:butt;stroke-linejoin:miter;stroke-miterlimit:10;stroke-dasharray:none;stroke-opacity:1"
       transform="matrix(0.13333333,0,0,-0.13333333,0,273.33333)" />
    <text
       id="text13"
       xml:space="preserve"
       transform="matrix(1.3333333,0,0,1.3333333,195.408,28)"><tspan
         style="font-variant:normal;font-weight:normal;font-size:8px;font-family:Arial;writing-mode:lr-tb;fill:#ffffff;fill-opacity:1;fill-rule:nonzero;stroke:none"
         x="0"
         y="0"
         id="tspan13">?</tspan></text>
    <path
       id="path14"
       d="m 1620,1820 h 200 v 200 h -200 z"
       style="fill:#000000;fill-opacity:1;fill-rule:nonzero;stroke:none"
       transform="matrix(0.13333333,0,0,-0.13333333,0,273.33333)" />
    <path
       id="path15"
       d="m 1620,2020 200,-200"
       style="fill:none;stroke:#ffffff;stroke-width:8;stroke-linecap:butt;stroke-linejoin:miter;stroke-miterlimit:10;stroke-dasharray:none;stroke-opacity:1"
       transform="matrix(0.13333333,0,0,-0.13333333,0,273.33333)" />
    <text
       id="text15"
       xml:space="preserve"
       transform="matrix(1.3333333,0,0,1.3333333,219.40267,28)"><tspan
         style="font-variant:normal;font-weight:normal;font-size:8px;font-family:Arial;writing-mode:lr-tb;fill:#ffffff;fill-opacity:1;fill-rule:nonzero;stroke:none"
         x="0 4.448"
         y="0"
         id="tspan15">45</tspan></text>
    <path
       id="path16"
       d="m 1820,1820 h 200 v 200 h -200 z"
       style="fill:#000000;fill-opacity:1;fill-rule:nonzero;stroke:none"
       transform="matrix(0.13333333,0,0,-0.13333333,0,273.33333)" />
    <path
       id="path17"
       d="m 20,1620 h 200 v 200 H 20 Z"
       style="fill:#000000;fill-opacity:1;fill-rule:nonzero;stroke:none"
       transform="matrix(0.13333333,0,0,-0.13333333,0,273.33333)" />
    <path
       id="path18"
       d="m 220,1620 h 200 v 200 H 220 Z"
       style="fill:#000000;fill-opacity:1;fill-rule:nonzero;stroke:none"
       transform="matrix(0.13333333,0,0,-0.13333333,0,273.33333)" />
    <path
       id="path19"
       d="M 220,1820 420,1620"
       style="fill:none;stroke:#ffffff;stroke-width:8;stroke-linecap:butt;stroke-linejoin:miter;stroke-miterlimit:10;stroke-dasharray:none;stroke-opacity:1"
       transform="matrix(0.13333333,0,0,-0.13333333,0,273.33333)" />
    <text
       id="text19"
       xml:space="preserve"
       transform="matrix(1.3333333,0,0,1.3333333,43.403067,44)"><tspan
         style="font-variant:normal;font-weight:normal;font-size:8px;font-family:Arial;writing-mode:lr-tb;fill:#ffffff;fill-opacity:1;fill-rule:nonzero;stroke:none"
         x="0 4.448"
         y="0"
         id="tspan19">18</tspan><tspan
         style="font-variant:normal;font-weight:normal;font-size:8px;font-family:Arial;writing-mode:lr-tb;fill:#ffffff;fill-opacity:1;fill-rule:nonzero;stroke:none"
         x="-8 -3.552"
         y="8"
         id="tspan20">11</tspan></text>
    <path
       id="path20"
       d="m 1020,1620 h 200 v 200 h -200 z"
       style="fill:#000000;fill-opacity:1;fill-rule:nonzero;stroke:none"
       transform="matrix(0.13333333,0,0,-0.13333333,0,273.33333)" />
    <path
       id="path21"
       d="m 1020,1820 200,-200"
       style="fill:none;stroke:#ffffff;stroke-width:8;stroke-linecap:butt;stroke-linejoin:miter;stroke-miterlimit:10;stroke-dasharray:none;stroke-opacity:1"
       transform="matrix(0.13333333,0,0,-0.13333333,0,273.33333)" />
    <text
       id="text21"
       xml:space="preserve"
       transform="matrix(1.3333333,0,0,1.3333333,153.03467,44)"><tspan
         style="font-variant:normal;font-weight:normal;font-size:8px;font-family:Arial;writing-mode:lr-tb;fill:#ffffff;fill-opacity:1;fill-rule:nonzero;stroke:none"
         x="0"
         y="0"
         id="tspan21">7</tspan><tspan
         style="font-variant:normal;font-weight:normal;font-size:8px;font-family:Arial;writing-mode:lr-tb;fill:#ffffff;fill-opacity:1;fill-rule:nonzero;stroke:none"
         x="-10.2238 -5.7758002"
         y="8"
         id="tspan22">24</tspan></text>
    <path
       id="path22"
       d="m 1820,1620 h 200 v 200 h -200 z"
       style="fill:#000000;fill-opacity:1;fill-rule:nonzero;stroke:none"
       transform="matrix(0.13333333,0,0,-0.13333333,0,273.33333)" />
    <path
       id="path23"
       d="m 1820,1820 200,-200"
       style="fill:none;stroke:#ffffff;stroke-width:8;stroke-linecap:butt;stroke-linejoin:miter;stroke-miterlimit:10;stroke-dasharray:none;stroke-opacity:1"
       transform="matrix(0.13333333,0,0,-0.13333333,0,273.33333)" />
    <text
       id="text23"
       xml:space="preserve"
       transform="matrix(1.3333333,0,0,1.3333333,246.06933,54.666667)"><tspan
         style="font-variant:normal;font-weight:normal;font-size:8px;font-family:Arial;writing-mode:lr-tb;fill:#ffffff;fill-opacity:1;fill-rule:nonzero;stroke:none"
         x="0 4.448"
         y="0"
         id="tspan23">21</tspan></text>
    <path
       id="path24"
       d="m 20,1420 h 200 v 200 H 20 Z"
       style="fill:#000000;fill-opacity:1;fill-rule:nonzero;stroke:none"
       transform="matrix(0.13333333,0,0,-0.13333333,0,273.33333)" />
    <path
       id="path25"
       d="M 20,1620 220,1420"
       style="fill:none;stroke:#ffffff;stroke-width:8;stroke-linecap:butt;stroke-linejoin:miter;stroke-miterlimit:10;stroke-dasharray:none;stroke-opacity:1"
       transform="matrix(0.13333333,0,0,-0.13333333,0,273.33333)" />
    <text
       id="text25"
       xml:space="preserve"
       transform="matrix(1.3333333,0,0,1.3333333,16.7364,70.666667)"><tspan
         style="font-variant:normal;font-weight:normal;font-size:8px;font-family:Arial;writing-mode:lr-tb;fill:#ffffff;fill-opacity:1;fill-rule:nonzero;stroke:none"
         x="0 4.448"
         y="0"
         id="tspan25">45</tspan></text>
    <path
       id="path26"
       d="m 20,1220 h 200 v 200 H 20 Z"
       style="fill:#000000;fill-opacity:1;fill-rule:nonzero;stroke:none"
       transform="matrix(0.13333333,0,0,-0.13333333,0,273.33333)" />
    <path
       id="path27"
       d="M 20,1420 220,1220"
       style="fill:none;stroke:#ffffff;stroke-width:8;stroke-linecap:butt;stroke-linejoin:miter;stroke-miterlimit:10;stroke-dasharray:none;stroke-opacity:1"
       transform="matrix(0.13333333,0,0,-0.13333333,0,273.33333)" />
    <text
       id="text27"
       xml:space="preserve"
       transform="matrix(1.3333333,0,0,1.3333333,16.7364,97.333333)"><tspan
         style="font-variant:normal;font-weight:normal;font-size:8px;font-family:Arial;writing-mode:lr-tb;fill:#ffffff;fill-opacity:1;fill-rule:nonzero;stroke:none"
         x="0 4.448"
         y="0"
         id="tspan27">17</tspan></text>
    <path
       id="path28"
       d="m 620,1220 h 200 v 200 H 620 Z"
       style="fill:#000000;fill-opacity:1;fill-rule:nonzero;stroke:none"
       transform="matrix(0.13333333,0,0,-0.13333333,0,273.33333)" />
    <path
       id="path29"
       d="M 620,1420 820,1220"
       style="fill:none;stroke:#ffffff;stroke-width:8;stroke-linecap:butt;stroke-linejoin:miter;stroke-miterlimit:10;stroke-dasharray:none;stroke-opacity:1"
       transform="matrix(0.13333333,0,0,-0.13333333,0,273.33333)" />
    <text
       id="text29"
       xml:space="preserve"
       transform="matrix(1.3333333,0,0,1.3333333,99.7016,97.333333)"><tspan
         style="font-variant:normal;font-weight:normal;font-size:8px;font-family:Arial;writing-mode:lr-tb;fill:#ffffff;fill-opacity:1;fill-rule:nonzero;stroke:none"
         x="0"
         y="0"
         id="tspan29">9</tspan><tspan
         style="font-variant:normal;font-weight:normal;font-size:8px;font-family:Arial;writing-mode:lr-tb;fill:#ffffff;fill-opacity:1;fill-rule:nonzero;stroke:none"
         x="-8"
         y="8"
         id="tspan30">9</tspan></text>
    <path
       id="path30"
       d="m 1220,1220 h 200 v 200 h -200 z"
       style="fill:#000000;fill-opacity:1;fill-rule:nonzero;stroke:none"
       transform="matrix(0.13333333,0,0,-0.13333333,0,273.33333)" />
    <path
       id="path31"
       d="m 1220,1420 200,-200"
       style="fill:none;stroke:#ffffff;stroke-width:8;stroke-linecap:butt;stroke-linejoin:miter;stroke-miterlimit:10;stroke-dasharray:none;stroke-opacity:1"
       transform="matrix(0.13333333,0,0,-0.13333333,0,273.33333)" />
    <text
       id="text31"
       xml:space="preserve"
       transform="matrix(1.3333333,0,0,1.3333333,179.70133,97.333333)"><tspan
         style="font-variant:normal;font-weight:normal;font-size:8px;font-family:Arial;writing-mode:lr-tb;fill:#ffffff;fill-opacity:1;fill-rule:nonzero;stroke:none"
         x="0"
         y="0"
         id="tspan31">9</tspan><tspan
         style="font-variant:normal;font-weight:normal;font-size:8px;font-family:Arial;writing-mode:lr-tb;fill:#ffffff;fill-opacity:1;fill-rule:nonzero;stroke:none"
         x="-10.2238 -5.7758002"
         y="8"
         id="tspan32">26</tspan></text>
    <path
       id="path32"
       d="m 20,1020 h 200 v 200 H 20 Z"
       style="fill:#000000;fill-opacity:1;fill-rule:nonzero;stroke:none"
       transform="matrix(0.13333333,0,0,-0.13333333,0,273.33333)" />
    <path
       id="path33"
       d="M 20,1220 220,1020"
       style="fill:none;stroke:#ffffff;stroke-width:8;stroke-linecap:butt;stroke-linejoin:miter;stroke-miterlimit:10;stroke-dasharray:none;stroke-opacity:1"
       transform="matrix(0.13333333,0,0,-0.13333333,0,273.33333)" />
    <text
       id="text33"
       xml:space="preserve"
       transform="matrix(1.3333333,0,0,1.3333333,16.7364,124)"><tspan
         style="font-variant:normal;font-weight:normal;font-size:8px;font-family:Arial;writing-mode:lr-tb;fill:#ffffff;fill-opacity:1;fill-rule:nonzero;stroke:none"
         x="0 4.448"
         y="0"
         id="tspan33">22</tspan></text>
    <path
       id="path34"
       d="m 1420,1020 h 200 v 200 h -200 z"
       style="fill:#000000;fill-opacity:1;fill-rule:nonzero;stroke:none"
       transform="matrix(0.13333333,0,0,-0.13333333,0,273.33333)" />
    <path
       id="path35"
       d="m 1420,1220 200,-200"
       style="fill:none;stroke:#ffffff;stroke-width:8;stroke-linecap:butt;stroke-linejoin:miter;stroke-miterlimit:10;stroke-dasharray:none;stroke-opacity:1"
       transform="matrix(0.13333333,0,0,-0.13333333,0,273.33333)" />
    <text
       id="text35"
       xml:space="preserve"
       transform="matrix(1.3333333,0,0,1.3333333,206.368,124)"><tspan
         style="font-variant:normal;font-weight:normal;font-size:8px;font-family:Arial;writing-mode:lr-tb;fill:#ffffff;fill-opacity:1;fill-rule:nonzero;stroke:none"
         x="0"
         y="0"
         id="tspan35">9</tspan><tspan
         style="font-variant:normal;font-weight:normal;font-size:8px;font-family:Arial;writing-mode:lr-tb;fill:#ffffff;fill-opacity:1;fill-rule:nonzero;stroke:none"
         x="-8"
         y="8"
         id="tspan36">7</tspan></text>
    <path
       id="path36"
       d="m 20,820 h 200 v 200 H 20 Z"
       style="fill:#000000;fill-opacity:1;fill-rule:nonzero;stroke:none"
       transform="matrix(0.13333333,0,0,-0.13333333,0,273.33333)" />
    <path
       id="path37"
       d="m 220,820 h 200 v 200 H 220 Z"
       style="fill:#000000;fill-opacity:1;fill-rule:nonzero;stroke:none"
       transform="matrix(0.13333333,0,0,-0.13333333,0,273.33333)" />
    <path
       id="path38"
       d="M 220,1020 420,820"
       style="fill:none;stroke:#ffffff;stroke-width:8;stroke-linecap:butt;stroke-linejoin:miter;stroke-miterlimit:10;stroke-dasharray:none;stroke-opacity:1"
       transform="matrix(0.13333333,0,0,-0.13333333,0,273.33333)" />
    <text
       id="text38"
       xml:space="preserve"
       transform="matrix(1.3333333,0,0,1.3333333,43.403067,150.66667)"><tspan
         style="font-variant:normal;font-weight:normal;font-size:8px;font-family:Arial;writing-mode:lr-tb;fill:#ffffff;fill-opacity:1;fill-rule:nonzero;stroke:none"
         x="0 4.448"
         y="0"
         id="tspan38">22</tspan><tspan
         style="font-variant:normal;font-weight:normal;font-size:8px;font-family:Arial;writing-mode:lr-tb;fill:#ffffff;fill-opacity:1;fill-rule:nonzero;stroke:none"
         x="-5.7761698"
         y="8"
         id="tspan39">9</tspan></text>
    <path
       id="path39"
       d="m 1020,820 h 200 v 200 h -200 z"
       style="fill:#000000;fill-opacity:1;fill-rule:nonzero;stroke:none"
       transform="matrix(0.13333333,0,0,-0.13333333,0,273.33333)" />
    <path
       id="path40"
       d="M 1020,1020 1220,820"
       style="fill:none;stroke:#ffffff;stroke-width:8;stroke-linecap:butt;stroke-linejoin:miter;stroke-miterlimit:10;stroke-dasharray:none;stroke-opacity:1"
       transform="matrix(0.13333333,0,0,-0.13333333,0,273.33333)" />
    <text
       id="text40"
       xml:space="preserve"
       transform="matrix(1.3333333,0,0,1.3333333,152.74133,150.66667)"><tspan
         style="font-variant:normal;font-weight:normal;font-size:8px;font-family:Arial;writing-mode:lr-tb;fill:#ffffff;fill-opacity:1;fill-rule:nonzero;stroke:none"
         x="0"
         y="0"
         id="tspan40">?</tspan><tspan
         style="font-variant:normal;font-weight:normal;font-size:8px;font-family:Arial;writing-mode:lr-tb;fill:#ffffff;fill-opacity:1;fill-rule:nonzero;stroke:none"
         x="-10.0039 -5.5559001"
         y="8"
         id="tspan41">10</tspan></text>
    <path
       id="path41"
       d="m 1820,820 h 200 v 200 h -200 z"
       style="fill:#000000;fill-opacity:1;fill-rule:nonzero;stroke:none"
       transform="matrix(0.13333333,0,0,-0.13333333,0,273.33333)" />
    <path
       id="path42"
       d="M 1820,1020 2020,820"
       style="fill:none;stroke:#ffffff;stroke-width:8;stroke-linecap:butt;stroke-linejoin:miter;stroke-miterlimit:10;stroke-dasharray:none;stroke-opacity:1"
       transform="matrix(0.13333333,0,0,-0.13333333,0,273.33333)" />
    <text
       id="text42"
       xml:space="preserve"
       transform="matrix(1.3333333,0,0,1.3333333,246.06933,161.33333)"><tspan
         style="font-variant:normal;font-weight:normal;font-size:8px;font-family:Arial;writing-mode:lr-tb;fill:#ffffff;fill-opacity:1;fill-rule:nonzero;stroke:none"
         x="0 4.448"
         y="0"
         id="tspan42">22</tspan></text>
    <path
       id="path43"
       d="M 20,620 H 220 V 820 H 20 Z"
       style="fill:#000000;fill-opacity:1;fill-rule:nonzero;stroke:none"
       transform="matrix(0.13333333,0,0,-0.13333333,0,273.33333)" />
    <path
       id="path44"
       d="M 20,820 220,620"
       style="fill:none;stroke:#ffffff;stroke-width:8;stroke-linecap:butt;stroke-linejoin:miter;stroke-miterlimit:10;stroke-dasharray:none;stroke-opacity:1"
       transform="matrix(0.13333333,0,0,-0.13333333,0,273.33333)" />
    <text
       id="text44"
       xml:space="preserve"
       transform="matrix(1.3333333,0,0,1.3333333,19.7016,177.33333)"><tspan
         style="font-variant:normal;font-weight:normal;font-size:8px;font-family:Arial;writing-mode:lr-tb;fill:#ffffff;fill-opacity:1;fill-rule:nonzero;stroke:none"
         x="0"
         y="0"
         id="tspan44">7</tspan></text>
    <path
       id="path45"
       d="M 620,620 H 820 V 820 H 620 Z"
       style="fill:#000000;fill-opacity:1;fill-rule:nonzero;stroke:none"
       transform="matrix(0.13333333,0,0,-0.13333333,0,273.33333)" />
    <path
       id="path46"
       d="M 620,820 820,620"
       style="fill:none;stroke:#ffffff;stroke-width:8;stroke-linecap:butt;stroke-linejoin:miter;stroke-miterlimit:10;stroke-dasharray:none;stroke-opacity:1"
       transform="matrix(0.13333333,0,0,-0.13333333,0,273.33333)" />
    <text
       id="text46"
       xml:space="preserve"
       transform="matrix(1.3333333,0,0,1.3333333,96.7364,177.33333)"><tspan
         style="font-variant:normal;font-weight:normal;font-size:8px;font-family:Arial;writing-mode:lr-tb;fill:#ffffff;fill-opacity:1;fill-rule:nonzero;stroke:none"
         x="0 4.448"
         y="0"
         id="tspan46">25</tspan><tspan
         style="font-variant:normal;font-weight:normal;font-size:8px;font-family:Arial;writing-mode:lr-tb;fill:#ffffff;fill-opacity:1;fill-rule:nonzero;stroke:none"
         x="-5.7761698"
         y="8"
         id="tspan47">9</tspan></text>
    <path
       id="path47"
       d="M 20,420 H 220 V 620 H 20 Z"
       style="fill:#000000;fill-opacity:1;fill-rule:nonzero;stroke:none"
       transform="matrix(0.13333333,0,0,-0.13333333,0,273.33333)" />
    <path
       id="path48"
       d="M 20,620 220,420"
       style="fill:none;stroke:#ffffff;stroke-width:8;stroke-linecap:butt;stroke-linejoin:miter;stroke-miterlimit:10;stroke-dasharray:none;stroke-opacity:1"
       transform="matrix(0.13333333,0,0,-0.13333333,0,273.33333)" />
    <text
       id="text48"
       xml:space="preserve"
       transform="matrix(1.3333333,0,0,1.3333333,16.7364,204)"><tspan
         style="font-variant:normal;font-weight:normal;font-size:8px;font-family:Arial;writing-mode:lr-tb;fill:#ffffff;fill-opacity:1;fill-rule:nonzero;stroke:none"
         x="0 4.448"
         y="0"
         id="tspan48">14</tspan></text>
    <path
       id="path49"
       d="m 820,420 h 200 V 620 H 820 Z"
       style="fill:#000000;fill-opacity:1;fill-rule:nonzero;stroke:none"
       transform="matrix(0.13333333,0,0,-0.13333333,0,273.33333)" />
    <path
       id="path50"
       d="M 820,620 1020,420"
       style="fill:none;stroke:#ffffff;stroke-width:8;stroke-linecap:butt;stroke-linejoin:miter;stroke-miterlimit:10;stroke-dasharray:none;stroke-opacity:1"
       transform="matrix(0.13333333,0,0,-0.13333333,0,273.33333)" />
    <text
       id="text50"
       xml:space="preserve"
       transform="matrix(1.3333333,0,0,1.3333333,123.40307,204)"><tspan
         style="font-variant:normal;font-weight:normal;font-size:8px;font-family:Arial;writing-mode:lr-tb;fill:#ffffff;fill-opacity:1;fill-rule:nonzero;stroke:none"
         x="0 4.448"
         y="0"
         id="tspan50">12</tspan><tspan
         style="font-variant:normal;font-weight:normal;font-size:8px;font-family:Arial;writing-mode:lr-tb;fill:#ffffff;fill-opacity:1;fill-rule:nonzero;stroke:none"
         x="-5.7761698"
         y="8"
         id="tspan51">8</tspan></text>
    <path
       id="path51"
       d="m 1420,420 h 200 v 200 h -200 z"
       style="fill:#000000;fill-opacity:1;fill-rule:nonzero;stroke:none"
       transform="matrix(0.13333333,0,0,-0.13333333,0,273.33333)" />
    <path
       id="path52"
       d="M 1420,620 1620,420"
       style="fill:none;stroke:#ffffff;stroke-width:8;stroke-linecap:butt;stroke-linejoin:miter;stroke-miterlimit:10;stroke-dasharray:none;stroke-opacity:1"
       transform="matrix(0.13333333,0,0,-0.13333333,0,273.33333)" />
    <text
       id="text52"
       xml:space="preserve"
       transform="matrix(1.3333333,0,0,1.3333333,203.40267,204)"><tspan
         style="font-variant:normal;font-weight:normal;font-size:8px;font-family:Arial;writing-mode:lr-tb;fill:#ffffff;fill-opacity:1;fill-rule:nonzero;stroke:none"
         x="0 4.448"
         y="0"
         id="tspan52">10</tspan><tspan
         style="font-variant:normal;font-weight:normal;font-size:8px;font-family:Arial;writing-mode:lr-tb;fill:#ffffff;fill-opacity:1;fill-rule:nonzero;stroke:none"
         x="-5.7761698"
         y="8"
         id="tspan53">6</tspan></text>
    <path
       id="path53"
       d="M 20,220 H 220 V 420 H 20 Z"
       style="fill:#000000;fill-opacity:1;fill-rule:nonzero;stroke:none"
       transform="matrix(0.13333333,0,0,-0.13333333,0,273.33333)" />
    <path
       id="path54"
       d="M 20,420 220,220"
       style="fill:none;stroke:#ffffff;stroke-width:8;stroke-linecap:butt;stroke-linejoin:miter;stroke-miterlimit:10;stroke-dasharray:none;stroke-opacity:1"
       transform="matrix(0.13333333,0,0,-0.13333333,0,273.33333)" />
    <text
       id="text54"
       xml:space="preserve"
       transform="matrix(1.3333333,0,0,1.3333333,16.7364,230.66667)"><tspan
         style="font-variant:normal;font-weight:normal;font-size:8px;font-family:Arial;writing-mode:lr-tb;fill:#ffffff;fill-opacity:1;fill-rule:nonzero;stroke:none"
         x="0 4.448"
         y="0"
         id="tspan54">45</tspan></text>
    <path
       id="path55"
       d="M 20,20 H 220 V 220 H 20 Z"
       style="fill:#000000;fill-opacity:1;fill-rule:nonzero;stroke:none"
       transform="matrix(0.13333333,0,0,-0.13333333,0,273.33333)" />
    <path
       id="path56"
       d="M 220,20 H 420 V 220 H 220 Z"
       style="fill:#000000;fill-opacity:1;fill-rule:nonzero;stroke:none"
       transform="matrix(0.13333333,0,0,-0.13333333,0,273.33333)" />
    <path
       id="path57"
       d="M 220,220 420,20"
       style="fill:none;stroke:#ffffff;stroke-width:8;stroke-linecap:butt;stroke-linejoin:miter;stroke-miterlimit:10;stroke-dasharray:none;stroke-opacity:1"
       transform="matrix(0.13333333,0,0,-0.13333333,0,273.33333)" />
    <text
       id="text57"
       xml:space="preserve"
       transform="matrix(1.3333333,0,0,1.3333333,43.403067,257.33333)"><tspan
         style="font-variant:normal;font-weight:normal;font-size:8px;font-family:Arial;writing-mode:lr-tb;fill:#ffffff;fill-opacity:1;fill-rule:nonzero;stroke:none"
         x="0 4.448"
         y="0"
         id="tspan57">20</tspan></text>
    <path
       id="path58"
       d="m 1020,20 h 200 v 200 h -200 z"
       style="fill:#000000;fill-opacity:1;fill-rule:nonzero;stroke:none"
       transform="matrix(0.13333333,0,0,-0.13333333,0,273.33333)" />
    <path
       id="path59"
       d="M 1020,220 1220,20"
       style="fill:none;stroke:#ffffff;stroke-width:8;stroke-linecap:butt;stroke-linejoin:miter;stroke-miterlimit:10;stroke-dasharray:none;stroke-opacity:1"
       transform="matrix(0.13333333,0,0,-0.13333333,0,273.33333)" />
    <text
       id="text59"
       xml:space="preserve"
       transform="matrix(1.3333333,0,0,1.3333333,153.03467,257.33333)"><tspan
         style="font-variant:normal;font-weight:normal;font-size:8px;font-family:Arial;writing-mode:lr-tb;fill:#ffffff;fill-opacity:1;fill-rule:nonzero;stroke:none"
         x="0"
         y="0"
         id="tspan59">9</tspan></text>
    <path
       id="path60"
       d="m 1820,20 h 200 v 200 h -200 z"
       style="fill:#000000;fill-opacity:1;fill-rule:nonzero;stroke:none"
       transform="matrix(0.13333333,0,0,-0.13333333,0,273.33333)" />
    <path
       id="path61"
       d="M 20,20 H 2020 M 20,220 H 2020 M 20,420 H 2020 M 20,620 H 2020 M 20,820 H 2020 M 20,1020 H 2020 M 20,1220 H 2020 M 20,1420 H 2020 M 20,1620 H 2020 M 20,1820 H 2020 M 20,2020 h 2000"
       style="fill:none;stroke:#000000;stroke-width:4;stroke-linecap:butt;stroke-linejoin:miter;stroke-miterlimit:10;stroke-dasharray:none;stroke-opacity:1"
       transform="matrix(0.13333333,0,0,-0.13333333,0,273.33333)" />
    <path
       id="path62"
       d="M 20,20 V 2020 M 220,20 V 2020 M 420,20 V 2020 M 620,20 V 2020 M 820,20 V 2020 M 1020,20 V 2020 M 1220,20 V 2020 M 1420,20 V 2020 M 1620,20 V 2020 M 1820,20 V 2020 M 2020,20 v 2000"
       style="fill:none;stroke:#000000;stroke-width:4;stroke-linecap:butt;stroke-linejoin:miter;stroke-miterlimit:10;stroke-dasharray:none;stroke-opacity:1"
       transform="matrix(0.13333333,0,0,-0.13333333,0,273.33333)" />
    <text
       id="text62"
       xml:space="preserve"
       transform="matrix(1.3333333,0,0,1.3333333,64.88544,49.333333)"><tspan
         style="font-variant:normal;font-weight:normal;font-size:12px;font-family:Arial;writing-mode:lr-tb;fill:#000000;fill-opacity:1;fill-rule:nonzero;stroke:none"
         x="0 19.33404 40.00008 61.667999 80.000038 100.00008 120.00012"
         y="0"
         id="tspan62">1A9 124</tspan><tspan
         style="font-variant:normal;font-weight:normal;font-size:12px;font-family:Arial;writing-mode:lr-tb;fill:#000000;fill-opacity:1;fill-rule:nonzero;stroke:none"
         x="-38.332081 -20.00004 0 20.00004 40.00008 60.000118 80.00016 100.0002 120.00024 139.33427"
         y="20"
         id="tspan63"> 12849765B</tspan><tspan
         style="font-variant:normal;font-weight:normal;font-size:12px;font-family:Arial;writing-mode:lr-tb;fill:#000000;fill-opacity:1;fill-rule:nonzero;stroke:none"
         x="-38.332081 -20.66604 0 21.667919 39.999962 60 81.667923 99.999962 120 140.00005"
         y="40"
         id="tspan64"> A9 18 126</tspan><tspan
         style="font-variant:normal;font-weight:normal;font-size:12px;font-family:Arial;writing-mode:lr-tb;fill:#000000;fill-opacity:1;fill-rule:nonzero;stroke:none"
         x="-38.332081 -20.00004 0 20.00004 40.00008 59.334122 80.00016 101.66808 120.00012 140.00015"
         y="60"
         id="tspan65"> 2315B4 18</tspan><tspan
         style="font-variant:normal;font-weight:normal;font-size:12px;font-family:Arial;writing-mode:lr-tb;fill:#000000;fill-opacity:1;fill-rule:nonzero;stroke:none"
         x="-38.332081 0 20.00004 39.33408 61.668121 80.00016 100.0002 120.00024"
         y="80"
         id="tspan66"> 78B 139</tspan><tspan
         style="font-variant:normal;font-weight:normal;font-size:12px;font-family:Arial;writing-mode:lr-tb;fill:#000000;fill-opacity:1;fill-rule:nonzero;stroke:none"
         x="-38.332081 -20.00004 0 21.667919 39.999962 60 80.000038 100.00008 120.00012 139.33417"
         y="100"
         id="tspan67"> 16 21348B</tspan><tspan
         style="font-variant:normal;font-weight:normal;font-size:12px;font-family:Arial;writing-mode:lr-tb;fill:#000000;fill-opacity:1;fill-rule:nonzero;stroke:none"
         x="-38.332081 -20.00004 -0.66600001 20.00004 41.667961 60 79.334038 101.66808 120.00012 140.00015"
         y="120"
         id="tspan68"> 5A1 3B 75</tspan><tspan
         style="font-variant:normal;font-weight:normal;font-size:12px;font-family:Arial;writing-mode:lr-tb;fill:#000000;fill-opacity:1;fill-rule:nonzero;stroke:none"
         x="-38.332081 -20.00004 0 20.00004 40.00008 60.000118 80.00016 100.0002 119.33424 139.33423"
         y="140"
         id="tspan69"> 3421895BA</tspan><tspan
         style="font-variant:normal;font-weight:normal;font-size:12px;font-family:Arial;writing-mode:lr-tb;fill:#000000;fill-opacity:1;fill-rule:nonzero;stroke:none"
         x="-38.332081 -0.66600001 20.00004 40.00008 61.667999 80.000038 100.00008 120.00012"
         y="160"
         id="tspan70"> B67 216</tspan></text>
    <path
       id="path70"
       d="m 1430,1840 h 80 v 80 h -80 z"
       style="fill:#ff8080;fill-opacity:1;fill-rule:nonzero;stroke:none"
       transform="matrix(0.13333333,0,0,-0.13333333,0,273.33333)" />
    <path
       id="path71"
       d="m 1220,960 c 0,27.613 -22.39,50 -50,50 -27.61,0 -50,-22.387 -50,-50 0,-27.613 22.39,-50 50,-50 27.61,0 50,22.387 50,50"
       style="fill:#80ff80;fill-opacity:1;fill-rule:nonzero;stroke:none"
       transform="matrix(0.13333333,0,0,-0.13333333,0,273.33333)" />
    <text
       id="text71"
       xml:space="preserve"
       transform="matrix(1.3333333,0,0,1.3333333,152.74133,149.33333)"><tspan
         style="font-variant:normal;font-weight:normal;font-size:8px;font-family:Arial;writing-mode:lr-tb;fill:#000000;fill-opacity:1;fill-rule:nonzero;stroke:none"
         x="0"
         y="0"
         id="tspan71">?</tspan><tspan
         style="font-variant:normal;font-weight:normal;font-size:8px;font-family:Arial;writing-mode:lr-tb;fill:#000000;fill-opacity:1;fill-rule:nonzero;stroke:none"
         x="30"
         y="-92"
         id="tspan72">?</tspan></text>
  </g>
</svg>
