<?xml version="1.0" encoding="UTF-8" standalone="no"?>
<!-- Created with Inkscape (http://www.inkscape.org/) -->

<svg
   version="1.1"
   id="svg1"
   width="246.66667"
   height="246.66667"
   viewBox="0 0 246.66667 246.66667"
   xmlns="http://www.w3.org/2000/svg"
   xmlns:svg="http://www.w3.org/2000/svg">
  <defs
     id="defs1" />
  <g
     id="g1">
    <path
       id="path1"
       d="M 20,20 H 1820 M 20,620 H 1820 M 20,1220 H 1820 M 20,1820 h 1800"
       style="fill:none;stroke:#000000;stroke-width:18;stroke-linecap:butt;stroke-linejoin:miter;stroke-miterlimit:10;stroke-dasharray:none;stroke-opacity:1"
       transform="matrix(0.13333333,0,0,-0.13333333,0,246.66667)" />
    <path
       id="path2"
       d="M 20,20 V 1820 M 620,20 V 1820 M 1220,20 V 1820 M 1820,20 v 1800"
       style="fill:none;stroke:#000000;stroke-width:18;stroke-linecap:butt;stroke-linejoin:miter;stroke-miterlimit:10;stroke-dasharray:none;stroke-opacity:1"
       transform="matrix(0.13333333,0,0,-0.13333333,0,246.66667)" />
    <path
       id="path3"
       d="M 20,20 H 1820 M 20,220 H 1820 M 20,420 H 1820 M 20,620 H 1820 M 20,820 H 1820 M 20,1020 H 1820 M 20,1220 H 1820 M 20,1420 H 1820 M 20,1620 H 1820 M 20,1820 h 1800"
       style="fill:none;stroke:#000000;stroke-width:4;stroke-linecap:butt;stroke-linejoin:miter;stroke-miterlimit:10;stroke-dasharray:none;stroke-opacity:1"
       transform="matrix(0.13333333,0,0,-0.13333333,0,246.66667)" />
    <path
       id="path4"
       d="M 20,20 V 1820 M 220,20 V 1820 M 420,20 V 1820 M 620,20 V 1820 M 820,20 V 1820 M 1020,20 V 1820 M 1220,20 V 1820 M 1420,20 V 1820 M 1620,20 V 1820 M 1820,20 v 1800"
       style="fill:none;stroke:#000000;stroke-width:4;stroke-linecap:butt;stroke-linejoin:miter;stroke-miterlimit:10;stroke-dasharray:none;stroke-opacity:1"
       transform="matrix(0.13333333,0,0,-0.13333333,0,246.66667)" />
    <path
       id="path5"
       d="m 700,1180 c 0,16.57 -13.434,30 -30,30 -16.566,0 -30,-13.43 -30,-30 0,-16.57 13.434,-30 30,-30 16.566,0 30,13.43 30,30"
       style="fill:#80ff80;fill-opacity:1;fill-rule:nonzero;stroke:none"
       transform="matrix(0.13333333,0,0,-0.13333333,0,246.66667)" />
    <path
       id="path6"
       d="m 639.996,950 h 60 v 60 h -60 z"
       style="fill:#ff8080;fill-opacity:1;fill-rule:nonzero;stroke:none"
       transform="matrix(0.13333333,0,0,-0.13333333,0,246.66667)" />
    <text
       id="text6"
       xml:space="preserve"
       transform="matrix(1.3333333,0,0,1.3333333,31.552133,12)"><tspan
         style="font-variant:normal;font-weight:normal;font-size:6px;font-family:Arial;writing-mode:lr-tb;fill:#000000;fill-opacity:1;fill-rule:nonzero;stroke:none"
         x="0 3.336 19.999981 23.335979 120.00018 123.33618 140.00015 143.33617"
         y="0"
         id="tspan6">14151214</tspan><tspan
         style="font-variant:normal;font-weight:normal;font-size:6px;font-family:Arial;writing-mode:lr-tb;fill:#000000;fill-opacity:1;fill-rule:nonzero;stroke:none"
         x="80 83.335999"
         y="20"
         id="tspan7">11</tspan><tspan
         style="font-variant:normal;font-weight:normal;font-size:6px;font-family:Arial;writing-mode:lr-tb;fill:#000000;fill-opacity:1;fill-rule:nonzero;stroke:none"
         x="20 23.336 60.000019 63.336021 100.00004 103.33604"
         y="40"
         id="tspan8">201212</tspan><tspan
         style="font-variant:normal;font-weight:normal;font-size:6px;font-family:Arial;writing-mode:lr-tb;fill:#000000;fill-opacity:1;fill-rule:nonzero;stroke:none"
         x="41.503101"
         y="60"
         id="tspan9">?</tspan><tspan
         style="font-variant:normal;font-weight:normal;font-size:6px;font-family:Arial;writing-mode:lr-tb;fill:#000000;fill-opacity:1;fill-rule:nonzero;stroke:none"
         x="41.503101"
         y="80"
         id="tspan10">?</tspan><tspan
         style="font-variant:normal;font-weight:normal;font-size:6px;font-family:Arial;writing-mode:lr-tb;fill:#000000;fill-opacity:1;fill-rule:nonzero;stroke:none"
         x="-20 -16.664 140.0002 143.3362"
         y="60"
         id="tspan11">2038</tspan><tspan
         style="font-variant:normal;font-weight:normal;font-size:6px;font-family:Arial;writing-mode:lr-tb;fill:#000000;fill-opacity:1;fill-rule:nonzero;stroke:none"
         x="20 23.336"
         y="80"
         id="tspan12">10</tspan><tspan
         style="font-variant:normal;font-weight:normal;font-size:6px;font-family:Arial;writing-mode:lr-tb;fill:#000000;fill-opacity:1;fill-rule:nonzero;stroke:none"
         x="-20 -16.664"
         y="100"
         id="tspan13">11</tspan><tspan
         style="font-variant:normal;font-weight:normal;font-size:6px;font-family:Arial;writing-mode:lr-tb;fill:#000000;fill-opacity:1;fill-rule:nonzero;stroke:none"
         x="60 63.335999 120 123.336"
         y="120"
         id="tspan14">1512</tspan><tspan
         style="font-variant:normal;font-weight:normal;font-size:6px;font-family:Arial;writing-mode:lr-tb;fill:#000000;fill-opacity:1;fill-rule:nonzero;stroke:none"
         x="0 3.336 139.9998 143.3358"
         y="140"
         id="tspan15">2012</tspan><tspan
         style="font-variant:normal;font-weight:normal;font-size:6px;font-family:Arial;writing-mode:lr-tb;fill:#000000;fill-opacity:1;fill-rule:nonzero;stroke:none"
         x="80 83.335999"
         y="160"
         id="tspan16">10</tspan></text>
    <path
       id="path16"
       d="m 310,1800 h 90 V 1440 H 200 V 1240 H 40 v 360 h 200 v 150 m 270,50 h 890 V 1640 H 440 v 110 m 670,-150 h 290 v -160 h -360 v 110 m 470,250 h 90 v -400 h 200 v -160 h -360 v 510 m 270,50 h 90 v -360 h -160 v 310 M 510,1400 H 800 V 1240 H 600 V 1040 H 440 v 310 m 470,50 h 290 V 1240 H 840 v 110 m 470,50 h 90 v -360 h -160 v 310 M 710,1200 h 290 V 1040 H 640 v 110 m 70,-150 h 290 V 840 H 640 v 110 m -530,250 h 90 V 1000 H 400 V 640 H 240 V 840 H 40 v 310 m 1670,50 h 90 V 840 H 1600 V 640 H 1400 V 440 H 1200 V 240 h -160 v 360 h 200 v 200 h 200 v 200 h 200 v 150 M 510,1000 h 90 V 600 H 800 V 440 H 440 V 950 M 110,800 h 90 V 600 H 400 V 440 H 200 V 240 H 40 V 750 M 910,600 h 90 V 40 H 840 V 240 H 640 v 160 h 200 v 150 m 670,50 h 290 V 440 h -360 v 110 m 270,-150 h 90 V 40 H 1640 V 350 M 310,400 h 90 V 40 H 40 v 160 h 200 v 150 m 870,-150 h 490 V 40 h -560 v 110"
       style="fill:none;stroke:#000000;stroke-width:5;stroke-linecap:butt;stroke-linejoin:miter;stroke-miterlimit:10;stroke-dasharray:20, 14;stroke-dashoffset:200;stroke-opacity:1"
       transform="matrix(0.13333333,0,0,-0.13333333,0,246.66667)" />
    <text
       id="text16"
       xml:space="preserve"
       transform="matrix(1.3333333,0,0,1.3333333,11.55208,22.666667)"><tspan
         style="font-variant:normal;font-weight:normal;font-size:12px;font-family:Arial;writing-mode:lr-tb;fill:#000000;fill-opacity:1;fill-rule:nonzero;stroke:none"
         x="0 20.00004 40.00008 60.000118 80.00016 100.0002 120.00024 140.00027 160.00032"
         y="0"
         id="tspan17">873251469</tspan><tspan
         style="font-variant:normal;font-weight:normal;font-size:12px;font-family:Arial;writing-mode:lr-tb;fill:#000000;fill-opacity:1;fill-rule:nonzero;stroke:none"
         x="0 20.00004 40.00008 60.000118 80.00016 100.0002 120.00024 140.00027 160.00032"
         y="20"
         id="tspan18">416973825</tspan><tspan
         style="font-variant:normal;font-weight:normal;font-size:12px;font-family:Arial;writing-mode:lr-tb;fill:#000000;fill-opacity:1;fill-rule:nonzero;stroke:none"
         x="0 20.00004 40.00008 60.000118 80.00016 100.0002 120.00024 140.00027 160.00032"
         y="40"
         id="tspan19">295648731</tspan><tspan
         style="font-variant:normal;font-weight:normal;font-size:12px;font-family:Arial;writing-mode:lr-tb;fill:#000000;fill-opacity:1;fill-rule:nonzero;stroke:none"
         x="0 20.00004 40.00008 60.000118 80.00016 100.0002 120.00024 140.00027 160.00032"
         y="60"
         id="tspan20">689134572</tspan><tspan
         style="font-variant:normal;font-weight:normal;font-size:12px;font-family:Arial;writing-mode:lr-tb;fill:#000000;fill-opacity:1;fill-rule:nonzero;stroke:none"
         x="0 20.00004 40.00008 60.000118 80.00016 100.0002 120.00024 140.00027 160.00032"
         y="80"
         id="tspan21">741562983</tspan><tspan
         style="font-variant:normal;font-weight:normal;font-size:12px;font-family:Arial;writing-mode:lr-tb;fill:#000000;fill-opacity:1;fill-rule:nonzero;stroke:none"
         x="0 20.00004 40.00008 60.000118 80.00016 100.0002 120.00024 140.00027 160.00032"
         y="100"
         id="tspan22">532897146</tspan><tspan
         style="font-variant:normal;font-weight:normal;font-size:12px;font-family:Arial;writing-mode:lr-tb;fill:#000000;fill-opacity:1;fill-rule:nonzero;stroke:none"
         x="0 20.00004 40.00008 60.000118 80.00016 100.0002 120.00024 140.00027 160.00032"
         y="120"
         id="tspan23">124389657</tspan><tspan
         style="font-variant:normal;font-weight:normal;font-size:12px;font-family:Arial;writing-mode:lr-tb;fill:#000000;fill-opacity:1;fill-rule:nonzero;stroke:none"
         x="0 20.00004 40.00008 60.000118 80.00016 100.0002 120.00024 140.00027 160.00032"
         y="140"
         id="tspan24">367415298</tspan><tspan
         style="font-variant:normal;font-weight:normal;font-size:12px;font-family:Arial;writing-mode:lr-tb;fill:#000000;fill-opacity:1;fill-rule:nonzero;stroke:none"
         x="0 20.00004 40.00008 60.000118 80.00016 100.0002 120.00024 140.00027 160.00032"
         y="160"
         id="tspan25">958726314</tspan></text>
  </g>
</svg>
