<?xml version="1.0" encoding="UTF-8" standalone="no"?>
<!-- Created with Inkscape (http://www.inkscape.org/) -->

<svg
   version="1.1"
   id="svg1"
   width="353.33334"
   height="353.33334"
   viewBox="0 0 353.33334 353.33334"
   xmlns="http://www.w3.org/2000/svg"
   xmlns:svg="http://www.w3.org/2000/svg">
  <defs
     id="defs1" />
  <g
     id="g1">
    <path
       id="path1"
       d="m 1020,1020 h 200 v 200 h -200 z"
       style="fill:#b2b2b2;fill-opacity:1;fill-rule:nonzero;stroke:none"
       transform="matrix(0.13333333,0,0,-0.13333333,0,353.33333)" />
    <path
       id="path2"
       d="m 1620,2020 h 200 v 200 h -200 z"
       style="fill:#b2b2b2;fill-opacity:1;fill-rule:nonzero;stroke:none"
       transform="matrix(0.13333333,0,0,-0.13333333,0,353.33333)" />
    <path
       id="path3"
       d="M 220,20 H 2620 V 2420 H 220 Z"
       style="fill:none;stroke:#000000;stroke-width:16;stroke-linecap:butt;stroke-linejoin:miter;stroke-miterlimit:10;stroke-dasharray:none;stroke-opacity:1"
       transform="matrix(0.13333333,0,0,-0.13333333,0,353.33333)" />
    <path
       id="path4"
       d="M 220,20 H 2620 M 220,220 H 2620 M 220,420 H 2620 M 220,620 H 2620 M 220,820 H 2620 M 220,1020 H 2620 M 220,1220 H 2620 M 220,1420 H 2620 M 220,1620 H 2620 M 220,1820 H 2620 M 220,2020 H 2620 M 220,2220 H 2620 M 220,2420 h 2400"
       style="fill:none;stroke:#000000;stroke-width:4;stroke-linecap:butt;stroke-linejoin:miter;stroke-miterlimit:10;stroke-dasharray:none;stroke-opacity:1"
       transform="matrix(0.13333333,0,0,-0.13333333,0,353.33333)" />
    <path
       id="path5"
       d="M 220,20 V 2420 M 420,20 V 2420 M 620,20 V 2420 M 820,20 V 2420 M 1020,20 V 2420 M 1220,20 V 2420 M 1420,20 V 2420 M 1620,20 V 2420 M 1820,20 V 2420 M 2020,20 V 2420 M 2220,20 V 2420 M 2420,20 V 2420 M 2620,20 v 2400"
       style="fill:none;stroke:#000000;stroke-width:4;stroke-linecap:butt;stroke-linejoin:miter;stroke-miterlimit:10;stroke-dasharray:none;stroke-opacity:1"
       transform="matrix(0.13333333,0,0,-0.13333333,0,353.33333)" />
    <path
       id="path6"
       d="m 50,1450 h 140 v 140 H 50 Z"
       style="fill:#ff8080;fill-opacity:1;fill-rule:nonzero;stroke:none"
       transform="matrix(0.13333333,0,0,-0.13333333,0,353.33333)" />
    <path
       id="path7"
       d="m 200,2320 c 0,44.18 -35.82,80 -80,80 -44.1797,0 -80,-35.82 -80,-80 0,-44.18 35.8203,-80 80,-80 44.18,0 80,35.82 80,80"
       style="fill:#80ff80;fill-opacity:1;fill-rule:nonzero;stroke:none"
       transform="matrix(0.13333333,0,0,-0.13333333,0,353.33333)" />
    <text
       id="text7"
       xml:space="preserve"
       transform="matrix(1.3333333,0,0,1.3333333,7.1041733,342.66667)"><tspan
         style="font-variant:normal;font-weight:normal;font-size:12px;font-family:Arial;writing-mode:lr-tb;fill:#000000;fill-opacity:1;fill-rule:nonzero;stroke:none"
         x="0 6.6719999"
         y="0"
         id="tspan7">30</tspan><tspan
         style="font-variant:normal;font-weight:normal;font-size:12px;font-family:Arial;writing-mode:lr-tb;fill:#000000;fill-opacity:1;fill-rule:nonzero;stroke:none"
         x="3.3359399"
         y="-40"
         id="tspan8">?</tspan><tspan
         style="font-variant:normal;font-weight:normal;font-size:12px;font-family:Arial;writing-mode:lr-tb;fill:#000000;fill-opacity:1;fill-rule:nonzero;stroke:none"
         x="0 6.6719999"
         y="-80"
         id="tspan9">34</tspan><tspan
         style="font-variant:normal;font-weight:normal;font-size:12px;font-family:Arial;writing-mode:lr-tb;fill:#000000;fill-opacity:1;fill-rule:nonzero;stroke:none"
         x="3.3359399"
         y="-140"
         id="tspan10">?</tspan><tspan
         style="font-variant:normal;font-weight:normal;font-size:12px;font-family:Arial;writing-mode:lr-tb;fill:#000000;fill-opacity:1;fill-rule:nonzero;stroke:none"
         x="3.3359399"
         y="-220"
         id="tspan11">?</tspan><tspan
         style="font-variant:normal;font-weight:normal;font-size:12px;font-family:Arial;writing-mode:lr-tb;fill:#000000;fill-opacity:1;fill-rule:nonzero;stroke:none"
         x="20.00004 26.672041 40.000046 46.672043 199.99965 206.67165 239.9996 246.6716"
         y="-240"
         id="tspan12">42411918</tspan><tspan
         style="font-variant:normal;font-weight:normal;font-size:12px;font-family:Arial;writing-mode:lr-tb;fill:#000000;fill-opacity:1;fill-rule:nonzero;stroke:none"
         x="23.335979 140.00024 146.67224 160.00024 166.67224 179.33424 186.00624"
         y="0"
         id="tspan13"> 31302B</tspan><tspan
         style="font-variant:normal;font-weight:normal;font-size:12px;font-family:Arial;writing-mode:lr-tb;fill:#000000;fill-opacity:1;fill-rule:nonzero;stroke:none"
         x="23.335979 140.00024 146.67224 163.33618 179.33424 186.00624 200.00026 206.67226 220.00026 226.67226 240.00026 246.67226"
         y="-20"
         id="tspan14"> 32 2A292827</tspan><tspan
         style="font-variant:normal;font-weight:normal;font-size:12px;font-family:Arial;writing-mode:lr-tb;fill:#000000;fill-opacity:1;fill-rule:nonzero;stroke:none"
         x="20.00004 26.672041 40.000046 46.672043 60.00005 66.67205 83.335983 140.00012 146.67212 163.33607 240.00026 246.67226"
         y="-40"
         id="tspan15">434445 33 26</tspan><tspan
         style="font-variant:normal;font-weight:normal;font-size:12px;font-family:Arial;writing-mode:lr-tb;fill:#000000;fill-opacity:1;fill-rule:nonzero;stroke:none"
         x="20.00004 26.672041 43.335972 140.0002 146.6722 163.33614 220.00029 226.67229 240.00029 246.67229"
         y="-60"
         id="tspan16">42 34 2425</tspan><tspan
         style="font-variant:normal;font-weight:normal;font-size:12px;font-family:Arial;writing-mode:lr-tb;fill:#000000;fill-opacity:1;fill-rule:nonzero;stroke:none"
         x="20.00004 26.672041 40.000046 46.672043 63.335976 80.000038 86.672043 100.00005 106.67204 120.00005 126.67205 140.00005 146.67206 163.336 200.00011 206.6721 220.00011 226.6721 243.33604"
         y="-80"
         id="tspan17">4140 38373635 2223 </tspan><tspan
         style="font-variant:normal;font-weight:normal;font-size:12px;font-family:Arial;writing-mode:lr-tb;fill:#000000;fill-opacity:1;fill-rule:nonzero;stroke:none"
         x="39.33403 46.006031 59.334038 66.006035 80.000053 86.67205 103.33598 180.00017 186.67216 200.00017 206.67216 223.33612"
         y="-100"
         id="tspan18">3B3A39 2021 </tspan><tspan
         style="font-variant:normal;font-weight:normal;font-size:12px;font-family:Arial;writing-mode:lr-tb;fill:#000000;fill-opacity:1;fill-rule:nonzero;stroke:none"
         x="159.33427 166.00627 179.33427 186.00627"
         y="-120"
         id="tspan19">1A1B</tspan><tspan
         style="font-variant:normal;font-weight:normal;font-size:12px;font-family:Arial;writing-mode:lr-tb;fill:#000000;fill-opacity:1;fill-rule:nonzero;stroke:none"
         x="23.335979 125.00418 143.33615 160.00021 166.67221 183.33615"
         y="-140"
         id="tspan20"> 1 19 </tspan><tspan
         style="font-variant:normal;font-weight:normal;font-size:12px;font-family:Arial;writing-mode:lr-tb;fill:#000000;fill-opacity:1;fill-rule:nonzero;stroke:none"
         x="125.00418 143.33615 160.00021 166.67221 183.33615 200.00021 206.67223 220.00023 226.67223 240.00023 246.67223"
         y="-160"
         id="tspan21">2 18 141312</tspan><tspan
         style="font-variant:normal;font-weight:normal;font-size:12px;font-family:Arial;writing-mode:lr-tb;fill:#000000;fill-opacity:1;fill-rule:nonzero;stroke:none"
         x="23.335979 125.00418 143.33615 160.00021 166.67221 180.00021 186.67221 200.00021 206.67223 223.33617 240.00023 246.67223"
         y="-180"
         id="tspan22"> 3 171615 11</tspan><tspan
         style="font-variant:normal;font-weight:normal;font-size:12px;font-family:Arial;writing-mode:lr-tb;fill:#000000;fill-opacity:1;fill-rule:nonzero;stroke:none"
         x="23.335979 125.00418 143.33615 240.00037 246.67238"
         y="-200"
         id="tspan23"> 4 10</tspan><tspan
         style="font-variant:normal;font-weight:normal;font-size:12px;font-family:Arial;writing-mode:lr-tb;fill:#000000;fill-opacity:1;fill-rule:nonzero;stroke:none"
         x="23.335979 125.00418 141.66818 145.00418 161.66818 165.00418 181.6682 185.0042 201.6682 205.0042 221.00218 224.33818 241.0022 244.3382"
         y="-220"
         id="tspan24"> 5 6 7 8 9 A B</tspan></text>
  </g>
</svg>
