<?xml version="1.0" encoding="UTF-8" standalone="no"?>
<!-- Created with Inkscape (http://www.inkscape.org/) -->

<svg
   version="1.1"
   id="svg1"
   width="273.33334"
   height="273.33334"
   viewBox="0 0 273.33334 273.33334"
   xmlns="http://www.w3.org/2000/svg"
   xmlns:svg="http://www.w3.org/2000/svg">
  <defs
     id="defs1" />
  <g
     id="g1">
    <path
       id="path1"
       d="m 620,1820 h 200 v 200 H 620 Z"
       style="fill:#cccccc;fill-opacity:1;fill-rule:nonzero;stroke:none"
       transform="matrix(0.13333333,0,0,-0.13333333,0,273.33333)" />
    <path
       id="path2"
       d="m 820,1820 h 200 v 200 H 820 Z"
       style="fill:#cccccc;fill-opacity:1;fill-rule:nonzero;stroke:none"
       transform="matrix(0.13333333,0,0,-0.13333333,0,273.33333)" />
    <path
       id="path3"
       d="m 1020,1820 h 200 v 200 h -200 z"
       style="fill:#cccccc;fill-opacity:1;fill-rule:nonzero;stroke:none"
       transform="matrix(0.13333333,0,0,-0.13333333,0,273.33333)" />
    <path
       id="path4"
       d="m 1220,1820 h 200 v 200 h -200 z"
       style="fill:#cccccc;fill-opacity:1;fill-rule:nonzero;stroke:none"
       transform="matrix(0.13333333,0,0,-0.13333333,0,273.33333)" />
    <path
       id="path5"
       d="m 1820,1820 h 200 v 200 h -200 z"
       style="fill:#cccccc;fill-opacity:1;fill-rule:nonzero;stroke:none"
       transform="matrix(0.13333333,0,0,-0.13333333,0,273.33333)" />
    <path
       id="path6"
       d="m 820,1620 h 200 v 200 H 820 Z"
       style="fill:#cccccc;fill-opacity:1;fill-rule:nonzero;stroke:none"
       transform="matrix(0.13333333,0,0,-0.13333333,0,273.33333)" />
    <path
       id="path7"
       d="m 1220,1620 h 200 v 200 h -200 z"
       style="fill:#cccccc;fill-opacity:1;fill-rule:nonzero;stroke:none"
       transform="matrix(0.13333333,0,0,-0.13333333,0,273.33333)" />
    <path
       id="path8"
       d="m 1420,1620 h 200 v 200 h -200 z"
       style="fill:#cccccc;fill-opacity:1;fill-rule:nonzero;stroke:none"
       transform="matrix(0.13333333,0,0,-0.13333333,0,273.33333)" />
    <path
       id="path9"
       d="m 1620,1620 h 200 v 200 h -200 z"
       style="fill:#cccccc;fill-opacity:1;fill-rule:nonzero;stroke:none"
       transform="matrix(0.13333333,0,0,-0.13333333,0,273.33333)" />
    <path
       id="path10"
       d="m 1820,1620 h 200 v 200 h -200 z"
       style="fill:#cccccc;fill-opacity:1;fill-rule:nonzero;stroke:none"
       transform="matrix(0.13333333,0,0,-0.13333333,0,273.33333)" />
    <path
       id="path11"
       d="m 420,1420 h 200 v 200 H 420 Z"
       style="fill:#cccccc;fill-opacity:1;fill-rule:nonzero;stroke:none"
       transform="matrix(0.13333333,0,0,-0.13333333,0,273.33333)" />
    <path
       id="path12"
       d="m 620,1420 h 200 v 200 H 620 Z"
       style="fill:#cccccc;fill-opacity:1;fill-rule:nonzero;stroke:none"
       transform="matrix(0.13333333,0,0,-0.13333333,0,273.33333)" />
    <path
       id="path13"
       d="m 820,1420 h 200 v 200 H 820 Z"
       style="fill:#cccccc;fill-opacity:1;fill-rule:nonzero;stroke:none"
       transform="matrix(0.13333333,0,0,-0.13333333,0,273.33333)" />
    <path
       id="path14"
       d="m 1020,1420 h 200 v 200 h -200 z"
       style="fill:#cccccc;fill-opacity:1;fill-rule:nonzero;stroke:none"
       transform="matrix(0.13333333,0,0,-0.13333333,0,273.33333)" />
    <path
       id="path15"
       d="m 1820,1420 h 200 v 200 h -200 z"
       style="fill:#cccccc;fill-opacity:1;fill-rule:nonzero;stroke:none"
       transform="matrix(0.13333333,0,0,-0.13333333,0,273.33333)" />
    <path
       id="path16"
       d="m 20,1220 h 200 v 200 H 20 Z"
       style="fill:#cccccc;fill-opacity:1;fill-rule:nonzero;stroke:none"
       transform="matrix(0.13333333,0,0,-0.13333333,0,273.33333)" />
    <path
       id="path17"
       d="m 220,1220 h 200 v 200 H 220 Z"
       style="fill:#cccccc;fill-opacity:1;fill-rule:nonzero;stroke:none"
       transform="matrix(0.13333333,0,0,-0.13333333,0,273.33333)" />
    <path
       id="path18"
       d="m 420,1220 h 200 v 200 H 420 Z"
       style="fill:#cccccc;fill-opacity:1;fill-rule:nonzero;stroke:none"
       transform="matrix(0.13333333,0,0,-0.13333333,0,273.33333)" />
    <path
       id="path19"
       d="m 1420,1220 h 200 v 200 h -200 z"
       style="fill:#cccccc;fill-opacity:1;fill-rule:nonzero;stroke:none"
       transform="matrix(0.13333333,0,0,-0.13333333,0,273.33333)" />
    <path
       id="path20"
       d="m 1820,1220 h 200 v 200 h -200 z"
       style="fill:#cccccc;fill-opacity:1;fill-rule:nonzero;stroke:none"
       transform="matrix(0.13333333,0,0,-0.13333333,0,273.33333)" />
    <path
       id="path21"
       d="m 20,1020 h 200 v 200 H 20 Z"
       style="fill:#cccccc;fill-opacity:1;fill-rule:nonzero;stroke:none"
       transform="matrix(0.13333333,0,0,-0.13333333,0,273.33333)" />
    <path
       id="path22"
       d="m 420,1020 h 200 v 200 H 420 Z"
       style="fill:#cccccc;fill-opacity:1;fill-rule:nonzero;stroke:none"
       transform="matrix(0.13333333,0,0,-0.13333333,0,273.33333)" />
    <path
       id="path23"
       d="m 1420,1020 h 200 v 200 h -200 z"
       style="fill:#cccccc;fill-opacity:1;fill-rule:nonzero;stroke:none"
       transform="matrix(0.13333333,0,0,-0.13333333,0,273.33333)" />
    <path
       id="path24"
       d="m 1620,1020 h 200 v 200 h -200 z"
       style="fill:#cccccc;fill-opacity:1;fill-rule:nonzero;stroke:none"
       transform="matrix(0.13333333,0,0,-0.13333333,0,273.33333)" />
    <path
       id="path25"
       d="m 1820,1020 h 200 v 200 h -200 z"
       style="fill:#cccccc;fill-opacity:1;fill-rule:nonzero;stroke:none"
       transform="matrix(0.13333333,0,0,-0.13333333,0,273.33333)" />
    <path
       id="path26"
       d="m 220,820 h 200 v 200 H 220 Z"
       style="fill:#cccccc;fill-opacity:1;fill-rule:nonzero;stroke:none"
       transform="matrix(0.13333333,0,0,-0.13333333,0,273.33333)" />
    <path
       id="path27"
       d="m 420,820 h 200 v 200 H 420 Z"
       style="fill:#cccccc;fill-opacity:1;fill-rule:nonzero;stroke:none"
       transform="matrix(0.13333333,0,0,-0.13333333,0,273.33333)" />
    <path
       id="path28"
       d="m 1020,820 h 200 v 200 h -200 z"
       style="fill:#cccccc;fill-opacity:1;fill-rule:nonzero;stroke:none"
       transform="matrix(0.13333333,0,0,-0.13333333,0,273.33333)" />
    <path
       id="path29"
       d="m 1220,820 h 200 v 200 h -200 z"
       style="fill:#cccccc;fill-opacity:1;fill-rule:nonzero;stroke:none"
       transform="matrix(0.13333333,0,0,-0.13333333,0,273.33333)" />
    <path
       id="path30"
       d="m 1420,820 h 200 v 200 h -200 z"
       style="fill:#cccccc;fill-opacity:1;fill-rule:nonzero;stroke:none"
       transform="matrix(0.13333333,0,0,-0.13333333,0,273.33333)" />
    <path
       id="path31"
       d="M 20,620 H 220 V 820 H 20 Z"
       style="fill:#cccccc;fill-opacity:1;fill-rule:nonzero;stroke:none"
       transform="matrix(0.13333333,0,0,-0.13333333,0,273.33333)" />
    <path
       id="path32"
       d="M 220,620 H 420 V 820 H 220 Z"
       style="fill:#cccccc;fill-opacity:1;fill-rule:nonzero;stroke:none"
       transform="matrix(0.13333333,0,0,-0.13333333,0,273.33333)" />
    <path
       id="path33"
       d="M 620,620 H 820 V 820 H 620 Z"
       style="fill:#cccccc;fill-opacity:1;fill-rule:nonzero;stroke:none"
       transform="matrix(0.13333333,0,0,-0.13333333,0,273.33333)" />
    <path
       id="path34"
       d="m 820,620 h 200 V 820 H 820 Z"
       style="fill:#cccccc;fill-opacity:1;fill-rule:nonzero;stroke:none"
       transform="matrix(0.13333333,0,0,-0.13333333,0,273.33333)" />
    <path
       id="path35"
       d="m 1020,620 h 200 v 200 h -200 z"
       style="fill:#cccccc;fill-opacity:1;fill-rule:nonzero;stroke:none"
       transform="matrix(0.13333333,0,0,-0.13333333,0,273.33333)" />
    <path
       id="path36"
       d="M 20,420 H 220 V 620 H 20 Z"
       style="fill:#cccccc;fill-opacity:1;fill-rule:nonzero;stroke:none"
       transform="matrix(0.13333333,0,0,-0.13333333,0,273.33333)" />
    <path
       id="path37"
       d="m 1020,420 h 200 v 200 h -200 z"
       style="fill:#cccccc;fill-opacity:1;fill-rule:nonzero;stroke:none"
       transform="matrix(0.13333333,0,0,-0.13333333,0,273.33333)" />
    <path
       id="path38"
       d="m 1220,420 h 200 v 200 h -200 z"
       style="fill:#cccccc;fill-opacity:1;fill-rule:nonzero;stroke:none"
       transform="matrix(0.13333333,0,0,-0.13333333,0,273.33333)" />
    <path
       id="path39"
       d="m 1420,420 h 200 v 200 h -200 z"
       style="fill:#cccccc;fill-opacity:1;fill-rule:nonzero;stroke:none"
       transform="matrix(0.13333333,0,0,-0.13333333,0,273.33333)" />
    <path
       id="path40"
       d="m 1620,420 h 200 v 200 h -200 z"
       style="fill:#cccccc;fill-opacity:1;fill-rule:nonzero;stroke:none"
       transform="matrix(0.13333333,0,0,-0.13333333,0,273.33333)" />
    <path
       id="path41"
       d="M 20,220 H 220 V 420 H 20 Z"
       style="fill:#cccccc;fill-opacity:1;fill-rule:nonzero;stroke:none"
       transform="matrix(0.13333333,0,0,-0.13333333,0,273.33333)" />
    <path
       id="path42"
       d="M 220,220 H 420 V 420 H 220 Z"
       style="fill:#cccccc;fill-opacity:1;fill-rule:nonzero;stroke:none"
       transform="matrix(0.13333333,0,0,-0.13333333,0,273.33333)" />
    <path
       id="path43"
       d="M 620,220 H 820 V 420 H 620 Z"
       style="fill:#cccccc;fill-opacity:1;fill-rule:nonzero;stroke:none"
       transform="matrix(0.13333333,0,0,-0.13333333,0,273.33333)" />
    <path
       id="path44"
       d="m 1220,220 h 200 v 200 h -200 z"
       style="fill:#cccccc;fill-opacity:1;fill-rule:nonzero;stroke:none"
       transform="matrix(0.13333333,0,0,-0.13333333,0,273.33333)" />
    <path
       id="path45"
       d="m 1620,220 h 200 v 200 h -200 z"
       style="fill:#cccccc;fill-opacity:1;fill-rule:nonzero;stroke:none"
       transform="matrix(0.13333333,0,0,-0.13333333,0,273.33333)" />
    <path
       id="path46"
       d="M 220,20 H 420 V 220 H 220 Z"
       style="fill:#cccccc;fill-opacity:1;fill-rule:nonzero;stroke:none"
       transform="matrix(0.13333333,0,0,-0.13333333,0,273.33333)" />
    <path
       id="path47"
       d="M 420,20 H 620 V 220 H 420 Z"
       style="fill:#cccccc;fill-opacity:1;fill-rule:nonzero;stroke:none"
       transform="matrix(0.13333333,0,0,-0.13333333,0,273.33333)" />
    <path
       id="path48"
       d="M 620,20 H 820 V 220 H 620 Z"
       style="fill:#cccccc;fill-opacity:1;fill-rule:nonzero;stroke:none"
       transform="matrix(0.13333333,0,0,-0.13333333,0,273.33333)" />
    <path
       id="path49"
       d="m 820,20 h 200 V 220 H 820 Z"
       style="fill:#cccccc;fill-opacity:1;fill-rule:nonzero;stroke:none"
       transform="matrix(0.13333333,0,0,-0.13333333,0,273.33333)" />
    <path
       id="path50"
       d="m 1620,20 h 200 v 200 h -200 z"
       style="fill:#cccccc;fill-opacity:1;fill-rule:nonzero;stroke:none"
       transform="matrix(0.13333333,0,0,-0.13333333,0,273.33333)" />
    <path
       id="path51"
       d="M 20,20 H 2020 V 2020 H 20 Z"
       style="fill:none;stroke:#000000;stroke-width:16;stroke-linecap:butt;stroke-linejoin:miter;stroke-miterlimit:10;stroke-dasharray:none;stroke-opacity:1"
       transform="matrix(0.13333333,0,0,-0.13333333,0,273.33333)" />
    <path
       id="path52"
       d="M 20,20 H 2020 M 20,220 H 2020 M 20,420 H 2020 M 20,620 H 2020 M 20,820 H 2020 M 20,1020 H 2020 M 20,1220 H 2020 M 20,1420 H 2020 M 20,1620 H 2020 M 20,1820 H 2020 M 20,2020 h 2000"
       style="fill:none;stroke:#000000;stroke-width:4;stroke-linecap:butt;stroke-linejoin:miter;stroke-miterlimit:10;stroke-dasharray:none;stroke-opacity:1"
       transform="matrix(0.13333333,0,0,-0.13333333,0,273.33333)" />
    <path
       id="path53"
       d="M 20,20 V 2020 M 220,20 V 2020 M 420,20 V 2020 M 620,20 V 2020 M 820,20 V 2020 M 1020,20 V 2020 M 1220,20 V 2020 M 1420,20 V 2020 M 1620,20 V 2020 M 1820,20 V 2020 M 2020,20 v 2000"
       style="fill:none;stroke:#000000;stroke-width:4;stroke-linecap:butt;stroke-linejoin:miter;stroke-miterlimit:10;stroke-dasharray:none;stroke-opacity:1"
       transform="matrix(0.13333333,0,0,-0.13333333,0,273.33333)" />
    <path
       id="path54"
       d="m 1270,1440 h 100 v 90 h -100 z"
       style="fill:#ff8080;fill-opacity:1;fill-rule:nonzero;stroke:none"
       transform="matrix(0.13333333,0,0,-0.13333333,0,273.33333)" />
    <path
       id="path55"
       d="m 180,1524 c 0,33.14 -26.863,60 -60,60 -33.1367,0 -60,-26.86 -60,-60 0,-33.14 26.8633,-60 60,-60 33.137,0 60,26.86 60,60"
       style="fill:#80ff80;fill-opacity:1;fill-rule:nonzero;stroke:none"
       transform="matrix(0.13333333,0,0,-0.13333333,0,273.33333)" />
    <text
       id="text55"
       xml:space="preserve"
       transform="matrix(1.3333333,0,0,1.3333333,58.9552,46.666667)"><tspan
         style="font-variant:normal;font-weight:normal;font-size:8px;font-family:Arial;writing-mode:lr-tb;fill:#000000;fill-opacity:1;fill-rule:nonzero;stroke:none"
         x="0 4.448 11.12"
         y="0"
         id="tspan55">9 4</tspan><tspan
         style="font-variant:normal;font-weight:normal;font-size:8px;font-family:Arial;writing-mode:lr-tb;fill:#000000;fill-opacity:1;fill-rule:nonzero;stroke:none"
         x="-34.660198"
         y="20"
         id="tspan56">?</tspan><tspan
         style="font-variant:normal;font-weight:normal;font-size:8px;font-family:Arial;writing-mode:lr-tb;fill:#000000;fill-opacity:1;fill-rule:nonzero;stroke:none"
         x="79.999802 84.4478 91.119797"
         y="16"
         id="tspan57">5 2</tspan><tspan
         style="font-variant:normal;font-weight:normal;font-size:8px;font-family:Arial;writing-mode:lr-tb;fill:#000000;fill-opacity:1;fill-rule:nonzero;stroke:none"
         x="85.339638"
         y="24"
         id="tspan58">?</tspan><tspan
         style="font-variant:normal;font-weight:normal;font-size:8px;font-family:Arial;writing-mode:lr-tb;fill:#000000;fill-opacity:1;fill-rule:nonzero;stroke:none"
         x="-40.66436 -36.216358 -28.440529"
         y="80"
         id="tspan59">121</tspan><tspan
         style="font-variant:normal;font-weight:normal;font-size:8px;font-family:Arial;writing-mode:lr-tb;fill:#000000;fill-opacity:1;fill-rule:nonzero;stroke:none"
         x="1.11184 5.5598402 10.00784"
         y="117"
         id="tspan60">3 3</tspan><tspan
         style="font-variant:normal;font-weight:normal;font-size:8px;font-family:Arial;writing-mode:lr-tb;fill:#000000;fill-opacity:1;fill-rule:nonzero;stroke:none"
         x="0.671606 5.5596061 10.007606"
         y="125"
         id="tspan61">? ?</tspan><tspan
         style="font-variant:normal;font-weight:normal;font-size:8px;font-family:Arial;writing-mode:lr-tb;fill:#000000;fill-opacity:1;fill-rule:nonzero;stroke:none"
         x="60.671604 65.559608 70.007607 99.999763 104.44777 111.11977"
         y="160"
         id="tspan62">? ?8 4</tspan><tspan
         style="font-variant:normal;font-weight:normal;font-size:10px;font-family:Arial;writing-mode:lr-tb;fill:#000000;fill-opacity:1;fill-rule:nonzero;stroke:none"
         x="102.2236 107.78361"
         y="-18"
         id="tspan63">10</tspan><tspan
         style="font-variant:normal;font-weight:normal;font-size:10px;font-family:Arial;writing-mode:lr-tb;fill:#000000;fill-opacity:1;fill-rule:nonzero;stroke:none"
         x="122.2236 127.78361"
         y="42"
         id="tspan64">20</tspan><tspan
         style="font-variant:normal;font-weight:normal;font-size:10px;font-family:Arial;writing-mode:lr-tb;fill:#000000;fill-opacity:1;fill-rule:nonzero;stroke:none"
         x="145.00331"
         y="102"
         id="tspan65">2</tspan></text>
    <path
       id="path65"
       d="m 420,1620 h 200 v 200 H 420 Z"
       style="fill:none;stroke:#000000;stroke-width:16;stroke-linecap:butt;stroke-linejoin:miter;stroke-miterlimit:10;stroke-dasharray:none;stroke-opacity:1"
       transform="matrix(0.13333333,0,0,-0.13333333,0,273.33333)" />
    <path
       id="path66"
       d="m 20,1420 h 200 v 200 H 20 Z"
       style="fill:none;stroke:#000000;stroke-width:16;stroke-linecap:butt;stroke-linejoin:miter;stroke-miterlimit:10;stroke-dasharray:none;stroke-opacity:1"
       transform="matrix(0.13333333,0,0,-0.13333333,0,273.33333)" />
    <path
       id="path67"
       d="m 1220,1420 h 200 v 200 h -200 z"
       style="fill:none;stroke:#000000;stroke-width:16;stroke-linecap:butt;stroke-linejoin:miter;stroke-miterlimit:10;stroke-dasharray:none;stroke-opacity:1"
       transform="matrix(0.13333333,0,0,-0.13333333,0,273.33333)" />
    <path
       id="path68"
       d="m 20,820 h 200 v 200 H 20 Z"
       style="fill:none;stroke:#000000;stroke-width:16;stroke-linecap:butt;stroke-linejoin:miter;stroke-miterlimit:10;stroke-dasharray:none;stroke-opacity:1"
       transform="matrix(0.13333333,0,0,-0.13333333,0,273.33333)" />
    <path
       id="path69"
       d="M 420,420 H 620 V 620 H 420 Z"
       style="fill:none;stroke:#000000;stroke-width:16;stroke-linecap:butt;stroke-linejoin:miter;stroke-miterlimit:10;stroke-dasharray:none;stroke-opacity:1"
       transform="matrix(0.13333333,0,0,-0.13333333,0,273.33333)" />
    <path
       id="path70"
       d="m 1020,20 h 200 v 200 h -200 z"
       style="fill:none;stroke:#000000;stroke-width:16;stroke-linecap:butt;stroke-linejoin:miter;stroke-miterlimit:10;stroke-dasharray:none;stroke-opacity:1"
       transform="matrix(0.13333333,0,0,-0.13333333,0,273.33333)" />
    <path
       id="path71"
       d="m 1420,20 h 200 v 200 h -200 z"
       style="fill:none;stroke:#000000;stroke-width:16;stroke-linecap:butt;stroke-linejoin:miter;stroke-miterlimit:10;stroke-dasharray:none;stroke-opacity:1"
       transform="matrix(0.13333333,0,0,-0.13333333,0,273.33333)" />
    <path
       id="path72"
       d="m 1420,1820 h 200 v 200 h -200 z"
       style="fill:none;stroke:#000000;stroke-width:16;stroke-linecap:butt;stroke-linejoin:miter;stroke-miterlimit:10;stroke-dasharray:none;stroke-opacity:1"
       transform="matrix(0.13333333,0,0,-0.13333333,0,273.33333)" />
    <path
       id="path73"
       d="m 1620,1220 h 200 v 200 h -200 z"
       style="fill:none;stroke:#000000;stroke-width:16;stroke-linecap:butt;stroke-linejoin:miter;stroke-miterlimit:10;stroke-dasharray:none;stroke-opacity:1"
       transform="matrix(0.13333333,0,0,-0.13333333,0,273.33333)" />
    <path
       id="path74"
       d="m 1820,620 h 200 v 200 h -200 z"
       style="fill:none;stroke:#000000;stroke-width:16;stroke-linecap:butt;stroke-linejoin:miter;stroke-miterlimit:10;stroke-dasharray:none;stroke-opacity:1"
       transform="matrix(0.13333333,0,0,-0.13333333,0,273.33333)" />
    <text
       id="text74"
       xml:space="preserve"
       transform="matrix(1.3333333,0,0,1.3333333,91.55216,22.666667)"><tspan
         style="font-variant:normal;font-weight:normal;font-size:12px;font-family:Arial;writing-mode:lr-tb;fill:#000000;fill-opacity:1;fill-rule:nonzero;stroke:none"
         x="0 20.00004 40.00008 60.000118 81.668037 120.00012"
         y="0"
         id="tspan74">4351 2</tspan><tspan
         style="font-variant:normal;font-weight:normal;font-size:12px;font-family:Arial;writing-mode:lr-tb;fill:#000000;fill-opacity:1;fill-rule:nonzero;stroke:none"
         x="-58.332119 20.00004 41.667961 60 80.000038 100.00008 120.00012"
         y="20"
         id="tspan75"> 2 5314</tspan><tspan
         style="font-variant:normal;font-weight:normal;font-size:12px;font-family:Arial;writing-mode:lr-tb;fill:#000000;fill-opacity:1;fill-rule:nonzero;stroke:none"
         x="-58.332119 -20.00004 0 20.00004 40.00008 61.667999 120.00012"
         y="40"
         id="tspan76"> 4512 3</tspan><tspan
         style="font-variant:normal;font-weight:normal;font-size:12px;font-family:Arial;writing-mode:lr-tb;fill:#000000;fill-opacity:1;fill-rule:nonzero;stroke:none"
         x="-60.000092 -40.00005 -20.00001 1.66791 80.000069 101.66799 120.00003"
         y="60"
         id="tspan77">342 5 1</tspan><tspan
         style="font-variant:normal;font-weight:normal;font-size:12px;font-family:Arial;writing-mode:lr-tb;fill:#000000;fill-opacity:1;fill-rule:nonzero;stroke:none"
         x="-60.000092 -38.332169 -20.00013 1.6677901 79.999947 99.999992 120.00003"
         y="80"
         id="tspan78">1 3 245</tspan><tspan
         style="font-variant:normal;font-weight:normal;font-size:12px;font-family:Arial;writing-mode:lr-tb;fill:#000000;fill-opacity:1;fill-rule:nonzero;stroke:none"
         x="-58.332119 -40.00008 -20.00004 1.6678801 39.999962 60 80.000038"
         y="100"
         id="tspan79"> 51 324</tspan><tspan
         style="font-variant:normal;font-weight:normal;font-size:12px;font-family:Arial;writing-mode:lr-tb;fill:#000000;fill-opacity:1;fill-rule:nonzero;stroke:none"
         x="-60.000092 -40.00005 -18.33213 -9.0000001e-05 19.99995 39.999989"
         y="120"
         id="tspan80">43 251</tspan><tspan
         style="font-variant:normal;font-weight:normal;font-size:12px;font-family:Arial;writing-mode:lr-tb;fill:#000000;fill-opacity:1;fill-rule:nonzero;stroke:none"
         x="-60.000092 -38.332169 39.999989 60.000031 80.000069 100.00011"
         y="140"
         id="tspan81">5 4312</tspan><tspan
         style="font-variant:normal;font-weight:normal;font-size:12px;font-family:Arial;writing-mode:lr-tb;fill:#000000;fill-opacity:1;fill-rule:nonzero;stroke:none"
         x="-60.000092 -40.00005 -18.33213 -9.0000001e-05 21.66783 59.999908 81.667831 99.99987"
         y="160"
         id="tspan82">21 3 4 5</tspan><tspan
         style="font-variant:normal;font-weight:normal;font-size:12px;font-family:Arial;writing-mode:lr-tb;fill:#000000;fill-opacity:1;fill-rule:nonzero;stroke:none"
         x="-58.332119 -40.00008 -20.00004 0 20.00004 41.667961 100.00008"
         y="180"
         id="tspan83"> 2514 3</tspan></text>
  </g>
</svg>
