<?xml version="1.0" encoding="UTF-8" standalone="no"?>
<!-- Created with Inkscape (http://www.inkscape.org/) -->

<svg
   version="1.1"
   id="svg1"
   width="320"
   height="320"
   viewBox="0 0 320 320"
   xmlns="http://www.w3.org/2000/svg"
   xmlns:svg="http://www.w3.org/2000/svg">
  <defs
     id="defs1" />
  <g
     id="g1">
    <path
       id="path1"
       d="M 770,20 H 2370 V 1620 H 770 Z"
       style="fill:none;stroke:#000000;stroke-width:16;stroke-linecap:butt;stroke-linejoin:miter;stroke-miterlimit:10;stroke-dasharray:none;stroke-opacity:1"
       transform="matrix(0.13333333,0,0,-0.13333333,0,320)" />
    <path
       id="path2"
       d="M 770,20 H 2370 M 770,220 H 2370 M 770,420 H 2370 M 770,620 H 2370 M 770,820 H 2370 M 770,1020 H 2370 M 770,1220 H 2370 M 770,1420 H 2370 M 770,1620 h 1600"
       style="fill:none;stroke:#000000;stroke-width:4;stroke-linecap:butt;stroke-linejoin:miter;stroke-miterlimit:10;stroke-dasharray:none;stroke-opacity:1"
       transform="matrix(0.13333333,0,0,-0.13333333,0,320)" />
    <path
       id="path3"
       d="M 770,20 V 1620 M 970,20 V 1620 M 1170,20 V 1620 M 1370,20 V 1620 M 1570,20 V 1620 M 1770,20 V 1620 M 1970,20 V 1620 M 2170,20 V 1620 M 2370,20 v 1600"
       style="fill:none;stroke:#000000;stroke-width:4;stroke-linecap:butt;stroke-linejoin:miter;stroke-miterlimit:10;stroke-dasharray:none;stroke-opacity:1"
       transform="matrix(0.13333333,0,0,-0.13333333,0,320)" />
    <path
       id="path4"
       d="m 410.004,850 h 150 v 150 h -150 z"
       style="fill:#ff8080;fill-opacity:1;fill-rule:nonzero;stroke:none"
       transform="matrix(0.13333333,0,0,-0.13333333,0,320)" />
    <path
       id="path5"
       d="m 566,1520 c 0,44.18 -35.82,80 -80,80 -44.18,0 -80,-35.82 -80,-80 0,-44.18 35.82,-80 80,-80 44.18,0 80,35.82 80,80"
       style="fill:#80ff80;fill-opacity:1;fill-rule:nonzero;stroke:none"
       transform="matrix(0.13333333,0,0,-0.13333333,0,320)" />
    <text
       id="text5"
       xml:space="preserve"
       transform="matrix(1.3333333,0,0,1.3333333,7.1094533,122.66667)"><tspan
         style="font-variant:normal;font-weight:normal;font-size:12px;font-family:Arial;writing-mode:lr-tb;fill:#000000;fill-opacity:1;fill-rule:nonzero;stroke:none"
         x="0 16.664003 20.000004 36.664009 40.000008 54.996037 61.668037"
         y="0"
         id="tspan5">1 3 ?56</tspan><tspan
         style="font-variant:normal;font-weight:normal;font-size:12px;font-family:Arial;writing-mode:lr-tb;fill:#000000;fill-opacity:1;fill-rule:nonzero;stroke:none"
         x="-1.66803 19.999998 36.664001 40.000004 56.664005 60.000008"
         y="20"
         id="tspan6"> 5 5 5</tspan><tspan
         style="font-variant:normal;font-weight:normal;font-size:12px;font-family:Arial;writing-mode:lr-tb;fill:#000000;fill-opacity:1;fill-rule:nonzero;stroke:none"
         x="-1.66803 34.996075 41.668076 56.664043 60.000042"
         y="40"
         id="tspan7"> 12 8</tspan><tspan
         style="font-variant:normal;font-weight:normal;font-size:12px;font-family:Arial;writing-mode:lr-tb;fill:#000000;fill-opacity:1;fill-rule:nonzero;stroke:none"
         x="-3.336 0 16.664003 20.000004 36.664009 40.000008 54.996037 61.668037"
         y="60"
         id="tspan8"> ? ? ?15</tspan><tspan
         style="font-variant:normal;font-weight:normal;font-size:12px;font-family:Arial;writing-mode:lr-tb;fill:#000000;fill-opacity:1;fill-rule:nonzero;stroke:none"
         x="-1.66803 54.996113 61.668114"
         y="80"
         id="tspan9"> 32</tspan><tspan
         style="font-variant:normal;font-weight:normal;font-size:12px;font-family:Arial;writing-mode:lr-tb;fill:#000000;fill-opacity:1;fill-rule:nonzero;stroke:none"
         x="-1.66803 19.999998 36.664001 40.000004 56.664005 60.000008"
         y="100"
         id="tspan10"> 6 6 6</tspan><tspan
         style="font-variant:normal;font-weight:normal;font-size:12px;font-family:Arial;writing-mode:lr-tb;fill:#000000;fill-opacity:1;fill-rule:nonzero;stroke:none"
         x="-1.66803 40.000038 54.996067 61.668064"
         y="120"
         id="tspan11"> 816</tspan><tspan
         style="font-variant:normal;font-weight:normal;font-size:12px;font-family:Arial;writing-mode:lr-tb;fill:#000000;fill-opacity:1;fill-rule:nonzero;stroke:none"
         x="-1.66803 34.996075 41.668076 54.996078 61.668079"
         y="140"
         id="tspan12"> 2111</tspan><tspan
         style="font-variant:normal;font-weight:normal;font-size:12px;font-family:Arial;writing-mode:lr-tb;fill:#000000;fill-opacity:1;fill-rule:nonzero;stroke:none"
         x="76.663971 79.999969"
         y="-80"
         id="tspan13"> 3</tspan><tspan
         style="font-variant:normal;font-weight:normal;font-size:12px;font-family:Arial;writing-mode:lr-tb;fill:#000000;fill-opacity:1;fill-rule:nonzero;stroke:none"
         x="76.663971 79.999969 98.33194 119.99998 137.66594 141.00194 158.33197 180.00002"
         y="-60"
         id="tspan14"> 4 ? * 6</tspan><tspan
         style="font-variant:normal;font-weight:normal;font-size:12px;font-family:Arial;writing-mode:lr-tb;fill:#000000;fill-opacity:1;fill-rule:nonzero;stroke:none"
         x="76.663971 79.999969 96.663971 99.999977 114.99602 121.66801 134.99602 141.66801 154.99602 161.66801 176.664 180 196.664 200"
         y="-40"
         id="tspan15"> 5 2361234 6 ?</tspan></text>
    <text
       id="text15"
       xml:space="preserve"
       transform="matrix(1.3333333,0,0,1.9047619,293.32667,69.333333)"><tspan
         style="font-variant:normal;font-weight:normal;font-size:8.4px;font-family:Arial;writing-mode:lr-tb;fill:#000000;fill-opacity:1;fill-rule:nonzero;stroke:none"
         x="0 4.6704001 9.3408003"
         y="0"
         id="tspan16">840</tspan></text>
    <text
       id="text16"
       xml:space="preserve"
       transform="matrix(1.3333333,0,0,1.3333333,113.77613,96)"><tspan
         style="font-variant:normal;font-weight:normal;font-size:12px;font-family:Arial;writing-mode:lr-tb;fill:#000000;fill-opacity:1;fill-rule:nonzero;stroke:none"
         x="0 14.996028 21.668028 36.664009 40.000008 57.665962 61.001965 74.99604 81.668037 96.664017 100.00002 114.99606 121.66806 134.99606 141.66806"
         y="0"
         id="tspan17">856 ? *15 62148</tspan><tspan
         style="font-variant:normal;font-weight:normal;font-size:12px;font-family:Arial;writing-mode:lr-tb;fill:#000000;fill-opacity:1;fill-rule:nonzero;stroke:none"
         x="-1.66803 19.999889 38.331928 59.999851 78.331886 99.999809 118.33185 138.33189"
         y="20"
         id="tspan18">1 3 9 87</tspan><tspan
         style="font-variant:normal;font-weight:normal;font-size:12px;font-family:Arial;writing-mode:lr-tb;fill:#000000;fill-opacity:1;fill-rule:nonzero;stroke:none"
         x="-1.66803 18.33201 39.999931 78.332008 98.332047 119.99997 138.33202"
         y="40"
         id="tspan19">32 41 5</tspan><tspan
         style="font-variant:normal;font-weight:normal;font-size:12px;font-family:Arial;writing-mode:lr-tb;fill:#000000;fill-opacity:1;fill-rule:nonzero;stroke:none"
         x="-5.9999998e-05 78.3321 98.332138 120.00006 138.33211"
         y="60"
         id="tspan20"> 75 8</tspan><tspan
         style="font-variant:normal;font-weight:normal;font-size:12px;font-family:Arial;writing-mode:lr-tb;fill:#000000;fill-opacity:1;fill-rule:nonzero;stroke:none"
         x="-1.66803 19.999889 38.331928 59.999851 78.331886 99.999809 118.33185 138.33189"
         y="80"
         id="tspan21">4 9 6 53</tspan><tspan
         style="font-variant:normal;font-weight:normal;font-size:12px;font-family:Arial;writing-mode:lr-tb;fill:#000000;fill-opacity:1;fill-rule:nonzero;stroke:none"
         x="-5.9999998e-05 38.33202 58.332062 78.3321 98.332138 118.33218 140.00011"
         y="100"
         id="tspan22"> 45869 </tspan><tspan
         style="font-variant:normal;font-weight:normal;font-size:12px;font-family:Arial;writing-mode:lr-tb;fill:#000000;fill-opacity:1;fill-rule:nonzero;stroke:none"
         x="-1.66803 18.33201 39.999931 58.33197 79.999893 118.33197 138.33202"
         y="120"
         id="tspan23">51 6 24</tspan><tspan
         style="font-variant:normal;font-weight:normal;font-size:12px;font-family:Arial;writing-mode:lr-tb;fill:#000000;fill-opacity:1;fill-rule:nonzero;stroke:none"
         x="-5.9999998e-05 18.33198 39.999901 58.33194 78.331978 98.332024 118.33206 138.33211"
         y="140"
         id="tspan24"> 8 13246</tspan><tspan
         style="font-variant:normal;font-weight:normal;font-size:12px;font-family:Arial;writing-mode:lr-tb;fill:#000000;fill-opacity:1;fill-rule:nonzero;stroke:none"
         x="-1.66803 18.33201 38.33205 59.999969 78.332008 98.332047 118.33209 138.33212"
         y="160"
         id="tspan25">876 5312</tspan></text>
  </g>
</svg>
