<?xml version="1.0" encoding="UTF-8" standalone="no"?>
<!-- Created with Inkscape (http://www.inkscape.org/) -->

<svg
   version="1.1"
   id="svg1"
   width="326.66666"
   height="326.66666"
   viewBox="0 0 326.66666 326.66666"
   xmlns="http://www.w3.org/2000/svg"
   xmlns:svg="http://www.w3.org/2000/svg">
  <defs
     id="defs1" />
  <g
     id="g1">
    <path
       id="path1"
       d="m 1840,2040 h 160 v 160 h -160 z"
       style="fill:#ff8080;fill-opacity:1;fill-rule:nonzero;stroke:none"
       transform="matrix(0.13333333,0,0,-0.13333333,0,326.66667)" />
    <path
       id="path2"
       d="m 810,1320 c 0,49.7 -40.297,90 -90,90 -49.703,0 -90,-40.3 -90,-90 0,-49.7 40.297,-90 90,-90 49.703,0 90,40.3 90,90"
       style="fill:#80ff80;fill-opacity:1;fill-rule:nonzero;stroke:none"
       transform="matrix(0.13333333,0,0,-0.13333333,0,326.66667)" />
    <path
       id="path3"
       d="M 20,20 H 2420 V 2420 H 20 Z"
       style="fill:none;stroke:#000000;stroke-width:12;stroke-linecap:butt;stroke-linejoin:miter;stroke-miterlimit:10;stroke-dasharray:none;stroke-opacity:1"
       transform="matrix(0.13333333,0,0,-0.13333333,0,326.66667)" />
    <path
       id="path4"
       d="M 20,20 H 2420 M 20,220 H 2420 M 20,420 H 2420 M 20,620 H 2420 M 20,820 H 2420 M 20,1020 H 2420 M 20,1220 H 2420 M 20,1420 H 2420 M 20,1620 H 2420 M 20,1820 H 2420 M 20,2020 H 2420 M 20,2220 H 2420 M 20,2420 h 2400"
       style="fill:none;stroke:#000000;stroke-width:4;stroke-linecap:butt;stroke-linejoin:miter;stroke-miterlimit:10;stroke-dasharray:none;stroke-opacity:1"
       transform="matrix(0.13333333,0,0,-0.13333333,0,326.66667)" />
    <path
       id="path5"
       d="M 20,20 V 2420 M 220,20 V 2420 M 420,20 V 2420 M 620,20 V 2420 M 820,20 V 2420 M 1020,20 V 2420 M 1220,20 V 2420 M 1420,20 V 2420 M 1620,20 V 2420 M 1820,20 V 2420 M 2020,20 V 2420 M 2220,20 V 2420 M 2420,20 v 2400"
       style="fill:none;stroke:#000000;stroke-width:4;stroke-linecap:butt;stroke-linejoin:miter;stroke-miterlimit:10;stroke-dasharray:none;stroke-opacity:1"
       transform="matrix(0.13333333,0,0,-0.13333333,0,326.66667)" />
    <path
       id="path6"
       d="m 20,2220 h 200 v 200 H 20 Z"
       style="fill:none;stroke:#000000;stroke-width:12;stroke-linecap:butt;stroke-linejoin:miter;stroke-miterlimit:10;stroke-dasharray:none;stroke-opacity:1"
       transform="matrix(0.13333333,0,0,-0.13333333,0,326.66667)" />
    <path
       id="path7"
       d="m 66,2380 v -120 m 0,0 20,50 m -20,-50 -20,50"
       style="fill:none;stroke:#000000;stroke-width:12;stroke-linecap:butt;stroke-linejoin:miter;stroke-miterlimit:10;stroke-dasharray:none;stroke-opacity:1"
       transform="matrix(0.13333333,0,0,-0.13333333,0,326.66667)" />
    <text
       id="text7"
       xml:space="preserve"
       transform="matrix(1.3333333,0,0,1.3333333,11.104173,22.666667)"><tspan
         style="font-variant:normal;font-weight:normal;font-size:12px;font-family:Arial;writing-mode:lr-tb;fill:#000000;fill-opacity:1;fill-rule:nonzero;stroke:none"
         x="0 6.6719999"
         y="0"
         id="tspan7">10</tspan></text>
    <path
       id="path8"
       d="m 2220,2220 h 200 v 200 h -200 z"
       style="fill:none;stroke:#000000;stroke-width:12;stroke-linecap:butt;stroke-linejoin:miter;stroke-miterlimit:10;stroke-dasharray:none;stroke-opacity:1"
       transform="matrix(0.13333333,0,0,-0.13333333,0,326.66667)" />
    <path
       id="path9"
       d="m 2380,2374 h -120 m 0,0 50,-20 m -50,20 50,20"
       style="fill:none;stroke:#000000;stroke-width:12;stroke-linecap:butt;stroke-linejoin:miter;stroke-miterlimit:10;stroke-dasharray:none;stroke-opacity:1"
       transform="matrix(0.13333333,0,0,-0.13333333,0,326.66667)" />
    <text
       id="text9"
       xml:space="preserve"
       transform="matrix(1.3333333,0,0,1.3333333,300.43733,26.666667)"><tspan
         style="font-variant:normal;font-weight:normal;font-size:12px;font-family:Arial;writing-mode:lr-tb;fill:#000000;fill-opacity:1;fill-rule:nonzero;stroke:none"
         x="0 6.6719999"
         y="0"
         id="tspan9">11</tspan></text>
    <path
       id="path10"
       d="m 1820,2020 h 200 v 200 h -200 z"
       style="fill:none;stroke:#000000;stroke-width:12;stroke-linecap:butt;stroke-linejoin:miter;stroke-miterlimit:10;stroke-dasharray:none;stroke-opacity:1"
       transform="matrix(0.13333333,0,0,-0.13333333,0,326.66667)" />
    <path
       id="path11"
       d="m 1866,2180 v -120 m 0,0 20,50 m -20,-50 -20,50"
       style="fill:none;stroke:#000000;stroke-width:12;stroke-linecap:butt;stroke-linejoin:miter;stroke-miterlimit:10;stroke-dasharray:none;stroke-opacity:1"
       transform="matrix(0.13333333,0,0,-0.13333333,0,326.66667)" />
    <text
       id="text11"
       xml:space="preserve"
       transform="matrix(1.3333333,0,0,1.3333333,255.552,49.333333)"><tspan
         style="font-variant:normal;font-weight:normal;font-size:12px;font-family:Arial;writing-mode:lr-tb;fill:#000000;fill-opacity:1;fill-rule:nonzero;stroke:none"
         x="0"
         y="0"
         id="tspan11">?</tspan></text>
    <path
       id="path12"
       d="m 420,1820 h 200 v 200 H 420 Z"
       style="fill:none;stroke:#000000;stroke-width:12;stroke-linecap:butt;stroke-linejoin:miter;stroke-miterlimit:10;stroke-dasharray:none;stroke-opacity:1"
       transform="matrix(0.13333333,0,0,-0.13333333,0,326.66667)" />
    <path
       id="path13"
       d="m 460,1866 h 120 m 0,0 -50,20 m 50,-20 -50,-20"
       style="fill:none;stroke:#000000;stroke-width:12;stroke-linecap:butt;stroke-linejoin:miter;stroke-miterlimit:10;stroke-dasharray:none;stroke-opacity:1"
       transform="matrix(0.13333333,0,0,-0.13333333,0,326.66667)" />
    <text
       id="text13"
       xml:space="preserve"
       transform="matrix(1.3333333,0,0,1.3333333,64.885467,72)"><tspan
         style="font-variant:normal;font-weight:normal;font-size:12px;font-family:Arial;writing-mode:lr-tb;fill:#000000;fill-opacity:1;fill-rule:nonzero;stroke:none"
         x="0"
         y="0"
         id="tspan13">3</tspan></text>
    <path
       id="path14"
       d="m 620,1220 h 200 v 200 H 620 Z"
       style="fill:none;stroke:#000000;stroke-width:12;stroke-linecap:butt;stroke-linejoin:miter;stroke-miterlimit:10;stroke-dasharray:none;stroke-opacity:1"
       transform="matrix(0.13333333,0,0,-0.13333333,0,326.66667)" />
    <path
       id="path15"
       d="m 660,1266 h 120 m 0,0 -50,20 m 50,-20 -50,-20"
       style="fill:none;stroke:#000000;stroke-width:12;stroke-linecap:butt;stroke-linejoin:miter;stroke-miterlimit:10;stroke-dasharray:none;stroke-opacity:1"
       transform="matrix(0.13333333,0,0,-0.13333333,0,326.66667)" />
    <text
       id="text15"
       xml:space="preserve"
       transform="matrix(1.3333333,0,0,1.3333333,91.552133,152)"><tspan
         style="font-variant:normal;font-weight:normal;font-size:12px;font-family:Arial;writing-mode:lr-tb;fill:#000000;fill-opacity:1;fill-rule:nonzero;stroke:none"
         x="0"
         y="0"
         id="tspan15">?</tspan></text>
    <path
       id="path16"
       d="m 1620,1220 h 200 v 200 h -200 z"
       style="fill:none;stroke:#000000;stroke-width:12;stroke-linecap:butt;stroke-linejoin:miter;stroke-miterlimit:10;stroke-dasharray:none;stroke-opacity:1"
       transform="matrix(0.13333333,0,0,-0.13333333,0,326.66667)" />
    <path
       id="path17"
       d="m 1780,1374 h -120 m 0,0 50,-20 m -50,20 50,20"
       style="fill:none;stroke:#000000;stroke-width:12;stroke-linecap:butt;stroke-linejoin:miter;stroke-miterlimit:10;stroke-dasharray:none;stroke-opacity:1"
       transform="matrix(0.13333333,0,0,-0.13333333,0,326.66667)" />
    <text
       id="text17"
       xml:space="preserve"
       transform="matrix(1.3333333,0,0,1.3333333,224.88533,160)"><tspan
         style="font-variant:normal;font-weight:normal;font-size:12px;font-family:Arial;writing-mode:lr-tb;fill:#000000;fill-opacity:1;fill-rule:nonzero;stroke:none"
         x="0"
         y="0"
         id="tspan17">?</tspan></text>
    <path
       id="path18"
       d="m 220,820 h 200 v 200 H 220 Z"
       style="fill:none;stroke:#000000;stroke-width:12;stroke-linecap:butt;stroke-linejoin:miter;stroke-miterlimit:10;stroke-dasharray:none;stroke-opacity:1"
       transform="matrix(0.13333333,0,0,-0.13333333,0,326.66667)" />
    <path
       id="path19"
       d="m 260,866 h 120 m 0,0 -50,20 m 50,-20 -50,-20"
       style="fill:none;stroke:#000000;stroke-width:12;stroke-linecap:butt;stroke-linejoin:miter;stroke-miterlimit:10;stroke-dasharray:none;stroke-opacity:1"
       transform="matrix(0.13333333,0,0,-0.13333333,0,326.66667)" />
    <text
       id="text19"
       xml:space="preserve"
       transform="matrix(1.3333333,0,0,1.3333333,33.7708,205.33333)"><tspan
         style="font-variant:normal;font-weight:normal;font-size:12px;font-family:Arial;writing-mode:lr-tb;fill:#000000;fill-opacity:1;fill-rule:nonzero;stroke:none"
         x="0 6.6719999"
         y="0"
         id="tspan19">11</tspan></text>
    <path
       id="path20"
       d="m 1020,820 h 200 v 200 h -200 z"
       style="fill:none;stroke:#000000;stroke-width:12;stroke-linecap:butt;stroke-linejoin:miter;stroke-miterlimit:10;stroke-dasharray:none;stroke-opacity:1"
       transform="matrix(0.13333333,0,0,-0.13333333,0,326.66667)" />
    <path
       id="path21"
       d="m 1174,860 v 120 m 0,0 -20,-50 m 20,50 20,-50"
       style="fill:none;stroke:#000000;stroke-width:12;stroke-linecap:butt;stroke-linejoin:miter;stroke-miterlimit:10;stroke-dasharray:none;stroke-opacity:1"
       transform="matrix(0.13333333,0,0,-0.13333333,0,326.66667)" />
    <text
       id="text21"
       xml:space="preserve"
       transform="matrix(1.3333333,0,0,1.3333333,140.88533,209.33333)"><tspan
         style="font-variant:normal;font-weight:normal;font-size:12px;font-family:Arial;writing-mode:lr-tb;fill:#000000;fill-opacity:1;fill-rule:nonzero;stroke:none"
         x="0"
         y="0"
         id="tspan21">9</tspan></text>
    <path
       id="path22"
       d="m 1620,620 h 200 v 200 h -200 z"
       style="fill:none;stroke:#000000;stroke-width:12;stroke-linecap:butt;stroke-linejoin:miter;stroke-miterlimit:10;stroke-dasharray:none;stroke-opacity:1"
       transform="matrix(0.13333333,0,0,-0.13333333,0,326.66667)" />
    <path
       id="path23"
       d="m 1774,660 v 120 m 0,0 -20,-50 m 20,50 20,-50"
       style="fill:none;stroke:#000000;stroke-width:12;stroke-linecap:butt;stroke-linejoin:miter;stroke-miterlimit:10;stroke-dasharray:none;stroke-opacity:1"
       transform="matrix(0.13333333,0,0,-0.13333333,0,326.66667)" />
    <text
       id="text23"
       xml:space="preserve"
       transform="matrix(1.3333333,0,0,1.3333333,220.88533,236)"><tspan
         style="font-variant:normal;font-weight:normal;font-size:12px;font-family:Arial;writing-mode:lr-tb;fill:#000000;fill-opacity:1;fill-rule:nonzero;stroke:none"
         x="0"
         y="0"
         id="tspan23">5</tspan></text>
    <path
       id="path24"
       d="M 220,420 H 420 V 620 H 220 Z"
       style="fill:none;stroke:#000000;stroke-width:12;stroke-linecap:butt;stroke-linejoin:miter;stroke-miterlimit:10;stroke-dasharray:none;stroke-opacity:1"
       transform="matrix(0.13333333,0,0,-0.13333333,0,326.66667)" />
    <path
       id="path25"
       d="m 260,466 h 120 m 0,0 -50,20 m 50,-20 -50,-20"
       style="fill:none;stroke:#000000;stroke-width:12;stroke-linecap:butt;stroke-linejoin:miter;stroke-miterlimit:10;stroke-dasharray:none;stroke-opacity:1"
       transform="matrix(0.13333333,0,0,-0.13333333,0,326.66667)" />
    <text
       id="text25"
       xml:space="preserve"
       transform="matrix(1.3333333,0,0,1.3333333,33.7708,258.66667)"><tspan
         style="font-variant:normal;font-weight:normal;font-size:12px;font-family:Arial;writing-mode:lr-tb;fill:#000000;fill-opacity:1;fill-rule:nonzero;stroke:none"
         x="0 6.6719999"
         y="0"
         id="tspan25">16</tspan></text>
    <path
       id="path26"
       d="M 20,20 H 220 V 220 H 20 Z"
       style="fill:none;stroke:#000000;stroke-width:12;stroke-linecap:butt;stroke-linejoin:miter;stroke-miterlimit:10;stroke-dasharray:none;stroke-opacity:1"
       transform="matrix(0.13333333,0,0,-0.13333333,0,326.66667)" />
    <path
       id="path27"
       d="m 60,66 h 120 m 0,0 -50,20 M 180,66 130,46"
       style="fill:none;stroke:#000000;stroke-width:12;stroke-linecap:butt;stroke-linejoin:miter;stroke-miterlimit:10;stroke-dasharray:none;stroke-opacity:1"
       transform="matrix(0.13333333,0,0,-0.13333333,0,326.66667)" />
    <text
       id="text27"
       xml:space="preserve"
       transform="matrix(1.3333333,0,0,1.3333333,7.1041733,312)"><tspan
         style="font-variant:normal;font-weight:normal;font-size:12px;font-family:Arial;writing-mode:lr-tb;fill:#000000;fill-opacity:1;fill-rule:nonzero;stroke:none"
         x="0 6.6719999"
         y="0"
         id="tspan27">18</tspan></text>
    <path
       id="path28"
       d="m 2220,20 h 200 v 200 h -200 z"
       style="fill:none;stroke:#000000;stroke-width:12;stroke-linecap:butt;stroke-linejoin:miter;stroke-miterlimit:10;stroke-dasharray:none;stroke-opacity:1"
       transform="matrix(0.13333333,0,0,-0.13333333,0,326.66667)" />
    <path
       id="path29"
       d="m 2374,60 v 120 m 0,0 -20,-50 m 20,50 20,-50"
       style="fill:none;stroke:#000000;stroke-width:12;stroke-linecap:butt;stroke-linejoin:miter;stroke-miterlimit:10;stroke-dasharray:none;stroke-opacity:1"
       transform="matrix(0.13333333,0,0,-0.13333333,0,326.66667)" />
    <text
       id="text29"
       xml:space="preserve"
       transform="matrix(1.3333333,0,0,1.3333333,296.43733,316)"><tspan
         style="font-variant:normal;font-weight:normal;font-size:12px;font-family:Arial;writing-mode:lr-tb;fill:#000000;fill-opacity:1;fill-rule:nonzero;stroke:none"
         x="0 6.6719999"
         y="0"
         id="tspan29">19</tspan></text>
    <path
       id="path30"
       d="M 1620,420 V 220"
       style="fill:none;stroke:#000000;stroke-width:16;stroke-linecap:butt;stroke-linejoin:miter;stroke-miterlimit:10;stroke-dasharray:none;stroke-opacity:1"
       transform="matrix(0.13333333,0,0,-0.13333333,0,326.66667)" />
    <path
       id="path31"
       d="m 1650,350 -60,-60"
       style="fill:none;stroke:#000000;stroke-width:4;stroke-linecap:butt;stroke-linejoin:miter;stroke-miterlimit:10;stroke-dasharray:none;stroke-opacity:1"
       transform="matrix(0.13333333,0,0,-0.13333333,0,326.66667)" />
    <path
       id="path32"
       d="m 1650,290 -60,60"
       style="fill:none;stroke:#000000;stroke-width:4;stroke-linecap:butt;stroke-linejoin:miter;stroke-miterlimit:10;stroke-dasharray:none;stroke-opacity:1"
       transform="matrix(0.13333333,0,0,-0.13333333,0,326.66667)" />
    <path
       id="path33"
       d="M 120,320 V 720 H 520 V 520 H 720 V 320 h 400 V 720 H 720 v 400 h 200 v 200 h 400 V 720 h 200 v 400 h 400 v 800 h -200 v -200 h -200 v -200 h -200 v 200 H 920 V 1520 H 720 v 200 H 520 V 1120 H 120 v 400 h 200 v 400 H 120 v 200 h 200 v 200 h 400 v -400 h 200 v 200 h 200 v 200 h 200 v -400 h 200 v 200 h 200 v 200 h 400 v -400 h 200 v -400 h -200 v -400 h 200 V 920 H 1920 V 720 h 200 V 520 h 200 V 320 H 1920 V 120 H 1720 V 520 H 1520 V 320 H 1320 V 120 H 520 V 320 H 120"
       style="fill:none;stroke:#000000;stroke-width:16;stroke-linecap:butt;stroke-linejoin:miter;stroke-miterlimit:10;stroke-dasharray:none;stroke-opacity:1"
       transform="matrix(0.13333333,0,0,-0.13333333,0,326.66667)" />
    <path
       id="path34"
       d="M 220,20 H 420 V 220 H 220 Z"
       style="fill:#000000;fill-opacity:1;fill-rule:nonzero;stroke:none"
       transform="matrix(0.13333333,0,0,-0.13333333,0,326.66667)" />
    <path
       id="path35"
       d="m 1420,20 h 200 v 200 h -200 z"
       style="fill:#000000;fill-opacity:1;fill-rule:nonzero;stroke:none"
       transform="matrix(0.13333333,0,0,-0.13333333,0,326.66667)" />
    <path
       id="path36"
       d="m 2020,20 h 200 v 200 h -200 z"
       style="fill:#000000;fill-opacity:1;fill-rule:nonzero;stroke:none"
       transform="matrix(0.13333333,0,0,-0.13333333,0,326.66667)" />
    <path
       id="path37"
       d="m 820,420 h 200 V 620 H 820 Z"
       style="fill:#000000;fill-opacity:1;fill-rule:nonzero;stroke:none"
       transform="matrix(0.13333333,0,0,-0.13333333,0,326.66667)" />
    <path
       id="path38"
       d="m 1220,420 h 200 v 200 h -200 z"
       style="fill:#000000;fill-opacity:1;fill-rule:nonzero;stroke:none"
       transform="matrix(0.13333333,0,0,-0.13333333,0,326.66667)" />
    <path
       id="path39"
       d="m 1820,420 h 200 v 200 h -200 z"
       style="fill:#000000;fill-opacity:1;fill-rule:nonzero;stroke:none"
       transform="matrix(0.13333333,0,0,-0.13333333,0,326.66667)" />
    <path
       id="path40"
       d="m 2220,620 h 200 v 200 h -200 z"
       style="fill:#000000;fill-opacity:1;fill-rule:nonzero;stroke:none"
       transform="matrix(0.13333333,0,0,-0.13333333,0,326.66667)" />
    <path
       id="path41"
       d="m 20,820 h 200 v 200 H 20 Z"
       style="fill:#000000;fill-opacity:1;fill-rule:nonzero;stroke:none"
       transform="matrix(0.13333333,0,0,-0.13333333,0,326.66667)" />
    <path
       id="path42"
       d="m 420,820 h 200 v 200 H 420 Z"
       style="fill:#000000;fill-opacity:1;fill-rule:nonzero;stroke:none"
       transform="matrix(0.13333333,0,0,-0.13333333,0,326.66667)" />
    <path
       id="path43"
       d="m 820,820 h 200 v 200 H 820 Z"
       style="fill:#000000;fill-opacity:1;fill-rule:nonzero;stroke:none"
       transform="matrix(0.13333333,0,0,-0.13333333,0,326.66667)" />
    <path
       id="path44"
       d="m 1620,820 h 200 v 200 h -200 z"
       style="fill:#000000;fill-opacity:1;fill-rule:nonzero;stroke:none"
       transform="matrix(0.13333333,0,0,-0.13333333,0,326.66667)" />
    <path
       id="path45"
       d="m 1020,1020 h 200 v 200 h -200 z"
       style="fill:#000000;fill-opacity:1;fill-rule:nonzero;stroke:none"
       transform="matrix(0.13333333,0,0,-0.13333333,0,326.66667)" />
    <path
       id="path46"
       d="m 220,1220 h 200 v 200 H 220 Z"
       style="fill:#000000;fill-opacity:1;fill-rule:nonzero;stroke:none"
       transform="matrix(0.13333333,0,0,-0.13333333,0,326.66667)" />
    <path
       id="path47"
       d="m 1420,1220 h 200 v 200 h -200 z"
       style="fill:#000000;fill-opacity:1;fill-rule:nonzero;stroke:none"
       transform="matrix(0.13333333,0,0,-0.13333333,0,326.66667)" />
    <path
       id="path48"
       d="m 2220,1220 h 200 v 200 h -200 z"
       style="fill:#000000;fill-opacity:1;fill-rule:nonzero;stroke:none"
       transform="matrix(0.13333333,0,0,-0.13333333,0,326.66667)" />
    <path
       id="path49"
       d="m 1020,1420 h 200 v 200 h -200 z"
       style="fill:#000000;fill-opacity:1;fill-rule:nonzero;stroke:none"
       transform="matrix(0.13333333,0,0,-0.13333333,0,326.66667)" />
    <path
       id="path50"
       d="m 1620,1420 h 200 v 200 h -200 z"
       style="fill:#000000;fill-opacity:1;fill-rule:nonzero;stroke:none"
       transform="matrix(0.13333333,0,0,-0.13333333,0,326.66667)" />
    <path
       id="path51"
       d="m 20,1620 h 200 v 200 H 20 Z"
       style="fill:#000000;fill-opacity:1;fill-rule:nonzero;stroke:none"
       transform="matrix(0.13333333,0,0,-0.13333333,0,326.66667)" />
    <path
       id="path52"
       d="m 2020,1620 h 200 v 200 h -200 z"
       style="fill:#000000;fill-opacity:1;fill-rule:nonzero;stroke:none"
       transform="matrix(0.13333333,0,0,-0.13333333,0,326.66667)" />
    <path
       id="path53"
       d="m 1020,1820 h 200 v 200 h -200 z"
       style="fill:#000000;fill-opacity:1;fill-rule:nonzero;stroke:none"
       transform="matrix(0.13333333,0,0,-0.13333333,0,326.66667)" />
    <path
       id="path54"
       d="m 420,2020 h 200 v 200 H 420 Z"
       style="fill:#000000;fill-opacity:1;fill-rule:nonzero;stroke:none"
       transform="matrix(0.13333333,0,0,-0.13333333,0,326.66667)" />
    <path
       id="path55"
       d="m 2220,2020 h 200 v 200 h -200 z"
       style="fill:#000000;fill-opacity:1;fill-rule:nonzero;stroke:none"
       transform="matrix(0.13333333,0,0,-0.13333333,0,326.66667)" />
    <path
       id="path56"
       d="m 820,2220 h 200 v 200 H 820 Z"
       style="fill:#000000;fill-opacity:1;fill-rule:nonzero;stroke:none"
       transform="matrix(0.13333333,0,0,-0.13333333,0,326.66667)" />
    <path
       id="path57"
       d="m 1420,2220 h 200 v 200 h -200 z"
       style="fill:#000000;fill-opacity:1;fill-rule:nonzero;stroke:none"
       transform="matrix(0.13333333,0,0,-0.13333333,0,326.66667)" />
  </g>
</svg>
