<?xml version="1.0" encoding="UTF-8" standalone="no"?>
<!-- Created with Inkscape (http://www.inkscape.org/) -->

<svg
   width="498.77094"
   height="319.72229"
   viewBox="0 0 498.77094 319.72229"
   version="1.1"
   id="svg1"
   xml:space="preserve"
   xmlns="http://www.w3.org/2000/svg"
   xmlns:svg="http://www.w3.org/2000/svg"><defs
     id="defs1"><filter
       style="color-interpolation-filters:sRGB"
       id="filter309"
       x="-0.12967133"
       y="-0.23666034"
       width="1.2593427"
       height="1.4733207"><feGaussianBlur
         stdDeviation="21.398825"
         id="feGaussianBlur309" /></filter><filter
       style="color-interpolation-filters:sRGB"
       id="filter331"
       x="-0.098388272"
       y="-0.33817345"
       width="1.1967671"
       height="1.6767575"><feGaussianBlur
         stdDeviation="2.0340274"
         id="feGaussianBlur331" /></filter><filter
       style="color-interpolation-filters:sRGB"
       id="filter332"
       x="-0.29330981"
       y="-0.45871802"
       width="1.5866009"
       height="1.9170939"><feGaussianBlur
         stdDeviation="2.0340274"
         id="feGaussianBlur332" /></filter><filter
       style="color-interpolation-filters:sRGB"
       id="filter333"
       x="-0.28338537"
       y="-0.47540188"
       width="1.5667705"
       height="1.950421"><feGaussianBlur
         stdDeviation="2.0340274"
         id="feGaussianBlur333" /></filter><filter
       style="color-interpolation-filters:sRGB"
       id="filter334"
       x="-0.16248813"
       y="-0.31534115"
       width="1.3252414"
       height="1.630267"><feGaussianBlur
         stdDeviation="2.0340274"
         id="feGaussianBlur334" /></filter><filter
       style="color-interpolation-filters:sRGB"
       id="filter335"
       x="-0.1060536"
       y="-0.38590492"
       width="1.212143"
       height="1.7718069"><feGaussianBlur
         stdDeviation="2.0340274"
         id="feGaussianBlur335" /></filter><filter
       style="color-interpolation-filters:sRGB"
       id="filter336"
       x="-0.27937765"
       y="-0.50903351"
       width="1.5593124"
       height="2.0187633"><feGaussianBlur
         stdDeviation="2.0340274"
         id="feGaussianBlur336" /></filter><filter
       style="color-interpolation-filters:sRGB"
       id="filter337"
       x="-0.070141127"
       y="-0.16106427"
       width="1.1402816"
       height="1.3222661"><feGaussianBlur
         stdDeviation="2.0340274"
         id="feGaussianBlur337" /></filter><filter
       style="color-interpolation-filters:sRGB"
       id="filter338"
       x="-0.12697406"
       y="-0.44313864"
       width="1.2540257"
       height="1.886159"><feGaussianBlur
         stdDeviation="2.0340274"
         id="feGaussianBlur338" /></filter><filter
       style="color-interpolation-filters:sRGB"
       id="filter339"
       x="-0.23593524"
       y="-0.45110345"
       width="1.4715302"
       height="1.9021015"><feGaussianBlur
         stdDeviation="2.0340274"
         id="feGaussianBlur339" /></filter><filter
       style="color-interpolation-filters:sRGB"
       id="filter340"
       x="-0.055529345"
       y="-0.19971951"
       width="1.1110588"
       height="1.4001663"><feGaussianBlur
         stdDeviation="2.0340274"
         id="feGaussianBlur340" /></filter></defs><g
     id="g25"
     style="display:inline"
     transform="translate(-710.61455,-610.13885)"><path
       d="m 1013.1873,661.49601 -69.12196,19.33234 -10.08289,-4.45528 -45.36764,13.2288 c -0.01,-6.4e-4 -0.28957,-0.0272 -0.28957,-0.0272 l -7.24249,2.22363 -5.44553,7.1345 c 0,0 3.0693,-0.15946 4.64298,-0.26545 l -1.79153,0.50127 c 0,0 -22.86842,5.98887 -42.90695,11.13542 -22.86445,5.8724 -71.03201,17.20194 -71.03201,17.20194 l -0.24384,24.79264 -2.05078,21.77574 0.0389,23.19809 -0.32225,28.41575 27.88178,10.73416 33.83036,14.57765 34.10509,11.55151 37.68066,15.95246 c 0,0 54.8495,-21.6498 57.96126,-21.6498 2.24232,0 25.15338,-9.71059 40.45243,-16.25681 v 0.6982 l -6.05843,4.25897 9.34261,2.0588 32.121,-12.46269 -0.038,0.48276 8.7475,-3.86202 0.7069,-5.6134 44.6417,-12.09044 42.786,-11.66879 31.1178,-3.8898 v -22.21714 -27.57063 l 0.7779,-21.78253 -1.8186,-17.03527 -51.7077,-18.70266 z"
       style="display:inline;fill:#c58dff;fill-opacity:1;stroke:none;stroke-width:2.6433;stroke-linejoin:round;filter:url(#filter309)"
       id="path309" /><g
       id="g24"
       transform="matrix(0.87814065,0,0,0.87814065,119.05108,85.11494)"><path
         style="fill:#81a381;fill-opacity:1;stroke:#000000;stroke-width:3;stroke-linejoin:round;stroke-dasharray:none"
         d="m 735.82165,731.69802 78.66376,28.71851 68.67473,29.96716 73.66927,-26.22123 67.42599,-19.97813 77.4152,-16.2322 78.6638,-16.23221 -58.6857,-21.22673 -103.6364,-33.71305 -152.87619,42.75644 c 0,0 -25.95394,6.79672 -48.69661,12.63779 -25.94989,6.66486 -80.61785,19.52365 -80.61785,19.52365 z"
         id="path3" /><path
         style="fill:#b3ccb3;fill-opacity:1;stroke:#000000;stroke-width:3;stroke-linejoin:round;stroke-dasharray:none"
         d="m 735.82165,731.69802 -0.27697,28.13853 -2.32739,24.71407 0.0443,26.32837 -0.36572,32.25017 31.64426,12.18337 38.39539,16.54435 38.70758,13.11065 42.76566,18.10515 0.33434,-17.94909 0.33435,-17.94909 -1.60515,-31.84006 -1.0658,-21.2895 0.75361,-23.66125 -68.67473,-29.96716 -26.93242,-9.83248 -27.55775,-10.06076 z"
         id="path5" /><path
         style="fill:#9bb19b;fill-opacity:1;stroke:#000000;stroke-width:3;stroke-linejoin:round;stroke-dasharray:none"
         d="m 1180.3343,711.71992 2.0642,19.33433 -0.8829,24.72164 -10e-5,31.29166 v 25.21493 l -35.3167,4.41458 -48.5603,13.24377 -84.7599,22.95579 c 0,0 -59.15532,25.60456 -62.68699,25.60456 -3.53166,0 -65.78282,24.5715 -65.78282,24.5715 l 0.66869,-35.89818 -1.60515,-31.84006 -1.0658,-21.2895 0.75365,-23.66125 73.66927,-26.22123 33.71301,-9.98907 33.71304,-9.98906 77.4151,-16.2322 z"
         id="path6" /><ellipse
         style="fill:none;fill-opacity:1;stroke:#000000;stroke-width:3.52965;stroke-linejoin:round;stroke-dasharray:none"
         id="ellipse6"
         transform="matrix(1,0,0.30148327,0.95347147,0,0)"
         ry="28.34193"
         rx="58.597771"
         cy="750.68378"
         cx="733.8653" /><path
         style="fill:none;fill-opacity:1;stroke:#000000;stroke-width:3;stroke-linejoin:round;stroke-dasharray:none"
         d="m 734.11145,742.06382 72.84053,27.81181 60.4797,26.04605"
         id="path7" /><path
         style="fill:none;fill-opacity:1;stroke:#000000;stroke-width:3;stroke-linejoin:round;stroke-dasharray:none"
         d="M 881.57924,816.09951 737.31052,758.95364"
         id="path8" /><path
         style="fill:none;fill-opacity:1;stroke:#000000;stroke-width:3;stroke-linejoin:round;stroke-dasharray:none"
         d="m 881.41291,804.80459 100.56366,-31.78496 53.85783,-16.7754 c 0,0 63.57,-13.24369 67.9846,-14.12662 4.4145,-0.8829 65.3357,-12.36084 65.3357,-12.36084"
         id="path9" /><path
         style="fill:none;fill-opacity:1;stroke:#000000;stroke-width:3;stroke-linejoin:round;stroke-dasharray:none"
         d="m 734.76019,776.96587 29.76051,11.95075 c 49.48955,19.58929 36.29971,13.58933 48.15027,18.54123 l 59.82407,22.48294"
         id="path10" /><path
         style="fill:none;fill-opacity:1;stroke:#000000;stroke-width:3;stroke-linejoin:round;stroke-dasharray:none"
         d="m 883.47233,835.33444 86.40204,-27.95433 43.00423,-12.46795 c 11.1335,-3.53166 23.5955,-7.06333 37.0825,-10.59499 l 43.2629,-9.71207 26.4874,-6.1804 37.9654,-7.06332 22.9558,-4.41459"
         id="path11" /><path
         style="fill:none;fill-opacity:1;stroke:#000000;stroke-width:3;stroke-linejoin:round;stroke-dasharray:none"
         d="m 884.2749,851.25447 -49.30381,-19.10636 -48.1189,-18.09982 -35.31663,-14.12659 -17.65829,-6.18047"
         id="path12" /><path
         style="fill:none;fill-opacity:1;stroke:#000000;stroke-width:3;stroke-linejoin:round;stroke-dasharray:none"
         d="m 884.9103,870.85156 34.37928,-11.72073 39.7312,-14.12664 35.31662,-10.59498 70.6332,-22.95582 c 0,0 56.5067,-12.36082 60.9213,-14.12666 4.4146,-1.76583 53.8578,-12.36076 53.8578,-12.36076"
         id="path13" /><path
         style="fill:none;fill-opacity:1;stroke:#000000;stroke-width:3;stroke-linejoin:round;stroke-dasharray:none"
         d="m 733.26164,811.7619 51.82472,19.06182 50.3262,20.30705 50.69791,19.70674"
         id="path14" /><path
         style="fill:none;fill-opacity:1;stroke:#000000;stroke-width:3;stroke-linejoin:round;stroke-dasharray:none"
         d="m 883.4723,886.21618 c 0,0 -65.71805,-27.13917 -70.13262,-28.02206 -4.4146,-0.88294 -40.61412,-15.00957 -46.79455,-17.65833 -6.1804,-2.64873 -25.39036,-8.98064 -25.39036,-8.98064"
         id="path15" /><path
         style="fill:none;fill-opacity:1;stroke:#000000;stroke-width:3;stroke-linejoin:round;stroke-dasharray:none"
         d="m 885.18459,887.35779 95.02615,-33.99281 73.28196,-22.9558 47.6775,-14.12664 44.1457,-10.18047 35.7582,-7.30997"
         id="path16" /><path
         style="fill:none;fill-opacity:1;stroke:#000000;stroke-width:3;stroke-linejoin:round;stroke-dasharray:none"
         d="m 1179.7497,773.488 -45.9116,7.94627 -43.2629,9.71207 -35.3166,7.06333 -68.86743,21.18994 -47.67741,17.65833 -40.6142,14.12663"
         id="path17" /><path
         style="fill:none;fill-opacity:1;stroke:#000000;stroke-width:3;stroke-linejoin:round;stroke-dasharray:none"
         d="m 1183.2814,743.23468 -59.1553,9.7121 -50.3263,9.71207 -59.1554,16.77539 -48.56033,13.24373 -77.6338,25.90749"
         id="path18" /><ellipse
         style="fill:none;fill-opacity:1;stroke:#000000;stroke-width:3.04732;stroke-linejoin:round;stroke-dasharray:none"
         id="ellipse18"
         cx="506.19968"
         cy="907.52899"
         rx="19.916523"
         ry="15.419172"
         transform="matrix(0.98480775,-0.17364817,0.41089084,0.91168455,0,0)" /><path
         style="fill:none;fill-opacity:1;stroke:#000000;stroke-width:3;stroke-linejoin:round;stroke-dasharray:none"
         d="m 874.41972,707.34973 -87.40422,22.47534 4.99457,11.23767 74.91787,29.96716 30.27013,0.77578 85.78983,-24.24117 138.6608,-35.84459 -2.0244,-12.85205 -90.1784,-29.96716 -21.9582,0.25852 -54.8954,15.71501 z"
         id="path19" /><ellipse
         style="mix-blend-mode:normal;fill:none;fill-opacity:1;stroke:#000000;stroke-width:2.70513;stroke-linejoin:round;stroke-dasharray:none"
         id="ellipse19"
         cx="679.38672"
         cy="889.88422"
         rx="17.680025"
         ry="13.687699"
         transform="matrix(0.98480775,-0.17364817,0.41089084,0.91168455,0,0)" /><path
         style="fill:#ffffe8;fill-opacity:1;stroke:#000000;stroke-width:3;stroke-linejoin:round;stroke-dasharray:none"
         d="m 861.90007,699.26925 6.18036,-8.09771 60.03829,-17.50685 37.96539,16.77544 56.50659,27.37039 27.3704,13.24369 -0.883,15.89254 -0.6243,84.95573 -2.283,18.13115 -46.34004,17.97966 -10.60418,-2.33658 6.87666,-4.83382 v -73.28206 l -1.76584,-37.08246 -59.15535,-31.78495 c 0,0 -36.19956,-17.6583 -44.14579,-19.42413 -7.94623,-1.76583 -29.13619,-4e-5 -29.13619,-4e-5 z"
         id="path20" /><path
         style="display:inline;fill:#a1a16e;fill-opacity:1;stroke:none;stroke-width:3;stroke-linejoin:round;stroke-dasharray:none"
         d="m 942.58826,688.99022 c 0,0 -10.62867,-6.31544 -16.49079,-8.07552 -4.7398,-1.42315 -14.725,-1.89513 -14.725,-1.89513 l 16.74625,-5.35488 37.96539,16.77544 56.50659,27.37039 27.3704,13.24369 -0.883,15.89254 -0.6243,84.95573 -2.283,18.13115 -9.9285,4.38323 1.4315,-18.02094 0.7313,-44.31561 0.078,-28.26519 0.9018,-12.80523 c 0,0 1.6115,-10.11243 -0.864,-14.12961 -1.6895,-2.74179 -8.3491,-4.86199 -8.3491,-4.86199 0,0 6.3126,2.53762 -7.7013,-4.22388 -14.0139,-6.76162 -40.81588,-19.35848 -44.45885,-21.17182 z"
         id="path21" /><path
         style="fill:#a1a16e;fill-opacity:1;stroke:none;stroke-width:3;stroke-linejoin:round;stroke-dasharray:none"
         d="m 861.90007,699.26925 6.18036,-8.09771 8.22006,-2.52329 c 0,0 14.89822,1.0656 22.02319,3.11626 15.55987,4.47832 44.35465,19.80283 44.35465,19.80283 l 43.9683,23.54495 c 0,0 13.47937,6.08659 17.03937,12.06701 2.4215,4.06768 1.6902,14.1007 1.6902,14.1007 l 1.2486,29.99316 v 59.03206 l -1.11,14.90786 -5.2424,2.35876 -11.04564,-1.89513 6.87667,-4.83382 v -73.28206 l -1.76584,-37.08246 -59.15535,-31.78495 c 0,0 -36.19956,-17.6583 -44.14579,-19.42413 -7.94623,-1.76583 -29.13619,-4e-5 -29.13619,-4e-5 z"
         id="path22" /><path
         style="fill:none;fill-opacity:1;stroke:#000000;stroke-width:3;stroke-linejoin:round;stroke-dasharray:none;stroke-opacity:1"
         d="m 861.90007,699.26925 6.18036,-8.09771 60.03829,-17.50685 37.96539,16.77544 56.50659,27.37039 27.3704,13.24369 -0.883,15.89254 -0.6243,84.95573 -2.283,18.13115 -46.34004,17.97966 -10.60418,-2.33658 6.87666,-4.83382 v -73.28206 l -1.76584,-37.08246 -59.15535,-31.78495 c 0,0 -36.19956,-17.6583 -44.14579,-19.42413 -7.94623,-1.76583 -29.13619,-4e-5 -29.13619,-4e-5 z"
         id="path23" /></g><path
       style="fill:#860eff;fill-opacity:1;stroke:#720ddb;stroke-width:3;stroke-linecap:round;stroke-linejoin:round;stroke-dasharray:none;stroke-opacity:1;filter:url(#filter340)"
       id="path312"
       d="m 803.34218,736.06823 c 3.38764,-1.9308 0.72663,-0.7236 4.86113,-1.6802 2.11783,-0.49 2.74413,-1.39686 4.85557,-0.0618 0.36269,0.22933 0.31528,0.80063 0.52117,1.17712 0.11408,0.2086 0.28845,0.37803 0.43267,0.56705 -1.39833,-1.198 1.30434,1.12724 1.44119,1.10351 0.65621,-0.11379 0.37482,-1.28649 0.67826,-1.87935 0.16853,-0.32928 0.70252,-0.47727 0.7171,-0.84689 0.0631,-1.60094 -1.33408,-1.16605 -0.20529,-1.40105 1.81831,-0.5866 -1.22737,0.20939 1.94576,0.76543 0.75512,0.13232 1.50967,-0.29282 2.275,-0.33731 0.90301,-0.0525 1.82237,0.20415 2.7132,0.0473 1.13433,-0.19976 4.106,-1.90306 4.94219,-2.34914 0.85036,-1.19292 1.79648,-2.32307 2.55107,-3.57876 2.10311,-3.49969 1.30448,-4.30935 4.66211,-6.5113 0.65535,-0.42979 1.45238,-0.77441 2.23485,-0.73026 0.59124,0.0334 0.99793,0.6382 1.50661,0.94139 0.35807,0.21342 0.72856,0.40531 1.09284,0.60797 0.62178,0.47759 1.47987,0.56339 2.10628,1.03099 0.51691,0.38586 0.79275,1.13052 1.40646,1.32913 0.47726,0.15445 0.9504,-0.35353 1.44939,-0.40493 4.65568,-0.47952 -1.22104,0.89215 3.88235,-0.48804 1.84551,-0.54522 2.96366,-2.45269 4.73586,-3.1002 1.0158,-0.37114 2.16225,-0.16473 3.22209,-0.37991 1.21436,-0.24656 2.34115,-1.02471 3.58006,-1.00113 4.08294,1.36315 2.20494,1.20522 5.56398,1.0042 3.36416,0.26917 1.47194,0.31123 5.07351,-0.27063 0.72242,-0.11672 1.48703,-0.0686 2.17035,-0.33046 0.88627,-0.33966 1.56577,-1.11069 2.45509,-1.44226 0.16179,-0.0603 3.01486,-0.41357 3.60912,-0.48851 1.2404,0.31337 1.3092,-1.1103 2.08739,-1.44073 0.17346,-0.0736 0.32642,0.19931 0.50896,0.24613 0.49343,0.12656 0.72879,-0.75164 1.19904,-0.94748 0.26318,-0.1096 0.56828,0.0466 0.85242,0.0698 0.24542,-0.49093 0.34436,-1.08851 0.73624,-1.47279 0.69301,-0.67956 2.2102,-1.11522 3.12691,-1.44705 0.14943,-0.0541 0.59453,-0.18444 0.46869,-0.0874 -0.0776,0.0598 -0.18442,0.0663 -0.27663,0.0995 0.66054,-0.003 1.39974,-0.32092 1.98162,-0.008 0.39923,0.21449 0.0272,1.05836 0.41361,1.29516 0.61797,0.37871 1.44175,0.15814 2.15626,0.27971 0.65859,0.11204 1.2921,0.39202 1.95954,0.42052 0.78883,0.0337 1.57123,-0.15747 2.35684,-0.23621 0.86695,0.0383 1.7339,0.0766 2.60085,0.11489 0.68331,-0.15875 1.34912,-0.44492 2.04993,-0.47625 0.23737,-0.0106 1.26517,0.93245 1.10625,-0.23201 -0.0781,-0.5724 -0.39612,-1.08558 -0.57767,-1.63402 -0.0352,-0.10646 -0.16176,-0.39587 -0.072,-0.32863 0.48173,0.36097 0.86842,0.83384 1.30263,1.25075 1.7506,1.57403 1.32526,-0.75625 0.92281,-0.91904 -0.24753,-0.10013 -0.51625,0.84003 -0.26254,0.75678 0.73699,-0.24182 1.50371,-0.38132 2.25717,-0.56554 2.10958,-0.3765 0.84577,0.16269 2.49965,-1.90538 1.08108,-1.35182 0.46277,-0.31784 1.78672,-1.48464 0.17325,-0.15269 0.17991,-0.51819 0.4069,-0.56072 0.16246,-0.0304 -0.0322,0.329 -0.0483,0.49351 0.27514,-1.39371 1.56269,-0.14559 2.08202,-0.77847 0.11937,-0.14547 0.11369,-0.41015 0.28543,-0.48707 0.11855,-0.0531 0.21751,0.14206 0.32627,0.2131 0.30832,-0.20376 0.61665,-0.40751 0.92497,-0.61127 0.45261,0.95617 0.0921,0.89285 0.67628,0.86505 0.99301,-0.0371 0.94052,-1.44144 -0.0525,-1.40432 v 0 c -0.0167,-0.7555 0.13744,-0.6537 -0.52024,-0.19116 -2.14519,-0.84597 -2.12846,-1.85263 -3.96615,0.33154 -0.36451,0.2123 -0.83806,0.30125 -1.09352,0.63692 -0.13951,0.18331 0.29989,0.59753 0.087,0.68558 -0.43977,0.1819 -1.03242,-0.40776 -1.42145,-0.13363 -0.36048,0.25402 0.1058,1.02334 -0.23622,1.30173 -5.5694,4.53328 1.76011,-4.04699 -2.70145,1.52424 -0.086,-0.3889 0.0605,0.0387 -0.60744,-0.0804 -0.36047,-0.0643 -0.67593,-0.4045 -1.03896,-0.35667 -0.71191,0.0938 -0.31435,2.42117 -1.60828,1.57524 0.14192,0.77012 0.16016,1.57369 0.42576,2.31035 0.0434,0.12029 0.3513,0.0155 0.36706,-0.11136 0.0882,-0.70981 0.0875,-1.45036 -0.0868,-2.14405 -0.29461,-1.17207 -3.58118,1.41777 -3.33661,0.58496 -2.01328,0.002 -4.23543,0.24563 -6.23557,-0.10652 -0.52939,-0.0932 -1.03485,-0.29133 -1.55227,-0.43699 -0.44156,-0.31307 -0.80076,-0.80322 -1.32469,-0.93922 -0.31419,-0.0816 -0.60308,0.24036 -0.90462,0.36053 -0.68501,-1.40019 0.0419,-0.57608 -1.489,-0.68924 -0.40945,-0.0303 -0.79266,-0.39864 -1.19284,-0.30689 -1.71616,0.39346 -2.75484,2.20729 -4.18454,3.06849 -3.28806,1.78985 -0.0853,-0.42254 -0.32153,1.31771 -0.0428,0.31506 -0.6091,-0.3467 -0.91635,-0.26489 -0.19751,0.0526 -0.0234,0.58122 -0.22743,0.56946 -0.49959,-0.0288 -0.88144,-0.84056 -1.34826,-0.66028 -0.46105,0.17804 -0.35256,0.92345 -0.52883,1.38517 -0.59681,-0.0652 -1.20915,-0.34564 -1.79042,-0.19547 -0.78531,0.20287 -1.37692,0.8666 -2.1144,1.20422 -0.83776,0.38352 -1.73325,0.62593 -2.59508,0.95176 -0.62345,0.23571 -1.19565,0.68513 -1.86047,0.73273 -0.74096,0.053 -1.44153,-0.42102 -2.18406,-0.44318 -0.7636,-0.0228 -1.51382,0.20685 -2.27073,0.31027 -6.48716,0.68049 3.11954,0.0197 -5.94285,-1.08241 -3.73543,-0.45426 -4.40456,0.56576 -7.48466,1.99859 -3.79878,1.76715 -1.84118,0.32035 -4.55876,2.83255 -3.07933,-0.6867 0.70911,-0.0997 -2.8382,0.3527 -0.50111,0.0639 -2.78362,-0.77943 -3.02851,-0.83779 -0.2228,-0.0531 -0.48253,0.0887 -0.68698,-0.0146 -0.33532,-0.16935 -0.55781,-0.50332 -0.83671,-0.75498 -0.89153,-0.47048 -2.89766,-1.63293 -3.85175,-1.61001 -1.03404,0.0248 -2.1385,0.28853 -2.96743,0.90719 -1.01391,0.75672 -1.56908,1.98675 -2.29679,3.02168 -2.36038,3.35687 -2.54674,3.89206 -4.49847,7.38083 -0.80382,0.20633 -1.67809,0.23058 -2.41147,0.61898 -0.71189,0.37701 -1.00228,1.50477 -1.8007,1.61176 -0.90736,0.1216 -1.63699,-0.92285 -2.54626,-1.02924 -0.60757,-0.0711 -4.71489,1.08138 -5.68881,0.27249 -0.4909,0.39823 -1.36469,0.57188 -1.47269,1.1947 -0.0823,0.47443 0.86455,0.51386 1.104,0.93161 0.13271,0.23152 -0.0773,0.52808 -0.11597,0.79212 -0.10993,0.007 -0.35349,-0.0877 -0.32979,0.0199 0.10269,0.46592 0.46624,0.8386 0.61864,1.29071 0.0659,0.19539 -0.23629,-0.33796 -0.35444,-0.50695 0.0798,-0.53848 0.47327,-1.12396 0.23927,-1.61546 -0.95668,-2.0094 -2.69769,-1.42504 -4.40628,-1.52409 -4.73567,-0.27455 -6.05979,-0.54442 -9.21867,3.58918 0,1.33424 1.88689,1.33424 1.88689,0 z" /><path
       style="mix-blend-mode:normal;fill:#860eff;fill-opacity:1;stroke:#720ddb;stroke-width:3;stroke-linecap:round;stroke-linejoin:round;stroke-dasharray:none;stroke-opacity:1;filter:url(#filter339)"
       id="path313"
       d="m 919.5041,697.54304 c 0.32729,-0.58458 0.67287,-1.1593 0.98189,-1.75375 1.18814,-2.28562 -0.52576,1.58472 1.45995,-0.0197 3.01031,-0.0309 1.49912,-1.98202 2.50327,-3.5575 0.30064,-0.47168 2.43758,-1.84329 3.08365,-1.98566 0.39373,-0.0868 0.79878,0.11024 1.19816,0.16536 0.24994,0.19392 0.65745,0.27919 0.74982,0.58175 0.19755,0.64709 -0.11515,1.37238 0.0473,2.02918 0.39599,1.60131 2.07617,-0.18435 2.34576,-0.62151 0.22287,-0.3614 -0.11523,-0.8414 -0.16348,-1.26325 -0.0611,-0.53449 -0.10976,-1.07033 -0.16465,-1.6055 0.0639,-0.35068 0.30622,-0.71446 0.19178,-1.05205 -0.14034,-0.41402 -0.67939,0.94239 -0.37543,1.25657 0.34888,0.3606 1.52524,0.45875 2.01512,0.3222 0.54197,-0.57727 1.25517,-1.03214 1.62589,-1.7318 0.31308,-0.59087 -1.67938,-1.34037 0.75908,-1.05372 0.40009,0.047 0.66848,0.6499 1.06396,0.5732 1.90241,-0.36896 -0.86448,-1.57587 1.11243,-0.51012 1.5983,0.7709 1.0444,1.12235 2.43716,0.29958 1.07069,-0.63252 0.15957,0.6607 1.06172,-1.47632 2.50475,3.15012 0.92882,-0.5829 1.03009,-0.24481 0.38801,1.29534 0.65485,0.33061 0.54883,0.13476 0.96323,0.82155 2.12508,-0.54066 1.16185,-1.36221 v 0 c -0.16845,-0.19617 -0.25364,-0.5294 -0.50537,-0.5885 -0.30428,-0.0714 -0.59537,0.19476 -0.90141,0.25824 -1.34185,0.27833 -1.98166,0.25334 -2.96644,1.36398 2.12073,0.0135 -0.76719,0.0464 -1.15561,-0.15606 -0.43195,-0.16704 -2.08283,-0.85841 -2.47348,-0.74912 -0.63616,0.17799 -1.01366,0.85891 -1.58717,1.18674 -0.91329,0.52205 -3.79674,0.75601 -1.93258,2.90304 0.27685,0.31885 0.83066,-0.15253 1.24599,-0.22879 -0.0755,0.0579 -0.13888,0.21067 -0.22653,0.17366 -0.22796,-0.0963 -0.34413,-0.36055 -0.54806,-0.5007 -1.45017,-0.99659 -4.11652,-0.98669 -3.48044,1.45108 0.12012,0.56925 0.24552,1.13742 0.36035,1.70776 0.0774,0.38452 -0.15811,1.03995 0.21637,1.15665 0.62988,0.19629 2.34792,-0.14862 1.61061,-0.95605 -0.15334,-0.16792 -2.85784,-2.69689 -3.07123,-2.8969 -1.53297,0.0859 -2.96202,0.016 -4.35489,0.95872 -1.27157,0.86061 -1.39386,2.46441 -2.1567,3.62639 -0.19275,0.29361 -0.96401,0.37078 -0.80257,0.6827 0.33921,0.6554 1.20889,0.8468 1.81333,1.2702 -0.40234,-0.30249 -0.84439,-0.55424 -1.22239,-0.88665 -0.38266,-0.33651 -0.60482,-0.9113 -1.08763,-1.07428 -0.49686,-0.16773 -1.0773,-0.0184 -1.56294,0.1795 -2.60934,1.06323 -1.94045,1.0384 -1.60883,3.41915 -0.40623,1.2187 1.31727,1.7932 1.7235,0.5745 z" /><path
       style="fill:#860eff;fill-opacity:1;stroke:#720ddb;stroke-width:3;stroke-linecap:round;stroke-linejoin:round;stroke-dasharray:none;stroke-opacity:1;filter:url(#filter338)"
       id="path314"
       d="m 972.4757,684.87421 c 1.2839,-0.48441 2.56781,-0.96881 3.85172,-1.45322 1.24857,-0.82091 2.38591,-1.84323 3.7457,-2.46272 1.05529,-0.48077 2.2712,-0.47744 3.38862,-0.78752 0.68891,-0.19117 1.30957,-0.66024 2.02249,-0.71406 0.20264,-0.0153 1.9773,0.60516 2.40482,0.75125 4.53422,0.62736 -1.06337,-0.28187 3.00561,0.78124 0.55016,0.14374 1.35208,-0.21364 1.68819,0.24502 0.30296,0.4134 -0.46372,0.96626 -0.42595,1.47739 0.16964,2.29596 1.3282,0.28372 0.0389,1.98556 9.2e-4,-1.81837 -0.19212,1.20637 1.95107,-0.0511 0.58633,-0.34401 -0.0256,-1.53906 0.49263,-1.97901 0.77317,-0.65635 1.99074,-0.4658 2.90483,-0.90516 0.64851,-0.31171 1.02881,-1.0898 1.71248,-1.31417 0.31142,-0.10221 0.57637,0.31227 0.86459,0.4684 -0.011,-0.0181 -0.023,-0.0362 -0.034,-0.0543 0.2932,0.0573 0.6024,0.0603 0.8796,0.17183 0.1401,0.0564 0.1985,0.39331 0.3268,0.31371 1.5396,-0.95481 0.7428,-1.83033 2.448,-1.25198 0.3522,-0.0863 0.6941,-0.24628 1.0565,-0.25886 0.6922,-0.024 1.3827,0.21211 2.0726,0.15026 4.8029,-0.43055 0.1372,-0.47011 3.9894,-1.12156 1.0621,-0.17962 2.1562,-0.0395 3.2285,-0.14233 1.8115,1.02329 2.3796,-0.14684 3.6389,-1.52597 0.055,-0.06 0.035,0.16233 0.079,0.2307 1.5936,0.77037 -0.9996,-0.31232 1.8911,-0.254 0.312,0.006 0.4646,0.70778 0.7438,0.56847 1.9561,-0.9758 0.2777,-4.25908 -0.1166,-5.33767 -0.4509,-1.08598 -1.9867,-0.4484 -1.5358,0.63758 v 0 c 0.092,0.70601 0.01,1.45794 0.2757,2.11804 0.2131,0.52738 2.6697,1.96071 1.5557,0.92373 -0.4846,-0.45108 -2.461,-0.54172 -2.9748,-1.09429 -0.1771,0.17496 -1.4731,1.45909 -1.6385,1.60807 -0.088,0.0798 -0.3499,0.0972 -0.2945,0.20277 0.081,0.15352 0.5904,0.0298 0.4908,0.17168 -0.4251,0.60594 -2.2356,-0.4618 -2.1665,-0.48741 -1.5014,-0.0414 -2.3562,-0.2336 -3.7984,0.45529 -0.5221,0.2494 -0.8073,0.90263 -1.3575,1.08181 -0.5929,0.1931 -1.2523,-0.11258 -1.8705,-0.0305 -3.5844,0.47583 -0.9754,1.1469 -4.2082,-0.27609 -0.3905,0.4298 -0.7835,0.85729 -1.1714,1.28939 -0.3133,0.34898 -1.3156,0.78373 -0.9322,1.05379 0.4968,0.34988 1.1695,-0.33169 1.7611,-0.46992 0.2256,-0.0527 -0.4406,0.28257 -0.6616,0.21303 -0.2626,-0.0826 -0.3785,-0.3999 -0.5678,-0.59985 -0.4034,-0.0568 -0.8068,-0.11365 -1.2102,-0.17048 -1.43515,-0.1252 -2.80508,-0.40974 -4.1562,0.62107 -0.83609,0.63787 -1.10503,1.79129 -1.71367,2.64889 -0.77166,1.08729 -2.52088,2.16346 -1.13316,3.8789 0.24674,0.305 0.5631,-0.54639 0.84465,-0.81958 0.15635,-0.45104 0.42814,-0.8775 0.46906,-1.35312 0.13321,-1.54826 -0.67977,-4.79321 -2.25075,-5.56627 -0.2585,-0.1272 -3.34556,-0.46238 -3.88531,-0.52436 -2.83436,0.0744 0.12813,-0.1165 -3.03181,0.49525 -0.69534,0.13461 -1.41821,0.10592 -2.10789,0.26702 -4.07624,0.95215 -7.87896,2.76514 -11.52158,4.78171 -0.99959,0.66639 -0.0572,2.08002 0.94242,1.41363 z" /><path
       style="fill:#860eff;fill-opacity:1;stroke:#720ddb;stroke-width:3;stroke-linecap:round;stroke-linejoin:round;stroke-dasharray:none;stroke-opacity:1;filter:url(#filter337)"
       id="path315"
       d="m 845.14634,753.54907 c -0.32666,0.0951 1.54009,-1.87145 0.85869,-2.35506 -0.20644,-0.14651 -0.11625,0.66097 -0.36939,0.66357 -0.39226,0.004 -1.36664,-0.72299 -0.98126,-0.64969 2.68573,0.51083 0.92047,1.37798 2.5781,0.24616 1.18877,-4.34017 0.34608,-0.074 0.25863,-4.34323 -0.0172,-0.84 0.25506,-1.66811 0.24836,-2.50826 -0.009,-1.13448 -0.44631,-1.89979 -0.50772,-1.82688 -0.37349,0.44335 -0.52617,1.03313 -0.78925,1.54969 1.39241,3.53533 4.53727,0.13516 6.25911,0.49509 0.61089,0.1277 0.88092,0.88429 1.32138,1.32644 0.88497,0.15168 1.76994,0.30336 2.65492,0.45504 3.65268,2.23083 7.25835,4.77712 11.27758,6.33725 0.95209,0.36957 1.97071,0.5378 2.96166,0.78493 0.29739,0.0742 0.66694,-0.0181 0.90198,0.17863 0.16048,0.1343 0.0389,0.41671 0.0583,0.62507 2.13401,-4.53318 0.91321,-0.44423 0.44178,-4.19261 -0.4453,-3.54063 0.54108,-2.03473 0.23517,-5.31979 -0.39503,-4.24209 -0.97149,-0.47651 -0.20906,-3.91391 -0.0551,-0.33626 -0.29054,-2.33338 -0.6385,0.77476 -0.0185,0.16552 0.2683,0.2007 0.38072,0.32359 0.33595,0.36724 0.47772,1.02329 0.96084,1.14294 0.80486,0.19932 1.64108,-0.30472 2.47018,-0.29325 0.63229,0.009 1.24259,0.23549 1.86389,0.35323 2.03812,0.56989 4.48079,1.01791 6.5885,0.45196 0.29852,-0.0802 0.50179,-0.37032 0.78576,-0.49239 0.66518,-0.28594 1.39922,-0.3763 2.08587,-0.60594 0.55392,-1.33638 -0.78699,-2.19375 -0.91454,-3.34147 -0.0804,-0.7235 0.24672,-1.43907 0.27504,-2.16647 0.0257,-0.65932 -0.0725,-1.31765 -0.11375,-1.97617 -0.10345,-1.6512 -0.61518,-1.57905 0.27459,-1.48505 0.77827,0.57165 1.78713,1.36358 2.67708,1.52925 0.77875,0.14497 1.57943,-0.34224 2.36455,-0.23706 3.39385,0.45462 1.17301,1.18084 4.27385,2.60423 0.69221,0.31774 1.51466,0.16211 2.272,0.24317 4.95801,0.75332 -1.48555,0.0598 2.76093,-0.31533 0.41468,-0.0366 0.78681,0.32461 1.20296,0.33554 1.33635,0.0351 1.71265,-0.87523 2.34458,-1.86739 0.0852,-1.07318 -0.7786,-1.89209 -0.91537,-2.89484 -0.0959,-0.70286 0.25114,-1.4429 0.064,-2.12714 -0.43162,-1.57814 -1.44244,-1.26531 -1.60173,-3.36267 -0.0681,-0.0615 -0.25773,-0.25909 -0.20421,-0.18457 1.93992,2.70129 -0.19956,0.18344 3.60371,1.02309 1.05333,0.23254 1.82072,1.27017 2.87943,1.47684 4.34091,-0.32581 2.29438,-0.55625 6.15694,0.5144 0.44487,-0.16519 0.86826,-0.40775 1.33462,-0.49559 0.60824,-0.11456 5.71634,0.5138 1.36688,-2.17945 -0.25229,-0.53899 0.61415,-0.9715 0.67536,-1.28526 0.0223,-0.11449 -0.27155,0.0585 -0.34872,-0.0289 -0.564,-0.6393 -0.22877,-0.70155 0.18918,-1.13464 1.1413,-0.72624 -0.9344,0.51995 -0.42018,1.096 0.41634,0.46639 1.24914,-0.0559 1.87394,-0.0779 0.9495,-0.0334 1.89948,-0.12441 2.84889,-0.0884 1.05118,0.0399 2.09955,0.47067 3.14001,0.31562 1.09959,-0.16386 2.06283,-0.82977 3.09424,-1.24465 0.92819,-0.4337 1.87905,-0.82188 2.78458,-1.30111 0.4887,-0.25863 0.97635,-0.53887 1.38853,-0.90741 0.34284,-0.30654 0.52685,-0.75867 0.84561,-1.09019 0.0864,-0.0899 0.39061,-0.0314 0.34404,-0.14707 -0.0524,-0.13034 -0.2797,-0.027 -0.41954,-0.0405 0.41944,-0.33404 0.83888,-0.66808 1.25832,-1.00212 -0.39557,-0.5462 -0.79114,-1.0924 -1.18671,-1.6386 -0.47307,-0.52394 -0.99696,-1.00614 -1.41923,-1.57183 -0.33308,-0.44621 -0.46352,-1.03178 -0.83433,-1.44716 -1.24409,-1.39366 -0.86318,0.46662 -0.41006,0.97203 -0.12608,1.48974 0.96845,0.0714 1.20851,0.42444 0.0835,0.12276 -0.0817,0.42179 -0.22527,0.38417 -0.19238,-0.0504 -0.19516,-0.34659 -0.29275,-0.51988 -0.57595,1.27081 1.22125,2.08534 1.7972,0.81452 v 0 c 1.34465,-3.25594 0.10993,-1.67283 -1.90021,-2.67838 -0.9815,-0.42817 -2.29586,-1.58801 -2.49357,0.7548 -0.0321,0.38097 0.64235,0.47508 0.79723,0.82463 0.30543,0.68933 0.0823,1.59798 0.54126,2.19619 0.58277,0.75966 1.91192,0.58824 2.51404,1.38923 0.23822,-0.35476 0.99774,-0.74418 0.71465,-1.06427 -0.28958,-0.32741 -0.83552,0.27925 -1.21093,0.50313 -3.77576,2.25172 0.65436,-0.45156 -0.77604,1.54494 -0.78869,1.10083 -3.539,-0.0835 -3.28397,2.39169 -5.98711,1.81452 0.47707,0.37258 -5.89024,0.11205 -0.95167,-0.0389 -1.86113,0.48968 -2.81355,0.49867 -0.22632,0.002 -3.96636,-1.40985 -3.64865,0.53048 0.1752,0.51724 -0.1654,1.19665 -0.1414,1.24159 0.12469,0.23348 0.52184,0.27227 0.59403,0.52692 0.31349,1.10579 -0.59681,0.81858 0.01,0.96436 -0.0204,0.84163 -0.0891,0.17422 0.4965,-0.19345 0.61889,-0.38856 -2.45428,2.25705 -1.91731,0.95779 -1.4783,-0.0364 -4.53918,-0.005 -5.89155,-0.52119 -1.14909,-0.43855 -1.97474,-1.53493 -3.13265,-1.94963 -2.66403,-0.95412 -3.44826,0.48218 -5.28027,1.80834 2.57549,3.47249 -0.90968,-1.62869 0.66565,2.07493 0.17007,0.39982 0.72522,0.5399 0.91018,0.93306 1.09382,2.32508 -0.27379,2.91536 0.87619,4.70551 0.19364,-0.0595 0.6526,-0.36796 0.58091,-0.17849 -0.25127,0.66416 -1.77053,0.10559 -1.90538,0.14744 -1.32393,0.41083 -0.8405,2.70237 -2.60465,0.40858 -4.93585,-0.77139 0.97161,0.44461 -4.54434,-1.88449 -0.77703,-0.3281 -1.676,-0.25217 -2.47735,-0.51536 -0.71149,-0.23368 -1.30861,-0.76004 -2.02898,-0.9647 -1.1195,-0.31804 -3.01914,-0.27285 -4.20522,-0.28576 -0.9292,1.32402 -1.55662,3.13882 -1.43366,4.81165 0.0548,0.74624 0.48463,1.422 0.61547,2.15872 0.44116,2.48408 -0.60703,0.52391 0.75168,2.52236 -0.45512,0.39316 0.52571,-0.39818 -0.9317,-0.72885 -0.22625,-0.0513 -0.26051,0.40925 -0.46597,0.51698 -0.40429,0.212 -0.84999,0.39105 -1.306,0.41219 -0.82379,0.0382 -1.64172,-0.15835 -2.46258,-0.23753 -0.82053,0.0584 -1.64105,0.11683 -2.46158,0.17524 -3.7712,-2.6382 -0.33453,-0.98604 -3.67463,-1.01405 -0.37442,-0.003 -3.30309,-4.31384 -3.57078,-0.23369 0.16863,2.17897 0.45173,4.42075 0.46747,6.60305 0.007,1.01257 -0.18197,2.02194 -0.15066,3.03405 0.0232,0.74939 -0.2943,1.78821 0.31341,2.22731 0.49619,0.35853 1.09883,-0.53994 1.64825,-0.80991 -0.57018,0.23455 -0.13394,0.0887 -1.4198,-0.0114 -0.9362,-0.0729 -1.91065,0.0525 -2.80824,-0.22339 -1.28054,-0.39361 -2.43009,-1.13079 -3.61722,-1.75162 -4.75221,-2.48528 -3.47452,-1.77175 -7.48936,-5.04725 -1.4029,-0.51715 -3.20976,-1.31418 -4.77148,-1.48706 -0.64558,-0.0715 -1.29892,0.0179 -1.94838,0.0269 -0.57263,0.11834 -1.1347,0.39758 -1.71787,0.35502 -0.56894,-0.0415 -0.59284,-1.27952 -1.24788,-1.17112 -3.69543,0.77551 -1.31706,-0.32871 -1.42716,1.9349 -0.0412,0.84603 -0.47576,1.62587 -0.71364,2.43881 0.17088,0.62702 0.43236,1.23616 0.51265,1.88107 0.0367,0.2951 -0.11293,0.58394 -0.16939,0.87591 -0.79448,-0.21404 0.38782,0.0385 0.24514,1.34009 -0.0381,0.34726 -0.22242,-0.72705 -0.52011,-0.90987 -0.32198,-0.19774 -0.84709,-0.35457 -1.12888,-0.10285 -0.89348,0.79815 0.805,3.07759 -1.29206,3.3539 0,1.36588 1.93164,1.36588 1.93164,0 z" /><path
       style="mix-blend-mode:normal;fill:#860eff;fill-opacity:1;stroke:#720ddb;stroke-width:3;stroke-linecap:round;stroke-linejoin:round;stroke-dasharray:none;stroke-opacity:1;filter:url(#filter336)"
       id="path316"
       d="m 942.22626,706.21587 c 2.45446,-1.93913 -2.42136,-5.81606 0.15906,-6.88478 0.18569,-0.0769 -0.0154,0.42799 0.096,0.59526 0.19467,0.29221 0.46244,0.55382 0.77547,0.71287 0.48618,0.24703 1.04343,0.31758 1.56514,0.47638 0.64401,0.40265 1.28802,0.80529 1.93202,1.20794 0.69452,0.2197 1.46012,0.28232 2.08354,0.6591 0.51009,0.30828 0.65873,1.07618 1.20012,1.32544 0.23507,0.10822 3.69422,0.38644 4.10255,0.31102 0.36362,-0.0672 0.62442,-0.39624 0.93664,-0.59437 1.57501,-0.11678 1.41453,0.40559 1.30753,-2.0916 -0.007,-0.15214 -0.20166,-0.25937 -0.19822,-0.41162 0.0195,-0.86115 0.68319,0.91386 0.0577,-0.47676 -0.0148,-0.13906 0.08,-0.35358 -0.0445,-0.41719 -0.10498,-0.0536 -0.18231,0.22919 -0.12353,0.33137 0.0698,0.1213 0.25878,0.11075 0.39537,0.14116 1.41749,0.31559 2.50193,0.48796 3.91517,0.20811 0.52341,-0.15904 1.17967,-0.0941 1.57024,-0.47711 0.46016,-0.45125 0.49157,-1.19159 0.73846,-1.78692 0.80418,-1.93916 0.62159,-2.77346 -1.37718,-3.44375 1.80806,0.79741 0.943,0.0533 -0.0463,-1.26415 -1.31799,-0.46496 -1.97553,1.39896 -0.65754,1.86392 v 0 c 0.0656,-0.22629 0.41174,-0.58215 0.19689,-0.67886 -0.59746,-0.26896 -1.85302,3.05343 0.63149,1.86144 -0.19388,-0.20292 -0.3431,-0.4609 -0.58164,-0.60875 -0.24356,-0.15095 0.26521,0.28748 0.26299,1.02396 -5.4e-4,0.17718 -0.15806,0.32978 -0.15977,0.50695 -0.0147,1.52449 0.58371,0.73736 -0.52468,1.61727 -0.80459,0.0136 -1.46341,0.0515 -2.27383,-0.057 -1.15353,-0.15444 -3.91602,-1.61576 -3.64515,1.02905 -0.13916,0.27175 -0.39697,0.51063 -0.41748,0.81525 -0.0112,0.16653 0.31328,0.20458 0.33769,0.36969 0.0432,0.29239 -0.42978,0.76717 -0.15391,0.87327 0.0928,0.0357 1.71908,-0.8966 0.4751,-0.54509 -2.47032,1.26651 -1.6148,0.21095 -3.61808,-0.48603 -0.61301,-0.21328 -1.3014,-0.0635 -1.93773,-0.19142 -1.75328,-0.35244 -2.26527,-0.76581 -3.86595,-1.59288 -1.02403,-0.83485 -2.75573,-2.74599 -4.26453,-1.46092 -1.73952,1.48158 -0.10611,6.22686 0.36832,7.80053 0.18443,0.5533 0.96691,0.29247 0.78248,-0.26082 z" /><path
       style="fill:#860eff;fill-opacity:1;stroke:#720ddb;stroke-width:3;stroke-linecap:round;stroke-linejoin:round;stroke-dasharray:none;stroke-opacity:1;filter:url(#filter335)"
       id="path317"
       d="m 989.11811,697.36066 c 1.21898,-1.22785 0.23171,-2.72865 0.53957,-4.05805 0.0413,-0.17816 0.39326,-0.48563 0.45113,-0.31216 0.11875,0.35589 -0.40507,0.80651 -0.18483,1.11024 0.41025,0.56579 1.20022,0.71702 1.78607,1.09806 0.80387,0.52284 1.58808,1.07531 2.38212,1.61297 6.81833,1.7848 -0.98439,0.0645 6.03163,0.59815 0.7096,0.054 1.3477,0.54216 2.059,0.56438 0.6649,0.0208 1.2954,-0.30409 1.9468,-0.43919 0.6724,-0.13946 1.4772,0.0311 2.0239,-0.38438 0.596,-0.45293 0.7173,-1.31418 1.0759,-1.97128 0.9171,-1.05423 2.2863,-2.21964 1.7409,-3.83821 -0.1195,-0.35452 -0.328,-1.23187 -0.5836,-0.95868 -0.528,0.56443 -0.408,1.49107 -0.6121,2.23661 0.2608,-0.0992 0.5032,-0.29737 0.7822,-0.29767 1.4732,-0.002 0.9047,0.7115 2.4692,0.96087 1.8111,0.28867 3.985,-0.43067 5.7853,-0.6622 0.9201,1.81123 1.1075,-0.55651 1.6259,-0.35841 0.2321,0.0887 0.1785,0.51521 0.3991,0.62952 0.8004,0.41475 2.8142,-0.27086 3.5896,-0.41133 0.8736,0.0653 1.9251,0.20853 2.8052,0.0296 2.1101,-0.42902 -0.06,-0.18157 0.8287,-0.44043 5.7464,-1.67413 -2.3589,0.94149 6.1359,-1.89505 2.2588,-1.66077 5.3434,-1.33334 7.7267,-2.64999 0.7631,-0.42158 1.2244,-1.24143 1.8274,-1.87102 0.7136,-0.74496 2.0012,-2.10611 1.8863,-2.30588 -0.3909,-0.68006 -1.3608,-0.78062 -2.0412,-1.17093 -0.5597,1.79948 -1.7538,3.11951 1.4484,2.38894 1.9814,-0.45204 -0.7976,-1.1698 1.2988,-1.066 1.4283,0.0707 0.2325,0.57393 1.0154,0.18192 0.6245,0.83267 0.666,1.04967 0.4678,0.46947 0.634,1.03095 2.092,0.13438 1.458,-0.89656 v 0 c -1.254,-1.02963 -0.7237,-0.50073 -1.6325,-1.5439 -1.1903,0.017 -0.564,-0.12128 -1.8248,0.61031 -0.5006,0.0715 -3.1353,-1.36017 -2.2682,0.34134 1.0054,1.97291 3.6955,-0.52806 0.3714,1.79574 -0.1919,-0.25239 -0.4744,-0.45673 -0.5758,-0.75717 -0.034,-0.10109 0.3297,-0.26966 0.2549,-0.19353 -2.7796,2.83062 -5.6638,4.97513 -9.7779,5.52538 -7.1143,2.65998 -1.1947,0.96057 -5.7563,1.42347 -0.1046,0.0106 -0.1203,0.19468 -0.221,0.22525 -0.1996,0.0606 -0.4225,-0.0179 -0.6251,0.0317 -2.2189,0.54393 -0.4661,0.59516 -2.8058,0.21836 -0.7977,0.0795 -1.8753,0.23819 -2.6962,0.13725 -0.4357,-0.0536 -0.7994,-0.5064 -1.2354,-0.45596 -0.1845,0.0213 -0.3073,0.20873 -0.4609,0.31309 -0.4192,-0.0112 -0.8383,-0.0224 -1.2575,-0.0336 -0.5554,-0.18713 -1.0835,-0.62489 -1.6661,-0.56138 -0.7397,0.0806 -1.2834,0.8217 -2.0141,0.96256 -0.668,0.1288 -1.353,-0.1559 -2.0328,-0.18233 -1.0413,-0.0405 -1.6784,0.26457 -2.338,-0.69119 -1.9322,2.04179 -1.1224,2.23922 -2.0162,0.84719 -0.079,-0.12315 0.1687,0.24995 0.1932,0.39422 0.2162,1.26853 -0.8203,1.3104 -0.8585,2.50607 -0.4083,0.24098 -0.9172,0.36222 -1.2249,0.72293 -0.4024,0.47175 -0.2579,1.40336 -0.8171,1.67109 -0.5595,0.26783 -1.2085,-0.28084 -1.8149,-0.41113 -2.48566,-0.53404 -4.99561,-0.55629 -7.52817,-0.72259 -0.73765,-0.44196 -1.49732,-0.84909 -2.21296,-1.32588 -2.37729,-1.58387 -1.6883,-2.17302 -5.0428,-1.11087 -0.32715,0.10359 0.83678,7.8e-4 0.98102,0.31216 0.36396,0.78568 -0.85913,3.8343 -0.93252,4.05805 0,1.18139 1.67074,1.18139 1.67074,0 z" /><path
       style="fill:#860eff;fill-opacity:1;stroke:#720ddb;stroke-width:3;stroke-linecap:round;stroke-linejoin:round;stroke-dasharray:none;stroke-opacity:1;filter:url(#filter334)"
       id="path318"
       d="m 886.19152,764.40065 c 3.8794,-2.22022 3.64472,1.11062 6.58291,-1.79311 0.25004,-0.24711 0.68449,-0.47727 0.65385,-0.82748 -0.4169,-4.7648 -1.67576,2.22927 -0.47984,-2.85081 0.0571,-0.67612 1.20949,-1.40559 1.8954,-0.97835 0.33816,0.21064 0.25345,0.76329 0.46423,1.10136 0.0751,0.12049 -0.0279,-0.28262 -0.0419,-0.42393 1.11634,-4.51652 -0.51179,0.55628 1.10309,-1.7362 0.2924,-0.41509 -0.70165,-1.50616 0.2835,-1.15828 1.31684,1.45301 2.58635,0.0226 2.66195,0.035 0.36037,0.0593 0.63725,1.09166 0.78953,0.7597 0.25983,-0.56641 -0.19393,-1.23115 -0.29089,-1.84673 0.30931,0.64919 0.0748,-3.05325 -0.15779,-2.10837 -0.0303,0.12316 0.24168,1.39721 0.26418,1.40303 0.34215,0.0885 0.70247,-0.0784 1.05371,-0.11761 2.12979,1.84865 4.64651,1.95132 7.21919,2.64054 1.06832,0.28621 2.06661,0.79915 3.13309,1.09216 0.78445,0.21553 1.61536,0.21264 2.40889,0.39187 0.11707,-0.52519 0.4294,-1.04321 0.35121,-1.57558 -0.0426,-0.29011 -0.5171,-0.32157 -0.66687,-0.57365 -0.18348,-0.30883 0.57448,-2.26437 0.6462,-2.45483 -0.0791,-0.25284 0.002,-0.6441 -0.23743,-0.75852 -0.17594,-0.0842 -0.18765,0.35754 -0.19278,0.55254 -0.002,0.0598 0.12713,-0.006 0.17755,0.0266 0.28799,0.18403 0.49095,0.52883 0.82236,0.61236 1.57637,0.39729 2.64523,0.006 4.178,-0.29616 1.10792,-0.0916 3.8977,1.19352 4.56233,-0.51896 0.19948,-0.514 -0.35844,-1.04467 -0.48561,-1.58116 -0.0904,-0.38154 -0.004,-0.80719 -0.16526,-1.16467 -0.16423,-0.36434 -0.51523,-0.61107 -0.77284,-0.91661 0.11989,-0.11544 0.2054,-0.40879 0.35967,-0.34632 0.26947,0.10911 0.31088,0.49764 0.51796,0.7017 0.0867,0.0855 -0.0761,-0.23515 -0.14583,-0.33501 -0.0364,-0.0521 -0.20495,-0.0582 -0.1603,-0.10348 1.05653,-1.07203 1.26377,-0.28954 0.69373,-1.29297 0.99534,-0.62002 -0.2482,-1.06709 -0.12925,-1.58297 0.0438,-0.18984 0.57685,0.0409 0.56396,-0.15351 -0.0596,-0.89845 -0.32333,-0.30414 0.0768,-0.93286 -0.0533,-0.0929 -0.10652,-0.1858 -0.15978,-0.2787 -0.38948,-1.35728 -2.30897,-0.80647 -1.91949,0.55081 v 0 c 0.18942,-0.0755 0.37883,-0.15092 0.56824,-0.22638 -0.20483,0.054 -0.40966,0.10807 -0.61449,0.1621 0.0354,0.0489 0.14817,0.10331 0.10624,0.14679 -0.14397,0.14929 -0.48738,0.10521 -0.54218,0.30523 -0.10263,0.37466 1.97483,1.80986 0.84821,2.35433 -0.14351,0.64364 -0.86143,2.83115 1.92666,0.56339 0.3628,-0.29509 0.18229,-1.16187 -0.22918,-1.38412 -0.40568,-0.21912 -0.80428,0.48327 -1.25451,0.58272 -2.32566,0.51374 -1.06671,-1.01974 -2.22732,1.73593 3.57766,3.66743 -0.43187,-1.10634 0.68707,2.21415 0.0775,0.23005 0.43943,-0.34718 0.67252,-0.27939 0.19235,0.0559 0.44868,0.54685 0.24836,0.54723 -5.83915,0.0109 3.78795,-1.53536 -2.9975,-0.2247 -0.66226,0.15285 -1.30852,0.50225 -1.98679,0.45856 -0.56905,-0.0367 -1.02191,-0.51831 -1.56648,-0.68745 -0.30358,-0.0943 -0.63369,-0.0536 -0.94902,-0.0938 -1.84822,-0.23583 -1.26058,0.0853 -2.40393,1.42653 -0.33234,0.39368 -0.9687,0.66662 -0.99703,1.18104 -0.0262,0.47558 0.80568,0.66186 0.86956,1.13386 0.0592,0.43729 -0.72122,0.79457 -0.55332,1.20266 1.1015,2.67721 2.18838,-0.35651 2.44844,-0.84132 -0.84682,1.31722 0.21537,0.0963 -1.81119,-0.30536 -1.11704,-0.22138 -2.30005,0.16164 -3.41564,-0.067 -2.58258,-0.52919 -4.79803,-2.35801 -6.99331,-3.68502 -0.32925,-0.0222 -1.73149,-0.14855 -2.0494,-0.0378 -2.09101,0.72811 -2.95108,1.84992 -0.865,3.22622 0.54052,-0.9957 -0.28853,0.23309 0.80905,-0.009 0.17019,-0.0376 -0.12145,-0.38425 -0.28768,-0.43662 -0.22457,-0.0707 -0.46074,0.15238 -0.69483,0.12708 -0.74362,-0.0804 -1.3317,-0.82378 -2.1032,-0.78192 -0.45561,0.0853 -1.02259,-0.0546 -1.36684,0.25579 -0.73225,0.66025 -1.58528,5.28866 0.86033,4.75215 0.60855,-0.1335 0.71229,-1.02237 1.06844,-1.53356 -2.45393,-0.30512 1.22003,0.29955 -1.70148,-0.85046 -0.77358,-0.3045 -2.9251,-0.48812 -3.61333,0.15531 -0.87089,0.81419 1.3663,3.11052 -1.03731,3.42291 0.23252,0.40882 0.43641,0.8353 0.69756,1.22645 0.054,0.0808 -0.16299,-0.26276 -0.068,-0.28355 0.29428,-0.0644 0.90338,-0.19932 0.89798,0.10188 -0.0198,1.10268 -2.08424,0.78798 -3.1799,0.91375 -1.09715,0.12595 -2.17996,0.35523 -3.26994,0.53284 -1.29965,0.43322 -0.68699,2.2712 0.61267,1.83798 z" /><path
       style="fill:#860eff;fill-opacity:1;stroke:#720ddb;stroke-width:3;stroke-linecap:round;stroke-linejoin:round;stroke-dasharray:none;stroke-opacity:1;filter:url(#filter333)"
       id="path319"
       d="m 942.60997,742.31139 c -0.43853,-1.8626 -2.35305,-5.34257 0.29412,-6.5428 0.21228,-0.0963 0.3252,0.37241 0.55089,0.43064 3.20104,0.82598 -1.04511,-1.57336 3.30759,1.42445 3.45376,0.29922 2.22017,-0.21223 4.93562,1.41713 0.64296,0.38579 1.18589,0.9759 1.90023,1.20385 0.22154,0.0707 2.76044,-0.30101 3.07009,-0.37956 2.11448,1.58738 -1.36602,-2.37189 -0.95584,-1.82217 0.28493,0.38187 0.49735,1.33716 0.91128,1.10121 0.48768,-0.27799 -0.19399,-1.20588 0.10537,-1.68073 0.34124,-0.54128 1.12363,-0.62895 1.61163,-1.04281 0.26844,-0.22766 0.41544,-0.5683 0.62315,-0.85246 -0.40142,-0.8396 -1.1441,2.02769 1.22154,-1.03055 0.13114,-0.16953 -0.4251,-0.19816 -0.50611,-0.39659 -0.0595,-0.14578 0.10881,-0.29553 0.16321,-0.4433 -0.90854,0.25392 0.40698,-0.10216 0.4347,-0.20693 0.063,-0.23799 -0.40214,-0.30069 -0.53797,-0.50602 -0.11869,-0.1794 0.45213,0.0203 0.63972,-0.085 0.21327,-0.1197 0.25468,-0.4176 0.38202,-0.6264 0.29245,-1.37745 0.74397,3.59044 1.99154,-0.0608 -0.52253,-2.54125 0.25353,-1.89565 -1.68583,-1.43673 -0.55464,0.13125 -1.12449,0.18691 -1.68673,0.28037 -1.15343,0.0133 -1.13463,1.6445 0.0188,1.6312 v 0 c 2.40991,0.12239 3.02385,0.8527 3.1981,-2.02944 -0.17941,0.0686 -0.37694,0.10151 -0.53825,0.20581 -0.11173,0.0722 -0.15932,0.39955 -0.255,0.3071 -0.13276,-0.12827 0.0504,-0.37631 -3.2e-4,-0.5538 -0.2588,-0.90508 -1.76542,-0.35852 -2.18272,0.23715 -0.65156,0.59769 -1.66379,0.85789 -2.09108,1.63197 -0.12362,0.22394 0.63381,0.0865 0.68988,0.33608 0.11923,0.53066 -1.56655,0.30595 -0.0599,1.38896 0.0843,0.12372 0.24737,0.22158 0.25277,0.37117 0.0101,0.2799 -0.47585,0.72532 -0.21004,0.81355 4.2144,1.39896 1.23017,-1.82683 0.403,-1.85639 -0.52405,-0.0187 -0.94415,0.45658 -1.41623,0.68487 -2.039,2.18284 -2.20482,2.88018 -2.32157,5.7289 -5.4e-4,0.0132 -0.0264,5e-5 -0.0396,7e-5 -0.10216,-0.36622 -0.20432,-0.73245 -0.30649,-1.09867 0.38475,0.0966 0.79094,0.44897 1.15423,0.28969 0.22849,-0.10019 0.0617,-0.58453 -0.13661,-0.73588 -0.31626,-0.24135 -0.79345,-0.11635 -1.16533,-0.25767 -0.72462,-0.27539 -1.37565,-0.7268 -2.10633,-0.98568 -0.69523,-0.24632 -1.43346,-0.34828 -2.15019,-0.52242 -0.90216,-0.34537 -1.80432,-0.69074 -2.70648,-1.03611 -0.73268,-0.15734 -1.47786,-0.26489 -2.19805,-0.47202 -1.16626,-0.33543 -3.04038,-1.64917 -4.27491,-0.15257 -0.43015,0.52147 0.17674,1.34721 0.14776,2.02259 -0.0729,1.69989 -0.52014,3.6385 -0.85227,5.30668 0,1.68048 2.37656,1.68048 2.37656,0 z" /><path
       style="fill:#860eff;fill-opacity:1;stroke:#720ddb;stroke-width:3;stroke-linecap:round;stroke-linejoin:round;stroke-dasharray:none;stroke-opacity:1;filter:url(#filter332)"
       id="path320"
       d="m 975.03672,721.27467 c 0.62587,-0.41388 1.37434,-0.68511 1.87761,-1.24164 0.40117,-0.44361 1.65789,-3.70477 1.63002,-4.10339 -0.0664,-0.9491 -0.93628,-1.69429 -1.10939,-2.62982 0.10438,-3.40773 0.29968,-1.94798 -0.25409,-4.41094 -0.0538,0.49857 -0.36483,1.03742 -0.16126,1.4957 0.10252,0.23079 0.47342,-0.31011 0.7172,-0.24415 0.37364,0.1011 0.56035,0.58766 0.93344,0.69076 2.46194,0.68036 0.25817,-1.1054 2.49025,1.05048 1.67113,2.42297 2.94734,1.29974 5.25468,0.52396 -0.0189,-0.53048 -0.18625,-1.07668 -0.0567,-1.59144 0.24972,-0.99221 0.93995,-0.43063 0.92394,-0.44032 -2.30238,-1.3926 -1.55532,-0.89238 -0.7482,0.84794 2.24165,0.51327 -0.85748,-0.0652 1.87638,-0.0858 0.44575,-0.003 0.86713,0.24762 1.31284,0.25456 0.47411,0.007 0.94121,-0.12136 1.40659,-0.21223 0.26092,-0.051 0.50609,-0.25385 0.76872,-0.21255 0.11102,0.0175 -0.0815,0.20947 -0.12226,0.31421 -0.43236,-4.97045 -0.6274,-2.68587 0.15013,-1.96633 0.12032,0.11135 -0.29872,-0.30273 -0.21374,-0.44292 0.10745,-0.17725 0.58164,-0.39112 0.59391,-0.18421 0.0757,1.2765 -1.23066,1.39725 -0.0242,1.15186 0.19982,1.30066 -0.18526,-1.03411 0.13792,-1.24119 0.37335,-0.23923 0.41896,0.78798 0.69878,1.13197 0.16494,0.20279 0.4109,0.32323 0.61635,0.48484 1.70342,-0.12408 1.52792,-2.53303 -0.17547,-2.40895 v 0 c -0.97939,1.09002 -0.023,-0.18756 -0.47296,2.22686 -0.127,0.68149 0.36085,-2.16428 -0.408,-2.03923 -0.30562,-0.12547 -0.59987,-0.46951 -0.91686,-0.37642 -0.72161,0.21194 -1.40807,0.64306 -1.90705,1.20579 -0.14178,0.1599 0.33747,0.30693 0.38003,0.51636 0.038,0.18699 -0.6207,3.20066 1.44535,1.79344 0.61863,-0.42137 0.35409,-1.45453 0.53114,-2.18179 -0.98654,-0.92215 0.69686,0.44197 -1.12637,0.70579 -0.54162,0.0784 -0.95221,-0.58632 -1.48942,-0.69075 -0.59355,-0.11538 -1.75592,0.20869 -2.39847,0.29376 -0.0998,0.46816 -0.32823,0.92667 -0.29937,1.40448 0.008,0.1406 0.4488,-0.0821 0.37213,-0.20022 -0.37344,-0.57552 -0.90156,-1.04847 -1.4499,-1.46079 -0.0986,-0.0741 0.0756,0.27314 -7.5e-4,0.36999 -0.47322,0.6003 -1.4886,0.67137 -1.61658,1.62646 -0.0516,3.26222 0.20444,0.10645 -1.91292,-0.55274 -0.3706,-0.12957 -0.80599,-0.14251 -1.1118,-0.3887 -0.27778,-0.22362 -0.1877,-0.82205 -0.52732,-0.93084 -0.37638,-0.12056 -0.77738,0.61153 -1.11434,0.40499 -0.50289,-0.30824 -0.25707,-1.34784 -0.8,-1.57835 -1.43926,-0.61106 -2.64935,0.55842 -3.63098,1.24699 0.019,3.15717 -0.10377,0.0427 0.58208,4.42726 0.11918,0.76189 0.0449,1.55309 0.22791,2.30222 0.12496,0.51146 0.78591,0.90818 0.68254,1.42443 -0.22743,1.13576 -3.56039,-0.0475 -2.84706,1.9923 -1.36352,0.90901 -0.078,2.83731 1.28553,1.9283 z" /><path
       style="fill:#860eff;fill-opacity:1;stroke:#720ddb;stroke-width:3;stroke-linecap:round;stroke-linejoin:round;stroke-dasharray:none;stroke-opacity:1;filter:url(#filter331)"
       id="path321"
       d="m 1017.3327,712.06264 c 4.274,-1.62173 1.7136,-1.09331 6.9346,-0.89752 2.5281,0.0948 5.4422,-0.8525 5.7467,2.34437 0.56,0.0971 0.1018,0.10395 0.641,-0.61753 0.4487,-0.60028 1.2345,-0.88403 1.7,-1.47132 0.352,-0.44401 0.4756,-1.03187 0.7756,-1.51256 0.3807,-0.61012 0.8404,-1.16718 1.2607,-1.75078 0.6979,-0.0766 1.396,-0.15249 2.0938,-0.22984 1.6565,-0.18361 2.1595,0.057 3.6966,0.56114 0.5838,0.19148 1.1262,0.57949 1.7399,0.60853 0.4382,0.0207 0.82,-0.312 1.2299,-0.468 1.3968,0.12384 0.036,-0.46224 1.1714,-1.23115 0.3141,-0.21267 0.7554,0.16904 1.1316,0.12056 0.2195,-0.0283 0.3492,-0.35061 0.5702,-0.33989 0.4434,0.0215 0.8406,0.28575 1.2609,0.42863 0.4754,-0.0355 0.9509,-0.071 1.4263,-0.10657 0.4599,0.10359 0.9083,0.32199 1.3795,0.31076 0.1096,-0.003 3.6342,-0.7217 3.6696,-0.75071 0.9969,-0.81819 1.2685,-3.34359 1.4705,-4.3293 0.7319,-0.31385 1.4933,-0.56625 2.1957,-0.94156 0.953,-0.50922 2.8457,-2.51578 4.1069,-1.18615 -0.1255,0.84896 -0.2701,0.52146 0.3249,1.02361 0.033,0.18877 0.066,0.37753 0.098,0.5663 -0.037,-0.0329 -0.1591,-0.0932 -0.1102,-0.0986 0.732,-0.0804 1.4802,-0.002 2.2051,-0.1316 1.3462,-0.24013 2.5213,-1.09805 3.8532,-1.40758 0.8669,-0.20148 1.7696,-0.19301 2.6544,-0.28951 4.9892,-1.33213 -0.6626,-0.21395 2.7652,0.01 0.2395,0.0156 0.4015,-0.26784 0.622,-0.36243 0.034,-0.0144 -0.017,0.0711 -0.026,0.10665 0.9168,0.35177 0.5019,0.40044 1.2528,0.0267 2.0439,0.93063 -0.251,0.19665 1.3657,-0.19396 0.1507,-0.0364 0.1536,0.28768 0.2877,0.36552 0.6318,0.36679 2.1037,-1.27415 2.1264,-1.29316 0.8524,-1.2539 0.3027,-0.85048 1.5501,-1.3346 1.3956,-1.17115 -0.2607,-3.14476 -1.6563,-1.97361 v 0 c -1.493,1.88897 -0.6626,1.03522 -2.4852,2.56699 2.8877,-0.30066 0.2275,0.28354 -0.4623,0.0355 -0.2491,0.10018 -0.4199,0.33488 -0.6298,0.50233 -0.3929,-0.0997 -0.2263,0.0198 -0.3533,-0.50339 -0.2464,-0.0779 -0.4993,0.1899 -0.7568,0.16799 -1.5976,-0.13592 -2.4538,-1.10412 -4.1008,0.0579 -0.7949,0.2691 -1.5671,0.61782 -2.3846,0.80731 -0.9982,0.23136 -2.091,0.0659 -3.0408,0.45022 -1.7076,0.69087 -2.3015,1.41567 -1.0674,2.54248 0.4163,0.38014 -1.2962,-3.34104 0.3102,-1.66256 -0.3779,-0.3322 -0.7721,-0.64672 -1.1336,-0.99659 -0.302,-0.29222 -0.4533,-0.80112 -0.8542,-0.92705 -0.5537,-0.17391 -1.16,0.0535 -1.7373,0.113 -0.681,0.0701 -1.4105,-0.005 -2.0351,0.27559 -0.9793,0.43916 -3.0555,2.67016 -3.7271,3.34415 -0.3761,0.62872 -0.7521,1.25744 -1.1282,1.88615 -0.088,0.44587 -0.032,0.94707 -0.2645,1.3376 -0.9539,1.60234 -2.9857,0.009 -4.0452,-0.28313 -0.5246,-0.1445 -1.0851,-0.0833 -1.6277,-0.12496 -0.5447,0.19967 -1.0592,0.52179 -1.6342,0.59899 -0.6514,0.0874 -1.3985,-0.44296 -1.9682,-0.11533 -1.0938,0.62899 0.5675,1.59905 -0.6762,1.2336 -0.1075,-0.0316 0.052,-0.21822 0.078,-0.32733 -0.3348,0.20129 -0.615,0.5715 -1.0042,0.60387 -0.8314,0.0691 -1.6656,-0.7331 -2.4395,-0.86926 -0.5538,-0.0974 -1.1252,10e-4 -1.6867,-0.0296 -3.0554,-0.16779 -1.3485,-0.63271 -4.2096,1.07484 -1.5672,1.15851 -3.6621,2.5633 -4.0073,4.73162 -0.1881,1.18181 -0.2893,2.51025 1.2755,1.83288 0.3886,-0.16821 0.6096,-0.58787 0.9144,-0.8818 -0.3591,-0.52689 -1.7722,-2.64244 -2.0717,-2.8432 -2.2121,-1.48275 -3.2677,-0.67802 -5.7504,-0.66021 -6.1151,0.0438 -2.2841,-0.8512 -7.3484,0.89418 -1.1404,0.38013 -0.6028,1.99286 0.5376,1.61274 z" /><path
       style="fill:#c995ff;fill-opacity:1;stroke:none;stroke-width:3;stroke-linecap:round;stroke-linejoin:round;stroke-dasharray:none;stroke-opacity:1"
       id="path322"
       d="m 803.34218,736.06823 c 3.38764,-1.9308 0.72663,-0.7236 4.86113,-1.6802 2.11783,-0.49 2.74413,-1.39686 4.85557,-0.0618 0.36269,0.22933 0.31528,0.80063 0.52117,1.17712 0.11408,0.2086 0.28845,0.37803 0.43267,0.56705 -1.39833,-1.198 1.30434,1.12724 1.44119,1.10351 0.65621,-0.11379 0.37482,-1.28649 0.67826,-1.87935 0.16853,-0.32928 0.70252,-0.47727 0.7171,-0.84689 0.0631,-1.60094 -1.33408,-1.16605 -0.20529,-1.40105 1.81831,-0.5866 -1.22737,0.20939 1.94576,0.76543 0.75512,0.13232 1.50967,-0.29282 2.275,-0.33731 0.90301,-0.0525 1.82237,0.20415 2.7132,0.0473 1.13433,-0.19976 4.106,-1.90306 4.94219,-2.34914 0.85036,-1.19292 1.79648,-2.32307 2.55107,-3.57876 2.10311,-3.49969 1.30448,-4.30935 4.66211,-6.5113 0.65535,-0.42979 1.45238,-0.77441 2.23485,-0.73026 0.59124,0.0334 0.99793,0.6382 1.50661,0.94139 0.35807,0.21342 0.72856,0.40531 1.09284,0.60797 0.62178,0.47759 1.47987,0.56339 2.10628,1.03099 0.51691,0.38586 0.79275,1.13052 1.40646,1.32913 0.47726,0.15445 0.9504,-0.35353 1.44939,-0.40493 4.65568,-0.47952 -1.22104,0.89215 3.88235,-0.48804 1.84551,-0.54522 2.96366,-2.45269 4.73586,-3.1002 1.0158,-0.37114 2.16225,-0.16473 3.22209,-0.37991 1.21436,-0.24656 2.34115,-1.02471 3.58006,-1.00113 4.08294,1.36315 2.20494,1.20522 5.56398,1.0042 3.36416,0.26917 1.47194,0.31123 5.07351,-0.27063 0.72242,-0.11672 1.48703,-0.0686 2.17035,-0.33046 0.88627,-0.33966 1.56577,-1.11069 2.45509,-1.44226 0.16179,-0.0603 3.01486,-0.41357 3.60912,-0.48851 1.2404,0.31337 1.3092,-1.1103 2.08739,-1.44073 0.17346,-0.0736 0.32642,0.19931 0.50896,0.24613 0.49343,0.12656 0.72879,-0.75164 1.19904,-0.94748 0.26318,-0.1096 0.56828,0.0466 0.85242,0.0698 0.24542,-0.49093 0.34436,-1.08851 0.73624,-1.47279 0.69301,-0.67956 2.2102,-1.11522 3.12691,-1.44705 0.14943,-0.0541 0.59453,-0.18444 0.46869,-0.0874 -0.0776,0.0598 -0.18442,0.0663 -0.27663,0.0995 0.66054,-0.003 1.39974,-0.32092 1.98162,-0.008 0.39923,0.21449 0.0272,1.05836 0.41361,1.29516 0.61797,0.37871 1.44175,0.15814 2.15626,0.27971 0.65859,0.11204 1.2921,0.39202 1.95954,0.42052 0.78883,0.0337 1.57123,-0.15747 2.35684,-0.23621 0.86695,0.0383 1.7339,0.0766 2.60085,0.11489 0.68331,-0.15875 1.34912,-0.44492 2.04993,-0.47625 0.23737,-0.0106 1.26517,0.93245 1.10625,-0.23201 -0.0781,-0.5724 -0.39612,-1.08558 -0.57767,-1.63402 -0.0352,-0.10646 -0.16176,-0.39587 -0.072,-0.32863 0.48173,0.36097 0.86842,0.83384 1.30263,1.25075 1.7506,1.57403 1.32526,-0.75625 0.92281,-0.91904 -0.24753,-0.10013 -0.51625,0.84003 -0.26254,0.75678 0.73699,-0.24182 1.50371,-0.38132 2.25717,-0.56554 2.10958,-0.3765 0.84577,0.16269 2.49965,-1.90538 1.08108,-1.35182 0.46277,-0.31784 1.78672,-1.48464 0.17325,-0.15269 0.17991,-0.51819 0.4069,-0.56072 0.16246,-0.0304 -0.0322,0.329 -0.0483,0.49351 0.27514,-1.39371 1.56269,-0.14559 2.08202,-0.77847 0.11937,-0.14547 0.11369,-0.41015 0.28543,-0.48707 0.11855,-0.0531 0.21751,0.14206 0.32627,0.2131 0.30832,-0.20376 0.61665,-0.40751 0.92497,-0.61127 0.45261,0.95617 0.0921,0.89285 0.67628,0.86505 0.99301,-0.0371 0.94052,-1.44144 -0.0525,-1.40432 v 0 c -0.0167,-0.7555 0.13744,-0.6537 -0.52024,-0.19116 -2.14519,-0.84597 -2.12846,-1.85263 -3.96615,0.33154 -0.36451,0.2123 -0.83806,0.30125 -1.09352,0.63692 -0.13951,0.18331 0.29989,0.59753 0.087,0.68558 -0.43977,0.1819 -1.03242,-0.40776 -1.42145,-0.13363 -0.36048,0.25402 0.1058,1.02334 -0.23622,1.30173 -5.5694,4.53328 1.76011,-4.04699 -2.70145,1.52424 -0.086,-0.3889 0.0605,0.0387 -0.60744,-0.0804 -0.36047,-0.0643 -0.67593,-0.4045 -1.03896,-0.35667 -0.71191,0.0938 -0.31435,2.42117 -1.60828,1.57524 0.14192,0.77012 0.16016,1.57369 0.42576,2.31035 0.0434,0.12029 0.3513,0.0155 0.36706,-0.11136 0.0882,-0.70981 0.0875,-1.45036 -0.0868,-2.14405 -0.29461,-1.17207 -3.58118,1.41777 -3.33661,0.58496 -2.01328,0.002 -4.23543,0.24563 -6.23557,-0.10652 -0.52939,-0.0932 -1.03485,-0.29133 -1.55227,-0.43699 -0.44156,-0.31307 -0.80076,-0.80322 -1.32469,-0.93922 -0.31419,-0.0816 -0.60308,0.24036 -0.90462,0.36053 -0.68501,-1.40019 0.0419,-0.57608 -1.489,-0.68924 -0.40945,-0.0303 -0.79266,-0.39864 -1.19284,-0.30689 -1.71616,0.39346 -2.75484,2.20729 -4.18454,3.06849 -3.28806,1.78985 -0.0853,-0.42254 -0.32153,1.31771 -0.0428,0.31506 -0.6091,-0.3467 -0.91635,-0.26489 -0.19751,0.0526 -0.0234,0.58122 -0.22743,0.56946 -0.49959,-0.0288 -0.88144,-0.84056 -1.34826,-0.66028 -0.46105,0.17804 -0.35256,0.92345 -0.52883,1.38517 -0.59681,-0.0652 -1.20915,-0.34564 -1.79042,-0.19547 -0.78531,0.20287 -1.37692,0.8666 -2.1144,1.20422 -0.83776,0.38352 -1.73325,0.62593 -2.59508,0.95176 -0.62345,0.23571 -1.19565,0.68513 -1.86047,0.73273 -0.74096,0.053 -1.44153,-0.42102 -2.18406,-0.44318 -0.7636,-0.0228 -1.51382,0.20685 -2.27073,0.31027 -6.48716,0.68049 3.11954,0.0197 -5.94285,-1.08241 -3.73543,-0.45426 -4.40456,0.56576 -7.48466,1.99859 -3.79878,1.76715 -1.84118,0.32035 -4.55876,2.83255 -3.07933,-0.6867 0.70911,-0.0997 -2.8382,0.3527 -0.50111,0.0639 -2.78362,-0.77943 -3.02851,-0.83779 -0.2228,-0.0531 -0.48253,0.0887 -0.68698,-0.0146 -0.33532,-0.16935 -0.55781,-0.50332 -0.83671,-0.75498 -0.89153,-0.47048 -2.89766,-1.63293 -3.85175,-1.61001 -1.03404,0.0248 -2.1385,0.28853 -2.96743,0.90719 -1.01391,0.75672 -1.56908,1.98675 -2.29679,3.02168 -2.36038,3.35687 -2.54674,3.89206 -4.49847,7.38083 -0.80382,0.20633 -1.67809,0.23058 -2.41147,0.61898 -0.71189,0.37701 -1.00228,1.50477 -1.8007,1.61176 -0.90736,0.1216 -1.63699,-0.92285 -2.54626,-1.02924 -0.60757,-0.0711 -4.71489,1.08138 -5.68881,0.27249 -0.4909,0.39823 -1.36469,0.57188 -1.47269,1.1947 -0.0823,0.47443 0.86455,0.51386 1.104,0.93161 0.13271,0.23152 -0.0773,0.52808 -0.11597,0.79212 -0.10993,0.007 -0.35349,-0.0877 -0.32979,0.0199 0.10269,0.46592 0.46624,0.8386 0.61864,1.29071 0.0659,0.19539 -0.23629,-0.33796 -0.35444,-0.50695 0.0798,-0.53848 0.47327,-1.12396 0.23927,-1.61546 -0.95668,-2.0094 -2.69769,-1.42504 -4.40628,-1.52409 -4.73567,-0.27455 -6.05979,-0.54442 -9.21867,3.58918 0,1.33424 1.88689,1.33424 1.88689,0 z" /><path
       style="fill:#c995ff;fill-opacity:1;stroke:none;stroke-width:3;stroke-linecap:round;stroke-linejoin:round;stroke-dasharray:none;stroke-opacity:1"
       id="path323"
       d="m 919.5041,697.54304 c 0.32729,-0.58458 0.67287,-1.1593 0.98189,-1.75375 1.18814,-2.28562 -0.52576,1.58472 1.45995,-0.0197 3.01031,-0.0309 1.49912,-1.98202 2.50327,-3.5575 0.30064,-0.47168 2.43758,-1.84329 3.08365,-1.98566 0.39373,-0.0868 0.79878,0.11024 1.19816,0.16536 0.24994,0.19392 0.65745,0.27919 0.74982,0.58175 0.19755,0.64709 -0.11515,1.37238 0.0473,2.02918 0.39599,1.60131 2.07617,-0.18435 2.34576,-0.62151 0.22287,-0.3614 -0.11523,-0.8414 -0.16348,-1.26325 -0.0611,-0.53449 -0.10976,-1.07033 -0.16465,-1.6055 0.0639,-0.35068 0.30622,-0.71446 0.19178,-1.05205 -0.14034,-0.41402 -0.67939,0.94239 -0.37543,1.25657 0.34888,0.3606 1.52524,0.45875 2.01512,0.3222 0.54197,-0.57727 1.25517,-1.03214 1.62589,-1.7318 0.31308,-0.59087 -1.67938,-1.34037 0.75908,-1.05372 0.40009,0.047 0.66848,0.6499 1.06396,0.5732 1.90241,-0.36896 -0.86448,-1.57587 1.11243,-0.51012 1.5983,0.7709 1.0444,1.12235 2.43716,0.29958 1.07069,-0.63252 0.15957,0.6607 1.06172,-1.47632 2.50475,3.15012 0.92882,-0.5829 1.03009,-0.24481 0.38801,1.29534 0.65485,0.33061 0.54883,0.13476 0.96323,0.82155 2.12508,-0.54066 1.16185,-1.36221 v 0 c -0.16845,-0.19617 -0.25364,-0.5294 -0.50537,-0.5885 -0.30428,-0.0714 -0.59537,0.19476 -0.90141,0.25824 -1.34185,0.27833 -1.98166,0.25334 -2.96644,1.36398 2.12073,0.0135 -0.76719,0.0464 -1.15561,-0.15606 -0.43195,-0.16704 -2.08283,-0.85841 -2.47348,-0.74912 -0.63616,0.17799 -1.01366,0.85891 -1.58717,1.18674 -0.91329,0.52205 -3.79674,0.75601 -1.93258,2.90304 0.27685,0.31885 0.83066,-0.15253 1.24599,-0.22879 -0.0755,0.0579 -0.13888,0.21067 -0.22653,0.17366 -0.22796,-0.0963 -0.34413,-0.36055 -0.54806,-0.5007 -1.45017,-0.99659 -4.11652,-0.98669 -3.48044,1.45108 0.12012,0.56925 0.24552,1.13742 0.36035,1.70776 0.0774,0.38452 -0.15811,1.03995 0.21637,1.15665 0.62988,0.19629 2.34792,-0.14862 1.61061,-0.95605 -0.15334,-0.16792 -2.85784,-2.69689 -3.07123,-2.8969 -1.53297,0.0859 -2.96202,0.016 -4.35489,0.95872 -1.27157,0.86061 -1.39386,2.46441 -2.1567,3.62639 -0.19275,0.29361 -0.96401,0.37078 -0.80257,0.6827 0.33921,0.6554 1.20889,0.8468 1.81333,1.2702 -0.40234,-0.30249 -0.84439,-0.55424 -1.22239,-0.88665 -0.38266,-0.33651 -0.60482,-0.9113 -1.08763,-1.07428 -0.49686,-0.16773 -1.0773,-0.0184 -1.56294,0.1795 -2.60934,1.06323 -1.94045,1.0384 -1.60883,3.41915 -0.40623,1.2187 1.31727,1.7932 1.7235,0.5745 z" /><path
       style="fill:#c995ff;fill-opacity:1;stroke:none;stroke-width:3;stroke-linecap:round;stroke-linejoin:round;stroke-dasharray:none;stroke-opacity:1"
       id="path324"
       d="m 972.4757,684.87421 c 1.2839,-0.48441 2.56781,-0.96881 3.85172,-1.45322 1.24857,-0.82091 2.38591,-1.84323 3.7457,-2.46272 1.05529,-0.48077 2.2712,-0.47744 3.38862,-0.78752 0.68891,-0.19117 1.30957,-0.66024 2.02249,-0.71406 0.20264,-0.0153 1.9773,0.60516 2.40482,0.75125 4.53422,0.62736 -1.06337,-0.28187 3.00561,0.78124 0.55016,0.14374 1.35208,-0.21364 1.68819,0.24502 0.30296,0.4134 -0.46372,0.96626 -0.42595,1.47739 0.16964,2.29596 1.3282,0.28372 0.0389,1.98556 9.2e-4,-1.81837 -0.19212,1.20637 1.95107,-0.0511 0.58633,-0.34401 -0.0256,-1.53906 0.49263,-1.97901 0.77317,-0.65635 1.99074,-0.4658 2.90483,-0.90516 0.64851,-0.31171 1.02881,-1.0898 1.71248,-1.31417 0.31142,-0.10221 0.57637,0.31227 0.86459,0.4684 -0.011,-0.0181 -0.023,-0.0362 -0.034,-0.0543 0.2932,0.0573 0.6024,0.0603 0.8796,0.17183 0.1401,0.0564 0.1985,0.39331 0.3268,0.31371 1.5396,-0.95481 0.7428,-1.83033 2.448,-1.25198 0.3522,-0.0863 0.6941,-0.24628 1.0565,-0.25886 0.6922,-0.024 1.3827,0.21211 2.0726,0.15026 4.8029,-0.43055 0.1372,-0.47011 3.9894,-1.12156 1.0621,-0.17962 2.1562,-0.0395 3.2285,-0.14233 1.8115,1.02329 2.3796,-0.14684 3.6389,-1.52597 0.055,-0.06 0.035,0.16233 0.079,0.2307 1.5936,0.77037 -0.9996,-0.31232 1.8911,-0.254 0.312,0.006 0.4646,0.70778 0.7438,0.56847 1.9561,-0.9758 0.2777,-4.25908 -0.1166,-5.33767 -0.4509,-1.08598 -1.9867,-0.4484 -1.5358,0.63758 v 0 c 0.092,0.70601 0.01,1.45794 0.2757,2.11804 0.2131,0.52738 2.6697,1.96071 1.5557,0.92373 -0.4846,-0.45108 -2.461,-0.54172 -2.9748,-1.09429 -0.1771,0.17496 -1.4731,1.45909 -1.6385,1.60807 -0.088,0.0798 -0.3499,0.0972 -0.2945,0.20277 0.081,0.15352 0.5904,0.0298 0.4908,0.17168 -0.4251,0.60594 -2.2356,-0.4618 -2.1665,-0.48741 -1.5014,-0.0414 -2.3562,-0.2336 -3.7984,0.45529 -0.5221,0.2494 -0.8073,0.90263 -1.3575,1.08181 -0.5929,0.1931 -1.2523,-0.11258 -1.8705,-0.0305 -3.5844,0.47583 -0.9754,1.1469 -4.2082,-0.27609 -0.3905,0.4298 -0.7835,0.85729 -1.1714,1.28939 -0.3133,0.34898 -1.3156,0.78373 -0.9322,1.05379 0.4968,0.34988 1.1695,-0.33169 1.7611,-0.46992 0.2256,-0.0527 -0.4406,0.28257 -0.6616,0.21303 -0.2626,-0.0826 -0.3785,-0.3999 -0.5678,-0.59985 -0.4034,-0.0568 -0.8068,-0.11365 -1.2102,-0.17048 -1.43515,-0.1252 -2.80508,-0.40974 -4.1562,0.62107 -0.83609,0.63787 -1.10503,1.79129 -1.71367,2.64889 -0.77166,1.08729 -2.52088,2.16346 -1.13316,3.8789 0.24674,0.305 0.5631,-0.54639 0.84465,-0.81958 0.15635,-0.45104 0.42814,-0.8775 0.46906,-1.35312 0.13321,-1.54826 -0.67977,-4.79321 -2.25075,-5.56627 -0.2585,-0.1272 -3.34556,-0.46238 -3.88531,-0.52436 -2.83436,0.0744 0.12813,-0.1165 -3.03181,0.49525 -0.69534,0.13461 -1.41821,0.10592 -2.10789,0.26702 -4.07624,0.95215 -7.87896,2.76514 -11.52158,4.78171 -0.99959,0.66639 -0.0572,2.08002 0.94242,1.41363 z" /><path
       style="fill:#c995ff;fill-opacity:1;stroke:none;stroke-width:3;stroke-linecap:round;stroke-linejoin:round;stroke-dasharray:none;stroke-opacity:1"
       id="path325"
       d="m 845.14634,753.54907 c -0.32666,0.0951 1.54009,-1.87145 0.85869,-2.35506 -0.20644,-0.14651 -0.11625,0.66097 -0.36939,0.66357 -0.39226,0.004 -1.36664,-0.72299 -0.98126,-0.64969 2.68573,0.51083 0.92047,1.37798 2.5781,0.24616 1.18877,-4.34017 0.34608,-0.074 0.25863,-4.34323 -0.0172,-0.84 0.25506,-1.66811 0.24836,-2.50826 -0.009,-1.13448 -0.44631,-1.89979 -0.50772,-1.82688 -0.37349,0.44335 -0.52617,1.03313 -0.78925,1.54969 1.39241,3.53533 4.53727,0.13516 6.25911,0.49509 0.61089,0.1277 0.88092,0.88429 1.32138,1.32644 0.88497,0.15168 1.76994,0.30336 2.65492,0.45504 3.65268,2.23083 7.25835,4.77712 11.27758,6.33725 0.95209,0.36957 1.97071,0.5378 2.96166,0.78493 0.29739,0.0742 0.66694,-0.0181 0.90198,0.17863 0.16048,0.1343 0.0389,0.41671 0.0583,0.62507 2.13401,-4.53318 0.91321,-0.44423 0.44178,-4.19261 -0.4453,-3.54063 0.54108,-2.03473 0.23517,-5.31979 -0.39503,-4.24209 -0.97149,-0.47651 -0.20906,-3.91391 -0.0551,-0.33626 -0.29054,-2.33338 -0.6385,0.77476 -0.0185,0.16552 0.2683,0.2007 0.38072,0.32359 0.33595,0.36724 0.47772,1.02329 0.96084,1.14294 0.80486,0.19932 1.64108,-0.30472 2.47018,-0.29325 0.63229,0.009 1.24259,0.23549 1.86389,0.35323 2.03812,0.56989 4.48079,1.01791 6.5885,0.45196 0.29852,-0.0802 0.50179,-0.37032 0.78576,-0.49239 0.66518,-0.28594 1.39922,-0.3763 2.08587,-0.60594 0.55392,-1.33638 -0.78699,-2.19375 -0.91454,-3.34147 -0.0804,-0.7235 0.24672,-1.43907 0.27504,-2.16647 0.0257,-0.65932 -0.0725,-1.31765 -0.11375,-1.97617 -0.10345,-1.6512 -0.61518,-1.57905 0.27459,-1.48505 0.77827,0.57165 1.78713,1.36358 2.67708,1.52925 0.77875,0.14497 1.57943,-0.34224 2.36455,-0.23706 3.39385,0.45462 1.17301,1.18084 4.27385,2.60423 0.69221,0.31774 1.51466,0.16211 2.272,0.24317 4.95801,0.75332 -1.48555,0.0598 2.76093,-0.31533 0.41468,-0.0366 0.78681,0.32461 1.20296,0.33554 1.33635,0.0351 1.71265,-0.87523 2.34458,-1.86739 0.0852,-1.07318 -0.7786,-1.89209 -0.91537,-2.89484 -0.0959,-0.70286 0.25114,-1.4429 0.064,-2.12714 -0.43162,-1.57814 -1.44244,-1.26531 -1.60173,-3.36267 -0.0681,-0.0615 -0.25773,-0.25909 -0.20421,-0.18457 1.93992,2.70129 -0.19956,0.18344 3.60371,1.02309 1.05333,0.23254 1.82072,1.27017 2.87943,1.47684 4.34091,-0.32581 2.29438,-0.55625 6.15694,0.5144 0.44487,-0.16519 0.86826,-0.40775 1.33462,-0.49559 0.60824,-0.11456 5.71634,0.5138 1.36688,-2.17945 -0.25229,-0.53899 0.61415,-0.9715 0.67536,-1.28526 0.0223,-0.11449 -0.27155,0.0585 -0.34872,-0.0289 -0.564,-0.6393 -0.22877,-0.70155 0.18918,-1.13464 1.1413,-0.72624 -0.9344,0.51995 -0.42018,1.096 0.41634,0.46639 1.24914,-0.0559 1.87394,-0.0779 0.9495,-0.0334 1.89948,-0.12441 2.84889,-0.0884 1.05118,0.0399 2.09955,0.47067 3.14001,0.31562 1.09959,-0.16386 2.06283,-0.82977 3.09424,-1.24465 0.92819,-0.4337 1.87905,-0.82188 2.78458,-1.30111 0.4887,-0.25863 0.97635,-0.53887 1.38853,-0.90741 0.34284,-0.30654 0.52685,-0.75867 0.84561,-1.09019 0.0864,-0.0899 0.39061,-0.0314 0.34404,-0.14707 -0.0524,-0.13034 -0.2797,-0.027 -0.41954,-0.0405 0.41944,-0.33404 0.83888,-0.66808 1.25832,-1.00212 -0.39557,-0.5462 -0.79114,-1.0924 -1.18671,-1.6386 -0.47307,-0.52394 -0.99696,-1.00614 -1.41923,-1.57183 -0.33308,-0.44621 -0.46352,-1.03178 -0.83433,-1.44716 -1.24409,-1.39366 -0.86318,0.46662 -0.41006,0.97203 -0.12608,1.48974 0.96845,0.0714 1.20851,0.42444 0.0835,0.12276 -0.0817,0.42179 -0.22527,0.38417 -0.19238,-0.0504 -0.19516,-0.34659 -0.29275,-0.51988 -0.57595,1.27081 1.22125,2.08534 1.7972,0.81452 v 0 c 1.34465,-3.25594 0.10993,-1.67283 -1.90021,-2.67838 -0.9815,-0.42817 -2.29586,-1.58801 -2.49357,0.7548 -0.0321,0.38097 0.64235,0.47508 0.79723,0.82463 0.30543,0.68933 0.0823,1.59798 0.54126,2.19619 0.58277,0.75966 1.91192,0.58824 2.51404,1.38923 0.23822,-0.35476 0.99774,-0.74418 0.71465,-1.06427 -0.28958,-0.32741 -0.83552,0.27925 -1.21093,0.50313 -3.77576,2.25172 0.65436,-0.45156 -0.77604,1.54494 -0.78869,1.10083 -3.539,-0.0835 -3.28397,2.39169 -5.98711,1.81452 0.47707,0.37258 -5.89024,0.11205 -0.95167,-0.0389 -1.86113,0.48968 -2.81355,0.49867 -0.22632,0.002 -3.96636,-1.40985 -3.64865,0.53048 0.1752,0.51724 -0.1654,1.19665 -0.1414,1.24159 0.12469,0.23348 0.52184,0.27227 0.59403,0.52692 0.31349,1.10579 -0.59681,0.81858 0.01,0.96436 -0.0204,0.84163 -0.0891,0.17422 0.4965,-0.19345 0.61889,-0.38856 -2.45428,2.25705 -1.91731,0.95779 -1.4783,-0.0364 -4.53918,-0.005 -5.89155,-0.52119 -1.14909,-0.43855 -1.97474,-1.53493 -3.13265,-1.94963 -2.66403,-0.95412 -3.44826,0.48218 -5.28027,1.80834 2.57549,3.47249 -0.90968,-1.62869 0.66565,2.07493 0.17007,0.39982 0.72522,0.5399 0.91018,0.93306 1.09382,2.32508 -0.27379,2.91536 0.87619,4.70551 0.19364,-0.0595 0.6526,-0.36796 0.58091,-0.17849 -0.25127,0.66416 -1.77053,0.10559 -1.90538,0.14744 -1.32393,0.41083 -0.8405,2.70237 -2.60465,0.40858 -4.93585,-0.77139 0.97161,0.44461 -4.54434,-1.88449 -0.77703,-0.3281 -1.676,-0.25217 -2.47735,-0.51536 -0.71149,-0.23368 -1.30861,-0.76004 -2.02898,-0.9647 -1.1195,-0.31804 -3.01914,-0.27285 -4.20522,-0.28576 -0.9292,1.32402 -1.55662,3.13882 -1.43366,4.81165 0.0548,0.74624 0.48463,1.422 0.61547,2.15872 0.44116,2.48408 -0.60703,0.52391 0.75168,2.52236 -0.45512,0.39316 0.52571,-0.39818 -0.9317,-0.72885 -0.22625,-0.0513 -0.26051,0.40925 -0.46597,0.51698 -0.40429,0.212 -0.84999,0.39105 -1.306,0.41219 -0.82379,0.0382 -1.64172,-0.15835 -2.46258,-0.23753 -0.82053,0.0584 -1.64105,0.11683 -2.46158,0.17524 -3.7712,-2.6382 -0.33453,-0.98604 -3.67463,-1.01405 -0.37442,-0.003 -3.30309,-4.31384 -3.57078,-0.23369 0.16863,2.17897 0.45173,4.42075 0.46747,6.60305 0.007,1.01257 -0.18197,2.02194 -0.15066,3.03405 0.0232,0.74939 -0.2943,1.78821 0.31341,2.22731 0.49619,0.35853 1.09883,-0.53994 1.64825,-0.80991 -0.57018,0.23455 -0.13394,0.0887 -1.4198,-0.0114 -0.9362,-0.0729 -1.91065,0.0525 -2.80824,-0.22339 -1.28054,-0.39361 -2.43009,-1.13079 -3.61722,-1.75162 -4.75221,-2.48528 -3.47452,-1.77175 -7.48936,-5.04725 -1.4029,-0.51715 -3.20976,-1.31418 -4.77148,-1.48706 -0.64558,-0.0715 -1.29892,0.0179 -1.94838,0.0269 -0.57263,0.11834 -1.1347,0.39758 -1.71787,0.35502 -0.56894,-0.0415 -0.59284,-1.27952 -1.24788,-1.17112 -3.69543,0.77551 -1.31706,-0.32871 -1.42716,1.9349 -0.0412,0.84603 -0.47576,1.62587 -0.71364,2.43881 0.17088,0.62702 0.43236,1.23616 0.51265,1.88107 0.0367,0.2951 -0.11293,0.58394 -0.16939,0.87591 -0.79448,-0.21404 0.38782,0.0385 0.24514,1.34009 -0.0381,0.34726 -0.22242,-0.72705 -0.52011,-0.90987 -0.32198,-0.19774 -0.84709,-0.35457 -1.12888,-0.10285 -0.89348,0.79815 0.805,3.07759 -1.29206,3.3539 0,1.36588 1.93164,1.36588 1.93164,0 z" /><path
       style="fill:#c995ff;fill-opacity:1;stroke:none;stroke-width:3;stroke-linecap:round;stroke-linejoin:round;stroke-dasharray:none;stroke-opacity:1"
       id="path326"
       d="m 942.22626,706.21587 c 2.45446,-1.93913 -2.42136,-5.81606 0.15906,-6.88478 0.18569,-0.0769 -0.0154,0.42799 0.096,0.59526 0.19467,0.29221 0.46244,0.55382 0.77547,0.71287 0.48618,0.24703 1.04343,0.31758 1.56514,0.47638 0.64401,0.40265 1.28802,0.80529 1.93202,1.20794 0.69452,0.2197 1.46012,0.28232 2.08354,0.6591 0.51009,0.30828 0.65873,1.07618 1.20012,1.32544 0.23507,0.10822 3.69422,0.38644 4.10255,0.31102 0.36362,-0.0672 0.62442,-0.39624 0.93664,-0.59437 1.57501,-0.11678 1.41453,0.40559 1.30753,-2.0916 -0.007,-0.15214 -0.20166,-0.25937 -0.19822,-0.41162 0.0195,-0.86115 0.68319,0.91386 0.0577,-0.47676 -0.0148,-0.13906 0.08,-0.35358 -0.0445,-0.41719 -0.10498,-0.0536 -0.18231,0.22919 -0.12353,0.33137 0.0698,0.1213 0.25878,0.11075 0.39537,0.14116 1.41749,0.31559 2.50193,0.48796 3.91517,0.20811 0.52341,-0.15904 1.17967,-0.0941 1.57024,-0.47711 0.46016,-0.45125 0.49157,-1.19159 0.73846,-1.78692 0.80418,-1.93916 0.62159,-2.77346 -1.37718,-3.44375 1.80806,0.79741 0.943,0.0533 -0.0463,-1.26415 -1.31799,-0.46496 -1.97553,1.39896 -0.65754,1.86392 v 0 c 0.0656,-0.22629 0.41174,-0.58215 0.19689,-0.67886 -0.59746,-0.26896 -1.85302,3.05343 0.63149,1.86144 -0.19388,-0.20292 -0.3431,-0.4609 -0.58164,-0.60875 -0.24356,-0.15095 0.26521,0.28748 0.26299,1.02396 -5.4e-4,0.17718 -0.15806,0.32978 -0.15977,0.50695 -0.0147,1.52449 0.58371,0.73736 -0.52468,1.61727 -0.80459,0.0136 -1.46341,0.0515 -2.27383,-0.057 -1.15353,-0.15444 -3.91602,-1.61576 -3.64515,1.02905 -0.13916,0.27175 -0.39697,0.51063 -0.41748,0.81525 -0.0112,0.16653 0.31328,0.20458 0.33769,0.36969 0.0432,0.29239 -0.42978,0.76717 -0.15391,0.87327 0.0928,0.0357 1.71908,-0.8966 0.4751,-0.54509 -2.47032,1.26651 -1.6148,0.21095 -3.61808,-0.48603 -0.61301,-0.21328 -1.3014,-0.0635 -1.93773,-0.19142 -1.75328,-0.35244 -2.26527,-0.76581 -3.86595,-1.59288 -1.02403,-0.83485 -2.75573,-2.74599 -4.26453,-1.46092 -1.73952,1.48158 -0.10611,6.22686 0.36832,7.80053 0.18443,0.5533 0.96691,0.29247 0.78248,-0.26082 z" /><path
       style="fill:#c995ff;fill-opacity:1;stroke:none;stroke-width:3;stroke-linecap:round;stroke-linejoin:round;stroke-dasharray:none;stroke-opacity:1"
       id="path327"
       d="m 989.11811,697.36066 c 1.21898,-1.22785 0.23171,-2.72865 0.53957,-4.05805 0.0413,-0.17816 0.39326,-0.48563 0.45113,-0.31216 0.11875,0.35589 -0.40507,0.80651 -0.18483,1.11024 0.41025,0.56579 1.20022,0.71702 1.78607,1.09806 0.80387,0.52284 1.58808,1.07531 2.38212,1.61297 6.81833,1.7848 -0.98439,0.0645 6.03163,0.59815 0.7096,0.054 1.3477,0.54216 2.059,0.56438 0.6649,0.0208 1.2954,-0.30409 1.9468,-0.43919 0.6724,-0.13946 1.4772,0.0311 2.0239,-0.38438 0.596,-0.45293 0.7173,-1.31418 1.0759,-1.97128 0.9171,-1.05423 2.2863,-2.21964 1.7409,-3.83821 -0.1195,-0.35452 -0.328,-1.23187 -0.5836,-0.95868 -0.528,0.56443 -0.408,1.49107 -0.6121,2.23661 0.2608,-0.0992 0.5032,-0.29737 0.7822,-0.29767 1.4732,-0.002 0.9047,0.7115 2.4692,0.96087 1.8111,0.28867 3.985,-0.43067 5.7853,-0.6622 0.9201,1.81123 1.1075,-0.55651 1.6259,-0.35841 0.2321,0.0887 0.1785,0.51521 0.3991,0.62952 0.8004,0.41475 2.8142,-0.27086 3.5896,-0.41133 0.8736,0.0653 1.9251,0.20853 2.8052,0.0296 2.1101,-0.42902 -0.06,-0.18157 0.8287,-0.44043 5.7464,-1.67413 -2.3589,0.94149 6.1359,-1.89505 2.2588,-1.66077 5.3434,-1.33334 7.7267,-2.64999 0.7631,-0.42158 1.2244,-1.24143 1.8274,-1.87102 0.7136,-0.74496 2.0012,-2.10611 1.8863,-2.30588 -0.3909,-0.68006 -1.3608,-0.78062 -2.0412,-1.17093 -0.5597,1.79948 -1.7538,3.11951 1.4484,2.38894 1.9814,-0.45204 -0.7976,-1.1698 1.2988,-1.066 1.4283,0.0707 0.2325,0.57393 1.0154,0.18192 0.6245,0.83267 0.666,1.04967 0.4678,0.46947 0.634,1.03095 2.092,0.13438 1.458,-0.89656 v 0 c -1.254,-1.02963 -0.7237,-0.50073 -1.6325,-1.5439 -1.1903,0.017 -0.564,-0.12128 -1.8248,0.61031 -0.5006,0.0715 -3.1353,-1.36017 -2.2682,0.34134 1.0054,1.97291 3.6955,-0.52806 0.3714,1.79574 -0.1919,-0.25239 -0.4744,-0.45673 -0.5758,-0.75717 -0.034,-0.10109 0.3297,-0.26966 0.2549,-0.19353 -2.7796,2.83062 -5.6638,4.97513 -9.7779,5.52538 -7.1143,2.65998 -1.1947,0.96057 -5.7563,1.42347 -0.1046,0.0106 -0.1203,0.19468 -0.221,0.22525 -0.1996,0.0606 -0.4225,-0.0179 -0.6251,0.0317 -2.2189,0.54393 -0.4661,0.59516 -2.8058,0.21836 -0.7977,0.0795 -1.8753,0.23819 -2.6962,0.13725 -0.4357,-0.0536 -0.7994,-0.5064 -1.2354,-0.45596 -0.1845,0.0213 -0.3073,0.20873 -0.4609,0.31309 -0.4192,-0.0112 -0.8383,-0.0224 -1.2575,-0.0336 -0.5554,-0.18713 -1.0835,-0.62489 -1.6661,-0.56138 -0.7397,0.0806 -1.2834,0.8217 -2.0141,0.96256 -0.668,0.1288 -1.353,-0.1559 -2.0328,-0.18233 -1.0413,-0.0405 -1.6784,0.26457 -2.338,-0.69119 -1.9322,2.04179 -1.1224,2.23922 -2.0162,0.84719 -0.079,-0.12315 0.1687,0.24995 0.1932,0.39422 0.2162,1.26853 -0.8203,1.3104 -0.8585,2.50607 -0.4083,0.24098 -0.9172,0.36222 -1.2249,0.72293 -0.4024,0.47175 -0.2579,1.40336 -0.8171,1.67109 -0.5595,0.26783 -1.2085,-0.28084 -1.8149,-0.41113 -2.48566,-0.53404 -4.99561,-0.55629 -7.52817,-0.72259 -0.73765,-0.44196 -1.49732,-0.84909 -2.21296,-1.32588 -2.37729,-1.58387 -1.6883,-2.17302 -5.0428,-1.11087 -0.32715,0.10359 0.83678,7.8e-4 0.98102,0.31216 0.36396,0.78568 -0.85913,3.8343 -0.93252,4.05805 0,1.18139 1.67074,1.18139 1.67074,0 z" /><path
       style="fill:#c995ff;fill-opacity:1;stroke:none;stroke-width:3;stroke-linecap:round;stroke-linejoin:round;stroke-dasharray:none;stroke-opacity:1"
       id="path328"
       d="m 886.19152,764.40065 c 3.8794,-2.22022 3.64472,1.11062 6.58291,-1.79311 0.25004,-0.24711 0.68449,-0.47727 0.65385,-0.82748 -0.4169,-4.7648 -1.67576,2.22927 -0.47984,-2.85081 0.0571,-0.67612 1.20949,-1.40559 1.8954,-0.97835 0.33816,0.21064 0.25345,0.76329 0.46423,1.10136 0.0751,0.12049 -0.0279,-0.28262 -0.0419,-0.42393 1.11634,-4.51652 -0.51179,0.55628 1.10309,-1.7362 0.2924,-0.41509 -0.70165,-1.50616 0.2835,-1.15828 1.31684,1.45301 2.58635,0.0226 2.66195,0.035 0.36037,0.0593 0.63725,1.09166 0.78953,0.7597 0.25983,-0.56641 -0.19393,-1.23115 -0.29089,-1.84673 0.30931,0.64919 0.0748,-3.05325 -0.15779,-2.10837 -0.0303,0.12316 0.24168,1.39721 0.26418,1.40303 0.34215,0.0885 0.70247,-0.0784 1.05371,-0.11761 2.12979,1.84865 4.64651,1.95132 7.21919,2.64054 1.06832,0.28621 2.06661,0.79915 3.13309,1.09216 0.78445,0.21553 1.61536,0.21264 2.40889,0.39187 0.11707,-0.52519 0.4294,-1.04321 0.35121,-1.57558 -0.0426,-0.29011 -0.5171,-0.32157 -0.66687,-0.57365 -0.18348,-0.30883 0.57448,-2.26437 0.6462,-2.45483 -0.0791,-0.25284 0.002,-0.6441 -0.23743,-0.75852 -0.17594,-0.0842 -0.18765,0.35754 -0.19278,0.55254 -0.002,0.0598 0.12713,-0.006 0.17755,0.0266 0.28799,0.18403 0.49095,0.52883 0.82236,0.61236 1.57637,0.39729 2.64523,0.006 4.178,-0.29616 1.10792,-0.0916 3.8977,1.19352 4.56233,-0.51896 0.19948,-0.514 -0.35844,-1.04467 -0.48561,-1.58116 -0.0904,-0.38154 -0.004,-0.80719 -0.16526,-1.16467 -0.16423,-0.36434 -0.51523,-0.61107 -0.77284,-0.91661 0.11989,-0.11544 0.2054,-0.40879 0.35967,-0.34632 0.26947,0.10911 0.31088,0.49764 0.51796,0.7017 0.0867,0.0855 -0.0761,-0.23515 -0.14583,-0.33501 -0.0364,-0.0521 -0.20495,-0.0582 -0.1603,-0.10348 1.05653,-1.07203 1.26377,-0.28954 0.69373,-1.29297 0.99534,-0.62002 -0.2482,-1.06709 -0.12925,-1.58297 0.0438,-0.18984 0.57685,0.0409 0.56396,-0.15351 -0.0596,-0.89845 -0.32333,-0.30414 0.0768,-0.93286 -0.0533,-0.0929 -0.10652,-0.1858 -0.15978,-0.2787 -0.38948,-1.35728 -2.30897,-0.80647 -1.91949,0.55081 v 0 c 0.18942,-0.0755 0.37883,-0.15092 0.56824,-0.22638 -0.20483,0.054 -0.40966,0.10807 -0.61449,0.1621 0.0354,0.0489 0.14817,0.10331 0.10624,0.14679 -0.14397,0.14929 -0.48738,0.10521 -0.54218,0.30523 -0.10263,0.37466 1.97483,1.80986 0.84821,2.35433 -0.14351,0.64364 -0.86143,2.83115 1.92666,0.56339 0.3628,-0.29509 0.18229,-1.16187 -0.22918,-1.38412 -0.40568,-0.21912 -0.80428,0.48327 -1.25451,0.58272 -2.32566,0.51374 -1.06671,-1.01974 -2.22732,1.73593 3.57766,3.66743 -0.43187,-1.10634 0.68707,2.21415 0.0775,0.23005 0.43943,-0.34718 0.67252,-0.27939 0.19235,0.0559 0.44868,0.54685 0.24836,0.54723 -5.83915,0.0109 3.78795,-1.53536 -2.9975,-0.2247 -0.66226,0.15285 -1.30852,0.50225 -1.98679,0.45856 -0.56905,-0.0367 -1.02191,-0.51831 -1.56648,-0.68745 -0.30358,-0.0943 -0.63369,-0.0536 -0.94902,-0.0938 -1.84822,-0.23583 -1.26058,0.0853 -2.40393,1.42653 -0.33234,0.39368 -0.9687,0.66662 -0.99703,1.18104 -0.0262,0.47558 0.80568,0.66186 0.86956,1.13386 0.0592,0.43729 -0.72122,0.79457 -0.55332,1.20266 1.1015,2.67721 2.18838,-0.35651 2.44844,-0.84132 -0.84682,1.31722 0.21537,0.0963 -1.81119,-0.30536 -1.11704,-0.22138 -2.30005,0.16164 -3.41564,-0.067 -2.58258,-0.52919 -4.79803,-2.35801 -6.99331,-3.68502 -0.32925,-0.0222 -1.73149,-0.14855 -2.0494,-0.0378 -2.09101,0.72811 -2.95108,1.84992 -0.865,3.22622 0.54052,-0.9957 -0.28853,0.23309 0.80905,-0.009 0.17019,-0.0376 -0.12145,-0.38425 -0.28768,-0.43662 -0.22457,-0.0707 -0.46074,0.15238 -0.69483,0.12708 -0.74362,-0.0804 -1.3317,-0.82378 -2.1032,-0.78192 -0.45561,0.0853 -1.02259,-0.0546 -1.36684,0.25579 -0.73225,0.66025 -1.58528,5.28866 0.86033,4.75215 0.60855,-0.1335 0.71229,-1.02237 1.06844,-1.53356 -2.45393,-0.30512 1.22003,0.29955 -1.70148,-0.85046 -0.77358,-0.3045 -2.9251,-0.48812 -3.61333,0.15531 -0.87089,0.81419 1.3663,3.11052 -1.03731,3.42291 0.23252,0.40882 0.43641,0.8353 0.69756,1.22645 0.054,0.0808 -0.16299,-0.26276 -0.068,-0.28355 0.29428,-0.0644 0.90338,-0.19932 0.89798,0.10188 -0.0198,1.10268 -2.08424,0.78798 -3.1799,0.91375 -1.09715,0.12595 -2.17996,0.35523 -3.26994,0.53284 -1.29965,0.43322 -0.68699,2.2712 0.61267,1.83798 z" /><path
       style="fill:#c995ff;fill-opacity:1;stroke:none;stroke-width:3;stroke-linecap:round;stroke-linejoin:round;stroke-dasharray:none;stroke-opacity:1"
       id="path329"
       d="m 942.60997,742.31139 c -0.43853,-1.8626 -2.35305,-5.34257 0.29412,-6.5428 0.21228,-0.0963 0.3252,0.37241 0.55089,0.43064 3.20104,0.82598 -1.04511,-1.57336 3.30759,1.42445 3.45376,0.29922 2.22017,-0.21223 4.93562,1.41713 0.64296,0.38579 1.18589,0.9759 1.90023,1.20385 0.22154,0.0707 2.76044,-0.30101 3.07009,-0.37956 2.11448,1.58738 -1.36602,-2.37189 -0.95584,-1.82217 0.28493,0.38187 0.49735,1.33716 0.91128,1.10121 0.48768,-0.27799 -0.19399,-1.20588 0.10537,-1.68073 0.34124,-0.54128 1.12363,-0.62895 1.61163,-1.04281 0.26844,-0.22766 0.41544,-0.5683 0.62315,-0.85246 -0.40142,-0.8396 -1.1441,2.02769 1.22154,-1.03055 0.13114,-0.16953 -0.4251,-0.19816 -0.50611,-0.39659 -0.0595,-0.14578 0.10881,-0.29553 0.16321,-0.4433 -0.90854,0.25392 0.40698,-0.10216 0.4347,-0.20693 0.063,-0.23799 -0.40214,-0.30069 -0.53797,-0.50602 -0.11869,-0.1794 0.45213,0.0203 0.63972,-0.085 0.21327,-0.1197 0.25468,-0.4176 0.38202,-0.6264 0.29245,-1.37745 0.74397,3.59044 1.99154,-0.0608 -0.52253,-2.54125 0.25353,-1.89565 -1.68583,-1.43673 -0.55464,0.13125 -1.12449,0.18691 -1.68673,0.28037 -1.15343,0.0133 -1.13463,1.6445 0.0188,1.6312 v 0 c 2.40991,0.12239 3.02385,0.8527 3.1981,-2.02944 -0.17941,0.0686 -0.37694,0.10151 -0.53825,0.20581 -0.11173,0.0722 -0.15932,0.39955 -0.255,0.3071 -0.13276,-0.12827 0.0504,-0.37631 -3.2e-4,-0.5538 -0.2588,-0.90508 -1.76542,-0.35852 -2.18272,0.23715 -0.65156,0.59769 -1.66379,0.85789 -2.09108,1.63197 -0.12362,0.22394 0.63381,0.0865 0.68988,0.33608 0.11923,0.53066 -1.56655,0.30595 -0.0599,1.38896 0.0843,0.12372 0.24737,0.22158 0.25277,0.37117 0.0101,0.2799 -0.47585,0.72532 -0.21004,0.81355 4.2144,1.39896 1.23017,-1.82683 0.403,-1.85639 -0.52405,-0.0187 -0.94415,0.45658 -1.41623,0.68487 -2.039,2.18284 -2.20482,2.88018 -2.32157,5.7289 -5.4e-4,0.0132 -0.0264,5e-5 -0.0396,7e-5 -0.10216,-0.36622 -0.20432,-0.73245 -0.30649,-1.09867 0.38475,0.0966 0.79094,0.44897 1.15423,0.28969 0.22849,-0.10019 0.0617,-0.58453 -0.13661,-0.73588 -0.31626,-0.24135 -0.79345,-0.11635 -1.16533,-0.25767 -0.72462,-0.27539 -1.37565,-0.7268 -2.10633,-0.98568 -0.69523,-0.24632 -1.43346,-0.34828 -2.15019,-0.52242 -0.90216,-0.34537 -1.80432,-0.69074 -2.70648,-1.03611 -0.73268,-0.15734 -1.47786,-0.26489 -2.19805,-0.47202 -1.16626,-0.33543 -3.04038,-1.64917 -4.27491,-0.15257 -0.43015,0.52147 0.17674,1.34721 0.14776,2.02259 -0.0729,1.69989 -0.52014,3.6385 -0.85227,5.30668 0,1.68048 2.37656,1.68048 2.37656,0 z" /><path
       style="fill:#c995ff;fill-opacity:1;stroke:none;stroke-width:3;stroke-linecap:round;stroke-linejoin:round;stroke-dasharray:none;stroke-opacity:1"
       id="path330"
       d="m 975.03672,721.27467 c 0.62587,-0.41388 1.37434,-0.68511 1.87761,-1.24164 0.40117,-0.44361 1.65789,-3.70477 1.63002,-4.10339 -0.0664,-0.9491 -0.93628,-1.69429 -1.10939,-2.62982 0.10438,-3.40773 0.29968,-1.94798 -0.25409,-4.41094 -0.0538,0.49857 -0.36483,1.03742 -0.16126,1.4957 0.10252,0.23079 0.47342,-0.31011 0.7172,-0.24415 0.37364,0.1011 0.56035,0.58766 0.93344,0.69076 2.46194,0.68036 0.25817,-1.1054 2.49025,1.05048 1.67113,2.42297 2.94734,1.29974 5.25468,0.52396 -0.0189,-0.53048 -0.18625,-1.07668 -0.0567,-1.59144 0.24972,-0.99221 0.93995,-0.43063 0.92394,-0.44032 -2.30238,-1.3926 -1.55532,-0.89238 -0.7482,0.84794 2.24165,0.51327 -0.85748,-0.0652 1.87638,-0.0858 0.44575,-0.003 0.86713,0.24762 1.31284,0.25456 0.47411,0.007 0.94121,-0.12136 1.40659,-0.21223 0.26092,-0.051 0.50609,-0.25385 0.76872,-0.21255 0.11102,0.0175 -0.0815,0.20947 -0.12226,0.31421 -0.43236,-4.97045 -0.6274,-2.68587 0.15013,-1.96633 0.12032,0.11135 -0.29872,-0.30273 -0.21374,-0.44292 0.10745,-0.17725 0.58164,-0.39112 0.59391,-0.18421 0.0757,1.2765 -1.23066,1.39725 -0.0242,1.15186 0.19982,1.30066 -0.18526,-1.03411 0.13792,-1.24119 0.37335,-0.23923 0.41896,0.78798 0.69878,1.13197 0.16494,0.20279 0.4109,0.32323 0.61635,0.48484 1.70342,-0.12408 1.52792,-2.53303 -0.17547,-2.40895 v 0 c -0.97939,1.09002 -0.023,-0.18756 -0.47296,2.22686 -0.127,0.68149 0.36085,-2.16428 -0.408,-2.03923 -0.30562,-0.12547 -0.59987,-0.46951 -0.91686,-0.37642 -0.72161,0.21194 -1.40807,0.64306 -1.90705,1.20579 -0.14178,0.1599 0.33747,0.30693 0.38003,0.51636 0.038,0.18699 -0.6207,3.20066 1.44535,1.79344 0.61863,-0.42137 0.35409,-1.45453 0.53114,-2.18179 -0.98654,-0.92215 0.69686,0.44197 -1.12637,0.70579 -0.54162,0.0784 -0.95221,-0.58632 -1.48942,-0.69075 -0.59355,-0.11538 -1.75592,0.20869 -2.39847,0.29376 -0.0998,0.46816 -0.32823,0.92667 -0.29937,1.40448 0.008,0.1406 0.4488,-0.0821 0.37213,-0.20022 -0.37344,-0.57552 -0.90156,-1.04847 -1.4499,-1.46079 -0.0986,-0.0741 0.0756,0.27314 -7.5e-4,0.36999 -0.47322,0.6003 -1.4886,0.67137 -1.61658,1.62646 -0.0516,3.26222 0.20444,0.10645 -1.91292,-0.55274 -0.3706,-0.12957 -0.80599,-0.14251 -1.1118,-0.3887 -0.27778,-0.22362 -0.1877,-0.82205 -0.52732,-0.93084 -0.37638,-0.12056 -0.77738,0.61153 -1.11434,0.40499 -0.50289,-0.30824 -0.25707,-1.34784 -0.8,-1.57835 -1.43926,-0.61106 -2.64935,0.55842 -3.63098,1.24699 0.019,3.15717 -0.10377,0.0427 0.58208,4.42726 0.11918,0.76189 0.0449,1.55309 0.22791,2.30222 0.12496,0.51146 0.78591,0.90818 0.68254,1.42443 -0.22743,1.13576 -3.56039,-0.0475 -2.84706,1.9923 -1.36352,0.90901 -0.078,2.83731 1.28553,1.9283 z" /><path
       style="fill:#c995ff;fill-opacity:1;stroke:none;stroke-width:3;stroke-linecap:round;stroke-linejoin:round;stroke-dasharray:none;stroke-opacity:1"
       id="path331"
       d="m 1017.3327,712.06264 c 4.274,-1.62173 1.7136,-1.09331 6.9346,-0.89752 2.5281,0.0948 5.4422,-0.8525 5.7467,2.34437 0.56,0.0971 0.1018,0.10395 0.641,-0.61753 0.4487,-0.60028 1.2345,-0.88403 1.7,-1.47132 0.352,-0.44401 0.4756,-1.03187 0.7756,-1.51256 0.3807,-0.61012 0.8404,-1.16718 1.2607,-1.75078 0.6979,-0.0766 1.396,-0.15249 2.0938,-0.22984 1.6565,-0.18361 2.1595,0.057 3.6966,0.56114 0.5838,0.19148 1.1262,0.57949 1.7399,0.60853 0.4382,0.0207 0.82,-0.312 1.2299,-0.468 1.3968,0.12384 0.036,-0.46224 1.1714,-1.23115 0.3141,-0.21267 0.7554,0.16904 1.1316,0.12056 0.2195,-0.0283 0.3492,-0.35061 0.5702,-0.33989 0.4434,0.0215 0.8406,0.28575 1.2609,0.42863 0.4754,-0.0355 0.9509,-0.071 1.4263,-0.10657 0.4599,0.10359 0.9083,0.32199 1.3795,0.31076 0.1096,-0.003 3.6342,-0.7217 3.6696,-0.75071 0.9969,-0.81819 1.2685,-3.34359 1.4705,-4.3293 0.7319,-0.31385 1.4933,-0.56625 2.1957,-0.94156 0.953,-0.50922 2.8457,-2.51578 4.1069,-1.18615 -0.1255,0.84896 -0.2701,0.52146 0.3249,1.02361 0.033,0.18877 0.066,0.37753 0.098,0.5663 -0.037,-0.0329 -0.1591,-0.0932 -0.1102,-0.0986 0.732,-0.0804 1.4802,-0.002 2.2051,-0.1316 1.3462,-0.24013 2.5213,-1.09805 3.8532,-1.40758 0.8669,-0.20148 1.7696,-0.19301 2.6544,-0.28951 4.9892,-1.33213 -0.6626,-0.21395 2.7652,0.01 0.2395,0.0156 0.4015,-0.26784 0.622,-0.36243 0.034,-0.0144 -0.017,0.0711 -0.026,0.10665 0.9168,0.35177 0.5019,0.40044 1.2528,0.0267 2.0439,0.93063 -0.251,0.19665 1.3657,-0.19396 0.1507,-0.0364 0.1536,0.28768 0.2877,0.36552 0.6318,0.36679 2.1037,-1.27415 2.1264,-1.29316 0.8524,-1.2539 0.3027,-0.85048 1.5501,-1.3346 1.3956,-1.17115 -0.2607,-3.14476 -1.6563,-1.97361 v 0 c -1.493,1.88897 -0.6626,1.03522 -2.4852,2.56699 2.8877,-0.30066 0.2275,0.28354 -0.4623,0.0355 -0.2491,0.10018 -0.4199,0.33488 -0.6298,0.50233 -0.3929,-0.0997 -0.2263,0.0198 -0.3533,-0.50339 -0.2464,-0.0779 -0.4993,0.1899 -0.7568,0.16799 -1.5976,-0.13592 -2.4538,-1.10412 -4.1008,0.0579 -0.7949,0.2691 -1.5671,0.61782 -2.3846,0.80731 -0.9982,0.23136 -2.091,0.0659 -3.0408,0.45022 -1.7076,0.69087 -2.3015,1.41567 -1.0674,2.54248 0.4163,0.38014 -1.2962,-3.34104 0.3102,-1.66256 -0.3779,-0.3322 -0.7721,-0.64672 -1.1336,-0.99659 -0.302,-0.29222 -0.4533,-0.80112 -0.8542,-0.92705 -0.5537,-0.17391 -1.16,0.0535 -1.7373,0.113 -0.681,0.0701 -1.4105,-0.005 -2.0351,0.27559 -0.9793,0.43916 -3.0555,2.67016 -3.7271,3.34415 -0.3761,0.62872 -0.7521,1.25744 -1.1282,1.88615 -0.088,0.44587 -0.032,0.94707 -0.2645,1.3376 -0.9539,1.60234 -2.9857,0.009 -4.0452,-0.28313 -0.5246,-0.1445 -1.0851,-0.0833 -1.6277,-0.12496 -0.5447,0.19967 -1.0592,0.52179 -1.6342,0.59899 -0.6514,0.0874 -1.3985,-0.44296 -1.9682,-0.11533 -1.0938,0.62899 0.5675,1.59905 -0.6762,1.2336 -0.1075,-0.0316 0.052,-0.21822 0.078,-0.32733 -0.3348,0.20129 -0.615,0.5715 -1.0042,0.60387 -0.8314,0.0691 -1.6656,-0.7331 -2.4395,-0.86926 -0.5538,-0.0974 -1.1252,10e-4 -1.6867,-0.0296 -3.0554,-0.16779 -1.3485,-0.63271 -4.2096,1.07484 -1.5672,1.15851 -3.6621,2.5633 -4.0073,4.73162 -0.1881,1.18181 -0.2893,2.51025 1.2755,1.83288 0.3886,-0.16821 0.6096,-0.58787 0.9144,-0.8818 -0.3591,-0.52689 -1.7722,-2.64244 -2.0717,-2.8432 -2.2121,-1.48275 -3.2677,-0.67802 -5.7504,-0.66021 -6.1151,0.0438 -2.2841,-0.8512 -7.3484,0.89418 -1.1404,0.38013 -0.6028,1.99286 0.5376,1.61274 z" /></g></svg>
