<?xml version="1.0" encoding="UTF-8" standalone="no"?>
<!-- Created with Inkscape (http://www.inkscape.org/) -->

<svg
   width="498.77094"
   height="319.72235"
   viewBox="0 0 498.77094 319.72235"
   version="1.1"
   id="svg1"
   xml:space="preserve"
   xmlns="http://www.w3.org/2000/svg"
   xmlns:svg="http://www.w3.org/2000/svg"><defs
     id="defs1"><filter
       style="color-interpolation-filters:sRGB"
       id="filter309"
       x="-0.12967133"
       y="-0.23666034"
       width="1.2593427"
       height="1.4733207"><feGaussianBlur
         stdDeviation="21.398825"
         id="feGaussianBlur309" /></filter></defs><g
     id="g25"
     style="display:inline"
     transform="translate(-710.61456,-610.13883)"><path
       d="m 1013.1873,661.49601 -69.12196,19.33234 -10.08289,-4.45528 -45.36764,13.2288 c -0.01,-6.4e-4 -0.28957,-0.0272 -0.28957,-0.0272 l -7.24249,2.22363 -5.44553,7.1345 c 0,0 3.0693,-0.15946 4.64298,-0.26545 l -1.79153,0.50127 c 0,0 -22.86842,5.98887 -42.90695,11.13542 -22.86445,5.8724 -71.03201,17.20194 -71.03201,17.20194 l -0.24384,24.79264 -2.05078,21.77574 0.0389,23.19809 -0.32225,28.41575 27.88178,10.73416 33.83036,14.57765 34.10509,11.55151 37.68066,15.95246 c 0,0 54.8495,-21.6498 57.96126,-21.6498 2.24232,0 25.15338,-9.71059 40.45243,-16.25681 v 0.6982 l -6.05843,4.25897 9.34261,2.0588 32.121,-12.46269 -0.038,0.48276 8.7475,-3.86202 0.7069,-5.6134 44.6417,-12.09044 42.786,-11.66879 31.1178,-3.8898 v -22.21714 -27.57063 l 0.7779,-21.78253 -1.8186,-17.03527 -51.7077,-18.70266 z"
       style="display:inline;fill:#c58dff;fill-opacity:0;stroke:none;stroke-width:2.6433;stroke-linejoin:round;filter:url(#filter309)"
       id="path309" /><g
       id="g24"
       transform="matrix(0.87814065,0,0,0.87814065,119.05108,85.11494)"><path
         style="fill:#81a381;fill-opacity:1;stroke:#000000;stroke-width:3;stroke-linejoin:round;stroke-dasharray:none"
         d="m 735.82165,731.69802 78.66376,28.71851 68.67473,29.96716 73.66927,-26.22123 67.42599,-19.97813 77.4152,-16.2322 78.6638,-16.23221 -58.6857,-21.22673 -103.6364,-33.71305 -152.87619,42.75644 c 0,0 -25.95394,6.79672 -48.69661,12.63779 -25.94989,6.66486 -80.61785,19.52365 -80.61785,19.52365 z"
         id="path3" /><path
         style="fill:#b3ccb3;fill-opacity:1;stroke:#000000;stroke-width:3;stroke-linejoin:round;stroke-dasharray:none"
         d="m 735.82165,731.69802 -0.27697,28.13853 -2.32739,24.71407 0.0443,26.32837 -0.36572,32.25017 31.64426,12.18337 38.39539,16.54435 38.70758,13.11065 42.76566,18.10515 0.33434,-17.94909 0.33435,-17.94909 -1.60515,-31.84006 -1.0658,-21.2895 0.75361,-23.66125 -68.67473,-29.96716 -26.93242,-9.83248 -27.55775,-10.06076 z"
         id="path5" /><path
         style="fill:#9bb19b;fill-opacity:1;stroke:#000000;stroke-width:3;stroke-linejoin:round;stroke-dasharray:none"
         d="m 1180.3343,711.71992 2.0642,19.33433 -0.8829,24.72164 -10e-5,31.29166 v 25.21493 l -35.3167,4.41458 -48.5603,13.24377 -84.7599,22.95579 c 0,0 -59.15532,25.60456 -62.68699,25.60456 -3.53166,0 -65.78282,24.5715 -65.78282,24.5715 l 0.66869,-35.89818 -1.60515,-31.84006 -1.0658,-21.2895 0.75365,-23.66125 73.66927,-26.22123 33.71301,-9.98907 33.71304,-9.98906 77.4151,-16.2322 z"
         id="path6" /><ellipse
         style="fill:none;fill-opacity:1;stroke:#000000;stroke-width:3.52965;stroke-linejoin:round;stroke-dasharray:none"
         id="ellipse6"
         transform="matrix(1,0,0.30148327,0.95347147,0,0)"
         ry="28.34193"
         rx="58.597771"
         cy="750.68378"
         cx="733.8653" /><path
         style="fill:none;fill-opacity:1;stroke:#000000;stroke-width:3;stroke-linejoin:round;stroke-dasharray:none"
         d="m 734.11145,742.06382 72.84053,27.81181 60.4797,26.04605"
         id="path7" /><path
         style="fill:none;fill-opacity:1;stroke:#000000;stroke-width:3;stroke-linejoin:round;stroke-dasharray:none"
         d="M 881.57924,816.09951 737.31052,758.95364"
         id="path8" /><path
         style="fill:none;fill-opacity:1;stroke:#000000;stroke-width:3;stroke-linejoin:round;stroke-dasharray:none"
         d="m 881.41291,804.80459 100.56366,-31.78496 53.85783,-16.7754 c 0,0 63.57,-13.24369 67.9846,-14.12662 4.4145,-0.8829 65.3357,-12.36084 65.3357,-12.36084"
         id="path9" /><path
         style="fill:none;fill-opacity:1;stroke:#000000;stroke-width:3;stroke-linejoin:round;stroke-dasharray:none"
         d="m 734.76019,776.96587 29.76051,11.95075 c 49.48955,19.58929 36.29971,13.58933 48.15027,18.54123 l 59.82407,22.48294"
         id="path10" /><path
         style="fill:none;fill-opacity:1;stroke:#000000;stroke-width:3;stroke-linejoin:round;stroke-dasharray:none"
         d="m 883.47233,835.33444 86.40204,-27.95433 43.00423,-12.46795 c 11.1335,-3.53166 23.5955,-7.06333 37.0825,-10.59499 l 43.2629,-9.71207 26.4874,-6.1804 37.9654,-7.06332 22.9558,-4.41459"
         id="path11" /><path
         style="fill:none;fill-opacity:1;stroke:#000000;stroke-width:3;stroke-linejoin:round;stroke-dasharray:none"
         d="m 884.2749,851.25447 -49.30381,-19.10636 -48.1189,-18.09982 -35.31663,-14.12659 -17.65829,-6.18047"
         id="path12" /><path
         style="fill:none;fill-opacity:1;stroke:#000000;stroke-width:3;stroke-linejoin:round;stroke-dasharray:none"
         d="m 884.9103,870.85156 34.37928,-11.72073 39.7312,-14.12664 35.31662,-10.59498 70.6332,-22.95582 c 0,0 56.5067,-12.36082 60.9213,-14.12666 4.4146,-1.76583 53.8578,-12.36076 53.8578,-12.36076"
         id="path13" /><path
         style="fill:none;fill-opacity:1;stroke:#000000;stroke-width:3;stroke-linejoin:round;stroke-dasharray:none"
         d="m 733.26164,811.7619 51.82472,19.06182 50.3262,20.30705 50.69791,19.70674"
         id="path14" /><path
         style="fill:none;fill-opacity:1;stroke:#000000;stroke-width:3;stroke-linejoin:round;stroke-dasharray:none"
         d="m 883.4723,886.21618 c 0,0 -65.71805,-27.13917 -70.13262,-28.02206 -4.4146,-0.88294 -40.61412,-15.00957 -46.79455,-17.65833 -6.1804,-2.64873 -25.39036,-8.98064 -25.39036,-8.98064"
         id="path15" /><path
         style="fill:none;fill-opacity:1;stroke:#000000;stroke-width:3;stroke-linejoin:round;stroke-dasharray:none"
         d="m 885.18459,887.35779 95.02615,-33.99281 73.28196,-22.9558 47.6775,-14.12664 44.1457,-10.18047 35.7582,-7.30997"
         id="path16" /><path
         style="fill:none;fill-opacity:1;stroke:#000000;stroke-width:3;stroke-linejoin:round;stroke-dasharray:none"
         d="m 1179.7497,773.488 -45.9116,7.94627 -43.2629,9.71207 -35.3166,7.06333 -68.86743,21.18994 -47.67741,17.65833 -40.6142,14.12663"
         id="path17" /><path
         style="fill:none;fill-opacity:1;stroke:#000000;stroke-width:3;stroke-linejoin:round;stroke-dasharray:none"
         d="m 1183.2814,743.23468 -59.1553,9.7121 -50.3263,9.71207 -59.1554,16.77539 -48.56033,13.24373 -77.6338,25.90749"
         id="path18" /><ellipse
         style="fill:none;fill-opacity:1;stroke:#000000;stroke-width:3.04732;stroke-linejoin:round;stroke-dasharray:none"
         id="ellipse18"
         cx="506.19968"
         cy="907.52899"
         rx="19.916523"
         ry="15.419172"
         transform="matrix(0.98480775,-0.17364817,0.41089084,0.91168455,0,0)" /><path
         style="fill:none;fill-opacity:1;stroke:#000000;stroke-width:3;stroke-linejoin:round;stroke-dasharray:none"
         d="m 874.41972,707.34973 -87.40422,22.47534 4.99457,11.23767 74.91787,29.96716 30.27013,0.77578 85.78983,-24.24117 138.6608,-35.84459 -2.0244,-12.85205 -90.1784,-29.96716 -21.9582,0.25852 -54.8954,15.71501 z"
         id="path19" /><ellipse
         style="mix-blend-mode:normal;fill:none;fill-opacity:1;stroke:#000000;stroke-width:2.70513;stroke-linejoin:round;stroke-dasharray:none"
         id="ellipse19"
         cx="679.38672"
         cy="889.88422"
         rx="17.680025"
         ry="13.687699"
         transform="matrix(0.98480775,-0.17364817,0.41089084,0.91168455,0,0)" /><path
         style="fill:#ffffe8;fill-opacity:1;stroke:#000000;stroke-width:3;stroke-linejoin:round;stroke-dasharray:none"
         d="m 861.90007,699.26925 6.18036,-8.09771 60.03829,-17.50685 37.96539,16.77544 56.50659,27.37039 27.3704,13.24369 -0.883,15.89254 -0.6243,84.95573 -2.283,18.13115 -46.34004,17.97966 -10.60418,-2.33658 6.87666,-4.83382 v -73.28206 l -1.76584,-37.08246 -59.15535,-31.78495 c 0,0 -36.19956,-17.6583 -44.14579,-19.42413 -7.94623,-1.76583 -29.13619,-4e-5 -29.13619,-4e-5 z"
         id="path20" /><path
         style="display:inline;fill:#a1a16e;fill-opacity:1;stroke:none;stroke-width:3;stroke-linejoin:round;stroke-dasharray:none"
         d="m 942.58826,688.99022 c 0,0 -10.62867,-6.31544 -16.49079,-8.07552 -4.7398,-1.42315 -14.725,-1.89513 -14.725,-1.89513 l 16.74625,-5.35488 37.96539,16.77544 56.50659,27.37039 27.3704,13.24369 -0.883,15.89254 -0.6243,84.95573 -2.283,18.13115 -9.9285,4.38323 1.4315,-18.02094 0.7313,-44.31561 0.078,-28.26519 0.9018,-12.80523 c 0,0 1.6115,-10.11243 -0.864,-14.12961 -1.6895,-2.74179 -8.3491,-4.86199 -8.3491,-4.86199 0,0 6.3126,2.53762 -7.7013,-4.22388 -14.0139,-6.76162 -40.81588,-19.35848 -44.45885,-21.17182 z"
         id="path21" /><path
         style="fill:#a1a16e;fill-opacity:1;stroke:none;stroke-width:3;stroke-linejoin:round;stroke-dasharray:none"
         d="m 861.90007,699.26925 6.18036,-8.09771 8.22006,-2.52329 c 0,0 14.89822,1.0656 22.02319,3.11626 15.55987,4.47832 44.35465,19.80283 44.35465,19.80283 l 43.9683,23.54495 c 0,0 13.47937,6.08659 17.03937,12.06701 2.4215,4.06768 1.6902,14.1007 1.6902,14.1007 l 1.2486,29.99316 v 59.03206 l -1.11,14.90786 -5.2424,2.35876 -11.04564,-1.89513 6.87667,-4.83382 v -73.28206 l -1.76584,-37.08246 -59.15535,-31.78495 c 0,0 -36.19956,-17.6583 -44.14579,-19.42413 -7.94623,-1.76583 -29.13619,-4e-5 -29.13619,-4e-5 z"
         id="path22" /><path
         style="fill:none;fill-opacity:1;stroke:#000000;stroke-width:3;stroke-linejoin:round;stroke-dasharray:none;stroke-opacity:1"
         d="m 861.90007,699.26925 6.18036,-8.09771 60.03829,-17.50685 37.96539,16.77544 56.50659,27.37039 27.3704,13.24369 -0.883,15.89254 -0.6243,84.95573 -2.283,18.13115 -46.34004,17.97966 -10.60418,-2.33658 6.87666,-4.83382 v -73.28206 l -1.76584,-37.08246 -59.15535,-31.78495 c 0,0 -36.19956,-17.6583 -44.14579,-19.42413 -7.94623,-1.76583 -29.13619,-4e-5 -29.13619,-4e-5 z"
         id="path23" /></g></g></svg>
