<?xml version="1.0" encoding="UTF-8"?>
<svg width="1261.4" height="694.94" version="1.1" viewBox="0 0 1261.4 694.94" xml:space="preserve" xmlns="http://www.w3.org/2000/svg"><g transform="translate(-329.29 -192.53)"><g transform="matrix(2.7876 0 0 2.7876 -1709.6 -1634.2)"><path d="m735.82 731.7 78.664 28.719 68.675 29.967 73.669-26.221 67.426-19.978 77.415-16.232 78.664-16.232-58.686-21.227-103.64-33.713-152.88 42.756s-25.954 6.7967-48.697 12.638c-25.95 6.6649-80.618 19.524-80.618 19.524z" fill="#81a381" stroke="#000" stroke-linejoin="round" stroke-width="3"/><path d="m735.82 731.7-0.27697 28.139-2.3274 24.714 0.0443 26.328-0.36572 32.25 31.644 12.183 38.395 16.544 38.708 13.111 42.766 18.105 0.33434-17.949 0.33435-17.949-1.6052-31.84-1.0658-21.29 0.75361-23.661-68.675-29.967-54.49-19.893z" fill="#b3ccb3" stroke="#000" stroke-linejoin="round" stroke-width="3"/><path d="m1180.3 711.72 2.0642 19.334-0.8829 24.722-1e-4 31.292v25.215l-35.317 4.4146-48.56 13.244-84.76 22.956s-59.155 25.605-62.687 25.605c-3.5317 0-65.783 24.572-65.783 24.572l0.66869-35.898-1.6052-31.84-1.0658-21.29 0.75365-23.661 73.669-26.221 67.426-19.978 77.415-16.232z" fill="#9bb19b" stroke="#000" stroke-linejoin="round" stroke-width="3"/><ellipse transform="matrix(1 0 .30148 .95347 0 0)" cx="733.87" cy="750.68" rx="58.598" ry="28.342" fill="none" stroke="#000" stroke-linejoin="round" stroke-width="3.5296"/><path d="m734.11 742.06 72.841 27.812 60.48 26.046" fill="none" stroke="#000" stroke-linejoin="round" stroke-width="3"/><path d="m881.58 816.1-144.27-57.146" fill="none" stroke="#000" stroke-linejoin="round" stroke-width="3"/><path d="m881.41 804.8 100.56-31.785 53.858-16.775s63.57-13.244 67.985-14.127c4.4145-0.8829 65.336-12.361 65.336-12.361" fill="none" stroke="#000" stroke-linejoin="round" stroke-width="3"/><path d="m734.76 776.97 29.761 11.951c49.49 19.589 36.3 13.589 48.15 18.541l59.824 22.483" fill="none" stroke="#000" stroke-linejoin="round" stroke-width="3"/><path d="m883.47 835.33 86.402-27.954 43.004-12.468c11.134-3.5317 23.596-7.0633 37.082-10.595l43.263-9.7121 26.487-6.1804 37.965-7.0633 22.956-4.4146" fill="none" stroke="#000" stroke-linejoin="round" stroke-width="3"/><path d="m884.27 851.25-49.304-19.106-48.119-18.1-35.317-14.127-17.658-6.1805" fill="none" stroke="#000" stroke-linejoin="round" stroke-width="3"/><path d="m884.91 870.85 34.379-11.721 39.731-14.127 35.317-10.595 70.633-22.956s56.507-12.361 60.921-14.127c4.4146-1.7658 53.858-12.361 53.858-12.361" fill="none" stroke="#000" stroke-linejoin="round" stroke-width="3"/><path d="m733.26 811.76 51.825 19.062 50.326 20.307 50.698 19.707" fill="none" stroke="#000" stroke-linejoin="round" stroke-width="3"/><path d="m883.47 886.22s-65.718-27.139-70.133-28.022c-4.4146-0.88294-40.614-15.01-46.795-17.658-6.1804-2.6487-25.39-8.9806-25.39-8.9806" fill="none" stroke="#000" stroke-linejoin="round" stroke-width="3"/><path d="m885.18 887.36 95.026-33.993 73.282-22.956 47.678-14.127 44.146-10.18 35.758-7.31" fill="none" stroke="#000" stroke-linejoin="round" stroke-width="3"/><path d="m1179.7 773.49-45.912 7.9463-43.263 9.7121-35.317 7.0633-68.867 21.19-47.677 17.658-40.614 14.127" fill="none" stroke="#000" stroke-linejoin="round" stroke-width="3"/><path d="m1183.3 743.23-59.155 9.7121-50.326 9.7121-59.155 16.775-48.56 13.244-77.634 25.907" fill="none" stroke="#000" stroke-linejoin="round" stroke-width="3"/><ellipse transform="matrix(.98481 -.17365 .41089 .91168 0 0)" cx="506.2" cy="907.53" rx="19.917" ry="15.419" fill="none" stroke="#000" stroke-linejoin="round" stroke-width="3.0473"/><path d="m874.42 707.35-87.404 22.475 4.9946 11.238 74.918 29.967 30.27 0.77578 85.79-24.241 138.66-35.845-2.0244-12.852-90.178-29.967-21.958 0.25852-54.895 15.715z" fill="none" stroke="#000" stroke-linejoin="round" stroke-width="3"/><ellipse transform="matrix(.98481 -.17365 .41089 .91168 0 0)" cx="679.39" cy="889.88" rx="17.68" ry="13.688" fill="none" stroke="#000" stroke-linejoin="round" stroke-width="2.7051" style="mix-blend-mode:normal"/><path d="m861.9 699.27 6.1804-8.0977 60.038-17.507 37.965 16.775 56.507 27.37 27.37 13.244-0.883 15.893-0.6243 84.956-2.283 18.131-46.34 17.98-10.604-2.3366 6.8767-4.8338v-73.282l-1.7658-37.082-59.155-31.785s-36.2-17.658-44.146-19.424-29.136-4e-5 -29.136-4e-5z" fill="#ffffe8" stroke="#000" stroke-linejoin="round" stroke-width="3"/><path d="m942.59 688.99s-10.629-6.3154-16.491-8.0755c-4.7398-1.4232-14.725-1.8951-14.725-1.8951l16.746-5.3549 37.965 16.775 56.507 27.37 27.37 13.244-0.883 15.893-0.6243 84.956-2.283 18.131-9.9285 4.3832 1.4315-18.021 0.7313-44.316 0.078-28.265 0.9018-12.805s1.6115-10.112-0.864-14.13c-1.6895-2.7418-8.3491-4.862-8.3491-4.862s6.3126 2.5376-7.7013-4.2239c-14.014-6.7616-40.816-19.358-44.459-21.172z" fill="#a1a16e"/><path d="m861.9 699.27 6.1804-8.0977 8.2201-2.5233s14.898 1.0656 22.023 3.1163c15.56 4.4783 44.355 19.803 44.355 19.803l43.968 23.545s13.479 6.0866 17.039 12.067c2.4215 4.0677 1.6902 14.101 1.6902 14.101l1.2486 29.993v59.032l-1.11 14.908-5.2424 2.3588-11.046-1.8951 6.8767-4.8338v-73.282l-1.7658-37.082-59.155-31.785s-36.2-17.658-44.146-19.424-29.136-4e-5 -29.136-4e-5z" fill="#a1a16e"/><path d="m861.9 699.27 6.1804-8.0977 60.038-17.507 37.965 16.775 56.507 27.37 27.37 13.244-0.883 15.893-0.6243 84.956-2.283 18.131-46.34 17.98-10.604-2.3366 6.8767-4.8338v-73.282l-1.7658-37.082-59.155-31.785s-36.2-17.658-44.146-19.424-29.136-4e-5 -29.136-4e-5z" fill="none" stroke="#000" stroke-linejoin="round" stroke-width="3"/></g></g></svg>
