<?xml version="1.0" encoding="UTF-8"?>
<svg width="1920" height="1080" version="1.1" viewBox="0 0 1920 1080" xml:space="preserve" xmlns="http://www.w3.org/2000/svg"><rect x="335.01" y="65.804" width="1250" height="948.39" ry="3.8766" fill="#3a3f47"/><path d="m335.01 1014.2v-948.39h1250v948.39z" fill="none" stroke="#000" stroke-linejoin="round" stroke-width="3"/><g transform="matrix(4.9909 0 0 4.9909 473.84 -26.949)"><path d="m-1.4638 39.693h197.74v147.81h-197.74z" fill="#3a3f47" stroke="#000" stroke-width=".60109"/></g><g transform="translate(150.21 -110.64)"><path transform="matrix(10.264 0 0 10.264 -183.72 -484.24)" d="m96.798 97.541-1.0014-1.7344h1.0014 1.0014l-0.50069 0.86721z" fill="#ededed" stroke="#000" stroke-width=".25"/></g><g><path d="m1466.4 348.49v388.88h-25.922v-388.88l0.025-0.6607c7.7421-9.3844 22.303-3.959 25.922 0z" fill="#52555a" stroke="#000" stroke-linejoin="round" stroke-width="3"/><path d="m1464 348.96v382.74l-5.6188-2.4772 0.9365-383.97z" fill="#2b2b2f" fill-opacity=".71316"/><path d="m1440.5 445.21c7.7422-9.3844 22.303-3.959 25.922 0" fill="none" stroke="#000" stroke-linejoin="round" stroke-width="3"/><path d="m1440.5 542.6c7.7422-9.3844 22.303-3.959 25.922 0" fill="none" stroke="#000" stroke-linejoin="round" stroke-width="3"/><path d="m1440.5 639.98c7.7422-9.3844 22.303-3.959 25.922 0" fill="none" stroke="#000" stroke-linejoin="round" stroke-width="3"/><path d="m1440.5 737.37c7.7422-9.3844 22.303-3.959 25.922 0" fill="none" stroke="#000" stroke-linejoin="round" stroke-width="3"/></g></svg>
