<?xml version="1.0" encoding="UTF-8"?>
<svg width="250" height="250" version="1.1" viewBox="0 0 250 250" xml:space="preserve" xmlns="http://www.w3.org/2000/svg"><g transform="translate(-835,-415)"><g transform="matrix(7.1044 0 0 7.1044 267.97 -267.03)"><circle cx="97.409" cy="113.6" r="17.595" fill="#4a4f56"/><path d="m95.459 128.74-0.27602 2.144" fill="none" stroke="#d9d9d9" stroke-width=".5"/><path d="m99.634 96.312-0.27469 2.1338" fill="none" stroke="#d9d9d9" stroke-width=".5"/><path d="m93.58 128.36-0.54561 2.1043" fill="none" stroke="#d9d9d9" stroke-width=".5"/><path d="m101.78 96.727-0.53957 2.081" fill="none" stroke="#d9d9d9" stroke-width=".5"/><path d="m91.763 127.76-0.80821 2.0273" fill="none" stroke="#d9d9d9" stroke-width=".5"/><path d="m103.86 97.409-0.79645 1.9978" fill="none" stroke="#d9d9d9" stroke-width=".5"/><path d="m90.034 126.93-1.0575 1.9129" fill="none" stroke="#d9d9d9" stroke-width=".5"/><path d="m105.84 98.345-1.0408 1.8826" fill="none" stroke="#d9d9d9" stroke-width=".5"/><path d="m86.945 124.69-1.4957 1.5852" fill="none" stroke="#d9d9d9" stroke-width=".5"/><path d="m109.37 100.92-1.4764 1.5648" fill="none" stroke="#d9d9d9" stroke-width=".5"/><path d="m85.63 123.29-1.6753 1.3793" fill="none" stroke="#d9d9d9" stroke-width=".5"/><path d="m110.86 102.52-1.6583 1.3653" fill="none" stroke="#d9d9d9" stroke-width=".5"/><path d="m84.495 121.75-1.8227 1.1507" fill="none" stroke="#d9d9d9" stroke-width=".5"/><path d="m112.14 104.29-1.8196 1.1487" fill="none" stroke="#d9d9d9" stroke-width=".5"/><path d="m83.576 120.07-1.9534 0.91354" fill="none" stroke="#d9d9d9" stroke-width=".5"/><path d="m113.19 106.21-1.9467 0.91041" fill="none" stroke="#d9d9d9" stroke-width=".5"/><path d="m82.425 116.42-2.1425 0.40345" fill="none" stroke="#d9d9d9" stroke-width=".5"/><path d="m114.53 110.37-2.113 0.3979" fill="none" stroke="#d9d9d9" stroke-width=".5"/><path d="m82.195 114.52-2.1813 0.13204" fill="none" stroke="#d9d9d9" stroke-width=".5"/><path d="m114.8 112.54-2.1461 0.12992" fill="none" stroke="#d9d9d9" stroke-width=".5"/><path d="m82.2 112.6-2.1813-0.14243" fill="none" stroke="#d9d9d9" stroke-width=".5"/><path d="m114.8 114.73-2.1808-0.14239" fill="none" stroke="#d9d9d9" stroke-width=".5"/><path d="m82.441 110.7-2.1425-0.41397" fill="none" stroke="#d9d9d9" stroke-width=".5"/><path d="m114.52 116.9-2.1425-0.41396" fill="none" stroke="#d9d9d9" stroke-width=".5"/><path d="m83.611 107.06-1.9528-0.92459" fill="none" stroke="#d9d9d9" stroke-width=".5"/><path d="m113.16 121.05-1.9528-0.92459" fill="none" stroke="#d9d9d9" stroke-width=".5"/><path d="m84.53 105.38-1.8132-1.1567" fill="none" stroke="#d9d9d9" stroke-width=".5"/><path d="m112.1 122.97-1.8132-1.1567" fill="none" stroke="#d9d9d9" stroke-width=".5"/><path d="m85.673 103.84-1.666-1.3849" fill="none" stroke="#d9d9d9" stroke-width=".5"/><path d="m110.81 124.74-1.666-1.3849" fill="none" stroke="#d9d9d9" stroke-width=".5"/><path d="m86.996 102.46-1.4869-1.5909" fill="none" stroke="#d9d9d9" stroke-width=".5"/><path d="m109.31 126.33-1.4867-1.5907" fill="none" stroke="#d9d9d9" stroke-width=".5"/><path d="m90.098 100.22-1.0486-1.9182" fill="none" stroke="#d9d9d9" stroke-width=".5"/><path d="m105.77 128.89-1.0486-1.9182" fill="none" stroke="#d9d9d9" stroke-width=".5"/><path d="m91.831 99.411-0.7991-2.0324" fill="none" stroke="#d9d9d9" stroke-width=".5"/><path d="m103.79 129.81-0.7991-2.0324" fill="none" stroke="#d9d9d9" stroke-width=".5"/><path d="m93.651 98.817-0.53641-2.1099" fill="none" stroke="#d9d9d9" stroke-width=".5"/><path d="m101.7 130.49-0.53641-2.1099" fill="none" stroke="#d9d9d9" stroke-width=".5"/><path d="m95.532 98.451-0.26627-2.1487" fill="none" stroke="#d9d9d9" stroke-width=".5"/><path d="m99.552 130.89-0.26634-2.1492" fill="none" stroke="#d9d9d9" stroke-width=".5"/><path d="m97.376 127.39-0.0086 3.6287" fill="none" stroke="#d9d9d9" stroke-width=".5"/><path d="m97.45 96.17-0.0086 3.6267" fill="none" stroke="#d9d9d9" stroke-width=".5"/><path d="m89.29 124.71-2.1584 2.956" fill="none" stroke="#d9d9d9" stroke-width=".5"/><path d="m107.69 99.522-2.1398 2.9306" fill="none" stroke="#d9d9d9" stroke-width=".5"/><path d="m84.293 117.82-3.4711 1.1188" fill="none" stroke="#d9d9d9" stroke-width=".5"/><path d="m114 108.25-3.454 1.1132" fill="none" stroke="#d9d9d9" stroke-width=".5"/><path d="m89.342 102.44-2.1436-2.9652" fill="none" stroke="#d9d9d9" stroke-width=".5"/><path d="m107.62 127.72-2.1436-2.9652" fill="none" stroke="#d9d9d9" stroke-width=".5"/><path d="m84.316 109.31-3.4684-1.1361" fill="none" stroke="#d9d9d9" stroke-width=".5"/><path d="m113.97 119.02-3.4684-1.136" fill="none" stroke="#d9d9d9" stroke-width=".5"/><path d="m114.75 113.6a17.345 17.345 0 0 1-17.345 17.345 17.345 17.345 0 0 1-17.345-17.345 17.345 17.345 0 0 1 17.345-17.345 17.345 17.345 0 0 1 17.345 17.345z" fill="none" stroke="#000" stroke-width=".5"/></g><path d="m1027.5 540c0 37.263-30.207 67.47-67.47 67.47-37.262 0-67.47-30.207-67.47-67.47-2e-5 -37.262 30.207-67.47 67.47-67.47 37.263 0 67.47 30.207 67.47 67.47z" fill="#4a4f56" stroke="#000" stroke-width="2.0606"/><path d="m1011.5 540a51.473 51.473 0 0 1-51.473 51.473 51.473 51.473 0 0 1-51.473-51.473 51.473 51.473 0 0 1 51.473-51.473 51.473 51.473 0 0 1 51.473 51.473z" fill="none" stroke="#000" stroke-width="2.054"/><g transform="matrix(7.1044 0 0 7.1044 781.8 398.78)"><g transform="translate(.040155 .023044)" fill="#808080" stroke="#000" stroke-width=".24222"><path d="m34.475 19.855-2.1694 3.12e-4"/><path d="m34.449 20.56-2.1634-0.16183"/><path d="m34.37 21.261-2.1452-0.32306"/><path d="m34.239 21.954-2.1151-0.48249"/><path d="m34.056 22.636-2.0731-0.63922"/><path d="m33.823 23.302-2.0195-0.79237"/><path d="m33.541 23.948-1.9547-0.94108"/><path d="m33.212 24.572-1.8789-1.0845"/><path d="m32.836 25.169-1.7926-1.2219"/><path d="m32.418 25.737-1.6962-1.3525"/><path d="m31.957 26.271-1.5904-1.4754"/><path d="m31.459 26.77-1.4757-1.5902"/><path d="m30.924 27.23-1.3528-1.696"/><path d="m30.357 27.649-1.2222-1.7923"/><path d="m29.759 28.025-1.0849-1.8787"/><path d="m29.136 28.354-0.94147-1.9545"/><path d="m28.489 28.636-0.79279-2.0194"/><path d="m27.824 28.869-0.63968-2.073"/><path d="m27.142 29.052-0.48299-2.115"/><path d="m26.449 29.183-0.32361-2.1451"/><path d="m25.748 29.262-0.16241-2.1633"/><path d="m25.043 29.288-3.14e-4 -2.1694"/><path d="m24.339 29.262 0.16179-2.1634"/><path d="m23.638 29.183 0.32299-2.1452"/><path d="m22.945 29.052 0.48238-2.1151"/><path d="m22.263 28.869 0.63908-2.0731"/><path d="m21.598 28.636 0.7922-2.0196"/><path d="m20.951 28.354 0.9409-1.9548"/><path d="m20.327 28.025 1.0843-1.879"/><path d="m19.73 27.649 1.2217-1.7927"/><path d="m19.163 27.231 1.3523-1.6964"/><path d="m18.628 26.77 1.4753-1.5906"/><path d="m18.129 26.272 1.59-1.4759"/><path d="m17.669 25.737 1.6958-1.353"/><path d="m17.25 25.169 1.7922-1.2224"/><path d="m16.875 24.572 1.8786-1.0851"/><path d="m16.545 23.948 1.9544-0.94164"/><path d="m16.263 23.302 2.0193-0.79295"/><path d="m16.03 22.636 2.0729-0.63981"/><path d="m15.848 21.955 2.1149-0.4831"/><path d="m15.717 21.262 2.1451-0.32368"/><path d="m15.638 20.561 2.1633-0.16245"/><path d="m15.611 19.856 2.1694-3.12e-4"/><path d="m15.638 19.151 2.1634 0.16183"/><path d="m15.717 18.45 2.1452 0.32306"/><path d="m15.848 17.757 2.1151 0.48249"/><path d="m16.03 17.075 2.0731 0.63922"/><path d="m16.263 16.409 2.0195 0.79236"/><path d="m16.545 15.763 1.9547 0.94108"/><path d="m16.875 15.139 1.8789 1.0845"/><path d="m17.25 14.542 1.7926 1.2219"/><path d="m17.669 13.974 1.6962 1.3525"/><path d="m18.129 13.439 1.5904 1.4754"/><path d="m18.628 12.941 1.4757 1.5902"/><path d="m19.162 12.481 1.3528 1.696"/><path d="m19.73 12.062 1.2222 1.7923"/><path d="m20.327 11.686 1.0849 1.8787"/><path d="m20.951 11.357 0.94147 1.9545"/><path d="m21.597 11.075 0.79279 2.0194"/><path d="m22.263 10.842 0.63968 2.073"/><path d="m22.944 10.659 0.48299 2.115"/><path d="m23.637 10.528 0.32361 2.1451"/><path d="m24.338 10.449 0.16241 2.1633"/><path d="m25.043 10.423 3.14e-4 2.1694"/><path d="m25.748 10.449-0.16179 2.1634"/><path d="m26.449 10.528-0.32299 2.1452"/><path d="m27.142 10.659-0.48238 2.1151"/><path d="m27.823 10.842-0.63908 2.0731"/><path d="m28.489 11.074-0.7922 2.0196"/><path d="m29.135 11.357-0.9409 1.9548"/><path d="m29.759 11.686-1.0843 1.879"/><path d="m30.356 12.061-1.2217 1.7927"/><path d="m30.924 12.48-1.3523 1.6964"/><path d="m31.458 12.94-1.4753 1.5906"/><path d="m31.957 13.439-1.59 1.4759"/><path d="m32.417 13.974-1.6958 1.353"/><path d="m32.836 14.541-1.7922 1.2224"/><path d="m33.211 15.139-1.8786 1.0851"/><path d="m33.541 15.762-1.9544 0.94164"/><path d="m33.823 16.409-2.0193 0.79295"/><path d="m34.056 17.075-2.0729 0.63981"/><path d="m34.239 17.756-2.1149 0.4831"/><path d="m34.37 18.449-2.1451 0.32368"/><path d="m34.449 19.15-2.1633 0.16245"/></g></g></g><g transform="matrix(7.1044 0 0 7.1044 -566.82 -681.13)" fill="#e3e3e3" stroke="#313131" stroke-width=".37795"><path transform="matrix(.081761 .25163 -.25163 .081761 176.25 -13.683)" d="m364.08 390.53h-4.7226v-0.89063h1.8164v-5.8476h-1.8164v-0.79688q0.36914 0 0.79101-0.0586 0.42188-0.0645 0.63868-0.18164 0.26953-0.14649 0.42187-0.36914 0.1582-0.22852 0.18164-0.60938h0.9082v7.8633h1.7812zm8.1152-4.3652q0 2.3496-0.73828 3.4512-0.73242 1.0957-2.2793 1.0957-1.5703 0-2.2969-1.1133-0.72071-1.1133-0.72071-3.4219 0-2.3262 0.73242-3.4336 0.73243-1.1133 2.2852-1.1133 1.5703 0 2.291 1.1309 0.72656 1.125 0.72656 3.4043zm-1.541 2.6602q0.20508-0.47461 0.27539-1.1133 0.0762-0.64453 0.0762-1.5469 0-0.89062-0.0762-1.5469-0.0703-0.65625-0.28125-1.1133-0.20507-0.45117-0.5625-0.67969-0.35156-0.22852-0.9082-0.22852-0.55078 0-0.91406 0.22852-0.35742 0.22852-0.56836 0.69141-0.19922 0.43359-0.27539 1.1309-0.0703 0.69726-0.0703 1.5293 0 0.91407 0.0645 1.5293 0.0644 0.61523 0.27539 1.1016 0.19336 0.45703 0.54492 0.69727 0.35742 0.24023 0.94336 0.24023 0.55078 0 0.91406-0.22851 0.36328-0.22852 0.5625-0.69141z" style="white-space:pre" aria-label="10"/><path transform="matrix(.21405 .15552 -.15552 .21405 86.573 -35.778)" d="m364.57 386.17q0 2.3496-0.73828 3.4512-0.73242 1.0957-2.2793 1.0957-1.5703 0-2.2969-1.1133-0.7207-1.1133-0.7207-3.4219 0-2.3262 0.73242-3.4336 0.73242-1.1133 2.2852-1.1133 1.5703 0 2.291 1.1309 0.72656 1.125 0.72656 3.4043zm-1.541 2.6602q0.20507-0.47461 0.27539-1.1133 0.0762-0.64453 0.0762-1.5469 0-0.89062-0.0762-1.5469-0.0703-0.65625-0.28125-1.1133-0.20508-0.45117-0.5625-0.67969-0.35157-0.22852-0.90821-0.22852-0.55078 0-0.91406 0.22852-0.35742 0.22852-0.56836 0.69141-0.19922 0.43359-0.27539 1.1309-0.0703 0.69726-0.0703 1.5293 0 0.91407 0.0645 1.5293t0.27539 1.1016q0.19336 0.45703 0.54492 0.69727 0.35743 0.24023 0.94336 0.24023 0.55079 0 0.91407-0.22851 0.36328-0.22852 0.5625-0.69141zm9.1113-1.0664q0 0.60938-0.22265 1.166-0.22266 0.55664-0.60938 0.9375-0.42187 0.41016-1.0078 0.63281-0.58008 0.2168-1.3477 0.2168-0.71484 0-1.377-0.15234-0.66211-0.14649-1.1191-0.35743v-1.2363h0.082q0.48047 0.30468 1.125 0.52148 0.64453 0.21094 1.2656 0.21094 0.41601 0 0.80273-0.11719 0.39258-0.11719 0.69727-0.41016 0.25781-0.25195 0.38672-0.60351 0.13476-0.35156 0.13476-0.81446 0-0.45117-0.1582-0.76171-0.15235-0.31055-0.42774-0.49805-0.30468-0.22266-0.74414-0.31055-0.43359-0.0937-0.97265-0.0937-0.51563 0-0.9961 0.0703-0.47461 0.0703-0.82031 0.14063v-4.4941h5.25v1.0254h-4.1191v2.3203q0.25195-0.0234 0.51563-0.0351 0.26367-0.0117 0.45703-0.0117 0.70898 0 1.2422 0.12304 0.53321 0.11719 0.97852 0.42188 0.46875 0.32226 0.72656 0.83203t0.25781 1.2773z" style="white-space:pre" aria-label="05"/><path transform="matrix(.26458 0 0 .26458 .77544 -.82592)" d="m364.57 386.17q0 2.3496-0.73828 3.4512-0.73242 1.0957-2.2793 1.0957-1.5703 0-2.2969-1.1133-0.7207-1.1133-0.7207-3.4219 0-2.3262 0.73242-3.4336 0.73242-1.1133 2.2852-1.1133 1.5703 0 2.291 1.1309 0.72656 1.125 0.72656 3.4043zm-1.541 2.6602q0.20507-0.47461 0.27539-1.1133 0.0762-0.64453 0.0762-1.5469 0-0.89062-0.0762-1.5469-0.0703-0.65625-0.28125-1.1133-0.20508-0.45117-0.5625-0.67969-0.35157-0.22852-0.90821-0.22852-0.55078 0-0.91406 0.22852-0.35742 0.22852-0.56836 0.69141-0.19922 0.43359-0.27539 1.1309-0.0703 0.69726-0.0703 1.5293 0 0.91407 0.0645 1.5293t0.27539 1.1016q0.19336 0.45703 0.54492 0.69727 0.35743 0.24023 0.94336 0.24023 0.55079 0 0.91407-0.22851 0.36328-0.22852 0.5625-0.69141zm9.1699-2.6602q0 2.3496-0.73828 3.4512-0.73242 1.0957-2.2793 1.0957-1.5703 0-2.2969-1.1133-0.72071-1.1133-0.72071-3.4219 0-2.3262 0.73242-3.4336 0.73243-1.1133 2.2852-1.1133 1.5703 0 2.291 1.1309 0.72656 1.125 0.72656 3.4043zm-1.541 2.6602q0.20508-0.47461 0.27539-1.1133 0.0762-0.64453 0.0762-1.5469 0-0.89062-0.0762-1.5469-0.0703-0.65625-0.28125-1.1133-0.20507-0.45117-0.5625-0.67969-0.35156-0.22852-0.9082-0.22852-0.55078 0-0.91406 0.22852-0.35742 0.22852-0.56836 0.69141-0.19922 0.43359-0.27539 1.1309-0.0703 0.69726-0.0703 1.5293 0 0.91407 0.0645 1.5293 0.0644 0.61523 0.27539 1.1016 0.19336 0.45703 0.54492 0.69727 0.35742 0.24023 0.94336 0.24023 0.55078 0 0.91406-0.22851 0.36328-0.22852 0.5625-0.69141z" style="white-space:pre" aria-label="00"/><path transform="matrix(-.081761 .25163 -.25163 -.081761 235.91 56.968)" d="m364.08 390.53h-4.7226v-0.89063h1.8164v-5.8476h-1.8164v-0.79688q0.36914 0 0.79101-0.0586 0.42188-0.0645 0.63868-0.18164 0.26953-0.14649 0.42187-0.36914 0.1582-0.22852 0.18164-0.60938h0.9082v7.8633h1.7812zm8.0566-2.7715q0 0.60938-0.22265 1.166-0.22266 0.55664-0.60938 0.9375-0.42187 0.41016-1.0078 0.63281-0.58008 0.2168-1.3477 0.2168-0.71484 0-1.377-0.15234-0.66211-0.14649-1.1191-0.35743v-1.2363h0.082q0.48047 0.30468 1.125 0.52148 0.64453 0.21094 1.2656 0.21094 0.41601 0 0.80273-0.11719 0.39258-0.11719 0.69727-0.41016 0.25781-0.25195 0.38672-0.60351 0.13476-0.35156 0.13476-0.81446 0-0.45117-0.1582-0.76171-0.15235-0.31055-0.42774-0.49805-0.30468-0.22266-0.74414-0.31055-0.43359-0.0937-0.97265-0.0937-0.51563 0-0.9961 0.0703-0.47461 0.0703-0.82031 0.14063v-4.4941h5.25v1.0254h-4.1191v2.3203q0.25195-0.0234 0.51563-0.0351 0.26367-0.0117 0.45703-0.0117 0.70898 0 1.2422 0.12304 0.53321 0.11719 0.97852 0.42188 0.46875 0.32226 0.72656 0.83203t0.25781 1.2773z" style="white-space:pre" aria-label="15"/><path transform="matrix(-.21405 .15552 -.15552 -.21405 242.84 149.3)" d="m364.58 390.53h-5.9062v-1.2246q0.61524-0.52734 1.2305-1.0547 0.62109-0.52734 1.1543-1.0488 1.125-1.0898 1.541-1.7285 0.41602-0.64453 0.41602-1.3887 0-0.67969-0.45117-1.0606-0.44532-0.38672-1.248-0.38672-0.5332 0-1.1543 0.1875-0.62109 0.1875-1.2129 0.57422h-0.0586v-1.2305q0.41601-0.20508 1.1074-0.375 0.69727-0.16992 1.3477-0.16992 1.3418 0 2.1035 0.65039 0.76172 0.64453 0.76172 1.752 0 0.49805-0.12891 0.93164-0.12304 0.42774-0.36914 0.81446-0.22851 0.36328-0.53906 0.71484-0.30469 0.35156-0.74414 0.7793-0.62695 0.61523-1.2949 1.1953-0.66797 0.57422-1.248 1.0664h4.6934zm7.6172-4.3652q0 2.3496-0.73828 3.4512-0.73242 1.0957-2.2793 1.0957-1.5703 0-2.2969-1.1133-0.72071-1.1133-0.72071-3.4219 0-2.3262 0.73242-3.4336 0.73243-1.1133 2.2852-1.1133 1.5703 0 2.291 1.1309 0.72656 1.125 0.72656 3.4043zm-1.541 2.6602q0.20508-0.47461 0.27539-1.1133 0.0762-0.64453 0.0762-1.5469 0-0.89062-0.0762-1.5469-0.0703-0.65625-0.28125-1.1133-0.20507-0.45117-0.5625-0.67969-0.35156-0.22852-0.9082-0.22852-0.55078 0-0.91406 0.22852-0.35742 0.22852-0.56836 0.69141-0.19922 0.43359-0.27539 1.1309-0.0703 0.69726-0.0703 1.5293 0 0.91407 0.0645 1.5293 0.0644 0.61523 0.27539 1.1016 0.19336 0.45703 0.54492 0.69727 0.35742 0.24023 0.94336 0.24023 0.55078 0 0.91406-0.22851 0.36328-0.22852 0.5625-0.69141z" style="white-space:pre" aria-label="20"/><path transform="matrix(-.26458 0 0 -.26458 194.05 227.86)" d="m364.58 390.53h-5.9062v-1.2246q0.61524-0.52734 1.2305-1.0547 0.62109-0.52734 1.1543-1.0488 1.125-1.0898 1.541-1.7285 0.41602-0.64453 0.41602-1.3887 0-0.67969-0.45117-1.0606-0.44532-0.38672-1.248-0.38672-0.5332 0-1.1543 0.1875-0.62109 0.1875-1.2129 0.57422h-0.0586v-1.2305q0.41601-0.20508 1.1074-0.375 0.69727-0.16992 1.3477-0.16992 1.3418 0 2.1035 0.65039 0.76172 0.64453 0.76172 1.752 0 0.49805-0.12891 0.93164-0.12304 0.42774-0.36914 0.81446-0.22851 0.36328-0.53906 0.71484-0.30469 0.35156-0.74414 0.7793-0.62695 0.61523-1.2949 1.1953-0.66797 0.57422-1.248 1.0664h4.6934zm7.5586-2.7715q0 0.60938-0.22265 1.166-0.22266 0.55664-0.60938 0.9375-0.42187 0.41016-1.0078 0.63281-0.58008 0.2168-1.3477 0.2168-0.71484 0-1.377-0.15234-0.66211-0.14649-1.1191-0.35743v-1.2363h0.082q0.48047 0.30468 1.125 0.52148 0.64453 0.21094 1.2656 0.21094 0.41601 0 0.80273-0.11719 0.39258-0.11719 0.69727-0.41016 0.25781-0.25195 0.38672-0.60351 0.13476-0.35156 0.13476-0.81446 0-0.45117-0.1582-0.76171-0.15235-0.31055-0.42774-0.49805-0.30468-0.22266-0.74414-0.31055-0.43359-0.0937-0.97265-0.0937-0.51563 0-0.9961 0.0703-0.47461 0.0703-0.82031 0.14063v-4.4941h5.25v1.0254h-4.1191v2.3203q0.25195-0.0234 0.51563-0.0351 0.26367-0.0117 0.45703-0.0117 0.70898 0 1.2422 0.12304 0.53321 0.11719 0.97852 0.42188 0.46875 0.32226 0.72656 0.83203t0.25781 1.2773z" style="white-space:pre" aria-label="25"/><path transform="matrix(-.21405 -.15552 .15552 -.21405 108.51 263.02)" d="m363.81 386.33q0.28125 0.25195 0.46289 0.63281t0.18164 0.98437q0 0.59766-0.21679 1.0957-0.2168 0.49804-0.60938 0.86718-0.43945 0.41016-1.0371 0.60938-0.59179 0.19336-1.3008 0.19336-0.72656 0-1.4297-0.17578-0.70312-0.16992-1.1543-0.375v-1.2246h0.0879q0.49804 0.32812 1.1719 0.54492t1.3008 0.2168q0.36914 0 0.78516-0.12305t0.67383-0.36328q0.26953-0.25781 0.39844-0.56836 0.13476-0.31055 0.13476-0.78516 0-0.46875-0.15234-0.77343-0.14649-0.31055-0.41016-0.48633-0.26367-0.18164-0.63867-0.2461-0.375-0.0703-0.80859-0.0703h-0.52735v-0.97265h0.41016q0.89062 0 1.418-0.36915 0.5332-0.375 0.5332-1.0898 0-0.31641-0.13477-0.55078-0.13476-0.24023-0.375-0.39258-0.25195-0.15234-0.53906-0.21094t-0.65039-0.0586q-0.55664 0-1.1836 0.19922-0.62696 0.19922-1.1836 0.5625h-0.0586v-1.2246q0.41602-0.20508 1.1074-0.375 0.69727-0.17578 1.3477-0.17578 0.63867 0 1.125 0.11719 0.48633 0.11718 0.8789 0.375 0.42188 0.28125 0.63868 0.67968 0.21679 0.39844 0.21679 0.93164 0 0.72657-0.51562 1.2715-0.50977 0.53906-1.207 0.67969v0.082q0.28125 0.0469 0.64453 0.19922 0.36328 0.14648 0.61523 0.36914zm8.3848-0.16407q0 2.3496-0.73828 3.4512-0.73242 1.0957-2.2793 1.0957-1.5703 0-2.2969-1.1133-0.72071-1.1133-0.72071-3.4219 0-2.3262 0.73242-3.4336 0.73243-1.1133 2.2852-1.1133 1.5703 0 2.291 1.1309 0.72656 1.125 0.72656 3.4043zm-1.541 2.6602q0.20508-0.47461 0.27539-1.1133 0.0762-0.64453 0.0762-1.5469 0-0.89062-0.0762-1.5469-0.0703-0.65625-0.28125-1.1133-0.20507-0.45117-0.5625-0.67969-0.35156-0.22852-0.9082-0.22852-0.55078 0-0.91406 0.22852-0.35742 0.22852-0.56836 0.69141-0.19922 0.43359-0.27539 1.1309-0.0703 0.69726-0.0703 1.5293 0 0.91407 0.0645 1.5293 0.0644 0.61523 0.27539 1.1016 0.19336 0.45703 0.54492 0.69727 0.35742 0.24023 0.94336 0.24023 0.55078 0 0.91406-0.22851 0.36328-0.22852 0.5625-0.69141z" style="white-space:pre" aria-label="30"/><path transform="matrix(-.081761 -.25163 .25163 -.081761 18.417 240.87)" d="m363.81 386.33q0.28125 0.25195 0.46289 0.63281t0.18164 0.98437q0 0.59766-0.21679 1.0957-0.2168 0.49804-0.60938 0.86718-0.43945 0.41016-1.0371 0.60938-0.59179 0.19336-1.3008 0.19336-0.72656 0-1.4297-0.17578-0.70312-0.16992-1.1543-0.375v-1.2246h0.0879q0.49804 0.32812 1.1719 0.54492t1.3008 0.2168q0.36914 0 0.78516-0.12305t0.67383-0.36328q0.26953-0.25781 0.39844-0.56836 0.13476-0.31055 0.13476-0.78516 0-0.46875-0.15234-0.77343-0.14649-0.31055-0.41016-0.48633-0.26367-0.18164-0.63867-0.2461-0.375-0.0703-0.80859-0.0703h-0.52735v-0.97265h0.41016q0.89062 0 1.418-0.36915 0.5332-0.375 0.5332-1.0898 0-0.31641-0.13477-0.55078-0.13476-0.24023-0.375-0.39258-0.25195-0.15234-0.53906-0.21094t-0.65039-0.0586q-0.55664 0-1.1836 0.19922-0.62696 0.19922-1.1836 0.5625h-0.0586v-1.2246q0.41602-0.20508 1.1074-0.375 0.69727-0.17578 1.3477-0.17578 0.63867 0 1.125 0.11719 0.48633 0.11718 0.8789 0.375 0.42188 0.28125 0.63868 0.67968 0.21679 0.39844 0.21679 0.93164 0 0.72657-0.51562 1.2715-0.50977 0.53906-1.207 0.67969v0.082q0.28125 0.0469 0.64453 0.19922 0.36328 0.14648 0.61523 0.36914zm8.3262 1.4297q0 0.60938-0.22265 1.166-0.22266 0.55664-0.60938 0.9375-0.42187 0.41016-1.0078 0.63281-0.58008 0.2168-1.3477 0.2168-0.71484 0-1.377-0.15234-0.66211-0.14649-1.1191-0.35743v-1.2363h0.082q0.48047 0.30468 1.125 0.52148 0.64453 0.21094 1.2656 0.21094 0.41601 0 0.80273-0.11719 0.39258-0.11719 0.69727-0.41016 0.25781-0.25195 0.38672-0.60351 0.13476-0.35156 0.13476-0.81446 0-0.45117-0.1582-0.76171-0.15235-0.31055-0.42774-0.49805-0.30468-0.22266-0.74414-0.31055-0.43359-0.0937-0.97265-0.0937-0.51563 0-0.9961 0.0703-0.47461 0.0703-0.82031 0.14063v-4.4941h5.25v1.0254h-4.1191v2.3203q0.25195-0.0234 0.51563-0.0351 0.26367-0.0117 0.45703-0.0117 0.70898 0 1.2422 0.12304 0.53321 0.11719 0.97852 0.42188 0.46875 0.32226 0.72656 0.83203t0.25781 1.2773z" style="white-space:pre" aria-label="35"/><path transform="matrix(.081761 -.25163 .25163 .081761 -41.333 170.19)" d="m364.78 388.08h-1.2949v2.4551h-1.125v-2.4551h-4.1777v-1.3477l4.2246-4.9219h1.0781v5.332h1.2949zm-2.4199-0.9375v-3.9375l-3.3809 3.9375zm9.8379-0.97266q0 2.3496-0.73828 3.4512-0.73242 1.0957-2.2793 1.0957-1.5703 0-2.2969-1.1133-0.72071-1.1133-0.72071-3.4219 0-2.3262 0.73242-3.4336 0.73243-1.1133 2.2852-1.1133 1.5703 0 2.291 1.1309 0.72656 1.125 0.72656 3.4043zm-1.541 2.6602q0.20508-0.47461 0.27539-1.1133 0.0762-0.64453 0.0762-1.5469 0-0.89062-0.0762-1.5469-0.0703-0.65625-0.28125-1.1133-0.20507-0.45117-0.5625-0.67969-0.35156-0.22852-0.9082-0.22852-0.55078 0-0.91406 0.22852-0.35742 0.22852-0.56836 0.69141-0.19922 0.43359-0.27539 1.1309-0.0703 0.69726-0.0703 1.5293 0 0.91407 0.0645 1.5293 0.0644 0.61523 0.27539 1.1016 0.19336 0.45703 0.54492 0.69727 0.35742 0.24023 0.94336 0.24023 0.55078 0 0.91406-0.22851 0.36328-0.22852 0.5625-0.69141z" style="white-space:pre" aria-label="40"/><path transform="matrix(.21405 -.15552 .15552 .21405 -48.151 77.793)" d="m364.78 388.08h-1.2949v2.4551h-1.125v-2.4551h-4.1777v-1.3477l4.2246-4.9219h1.0781v5.332h1.2949zm-2.4199-0.9375v-3.9375l-3.3809 3.9375zm9.7793 0.62109q0 0.60938-0.22265 1.166-0.22266 0.55664-0.60938 0.9375-0.42187 0.41016-1.0078 0.63281-0.58008 0.2168-1.3477 0.2168-0.71484 0-1.377-0.15234-0.66211-0.14649-1.1191-0.35743v-1.2363h0.082q0.48047 0.30468 1.125 0.52148 0.64453 0.21094 1.2656 0.21094 0.41601 0 0.80273-0.11719 0.39258-0.11719 0.69727-0.41016 0.25781-0.25195 0.38672-0.60351 0.13476-0.35156 0.13476-0.81446 0-0.45117-0.1582-0.76171-0.15235-0.31055-0.42774-0.49805-0.30468-0.22266-0.74414-0.31055-0.43359-0.0937-0.97265-0.0937-0.51563 0-0.9961 0.0703-0.47461 0.0703-0.82031 0.14063v-4.4941h5.25v1.0254h-4.1191v2.3203q0.25195-0.0234 0.51563-0.0351 0.26367-0.0117 0.45703-0.0117 0.70898 0 1.2422 0.12304 0.53321 0.11719 0.97852 0.42188 0.46875 0.32226 0.72656 0.83203t0.25781 1.2773z" style="white-space:pre" aria-label="45"/></g></svg>
