<?xml version="1.0" encoding="UTF-8"?>
<svg width="250" height="250" version="1.1" viewBox="0 0 250 250" xml:space="preserve" xmlns="http://www.w3.org/2000/svg"><g transform="translate(-835,-415)"><g transform="matrix(7.1044 0 0 7.1044 265.04 -288.74)" fill="#060a23"><path d="m111.24 105.68a17.345 17.345 0 0 1 2.1222 5.263 17.345 17.345 0 0 1-13.179 20.688 17.345 17.345 0 0 1-17.137-5.957 17.345 17.345 0 0 0 18.53 7.9216 17.345 17.345 0 0 0 13.179-20.688 17.345 17.345 0 0 0-3.5148-7.2277z" fill-opacity=".3"/><path d="m105.07 110.7c0.5421 0.88897 0.93398 1.861 1.1601 2.8774 1.1335 5.1132-2.0926 10.177-7.2058 11.311-3.4873 0.76467-7.1088-0.49432-9.37-3.2572 0.06581 0.10808 0.1335 0.21466 0.20309 0.31936 2.2268 3.3801 6.8131 6.2525 10.711 5.3976 5.1977-1.1524 8.4774-6.3003 7.3251-11.498-0.29118-1.3094-1.5378-3.4314-2.4836-4.7082-3.9e-4 -5.4e-4 -6.4e-4 -1e-3 -1e-3 -2e-3 -0.1087-0.14977-0.22188-0.29671-0.33952-0.44029z" fill-opacity=".35"/></g><g transform="matrix(7.1044 0 0 7.1044 782.92 394.94)"><path transform="translate(-72.896 -96.234)" d="m84.432 127.74c-0.99153-1.6259-0.93898-3.2117-1.3527-5.0706-2.0732-9.3521 3.8274-18.614 13.179-20.688 6.3784-1.3986 12.232 0.7113 16.368 5.7646-3.8519-6.326-11.296-9.5082-18.53-7.9216-9.3521 2.0734-15.253 11.335-13.179 20.688 0.58955 2.6512 1.7935 5.1269 3.5148 7.2277z" fill="#ffd079" fill-opacity=".13"/><path d="m17.462 26.428a9.4496 9.4496 0 0 1-1.1562-2.8673 9.4496 9.4496 0 0 1 7.1803-11.271 9.4496 9.4496 0 0 1 9.3367 3.2454 9.4496 9.4496 0 0 0-10.095-4.3158 9.4496 9.4496 0 0 0-7.1803 11.271 9.4496 9.4496 0 0 0 1.9149 3.9377z" fill="#ffd07a" fill-opacity=".14"/></g><g transform="matrix(7.1044 0 0 7.1044 782.92 394.94)" display="none"><path transform="translate(-72.483 -93.178)" d="m91.024 118.21c0.33241 0.31844 1.6277 1.3588 2.2679 1.7634 0.74345 0.46979 1.5147 0.8574 2.3561 0.99316 1.6455 0.2655 3.4466 0.24781 4.9846-0.3945 1.5251-0.63692 2.8754-1.8191 3.7529-3.2403 0.77161-1.2498 0.85358-2.2173 0.97154-3.6813 0.074-0.91845-0.14449-2.8512-0.36934-3.7447-0.19078-0.75832-0.52145-1.736-0.90042-2.1662-0.37896-0.43016-0.86283-1.2973-1.2601-1.7026-0.3282-0.33481-1.0737-1.3093-1.0737-1.3093l0.146-0.2044s0.63737 0.23959 0.89112 0.39109c0.25376 0.15149 0.55605 0.33668 0.75017 0.47148 0.37684 0.26167 0.74137 0.54304 1.0837 0.84843 0.29973 0.26736 0.58098 0.5562 0.84592 0.85807 0.24681 0.2812 0.47692 0.57774 0.69034 0.88505 0.20953 0.30171 0.40399 0.61478 0.57747 0.93856 0.20326 0.37937 0.38744 0.77032 0.54078 1.1725 0.16926 0.44389 0.3125 0.89946 0.41632 1.363 0.1179 0.52646 0.19231 1.0637 0.23257 1.6017 0.0287 0.38296 0.0248 0.76851 6e-3 1.1521-0.0167 0.34031-0.0536 0.67995-0.1053 1.0167-0.048 0.31213-0.11181 0.62215-0.18978 0.92816-0.0794 0.31173-0.1724 0.62055-0.28269 0.92274-0.13074 0.35821-0.28146 0.70958-0.44825 1.0525-0.12573 0.25849-0.2646 0.51099-0.41553 0.75562-0.20045 0.32488-0.41568 0.64146-0.64934 0.94334-0.22372 0.28903-0.46394 0.56602-0.71849 0.8283-0.26745 0.27557-0.54869 0.53911-0.8473 0.78057-0.37393 0.30237-0.76906 0.57976-1.1779 0.83296-0.28801 0.17837-0.58872 0.33675-0.89503 0.48145-0.32852 0.1552-0.66376 0.29883-1.0085 0.41355-0.52295 0.17401-1.0596 0.30918-1.6007 0.41435-0.26956 0.0524-0.54294 0.0871-0.8168 0.10738-0.49012 0.0363-0.9833 0.0493-1.4742 0.0251-0.40045-0.0197-0.80011-0.068-1.1948-0.13846-0.41864-0.0747-0.83562-0.16858-1.2398-0.30073-0.594-0.19421-1.1808-0.42372-1.7312-0.71976-0.6264-0.33694-1.2148-0.74726-1.7695-1.1925-0.31666-0.25414-0.60713-0.54113-0.88323-0.83884-0.30148-0.32507-0.58813-0.66628-0.84084-1.0306-0.34065-0.49104-0.6488-1.0079-0.90426-1.5482-0.2406-0.50884-0.42219-1.0451-0.58649-1.5834-0.06223-0.2039-0.11356-0.40437-0.15062-0.62157-0.03706-0.2172-0.06186-0.31352-0.10967-0.62083-0.04781-0.30731-0.05204-0.55406-0.08429-0.82438s-0.02232-0.83155-0.0127-0.93778c0.01925-0.21247 0.14012-1.385 0.26928-1.0834 0.06458 0.15079 0.16149 0.87668 0.28669 1.3036 0.19278 0.6574 0.42934 1.304 0.71252 1.9278 0.22994 0.50654 0.47231 1.0146 0.79752 1.466 0.33179 0.46048 0.75141 0.85261 1.1613 1.2452z" display="inline" fill="#201d39" fill-opacity=".27644"/></g><g transform="matrix(7.1044 0 0 7.1044 265.04 -288.74)" display="none"><path d="m91.396 115.41c0.41295-1.1605 1.0431-2.2816 1.8918-3.1744 0.79655-0.83787 1.8087-1.5038 2.8858-1.9238 1.0281-0.4009 2.1724-0.62177 3.2705-0.51303 1.2922 0.12795 3.6553 1.3467 3.6553 1.3467s-0.1927-1.3389-0.4589-1.952c-0.30055-0.69223-0.62719-1.4668-1.2565-1.8833-0.97479-0.64525-2.2771-0.67387-3.4459-0.65199-1.399 0.0262-2.8099 0.37461-4.0923 0.9342-0.85898 0.37482-1.636 0.94646-2.323 1.584-0.687 0.63752-1.2693 1.3956-1.7529 2.1984-0.36336 0.6031-0.7826 1.2347-0.84459 1.9361-0.08391 0.94926 0.29063 1.9042 0.66571 2.7803 0.3354 0.78337 1.3883 2.1466 1.3883 2.1466s0.09726-1.9302 0.41668-2.8278z" fill="#9a774e" fill-opacity=".20673"/></g><path d="m1083.2 540a123.22 123.22 0 0 1-123.22 123.22 123.22 123.22 0 0 1-123.22-123.22 123.22 123.22 0 0 1 123.22-123.22 123.22 123.22 0 0 1 123.22 123.22z" fill="none" stroke="#000" stroke-width="3.5522"/></g></svg>
