<?xml version="1.0" encoding="UTF-8" standalone="no"?>
<!-- Created with Inkscape (http://www.inkscape.org/) -->

<svg
   width="49.851883mm"
   height="40.83638mm"
   viewBox="0 0 49.851883 40.83638"
   version="1.1"
   id="svg1"
   sodipodi:docname="safe_dial_draft2_dial_only_zarvox.svg"
   inkscape:version="1.3.2 (091e20e, 2023-11-25)"
   xmlns:inkscape="http://www.inkscape.org/namespaces/inkscape"
   xmlns:sodipodi="http://sodipodi.sourceforge.net/DTD/sodipodi-0.dtd"
   xmlns="http://www.w3.org/2000/svg"
   xmlns:svg="http://www.w3.org/2000/svg">
  <sodipodi:namedview
     id="namedview1"
     pagecolor="#ffffff"
     bordercolor="#000000"
     borderopacity="0.25"
     inkscape:showpageshadow="2"
     inkscape:pageopacity="0.0"
     inkscape:pagecheckerboard="0"
     inkscape:deskcolor="#d1d1d1"
     inkscape:document-units="mm"
     showgrid="false"
     inkscape:zoom="4.3993146"
     inkscape:cx="94.219222"
     inkscape:cy="77.171112"
     inkscape:window-width="1480"
     inkscape:window-height="892"
     inkscape:window-x="34"
     inkscape:window-y="2283"
     inkscape:window-maximized="1"
     inkscape:current-layer="svg1" />
  <defs
     id="defs1">
    <rect
       x="357.73291"
       y="379.58398"
       width="17.064375"
       height="15.108079"
       id="rect154" />
    <rect
       x="357.73291"
       y="379.58398"
       width="37.146786"
       height="50.257416"
       id="rect155" />
    <rect
       x="357.73291"
       y="379.58398"
       width="37.146786"
       height="50.257416"
       id="rect156" />
    <rect
       x="357.73291"
       y="379.58398"
       width="37.146786"
       height="50.257416"
       id="rect157" />
    <rect
       x="357.73291"
       y="379.58398"
       width="37.146786"
       height="50.257416"
       id="rect158" />
    <rect
       x="357.73291"
       y="379.58398"
       width="37.146786"
       height="50.257416"
       id="rect158-9" />
    <rect
       x="357.73291"
       y="379.58398"
       width="37.146786"
       height="50.257416"
       id="rect158-9-2" />
    <rect
       x="357.73291"
       y="379.58398"
       width="37.146786"
       height="50.257416"
       id="rect159" />
    <rect
       x="357.73291"
       y="379.58398"
       width="37.146786"
       height="50.257416"
       id="rect160" />
    <rect
       x="357.73291"
       y="379.58398"
       width="37.146786"
       height="50.257416"
       id="rect161" />
    <rect
       x="357.73291"
       y="379.58398"
       width="37.146786"
       height="50.257416"
       id="rect21" />
    <rect
       x="357.73291"
       y="379.58398"
       width="17.064375"
       height="15.108079"
       id="rect22" />
    <rect
       x="357.73291"
       y="379.58398"
       width="37.146786"
       height="50.257416"
       id="rect23" />
    <rect
       x="357.73291"
       y="379.58398"
       width="37.146786"
       height="50.257416"
       id="rect24" />
    <rect
       x="357.73291"
       y="379.58398"
       width="37.146786"
       height="50.257416"
       id="rect25" />
    <rect
       x="357.73291"
       y="379.58398"
       width="37.146786"
       height="50.257416"
       id="rect26" />
    <rect
       x="357.73291"
       y="379.58398"
       width="37.146786"
       height="50.257416"
       id="rect27" />
    <rect
       x="357.73291"
       y="379.58398"
       width="37.146786"
       height="50.257416"
       id="rect28" />
    <rect
       x="357.73291"
       y="379.58398"
       width="37.146786"
       height="50.257416"
       id="rect29" />
    <rect
       x="357.73291"
       y="379.58398"
       width="37.146786"
       height="50.257416"
       id="rect30" />
  </defs>
  <g
     id="layer4"
     style="display:inline"
     transform="translate(-72.482574,-93.178299)">
    <circle
       style="fill:#5a5a5a;fill-opacity:1;stroke:none;stroke-width:0.5;stroke-dasharray:none;stroke-opacity:1"
       id="path1"
       cx="97.408516"
       cy="113.59649"
       r="17.344831" />
  </g>
  <g
     id="layer2"
     transform="translate(-72.482574,-93.178299)"
     style="display:inline">
    <path
       id="path48"
       style="fill:none;stroke:#d9d9d9;stroke-width:0.5;stroke-dasharray:none;stroke-opacity:1"
       d="m 95.459402,128.73671 -0.27602,2.14405" />
    <path
       id="path153"
       style="fill:none;stroke:#d9d9d9;stroke-width:0.5;stroke-dasharray:none;stroke-opacity:1"
       d="m 99.63365,96.312216 -0.274693,2.133756" />
    <path
       id="path49"
       style="fill:none;stroke:#d9d9d9;stroke-width:0.5;stroke-dasharray:none;stroke-opacity:1"
       d="m 93.580245,128.36129 -0.545611,2.1043" />
    <path
       id="path152"
       style="fill:none;stroke:#d9d9d9;stroke-width:0.5;stroke-dasharray:none;stroke-opacity:1"
       d="m 101.7824,96.727391 -0.53957,2.081003" />
    <path
       id="path50"
       style="fill:none;stroke:#d9d9d9;stroke-width:0.5;stroke-dasharray:none;stroke-opacity:1"
       d="m 91.763075,127.75712 -0.80821,2.02726" />
    <path
       id="path151"
       style="fill:none;stroke:#d9d9d9;stroke-width:0.5;stroke-dasharray:none;stroke-opacity:1"
       d="m 103.86217,97.408602 -0.79645,1.997754" />
    <path
       id="path51"
       style="fill:none;stroke:#d9d9d9;stroke-width:0.5;stroke-dasharray:none;stroke-opacity:1"
       d="m 90.03442,126.93496 -1.057546,1.91292" />
    <path
       id="path150"
       style="fill:none;stroke:#d9d9d9;stroke-width:0.5;stroke-dasharray:none;stroke-opacity:1"
       d="m 105.84016,98.345105 -1.04076,1.882565" />
    <path
       id="path53"
       style="fill:none;stroke:#d9d9d9;stroke-width:0.5;stroke-dasharray:none;stroke-opacity:1"
       d="m 86.944631,124.68662 -1.495727,1.58524" />
    <path
       id="path149"
       style="fill:none;stroke:#d9d9d9;stroke-width:0.5;stroke-dasharray:none;stroke-opacity:1"
       d="m 109.36813,100.92112 -1.4764,1.56476" />
    <path
       id="path54"
       style="fill:none;stroke:#d9d9d9;stroke-width:0.5;stroke-dasharray:none;stroke-opacity:1"
       d="m 85.629882,123.2937 -1.675318,1.37927" />
    <path
       id="path148"
       style="fill:none;stroke:#d9d9d9;stroke-width:0.5;stroke-dasharray:none;stroke-opacity:1"
       d="m 110.86247,102.52001 -1.65831,1.36526" />
    <path
       id="path55"
       style="fill:none;stroke:#d9d9d9;stroke-width:0.5;stroke-dasharray:none;stroke-opacity:1"
       d="m 84.495123,121.74872 -1.822722,1.15068" />
    <path
       id="path147"
       style="fill:none;stroke:#d9d9d9;stroke-width:0.5;stroke-dasharray:none;stroke-opacity:1"
       d="m 112.14463,104.29358 -1.81957,1.1487" />
    <path
       id="path56"
       style="fill:none;stroke:#d9d9d9;stroke-width:0.5;stroke-dasharray:none;stroke-opacity:1"
       d="m 83.576014,120.06558 -1.953378,0.91354" />
    <path
       id="path146"
       style="fill:none;stroke:#d9d9d9;stroke-width:0.5;stroke-dasharray:none;stroke-opacity:1"
       d="m 113.1944,106.21386 -1.94668,0.91041" />
    <path
       id="path58"
       style="fill:none;stroke:#d9d9d9;stroke-width:0.5;stroke-dasharray:none;stroke-opacity:1"
       d="m 82.425107,116.41794 -2.142513,0.40345" />
    <path
       id="path145"
       style="fill:none;stroke:#d9d9d9;stroke-width:0.5;stroke-dasharray:none;stroke-opacity:1"
       d="m 114.53444,110.37159 -2.11303,0.3979" />
    <path
       id="path59"
       style="fill:none;stroke:#d9d9d9;stroke-width:0.5;stroke-dasharray:none;stroke-opacity:1"
       d="m 82.194728,114.51747 -2.181278,0.13204" />
    <path
       id="path144"
       style="fill:none;stroke:#d9d9d9;stroke-width:0.5;stroke-dasharray:none;stroke-opacity:1"
       d="m 114.80358,112.54347 -2.14611,0.12992" />
    <path
       id="path60"
       style="fill:none;stroke:#d9d9d9;stroke-width:0.5;stroke-dasharray:none;stroke-opacity:1"
       d="m 82.199944,112.60346 -2.181307,-0.14243" />
    <path
       id="path143"
       style="fill:none;stroke:#d9d9d9;stroke-width:0.5;stroke-dasharray:none;stroke-opacity:1"
       d="m 114.79839,114.73195 -2.18079,-0.14239" />
    <path
       id="path61"
       style="fill:none;stroke:#d9d9d9;stroke-width:0.5;stroke-dasharray:none;stroke-opacity:1"
       d="m 82.440553,110.70442 -2.142481,-0.41397" />
    <path
       id="path142"
       style="fill:none;stroke:#d9d9d9;stroke-width:0.5;stroke-dasharray:none;stroke-opacity:1"
       d="m 114.51895,116.90253 -2.14248,-0.41396" />
    <path
       id="path63"
       style="fill:none;stroke:#d9d9d9;stroke-width:0.5;stroke-dasharray:none;stroke-opacity:1"
       d="m 83.610638,107.06371 -1.952831,-0.92459" />
    <path
       id="path141"
       style="fill:none;stroke:#d9d9d9;stroke-width:0.5;stroke-dasharray:none;stroke-opacity:1"
       d="m 113.15921,121.05386 -1.95283,-0.92459" />
    <path
       id="path64"
       style="fill:none;stroke:#d9d9d9;stroke-width:0.5;stroke-dasharray:none;stroke-opacity:1"
       d="m 84.529866,105.38057 -1.813204,-1.15673" />
    <path
       id="path140"
       style="fill:none;stroke:#d9d9d9;stroke-width:0.5;stroke-dasharray:none;stroke-opacity:1"
       d="m 112.10035,122.96914 -1.81321,-1.15674" />
    <path
       id="path65"
       style="fill:none;stroke:#d9d9d9;stroke-width:0.5;stroke-dasharray:none;stroke-opacity:1"
       d="m 85.67326,103.84131 -1.666044,-1.38494" />
    <path
       id="path139"
       style="fill:none;stroke:#d9d9d9;stroke-width:0.5;stroke-dasharray:none;stroke-opacity:1"
       d="m 110.8098,124.73661 -1.66604,-1.38494" />
    <path
       id="path66"
       style="fill:none;stroke:#d9d9d9;stroke-width:0.5;stroke-dasharray:none;stroke-opacity:1"
       d="m 86.996032,102.45553 -1.486916,-1.59094" />
    <path
       id="path138"
       style="fill:none;stroke:#d9d9d9;stroke-width:0.5;stroke-dasharray:none;stroke-opacity:1"
       d="m 109.3079,126.32839 -1.48666,-1.59067" />
    <path
       id="path68"
       style="fill:none;stroke:#d9d9d9;stroke-width:0.5;stroke-dasharray:none;stroke-opacity:1"
       d="M 90.097858,100.22349 89.049251,98.305328" />
    <path
       id="path137"
       style="fill:none;stroke:#d9d9d9;stroke-width:0.5;stroke-dasharray:none;stroke-opacity:1"
       d="m 105.76776,128.88765 -1.04861,-1.91817" />
    <path
       id="path69"
       style="fill:none;stroke:#d9d9d9;stroke-width:0.5;stroke-dasharray:none;stroke-opacity:1"
       d="m 91.830754,99.410561 -0.799097,-2.03235" />
    <path
       id="path136"
       style="fill:none;stroke:#d9d9d9;stroke-width:0.5;stroke-dasharray:none;stroke-opacity:1"
       d="m 103.78535,129.81477 -0.7991,-2.03235" />
    <path
       id="path70"
       style="fill:none;stroke:#d9d9d9;stroke-width:0.5;stroke-dasharray:none;stroke-opacity:1"
       d="M 93.651044,98.816809 93.11463,96.706866" />
    <path
       id="path135"
       style="fill:none;stroke:#d9d9d9;stroke-width:0.5;stroke-dasharray:none;stroke-opacity:1"
       d="m 101.70238,130.48611 -0.53641,-2.10994" />
    <path
       id="path71"
       style="display:inline;fill:none;stroke:#d9d9d9;stroke-width:0.5;stroke-dasharray:none;stroke-opacity:1"
       d="M 95.53159,98.450579 95.265319,96.30188" />
    <path
       id="path134"
       style="display:inline;fill:none;stroke:#d9d9d9;stroke-width:0.5;stroke-dasharray:none;stroke-opacity:1"
       d="m 99.551691,130.8911 -0.266338,-2.14921" />
  </g>
  <g
     id="layer8"
     style="display:inline"
     transform="translate(-72.482574,-93.178299)">
    <path
       id="path47"
       style="fill:none;stroke:#d9d9d9;stroke-width:0.5;stroke-dasharray:none;stroke-opacity:1"
       d="m 97.37582,127.39463 -0.0086,3.62872" />
    <path
       id="path108"
       style="fill:none;stroke:#d9d9d9;stroke-width:0.5;stroke-dasharray:none;stroke-opacity:1"
       d="m 97.449811,96.169624 -0.0086,3.626657" />
    <path
       id="path52"
       style="fill:none;stroke:#d9d9d9;stroke-width:0.5;stroke-dasharray:none;stroke-opacity:1"
       d="m 89.290218,124.71487 -2.158364,2.95598" />
    <path
       id="path107"
       style="fill:none;stroke:#d9d9d9;stroke-width:0.5;stroke-dasharray:none;stroke-opacity:1"
       d="m 107.68518,99.522132 -2.13984,2.930598" />
    <path
       id="path57"
       style="fill:none;stroke:#d9d9d9;stroke-width:0.5;stroke-dasharray:none;stroke-opacity:1"
       d="m 84.292965,117.82366 -3.471141,1.11875" />
    <path
       id="path106"
       style="fill:none;stroke:#d9d9d9;stroke-width:0.5;stroke-dasharray:none;stroke-opacity:1"
       d="m 113.99521,108.25057 -3.45403,1.11324" />
    <path
       id="path67"
       style="fill:none;stroke:#d9d9d9;stroke-width:0.5;stroke-dasharray:none;stroke-opacity:1"
       d="M 89.342275,102.43876 87.198676,99.473596" />
    <path
       id="path104"
       style="fill:none;stroke:#d9d9d9;stroke-width:0.5;stroke-dasharray:none;stroke-opacity:1"
       d="m 107.61834,127.71938 -2.1436,-2.96516" />
    <path
       id="path62"
       style="display:inline;fill:none;stroke:#d9d9d9;stroke-width:0.5;stroke-dasharray:none;stroke-opacity:1"
       d="M 84.315784,109.30807 80.84735,108.17201" />
    <path
       id="path105"
       style="display:inline;fill:none;stroke:#d9d9d9;stroke-width:0.5;stroke-dasharray:none;stroke-opacity:1"
       d="m 113.96967,119.02097 -3.46843,-1.13605" />
  </g>
  <g
     id="layer5"
     style="display:inline"
     transform="translate(-72.482574,-93.178299)">
    <circle
       style="fill:none;stroke:#000000;stroke-width:0.5;stroke-dasharray:none;stroke-opacity:1"
       id="circle71"
       cx="97.408516"
       cy="113.59649"
       r="17.344831" />
  </g>
  <g
     id="g231"
     transform="translate(-72.482575,-93.178299)"
     style="display:inline">
    <path
       d="m 364.08398,390.53195 h -4.72265 v -0.89063 h 1.8164 v -5.84765 h -1.8164 v -0.79688 q 0.36914,0 0.79101,-0.0586 0.42188,-0.0645 0.63868,-0.18164 0.26953,-0.14649 0.42187,-0.36914 0.1582,-0.22852 0.18164,-0.60938 h 0.9082 v 7.86328 h 1.78125 z m 8.11524,-4.36524 q 0,2.34961 -0.73828,3.45118 -0.73242,1.0957 -2.2793,1.0957 -1.57031,0 -2.29687,-1.11328 -0.72071,-1.11328 -0.72071,-3.42188 0,-2.32617 0.73242,-3.43359 0.73243,-1.11328 2.28516,-1.11328 1.57031,0 2.29102,1.13086 0.72656,1.125 0.72656,3.40429 z m -1.54102,2.66016 q 0.20508,-0.47461 0.27539,-1.11328 0.0762,-0.64453 0.0762,-1.54688 0,-0.89062 -0.0762,-1.54687 -0.0703,-0.65625 -0.28125,-1.11328 -0.20507,-0.45117 -0.5625,-0.67969 -0.35156,-0.22852 -0.9082,-0.22852 -0.55078,0 -0.91406,0.22852 -0.35742,0.22852 -0.56836,0.69141 -0.19922,0.43359 -0.27539,1.13086 -0.0703,0.69726 -0.0703,1.52929 0,0.91407 0.0645,1.5293 0.0644,0.61523 0.27539,1.10156 0.19336,0.45703 0.54492,0.69727 0.35742,0.24023 0.94336,0.24023 0.55078,0 0.91406,-0.22851 0.36328,-0.22852 0.5625,-0.69141 z"
       id="text222"
       style="white-space:pre;fill:#e3e3e3;stroke:#313131;stroke-width:0.377953;stroke-opacity:1"
       transform="matrix(0.08176074,0.2516337,-0.2516337,0.08176074,176.2501,-13.683257)"
       aria-label="10" />
    <path
       d="m 364.57031,386.16671 q 0,2.34961 -0.73828,3.45118 -0.73242,1.0957 -2.2793,1.0957 -1.57031,0 -2.29687,-1.11328 -0.7207,-1.11328 -0.7207,-3.42188 0,-2.32617 0.73242,-3.43359 0.73242,-1.11328 2.28515,-1.11328 1.57032,0 2.29102,1.13086 0.72656,1.125 0.72656,3.40429 z m -1.54101,2.66016 q 0.20507,-0.47461 0.27539,-1.11328 0.0762,-0.64453 0.0762,-1.54688 0,-0.89062 -0.0762,-1.54687 -0.0703,-0.65625 -0.28125,-1.11328 -0.20508,-0.45117 -0.5625,-0.67969 -0.35157,-0.22852 -0.90821,-0.22852 -0.55078,0 -0.91406,0.22852 -0.35742,0.22852 -0.56836,0.69141 -0.19922,0.43359 -0.27539,1.13086 -0.0703,0.69726 -0.0703,1.52929 0,0.91407 0.0645,1.5293 0.0645,0.61523 0.27539,1.10156 0.19336,0.45703 0.54492,0.69727 0.35743,0.24023 0.94336,0.24023 0.55079,0 0.91407,-0.22851 0.36328,-0.22852 0.5625,-0.69141 z m 9.11132,-1.06641 q 0,0.60938 -0.22265,1.16602 -0.22266,0.55664 -0.60938,0.9375 -0.42187,0.41016 -1.00781,0.63281 -0.58008,0.2168 -1.34766,0.2168 -0.71484,0 -1.37695,-0.15234 -0.66211,-0.14649 -1.11914,-0.35743 v -1.23632 h 0.082 q 0.48047,0.30468 1.125,0.52148 0.64453,0.21094 1.26563,0.21094 0.41601,0 0.80273,-0.11719 0.39258,-0.11719 0.69727,-0.41016 0.25781,-0.25195 0.38672,-0.60351 0.13476,-0.35156 0.13476,-0.81446 0,-0.45117 -0.1582,-0.76171 -0.15235,-0.31055 -0.42774,-0.49805 -0.30468,-0.22266 -0.74414,-0.31055 -0.43359,-0.0937 -0.97265,-0.0937 -0.51563,0 -0.9961,0.0703 -0.47461,0.0703 -0.82031,0.14063 v -4.49414 h 5.25 v 1.02539 h -4.11914 v 2.32031 q 0.25195,-0.0234 0.51563,-0.0351 0.26367,-0.0117 0.45703,-0.0117 0.70898,0 1.24218,0.12304 0.53321,0.11719 0.97852,0.42188 0.46875,0.32226 0.72656,0.83203 0.25781,0.50977 0.25781,1.27734 z"
       id="text223"
       style="white-space:pre;fill:#e3e3e3;stroke:#313131;stroke-width:0.377953;stroke-opacity:1"
       transform="matrix(0.21405241,0.15551818,-0.15551818,0.21405241,86.57288,-35.778346)"
       aria-label="05" />
    <path
       d="m 364.57031,386.16671 q 0,2.34961 -0.73828,3.45118 -0.73242,1.0957 -2.2793,1.0957 -1.57031,0 -2.29687,-1.11328 -0.7207,-1.11328 -0.7207,-3.42188 0,-2.32617 0.73242,-3.43359 0.73242,-1.11328 2.28515,-1.11328 1.57032,0 2.29102,1.13086 0.72656,1.125 0.72656,3.40429 z m -1.54101,2.66016 q 0.20507,-0.47461 0.27539,-1.11328 0.0762,-0.64453 0.0762,-1.54688 0,-0.89062 -0.0762,-1.54687 -0.0703,-0.65625 -0.28125,-1.11328 -0.20508,-0.45117 -0.5625,-0.67969 -0.35157,-0.22852 -0.90821,-0.22852 -0.55078,0 -0.91406,0.22852 -0.35742,0.22852 -0.56836,0.69141 -0.19922,0.43359 -0.27539,1.13086 -0.0703,0.69726 -0.0703,1.52929 0,0.91407 0.0645,1.5293 0.0645,0.61523 0.27539,1.10156 0.19336,0.45703 0.54492,0.69727 0.35743,0.24023 0.94336,0.24023 0.55079,0 0.91407,-0.22851 0.36328,-0.22852 0.5625,-0.69141 z m 9.16992,-2.66016 q 0,2.34961 -0.73828,3.45118 -0.73242,1.0957 -2.2793,1.0957 -1.57031,0 -2.29687,-1.11328 -0.72071,-1.11328 -0.72071,-3.42188 0,-2.32617 0.73242,-3.43359 0.73243,-1.11328 2.28516,-1.11328 1.57031,0 2.29102,1.13086 0.72656,1.125 0.72656,3.40429 z m -1.54102,2.66016 q 0.20508,-0.47461 0.27539,-1.11328 0.0762,-0.64453 0.0762,-1.54688 0,-0.89062 -0.0762,-1.54687 -0.0703,-0.65625 -0.28125,-1.11328 -0.20507,-0.45117 -0.5625,-0.67969 -0.35156,-0.22852 -0.9082,-0.22852 -0.55078,0 -0.91406,0.22852 -0.35742,0.22852 -0.56836,0.69141 -0.19922,0.43359 -0.27539,1.13086 -0.0703,0.69726 -0.0703,1.52929 0,0.91407 0.0645,1.5293 0.0644,0.61523 0.27539,1.10156 0.19336,0.45703 0.54492,0.69727 0.35742,0.24023 0.94336,0.24023 0.55078,0 0.91406,-0.22851 0.36328,-0.22852 0.5625,-0.69141 z"
       id="text224"
       style="white-space:pre;fill:#e3e3e3;stroke:#313131;stroke-width:0.377953;stroke-opacity:1"
       transform="matrix(0.26458333,0,0,0.26458333,0.77544386,-0.82591769)"
       aria-label="00" />
    <path
       d="m 364.08398,390.53195 h -4.72265 v -0.89063 h 1.8164 v -5.84765 h -1.8164 v -0.79688 q 0.36914,0 0.79101,-0.0586 0.42188,-0.0645 0.63868,-0.18164 0.26953,-0.14649 0.42187,-0.36914 0.1582,-0.22852 0.18164,-0.60938 h 0.9082 v 7.86328 h 1.78125 z m 8.05664,-2.77149 q 0,0.60938 -0.22265,1.16602 -0.22266,0.55664 -0.60938,0.9375 -0.42187,0.41016 -1.00781,0.63281 -0.58008,0.2168 -1.34766,0.2168 -0.71484,0 -1.37695,-0.15234 -0.66211,-0.14649 -1.11914,-0.35743 v -1.23632 h 0.082 q 0.48047,0.30468 1.125,0.52148 0.64453,0.21094 1.26563,0.21094 0.41601,0 0.80273,-0.11719 0.39258,-0.11719 0.69727,-0.41016 0.25781,-0.25195 0.38672,-0.60351 0.13476,-0.35156 0.13476,-0.81446 0,-0.45117 -0.1582,-0.76171 -0.15235,-0.31055 -0.42774,-0.49805 -0.30468,-0.22266 -0.74414,-0.31055 -0.43359,-0.0937 -0.97265,-0.0937 -0.51563,0 -0.9961,0.0703 -0.47461,0.0703 -0.82031,0.14063 v -4.49414 h 5.25 v 1.02539 h -4.11914 v 2.32031 q 0.25195,-0.0234 0.51563,-0.0351 0.26367,-0.0117 0.45703,-0.0117 0.70898,0 1.24218,0.12304 0.53321,0.11719 0.97852,0.42188 0.46875,0.32226 0.72656,0.83203 0.25781,0.50977 0.25781,1.27734 z"
       id="text225"
       style="white-space:pre;fill:#e3e3e3;stroke:#313131;stroke-width:0.377953;stroke-opacity:1"
       transform="matrix(-0.08176075,0.2516337,-0.2516337,-0.08176075,235.90574,56.96782)"
       aria-label="15" />
    <path
       d="m 364.58203,390.53195 h -5.90625 v -1.22461 q 0.61524,-0.52734 1.23047,-1.05469 0.62109,-0.52734 1.1543,-1.04883 1.125,-1.08984 1.54101,-1.72851 0.41602,-0.64453 0.41602,-1.38867 0,-0.67969 -0.45117,-1.06055 -0.44532,-0.38672 -1.24805,-0.38672 -0.5332,0 -1.1543,0.1875 -0.62109,0.1875 -1.21289,0.57422 h -0.0586 v -1.23047 q 0.41601,-0.20508 1.10742,-0.375 0.69727,-0.16992 1.34766,-0.16992 1.34179,0 2.10351,0.65039 0.76172,0.64453 0.76172,1.75195 0,0.49805 -0.12891,0.93164 -0.12304,0.42774 -0.36914,0.81446 -0.22851,0.36328 -0.53906,0.71484 -0.30469,0.35156 -0.74414,0.7793 -0.62695,0.61523 -1.29492,1.19531 -0.66797,0.57422 -1.24805,1.06641 h 4.69336 z m 7.61719,-4.36524 q 0,2.34961 -0.73828,3.45118 -0.73242,1.0957 -2.2793,1.0957 -1.57031,0 -2.29687,-1.11328 -0.72071,-1.11328 -0.72071,-3.42188 0,-2.32617 0.73242,-3.43359 0.73243,-1.11328 2.28516,-1.11328 1.57031,0 2.29102,1.13086 0.72656,1.125 0.72656,3.40429 z m -1.54102,2.66016 q 0.20508,-0.47461 0.27539,-1.11328 0.0762,-0.64453 0.0762,-1.54688 0,-0.89062 -0.0762,-1.54687 -0.0703,-0.65625 -0.28125,-1.11328 -0.20507,-0.45117 -0.5625,-0.67969 -0.35156,-0.22852 -0.9082,-0.22852 -0.55078,0 -0.91406,0.22852 -0.35742,0.22852 -0.56836,0.69141 -0.19922,0.43359 -0.27539,1.13086 -0.0703,0.69726 -0.0703,1.52929 0,0.91407 0.0645,1.5293 0.0644,0.61523 0.27539,1.10156 0.19336,0.45703 0.54492,0.69727 0.35742,0.24023 0.94336,0.24023 0.55078,0 0.91406,-0.22851 0.36328,-0.22852 0.5625,-0.69141 z"
       id="text226"
       style="white-space:pre;fill:#e3e3e3;stroke:#313131;stroke-width:0.377953;stroke-opacity:1"
       transform="matrix(-0.21405241,0.15551818,-0.15551818,-0.21405241,242.8426,149.29864)"
       aria-label="20" />
    <path
       d="m 364.58203,390.53195 h -5.90625 v -1.22461 q 0.61524,-0.52734 1.23047,-1.05469 0.62109,-0.52734 1.1543,-1.04883 1.125,-1.08984 1.54101,-1.72851 0.41602,-0.64453 0.41602,-1.38867 0,-0.67969 -0.45117,-1.06055 -0.44532,-0.38672 -1.24805,-0.38672 -0.5332,0 -1.1543,0.1875 -0.62109,0.1875 -1.21289,0.57422 h -0.0586 v -1.23047 q 0.41601,-0.20508 1.10742,-0.375 0.69727,-0.16992 1.34766,-0.16992 1.34179,0 2.10351,0.65039 0.76172,0.64453 0.76172,1.75195 0,0.49805 -0.12891,0.93164 -0.12304,0.42774 -0.36914,0.81446 -0.22851,0.36328 -0.53906,0.71484 -0.30469,0.35156 -0.74414,0.7793 -0.62695,0.61523 -1.29492,1.19531 -0.66797,0.57422 -1.24805,1.06641 h 4.69336 z m 7.55859,-2.77149 q 0,0.60938 -0.22265,1.16602 -0.22266,0.55664 -0.60938,0.9375 -0.42187,0.41016 -1.00781,0.63281 -0.58008,0.2168 -1.34766,0.2168 -0.71484,0 -1.37695,-0.15234 -0.66211,-0.14649 -1.11914,-0.35743 v -1.23632 h 0.082 q 0.48047,0.30468 1.125,0.52148 0.64453,0.21094 1.26563,0.21094 0.41601,0 0.80273,-0.11719 0.39258,-0.11719 0.69727,-0.41016 0.25781,-0.25195 0.38672,-0.60351 0.13476,-0.35156 0.13476,-0.81446 0,-0.45117 -0.1582,-0.76171 -0.15235,-0.31055 -0.42774,-0.49805 -0.30468,-0.22266 -0.74414,-0.31055 -0.43359,-0.0937 -0.97265,-0.0937 -0.51563,0 -0.9961,0.0703 -0.47461,0.0703 -0.82031,0.14063 v -4.49414 h 5.25 v 1.02539 h -4.11914 v 2.32031 q 0.25195,-0.0234 0.51563,-0.0351 0.26367,-0.0117 0.45703,-0.0117 0.70898,0 1.24218,0.12304 0.53321,0.11719 0.97852,0.42188 0.46875,0.32226 0.72656,0.83203 0.25781,0.50977 0.25781,1.27734 z"
       id="text227"
       style="white-space:pre;fill:#e3e3e3;stroke:#313131;stroke-width:0.377953;stroke-opacity:1"
       transform="matrix(-0.26458333,0,0,-0.26458333,194.05244,227.8632)"
       aria-label="25" />
    <path
       d="m 363.81445,386.33078 q 0.28125,0.25195 0.46289,0.63281 0.18164,0.38086 0.18164,0.98437 0,0.59766 -0.21679,1.09571 -0.2168,0.49804 -0.60938,0.86718 -0.43945,0.41016 -1.03711,0.60938 -0.59179,0.19336 -1.30078,0.19336 -0.72656,0 -1.42969,-0.17578 -0.70312,-0.16992 -1.15429,-0.375 v -1.22461 h 0.0879 q 0.49804,0.32812 1.17187,0.54492 0.67383,0.2168 1.30078,0.2168 0.36914,0 0.78516,-0.12305 0.41602,-0.12305 0.67383,-0.36328 0.26953,-0.25781 0.39844,-0.56836 0.13476,-0.31055 0.13476,-0.78516 0,-0.46875 -0.15234,-0.77343 -0.14649,-0.31055 -0.41016,-0.48633 -0.26367,-0.18164 -0.63867,-0.2461 -0.375,-0.0703 -0.80859,-0.0703 h -0.52735 v -0.97265 h 0.41016 q 0.89062,0 1.41797,-0.36915 0.5332,-0.375 0.5332,-1.08984 0,-0.31641 -0.13477,-0.55078 -0.13476,-0.24023 -0.375,-0.39258 -0.25195,-0.15234 -0.53906,-0.21094 -0.28711,-0.0586 -0.65039,-0.0586 -0.55664,0 -1.18359,0.19922 -0.62696,0.19922 -1.1836,0.5625 h -0.0586 v -1.22461 q 0.41602,-0.20508 1.10742,-0.375 0.69727,-0.17578 1.34766,-0.17578 0.63867,0 1.125,0.11719 0.48633,0.11718 0.8789,0.375 0.42188,0.28125 0.63868,0.67968 0.21679,0.39844 0.21679,0.93164 0,0.72657 -0.51562,1.27149 -0.50977,0.53906 -1.20703,0.67969 v 0.082 q 0.28125,0.0469 0.64453,0.19922 0.36328,0.14648 0.61523,0.36914 z m 8.38477,-0.16407 q 0,2.34961 -0.73828,3.45118 -0.73242,1.0957 -2.2793,1.0957 -1.57031,0 -2.29687,-1.11328 -0.72071,-1.11328 -0.72071,-3.42188 0,-2.32617 0.73242,-3.43359 0.73243,-1.11328 2.28516,-1.11328 1.57031,0 2.29102,1.13086 0.72656,1.125 0.72656,3.40429 z m -1.54102,2.66016 q 0.20508,-0.47461 0.27539,-1.11328 0.0762,-0.64453 0.0762,-1.54688 0,-0.89062 -0.0762,-1.54687 -0.0703,-0.65625 -0.28125,-1.11328 -0.20507,-0.45117 -0.5625,-0.67969 -0.35156,-0.22852 -0.9082,-0.22852 -0.55078,0 -0.91406,0.22852 -0.35742,0.22852 -0.56836,0.69141 -0.19922,0.43359 -0.27539,1.13086 -0.0703,0.69726 -0.0703,1.52929 0,0.91407 0.0645,1.5293 0.0644,0.61523 0.27539,1.10156 0.19336,0.45703 0.54492,0.69727 0.35742,0.24023 0.94336,0.24023 0.55078,0 0.91406,-0.22851 0.36328,-0.22852 0.5625,-0.69141 z"
       id="text228"
       style="white-space:pre;fill:#e3e3e3;stroke:#313131;stroke-width:0.377953;stroke-opacity:1"
       transform="matrix(-0.21405241,-0.15551818,0.15551818,-0.21405241,108.50591,263.02171)"
       aria-label="30" />
    <path
       d="m 363.81445,386.33078 q 0.28125,0.25195 0.46289,0.63281 0.18164,0.38086 0.18164,0.98437 0,0.59766 -0.21679,1.09571 -0.2168,0.49804 -0.60938,0.86718 -0.43945,0.41016 -1.03711,0.60938 -0.59179,0.19336 -1.30078,0.19336 -0.72656,0 -1.42969,-0.17578 -0.70312,-0.16992 -1.15429,-0.375 v -1.22461 h 0.0879 q 0.49804,0.32812 1.17187,0.54492 0.67383,0.2168 1.30078,0.2168 0.36914,0 0.78516,-0.12305 0.41602,-0.12305 0.67383,-0.36328 0.26953,-0.25781 0.39844,-0.56836 0.13476,-0.31055 0.13476,-0.78516 0,-0.46875 -0.15234,-0.77343 -0.14649,-0.31055 -0.41016,-0.48633 -0.26367,-0.18164 -0.63867,-0.2461 -0.375,-0.0703 -0.80859,-0.0703 h -0.52735 v -0.97265 h 0.41016 q 0.89062,0 1.41797,-0.36915 0.5332,-0.375 0.5332,-1.08984 0,-0.31641 -0.13477,-0.55078 -0.13476,-0.24023 -0.375,-0.39258 -0.25195,-0.15234 -0.53906,-0.21094 -0.28711,-0.0586 -0.65039,-0.0586 -0.55664,0 -1.18359,0.19922 -0.62696,0.19922 -1.1836,0.5625 h -0.0586 v -1.22461 q 0.41602,-0.20508 1.10742,-0.375 0.69727,-0.17578 1.34766,-0.17578 0.63867,0 1.125,0.11719 0.48633,0.11718 0.8789,0.375 0.42188,0.28125 0.63868,0.67968 0.21679,0.39844 0.21679,0.93164 0,0.72657 -0.51562,1.27149 -0.50977,0.53906 -1.20703,0.67969 v 0.082 q 0.28125,0.0469 0.64453,0.19922 0.36328,0.14648 0.61523,0.36914 z m 8.32617,1.42968 q 0,0.60938 -0.22265,1.16602 -0.22266,0.55664 -0.60938,0.9375 -0.42187,0.41016 -1.00781,0.63281 -0.58008,0.2168 -1.34766,0.2168 -0.71484,0 -1.37695,-0.15234 -0.66211,-0.14649 -1.11914,-0.35743 v -1.23632 h 0.082 q 0.48047,0.30468 1.125,0.52148 0.64453,0.21094 1.26563,0.21094 0.41601,0 0.80273,-0.11719 0.39258,-0.11719 0.69727,-0.41016 0.25781,-0.25195 0.38672,-0.60351 0.13476,-0.35156 0.13476,-0.81446 0,-0.45117 -0.1582,-0.76171 -0.15235,-0.31055 -0.42774,-0.49805 -0.30468,-0.22266 -0.74414,-0.31055 -0.43359,-0.0937 -0.97265,-0.0937 -0.51563,0 -0.9961,0.0703 -0.47461,0.0703 -0.82031,0.14063 v -4.49414 h 5.25 v 1.02539 h -4.11914 v 2.32031 q 0.25195,-0.0234 0.51563,-0.0351 0.26367,-0.0117 0.45703,-0.0117 0.70898,0 1.24218,0.12304 0.53321,0.11719 0.97852,0.42188 0.46875,0.32226 0.72656,0.83203 0.25781,0.50977 0.25781,1.27734 z"
       id="text229"
       style="white-space:pre;fill:#e3e3e3;stroke:#313131;stroke-width:0.377953;stroke-opacity:1"
       transform="matrix(-0.08176074,-0.2516337,0.2516337,-0.08176074,18.417301,240.86594)"
       aria-label="35" />
    <path
       d="m 364.78125,388.07687 h -1.29492 v 2.45508 h -1.125 v -2.45508 h -4.17774 v -1.34766 l 4.22461,-4.92187 h 1.07813 v 5.33203 h 1.29492 z m -2.41992,-0.9375 v -3.9375 l -3.38086,3.9375 z m 9.83789,-0.97266 q 0,2.34961 -0.73828,3.45118 -0.73242,1.0957 -2.2793,1.0957 -1.57031,0 -2.29687,-1.11328 -0.72071,-1.11328 -0.72071,-3.42188 0,-2.32617 0.73242,-3.43359 0.73243,-1.11328 2.28516,-1.11328 1.57031,0 2.29102,1.13086 0.72656,1.125 0.72656,3.40429 z m -1.54102,2.66016 q 0.20508,-0.47461 0.27539,-1.11328 0.0762,-0.64453 0.0762,-1.54688 0,-0.89062 -0.0762,-1.54687 -0.0703,-0.65625 -0.28125,-1.11328 -0.20507,-0.45117 -0.5625,-0.67969 -0.35156,-0.22852 -0.9082,-0.22852 -0.55078,0 -0.91406,0.22852 -0.35742,0.22852 -0.56836,0.69141 -0.19922,0.43359 -0.27539,1.13086 -0.0703,0.69726 -0.0703,1.52929 0,0.91407 0.0645,1.5293 0.0644,0.61523 0.27539,1.10156 0.19336,0.45703 0.54492,0.69727 0.35742,0.24023 0.94336,0.24023 0.55078,0 0.91406,-0.22851 0.36328,-0.22852 0.5625,-0.69141 z"
       id="text230"
       style="white-space:pre;fill:#e3e3e3;stroke:#313131;stroke-width:0.377953;stroke-opacity:1"
       transform="matrix(0.08176075,-0.2516337,0.2516337,0.08176075,-41.333301,170.18962)"
       aria-label="40" />
    <path
       d="m 364.78125,388.07687 h -1.29492 v 2.45508 h -1.125 v -2.45508 h -4.17774 v -1.34766 l 4.22461,-4.92187 h 1.07813 v 5.33203 h 1.29492 z m -2.41992,-0.9375 v -3.9375 l -3.38086,3.9375 z m 9.77929,0.62109 q 0,0.60938 -0.22265,1.16602 -0.22266,0.55664 -0.60938,0.9375 -0.42187,0.41016 -1.00781,0.63281 -0.58008,0.2168 -1.34766,0.2168 -0.71484,0 -1.37695,-0.15234 -0.66211,-0.14649 -1.11914,-0.35743 v -1.23632 h 0.082 q 0.48047,0.30468 1.125,0.52148 0.64453,0.21094 1.26563,0.21094 0.41601,0 0.80273,-0.11719 0.39258,-0.11719 0.69727,-0.41016 0.25781,-0.25195 0.38672,-0.60351 0.13476,-0.35156 0.13476,-0.81446 0,-0.45117 -0.1582,-0.76171 -0.15235,-0.31055 -0.42774,-0.49805 -0.30468,-0.22266 -0.74414,-0.31055 -0.43359,-0.0937 -0.97265,-0.0937 -0.51563,0 -0.9961,0.0703 -0.47461,0.0703 -0.82031,0.14063 v -4.49414 h 5.25 v 1.02539 h -4.11914 v 2.32031 q 0.25195,-0.0234 0.51563,-0.0351 0.26367,-0.0117 0.45703,-0.0117 0.70898,0 1.24218,0.12304 0.53321,0.11719 0.97852,0.42188 0.46875,0.32226 0.72656,0.83203 0.25781,0.50977 0.25781,1.27734 z"
       id="text231"
       style="white-space:pre;fill:#e3e3e3;stroke:#313131;stroke-width:0.377953;stroke-opacity:1"
       transform="matrix(0.21405241,-0.15551818,0.15551818,0.21405241,-48.150678,77.792845)"
       aria-label="45" />
  </g>
  <g
     id="g5"
     style="display:inline"
     transform="translate(-72.482574,-93.178299)">
    <path
       style="display:inline;fill:#696969;fill-opacity:1;stroke:#000000;stroke-width:0.29;stroke-dasharray:none;stroke-opacity:1"
       d="m 107.02109,113.09622 c 0,5.24417 -4.25124,9.4954 -9.495407,9.4954 -5.244167,0 -9.495404,-4.25123 -9.495407,-9.4954 -3e-6,-5.24417 4.251236,-9.49542 9.495407,-9.49542 5.244177,0 9.495407,4.25125 9.495407,9.49542 z"
       id="path46" />
    <path
       style="display:none;fill:#808080;stroke:#000000;stroke-width:0.29;stroke-dasharray:none;stroke-opacity:1"
       d="m 104.79298,113.09622 c 0,4.01361 -3.25368,7.26729 -7.267296,7.26729 -4.013614,0 -7.267293,-3.25368 -7.267297,-7.26729 -10e-7,-4.01362 3.253679,-7.2673 7.267297,-7.2673 4.013616,0 7.267296,3.25368 7.267296,7.2673 z"
       id="path45" />
    <circle
       style="display:inline;fill:none;stroke:#000000;stroke-width:0.29;stroke-dasharray:none;stroke-opacity:1"
       id="path111"
       cx="25.043428"
       cy="19.906872"
       r="7.2677178"
       transform="translate(72.482574,93.178299)" />
    <g
       id="g217"
       transform="translate(72.482574,93.178299)"
       style="display:inline">
      <path
         style="display:inline;fill:#808080;stroke:#000000;stroke-width:0.242225;stroke-dasharray:none;stroke-opacity:1"
         d="m 34.475224,19.855283 -2.169414,3.12e-4"
         id="path44" />
      <path
         style="display:inline;fill:#808080;stroke:#000000;stroke-width:0.242225;stroke-dasharray:none;stroke-opacity:1"
         d="m 34.448863,20.560215 -2.16337,-0.161826"
         id="path114" />
      <path
         style="display:inline;fill:#808080;stroke:#000000;stroke-width:0.242225;stroke-dasharray:none;stroke-opacity:1"
         d="M 34.369898,21.26121 32.224673,20.938147"
         id="path115" />
      <path
         style="display:inline;fill:#808080;stroke:#000000;stroke-width:0.242225;stroke-dasharray:none;stroke-opacity:1"
         d="M 34.238776,21.954339 32.123695,21.47185"
         id="path116" />
      <path
         style="display:inline;fill:#808080;stroke:#000000;stroke-width:0.242225;stroke-dasharray:none;stroke-opacity:1"
         d="M 34.056225,22.635731 31.983121,21.996516"
         id="path117" />
      <path
         style="display:inline;fill:#808080;stroke:#000000;stroke-width:0.242225;stroke-dasharray:none;stroke-opacity:1"
         d="M 33.823272,23.301574 31.803739,22.509208"
         id="path118" />
      <path
         style="display:inline;fill:#808080;stroke:#000000;stroke-width:0.242225;stroke-dasharray:none;stroke-opacity:1"
         d="M 33.541215,23.94814 31.586547,23.007059"
         id="path119" />
      <path
         style="display:inline;fill:#808080;stroke:#000000;stroke-width:0.242225;stroke-dasharray:none;stroke-opacity:1"
         d="m 33.211633,24.57182 -1.87887,-1.084531"
         id="path120" />
      <path
         style="display:inline;fill:#808080;stroke:#000000;stroke-width:0.242225;stroke-dasharray:none;stroke-opacity:1"
         d="M 32.83637,25.169122 31.043807,23.947209"
         id="path121" />
      <path
         style="display:inline;fill:#808080;stroke:#000000;stroke-width:0.242225;stroke-dasharray:none;stroke-opacity:1"
         d="m 32.417527,25.736706 -1.696234,-1.35246"
         id="path122" />
      <path
         style="display:inline;fill:#808080;stroke:#000000;stroke-width:0.242225;stroke-dasharray:none;stroke-opacity:1"
         d="m 31.957446,26.2714 -1.59042,-1.475441"
         id="path123" />
      <path
         style="display:inline;fill:#808080;stroke:#000000;stroke-width:0.242225;stroke-dasharray:none;stroke-opacity:1"
         d="M 31.458697,26.770209 29.982984,25.180043"
         id="path124" />
      <path
         style="display:inline;fill:#808080;stroke:#000000;stroke-width:0.242225;stroke-dasharray:none;stroke-opacity:1"
         d="M 30.924072,27.230347 29.571317,25.534348"
         id="path125" />
      <path
         style="display:inline;fill:#808080;stroke:#000000;stroke-width:0.242225;stroke-dasharray:none;stroke-opacity:1"
         d="M 30.356558,27.649245 29.134322,25.856899"
         id="path126" />
      <path
         style="display:inline;fill:#808080;stroke:#000000;stroke-width:0.242225;stroke-dasharray:none;stroke-opacity:1"
         d="M 29.759333,28.024552 28.67445,26.145886"
         id="path127" />
      <path
         style="display:inline;fill:#808080;stroke:#000000;stroke-width:0.242225;stroke-dasharray:none;stroke-opacity:1"
         d="M 29.135736,28.354177 28.19427,26.399695"
         id="path128" />
      <path
         style="display:inline;fill:#808080;stroke:#000000;stroke-width:0.242225;stroke-dasharray:none;stroke-opacity:1"
         d="M 28.489254,28.636271 27.696467,26.616903"
         id="path129" />
      <path
         style="display:inline;fill:#808080;stroke:#000000;stroke-width:0.242225;stroke-dasharray:none;stroke-opacity:1"
         d="M 27.823501,28.869262 27.183824,26.796299"
         id="path130" />
      <path
         style="display:inline;fill:#808080;stroke:#000000;stroke-width:0.242225;stroke-dasharray:none;stroke-opacity:1"
         d="M 27.142198,29.051844 26.659207,26.93688"
         id="path131" />
      <path
         style="display:inline;fill:#808080;stroke:#000000;stroke-width:0.242225;stroke-dasharray:none;stroke-opacity:1"
         d="M 26.449163,29.182997 26.125556,27.037854"
         id="path132" />
      <path
         style="display:inline;fill:#808080;stroke:#000000;stroke-width:0.242225;stroke-dasharray:none;stroke-opacity:1"
         d="M 25.748263,29.26199 25.585849,27.098663"
         id="path133" />
      <path
         style="display:inline;fill:#808080;stroke:#000000;stroke-width:0.242225;stroke-dasharray:none;stroke-opacity:1"
         d="m 25.043423,29.288376 -3.14e-4,-2.169415"
         id="path154" />
      <path
         style="display:inline;fill:#808080;stroke:#000000;stroke-width:0.242225;stroke-dasharray:none;stroke-opacity:1"
         d="m 24.33858,29.262011 0.161789,-2.163373"
         id="path155" />
      <path
         style="display:inline;fill:#808080;stroke:#000000;stroke-width:0.242225;stroke-dasharray:none;stroke-opacity:1"
         d="m 23.637678,29.183045 0.322988,-2.145237"
         id="path156" />
      <path
         style="display:inline;fill:#808080;stroke:#000000;stroke-width:0.242225;stroke-dasharray:none;stroke-opacity:1"
         d="m 22.944636,29.051913 0.482383,-2.115104"
         id="path157" />
      <path
         style="display:inline;fill:#808080;stroke:#000000;stroke-width:0.242225;stroke-dasharray:none;stroke-opacity:1"
         d="m 22.263329,28.869354 0.63908,-2.073147"
         id="path158" />
      <path
         style="display:inline;fill:#808080;stroke:#000000;stroke-width:0.242225;stroke-dasharray:none;stroke-opacity:1"
         d="m 21.59757,28.636386 0.792205,-2.019598"
         id="path159" />
      <path
         style="display:inline;fill:#808080;stroke:#000000;stroke-width:0.242225;stroke-dasharray:none;stroke-opacity:1"
         d="m 20.951077,28.354313 0.940902,-1.954755"
         id="path160" />
      <path
         style="display:inline;fill:#808080;stroke:#000000;stroke-width:0.242225;stroke-dasharray:none;stroke-opacity:1"
         d="m 20.327469,28.024709 1.08434,-1.878979"
         id="path162" />
      <path
         style="display:inline;fill:#808080;stroke:#000000;stroke-width:0.242225;stroke-dasharray:none;stroke-opacity:1"
         d="M 19.730232,27.649419 20.95195,25.856722"
         id="path163" />
      <path
         style="display:inline;fill:#808080;stroke:#000000;stroke-width:0.242225;stroke-dasharray:none;stroke-opacity:1"
         d="m 19.162705,27.230542 1.352268,-1.696388"
         id="path164" />
      <path
         style="display:inline;fill:#808080;stroke:#000000;stroke-width:0.242225;stroke-dasharray:none;stroke-opacity:1"
         d="m 18.628065,26.770422 1.475254,-1.590593"
         id="path165" />
      <path
         style="display:inline;fill:#808080;stroke:#000000;stroke-width:0.242225;stroke-dasharray:none;stroke-opacity:1"
         d="m 18.129299,26.271627 1.589995,-1.4759"
         id="path166" />
      <path
         style="display:inline;fill:#808080;stroke:#000000;stroke-width:0.242225;stroke-dasharray:none;stroke-opacity:1"
         d="M 17.669201,25.73695 19.365045,24.384"
         id="path167" />
      <path
         style="display:inline;fill:#808080;stroke:#000000;stroke-width:0.242225;stroke-dasharray:none;stroke-opacity:1"
         d="M 17.250338,25.169382 19.04255,23.94695"
         id="path168" />
      <path
         style="display:inline;fill:#808080;stroke:#000000;stroke-width:0.242225;stroke-dasharray:none;stroke-opacity:1"
         d="m 16.875056,24.572093 1.878556,-1.085074"
         id="path169" />
      <path
         style="display:inline;fill:#808080;stroke:#000000;stroke-width:0.242225;stroke-dasharray:none;stroke-opacity:1"
         d="m 16.545454,23.948422 1.954395,-0.941645"
         id="path170" />
      <path
         style="display:inline;fill:#808080;stroke:#000000;stroke-width:0.242225;stroke-dasharray:none;stroke-opacity:1"
         d="M 16.263374,23.301862 18.28268,22.508915"
         id="path171" />
      <path
         style="display:inline;fill:#808080;stroke:#000000;stroke-width:0.242225;stroke-dasharray:none;stroke-opacity:1"
         d="m 16.030398,22.636029 2.072921,-0.639814"
         id="path172" />
      <path
         style="display:inline;fill:#808080;stroke:#000000;stroke-width:0.242225;stroke-dasharray:none;stroke-opacity:1"
         d="m 15.847827,21.954645 2.11494,-0.483099"
         id="path173" />
      <path
         style="display:inline;fill:#808080;stroke:#000000;stroke-width:0.242225;stroke-dasharray:none;stroke-opacity:1"
         d="m 15.716679,21.261517 2.145132,-0.323681"
         id="path174" />
      <path
         style="display:inline;fill:#808080;stroke:#000000;stroke-width:0.242225;stroke-dasharray:none;stroke-opacity:1"
         d="m 15.637693,20.56053 2.163323,-0.162452"
         id="path175" />
      <path
         style="display:inline;fill:#808080;stroke:#000000;stroke-width:0.242225;stroke-dasharray:none;stroke-opacity:1"
         d="m 15.611307,19.855595 2.169414,-3.12e-4"
         id="path176" />
      <path
         style="display:inline;fill:#808080;stroke:#000000;stroke-width:0.242225;stroke-dasharray:none;stroke-opacity:1"
         d="m 15.63767,19.15066 2.16337,0.161827"
         id="path177" />
      <path
         style="display:inline;fill:#808080;stroke:#000000;stroke-width:0.242225;stroke-dasharray:none;stroke-opacity:1"
         d="m 15.716634,18.449666 2.145225,0.323062"
         id="path178" />
      <path
         style="display:inline;fill:#808080;stroke:#000000;stroke-width:0.242225;stroke-dasharray:none;stroke-opacity:1"
         d="m 15.847757,17.756539 2.11508,0.482489"
         id="path179" />
      <path
         style="display:inline;fill:#808080;stroke:#000000;stroke-width:0.242225;stroke-dasharray:none;stroke-opacity:1"
         d="m 16.030306,17.075147 2.073105,0.639215"
         id="path180" />
      <path
         style="display:inline;fill:#808080;stroke:#000000;stroke-width:0.242225;stroke-dasharray:none;stroke-opacity:1"
         d="m 16.263261,16.409304 2.019534,0.792365"
         id="path181" />
      <path
         style="display:inline;fill:#808080;stroke:#000000;stroke-width:0.242225;stroke-dasharray:none;stroke-opacity:1"
         d="m 16.545319,15.762735 1.954668,0.941081"
         id="path182" />
      <path
         style="display:inline;fill:#808080;stroke:#000000;stroke-width:0.242225;stroke-dasharray:none;stroke-opacity:1"
         d="m 16.874899,15.139059 1.87887,1.08453"
         id="path183" />
      <path
         style="display:inline;fill:#808080;stroke:#000000;stroke-width:0.242225;stroke-dasharray:none;stroke-opacity:1"
         d="m 17.250161,14.541756 1.792564,1.221914"
         id="path184" />
      <path
         style="display:inline;fill:#808080;stroke:#000000;stroke-width:0.242225;stroke-dasharray:none;stroke-opacity:1"
         d="m 17.669005,13.974172 1.696235,1.352459"
         id="path185" />
      <path
         style="display:inline;fill:#808080;stroke:#000000;stroke-width:0.242225;stroke-dasharray:none;stroke-opacity:1"
         d="m 18.129088,13.439479 1.590421,1.47544"
         id="path186" />
      <path
         style="display:inline;fill:#808080;stroke:#000000;stroke-width:0.242225;stroke-dasharray:none;stroke-opacity:1"
         d="m 18.627836,12.940669 1.475713,1.590166"
         id="path187" />
      <path
         style="display:inline;fill:#808080;stroke:#000000;stroke-width:0.242225;stroke-dasharray:none;stroke-opacity:1"
         d="m 19.162464,12.48053 1.352755,1.695998"
         id="path188" />
      <path
         style="display:inline;fill:#808080;stroke:#000000;stroke-width:0.242225;stroke-dasharray:none;stroke-opacity:1"
         d="m 19.729973,12.061636 1.222235,1.792344"
         id="path189" />
      <path
         style="display:inline;fill:#808080;stroke:#000000;stroke-width:0.242225;stroke-dasharray:none;stroke-opacity:1"
         d="m 20.327201,11.686325 1.084882,1.878667"
         id="path190" />
      <path
         style="display:inline;fill:#808080;stroke:#000000;stroke-width:0.242225;stroke-dasharray:none;stroke-opacity:1"
         d="m 20.950794,11.356702 0.941467,1.954482"
         id="path191" />
      <path
         style="display:inline;fill:#808080;stroke:#000000;stroke-width:0.242225;stroke-dasharray:none;stroke-opacity:1"
         d="m 21.597279,11.074608 0.792787,2.019367"
         id="path192" />
      <path
         style="display:inline;fill:#808080;stroke:#000000;stroke-width:0.242225;stroke-dasharray:none;stroke-opacity:1"
         d="m 22.263034,10.841615 0.639677,2.072963"
         id="path193" />
      <path
         style="display:inline;fill:#808080;stroke:#000000;stroke-width:0.242225;stroke-dasharray:none;stroke-opacity:1"
         d="m 22.944335,10.659032 0.482992,2.114966"
         id="path194" />
      <path
         style="display:inline;fill:#808080;stroke:#000000;stroke-width:0.242225;stroke-dasharray:none;stroke-opacity:1"
         d="m 23.63737,10.527881 0.323607,2.145143"
         id="path195" />
      <path
         style="display:inline;fill:#808080;stroke:#000000;stroke-width:0.242225;stroke-dasharray:none;stroke-opacity:1"
         d="m 24.338267,10.448889 0.162414,2.163327"
         id="path196" />
      <path
         style="display:inline;fill:#808080;stroke:#000000;stroke-width:0.242225;stroke-dasharray:none;stroke-opacity:1"
         d="m 25.043109,10.422501 3.14e-4,2.169415"
         id="path197" />
      <path
         style="display:inline;fill:#808080;stroke:#000000;stroke-width:0.242225;stroke-dasharray:none;stroke-opacity:1"
         d="m 25.747954,10.448865 -0.16179,2.163374"
         id="path198" />
      <path
         style="display:inline;fill:#808080;stroke:#000000;stroke-width:0.242225;stroke-dasharray:none;stroke-opacity:1"
         d="M 26.448858,10.527833 26.125869,12.67307"
         id="path199" />
      <path
         style="display:inline;fill:#808080;stroke:#000000;stroke-width:0.242225;stroke-dasharray:none;stroke-opacity:1"
         d="m 27.141895,10.658964 -0.48238,2.115105"
         id="path200" />
      <path
         style="display:inline;fill:#808080;stroke:#000000;stroke-width:0.242225;stroke-dasharray:none;stroke-opacity:1"
         d="m 27.823204,10.841524 -0.639078,2.073147"
         id="path201" />
      <path
         style="display:inline;fill:#808080;stroke:#000000;stroke-width:0.242225;stroke-dasharray:none;stroke-opacity:1"
         d="M 28.488962,11.074493 27.696758,13.09409"
         id="path202" />
      <path
         style="display:inline;fill:#808080;stroke:#000000;stroke-width:0.242225;stroke-dasharray:none;stroke-opacity:1"
         d="m 29.135457,11.356566 -0.940903,1.954755"
         id="path203" />
      <path
         style="display:inline;fill:#808080;stroke:#000000;stroke-width:0.242225;stroke-dasharray:none;stroke-opacity:1"
         d="m 29.759062,11.686169 -1.084341,1.878979"
         id="path204" />
      <path
         style="display:inline;fill:#808080;stroke:#000000;stroke-width:0.242225;stroke-dasharray:none;stroke-opacity:1"
         d="m 30.356302,12.061459 -1.22172,1.792697"
         id="path205" />
      <path
         style="display:inline;fill:#808080;stroke:#000000;stroke-width:0.242225;stroke-dasharray:none;stroke-opacity:1"
         d="m 30.923828,12.480336 -1.352266,1.696389"
         id="path206" />
      <path
         style="display:inline;fill:#808080;stroke:#000000;stroke-width:0.242225;stroke-dasharray:none;stroke-opacity:1"
         d="m 31.45847,12.94046 -1.475255,1.590592"
         id="path207" />
      <path
         style="display:inline;fill:#808080;stroke:#000000;stroke-width:0.242225;stroke-dasharray:none;stroke-opacity:1"
         d="m 31.957233,13.439251 -1.589994,1.4759"
         id="path208" />
      <path
         style="display:inline;fill:#808080;stroke:#000000;stroke-width:0.242225;stroke-dasharray:none;stroke-opacity:1"
         d="m 32.417331,13.973926 -1.695843,1.35295"
         id="path209" />
      <path
         style="display:inline;fill:#808080;stroke:#000000;stroke-width:0.242225;stroke-dasharray:none;stroke-opacity:1"
         d="m 32.836196,14.541498 -1.792211,1.222431"
         id="path210" />
      <path
         style="display:inline;fill:#808080;stroke:#000000;stroke-width:0.242225;stroke-dasharray:none;stroke-opacity:1"
         d="m 33.211479,15.13879 -1.878557,1.085072"
         id="path211" />
      <path
         style="display:inline;fill:#808080;stroke:#000000;stroke-width:0.242225;stroke-dasharray:none;stroke-opacity:1"
         d="M 33.541079,15.762455 31.586683,16.7041"
         id="path212" />
      <path
         style="display:inline;fill:#808080;stroke:#000000;stroke-width:0.242225;stroke-dasharray:none;stroke-opacity:1"
         d="m 33.823159,16.409016 -2.019306,0.792947"
         id="path213" />
      <path
         style="display:inline;fill:#808080;stroke:#000000;stroke-width:0.242225;stroke-dasharray:none;stroke-opacity:1"
         d="m 34.056134,17.074852 -2.07292,0.639812"
         id="path214" />
      <path
         style="display:inline;fill:#808080;stroke:#000000;stroke-width:0.242225;stroke-dasharray:none;stroke-opacity:1"
         d="m 34.238705,17.756233 -2.114941,0.483099"
         id="path215" />
      <path
         style="display:inline;fill:#808080;stroke:#000000;stroke-width:0.242225;stroke-dasharray:none;stroke-opacity:1"
         d="m 34.369851,18.449356 -2.145132,0.323682"
         id="path216" />
      <path
         style="display:inline;fill:#808080;stroke:#000000;stroke-width:0.242225;stroke-dasharray:none;stroke-opacity:1"
         d="m 34.44884,19.15035 -2.163325,0.162451"
         id="path217" />
    </g>
  </g>
</svg>
