<?xml version="1.0" encoding="UTF-8"?>
<svg width="1920" height="1080" version="1.1" viewBox="0 0 1920 1080" xml:space="preserve" xmlns="http://www.w3.org/2000/svg"><rect x="335.01" y="65.804" width="1250" height="948.39" ry="3.8766" fill="#3a3f47"/><path d="m335.01 1014.2v-948.39h1250v948.39z" fill="none" stroke="#000" stroke-linejoin="round" stroke-width="3"/><g stroke="#000" stroke-linejoin="round"><g transform="matrix(2.991 0 0 2.991 188.78 118.52)" stroke-width="1.003"><path d="m422.83 17.599h-329.96v246.63h329.96z" fill="none"/><path d="m422.83 17.599h-329.96l72.261 58.846h177.75z" fill="#282b30"/><path d="m92.863 17.599v246.63l72.261-54.927v-132.86z" fill="#23252a"/><path d="m422.83 17.599v246.63l-79.951-54.927v-132.86z" fill="#23252a"/><path d="m422.83 264.23h-329.96l72.261-54.927h177.75z" fill="#35383f"/><path d="m342.88 76.444h-177.75v132.86h177.75z" fill="#32363c"/></g><path d="m1920 1000.1-466.54-91.245v-737.69l466.54-61.278" fill="#4b515b" stroke-width="3"/><path d="m1920 950.59-501.48-81.099v-655.66l501.48-54.464" fill="#555c67" stroke-width="2.9323"/></g></svg>
