<?xml version="1.0" encoding="UTF-8" standalone="no"?>
<!-- Created with Inkscape (http://www.inkscape.org/) -->

<svg
   width="49.851883mm"
   height="40.83638mm"
   viewBox="0 0 49.851883 40.83638"
   version="1.1"
   id="svg1"
   sodipodi:docname="safe_dial_draft2_shadows_zarvox.svg"
   inkscape:version="1.3.2 (091e20e, 2023-11-25)"
   xmlns:inkscape="http://www.inkscape.org/namespaces/inkscape"
   xmlns:sodipodi="http://sodipodi.sourceforge.net/DTD/sodipodi-0.dtd"
   xmlns="http://www.w3.org/2000/svg"
   xmlns:svg="http://www.w3.org/2000/svg">
  <sodipodi:namedview
     id="namedview1"
     pagecolor="#ffffff"
     bordercolor="#000000"
     borderopacity="0.25"
     inkscape:showpageshadow="2"
     inkscape:pageopacity="0.0"
     inkscape:pagecheckerboard="0"
     inkscape:deskcolor="#d1d1d1"
     inkscape:document-units="mm"
     inkscape:zoom="1.5290696"
     inkscape:cx="94.501912"
     inkscape:cy="76.844116"
     inkscape:window-width="1480"
     inkscape:window-height="892"
     inkscape:window-x="34"
     inkscape:window-y="2283"
     inkscape:window-maximized="1"
     inkscape:current-layer="svg1" />
  <defs
     id="defs1">
    <rect
       x="357.73291"
       y="379.58398"
       width="17.064375"
       height="15.108079"
       id="rect154" />
    <rect
       x="357.73291"
       y="379.58398"
       width="37.146786"
       height="50.257416"
       id="rect155" />
    <rect
       x="357.73291"
       y="379.58398"
       width="37.146786"
       height="50.257416"
       id="rect156" />
    <rect
       x="357.73291"
       y="379.58398"
       width="37.146786"
       height="50.257416"
       id="rect157" />
    <rect
       x="357.73291"
       y="379.58398"
       width="37.146786"
       height="50.257416"
       id="rect158" />
    <rect
       x="357.73291"
       y="379.58398"
       width="37.146786"
       height="50.257416"
       id="rect158-9" />
    <rect
       x="357.73291"
       y="379.58398"
       width="37.146786"
       height="50.257416"
       id="rect158-9-2" />
    <rect
       x="357.73291"
       y="379.58398"
       width="37.146786"
       height="50.257416"
       id="rect159" />
    <rect
       x="357.73291"
       y="379.58398"
       width="37.146786"
       height="50.257416"
       id="rect160" />
    <rect
       x="357.73291"
       y="379.58398"
       width="37.146786"
       height="50.257416"
       id="rect161" />
    <rect
       x="357.73291"
       y="379.58398"
       width="37.146786"
       height="50.257416"
       id="rect21" />
    <rect
       x="357.73291"
       y="379.58398"
       width="17.064375"
       height="15.108079"
       id="rect22" />
    <rect
       x="357.73291"
       y="379.58398"
       width="37.146786"
       height="50.257416"
       id="rect23" />
    <rect
       x="357.73291"
       y="379.58398"
       width="37.146786"
       height="50.257416"
       id="rect24" />
    <rect
       x="357.73291"
       y="379.58398"
       width="37.146786"
       height="50.257416"
       id="rect25" />
    <rect
       x="357.73291"
       y="379.58398"
       width="37.146786"
       height="50.257416"
       id="rect26" />
    <rect
       x="357.73291"
       y="379.58398"
       width="37.146786"
       height="50.257416"
       id="rect27" />
    <rect
       x="357.73291"
       y="379.58398"
       width="37.146786"
       height="50.257416"
       id="rect28" />
    <rect
       x="357.73291"
       y="379.58398"
       width="37.146786"
       height="50.257416"
       id="rect29" />
    <rect
       x="357.73291"
       y="379.58398"
       width="37.146786"
       height="50.257416"
       id="rect30" />
  </defs>
  <g
     id="g218"
     transform="translate(-72.895533,-96.234194)"
     style="display:inline">
    <g
       id="g1"
       transform="translate(-1.0833333e-6)"
       style="display:inline">
      <path
         style="display:inline;fill:#060a23;fill-opacity:0.3;stroke:none;stroke-width:0.5;stroke-dasharray:none;stroke-opacity:1"
         d="m 111.24045,105.67929 a 17.344831,17.344831 0 0 1 2.12219,5.26301 17.344831,17.344831 0 0 1 -13.17947,20.68762 17.344831,17.344831 0 0 1 -17.137496,-5.95696 17.344831,17.344831 0 0 0 18.530056,7.92164 17.344831,17.344831 0 0 0 13.17947,-20.68762 17.344831,17.344831 0 0 0 -3.51475,-7.22769 z"
         id="path2" />
    </g>
    <g
       id="g221"
       transform="translate(-1.0833333e-6)"
       style="display:inline">
      <path
         id="path221"
         style="display:inline;fill:#060a23;fill-opacity:0.35;stroke:none;stroke-width:0.27337;stroke-dasharray:none;stroke-opacity:1"
         d="m 105.28787,110.14807 c 0.5421,0.88897 0.93398,1.86099 1.16014,2.87735 1.13352,5.11317 -2.09261,10.17732 -7.205764,11.31093 -3.487325,0.76467 -7.108796,-0.49432 -9.36997,-3.25716 0.06581,0.10808 0.133504,0.21466 0.203088,0.31936 2.226784,3.38011 6.813075,6.25253 10.711486,5.3976 5.19768,-1.15235 8.47739,-6.3003 7.32514,-11.498 -0.29118,-1.30944 -1.53778,-3.43135 -2.48357,-4.70824 -3.9e-4,-5.4e-4 -6.4e-4,-0.001 -0.001,-0.002 -0.1087,-0.14977 -0.22188,-0.29671 -0.33952,-0.44029 z" />
    </g>
    <g
       id="layer13"
       transform="translate(72.895533,96.234194)"
       style="display:inline">
      <path
         style="display:inline;fill:#ffd079;fill-opacity:0.13;stroke:none;stroke-width:0.5;stroke-dasharray:none;stroke-opacity:1"
         d="m 84.43219,127.73955 c -0.991532,-1.62593 -0.938985,-3.21168 -1.352653,-5.07063 -2.073231,-9.35212 3.827382,-18.61422 13.17947,-20.68762 6.378393,-1.39859 12.232223,0.7113 16.367963,5.76458 -3.85187,-6.32597 -11.29558,-9.508174 -18.53006,-7.921638 -9.352087,2.073388 -15.2527,11.335498 -13.17947,20.687618 0.589551,2.65118 1.793451,5.12687 3.51475,7.22769 z"
         id="path218"
         transform="translate(-72.895534,-96.234194)" />
    </g>
    <g
       id="g220"
       transform="translate(72.895533,96.234194)">
      <path
         style="display:inline;fill:#ffd07a;fill-opacity:0.14;stroke:none;stroke-width:0.272404;stroke-dasharray:none;stroke-opacity:1"
         d="m 17.678904,25.867555 a 9.4496274,9.4496274 0 0 1 -1.156189,-2.867338 9.4496274,9.4496274 0 0 1 7.180298,-11.270809 9.4496274,9.4496274 0 0 1 9.336673,3.245407 9.4496274,9.4496274 0 0 0 -10.095351,-4.315783 9.4496274,9.4496274 0 0 0 -7.1803,11.270809 9.4496274,9.4496274 0 0 0 1.914869,3.937714 z"
         id="path220" />
    </g>
    <g
       id="layer11"
       style="display:none"
       transform="translate(72.895533,96.234194)">
      <path
         style="display:inline;fill:#201d39;fill-opacity:0.276442;stroke:none;stroke-width:0.499999;stroke-dasharray:none;stroke-opacity:1"
         d="m 91.023613,118.20886 c 0.332407,0.31844 1.627719,1.35883 2.267873,1.76335 0.743453,0.46979 1.514683,0.8574 2.356086,0.99316 1.64546,0.2655 3.446632,0.24781 4.984638,-0.3945 1.52509,-0.63692 2.8754,-1.81906 3.7529,-3.24033 0.77161,-1.24977 0.85358,-2.21729 0.97154,-3.68132 0.074,-0.91845 -0.14449,-2.85116 -0.36934,-3.74474 -0.19078,-0.75832 -0.52145,-1.73599 -0.90042,-2.16616 -0.37896,-0.43016 -0.86283,-1.29733 -1.26013,-1.70264 -0.3282,-0.33481 -1.0737,-1.30932 -1.0737,-1.30932 l 0.146,-0.2044 c 0,0 0.63737,0.23959 0.89112,0.39109 0.25376,0.15149 0.55605,0.33668 0.75017,0.47148 0.37684,0.26167 0.74137,0.54304 1.08374,0.84843 0.29973,0.26736 0.58098,0.5562 0.84592,0.85807 0.24681,0.2812 0.47692,0.57774 0.69034,0.88505 0.20953,0.30171 0.40399,0.61478 0.57747,0.93856 0.20326,0.37937 0.38744,0.77032 0.54078,1.17246 0.16926,0.44389 0.3125,0.89946 0.41632,1.36305 0.1179,0.52646 0.19231,1.06371 0.23257,1.6017 0.0287,0.38296 0.0248,0.76851 0.006,1.15208 -0.0167,0.34031 -0.0536,0.67995 -0.1053,1.01671 -0.048,0.31213 -0.11181,0.62215 -0.18978,0.92816 -0.0794,0.31173 -0.1724,0.62055 -0.28269,0.92274 -0.13074,0.35821 -0.28146,0.70958 -0.44825,1.05249 -0.12573,0.25849 -0.2646,0.51099 -0.41553,0.75562 -0.20045,0.32488 -0.41568,0.64146 -0.64934,0.94334 -0.22372,0.28903 -0.46394,0.56602 -0.71849,0.8283 -0.26745,0.27557 -0.54869,0.53911 -0.8473,0.78057 -0.37393,0.30237 -0.76906,0.57976 -1.17789,0.83296 -0.28801,0.17837 -0.58872,0.33675 -0.89503,0.48145 -0.32852,0.1552 -0.66376,0.29883 -1.00851,0.41355 -0.52295,0.17401 -1.05964,0.30918 -1.600653,0.41435 -0.269564,0.0524 -0.542943,0.0871 -0.816805,0.10738 -0.490121,0.0363 -0.983303,0.0493 -1.47417,0.0251 -0.40045,-0.0197 -0.800113,-0.068 -1.194807,-0.13846 -0.41864,-0.0747 -0.835622,-0.16858 -1.239825,-0.30073 -0.593997,-0.19421 -1.180783,-0.42372 -1.731153,-0.71976 -0.626399,-0.33694 -1.214801,-0.74726 -1.769513,-1.19246 -0.31666,-0.25414 -0.607131,-0.54113 -0.883234,-0.83884 -0.301482,-0.32507 -0.588129,-0.66628 -0.840839,-1.03056 -0.340648,-0.49104 -0.648798,-1.00788 -0.904262,-1.54816 -0.240599,-0.50884 -0.422187,-1.04511 -0.586494,-1.58345 -0.06223,-0.2039 -0.113556,-0.40437 -0.150617,-0.62157 -0.03706,-0.2172 -0.06186,-0.31352 -0.109668,-0.62083 -0.04781,-0.30731 -0.05204,-0.55406 -0.08429,-0.82438 -0.03225,-0.27032 -0.02232,-0.83155 -0.0127,-0.93778 0.01925,-0.21247 0.140118,-1.38499 0.269282,-1.0834 0.06458,0.15079 0.161486,0.87668 0.286688,1.30362 0.192781,0.6574 0.429338,1.30396 0.712519,1.92778 0.229945,0.50654 0.472313,1.01464 0.797516,1.46597 0.331791,0.46048 0.75141,0.85261 1.161258,1.24522 z"
         id="path4"
         transform="translate(-72.482575,-93.178299)" />
    </g>
    <g
       id="layer14"
       style="display:none">
      <path
         style="fill:#9a774e;fill-opacity:0.206731;stroke:none;stroke-width:0.289999;stroke-dasharray:none;stroke-opacity:1"
         d="m 91.396491,115.4085 c 0.412951,-1.16049 1.043081,-2.28162 1.891779,-3.17435 0.796552,-0.83787 1.808669,-1.50384 2.885765,-1.92383 1.028112,-0.4009 2.172395,-0.62177 3.270534,-0.51303 1.292181,0.12795 3.655301,1.34669 3.655301,1.34669 0,0 -0.1927,-1.33888 -0.4589,-1.95198 -0.30055,-0.69223 -0.62719,-1.46676 -1.25647,-1.88331 -0.97479,-0.64525 -2.277064,-0.67387 -3.445858,-0.65199 -1.398952,0.0262 -2.80989,0.37461 -4.092315,0.9342 -0.858983,0.37482 -1.635981,0.94646 -2.322958,1.58396 -0.687005,0.63752 -1.269268,1.3956 -1.752937,2.19839 -0.363356,0.6031 -0.782595,1.23473 -0.844593,1.93609 -0.08391,0.94926 0.29063,1.90425 0.665708,2.78029 0.335399,0.78337 1.388263,2.14665 1.388263,2.14665 0,0 0.09726,-1.93015 0.416681,-2.82778 z"
         id="path219" />
    </g>
  </g>
</svg>
