<?xml version="1.0" encoding="UTF-8"?>
<svg width="1920" height="1080" version="1.1" viewBox="0 0 1920 1080" xml:space="preserve" xmlns="http://www.w3.org/2000/svg"><rect x="734.57" y="368.96" width="451" height="342" ry="1.3979" fill="#3a3f47"/><path d="m734.5 710.5v-342h451v342z" fill="none" stroke="#000" stroke-linejoin="round" stroke-width="3"/><g transform="matrix(1.8002 0 0 1.8002 784.65 335.51)" stroke-width="1.6665"><path d="m-1.4638 39.693h197.74v147.81h-197.74z" fill="#3a3f47" stroke="#000" stroke-width="1.6665"/></g><g><g transform="matrix(2.5625 0 0 2.5625 896.13 487.68)"><g transform="translate(-72.483 -93.178)" display="none" fill="#ccc" stroke="#d9d9d9" stroke-width=".5"><path d="m97.45 96.17-0.08259 34.854"/><path d="m99.634 96.312-4.4503 34.569"/><path d="m101.78 96.727-8.7478 33.738"/><path d="m103.86 97.409-12.907 32.376"/><path d="m105.84 98.345-16.863 30.503"/><path d="m107.69 99.522-20.553 28.149"/><path d="m109.37 100.92-23.919 25.351"/><path d="m110.86 102.52-26.908 22.153"/><path d="m112.14 104.29-29.472 18.606"/><path d="m113.19 106.21-31.572 14.765"/><path d="m114 108.25-33.173 10.692"/><path d="m114.53 110.37-34.252 6.4498"/><path d="m114.8 112.54-34.79 2.106"/><path d="m114.8 114.73-34.78-2.2709"/><path d="m114.52 116.9-34.221-6.6121"/><path d="m113.97 119.02-33.122-10.849"/><path d="m113.16 121.05-31.501-14.915"/><path d="m112.1 122.97-29.384-18.745"/><path d="m110.81 124.74-26.803-22.28"/><path d="m109.31 126.33-23.799-25.464"/><path d="m107.62 127.72-20.42-28.246"/><path d="m105.77 128.89-16.719-30.582"/><path d="m103.79 129.81-12.754-32.437"/><path d="m101.7 130.49-8.5878-33.779"/><path d="m99.552 130.89-4.2864-34.589"/></g><g transform="translate(-72.483 -93.178)" display="none"><g transform="matrix(.98013 0 0 .98013 2.1452 2.4587)"><g transform="matrix(1.0203 0 0 1.0203 -2.6101 -5.6264)" display="inline"><ellipse transform="matrix(.98013 0 0 .98013 2.1534 2.5195)" cx="98.078" cy="116.54" rx="10.283" ry="10.243" display="inline" fill="#333" fill-opacity=".81923"/></g><path d="m102.11 119.96 0.58401 1.022m-1.3724-0.64419 0.3802 1.202m-1.4898-0.82057 0.292 1.314m-1.1972-1.1096 0.146 1.3724m-1.2264-1.46-0.146 1.7812m-1.0804-2.0148-0.26281 1.9564m-1.2264-2.3652-0.55481 2.1608m-0.70081-2.8033-0.96362 2.0732m-0.23361-3.2413-1.8104 2.1024m0.84682-3.3581-2.5404 1.6352m1.8396-3.2705-3.0661 1.3432m17.468-2.855 1.1035 0.11917m-15.722-0.0366-3.3037 0.57814m3.2211-2.23-3.4689-0.16519h0.08259m3.6476-1.2389c0.61328 0.2136-2.216-0.66073-3.2347-0.9911m17.675 2.6429 1.1371-0.0876m-4.0278 6.6949 0.67431 1.0371m0.17461-1.6613 0.72033 0.87193m-0.0366-1.6911 0.69731 0.69996m-0.14219-1.5327 0.81676 0.63713m-0.4268-1.4996 0.8557 0.49555m-0.61294-1.1755 0.90851 0.29616m0.35957-4.0912-1.2631 0.28199m1.1563-1.1755-1.2389 0.33037m0.82592-1.3215-1.2389 0.41296m0.74333-1.6518-1.2389 0.82592m0.51855-2.104-1.0967 1.1955m0.24777-2.23-1.0141 1.5855m2.4182 6.9215 0.9911 0.2044m-0.85511-1.6769 1.1129 5e-3m-3.4789-7.7828-0.92355 1.832m-0.15015-2.8232-0.74332 2.23m-0.74333-2.7255-0.33037 2.3126m-1.2389-2.8081 0.08259 2.5739m-1.3215-2.8949 0.41296 2.7987m-2.0648-2.7255 0.90851 2.8081m-4.5425-1.7344 2.0648 2.6429m-0.57814-3.2211 1.6586 2.7621m-4.3842-1.358 2.44 2.4524m-3.844-1.1309 2.7547 2.0556m-4.1494-0.2454c2.3952 1.4041 3.1541 1.722 3.1541 1.722m13.947 3.4487c0 4.095-3.3196 7.4146-7.4146 7.4146-4.095 0-7.4146-3.3196-7.4146-7.4146-1e-6 -4.095 3.3196-7.4146 7.4146-7.4146 4.095 0 7.4146 3.3196 7.4146 7.4146zm1.1063-0.56134c0 5.3505-4.3374 9.6879-9.6879 9.6879-5.3505 0-9.6879-4.3374-9.6879-9.6879s4.3374-9.6879 9.6879-9.6879c5.3505 0 9.6879 4.3374 9.6879 9.6879z" display="inline" fill="#808080" stroke="#000" stroke-width=".29588"/><path transform="matrix(1.0203 0 0 1.0203 -2.1887 -2.5086)" d="m88.373 114.8c0.8204 2.2104 1.5711 3.3848 2.932 4.5838 1.1088 0.97695 2.5533 1.6272 4.0057 1.8996 1.5056 0.28244 3.1302 0.15297 4.5838-0.33037 1.8153-0.60358 3.7042-1.6509 4.8316-3.0972 0.70996-0.91075 1.1674-2.2698 1.2802-3.5101 0.18577-2.0441-0.18536-4.2009-1.0324-6.0705-0.46843-1.034-1.3528-1.8323-2.1474-2.6429-0.3282-0.33481-1.0737-0.90852-1.0737-0.90852l0.57814-0.0826 1.9822 1.4866 1.4867 1.8996 0.82591 2.3126 0.41296 2.5604v1.8996l-0.90851 2.8081-1.8996 2.5603-2.6429 1.7344-2.4778 0.66073-4.1296 0.16519-3.3037-1.7344-1.6518-2.0648-1.4867-2.8081s-0.35118-1.8226-0.16518-1.3215z" display="inline" fill="#333" fill-opacity=".39423"/></g></g><g transform="translate(-72.483 -93.178)" display="none"><circle cx="97.409" cy="113.6" r="13.801" fill="none" stroke="#ff0101" stroke-width=".39784"/><circle cx="97.409" cy="113.6" r="15.28" fill="none" stroke="#000" stroke-width=".44047"/><text transform="matrix(.081761 .25163 -.25163 .081761 176.25 -13.683)" display="inline" fill="#e3e3e3" stroke="#393939" stroke-width=".37795" style="shape-inside:url(#rect155);white-space:pre" xml:space="preserve"><tspan x="357.73242" y="390.53195">10</tspan></text><text transform="matrix(.21405 .15552 -.15552 .21405 86.573 -35.778)" display="inline" fill="#e3e3e3" stroke="#393939" stroke-width=".37795" style="shape-inside:url(#rect154);white-space:pre" xml:space="preserve"><tspan x="357.73242" y="390.53195">05</tspan></text><text transform="matrix(.26458 0 0 .26458 .77544 -.82592)" display="inline" fill="#e3e3e3" stroke="#393939" stroke-width=".37795" style="shape-inside:url(#rect156);white-space:pre" xml:space="preserve"><tspan x="357.73242" y="390.53195">00</tspan></text><text transform="matrix(-.081761 .25163 -.25163 -.081761 235.91 56.968)" display="inline" fill="#e3e3e3" stroke="#393939" stroke-width=".37795" style="shape-inside:url(#rect157);white-space:pre" xml:space="preserve"><tspan x="357.73242" y="390.53195">15</tspan></text><text transform="matrix(-.21405 .15552 -.15552 -.21405 242.84 149.3)" display="inline" fill="#e3e3e3" stroke="#393939" stroke-width=".37795" style="shape-inside:url(#rect158);white-space:pre" xml:space="preserve"><tspan x="357.73242" y="390.53195">20</tspan></text><text transform="matrix(-.26458 0 0 -.26458 194.05 227.86)" display="inline" fill="#e3e3e3" stroke="#393939" stroke-width=".37795" style="shape-inside:url(#rect158-9);white-space:pre" xml:space="preserve"><tspan x="357.73242" y="390.53195">25</tspan></text><text transform="matrix(-.21405 -.15552 .15552 -.21405 108.51 263.02)" display="inline" fill="#e3e3e3" stroke="#393939" stroke-width=".37795" style="shape-inside:url(#rect158-9-2);white-space:pre" xml:space="preserve"><tspan x="357.73242" y="390.53195">30</tspan></text><text transform="matrix(-.081761 -.25163 .25163 -.081761 18.417 240.87)" display="inline" fill="#e3e3e3" stroke="#393939" stroke-width=".37795" style="shape-inside:url(#rect159);white-space:pre" xml:space="preserve"><tspan x="357.73242" y="390.53195">35</tspan></text><text transform="matrix(.081761 -.25163 .25163 .081761 -41.333 170.19)" display="inline" fill="#e3e3e3" stroke="#393939" stroke-width=".37795" style="shape-inside:url(#rect160);white-space:pre" xml:space="preserve"><tspan x="357.73242" y="390.53195">40</tspan></text><text transform="matrix(.21405 -.15552 .15552 .21405 -48.151 77.793)" display="inline" fill="#e3e3e3" stroke="#393939" stroke-width=".37795" style="shape-inside:url(#rect161);white-space:pre" xml:space="preserve"><tspan x="357.73242" y="390.53195">45</tspan></text></g><g transform="translate(-72.483 -93.178)" display="none" fill="#000000" stroke-width=".37795"><text transform="matrix(.081761 .25163 -.25163 .081761 176.4 -13.596)" display="inline" style="shape-inside:url(#rect21);white-space:pre" xml:space="preserve"><tspan x="357.73242" y="390.53195">10</tspan></text><text transform="matrix(.21405 .15552 -.15552 .21405 86.719 -35.691)" display="inline" style="shape-inside:url(#rect22);white-space:pre" xml:space="preserve"><tspan x="357.73242" y="390.53195">05</tspan></text><text transform="matrix(.26458 0 0 .26458 .92145 -.73832)" display="inline" style="shape-inside:url(#rect23);white-space:pre" xml:space="preserve"><tspan x="357.73242" y="390.53195">00</tspan></text><text transform="matrix(-.081761 .25163 -.25163 -.081761 236.05 57.055)" display="inline" style="shape-inside:url(#rect24);white-space:pre" xml:space="preserve"><tspan x="357.73242" y="390.53195">15</tspan></text><text transform="matrix(-.21405 .15552 -.15552 -.21405 242.99 149.39)" display="inline" style="shape-inside:url(#rect25);white-space:pre" xml:space="preserve"><tspan x="357.73242" y="390.53195">20</tspan></text><text transform="matrix(-.26458 0 0 -.26458 194.2 227.95)" display="inline" style="shape-inside:url(#rect26);white-space:pre" xml:space="preserve"><tspan x="357.73242" y="390.53195">25</tspan></text><text transform="matrix(-.21405 -.15552 .15552 -.21405 108.65 263.11)" display="inline" style="shape-inside:url(#rect27);white-space:pre" xml:space="preserve"><tspan x="357.73242" y="390.53195">30</tspan></text><text transform="matrix(-.081761 -.25163 .25163 -.081761 18.563 240.95)" display="inline" style="shape-inside:url(#rect28);white-space:pre" xml:space="preserve"><tspan x="357.73242" y="390.53195">35</tspan></text><text transform="matrix(.081761 -.25163 .25163 .081761 -41.187 170.28)" display="inline" style="shape-inside:url(#rect29);white-space:pre" xml:space="preserve"><tspan x="357.73242" y="390.53195">40</tspan></text><text transform="matrix(.21405 -.15552 .15552 .21405 -48.005 77.88)" display="inline" style="shape-inside:url(#rect30);white-space:pre" xml:space="preserve"><tspan x="357.73242" y="390.53195">45</tspan></text></g><g transform="translate(-72.483 -93.178)"><circle cx="97.409" cy="113.6" r="17.595" fill="#4a4f56"/></g><g transform="translate(-72.483 -93.178)" fill="none" stroke="#d9d9d9" stroke-width=".39025"><path d="m95.459 128.74-0.27602 2.144"/><path d="m99.634 96.312-0.27469 2.1338"/><path d="m93.58 128.36-0.54561 2.1043"/><path d="m101.78 96.727-0.53957 2.081"/><path d="m91.763 127.76-0.80821 2.0273"/><path d="m103.86 97.409-0.79645 1.9978"/><path d="m90.034 126.93-1.0575 1.9129"/><path d="m105.84 98.345-1.0408 1.8826"/><path d="m86.945 124.69-1.4957 1.5852"/><path d="m109.37 100.92-1.4764 1.5648"/><path d="m85.63 123.29-1.6753 1.3793"/><path d="m110.86 102.52-1.6583 1.3653"/><path d="m84.495 121.75-1.8227 1.1507"/><path d="m112.14 104.29-1.8196 1.1487"/><path d="m83.576 120.07-1.9534 0.91354"/><path d="m113.19 106.21-1.9467 0.91041"/><path d="m82.425 116.42-2.1425 0.40345"/><path d="m114.53 110.37-2.113 0.3979"/><path d="m82.195 114.52-2.1813 0.13204"/><path d="m114.8 112.54-2.1461 0.12992"/><path d="m82.2 112.6-2.1813-0.14243"/><path d="m114.8 114.73-2.1808-0.14239"/><path d="m82.441 110.7-2.1425-0.41397"/><path d="m114.52 116.9-2.1425-0.41396"/><path d="m83.611 107.06-1.9528-0.92459"/><path d="m113.16 121.05-1.9528-0.92459"/><path d="m84.53 105.38-1.8132-1.1567"/><path d="m112.1 122.97-1.8132-1.1567"/><path d="m85.673 103.84-1.666-1.3849"/><path d="m110.81 124.74-1.666-1.3849"/><path d="m86.996 102.46-1.4869-1.5909"/><path d="m109.31 126.33-1.4867-1.5907"/><path d="m90.098 100.22-1.0486-1.9182"/><path d="m105.77 128.89-1.0486-1.9182"/><path d="m91.831 99.411-0.7991-2.0324"/><path d="m103.79 129.81-0.7991-2.0324"/><path d="m93.651 98.817-0.53641-2.1099"/><path d="m101.7 130.49-0.53641-2.1099"/><path d="m95.532 98.451-0.26627-2.1487"/><path d="m99.552 130.89-0.26634-2.1492"/></g><g transform="translate(-72.483 -93.178)" fill="none" stroke="#d9d9d9" stroke-width=".7805"><path d="m97.376 127.39-0.0086 3.6287"/><path d="m97.45 96.17-0.0086 3.6267"/><path d="m89.29 124.71-2.1584 2.956"/><path d="m107.69 99.522-2.1398 2.9306"/><path d="m84.293 117.82-3.4711 1.1188"/><path d="m114 108.25-3.454 1.1132"/><path d="m89.342 102.44-2.1436-2.9652"/><path d="m107.62 127.72-2.1436-2.9652"/><path d="m84.316 109.31-3.4684-1.1361"/><path d="m113.97 119.02-3.4684-1.136"/></g><g transform="translate(-72.483 -93.178)"><circle cx="97.409" cy="113.6" r="17.345" fill="none" stroke="#000" stroke-width="1.1707"/></g><g transform="translate(-72.483 -93.178)" display="none" fill="#e3e3e3" stroke="#313131" stroke-width=".37795"><path transform="matrix(.081761 .25163 -.25163 .081761 176.25 -13.683)" d="m364.08 390.53h-4.7226v-0.89063h1.8164v-5.8476h-1.8164v-0.79688q0.36914 0 0.79101-0.0586 0.42188-0.0645 0.63868-0.18164 0.26953-0.14649 0.42187-0.36914 0.1582-0.22852 0.18164-0.60938h0.9082v7.8633h1.7812zm8.1152-4.3652q0 2.3496-0.73828 3.4512-0.73242 1.0957-2.2793 1.0957-1.5703 0-2.2969-1.1133-0.72071-1.1133-0.72071-3.4219 0-2.3262 0.73242-3.4336 0.73243-1.1133 2.2852-1.1133 1.5703 0 2.291 1.1309 0.72656 1.125 0.72656 3.4043zm-1.541 2.6602q0.20508-0.47461 0.27539-1.1133 0.0762-0.64453 0.0762-1.5469 0-0.89062-0.0762-1.5469-0.0703-0.65625-0.28125-1.1133-0.20507-0.45117-0.5625-0.67969-0.35156-0.22852-0.9082-0.22852-0.55078 0-0.91406 0.22852-0.35742 0.22852-0.56836 0.69141-0.19922 0.43359-0.27539 1.1309-0.0703 0.69726-0.0703 1.5293 0 0.91407 0.0645 1.5293 0.0644 0.61523 0.27539 1.1016 0.19336 0.45703 0.54492 0.69727 0.35742 0.24023 0.94336 0.24023 0.55078 0 0.91406-0.22851 0.36328-0.22852 0.5625-0.69141z" style="white-space:pre" aria-label="10"/><path transform="matrix(.21405 .15552 -.15552 .21405 86.573 -35.778)" d="m364.57 386.17q0 2.3496-0.73828 3.4512-0.73242 1.0957-2.2793 1.0957-1.5703 0-2.2969-1.1133-0.7207-1.1133-0.7207-3.4219 0-2.3262 0.73242-3.4336 0.73242-1.1133 2.2852-1.1133 1.5703 0 2.291 1.1309 0.72656 1.125 0.72656 3.4043zm-1.541 2.6602q0.20507-0.47461 0.27539-1.1133 0.0762-0.64453 0.0762-1.5469 0-0.89062-0.0762-1.5469-0.0703-0.65625-0.28125-1.1133-0.20508-0.45117-0.5625-0.67969-0.35157-0.22852-0.90821-0.22852-0.55078 0-0.91406 0.22852-0.35742 0.22852-0.56836 0.69141-0.19922 0.43359-0.27539 1.1309-0.0703 0.69726-0.0703 1.5293 0 0.91407 0.0645 1.5293t0.27539 1.1016q0.19336 0.45703 0.54492 0.69727 0.35743 0.24023 0.94336 0.24023 0.55079 0 0.91407-0.22851 0.36328-0.22852 0.5625-0.69141zm9.1113-1.0664q0 0.60938-0.22265 1.166-0.22266 0.55664-0.60938 0.9375-0.42187 0.41016-1.0078 0.63281-0.58008 0.2168-1.3477 0.2168-0.71484 0-1.377-0.15234-0.66211-0.14649-1.1191-0.35743v-1.2363h0.082q0.48047 0.30468 1.125 0.52148 0.64453 0.21094 1.2656 0.21094 0.41601 0 0.80273-0.11719 0.39258-0.11719 0.69727-0.41016 0.25781-0.25195 0.38672-0.60351 0.13476-0.35156 0.13476-0.81446 0-0.45117-0.1582-0.76171-0.15235-0.31055-0.42774-0.49805-0.30468-0.22266-0.74414-0.31055-0.43359-0.0937-0.97265-0.0937-0.51563 0-0.9961 0.0703-0.47461 0.0703-0.82031 0.14063v-4.4941h5.25v1.0254h-4.1191v2.3203q0.25195-0.0234 0.51563-0.0351 0.26367-0.0117 0.45703-0.0117 0.70898 0 1.2422 0.12304 0.53321 0.11719 0.97852 0.42188 0.46875 0.32226 0.72656 0.83203t0.25781 1.2773z" style="white-space:pre" aria-label="05"/><path transform="matrix(.26458 0 0 .26458 .77544 -.82592)" d="m364.57 386.17q0 2.3496-0.73828 3.4512-0.73242 1.0957-2.2793 1.0957-1.5703 0-2.2969-1.1133-0.7207-1.1133-0.7207-3.4219 0-2.3262 0.73242-3.4336 0.73242-1.1133 2.2852-1.1133 1.5703 0 2.291 1.1309 0.72656 1.125 0.72656 3.4043zm-1.541 2.6602q0.20507-0.47461 0.27539-1.1133 0.0762-0.64453 0.0762-1.5469 0-0.89062-0.0762-1.5469-0.0703-0.65625-0.28125-1.1133-0.20508-0.45117-0.5625-0.67969-0.35157-0.22852-0.90821-0.22852-0.55078 0-0.91406 0.22852-0.35742 0.22852-0.56836 0.69141-0.19922 0.43359-0.27539 1.1309-0.0703 0.69726-0.0703 1.5293 0 0.91407 0.0645 1.5293t0.27539 1.1016q0.19336 0.45703 0.54492 0.69727 0.35743 0.24023 0.94336 0.24023 0.55079 0 0.91407-0.22851 0.36328-0.22852 0.5625-0.69141zm9.1699-2.6602q0 2.3496-0.73828 3.4512-0.73242 1.0957-2.2793 1.0957-1.5703 0-2.2969-1.1133-0.72071-1.1133-0.72071-3.4219 0-2.3262 0.73242-3.4336 0.73243-1.1133 2.2852-1.1133 1.5703 0 2.291 1.1309 0.72656 1.125 0.72656 3.4043zm-1.541 2.6602q0.20508-0.47461 0.27539-1.1133 0.0762-0.64453 0.0762-1.5469 0-0.89062-0.0762-1.5469-0.0703-0.65625-0.28125-1.1133-0.20507-0.45117-0.5625-0.67969-0.35156-0.22852-0.9082-0.22852-0.55078 0-0.91406 0.22852-0.35742 0.22852-0.56836 0.69141-0.19922 0.43359-0.27539 1.1309-0.0703 0.69726-0.0703 1.5293 0 0.91407 0.0645 1.5293 0.0644 0.61523 0.27539 1.1016 0.19336 0.45703 0.54492 0.69727 0.35742 0.24023 0.94336 0.24023 0.55078 0 0.91406-0.22851 0.36328-0.22852 0.5625-0.69141z" style="white-space:pre" aria-label="00"/><path transform="matrix(-.081761 .25163 -.25163 -.081761 235.91 56.968)" d="m364.08 390.53h-4.7226v-0.89063h1.8164v-5.8476h-1.8164v-0.79688q0.36914 0 0.79101-0.0586 0.42188-0.0645 0.63868-0.18164 0.26953-0.14649 0.42187-0.36914 0.1582-0.22852 0.18164-0.60938h0.9082v7.8633h1.7812zm8.0566-2.7715q0 0.60938-0.22265 1.166-0.22266 0.55664-0.60938 0.9375-0.42187 0.41016-1.0078 0.63281-0.58008 0.2168-1.3477 0.2168-0.71484 0-1.377-0.15234-0.66211-0.14649-1.1191-0.35743v-1.2363h0.082q0.48047 0.30468 1.125 0.52148 0.64453 0.21094 1.2656 0.21094 0.41601 0 0.80273-0.11719 0.39258-0.11719 0.69727-0.41016 0.25781-0.25195 0.38672-0.60351 0.13476-0.35156 0.13476-0.81446 0-0.45117-0.1582-0.76171-0.15235-0.31055-0.42774-0.49805-0.30468-0.22266-0.74414-0.31055-0.43359-0.0937-0.97265-0.0937-0.51563 0-0.9961 0.0703-0.47461 0.0703-0.82031 0.14063v-4.4941h5.25v1.0254h-4.1191v2.3203q0.25195-0.0234 0.51563-0.0351 0.26367-0.0117 0.45703-0.0117 0.70898 0 1.2422 0.12304 0.53321 0.11719 0.97852 0.42188 0.46875 0.32226 0.72656 0.83203t0.25781 1.2773z" style="white-space:pre" aria-label="15"/><path transform="matrix(-.21405 .15552 -.15552 -.21405 242.84 149.3)" d="m364.58 390.53h-5.9062v-1.2246q0.61524-0.52734 1.2305-1.0547 0.62109-0.52734 1.1543-1.0488 1.125-1.0898 1.541-1.7285 0.41602-0.64453 0.41602-1.3887 0-0.67969-0.45117-1.0606-0.44532-0.38672-1.248-0.38672-0.5332 0-1.1543 0.1875-0.62109 0.1875-1.2129 0.57422h-0.0586v-1.2305q0.41601-0.20508 1.1074-0.375 0.69727-0.16992 1.3477-0.16992 1.3418 0 2.1035 0.65039 0.76172 0.64453 0.76172 1.752 0 0.49805-0.12891 0.93164-0.12304 0.42774-0.36914 0.81446-0.22851 0.36328-0.53906 0.71484-0.30469 0.35156-0.74414 0.7793-0.62695 0.61523-1.2949 1.1953-0.66797 0.57422-1.248 1.0664h4.6934zm7.6172-4.3652q0 2.3496-0.73828 3.4512-0.73242 1.0957-2.2793 1.0957-1.5703 0-2.2969-1.1133-0.72071-1.1133-0.72071-3.4219 0-2.3262 0.73242-3.4336 0.73243-1.1133 2.2852-1.1133 1.5703 0 2.291 1.1309 0.72656 1.125 0.72656 3.4043zm-1.541 2.6602q0.20508-0.47461 0.27539-1.1133 0.0762-0.64453 0.0762-1.5469 0-0.89062-0.0762-1.5469-0.0703-0.65625-0.28125-1.1133-0.20507-0.45117-0.5625-0.67969-0.35156-0.22852-0.9082-0.22852-0.55078 0-0.91406 0.22852-0.35742 0.22852-0.56836 0.69141-0.19922 0.43359-0.27539 1.1309-0.0703 0.69726-0.0703 1.5293 0 0.91407 0.0645 1.5293 0.0644 0.61523 0.27539 1.1016 0.19336 0.45703 0.54492 0.69727 0.35742 0.24023 0.94336 0.24023 0.55078 0 0.91406-0.22851 0.36328-0.22852 0.5625-0.69141z" style="white-space:pre" aria-label="20"/><path transform="matrix(-.26458 0 0 -.26458 194.05 227.86)" d="m364.58 390.53h-5.9062v-1.2246q0.61524-0.52734 1.2305-1.0547 0.62109-0.52734 1.1543-1.0488 1.125-1.0898 1.541-1.7285 0.41602-0.64453 0.41602-1.3887 0-0.67969-0.45117-1.0606-0.44532-0.38672-1.248-0.38672-0.5332 0-1.1543 0.1875-0.62109 0.1875-1.2129 0.57422h-0.0586v-1.2305q0.41601-0.20508 1.1074-0.375 0.69727-0.16992 1.3477-0.16992 1.3418 0 2.1035 0.65039 0.76172 0.64453 0.76172 1.752 0 0.49805-0.12891 0.93164-0.12304 0.42774-0.36914 0.81446-0.22851 0.36328-0.53906 0.71484-0.30469 0.35156-0.74414 0.7793-0.62695 0.61523-1.2949 1.1953-0.66797 0.57422-1.248 1.0664h4.6934zm7.5586-2.7715q0 0.60938-0.22265 1.166-0.22266 0.55664-0.60938 0.9375-0.42187 0.41016-1.0078 0.63281-0.58008 0.2168-1.3477 0.2168-0.71484 0-1.377-0.15234-0.66211-0.14649-1.1191-0.35743v-1.2363h0.082q0.48047 0.30468 1.125 0.52148 0.64453 0.21094 1.2656 0.21094 0.41601 0 0.80273-0.11719 0.39258-0.11719 0.69727-0.41016 0.25781-0.25195 0.38672-0.60351 0.13476-0.35156 0.13476-0.81446 0-0.45117-0.1582-0.76171-0.15235-0.31055-0.42774-0.49805-0.30468-0.22266-0.74414-0.31055-0.43359-0.0937-0.97265-0.0937-0.51563 0-0.9961 0.0703-0.47461 0.0703-0.82031 0.14063v-4.4941h5.25v1.0254h-4.1191v2.3203q0.25195-0.0234 0.51563-0.0351 0.26367-0.0117 0.45703-0.0117 0.70898 0 1.2422 0.12304 0.53321 0.11719 0.97852 0.42188 0.46875 0.32226 0.72656 0.83203t0.25781 1.2773z" style="white-space:pre" aria-label="25"/><path transform="matrix(-.21405 -.15552 .15552 -.21405 108.51 263.02)" d="m363.81 386.33q0.28125 0.25195 0.46289 0.63281t0.18164 0.98437q0 0.59766-0.21679 1.0957-0.2168 0.49804-0.60938 0.86718-0.43945 0.41016-1.0371 0.60938-0.59179 0.19336-1.3008 0.19336-0.72656 0-1.4297-0.17578-0.70312-0.16992-1.1543-0.375v-1.2246h0.0879q0.49804 0.32812 1.1719 0.54492t1.3008 0.2168q0.36914 0 0.78516-0.12305t0.67383-0.36328q0.26953-0.25781 0.39844-0.56836 0.13476-0.31055 0.13476-0.78516 0-0.46875-0.15234-0.77343-0.14649-0.31055-0.41016-0.48633-0.26367-0.18164-0.63867-0.2461-0.375-0.0703-0.80859-0.0703h-0.52735v-0.97265h0.41016q0.89062 0 1.418-0.36915 0.5332-0.375 0.5332-1.0898 0-0.31641-0.13477-0.55078-0.13476-0.24023-0.375-0.39258-0.25195-0.15234-0.53906-0.21094t-0.65039-0.0586q-0.55664 0-1.1836 0.19922-0.62696 0.19922-1.1836 0.5625h-0.0586v-1.2246q0.41602-0.20508 1.1074-0.375 0.69727-0.17578 1.3477-0.17578 0.63867 0 1.125 0.11719 0.48633 0.11718 0.8789 0.375 0.42188 0.28125 0.63868 0.67968 0.21679 0.39844 0.21679 0.93164 0 0.72657-0.51562 1.2715-0.50977 0.53906-1.207 0.67969v0.082q0.28125 0.0469 0.64453 0.19922 0.36328 0.14648 0.61523 0.36914zm8.3848-0.16407q0 2.3496-0.73828 3.4512-0.73242 1.0957-2.2793 1.0957-1.5703 0-2.2969-1.1133-0.72071-1.1133-0.72071-3.4219 0-2.3262 0.73242-3.4336 0.73243-1.1133 2.2852-1.1133 1.5703 0 2.291 1.1309 0.72656 1.125 0.72656 3.4043zm-1.541 2.6602q0.20508-0.47461 0.27539-1.1133 0.0762-0.64453 0.0762-1.5469 0-0.89062-0.0762-1.5469-0.0703-0.65625-0.28125-1.1133-0.20507-0.45117-0.5625-0.67969-0.35156-0.22852-0.9082-0.22852-0.55078 0-0.91406 0.22852-0.35742 0.22852-0.56836 0.69141-0.19922 0.43359-0.27539 1.1309-0.0703 0.69726-0.0703 1.5293 0 0.91407 0.0645 1.5293 0.0644 0.61523 0.27539 1.1016 0.19336 0.45703 0.54492 0.69727 0.35742 0.24023 0.94336 0.24023 0.55078 0 0.91406-0.22851 0.36328-0.22852 0.5625-0.69141z" style="white-space:pre" aria-label="30"/><path transform="matrix(-.081761 -.25163 .25163 -.081761 18.417 240.87)" d="m363.81 386.33q0.28125 0.25195 0.46289 0.63281t0.18164 0.98437q0 0.59766-0.21679 1.0957-0.2168 0.49804-0.60938 0.86718-0.43945 0.41016-1.0371 0.60938-0.59179 0.19336-1.3008 0.19336-0.72656 0-1.4297-0.17578-0.70312-0.16992-1.1543-0.375v-1.2246h0.0879q0.49804 0.32812 1.1719 0.54492t1.3008 0.2168q0.36914 0 0.78516-0.12305t0.67383-0.36328q0.26953-0.25781 0.39844-0.56836 0.13476-0.31055 0.13476-0.78516 0-0.46875-0.15234-0.77343-0.14649-0.31055-0.41016-0.48633-0.26367-0.18164-0.63867-0.2461-0.375-0.0703-0.80859-0.0703h-0.52735v-0.97265h0.41016q0.89062 0 1.418-0.36915 0.5332-0.375 0.5332-1.0898 0-0.31641-0.13477-0.55078-0.13476-0.24023-0.375-0.39258-0.25195-0.15234-0.53906-0.21094t-0.65039-0.0586q-0.55664 0-1.1836 0.19922-0.62696 0.19922-1.1836 0.5625h-0.0586v-1.2246q0.41602-0.20508 1.1074-0.375 0.69727-0.17578 1.3477-0.17578 0.63867 0 1.125 0.11719 0.48633 0.11718 0.8789 0.375 0.42188 0.28125 0.63868 0.67968 0.21679 0.39844 0.21679 0.93164 0 0.72657-0.51562 1.2715-0.50977 0.53906-1.207 0.67969v0.082q0.28125 0.0469 0.64453 0.19922 0.36328 0.14648 0.61523 0.36914zm8.3262 1.4297q0 0.60938-0.22265 1.166-0.22266 0.55664-0.60938 0.9375-0.42187 0.41016-1.0078 0.63281-0.58008 0.2168-1.3477 0.2168-0.71484 0-1.377-0.15234-0.66211-0.14649-1.1191-0.35743v-1.2363h0.082q0.48047 0.30468 1.125 0.52148 0.64453 0.21094 1.2656 0.21094 0.41601 0 0.80273-0.11719 0.39258-0.11719 0.69727-0.41016 0.25781-0.25195 0.38672-0.60351 0.13476-0.35156 0.13476-0.81446 0-0.45117-0.1582-0.76171-0.15235-0.31055-0.42774-0.49805-0.30468-0.22266-0.74414-0.31055-0.43359-0.0937-0.97265-0.0937-0.51563 0-0.9961 0.0703-0.47461 0.0703-0.82031 0.14063v-4.4941h5.25v1.0254h-4.1191v2.3203q0.25195-0.0234 0.51563-0.0351 0.26367-0.0117 0.45703-0.0117 0.70898 0 1.2422 0.12304 0.53321 0.11719 0.97852 0.42188 0.46875 0.32226 0.72656 0.83203t0.25781 1.2773z" style="white-space:pre" aria-label="35"/><path transform="matrix(.081761 -.25163 .25163 .081761 -41.333 170.19)" d="m364.78 388.08h-1.2949v2.4551h-1.125v-2.4551h-4.1777v-1.3477l4.2246-4.9219h1.0781v5.332h1.2949zm-2.4199-0.9375v-3.9375l-3.3809 3.9375zm9.8379-0.97266q0 2.3496-0.73828 3.4512-0.73242 1.0957-2.2793 1.0957-1.5703 0-2.2969-1.1133-0.72071-1.1133-0.72071-3.4219 0-2.3262 0.73242-3.4336 0.73243-1.1133 2.2852-1.1133 1.5703 0 2.291 1.1309 0.72656 1.125 0.72656 3.4043zm-1.541 2.6602q0.20508-0.47461 0.27539-1.1133 0.0762-0.64453 0.0762-1.5469 0-0.89062-0.0762-1.5469-0.0703-0.65625-0.28125-1.1133-0.20507-0.45117-0.5625-0.67969-0.35156-0.22852-0.9082-0.22852-0.55078 0-0.91406 0.22852-0.35742 0.22852-0.56836 0.69141-0.19922 0.43359-0.27539 1.1309-0.0703 0.69726-0.0703 1.5293 0 0.91407 0.0645 1.5293 0.0644 0.61523 0.27539 1.1016 0.19336 0.45703 0.54492 0.69727 0.35742 0.24023 0.94336 0.24023 0.55078 0 0.91406-0.22851 0.36328-0.22852 0.5625-0.69141z" style="white-space:pre" aria-label="40"/><path transform="matrix(.21405 -.15552 .15552 .21405 -48.151 77.793)" d="m364.78 388.08h-1.2949v2.4551h-1.125v-2.4551h-4.1777v-1.3477l4.2246-4.9219h1.0781v5.332h1.2949zm-2.4199-0.9375v-3.9375l-3.3809 3.9375zm9.7793 0.62109q0 0.60938-0.22265 1.166-0.22266 0.55664-0.60938 0.9375-0.42187 0.41016-1.0078 0.63281-0.58008 0.2168-1.3477 0.2168-0.71484 0-1.377-0.15234-0.66211-0.14649-1.1191-0.35743v-1.2363h0.082q0.48047 0.30468 1.125 0.52148 0.64453 0.21094 1.2656 0.21094 0.41601 0 0.80273-0.11719 0.39258-0.11719 0.69727-0.41016 0.25781-0.25195 0.38672-0.60351 0.13476-0.35156 0.13476-0.81446 0-0.45117-0.1582-0.76171-0.15235-0.31055-0.42774-0.49805-0.30468-0.22266-0.74414-0.31055-0.43359-0.0937-0.97265-0.0937-0.51563 0-0.9961 0.0703-0.47461 0.0703-0.82031 0.14063v-4.4941h5.25v1.0254h-4.1191v2.3203q0.25195-0.0234 0.51563-0.0351 0.26367-0.0117 0.45703-0.0117 0.70898 0 1.2422 0.12304 0.53321 0.11719 0.97852 0.42188 0.46875 0.32226 0.72656 0.83203t0.25781 1.2773z" style="white-space:pre" aria-label="45"/></g><g transform="translate(-72.483 -93.178)"><path d="m106.91 113.6c0 5.245-4.2519 9.4969-9.4969 9.4969-5.245 0-9.4969-4.2519-9.4969-9.4969s4.2519-9.497 9.4969-9.497c5.245 0 9.4969 4.2519 9.4969 9.497z" fill="#4a4f56" stroke="#000" stroke-width=".7805"/><circle cx="97.409" cy="113.6" r="7.2453" fill="none" stroke="#000" stroke-width=".7805"/><g transform="translate(72.325 93.718)"><g transform="translate(.040155 .023044)" fill="#808080" stroke="#000" stroke-width=".39025"><path d="m34.475 19.855-2.1694 3.12e-4"/><path d="m34.449 20.56-2.1634-0.16183"/><path d="m34.37 21.261-2.1452-0.32306"/><path d="m34.239 21.954-2.1151-0.48249"/><path d="m34.056 22.636-2.0731-0.63922"/><path d="m33.823 23.302-2.0195-0.79237"/><path d="m33.541 23.948-1.9547-0.94108"/><path d="m33.212 24.572-1.8789-1.0845"/><path d="m32.836 25.169-1.7926-1.2219"/><path d="m32.418 25.737-1.6962-1.3525"/><path d="m31.957 26.271-1.5904-1.4754"/><path d="m31.459 26.77-1.4757-1.5902"/><path d="m30.924 27.23-1.3528-1.696"/><path d="m30.357 27.649-1.2222-1.7923"/><path d="m29.759 28.025-1.0849-1.8787"/><path d="m29.136 28.354-0.94147-1.9545"/><path d="m28.489 28.636-0.79279-2.0194"/><path d="m27.824 28.869-0.63968-2.073"/><path d="m27.142 29.052-0.48299-2.115"/><path d="m26.449 29.183-0.32361-2.1451"/><path d="m25.748 29.262-0.16241-2.1633"/><path d="m25.043 29.288-3.14e-4 -2.1694"/><path d="m24.339 29.262 0.16179-2.1634"/><path d="m23.638 29.183 0.32299-2.1452"/><path d="m22.945 29.052 0.48238-2.1151"/><path d="m22.263 28.869 0.63908-2.0731"/><path d="m21.598 28.636 0.7922-2.0196"/><path d="m20.951 28.354 0.9409-1.9548"/><path d="m20.327 28.025 1.0843-1.879"/><path d="m19.73 27.649 1.2217-1.7927"/><path d="m19.163 27.231 1.3523-1.6964"/><path d="m18.628 26.77 1.4753-1.5906"/><path d="m18.129 26.272 1.59-1.4759"/><path d="m17.669 25.737 1.6958-1.353"/><path d="m17.25 25.169 1.7922-1.2224"/><path d="m16.875 24.572 1.8786-1.0851"/><path d="m16.545 23.948 1.9544-0.94164"/><path d="m16.263 23.302 2.0193-0.79295"/><path d="m16.03 22.636 2.0729-0.63981"/><path d="m15.848 21.955 2.1149-0.4831"/><path d="m15.717 21.262 2.1451-0.32368"/><path d="m15.638 20.561 2.1633-0.16245"/><path d="m15.611 19.856 2.1694-3.12e-4"/><path d="m15.638 19.151 2.1634 0.16183"/><path d="m15.717 18.45 2.1452 0.32306"/><path d="m15.848 17.757 2.1151 0.48249"/><path d="m16.03 17.075 2.0731 0.63922"/><path d="m16.263 16.409 2.0195 0.79236"/><path d="m16.545 15.763 1.9547 0.94108"/><path d="m16.875 15.139 1.8789 1.0845"/><path d="m17.25 14.542 1.7926 1.2219"/><path d="m17.669 13.974 1.6962 1.3525"/><path d="m18.129 13.439 1.5904 1.4754"/><path d="m18.628 12.941 1.4757 1.5902"/><path d="m19.162 12.481 1.3528 1.696"/><path d="m19.73 12.062 1.2222 1.7923"/><path d="m20.327 11.686 1.0849 1.8787"/><path d="m20.951 11.357 0.94147 1.9545"/><path d="m21.597 11.075 0.79279 2.0194"/><path d="m22.263 10.842 0.63968 2.073"/><path d="m22.944 10.659 0.48299 2.115"/><path d="m23.637 10.528 0.32361 2.1451"/><path d="m24.338 10.449 0.16241 2.1633"/><path d="m25.043 10.423 3.14e-4 2.1694"/><path d="m25.748 10.449-0.16179 2.1634"/><path d="m26.449 10.528-0.32299 2.1452"/><path d="m27.142 10.659-0.48238 2.1151"/><path d="m27.823 10.842-0.63908 2.0731"/><path d="m28.489 11.074-0.7922 2.0196"/><path d="m29.135 11.357-0.9409 1.9548"/><path d="m29.759 11.686-1.0843 1.879"/><path d="m30.356 12.061-1.2217 1.7927"/><path d="m30.924 12.48-1.3523 1.6964"/><path d="m31.458 12.94-1.4753 1.5906"/><path d="m31.957 13.439-1.59 1.4759"/><path d="m32.417 13.974-1.6958 1.353"/><path d="m32.836 14.541-1.7922 1.2224"/><path d="m33.211 15.139-1.8786 1.0851"/><path d="m33.541 15.762-1.9544 0.94164"/><path d="m33.823 16.409-2.0193 0.79295"/><path d="m34.056 17.075-2.0729 0.63981"/><path d="m34.239 17.756-2.1149 0.4831"/><path d="m34.37 18.449-2.1451 0.32368"/><path d="m34.449 19.15-2.1633 0.16245"/></g></g></g></g></g><g transform="matrix(.36069 0 0 .36069 667.92 305.32)" stroke-width="5.5449"><path transform="matrix(10.264 0 0 10.264 -183.72 -484.24)" d="m96.798 97.541-1.0014-1.7344h1.0014 1.0014l-0.50069 0.86721z" fill="#ededed" stroke="#000" stroke-width=".54024"/></g><g><g transform="matrix(.36069 0 0 .36069 613.74 345.23)" stroke-width="5.5449"><circle cx="587" cy="540" r="73.5" fill="#4a4c51" stroke="#000" stroke-linejoin="round" stroke-width="5.5449"/><path d="m625.05 615.37-4.9387 32.435c-3.4645 22.753-2.5968 48.445-2.5968 48.445-2.3325 19.174-0.39156 37.216 0.42728 47.727 0.81887 10.511 9.2139 34.815-1.8768 44.868-7.4641 6.7661-23.085-0.19584-30.175-1.6984-10.8-2.2886-21.086 0.84607-25.908-8.8019-7.6475-15.303-7.1699-33.312-9.852-50.119-2.9078-18.222-4.4147-36.629-6.7549-54.927-2.3686-18.52-5.4385-36.961-7.3743-55.528-1.5853-15.206-3.0346-34.56-3.9728-48.729-2.6094-6.9787 3.0687-11.7 3.0511-18.874-0.0806-32.947 9.1183-31.439 42.83-31.359 33.105 0.078 45.129 34.48 35.791 2.8752-14.853-50.274 19.649 17.705 17.165 25.397-1.9588 6.0662 5.7519 16.85-1.4251 25.239z" fill="#1a1c1c" fill-opacity=".71053"/><circle cx="587" cy="540" r="60.5" display="none" fill="#4a4c51" stroke="#f00" stroke-linejoin="round" stroke-width="5.5449"/><path d="m619.11 603.44c-6.3387 21.231-7.0397 33.271-9.3533 50.093-3.1358 22.801-6.1285 68.752-6.1285 68.752-2.3325 19.174-1.2745 23.973-0.45563 34.483 0.81886 10.511 2.6374 17.718 4.3036 23.678 17.126 19.695-17.053 16.445-27.297 14.686-10.881-1.8676-16.901-14.656-21.723-24.304-7.6475-15.303-7.1699-33.312-9.852-50.119-2.9078-18.222-4.4147-36.629-6.7549-54.927-2.3686-18.52-5.4385-36.961-7.3743-55.528-1.5853-15.206-3.0346-34.56-3.9728-48.729-2.6094-6.9787-3.9947-14.349-4.0122-21.523-0.0806-32.947 26.777-60.575 60.488-60.495 33.105 0.078 59.795 26.434 60.513 59.382 0.16696 7.6588-1.3586 15.759-4.0249 22.748-2.272 5.956-4.8431 11.552-12.02 19.941z" fill="#767d7d"/><path d="m594.52 746.06c-0.32014-11.265 0.41559-13.593 0.19904-24.86-0.50318-26.183 3.6353-52.069 5.4136-78.196 0.83896-12.326 1.2165-24.771 3.6555-36.883 1.859-9.2322 8.3125-27.005 8.3125-27.005s11.71-1.5631 16.957-4.0577c3.979-1.8914 10.496-8.0247 10.496-8.0247-2.8329 9.2007-0.47224 0.93183-8.0743 12.99 0 0-10.055 15.603-12.996 24.308-8.2979 24.562-9.9596 52.502-12.441 76.775-1.4477 14.162-2.224 39.124-2.6385 60.696-0.20722 10.786 1.9908 25.102 1.9259 32.42l2.1594 5.5417 3.0849 5.5417 1.8509 4.3102c-0.81437 1.967-1.0718 4.0455-5.887 5.2124-13.378 0.2576-22.729 1.2868-30.298-0.94504l-7.0036-6.1145-11.723-19.704s7.7243 11.838 13.574 15.394c4.3452 2.6412 9.7204 3.6159 14.808 3.6944 4.8401 0.0747 10.796 0.36563 14.191-3.0787 3.6766-3.7308-1.708-12.211-2.69-16.798-1.0993-5.1343-2.5875-11.054-2.8763-21.216z" fill="#373a45" fill-opacity=".71053"/><path d="m542.09 593.19c-0.43539-9.4336-1.5269-19.126 0.61697-28.324 2.2097-9.4804 6.6447-18.575 12.34-26.477 6.4557-8.9575 14.177-17.84 24.062-22.782 13.059-6.5292 43.189-7.3889 43.189-7.3889s-12.074-10.628-19.425-13.371c-7.4748-2.7886-15.811-3.1489-23.764-2.6384-7.415 0.47602-15.173 1.6323-21.669 5.2733-6.6624 3.7345-12.088 9.7723-16.297 16.185-4.8486 7.386-8.2626 15.973-9.6909 24.716-1.3872 8.49 0.7661 17.193 1.2772 25.782 0.80826 13.584 2.8295 40.725 2.8295 40.725l10.233 82.509 3.7019 40.023 3.3677 22.863c9.4627 20.387 16.754 16.93 21.594 16.625 0 0-7.7182-9.691-9.8717-15.394-12.7-33.63-11.414-70.992-16.324-106.6-1.384-10.038-2.5085-20.109-3.7019-30.171-0.85161-7.1803-2.1346-14.328-2.4679-21.551z" fill="#bfbdb2" fill-opacity=".62105"/><path d="m619.11 603.44c-6.3387 21.231-7.0397 33.271-9.3533 50.093-3.1358 22.801-6.1285 68.752-6.1285 68.752-2.3325 19.174-1.2745 23.973-0.45563 34.483 0.81886 10.511 2.6374 17.718 4.3036 23.678 17.126 19.695-17.053 16.449-27.297 14.69-10.881-1.8676-16.901-14.66-21.723-24.308-7.6475-15.303-7.1699-33.312-9.852-50.119-2.9078-18.222-4.4147-36.629-6.7549-54.927-2.3686-18.52-5.4385-36.961-7.3743-55.528-1.5853-15.206-3.0346-34.56-3.9728-48.729-2.6094-6.9787-3.9947-14.349-4.0122-21.523-0.0806-32.947 26.777-60.575 60.488-60.495 33.105 0.078 59.795 26.434 60.513 59.382 0.16696 7.6588-1.3586 15.759-4.0249 22.748-2.272 5.956-4.8431 11.552-12.02 19.941z" fill="none" stroke="#000" stroke-linejoin="round" stroke-width="5.5449"/></g></g><g stroke-width="3"><path d="m1142.7 470.92v140.27h-9.3497v-140.27l0.01-0.23831c2.7925-3.3849 8.0444-1.428 9.3497 0z" fill="#52555a" stroke="#000" stroke-linejoin="round" stroke-width="3"/><path d="m1141.8 471.09v138.05l-2.0267-0.89352 0.3378-138.5z" fill="#2b2b2f" fill-opacity=".71316"/><path d="m1133.3 505.81c2.7925-3.3849 8.0445-1.428 9.3497 0" fill="none" stroke="#000" stroke-linejoin="round" stroke-width="3"/><path d="m1133.3 540.94c2.7925-3.3848 8.0445-1.428 9.3497 0" fill="none" stroke="#000" stroke-linejoin="round" stroke-width="3"/><path d="m1133.3 576.06c2.7925-3.3849 8.0445-1.428 9.3497 0" fill="none" stroke="#000" stroke-linejoin="round" stroke-width="3"/><path d="m1133.3 611.19c2.7925-3.3849 8.0445-1.428 9.3497 0" fill="none" stroke="#000" stroke-linejoin="round" stroke-width="3"/></g></svg>
