<svg xmlns="http://www.w3.org/2000/svg" xmlns:xlink="http://www.w3.org/1999/xlink" width="591.6444444444" height="280.5197049291" viewBox="0 0 591.6444444444 280.5197049291" preserveAspectRatio="xMinYMin meet" version="1.1">
  <g stroke="#f0f0f0" stroke-width="1">
    <line x1="22.7555555556" y1="253.4703256818" x2="22.7555555556" y2="239.8672440757" />
    <line x1="18.2044444444" y1="246.6753768886" x2="27.3066666667" y2="246.6753768886" />
    <line x1="22.7555555556" y1="184.9188004098" x2="22.7555555556" y2="171.0446844049" />
    <line x1="18.2044444444" y1="177.9887064314" x2="27.3066666667" y2="177.9887064314" />
    <line x1="22.7555555556" y1="114.9817003177" x2="22.7555555556" y2="100.8211287185" />
    <line x1="18.2044444444" y1="107.9087780348" x2="27.3066666667" y2="107.9087780348" />
    <line x1="22.7555555556" y1="43.5796542907" x2="22.7555555556" y2="29.1160502709" />
    <line x1="18.2044444444" y1="36.3556456519" x2="27.3066666667" y2="36.3556456519" />
    <line x1="68.2666666667" y1="253.4703256818" x2="68.2666666667" y2="239.8672440757" />
    <line x1="63.7155555556" y1="246.6753768886" x2="72.8177777778" y2="246.6753768886" />
    <line x1="68.2666666667" y1="184.9188004098" x2="68.2666666667" y2="171.0446844049" />
    <line x1="63.7155555556" y1="177.9887064314" x2="72.8177777778" y2="177.9887064314" />
    <line x1="68.2666666667" y1="114.9817003177" x2="68.2666666667" y2="100.8211287185" />
    <line x1="63.7155555556" y1="107.9087780348" x2="72.8177777778" y2="107.9087780348" />
    <line x1="68.2666666667" y1="43.5796542907" x2="68.2666666667" y2="29.1160502709" />
    <line x1="63.7155555556" y1="36.3556456519" x2="72.8177777778" y2="36.3556456519" />
    <line x1="113.7777777778" y1="253.4703256818" x2="113.7777777778" y2="239.8672440757" />
    <line x1="109.2266666667" y1="246.6753768886" x2="118.3288888889" y2="246.6753768886" />
    <line x1="113.7777777778" y1="184.9188004098" x2="113.7777777778" y2="171.0446844049" />
    <line x1="109.2266666667" y1="177.9887064314" x2="118.3288888889" y2="177.9887064314" />
    <line x1="113.7777777778" y1="114.9817003177" x2="113.7777777778" y2="100.8211287185" />
    <line x1="109.2266666667" y1="107.9087780348" x2="118.3288888889" y2="107.9087780348" />
    <line x1="113.7777777778" y1="43.5796542907" x2="113.7777777778" y2="29.1160502709" />
    <line x1="109.2266666667" y1="36.3556456519" x2="118.3288888889" y2="36.3556456519" />
    <line x1="159.2888888889" y1="253.4703256818" x2="159.2888888889" y2="239.8672440757" />
    <line x1="154.7377777778" y1="246.6753768886" x2="163.8400000000" y2="246.6753768886" />
    <line x1="159.2888888889" y1="184.9188004098" x2="159.2888888889" y2="171.0446844049" />
    <line x1="154.7377777778" y1="177.9887064314" x2="163.8400000000" y2="177.9887064314" />
    <line x1="159.2888888889" y1="114.9817003177" x2="159.2888888889" y2="100.8211287185" />
    <line x1="154.7377777778" y1="107.9087780348" x2="163.8400000000" y2="107.9087780348" />
    <line x1="159.2888888889" y1="43.5796542907" x2="159.2888888889" y2="29.1160502709" />
    <line x1="154.7377777778" y1="36.3556456519" x2="163.8400000000" y2="36.3556456519" />
    <line x1="204.8000000000" y1="253.4703256818" x2="204.8000000000" y2="239.8672440757" />
    <line x1="200.2488888889" y1="246.6753768886" x2="209.3511111111" y2="246.6753768886" />
    <line x1="204.8000000000" y1="184.9188004098" x2="204.8000000000" y2="171.0446844049" />
    <line x1="200.2488888889" y1="177.9887064314" x2="209.3511111111" y2="177.9887064314" />
    <line x1="204.8000000000" y1="114.9817003177" x2="204.8000000000" y2="100.8211287185" />
    <line x1="200.2488888889" y1="107.9087780348" x2="209.3511111111" y2="107.9087780348" />
    <line x1="204.8000000000" y1="43.5796542907" x2="204.8000000000" y2="29.1160502709" />
    <line x1="200.2488888889" y1="36.3556456519" x2="209.3511111111" y2="36.3556456519" />
    <line x1="250.3111111111" y1="253.4703256818" x2="250.3111111111" y2="239.8672440757" />
    <line x1="245.7600000000" y1="246.6753768886" x2="254.8622222222" y2="246.6753768886" />
    <line x1="250.3111111111" y1="184.9188004098" x2="250.3111111111" y2="171.0446844049" />
    <line x1="245.7600000000" y1="177.9887064314" x2="254.8622222222" y2="177.9887064314" />
    <line x1="250.3111111111" y1="114.9817003177" x2="250.3111111111" y2="100.8211287185" />
    <line x1="245.7600000000" y1="107.9087780348" x2="254.8622222222" y2="107.9087780348" />
    <line x1="250.3111111111" y1="43.5796542907" x2="250.3111111111" y2="29.1160502709" />
    <line x1="245.7600000000" y1="36.3556456519" x2="254.8622222222" y2="36.3556456519" />
    <line x1="295.8222222222" y1="253.4703256818" x2="295.8222222222" y2="239.8672440757" />
    <line x1="291.2711111111" y1="246.6753768886" x2="300.3733333333" y2="246.6753768886" />
    <line x1="295.8222222222" y1="184.9188004098" x2="295.8222222222" y2="171.0446844049" />
    <line x1="291.2711111111" y1="177.9887064314" x2="300.3733333333" y2="177.9887064314" />
    <line x1="295.8222222222" y1="114.9817003177" x2="295.8222222222" y2="100.8211287185" />
    <line x1="291.2711111111" y1="107.9087780348" x2="300.3733333333" y2="107.9087780348" />
    <line x1="295.8222222222" y1="43.5796542907" x2="295.8222222222" y2="29.1160502709" />
    <line x1="291.2711111111" y1="36.3556456519" x2="300.3733333333" y2="36.3556456519" />
    <line x1="341.3333333333" y1="253.4703256818" x2="341.3333333333" y2="239.8672440757" />
    <line x1="336.7822222222" y1="246.6753768886" x2="345.8844444444" y2="246.6753768886" />
    <line x1="341.3333333333" y1="184.9188004098" x2="341.3333333333" y2="171.0446844049" />
    <line x1="336.7822222222" y1="177.9887064314" x2="345.8844444444" y2="177.9887064314" />
    <line x1="341.3333333333" y1="114.9817003177" x2="341.3333333333" y2="100.8211287185" />
    <line x1="336.7822222222" y1="107.9087780348" x2="345.8844444444" y2="107.9087780348" />
    <line x1="341.3333333333" y1="43.5796542907" x2="341.3333333333" y2="29.1160502709" />
    <line x1="336.7822222222" y1="36.3556456519" x2="345.8844444444" y2="36.3556456519" />
    <line x1="386.8444444444" y1="253.4703256818" x2="386.8444444444" y2="239.8672440757" />
    <line x1="382.2933333333" y1="246.6753768886" x2="391.3955555556" y2="246.6753768886" />
    <line x1="386.8444444444" y1="184.9188004098" x2="386.8444444444" y2="171.0446844049" />
    <line x1="382.2933333333" y1="177.9887064314" x2="391.3955555556" y2="177.9887064314" />
    <line x1="386.8444444444" y1="114.9817003177" x2="386.8444444444" y2="100.8211287185" />
    <line x1="382.2933333333" y1="107.9087780348" x2="391.3955555556" y2="107.9087780348" />
    <line x1="386.8444444444" y1="43.5796542907" x2="386.8444444444" y2="29.1160502709" />
    <line x1="382.2933333333" y1="36.3556456519" x2="391.3955555556" y2="36.3556456519" />
    <line x1="432.3555555556" y1="253.4703256818" x2="432.3555555556" y2="239.8672440757" />
    <line x1="427.8044444444" y1="246.6753768886" x2="436.9066666667" y2="246.6753768886" />
    <line x1="432.3555555556" y1="184.9188004098" x2="432.3555555556" y2="171.0446844049" />
    <line x1="427.8044444444" y1="177.9887064314" x2="436.9066666667" y2="177.9887064314" />
    <line x1="432.3555555556" y1="114.9817003177" x2="432.3555555556" y2="100.8211287185" />
    <line x1="427.8044444444" y1="107.9087780348" x2="436.9066666667" y2="107.9087780348" />
    <line x1="432.3555555556" y1="43.5796542907" x2="432.3555555556" y2="29.1160502709" />
    <line x1="427.8044444444" y1="36.3556456519" x2="436.9066666667" y2="36.3556456519" />
    <line x1="477.8666666667" y1="253.4703256818" x2="477.8666666667" y2="239.8672440757" />
    <line x1="473.3155555556" y1="246.6753768886" x2="482.4177777778" y2="246.6753768886" />
    <line x1="477.8666666667" y1="184.9188004098" x2="477.8666666667" y2="171.0446844049" />
    <line x1="473.3155555556" y1="177.9887064314" x2="482.4177777778" y2="177.9887064314" />
    <line x1="477.8666666667" y1="114.9817003177" x2="477.8666666667" y2="100.8211287185" />
    <line x1="473.3155555556" y1="107.9087780348" x2="482.4177777778" y2="107.9087780348" />
    <line x1="477.8666666667" y1="43.5796542907" x2="477.8666666667" y2="29.1160502709" />
    <line x1="473.3155555556" y1="36.3556456519" x2="482.4177777778" y2="36.3556456519" />
    <line x1="523.3777777778" y1="253.4703256818" x2="523.3777777778" y2="239.8672440757" />
    <line x1="518.8266666667" y1="246.6753768886" x2="527.9288888889" y2="246.6753768886" />
    <line x1="523.3777777778" y1="184.9188004098" x2="523.3777777778" y2="171.0446844049" />
    <line x1="518.8266666667" y1="177.9887064314" x2="527.9288888889" y2="177.9887064314" />
    <line x1="523.3777777778" y1="114.9817003177" x2="523.3777777778" y2="100.8211287185" />
    <line x1="518.8266666667" y1="107.9087780348" x2="527.9288888889" y2="107.9087780348" />
    <line x1="523.3777777778" y1="43.5796542907" x2="523.3777777778" y2="29.1160502709" />
    <line x1="518.8266666667" y1="36.3556456519" x2="527.9288888889" y2="36.3556456519" />
    <line x1="568.8888888889" y1="253.4703256818" x2="568.8888888889" y2="239.8672440757" />
    <line x1="564.3377777778" y1="246.6753768886" x2="573.4400000000" y2="246.6753768886" />
    <line x1="568.8888888889" y1="184.9188004098" x2="568.8888888889" y2="171.0446844049" />
    <line x1="564.3377777778" y1="177.9887064314" x2="573.4400000000" y2="177.9887064314" />
    <line x1="568.8888888889" y1="114.9817003177" x2="568.8888888889" y2="100.8211287185" />
    <line x1="564.3377777778" y1="107.9087780348" x2="573.4400000000" y2="107.9087780348" />
    <line x1="568.8888888889" y1="43.5796542907" x2="568.8888888889" y2="29.1160502709" />
    <line x1="564.3377777778" y1="36.3556456519" x2="573.4400000000" y2="36.3556456519" />
  </g>
  <g stroke="black" stroke-width="1">
    <line x1="132.9556543210" y1="104.7078931034" x2="132.9556543210" y2="98.7078931034" />
    <line x1="135.5537305323" y1="103.2078931034" x2="130.3575781096" y2="100.2078931034" />
    <line x1="135.5537305323" y1="100.2078931034" x2="130.3575781096" y2="103.2078931034" />
  </g>
  <g stroke="black" stroke-width="1" fill="none">
    <circle cx="158.7073580247" cy="25.2888383070" r="2.5" />
    <circle cx="570.3553580247" cy="119.0419941471" r="2.5" />
    <circle cx="325.0631111111" cy="251.9614727473" r="2.5" />
    <circle cx="118.5690864198" cy="97.7649457700" r="2.5" />
    <circle cx="221.7528888889" cy="232.4768054498" r="2.5" />
    <circle cx="62.4640000000" cy="91.5455064215" r="2.5" />
    <circle cx="234.5086419753" cy="76.7706321475" r="2.5" />
    <circle cx="444.9216790123" cy="157.5797934046" r="2.5" />
  </g>
  <g fill="black" font-family="Arial" font-size="11" text-anchor="middle">
    <text dominant-baseline="hanging" x="158.7073580247 " y="11.2888383070">1</text>
    <text dominant-baseline="hanging" x="570.3553580247 " y="105.0419941471">2</text>
    <text dominant-baseline="hanging" x="325.0631111111 " y="237.9614727473">3</text>
    <text dominant-baseline="hanging" x="118.5690864198 " y="83.7649457700">4</text>
    <text dominant-baseline="hanging" x="221.7528888889 " y="218.4768054498">5</text>
    <text dominant-baseline="hanging" x="62.4640000000 " y="77.5455064215">6</text>
    <text dominant-baseline="hanging" x="234.5086419753 " y="62.7706321475">7</text>
    <text dominant-baseline="hanging" x="444.9216790123 " y="143.5797934046">8</text>
  </g>
</svg>