<?xml version="1.0" encoding="UTF-8"?>
<!-- Fri Jan 24 14:32:50 2025 Generated by QCAD 3.31.2 SVG Exporter -->
<svg width="18.4787in" height="8.1478in" viewBox="-16.0412 0.875 18.4787 8.1478" version="1.1" xmlns="http://www.w3.org/2000/svg" style="stroke-linecap:round;stroke-linejoin:round;fill:none">
    <g transform="scale(1,-1)">
        <!-- Spline -->
        <path d="M-12.7265,-3.1376 C-12.8287,-3.1376 -12.9127,-3.0473 -12.9127,-2.9375 C-12.9127,-2.9375 -12.9127,-2.9375 -12.9127,-2.9375 C-12.9127,-2.8277 -12.8287,-2.7374 -12.7265,-2.7374" style="stroke:#ff0000;stroke-width:0.0035;"/>
        <!-- Spline -->
        <path d="M-8.6485,-3.1376 C-8.5463,-3.1376 -8.4622,-3.0473 -8.4622,-2.9375 C-8.4622,-2.9375 -8.4622,-2.9375 -8.4622,-2.9375 C-8.4622,-2.8277 -8.5463,-2.7374 -8.6485,-2.7374" style="stroke:#ff0000;stroke-width:0.0035;"/>
        <!-- Spline -->
        <path d="M-12.7265,-2.7374 C-12.7265,-2.7374 -8.629,-2.7374 -8.629,-2.7374" style="stroke:#ff0000;stroke-width:0.0035;"/>
        <!-- Spline -->
        <path d="M-12.7265,-3.1376 C-12.7265,-3.1376 -8.629,-3.1376 -8.629,-3.1376" style="stroke:#ff0000;stroke-width:0.0035;"/>
        <!-- Spline -->
        <path d="M-13.4765,-3.7001 C-13.5787,-3.7001 -13.6627,-3.6098 -13.6627,-3.5 C-13.6627,-3.5 -13.6627,-3.5 -13.6627,-3.5 C-13.6627,-3.3902 -13.5787,-3.2999 -13.4765,-3.2999" style="stroke:#ff0000;stroke-width:0.0035;"/>
        <!-- Spline -->
        <path d="M-9.3985,-3.7001 C-9.2963,-3.7001 -9.2122,-3.6098 -9.2122,-3.5 C-9.2122,-3.5 -9.2122,-3.5 -9.2122,-3.5 C-9.2122,-3.3902 -9.2963,-3.2999 -9.3985,-3.2999" style="stroke:#ff0000;stroke-width:0.0035;"/>
        <!-- Spline -->
        <path d="M-13.4765,-3.2999 C-13.4765,-3.2999 -9.379,-3.2999 -9.379,-3.2999" style="stroke:#ff0000;stroke-width:0.0035;"/>
        <!-- Spline -->
        <path d="M-13.4765,-3.7001 C-13.4765,-3.7001 -9.379,-3.7001 -9.379,-3.7001" style="stroke:#ff0000;stroke-width:0.0035;"/>
        <!-- Spline -->
        <path d="M-12.7265,-2.0126 C-12.8287,-2.0126 -12.9127,-1.9223 -12.9127,-1.8125 C-12.9127,-1.8125 -12.9127,-1.8125 -12.9127,-1.8125 C-12.9127,-1.7027 -12.8287,-1.6124 -12.7265,-1.6124" style="stroke:#ff0000;stroke-width:0.0035;"/>
        <!-- Spline -->
        <path d="M-8.6485,-2.0126 C-8.5463,-2.0126 -8.4622,-1.9223 -8.4622,-1.8125 C-8.4622,-1.8125 -8.4622,-1.8125 -8.4622,-1.8125 C-8.4622,-1.7027 -8.5463,-1.6124 -8.6485,-1.6124" style="stroke:#ff0000;stroke-width:0.0035;"/>
        <!-- Spline -->
        <path d="M-12.7265,-1.6124 C-12.7265,-1.6124 -8.629,-1.6124 -8.629,-1.6124" style="stroke:#ff0000;stroke-width:0.0035;"/>
        <!-- Spline -->
        <path d="M-12.7265,-2.0126 C-12.7265,-2.0126 -8.629,-2.0126 -8.629,-2.0126" style="stroke:#ff0000;stroke-width:0.0035;"/>
        <!-- Spline -->
        <path d="M-13.1015,-2.5751 C-13.2037,-2.5751 -13.2877,-2.4848 -13.2877,-2.375 C-13.2877,-2.375 -13.2877,-2.375 -13.2877,-2.375 C-13.2877,-2.2652 -13.2037,-2.1749 -13.1015,-2.1749" style="stroke:#ff0000;stroke-width:0.0035;"/>
        <!-- Spline -->
        <path d="M-9.0235,-2.5751 C-8.9213,-2.5751 -8.8372,-2.4848 -8.8372,-2.375 C-8.8372,-2.375 -8.8372,-2.375 -8.8372,-2.375 C-8.8372,-2.2652 -8.9213,-2.1749 -9.0235,-2.1749" style="stroke:#ff0000;stroke-width:0.0035;"/>
        <!-- Spline -->
        <path d="M-13.1015,-2.1749 C-13.1015,-2.1749 -9.004,-2.1749 -9.004,-2.1749" style="stroke:#ff0000;stroke-width:0.0035;"/>
        <!-- Spline -->
        <path d="M-13.1015,-2.5751 C-13.1015,-2.5751 -9.004,-2.5751 -9.004,-2.5751" style="stroke:#ff0000;stroke-width:0.0035;"/>
        <!-- Spline -->
        <path d="M-12.3515,-5.3876 C-12.4537,-5.3876 -12.5377,-5.2973 -12.5377,-5.1875 C-12.5377,-5.1875 -12.5377,-5.1875 -12.5377,-5.1875 C-12.5377,-5.0777 -12.4537,-4.9874 -12.3515,-4.9874" style="stroke:#ff0000;stroke-width:0.0035;"/>
        <!-- Spline -->
        <path d="M-8.2735,-5.3876 C-8.1713,-5.3876 -8.0872,-5.2973 -8.0872,-5.1875 C-8.0872,-5.1875 -8.0872,-5.1875 -8.0872,-5.1875 C-8.0872,-5.0777 -8.1713,-4.9874 -8.2735,-4.9874" style="stroke:#ff0000;stroke-width:0.0035;"/>
        <!-- Spline -->
        <path d="M-12.3515,-4.9874 C-12.3515,-4.9874 -8.254,-4.9874 -8.254,-4.9874" style="stroke:#ff0000;stroke-width:0.0035;"/>
        <!-- Spline -->
        <path d="M-12.3515,-5.3876 C-12.3515,-5.3876 -8.254,-5.3876 -8.254,-5.3876" style="stroke:#ff0000;stroke-width:0.0035;"/>
        <!-- Spline -->
        <path d="M-13.1015,-5.9501 C-13.2037,-5.9501 -13.2877,-5.8598 -13.2877,-5.75 C-13.2877,-5.75 -13.2877,-5.75 -13.2877,-5.75 C-13.2877,-5.6402 -13.2037,-5.5499 -13.1015,-5.5499" style="stroke:#ff0000;stroke-width:0.0035;"/>
        <!-- Spline -->
        <path d="M-9.0235,-5.9501 C-8.9213,-5.9501 -8.8372,-5.8598 -8.8372,-5.75 C-8.8372,-5.75 -8.8372,-5.75 -8.8372,-5.75 C-8.8372,-5.6402 -8.9213,-5.5499 -9.0235,-5.5499" style="stroke:#ff0000;stroke-width:0.0035;"/>
        <!-- Spline -->
        <path d="M-13.1015,-5.5499 C-13.1015,-5.5499 -9.004,-5.5499 -9.004,-5.5499" style="stroke:#ff0000;stroke-width:0.0035;"/>
        <!-- Spline -->
        <path d="M-13.1015,-5.9501 C-13.1015,-5.9501 -9.004,-5.9501 -9.004,-5.9501" style="stroke:#ff0000;stroke-width:0.0035;"/>
        <!-- Spline -->
        <path d="M-13.1015,-4.2626 C-13.2037,-4.2626 -13.2877,-4.1723 -13.2877,-4.0625 C-13.2877,-4.0625 -13.2877,-4.0625 -13.2877,-4.0625 C-13.2877,-3.9527 -13.2037,-3.8624 -13.1015,-3.8624" style="stroke:#ff0000;stroke-width:0.0035;"/>
        <!-- Spline -->
        <path d="M-9.0235,-4.2626 C-8.9213,-4.2626 -8.8372,-4.1723 -8.8372,-4.0625 C-8.8372,-4.0625 -8.8372,-4.0625 -8.8372,-4.0625 C-8.8372,-3.9527 -8.9213,-3.8624 -9.0235,-3.8624" style="stroke:#ff0000;stroke-width:0.0035;"/>
        <!-- Spline -->
        <path d="M-13.1015,-3.8624 C-13.1015,-3.8624 -9.004,-3.8624 -9.004,-3.8624" style="stroke:#ff0000;stroke-width:0.0035;"/>
        <!-- Spline -->
        <path d="M-13.1015,-4.2626 C-13.1015,-4.2626 -9.004,-4.2626 -9.004,-4.2626" style="stroke:#ff0000;stroke-width:0.0035;"/>
        <!-- Spline -->
        <path d="M-12.7265,-4.8251 C-12.8287,-4.8251 -12.9127,-4.7348 -12.9127,-4.625 C-12.9127,-4.625 -12.9127,-4.625 -12.9127,-4.625 C-12.9127,-4.5152 -12.8287,-4.4249 -12.7265,-4.4249" style="stroke:#ff0000;stroke-width:0.0035;"/>
        <!-- Spline -->
        <path d="M-8.6485,-4.8251 C-8.5463,-4.8251 -8.4622,-4.7348 -8.4622,-4.625 C-8.4622,-4.625 -8.4622,-4.625 -8.4622,-4.625 C-8.4622,-4.5152 -8.5463,-4.4249 -8.6485,-4.4249" style="stroke:#ff0000;stroke-width:0.0035;"/>
        <!-- Spline -->
        <path d="M-12.7265,-4.4249 C-12.7265,-4.4249 -8.629,-4.4249 -8.629,-4.4249" style="stroke:#ff0000;stroke-width:0.0035;"/>
        <!-- Spline -->
        <path d="M-12.7265,-4.8251 C-12.7265,-4.8251 -8.629,-4.8251 -8.629,-4.8251" style="stroke:#ff0000;stroke-width:0.0035;"/>
        <!-- Spline -->
        <path d="M-12.7265,-6.5126 C-12.8287,-6.5126 -12.9127,-6.4223 -12.9127,-6.3125 C-12.9127,-6.3125 -12.9127,-6.3125 -12.9127,-6.3125 C-12.9127,-6.2027 -12.8287,-6.1124 -12.7265,-6.1124" style="stroke:#ff0000;stroke-width:0.0035;"/>
        <!-- Spline -->
        <path d="M-8.6485,-6.5126 C-8.5463,-6.5126 -8.4622,-6.4223 -8.4622,-6.3125 C-8.4622,-6.3125 -8.4622,-6.3125 -8.4622,-6.3125 C-8.4622,-6.2027 -8.5463,-6.1124 -8.6485,-6.1124" style="stroke:#ff0000;stroke-width:0.0035;"/>
        <!-- Spline -->
        <path d="M-12.7265,-6.1124 C-12.7265,-6.1124 -8.629,-6.1124 -8.629,-6.1124" style="stroke:#ff0000;stroke-width:0.0035;"/>
        <!-- Spline -->
        <path d="M-12.7265,-6.5126 C-12.7265,-6.5126 -8.629,-6.5126 -8.629,-6.5126" style="stroke:#ff0000;stroke-width:0.0035;"/>
        <!-- Spline -->
        <path d="M-13.4765,-7.0751 C-13.5787,-7.0751 -13.6627,-6.9848 -13.6627,-6.875 C-13.6627,-6.875 -13.6627,-6.875 -13.6627,-6.875 C-13.6627,-6.7652 -13.5787,-6.6749 -13.4765,-6.6749" style="stroke:#ff0000;stroke-width:0.0035;"/>
        <!-- Spline -->
        <path d="M-9.3985,-7.0751 C-9.2963,-7.0751 -9.2122,-6.9848 -9.2122,-6.875 C-9.2122,-6.875 -9.2122,-6.875 -9.2122,-6.875 C-9.2122,-6.7652 -9.2963,-6.6749 -9.3985,-6.6749" style="stroke:#ff0000;stroke-width:0.0035;"/>
        <!-- Spline -->
        <path d="M-13.4765,-6.6749 C-13.4765,-6.6749 -9.379,-6.6749 -9.379,-6.6749" style="stroke:#ff0000;stroke-width:0.0035;"/>
        <!-- Spline -->
        <path d="M-13.4765,-7.0751 C-13.4765,-7.0751 -9.379,-7.0751 -9.379,-7.0751" style="stroke:#ff0000;stroke-width:0.0035;"/>
        <!-- Spline -->
        <path d="M-8.039,-3.1376 C-8.1412,-3.1376 -8.2252,-3.0473 -8.2252,-2.9375 C-8.2252,-2.9375 -8.2252,-2.9375 -8.2252,-2.9375 C-8.2252,-2.8277 -8.1412,-2.7374 -8.039,-2.7374" style="stroke:#ff0000;stroke-width:0.0035;"/>
        <!-- Spline -->
        <path d="M-3.961,-3.1376 C-3.8588,-3.1376 -3.7747,-3.0473 -3.7747,-2.9375 C-3.7747,-2.9375 -3.7747,-2.9375 -3.7747,-2.9375 C-3.7747,-2.8277 -3.8588,-2.7374 -3.961,-2.7374" style="stroke:#ff0000;stroke-width:0.0035;"/>
        <!-- Spline -->
        <path d="M-8.039,-2.7374 C-8.039,-2.7374 -3.9415,-2.7374 -3.9415,-2.7374" style="stroke:#ff0000;stroke-width:0.0035;"/>
        <!-- Spline -->
        <path d="M-8.039,-3.1376 C-8.039,-3.1376 -3.9415,-3.1376 -3.9415,-3.1376" style="stroke:#ff0000;stroke-width:0.0035;"/>
        <!-- Spline -->
        <path d="M-8.789,-3.7001 C-8.8912,-3.7001 -8.9752,-3.6098 -8.9752,-3.5 C-8.9752,-3.5 -8.9752,-3.5 -8.9752,-3.5 C-8.9752,-3.3902 -8.8912,-3.2999 -8.789,-3.2999" style="stroke:#ff0000;stroke-width:0.0035;"/>
        <!-- Spline -->
        <path d="M-4.711,-3.7001 C-4.6088,-3.7001 -4.5247,-3.6098 -4.5247,-3.5 C-4.5247,-3.5 -4.5247,-3.5 -4.5247,-3.5 C-4.5247,-3.3902 -4.6088,-3.2999 -4.711,-3.2999" style="stroke:#ff0000;stroke-width:0.0035;"/>
        <!-- Spline -->
        <path d="M-8.789,-3.2999 C-8.789,-3.2999 -4.6915,-3.2999 -4.6915,-3.2999" style="stroke:#ff0000;stroke-width:0.0035;"/>
        <!-- Spline -->
        <path d="M-8.789,-3.7001 C-8.789,-3.7001 -4.6915,-3.7001 -4.6915,-3.7001" style="stroke:#ff0000;stroke-width:0.0035;"/>
        <!-- Spline -->
        <path d="M-8.039,-2.0126 C-8.1412,-2.0126 -8.2252,-1.9223 -8.2252,-1.8125 C-8.2252,-1.8125 -8.2252,-1.8125 -8.2252,-1.8125 C-8.2252,-1.7027 -8.1412,-1.6124 -8.039,-1.6124" style="stroke:#ff0000;stroke-width:0.0035;"/>
        <!-- Spline -->
        <path d="M-3.961,-2.0126 C-3.8588,-2.0126 -3.7747,-1.9223 -3.7747,-1.8125 C-3.7747,-1.8125 -3.7747,-1.8125 -3.7747,-1.8125 C-3.7747,-1.7027 -3.8588,-1.6124 -3.961,-1.6124" style="stroke:#ff0000;stroke-width:0.0035;"/>
        <!-- Spline -->
        <path d="M-8.039,-1.6124 C-8.039,-1.6124 -3.9415,-1.6124 -3.9415,-1.6124" style="stroke:#ff0000;stroke-width:0.0035;"/>
        <!-- Spline -->
        <path d="M-8.039,-2.0126 C-8.039,-2.0126 -3.9415,-2.0126 -3.9415,-2.0126" style="stroke:#ff0000;stroke-width:0.0035;"/>
        <!-- Spline -->
        <path d="M-8.414,-2.5751 C-8.5162,-2.5751 -8.6002,-2.4848 -8.6002,-2.375 C-8.6002,-2.375 -8.6002,-2.375 -8.6002,-2.375 C-8.6002,-2.2652 -8.5162,-2.1749 -8.414,-2.1749" style="stroke:#ff0000;stroke-width:0.0035;"/>
        <!-- Spline -->
        <path d="M-4.336,-2.5751 C-4.2338,-2.5751 -4.1497,-2.4848 -4.1497,-2.375 C-4.1497,-2.375 -4.1497,-2.375 -4.1497,-2.375 C-4.1497,-2.2652 -4.2338,-2.1749 -4.336,-2.1749" style="stroke:#ff0000;stroke-width:0.0035;"/>
        <!-- Spline -->
        <path d="M-8.414,-2.1749 C-8.414,-2.1749 -4.3165,-2.1749 -4.3165,-2.1749" style="stroke:#ff0000;stroke-width:0.0035;"/>
        <!-- Spline -->
        <path d="M-8.414,-2.5751 C-8.414,-2.5751 -4.3165,-2.5751 -4.3165,-2.5751" style="stroke:#ff0000;stroke-width:0.0035;"/>
        <!-- Spline -->
        <path d="M-7.664,-5.3876 C-7.7662,-5.3876 -7.8502,-5.2973 -7.8502,-5.1875 C-7.8502,-5.1875 -7.8502,-5.1875 -7.8502,-5.1875 C-7.8502,-5.0777 -7.7662,-4.9874 -7.664,-4.9874" style="stroke:#ff0000;stroke-width:0.0035;"/>
        <!-- Spline -->
        <path d="M-3.586,-5.3876 C-3.4838,-5.3876 -3.3997,-5.2973 -3.3997,-5.1875 C-3.3997,-5.1875 -3.3997,-5.1875 -3.3997,-5.1875 C-3.3997,-5.0777 -3.4838,-4.9874 -3.586,-4.9874" style="stroke:#ff0000;stroke-width:0.0035;"/>
        <!-- Spline -->
        <path d="M-7.664,-4.9874 C-7.664,-4.9874 -3.5665,-4.9874 -3.5665,-4.9874" style="stroke:#ff0000;stroke-width:0.0035;"/>
        <!-- Spline -->
        <path d="M-7.664,-5.3876 C-7.664,-5.3876 -3.5665,-5.3876 -3.5665,-5.3876" style="stroke:#ff0000;stroke-width:0.0035;"/>
        <!-- Spline -->
        <path d="M-8.414,-5.9501 C-8.5162,-5.9501 -8.6002,-5.8598 -8.6002,-5.75 C-8.6002,-5.75 -8.6002,-5.75 -8.6002,-5.75 C-8.6002,-5.6402 -8.5162,-5.5499 -8.414,-5.5499" style="stroke:#ff0000;stroke-width:0.0035;"/>
        <!-- Spline -->
        <path d="M-4.336,-5.9501 C-4.2338,-5.9501 -4.1497,-5.8598 -4.1497,-5.75 C-4.1497,-5.75 -4.1497,-5.75 -4.1497,-5.75 C-4.1497,-5.6402 -4.2338,-5.5499 -4.336,-5.5499" style="stroke:#ff0000;stroke-width:0.0035;"/>
        <!-- Spline -->
        <path d="M-8.414,-5.5499 C-8.414,-5.5499 -4.3165,-5.5499 -4.3165,-5.5499" style="stroke:#ff0000;stroke-width:0.0035;"/>
        <!-- Spline -->
        <path d="M-8.414,-5.9501 C-8.414,-5.9501 -4.3165,-5.9501 -4.3165,-5.9501" style="stroke:#ff0000;stroke-width:0.0035;"/>
        <!-- Spline -->
        <path d="M-8.414,-4.2626 C-8.5162,-4.2626 -8.6002,-4.1723 -8.6002,-4.0625 C-8.6002,-4.0625 -8.6002,-4.0625 -8.6002,-4.0625 C-8.6002,-3.9527 -8.5162,-3.8624 -8.414,-3.8624" style="stroke:#ff0000;stroke-width:0.0035;"/>
        <!-- Spline -->
        <path d="M-4.336,-4.2626 C-4.2338,-4.2626 -4.1497,-4.1723 -4.1497,-4.0625 C-4.1497,-4.0625 -4.1497,-4.0625 -4.1497,-4.0625 C-4.1497,-3.9527 -4.2338,-3.8624 -4.336,-3.8624" style="stroke:#ff0000;stroke-width:0.0035;"/>
        <!-- Spline -->
        <path d="M-8.414,-3.8624 C-8.414,-3.8624 -4.3165,-3.8624 -4.3165,-3.8624" style="stroke:#ff0000;stroke-width:0.0035;"/>
        <!-- Spline -->
        <path d="M-8.414,-4.2626 C-8.414,-4.2626 -4.3165,-4.2626 -4.3165,-4.2626" style="stroke:#ff0000;stroke-width:0.0035;"/>
        <!-- Spline -->
        <path d="M-8.039,-4.8251 C-8.1412,-4.8251 -8.2252,-4.7348 -8.2252,-4.625 C-8.2252,-4.625 -8.2252,-4.625 -8.2252,-4.625 C-8.2252,-4.5152 -8.1412,-4.4249 -8.039,-4.4249" style="stroke:#ff0000;stroke-width:0.0035;"/>
        <!-- Spline -->
        <path d="M-3.961,-4.8251 C-3.8588,-4.8251 -3.7747,-4.7348 -3.7747,-4.625 C-3.7747,-4.625 -3.7747,-4.625 -3.7747,-4.625 C-3.7747,-4.5152 -3.8588,-4.4249 -3.961,-4.4249" style="stroke:#ff0000;stroke-width:0.0035;"/>
        <!-- Spline -->
        <path d="M-8.039,-4.4249 C-8.039,-4.4249 -3.9415,-4.4249 -3.9415,-4.4249" style="stroke:#ff0000;stroke-width:0.0035;"/>
        <!-- Spline -->
        <path d="M-8.039,-4.8251 C-8.039,-4.8251 -3.9415,-4.8251 -3.9415,-4.8251" style="stroke:#ff0000;stroke-width:0.0035;"/>
        <!-- Spline -->
        <path d="M-8.039,-6.5126 C-8.1412,-6.5126 -8.2252,-6.4223 -8.2252,-6.3125 C-8.2252,-6.3125 -8.2252,-6.3125 -8.2252,-6.3125 C-8.2252,-6.2027 -8.1412,-6.1124 -8.039,-6.1124" style="stroke:#ff0000;stroke-width:0.0035;"/>
        <!-- Spline -->
        <path d="M-3.961,-6.5126 C-3.8588,-6.5126 -3.7747,-6.4223 -3.7747,-6.3125 C-3.7747,-6.3125 -3.7747,-6.3125 -3.7747,-6.3125 C-3.7747,-6.2027 -3.8588,-6.1124 -3.961,-6.1124" style="stroke:#ff0000;stroke-width:0.0035;"/>
        <!-- Spline -->
        <path d="M-8.039,-6.1124 C-8.039,-6.1124 -3.9415,-6.1124 -3.9415,-6.1124" style="stroke:#ff0000;stroke-width:0.0035;"/>
        <!-- Spline -->
        <path d="M-8.039,-6.5126 C-8.039,-6.5126 -3.9415,-6.5126 -3.9415,-6.5126" style="stroke:#ff0000;stroke-width:0.0035;"/>
        <!-- Spline -->
        <path d="M-8.789,-7.0751 C-8.8912,-7.0751 -8.9752,-6.9848 -8.9752,-6.875 C-8.9752,-6.875 -8.9752,-6.875 -8.9752,-6.875 C-8.9752,-6.7652 -8.8912,-6.6749 -8.789,-6.6749" style="stroke:#ff0000;stroke-width:0.0035;"/>
        <!-- Spline -->
        <path d="M-4.711,-7.0751 C-4.6088,-7.0751 -4.5247,-6.9848 -4.5247,-6.875 C-4.5247,-6.875 -4.5247,-6.875 -4.5247,-6.875 C-4.5247,-6.7652 -4.6088,-6.6749 -4.711,-6.6749" style="stroke:#ff0000;stroke-width:0.0035;"/>
        <!-- Spline -->
        <path d="M-8.789,-6.6749 C-8.789,-6.6749 -4.6915,-6.6749 -4.6915,-6.6749" style="stroke:#ff0000;stroke-width:0.0035;"/>
        <!-- Spline -->
        <path d="M-8.789,-7.0751 C-8.789,-7.0751 -4.6915,-7.0751 -4.6915,-7.0751" style="stroke:#ff0000;stroke-width:0.0035;"/>
        <!-- Spline -->
        <path d="M-3.3515,-3.1376 C-3.4537,-3.1376 -3.5377,-3.0473 -3.5377,-2.9375 C-3.5377,-2.9375 -3.5377,-2.9375 -3.5377,-2.9375 C-3.5377,-2.8277 -3.4537,-2.7374 -3.3515,-2.7374" style="stroke:#ff0000;stroke-width:0.0035;"/>
        <!-- Spline -->
        <path d="M0.7265,-3.1376 C0.8287,-3.1376 0.9128,-3.0473 0.9128,-2.9375 C0.9128,-2.9375 0.9128,-2.9375 0.9128,-2.9375 C0.9128,-2.8277 0.8287,-2.7374 0.7265,-2.7374" style="stroke:#ff0000;stroke-width:0.0035;"/>
        <!-- Spline -->
        <path d="M-3.3515,-2.7374 C-3.3515,-2.7374 0.746,-2.7374 0.746,-2.7374" style="stroke:#ff0000;stroke-width:0.0035;"/>
        <!-- Spline -->
        <path d="M-3.3515,-3.1376 C-3.3515,-3.1376 0.746,-3.1376 0.746,-3.1376" style="stroke:#ff0000;stroke-width:0.0035;"/>
        <!-- Spline -->
        <path d="M-4.1015,-3.7001 C-4.2037,-3.7001 -4.2877,-3.6098 -4.2877,-3.5 C-4.2877,-3.5 -4.2877,-3.5 -4.2877,-3.5 C-4.2877,-3.3902 -4.2037,-3.2999 -4.1015,-3.2999" style="stroke:#ff0000;stroke-width:0.0035;"/>
        <!-- Spline -->
        <path d="M-0.0235,-3.7001 C0.0787,-3.7001 0.1628,-3.6098 0.1628,-3.5 C0.1628,-3.5 0.1628,-3.5 0.1628,-3.5 C0.1628,-3.3902 0.0787,-3.2999 -0.0235,-3.2999" style="stroke:#ff0000;stroke-width:0.0035;"/>
        <!-- Spline -->
        <path d="M-4.1015,-3.2999 C-4.1015,-3.2999 -0.004,-3.2999 -0.004,-3.2999" style="stroke:#ff0000;stroke-width:0.0035;"/>
        <!-- Spline -->
        <path d="M-4.1015,-3.7001 C-4.1015,-3.7001 -0.004,-3.7001 -0.004,-3.7001" style="stroke:#ff0000;stroke-width:0.0035;"/>
        <!-- Spline -->
        <path d="M-3.3515,-2.0126 C-3.4537,-2.0126 -3.5377,-1.9223 -3.5377,-1.8125 C-3.5377,-1.8125 -3.5377,-1.8125 -3.5377,-1.8125 C-3.5377,-1.7027 -3.4537,-1.6124 -3.3515,-1.6124" style="stroke:#ff0000;stroke-width:0.0035;"/>
        <!-- Spline -->
        <path d="M0.7265,-2.0126 C0.8287,-2.0126 0.9128,-1.9223 0.9128,-1.8125 C0.9128,-1.8125 0.9128,-1.8125 0.9128,-1.8125 C0.9128,-1.7027 0.8287,-1.6124 0.7265,-1.6124" style="stroke:#ff0000;stroke-width:0.0035;"/>
        <!-- Spline -->
        <path d="M-3.3515,-1.6124 C-3.3515,-1.6124 0.746,-1.6124 0.746,-1.6124" style="stroke:#ff0000;stroke-width:0.0035;"/>
        <!-- Spline -->
        <path d="M-3.3515,-2.0126 C-3.3515,-2.0126 0.746,-2.0126 0.746,-2.0126" style="stroke:#ff0000;stroke-width:0.0035;"/>
        <!-- Spline -->
        <path d="M-3.7265,-2.5751 C-3.8287,-2.5751 -3.9127,-2.4848 -3.9127,-2.375 C-3.9127,-2.375 -3.9127,-2.375 -3.9127,-2.375 C-3.9127,-2.2652 -3.8287,-2.1749 -3.7265,-2.1749" style="stroke:#ff0000;stroke-width:0.0035;"/>
        <!-- Spline -->
        <path d="M0.3515,-2.5751 C0.4537,-2.5751 0.5378,-2.4848 0.5378,-2.375 C0.5378,-2.375 0.5378,-2.375 0.5378,-2.375 C0.5378,-2.2652 0.4537,-2.1749 0.3515,-2.1749" style="stroke:#ff0000;stroke-width:0.0035;"/>
        <!-- Spline -->
        <path d="M-3.7265,-2.1749 C-3.7265,-2.1749 0.371,-2.1749 0.371,-2.1749" style="stroke:#ff0000;stroke-width:0.0035;"/>
        <!-- Spline -->
        <path d="M-3.7265,-2.5751 C-3.7265,-2.5751 0.371,-2.5751 0.371,-2.5751" style="stroke:#ff0000;stroke-width:0.0035;"/>
        <!-- Spline -->
        <path d="M-2.9765,-5.3876 C-3.0787,-5.3876 -3.1627,-5.2973 -3.1627,-5.1875 C-3.1627,-5.1875 -3.1627,-5.1875 -3.1627,-5.1875 C-3.1627,-5.0777 -3.0787,-4.9874 -2.9765,-4.9874" style="stroke:#ff0000;stroke-width:0.0035;"/>
        <!-- Spline -->
        <path d="M1.1015,-5.3876 C1.2037,-5.3876 1.2878,-5.2973 1.2878,-5.1875 C1.2878,-5.1875 1.2878,-5.1875 1.2878,-5.1875 C1.2878,-5.0777 1.2037,-4.9874 1.1015,-4.9874" style="stroke:#ff0000;stroke-width:0.0035;"/>
        <!-- Spline -->
        <path d="M-2.9765,-4.9874 C-2.9765,-4.9874 1.121,-4.9874 1.121,-4.9874" style="stroke:#ff0000;stroke-width:0.0035;"/>
        <!-- Spline -->
        <path d="M-2.9765,-5.3876 C-2.9765,-5.3876 1.121,-5.3876 1.121,-5.3876" style="stroke:#ff0000;stroke-width:0.0035;"/>
        <!-- Spline -->
        <path d="M-3.7265,-5.9501 C-3.8287,-5.9501 -3.9127,-5.8598 -3.9127,-5.75 C-3.9127,-5.75 -3.9127,-5.75 -3.9127,-5.75 C-3.9127,-5.6402 -3.8287,-5.5499 -3.7265,-5.5499" style="stroke:#ff0000;stroke-width:0.0035;"/>
        <!-- Spline -->
        <path d="M0.3515,-5.9501 C0.4537,-5.9501 0.5378,-5.8598 0.5378,-5.75 C0.5378,-5.75 0.5378,-5.75 0.5378,-5.75 C0.5378,-5.6402 0.4537,-5.5499 0.3515,-5.5499" style="stroke:#ff0000;stroke-width:0.0035;"/>
        <!-- Spline -->
        <path d="M-3.7265,-5.5499 C-3.7265,-5.5499 0.371,-5.5499 0.371,-5.5499" style="stroke:#ff0000;stroke-width:0.0035;"/>
        <!-- Spline -->
        <path d="M-3.7265,-5.9501 C-3.7265,-5.9501 0.371,-5.9501 0.371,-5.9501" style="stroke:#ff0000;stroke-width:0.0035;"/>
        <!-- Spline -->
        <path d="M-3.7265,-4.2626 C-3.8287,-4.2626 -3.9127,-4.1723 -3.9127,-4.0625 C-3.9127,-4.0625 -3.9127,-4.0625 -3.9127,-4.0625 C-3.9127,-3.9527 -3.8287,-3.8624 -3.7265,-3.8624" style="stroke:#ff0000;stroke-width:0.0035;"/>
        <!-- Spline -->
        <path d="M0.3515,-4.2626 C0.4537,-4.2626 0.5378,-4.1723 0.5378,-4.0625 C0.5378,-4.0625 0.5378,-4.0625 0.5378,-4.0625 C0.5378,-3.9527 0.4537,-3.8624 0.3515,-3.8624" style="stroke:#ff0000;stroke-width:0.0035;"/>
        <!-- Spline -->
        <path d="M-3.7265,-3.8624 C-3.7265,-3.8624 0.371,-3.8624 0.371,-3.8624" style="stroke:#ff0000;stroke-width:0.0035;"/>
        <!-- Spline -->
        <path d="M-3.7265,-4.2626 C-3.7265,-4.2626 0.371,-4.2626 0.371,-4.2626" style="stroke:#ff0000;stroke-width:0.0035;"/>
        <!-- Spline -->
        <path d="M-3.3515,-4.8251 C-3.4537,-4.8251 -3.5377,-4.7348 -3.5377,-4.625 C-3.5377,-4.625 -3.5377,-4.625 -3.5377,-4.625 C-3.5377,-4.5152 -3.4537,-4.4249 -3.3515,-4.4249" style="stroke:#ff0000;stroke-width:0.0035;"/>
        <!-- Spline -->
        <path d="M0.7265,-4.8251 C0.8287,-4.8251 0.9128,-4.7348 0.9128,-4.625 C0.9128,-4.625 0.9128,-4.625 0.9128,-4.625 C0.9128,-4.5152 0.8287,-4.4249 0.7265,-4.4249" style="stroke:#ff0000;stroke-width:0.0035;"/>
        <!-- Spline -->
        <path d="M-3.3515,-4.4249 C-3.3515,-4.4249 0.746,-4.4249 0.746,-4.4249" style="stroke:#ff0000;stroke-width:0.0035;"/>
        <!-- Spline -->
        <path d="M-3.3515,-4.8251 C-3.3515,-4.8251 0.746,-4.8251 0.746,-4.8251" style="stroke:#ff0000;stroke-width:0.0035;"/>
        <!-- Spline -->
        <path d="M-3.3515,-6.5126 C-3.4537,-6.5126 -3.5377,-6.4223 -3.5377,-6.3125 C-3.5377,-6.3125 -3.5377,-6.3125 -3.5377,-6.3125 C-3.5377,-6.2027 -3.4537,-6.1124 -3.3515,-6.1124" style="stroke:#ff0000;stroke-width:0.0035;"/>
        <!-- Spline -->
        <path d="M0.7265,-6.5126 C0.8287,-6.5126 0.9128,-6.4223 0.9128,-6.3125 C0.9128,-6.3125 0.9128,-6.3125 0.9128,-6.3125 C0.9128,-6.2027 0.8287,-6.1124 0.7265,-6.1124" style="stroke:#ff0000;stroke-width:0.0035;"/>
        <!-- Spline -->
        <path d="M-3.3515,-6.1124 C-3.3515,-6.1124 0.746,-6.1124 0.746,-6.1124" style="stroke:#ff0000;stroke-width:0.0035;"/>
        <!-- Spline -->
        <path d="M-3.3515,-6.5126 C-3.3515,-6.5126 0.746,-6.5126 0.746,-6.5126" style="stroke:#ff0000;stroke-width:0.0035;"/>
        <!-- Spline -->
        <path d="M-4.1015,-7.0751 C-4.2037,-7.0751 -4.2877,-6.9848 -4.2877,-6.875 C-4.2877,-6.875 -4.2877,-6.875 -4.2877,-6.875 C-4.2877,-6.7652 -4.2037,-6.6749 -4.1015,-6.6749" style="stroke:#ff0000;stroke-width:0.0035;"/>
        <!-- Spline -->
        <path d="M-0.0235,-7.0751 C0.0787,-7.0751 0.1628,-6.9848 0.1628,-6.875 C0.1628,-6.875 0.1628,-6.875 0.1628,-6.875 C0.1628,-6.7652 0.0787,-6.6749 -0.0235,-6.6749" style="stroke:#ff0000;stroke-width:0.0035;"/>
        <!-- Spline -->
        <path d="M-4.1015,-6.6749 C-4.1015,-6.6749 -0.004,-6.6749 -0.004,-6.6749" style="stroke:#ff0000;stroke-width:0.0035;"/>
        <!-- Spline -->
        <path d="M-4.1015,-7.0751 C-4.1015,-7.0751 -0.004,-7.0751 -0.004,-7.0751" style="stroke:#ff0000;stroke-width:0.0035;"/>
        <!-- Spline -->
        <path d="M2.4375,-8 C2.4375,-8 -15,-8 -15,-8 C-15,-8 -15,-0.875 -15,-0.875 C-15,-0.875 2.4375,-0.875 2.4375,-0.875 C2.4375,-0.875 2.4375,-8 2.4375,-8" style="stroke:#ff0000;stroke-width:0.0035;"/>
        <!-- Spline -->
        <path d="M-15,-0.875 C-15,-0.875 -16.0412,-0.875 -16.0412,-0.875" style="stroke:#ff0000;stroke-width:0.0035;"/>
        <!-- Spline -->
        <path d="M2.4375,-8 C2.4375,-8 2.4375,-9.0228 2.4375,-9.0228" style="stroke:#ff0000;stroke-width:0.0035;"/>
    </g>
</svg>
