<svg width="611.0" height="337.0" viewBox="-56.0846837101 -288.5 611.0 337.0" preserveAspectRatio="xMinYMin meet" version="1.1" xmlns="http://www.w3.org/2000/svg">
  <symbol id="cifrao" viewBox="0 0 500 600">
    <path stroke-width="55" d="m119,312c4,70 58,111 130,110c78,1 129,-34 125,-101c-11,-61 -78,-69 -122,-79c-48,-16 -118,-16 -117,-89c-1,-53 59,-84 117,-78c60,1 111,32 112,96" />
    <path stroke-width="40" d="m221,17l0,464m63,0l0,-464" />
  </symbol>
  <polygon fill="white" points="443.4050067376, 0.0 471.1178196587, 48.0 526.5434455009, 48.0 554.256258422, 0.0 526.5434455009, -48.0 554.256258422, -96.0 526.5434455009, -144.0 554.256258422, -192.0 526.5434455009, -240.0 471.1178196587, -240.0 443.4050067376, -288.0 387.9793808954, -288.0 360.2665679743, -240.0 304.8409421321, -240.0 277.128129211, -288.0 221.7025033688, -288.0 193.9896904477, -240.0 138.5640646055, -240.0 110.8512516844, -288.0 55.4256258422, -288.0 27.7128129211, -240.0 -27.7128129211, -240.0 -55.4256258422, -192.0 -27.7128129211, -144.0 -55.4256258422, -96.0 -27.7128129211, -48.0 -55.4256258422, 0.0 -27.7128129211, 48.0 27.7128129211, 48.0 55.4256258422, 0.0 110.8512516844, 0.0 138.5640646055, 48.0 193.9896904477, 48.0 221.7025033688, 0.0 277.128129211, 0.0 304.8409421321, 48.0 360.2665679743, 48.0 387.9793808954, 0.0" />
  <g stroke="black" stroke-width="1.0" stroke-linecap="round">
    <line x1="110.8512516844" y1="-192.0" x2="138.5640646055" y2="-240.0" />
    <line x1="27.7128129211" y1="-240.0" x2="55.4256258422" y2="-192.0" />
    <line x1="27.7128129211" y1="-144.0" x2="55.4256258422" y2="-96.0" />
    <line x1="110.8512516844" y1="-96.0" x2="138.5640646055" y2="-48.0" />
    <line x1="-55.4256258422" y1="-96.0" x2="-27.7128129211" y2="-48.0" />
    <line x1="387.9793808954" y1="-192.0" x2="443.4050067376" y2="-192.0" />
    <line x1="387.9793808954" y1="-96.0" x2="443.4050067376" y2="-96.0" />
    <line x1="110.8512516844" y1="-288.0" x2="138.5640646055" y2="-240.0" />
    <line x1="110.8512516844" y1="-192.0" x2="138.5640646055" y2="-144.0" />
    <line x1="471.1178196587" y1="-240.0" x2="526.5434455009" y2="-240.0" />
    <line x1="443.4050067376" y1="-192.0" x2="471.1178196587" y2="-240.0" />
    <line x1="526.5434455009" y1="-240.0" x2="554.256258422" y2="-192.0" />
    <line x1="443.4050067376" y1="-96.0" x2="471.1178196587" y2="-144.0" />
    <line x1="387.9793808954" y1="0.0" x2="443.4050067376" y2="0.0" />
    <line x1="-27.7128129211" y1="-48.0" x2="27.7128129211" y2="-48.0" />
    <line x1="360.2665679743" y1="-144.0" x2="387.9793808954" y2="-192.0" />
    <line x1="277.128129211" y1="-96.0" x2="304.8409421321" y2="-48.0" />
    <line x1="526.5434455009" y1="-48.0" x2="554.256258422" y2="-96.0" />
    <line x1="138.5640646055" y1="-240.0" x2="193.9896904477" y2="-240.0" />
    <line x1="443.4050067376" y1="-192.0" x2="471.1178196587" y2="-144.0" />
    <line x1="-27.7128129211" y1="-240.0" x2="27.7128129211" y2="-240.0" />
    <line x1="-27.7128129211" y1="-144.0" x2="27.7128129211" y2="-144.0" />
    <line x1="138.5640646055" y1="48.0" x2="193.9896904477" y2="48.0" />
    <line x1="193.9896904477" y1="-240.0" x2="221.7025033688" y2="-288.0" />
    <line x1="221.7025033688" y1="-192.0" x2="277.128129211" y2="-192.0" />
    <line x1="193.9896904477" y1="-144.0" x2="221.7025033688" y2="-192.0" />
    <line x1="526.5434455009" y1="-48.0" x2="554.256258422" y2="0.0" />
    <line x1="27.7128129211" y1="48.0" x2="55.4256258422" y2="0.0" />
    <line x1="55.4256258422" y1="-96.0" x2="110.8512516844" y2="-96.0" />
    <line x1="471.1178196587" y1="-48.0" x2="526.5434455009" y2="-48.0" />
    <line x1="-27.7128129211" y1="48.0" x2="27.7128129211" y2="48.0" />
    <line x1="443.4050067376" y1="0.0" x2="471.1178196587" y2="-48.0" />
    <line x1="-55.4256258422" y1="-96.0" x2="-27.7128129211" y2="-144.0" />
    <line x1="138.5640646055" y1="-48.0" x2="193.9896904477" y2="-48.0" />
    <line x1="360.2665679743" y1="-48.0" x2="387.9793808954" y2="-96.0" />
    <line x1="193.9896904477" y1="-48.0" x2="221.7025033688" y2="-96.0" />
    <line x1="138.5640646055" y1="-144.0" x2="193.9896904477" y2="-144.0" />
    <line x1="387.9793808954" y1="-288.0" x2="443.4050067376" y2="-288.0" />
    <line x1="471.1178196587" y1="48.0" x2="526.5434455009" y2="48.0" />
    <line x1="277.128129211" y1="0.0" x2="304.8409421321" y2="48.0" />
    <line x1="360.2665679743" y1="-48.0" x2="387.9793808954" y2="0.0" />
    <line x1="221.7025033688" y1="-96.0" x2="277.128129211" y2="-96.0" />
    <line x1="193.9896904477" y1="-48.0" x2="221.7025033688" y2="0.0" />
    <line x1="55.4256258422" y1="0.0" x2="110.8512516844" y2="0.0" />
    <line x1="27.7128129211" y1="-48.0" x2="55.4256258422" y2="-96.0" />
    <line x1="277.128129211" y1="-96.0" x2="304.8409421321" y2="-144.0" />
    <line x1="360.2665679743" y1="-144.0" x2="387.9793808954" y2="-96.0" />
    <line x1="277.128129211" y1="-288.0" x2="304.8409421321" y2="-240.0" />
    <line x1="304.8409421321" y1="-144.0" x2="360.2665679743" y2="-144.0" />
    <line x1="193.9896904477" y1="48.0" x2="221.7025033688" y2="0.0" />
    <line x1="27.7128129211" y1="-48.0" x2="55.4256258422" y2="0.0" />
    <line x1="193.9896904477" y1="-240.0" x2="221.7025033688" y2="-192.0" />
    <line x1="110.8512516844" y1="-96.0" x2="138.5640646055" y2="-144.0" />
    <line x1="193.9896904477" y1="-144.0" x2="221.7025033688" y2="-96.0" />
    <line x1="55.4256258422" y1="-288.0" x2="110.8512516844" y2="-288.0" />
    <line x1="55.4256258422" y1="-192.0" x2="110.8512516844" y2="-192.0" />
    <line x1="526.5434455009" y1="-144.0" x2="554.256258422" y2="-192.0" />
    <line x1="-55.4256258422" y1="0.0" x2="-27.7128129211" y2="48.0" />
    <line x1="110.8512516844" y1="0.0" x2="138.5640646055" y2="48.0" />
    <line x1="526.5434455009" y1="48.0" x2="554.256258422" y2="0.0" />
    <line x1="471.1178196587" y1="-144.0" x2="526.5434455009" y2="-144.0" />
    <line x1="277.128129211" y1="0.0" x2="304.8409421321" y2="-48.0" />
    <line x1="304.8409421321" y1="-48.0" x2="360.2665679743" y2="-48.0" />
    <line x1="-55.4256258422" y1="-192.0" x2="-27.7128129211" y2="-240.0" />
    <line x1="526.5434455009" y1="-144.0" x2="554.256258422" y2="-96.0" />
    <line x1="277.128129211" y1="-192.0" x2="304.8409421321" y2="-240.0" />
    <line x1="443.4050067376" y1="-96.0" x2="471.1178196587" y2="-48.0" />
    <line x1="360.2665679743" y1="-240.0" x2="387.9793808954" y2="-288.0" />
    <line x1="304.8409421321" y1="-240.0" x2="360.2665679743" y2="-240.0" />
    <line x1="-55.4256258422" y1="-192.0" x2="-27.7128129211" y2="-144.0" />
    <line x1="443.4050067376" y1="0.0" x2="471.1178196587" y2="48.0" />
    <line x1="443.4050067376" y1="-288.0" x2="471.1178196587" y2="-240.0" />
    <line x1="277.128129211" y1="-192.0" x2="304.8409421321" y2="-144.0" />
    <line x1="221.7025033688" y1="-288.0" x2="277.128129211" y2="-288.0" />
    <line x1="304.8409421321" y1="48.0" x2="360.2665679743" y2="48.0" />
    <line x1="360.2665679743" y1="-240.0" x2="387.9793808954" y2="-192.0" />
    <line x1="221.7025033688" y1="0.0" x2="277.128129211" y2="0.0" />
    <line x1="27.7128129211" y1="-240.0" x2="55.4256258422" y2="-288.0" />
    <line x1="-55.4256258422" y1="0.0" x2="-27.7128129211" y2="-48.0" />
    <line x1="27.7128129211" y1="-144.0" x2="55.4256258422" y2="-192.0" />
    <line x1="360.2665679743" y1="48.0" x2="387.9793808954" y2="0.0" />
    <line x1="110.8512516844" y1="0.0" x2="138.5640646055" y2="-48.0" />
  </g>
  <circle cx="63.3384387633" cy="-274.2946059899" r="2.4" fill="black" />
</svg>