<?xml version="1.0" encoding="UTF-8" standalone="no"?>
<svg
   width="139.895"
   height="139.895"
   viewBox="0 0 437.17192 437.1719"
   version="1.2"
   id="svg13"
   xmlns="http://www.w3.org/2000/svg"
   xmlns:svg="http://www.w3.org/2000/svg">
  <defs
     id="defs1" />
  <g
     fill="#000000"
     fill-opacity="1"
     stroke="#000000"
     stroke-opacity="1"
     stroke-width="5"
     stroke-linecap="round"
     stroke-linejoin="bevel"
     font-family="Arial"
     font-size="12px"
     font-weight="400"
     font-style="normal"
     id="g11"
     style="fill-rule:evenodd"
     transform="translate(-1375.54,-1179.324)">
    <polyline
       fill="none"
       vector-effect="none"
       points="1518.52,1191.27 1425.39,1542.94 "
       id="polyline3"
       style="stroke-width:23.8937;stroke-dasharray:none" />
    <polyline
       fill="none"
       vector-effect="none"
       points="1554,1592.75 1763.11,1191.27 "
       id="polyline4"
       style="stroke-width:23.8937;stroke-dasharray:none" />
    <polyline
       fill="none"
       vector-effect="none"
       points="1428.04,1552.9 1427.59,1552.19 1427.18,1551.49 1426.8,1550.8 1426.47,1550.12 1426.17,1549.45 1425.9,1548.79 1425.68,1548.15 1425.5,1547.51 1425.35,1546.88 1425.24,1546.27 1425.17,1545.67 1425.14,1545.08 1425.15,1544.51 1425.2,1543.95 1425.29,1543.4 1425.41,1542.87 1425.58,1542.35 1425.78,1541.84 1426.02,1541.36 1426.3,1540.88 1426.62,1540.43 1426.97,1539.98 1427.37,1539.56 1427.8,1539.15 1428.27,1538.76 1428.77,1538.38 1429.31,1538.03 1429.89,1537.69 1430.51,1537.36 1431.16,1537.06 1431.84,1536.77 1432.56,1536.5 1433.31,1536.25 1434.1,1536.02 1434.92,1535.81 1435.78,1535.61 1436.67,1535.44 1437.59,1535.28 1438.54,1535.14 1439.52,1535.03 1440.53,1534.93 1441.57,1534.85 1442.64,1534.79 1443.74,1534.75 1444.86,1534.72 1446.02,1534.72 1447.2,1534.74 1448.4,1534.77 1449.63,1534.83 1450.89,1534.91 1452.16,1535 1453.46,1535.11 1454.79,1535.25 1456.13,1535.4 1457.49,1535.57 1458.88,1535.76 1460.28,1535.97 1461.7,1536.19 1463.14,1536.44 1464.59,1536.7 1466.06,1536.99 1467.54,1537.29 1469.03,1537.61 1470.54,1537.94 1472.06,1538.29 1473.59,1538.67 1475.13,1539.05 1476.68,1539.46 1478.24,1539.88 1479.8,1540.32 1481.37,1540.77 1482.95,1541.24 1484.53,1541.72 1486.11,1542.22 1487.7,1542.74 1489.28,1543.27 1490.87,1543.81 1492.46,1544.37 1494.04,1544.94 1495.62,1545.52 1497.2,1546.12 1498.78,1546.73 1500.35,1547.35 1501.91,1547.99 1503.47,1548.63 1505.02,1549.29 1506.55,1549.96 1508.08,1550.63 1509.6,1551.32 1511.11,1552.02 1512.6,1552.72 1514.08,1553.44 1515.55,1554.16 1517,1554.89 1518.43,1555.63 1519.85,1556.37 1521.25,1557.13 1522.63,1557.88 1523.99,1558.64 1525.33,1559.41 1526.65,1560.18 1527.95,1560.96 1529.23,1561.74 1530.48,1562.52 1531.71,1563.31 1532.91,1564.1 1534.08,1564.89 1535.23,1565.68 1536.36,1566.47 1537.45,1567.26 1538.52,1568.06 1539.56,1568.85 1540.56,1569.64 1541.54,1570.43 1542.49,1571.22 1543.4,1572 1544.29,1572.78 1545.14,1573.56 1545.96,1574.34 1546.74,1575.11 1547.49,1575.87 1548.21,1576.63 1548.89,1577.39 1549.53,1578.14 1550.14,1578.88 1550.72,1579.61 1551.25,1580.34 1551.75,1581.06 1552.22,1581.77 1552.64,1582.47 1553.03,1583.17 1553.38,1583.85 1553.7,1584.52 1553.97,1585.19 1554.21,1585.84 1554.41,1586.48 1554.57,1587.11 1554.69,1587.73 1554.77,1588.33 1554.81,1588.92 1554.82,1589.5 1554.78,1590.07 1554.71,1590.62 1554.6,1591.16 1554.45,1591.68 1554.26,1592.19 1554.03,1592.68 1553.76,1593.16 1553.46,1593.62 1553.12,1594.07 1552.74,1594.5 1552.32,1594.92 1551.86,1595.31 1551.37,1595.7 1550.84,1596.06 1550.28,1596.41 1549.67,1596.73 1549.04,1597.04 1548.36,1597.34 1547.66,1597.61 1546.91,1597.87 1546.14,1598.11 1545.33,1598.33 "
       id="polyline5"
       style="stroke-width:23.8937;stroke-dasharray:none" />
    <polyline
       fill="none"
       vector-effect="none"
       points="1518.52,1191.27 1763.11,1191.27 "
       id="polyline6"
       style="stroke-width:23.8937;stroke-dasharray:none" />
    <polyline
       fill="none"
       vector-effect="none"
       points="1426.66,1550.03 1426.37,1549.36 1426.12,1548.71 1425.91,1548.07 1425.74,1547.44 1425.6,1546.82 1425.5,1546.22 1425.44,1545.63 1425.42,1545.05 1425.44,1544.48 1425.5,1543.92 1425.59,1543.39 1425.73,1542.86 1425.9,1542.35 1426.11,1541.85 1426.35,1541.37 1426.64,1540.9 1426.96,1540.45 1427.32,1540.02 1427.72,1539.6 1428.15,1539.2 1428.63,1538.81 1429.13,1538.44 1429.68,1538.09 1430.26,1537.76 1430.87,1537.44 1431.52,1537.14 1432.21,1536.86 1432.93,1536.59 1433.68,1536.35 1434.47,1536.12 1435.29,1535.91 1436.15,1535.72 1437.03,1535.55 1437.95,1535.4 1438.89,1535.27 1439.87,1535.15 1440.88,1535.06 1441.92,1534.98 1442.98,1534.92 1444.08,1534.88 1445.2,1534.86 1446.35,1534.86 1447.52,1534.88 1448.72,1534.92 1449.94,1534.98 1451.19,1535.05 1452.46,1535.15 1453.75,1535.26 1455.07,1535.4 1456.4,1535.55 1457.76,1535.72 1459.13,1535.91 1460.52,1536.12 1461.93,1536.35 1463.36,1536.59 1464.8,1536.86 1466.26,1537.14 1467.73,1537.44 1469.22,1537.75 1470.71,1538.09 1472.22,1538.44 1473.74,1538.81 1475.27,1539.19 1476.81,1539.6 1478.35,1540.01 1479.91,1540.45 1481.46,1540.9 1483.03,1541.37 1484.6,1541.85 1486.17,1542.34 1487.74,1542.85 1489.31,1543.38 1490.89,1543.92 1492.46,1544.47 1494.04,1545.04 1495.61,1545.62 1497.17,1546.21 1498.74,1546.82 1500.29,1547.44 1501.85,1548.07 1503.39,1548.71 1504.93,1549.36 1506.45,1550.02 1507.97,1550.69 1509.48,1551.37 1510.97,1552.06 1512.46,1552.76 1513.93,1553.47 1515.38,1554.19 1516.82,1554.91 1518.25,1555.65 1519.65,1556.39 1521.04,1557.13 1522.42,1557.88 1523.77,1558.64 1525.1,1559.4 1526.41,1560.17 1527.7,1560.94 1528.97,1561.71 1530.21,1562.49 1531.43,1563.27 1532.62,1564.05 1533.79,1564.83 1534.94,1565.62 1536.05,1566.4 1537.14,1567.19 1538.21,1567.98 1539.24,1568.76 1540.24,1569.55 1541.21,1570.33 1542.16,1571.11 1543.07,1571.89 1543.95,1572.67 1544.8,1573.44 1545.61,1574.21 1546.4,1574.98 1547.14,1575.74 1547.86,1576.49 1548.54,1577.24 1549.19,1577.98 1549.8,1578.72 1550.37,1579.45 1550.91,1580.18 1551.41,1580.89 1551.88,1581.6 1552.31,1582.3 1552.7,1582.98 1553.05,1583.66 1553.37,1584.33 1553.65,1584.99 1553.89,1585.64 1554.09,1586.28 1554.26,1586.91 1554.39,1587.52 1554.48,1588.13 1554.53,1588.72 1554.54,1589.29 1554.51,1589.86 1554.45,1590.41 1554.34,1590.94 1554.2,1591.47 1554.02,1591.97 1553.8,1592.47 1553.55,1592.95 1553.25,1593.41 1552.92,1593.86 1552.55,1594.29 1552.15,1594.7 1551.7,1595.1 1551.22,1595.48 1550.71,1595.85 1550.16,1596.19 1549.57,1596.53 1548.94,1596.84 1548.28,1597.13 "
       id="polyline10"
       style="stroke-width:23.8937;stroke-dasharray:none" />
    <polyline
       fill="none"
       vector-effect="none"
       points="1426.66,1550.03 1427.64,1552.09 1428.68,1554.14 1429.76,1556.16 1430.89,1558.15 1432.07,1560.11 1433.3,1562.04 1434.57,1563.95 1435.89,1565.82 1437.26,1567.66 1438.67,1569.46 1440.12,1571.23 1441.62,1572.96 1443.16,1574.66 1444.73,1576.32 1446.35,1577.94 1448.01,1579.51 1449.71,1581.05 1451.44,1582.55 1453.21,1584 1455.02,1585.41 1456.86,1586.78 1458.73,1588.1 1460.63,1589.37 1462.57,1590.6 1464.53,1591.77 1466.52,1592.9 1468.54,1593.99 1470.58,1595.02 1472.65,1596 1474.75,1596.93 1476.86,1597.81 1479,1598.64 1481.15,1599.41 1483.32,1600.13 1485.51,1600.8 1487.72,1601.41 1489.94,1601.98 1492.17,1602.48 1494.42,1602.93 1496.67,1603.33 1498.94,1603.67 1501.21,1603.96 1503.49,1604.19 1505.77,1604.36 1508.06,1604.48 1510.35,1604.54 1512.64,1604.55 1514.93,1604.5 1517.22,1604.39 1519.5,1604.23 1521.78,1604.01 1524.05,1603.74 1526.32,1603.41 1528.58,1603.03 1530.83,1602.59 1533.06,1602.1 1535.29,1601.55 1537.49,1600.94 1539.69,1600.29 1541.87,1599.58 1544.03,1598.82 1546.17,1598 1548.28,1597.13 "
       id="polyline11"
       style="stroke-width:23.8937;stroke-dasharray:none" />
  </g>
</svg>
