<?xml version="1.0" encoding="UTF-8" standalone="no"?>
<svg
   version="1.1"
   x="0px"
   y="0px"
   viewBox="0 0 71.694 71.694"
   enable-background="new 0 0 100 100"
   xml:space="preserve"
   id="svg7"
   width="71.694"
   height="71.694"
   xmlns="http://www.w3.org/2000/svg"
   xmlns:svg="http://www.w3.org/2000/svg"><defs
     id="defs7" /><g
     id="g7"
     transform="rotate(-45,29.261203,58.763712)"><rect
       x="76.198997"
       y="46.146"
       width="8.2742605"
       height="8.3730001"
       id="rect2"
       style="stroke-width:1.32415" /><polygon
       points="69.983,45.238 69.983,46.146 73.905,46.146 73.905,54.52 69.983,54.52 69.983,55.428 68.39,55.428 68.39,45.238 "
       id="polygon2"
       transform="translate(0.4)" /><g
       id="g4"><path
         d="M 92.772,50.334"
         id="path2" /><path
         d="M 87.325,50.334"
         id="path3" /><path
         d="M 87.325,50.334"
         id="path4" /></g><polygon
       points="92.772,46.146 92.855,46.147 95.605,48.239 95.605,52.429 92.855,54.521 92.772,54.52 87.325,53.535 87.325,54.52 85.731,54.52 85.731,46.146 87.325,46.146 87.325,47.131 "
       id="polygon4" /><path
       d="M 41.397,50.334"
       id="path5" /><path
       d="m 41.397,58.334 c 0,0 -3.924,0.375 -3.924,-3.25 h -0.192 l -8.797,-0.002 v -3.898 c -1.928,0.062 -5.947,-0.875 -9.072,-4.103 -3.125,-3.229 -7.396,-3.229 -8.812,-2.812 -1.416,0.417 -6.625,0.5 -7.417,0.354 -0.792,-0.146 -0.063,-1.729 0.895,-1.416 0.958,0.313 3.792,-0.125 6.396,-0.479 2.604,-0.354 6.958,-0.792 10.333,2.98 3.375,3.772 7.677,3.687 7.677,3.687 v -3.809 h 8.797 0.192 c 0,-3.625 3.924,-3.25 3.924,-3.25 l 0.29,-0.011 25.706,0.011 v 16 l -25.539,0.011 z"
       id="path6" /><line
       x1="67.393997"
       y1="42.334"
       x2="67.393997"
       y2="58.334"
       id="line6" /></g></svg>
