<?xml version="1.0" encoding="UTF-8" standalone="no"?>
<svg
   width="100%"
   height="100%"
   viewBox="0 0 25 25"
   version="1.1"
   xml:space="preserve"
   style="fill-rule:evenodd;clip-rule:evenodd;stroke-linecap:round;stroke-linejoin:round;stroke-miterlimit:2;"
   id="svg13"
   xmlns="http://www.w3.org/2000/svg"
   xmlns:svg="http://www.w3.org/2000/svg"
   xmlns:serif="http://www.serif.com/"><defs
   id="defs13" />
    <path
   id="LINE4"
   serif:id="LINE"
   d="M 13.11,12.6947 24.241,1.5637 c 0.277,-0.277 0.277,-0.725 0,-1.002 -0.276,-0.277 -0.725,-0.277 -1.002,0 L 13.11,10.6907 v -9.628 c 0,-0.391 -0.317,-0.709 -0.708,-0.709 -0.392,0 -0.709,0.318 -0.709,0.709 v 9.628 L 1.564,0.5617 C 1.431,0.4287 1.251,0.3537 1.063,0.3537 c -0.188,0 -0.368,0.075 -0.501,0.208 -0.133,0.133 -0.208,0.313 -0.208,0.501 0,0.188 0.075,0.368 0.208,0.501 L 11.693,12.6947 v 11.045 c 0,0.392 0.317,0.709 0.709,0.709 0.391,0 0.708,-0.317 0.708,-0.709 v -11.045"
   style="clip-rule:evenodd;fill:#000000;fill-rule:evenodd;stroke:#000000;stroke-width:0.71px;stroke-linecap:round;stroke-linejoin:round;stroke-miterlimit:2;fill-opacity:1" />
</svg>