<?xml version="1.0" encoding="UTF-8" standalone="no"?>
<svg
   width="27"
   height="27"
   viewBox="0 0 27 27"
   version="1.1"
   xml:space="preserve"
   style="clip-rule:evenodd;fill-rule:evenodd;stroke-linecap:round;stroke-linejoin:round;stroke-miterlimit:2"
   id="svg21"
   xmlns="http://www.w3.org/2000/svg"
   xmlns:svg="http://www.w3.org/2000/svg"
   xmlns:serif="http://www.serif.com/"><defs
   id="defs1" />
    <g
   id="g1"
   transform="translate(0.39,2.3745)"><g
     id="g23"
     style="fill:#000000;fill-opacity:1"><path
       id="ARC3"
       serif:id="ARC"
       d="m 4.606,13.677 c -0.391,0 -0.709,0.317 -0.709,0.709 0,0.391 0.318,0.708 0.709,0.708 h 17.008 c 0.391,0 0.709,-0.317 0.709,-0.708 0,-0.392 -0.318,-0.709 -0.709,-0.709 H 4.606"
       style="fill:#000000;fill-opacity:1;stroke:#000000;stroke-width:0.71px" /></g><g
     id="g24"
     style="fill:#000000;fill-opacity:1"><path
       id="ARC5"
       serif:id="ARC"
       d="m 8.149,17.078 c -0.391,0 -0.708,0.318 -0.708,0.709 0,0.391 0.317,0.709 0.708,0.709 h 9.922 c 0.391,0 0.708,-0.318 0.708,-0.709 0,-0.391 -0.317,-0.709 -0.708,-0.709 H 8.149"
       style="fill:#000000;fill-opacity:1;stroke:#000000;stroke-width:0.71px" /></g><g
     id="g25"
     style="fill:#000000;fill-opacity:1"><path
       id="ARC7"
       serif:id="ARC"
       d="m 11.693,20.48 c -0.392,0 -0.709,0.317 -0.709,0.709 0,0.391 0.317,0.708 0.709,0.708 h 2.834 c 0.392,0 0.709,-0.317 0.709,-0.708 0,-0.392 -0.317,-0.709 -0.709,-0.709 h -2.834"
       style="fill:#000000;fill-opacity:1;stroke:#000000;stroke-width:0.71px" /></g><g
     id="g22"
     style="fill:#000000;fill-opacity:1"><path
       id="ARC"
       d="m 13.819,1.063 c 0,-0.392 -0.318,-0.709 -0.709,-0.709 -0.391,0 -0.709,0.317 -0.709,0.709 v 9.212 H 1.063 c -0.392,0 -0.709,0.318 -0.709,0.709 0,0.391 0.317,0.709 0.709,0.709 h 24.094 c 0.392,0 0.709,-0.318 0.709,-0.709 0,-0.391 -0.317,-0.709 -0.709,-0.709 H 13.819 Z"
       style="fill:#000000;fill-opacity:1;stroke:#000000;stroke-width:0.71px" /></g></g>
</svg>
