<?xml version="1.0" encoding="UTF-8" standalone="no"?>
<svg
   viewBox="0 0 512 512"
   version="1.1"
   id="svg1"
   width="24px"
   height="24px"
   xmlns="http://www.w3.org/2000/svg"
   xmlns:svg="http://www.w3.org/2000/svg">
  <defs
     id="defs1" />
   <!--!Font Awesome Free 6.6.0 by @fontawesome - https://fontawesome.com License - https://fontawesome.com/license/free Copyright 2024 Fonticons, Inc.-->
  <path
     d="m 176,160.05 c 0,-35.3 28.7,-64 64,-64 h 32 c 35.3,0 64,28.7 64,64 v 3.6 c 0,21.8 -11.1,42.1 -29.4,53.8 l -42.2,27.1 c -25.2,16.2 -40.4,44.1 -40.4,74 v 1.4 c 0,17.7 14.3,32 32,32 17.7,0 32,-14.3 32,-32 v -1.4 c 0,-8.2 4.2,-15.8 11,-20.2 l 42.2,-27.1 c 36.6,-23.6 58.8,-64.1 58.8,-107.7 v -3.6 c 0,-70.7 -57.3,-128 -128,-128 h -32 c -70.7,0.1 -128,57.4 -128,128.1 0,17.7 14.3,32 32,32 17.7,0 32,-14.3 32,-32 z m 80,320 a 40,40 0 1 0 0,-80 40,40 0 1 0 0,80 z"
     id="path1" />
</svg>
