<?xml version="1.0" encoding="UTF-8" standalone="no"?>
<!-- Created with Inkscape (http://www.inkscape.org/) -->

<svg
   version="1.1"
   id="svg1"
   width="789.33331"
   height="389.33334"
   viewBox="0 0 789.33331 389.33334"
   xmlns="http://www.w3.org/2000/svg"
   xmlns:svg="http://www.w3.org/2000/svg">
  <defs
     id="defs1" />
  <g
     id="g1">
    <text
       id="text1"
       xml:space="preserve"
       transform="matrix(1.3333333,0,0,1.3333333,21.333333,18.666667)"><tspan
         style="font-variant:normal;font-weight:normal;font-size:16px;font-family:Arial;writing-mode:lr-tb;fill:#000000;fill-opacity:1;fill-rule:nonzero;stroke:none"
         x="0 11.552 20.448 29.344 33.792"
         y="0"
         id="tspan1">Day 1</tspan><tspan
         style="font-variant:normal;font-weight:normal;font-size:13px;font-family:Arial;writing-mode:lr-tb;fill:#000000;fill-opacity:1;fill-rule:nonzero;stroke:none"
         x="80 87.943001 91.556999 98.785004 106.013 110.342"
         y="0"
         id="tspan2">Fleet:</tspan><tspan
         style="font-variant:normal;font-weight:normal;font-size:13px;font-family:Arial;writing-mode:lr-tb;fill:#000000;fill-opacity:1;fill-rule:nonzero;stroke:none"
         x="40 49.386002 53 63.828999 330.00009 338.67111 342.2851 353.11411"
         y="58"
         id="tspan3">A.M.P.M.</tspan></text>
    <path
       id="path3"
       d="m 1720,2820 c 0,33.14 -26.86,60 -60,60 -33.14,0 -60,-26.86 -60,-60 0,-33.14 26.86,-60 60,-60 33.14,0 60,26.86 60,60"
       style="fill:#000000;fill-opacity:1;fill-rule:nonzero;stroke:none"
       transform="matrix(0.13333333,0,0,-0.13333333,0,389.33333)" />
    <path
       id="path4"
       d="m 1660,2760 h 69.9961 v 120 H 1660 Z"
       style="fill:#000000;fill-opacity:1;fill-rule:nonzero;stroke:none"
       transform="matrix(0.13333333,0,0,-0.13333333,0,389.33333)" />
    <text
       id="text4"
       xml:space="preserve"
       transform="matrix(1.3333333,0,0,1.3333333,219.10933,17.333333)"><tspan
         style="font-variant:normal;font-weight:normal;font-size:8px;font-family:Arial;writing-mode:lr-tb;fill:#ffffff;fill-opacity:1;fill-rule:nonzero;stroke:none"
         x="0"
         y="0"
         id="tspan4">S</tspan></text>
    <path
       id="path5"
       d="m 1763.2,2760 h 139.992 v 120 H 1763.2 Z"
       style="fill:#000000;fill-opacity:1;fill-rule:nonzero;stroke:none"
       transform="matrix(0.13333333,0,0,-0.13333333,0,389.33333)" />
    <text
       id="text5"
       xml:space="preserve"
       transform="matrix(1.3333333,0,0,1.3333333,240.86933,17.333333)"><tspan
         style="font-variant:normal;font-weight:normal;font-size:8px;font-family:Arial;writing-mode:lr-tb;fill:#ffffff;fill-opacity:1;fill-rule:nonzero;stroke:none"
         x="0"
         y="0"
         id="tspan5">E</tspan></text>
    <path
       id="path6"
       d="m 2066.4,2820 c 0,33.14 -26.86,60 -60,60 -33.14,0 -60,-26.86 -60,-60 0,-33.14 26.86,-60 60,-60 33.14,0 60,26.86 60,60"
       style="fill:#000000;fill-opacity:1;fill-rule:nonzero;stroke:none"
       transform="matrix(0.13333333,0,0,-0.13333333,0,389.33333)" />
    <path
       id="path7"
       d="m 1936.4,2760 h 69.9961 v 120 H 1936.4 Z"
       style="fill:#000000;fill-opacity:1;fill-rule:nonzero;stroke:none"
       transform="matrix(0.13333333,0,0,-0.13333333,0,389.33333)" />
    <text
       id="text7"
       xml:space="preserve"
       transform="matrix(1.3333333,0,0,1.3333333,262.336,17.333333)"><tspan
         style="font-variant:normal;font-weight:normal;font-size:8px;font-family:Arial;writing-mode:lr-tb;fill:#ffffff;fill-opacity:1;fill-rule:nonzero;stroke:none"
         x="0"
         y="0"
         id="tspan7">A</tspan></text>
    <path
       id="path8"
       d="m 2326.2,2820 c 0,33.14 -26.86,60 -60,60 -33.14,0 -60,-26.86 -60,-60 0,-33.14 26.86,-60 60,-60 33.14,0 60,26.86 60,60"
       style="fill:#000000;fill-opacity:1;fill-rule:nonzero;stroke:none"
       transform="matrix(0.13333333,0,0,-0.13333333,0,389.33333)" />
    <path
       id="path9"
       d="m 2266.2,2760 h 69.9961 v 120 H 2266.2 Z"
       style="fill:#000000;fill-opacity:1;fill-rule:nonzero;stroke:none"
       transform="matrix(0.13333333,0,0,-0.13333333,0,389.33333)" />
    <text
       id="text9"
       xml:space="preserve"
       transform="matrix(1.3333333,0,0,1.3333333,299.64267,17.333333)"><tspan
         style="font-variant:normal;font-weight:normal;font-size:8px;font-family:Arial;writing-mode:lr-tb;fill:#ffffff;fill-opacity:1;fill-rule:nonzero;stroke:none"
         x="0"
         y="0"
         id="tspan9">R</tspan></text>
    <path
       id="path10"
       d="m 2369.4,2760 h 139.992 v 120 H 2369.4 Z"
       style="fill:#000000;fill-opacity:1;fill-rule:nonzero;stroke:none"
       transform="matrix(0.13333333,0,0,-0.13333333,0,389.33333)" />
    <text
       id="text10"
       xml:space="preserve"
       transform="matrix(1.3333333,0,0,1.3333333,321.40267,17.333333)"><tspan
         style="font-variant:normal;font-weight:normal;font-size:8px;font-family:Arial;writing-mode:lr-tb;fill:#ffffff;fill-opacity:1;fill-rule:nonzero;stroke:none"
         x="0"
         y="0"
         id="tspan10">C</tspan></text>
    <path
       id="path11"
       d="m 2672.6,2820 c 0,33.14 -26.86,60 -60,60 -33.14,0 -60,-26.86 -60,-60 0,-33.14 26.86,-60 60,-60 33.14,0 60,26.86 60,60"
       style="fill:#000000;fill-opacity:1;fill-rule:nonzero;stroke:none"
       transform="matrix(0.13333333,0,0,-0.13333333,0,389.33333)" />
    <path
       id="path12"
       d="m 2542.6,2760 h 69.9961 v 120 H 2542.6 Z"
       style="fill:#000000;fill-opacity:1;fill-rule:nonzero;stroke:none"
       transform="matrix(0.13333333,0,0,-0.13333333,0,389.33333)" />
    <text
       id="text12"
       xml:space="preserve"
       transform="matrix(1.3333333,0,0,1.3333333,343.16267,17.333333)"><tspan
         style="font-variant:normal;font-weight:normal;font-size:8px;font-family:Arial;writing-mode:lr-tb;fill:#ffffff;fill-opacity:1;fill-rule:nonzero;stroke:none"
         x="0"
         y="0"
         id="tspan12">H</tspan></text>
    <path
       id="path13"
       d="m 2932.4,2820 c 0,33.14 -26.86,60 -60,60 -33.14,0 -60,-26.86 -60,-60 0,-33.14 26.86,-60 60,-60 33.14,0 60,26.86 60,60"
       style="fill:#000000;fill-opacity:1;fill-rule:nonzero;stroke:none"
       transform="matrix(0.13333333,0,0,-0.13333333,0,389.33333)" />
    <path
       id="path14"
       d="m 2872.4,2760 h 69.9961 v 120 H 2872.4 Z"
       style="fill:#000000;fill-opacity:1;fill-rule:nonzero;stroke:none"
       transform="matrix(0.13333333,0,0,-0.13333333,0,389.33333)" />
    <text
       id="text14"
       xml:space="preserve"
       transform="matrix(1.3333333,0,0,1.3333333,380.76267,17.333333)"><tspan
         style="font-variant:normal;font-weight:normal;font-size:8px;font-family:Arial;writing-mode:lr-tb;fill:#ffffff;fill-opacity:1;fill-rule:nonzero;stroke:none"
         x="0"
         y="0"
         id="tspan14">X</tspan></text>
    <path
       id="path15"
       d="m 3105.6,2820 c 0,33.14 -26.86,60 -60,60 -33.14,0 -60,-26.86 -60,-60 0,-33.14 26.86,-60 60,-60 33.14,0 60,26.86 60,60"
       style="fill:#000000;fill-opacity:1;fill-rule:nonzero;stroke:none"
       transform="matrix(0.13333333,0,0,-0.13333333,0,389.33333)" />
    <path
       id="path16"
       d="m 2975.6,2760 h 69.9961 v 120 H 2975.6 Z"
       style="fill:#000000;fill-opacity:1;fill-rule:nonzero;stroke:none"
       transform="matrix(0.13333333,0,0,-0.13333333,0,389.33333)" />
    <text
       id="text16"
       xml:space="preserve"
       transform="matrix(1.3333333,0,0,1.3333333,401.18933,17.333333)"><tspan
         style="font-variant:normal;font-weight:normal;font-size:8px;font-family:Arial;writing-mode:lr-tb;fill:#ffffff;fill-opacity:1;fill-rule:nonzero;stroke:none"
         x="0"
         y="0"
         id="tspan16">X</tspan></text>
    <path
       id="path17"
       d="m 3365.4,2820 c 0,33.14 -26.86,60 -60,60 -33.14,0 -60,-26.86 -60,-60 0,-33.14 26.86,-60 60,-60 33.14,0 60,26.86 60,60"
       style="fill:#000000;fill-opacity:1;fill-rule:nonzero;stroke:none"
       transform="matrix(0.13333333,0,0,-0.13333333,0,389.33333)" />
    <path
       id="path18"
       d="m 3305.4,2760 h 69.9961 v 120 H 3305.4 Z"
       style="fill:#000000;fill-opacity:1;fill-rule:nonzero;stroke:none"
       transform="matrix(0.13333333,0,0,-0.13333333,0,389.33333)" />
    <text
       id="text18"
       xml:space="preserve"
       transform="matrix(1.3333333,0,0,1.3333333,438.79467,17.333333)"><tspan
         style="font-variant:normal;font-weight:normal;font-size:8px;font-family:Arial;writing-mode:lr-tb;fill:#ffffff;fill-opacity:1;fill-rule:nonzero;stroke:none"
         x="0"
         y="0"
         id="tspan18">F</tspan></text>
    <path
       id="path19"
       d="m 3538.6,2820 c 0,33.14 -26.86,60 -60,60 -33.14,0 -60,-26.86 -60,-60 0,-33.14 26.86,-60 60,-60 33.14,0 60,26.86 60,60"
       style="fill:#000000;fill-opacity:1;fill-rule:nonzero;stroke:none"
       transform="matrix(0.13333333,0,0,-0.13333333,0,389.33333)" />
    <path
       id="path20"
       d="m 3408.6,2760 h 69.9961 v 120 H 3408.6 Z"
       style="fill:#000000;fill-opacity:1;fill-rule:nonzero;stroke:none"
       transform="matrix(0.13333333,0,0,-0.13333333,0,389.33333)" />
    <text
       id="text20"
       xml:space="preserve"
       transform="matrix(1.3333333,0,0,1.3333333,458.33067,17.333333)"><tspan
         style="font-variant:normal;font-weight:normal;font-size:8px;font-family:Arial;writing-mode:lr-tb;fill:#ffffff;fill-opacity:1;fill-rule:nonzero;stroke:none"
         x="0"
         y="0"
         id="tspan20">O</tspan></text>
    <path
       id="path21"
       d="m 3798.4,2820 c 0,33.14 -26.86,60 -60,60 -33.14,0 -60,-26.86 -60,-60 0,-33.14 26.86,-60 60,-60 33.14,0 60,26.86 60,60"
       style="fill:#000000;fill-opacity:1;fill-rule:nonzero;stroke:none"
       transform="matrix(0.13333333,0,0,-0.13333333,0,389.33333)" />
    <text
       id="text21"
       xml:space="preserve"
       transform="matrix(1.3333333,0,0,1.3333333,494.60267,17.333333)"><tspan
         style="font-variant:normal;font-weight:normal;font-size:8px;font-family:Arial;writing-mode:lr-tb;fill:#ffffff;fill-opacity:1;fill-rule:nonzero;stroke:none"
         x="0"
         y="0"
         id="tspan21">R</tspan></text>
    <path
       id="path22"
       d="m 3998.4,2820 c 0,33.14 -26.86,60 -60,60 -33.14,0 -60,-26.86 -60,-60 0,-33.14 26.86,-60 60,-60 33.14,0 60,26.86 60,60"
       style="fill:#000000;fill-opacity:1;fill-rule:nonzero;stroke:none"
       transform="matrix(0.13333333,0,0,-0.13333333,0,389.33333)" />
    <text
       id="text22"
       xml:space="preserve"
       transform="matrix(1.3333333,0,0,1.3333333,521.26933,17.333333)"><tspan
         style="font-variant:normal;font-weight:normal;font-size:8px;font-family:Arial;writing-mode:lr-tb;fill:#ffffff;fill-opacity:1;fill-rule:nonzero;stroke:none"
         x="0"
         y="0"
         id="tspan22">C</tspan></text>
    <path
       id="path23"
       d="m 4198.4,2820 c 0,33.14 -26.86,60 -60,60 -33.14,0 -60,-26.86 -60,-60 0,-33.14 26.86,-60 60,-60 33.14,0 60,26.86 60,60"
       style="fill:#000000;fill-opacity:1;fill-rule:nonzero;stroke:none"
       transform="matrix(0.13333333,0,0,-0.13333333,0,389.33333)" />
    <text
       id="text23"
       xml:space="preserve"
       transform="matrix(1.3333333,0,0,1.3333333,548.22933,17.333333)"><tspan
         style="font-variant:normal;font-weight:normal;font-size:8px;font-family:Arial;writing-mode:lr-tb;fill:#ffffff;fill-opacity:1;fill-rule:nonzero;stroke:none"
         x="0"
         y="0"
         id="tspan23">E</tspan></text>
    <path
       id="path24"
       d="m 1199.2,800 v 100 l 86.6,50 86.6,-50 V 800 l -86.6,-50 -86.6,50 m 173.2,0 v 100 l 86.6,50 86.6,-50 V 800 l -86.6,-50 -86.6,50 m 173.2,0 v 100 l 86.6,50 86.6,-50 V 800 l -86.6,-50 -86.6,50 m 173.2,0 v 100 l 86.6,50 86.6,-50 V 800 l -86.6,-50 -86.6,50 m 173.2,0 v 100 l 86.6,50 86.6,-50 V 800 l -86.6,-50 -86.6,50"
       style="fill:#b2b2b2;fill-opacity:1;fill-rule:nonzero;stroke:none"
       transform="matrix(0.13333333,0,0,-0.13333333,0,389.33333)" />
    <path
       id="path25"
       d="m 1285.8,950 v 100 l 86.6,50 86.6,-50 V 950 l -86.6,-50 -86.6,50 m 173.2,0 v 100 l 86.6,50 86.6,-50 V 950 l -86.6,-50 -86.6,50 m 173.2,0 v 100 l 86.6,50 86.6,-50 V 950 l -86.6,-50 -86.6,50 m 173.2,0 v 100 l 86.6,50 86.6,-50 V 950 l -86.6,-50 -86.6,50"
       style="fill:#b2b2b2;fill-opacity:1;fill-rule:nonzero;stroke:none"
       transform="matrix(0.13333333,0,0,-0.13333333,0,389.33333)" />
    <path
       id="path26"
       d="m 1372.4,1100 v 100 l 86.6,50 86.6,-50 v -100 l -86.6,-50 -86.6,50 m 173.2,0 v 100 l 86.6,50 86.6,-50 v -100 l -86.6,-50 -86.6,50 m 173.2,0 v 100 l 86.6,50 86.6,-50 v -100 l -86.6,-50 -86.6,50"
       style="fill:#b2b2b2;fill-opacity:1;fill-rule:nonzero;stroke:none"
       transform="matrix(0.13333333,0,0,-0.13333333,0,389.33333)" />
    <path
       id="path27"
       d="m 1459,1250 v 100 l 86.6,50 86.6,-50 v -100 l -86.6,-50 -86.6,50 m 173.2,0 v 100 l 86.6,50 86.6,-50 v -100 l -86.6,-50 -86.6,50"
       style="fill:#b2b2b2;fill-opacity:1;fill-rule:nonzero;stroke:none"
       transform="matrix(0.13333333,0,0,-0.13333333,0,389.33333)" />
    <path
       id="path28"
       d="m 1545.6,1400 v 100 l 86.6,50 86.6,-50 v -100 l -86.6,-50 -86.6,50"
       style="fill:#b2b2b2;fill-opacity:1;fill-rule:nonzero;stroke:none"
       transform="matrix(0.13333333,0,0,-0.13333333,0,389.33333)" />
    <path
       id="path29"
       d="M 419.801,350 V 450 L 506.398,500 593,450 V 350 l -86.602,-50 -86.597,50 M 593,350 v 100 l 86.602,50 86.597,-50 V 350 L 679.602,300 593,350 m 173.199,0 v 100 l 86.602,50 86.597,-50 V 350 l -86.597,-50 -86.602,50 m 173.199,0 v 100 l 86.602,50 86.6,-50 V 350 l -86.6,-50 -86.602,50 m 173.202,0 v 100 l 86.6,50 86.6,-50 V 350 l -86.6,-50 -86.6,50 m 173.2,0 v 100 l 86.6,50 86.6,-50 V 350 l -86.6,-50 -86.6,50 m 173.2,0 v 100 l 86.6,50 86.6,-50 V 350 l -86.6,-50 -86.6,50 m 173.2,0 v 100 l 86.6,50 86.6,-50 V 350 l -86.6,-50 -86.6,50 m 173.2,0 v 100 l 86.6,50 86.6,-50 V 350 l -86.6,-50 -86.6,50 m 173.2,0 v 100 l 86.6,50 86.6,-50 V 350 l -86.6,-50 -86.6,50 m 173.2,0 v 100 l 86.6,50 86.6,-50 V 350 l -86.6,-50 -86.6,50 m 173.2,0 v 100 l 86.6,50 86.6,-50 V 350 l -86.6,-50 -86.6,50 m 173.2,0 v 100 l 86.6,50 86.6,-50 V 350 l -86.6,-50 -86.6,50 m 173.2,0 v 100 l 86.6,50 86.6,-50 V 350 l -86.6,-50 -86.6,50"
       style="fill:none;stroke:#000000;stroke-width:4;stroke-linecap:butt;stroke-linejoin:miter;stroke-miterlimit:10;stroke-dasharray:none;stroke-opacity:1"
       transform="matrix(0.13333333,0,0,-0.13333333,0,389.33333)" />
    <path
       id="path30"
       d="M 506.398,500 V 600 L 593,650 679.602,600 V 500 L 593,450 506.398,500 m 173.204,0 v 100 l 86.597,50 86.602,-50 V 500 l -86.602,-50 -86.597,50 m 173.199,0 V 600 L 939.398,650 1026,600 V 500 l -86.602,-50 -86.597,50 M 1026,500 v 100 l 86.6,50 86.6,-50 V 500 l -86.6,-50 -86.6,50 m 173.2,0 v 100 l 86.6,50 86.6,-50 V 500 l -86.6,-50 -86.6,50 m 173.2,0 v 100 l 86.6,50 86.6,-50 V 500 l -86.6,-50 -86.6,50 m 173.2,0 v 100 l 86.6,50 86.6,-50 V 500 l -86.6,-50 -86.6,50 m 173.2,0 v 100 l 86.6,50 86.6,-50 V 500 l -86.6,-50 -86.6,50 m 173.2,0 v 100 l 86.6,50 86.6,-50 V 500 l -86.6,-50 -86.6,50 m 173.2,0 v 100 l 86.6,50 86.6,-50 V 500 l -86.6,-50 -86.6,50 m 173.2,0 v 100 l 86.6,50 86.6,-50 V 500 l -86.6,-50 -86.6,50 m 173.2,0 v 100 l 86.6,50 86.6,-50 V 500 l -86.6,-50 -86.6,50 m 173.2,0 v 100 l 86.6,50 86.6,-50 V 500 l -86.6,-50 -86.6,50"
       style="fill:none;stroke:#000000;stroke-width:4;stroke-linecap:butt;stroke-linejoin:miter;stroke-miterlimit:10;stroke-dasharray:none;stroke-opacity:1"
       transform="matrix(0.13333333,0,0,-0.13333333,0,389.33333)" />
    <path
       id="path31"
       d="m 593,650 v 100 l 86.602,50 86.597,-50 V 650 L 679.602,600 593,650 m 173.199,0 v 100 l 86.602,50 86.597,-50 V 650 l -86.597,-50 -86.602,50 m 173.199,0 v 100 l 86.602,50 86.6,-50 V 650 l -86.6,-50 -86.602,50 m 173.202,0 v 100 l 86.6,50 86.6,-50 V 650 l -86.6,-50 -86.6,50 m 173.2,0 v 100 l 86.6,50 86.6,-50 V 650 l -86.6,-50 -86.6,50 m 173.2,0 v 100 l 86.6,50 86.6,-50 V 650 l -86.6,-50 -86.6,50 m 173.2,0 v 100 l 86.6,50 86.6,-50 V 650 l -86.6,-50 -86.6,50 m 173.2,0 v 100 l 86.6,50 86.6,-50 V 650 l -86.6,-50 -86.6,50 m 173.2,0 v 100 l 86.6,50 86.6,-50 V 650 l -86.6,-50 -86.6,50 m 173.2,0 v 100 l 86.6,50 86.6,-50 V 650 l -86.6,-50 -86.6,50 m 173.2,0 v 100 l 86.6,50 86.6,-50 V 650 l -86.6,-50 -86.6,50 m 173.2,0 v 100 l 86.6,50 86.6,-50 V 650 l -86.6,-50 -86.6,50"
       style="fill:none;stroke:#000000;stroke-width:4;stroke-linecap:butt;stroke-linejoin:miter;stroke-miterlimit:10;stroke-dasharray:none;stroke-opacity:1"
       transform="matrix(0.13333333,0,0,-0.13333333,0,389.33333)" />
    <path
       id="path32"
       d="m 679.602,800 v 100 l 86.597,50 86.602,-50 V 800 l -86.602,-50 -86.597,50 m 173.199,0 V 900 L 939.398,950 1026,900 V 800 l -86.602,-50 -86.597,50 M 1026,800 v 100 l 86.6,50 86.6,-50 V 800 l -86.6,-50 -86.6,50 m 173.2,0 v 100 l 86.6,50 86.6,-50 V 800 l -86.6,-50 -86.6,50 m 173.2,0 v 100 l 86.6,50 86.6,-50 V 800 l -86.6,-50 -86.6,50 m 173.2,0 v 100 l 86.6,50 86.6,-50 V 800 l -86.6,-50 -86.6,50 m 173.2,0 v 100 l 86.6,50 86.6,-50 V 800 l -86.6,-50 -86.6,50 m 173.2,0 v 100 l 86.6,50 86.6,-50 V 800 l -86.6,-50 -86.6,50 m 173.2,0 v 100 l 86.6,50 86.6,-50 V 800 l -86.6,-50 -86.6,50 m 173.2,0 v 100 l 86.6,50 86.6,-50 V 800 l -86.6,-50 -86.6,50 m 173.2,0 v 100 l 86.6,50 86.6,-50 V 800 l -86.6,-50 -86.6,50"
       style="fill:none;stroke:#000000;stroke-width:4;stroke-linecap:butt;stroke-linejoin:miter;stroke-miterlimit:10;stroke-dasharray:none;stroke-opacity:1"
       transform="matrix(0.13333333,0,0,-0.13333333,0,389.33333)" />
    <path
       id="path33"
       d="m 766.199,950 v 100 l 86.602,50 86.597,-50 V 950 l -86.597,-50 -86.602,50 m 173.199,0 v 100 l 86.602,50 86.6,-50 V 950 l -86.6,-50 -86.602,50 m 173.202,0 v 100 l 86.6,50 86.6,-50 V 950 l -86.6,-50 -86.6,50 m 173.2,0 v 100 l 86.6,50 86.6,-50 V 950 l -86.6,-50 -86.6,50 m 173.2,0 v 100 l 86.6,50 86.6,-50 V 950 l -86.6,-50 -86.6,50 m 173.2,0 v 100 l 86.6,50 86.6,-50 V 950 l -86.6,-50 -86.6,50 m 173.2,0 v 100 l 86.6,50 86.6,-50 V 950 l -86.6,-50 -86.6,50 m 173.2,0 v 100 l 86.6,50 86.6,-50 V 950 l -86.6,-50 -86.6,50 m 173.2,0 v 100 l 86.6,50 86.6,-50 V 950 l -86.6,-50 -86.6,50 m 173.2,0 v 100 l 86.6,50 86.6,-50 V 950 l -86.6,-50 -86.6,50"
       style="fill:none;stroke:#000000;stroke-width:4;stroke-linecap:butt;stroke-linejoin:miter;stroke-miterlimit:10;stroke-dasharray:none;stroke-opacity:1"
       transform="matrix(0.13333333,0,0,-0.13333333,0,389.33333)" />
    <path
       id="path34"
       d="m 852.801,1100 v 100 l 86.597,50 86.602,-50 v -100 l -86.602,-50 -86.597,50 m 173.199,0 v 100 l 86.6,50 86.6,-50 v -100 l -86.6,-50 -86.6,50 m 173.2,0 v 100 l 86.6,50 86.6,-50 v -100 l -86.6,-50 -86.6,50 m 173.2,0 v 100 l 86.6,50 86.6,-50 v -100 l -86.6,-50 -86.6,50 m 173.2,0 v 100 l 86.6,50 86.6,-50 v -100 l -86.6,-50 -86.6,50 m 173.2,0 v 100 l 86.6,50 86.6,-50 v -100 l -86.6,-50 -86.6,50 m 173.2,0 v 100 l 86.6,50 86.6,-50 v -100 l -86.6,-50 -86.6,50 m 173.2,0 v 100 l 86.6,50 86.6,-50 v -100 l -86.6,-50 -86.6,50 m 173.2,0 v 100 l 86.6,50 86.6,-50 v -100 l -86.6,-50 -86.6,50"
       style="fill:none;stroke:#000000;stroke-width:4;stroke-linecap:butt;stroke-linejoin:miter;stroke-miterlimit:10;stroke-dasharray:none;stroke-opacity:1"
       transform="matrix(0.13333333,0,0,-0.13333333,0,389.33333)" />
    <path
       id="path35"
       d="m 939.398,1250 v 100 l 86.602,50 86.6,-50 v -100 l -86.6,-50 -86.602,50 m 173.202,0 v 100 l 86.6,50 86.6,-50 v -100 l -86.6,-50 -86.6,50 m 173.2,0 v 100 l 86.6,50 86.6,-50 v -100 l -86.6,-50 -86.6,50 m 173.2,0 v 100 l 86.6,50 86.6,-50 v -100 l -86.6,-50 -86.6,50 m 173.2,0 v 100 l 86.6,50 86.6,-50 v -100 l -86.6,-50 -86.6,50 m 173.2,0 v 100 l 86.6,50 86.6,-50 v -100 l -86.6,-50 -86.6,50 m 173.2,0 v 100 l 86.6,50 86.6,-50 v -100 l -86.6,-50 -86.6,50 m 173.2,0 v 100 l 86.6,50 86.6,-50 v -100 l -86.6,-50 -86.6,50"
       style="fill:none;stroke:#000000;stroke-width:4;stroke-linecap:butt;stroke-linejoin:miter;stroke-miterlimit:10;stroke-dasharray:none;stroke-opacity:1"
       transform="matrix(0.13333333,0,0,-0.13333333,0,389.33333)" />
    <path
       id="path36"
       d="m 1026,1400 v 100 l 86.6,50 86.6,-50 v -100 l -86.6,-50 -86.6,50 m 173.2,0 v 100 l 86.6,50 86.6,-50 v -100 l -86.6,-50 -86.6,50 m 173.2,0 v 100 l 86.6,50 86.6,-50 v -100 l -86.6,-50 -86.6,50 m 173.2,0 v 100 l 86.6,50 86.6,-50 v -100 l -86.6,-50 -86.6,50 m 173.2,0 v 100 l 86.6,50 86.6,-50 v -100 l -86.6,-50 -86.6,50 m 173.2,0 v 100 l 86.6,50 86.6,-50 v -100 l -86.6,-50 -86.6,50 m 173.2,0 v 100 l 86.6,50 86.6,-50 v -100 l -86.6,-50 -86.6,50"
       style="fill:none;stroke:#000000;stroke-width:4;stroke-linecap:butt;stroke-linejoin:miter;stroke-miterlimit:10;stroke-dasharray:none;stroke-opacity:1"
       transform="matrix(0.13333333,0,0,-0.13333333,0,389.33333)" />
    <path
       id="path37"
       d="m 1112.6,1550 v 100 l 86.6,50 86.6,-50 v -100 l -86.6,-50 -86.6,50 m 173.2,0 v 100 l 86.6,50 86.6,-50 v -100 l -86.6,-50 -86.6,50 m 173.2,0 v 100 l 86.6,50 86.6,-50 v -100 l -86.6,-50 -86.6,50 m 173.2,0 v 100 l 86.6,50 86.6,-50 v -100 l -86.6,-50 -86.6,50 m 173.2,0 v 100 l 86.6,50 86.6,-50 v -100 l -86.6,-50 -86.6,50 m 173.2,0 v 100 l 86.6,50 86.6,-50 v -100 l -86.6,-50 -86.6,50"
       style="fill:none;stroke:#000000;stroke-width:4;stroke-linecap:butt;stroke-linejoin:miter;stroke-miterlimit:10;stroke-dasharray:none;stroke-opacity:1"
       transform="matrix(0.13333333,0,0,-0.13333333,0,389.33333)" />
    <path
       id="path38"
       d="m 1199.2,1700 v 100 l 86.6,50 86.6,-50 v -100 l -86.6,-50 -86.6,50 m 173.2,0 v 100 l 86.6,50 86.6,-50 v -100 l -86.6,-50 -86.6,50 m 173.2,0 v 100 l 86.6,50 86.6,-50 v -100 l -86.6,-50 -86.6,50 m 173.2,0 v 100 l 86.6,50 86.6,-50 v -100 l -86.6,-50 -86.6,50 m 173.2,0 v 100 l 86.6,50 86.6,-50 v -100 l -86.6,-50 -86.6,50"
       style="fill:none;stroke:#000000;stroke-width:4;stroke-linecap:butt;stroke-linejoin:miter;stroke-miterlimit:10;stroke-dasharray:none;stroke-opacity:1"
       transform="matrix(0.13333333,0,0,-0.13333333,0,389.33333)" />
    <path
       id="path39"
       d="m 1285.8,1850 v 100 l 86.6,50 86.6,-50 v -100 l -86.6,-50 -86.6,50 m 173.2,0 v 100 l 86.6,50 86.6,-50 v -100 l -86.6,-50 -86.6,50 m 173.2,0 v 100 l 86.6,50 86.6,-50 v -100 l -86.6,-50 -86.6,50 m 173.2,0 v 100 l 86.6,50 86.6,-50 v -100 l -86.6,-50 -86.6,50"
       style="fill:none;stroke:#000000;stroke-width:4;stroke-linecap:butt;stroke-linejoin:miter;stroke-miterlimit:10;stroke-dasharray:none;stroke-opacity:1"
       transform="matrix(0.13333333,0,0,-0.13333333,0,389.33333)" />
    <path
       id="path40"
       d="m 1372.4,2000 v 100 l 86.6,50 86.6,-50 v -100 l -86.6,-50 -86.6,50 m 173.2,0 v 100 l 86.6,50 86.6,-50 v -100 l -86.6,-50 -86.6,50 m 173.2,0 v 100 l 86.6,50 86.6,-50 v -100 l -86.6,-50 -86.6,50"
       style="fill:none;stroke:#000000;stroke-width:4;stroke-linecap:butt;stroke-linejoin:miter;stroke-miterlimit:10;stroke-dasharray:none;stroke-opacity:1"
       transform="matrix(0.13333333,0,0,-0.13333333,0,389.33333)" />
    <path
       id="path41"
       d="m 1459,2150 v 100 l 86.6,50 86.6,-50 v -100 l -86.6,-50 -86.6,50 m 173.2,0 v 100 l 86.6,50 86.6,-50 v -100 l -86.6,-50 -86.6,50"
       style="fill:none;stroke:#000000;stroke-width:4;stroke-linecap:butt;stroke-linejoin:miter;stroke-miterlimit:10;stroke-dasharray:none;stroke-opacity:1"
       transform="matrix(0.13333333,0,0,-0.13333333,0,389.33333)" />
    <path
       id="path42"
       d="m 1545.6,2300 v 100 l 86.6,50 86.6,-50 v -100 l -86.6,-50 -86.6,50"
       style="fill:none;stroke:#000000;stroke-width:4;stroke-linecap:butt;stroke-linejoin:miter;stroke-miterlimit:10;stroke-dasharray:none;stroke-opacity:1"
       transform="matrix(0.13333333,0,0,-0.13333333,0,389.33333)" />
    <path
       id="path43"
       d="m 1835.4,2401.96 -60,-103.92 m 0,0 50.98,28.3 m -50.98,-28.3 -0.98,58.3"
       style="fill:none;stroke:#000000;stroke-width:10;stroke-linecap:butt;stroke-linejoin:miter;stroke-miterlimit:10;stroke-dasharray:none;stroke-opacity:1"
       transform="matrix(0.13333333,0,0,-0.13333333,0,389.33333)" />
    <text
       id="text43"
       xml:space="preserve"
       transform="matrix(1.3333333,0,-9.3333333e-8,1.3333333,243.31467,65.701333)"><tspan
         style="font-variant:normal;font-weight:normal;font-size:14px;font-family:Arial;writing-mode:lr-tb;fill:#000000;fill-opacity:1;fill-rule:nonzero;stroke:none"
         x="0"
         y="0"
         id="tspan43">R</tspan></text>
    <path
       id="path44"
       d="m 2268.4,1651.96 -60,-103.92 m 0,0 50.98,28.3 m -50.98,-28.3 -0.98,58.3"
       style="fill:none;stroke:#000000;stroke-width:10;stroke-linecap:butt;stroke-linejoin:miter;stroke-miterlimit:10;stroke-dasharray:none;stroke-opacity:1"
       transform="matrix(0.13333333,0,0,-0.13333333,0,389.33333)" />
    <text
       id="text44"
       xml:space="preserve"
       transform="matrix(1.3333333,0,-9.3333333e-8,1.3333333,302.084,165.70133)"><tspan
         style="font-variant:normal;font-weight:normal;font-size:14px;font-family:Arial;writing-mode:lr-tb;fill:#000000;fill-opacity:1;fill-rule:nonzero;stroke:none"
         x="0"
         y="0"
         id="tspan44">F</tspan></text>
    <path
       id="path45"
       d="m 2355,1501.96 -60,-103.92 m 0,0 50.98,28.3 m -50.98,-28.3 -0.98,58.3"
       style="fill:none;stroke:#000000;stroke-width:10;stroke-linecap:butt;stroke-linejoin:miter;stroke-miterlimit:10;stroke-dasharray:none;stroke-opacity:1"
       transform="matrix(0.13333333,0,0,-0.13333333,0,389.33333)" />
    <text
       id="text45"
       xml:space="preserve"
       transform="matrix(1.3333333,0,-9.3333333e-8,1.3333333,314.144,185.70133)"><tspan
         style="font-variant:normal;font-weight:normal;font-size:14px;font-family:Arial;writing-mode:lr-tb;fill:#000000;fill-opacity:1;fill-rule:nonzero;stroke:none"
         x="0"
         y="0"
         id="tspan45">4</tspan></text>
    <path
       id="path46"
       d="m 2528.2,1201.96 -60,-103.92 m 0,0 50.98,28.3 m -50.98,-28.3 -0.98,58.3"
       style="fill:none;stroke:#000000;stroke-width:10;stroke-linecap:butt;stroke-linejoin:miter;stroke-miterlimit:10;stroke-dasharray:none;stroke-opacity:1"
       transform="matrix(0.13333333,0,0,-0.13333333,0,389.33333)" />
    <text
       id="text46"
       xml:space="preserve"
       transform="matrix(1.3333333,0,-9.3333333e-8,1.3333333,337.23733,225.70133)"><tspan
         style="font-variant:normal;font-weight:normal;font-size:14px;font-family:Arial;writing-mode:lr-tb;fill:#000000;fill-opacity:1;fill-rule:nonzero;stroke:none"
         x="0"
         y="0"
         id="tspan46">0</tspan></text>
    <path
       id="path47"
       d="m 2614.8,1051.96 -60,-103.921 m 0,0 50.98,28.301 m -50.98,-28.301 -0.98,58.301"
       style="fill:none;stroke:#000000;stroke-width:10;stroke-linecap:butt;stroke-linejoin:miter;stroke-miterlimit:10;stroke-dasharray:none;stroke-opacity:1"
       transform="matrix(0.13333333,0,0,-0.13333333,0,389.33333)" />
    <text
       id="text47"
       xml:space="preserve"
       transform="matrix(1.3333333,0,-9.3333333e-8,1.3333333,348.784,245.70133)"><tspan
         style="font-variant:normal;font-weight:normal;font-size:14px;font-family:Arial;writing-mode:lr-tb;fill:#000000;fill-opacity:1;fill-rule:nonzero;stroke:none"
         x="0"
         y="0"
         id="tspan47">0</tspan></text>
    <path
       id="path48"
       d="m 446.398,700 h 120 m 0,0 -50,30 m 50,-30 -50,-30"
       style="fill:none;stroke:#000000;stroke-width:10;stroke-linecap:butt;stroke-linejoin:miter;stroke-miterlimit:10;stroke-dasharray:none;stroke-opacity:1"
       transform="matrix(0.13333333,0,0,-0.13333333,0,389.33333)" />
    <text
       id="text48"
       xml:space="preserve"
       transform="matrix(1.3333333,0,0,1.3333333,42.114533,301.86667)"><tspan
         style="font-variant:normal;font-weight:normal;font-size:14px;font-family:Arial;writing-mode:lr-tb;fill:#000000;fill-opacity:1;fill-rule:nonzero;stroke:none"
         x="0"
         y="0"
         id="tspan48">R</tspan></text>
    <path
       id="path49"
       d="m 1662.2,198.039 -60,103.922 m 0,0 -0.98,-58.301 m 0.98,58.301 50.98,-28.301"
       style="fill:none;stroke:#000000;stroke-width:10;stroke-linecap:butt;stroke-linejoin:miter;stroke-miterlimit:10;stroke-dasharray:none;stroke-opacity:1"
       transform="matrix(0.13333333,0,0,-0.13333333,0,389.33333)" />
    <text
       id="text49"
       xml:space="preserve"
       transform="matrix(1.3333333,-9.3333333e-8,0,1.3333333,220.73467,378.03229)"><tspan
         style="font-variant:normal;font-weight:normal;font-size:14px;font-family:Arial;writing-mode:lr-tb;fill:#000000;fill-opacity:1;fill-rule:nonzero;stroke:none"
         x="0"
         y="0"
         id="tspan49">A</tspan></text>
    <path
       id="path50"
       d="m 2528.2,198.039 -60,103.922 m 0,0 -0.98,-58.301 m 0.98,58.301 50.98,-28.301"
       style="fill:none;stroke:#000000;stroke-width:10;stroke-linecap:butt;stroke-linejoin:miter;stroke-miterlimit:10;stroke-dasharray:none;stroke-opacity:1"
       transform="matrix(0.13333333,0,0,-0.13333333,0,389.33333)" />
    <text
       id="text50"
       xml:space="preserve"
       transform="matrix(1.3333333,-9.3333333e-8,0,1.3333333,337.23733,378.03229)"><tspan
         style="font-variant:normal;font-weight:normal;font-size:14px;font-family:Arial;writing-mode:lr-tb;fill:#000000;fill-opacity:1;fill-rule:nonzero;stroke:none"
         x="0"
         y="0"
         id="tspan50">0</tspan></text>
    <path
       id="path51"
       d="m 2701.4,198.039 -60,103.922 m 0,0 -0.98,-58.301 m 0.98,58.301 50.98,-28.301"
       style="fill:none;stroke:#000000;stroke-width:10;stroke-linecap:butt;stroke-linejoin:miter;stroke-miterlimit:10;stroke-dasharray:none;stroke-opacity:1"
       transform="matrix(0.13333333,0,0,-0.13333333,0,389.33333)" />
    <text
       id="text51"
       xml:space="preserve"
       transform="matrix(1.3333333,-9.3333333e-8,0,1.3333333,360.33067,378.03229)"><tspan
         style="font-variant:normal;font-weight:normal;font-size:14px;font-family:Arial;writing-mode:lr-tb;fill:#000000;fill-opacity:1;fill-rule:nonzero;stroke:none"
         x="0"
         y="0"
         id="tspan51">0</tspan></text>
    <path
       id="path52"
       d="m 4099.2,800 v 100 l 86.6,50 86.6,-50 V 800 l -86.6,-50 -86.6,50 m 173.2,0 v 100 l 86.6,50 86.6,-50 V 800 l -86.6,-50 -86.6,50 m 173.2,0 v 100 l 86.6,50 86.6,-50 V 800 l -86.6,-50 -86.6,50 m 173.2,0 v 100 l 86.6,50 86.6,-50 V 800 l -86.6,-50 -86.6,50 m 173.2,0 v 100 l 86.6,50 86.6,-50 V 800 l -86.6,-50 -86.6,50"
       style="fill:#b2b2b2;fill-opacity:1;fill-rule:nonzero;stroke:none"
       transform="matrix(0.13333333,0,0,-0.13333333,0,389.33333)" />
    <path
       id="path53"
       d="m 4185.8,950 v 100 l 86.6,50 86.6,-50 V 950 l -86.6,-50 -86.6,50 m 173.2,0 v 100 l 86.6,50 86.6,-50 V 950 l -86.6,-50 -86.6,50 m 173.2,0 v 100 l 86.6,50 86.6,-50 V 950 l -86.6,-50 -86.6,50 m 173.2,0 v 100 l 86.6,50 86.6,-50 V 950 l -86.6,-50 -86.6,50"
       style="fill:#b2b2b2;fill-opacity:1;fill-rule:nonzero;stroke:none"
       transform="matrix(0.13333333,0,0,-0.13333333,0,389.33333)" />
    <path
       id="path54"
       d="m 4272.4,1100 v 100 l 86.6,50 86.6,-50 v -100 l -86.6,-50 -86.6,50 m 173.2,0 v 100 l 86.6,50 86.6,-50 v -100 l -86.6,-50 -86.6,50 m 173.2,0 v 100 l 86.6,50 86.6,-50 v -100 l -86.6,-50 -86.6,50"
       style="fill:#b2b2b2;fill-opacity:1;fill-rule:nonzero;stroke:none"
       transform="matrix(0.13333333,0,0,-0.13333333,0,389.33333)" />
    <path
       id="path55"
       d="m 4359,1250 v 100 l 86.6,50 86.6,-50 v -100 l -86.6,-50 -86.6,50 m 173.2,0 v 100 l 86.6,50 86.6,-50 v -100 l -86.6,-50 -86.6,50"
       style="fill:#b2b2b2;fill-opacity:1;fill-rule:nonzero;stroke:none"
       transform="matrix(0.13333333,0,0,-0.13333333,0,389.33333)" />
    <path
       id="path56"
       d="m 4445.6,1400 v 100 l 86.6,50 86.6,-50 v -100 l -86.6,-50 -86.6,50"
       style="fill:#b2b2b2;fill-opacity:1;fill-rule:nonzero;stroke:none"
       transform="matrix(0.13333333,0,0,-0.13333333,0,389.33333)" />
    <path
       id="path57"
       d="m 3319.8,350 v 100 l 86.6,50 86.6,-50 V 350 l -86.6,-50 -86.6,50 m 173.2,0 v 100 l 86.6,50 86.6,-50 V 350 l -86.6,-50 -86.6,50 m 173.2,0 v 100 l 86.6,50 86.6,-50 V 350 l -86.6,-50 -86.6,50 m 173.2,0 v 100 l 86.6,50 86.6,-50 V 350 l -86.6,-50 -86.6,50 m 173.2,0 v 100 l 86.6,50 86.6,-50 V 350 l -86.6,-50 -86.6,50 m 173.2,0 v 100 l 86.6,50 86.6,-50 V 350 l -86.6,-50 -86.6,50 m 173.2,0 v 100 l 86.6,50 86.6,-50 V 350 l -86.6,-50 -86.6,50 m 173.2,0 v 100 l 86.6,50 86.6,-50 V 350 l -86.6,-50 -86.6,50 m 173.2,0 v 100 l 86.6,50 86.6,-50 V 350 l -86.6,-50 -86.6,50 m 173.2,0 v 100 l 86.6,50 86.6,-50 V 350 l -86.6,-50 -86.6,50 m 173.2,0 v 100 l 86.6,50 86.6,-50 V 350 l -86.6,-50 -86.6,50 m 173.2,0 v 100 l 86.6,50 86.6,-50 V 350 l -86.6,-50 -86.6,50 m 173.2,0 v 100 l 86.6,50 86.6,-50 V 350 l -86.6,-50 -86.6,50 m 173.2,0 v 100 l 86.6,50 86.6,-50 V 350 l -86.6,-50 -86.6,50"
       style="fill:none;stroke:#000000;stroke-width:4;stroke-linecap:butt;stroke-linejoin:miter;stroke-miterlimit:10;stroke-dasharray:none;stroke-opacity:1"
       transform="matrix(0.13333333,0,0,-0.13333333,0,389.33333)" />
    <path
       id="path58"
       d="m 3406.4,500 v 100 l 86.6,50 86.6,-50 V 500 l -86.6,-50 -86.6,50 m 173.2,0 v 100 l 86.6,50 86.6,-50 V 500 l -86.6,-50 -86.6,50 m 173.2,0 v 100 l 86.6,50 86.6,-50 V 500 l -86.6,-50 -86.6,50 m 173.2,0 v 100 l 86.6,50 86.6,-50 V 500 l -86.6,-50 -86.6,50 m 173.2,0 v 100 l 86.6,50 86.6,-50 V 500 l -86.6,-50 -86.6,50 m 173.2,0 v 100 l 86.6,50 86.6,-50 V 500 l -86.6,-50 -86.6,50 m 173.2,0 v 100 l 86.6,50 86.6,-50 V 500 l -86.6,-50 -86.6,50 m 173.2,0 v 100 l 86.6,50 86.6,-50 V 500 l -86.6,-50 -86.6,50 m 173.2,0 v 100 l 86.6,50 86.6,-50 V 500 l -86.6,-50 -86.6,50 m 173.2,0 v 100 l 86.6,50 86.6,-50 V 500 l -86.6,-50 -86.6,50 m 173.2,0 v 100 l 86.6,50 86.6,-50 V 500 l -86.6,-50 -86.6,50 m 173.2,0 v 100 l 86.6,50 86.6,-50 V 500 l -86.6,-50 -86.6,50 m 173.2,0 v 100 l 86.6,50 86.6,-50 V 500 l -86.6,-50 -86.6,50"
       style="fill:none;stroke:#000000;stroke-width:4;stroke-linecap:butt;stroke-linejoin:miter;stroke-miterlimit:10;stroke-dasharray:none;stroke-opacity:1"
       transform="matrix(0.13333333,0,0,-0.13333333,0,389.33333)" />
    <path
       id="path59"
       d="m 3493,650 v 100 l 86.6,50 86.6,-50 V 650 l -86.6,-50 -86.6,50 m 173.2,0 v 100 l 86.6,50 86.6,-50 V 650 l -86.6,-50 -86.6,50 m 173.2,0 v 100 l 86.6,50 86.6,-50 V 650 l -86.6,-50 -86.6,50 m 173.2,0 v 100 l 86.6,50 86.6,-50 V 650 l -86.6,-50 -86.6,50 m 173.2,0 v 100 l 86.6,50 86.6,-50 V 650 l -86.6,-50 -86.6,50 m 173.2,0 v 100 l 86.6,50 86.6,-50 V 650 l -86.6,-50 -86.6,50 m 173.2,0 v 100 l 86.6,50 86.6,-50 V 650 l -86.6,-50 -86.6,50 m 173.2,0 v 100 l 86.6,50 86.6,-50 V 650 l -86.6,-50 -86.6,50 m 173.2,0 v 100 l 86.6,50 86.6,-50 V 650 l -86.6,-50 -86.6,50 m 173.2,0 v 100 l 86.6,50 86.6,-50 V 650 l -86.6,-50 -86.6,50 m 173.2,0 v 100 l 86.6,50 86.6,-50 V 650 l -86.6,-50 -86.6,50 m 173.2,0 v 100 l 86.6,50 86.6,-50 V 650 l -86.6,-50 -86.6,50"
       style="fill:none;stroke:#000000;stroke-width:4;stroke-linecap:butt;stroke-linejoin:miter;stroke-miterlimit:10;stroke-dasharray:none;stroke-opacity:1"
       transform="matrix(0.13333333,0,0,-0.13333333,0,389.33333)" />
    <path
       id="path60"
       d="m 3579.6,800 v 100 l 86.6,50 86.6,-50 V 800 l -86.6,-50 -86.6,50 m 173.2,0 v 100 l 86.6,50 86.6,-50 V 800 l -86.6,-50 -86.6,50 m 173.2,0 v 100 l 86.6,50 86.6,-50 V 800 l -86.6,-50 -86.6,50 m 173.2,0 v 100 l 86.6,50 86.6,-50 V 800 l -86.6,-50 -86.6,50 m 173.2,0 v 100 l 86.6,50 86.6,-50 V 800 l -86.6,-50 -86.6,50 m 173.2,0 v 100 l 86.6,50 86.6,-50 V 800 l -86.6,-50 -86.6,50 m 173.2,0 v 100 l 86.6,50 86.6,-50 V 800 l -86.6,-50 -86.6,50 m 173.2,0 v 100 l 86.6,50 86.6,-50 V 800 l -86.6,-50 -86.6,50 m 173.2,0 v 100 l 86.6,50 86.6,-50 V 800 l -86.6,-50 -86.6,50 m 173.2,0 v 100 l 86.6,50 86.6,-50 V 800 l -86.6,-50 -86.6,50 m 173.2,0 v 100 l 86.6,50 86.6,-50 V 800 l -86.6,-50 -86.6,50"
       style="fill:none;stroke:#000000;stroke-width:4;stroke-linecap:butt;stroke-linejoin:miter;stroke-miterlimit:10;stroke-dasharray:none;stroke-opacity:1"
       transform="matrix(0.13333333,0,0,-0.13333333,0,389.33333)" />
    <path
       id="path61"
       d="m 3666.2,950 v 100 l 86.6,50 86.6,-50 V 950 l -86.6,-50 -86.6,50 m 173.2,0 v 100 l 86.6,50 86.6,-50 V 950 l -86.6,-50 -86.6,50 m 173.2,0 v 100 l 86.6,50 86.6,-50 V 950 l -86.6,-50 -86.6,50 m 173.2,0 v 100 l 86.6,50 86.6,-50 V 950 l -86.6,-50 -86.6,50 m 173.2,0 v 100 l 86.6,50 86.6,-50 V 950 l -86.6,-50 -86.6,50 m 173.2,0 v 100 l 86.6,50 86.6,-50 V 950 l -86.6,-50 -86.6,50 m 173.2,0 v 100 l 86.6,50 86.6,-50 V 950 l -86.6,-50 -86.6,50 m 173.2,0 v 100 l 86.6,50 86.6,-50 V 950 l -86.6,-50 -86.6,50 m 173.2,0 v 100 l 86.6,50 86.6,-50 V 950 l -86.6,-50 -86.6,50 m 173.2,0 v 100 l 86.6,50 86.6,-50 V 950 l -86.6,-50 -86.6,50"
       style="fill:none;stroke:#000000;stroke-width:4;stroke-linecap:butt;stroke-linejoin:miter;stroke-miterlimit:10;stroke-dasharray:none;stroke-opacity:1"
       transform="matrix(0.13333333,0,0,-0.13333333,0,389.33333)" />
    <path
       id="path62"
       d="m 3752.8,1100 v 100 l 86.6,50 86.6,-50 v -100 l -86.6,-50 -86.6,50 m 173.2,0 v 100 l 86.6,50 86.6,-50 v -100 l -86.6,-50 -86.6,50 m 173.2,0 v 100 l 86.6,50 86.6,-50 v -100 l -86.6,-50 -86.6,50 m 173.2,0 v 100 l 86.6,50 86.6,-50 v -100 l -86.6,-50 -86.6,50 m 173.2,0 v 100 l 86.6,50 86.6,-50 v -100 l -86.6,-50 -86.6,50 m 173.2,0 v 100 l 86.6,50 86.6,-50 v -100 l -86.6,-50 -86.6,50 m 173.2,0 v 100 l 86.6,50 86.6,-50 v -100 l -86.6,-50 -86.6,50 m 173.2,0 v 100 l 86.6,50 86.6,-50 v -100 l -86.6,-50 -86.6,50 m 173.2,0 v 100 l 86.6,50 86.6,-50 v -100 l -86.6,-50 -86.6,50"
       style="fill:none;stroke:#000000;stroke-width:4;stroke-linecap:butt;stroke-linejoin:miter;stroke-miterlimit:10;stroke-dasharray:none;stroke-opacity:1"
       transform="matrix(0.13333333,0,0,-0.13333333,0,389.33333)" />
    <path
       id="path63"
       d="m 3839.4,1250 v 100 l 86.6,50 86.6,-50 v -100 l -86.6,-50 -86.6,50 m 173.2,0 v 100 l 86.6,50 86.6,-50 v -100 l -86.6,-50 -86.6,50 m 173.2,0 v 100 l 86.6,50 86.6,-50 v -100 l -86.6,-50 -86.6,50 m 173.2,0 v 100 l 86.6,50 86.6,-50 v -100 l -86.6,-50 -86.6,50 m 173.2,0 v 100 l 86.6,50 86.6,-50 v -100 l -86.6,-50 -86.6,50 m 173.2,0 v 100 l 86.6,50 86.6,-50 v -100 l -86.6,-50 -86.6,50 m 173.2,0 v 100 l 86.6,50 86.6,-50 v -100 l -86.6,-50 -86.6,50 m 173.2,0 v 100 l 86.6,50 86.6,-50 v -100 l -86.6,-50 -86.6,50"
       style="fill:none;stroke:#000000;stroke-width:4;stroke-linecap:butt;stroke-linejoin:miter;stroke-miterlimit:10;stroke-dasharray:none;stroke-opacity:1"
       transform="matrix(0.13333333,0,0,-0.13333333,0,389.33333)" />
    <path
       id="path64"
       d="m 3926,1400 v 100 l 86.6,50 86.6,-50 v -100 l -86.6,-50 -86.6,50 m 173.2,0 v 100 l 86.6,50 86.6,-50 v -100 l -86.6,-50 -86.6,50 m 173.2,0 v 100 l 86.6,50 86.6,-50 v -100 l -86.6,-50 -86.6,50 m 173.2,0 v 100 l 86.6,50 86.6,-50 v -100 l -86.6,-50 -86.6,50 m 173.2,0 v 100 l 86.6,50 86.6,-50 v -100 l -86.6,-50 -86.6,50 m 173.2,0 v 100 l 86.6,50 86.6,-50 v -100 l -86.6,-50 -86.6,50 m 173.2,0 v 100 l 86.6,50 86.6,-50 v -100 l -86.6,-50 -86.6,50"
       style="fill:none;stroke:#000000;stroke-width:4;stroke-linecap:butt;stroke-linejoin:miter;stroke-miterlimit:10;stroke-dasharray:none;stroke-opacity:1"
       transform="matrix(0.13333333,0,0,-0.13333333,0,389.33333)" />
    <path
       id="path65"
       d="m 4012.6,1550 v 100 l 86.6,50 86.6,-50 v -100 l -86.6,-50 -86.6,50 m 173.2,0 v 100 l 86.6,50 86.6,-50 v -100 l -86.6,-50 -86.6,50 m 173.2,0 v 100 l 86.6,50 86.6,-50 v -100 l -86.6,-50 -86.6,50 m 173.2,0 v 100 l 86.6,50 86.6,-50 v -100 l -86.6,-50 -86.6,50 m 173.2,0 v 100 l 86.6,50 86.6,-50 v -100 l -86.6,-50 -86.6,50 m 173.2,0 v 100 l 86.6,50 86.6,-50 v -100 l -86.6,-50 -86.6,50"
       style="fill:none;stroke:#000000;stroke-width:4;stroke-linecap:butt;stroke-linejoin:miter;stroke-miterlimit:10;stroke-dasharray:none;stroke-opacity:1"
       transform="matrix(0.13333333,0,0,-0.13333333,0,389.33333)" />
    <path
       id="path66"
       d="m 4099.2,1700 v 100 l 86.6,50 86.6,-50 v -100 l -86.6,-50 -86.6,50 m 173.2,0 v 100 l 86.6,50 86.6,-50 v -100 l -86.6,-50 -86.6,50 m 173.2,0 v 100 l 86.6,50 86.6,-50 v -100 l -86.6,-50 -86.6,50 m 173.2,0 v 100 l 86.6,50 86.6,-50 v -100 l -86.6,-50 -86.6,50 m 173.2,0 v 100 l 86.6,50 86.6,-50 v -100 l -86.6,-50 -86.6,50"
       style="fill:none;stroke:#000000;stroke-width:4;stroke-linecap:butt;stroke-linejoin:miter;stroke-miterlimit:10;stroke-dasharray:none;stroke-opacity:1"
       transform="matrix(0.13333333,0,0,-0.13333333,0,389.33333)" />
    <path
       id="path67"
       d="m 4185.8,1850 v 100 l 86.6,50 86.6,-50 v -100 l -86.6,-50 -86.6,50 m 173.2,0 v 100 l 86.6,50 86.6,-50 v -100 l -86.6,-50 -86.6,50 m 173.2,0 v 100 l 86.6,50 86.6,-50 v -100 l -86.6,-50 -86.6,50 m 173.2,0 v 100 l 86.6,50 86.6,-50 v -100 l -86.6,-50 -86.6,50"
       style="fill:none;stroke:#000000;stroke-width:4;stroke-linecap:butt;stroke-linejoin:miter;stroke-miterlimit:10;stroke-dasharray:none;stroke-opacity:1"
       transform="matrix(0.13333333,0,0,-0.13333333,0,389.33333)" />
    <path
       id="path68"
       d="m 4272.4,2000 v 100 l 86.6,50 86.6,-50 v -100 l -86.6,-50 -86.6,50 m 173.2,0 v 100 l 86.6,50 86.6,-50 v -100 l -86.6,-50 -86.6,50 m 173.2,0 v 100 l 86.6,50 86.6,-50 v -100 l -86.6,-50 -86.6,50"
       style="fill:none;stroke:#000000;stroke-width:4;stroke-linecap:butt;stroke-linejoin:miter;stroke-miterlimit:10;stroke-dasharray:none;stroke-opacity:1"
       transform="matrix(0.13333333,0,0,-0.13333333,0,389.33333)" />
    <path
       id="path69"
       d="m 4359,2150 v 100 l 86.6,50 86.6,-50 v -100 l -86.6,-50 -86.6,50 m 173.2,0 v 100 l 86.6,50 86.6,-50 v -100 l -86.6,-50 -86.6,50"
       style="fill:none;stroke:#000000;stroke-width:4;stroke-linecap:butt;stroke-linejoin:miter;stroke-miterlimit:10;stroke-dasharray:none;stroke-opacity:1"
       transform="matrix(0.13333333,0,0,-0.13333333,0,389.33333)" />
    <path
       id="path70"
       d="m 4445.6,2300 v 100 l 86.6,50 86.6,-50 v -100 l -86.6,-50 -86.6,50"
       style="fill:none;stroke:#000000;stroke-width:4;stroke-linecap:butt;stroke-linejoin:miter;stroke-miterlimit:10;stroke-dasharray:none;stroke-opacity:1"
       transform="matrix(0.13333333,0,0,-0.13333333,0,389.33333)" />
    <path
       id="path71"
       d="m 4648.8,2551.96 -60,-103.92 m 0,0 50.98,28.3 m -50.98,-28.3 -0.98,58.3"
       style="fill:none;stroke:#000000;stroke-width:10;stroke-linecap:butt;stroke-linejoin:miter;stroke-miterlimit:10;stroke-dasharray:none;stroke-opacity:1"
       transform="matrix(0.13333333,0,0,-0.13333333,0,389.33333)" />
    <text
       id="text71"
       xml:space="preserve"
       transform="matrix(1.3333333,0,-9.3333333e-8,1.3333333,619.984,45.701333)"><tspan
         style="font-variant:normal;font-weight:normal;font-size:14px;font-family:Arial;writing-mode:lr-tb;fill:#000000;fill-opacity:1;fill-rule:nonzero;stroke:none"
         x="0"
         y="0"
         id="tspan71">2</tspan></text>
    <path
       id="path72"
       d="m 5081.8,1801.96 -60,-103.92 m 0,0 50.98,28.3 m -50.98,-28.3 -0.98,58.3"
       style="fill:none;stroke:#000000;stroke-width:10;stroke-linecap:butt;stroke-linejoin:miter;stroke-miterlimit:10;stroke-dasharray:none;stroke-opacity:1"
       transform="matrix(0.13333333,0,0,-0.13333333,0,389.33333)" />
    <text
       id="text72"
       xml:space="preserve"
       transform="matrix(1.3333333,0,-9.3333333e-8,1.3333333,676.68133,145.70133)"><tspan
         style="font-variant:normal;font-weight:normal;font-size:14px;font-family:Arial;writing-mode:lr-tb;fill:#000000;fill-opacity:1;fill-rule:nonzero;stroke:none"
         x="0"
         y="0"
         id="tspan72">E</tspan></text>
    <path
       id="path73"
       d="m 3606.2,1150 h 120 m 0,0 -50,30 m 50,-30 -50,-30"
       style="fill:none;stroke:#000000;stroke-width:10;stroke-linecap:butt;stroke-linejoin:miter;stroke-miterlimit:10;stroke-dasharray:none;stroke-opacity:1"
       transform="matrix(0.13333333,0,0,-0.13333333,0,389.33333)" />
    <text
       id="text73"
       xml:space="preserve"
       transform="matrix(1.3333333,0,0,1.3333333,464.97067,241.86667)"><tspan
         style="font-variant:normal;font-weight:normal;font-size:14px;font-family:Arial;writing-mode:lr-tb;fill:#000000;fill-opacity:1;fill-rule:nonzero;stroke:none"
         x="0"
         y="0"
         id="tspan73">3</tspan></text>
    <path
       id="path74"
       d="m 3692.8,1300 h 120 m 0,0 -50,30 m 50,-30 -50,-30"
       style="fill:none;stroke:#000000;stroke-width:10;stroke-linecap:butt;stroke-linejoin:miter;stroke-miterlimit:10;stroke-dasharray:none;stroke-opacity:1"
       transform="matrix(0.13333333,0,0,-0.13333333,0,389.33333)" />
    <text
       id="text74"
       xml:space="preserve"
       transform="matrix(1.3333333,0,0,1.3333333,476.51733,221.86667)"><tspan
         style="font-variant:normal;font-weight:normal;font-size:14px;font-family:Arial;writing-mode:lr-tb;fill:#000000;fill-opacity:1;fill-rule:nonzero;stroke:none"
         x="0"
         y="0"
         id="tspan74">3</tspan></text>
    <path
       id="path75"
       d="m 3952.6,1750 h 120 m 0,0 -50,30 m 50,-30 -50,-30"
       style="fill:none;stroke:#000000;stroke-width:10;stroke-linecap:butt;stroke-linejoin:miter;stroke-miterlimit:10;stroke-dasharray:none;stroke-opacity:1"
       transform="matrix(0.13333333,0,0,-0.13333333,0,389.33333)" />
    <text
       id="text75"
       xml:space="preserve"
       transform="matrix(1.3333333,0,0,1.3333333,509.608,161.86667)"><tspan
         style="font-variant:normal;font-weight:normal;font-size:14px;font-family:Arial;writing-mode:lr-tb;fill:#000000;fill-opacity:1;fill-rule:nonzero;stroke:none"
         x="0"
         y="0"
         id="tspan75">R</tspan></text>
    <path
       id="path76"
       d="m 5255,198.039 -60,103.922 m 0,0 -0.98,-58.301 m 0.98,58.301 50.98,-28.301"
       style="fill:none;stroke:#000000;stroke-width:10;stroke-linecap:butt;stroke-linejoin:miter;stroke-miterlimit:10;stroke-dasharray:none;stroke-opacity:1"
       transform="matrix(0.13333333,0,0,-0.13333333,0,389.33333)" />
    <text
       id="text76"
       xml:space="preserve"
       transform="matrix(1.3333333,-9.3333333e-8,0,1.3333333,700.81067,378.03229)"><tspan
         style="font-variant:normal;font-weight:normal;font-size:14px;font-family:Arial;writing-mode:lr-tb;fill:#000000;fill-opacity:1;fill-rule:nonzero;stroke:none"
         x="0"
         y="0"
         id="tspan76">1</tspan></text>
    <path
       id="path77"
       d="m 5428.2,198.039 -60,103.922 m 0,0 -0.98,-58.301 m 0.98,58.301 50.98,-28.301"
       style="fill:none;stroke:#000000;stroke-width:10;stroke-linecap:butt;stroke-linejoin:miter;stroke-miterlimit:10;stroke-dasharray:none;stroke-opacity:1"
       transform="matrix(0.13333333,0,0,-0.13333333,0,389.33333)" />
    <text
       id="text77"
       xml:space="preserve"
       transform="matrix(1.3333333,-9.3333333e-8,0,1.3333333,723.904,378.03229)"><tspan
         style="font-variant:normal;font-weight:normal;font-size:14px;font-family:Arial;writing-mode:lr-tb;fill:#000000;fill-opacity:1;fill-rule:nonzero;stroke:none"
         x="0"
         y="0"
         id="tspan77">3</tspan></text>
  </g>
</svg>
