<?xml version="1.0" encoding="UTF-8" standalone="no"?>
<!-- Created with Inkscape (http://www.inkscape.org/) -->

<svg
   version="1.1"
   id="svg1"
   width="789.33331"
   height="389.33334"
   viewBox="0 0 789.33331 389.33334"
   xmlns="http://www.w3.org/2000/svg"
   xmlns:svg="http://www.w3.org/2000/svg">
  <defs
     id="defs1" />
  <g
     id="g1">
    <text
       id="text1"
       xml:space="preserve"
       transform="matrix(1.3333333,0,0,1.3333333,21.333333,18.666667)"><tspan
         style="font-variant:normal;font-weight:normal;font-size:16px;font-family:Arial;writing-mode:lr-tb;fill:#000000;fill-opacity:1;fill-rule:nonzero;stroke:none"
         x="0 11.552 20.448 29.344 33.792"
         y="0"
         id="tspan1">Day 4</tspan><tspan
         style="font-variant:normal;font-weight:normal;font-size:13px;font-family:Arial;writing-mode:lr-tb;fill:#000000;fill-opacity:1;fill-rule:nonzero;stroke:none"
         x="80 87.943001 91.556999 98.785004 106.013 110.342"
         y="0"
         id="tspan2">Fleet:</tspan><tspan
         style="font-variant:normal;font-weight:normal;font-size:13px;font-family:Arial;writing-mode:lr-tb;fill:#000000;fill-opacity:1;fill-rule:nonzero;stroke:none"
         x="40 49.386002 53 63.828999 330.00009 338.67111 342.2851 353.11411"
         y="58"
         id="tspan3">A.M.P.M.</tspan></text>
    <path
       id="path3"
       d="m 1720,2820 c 0,33.14 -26.86,60 -60,60 -33.14,0 -60,-26.86 -60,-60 0,-33.14 26.86,-60 60,-60 33.14,0 60,26.86 60,60"
       style="fill:#000000;fill-opacity:1;fill-rule:nonzero;stroke:none"
       transform="matrix(0.13333333,0,0,-0.13333333,0,389.33333)" />
    <path
       id="path4"
       d="m 1660,2760 h 69.9961 v 120 H 1660 Z"
       style="fill:#000000;fill-opacity:1;fill-rule:nonzero;stroke:none"
       transform="matrix(0.13333333,0,0,-0.13333333,0,389.33333)" />
    <text
       id="text4"
       xml:space="preserve"
       transform="matrix(1.3333333,0,0,1.3333333,218.816,17.333333)"><tspan
         style="font-variant:normal;font-weight:normal;font-size:8px;font-family:Arial;writing-mode:lr-tb;fill:#ffffff;fill-opacity:1;fill-rule:nonzero;stroke:none"
         x="0"
         y="0"
         id="tspan4">D</tspan></text>
    <path
       id="path5"
       d="m 1763.2,2760 h 139.992 v 120 H 1763.2 Z"
       style="fill:#000000;fill-opacity:1;fill-rule:nonzero;stroke:none"
       transform="matrix(0.13333333,0,0,-0.13333333,0,389.33333)" />
    <text
       id="text5"
       xml:space="preserve"
       transform="matrix(1.3333333,0,0,1.3333333,242.944,17.333333)"><tspan
         style="font-variant:normal;font-weight:normal;font-size:8px;font-family:Arial;writing-mode:lr-tb;fill:#ffffff;fill-opacity:1;fill-rule:nonzero;stroke:none"
         x="0"
         y="0"
         id="tspan5">I</tspan></text>
    <path
       id="path6"
       d="m 2066.4,2820 c 0,33.14 -26.86,60 -60,60 -33.14,0 -60,-26.86 -60,-60 0,-33.14 26.86,-60 60,-60 33.14,0 60,26.86 60,60"
       style="fill:#000000;fill-opacity:1;fill-rule:nonzero;stroke:none"
       transform="matrix(0.13333333,0,0,-0.13333333,0,389.33333)" />
    <path
       id="path7"
       d="m 1936.4,2760 h 69.9961 v 120 H 1936.4 Z"
       style="fill:#000000;fill-opacity:1;fill-rule:nonzero;stroke:none"
       transform="matrix(0.13333333,0,0,-0.13333333,0,389.33333)" />
    <text
       id="text7"
       xml:space="preserve"
       transform="matrix(1.3333333,0,0,1.3333333,262.62933,17.333333)"><tspan
         style="font-variant:normal;font-weight:normal;font-size:8px;font-family:Arial;writing-mode:lr-tb;fill:#ffffff;fill-opacity:1;fill-rule:nonzero;stroke:none"
         x="0"
         y="0"
         id="tspan7">S</tspan></text>
    <path
       id="path8"
       d="m 2326.2,2820 c 0,33.14 -26.86,60 -60,60 -33.14,0 -60,-26.86 -60,-60 0,-33.14 26.86,-60 60,-60 33.14,0 60,26.86 60,60"
       style="fill:#000000;fill-opacity:1;fill-rule:nonzero;stroke:none"
       transform="matrix(0.13333333,0,0,-0.13333333,0,389.33333)" />
    <path
       id="path9"
       d="m 2266.2,2760 h 69.9961 v 120 H 2266.2 Z"
       style="fill:#000000;fill-opacity:1;fill-rule:nonzero;stroke:none"
       transform="matrix(0.13333333,0,0,-0.13333333,0,389.33333)" />
    <text
       id="text9"
       xml:space="preserve"
       transform="matrix(1.3333333,0,0,1.3333333,299.936,17.333333)"><tspan
         style="font-variant:normal;font-weight:normal;font-size:8px;font-family:Arial;writing-mode:lr-tb;fill:#ffffff;fill-opacity:1;fill-rule:nonzero;stroke:none"
         x="0"
         y="0"
         id="tspan9">P</tspan></text>
    <path
       id="path10"
       d="m 2369.4,2760 h 139.992 v 120 H 2369.4 Z"
       style="fill:#000000;fill-opacity:1;fill-rule:nonzero;stroke:none"
       transform="matrix(0.13333333,0,0,-0.13333333,0,389.33333)" />
    <text
       id="text10"
       xml:space="preserve"
       transform="matrix(1.3333333,0,0,1.3333333,321.40267,17.333333)"><tspan
         style="font-variant:normal;font-weight:normal;font-size:8px;font-family:Arial;writing-mode:lr-tb;fill:#ffffff;fill-opacity:1;fill-rule:nonzero;stroke:none"
         x="0"
         y="0"
         id="tspan10">A</tspan></text>
    <path
       id="path11"
       d="m 2672.6,2820 c 0,33.14 -26.86,60 -60,60 -33.14,0 -60,-26.86 -60,-60 0,-33.14 26.86,-60 60,-60 33.14,0 60,26.86 60,60"
       style="fill:#000000;fill-opacity:1;fill-rule:nonzero;stroke:none"
       transform="matrix(0.13333333,0,0,-0.13333333,0,389.33333)" />
    <path
       id="path12"
       d="m 2542.6,2760 h 69.9961 v 120 H 2542.6 Z"
       style="fill:#000000;fill-opacity:1;fill-rule:nonzero;stroke:none"
       transform="matrix(0.13333333,0,0,-0.13333333,0,389.33333)" />
    <text
       id="text12"
       xml:space="preserve"
       transform="matrix(1.3333333,0,0,1.3333333,343.16267,17.333333)"><tspan
         style="font-variant:normal;font-weight:normal;font-size:8px;font-family:Arial;writing-mode:lr-tb;fill:#ffffff;fill-opacity:1;fill-rule:nonzero;stroke:none"
         x="0"
         y="0"
         id="tspan12">R</tspan></text>
    <path
       id="path13"
       d="m 2932.4,2820 c 0,33.14 -26.86,60 -60,60 -33.14,0 -60,-26.86 -60,-60 0,-33.14 26.86,-60 60,-60 33.14,0 60,26.86 60,60"
       style="fill:#000000;fill-opacity:1;fill-rule:nonzero;stroke:none"
       transform="matrix(0.13333333,0,0,-0.13333333,0,389.33333)" />
    <path
       id="path14"
       d="m 2872.4,2760 h 69.9961 v 120 H 2872.4 Z"
       style="fill:#000000;fill-opacity:1;fill-rule:nonzero;stroke:none"
       transform="matrix(0.13333333,0,0,-0.13333333,0,389.33333)" />
    <text
       id="text14"
       xml:space="preserve"
       transform="matrix(1.3333333,0,0,1.3333333,380.46933,17.333333)"><tspan
         style="font-variant:normal;font-weight:normal;font-size:8px;font-family:Arial;writing-mode:lr-tb;fill:#ffffff;fill-opacity:1;fill-rule:nonzero;stroke:none"
         x="0"
         y="0"
         id="tspan14">U</tspan></text>
    <path
       id="path15"
       d="m 3105.6,2820 c 0,33.14 -26.86,60 -60,60 -33.14,0 -60,-26.86 -60,-60 0,-33.14 26.86,-60 60,-60 33.14,0 60,26.86 60,60"
       style="fill:#000000;fill-opacity:1;fill-rule:nonzero;stroke:none"
       transform="matrix(0.13333333,0,0,-0.13333333,0,389.33333)" />
    <path
       id="path16"
       d="m 2975.6,2760 h 69.9961 v 120 H 2975.6 Z"
       style="fill:#000000;fill-opacity:1;fill-rule:nonzero;stroke:none"
       transform="matrix(0.13333333,0,0,-0.13333333,0,389.33333)" />
    <text
       id="text16"
       xml:space="preserve"
       transform="matrix(1.3333333,0,0,1.3333333,401.18933,17.333333)"><tspan
         style="font-variant:normal;font-weight:normal;font-size:8px;font-family:Arial;writing-mode:lr-tb;fill:#ffffff;fill-opacity:1;fill-rule:nonzero;stroke:none"
         x="0"
         y="0"
         id="tspan16">S</tspan></text>
    <path
       id="path17"
       d="m 3365.4,2820 c 0,33.14 -26.86,60 -60,60 -33.14,0 -60,-26.86 -60,-60 0,-33.14 26.86,-60 60,-60 33.14,0 60,26.86 60,60"
       style="fill:#000000;fill-opacity:1;fill-rule:nonzero;stroke:none"
       transform="matrix(0.13333333,0,0,-0.13333333,0,389.33333)" />
    <path
       id="path18"
       d="m 3305.4,2760 h 69.9961 v 120 H 3305.4 Z"
       style="fill:#000000;fill-opacity:1;fill-rule:nonzero;stroke:none"
       transform="matrix(0.13333333,0,0,-0.13333333,0,389.33333)" />
    <text
       id="text18"
       xml:space="preserve"
       transform="matrix(1.3333333,0,0,1.3333333,438.496,17.333333)"><tspan
         style="font-variant:normal;font-weight:normal;font-size:8px;font-family:Arial;writing-mode:lr-tb;fill:#ffffff;fill-opacity:1;fill-rule:nonzero;stroke:none"
         x="0"
         y="0"
         id="tspan18">E</tspan></text>
    <path
       id="path19"
       d="m 3538.6,2820 c 0,33.14 -26.86,60 -60,60 -33.14,0 -60,-26.86 -60,-60 0,-33.14 26.86,-60 60,-60 33.14,0 60,26.86 60,60"
       style="fill:#000000;fill-opacity:1;fill-rule:nonzero;stroke:none"
       transform="matrix(0.13333333,0,0,-0.13333333,0,389.33333)" />
    <path
       id="path20"
       d="m 3408.6,2760 h 69.9961 v 120 H 3408.6 Z"
       style="fill:#000000;fill-opacity:1;fill-rule:nonzero;stroke:none"
       transform="matrix(0.13333333,0,0,-0.13333333,0,389.33333)" />
    <text
       id="text20"
       xml:space="preserve"
       transform="matrix(1.3333333,0,0,1.3333333,458.62933,17.333333)"><tspan
         style="font-variant:normal;font-weight:normal;font-size:8px;font-family:Arial;writing-mode:lr-tb;fill:#ffffff;fill-opacity:1;fill-rule:nonzero;stroke:none"
         x="0"
         y="0"
         id="tspan20">N</tspan></text>
    <path
       id="path21"
       d="m 3798.4,2820 c 0,33.14 -26.86,60 -60,60 -33.14,0 -60,-26.86 -60,-60 0,-33.14 26.86,-60 60,-60 33.14,0 60,26.86 60,60"
       style="fill:#000000;fill-opacity:1;fill-rule:nonzero;stroke:none"
       transform="matrix(0.13333333,0,0,-0.13333333,0,389.33333)" />
    <text
       id="text21"
       xml:space="preserve"
       transform="matrix(1.3333333,0,0,1.3333333,494.01067,17.333333)"><tspan
         style="font-variant:normal;font-weight:normal;font-size:8px;font-family:Arial;writing-mode:lr-tb;fill:#ffffff;fill-opacity:1;fill-rule:nonzero;stroke:none"
         x="0"
         y="0"
         id="tspan21">M</tspan></text>
    <path
       id="path22"
       d="m 3998.4,2820 c 0,33.14 -26.86,60 -60,60 -33.14,0 -60,-26.86 -60,-60 0,-33.14 26.86,-60 60,-60 33.14,0 60,26.86 60,60"
       style="fill:#000000;fill-opacity:1;fill-rule:nonzero;stroke:none"
       transform="matrix(0.13333333,0,0,-0.13333333,0,389.33333)" />
    <text
       id="text22"
       xml:space="preserve"
       transform="matrix(1.3333333,0,0,1.3333333,521.56267,17.333333)"><tspan
         style="font-variant:normal;font-weight:normal;font-size:8px;font-family:Arial;writing-mode:lr-tb;fill:#ffffff;fill-opacity:1;fill-rule:nonzero;stroke:none"
         x="0"
         y="0"
         id="tspan22">E</tspan></text>
    <path
       id="path23"
       d="m 4198.4,2820 c 0,33.14 -26.86,60 -60,60 -33.14,0 -60,-26.86 -60,-60 0,-33.14 26.86,-60 60,-60 33.14,0 60,26.86 60,60"
       style="fill:#000000;fill-opacity:1;fill-rule:nonzero;stroke:none"
       transform="matrix(0.13333333,0,0,-0.13333333,0,389.33333)" />
    <text
       id="text23"
       xml:space="preserve"
       transform="matrix(1.3333333,0,0,1.3333333,547.936,17.333333)"><tspan
         style="font-variant:normal;font-weight:normal;font-size:8px;font-family:Arial;writing-mode:lr-tb;fill:#ffffff;fill-opacity:1;fill-rule:nonzero;stroke:none"
         x="0"
         y="0"
         id="tspan23">R</tspan></text>
    <path
       id="path24"
       d="m 1199.2,800 v 100 l 86.6,50 86.6,-50 V 800 l -86.6,-50 -86.6,50 m 173.2,0 v 100 l 86.6,50 86.6,-50 V 800 l -86.6,-50 -86.6,50 m 173.2,0 v 100 l 86.6,50 86.6,-50 V 800 l -86.6,-50 -86.6,50 m 173.2,0 v 100 l 86.6,50 86.6,-50 V 800 l -86.6,-50 -86.6,50 m 173.2,0 v 100 l 86.6,50 86.6,-50 V 800 l -86.6,-50 -86.6,50"
       style="fill:#b2b2b2;fill-opacity:1;fill-rule:nonzero;stroke:none"
       transform="matrix(0.13333333,0,0,-0.13333333,0,389.33333)" />
    <path
       id="path25"
       d="m 1285.8,950 v 100 l 86.6,50 86.6,-50 V 950 l -86.6,-50 -86.6,50 m 173.2,0 v 100 l 86.6,50 86.6,-50 V 950 l -86.6,-50 -86.6,50 m 173.2,0 v 100 l 86.6,50 86.6,-50 V 950 l -86.6,-50 -86.6,50 m 173.2,0 v 100 l 86.6,50 86.6,-50 V 950 l -86.6,-50 -86.6,50"
       style="fill:#b2b2b2;fill-opacity:1;fill-rule:nonzero;stroke:none"
       transform="matrix(0.13333333,0,0,-0.13333333,0,389.33333)" />
    <path
       id="path26"
       d="m 1372.4,1100 v 100 l 86.6,50 86.6,-50 v -100 l -86.6,-50 -86.6,50 m 173.2,0 v 100 l 86.6,50 86.6,-50 v -100 l -86.6,-50 -86.6,50 m 173.2,0 v 100 l 86.6,50 86.6,-50 v -100 l -86.6,-50 -86.6,50"
       style="fill:#b2b2b2;fill-opacity:1;fill-rule:nonzero;stroke:none"
       transform="matrix(0.13333333,0,0,-0.13333333,0,389.33333)" />
    <path
       id="path27"
       d="m 1459,1250 v 100 l 86.6,50 86.6,-50 v -100 l -86.6,-50 -86.6,50 m 173.2,0 v 100 l 86.6,50 86.6,-50 v -100 l -86.6,-50 -86.6,50"
       style="fill:#b2b2b2;fill-opacity:1;fill-rule:nonzero;stroke:none"
       transform="matrix(0.13333333,0,0,-0.13333333,0,389.33333)" />
    <path
       id="path28"
       d="m 1545.6,1400 v 100 l 86.6,50 86.6,-50 v -100 l -86.6,-50 -86.6,50"
       style="fill:#b2b2b2;fill-opacity:1;fill-rule:nonzero;stroke:none"
       transform="matrix(0.13333333,0,0,-0.13333333,0,389.33333)" />
    <path
       id="path29"
       d="M 419.801,350 V 450 L 506.398,500 593,450 V 350 l -86.602,-50 -86.597,50 M 593,350 v 100 l 86.602,50 86.597,-50 V 350 L 679.602,300 593,350 m 173.199,0 v 100 l 86.602,50 86.597,-50 V 350 l -86.597,-50 -86.602,50 m 173.199,0 v 100 l 86.602,50 86.6,-50 V 350 l -86.6,-50 -86.602,50 m 173.202,0 v 100 l 86.6,50 86.6,-50 V 350 l -86.6,-50 -86.6,50 m 173.2,0 v 100 l 86.6,50 86.6,-50 V 350 l -86.6,-50 -86.6,50 m 173.2,0 v 100 l 86.6,50 86.6,-50 V 350 l -86.6,-50 -86.6,50 m 173.2,0 v 100 l 86.6,50 86.6,-50 V 350 l -86.6,-50 -86.6,50 m 173.2,0 v 100 l 86.6,50 86.6,-50 V 350 l -86.6,-50 -86.6,50 m 173.2,0 v 100 l 86.6,50 86.6,-50 V 350 l -86.6,-50 -86.6,50 m 173.2,0 v 100 l 86.6,50 86.6,-50 V 350 l -86.6,-50 -86.6,50 m 173.2,0 v 100 l 86.6,50 86.6,-50 V 350 l -86.6,-50 -86.6,50 m 173.2,0 v 100 l 86.6,50 86.6,-50 V 350 l -86.6,-50 -86.6,50 m 173.2,0 v 100 l 86.6,50 86.6,-50 V 350 l -86.6,-50 -86.6,50"
       style="fill:none;stroke:#000000;stroke-width:4;stroke-linecap:butt;stroke-linejoin:miter;stroke-miterlimit:10;stroke-dasharray:none;stroke-opacity:1"
       transform="matrix(0.13333333,0,0,-0.13333333,0,389.33333)" />
    <path
       id="path30"
       d="M 506.398,500 V 600 L 593,650 679.602,600 V 500 L 593,450 506.398,500 m 173.204,0 v 100 l 86.597,50 86.602,-50 V 500 l -86.602,-50 -86.597,50 m 173.199,0 V 600 L 939.398,650 1026,600 V 500 l -86.602,-50 -86.597,50 M 1026,500 v 100 l 86.6,50 86.6,-50 V 500 l -86.6,-50 -86.6,50 m 173.2,0 v 100 l 86.6,50 86.6,-50 V 500 l -86.6,-50 -86.6,50 m 173.2,0 v 100 l 86.6,50 86.6,-50 V 500 l -86.6,-50 -86.6,50 m 173.2,0 v 100 l 86.6,50 86.6,-50 V 500 l -86.6,-50 -86.6,50 m 173.2,0 v 100 l 86.6,50 86.6,-50 V 500 l -86.6,-50 -86.6,50 m 173.2,0 v 100 l 86.6,50 86.6,-50 V 500 l -86.6,-50 -86.6,50 m 173.2,0 v 100 l 86.6,50 86.6,-50 V 500 l -86.6,-50 -86.6,50 m 173.2,0 v 100 l 86.6,50 86.6,-50 V 500 l -86.6,-50 -86.6,50 m 173.2,0 v 100 l 86.6,50 86.6,-50 V 500 l -86.6,-50 -86.6,50 m 173.2,0 v 100 l 86.6,50 86.6,-50 V 500 l -86.6,-50 -86.6,50"
       style="fill:none;stroke:#000000;stroke-width:4;stroke-linecap:butt;stroke-linejoin:miter;stroke-miterlimit:10;stroke-dasharray:none;stroke-opacity:1"
       transform="matrix(0.13333333,0,0,-0.13333333,0,389.33333)" />
    <path
       id="path31"
       d="m 593,650 v 100 l 86.602,50 86.597,-50 V 650 L 679.602,600 593,650 m 173.199,0 v 100 l 86.602,50 86.597,-50 V 650 l -86.597,-50 -86.602,50 m 173.199,0 v 100 l 86.602,50 86.6,-50 V 650 l -86.6,-50 -86.602,50 m 173.202,0 v 100 l 86.6,50 86.6,-50 V 650 l -86.6,-50 -86.6,50 m 173.2,0 v 100 l 86.6,50 86.6,-50 V 650 l -86.6,-50 -86.6,50 m 173.2,0 v 100 l 86.6,50 86.6,-50 V 650 l -86.6,-50 -86.6,50 m 173.2,0 v 100 l 86.6,50 86.6,-50 V 650 l -86.6,-50 -86.6,50 m 173.2,0 v 100 l 86.6,50 86.6,-50 V 650 l -86.6,-50 -86.6,50 m 173.2,0 v 100 l 86.6,50 86.6,-50 V 650 l -86.6,-50 -86.6,50 m 173.2,0 v 100 l 86.6,50 86.6,-50 V 650 l -86.6,-50 -86.6,50 m 173.2,0 v 100 l 86.6,50 86.6,-50 V 650 l -86.6,-50 -86.6,50 m 173.2,0 v 100 l 86.6,50 86.6,-50 V 650 l -86.6,-50 -86.6,50"
       style="fill:none;stroke:#000000;stroke-width:4;stroke-linecap:butt;stroke-linejoin:miter;stroke-miterlimit:10;stroke-dasharray:none;stroke-opacity:1"
       transform="matrix(0.13333333,0,0,-0.13333333,0,389.33333)" />
    <path
       id="path32"
       d="m 679.602,800 v 100 l 86.597,50 86.602,-50 V 800 l -86.602,-50 -86.597,50 m 173.199,0 V 900 L 939.398,950 1026,900 V 800 l -86.602,-50 -86.597,50 M 1026,800 v 100 l 86.6,50 86.6,-50 V 800 l -86.6,-50 -86.6,50 m 173.2,0 v 100 l 86.6,50 86.6,-50 V 800 l -86.6,-50 -86.6,50 m 173.2,0 v 100 l 86.6,50 86.6,-50 V 800 l -86.6,-50 -86.6,50 m 173.2,0 v 100 l 86.6,50 86.6,-50 V 800 l -86.6,-50 -86.6,50 m 173.2,0 v 100 l 86.6,50 86.6,-50 V 800 l -86.6,-50 -86.6,50 m 173.2,0 v 100 l 86.6,50 86.6,-50 V 800 l -86.6,-50 -86.6,50 m 173.2,0 v 100 l 86.6,50 86.6,-50 V 800 l -86.6,-50 -86.6,50 m 173.2,0 v 100 l 86.6,50 86.6,-50 V 800 l -86.6,-50 -86.6,50 m 173.2,0 v 100 l 86.6,50 86.6,-50 V 800 l -86.6,-50 -86.6,50"
       style="fill:none;stroke:#000000;stroke-width:4;stroke-linecap:butt;stroke-linejoin:miter;stroke-miterlimit:10;stroke-dasharray:none;stroke-opacity:1"
       transform="matrix(0.13333333,0,0,-0.13333333,0,389.33333)" />
    <path
       id="path33"
       d="m 766.199,950 v 100 l 86.602,50 86.597,-50 V 950 l -86.597,-50 -86.602,50 m 173.199,0 v 100 l 86.602,50 86.6,-50 V 950 l -86.6,-50 -86.602,50 m 173.202,0 v 100 l 86.6,50 86.6,-50 V 950 l -86.6,-50 -86.6,50 m 173.2,0 v 100 l 86.6,50 86.6,-50 V 950 l -86.6,-50 -86.6,50 m 173.2,0 v 100 l 86.6,50 86.6,-50 V 950 l -86.6,-50 -86.6,50 m 173.2,0 v 100 l 86.6,50 86.6,-50 V 950 l -86.6,-50 -86.6,50 m 173.2,0 v 100 l 86.6,50 86.6,-50 V 950 l -86.6,-50 -86.6,50 m 173.2,0 v 100 l 86.6,50 86.6,-50 V 950 l -86.6,-50 -86.6,50 m 173.2,0 v 100 l 86.6,50 86.6,-50 V 950 l -86.6,-50 -86.6,50 m 173.2,0 v 100 l 86.6,50 86.6,-50 V 950 l -86.6,-50 -86.6,50"
       style="fill:none;stroke:#000000;stroke-width:4;stroke-linecap:butt;stroke-linejoin:miter;stroke-miterlimit:10;stroke-dasharray:none;stroke-opacity:1"
       transform="matrix(0.13333333,0,0,-0.13333333,0,389.33333)" />
    <path
       id="path34"
       d="m 852.801,1100 v 100 l 86.597,50 86.602,-50 v -100 l -86.602,-50 -86.597,50 m 173.199,0 v 100 l 86.6,50 86.6,-50 v -100 l -86.6,-50 -86.6,50 m 173.2,0 v 100 l 86.6,50 86.6,-50 v -100 l -86.6,-50 -86.6,50 m 173.2,0 v 100 l 86.6,50 86.6,-50 v -100 l -86.6,-50 -86.6,50 m 173.2,0 v 100 l 86.6,50 86.6,-50 v -100 l -86.6,-50 -86.6,50 m 173.2,0 v 100 l 86.6,50 86.6,-50 v -100 l -86.6,-50 -86.6,50 m 173.2,0 v 100 l 86.6,50 86.6,-50 v -100 l -86.6,-50 -86.6,50 m 173.2,0 v 100 l 86.6,50 86.6,-50 v -100 l -86.6,-50 -86.6,50 m 173.2,0 v 100 l 86.6,50 86.6,-50 v -100 l -86.6,-50 -86.6,50"
       style="fill:none;stroke:#000000;stroke-width:4;stroke-linecap:butt;stroke-linejoin:miter;stroke-miterlimit:10;stroke-dasharray:none;stroke-opacity:1"
       transform="matrix(0.13333333,0,0,-0.13333333,0,389.33333)" />
    <path
       id="path35"
       d="m 939.398,1250 v 100 l 86.602,50 86.6,-50 v -100 l -86.6,-50 -86.602,50 m 173.202,0 v 100 l 86.6,50 86.6,-50 v -100 l -86.6,-50 -86.6,50 m 173.2,0 v 100 l 86.6,50 86.6,-50 v -100 l -86.6,-50 -86.6,50 m 173.2,0 v 100 l 86.6,50 86.6,-50 v -100 l -86.6,-50 -86.6,50 m 173.2,0 v 100 l 86.6,50 86.6,-50 v -100 l -86.6,-50 -86.6,50 m 173.2,0 v 100 l 86.6,50 86.6,-50 v -100 l -86.6,-50 -86.6,50 m 173.2,0 v 100 l 86.6,50 86.6,-50 v -100 l -86.6,-50 -86.6,50 m 173.2,0 v 100 l 86.6,50 86.6,-50 v -100 l -86.6,-50 -86.6,50"
       style="fill:none;stroke:#000000;stroke-width:4;stroke-linecap:butt;stroke-linejoin:miter;stroke-miterlimit:10;stroke-dasharray:none;stroke-opacity:1"
       transform="matrix(0.13333333,0,0,-0.13333333,0,389.33333)" />
    <path
       id="path36"
       d="m 1026,1400 v 100 l 86.6,50 86.6,-50 v -100 l -86.6,-50 -86.6,50 m 173.2,0 v 100 l 86.6,50 86.6,-50 v -100 l -86.6,-50 -86.6,50 m 173.2,0 v 100 l 86.6,50 86.6,-50 v -100 l -86.6,-50 -86.6,50 m 173.2,0 v 100 l 86.6,50 86.6,-50 v -100 l -86.6,-50 -86.6,50 m 173.2,0 v 100 l 86.6,50 86.6,-50 v -100 l -86.6,-50 -86.6,50 m 173.2,0 v 100 l 86.6,50 86.6,-50 v -100 l -86.6,-50 -86.6,50 m 173.2,0 v 100 l 86.6,50 86.6,-50 v -100 l -86.6,-50 -86.6,50"
       style="fill:none;stroke:#000000;stroke-width:4;stroke-linecap:butt;stroke-linejoin:miter;stroke-miterlimit:10;stroke-dasharray:none;stroke-opacity:1"
       transform="matrix(0.13333333,0,0,-0.13333333,0,389.33333)" />
    <path
       id="path37"
       d="m 1112.6,1550 v 100 l 86.6,50 86.6,-50 v -100 l -86.6,-50 -86.6,50 m 173.2,0 v 100 l 86.6,50 86.6,-50 v -100 l -86.6,-50 -86.6,50 m 173.2,0 v 100 l 86.6,50 86.6,-50 v -100 l -86.6,-50 -86.6,50 m 173.2,0 v 100 l 86.6,50 86.6,-50 v -100 l -86.6,-50 -86.6,50 m 173.2,0 v 100 l 86.6,50 86.6,-50 v -100 l -86.6,-50 -86.6,50 m 173.2,0 v 100 l 86.6,50 86.6,-50 v -100 l -86.6,-50 -86.6,50"
       style="fill:none;stroke:#000000;stroke-width:4;stroke-linecap:butt;stroke-linejoin:miter;stroke-miterlimit:10;stroke-dasharray:none;stroke-opacity:1"
       transform="matrix(0.13333333,0,0,-0.13333333,0,389.33333)" />
    <path
       id="path38"
       d="m 1199.2,1700 v 100 l 86.6,50 86.6,-50 v -100 l -86.6,-50 -86.6,50 m 173.2,0 v 100 l 86.6,50 86.6,-50 v -100 l -86.6,-50 -86.6,50 m 173.2,0 v 100 l 86.6,50 86.6,-50 v -100 l -86.6,-50 -86.6,50 m 173.2,0 v 100 l 86.6,50 86.6,-50 v -100 l -86.6,-50 -86.6,50 m 173.2,0 v 100 l 86.6,50 86.6,-50 v -100 l -86.6,-50 -86.6,50"
       style="fill:none;stroke:#000000;stroke-width:4;stroke-linecap:butt;stroke-linejoin:miter;stroke-miterlimit:10;stroke-dasharray:none;stroke-opacity:1"
       transform="matrix(0.13333333,0,0,-0.13333333,0,389.33333)" />
    <path
       id="path39"
       d="m 1285.8,1850 v 100 l 86.6,50 86.6,-50 v -100 l -86.6,-50 -86.6,50 m 173.2,0 v 100 l 86.6,50 86.6,-50 v -100 l -86.6,-50 -86.6,50 m 173.2,0 v 100 l 86.6,50 86.6,-50 v -100 l -86.6,-50 -86.6,50 m 173.2,0 v 100 l 86.6,50 86.6,-50 v -100 l -86.6,-50 -86.6,50"
       style="fill:none;stroke:#000000;stroke-width:4;stroke-linecap:butt;stroke-linejoin:miter;stroke-miterlimit:10;stroke-dasharray:none;stroke-opacity:1"
       transform="matrix(0.13333333,0,0,-0.13333333,0,389.33333)" />
    <path
       id="path40"
       d="m 1372.4,2000 v 100 l 86.6,50 86.6,-50 v -100 l -86.6,-50 -86.6,50 m 173.2,0 v 100 l 86.6,50 86.6,-50 v -100 l -86.6,-50 -86.6,50 m 173.2,0 v 100 l 86.6,50 86.6,-50 v -100 l -86.6,-50 -86.6,50"
       style="fill:none;stroke:#000000;stroke-width:4;stroke-linecap:butt;stroke-linejoin:miter;stroke-miterlimit:10;stroke-dasharray:none;stroke-opacity:1"
       transform="matrix(0.13333333,0,0,-0.13333333,0,389.33333)" />
    <path
       id="path41"
       d="m 1459,2150 v 100 l 86.6,50 86.6,-50 v -100 l -86.6,-50 -86.6,50 m 173.2,0 v 100 l 86.6,50 86.6,-50 v -100 l -86.6,-50 -86.6,50"
       style="fill:none;stroke:#000000;stroke-width:4;stroke-linecap:butt;stroke-linejoin:miter;stroke-miterlimit:10;stroke-dasharray:none;stroke-opacity:1"
       transform="matrix(0.13333333,0,0,-0.13333333,0,389.33333)" />
    <path
       id="path42"
       d="m 1545.6,2300 v 100 l 86.6,50 86.6,-50 v -100 l -86.6,-50 -86.6,50"
       style="fill:none;stroke:#000000;stroke-width:4;stroke-linecap:butt;stroke-linejoin:miter;stroke-miterlimit:10;stroke-dasharray:none;stroke-opacity:1"
       transform="matrix(0.13333333,0,0,-0.13333333,0,389.33333)" />
    <path
       id="path43"
       d="m 1748.8,2551.96 -60,-103.92 m 0,0 50.98,28.3 m -50.98,-28.3 -0.98,58.3"
       style="fill:none;stroke:#000000;stroke-width:10;stroke-linecap:butt;stroke-linejoin:miter;stroke-miterlimit:10;stroke-dasharray:none;stroke-opacity:1"
       transform="matrix(0.13333333,0,0,-0.13333333,0,389.33333)" />
    <text
       id="text43"
       xml:space="preserve"
       transform="matrix(1.3333333,0,-9.3333333e-8,1.3333333,233.31733,45.701333)"><tspan
         style="font-variant:normal;font-weight:normal;font-size:14px;font-family:Arial;writing-mode:lr-tb;fill:#000000;fill-opacity:1;fill-rule:nonzero;stroke:none"
         x="0"
         y="0"
         id="tspan43">0</tspan></text>
    <path
       id="path44"
       d="m 2268.4,1651.96 -60,-103.92 m 0,0 50.98,28.3 m -50.98,-28.3 -0.98,58.3"
       style="fill:none;stroke:#000000;stroke-width:10;stroke-linecap:butt;stroke-linejoin:miter;stroke-miterlimit:10;stroke-dasharray:none;stroke-opacity:1"
       transform="matrix(0.13333333,0,0,-0.13333333,0,389.33333)" />
    <text
       id="text44"
       xml:space="preserve"
       transform="matrix(1.3333333,0,-9.3333333e-8,1.3333333,302.59733,165.70133)"><tspan
         style="font-variant:normal;font-weight:normal;font-size:14px;font-family:Arial;writing-mode:lr-tb;fill:#000000;fill-opacity:1;fill-rule:nonzero;stroke:none"
         x="0"
         y="0"
         id="tspan44">4</tspan></text>
    <path
       id="path45"
       d="m 2355,1501.96 -60,-103.92 m 0,0 50.98,28.3 m -50.98,-28.3 -0.98,58.3"
       style="fill:none;stroke:#000000;stroke-width:10;stroke-linecap:butt;stroke-linejoin:miter;stroke-miterlimit:10;stroke-dasharray:none;stroke-opacity:1"
       transform="matrix(0.13333333,0,0,-0.13333333,0,389.33333)" />
    <text
       id="text45"
       xml:space="preserve"
       transform="matrix(1.3333333,0,-9.3333333e-8,1.3333333,314.144,185.70133)"><tspan
         style="font-variant:normal;font-weight:normal;font-size:14px;font-family:Arial;writing-mode:lr-tb;fill:#000000;fill-opacity:1;fill-rule:nonzero;stroke:none"
         x="0"
         y="0"
         id="tspan45">3</tspan></text>
    <path
       id="path46"
       d="m 2441.6,1351.96 -60,-103.92 m 0,0 50.98,28.3 m -50.98,-28.3 -0.98,58.3"
       style="fill:none;stroke:#000000;stroke-width:10;stroke-linecap:butt;stroke-linejoin:miter;stroke-miterlimit:10;stroke-dasharray:none;stroke-opacity:1"
       transform="matrix(0.13333333,0,0,-0.13333333,0,389.33333)" />
    <text
       id="text46"
       xml:space="preserve"
       transform="matrix(1.3333333,0,-9.3333333e-8,1.3333333,324.14133,205.70133)"><tspan
         style="font-variant:normal;font-weight:normal;font-size:14px;font-family:Arial;writing-mode:lr-tb;fill:#000000;fill-opacity:1;fill-rule:nonzero;stroke:none"
         x="0"
         y="0"
         id="tspan46">D</tspan></text>
    <path
       id="path47"
       d="m 359.801,550 h 120 m 0,0 -50,30 m 50,-30 -50,-30"
       style="fill:none;stroke:#000000;stroke-width:10;stroke-linecap:butt;stroke-linejoin:miter;stroke-miterlimit:10;stroke-dasharray:none;stroke-opacity:1"
       transform="matrix(0.13333333,0,0,-0.13333333,0,389.33333)" />
    <text
       id="text47"
       xml:space="preserve"
       transform="matrix(1.3333333,0,0,1.3333333,32.1172,321.86667)"><tspan
         style="font-variant:normal;font-weight:normal;font-size:14px;font-family:Arial;writing-mode:lr-tb;fill:#000000;fill-opacity:1;fill-rule:nonzero;stroke:none"
         x="0"
         y="0"
         id="tspan47">0</tspan></text>
    <path
       id="path48"
       d="m 792.801,1300 h 120 m 0,0 -50,30 m 50,-30 -50,-30"
       style="fill:none;stroke:#000000;stroke-width:10;stroke-linecap:butt;stroke-linejoin:miter;stroke-miterlimit:10;stroke-dasharray:none;stroke-opacity:1"
       transform="matrix(0.13333333,0,0,-0.13333333,0,389.33333)" />
    <text
       id="text48"
       xml:space="preserve"
       transform="matrix(1.3333333,0,0,1.3333333,89.850533,221.86667)"><tspan
         style="font-variant:normal;font-weight:normal;font-size:14px;font-family:Arial;writing-mode:lr-tb;fill:#000000;fill-opacity:1;fill-rule:nonzero;stroke:none"
         x="0"
         y="0"
         id="tspan48">1</tspan></text>
    <path
       id="path49"
       d="m 2008.6,198.039 -60,103.922 m 0,0 -0.98,-58.301 m 0.98,58.301 50.98,-28.301"
       style="fill:none;stroke:#000000;stroke-width:10;stroke-linecap:butt;stroke-linejoin:miter;stroke-miterlimit:10;stroke-dasharray:none;stroke-opacity:1"
       transform="matrix(0.13333333,0,0,-0.13333333,0,389.33333)" />
    <text
       id="text49"
       xml:space="preserve"
       transform="matrix(1.3333333,-9.3333333e-8,0,1.3333333,267.95733,378.03229)"><tspan
         style="font-variant:normal;font-weight:normal;font-size:14px;font-family:Arial;writing-mode:lr-tb;fill:#000000;fill-opacity:1;fill-rule:nonzero;stroke:none"
         x="0"
         y="0"
         id="tspan49">4</tspan></text>
    <path
       id="path50"
       d="m 2874.6,198.039 -60,103.922 m 0,0 -0.98,-58.301 m 0.98,58.301 50.98,-28.301"
       style="fill:none;stroke:#000000;stroke-width:10;stroke-linecap:butt;stroke-linejoin:miter;stroke-miterlimit:10;stroke-dasharray:none;stroke-opacity:1"
       transform="matrix(0.13333333,0,0,-0.13333333,0,389.33333)" />
    <text
       id="text50"
       xml:space="preserve"
       transform="matrix(1.3333333,-9.3333333e-8,0,1.3333333,383.424,378.03229)"><tspan
         style="font-variant:normal;font-weight:normal;font-size:14px;font-family:Arial;writing-mode:lr-tb;fill:#000000;fill-opacity:1;fill-rule:nonzero;stroke:none"
         x="0"
         y="0"
         id="tspan50">1</tspan></text>
    <path
       id="path51"
       d="m 1315.8,1398.04 c 28.7,16.57 38.53,53.26 21.96,81.96 -16.56,28.7 -53.26,38.53 -81.96,21.96 -28.69,-16.57 -38.53,-53.26 -21.96,-81.96 16.57,-28.7 53.27,-38.53 81.96,-21.96"
       style="fill:#000000;fill-opacity:1;fill-rule:nonzero;stroke:none"
       transform="matrix(0.13333333,0,0,-0.13333333,0,389.33333)" />
    <path
       id="path52"
       d="m 1233.84,1420 35,-60.62 103.92,60 -35,60.62 z"
       style="fill:#000000;fill-opacity:1;fill-rule:nonzero;stroke:none"
       transform="matrix(0.13333333,0,0,-0.13333333,0,389.33333)" />
    <path
       id="path53"
       d="m 1285.44,1330.63 70,-121.25 103.92,60 -70,121.25 z"
       style="fill:#000000;fill-opacity:1;fill-rule:nonzero;stroke:none"
       transform="matrix(0.13333333,0,0,-0.13333333,0,389.33333)" />
    <path
       id="path54"
       d="m 1489,1098.05 c 28.7,16.56 38.53,53.26 21.96,81.96 -16.57,28.69 -53.26,38.53 -81.96,21.96 -28.7,-16.57 -38.53,-53.27 -21.96,-81.96 16.57,-28.7 53.26,-38.53 81.96,-21.96"
       style="fill:#000000;fill-opacity:1;fill-rule:nonzero;stroke:none"
       transform="matrix(0.13333333,0,0,-0.13333333,0,389.33333)" />
    <path
       id="path55"
       d="m 1372.04,1180.63 35,-60.62 103.92,60 -35,60.62 z"
       style="fill:#000000;fill-opacity:1;fill-rule:nonzero;stroke:none"
       transform="matrix(0.13333333,0,0,-0.13333333,0,389.33333)" />
    <text
       id="text55"
       xml:space="preserve"
       transform="matrix(1.3333333,-9.3333333e-8,0,1.3333333,188.65333,239.732)"><tspan
         style="font-variant:normal;font-weight:normal;font-size:10px;font-family:Arial;writing-mode:lr-tb;fill:#ffffff;fill-opacity:1;fill-rule:nonzero;stroke:none"
         x="0"
         y="0"
         id="tspan55">R</tspan><tspan
         style="font-variant:normal;font-weight:normal;font-size:10px;font-family:Arial;writing-mode:lr-tb;fill:#ffffff;fill-opacity:1;fill-rule:nonzero;stroke:none"
         x="-7.8597698"
         y="-14.4"
         id="tspan56">A</tspan><tspan
         style="font-variant:normal;font-weight:normal;font-size:10px;font-family:Arial;writing-mode:lr-tb;fill:#ffffff;fill-opacity:1;fill-rule:nonzero;stroke:none"
         x="-15.44493"
         y="-28.799999"
         id="tspan57">P</tspan></text>
    <path
       id="path57"
       d="m 2035.2,1051.97 c -28.7,-16.57 -38.53,-53.267 -21.96,-81.962 16.56,-28.695 53.26,-38.528 81.96,-21.961 28.69,16.566 38.53,53.263 21.96,81.963 -16.57,28.69 -53.27,38.53 -81.96,21.96"
       style="fill:#000000;fill-opacity:1;fill-rule:nonzero;stroke:none"
       transform="matrix(0.13333333,0,0,-0.13333333,0,389.33333)" />
    <path
       id="path58"
       d="m 2117.16,1030.01 -35,60.62 -103.92,-60 35,-60.622 z"
       style="fill:#000000;fill-opacity:1;fill-rule:nonzero;stroke:none"
       transform="matrix(0.13333333,0,0,-0.13333333,0,389.33333)" />
    <path
       id="path59"
       d="m 1948.6,1201.96 c -28.69,-16.56 -38.53,-53.26 -21.96,-81.96 16.57,-28.69 53.27,-38.52 81.96,-21.96 28.7,16.57 38.53,53.27 21.96,81.96 -16.56,28.7 -53.26,38.53 -81.96,21.96"
       style="fill:#000000;fill-opacity:1;fill-rule:nonzero;stroke:none"
       transform="matrix(0.13333333,0,0,-0.13333333,0,389.33333)" />
    <path
       id="path60"
       d="m 2065.56,1119.38 -35,60.62 -103.92,-60 35,-60.62 z"
       style="fill:#000000;fill-opacity:1;fill-rule:nonzero;stroke:none"
       transform="matrix(0.13333333,0,0,-0.13333333,0,389.33333)" />
    <text
       id="text60"
       xml:space="preserve"
       transform="matrix(1.3333333,-9.3333333e-8,0,1.3333333,260.43333,241.33333)"><tspan
         style="font-variant:normal;font-weight:normal;font-size:10px;font-family:Arial;writing-mode:lr-tb;fill:#ffffff;fill-opacity:1;fill-rule:nonzero;stroke:none"
         x="0"
         y="0"
         id="tspan60">S</tspan><tspan
         style="font-variant:normal;font-weight:normal;font-size:10px;font-family:Arial;writing-mode:lr-tb;fill:#ffffff;fill-opacity:1;fill-rule:nonzero;stroke:none"
         x="6.7851601"
         y="13.8"
         id="tspan61">U</tspan></text>
    <path
       id="path61"
       d="m 1778.8,700.004 c 0,33.137 -26.86,60 -60,60 -33.14,0 -60,-26.863 -60,-60 0,-33.137 26.86,-60 60,-60 33.14,0 60,26.863 60,60"
       style="fill:#000000;fill-opacity:1;fill-rule:nonzero;stroke:none"
       transform="matrix(0.13333333,0,0,-0.13333333,0,389.33333)" />
    <path
       id="path62"
       d="m 1718.8,640.004 h 70 v 120 h -70 z"
       style="fill:#000000;fill-opacity:1;fill-rule:nonzero;stroke:none"
       transform="matrix(0.13333333,0,0,-0.13333333,0,389.33333)" />
    <text
       id="text62"
       xml:space="preserve"
       transform="matrix(1.3333333,-9.3333333e-8,0,1.3333333,225.79333,300.5328)"><tspan
         style="font-variant:normal;font-weight:normal;font-size:10px;font-family:Arial;writing-mode:lr-tb;fill:#ffffff;fill-opacity:1;fill-rule:nonzero;stroke:none"
         x="0"
         y="0"
         id="tspan62">E</tspan></text>
    <path
       id="path63"
       d="m 1952,700.004 c 0,33.137 -26.86,60 -60,60 -33.14,0 -60,-26.863 -60,-60 0,-33.137 26.86,-60 60,-60 33.14,0 60,26.863 60,60"
       style="fill:#000000;fill-opacity:1;fill-rule:nonzero;stroke:none"
       transform="matrix(0.13333333,0,0,-0.13333333,0,389.33333)" />
    <path
       id="path64"
       d="m 1822,640.004 h 70 v 120 h -70 z"
       style="fill:#000000;fill-opacity:1;fill-rule:nonzero;stroke:none"
       transform="matrix(0.13333333,0,0,-0.13333333,0,389.33333)" />
    <text
       id="text64"
       xml:space="preserve"
       transform="matrix(1.3333333,-9.3333333e-8,0,1.3333333,246.38667,300.5328)"><tspan
         style="font-variant:normal;font-weight:normal;font-size:10px;font-family:Arial;writing-mode:lr-tb;fill:#ffffff;fill-opacity:1;fill-rule:nonzero;stroke:none"
         x="0"
         y="0"
         id="tspan64">N</tspan></text>
    <path
       id="path65"
       d="m 1605.6,400.004 c 0,33.137 -26.86,60 -60,60 -33.14,0 -60,-26.863 -60,-60 0,-33.137 26.86,-60 60,-60 33.14,0 60,26.863 60,60"
       style="fill:#000000;fill-opacity:1;fill-rule:nonzero;stroke:none"
       transform="matrix(0.13333333,0,0,-0.13333333,0,389.33333)" />
    <path
       id="path66"
       d="m 1545.6,340.004 h 70 v 120 h -70 z"
       style="fill:#000000;fill-opacity:1;fill-rule:nonzero;stroke:none"
       transform="matrix(0.13333333,0,0,-0.13333333,0,389.33333)" />
    <text
       id="text66"
       xml:space="preserve"
       transform="matrix(1.3333333,-9.3333333e-8,0,1.3333333,202.7,340.5328)"><tspan
         style="font-variant:normal;font-weight:normal;font-size:10px;font-family:Arial;writing-mode:lr-tb;fill:#ffffff;fill-opacity:1;fill-rule:nonzero;stroke:none"
         x="0"
         y="0"
         id="tspan66">S</tspan></text>
    <path
       id="path67"
       d="m 1648.8,340.004 h 140 v 120 h -140 z"
       style="fill:#000000;fill-opacity:1;fill-rule:nonzero;stroke:none"
       transform="matrix(0.13333333,0,0,-0.13333333,0,389.33333)" />
    <text
       id="text67"
       xml:space="preserve"
       transform="matrix(1.3333333,-9.3333333e-8,0,1.3333333,227.32,340.5328)"><tspan
         style="font-variant:normal;font-weight:normal;font-size:10px;font-family:Arial;writing-mode:lr-tb;fill:#ffffff;fill-opacity:1;fill-rule:nonzero;stroke:none"
         x="0"
         y="0"
         id="tspan67">I</tspan></text>
    <path
       id="path68"
       d="m 1952,400.004 c 0,33.137 -26.86,60 -60,60 -33.14,0 -60,-26.863 -60,-60 0,-33.137 26.86,-60 60,-60 33.14,0 60,26.863 60,60"
       style="fill:#000000;fill-opacity:1;fill-rule:nonzero;stroke:none"
       transform="matrix(0.13333333,0,0,-0.13333333,0,389.33333)" />
    <path
       id="path69"
       d="m 1822,340.004 h 70 v 120 h -70 z"
       style="fill:#000000;fill-opacity:1;fill-rule:nonzero;stroke:none"
       transform="matrix(0.13333333,0,0,-0.13333333,0,389.33333)" />
    <text
       id="text69"
       xml:space="preserve"
       transform="matrix(1.3333333,-9.3333333e-8,0,1.3333333,246.38667,340.5328)"><tspan
         style="font-variant:normal;font-weight:normal;font-size:10px;font-family:Arial;writing-mode:lr-tb;fill:#ffffff;fill-opacity:1;fill-rule:nonzero;stroke:none"
         x="0"
         y="0"
         id="tspan69">D</tspan></text>
    <path
       id="path70"
       d="m 2298.4,400.004 c 0,33.137 -26.86,60 -60,60 -33.14,0 -60,-26.863 -60,-60 0,-33.137 26.86,-60 60,-60 33.14,0 60,26.863 60,60"
       style="fill:#000000;fill-opacity:1;fill-rule:nonzero;stroke:none"
       transform="matrix(0.13333333,0,0,-0.13333333,0,389.33333)" />
    <text
       id="text70"
       xml:space="preserve"
       transform="matrix(1.3333333,-9.3333333e-8,0,1.3333333,294.00667,340.5328)"><tspan
         style="font-variant:normal;font-weight:normal;font-size:10px;font-family:Arial;writing-mode:lr-tb;fill:#ffffff;fill-opacity:1;fill-rule:nonzero;stroke:none"
         x="0"
         y="0"
         id="tspan70">E</tspan></text>
    <path
       id="path71"
       d="m 2385,850.004 c 0,33.137 -26.86,60 -60,60 -33.14,0 -60,-26.863 -60,-60 0,-33.137 26.86,-60 60,-60 33.14,0 60,26.863 60,60"
       style="fill:#000000;fill-opacity:1;fill-rule:nonzero;stroke:none"
       transform="matrix(0.13333333,0,0,-0.13333333,0,389.33333)" />
    <text
       id="text71"
       xml:space="preserve"
       transform="matrix(1.3333333,-9.3333333e-8,0,1.3333333,304.44667,280.5328)"><tspan
         style="font-variant:normal;font-weight:normal;font-size:10px;font-family:Arial;writing-mode:lr-tb;fill:#ffffff;fill-opacity:1;fill-rule:nonzero;stroke:none"
         x="0"
         y="0"
         id="tspan71">M</tspan></text>
    <path
       id="path72"
       d="m 2211.8,1450 c 0,33.14 -26.86,60 -60,60 -33.14,0 -60,-26.86 -60,-60 0,-33.13 26.86,-60 60,-60 33.14,0 60,26.87 60,60"
       style="fill:#000000;fill-opacity:1;fill-rule:nonzero;stroke:none"
       transform="matrix(0.13333333,0,0,-0.13333333,0,389.33333)" />
    <text
       id="text72"
       xml:space="preserve"
       transform="matrix(1.3333333,-9.3333333e-8,0,1.3333333,282.09333,200.53333)"><tspan
         style="font-variant:normal;font-weight:normal;font-size:10px;font-family:Arial;writing-mode:lr-tb;fill:#ffffff;fill-opacity:1;fill-rule:nonzero;stroke:none"
         x="0"
         y="0"
         id="tspan72">R</tspan></text>
    <path
       id="path73"
       d="m 4099.2,800 v 100 l 86.6,50 86.6,-50 V 800 l -86.6,-50 -86.6,50 m 173.2,0 v 100 l 86.6,50 86.6,-50 V 800 l -86.6,-50 -86.6,50 m 173.2,0 v 100 l 86.6,50 86.6,-50 V 800 l -86.6,-50 -86.6,50 m 173.2,0 v 100 l 86.6,50 86.6,-50 V 800 l -86.6,-50 -86.6,50 m 173.2,0 v 100 l 86.6,50 86.6,-50 V 800 l -86.6,-50 -86.6,50"
       style="fill:#b2b2b2;fill-opacity:1;fill-rule:nonzero;stroke:none"
       transform="matrix(0.13333333,0,0,-0.13333333,0,389.33333)" />
    <path
       id="path74"
       d="m 4185.8,950 v 100 l 86.6,50 86.6,-50 V 950 l -86.6,-50 -86.6,50 m 173.2,0 v 100 l 86.6,50 86.6,-50 V 950 l -86.6,-50 -86.6,50 m 173.2,0 v 100 l 86.6,50 86.6,-50 V 950 l -86.6,-50 -86.6,50 m 173.2,0 v 100 l 86.6,50 86.6,-50 V 950 l -86.6,-50 -86.6,50"
       style="fill:#b2b2b2;fill-opacity:1;fill-rule:nonzero;stroke:none"
       transform="matrix(0.13333333,0,0,-0.13333333,0,389.33333)" />
    <path
       id="path75"
       d="m 4272.4,1100 v 100 l 86.6,50 86.6,-50 v -100 l -86.6,-50 -86.6,50 m 173.2,0 v 100 l 86.6,50 86.6,-50 v -100 l -86.6,-50 -86.6,50 m 173.2,0 v 100 l 86.6,50 86.6,-50 v -100 l -86.6,-50 -86.6,50"
       style="fill:#b2b2b2;fill-opacity:1;fill-rule:nonzero;stroke:none"
       transform="matrix(0.13333333,0,0,-0.13333333,0,389.33333)" />
    <path
       id="path76"
       d="m 4359,1250 v 100 l 86.6,50 86.6,-50 v -100 l -86.6,-50 -86.6,50 m 173.2,0 v 100 l 86.6,50 86.6,-50 v -100 l -86.6,-50 -86.6,50"
       style="fill:#b2b2b2;fill-opacity:1;fill-rule:nonzero;stroke:none"
       transform="matrix(0.13333333,0,0,-0.13333333,0,389.33333)" />
    <path
       id="path77"
       d="m 4445.6,1400 v 100 l 86.6,50 86.6,-50 v -100 l -86.6,-50 -86.6,50"
       style="fill:#b2b2b2;fill-opacity:1;fill-rule:nonzero;stroke:none"
       transform="matrix(0.13333333,0,0,-0.13333333,0,389.33333)" />
    <path
       id="path78"
       d="m 3319.8,350 v 100 l 86.6,50 86.6,-50 V 350 l -86.6,-50 -86.6,50 m 173.2,0 v 100 l 86.6,50 86.6,-50 V 350 l -86.6,-50 -86.6,50 m 173.2,0 v 100 l 86.6,50 86.6,-50 V 350 l -86.6,-50 -86.6,50 m 173.2,0 v 100 l 86.6,50 86.6,-50 V 350 l -86.6,-50 -86.6,50 m 173.2,0 v 100 l 86.6,50 86.6,-50 V 350 l -86.6,-50 -86.6,50 m 173.2,0 v 100 l 86.6,50 86.6,-50 V 350 l -86.6,-50 -86.6,50 m 173.2,0 v 100 l 86.6,50 86.6,-50 V 350 l -86.6,-50 -86.6,50 m 173.2,0 v 100 l 86.6,50 86.6,-50 V 350 l -86.6,-50 -86.6,50 m 173.2,0 v 100 l 86.6,50 86.6,-50 V 350 l -86.6,-50 -86.6,50 m 173.2,0 v 100 l 86.6,50 86.6,-50 V 350 l -86.6,-50 -86.6,50 m 173.2,0 v 100 l 86.6,50 86.6,-50 V 350 l -86.6,-50 -86.6,50 m 173.2,0 v 100 l 86.6,50 86.6,-50 V 350 l -86.6,-50 -86.6,50 m 173.2,0 v 100 l 86.6,50 86.6,-50 V 350 l -86.6,-50 -86.6,50 m 173.2,0 v 100 l 86.6,50 86.6,-50 V 350 l -86.6,-50 -86.6,50"
       style="fill:none;stroke:#000000;stroke-width:4;stroke-linecap:butt;stroke-linejoin:miter;stroke-miterlimit:10;stroke-dasharray:none;stroke-opacity:1"
       transform="matrix(0.13333333,0,0,-0.13333333,0,389.33333)" />
    <path
       id="path79"
       d="m 3406.4,500 v 100 l 86.6,50 86.6,-50 V 500 l -86.6,-50 -86.6,50 m 173.2,0 v 100 l 86.6,50 86.6,-50 V 500 l -86.6,-50 -86.6,50 m 173.2,0 v 100 l 86.6,50 86.6,-50 V 500 l -86.6,-50 -86.6,50 m 173.2,0 v 100 l 86.6,50 86.6,-50 V 500 l -86.6,-50 -86.6,50 m 173.2,0 v 100 l 86.6,50 86.6,-50 V 500 l -86.6,-50 -86.6,50 m 173.2,0 v 100 l 86.6,50 86.6,-50 V 500 l -86.6,-50 -86.6,50 m 173.2,0 v 100 l 86.6,50 86.6,-50 V 500 l -86.6,-50 -86.6,50 m 173.2,0 v 100 l 86.6,50 86.6,-50 V 500 l -86.6,-50 -86.6,50 m 173.2,0 v 100 l 86.6,50 86.6,-50 V 500 l -86.6,-50 -86.6,50 m 173.2,0 v 100 l 86.6,50 86.6,-50 V 500 l -86.6,-50 -86.6,50 m 173.2,0 v 100 l 86.6,50 86.6,-50 V 500 l -86.6,-50 -86.6,50 m 173.2,0 v 100 l 86.6,50 86.6,-50 V 500 l -86.6,-50 -86.6,50 m 173.2,0 v 100 l 86.6,50 86.6,-50 V 500 l -86.6,-50 -86.6,50"
       style="fill:none;stroke:#000000;stroke-width:4;stroke-linecap:butt;stroke-linejoin:miter;stroke-miterlimit:10;stroke-dasharray:none;stroke-opacity:1"
       transform="matrix(0.13333333,0,0,-0.13333333,0,389.33333)" />
    <path
       id="path80"
       d="m 3493,650 v 100 l 86.6,50 86.6,-50 V 650 l -86.6,-50 -86.6,50 m 173.2,0 v 100 l 86.6,50 86.6,-50 V 650 l -86.6,-50 -86.6,50 m 173.2,0 v 100 l 86.6,50 86.6,-50 V 650 l -86.6,-50 -86.6,50 m 173.2,0 v 100 l 86.6,50 86.6,-50 V 650 l -86.6,-50 -86.6,50 m 173.2,0 v 100 l 86.6,50 86.6,-50 V 650 l -86.6,-50 -86.6,50 m 173.2,0 v 100 l 86.6,50 86.6,-50 V 650 l -86.6,-50 -86.6,50 m 173.2,0 v 100 l 86.6,50 86.6,-50 V 650 l -86.6,-50 -86.6,50 m 173.2,0 v 100 l 86.6,50 86.6,-50 V 650 l -86.6,-50 -86.6,50 m 173.2,0 v 100 l 86.6,50 86.6,-50 V 650 l -86.6,-50 -86.6,50 m 173.2,0 v 100 l 86.6,50 86.6,-50 V 650 l -86.6,-50 -86.6,50 m 173.2,0 v 100 l 86.6,50 86.6,-50 V 650 l -86.6,-50 -86.6,50 m 173.2,0 v 100 l 86.6,50 86.6,-50 V 650 l -86.6,-50 -86.6,50"
       style="fill:none;stroke:#000000;stroke-width:4;stroke-linecap:butt;stroke-linejoin:miter;stroke-miterlimit:10;stroke-dasharray:none;stroke-opacity:1"
       transform="matrix(0.13333333,0,0,-0.13333333,0,389.33333)" />
    <path
       id="path81"
       d="m 3579.6,800 v 100 l 86.6,50 86.6,-50 V 800 l -86.6,-50 -86.6,50 m 173.2,0 v 100 l 86.6,50 86.6,-50 V 800 l -86.6,-50 -86.6,50 m 173.2,0 v 100 l 86.6,50 86.6,-50 V 800 l -86.6,-50 -86.6,50 m 173.2,0 v 100 l 86.6,50 86.6,-50 V 800 l -86.6,-50 -86.6,50 m 173.2,0 v 100 l 86.6,50 86.6,-50 V 800 l -86.6,-50 -86.6,50 m 173.2,0 v 100 l 86.6,50 86.6,-50 V 800 l -86.6,-50 -86.6,50 m 173.2,0 v 100 l 86.6,50 86.6,-50 V 800 l -86.6,-50 -86.6,50 m 173.2,0 v 100 l 86.6,50 86.6,-50 V 800 l -86.6,-50 -86.6,50 m 173.2,0 v 100 l 86.6,50 86.6,-50 V 800 l -86.6,-50 -86.6,50 m 173.2,0 v 100 l 86.6,50 86.6,-50 V 800 l -86.6,-50 -86.6,50 m 173.2,0 v 100 l 86.6,50 86.6,-50 V 800 l -86.6,-50 -86.6,50"
       style="fill:none;stroke:#000000;stroke-width:4;stroke-linecap:butt;stroke-linejoin:miter;stroke-miterlimit:10;stroke-dasharray:none;stroke-opacity:1"
       transform="matrix(0.13333333,0,0,-0.13333333,0,389.33333)" />
    <path
       id="path82"
       d="m 3666.2,950 v 100 l 86.6,50 86.6,-50 V 950 l -86.6,-50 -86.6,50 m 173.2,0 v 100 l 86.6,50 86.6,-50 V 950 l -86.6,-50 -86.6,50 m 173.2,0 v 100 l 86.6,50 86.6,-50 V 950 l -86.6,-50 -86.6,50 m 173.2,0 v 100 l 86.6,50 86.6,-50 V 950 l -86.6,-50 -86.6,50 m 173.2,0 v 100 l 86.6,50 86.6,-50 V 950 l -86.6,-50 -86.6,50 m 173.2,0 v 100 l 86.6,50 86.6,-50 V 950 l -86.6,-50 -86.6,50 m 173.2,0 v 100 l 86.6,50 86.6,-50 V 950 l -86.6,-50 -86.6,50 m 173.2,0 v 100 l 86.6,50 86.6,-50 V 950 l -86.6,-50 -86.6,50 m 173.2,0 v 100 l 86.6,50 86.6,-50 V 950 l -86.6,-50 -86.6,50 m 173.2,0 v 100 l 86.6,50 86.6,-50 V 950 l -86.6,-50 -86.6,50"
       style="fill:none;stroke:#000000;stroke-width:4;stroke-linecap:butt;stroke-linejoin:miter;stroke-miterlimit:10;stroke-dasharray:none;stroke-opacity:1"
       transform="matrix(0.13333333,0,0,-0.13333333,0,389.33333)" />
    <path
       id="path83"
       d="m 3752.8,1100 v 100 l 86.6,50 86.6,-50 v -100 l -86.6,-50 -86.6,50 m 173.2,0 v 100 l 86.6,50 86.6,-50 v -100 l -86.6,-50 -86.6,50 m 173.2,0 v 100 l 86.6,50 86.6,-50 v -100 l -86.6,-50 -86.6,50 m 173.2,0 v 100 l 86.6,50 86.6,-50 v -100 l -86.6,-50 -86.6,50 m 173.2,0 v 100 l 86.6,50 86.6,-50 v -100 l -86.6,-50 -86.6,50 m 173.2,0 v 100 l 86.6,50 86.6,-50 v -100 l -86.6,-50 -86.6,50 m 173.2,0 v 100 l 86.6,50 86.6,-50 v -100 l -86.6,-50 -86.6,50 m 173.2,0 v 100 l 86.6,50 86.6,-50 v -100 l -86.6,-50 -86.6,50 m 173.2,0 v 100 l 86.6,50 86.6,-50 v -100 l -86.6,-50 -86.6,50"
       style="fill:none;stroke:#000000;stroke-width:4;stroke-linecap:butt;stroke-linejoin:miter;stroke-miterlimit:10;stroke-dasharray:none;stroke-opacity:1"
       transform="matrix(0.13333333,0,0,-0.13333333,0,389.33333)" />
    <path
       id="path84"
       d="m 3839.4,1250 v 100 l 86.6,50 86.6,-50 v -100 l -86.6,-50 -86.6,50 m 173.2,0 v 100 l 86.6,50 86.6,-50 v -100 l -86.6,-50 -86.6,50 m 173.2,0 v 100 l 86.6,50 86.6,-50 v -100 l -86.6,-50 -86.6,50 m 173.2,0 v 100 l 86.6,50 86.6,-50 v -100 l -86.6,-50 -86.6,50 m 173.2,0 v 100 l 86.6,50 86.6,-50 v -100 l -86.6,-50 -86.6,50 m 173.2,0 v 100 l 86.6,50 86.6,-50 v -100 l -86.6,-50 -86.6,50 m 173.2,0 v 100 l 86.6,50 86.6,-50 v -100 l -86.6,-50 -86.6,50 m 173.2,0 v 100 l 86.6,50 86.6,-50 v -100 l -86.6,-50 -86.6,50"
       style="fill:none;stroke:#000000;stroke-width:4;stroke-linecap:butt;stroke-linejoin:miter;stroke-miterlimit:10;stroke-dasharray:none;stroke-opacity:1"
       transform="matrix(0.13333333,0,0,-0.13333333,0,389.33333)" />
    <path
       id="path85"
       d="m 3926,1400 v 100 l 86.6,50 86.6,-50 v -100 l -86.6,-50 -86.6,50 m 173.2,0 v 100 l 86.6,50 86.6,-50 v -100 l -86.6,-50 -86.6,50 m 173.2,0 v 100 l 86.6,50 86.6,-50 v -100 l -86.6,-50 -86.6,50 m 173.2,0 v 100 l 86.6,50 86.6,-50 v -100 l -86.6,-50 -86.6,50 m 173.2,0 v 100 l 86.6,50 86.6,-50 v -100 l -86.6,-50 -86.6,50 m 173.2,0 v 100 l 86.6,50 86.6,-50 v -100 l -86.6,-50 -86.6,50 m 173.2,0 v 100 l 86.6,50 86.6,-50 v -100 l -86.6,-50 -86.6,50"
       style="fill:none;stroke:#000000;stroke-width:4;stroke-linecap:butt;stroke-linejoin:miter;stroke-miterlimit:10;stroke-dasharray:none;stroke-opacity:1"
       transform="matrix(0.13333333,0,0,-0.13333333,0,389.33333)" />
    <path
       id="path86"
       d="m 4012.6,1550 v 100 l 86.6,50 86.6,-50 v -100 l -86.6,-50 -86.6,50 m 173.2,0 v 100 l 86.6,50 86.6,-50 v -100 l -86.6,-50 -86.6,50 m 173.2,0 v 100 l 86.6,50 86.6,-50 v -100 l -86.6,-50 -86.6,50 m 173.2,0 v 100 l 86.6,50 86.6,-50 v -100 l -86.6,-50 -86.6,50 m 173.2,0 v 100 l 86.6,50 86.6,-50 v -100 l -86.6,-50 -86.6,50 m 173.2,0 v 100 l 86.6,50 86.6,-50 v -100 l -86.6,-50 -86.6,50"
       style="fill:none;stroke:#000000;stroke-width:4;stroke-linecap:butt;stroke-linejoin:miter;stroke-miterlimit:10;stroke-dasharray:none;stroke-opacity:1"
       transform="matrix(0.13333333,0,0,-0.13333333,0,389.33333)" />
    <path
       id="path87"
       d="m 4099.2,1700 v 100 l 86.6,50 86.6,-50 v -100 l -86.6,-50 -86.6,50 m 173.2,0 v 100 l 86.6,50 86.6,-50 v -100 l -86.6,-50 -86.6,50 m 173.2,0 v 100 l 86.6,50 86.6,-50 v -100 l -86.6,-50 -86.6,50 m 173.2,0 v 100 l 86.6,50 86.6,-50 v -100 l -86.6,-50 -86.6,50 m 173.2,0 v 100 l 86.6,50 86.6,-50 v -100 l -86.6,-50 -86.6,50"
       style="fill:none;stroke:#000000;stroke-width:4;stroke-linecap:butt;stroke-linejoin:miter;stroke-miterlimit:10;stroke-dasharray:none;stroke-opacity:1"
       transform="matrix(0.13333333,0,0,-0.13333333,0,389.33333)" />
    <path
       id="path88"
       d="m 4185.8,1850 v 100 l 86.6,50 86.6,-50 v -100 l -86.6,-50 -86.6,50 m 173.2,0 v 100 l 86.6,50 86.6,-50 v -100 l -86.6,-50 -86.6,50 m 173.2,0 v 100 l 86.6,50 86.6,-50 v -100 l -86.6,-50 -86.6,50 m 173.2,0 v 100 l 86.6,50 86.6,-50 v -100 l -86.6,-50 -86.6,50"
       style="fill:none;stroke:#000000;stroke-width:4;stroke-linecap:butt;stroke-linejoin:miter;stroke-miterlimit:10;stroke-dasharray:none;stroke-opacity:1"
       transform="matrix(0.13333333,0,0,-0.13333333,0,389.33333)" />
    <path
       id="path89"
       d="m 4272.4,2000 v 100 l 86.6,50 86.6,-50 v -100 l -86.6,-50 -86.6,50 m 173.2,0 v 100 l 86.6,50 86.6,-50 v -100 l -86.6,-50 -86.6,50 m 173.2,0 v 100 l 86.6,50 86.6,-50 v -100 l -86.6,-50 -86.6,50"
       style="fill:none;stroke:#000000;stroke-width:4;stroke-linecap:butt;stroke-linejoin:miter;stroke-miterlimit:10;stroke-dasharray:none;stroke-opacity:1"
       transform="matrix(0.13333333,0,0,-0.13333333,0,389.33333)" />
    <path
       id="path90"
       d="m 4359,2150 v 100 l 86.6,50 86.6,-50 v -100 l -86.6,-50 -86.6,50 m 173.2,0 v 100 l 86.6,50 86.6,-50 v -100 l -86.6,-50 -86.6,50"
       style="fill:none;stroke:#000000;stroke-width:4;stroke-linecap:butt;stroke-linejoin:miter;stroke-miterlimit:10;stroke-dasharray:none;stroke-opacity:1"
       transform="matrix(0.13333333,0,0,-0.13333333,0,389.33333)" />
    <path
       id="path91"
       d="m 4445.6,2300 v 100 l 86.6,50 86.6,-50 v -100 l -86.6,-50 -86.6,50"
       style="fill:none;stroke:#000000;stroke-width:4;stroke-linecap:butt;stroke-linejoin:miter;stroke-miterlimit:10;stroke-dasharray:none;stroke-opacity:1"
       transform="matrix(0.13333333,0,0,-0.13333333,0,389.33333)" />
    <path
       id="path92"
       d="m 3866,1600 h 120 m 0,0 -50,30 m 50,-30 -50,-30"
       style="fill:none;stroke:#000000;stroke-width:10;stroke-linecap:butt;stroke-linejoin:miter;stroke-miterlimit:10;stroke-dasharray:none;stroke-opacity:1"
       transform="matrix(0.13333333,0,0,-0.13333333,0,389.33333)" />
    <text
       id="text92"
       xml:space="preserve"
       transform="matrix(1.3333333,0,0,1.3333333,498.06133,181.86667)"><tspan
         style="font-variant:normal;font-weight:normal;font-size:14px;font-family:Arial;writing-mode:lr-tb;fill:#000000;fill-opacity:1;fill-rule:nonzero;stroke:none"
         x="0"
         y="0"
         id="tspan92">R</tspan></text>
    <path
       id="path93"
       d="m 4995.2,1951.96 -60,-103.92 m 0,0 50.98,28.3 m -50.98,-28.3 -0.98,58.3"
       style="fill:none;stroke:#000000;stroke-width:10;stroke-linecap:butt;stroke-linejoin:miter;stroke-miterlimit:10;stroke-dasharray:none;stroke-opacity:1"
       transform="matrix(0.13333333,0,0,-0.13333333,0,389.33333)" />
    <text
       id="text93"
       xml:space="preserve"
       transform="matrix(1.3333333,0,-9.3333333e-8,1.3333333,665.13467,125.70133)"><tspan
         style="font-variant:normal;font-weight:normal;font-size:14px;font-family:Arial;writing-mode:lr-tb;fill:#000000;fill-opacity:1;fill-rule:nonzero;stroke:none"
         x="0"
         y="0"
         id="tspan93">S</tspan></text>
    <path
       id="path94"
       d="m 5081.8,1801.96 -60,-103.92 m 0,0 50.98,28.3 m -50.98,-28.3 -0.98,58.3"
       style="fill:none;stroke:#000000;stroke-width:10;stroke-linecap:butt;stroke-linejoin:miter;stroke-miterlimit:10;stroke-dasharray:none;stroke-opacity:1"
       transform="matrix(0.13333333,0,0,-0.13333333,0,389.33333)" />
    <text
       id="text94"
       xml:space="preserve"
       transform="matrix(1.3333333,0,-9.3333333e-8,1.3333333,676.168,145.70133)"><tspan
         style="font-variant:normal;font-weight:normal;font-size:14px;font-family:Arial;writing-mode:lr-tb;fill:#000000;fill-opacity:1;fill-rule:nonzero;stroke:none"
         x="0"
         y="0"
         id="tspan94">R</tspan></text>
    <path
       id="path95"
       d="m 5428.2,1201.96 -60,-103.92 m 0,0 50.98,28.3 m -50.98,-28.3 -0.98,58.3"
       style="fill:none;stroke:#000000;stroke-width:10;stroke-linecap:butt;stroke-linejoin:miter;stroke-miterlimit:10;stroke-dasharray:none;stroke-opacity:1"
       transform="matrix(0.13333333,0,0,-0.13333333,0,389.33333)" />
    <text
       id="text95"
       xml:space="preserve"
       transform="matrix(1.3333333,0,-9.3333333e-8,1.3333333,723.904,225.70133)"><tspan
         style="font-variant:normal;font-weight:normal;font-size:14px;font-family:Arial;writing-mode:lr-tb;fill:#000000;fill-opacity:1;fill-rule:nonzero;stroke:none"
         x="0"
         y="0"
         id="tspan95">3</tspan></text>
    <path
       id="path96"
       d="m 5514.8,1051.96 -60,-103.921 m 0,0 50.98,28.301 m -50.98,-28.301 -0.98,58.301"
       style="fill:none;stroke:#000000;stroke-width:10;stroke-linecap:butt;stroke-linejoin:miter;stroke-miterlimit:10;stroke-dasharray:none;stroke-opacity:1"
       transform="matrix(0.13333333,0,0,-0.13333333,0,389.33333)" />
    <text
       id="text96"
       xml:space="preserve"
       transform="matrix(1.3333333,0,-9.3333333e-8,1.3333333,735.45067,245.70133)"><tspan
         style="font-variant:normal;font-weight:normal;font-size:14px;font-family:Arial;writing-mode:lr-tb;fill:#000000;fill-opacity:1;fill-rule:nonzero;stroke:none"
         x="0"
         y="0"
         id="tspan96">0</tspan></text>
    <path
       id="path97"
       d="m 4215.8,198.039 -60,103.922 m 0,0 -0.98,-58.301 m 0.98,58.301 50.98,-28.301"
       style="fill:none;stroke:#000000;stroke-width:10;stroke-linecap:butt;stroke-linejoin:miter;stroke-miterlimit:10;stroke-dasharray:none;stroke-opacity:1"
       transform="matrix(0.13333333,0,0,-0.13333333,0,389.33333)" />
    <text
       id="text97"
       xml:space="preserve"
       transform="matrix(1.3333333,-9.3333333e-8,0,1.3333333,559.14267,378.03229)"><tspan
         style="font-variant:normal;font-weight:normal;font-size:14px;font-family:Arial;writing-mode:lr-tb;fill:#000000;fill-opacity:1;fill-rule:nonzero;stroke:none"
         x="0 8.5539999 12.446"
         y="0"
         id="tspan97">T!!</tspan></text>
    <path
       id="path98"
       d="m 4215.8,198.039 -60,103.922 m 0,0 -0.98,-58.301 m 0.98,58.301 50.98,-28.301"
       style="fill:none;stroke:#000000;stroke-width:10;stroke-linecap:butt;stroke-linejoin:miter;stroke-miterlimit:10;stroke-dasharray:none;stroke-opacity:1"
       transform="matrix(0.13333333,0,0,-0.13333333,0,389.33333)" />
    <text
       id="text98"
       xml:space="preserve"
       transform="matrix(1.3333333,-9.3333333e-8,0,1.3333333,559.656,378.03229)"><tspan
         style="font-variant:normal;font-weight:normal;font-size:14px;font-family:Arial;writing-mode:lr-tb;fill:#000000;fill-opacity:1;fill-rule:nonzero;stroke:none"
         x="0 7.7839999"
         y="0"
         id="tspan98">__</tspan></text>
    <path
       id="path99"
       d="m 5081.8,198.039 -60,103.922 m 0,0 -0.98,-58.301 m 0.98,58.301 50.98,-28.301"
       style="fill:none;stroke:#000000;stroke-width:10;stroke-linecap:butt;stroke-linejoin:miter;stroke-miterlimit:10;stroke-dasharray:none;stroke-opacity:1"
       transform="matrix(0.13333333,0,0,-0.13333333,0,389.33333)" />
    <text
       id="text99"
       xml:space="preserve"
       transform="matrix(1.3333333,-9.3333333e-8,0,1.3333333,676.68133,378.03229)"><tspan
         style="font-variant:normal;font-weight:normal;font-size:14px;font-family:Arial;writing-mode:lr-tb;fill:#000000;fill-opacity:1;fill-rule:nonzero;stroke:none"
         x="0"
         y="0"
         id="tspan99">E</tspan></text>
    <path
       id="path100"
       d="m 5255,198.039 -60,103.922 m 0,0 -0.98,-58.301 m 0.98,58.301 50.98,-28.301"
       style="fill:none;stroke:#000000;stroke-width:10;stroke-linecap:butt;stroke-linejoin:miter;stroke-miterlimit:10;stroke-dasharray:none;stroke-opacity:1"
       transform="matrix(0.13333333,0,0,-0.13333333,0,389.33333)" />
    <text
       id="text100"
       xml:space="preserve"
       transform="matrix(1.3333333,-9.3333333e-8,0,1.3333333,699.77467,378.03229)"><tspan
         style="font-variant:normal;font-weight:normal;font-size:14px;font-family:Arial;writing-mode:lr-tb;fill:#000000;fill-opacity:1;fill-rule:nonzero;stroke:none"
         x="0"
         y="0"
         id="tspan100">E</tspan></text>
    <path
       id="path101"
       d="m 3899.4,850 c 0,33.137 -26.86,60 -60,60 -33.14,0 -60,-26.863 -60,-60 0,-33.137 26.86,-60 60,-60 33.14,0 60,26.863 60,60"
       style="fill:#000000;fill-opacity:1;fill-rule:nonzero;stroke:none"
       transform="matrix(0.13333333,0,0,-0.13333333,0,389.33333)" />
    <path
       id="path102"
       d="m 3839.4,790 h 69.9961 V 910 H 3839.4 Z"
       style="fill:#000000;fill-opacity:1;fill-rule:nonzero;stroke:none"
       transform="matrix(0.13333333,0,0,-0.13333333,0,389.33333)" />
    <text
       id="text102"
       xml:space="preserve"
       transform="matrix(1.3333333,0,0,1.3333333,508.91333,280.53333)"><tspan
         style="font-variant:normal;font-weight:normal;font-size:10px;font-family:Arial;writing-mode:lr-tb;fill:#ffffff;fill-opacity:1;fill-rule:nonzero;stroke:none"
         x="0"
         y="0"
         id="tspan102">T</tspan></text>
    <path
       id="path103"
       d="m 3942.6,790 h 139.992 V 910 H 3942.6 Z"
       style="fill:#000000;fill-opacity:1;fill-rule:nonzero;stroke:none"
       transform="matrix(0.13333333,0,0,-0.13333333,0,389.33333)" />
    <text
       id="text103"
       xml:space="preserve"
       transform="matrix(1.3333333,0,0,1.3333333,533.16,280.53333)"><tspan
         style="font-variant:normal;font-weight:normal;font-size:10px;font-family:Arial;writing-mode:lr-tb;fill:#ffffff;fill-opacity:1;fill-rule:nonzero;stroke:none"
         x="0"
         y="0"
         id="tspan103">I</tspan></text>
    <path
       id="path104"
       d="m 4245.8,850 c 0,33.137 -26.86,60 -60,60 -33.14,0 -60,-26.863 -60,-60 0,-33.137 26.86,-60 60,-60 33.14,0 60,26.863 60,60"
       style="fill:#000000;fill-opacity:1;fill-rule:nonzero;stroke:none"
       transform="matrix(0.13333333,0,0,-0.13333333,0,389.33333)" />
    <path
       id="path105"
       d="m 4115.8,790 h 69.9961 V 910 H 4115.8 Z"
       style="fill:#000000;fill-opacity:1;fill-rule:nonzero;stroke:none"
       transform="matrix(0.13333333,0,0,-0.13333333,0,389.33333)" />
    <text
       id="text105"
       xml:space="preserve"
       transform="matrix(1.3333333,0,0,1.3333333,552.96667,280.53333)"><tspan
         style="font-variant:normal;font-weight:normal;font-size:10px;font-family:Arial;writing-mode:lr-tb;fill:#ffffff;fill-opacity:1;fill-rule:nonzero;stroke:none"
         x="0"
         y="0"
         id="tspan105">F</tspan></text>
    <path
       id="path106"
       d="m 4762,1351.96 c -28.7,-16.57 -38.53,-53.26 -21.96,-81.96 16.57,-28.7 53.26,-38.53 81.96,-21.96 28.7,16.57 38.53,53.26 21.96,81.96 -16.57,28.7 -53.26,38.53 -81.96,21.96"
       style="fill:#000000;fill-opacity:1;fill-rule:nonzero;stroke:none"
       transform="matrix(0.13333333,0,0,-0.13333333,0,389.33333)" />
    <path
       id="path107"
       d="m 4843.96,1330 -35,60.62 -103.92,-60 35,-60.62 z"
       style="fill:#000000;fill-opacity:1;fill-rule:nonzero;stroke:none"
       transform="matrix(0.13333333,0,0,-0.13333333,0,389.33333)" />
    <path
       id="path108"
       d="m 4675.4,1501.96 c -28.7,-16.57 -38.53,-53.27 -21.96,-81.96 16.56,-28.7 53.26,-38.53 81.96,-21.96 28.7,16.56 38.53,53.26 21.96,81.96 -16.56,28.69 -53.26,38.52 -81.96,21.96"
       style="fill:#000000;fill-opacity:1;fill-rule:nonzero;stroke:none"
       transform="matrix(0.13333333,0,0,-0.13333333,0,389.33333)" />
    <path
       id="path109"
       d="m 4792.36,1419.38 -35,60.62 -103.92,-60 35,-60.62 z"
       style="fill:#000000;fill-opacity:1;fill-rule:nonzero;stroke:none"
       transform="matrix(0.13333333,0,0,-0.13333333,0,389.33333)" />
    <text
       id="text109"
       xml:space="preserve"
       transform="matrix(1.3333333,-9.3333333e-8,0,1.3333333,624.00667,201.33333)"><tspan
         style="font-variant:normal;font-weight:normal;font-size:10px;font-family:Arial;writing-mode:lr-tb;fill:#ffffff;fill-opacity:1;fill-rule:nonzero;stroke:none"
         x="0"
         y="0"
         id="tspan109">S</tspan><tspan
         style="font-variant:normal;font-weight:normal;font-size:10px;font-family:Arial;writing-mode:lr-tb;fill:#ffffff;fill-opacity:1;fill-rule:nonzero;stroke:none"
         x="6.78477"
         y="13.8"
         id="tspan110">U</tspan></text>
    <path
       id="path110"
       d="m 5025.2,699.996 c 0,33.137 -26.86,60 -60,60 -33.14,0 -60,-26.863 -60,-60 0,-33.137 26.86,-60 60,-60 33.14,0 60,26.863 60,60"
       style="fill:#000000;fill-opacity:1;fill-rule:nonzero;stroke:none"
       transform="matrix(0.13333333,0,0,-0.13333333,0,389.33333)" />
    <path
       id="path111"
       d="m 4965.2,639.996 h 70 v 120 h -70 z"
       style="fill:#000000;fill-opacity:1;fill-rule:nonzero;stroke:none"
       transform="matrix(0.13333333,0,0,-0.13333333,0,389.33333)" />
    <text
       id="text111"
       xml:space="preserve"
       transform="matrix(1.3333333,-9.3333333e-8,0,1.3333333,658.64667,300.53387)"><tspan
         style="font-variant:normal;font-weight:normal;font-size:10px;font-family:Arial;writing-mode:lr-tb;fill:#ffffff;fill-opacity:1;fill-rule:nonzero;stroke:none"
         x="0"
         y="0"
         id="tspan111">E</tspan></text>
    <path
       id="path112"
       d="m 5198.4,699.996 c 0,33.137 -26.86,60 -60,60 -33.14,0 -60,-26.863 -60,-60 0,-33.137 26.87,-60 60,-60 33.14,0 60,26.863 60,60"
       style="fill:#000000;fill-opacity:1;fill-rule:nonzero;stroke:none"
       transform="matrix(0.13333333,0,0,-0.13333333,0,389.33333)" />
    <path
       id="path113"
       d="m 5068.4,639.996 h 70 v 120 h -70 z"
       style="fill:#000000;fill-opacity:1;fill-rule:nonzero;stroke:none"
       transform="matrix(0.13333333,0,0,-0.13333333,0,389.33333)" />
    <text
       id="text113"
       xml:space="preserve"
       transform="matrix(1.3333333,-9.3333333e-8,0,1.3333333,679.24,300.53387)"><tspan
         style="font-variant:normal;font-weight:normal;font-size:10px;font-family:Arial;writing-mode:lr-tb;fill:#ffffff;fill-opacity:1;fill-rule:nonzero;stroke:none"
         x="0"
         y="0"
         id="tspan113">N</tspan></text>
    <path
       id="path114"
       d="m 3986,399.996 c 0,33.137 -26.86,60 -60,60 -33.14,0 -60,-26.863 -60,-60 0,-33.137 26.86,-60 60,-60 33.14,0 60,26.863 60,60"
       style="fill:#000000;fill-opacity:1;fill-rule:nonzero;stroke:none"
       transform="matrix(0.13333333,0,0,-0.13333333,0,389.33333)" />
    <path
       id="path115"
       d="m 3926,339.996 h 70 v 120 h -70 z"
       style="fill:#000000;fill-opacity:1;fill-rule:nonzero;stroke:none"
       transform="matrix(0.13333333,0,0,-0.13333333,0,389.33333)" />
    <text
       id="text115"
       xml:space="preserve"
       transform="matrix(1.3333333,-9.3333333e-8,0,1.3333333,520.08667,340.53387)"><tspan
         style="font-variant:normal;font-weight:normal;font-size:10px;font-family:Arial;writing-mode:lr-tb;fill:#ffffff;fill-opacity:1;fill-rule:nonzero;stroke:none"
         x="0"
         y="0"
         id="tspan115">S</tspan></text>
    <path
       id="path116"
       d="m 4029.2,339.996 h 140 v 120 h -140 z"
       style="fill:#000000;fill-opacity:1;fill-rule:nonzero;stroke:none"
       transform="matrix(0.13333333,0,0,-0.13333333,0,389.33333)" />
    <text
       id="text116"
       xml:space="preserve"
       transform="matrix(1.3333333,-9.3333333e-8,0,1.3333333,544.70667,340.53387)"><tspan
         style="font-variant:normal;font-weight:normal;font-size:10px;font-family:Arial;writing-mode:lr-tb;fill:#ffffff;fill-opacity:1;fill-rule:nonzero;stroke:none"
         x="0"
         y="0"
         id="tspan116">I</tspan></text>
    <path
       id="path117"
       d="m 4332.4,399.996 c 0,33.137 -26.86,60 -60,60 -33.13,0 -60,-26.863 -60,-60 0,-33.137 26.87,-60 60,-60 33.14,0 60,26.863 60,60"
       style="fill:#000000;fill-opacity:1;fill-rule:nonzero;stroke:none"
       transform="matrix(0.13333333,0,0,-0.13333333,0,389.33333)" />
    <path
       id="path118"
       d="m 4202.4,339.996 h 70 v 120 h -70 z"
       style="fill:#000000;fill-opacity:1;fill-rule:nonzero;stroke:none"
       transform="matrix(0.13333333,0,0,-0.13333333,0,389.33333)" />
    <text
       id="text118"
       xml:space="preserve"
       transform="matrix(1.3333333,-9.3333333e-8,0,1.3333333,563.77333,340.53387)"><tspan
         style="font-variant:normal;font-weight:normal;font-size:10px;font-family:Arial;writing-mode:lr-tb;fill:#ffffff;fill-opacity:1;fill-rule:nonzero;stroke:none"
         x="0"
         y="0"
         id="tspan118">D</tspan></text>
    <path
       id="path119"
       d="m 5025.2,399.996 c 0,33.137 -26.86,60 -60,60 -33.14,0 -60,-26.863 -60,-60 0,-33.137 26.86,-60 60,-60 33.14,0 60,26.863 60,60"
       style="fill:#000000;fill-opacity:1;fill-rule:nonzero;stroke:none"
       transform="matrix(0.13333333,0,0,-0.13333333,0,389.33333)" />
    <text
       id="text119"
       xml:space="preserve"
       transform="matrix(1.3333333,-9.3333333e-8,0,1.3333333,657.58,340.53387)"><tspan
         style="font-variant:normal;font-weight:normal;font-size:10px;font-family:Arial;writing-mode:lr-tb;fill:#ffffff;fill-opacity:1;fill-rule:nonzero;stroke:none"
         x="0"
         y="0"
         id="tspan119">E</tspan></text>
    <path
       id="path120"
       d="m 5371.6,999.996 c 0,33.134 -26.86,60.004 -60,60.004 -33.14,0 -60,-26.87 -60,-60.004 0,-33.137 26.86,-60 60,-60 33.14,0 60,26.863 60,60"
       style="fill:#000000;fill-opacity:1;fill-rule:nonzero;stroke:none"
       transform="matrix(0.13333333,0,0,-0.13333333,0,389.33333)" />
    <text
       id="text120"
       xml:space="preserve"
       transform="matrix(1.3333333,-9.3333333e-8,0,1.3333333,702.66,260.53387)"><tspan
         style="font-variant:normal;font-weight:normal;font-size:10px;font-family:Arial;writing-mode:lr-tb;fill:#ffffff;fill-opacity:1;fill-rule:nonzero;stroke:none"
         x="0"
         y="0"
         id="tspan120">M</tspan></text>
    <path
       id="path121"
       d="m 5025.2,1600 c 0,33.13 -26.86,60 -60,60 -33.14,0 -60,-26.87 -60,-60 0,-33.14 26.86,-60 60,-60 33.14,0 60,26.86 60,60"
       style="fill:#000000;fill-opacity:1;fill-rule:nonzero;stroke:none"
       transform="matrix(0.13333333,0,0,-0.13333333,0,389.33333)" />
    <text
       id="text121"
       xml:space="preserve"
       transform="matrix(1.3333333,-9.3333333e-8,0,1.3333333,657.21333,180.53333)"><tspan
         style="font-variant:normal;font-weight:normal;font-size:10px;font-family:Arial;writing-mode:lr-tb;fill:#ffffff;fill-opacity:1;fill-rule:nonzero;stroke:none"
         x="0"
         y="0"
         id="tspan121">R</tspan></text>
    <path
       id="path122"
       d="m 5115.2,2600 c 0,27.61 -22.39,50 -50,50 -27.61,0 -50,-22.39 -50,-50 0,-27.62 22.39,-50 50,-50 27.61,0 50,22.38 50,50"
       style="fill:#ffffff;fill-opacity:1;fill-rule:nonzero;stroke:#000000;stroke-width:10;stroke-linecap:butt;stroke-linejoin:miter;stroke-miterlimit:10;stroke-dasharray:none;stroke-opacity:1"
       transform="matrix(0.13333333,0,0,-0.13333333,0,389.33333)" />
    <path
       id="path123"
       d="m 5089.2,2600 h -48"
       style="fill:none;stroke:#000000;stroke-width:10;stroke-linecap:butt;stroke-linejoin:miter;stroke-miterlimit:10;stroke-dasharray:none;stroke-opacity:1"
       transform="matrix(0.13333333,0,0,-0.13333333,0,389.33333)" />
    <path
       id="path124"
       d="m 5298.4,2600 c 0,33.13 -26.86,60 -60,60 -33.13,0 -60,-26.87 -60,-60 0,-33.14 26.87,-60 60,-60 33.14,0 60,26.86 60,60"
       style="fill:#000000;fill-opacity:1;fill-rule:nonzero;stroke:none"
       transform="matrix(0.13333333,0,0,-0.13333333,0,389.33333)" />
    <path
       id="path125"
       d="m 5238.4,2540 h 70 v 120 h -70 z"
       style="fill:#000000;fill-opacity:1;fill-rule:nonzero;stroke:none"
       transform="matrix(0.13333333,0,0,-0.13333333,0,389.33333)" />
    <text
       id="text125"
       xml:space="preserve"
       transform="matrix(1.3333333,-9.3333333e-8,0,1.3333333,695.07333,47.2)"><tspan
         style="font-variant:normal;font-weight:normal;font-size:10px;font-family:Arial;writing-mode:lr-tb;fill:#ffffff;fill-opacity:1;fill-rule:nonzero;stroke:none"
         x="0"
         y="0"
         id="tspan125">P</tspan></text>
    <path
       id="path126"
       d="m 5341.6,2540 h 140 v 120 h -140 z"
       style="fill:#000000;fill-opacity:1;fill-rule:nonzero;stroke:none"
       transform="matrix(0.13333333,0,0,-0.13333333,0,389.33333)" />
    <text
       id="text126"
       xml:space="preserve"
       transform="matrix(1.3333333,-9.3333333e-8,0,1.3333333,716.73333,47.2)"><tspan
         style="font-variant:normal;font-weight:normal;font-size:10px;font-family:Arial;writing-mode:lr-tb;fill:#ffffff;fill-opacity:1;fill-rule:nonzero;stroke:none"
         x="0"
         y="0"
         id="tspan126">A</tspan></text>
    <path
       id="path127"
       d="m 5644.8,2600 c 0,33.13 -26.86,60 -60,60 -33.14,0 -60,-26.87 -60,-60 0,-33.14 26.86,-60 60,-60 33.14,0 60,26.86 60,60"
       style="fill:#000000;fill-opacity:1;fill-rule:nonzero;stroke:none"
       transform="matrix(0.13333333,0,0,-0.13333333,0,389.33333)" />
    <path
       id="path128"
       d="m 5514.8,2540 h 70 v 120 h -70 z"
       style="fill:#000000;fill-opacity:1;fill-rule:nonzero;stroke:none"
       transform="matrix(0.13333333,0,0,-0.13333333,0,389.33333)" />
    <text
       id="text128"
       xml:space="preserve"
       transform="matrix(1.3333333,-9.3333333e-8,0,1.3333333,738.76,47.2)"><tspan
         style="font-variant:normal;font-weight:normal;font-size:10px;font-family:Arial;writing-mode:lr-tb;fill:#ffffff;fill-opacity:1;fill-rule:nonzero;stroke:none"
         x="0"
         y="0"
         id="tspan128">R</tspan></text>
    <path
       id="path129"
       d="m 5115.2,2400 c 0,27.61 -22.39,50 -50,50 -27.61,0 -50,-22.39 -50,-50 0,-27.62 22.39,-50 50,-50 27.62,0 50,22.38 50,50"
       style="fill:#ffffff;fill-opacity:1;fill-rule:nonzero;stroke:#000000;stroke-width:10;stroke-linecap:butt;stroke-linejoin:miter;stroke-miterlimit:10;stroke-dasharray:none;stroke-opacity:1"
       transform="matrix(0.13333333,0,0,-0.13333333,0,389.33333)" />
    <path
       id="path130"
       d="m 5089.2,2400 h -48"
       style="fill:none;stroke:#000000;stroke-width:10;stroke-linecap:butt;stroke-linejoin:miter;stroke-miterlimit:10;stroke-dasharray:none;stroke-opacity:1"
       transform="matrix(0.13333333,0,0,-0.13333333,0,389.33333)" />
    <path
       id="path131"
       d="m 5065.2,2424 v -48"
       style="fill:none;stroke:#000000;stroke-width:10;stroke-linecap:butt;stroke-linejoin:miter;stroke-miterlimit:10;stroke-dasharray:none;stroke-opacity:1"
       transform="matrix(0.13333333,0,0,-0.13333333,0,389.33333)" />
    <path
       id="path132"
       d="m 5298.4,2400 c 0,33.13 -26.86,60 -60,60 -33.13,0 -60,-26.87 -60,-60 0,-33.14 26.87,-60 60,-60 33.14,0 60,26.86 60,60"
       style="fill:#000000;fill-opacity:1;fill-rule:nonzero;stroke:none"
       transform="matrix(0.13333333,0,0,-0.13333333,0,389.33333)" />
    <path
       id="path133"
       d="m 5238.4,2340 h 70 v 120 h -70 z"
       style="fill:#000000;fill-opacity:1;fill-rule:nonzero;stroke:none"
       transform="matrix(0.13333333,0,0,-0.13333333,0,389.33333)" />
    <text
       id="text133"
       xml:space="preserve"
       transform="matrix(1.3333333,-9.3333333e-8,0,1.3333333,695.44667,73.866667)"><tspan
         style="font-variant:normal;font-weight:normal;font-size:10px;font-family:Arial;writing-mode:lr-tb;fill:#ffffff;fill-opacity:1;fill-rule:nonzero;stroke:none"
         x="0"
         y="0"
         id="tspan133">F</tspan></text>
    <path
       id="path134"
       d="m 5341.6,2340 h 140 v 120 h -140 z"
       style="fill:#000000;fill-opacity:1;fill-rule:nonzero;stroke:none"
       transform="matrix(0.13333333,0,0,-0.13333333,0,389.33333)" />
    <text
       id="text134"
       xml:space="preserve"
       transform="matrix(1.3333333,-9.3333333e-8,0,1.3333333,719.69333,73.866667)"><tspan
         style="font-variant:normal;font-weight:normal;font-size:10px;font-family:Arial;writing-mode:lr-tb;fill:#ffffff;fill-opacity:1;fill-rule:nonzero;stroke:none"
         x="0"
         y="0"
         id="tspan134">I</tspan></text>
    <path
       id="path135"
       d="m 5644.8,2400 c 0,33.13 -26.86,60 -60,60 -33.14,0 -60,-26.87 -60,-60 0,-33.14 26.86,-60 60,-60 33.14,0 60,26.86 60,60"
       style="fill:#000000;fill-opacity:1;fill-rule:nonzero;stroke:none"
       transform="matrix(0.13333333,0,0,-0.13333333,0,389.33333)" />
    <path
       id="path136"
       d="m 5514.8,2340 h 70 v 120 h -70 z"
       style="fill:#000000;fill-opacity:1;fill-rule:nonzero;stroke:none"
       transform="matrix(0.13333333,0,0,-0.13333333,0,389.33333)" />
    <text
       id="text136"
       xml:space="preserve"
       transform="matrix(1.3333333,-9.3333333e-8,0,1.3333333,739.5,73.866667)"><tspan
         style="font-variant:normal;font-weight:normal;font-size:10px;font-family:Arial;writing-mode:lr-tb;fill:#ffffff;fill-opacity:1;fill-rule:nonzero;stroke:none"
         x="0"
         y="0"
         id="tspan136">T</tspan></text>
  </g>
</svg>
