<?xml version="1.0" encoding="UTF-8" standalone="no"?>
<!-- Created with Inkscape (http://www.inkscape.org/) -->

<svg
   version="1.1"
   id="svg1"
   width="789.33331"
   height="389.33334"
   viewBox="0 0 789.33331 389.33334"
   xmlns="http://www.w3.org/2000/svg"
   xmlns:svg="http://www.w3.org/2000/svg">
  <defs
     id="defs1" />
  <g
     id="g1">
    <text
       id="text1"
       xml:space="preserve"
       transform="matrix(1.3333333,0,0,1.3333333,21.333333,18.666667)"><tspan
         style="font-variant:normal;font-weight:normal;font-size:16px;font-family:Arial;writing-mode:lr-tb;fill:#000000;fill-opacity:1;fill-rule:nonzero;stroke:none"
         x="0 11.552 20.448 29.344 33.792"
         y="0"
         id="tspan1">Day 5</tspan><tspan
         style="font-variant:normal;font-weight:normal;font-size:13px;font-family:Arial;writing-mode:lr-tb;fill:#000000;fill-opacity:1;fill-rule:nonzero;stroke:none"
         x="80 87.943001 91.556999 98.785004 106.013 110.342"
         y="0"
         id="tspan2">Fleet:</tspan><tspan
         style="font-variant:normal;font-weight:normal;font-size:13px;font-family:Arial;writing-mode:lr-tb;fill:#000000;fill-opacity:1;fill-rule:nonzero;stroke:none"
         x="40 49.386002 53 63.828999 330.00009 338.67111 342.2851 353.11411"
         y="58"
         id="tspan3">A.M.P.M.</tspan></text>
    <path
       id="path3"
       d="m 1720,2820 c 0,33.14 -26.86,60 -60,60 -33.14,0 -60,-26.86 -60,-60 0,-33.14 26.86,-60 60,-60 33.14,0 60,26.86 60,60"
       style="fill:#000000;fill-opacity:1;fill-rule:nonzero;stroke:none"
       transform="matrix(0.13333333,0,0,-0.13333333,0,389.33333)" />
    <path
       id="path4"
       d="m 1660,2760 h 69.9961 v 120 H 1660 Z"
       style="fill:#000000;fill-opacity:1;fill-rule:nonzero;stroke:none"
       transform="matrix(0.13333333,0,0,-0.13333333,0,389.33333)" />
    <text
       id="text4"
       xml:space="preserve"
       transform="matrix(1.3333333,0,0,1.3333333,219.10933,17.333333)"><tspan
         style="font-variant:normal;font-weight:normal;font-size:8px;font-family:Arial;writing-mode:lr-tb;fill:#ffffff;fill-opacity:1;fill-rule:nonzero;stroke:none"
         x="0"
         y="0"
         id="tspan4">V</tspan></text>
    <path
       id="path5"
       d="m 1763.2,2760 h 139.992 v 120 H 1763.2 Z"
       style="fill:#000000;fill-opacity:1;fill-rule:nonzero;stroke:none"
       transform="matrix(0.13333333,0,0,-0.13333333,0,389.33333)" />
    <text
       id="text5"
       xml:space="preserve"
       transform="matrix(1.3333333,0,0,1.3333333,240.27733,17.333333)"><tspan
         style="font-variant:normal;font-weight:normal;font-size:8px;font-family:Arial;writing-mode:lr-tb;fill:#ffffff;fill-opacity:1;fill-rule:nonzero;stroke:none"
         x="0"
         y="0"
         id="tspan5">O</tspan></text>
    <path
       id="path6"
       d="m 2066.4,2820 c 0,33.14 -26.86,60 -60,60 -33.14,0 -60,-26.86 -60,-60 0,-33.14 26.86,-60 60,-60 33.14,0 60,26.86 60,60"
       style="fill:#000000;fill-opacity:1;fill-rule:nonzero;stroke:none"
       transform="matrix(0.13333333,0,0,-0.13333333,0,389.33333)" />
    <path
       id="path7"
       d="m 1936.4,2760 h 69.9961 v 120 H 1936.4 Z"
       style="fill:#000000;fill-opacity:1;fill-rule:nonzero;stroke:none"
       transform="matrix(0.13333333,0,0,-0.13333333,0,389.33333)" />
    <text
       id="text7"
       xml:space="preserve"
       transform="matrix(1.3333333,0,0,1.3333333,262.336,17.333333)"><tspan
         style="font-variant:normal;font-weight:normal;font-size:8px;font-family:Arial;writing-mode:lr-tb;fill:#ffffff;fill-opacity:1;fill-rule:nonzero;stroke:none"
         x="0"
         y="0"
         id="tspan7">R</tspan></text>
    <path
       id="path8"
       d="m 2326.2,2820 c 0,33.14 -26.86,60 -60,60 -33.14,0 -60,-26.86 -60,-60 0,-33.14 26.86,-60 60,-60 33.14,0 60,26.86 60,60"
       style="fill:#000000;fill-opacity:1;fill-rule:nonzero;stroke:none"
       transform="matrix(0.13333333,0,0,-0.13333333,0,389.33333)" />
    <path
       id="path9"
       d="m 2266.2,2760 h 69.9961 v 120 H 2266.2 Z"
       style="fill:#000000;fill-opacity:1;fill-rule:nonzero;stroke:none"
       transform="matrix(0.13333333,0,0,-0.13333333,0,389.33333)" />
    <text
       id="text9"
       xml:space="preserve"
       transform="matrix(1.3333333,0,0,1.3333333,300.23467,17.333333)"><tspan
         style="font-variant:normal;font-weight:normal;font-size:8px;font-family:Arial;writing-mode:lr-tb;fill:#ffffff;fill-opacity:1;fill-rule:nonzero;stroke:none"
         x="0"
         y="0"
         id="tspan9">T</tspan></text>
    <path
       id="path10"
       d="m 2369.4,2760 h 139.992 v 120 H 2369.4 Z"
       style="fill:#000000;fill-opacity:1;fill-rule:nonzero;stroke:none"
       transform="matrix(0.13333333,0,0,-0.13333333,0,389.33333)" />
    <text
       id="text10"
       xml:space="preserve"
       transform="matrix(1.3333333,0,0,1.3333333,321.696,17.333333)"><tspan
         style="font-variant:normal;font-weight:normal;font-size:8px;font-family:Arial;writing-mode:lr-tb;fill:#ffffff;fill-opacity:1;fill-rule:nonzero;stroke:none"
         x="0"
         y="0"
         id="tspan10">E</tspan></text>
    <path
       id="path11"
       d="m 2672.6,2820 c 0,33.14 -26.86,60 -60,60 -33.14,0 -60,-26.86 -60,-60 0,-33.14 26.86,-60 60,-60 33.14,0 60,26.86 60,60"
       style="fill:#000000;fill-opacity:1;fill-rule:nonzero;stroke:none"
       transform="matrix(0.13333333,0,0,-0.13333333,0,389.33333)" />
    <path
       id="path12"
       d="m 2542.6,2760 h 69.9961 v 120 H 2542.6 Z"
       style="fill:#000000;fill-opacity:1;fill-rule:nonzero;stroke:none"
       transform="matrix(0.13333333,0,0,-0.13333333,0,389.33333)" />
    <text
       id="text12"
       xml:space="preserve"
       transform="matrix(1.3333333,0,0,1.3333333,343.456,17.333333)"><tspan
         style="font-variant:normal;font-weight:normal;font-size:8px;font-family:Arial;writing-mode:lr-tb;fill:#ffffff;fill-opacity:1;fill-rule:nonzero;stroke:none"
         x="0"
         y="0"
         id="tspan12">X</tspan></text>
    <path
       id="path13"
       d="m 2932.4,2820 c 0,33.14 -26.86,60 -60,60 -33.14,0 -60,-26.86 -60,-60 0,-33.14 26.86,-60 60,-60 33.14,0 60,26.86 60,60"
       style="fill:#000000;fill-opacity:1;fill-rule:nonzero;stroke:none"
       transform="matrix(0.13333333,0,0,-0.13333333,0,389.33333)" />
    <path
       id="path14"
       d="m 2872.4,2760 h 69.9961 v 120 H 2872.4 Z"
       style="fill:#000000;fill-opacity:1;fill-rule:nonzero;stroke:none"
       transform="matrix(0.13333333,0,0,-0.13333333,0,389.33333)" />
    <text
       id="text14"
       xml:space="preserve"
       transform="matrix(1.3333333,0,0,1.3333333,379.87733,17.333333)"><tspan
         style="font-variant:normal;font-weight:normal;font-size:8px;font-family:Arial;writing-mode:lr-tb;fill:#ffffff;fill-opacity:1;fill-rule:nonzero;stroke:none"
         x="0"
         y="0"
         id="tspan14">M</tspan></text>
    <path
       id="path15"
       d="m 3105.6,2820 c 0,33.14 -26.86,60 -60,60 -33.14,0 -60,-26.86 -60,-60 0,-33.14 26.86,-60 60,-60 33.14,0 60,26.86 60,60"
       style="fill:#000000;fill-opacity:1;fill-rule:nonzero;stroke:none"
       transform="matrix(0.13333333,0,0,-0.13333333,0,389.33333)" />
    <path
       id="path16"
       d="m 2975.6,2760 h 69.9961 v 120 H 2975.6 Z"
       style="fill:#000000;fill-opacity:1;fill-rule:nonzero;stroke:none"
       transform="matrix(0.13333333,0,0,-0.13333333,0,389.33333)" />
    <text
       id="text16"
       xml:space="preserve"
       transform="matrix(1.3333333,0,0,1.3333333,401.18933,17.333333)"><tspan
         style="font-variant:normal;font-weight:normal;font-size:8px;font-family:Arial;writing-mode:lr-tb;fill:#ffffff;fill-opacity:1;fill-rule:nonzero;stroke:none"
         x="0"
         y="0"
         id="tspan16">Y</tspan></text>
    <path
       id="path17"
       d="m 3365.4,2820 c 0,33.14 -26.86,60 -60,60 -33.14,0 -60,-26.86 -60,-60 0,-33.14 26.86,-60 60,-60 33.14,0 60,26.86 60,60"
       style="fill:#000000;fill-opacity:1;fill-rule:nonzero;stroke:none"
       transform="matrix(0.13333333,0,0,-0.13333333,0,389.33333)" />
    <path
       id="path18"
       d="m 3305.4,2760 h 69.9961 v 120 H 3305.4 Z"
       style="fill:#000000;fill-opacity:1;fill-rule:nonzero;stroke:none"
       transform="matrix(0.13333333,0,0,-0.13333333,0,389.33333)" />
    <text
       id="text18"
       xml:space="preserve"
       transform="matrix(1.3333333,0,0,1.3333333,438.496,17.333333)"><tspan
         style="font-variant:normal;font-weight:normal;font-size:8px;font-family:Arial;writing-mode:lr-tb;fill:#ffffff;fill-opacity:1;fill-rule:nonzero;stroke:none"
         x="0"
         y="0"
         id="tspan18">S</tspan></text>
    <path
       id="path19"
       d="m 3538.6,2820 c 0,33.14 -26.86,60 -60,60 -33.14,0 -60,-26.86 -60,-60 0,-33.14 26.86,-60 60,-60 33.14,0 60,26.86 60,60"
       style="fill:#000000;fill-opacity:1;fill-rule:nonzero;stroke:none"
       transform="matrix(0.13333333,0,0,-0.13333333,0,389.33333)" />
    <path
       id="path20"
       d="m 3408.6,2760 h 69.9961 v 120 H 3408.6 Z"
       style="fill:#000000;fill-opacity:1;fill-rule:nonzero;stroke:none"
       transform="matrix(0.13333333,0,0,-0.13333333,0,389.33333)" />
    <text
       id="text20"
       xml:space="preserve"
       transform="matrix(1.3333333,0,0,1.3333333,459.22133,17.333333)"><tspan
         style="font-variant:normal;font-weight:normal;font-size:8px;font-family:Arial;writing-mode:lr-tb;fill:#ffffff;fill-opacity:1;fill-rule:nonzero;stroke:none"
         x="0"
         y="0"
         id="tspan20">T</tspan></text>
    <path
       id="path21"
       d="m 3798.4,2820 c 0,33.14 -26.86,60 -60,60 -33.14,0 -60,-26.86 -60,-60 0,-33.14 26.86,-60 60,-60 33.14,0 60,26.86 60,60"
       style="fill:#000000;fill-opacity:1;fill-rule:nonzero;stroke:none"
       transform="matrix(0.13333333,0,0,-0.13333333,0,389.33333)" />
    <text
       id="text21"
       xml:space="preserve"
       transform="matrix(1.3333333,0,0,1.3333333,494.896,17.333333)"><tspan
         style="font-variant:normal;font-weight:normal;font-size:8px;font-family:Arial;writing-mode:lr-tb;fill:#ffffff;fill-opacity:1;fill-rule:nonzero;stroke:none"
         x="0"
         y="0"
         id="tspan21">E</tspan></text>
    <path
       id="path22"
       d="m 3998.4,2820 c 0,33.14 -26.86,60 -60,60 -33.14,0 -60,-26.86 -60,-60 0,-33.14 26.86,-60 60,-60 33.14,0 60,26.86 60,60"
       style="fill:#000000;fill-opacity:1;fill-rule:nonzero;stroke:none"
       transform="matrix(0.13333333,0,0,-0.13333333,0,389.33333)" />
    <text
       id="text22"
       xml:space="preserve"
       transform="matrix(1.3333333,0,0,1.3333333,521.26933,17.333333)"><tspan
         style="font-variant:normal;font-weight:normal;font-size:8px;font-family:Arial;writing-mode:lr-tb;fill:#ffffff;fill-opacity:1;fill-rule:nonzero;stroke:none"
         x="0"
         y="0"
         id="tspan22">R</tspan></text>
    <path
       id="path23"
       d="m 4198.4,2820 c 0,33.14 -26.86,60 -60,60 -33.14,0 -60,-26.86 -60,-60 0,-33.14 26.86,-60 60,-60 33.14,0 60,26.86 60,60"
       style="fill:#000000;fill-opacity:1;fill-rule:nonzero;stroke:none"
       transform="matrix(0.13333333,0,0,-0.13333333,0,389.33333)" />
    <text
       id="text23"
       xml:space="preserve"
       transform="matrix(1.3333333,0,0,1.3333333,548.22933,17.333333)"><tspan
         style="font-variant:normal;font-weight:normal;font-size:8px;font-family:Arial;writing-mode:lr-tb;fill:#ffffff;fill-opacity:1;fill-rule:nonzero;stroke:none"
         x="0"
         y="0"
         id="tspan23">Y</tspan></text>
    <path
       id="path24"
       d="m 1199.2,800 v 100 l 86.6,50 86.6,-50 V 800 l -86.6,-50 -86.6,50 m 173.2,0 v 100 l 86.6,50 86.6,-50 V 800 l -86.6,-50 -86.6,50 m 173.2,0 v 100 l 86.6,50 86.6,-50 V 800 l -86.6,-50 -86.6,50 m 173.2,0 v 100 l 86.6,50 86.6,-50 V 800 l -86.6,-50 -86.6,50 m 173.2,0 v 100 l 86.6,50 86.6,-50 V 800 l -86.6,-50 -86.6,50"
       style="fill:#b2b2b2;fill-opacity:1;fill-rule:nonzero;stroke:none"
       transform="matrix(0.13333333,0,0,-0.13333333,0,389.33333)" />
    <path
       id="path25"
       d="m 1285.8,950 v 100 l 86.6,50 86.6,-50 V 950 l -86.6,-50 -86.6,50 m 173.2,0 v 100 l 86.6,50 86.6,-50 V 950 l -86.6,-50 -86.6,50 m 173.2,0 v 100 l 86.6,50 86.6,-50 V 950 l -86.6,-50 -86.6,50 m 173.2,0 v 100 l 86.6,50 86.6,-50 V 950 l -86.6,-50 -86.6,50"
       style="fill:#b2b2b2;fill-opacity:1;fill-rule:nonzero;stroke:none"
       transform="matrix(0.13333333,0,0,-0.13333333,0,389.33333)" />
    <path
       id="path26"
       d="m 1372.4,1100 v 100 l 86.6,50 86.6,-50 v -100 l -86.6,-50 -86.6,50 m 173.2,0 v 100 l 86.6,50 86.6,-50 v -100 l -86.6,-50 -86.6,50 m 173.2,0 v 100 l 86.6,50 86.6,-50 v -100 l -86.6,-50 -86.6,50"
       style="fill:#b2b2b2;fill-opacity:1;fill-rule:nonzero;stroke:none"
       transform="matrix(0.13333333,0,0,-0.13333333,0,389.33333)" />
    <path
       id="path27"
       d="m 1459,1250 v 100 l 86.6,50 86.6,-50 v -100 l -86.6,-50 -86.6,50 m 173.2,0 v 100 l 86.6,50 86.6,-50 v -100 l -86.6,-50 -86.6,50"
       style="fill:#b2b2b2;fill-opacity:1;fill-rule:nonzero;stroke:none"
       transform="matrix(0.13333333,0,0,-0.13333333,0,389.33333)" />
    <path
       id="path28"
       d="m 1545.6,1400 v 100 l 86.6,50 86.6,-50 v -100 l -86.6,-50 -86.6,50"
       style="fill:#b2b2b2;fill-opacity:1;fill-rule:nonzero;stroke:none"
       transform="matrix(0.13333333,0,0,-0.13333333,0,389.33333)" />
    <path
       id="path29"
       d="M 419.801,350 V 450 L 506.398,500 593,450 V 350 l -86.602,-50 -86.597,50 M 593,350 v 100 l 86.602,50 86.597,-50 V 350 L 679.602,300 593,350 m 173.199,0 v 100 l 86.602,50 86.597,-50 V 350 l -86.597,-50 -86.602,50 m 173.199,0 v 100 l 86.602,50 86.6,-50 V 350 l -86.6,-50 -86.602,50 m 173.202,0 v 100 l 86.6,50 86.6,-50 V 350 l -86.6,-50 -86.6,50 m 173.2,0 v 100 l 86.6,50 86.6,-50 V 350 l -86.6,-50 -86.6,50 m 173.2,0 v 100 l 86.6,50 86.6,-50 V 350 l -86.6,-50 -86.6,50 m 173.2,0 v 100 l 86.6,50 86.6,-50 V 350 l -86.6,-50 -86.6,50 m 173.2,0 v 100 l 86.6,50 86.6,-50 V 350 l -86.6,-50 -86.6,50 m 173.2,0 v 100 l 86.6,50 86.6,-50 V 350 l -86.6,-50 -86.6,50 m 173.2,0 v 100 l 86.6,50 86.6,-50 V 350 l -86.6,-50 -86.6,50 m 173.2,0 v 100 l 86.6,50 86.6,-50 V 350 l -86.6,-50 -86.6,50 m 173.2,0 v 100 l 86.6,50 86.6,-50 V 350 l -86.6,-50 -86.6,50 m 173.2,0 v 100 l 86.6,50 86.6,-50 V 350 l -86.6,-50 -86.6,50"
       style="fill:none;stroke:#000000;stroke-width:4;stroke-linecap:butt;stroke-linejoin:miter;stroke-miterlimit:10;stroke-dasharray:none;stroke-opacity:1"
       transform="matrix(0.13333333,0,0,-0.13333333,0,389.33333)" />
    <path
       id="path30"
       d="M 506.398,500 V 600 L 593,650 679.602,600 V 500 L 593,450 506.398,500 m 173.204,0 v 100 l 86.597,50 86.602,-50 V 500 l -86.602,-50 -86.597,50 m 173.199,0 V 600 L 939.398,650 1026,600 V 500 l -86.602,-50 -86.597,50 M 1026,500 v 100 l 86.6,50 86.6,-50 V 500 l -86.6,-50 -86.6,50 m 173.2,0 v 100 l 86.6,50 86.6,-50 V 500 l -86.6,-50 -86.6,50 m 173.2,0 v 100 l 86.6,50 86.6,-50 V 500 l -86.6,-50 -86.6,50 m 173.2,0 v 100 l 86.6,50 86.6,-50 V 500 l -86.6,-50 -86.6,50 m 173.2,0 v 100 l 86.6,50 86.6,-50 V 500 l -86.6,-50 -86.6,50 m 173.2,0 v 100 l 86.6,50 86.6,-50 V 500 l -86.6,-50 -86.6,50 m 173.2,0 v 100 l 86.6,50 86.6,-50 V 500 l -86.6,-50 -86.6,50 m 173.2,0 v 100 l 86.6,50 86.6,-50 V 500 l -86.6,-50 -86.6,50 m 173.2,0 v 100 l 86.6,50 86.6,-50 V 500 l -86.6,-50 -86.6,50 m 173.2,0 v 100 l 86.6,50 86.6,-50 V 500 l -86.6,-50 -86.6,50"
       style="fill:none;stroke:#000000;stroke-width:4;stroke-linecap:butt;stroke-linejoin:miter;stroke-miterlimit:10;stroke-dasharray:none;stroke-opacity:1"
       transform="matrix(0.13333333,0,0,-0.13333333,0,389.33333)" />
    <path
       id="path31"
       d="m 593,650 v 100 l 86.602,50 86.597,-50 V 650 L 679.602,600 593,650 m 173.199,0 v 100 l 86.602,50 86.597,-50 V 650 l -86.597,-50 -86.602,50 m 173.199,0 v 100 l 86.602,50 86.6,-50 V 650 l -86.6,-50 -86.602,50 m 173.202,0 v 100 l 86.6,50 86.6,-50 V 650 l -86.6,-50 -86.6,50 m 173.2,0 v 100 l 86.6,50 86.6,-50 V 650 l -86.6,-50 -86.6,50 m 173.2,0 v 100 l 86.6,50 86.6,-50 V 650 l -86.6,-50 -86.6,50 m 173.2,0 v 100 l 86.6,50 86.6,-50 V 650 l -86.6,-50 -86.6,50 m 173.2,0 v 100 l 86.6,50 86.6,-50 V 650 l -86.6,-50 -86.6,50 m 173.2,0 v 100 l 86.6,50 86.6,-50 V 650 l -86.6,-50 -86.6,50 m 173.2,0 v 100 l 86.6,50 86.6,-50 V 650 l -86.6,-50 -86.6,50 m 173.2,0 v 100 l 86.6,50 86.6,-50 V 650 l -86.6,-50 -86.6,50 m 173.2,0 v 100 l 86.6,50 86.6,-50 V 650 l -86.6,-50 -86.6,50"
       style="fill:none;stroke:#000000;stroke-width:4;stroke-linecap:butt;stroke-linejoin:miter;stroke-miterlimit:10;stroke-dasharray:none;stroke-opacity:1"
       transform="matrix(0.13333333,0,0,-0.13333333,0,389.33333)" />
    <path
       id="path32"
       d="m 679.602,800 v 100 l 86.597,50 86.602,-50 V 800 l -86.602,-50 -86.597,50 m 173.199,0 V 900 L 939.398,950 1026,900 V 800 l -86.602,-50 -86.597,50 M 1026,800 v 100 l 86.6,50 86.6,-50 V 800 l -86.6,-50 -86.6,50 m 173.2,0 v 100 l 86.6,50 86.6,-50 V 800 l -86.6,-50 -86.6,50 m 173.2,0 v 100 l 86.6,50 86.6,-50 V 800 l -86.6,-50 -86.6,50 m 173.2,0 v 100 l 86.6,50 86.6,-50 V 800 l -86.6,-50 -86.6,50 m 173.2,0 v 100 l 86.6,50 86.6,-50 V 800 l -86.6,-50 -86.6,50 m 173.2,0 v 100 l 86.6,50 86.6,-50 V 800 l -86.6,-50 -86.6,50 m 173.2,0 v 100 l 86.6,50 86.6,-50 V 800 l -86.6,-50 -86.6,50 m 173.2,0 v 100 l 86.6,50 86.6,-50 V 800 l -86.6,-50 -86.6,50 m 173.2,0 v 100 l 86.6,50 86.6,-50 V 800 l -86.6,-50 -86.6,50"
       style="fill:none;stroke:#000000;stroke-width:4;stroke-linecap:butt;stroke-linejoin:miter;stroke-miterlimit:10;stroke-dasharray:none;stroke-opacity:1"
       transform="matrix(0.13333333,0,0,-0.13333333,0,389.33333)" />
    <path
       id="path33"
       d="m 766.199,950 v 100 l 86.602,50 86.597,-50 V 950 l -86.597,-50 -86.602,50 m 173.199,0 v 100 l 86.602,50 86.6,-50 V 950 l -86.6,-50 -86.602,50 m 173.202,0 v 100 l 86.6,50 86.6,-50 V 950 l -86.6,-50 -86.6,50 m 173.2,0 v 100 l 86.6,50 86.6,-50 V 950 l -86.6,-50 -86.6,50 m 173.2,0 v 100 l 86.6,50 86.6,-50 V 950 l -86.6,-50 -86.6,50 m 173.2,0 v 100 l 86.6,50 86.6,-50 V 950 l -86.6,-50 -86.6,50 m 173.2,0 v 100 l 86.6,50 86.6,-50 V 950 l -86.6,-50 -86.6,50 m 173.2,0 v 100 l 86.6,50 86.6,-50 V 950 l -86.6,-50 -86.6,50 m 173.2,0 v 100 l 86.6,50 86.6,-50 V 950 l -86.6,-50 -86.6,50 m 173.2,0 v 100 l 86.6,50 86.6,-50 V 950 l -86.6,-50 -86.6,50"
       style="fill:none;stroke:#000000;stroke-width:4;stroke-linecap:butt;stroke-linejoin:miter;stroke-miterlimit:10;stroke-dasharray:none;stroke-opacity:1"
       transform="matrix(0.13333333,0,0,-0.13333333,0,389.33333)" />
    <path
       id="path34"
       d="m 852.801,1100 v 100 l 86.597,50 86.602,-50 v -100 l -86.602,-50 -86.597,50 m 173.199,0 v 100 l 86.6,50 86.6,-50 v -100 l -86.6,-50 -86.6,50 m 173.2,0 v 100 l 86.6,50 86.6,-50 v -100 l -86.6,-50 -86.6,50 m 173.2,0 v 100 l 86.6,50 86.6,-50 v -100 l -86.6,-50 -86.6,50 m 173.2,0 v 100 l 86.6,50 86.6,-50 v -100 l -86.6,-50 -86.6,50 m 173.2,0 v 100 l 86.6,50 86.6,-50 v -100 l -86.6,-50 -86.6,50 m 173.2,0 v 100 l 86.6,50 86.6,-50 v -100 l -86.6,-50 -86.6,50 m 173.2,0 v 100 l 86.6,50 86.6,-50 v -100 l -86.6,-50 -86.6,50 m 173.2,0 v 100 l 86.6,50 86.6,-50 v -100 l -86.6,-50 -86.6,50"
       style="fill:none;stroke:#000000;stroke-width:4;stroke-linecap:butt;stroke-linejoin:miter;stroke-miterlimit:10;stroke-dasharray:none;stroke-opacity:1"
       transform="matrix(0.13333333,0,0,-0.13333333,0,389.33333)" />
    <path
       id="path35"
       d="m 939.398,1250 v 100 l 86.602,50 86.6,-50 v -100 l -86.6,-50 -86.602,50 m 173.202,0 v 100 l 86.6,50 86.6,-50 v -100 l -86.6,-50 -86.6,50 m 173.2,0 v 100 l 86.6,50 86.6,-50 v -100 l -86.6,-50 -86.6,50 m 173.2,0 v 100 l 86.6,50 86.6,-50 v -100 l -86.6,-50 -86.6,50 m 173.2,0 v 100 l 86.6,50 86.6,-50 v -100 l -86.6,-50 -86.6,50 m 173.2,0 v 100 l 86.6,50 86.6,-50 v -100 l -86.6,-50 -86.6,50 m 173.2,0 v 100 l 86.6,50 86.6,-50 v -100 l -86.6,-50 -86.6,50 m 173.2,0 v 100 l 86.6,50 86.6,-50 v -100 l -86.6,-50 -86.6,50"
       style="fill:none;stroke:#000000;stroke-width:4;stroke-linecap:butt;stroke-linejoin:miter;stroke-miterlimit:10;stroke-dasharray:none;stroke-opacity:1"
       transform="matrix(0.13333333,0,0,-0.13333333,0,389.33333)" />
    <path
       id="path36"
       d="m 1026,1400 v 100 l 86.6,50 86.6,-50 v -100 l -86.6,-50 -86.6,50 m 173.2,0 v 100 l 86.6,50 86.6,-50 v -100 l -86.6,-50 -86.6,50 m 173.2,0 v 100 l 86.6,50 86.6,-50 v -100 l -86.6,-50 -86.6,50 m 173.2,0 v 100 l 86.6,50 86.6,-50 v -100 l -86.6,-50 -86.6,50 m 173.2,0 v 100 l 86.6,50 86.6,-50 v -100 l -86.6,-50 -86.6,50 m 173.2,0 v 100 l 86.6,50 86.6,-50 v -100 l -86.6,-50 -86.6,50 m 173.2,0 v 100 l 86.6,50 86.6,-50 v -100 l -86.6,-50 -86.6,50"
       style="fill:none;stroke:#000000;stroke-width:4;stroke-linecap:butt;stroke-linejoin:miter;stroke-miterlimit:10;stroke-dasharray:none;stroke-opacity:1"
       transform="matrix(0.13333333,0,0,-0.13333333,0,389.33333)" />
    <path
       id="path37"
       d="m 1112.6,1550 v 100 l 86.6,50 86.6,-50 v -100 l -86.6,-50 -86.6,50 m 173.2,0 v 100 l 86.6,50 86.6,-50 v -100 l -86.6,-50 -86.6,50 m 173.2,0 v 100 l 86.6,50 86.6,-50 v -100 l -86.6,-50 -86.6,50 m 173.2,0 v 100 l 86.6,50 86.6,-50 v -100 l -86.6,-50 -86.6,50 m 173.2,0 v 100 l 86.6,50 86.6,-50 v -100 l -86.6,-50 -86.6,50 m 173.2,0 v 100 l 86.6,50 86.6,-50 v -100 l -86.6,-50 -86.6,50"
       style="fill:none;stroke:#000000;stroke-width:4;stroke-linecap:butt;stroke-linejoin:miter;stroke-miterlimit:10;stroke-dasharray:none;stroke-opacity:1"
       transform="matrix(0.13333333,0,0,-0.13333333,0,389.33333)" />
    <path
       id="path38"
       d="m 1199.2,1700 v 100 l 86.6,50 86.6,-50 v -100 l -86.6,-50 -86.6,50 m 173.2,0 v 100 l 86.6,50 86.6,-50 v -100 l -86.6,-50 -86.6,50 m 173.2,0 v 100 l 86.6,50 86.6,-50 v -100 l -86.6,-50 -86.6,50 m 173.2,0 v 100 l 86.6,50 86.6,-50 v -100 l -86.6,-50 -86.6,50 m 173.2,0 v 100 l 86.6,50 86.6,-50 v -100 l -86.6,-50 -86.6,50"
       style="fill:none;stroke:#000000;stroke-width:4;stroke-linecap:butt;stroke-linejoin:miter;stroke-miterlimit:10;stroke-dasharray:none;stroke-opacity:1"
       transform="matrix(0.13333333,0,0,-0.13333333,0,389.33333)" />
    <path
       id="path39"
       d="m 1285.8,1850 v 100 l 86.6,50 86.6,-50 v -100 l -86.6,-50 -86.6,50 m 173.2,0 v 100 l 86.6,50 86.6,-50 v -100 l -86.6,-50 -86.6,50 m 173.2,0 v 100 l 86.6,50 86.6,-50 v -100 l -86.6,-50 -86.6,50 m 173.2,0 v 100 l 86.6,50 86.6,-50 v -100 l -86.6,-50 -86.6,50"
       style="fill:none;stroke:#000000;stroke-width:4;stroke-linecap:butt;stroke-linejoin:miter;stroke-miterlimit:10;stroke-dasharray:none;stroke-opacity:1"
       transform="matrix(0.13333333,0,0,-0.13333333,0,389.33333)" />
    <path
       id="path40"
       d="m 1372.4,2000 v 100 l 86.6,50 86.6,-50 v -100 l -86.6,-50 -86.6,50 m 173.2,0 v 100 l 86.6,50 86.6,-50 v -100 l -86.6,-50 -86.6,50 m 173.2,0 v 100 l 86.6,50 86.6,-50 v -100 l -86.6,-50 -86.6,50"
       style="fill:none;stroke:#000000;stroke-width:4;stroke-linecap:butt;stroke-linejoin:miter;stroke-miterlimit:10;stroke-dasharray:none;stroke-opacity:1"
       transform="matrix(0.13333333,0,0,-0.13333333,0,389.33333)" />
    <path
       id="path41"
       d="m 1459,2150 v 100 l 86.6,50 86.6,-50 v -100 l -86.6,-50 -86.6,50 m 173.2,0 v 100 l 86.6,50 86.6,-50 v -100 l -86.6,-50 -86.6,50"
       style="fill:none;stroke:#000000;stroke-width:4;stroke-linecap:butt;stroke-linejoin:miter;stroke-miterlimit:10;stroke-dasharray:none;stroke-opacity:1"
       transform="matrix(0.13333333,0,0,-0.13333333,0,389.33333)" />
    <path
       id="path42"
       d="m 1545.6,2300 v 100 l 86.6,50 86.6,-50 v -100 l -86.6,-50 -86.6,50"
       style="fill:none;stroke:#000000;stroke-width:4;stroke-linecap:butt;stroke-linejoin:miter;stroke-miterlimit:10;stroke-dasharray:none;stroke-opacity:1"
       transform="matrix(0.13333333,0,0,-0.13333333,0,389.33333)" />
    <path
       id="path43"
       d="m 1922,2251.96 -60,-103.92 m 0,0 50.98,28.3 m -50.98,-28.3 -0.98,58.3"
       style="fill:none;stroke:#000000;stroke-width:10;stroke-linecap:butt;stroke-linejoin:miter;stroke-miterlimit:10;stroke-dasharray:none;stroke-opacity:1"
       transform="matrix(0.13333333,0,0,-0.13333333,0,389.33333)" />
    <text
       id="text43"
       xml:space="preserve"
       transform="matrix(1.3333333,0,-9.3333333e-8,1.3333333,256.41067,85.701333)"><tspan
         style="font-variant:normal;font-weight:normal;font-size:14px;font-family:Arial;writing-mode:lr-tb;fill:#000000;fill-opacity:1;fill-rule:nonzero;stroke:none"
         x="0"
         y="0"
         id="tspan43">0</tspan></text>
    <path
       id="path44"
       d="m 2355,1501.96 -60,-103.92 m 0,0 50.98,28.3 m -50.98,-28.3 -0.98,58.3"
       style="fill:none;stroke:#000000;stroke-width:10;stroke-linecap:butt;stroke-linejoin:miter;stroke-miterlimit:10;stroke-dasharray:none;stroke-opacity:1"
       transform="matrix(0.13333333,0,0,-0.13333333,0,389.33333)" />
    <text
       id="text44"
       xml:space="preserve"
       transform="matrix(1.3333333,0,-9.3333333e-8,1.3333333,313.108,185.70133)"><tspan
         style="font-variant:normal;font-weight:normal;font-size:14px;font-family:Arial;writing-mode:lr-tb;fill:#000000;fill-opacity:1;fill-rule:nonzero;stroke:none"
         x="0"
         y="0"
         id="tspan44">S</tspan></text>
    <path
       id="path45"
       d="m 2441.6,1351.96 -60,-103.92 m 0,0 50.98,28.3 m -50.98,-28.3 -0.98,58.3"
       style="fill:none;stroke:#000000;stroke-width:10;stroke-linecap:butt;stroke-linejoin:miter;stroke-miterlimit:10;stroke-dasharray:none;stroke-opacity:1"
       transform="matrix(0.13333333,0,0,-0.13333333,0,389.33333)" />
    <text
       id="text45"
       xml:space="preserve"
       transform="matrix(1.3333333,0,-9.3333333e-8,1.3333333,324.14133,205.70133)"><tspan
         style="font-variant:normal;font-weight:normal;font-size:14px;font-family:Arial;writing-mode:lr-tb;fill:#000000;fill-opacity:1;fill-rule:nonzero;stroke:none"
         x="0"
         y="0"
         id="tspan45">R</tspan></text>
    <path
       id="path46"
       d="m 1139.2,1900 h 120 m 0,0 -50,30 m 50,-30 -50,-30"
       style="fill:none;stroke:#000000;stroke-width:10;stroke-linecap:butt;stroke-linejoin:miter;stroke-miterlimit:10;stroke-dasharray:none;stroke-opacity:1"
       transform="matrix(0.13333333,0,0,-0.13333333,0,389.33333)" />
    <text
       id="text46"
       xml:space="preserve"
       transform="matrix(1.3333333,0,0,1.3333333,135.00133,141.86667)"><tspan
         style="font-variant:normal;font-weight:normal;font-size:14px;font-family:Arial;writing-mode:lr-tb;fill:#000000;fill-opacity:1;fill-rule:nonzero;stroke:none"
         x="0"
         y="0"
         id="tspan46">X</tspan></text>
    <path
       id="path47"
       d="m 1399,2350 h 120 m 0,0 -50,30 m 50,-30 -50,-30"
       style="fill:none;stroke:#000000;stroke-width:10;stroke-linecap:butt;stroke-linejoin:miter;stroke-miterlimit:10;stroke-dasharray:none;stroke-opacity:1"
       transform="matrix(0.13333333,0,0,-0.13333333,0,389.33333)" />
    <text
       id="text47"
       xml:space="preserve"
       transform="matrix(1.3333333,0,0,1.3333333,169.64133,81.866667)"><tspan
         style="font-variant:normal;font-weight:normal;font-size:14px;font-family:Arial;writing-mode:lr-tb;fill:#000000;fill-opacity:1;fill-rule:nonzero;stroke:none"
         x="0"
         y="0"
         id="tspan47">V</tspan></text>
    <path
       id="path48"
       d="m 1662.2,198.039 -60,103.922 m 0,0 -0.98,-58.301 m 0.98,58.301 50.98,-28.301"
       style="fill:none;stroke:#000000;stroke-width:10;stroke-linecap:butt;stroke-linejoin:miter;stroke-miterlimit:10;stroke-dasharray:none;stroke-opacity:1"
       transform="matrix(0.13333333,0,0,-0.13333333,0,389.33333)" />
    <text
       id="text48"
       xml:space="preserve"
       transform="matrix(1.3333333,-9.3333333e-8,0,1.3333333,218.14,378.03229)"><tspan
         style="font-variant:normal;font-weight:normal;font-size:14px;font-family:Arial;writing-mode:lr-tb;fill:#000000;fill-opacity:1;fill-rule:nonzero;stroke:none"
         x="0 9.3380003"
         y="0"
         id="tspan48">Y </tspan></text>
    <path
       id="path49"
       d="m 1835.4,198.039 -60,103.922 m 0,0 -0.98,-58.301 m 0.98,58.301 50.98,-28.301"
       style="fill:none;stroke:#000000;stroke-width:10;stroke-linecap:butt;stroke-linejoin:miter;stroke-miterlimit:10;stroke-dasharray:none;stroke-opacity:1"
       transform="matrix(0.13333333,0,0,-0.13333333,0,389.33333)" />
    <text
       id="text49"
       xml:space="preserve"
       transform="matrix(1.3333333,-9.3333333e-8,0,1.3333333,241.23333,378.03229)"><tspan
         style="font-variant:normal;font-weight:normal;font-size:14px;font-family:Arial;writing-mode:lr-tb;fill:#000000;fill-opacity:1;fill-rule:nonzero;stroke:none"
         x="0 9.3380003"
         y="0"
         id="tspan49">Y </tspan></text>
    <path
       id="path50"
       d="m 2008.6,198.039 -60,103.922 m 0,0 -0.98,-58.301 m 0.98,58.301 50.98,-28.301"
       style="fill:none;stroke:#000000;stroke-width:10;stroke-linecap:butt;stroke-linejoin:miter;stroke-miterlimit:10;stroke-dasharray:none;stroke-opacity:1"
       transform="matrix(0.13333333,0,0,-0.13333333,0,389.33333)" />
    <text
       id="text50"
       xml:space="preserve"
       transform="matrix(1.3333333,-9.3333333e-8,0,1.3333333,267.95733,378.03229)"><tspan
         style="font-variant:normal;font-weight:normal;font-size:14px;font-family:Arial;writing-mode:lr-tb;fill:#000000;fill-opacity:1;fill-rule:nonzero;stroke:none"
         x="0"
         y="0"
         id="tspan50">3</tspan></text>
    <path
       id="path51"
       d="m 1142.6,1501.96 c -28.7,16.57 -65.4,6.74 -81.96,-21.96 -16.57,-28.7 -6.74,-65.39 21.96,-81.96 28.7,-16.57 65.4,-6.74 81.96,21.96 16.57,28.7 6.74,65.39 -21.96,81.96"
       style="fill:#000000;fill-opacity:1;fill-rule:nonzero;stroke:none"
       transform="matrix(0.13333333,0,0,-0.13333333,0,389.33333)" />
    <path
       id="path52"
       d="m 1164.56,1420 35,60.62 -103.92,60 -35,-60.62 z"
       style="fill:#000000;fill-opacity:1;fill-rule:nonzero;stroke:none"
       transform="matrix(0.13333333,0,0,-0.13333333,0,389.33333)" />
    <path
       id="path53"
       d="m 1229.2,1651.96 c -28.7,16.56 -65.4,6.73 -81.96,-21.96 -16.57,-28.7 -6.74,-65.4 21.96,-81.96 28.69,-16.57 65.39,-6.74 81.96,21.96 16.57,28.69 6.73,65.39 -21.96,81.96"
       style="fill:#000000;fill-opacity:1;fill-rule:nonzero;stroke:none"
       transform="matrix(0.13333333,0,0,-0.13333333,0,389.33333)" />
    <path
       id="path54"
       d="m 1216.16,1509.38 35,60.62 -103.92,60 -35,-60.62 z"
       style="fill:#000000;fill-opacity:1;fill-rule:nonzero;stroke:none"
       transform="matrix(0.13333333,0,0,-0.13333333,0,389.33333)" />
    <text
       id="text54"
       xml:space="preserve"
       transform="matrix(1.3333333,0,-9.3333333e-8,1.3333333,153.27333,181.33333)"><tspan
         style="font-variant:normal;font-weight:normal;font-size:10px;font-family:Arial;writing-mode:lr-tb;fill:#ffffff;fill-opacity:1;fill-rule:nonzero;stroke:none"
         x="0"
         y="0"
         id="tspan54">M</tspan><tspan
         style="font-variant:normal;font-weight:normal;font-size:10px;font-family:Arial;writing-mode:lr-tb;fill:#ffffff;fill-opacity:1;fill-rule:nonzero;stroke:none"
         x="-6.2300801"
         y="13.8"
         id="tspan55">Y</tspan></text>
    <path
       id="path55"
       d="m 1489,2101.96 c -28.7,16.56 -65.39,6.73 -81.96,-21.96 -16.57,-28.7 -6.74,-65.4 21.96,-81.96 28.7,-16.57 65.39,-6.74 81.96,21.96 16.57,28.69 6.74,65.39 -21.96,81.96"
       style="fill:#000000;fill-opacity:1;fill-rule:nonzero;stroke:none"
       transform="matrix(0.13333333,0,0,-0.13333333,0,389.33333)" />
    <path
       id="path56"
       d="m 1510.96,2020 35,60.62 -103.92,60 -35,-60.62 z"
       style="fill:#000000;fill-opacity:1;fill-rule:nonzero;stroke:none"
       transform="matrix(0.13333333,0,0,-0.13333333,0,389.33333)" />
    <path
       id="path57"
       d="m 1562.56,2109.37 70,121.24 -103.92,60 -70,-121.24 z"
       style="fill:#000000;fill-opacity:1;fill-rule:nonzero;stroke:none"
       transform="matrix(0.13333333,0,0,-0.13333333,0,389.33333)" />
    <path
       id="path58"
       d="m 1662.2,2401.95 c -28.7,16.57 -65.4,6.73 -81.96,-21.96 -16.57,-28.7 -6.74,-65.4 21.96,-81.97 28.69,-16.56 65.39,-6.73 81.96,21.97 16.57,28.69 6.73,65.39 -21.96,81.96"
       style="fill:#000000;fill-opacity:1;fill-rule:nonzero;stroke:none"
       transform="matrix(0.13333333,0,0,-0.13333333,0,389.33333)" />
    <path
       id="path59"
       d="m 1649.16,2259.36 35,60.63 -103.92,60 -35,-60.63 z"
       style="fill:#000000;fill-opacity:1;fill-rule:nonzero;stroke:none"
       transform="matrix(0.13333333,0,0,-0.13333333,0,389.33333)" />
    <text
       id="text59"
       xml:space="preserve"
       transform="matrix(1.3333333,0,-9.3333333e-8,1.3333333,212.11333,81.334667)"><tspan
         style="font-variant:normal;font-weight:normal;font-size:10px;font-family:Arial;writing-mode:lr-tb;fill:#ffffff;fill-opacity:1;fill-rule:nonzero;stroke:none"
         x="0"
         y="0"
         id="tspan59">V</tspan><tspan
         style="font-variant:normal;font-weight:normal;font-size:10px;font-family:Arial;writing-mode:lr-tb;fill:#ffffff;fill-opacity:1;fill-rule:nonzero;stroke:none"
         x="-8.4148397"
         y="14.4"
         id="tspan60">O</tspan><tspan
         style="font-variant:normal;font-weight:normal;font-size:10px;font-family:Arial;writing-mode:lr-tb;fill:#ffffff;fill-opacity:1;fill-rule:nonzero;stroke:none"
         x="-15.99531"
         y="28.799999"
         id="tspan61">R</tspan></text>
    <path
       id="path61"
       d="m 1922,1848.02 c 28.7,16.57 38.53,53.27 21.96,81.97 -16.57,28.69 -53.26,38.53 -81.96,21.96 -28.7,-16.57 -38.53,-53.27 -21.96,-81.96 16.57,-28.7 53.26,-38.53 81.96,-21.97"
       style="fill:#000000;fill-opacity:1;fill-rule:nonzero;stroke:none"
       transform="matrix(0.13333333,0,0,-0.13333333,0,389.33333)" />
    <path
       id="path62"
       d="m 1840.04,1869.99 35,-60.63 103.92,60 -35,60.63 z"
       style="fill:#000000;fill-opacity:1;fill-rule:nonzero;stroke:none"
       transform="matrix(0.13333333,0,0,-0.13333333,0,389.33333)" />
    <path
       id="path63"
       d="m 1891.64,1780.61 70,-121.24 103.92,60 -70,121.24 z"
       style="fill:#000000;fill-opacity:1;fill-rule:nonzero;stroke:none"
       transform="matrix(0.13333333,0,0,-0.13333333,0,389.33333)" />
    <path
       id="path64"
       d="m 2095.2,1548.04 c 28.69,16.56 38.53,53.26 21.96,81.96 -16.57,28.69 -53.27,38.52 -81.96,21.96 -28.7,-16.57 -38.53,-53.27 -21.96,-81.96 16.56,-28.7 53.26,-38.53 81.96,-21.96"
       style="fill:#000000;fill-opacity:1;fill-rule:nonzero;stroke:none"
       transform="matrix(0.13333333,0,0,-0.13333333,0,389.33333)" />
    <path
       id="path65"
       d="m 1978.24,1630.62 35,-60.62 103.92,60 -35,60.62 z"
       style="fill:#000000;fill-opacity:1;fill-rule:nonzero;stroke:none"
       transform="matrix(0.13333333,0,0,-0.13333333,0,389.33333)" />
    <text
       id="text65"
       xml:space="preserve"
       transform="matrix(1.3333333,-9.3333333e-8,0,1.3333333,270.22,179.73333)"><tspan
         style="font-variant:normal;font-weight:normal;font-size:10px;font-family:Arial;writing-mode:lr-tb;fill:#ffffff;fill-opacity:1;fill-rule:nonzero;stroke:none"
         x="0"
         y="0"
         id="tspan65">T</tspan><tspan
         style="font-variant:normal;font-weight:normal;font-size:10px;font-family:Arial;writing-mode:lr-tb;fill:#ffffff;fill-opacity:1;fill-rule:nonzero;stroke:none"
         x="-8.1402302"
         y="-14.4"
         id="tspan66">E</tspan><tspan
         style="font-variant:normal;font-weight:normal;font-size:10px;font-family:Arial;writing-mode:lr-tb;fill:#ffffff;fill-opacity:1;fill-rule:nonzero;stroke:none"
         x="-16"
         y="-28.799999"
         id="tspan67">X</tspan></text>
    <path
       id="path67"
       d="m 2095.2,948.035 c 28.69,16.567 38.53,53.265 21.96,81.965 -16.57,28.69 -53.27,38.52 -81.96,21.96 -28.7,-16.57 -38.53,-53.269 -21.96,-81.964 16.56,-28.695 53.26,-38.527 81.96,-21.961"
       style="fill:#000000;fill-opacity:1;fill-rule:nonzero;stroke:none"
       transform="matrix(0.13333333,0,0,-0.13333333,0,389.33333)" />
    <path
       id="path68"
       d="m 2013.24,969.996 35,-60.621 103.92,60 -35,60.625 z"
       style="fill:#000000;fill-opacity:1;fill-rule:nonzero;stroke:none"
       transform="matrix(0.13333333,0,0,-0.13333333,0,389.33333)" />
    <path
       id="path69"
       d="m 2181.8,798.039 c 28.7,16.566 38.53,53.266 21.96,81.961 -16.56,28.695 -53.26,38.527 -81.96,21.961 -28.69,-16.566 -38.53,-53.266 -21.96,-81.961 16.57,-28.695 53.27,-38.527 81.96,-21.961"
       style="fill:#000000;fill-opacity:1;fill-rule:nonzero;stroke:none"
       transform="matrix(0.13333333,0,0,-0.13333333,0,389.33333)" />
    <path
       id="path70"
       d="m 2064.84,880.621 35,-60.621 103.92,60 -35,60.621 z"
       style="fill:#000000;fill-opacity:1;fill-rule:nonzero;stroke:none"
       transform="matrix(0.13333333,0,0,-0.13333333,0,389.33333)" />
    <text
       id="text70"
       xml:space="preserve"
       transform="matrix(1.3333333,-9.3333333e-8,0,1.3333333,281.76667,279.73333)"><tspan
         style="font-variant:normal;font-weight:normal;font-size:10px;font-family:Arial;writing-mode:lr-tb;fill:#ffffff;fill-opacity:1;fill-rule:nonzero;stroke:none"
         x="0"
         y="0"
         id="tspan70">T</tspan><tspan
         style="font-variant:normal;font-weight:normal;font-size:10px;font-family:Arial;writing-mode:lr-tb;fill:#ffffff;fill-opacity:1;fill-rule:nonzero;stroke:none"
         x="-7.3398399"
         y="-13.8"
         id="tspan71">S</tspan></text>
    <path
       id="path71"
       d="m 1778.8,700 c 0,33.137 -26.86,60 -60,60 -33.14,0 -60,-26.863 -60,-60 0,-33.137 26.86,-60 60,-60 33.14,0 60,26.863 60,60"
       style="fill:#000000;fill-opacity:1;fill-rule:nonzero;stroke:none"
       transform="matrix(0.13333333,0,0,-0.13333333,0,389.33333)" />
    <text
       id="text71"
       xml:space="preserve"
       transform="matrix(1.3333333,-9.3333333e-8,0,1.3333333,224.72667,300.53333)"><tspan
         style="font-variant:normal;font-weight:normal;font-size:10px;font-family:Arial;writing-mode:lr-tb;fill:#ffffff;fill-opacity:1;fill-rule:nonzero;stroke:none"
         x="0"
         y="0"
         id="tspan72">E</tspan></text>
    <path
       id="path72"
       d="m 1952,400 c 0,33.137 -26.86,60 -60,60 -33.14,0 -60,-26.863 -60,-60 0,-33.137 26.86,-60 60,-60 33.14,0 60,26.863 60,60"
       style="fill:#000000;fill-opacity:1;fill-rule:nonzero;stroke:none"
       transform="matrix(0.13333333,0,0,-0.13333333,0,389.33333)" />
    <text
       id="text72"
       xml:space="preserve"
       transform="matrix(1.3333333,-9.3333333e-8,0,1.3333333,247.45333,340.53333)"><tspan
         style="font-variant:normal;font-weight:normal;font-size:10px;font-family:Arial;writing-mode:lr-tb;fill:#ffffff;fill-opacity:1;fill-rule:nonzero;stroke:none"
         x="0"
         y="0"
         id="tspan73">R</tspan></text>
    <path
       id="path73"
       d="m 1172.6,1150 c 0,33.14 -26.86,60 -60,60 -33.14,0 -60,-26.86 -60,-60 0,-33.14 26.86,-60 60,-60 33.14,0 60,26.86 60,60"
       style="fill:#000000;fill-opacity:1;fill-rule:nonzero;stroke:none"
       transform="matrix(0.13333333,0,0,-0.13333333,0,389.33333)" />
    <text
       id="text73"
       xml:space="preserve"
       transform="matrix(1.3333333,-9.3333333e-8,0,1.3333333,143.9,240.53333)"><tspan
         style="font-variant:normal;font-weight:normal;font-size:10px;font-family:Arial;writing-mode:lr-tb;fill:#ffffff;fill-opacity:1;fill-rule:nonzero;stroke:none"
         x="0"
         y="0"
         id="tspan74">Y</tspan></text>
    <path
       id="path74"
       d="m 4099.2,800 v 100 l 86.6,50 86.6,-50 V 800 l -86.6,-50 -86.6,50 m 173.2,0 v 100 l 86.6,50 86.6,-50 V 800 l -86.6,-50 -86.6,50 m 173.2,0 v 100 l 86.6,50 86.6,-50 V 800 l -86.6,-50 -86.6,50 m 173.2,0 v 100 l 86.6,50 86.6,-50 V 800 l -86.6,-50 -86.6,50 m 173.2,0 v 100 l 86.6,50 86.6,-50 V 800 l -86.6,-50 -86.6,50"
       style="fill:#b2b2b2;fill-opacity:1;fill-rule:nonzero;stroke:none"
       transform="matrix(0.13333333,0,0,-0.13333333,0,389.33333)" />
    <path
       id="path75"
       d="m 4185.8,950 v 100 l 86.6,50 86.6,-50 V 950 l -86.6,-50 -86.6,50 m 173.2,0 v 100 l 86.6,50 86.6,-50 V 950 l -86.6,-50 -86.6,50 m 173.2,0 v 100 l 86.6,50 86.6,-50 V 950 l -86.6,-50 -86.6,50 m 173.2,0 v 100 l 86.6,50 86.6,-50 V 950 l -86.6,-50 -86.6,50"
       style="fill:#b2b2b2;fill-opacity:1;fill-rule:nonzero;stroke:none"
       transform="matrix(0.13333333,0,0,-0.13333333,0,389.33333)" />
    <path
       id="path76"
       d="m 4272.4,1100 v 100 l 86.6,50 86.6,-50 v -100 l -86.6,-50 -86.6,50 m 173.2,0 v 100 l 86.6,50 86.6,-50 v -100 l -86.6,-50 -86.6,50 m 173.2,0 v 100 l 86.6,50 86.6,-50 v -100 l -86.6,-50 -86.6,50"
       style="fill:#b2b2b2;fill-opacity:1;fill-rule:nonzero;stroke:none"
       transform="matrix(0.13333333,0,0,-0.13333333,0,389.33333)" />
    <path
       id="path77"
       d="m 4359,1250 v 100 l 86.6,50 86.6,-50 v -100 l -86.6,-50 -86.6,50 m 173.2,0 v 100 l 86.6,50 86.6,-50 v -100 l -86.6,-50 -86.6,50"
       style="fill:#b2b2b2;fill-opacity:1;fill-rule:nonzero;stroke:none"
       transform="matrix(0.13333333,0,0,-0.13333333,0,389.33333)" />
    <path
       id="path78"
       d="m 4445.6,1400 v 100 l 86.6,50 86.6,-50 v -100 l -86.6,-50 -86.6,50"
       style="fill:#b2b2b2;fill-opacity:1;fill-rule:nonzero;stroke:none"
       transform="matrix(0.13333333,0,0,-0.13333333,0,389.33333)" />
    <path
       id="path79"
       d="m 3319.8,350 v 100 l 86.6,50 86.6,-50 V 350 l -86.6,-50 -86.6,50 m 173.2,0 v 100 l 86.6,50 86.6,-50 V 350 l -86.6,-50 -86.6,50 m 173.2,0 v 100 l 86.6,50 86.6,-50 V 350 l -86.6,-50 -86.6,50 m 173.2,0 v 100 l 86.6,50 86.6,-50 V 350 l -86.6,-50 -86.6,50 m 173.2,0 v 100 l 86.6,50 86.6,-50 V 350 l -86.6,-50 -86.6,50 m 173.2,0 v 100 l 86.6,50 86.6,-50 V 350 l -86.6,-50 -86.6,50 m 173.2,0 v 100 l 86.6,50 86.6,-50 V 350 l -86.6,-50 -86.6,50 m 173.2,0 v 100 l 86.6,50 86.6,-50 V 350 l -86.6,-50 -86.6,50 m 173.2,0 v 100 l 86.6,50 86.6,-50 V 350 l -86.6,-50 -86.6,50 m 173.2,0 v 100 l 86.6,50 86.6,-50 V 350 l -86.6,-50 -86.6,50 m 173.2,0 v 100 l 86.6,50 86.6,-50 V 350 l -86.6,-50 -86.6,50 m 173.2,0 v 100 l 86.6,50 86.6,-50 V 350 l -86.6,-50 -86.6,50 m 173.2,0 v 100 l 86.6,50 86.6,-50 V 350 l -86.6,-50 -86.6,50 m 173.2,0 v 100 l 86.6,50 86.6,-50 V 350 l -86.6,-50 -86.6,50"
       style="fill:none;stroke:#000000;stroke-width:4;stroke-linecap:butt;stroke-linejoin:miter;stroke-miterlimit:10;stroke-dasharray:none;stroke-opacity:1"
       transform="matrix(0.13333333,0,0,-0.13333333,0,389.33333)" />
    <path
       id="path80"
       d="m 3406.4,500 v 100 l 86.6,50 86.6,-50 V 500 l -86.6,-50 -86.6,50 m 173.2,0 v 100 l 86.6,50 86.6,-50 V 500 l -86.6,-50 -86.6,50 m 173.2,0 v 100 l 86.6,50 86.6,-50 V 500 l -86.6,-50 -86.6,50 m 173.2,0 v 100 l 86.6,50 86.6,-50 V 500 l -86.6,-50 -86.6,50 m 173.2,0 v 100 l 86.6,50 86.6,-50 V 500 l -86.6,-50 -86.6,50 m 173.2,0 v 100 l 86.6,50 86.6,-50 V 500 l -86.6,-50 -86.6,50 m 173.2,0 v 100 l 86.6,50 86.6,-50 V 500 l -86.6,-50 -86.6,50 m 173.2,0 v 100 l 86.6,50 86.6,-50 V 500 l -86.6,-50 -86.6,50 m 173.2,0 v 100 l 86.6,50 86.6,-50 V 500 l -86.6,-50 -86.6,50 m 173.2,0 v 100 l 86.6,50 86.6,-50 V 500 l -86.6,-50 -86.6,50 m 173.2,0 v 100 l 86.6,50 86.6,-50 V 500 l -86.6,-50 -86.6,50 m 173.2,0 v 100 l 86.6,50 86.6,-50 V 500 l -86.6,-50 -86.6,50 m 173.2,0 v 100 l 86.6,50 86.6,-50 V 500 l -86.6,-50 -86.6,50"
       style="fill:none;stroke:#000000;stroke-width:4;stroke-linecap:butt;stroke-linejoin:miter;stroke-miterlimit:10;stroke-dasharray:none;stroke-opacity:1"
       transform="matrix(0.13333333,0,0,-0.13333333,0,389.33333)" />
    <path
       id="path81"
       d="m 3493,650 v 100 l 86.6,50 86.6,-50 V 650 l -86.6,-50 -86.6,50 m 173.2,0 v 100 l 86.6,50 86.6,-50 V 650 l -86.6,-50 -86.6,50 m 173.2,0 v 100 l 86.6,50 86.6,-50 V 650 l -86.6,-50 -86.6,50 m 173.2,0 v 100 l 86.6,50 86.6,-50 V 650 l -86.6,-50 -86.6,50 m 173.2,0 v 100 l 86.6,50 86.6,-50 V 650 l -86.6,-50 -86.6,50 m 173.2,0 v 100 l 86.6,50 86.6,-50 V 650 l -86.6,-50 -86.6,50 m 173.2,0 v 100 l 86.6,50 86.6,-50 V 650 l -86.6,-50 -86.6,50 m 173.2,0 v 100 l 86.6,50 86.6,-50 V 650 l -86.6,-50 -86.6,50 m 173.2,0 v 100 l 86.6,50 86.6,-50 V 650 l -86.6,-50 -86.6,50 m 173.2,0 v 100 l 86.6,50 86.6,-50 V 650 l -86.6,-50 -86.6,50 m 173.2,0 v 100 l 86.6,50 86.6,-50 V 650 l -86.6,-50 -86.6,50 m 173.2,0 v 100 l 86.6,50 86.6,-50 V 650 l -86.6,-50 -86.6,50"
       style="fill:none;stroke:#000000;stroke-width:4;stroke-linecap:butt;stroke-linejoin:miter;stroke-miterlimit:10;stroke-dasharray:none;stroke-opacity:1"
       transform="matrix(0.13333333,0,0,-0.13333333,0,389.33333)" />
    <path
       id="path82"
       d="m 3579.6,800 v 100 l 86.6,50 86.6,-50 V 800 l -86.6,-50 -86.6,50 m 173.2,0 v 100 l 86.6,50 86.6,-50 V 800 l -86.6,-50 -86.6,50 m 173.2,0 v 100 l 86.6,50 86.6,-50 V 800 l -86.6,-50 -86.6,50 m 173.2,0 v 100 l 86.6,50 86.6,-50 V 800 l -86.6,-50 -86.6,50 m 173.2,0 v 100 l 86.6,50 86.6,-50 V 800 l -86.6,-50 -86.6,50 m 173.2,0 v 100 l 86.6,50 86.6,-50 V 800 l -86.6,-50 -86.6,50 m 173.2,0 v 100 l 86.6,50 86.6,-50 V 800 l -86.6,-50 -86.6,50 m 173.2,0 v 100 l 86.6,50 86.6,-50 V 800 l -86.6,-50 -86.6,50 m 173.2,0 v 100 l 86.6,50 86.6,-50 V 800 l -86.6,-50 -86.6,50 m 173.2,0 v 100 l 86.6,50 86.6,-50 V 800 l -86.6,-50 -86.6,50 m 173.2,0 v 100 l 86.6,50 86.6,-50 V 800 l -86.6,-50 -86.6,50"
       style="fill:none;stroke:#000000;stroke-width:4;stroke-linecap:butt;stroke-linejoin:miter;stroke-miterlimit:10;stroke-dasharray:none;stroke-opacity:1"
       transform="matrix(0.13333333,0,0,-0.13333333,0,389.33333)" />
    <path
       id="path83"
       d="m 3666.2,950 v 100 l 86.6,50 86.6,-50 V 950 l -86.6,-50 -86.6,50 m 173.2,0 v 100 l 86.6,50 86.6,-50 V 950 l -86.6,-50 -86.6,50 m 173.2,0 v 100 l 86.6,50 86.6,-50 V 950 l -86.6,-50 -86.6,50 m 173.2,0 v 100 l 86.6,50 86.6,-50 V 950 l -86.6,-50 -86.6,50 m 173.2,0 v 100 l 86.6,50 86.6,-50 V 950 l -86.6,-50 -86.6,50 m 173.2,0 v 100 l 86.6,50 86.6,-50 V 950 l -86.6,-50 -86.6,50 m 173.2,0 v 100 l 86.6,50 86.6,-50 V 950 l -86.6,-50 -86.6,50 m 173.2,0 v 100 l 86.6,50 86.6,-50 V 950 l -86.6,-50 -86.6,50 m 173.2,0 v 100 l 86.6,50 86.6,-50 V 950 l -86.6,-50 -86.6,50 m 173.2,0 v 100 l 86.6,50 86.6,-50 V 950 l -86.6,-50 -86.6,50"
       style="fill:none;stroke:#000000;stroke-width:4;stroke-linecap:butt;stroke-linejoin:miter;stroke-miterlimit:10;stroke-dasharray:none;stroke-opacity:1"
       transform="matrix(0.13333333,0,0,-0.13333333,0,389.33333)" />
    <path
       id="path84"
       d="m 3752.8,1100 v 100 l 86.6,50 86.6,-50 v -100 l -86.6,-50 -86.6,50 m 173.2,0 v 100 l 86.6,50 86.6,-50 v -100 l -86.6,-50 -86.6,50 m 173.2,0 v 100 l 86.6,50 86.6,-50 v -100 l -86.6,-50 -86.6,50 m 173.2,0 v 100 l 86.6,50 86.6,-50 v -100 l -86.6,-50 -86.6,50 m 173.2,0 v 100 l 86.6,50 86.6,-50 v -100 l -86.6,-50 -86.6,50 m 173.2,0 v 100 l 86.6,50 86.6,-50 v -100 l -86.6,-50 -86.6,50 m 173.2,0 v 100 l 86.6,50 86.6,-50 v -100 l -86.6,-50 -86.6,50 m 173.2,0 v 100 l 86.6,50 86.6,-50 v -100 l -86.6,-50 -86.6,50 m 173.2,0 v 100 l 86.6,50 86.6,-50 v -100 l -86.6,-50 -86.6,50"
       style="fill:none;stroke:#000000;stroke-width:4;stroke-linecap:butt;stroke-linejoin:miter;stroke-miterlimit:10;stroke-dasharray:none;stroke-opacity:1"
       transform="matrix(0.13333333,0,0,-0.13333333,0,389.33333)" />
    <path
       id="path85"
       d="m 3839.4,1250 v 100 l 86.6,50 86.6,-50 v -100 l -86.6,-50 -86.6,50 m 173.2,0 v 100 l 86.6,50 86.6,-50 v -100 l -86.6,-50 -86.6,50 m 173.2,0 v 100 l 86.6,50 86.6,-50 v -100 l -86.6,-50 -86.6,50 m 173.2,0 v 100 l 86.6,50 86.6,-50 v -100 l -86.6,-50 -86.6,50 m 173.2,0 v 100 l 86.6,50 86.6,-50 v -100 l -86.6,-50 -86.6,50 m 173.2,0 v 100 l 86.6,50 86.6,-50 v -100 l -86.6,-50 -86.6,50 m 173.2,0 v 100 l 86.6,50 86.6,-50 v -100 l -86.6,-50 -86.6,50 m 173.2,0 v 100 l 86.6,50 86.6,-50 v -100 l -86.6,-50 -86.6,50"
       style="fill:none;stroke:#000000;stroke-width:4;stroke-linecap:butt;stroke-linejoin:miter;stroke-miterlimit:10;stroke-dasharray:none;stroke-opacity:1"
       transform="matrix(0.13333333,0,0,-0.13333333,0,389.33333)" />
    <path
       id="path86"
       d="m 3926,1400 v 100 l 86.6,50 86.6,-50 v -100 l -86.6,-50 -86.6,50 m 173.2,0 v 100 l 86.6,50 86.6,-50 v -100 l -86.6,-50 -86.6,50 m 173.2,0 v 100 l 86.6,50 86.6,-50 v -100 l -86.6,-50 -86.6,50 m 173.2,0 v 100 l 86.6,50 86.6,-50 v -100 l -86.6,-50 -86.6,50 m 173.2,0 v 100 l 86.6,50 86.6,-50 v -100 l -86.6,-50 -86.6,50 m 173.2,0 v 100 l 86.6,50 86.6,-50 v -100 l -86.6,-50 -86.6,50 m 173.2,0 v 100 l 86.6,50 86.6,-50 v -100 l -86.6,-50 -86.6,50"
       style="fill:none;stroke:#000000;stroke-width:4;stroke-linecap:butt;stroke-linejoin:miter;stroke-miterlimit:10;stroke-dasharray:none;stroke-opacity:1"
       transform="matrix(0.13333333,0,0,-0.13333333,0,389.33333)" />
    <path
       id="path87"
       d="m 4012.6,1550 v 100 l 86.6,50 86.6,-50 v -100 l -86.6,-50 -86.6,50 m 173.2,0 v 100 l 86.6,50 86.6,-50 v -100 l -86.6,-50 -86.6,50 m 173.2,0 v 100 l 86.6,50 86.6,-50 v -100 l -86.6,-50 -86.6,50 m 173.2,0 v 100 l 86.6,50 86.6,-50 v -100 l -86.6,-50 -86.6,50 m 173.2,0 v 100 l 86.6,50 86.6,-50 v -100 l -86.6,-50 -86.6,50 m 173.2,0 v 100 l 86.6,50 86.6,-50 v -100 l -86.6,-50 -86.6,50"
       style="fill:none;stroke:#000000;stroke-width:4;stroke-linecap:butt;stroke-linejoin:miter;stroke-miterlimit:10;stroke-dasharray:none;stroke-opacity:1"
       transform="matrix(0.13333333,0,0,-0.13333333,0,389.33333)" />
    <path
       id="path88"
       d="m 4099.2,1700 v 100 l 86.6,50 86.6,-50 v -100 l -86.6,-50 -86.6,50 m 173.2,0 v 100 l 86.6,50 86.6,-50 v -100 l -86.6,-50 -86.6,50 m 173.2,0 v 100 l 86.6,50 86.6,-50 v -100 l -86.6,-50 -86.6,50 m 173.2,0 v 100 l 86.6,50 86.6,-50 v -100 l -86.6,-50 -86.6,50 m 173.2,0 v 100 l 86.6,50 86.6,-50 v -100 l -86.6,-50 -86.6,50"
       style="fill:none;stroke:#000000;stroke-width:4;stroke-linecap:butt;stroke-linejoin:miter;stroke-miterlimit:10;stroke-dasharray:none;stroke-opacity:1"
       transform="matrix(0.13333333,0,0,-0.13333333,0,389.33333)" />
    <path
       id="path89"
       d="m 4185.8,1850 v 100 l 86.6,50 86.6,-50 v -100 l -86.6,-50 -86.6,50 m 173.2,0 v 100 l 86.6,50 86.6,-50 v -100 l -86.6,-50 -86.6,50 m 173.2,0 v 100 l 86.6,50 86.6,-50 v -100 l -86.6,-50 -86.6,50 m 173.2,0 v 100 l 86.6,50 86.6,-50 v -100 l -86.6,-50 -86.6,50"
       style="fill:none;stroke:#000000;stroke-width:4;stroke-linecap:butt;stroke-linejoin:miter;stroke-miterlimit:10;stroke-dasharray:none;stroke-opacity:1"
       transform="matrix(0.13333333,0,0,-0.13333333,0,389.33333)" />
    <path
       id="path90"
       d="m 4272.4,2000 v 100 l 86.6,50 86.6,-50 v -100 l -86.6,-50 -86.6,50 m 173.2,0 v 100 l 86.6,50 86.6,-50 v -100 l -86.6,-50 -86.6,50 m 173.2,0 v 100 l 86.6,50 86.6,-50 v -100 l -86.6,-50 -86.6,50"
       style="fill:none;stroke:#000000;stroke-width:4;stroke-linecap:butt;stroke-linejoin:miter;stroke-miterlimit:10;stroke-dasharray:none;stroke-opacity:1"
       transform="matrix(0.13333333,0,0,-0.13333333,0,389.33333)" />
    <path
       id="path91"
       d="m 4359,2150 v 100 l 86.6,50 86.6,-50 v -100 l -86.6,-50 -86.6,50 m 173.2,0 v 100 l 86.6,50 86.6,-50 v -100 l -86.6,-50 -86.6,50"
       style="fill:none;stroke:#000000;stroke-width:4;stroke-linecap:butt;stroke-linejoin:miter;stroke-miterlimit:10;stroke-dasharray:none;stroke-opacity:1"
       transform="matrix(0.13333333,0,0,-0.13333333,0,389.33333)" />
    <path
       id="path92"
       d="m 4445.6,2300 v 100 l 86.6,50 86.6,-50 v -100 l -86.6,-50 -86.6,50"
       style="fill:none;stroke:#000000;stroke-width:4;stroke-linecap:butt;stroke-linejoin:miter;stroke-miterlimit:10;stroke-dasharray:none;stroke-opacity:1"
       transform="matrix(0.13333333,0,0,-0.13333333,0,389.33333)" />
    <path
       id="path93"
       d="m 4735.4,2401.96 -60,-103.92 m 0,0 50.98,28.3 m -50.98,-28.3 -0.98,58.3"
       style="fill:none;stroke:#000000;stroke-width:10;stroke-linecap:butt;stroke-linejoin:miter;stroke-miterlimit:10;stroke-dasharray:none;stroke-opacity:1"
       transform="matrix(0.13333333,0,0,-0.13333333,0,389.33333)" />
    <text
       id="text93"
       xml:space="preserve"
       transform="matrix(1.3333333,0,-9.3333333e-8,1.3333333,631.53067,65.701333)"><tspan
         style="font-variant:normal;font-weight:normal;font-size:14px;font-family:Arial;writing-mode:lr-tb;fill:#000000;fill-opacity:1;fill-rule:nonzero;stroke:none"
         x="0"
         y="0"
         id="tspan93">0</tspan></text>
    <path
       id="path94"
       d="m 5255,1501.96 -60,-103.92 m 0,0 50.98,28.3 m -50.98,-28.3 -0.98,58.3"
       style="fill:none;stroke:#000000;stroke-width:10;stroke-linecap:butt;stroke-linejoin:miter;stroke-miterlimit:10;stroke-dasharray:none;stroke-opacity:1"
       transform="matrix(0.13333333,0,0,-0.13333333,0,389.33333)" />
    <text
       id="text94"
       xml:space="preserve"
       transform="matrix(1.3333333,0,-9.3333333e-8,1.3333333,700.81067,185.70133)"><tspan
         style="font-variant:normal;font-weight:normal;font-size:14px;font-family:Arial;writing-mode:lr-tb;fill:#000000;fill-opacity:1;fill-rule:nonzero;stroke:none"
         x="0"
         y="0"
         id="tspan94">3</tspan></text>
    <path
       id="path95"
       d="m 3606.2,1150 h 120 m 0,0 -50,30 m 50,-30 -50,-30"
       style="fill:none;stroke:#000000;stroke-width:10;stroke-linecap:butt;stroke-linejoin:miter;stroke-miterlimit:10;stroke-dasharray:none;stroke-opacity:1"
       transform="matrix(0.13333333,0,0,-0.13333333,0,389.33333)" />
    <text
       id="text95"
       xml:space="preserve"
       transform="matrix(1.3333333,0,0,1.3333333,464.97067,241.86667)"><tspan
         style="font-variant:normal;font-weight:normal;font-size:14px;font-family:Arial;writing-mode:lr-tb;fill:#000000;fill-opacity:1;fill-rule:nonzero;stroke:none"
         x="0"
         y="0"
         id="tspan95">4</tspan></text>
    <path
       id="path96"
       d="m 3692.8,1300 h 120 m 0,0 -50,30 m 50,-30 -50,-30"
       style="fill:none;stroke:#000000;stroke-width:10;stroke-linecap:butt;stroke-linejoin:miter;stroke-miterlimit:10;stroke-dasharray:none;stroke-opacity:1"
       transform="matrix(0.13333333,0,0,-0.13333333,0,389.33333)" />
    <text
       id="text96"
       xml:space="preserve"
       transform="matrix(1.3333333,0,0,1.3333333,476.51733,221.86667)"><tspan
         style="font-variant:normal;font-weight:normal;font-size:14px;font-family:Arial;writing-mode:lr-tb;fill:#000000;fill-opacity:1;fill-rule:nonzero;stroke:none"
         x="0"
         y="0"
         id="tspan96">3</tspan></text>
    <path
       id="path97"
       d="m 3779.4,1450 h 120 m 0,0 -50,30 m 50,-30 -50,-30"
       style="fill:none;stroke:#000000;stroke-width:10;stroke-linecap:butt;stroke-linejoin:miter;stroke-miterlimit:10;stroke-dasharray:none;stroke-opacity:1"
       transform="matrix(0.13333333,0,0,-0.13333333,0,389.33333)" />
    <text
       id="text97"
       xml:space="preserve"
       transform="matrix(1.3333333,0,0,1.3333333,488.064,201.86667)"><tspan
         style="font-variant:normal;font-weight:normal;font-size:14px;font-family:Arial;writing-mode:lr-tb;fill:#000000;fill-opacity:1;fill-rule:nonzero;stroke:none"
         x="0"
         y="0"
         id="tspan97">2</tspan></text>
    <path
       id="path98"
       d="m 3866,1600 h 120 m 0,0 -50,30 m 50,-30 -50,-30"
       style="fill:none;stroke:#000000;stroke-width:10;stroke-linecap:butt;stroke-linejoin:miter;stroke-miterlimit:10;stroke-dasharray:none;stroke-opacity:1"
       transform="matrix(0.13333333,0,0,-0.13333333,0,389.33333)" />
    <text
       id="text98"
       xml:space="preserve"
       transform="matrix(1.3333333,0,0,1.3333333,499.61067,181.86667)"><tspan
         style="font-variant:normal;font-weight:normal;font-size:14px;font-family:Arial;writing-mode:lr-tb;fill:#000000;fill-opacity:1;fill-rule:nonzero;stroke:none"
         x="0"
         y="0"
         id="tspan98">1</tspan></text>
    <path
       id="path99"
       d="m 4735.4,198.039 -60,103.922 m 0,0 -0.98,-58.301 m 0.98,58.301 50.98,-28.301"
       style="fill:none;stroke:#000000;stroke-width:10;stroke-linecap:butt;stroke-linejoin:miter;stroke-miterlimit:10;stroke-dasharray:none;stroke-opacity:1"
       transform="matrix(0.13333333,0,0,-0.13333333,0,389.33333)" />
    <text
       id="text99"
       xml:space="preserve"
       transform="matrix(1.3333333,-9.3333333e-8,0,1.3333333,629.98133,378.03229)"><tspan
         style="font-variant:normal;font-weight:normal;font-size:14px;font-family:Arial;writing-mode:lr-tb;fill:#000000;fill-opacity:1;fill-rule:nonzero;stroke:none"
         x="0"
         y="0"
         id="tspan99">R</tspan></text>
    <path
       id="path100"
       d="m 4908.6,198.039 -60,103.922 m 0,0 -0.98,-58.301 m 0.98,58.301 50.98,-28.301"
       style="fill:none;stroke:#000000;stroke-width:10;stroke-linecap:butt;stroke-linejoin:miter;stroke-miterlimit:10;stroke-dasharray:none;stroke-opacity:1"
       transform="matrix(0.13333333,0,0,-0.13333333,0,389.33333)" />
    <text
       id="text100"
       xml:space="preserve"
       transform="matrix(1.3333333,-9.3333333e-8,0,1.3333333,653.07467,378.03229)"><tspan
         style="font-variant:normal;font-weight:normal;font-size:14px;font-family:Arial;writing-mode:lr-tb;fill:#000000;fill-opacity:1;fill-rule:nonzero;stroke:none"
         x="0"
         y="0"
         id="tspan100">R</tspan></text>
    <path
       id="path101"
       d="m 5081.8,198.039 -60,103.922 m 0,0 -0.98,-58.301 m 0.98,58.301 50.98,-28.301"
       style="fill:none;stroke:#000000;stroke-width:10;stroke-linecap:butt;stroke-linejoin:miter;stroke-miterlimit:10;stroke-dasharray:none;stroke-opacity:1"
       transform="matrix(0.13333333,0,0,-0.13333333,0,389.33333)" />
    <text
       id="text101"
       xml:space="preserve"
       transform="matrix(1.3333333,-9.3333333e-8,0,1.3333333,673.57333,378.03229)"><tspan
         style="font-variant:normal;font-weight:normal;font-size:14px;font-family:Arial;writing-mode:lr-tb;fill:#000000;fill-opacity:1;fill-rule:nonzero;stroke:none"
         x="0 10.108 14"
         y="0"
         id="tspan101">R!!</tspan></text>
    <path
       id="path102"
       d="m 4908.6,198.039 -60,103.922 m 0,0 -0.98,-58.301 m 0.98,58.301 50.98,-28.301"
       style="fill:none;stroke:#000000;stroke-width:10;stroke-linecap:butt;stroke-linejoin:miter;stroke-miterlimit:10;stroke-dasharray:none;stroke-opacity:1"
       transform="matrix(0.13333333,0,0,-0.13333333,0,389.33333)" />
    <text
       id="text102"
       xml:space="preserve"
       transform="matrix(1.3333333,-9.3333333e-8,0,1.3333333,628.67733,378.03229)"><tspan
         style="font-variant:normal;font-weight:normal;font-size:14px;font-family:Arial;writing-mode:lr-tb;fill:#000000;fill-opacity:1;fill-rule:nonzero;stroke:none"
         x="0 7.7839999 15.568 23.351999 31.136 38.919998 46.703999"
         y="0"
         id="tspan102">_______</tspan></text>
    <path
       id="path103"
       d="m 3982.6,1801.96 60,-103.92 m 0,0 0.98,58.3 m -0.98,-58.3 -50.98,28.3"
       style="fill:none;stroke:#000000;stroke-width:10;stroke-linecap:butt;stroke-linejoin:miter;stroke-miterlimit:10;stroke-dasharray:none;stroke-opacity:1"
       transform="matrix(0.13333333,0,0,-0.13333333,0,389.33333)" />
    <text
       id="text103"
       xml:space="preserve"
       transform="matrix(1.3333333,-9.3333333e-8,0,1.3333333,520.49067,145.70133)"><tspan
         style="font-variant:normal;font-weight:normal;font-size:14px;font-family:Arial;writing-mode:lr-tb;fill:#000000;fill-opacity:1;fill-rule:nonzero;stroke:none"
         x="0"
         y="0"
         id="tspan103">1</tspan></text>
    <path
       id="path104"
       d="m 3869.4,1201.96 c -28.7,16.57 -65.4,6.74 -81.96,-21.96 -16.57,-28.7 -6.74,-65.39 21.96,-81.96 28.7,-16.57 65.4,-6.74 81.96,21.96 16.57,28.7 6.74,65.39 -21.96,81.96"
       style="fill:#000000;fill-opacity:1;fill-rule:nonzero;stroke:none"
       transform="matrix(0.13333333,0,0,-0.13333333,0,389.33333)" />
    <path
       id="path105"
       d="m 3891.36,1120 35,60.62 -103.92,60 -35,-60.62 z"
       style="fill:#000000;fill-opacity:1;fill-rule:nonzero;stroke:none"
       transform="matrix(0.13333333,0,0,-0.13333333,0,389.33333)" />
    <path
       id="path106"
       d="m 3956,1351.96 c -28.7,16.56 -65.39,6.73 -81.96,-21.96 -16.57,-28.7 -6.74,-65.4 21.96,-81.96 28.7,-16.57 65.39,-6.74 81.96,21.96 16.57,28.69 6.74,65.39 -21.96,81.96"
       style="fill:#000000;fill-opacity:1;fill-rule:nonzero;stroke:none"
       transform="matrix(0.13333333,0,0,-0.13333333,0,389.33333)" />
    <path
       id="path107"
       d="m 3942.96,1209.38 35,60.62 -103.92,60 -35,-60.62 z"
       style="fill:#000000;fill-opacity:1;fill-rule:nonzero;stroke:none"
       transform="matrix(0.13333333,0,0,-0.13333333,0,389.33333)" />
    <text
       id="text107"
       xml:space="preserve"
       transform="matrix(1.3333333,0,-9.3333333e-8,1.3333333,516.84667,221.33333)"><tspan
         style="font-variant:normal;font-weight:normal;font-size:10px;font-family:Arial;writing-mode:lr-tb;fill:#ffffff;fill-opacity:1;fill-rule:nonzero;stroke:none"
         x="0"
         y="0"
         id="tspan107">M</tspan><tspan
         style="font-variant:normal;font-weight:normal;font-size:10px;font-family:Arial;writing-mode:lr-tb;fill:#ffffff;fill-opacity:1;fill-rule:nonzero;stroke:none"
         x="-6.2300801"
         y="13.8"
         id="tspan108">Y</tspan></text>
    <path
       id="path108"
       d="m 4129.2,1651.96 c -28.7,16.56 -65.4,6.73 -81.96,-21.96 -16.57,-28.7 -6.74,-65.4 21.96,-81.96 28.69,-16.57 65.39,-6.74 81.96,21.96 16.57,28.69 6.73,65.39 -21.96,81.96"
       style="fill:#000000;fill-opacity:1;fill-rule:nonzero;stroke:none"
       transform="matrix(0.13333333,0,0,-0.13333333,0,389.33333)" />
    <path
       id="path109"
       d="m 4151.16,1570 35,60.62 -103.92,60 -35,-60.62 z"
       style="fill:#000000;fill-opacity:1;fill-rule:nonzero;stroke:none"
       transform="matrix(0.13333333,0,0,-0.13333333,0,389.33333)" />
    <path
       id="path110"
       d="m 4202.76,1659.37 70,121.24 -103.92,60 -70,-121.24 z"
       style="fill:#000000;fill-opacity:1;fill-rule:nonzero;stroke:none"
       transform="matrix(0.13333333,0,0,-0.13333333,0,389.33333)" />
    <path
       id="path111"
       d="m 4302.4,1951.95 c -28.7,16.57 -65.4,6.73 -81.96,-21.96 -16.57,-28.7 -6.74,-65.4 21.96,-81.97 28.7,-16.56 65.4,-6.73 81.96,21.97 16.57,28.69 6.74,65.39 -21.96,81.96"
       style="fill:#000000;fill-opacity:1;fill-rule:nonzero;stroke:none"
       transform="matrix(0.13333333,0,0,-0.13333333,0,389.33333)" />
    <path
       id="path112"
       d="m 4289.36,1809.36 35,60.63 -103.92,60 -35,-60.63 z"
       style="fill:#000000;fill-opacity:1;fill-rule:nonzero;stroke:none"
       transform="matrix(0.13333333,0,0,-0.13333333,0,389.33333)" />
    <text
       id="text112"
       xml:space="preserve"
       transform="matrix(1.3333333,0,-9.3333333e-8,1.3333333,564.14,141.33467)"><tspan
         style="font-variant:normal;font-weight:normal;font-size:10px;font-family:Arial;writing-mode:lr-tb;fill:#ffffff;fill-opacity:1;fill-rule:nonzero;stroke:none"
         x="0"
         y="0"
         id="tspan112">V</tspan><tspan
         style="font-variant:normal;font-weight:normal;font-size:10px;font-family:Arial;writing-mode:lr-tb;fill:#ffffff;fill-opacity:1;fill-rule:nonzero;stroke:none"
         x="-8.4148397"
         y="14.4"
         id="tspan113">O</tspan><tspan
         style="font-variant:normal;font-weight:normal;font-size:10px;font-family:Arial;writing-mode:lr-tb;fill:#ffffff;fill-opacity:1;fill-rule:nonzero;stroke:none"
         x="-15.99492"
         y="28.799999"
         id="tspan114">R</tspan></text>
    <path
       id="path114"
       d="m 4389,1398.02 c 28.7,16.57 38.53,53.27 21.96,81.97 -16.57,28.69 -53.26,38.53 -81.96,21.96 -28.7,-16.57 -38.53,-53.27 -21.96,-81.96 16.57,-28.7 53.26,-38.53 81.96,-21.97"
       style="fill:#000000;fill-opacity:1;fill-rule:nonzero;stroke:none"
       transform="matrix(0.13333333,0,0,-0.13333333,0,389.33333)" />
    <path
       id="path115"
       d="m 4307.04,1419.99 35,-60.63 103.92,60 -35,60.63 z"
       style="fill:#000000;fill-opacity:1;fill-rule:nonzero;stroke:none"
       transform="matrix(0.13333333,0,0,-0.13333333,0,389.33333)" />
    <path
       id="path116"
       d="m 4358.64,1330.61 70,-121.24 103.92,60 -70,121.24 z"
       style="fill:#000000;fill-opacity:1;fill-rule:nonzero;stroke:none"
       transform="matrix(0.13333333,0,0,-0.13333333,0,389.33333)" />
    <path
       id="path117"
       d="m 4562.2,1098.04 c 28.69,16.56 38.53,53.26 21.96,81.96 -16.57,28.69 -53.27,38.52 -81.96,21.96 -28.7,-16.57 -38.53,-53.27 -21.96,-81.96 16.56,-28.7 53.26,-38.53 81.96,-21.96"
       style="fill:#000000;fill-opacity:1;fill-rule:nonzero;stroke:none"
       transform="matrix(0.13333333,0,0,-0.13333333,0,389.33333)" />
    <path
       id="path118"
       d="m 4445.24,1180.62 35,-60.62 103.92,60 -35,60.62 z"
       style="fill:#000000;fill-opacity:1;fill-rule:nonzero;stroke:none"
       transform="matrix(0.13333333,0,0,-0.13333333,0,389.33333)" />
    <text
       id="text118"
       xml:space="preserve"
       transform="matrix(1.3333333,-9.3333333e-8,0,1.3333333,598.78,239.73333)"><tspan
         style="font-variant:normal;font-weight:normal;font-size:10px;font-family:Arial;writing-mode:lr-tb;fill:#ffffff;fill-opacity:1;fill-rule:nonzero;stroke:none"
         x="0"
         y="0"
         id="tspan118">P</tspan><tspan
         style="font-variant:normal;font-weight:normal;font-size:10px;font-family:Arial;writing-mode:lr-tb;fill:#ffffff;fill-opacity:1;fill-rule:nonzero;stroke:none"
         x="-8.1351604"
         y="-14.4"
         id="tspan119">A</tspan><tspan
         style="font-variant:normal;font-weight:normal;font-size:10px;font-family:Arial;writing-mode:lr-tb;fill:#ffffff;fill-opacity:1;fill-rule:nonzero;stroke:none"
         x="-15.99532"
         y="-28.799999"
         id="tspan120">R</tspan></text>
    <path
       id="path120"
       d="m 5081.8,1398.04 c 28.7,16.56 38.53,53.26 21.96,81.96 -16.56,28.69 -53.26,38.52 -81.96,21.96 -28.7,-16.57 -38.53,-53.27 -21.96,-81.96 16.56,-28.7 53.26,-38.53 81.96,-21.96"
       style="fill:#000000;fill-opacity:1;fill-rule:nonzero;stroke:none"
       transform="matrix(0.13333333,0,0,-0.13333333,0,389.33333)" />
    <path
       id="path121"
       d="m 4999.84,1420 35,-60.62 103.92,60 -35,60.62 z"
       style="fill:#000000;fill-opacity:1;fill-rule:nonzero;stroke:none"
       transform="matrix(0.13333333,0,0,-0.13333333,0,389.33333)" />
    <path
       id="path122"
       d="m 5051.44,1330.62 70,-121.24 103.92,60 -70,121.24 z"
       style="fill:#000000;fill-opacity:1;fill-rule:nonzero;stroke:none"
       transform="matrix(0.13333333,0,0,-0.13333333,0,389.33333)" />
    <path
       id="path123"
       d="m 5255,1098.04 c 28.7,16.57 38.53,53.27 21.96,81.96 -16.57,28.7 -53.26,38.53 -81.96,21.96 -28.7,-16.56 -38.53,-53.26 -21.96,-81.96 16.57,-28.69 53.26,-38.52 81.96,-21.96"
       style="fill:#000000;fill-opacity:1;fill-rule:nonzero;stroke:none"
       transform="matrix(0.13333333,0,0,-0.13333333,0,389.33333)" />
    <path
       id="path124"
       d="m 5138.04,1180.63 35,-60.63 103.92,60 -35,60.63 z"
       style="fill:#000000;fill-opacity:1;fill-rule:nonzero;stroke:none"
       transform="matrix(0.13333333,0,0,-0.13333333,0,389.33333)" />
    <text
       id="text124"
       xml:space="preserve"
       transform="matrix(1.3333333,-9.3333333e-8,0,1.3333333,691.52667,239.73333)"><tspan
         style="font-variant:normal;font-weight:normal;font-size:10px;font-family:Arial;writing-mode:lr-tb;fill:#ffffff;fill-opacity:1;fill-rule:nonzero;stroke:none"
         x="0"
         y="0"
         id="tspan124">T</tspan><tspan
         style="font-variant:normal;font-weight:normal;font-size:10px;font-family:Arial;writing-mode:lr-tb;fill:#ffffff;fill-opacity:1;fill-rule:nonzero;stroke:none"
         x="-8.1398401"
         y="-14.4"
         id="tspan125">E</tspan><tspan
         style="font-variant:normal;font-weight:normal;font-size:10px;font-family:Arial;writing-mode:lr-tb;fill:#ffffff;fill-opacity:1;fill-rule:nonzero;stroke:none"
         x="-16"
         y="-28.799999"
         id="tspan126">X</tspan></text>
    <path
       id="path126"
       d="m 4822,1248.04 c 28.7,16.57 38.53,53.27 21.96,81.96 -16.57,28.7 -53.26,38.53 -81.96,21.96 -28.7,-16.56 -38.53,-53.26 -21.96,-81.96 16.57,-28.69 53.26,-38.52 81.96,-21.96"
       style="fill:#000000;fill-opacity:1;fill-rule:nonzero;stroke:none"
       transform="matrix(0.13333333,0,0,-0.13333333,0,389.33333)" />
    <path
       id="path127"
       d="m 4740.04,1270 35,-60.62 103.92,60 -35,60.62 z"
       style="fill:#000000;fill-opacity:1;fill-rule:nonzero;stroke:none"
       transform="matrix(0.13333333,0,0,-0.13333333,0,389.33333)" />
    <path
       id="path128"
       d="m 4908.6,1098.05 c 28.7,16.56 38.53,53.26 21.96,81.96 -16.56,28.69 -53.26,38.53 -81.96,21.96 -28.7,-16.57 -38.53,-53.27 -21.96,-81.96 16.56,-28.7 53.26,-38.53 81.96,-21.96"
       style="fill:#000000;fill-opacity:1;fill-rule:nonzero;stroke:none"
       transform="matrix(0.13333333,0,0,-0.13333333,0,389.33333)" />
    <path
       id="path129"
       d="m 4791.64,1180.63 35,-60.62 103.92,60 -35,60.62 z"
       style="fill:#000000;fill-opacity:1;fill-rule:nonzero;stroke:none"
       transform="matrix(0.13333333,0,0,-0.13333333,0,389.33333)" />
    <text
       id="text129"
       xml:space="preserve"
       transform="matrix(1.3333333,-9.3333333e-8,0,1.3333333,645.34,239.732)"><tspan
         style="font-variant:normal;font-weight:normal;font-size:10px;font-family:Arial;writing-mode:lr-tb;fill:#ffffff;fill-opacity:1;fill-rule:nonzero;stroke:none"
         x="0"
         y="0"
         id="tspan129">T</tspan><tspan
         style="font-variant:normal;font-weight:normal;font-size:10px;font-family:Arial;writing-mode:lr-tb;fill:#ffffff;fill-opacity:1;fill-rule:nonzero;stroke:none"
         x="-7.34023"
         y="-13.8"
         id="tspan130">S</tspan></text>
    <path
       id="path130"
       d="m 4852,700.008 c 0,33.137 -26.86,60 -60,60 -33.14,0 -60,-26.863 -60,-60 0,-33.137 26.86,-60 60,-60 33.14,0 60,26.863 60,60"
       style="fill:#000000;fill-opacity:1;fill-rule:nonzero;stroke:none"
       transform="matrix(0.13333333,0,0,-0.13333333,0,389.33333)" />
    <text
       id="text130"
       xml:space="preserve"
       transform="matrix(1.3333333,-9.3333333e-8,0,1.3333333,634.48667,300.53227)"><tspan
         style="font-variant:normal;font-weight:normal;font-size:10px;font-family:Arial;writing-mode:lr-tb;fill:#ffffff;fill-opacity:1;fill-rule:nonzero;stroke:none"
         x="0"
         y="0"
         id="tspan131">E</tspan></text>
    <path
       id="path131"
       d="m 4678.8,400.008 c 0,33.137 -26.86,60 -60,60 -33.14,0 -60,-26.863 -60,-60 0,-33.137 26.86,-60 60,-60 33.14,0 60,26.863 60,60"
       style="fill:#000000;fill-opacity:1;fill-rule:nonzero;stroke:none"
       transform="matrix(0.13333333,0,0,-0.13333333,0,389.33333)" />
    <text
       id="text131"
       xml:space="preserve"
       transform="matrix(1.3333333,-9.3333333e-8,0,1.3333333,611.02667,340.53227)"><tspan
         style="font-variant:normal;font-weight:normal;font-size:10px;font-family:Arial;writing-mode:lr-tb;fill:#ffffff;fill-opacity:1;fill-rule:nonzero;stroke:none"
         x="0"
         y="0"
         id="tspan132">R</tspan></text>
    <path
       id="path132"
       d="m 4245.8,1150.01 c 0,33.13 -26.86,60 -60,60 -33.14,0 -60,-26.87 -60,-60 0,-33.14 26.86,-60 60,-60 33.14,0 60,26.86 60,60"
       style="fill:#000000;fill-opacity:1;fill-rule:nonzero;stroke:none"
       transform="matrix(0.13333333,0,0,-0.13333333,0,389.33333)" />
    <text
       id="text132"
       xml:space="preserve"
       transform="matrix(1.3333333,-9.3333333e-8,0,1.3333333,553.66,240.532)"><tspan
         style="font-variant:normal;font-weight:normal;font-size:10px;font-family:Arial;writing-mode:lr-tb;fill:#ffffff;fill-opacity:1;fill-rule:nonzero;stroke:none"
         x="0"
         y="0"
         id="tspan133">Y</tspan></text>
    <path
       id="path133"
       d="m 5135.8,2450.01 c 0,27.61 -22.39,50 -50,50 -27.61,0 -50,-22.39 -50,-50 0,-27.62 22.39,-50 50,-50 27.61,0 50,22.38 50,50"
       style="fill:#ffffff;fill-opacity:1;fill-rule:nonzero;stroke:#000000;stroke-width:10;stroke-linecap:butt;stroke-linejoin:miter;stroke-miterlimit:10;stroke-dasharray:none;stroke-opacity:1"
       transform="matrix(0.13333333,0,0,-0.13333333,0,389.33333)" />
    <path
       id="path134"
       d="m 5109.8,2450.01 h -48"
       style="fill:none;stroke:#000000;stroke-width:10;stroke-linecap:butt;stroke-linejoin:miter;stroke-miterlimit:10;stroke-dasharray:none;stroke-opacity:1"
       transform="matrix(0.13333333,0,0,-0.13333333,0,389.33333)" />
    <path
       id="path135"
       d="m 5085.8,2474.01 v -48"
       style="fill:none;stroke:#000000;stroke-width:10;stroke-linecap:butt;stroke-linejoin:miter;stroke-miterlimit:10;stroke-dasharray:none;stroke-opacity:1"
       transform="matrix(0.13333333,0,0,-0.13333333,0,389.33333)" />
    <path
       id="path136"
       d="m 5319,2450.01 c 0,33.13 -26.86,60 -60,60 -33.14,0 -60,-26.87 -60,-60 0,-33.14 26.86,-60 60,-60 33.14,0 60,26.86 60,60"
       style="fill:#000000;fill-opacity:1;fill-rule:nonzero;stroke:none"
       transform="matrix(0.13333333,0,0,-0.13333333,0,389.33333)" />
    <path
       id="path137"
       d="m 5259,2390.01 h 70 v 120 h -70 z"
       style="fill:#000000;fill-opacity:1;fill-rule:nonzero;stroke:none"
       transform="matrix(0.13333333,0,0,-0.13333333,0,389.33333)" />
    <text
       id="text137"
       xml:space="preserve"
       transform="matrix(1.3333333,-9.3333333e-8,0,1.3333333,697.82,67.198667)"><tspan
         style="font-variant:normal;font-weight:normal;font-size:10px;font-family:Arial;writing-mode:lr-tb;fill:#ffffff;fill-opacity:1;fill-rule:nonzero;stroke:none"
         x="0"
         y="0"
         id="tspan137">P</tspan></text>
    <path
       id="path138"
       d="m 5362.2,2390.01 h 140 v 120 h -140 z"
       style="fill:#000000;fill-opacity:1;fill-rule:nonzero;stroke:none"
       transform="matrix(0.13333333,0,0,-0.13333333,0,389.33333)" />
    <text
       id="text138"
       xml:space="preserve"
       transform="matrix(1.3333333,-9.3333333e-8,0,1.3333333,719.48,67.198667)"><tspan
         style="font-variant:normal;font-weight:normal;font-size:10px;font-family:Arial;writing-mode:lr-tb;fill:#ffffff;fill-opacity:1;fill-rule:nonzero;stroke:none"
         x="0"
         y="0"
         id="tspan138">A</tspan></text>
    <path
       id="path139"
       d="m 5665.4,2450.01 c 0,33.13 -26.86,60 -60,60 -33.14,0 -60,-26.87 -60,-60 0,-33.14 26.86,-60 60,-60 33.14,0 60,26.86 60,60"
       style="fill:#000000;fill-opacity:1;fill-rule:nonzero;stroke:none"
       transform="matrix(0.13333333,0,0,-0.13333333,0,389.33333)" />
    <path
       id="path140"
       d="m 5535.4,2390.01 h 70 v 120 h -70 z"
       style="fill:#000000;fill-opacity:1;fill-rule:nonzero;stroke:none"
       transform="matrix(0.13333333,0,0,-0.13333333,0,389.33333)" />
    <text
       id="text140"
       xml:space="preserve"
       transform="matrix(1.3333333,-9.3333333e-8,0,1.3333333,741.50667,67.198667)"><tspan
         style="font-variant:normal;font-weight:normal;font-size:10px;font-family:Arial;writing-mode:lr-tb;fill:#ffffff;fill-opacity:1;fill-rule:nonzero;stroke:none"
         x="0"
         y="0"
         id="tspan140">R</tspan></text>
  </g>
</svg>
