<?xml version="1.0" encoding="UTF-8" standalone="no"?>
<!-- Created with Inkscape (http://www.inkscape.org/) -->

<svg
   version="1.1"
   id="svg1"
   width="526.66669"
   height="249.33333"
   viewBox="0 0 526.66669 249.33333"
   xmlns="http://www.w3.org/2000/svg"
   xmlns:svg="http://www.w3.org/2000/svg">
  <defs
     id="defs1" />
  <g
     id="g1">
    <path
       id="path1"
       d="m 220,1650 c 0,33.14 -26.863,60 -60,60 -33.137,0 -60,-26.86 -60,-60 0,-33.14 26.863,-60 60,-60 33.137,0 60,26.86 60,60"
       style="fill:#000000;fill-opacity:1;fill-rule:nonzero;stroke:none"
       transform="matrix(0.13333333,0,0,-0.13333333,0,249.33333)" />
    <path
       id="path2"
       d="m 160,1590 h 69.9961 v 120 H 160 Z"
       style="fill:#000000;fill-opacity:1;fill-rule:nonzero;stroke:none"
       transform="matrix(0.13333333,0,0,-0.13333333,0,249.33333)" />
    <text
       id="text2"
       xml:space="preserve"
       transform="matrix(1.3333333,0,0,1.3333333,18.224533,33.333333)"><tspan
         style="font-variant:normal;font-weight:normal;font-size:8px;font-family:Arial;writing-mode:lr-tb;fill:#ffffff;fill-opacity:1;fill-rule:nonzero;stroke:none"
         x="0"
         y="0"
         id="tspan2">M</tspan></text>
    <path
       id="path3"
       d="m 263.203,1590 h 139.992 v 120 H 263.203 Z"
       style="fill:#000000;fill-opacity:1;fill-rule:nonzero;stroke:none"
       transform="matrix(0.13333333,0,0,-0.13333333,0,249.33333)" />
    <text
       id="text3"
       xml:space="preserve"
       transform="matrix(1.3333333,0,0,1.3333333,42.944267,33.333333)"><tspan
         style="font-variant:normal;font-weight:normal;font-size:8px;font-family:Arial;writing-mode:lr-tb;fill:#ffffff;fill-opacity:1;fill-rule:nonzero;stroke:none"
         x="0"
         y="0"
         id="tspan3">I</tspan></text>
    <path
       id="path4"
       d="m 566.398,1650 c 0,33.14 -26.863,60 -60,60 -33.136,0 -60,-26.86 -60,-60 0,-33.14 26.864,-60 60,-60 33.137,0 60,26.86 60,60"
       style="fill:#000000;fill-opacity:1;fill-rule:nonzero;stroke:none"
       transform="matrix(0.13333333,0,0,-0.13333333,0,249.33333)" />
    <path
       id="path5"
       d="m 436.402,1590 h 69.9961 v 120 H 436.402 Z"
       style="fill:#000000;fill-opacity:1;fill-rule:nonzero;stroke:none"
       transform="matrix(0.13333333,0,0,-0.13333333,0,249.33333)" />
    <text
       id="text5"
       xml:space="preserve"
       transform="matrix(1.3333333,0,0,1.3333333,62.928133,33.333333)"><tspan
         style="font-variant:normal;font-weight:normal;font-size:8px;font-family:Arial;writing-mode:lr-tb;fill:#ffffff;fill-opacity:1;fill-rule:nonzero;stroke:none"
         x="0"
         y="0"
         id="tspan5">T</tspan></text>
    <path
       id="path6"
       d="m 220,1450 c 0,33.14 -26.863,60 -60,60 -33.137,0 -60,-26.86 -60,-60 0,-33.14 26.863,-60 60,-60 33.137,0 60,26.86 60,60"
       style="fill:#000000;fill-opacity:1;fill-rule:nonzero;stroke:none"
       transform="matrix(0.13333333,0,0,-0.13333333,0,249.33333)" />
    <path
       id="path7"
       d="m 160,1390 h 69.9961 v 120 H 160 Z"
       style="fill:#000000;fill-opacity:1;fill-rule:nonzero;stroke:none"
       transform="matrix(0.13333333,0,0,-0.13333333,0,249.33333)" />
    <text
       id="text7"
       xml:space="preserve"
       transform="matrix(1.3333333,0,0,1.3333333,19.109333,60)"><tspan
         style="font-variant:normal;font-weight:normal;font-size:8px;font-family:Arial;writing-mode:lr-tb;fill:#ffffff;fill-opacity:1;fill-rule:nonzero;stroke:none"
         x="0"
         y="0"
         id="tspan7">S</tspan></text>
    <path
       id="path8"
       d="m 393.199,1450 c 0,33.14 -26.863,60 -60,60 -33.136,0 -60,-26.86 -60,-60 0,-33.14 26.864,-60 60,-60 33.137,0 60,26.86 60,60"
       style="fill:#000000;fill-opacity:1;fill-rule:nonzero;stroke:none"
       transform="matrix(0.13333333,0,0,-0.13333333,0,249.33333)" />
    <path
       id="path9"
       d="m 263.203,1390 h 69.9961 v 120 H 263.203 Z"
       style="fill:#000000;fill-opacity:1;fill-rule:nonzero;stroke:none"
       transform="matrix(0.13333333,0,0,-0.13333333,0,249.33333)" />
    <text
       id="text9"
       xml:space="preserve"
       transform="matrix(1.3333333,0,0,1.3333333,39.242667,60)"><tspan
         style="font-variant:normal;font-weight:normal;font-size:8px;font-family:Arial;writing-mode:lr-tb;fill:#ffffff;fill-opacity:1;fill-rule:nonzero;stroke:none"
         x="0"
         y="0"
         id="tspan9">A</tspan></text>
    <path
       id="path10"
       d="m 220,1250 c 0,33.14 -26.863,60 -60,60 -33.137,0 -60,-26.86 -60,-60 0,-33.14 26.863,-60 60,-60 33.137,0 60,26.86 60,60"
       style="fill:#000000;fill-opacity:1;fill-rule:nonzero;stroke:none"
       transform="matrix(0.13333333,0,0,-0.13333333,0,249.33333)" />
    <text
       id="text10"
       xml:space="preserve"
       transform="matrix(1.3333333,0,0,1.3333333,19.851067,86.666667)"><tspan
         style="font-variant:normal;font-weight:normal;font-size:8px;font-family:Arial;writing-mode:lr-tb;fill:#ffffff;fill-opacity:1;fill-rule:nonzero;stroke:none"
         x="0"
         y="0"
         id="tspan10">I</tspan></text>
    <path
       id="path11"
       d="m 420,1250 c 0,33.14 -26.863,60 -60,60 -33.137,0 -60,-26.86 -60,-60 0,-33.14 26.863,-60 60,-60 33.137,0 60,26.86 60,60"
       style="fill:#000000;fill-opacity:1;fill-rule:nonzero;stroke:none"
       transform="matrix(0.13333333,0,0,-0.13333333,0,249.33333)" />
    <text
       id="text11"
       xml:space="preserve"
       transform="matrix(1.3333333,0,0,1.3333333,44.7416,86.666667)"><tspan
         style="font-variant:normal;font-weight:normal;font-size:8px;font-family:Arial;writing-mode:lr-tb;fill:#ffffff;fill-opacity:1;fill-rule:nonzero;stroke:none"
         x="0"
         y="0"
         id="tspan11">L</tspan></text>
    <path
       id="path12"
       d="m 620,1250 c 0,33.14 -26.863,60 -60,60 -33.137,0 -60,-26.86 -60,-60 0,-33.14 26.863,-60 60,-60 33.137,0 60,26.86 60,60"
       style="fill:#000000;fill-opacity:1;fill-rule:nonzero;stroke:none"
       transform="matrix(0.13333333,0,0,-0.13333333,0,249.33333)" />
    <text
       id="text12"
       xml:space="preserve"
       transform="matrix(1.3333333,0,0,1.3333333,71.109333,86.666667)"><tspan
         style="font-variant:normal;font-weight:normal;font-size:8px;font-family:Arial;writing-mode:lr-tb;fill:#ffffff;fill-opacity:1;fill-rule:nonzero;stroke:none"
         x="0"
         y="0"
         id="tspan12">S</tspan></text>
    <path
       id="path13"
       d="m 1199.2,650 v 100 l 86.6,50 86.6,-50 V 650 l -86.6,-50 -86.6,50 m 173.2,0 v 100 l 86.6,50 86.6,-50 V 650 l -86.6,-50 -86.6,50"
       style="fill:#b2b2b2;fill-opacity:1;fill-rule:nonzero;stroke:none"
       transform="matrix(0.13333333,0,0,-0.13333333,0,249.33333)" />
    <path
       id="path14"
       d="m 1112.6,800 v 100 l 86.6,50 86.6,-50 V 800 l -86.6,-50 -86.6,50 m 173.2,0 v 100 l 86.6,50 86.6,-50 V 800 l -86.6,-50 -86.6,50 m 173.2,0 v 100 l 86.6,50 86.6,-50 V 800 l -86.6,-50 -86.6,50"
       style="fill:#b2b2b2;fill-opacity:1;fill-rule:nonzero;stroke:none"
       transform="matrix(0.13333333,0,0,-0.13333333,0,249.33333)" />
    <path
       id="path15"
       d="m 1199.2,950 v 100 l 86.6,50 86.6,-50 V 950 l -86.6,-50 -86.6,50 m 173.2,0 v 100 l 86.6,50 86.6,-50 V 950 l -86.6,-50 -86.6,50"
       style="fill:#b2b2b2;fill-opacity:1;fill-rule:nonzero;stroke:none"
       transform="matrix(0.13333333,0,0,-0.13333333,0,249.33333)" />
    <path
       id="path16"
       d="M 852.801,350 V 450 L 939.398,500 1026,450 V 350 l -86.602,-50 -86.597,50 M 1026,350 v 100 l 86.6,50 86.6,-50 V 350 l -86.6,-50 -86.6,50 m 173.2,0 v 100 l 86.6,50 86.6,-50 V 350 l -86.6,-50 -86.6,50 m 173.2,0 v 100 l 86.6,50 86.6,-50 V 350 l -86.6,-50 -86.6,50 m 173.2,0 v 100 l 86.6,50 86.6,-50 V 350 l -86.6,-50 -86.6,50 m 173.2,0 v 100 l 86.6,50 86.6,-50 V 350 l -86.6,-50 -86.6,50"
       style="fill:none;stroke:#000000;stroke-width:4;stroke-linecap:butt;stroke-linejoin:miter;stroke-miterlimit:10;stroke-dasharray:none;stroke-opacity:1"
       transform="matrix(0.13333333,0,0,-0.13333333,0,249.33333)" />
    <path
       id="path17"
       d="m 766.199,500 v 100 l 86.602,50 86.597,-50 V 500 l -86.597,-50 -86.602,50 m 173.199,0 v 100 l 86.602,50 86.6,-50 V 500 l -86.6,-50 -86.602,50 m 173.202,0 v 100 l 86.6,50 86.6,-50 V 500 l -86.6,-50 -86.6,50 m 173.2,0 v 100 l 86.6,50 86.6,-50 V 500 l -86.6,-50 -86.6,50 m 173.2,0 v 100 l 86.6,50 86.6,-50 V 500 l -86.6,-50 -86.6,50 m 173.2,0 v 100 l 86.6,50 86.6,-50 V 500 l -86.6,-50 -86.6,50 m 173.2,0 v 100 l 86.6,50 86.6,-50 V 500 l -86.6,-50 -86.6,50"
       style="fill:none;stroke:#000000;stroke-width:4;stroke-linecap:butt;stroke-linejoin:miter;stroke-miterlimit:10;stroke-dasharray:none;stroke-opacity:1"
       transform="matrix(0.13333333,0,0,-0.13333333,0,249.33333)" />
    <path
       id="path18"
       d="m 679.602,650 v 100 l 86.597,50 86.602,-50 V 650 l -86.602,-50 -86.597,50 m 173.199,0 V 750 L 939.398,800 1026,750 V 650 l -86.602,-50 -86.597,50 M 1026,650 v 100 l 86.6,50 86.6,-50 V 650 l -86.6,-50 -86.6,50 m 173.2,0 v 100 l 86.6,50 86.6,-50 V 650 l -86.6,-50 -86.6,50 m 173.2,0 v 100 l 86.6,50 86.6,-50 V 650 l -86.6,-50 -86.6,50 m 173.2,0 v 100 l 86.6,50 86.6,-50 V 650 l -86.6,-50 -86.6,50 m 173.2,0 v 100 l 86.6,50 86.6,-50 V 650 l -86.6,-50 -86.6,50 m 173.2,0 v 100 l 86.6,50 86.6,-50 V 650 l -86.6,-50 -86.6,50"
       style="fill:none;stroke:#000000;stroke-width:4;stroke-linecap:butt;stroke-linejoin:miter;stroke-miterlimit:10;stroke-dasharray:none;stroke-opacity:1"
       transform="matrix(0.13333333,0,0,-0.13333333,0,249.33333)" />
    <path
       id="path19"
       d="m 766.199,800 v 100 l 86.602,50 86.597,-50 V 800 l -86.597,-50 -86.602,50 m 173.199,0 v 100 l 86.602,50 86.6,-50 V 800 l -86.6,-50 -86.602,50 m 173.202,0 v 100 l 86.6,50 86.6,-50 V 800 l -86.6,-50 -86.6,50 m 173.2,0 v 100 l 86.6,50 86.6,-50 V 800 l -86.6,-50 -86.6,50 m 173.2,0 v 100 l 86.6,50 86.6,-50 V 800 l -86.6,-50 -86.6,50 m 173.2,0 v 100 l 86.6,50 86.6,-50 V 800 l -86.6,-50 -86.6,50 m 173.2,0 v 100 l 86.6,50 86.6,-50 V 800 l -86.6,-50 -86.6,50"
       style="fill:none;stroke:#000000;stroke-width:4;stroke-linecap:butt;stroke-linejoin:miter;stroke-miterlimit:10;stroke-dasharray:none;stroke-opacity:1"
       transform="matrix(0.13333333,0,0,-0.13333333,0,249.33333)" />
    <path
       id="path20"
       d="m 852.801,950 v 100 l 86.597,50 86.602,-50 V 950 l -86.602,-50 -86.597,50 M 1026,950 v 100 l 86.6,50 86.6,-50 V 950 l -86.6,-50 -86.6,50 m 173.2,0 v 100 l 86.6,50 86.6,-50 V 950 l -86.6,-50 -86.6,50 m 173.2,0 v 100 l 86.6,50 86.6,-50 V 950 l -86.6,-50 -86.6,50 m 173.2,0 v 100 l 86.6,50 86.6,-50 V 950 l -86.6,-50 -86.6,50 m 173.2,0 v 100 l 86.6,50 86.6,-50 V 950 l -86.6,-50 -86.6,50"
       style="fill:none;stroke:#000000;stroke-width:4;stroke-linecap:butt;stroke-linejoin:miter;stroke-miterlimit:10;stroke-dasharray:none;stroke-opacity:1"
       transform="matrix(0.13333333,0,0,-0.13333333,0,249.33333)" />
    <path
       id="path21"
       d="m 939.398,1100 v 100 l 86.602,50 86.6,-50 v -100 l -86.6,-50 -86.602,50 m 173.202,0 v 100 l 86.6,50 86.6,-50 v -100 l -86.6,-50 -86.6,50 m 173.2,0 v 100 l 86.6,50 86.6,-50 v -100 l -86.6,-50 -86.6,50 m 173.2,0 v 100 l 86.6,50 86.6,-50 v -100 l -86.6,-50 -86.6,50 m 173.2,0 v 100 l 86.6,50 86.6,-50 v -100 l -86.6,-50 -86.6,50"
       style="fill:none;stroke:#000000;stroke-width:4;stroke-linecap:butt;stroke-linejoin:miter;stroke-miterlimit:10;stroke-dasharray:none;stroke-opacity:1"
       transform="matrix(0.13333333,0,0,-0.13333333,0,249.33333)" />
    <path
       id="path22"
       d="m 1026,1250 v 100 l 86.6,50 86.6,-50 v -100 l -86.6,-50 -86.6,50 m 173.2,0 v 100 l 86.6,50 86.6,-50 v -100 l -86.6,-50 -86.6,50 m 173.2,0 v 100 l 86.6,50 86.6,-50 v -100 l -86.6,-50 -86.6,50 m 173.2,0 v 100 l 86.6,50 86.6,-50 v -100 l -86.6,-50 -86.6,50"
       style="fill:none;stroke:#000000;stroke-width:4;stroke-linecap:butt;stroke-linejoin:miter;stroke-miterlimit:10;stroke-dasharray:none;stroke-opacity:1"
       transform="matrix(0.13333333,0,0,-0.13333333,0,249.33333)" />
    <path
       id="path23"
       d="m 1112.6,1400 v 100 l 86.6,50 86.6,-50 v -100 l -86.6,-50 -86.6,50 m 173.2,0 v 100 l 86.6,50 86.6,-50 v -100 l -86.6,-50 -86.6,50 m 173.2,0 v 100 l 86.6,50 86.6,-50 v -100 l -86.6,-50 -86.6,50"
       style="fill:none;stroke:#000000;stroke-width:4;stroke-linecap:butt;stroke-linejoin:miter;stroke-miterlimit:10;stroke-dasharray:none;stroke-opacity:1"
       transform="matrix(0.13333333,0,0,-0.13333333,0,249.33333)" />
    <path
       id="path24"
       d="m 619.602,550 h 120 m 0,0 -50,30 m 50,-30 -50,-30"
       style="fill:none;stroke:#000000;stroke-width:10;stroke-linecap:butt;stroke-linejoin:miter;stroke-miterlimit:10;stroke-dasharray:none;stroke-opacity:1"
       transform="matrix(0.13333333,0,0,-0.13333333,0,249.33333)" />
    <text
       id="text24"
       xml:space="preserve"
       transform="matrix(1.3333333,0,0,1.3333333,66.757333,181.86667)"><tspan
         style="font-variant:normal;font-weight:normal;font-size:14px;font-family:Arial;writing-mode:lr-tb;fill:#000000;fill-opacity:1;fill-rule:nonzero;stroke:none"
         x="0"
         y="0"
         id="tspan24">0</tspan></text>
    <path
       id="path25"
       d="m 619.602,850 h 120 m 0,0 -50,30 m 50,-30 -50,-30"
       style="fill:none;stroke:#000000;stroke-width:10;stroke-linecap:butt;stroke-linejoin:miter;stroke-miterlimit:10;stroke-dasharray:none;stroke-opacity:1"
       transform="matrix(0.13333333,0,0,-0.13333333,0,249.33333)" />
    <text
       id="text25"
       xml:space="preserve"
       transform="matrix(1.3333333,0,0,1.3333333,66.757333,141.86667)"><tspan
         style="font-variant:normal;font-weight:normal;font-size:14px;font-family:Arial;writing-mode:lr-tb;fill:#000000;fill-opacity:1;fill-rule:nonzero;stroke:none"
         x="0"
         y="0"
         id="tspan25">0</tspan></text>
    <path
       id="path26"
       d="m 1315.8,1651.96 -60,-103.92 m 0,0 50.98,28.3 m -50.98,-28.3 -0.98,58.3"
       style="fill:none;stroke:#000000;stroke-width:10;stroke-linecap:butt;stroke-linejoin:miter;stroke-miterlimit:10;stroke-dasharray:none;stroke-opacity:1"
       transform="matrix(0.13333333,0,0,-0.13333333,0,249.33333)" />
    <text
       id="text26"
       xml:space="preserve"
       transform="matrix(1.3333333,0,-9.3333333e-8,1.3333333,178.17867,25.701333)"><tspan
         style="font-variant:normal;font-weight:normal;font-size:14px;font-family:Arial;writing-mode:lr-tb;fill:#000000;fill-opacity:1;fill-rule:nonzero;stroke:none"
         x="0"
         y="0"
         id="tspan26">I</tspan></text>
    <path
       id="path27"
       d="m 1489,1651.96 -60,-103.92 m 0,0 50.98,28.3 m -50.98,-28.3 -0.98,58.3"
       style="fill:none;stroke:#000000;stroke-width:10;stroke-linecap:butt;stroke-linejoin:miter;stroke-miterlimit:10;stroke-dasharray:none;stroke-opacity:1"
       transform="matrix(0.13333333,0,0,-0.13333333,0,249.33333)" />
    <text
       id="text27"
       xml:space="preserve"
       transform="matrix(1.3333333,0,-9.3333333e-8,1.3333333,201.272,25.701333)"><tspan
         style="font-variant:normal;font-weight:normal;font-size:14px;font-family:Arial;writing-mode:lr-tb;fill:#000000;fill-opacity:1;fill-rule:nonzero;stroke:none"
         x="0"
         y="0"
         id="tspan27">I</tspan></text>
    <path
       id="path28"
       d="m 1748.8,1501.96 -60,-103.92 m 0,0 50.98,28.3 m -50.98,-28.3 -0.98,58.3"
       style="fill:none;stroke:#000000;stroke-width:10;stroke-linecap:butt;stroke-linejoin:miter;stroke-miterlimit:10;stroke-dasharray:none;stroke-opacity:1"
       transform="matrix(0.13333333,0,0,-0.13333333,0,249.33333)" />
    <text
       id="text28"
       xml:space="preserve"
       transform="matrix(1.3333333,0,-9.3333333e-8,1.3333333,233.31733,45.701333)"><tspan
         style="font-variant:normal;font-weight:normal;font-size:14px;font-family:Arial;writing-mode:lr-tb;fill:#000000;fill-opacity:1;fill-rule:nonzero;stroke:none"
         x="0"
         y="0"
         id="tspan28">0</tspan></text>
    <path
       id="path29"
       d="m 1229.2,198.039 -60,103.922 m 0,0 -0.98,-58.301 m 0.98,58.301 50.98,-28.301"
       style="fill:none;stroke:#000000;stroke-width:10;stroke-linecap:butt;stroke-linejoin:miter;stroke-miterlimit:10;stroke-dasharray:none;stroke-opacity:1"
       transform="matrix(0.13333333,0,0,-0.13333333,0,249.33333)" />
    <text
       id="text29"
       xml:space="preserve"
       transform="matrix(1.3333333,-9.3333333e-8,0,1.3333333,164.03733,238.03229)"><tspan
         style="font-variant:normal;font-weight:normal;font-size:14px;font-family:Arial;writing-mode:lr-tb;fill:#000000;fill-opacity:1;fill-rule:nonzero;stroke:none"
         x="0"
         y="0"
         id="tspan29">0</tspan></text>
    <path
       id="path30"
       d="m 1402.4,198.039 -60,103.922 m 0,0 -0.98,-58.301 m 0.98,58.301 50.98,-28.301"
       style="fill:none;stroke:#000000;stroke-width:10;stroke-linecap:butt;stroke-linejoin:miter;stroke-miterlimit:10;stroke-dasharray:none;stroke-opacity:1"
       transform="matrix(0.13333333,0,0,-0.13333333,0,249.33333)" />
    <text
       id="text30"
       xml:space="preserve"
       transform="matrix(1.3333333,-9.3333333e-8,0,1.3333333,187.13067,238.03229)"><tspan
         style="font-variant:normal;font-weight:normal;font-size:14px;font-family:Arial;writing-mode:lr-tb;fill:#000000;fill-opacity:1;fill-rule:nonzero;stroke:none"
         x="0"
         y="0"
         id="tspan30">3</tspan></text>
    <path
       id="path31"
       d="m 1575.6,198.039 -60,103.922 m 0,0 -0.98,-58.301 m 0.98,58.301 50.98,-28.301"
       style="fill:none;stroke:#000000;stroke-width:10;stroke-linecap:butt;stroke-linejoin:miter;stroke-miterlimit:10;stroke-dasharray:none;stroke-opacity:1"
       transform="matrix(0.13333333,0,0,-0.13333333,0,249.33333)" />
    <text
       id="text31"
       xml:space="preserve"
       transform="matrix(1.3333333,-9.3333333e-8,0,1.3333333,210.224,238.03229)"><tspan
         style="font-variant:normal;font-weight:normal;font-size:14px;font-family:Arial;writing-mode:lr-tb;fill:#000000;fill-opacity:1;fill-rule:nonzero;stroke:none"
         x="0"
         y="0"
         id="tspan31">0</tspan></text>
    <path
       id="path32"
       d="m 1748.8,198.039 -60,103.922 m 0,0 -0.98,-58.301 m 0.98,58.301 50.98,-28.301"
       style="fill:none;stroke:#000000;stroke-width:10;stroke-linecap:butt;stroke-linejoin:miter;stroke-miterlimit:10;stroke-dasharray:none;stroke-opacity:1"
       transform="matrix(0.13333333,0,0,-0.13333333,0,249.33333)" />
    <text
       id="text32"
       xml:space="preserve"
       transform="matrix(1.3333333,-9.3333333e-8,0,1.3333333,233.31733,238.03229)"><tspan
         style="font-variant:normal;font-weight:normal;font-size:14px;font-family:Arial;writing-mode:lr-tb;fill:#000000;fill-opacity:1;fill-rule:nonzero;stroke:none"
         x="0"
         y="0"
         id="tspan32">3</tspan></text>
    <path
       id="path33"
       d="m 1922,198.039 -60,103.922 m 0,0 -0.98,-58.301 m 0.98,58.301 50.98,-28.301"
       style="fill:none;stroke:#000000;stroke-width:10;stroke-linecap:butt;stroke-linejoin:miter;stroke-miterlimit:10;stroke-dasharray:none;stroke-opacity:1"
       transform="matrix(0.13333333,0,0,-0.13333333,0,249.33333)" />
    <text
       id="text33"
       xml:space="preserve"
       transform="matrix(1.3333333,-9.3333333e-8,0,1.3333333,256.41067,238.03229)"><tspan
         style="font-variant:normal;font-weight:normal;font-size:14px;font-family:Arial;writing-mode:lr-tb;fill:#000000;fill-opacity:1;fill-rule:nonzero;stroke:none"
         x="0"
         y="0"
         id="tspan33">0</tspan></text>
    <path
       id="path34"
       d="m 999.398,1000 c 0,33.14 -26.863,60 -60,60 -33.136,0 -60,-26.86 -60,-60 0,-33.137 26.864,-60 60,-60 33.137,0 60,26.863 60,60"
       style="fill:#000000;fill-opacity:1;fill-rule:nonzero;stroke:none"
       transform="matrix(0.13333333,0,0,-0.13333333,0,249.33333)" />
    <text
       id="text34"
       xml:space="preserve"
       transform="matrix(1.3333333,0,0,1.3333333,123.4,120.53333)"><tspan
         style="font-variant:normal;font-weight:normal;font-size:10px;font-family:Arial;writing-mode:lr-tb;fill:#ffffff;fill-opacity:1;fill-rule:nonzero;stroke:none"
         x="0"
         y="0"
         id="tspan34">I</tspan></text>
    <path
       id="path35"
       d="m 1142.6,1248.04 c 28.7,16.57 38.53,53.26 21.96,81.96 -16.56,28.7 -53.26,38.53 -81.96,21.96 -28.7,-16.57 -38.53,-53.26 -21.96,-81.96 16.56,-28.7 53.26,-38.53 81.96,-21.96"
       style="fill:#000000;fill-opacity:1;fill-rule:nonzero;stroke:none"
       transform="matrix(0.13333333,0,0,-0.13333333,0,249.33333)" />
    <path
       id="path36"
       d="m 1060.64,1270 35,-60.62 103.92,60 -35,60.62 z"
       style="fill:#000000;fill-opacity:1;fill-rule:nonzero;stroke:none"
       transform="matrix(0.13333333,0,0,-0.13333333,0,249.33333)" />
    <path
       id="path37"
       d="m 1112.24,1180.63 70,-121.25 103.92,60 -70,121.25 z"
       style="fill:#000000;fill-opacity:1;fill-rule:nonzero;stroke:none"
       transform="matrix(0.13333333,0,0,-0.13333333,0,249.33333)" />
    <path
       id="path38"
       d="m 1315.8,948.047 c 28.7,16.566 38.53,53.263 21.96,81.963 -16.56,28.69 -53.26,38.53 -81.96,21.96 -28.69,-16.57 -38.53,-53.267 -21.96,-81.962 16.57,-28.695 53.27,-38.528 81.96,-21.961"
       style="fill:#000000;fill-opacity:1;fill-rule:nonzero;stroke:none"
       transform="matrix(0.13333333,0,0,-0.13333333,0,249.33333)" />
    <path
       id="path39"
       d="m 1198.84,1030.63 35,-60.622 103.92,60.002 -35,60.62 z"
       style="fill:#000000;fill-opacity:1;fill-rule:nonzero;stroke:none"
       transform="matrix(0.13333333,0,0,-0.13333333,0,249.33333)" />
    <text
       id="text39"
       xml:space="preserve"
       transform="matrix(1.3333333,-9.3333333e-8,0,1.3333333,166.3,119.99893)"><tspan
         style="font-variant:normal;font-weight:normal;font-size:10px;font-family:Arial;writing-mode:lr-tb;fill:#ffffff;fill-opacity:1;fill-rule:nonzero;stroke:none"
         x="0"
         y="0"
         id="tspan39">T</tspan><tspan
         style="font-variant:normal;font-weight:normal;font-size:10px;font-family:Arial;writing-mode:lr-tb;fill:#ffffff;fill-opacity:1;fill-rule:nonzero;stroke:none"
         x="-6.1949201"
         y="-14.6"
         id="tspan40">I</tspan><tspan
         style="font-variant:normal;font-weight:normal;font-size:10px;font-family:Arial;writing-mode:lr-tb;fill:#ffffff;fill-opacity:1;fill-rule:nonzero;stroke:none"
         x="-16.82972"
         y="-29.4"
         id="tspan41">M</tspan></text>
    <path
       id="path41"
       d="m 1172.6,700.008 c 0,33.137 -26.86,60 -60,60 -33.14,0 -60,-26.863 -60,-60 0,-33.137 26.86,-60 60,-60 33.14,0 60,26.863 60,60"
       style="fill:#000000;fill-opacity:1;fill-rule:nonzero;stroke:none"
       transform="matrix(0.13333333,0,0,-0.13333333,0,249.33333)" />
    <path
       id="path42"
       d="m 1112.6,640.008 h 70 v 120 h -70 z"
       style="fill:#000000;fill-opacity:1;fill-rule:nonzero;stroke:none"
       transform="matrix(0.13333333,0,0,-0.13333333,0,249.33333)" />
    <text
       id="text42"
       xml:space="preserve"
       transform="matrix(1.3333333,-9.3333333e-8,0,1.3333333,144.06667,160.53227)"><tspan
         style="font-variant:normal;font-weight:normal;font-size:10px;font-family:Arial;writing-mode:lr-tb;fill:#ffffff;fill-opacity:1;fill-rule:nonzero;stroke:none"
         x="0"
         y="0"
         id="tspan42">A</tspan></text>
    <path
       id="path43"
       d="m 1345.8,700.008 c 0,33.137 -26.86,60 -60,60 -33.14,0 -60,-26.863 -60,-60 0,-33.137 26.86,-60 60,-60 33.14,0 60,26.863 60,60"
       style="fill:#000000;fill-opacity:1;fill-rule:nonzero;stroke:none"
       transform="matrix(0.13333333,0,0,-0.13333333,0,249.33333)" />
    <path
       id="path44"
       d="m 1215.8,640.008 h 70 v 120 h -70 z"
       style="fill:#000000;fill-opacity:1;fill-rule:nonzero;stroke:none"
       transform="matrix(0.13333333,0,0,-0.13333333,0,249.33333)" />
    <text
       id="text44"
       xml:space="preserve"
       transform="matrix(1.3333333,-9.3333333e-8,0,1.3333333,166.46,160.53227)"><tspan
         style="font-variant:normal;font-weight:normal;font-size:10px;font-family:Arial;writing-mode:lr-tb;fill:#ffffff;fill-opacity:1;fill-rule:nonzero;stroke:none"
         x="0"
         y="0"
         id="tspan44">S</tspan></text>
    <path
       id="path45"
       d="m 1345.8,400.008 c 0,33.137 -26.86,60 -60,60 -33.14,0 -60,-26.863 -60,-60 0,-33.137 26.86,-60 60,-60 33.14,0 60,26.863 60,60"
       style="fill:#000000;fill-opacity:1;fill-rule:nonzero;stroke:none"
       transform="matrix(0.13333333,0,0,-0.13333333,0,249.33333)" />
    <text
       id="text45"
       xml:space="preserve"
       transform="matrix(1.3333333,-9.3333333e-8,0,1.3333333,166.99333,200.53227)"><tspan
         style="font-variant:normal;font-weight:normal;font-size:10px;font-family:Arial;writing-mode:lr-tb;fill:#ffffff;fill-opacity:1;fill-rule:nonzero;stroke:none"
         x="0"
         y="0"
         id="tspan45">S</tspan></text>
    <path
       id="path46"
       d="m 1692.2,400.008 c 0,33.137 -26.86,60 -60,60 -33.14,0 -60,-26.863 -60,-60 0,-33.137 26.86,-60 60,-60 33.14,0 60,26.863 60,60"
       style="fill:#000000;fill-opacity:1;fill-rule:nonzero;stroke:none"
       transform="matrix(0.13333333,0,0,-0.13333333,0,249.33333)" />
    <text
       id="text46"
       xml:space="preserve"
       transform="matrix(1.3333333,-9.3333333e-8,0,1.3333333,213.55333,200.53227)"><tspan
         style="font-variant:normal;font-weight:normal;font-size:10px;font-family:Arial;writing-mode:lr-tb;fill:#ffffff;fill-opacity:1;fill-rule:nonzero;stroke:none"
         x="0"
         y="0"
         id="tspan46">L</tspan></text>
    <path
       id="path47"
       d="m 2899.2,650 v 100 l 86.6,50 86.6,-50 V 650 l -86.6,-50 -86.6,50 m 173.2,0 v 100 l 86.6,50 86.6,-50 V 650 l -86.6,-50 -86.6,50"
       style="fill:#b2b2b2;fill-opacity:1;fill-rule:nonzero;stroke:none"
       transform="matrix(0.13333333,0,0,-0.13333333,0,249.33333)" />
    <path
       id="path48"
       d="m 2812.6,800 v 100 l 86.6,50 86.6,-50 V 800 l -86.6,-50 -86.6,50 m 173.2,0 v 100 l 86.6,50 86.6,-50 V 800 l -86.6,-50 -86.6,50 m 173.2,0 v 100 l 86.6,50 86.6,-50 V 800 l -86.6,-50 -86.6,50"
       style="fill:#b2b2b2;fill-opacity:1;fill-rule:nonzero;stroke:none"
       transform="matrix(0.13333333,0,0,-0.13333333,0,249.33333)" />
    <path
       id="path49"
       d="m 2899.2,950 v 100 l 86.6,50 86.6,-50 V 950 l -86.6,-50 -86.6,50 m 173.2,0 v 100 l 86.6,50 86.6,-50 V 950 l -86.6,-50 -86.6,50"
       style="fill:#b2b2b2;fill-opacity:1;fill-rule:nonzero;stroke:none"
       transform="matrix(0.13333333,0,0,-0.13333333,0,249.33333)" />
    <path
       id="path50"
       d="m 2552.8,350 v 100 l 86.6,50 86.6,-50 V 350 l -86.6,-50 -86.6,50 m 173.2,0 v 100 l 86.6,50 86.6,-50 V 350 l -86.6,-50 -86.6,50 m 173.2,0 v 100 l 86.6,50 86.6,-50 V 350 l -86.6,-50 -86.6,50 m 173.2,0 v 100 l 86.6,50 86.6,-50 V 350 l -86.6,-50 -86.6,50 m 173.2,0 v 100 l 86.6,50 86.6,-50 V 350 l -86.6,-50 -86.6,50 m 173.2,0 v 100 l 86.6,50 86.6,-50 V 350 l -86.6,-50 -86.6,50"
       style="fill:none;stroke:#000000;stroke-width:4;stroke-linecap:butt;stroke-linejoin:miter;stroke-miterlimit:10;stroke-dasharray:none;stroke-opacity:1"
       transform="matrix(0.13333333,0,0,-0.13333333,0,249.33333)" />
    <path
       id="path51"
       d="m 2466.2,500 v 100 l 86.6,50 86.6,-50 V 500 l -86.6,-50 -86.6,50 m 173.2,0 v 100 l 86.6,50 86.6,-50 V 500 l -86.6,-50 -86.6,50 m 173.2,0 v 100 l 86.6,50 86.6,-50 V 500 l -86.6,-50 -86.6,50 m 173.2,0 v 100 l 86.6,50 86.6,-50 V 500 l -86.6,-50 -86.6,50 m 173.2,0 v 100 l 86.6,50 86.6,-50 V 500 l -86.6,-50 -86.6,50 m 173.2,0 v 100 l 86.6,50 86.6,-50 V 500 l -86.6,-50 -86.6,50 m 173.2,0 v 100 l 86.6,50 86.6,-50 V 500 l -86.6,-50 -86.6,50"
       style="fill:none;stroke:#000000;stroke-width:4;stroke-linecap:butt;stroke-linejoin:miter;stroke-miterlimit:10;stroke-dasharray:none;stroke-opacity:1"
       transform="matrix(0.13333333,0,0,-0.13333333,0,249.33333)" />
    <path
       id="path52"
       d="m 2379.6,650 v 100 l 86.6,50 86.6,-50 V 650 l -86.6,-50 -86.6,50 m 173.2,0 v 100 l 86.6,50 86.6,-50 V 650 l -86.6,-50 -86.6,50 m 173.2,0 v 100 l 86.6,50 86.6,-50 V 650 l -86.6,-50 -86.6,50 m 173.2,0 v 100 l 86.6,50 86.6,-50 V 650 l -86.6,-50 -86.6,50 m 173.2,0 v 100 l 86.6,50 86.6,-50 V 650 l -86.6,-50 -86.6,50 m 173.2,0 v 100 l 86.6,50 86.6,-50 V 650 l -86.6,-50 -86.6,50 m 173.2,0 v 100 l 86.6,50 86.6,-50 V 650 l -86.6,-50 -86.6,50 m 173.2,0 v 100 l 86.6,50 86.6,-50 V 650 l -86.6,-50 -86.6,50"
       style="fill:none;stroke:#000000;stroke-width:4;stroke-linecap:butt;stroke-linejoin:miter;stroke-miterlimit:10;stroke-dasharray:none;stroke-opacity:1"
       transform="matrix(0.13333333,0,0,-0.13333333,0,249.33333)" />
    <path
       id="path53"
       d="m 2466.2,800 v 100 l 86.6,50 86.6,-50 V 800 l -86.6,-50 -86.6,50 m 173.2,0 v 100 l 86.6,50 86.6,-50 V 800 l -86.6,-50 -86.6,50 m 173.2,0 v 100 l 86.6,50 86.6,-50 V 800 l -86.6,-50 -86.6,50 m 173.2,0 v 100 l 86.6,50 86.6,-50 V 800 l -86.6,-50 -86.6,50 m 173.2,0 v 100 l 86.6,50 86.6,-50 V 800 l -86.6,-50 -86.6,50 m 173.2,0 v 100 l 86.6,50 86.6,-50 V 800 l -86.6,-50 -86.6,50 m 173.2,0 v 100 l 86.6,50 86.6,-50 V 800 l -86.6,-50 -86.6,50"
       style="fill:none;stroke:#000000;stroke-width:4;stroke-linecap:butt;stroke-linejoin:miter;stroke-miterlimit:10;stroke-dasharray:none;stroke-opacity:1"
       transform="matrix(0.13333333,0,0,-0.13333333,0,249.33333)" />
    <path
       id="path54"
       d="m 2552.8,950 v 100 l 86.6,50 86.6,-50 V 950 l -86.6,-50 -86.6,50 m 173.2,0 v 100 l 86.6,50 86.6,-50 V 950 l -86.6,-50 -86.6,50 m 173.2,0 v 100 l 86.6,50 86.6,-50 V 950 l -86.6,-50 -86.6,50 m 173.2,0 v 100 l 86.6,50 86.6,-50 V 950 l -86.6,-50 -86.6,50 m 173.2,0 v 100 l 86.6,50 86.6,-50 V 950 l -86.6,-50 -86.6,50 m 173.2,0 v 100 l 86.6,50 86.6,-50 V 950 l -86.6,-50 -86.6,50"
       style="fill:none;stroke:#000000;stroke-width:4;stroke-linecap:butt;stroke-linejoin:miter;stroke-miterlimit:10;stroke-dasharray:none;stroke-opacity:1"
       transform="matrix(0.13333333,0,0,-0.13333333,0,249.33333)" />
    <path
       id="path55"
       d="m 2639.4,1100 v 100 l 86.6,50 86.6,-50 v -100 l -86.6,-50 -86.6,50 m 173.2,0 v 100 l 86.6,50 86.6,-50 v -100 l -86.6,-50 -86.6,50 m 173.2,0 v 100 l 86.6,50 86.6,-50 v -100 l -86.6,-50 -86.6,50 m 173.2,0 v 100 l 86.6,50 86.6,-50 v -100 l -86.6,-50 -86.6,50 m 173.2,0 v 100 l 86.6,50 86.6,-50 v -100 l -86.6,-50 -86.6,50"
       style="fill:none;stroke:#000000;stroke-width:4;stroke-linecap:butt;stroke-linejoin:miter;stroke-miterlimit:10;stroke-dasharray:none;stroke-opacity:1"
       transform="matrix(0.13333333,0,0,-0.13333333,0,249.33333)" />
    <path
       id="path56"
       d="m 2726,1250 v 100 l 86.6,50 86.6,-50 v -100 l -86.6,-50 -86.6,50 m 173.2,0 v 100 l 86.6,50 86.6,-50 v -100 l -86.6,-50 -86.6,50 m 173.2,0 v 100 l 86.6,50 86.6,-50 v -100 l -86.6,-50 -86.6,50 m 173.2,0 v 100 l 86.6,50 86.6,-50 v -100 l -86.6,-50 -86.6,50"
       style="fill:none;stroke:#000000;stroke-width:4;stroke-linecap:butt;stroke-linejoin:miter;stroke-miterlimit:10;stroke-dasharray:none;stroke-opacity:1"
       transform="matrix(0.13333333,0,0,-0.13333333,0,249.33333)" />
    <path
       id="path57"
       d="m 2812.6,1400 v 100 l 86.6,50 86.6,-50 v -100 l -86.6,-50 -86.6,50 m 173.2,0 v 100 l 86.6,50 86.6,-50 v -100 l -86.6,-50 -86.6,50 m 173.2,0 v 100 l 86.6,50 86.6,-50 v -100 l -86.6,-50 -86.6,50"
       style="fill:none;stroke:#000000;stroke-width:4;stroke-linecap:butt;stroke-linejoin:miter;stroke-miterlimit:10;stroke-dasharray:none;stroke-opacity:1"
       transform="matrix(0.13333333,0,0,-0.13333333,0,249.33333)" />
    <path
       id="path58"
       d="m 2492.8,1150 h 120 m 0,0 -50,30 m 50,-30 -50,-30"
       style="fill:none;stroke:#000000;stroke-width:10;stroke-linecap:butt;stroke-linejoin:miter;stroke-miterlimit:10;stroke-dasharray:none;stroke-opacity:1"
       transform="matrix(0.13333333,0,0,-0.13333333,0,249.33333)" />
    <text
       id="text58"
       xml:space="preserve"
       transform="matrix(1.3333333,0,0,1.3333333,319.112,101.86667)"><tspan
         style="font-variant:normal;font-weight:normal;font-size:14px;font-family:Arial;writing-mode:lr-tb;fill:#000000;fill-opacity:1;fill-rule:nonzero;stroke:none"
         x="0"
         y="0"
         id="tspan58">I</tspan></text>
    <path
       id="path59"
       d="m 3015.8,1651.96 -60,-103.92 m 0,0 50.98,28.3 m -50.98,-28.3 -0.98,58.3"
       style="fill:none;stroke:#000000;stroke-width:10;stroke-linecap:butt;stroke-linejoin:miter;stroke-miterlimit:10;stroke-dasharray:none;stroke-opacity:1"
       transform="matrix(0.13333333,0,0,-0.13333333,0,249.33333)" />
    <text
       id="text59"
       xml:space="preserve"
       transform="matrix(1.3333333,0,-9.3333333e-8,1.3333333,401.21467,25.701333)"><tspan
         style="font-variant:normal;font-weight:normal;font-size:14px;font-family:Arial;writing-mode:lr-tb;fill:#000000;fill-opacity:1;fill-rule:nonzero;stroke:none"
         x="0"
         y="0"
         id="tspan59">A</tspan></text>
    <path
       id="path60"
       d="m 3795.2,901.961 -60,-103.922 m 0,0 50.98,28.301 m -50.98,-28.301 -0.98,58.301"
       style="fill:none;stroke:#000000;stroke-width:10;stroke-linecap:butt;stroke-linejoin:miter;stroke-miterlimit:10;stroke-dasharray:none;stroke-opacity:1"
       transform="matrix(0.13333333,0,0,-0.13333333,0,249.33333)" />
    <text
       id="text60"
       xml:space="preserve"
       transform="matrix(1.3333333,0,-9.3333333e-8,1.3333333,506.17067,125.70107)"><tspan
         style="font-variant:normal;font-weight:normal;font-size:14px;font-family:Arial;writing-mode:lr-tb;fill:#000000;fill-opacity:1;fill-rule:nonzero;stroke:none"
         x="0"
         y="0"
         id="tspan60">L</tspan></text>
    <path
       id="path61"
       d="m 2929.2,198.039 -60,103.922 m 0,0 -0.98,-58.301 m 0.98,58.301 50.98,-28.301"
       style="fill:none;stroke:#000000;stroke-width:10;stroke-linecap:butt;stroke-linejoin:miter;stroke-miterlimit:10;stroke-dasharray:none;stroke-opacity:1"
       transform="matrix(0.13333333,0,0,-0.13333333,0,249.33333)" />
    <text
       id="text61"
       xml:space="preserve"
       transform="matrix(1.3333333,-9.3333333e-8,0,1.3333333,389.668,238.03229)"><tspan
         style="font-variant:normal;font-weight:normal;font-size:14px;font-family:Arial;writing-mode:lr-tb;fill:#000000;fill-opacity:1;fill-rule:nonzero;stroke:none"
         x="0"
         y="0"
         id="tspan61">S</tspan></text>
    <path
       id="path62"
       d="m 3102.4,198.039 -60,103.922 m 0,0 -0.98,-58.301 m 0.98,58.301 50.98,-28.301"
       style="fill:none;stroke:#000000;stroke-width:10;stroke-linecap:butt;stroke-linejoin:miter;stroke-miterlimit:10;stroke-dasharray:none;stroke-opacity:1"
       transform="matrix(0.13333333,0,0,-0.13333333,0,249.33333)" />
    <text
       id="text62"
       xml:space="preserve"
       transform="matrix(1.3333333,-9.3333333e-8,0,1.3333333,412.76133,238.03229)"><tspan
         style="font-variant:normal;font-weight:normal;font-size:14px;font-family:Arial;writing-mode:lr-tb;fill:#000000;fill-opacity:1;fill-rule:nonzero;stroke:none"
         x="0"
         y="0"
         id="tspan62">S</tspan></text>
    <path
       id="path63"
       d="m 3448.8,198.039 -60,103.922 m 0,0 -0.98,-58.301 m 0.98,58.301 50.98,-28.301"
       style="fill:none;stroke:#000000;stroke-width:10;stroke-linecap:butt;stroke-linejoin:miter;stroke-miterlimit:10;stroke-dasharray:none;stroke-opacity:1"
       transform="matrix(0.13333333,0,0,-0.13333333,0,249.33333)" />
    <text
       id="text63"
       xml:space="preserve"
       transform="matrix(1.3333333,-9.3333333e-8,0,1.3333333,459.984,238.03229)"><tspan
         style="font-variant:normal;font-weight:normal;font-size:14px;font-family:Arial;writing-mode:lr-tb;fill:#000000;fill-opacity:1;fill-rule:nonzero;stroke:none"
         x="0"
         y="0"
         id="tspan63">0</tspan></text>
    <path
       id="path64"
       d="m 2786,1150 c 0,33.14 -26.86,60 -60,60 -33.14,0 -60,-26.86 -60,-60 0,-33.14 26.86,-60 60,-60 33.14,0 60,26.86 60,60"
       style="fill:#000000;fill-opacity:1;fill-rule:nonzero;stroke:none"
       transform="matrix(0.13333333,0,0,-0.13333333,0,249.33333)" />
    <text
       id="text64"
       xml:space="preserve"
       transform="matrix(1.3333333,0,0,1.3333333,361.61333,100.53333)"><tspan
         style="font-variant:normal;font-weight:normal;font-size:10px;font-family:Arial;writing-mode:lr-tb;fill:#ffffff;fill-opacity:1;fill-rule:nonzero;stroke:none"
         x="0"
         y="0"
         id="tspan64">I</tspan></text>
    <path
       id="path65"
       d="m 2526.2,700 c 0,33.137 -26.86,60 -60,60 -33.14,0 -60,-26.863 -60,-60 0,-33.137 26.86,-60 60,-60 33.14,0 60,26.863 60,60"
       style="fill:#000000;fill-opacity:1;fill-rule:nonzero;stroke:none"
       transform="matrix(0.13333333,0,0,-0.13333333,0,249.33333)" />
    <path
       id="path66"
       d="m 2466.2,640 h 69.9961 V 760 H 2466.2 Z"
       style="fill:#000000;fill-opacity:1;fill-rule:nonzero;stroke:none"
       transform="matrix(0.13333333,0,0,-0.13333333,0,249.33333)" />
    <text
       id="text66"
       xml:space="preserve"
       transform="matrix(1.3333333,0,0,1.3333333,324.54667,160.53333)"><tspan
         style="font-variant:normal;font-weight:normal;font-size:10px;font-family:Arial;writing-mode:lr-tb;fill:#ffffff;fill-opacity:1;fill-rule:nonzero;stroke:none"
         x="0"
         y="0"
         id="tspan66">A</tspan></text>
    <path
       id="path67"
       d="m 2699.4,700 c 0,33.137 -26.86,60 -60,60 -33.14,0 -60,-26.863 -60,-60 0,-33.137 26.86,-60 60,-60 33.14,0 60,26.863 60,60"
       style="fill:#000000;fill-opacity:1;fill-rule:nonzero;stroke:none"
       transform="matrix(0.13333333,0,0,-0.13333333,0,249.33333)" />
    <path
       id="path68"
       d="m 2569.4,640 h 69.9961 V 760 H 2569.4 Z"
       style="fill:#000000;fill-opacity:1;fill-rule:nonzero;stroke:none"
       transform="matrix(0.13333333,0,0,-0.13333333,0,249.33333)" />
    <text
       id="text68"
       xml:space="preserve"
       transform="matrix(1.3333333,0,0,1.3333333,346.94,160.53333)"><tspan
         style="font-variant:normal;font-weight:normal;font-size:10px;font-family:Arial;writing-mode:lr-tb;fill:#ffffff;fill-opacity:1;fill-rule:nonzero;stroke:none"
         x="0"
         y="0"
         id="tspan68">S</tspan></text>
    <path
       id="path69"
       d="m 2959.2,550 c 0,33.137 -26.86,60 -60,60 -33.14,0 -60,-26.863 -60,-60 0,-33.137 26.86,-60 60,-60 33.14,0 60,26.863 60,60"
       style="fill:#000000;fill-opacity:1;fill-rule:nonzero;stroke:none"
       transform="matrix(0.13333333,0,0,-0.13333333,0,249.33333)" />
    <text
       id="text69"
       xml:space="preserve"
       transform="matrix(1.3333333,0,0,1.3333333,382.11333,180.53333)"><tspan
         style="font-variant:normal;font-weight:normal;font-size:10px;font-family:Arial;writing-mode:lr-tb;fill:#ffffff;fill-opacity:1;fill-rule:nonzero;stroke:none"
         x="0"
         y="0"
         id="tspan69">S</tspan></text>
    <path
       id="path70"
       d="m 3565.4,400 c 0,33.137 -26.86,60 -60,60 -33.14,0 -60,-26.863 -60,-60 0,-33.137 26.86,-60 60,-60 33.14,0 60,26.863 60,60"
       style="fill:#000000;fill-opacity:1;fill-rule:nonzero;stroke:none"
       transform="matrix(0.13333333,0,0,-0.13333333,0,249.33333)" />
    <text
       id="text70"
       xml:space="preserve"
       transform="matrix(1.3333333,0,0,1.3333333,463.31333,200.53333)"><tspan
         style="font-variant:normal;font-weight:normal;font-size:10px;font-family:Arial;writing-mode:lr-tb;fill:#ffffff;fill-opacity:1;fill-rule:nonzero;stroke:none"
         x="0"
         y="0"
         id="tspan70">L</tspan></text>
  </g>
</svg>
