<?xml version="1.0" encoding="UTF-8" standalone="no"?>
<!-- Created with Inkscape (http://www.inkscape.org/) -->

<svg
   version="1.1"
   id="svg1"
   width="133.33333"
   height="120"
   viewBox="0 0 133.33333 120"
   xmlns="http://www.w3.org/2000/svg"
   xmlns:svg="http://www.w3.org/2000/svg">
  <defs
     id="defs1" />
  <g
     id="g1">
    <path
       id="path1"
       d="m 50,100 v 100 l 86.602,50 86.597,-50 V 100 L 136.602,50 50,100 m 173.199,0 v 100 l 86.602,50 86.597,-50 V 100 l -86.597,-50 -86.602,50 m 173.199,0 V 200 L 483,250 569.602,200 V 100 L 483,50 396.398,100 m 173.204,0 v 100 l 86.597,50 86.602,-50 V 100 l -86.602,-50 -86.597,50 m 173.199,0 V 200 L 829.398,250 916,200 V 100 l -86.602,-50 -86.597,50"
       style="fill:#b2b2b2;fill-opacity:1;fill-rule:nonzero;stroke:none"
       transform="matrix(0.13333333,0,0,-0.13333333,0,120)" />
    <path
       id="path2"
       d="m 136.602,250 v 100 l 86.597,50 86.602,-50 V 250 l -86.602,-50 -86.597,50 m 173.199,0 V 350 L 396.398,400 483,350 V 250 l -86.602,-50 -86.597,50 M 483,250 v 100 l 86.602,50 86.597,-50 V 250 L 569.602,200 483,250 m 173.199,0 v 100 l 86.602,50 86.597,-50 V 250 l -86.597,-50 -86.602,50"
       style="fill:#b2b2b2;fill-opacity:1;fill-rule:nonzero;stroke:none"
       transform="matrix(0.13333333,0,0,-0.13333333,0,120)" />
    <path
       id="path3"
       d="m 223.199,400 v 100 l 86.602,50 86.597,-50 V 400 l -86.597,-50 -86.602,50 m 173.199,0 V 500 L 483,550 569.602,500 V 400 L 483,350 396.398,400 m 173.204,0 v 100 l 86.597,50 86.602,-50 V 400 l -86.602,-50 -86.597,50"
       style="fill:#b2b2b2;fill-opacity:1;fill-rule:nonzero;stroke:none"
       transform="matrix(0.13333333,0,0,-0.13333333,0,120)" />
    <path
       id="path4"
       d="M 309.801,550 V 650 L 396.398,700 483,650 V 550 l -86.602,-50 -86.597,50 M 483,550 v 100 l 86.602,50 86.597,-50 V 550 L 569.602,500 483,550"
       style="fill:#b2b2b2;fill-opacity:1;fill-rule:nonzero;stroke:none"
       transform="matrix(0.13333333,0,0,-0.13333333,0,120)" />
    <path
       id="path5"
       d="M 396.398,700 V 800 L 483,850 569.602,800 V 700 L 483,650 396.398,700"
       style="fill:#b2b2b2;fill-opacity:1;fill-rule:nonzero;stroke:none"
       transform="matrix(0.13333333,0,0,-0.13333333,0,120)" />
    <path
       id="path6"
       d="m 50,100 v 100 l 86.602,50 86.597,-50 V 100 L 136.602,50 50,100 m 173.199,0 v 100 l 86.602,50 86.597,-50 V 100 l -86.597,-50 -86.602,50 m 173.199,0 V 200 L 483,250 569.602,200 V 100 L 483,50 396.398,100 m 173.204,0 v 100 l 86.597,50 86.602,-50 V 100 l -86.602,-50 -86.597,50 m 173.199,0 V 200 L 829.398,250 916,200 V 100 l -86.602,-50 -86.597,50"
       style="fill:none;stroke:#000000;stroke-width:4;stroke-linecap:butt;stroke-linejoin:miter;stroke-miterlimit:10;stroke-dasharray:none;stroke-opacity:1"
       transform="matrix(0.13333333,0,0,-0.13333333,0,120)" />
    <path
       id="path7"
       d="m 136.602,250 v 100 l 86.597,50 86.602,-50 V 250 l -86.602,-50 -86.597,50 m 173.199,0 V 350 L 396.398,400 483,350 V 250 l -86.602,-50 -86.597,50 M 483,250 v 100 l 86.602,50 86.597,-50 V 250 L 569.602,200 483,250 m 173.199,0 v 100 l 86.602,50 86.597,-50 V 250 l -86.597,-50 -86.602,50"
       style="fill:none;stroke:#000000;stroke-width:4;stroke-linecap:butt;stroke-linejoin:miter;stroke-miterlimit:10;stroke-dasharray:none;stroke-opacity:1"
       transform="matrix(0.13333333,0,0,-0.13333333,0,120)" />
    <path
       id="path8"
       d="m 223.199,400 v 100 l 86.602,50 86.597,-50 V 400 l -86.597,-50 -86.602,50 m 173.199,0 V 500 L 483,550 569.602,500 V 400 L 483,350 396.398,400 m 173.204,0 v 100 l 86.597,50 86.602,-50 V 400 l -86.602,-50 -86.597,50"
       style="fill:none;stroke:#000000;stroke-width:4;stroke-linecap:butt;stroke-linejoin:miter;stroke-miterlimit:10;stroke-dasharray:none;stroke-opacity:1"
       transform="matrix(0.13333333,0,0,-0.13333333,0,120)" />
    <path
       id="path9"
       d="M 309.801,550 V 650 L 396.398,700 483,650 V 550 l -86.602,-50 -86.597,50 M 483,550 v 100 l 86.602,50 86.597,-50 V 550 L 569.602,500 483,550"
       style="fill:none;stroke:#000000;stroke-width:4;stroke-linecap:butt;stroke-linejoin:miter;stroke-miterlimit:10;stroke-dasharray:none;stroke-opacity:1"
       transform="matrix(0.13333333,0,0,-0.13333333,0,120)" />
    <path
       id="path10"
       d="M 396.398,700 V 800 L 483,850 569.602,800 V 700 L 483,650 396.398,700"
       style="fill:none;stroke:#000000;stroke-width:4;stroke-linecap:butt;stroke-linejoin:miter;stroke-miterlimit:10;stroke-dasharray:none;stroke-opacity:1"
       transform="matrix(0.13333333,0,0,-0.13333333,0,120)" />
    <path
       id="path11"
       d="m 196.602,150 c 0,33.137 -26.864,60 -60,60 -33.137,0 -60.0004,-26.863 -60.0004,-60 0,-33.137 26.8634,-60 60.0004,-60 33.136,0 60,26.863 60,60"
       style="fill:#000000;fill-opacity:1;fill-rule:nonzero;stroke:none"
       transform="matrix(0.13333333,0,0,-0.13333333,0,120)" />
    <path
       id="path12"
       d="m 66.6016,90 h 69.9961 V 210 H 66.6016 Z"
       style="fill:#000000;fill-opacity:1;fill-rule:nonzero;stroke:none"
       transform="matrix(0.13333333,0,0,-0.13333333,0,120)" />
    <text
       id="text12"
       xml:space="preserve"
       transform="matrix(1.3333333,0,0,1.3333333,14.140133,104.53333)"><tspan
         style="font-variant:normal;font-weight:normal;font-size:10px;font-family:Arial;writing-mode:lr-tb;fill:#ffffff;fill-opacity:1;fill-rule:nonzero;stroke:none"
         x="0"
         y="0"
         id="tspan12">F</tspan></text>
    <path
       id="path13"
       d="m 326.762,59.3789 70,121.2421 -103.922,60 -70,-121.242 z"
       style="fill:#000000;fill-opacity:1;fill-rule:nonzero;stroke:none"
       transform="matrix(0.13333333,0,0,-0.13333333,0,120)" />
    <text
       id="text13"
       xml:space="preserve"
       transform="matrix(1.3333333,0,-9.3333333e-8,1.3333333,39.4536,104.53333)"><tspan
         style="font-variant:normal;font-weight:normal;font-size:10px;font-family:Arial;writing-mode:lr-tb;fill:#ffffff;fill-opacity:1;fill-rule:nonzero;stroke:none"
         x="0"
         y="0"
         id="tspan13">I</tspan></text>
    <path
       id="path14"
       d="M 686.199,98.0391 C 714.895,114.605 724.727,151.305 708.16,180 691.594,208.695 654.895,218.527 626.199,201.961 597.504,185.395 587.672,148.695 604.238,120 620.805,91.3047 657.504,81.4727 686.199,98.0391"
       style="fill:#000000;fill-opacity:1;fill-rule:nonzero;stroke:none"
       transform="matrix(0.13333333,0,0,-0.13333333,0,120)" />
    <path
       id="path15"
       d="m 604.238,120 35,-60.6211 103.922,60.0001 -35,60.621 z"
       style="fill:#000000;fill-opacity:1;fill-rule:nonzero;stroke:none"
       transform="matrix(0.13333333,0,0,-0.13333333,0,120)" />
    <text
       id="text15"
       xml:space="preserve"
       transform="matrix(1.3333333,-9.3333333e-8,0,1.3333333,83.046933,104.53333)"><tspan
         style="font-variant:normal;font-weight:normal;font-size:10px;font-family:Arial;writing-mode:lr-tb;fill:#ffffff;fill-opacity:1;fill-rule:nonzero;stroke:none"
         x="0"
         y="0"
         id="tspan15">S</tspan></text>
    <path
       id="path16"
       d="m 859.398,201.961 c -28.695,16.566 -65.394,6.734 -81.96,-21.961 -16.567,-28.695 -6.735,-65.395 21.96,-81.9609 28.7,-16.5664 65.399,-6.7344 81.965,21.9609 16.567,28.695 6.735,65.395 -21.965,81.961"
       style="fill:#000000;fill-opacity:1;fill-rule:nonzero;stroke:none"
       transform="matrix(0.13333333,0,0,-0.13333333,0,120)" />
    <path
       id="path17"
       d="m 881.363,120 35,60.621 -103.925,60 -35,-60.621 z"
       style="fill:#000000;fill-opacity:1;fill-rule:nonzero;stroke:none"
       transform="matrix(0.13333333,0,0,-0.13333333,0,120)" />
    <text
       id="text17"
       xml:space="preserve"
       transform="matrix(1.3333333,0,-9.3333333e-8,1.3333333,105.77347,104.53333)"><tspan
         style="font-variant:normal;font-weight:normal;font-size:10px;font-family:Arial;writing-mode:lr-tb;fill:#ffffff;fill-opacity:1;fill-rule:nonzero;stroke:none"
         x="0"
         y="0"
         id="tspan17">H</tspan></text>
    <path
       id="path18"
       d="m 672.801,240 h 140 v 120 h -140 z"
       style="fill:#000000;fill-opacity:1;fill-rule:nonzero;stroke:none"
       transform="matrix(0.13333333,0,0,-0.13333333,0,120)" />
    <text
       id="text18"
       xml:space="preserve"
       transform="matrix(1.3333333,0,-9.3333333e-8,1.3333333,94.226533,84.533333)"><tspan
         style="font-variant:normal;font-weight:normal;font-size:10px;font-family:Arial;writing-mode:lr-tb;fill:#ffffff;fill-opacity:1;fill-rule:nonzero;stroke:none"
         x="0"
         y="0"
         id="tspan18">R</tspan></text>
    <path
       id="path19"
       d="m 629.602,300 c 0,33.137 -26.864,60 -60,60 -33.137,0 -60,-26.863 -60,-60 0,-33.137 26.863,-60 60,-60 33.136,0 60,26.863 60,60"
       style="fill:#000000;fill-opacity:1;fill-rule:nonzero;stroke:none"
       transform="matrix(0.13333333,0,0,-0.13333333,0,120)" />
    <path
       id="path20"
       d="m 569.602,240 h 70 v 120 h -70 z"
       style="fill:#000000;fill-opacity:1;fill-rule:nonzero;stroke:none"
       transform="matrix(0.13333333,0,0,-0.13333333,0,120)" />
    <text
       id="text20"
       xml:space="preserve"
       transform="matrix(1.3333333,0,-9.3333333e-8,1.3333333,71.5,84.533333)"><tspan
         style="font-variant:normal;font-weight:normal;font-size:10px;font-family:Arial;writing-mode:lr-tb;fill:#ffffff;fill-opacity:1;fill-rule:nonzero;stroke:none"
         x="0"
         y="0"
         id="tspan20">E</tspan></text>
    <path
       id="path21"
       d="m 426.398,351.961 c -28.695,16.566 -65.394,6.734 -81.96,-21.961 -16.567,-28.695 -6.735,-65.395 21.96,-81.961 28.7,-16.566 65.399,-6.734 81.965,21.961 16.567,28.695 6.735,65.395 -21.965,81.961"
       style="fill:#000000;fill-opacity:1;fill-rule:nonzero;stroke:none"
       transform="matrix(0.13333333,0,0,-0.13333333,0,120)" />
    <path
       id="path22"
       d="m 413.363,209.379 35,60.621 -103.925,60 -35,-60.621 z"
       style="fill:#000000;fill-opacity:1;fill-rule:nonzero;stroke:none"
       transform="matrix(0.13333333,0,0,-0.13333333,0,120)" />
    <text
       id="text22"
       xml:space="preserve"
       transform="matrix(1.3333333,0,-9.3333333e-8,1.3333333,48.780267,84.533333)"><tspan
         style="font-variant:normal;font-weight:normal;font-size:10px;font-family:Arial;writing-mode:lr-tb;fill:#ffffff;fill-opacity:1;fill-rule:nonzero;stroke:none"
         x="0"
         y="0"
         id="tspan22">T</tspan></text>
    <path
       id="path23"
       d="m 283.199,300 c 0,33.137 -26.863,60 -60,60 -33.136,0 -60,-26.863 -60,-60 0,-33.137 26.864,-60 60,-60 33.137,0 60,26.863 60,60"
       style="fill:#000000;fill-opacity:1;fill-rule:nonzero;stroke:none"
       transform="matrix(0.13333333,0,0,-0.13333333,0,120)" />
    <text
       id="text23"
       xml:space="preserve"
       transform="matrix(1.3333333,0,-9.3333333e-8,1.3333333,24.946933,84.533333)"><tspan
         style="font-variant:normal;font-weight:normal;font-size:10px;font-family:Arial;writing-mode:lr-tb;fill:#ffffff;fill-opacity:1;fill-rule:nonzero;stroke:none"
         x="0"
         y="0"
         id="tspan23">N</tspan></text>
    <path
       id="path24"
       d="m 339.801,398.039 c 28.695,16.566 38.527,53.266 21.961,81.961 -16.567,28.695 -53.266,38.527 -81.961,21.961 C 251.105,485.395 241.273,448.695 257.84,420 c 16.566,-28.695 53.265,-38.527 81.961,-21.961"
       style="fill:#000000;fill-opacity:1;fill-rule:nonzero;stroke:none"
       transform="matrix(0.13333333,0,0,-0.13333333,0,120)" />
    <path
       id="path25"
       d="m 222.84,480.621 35,-60.621 103.922,60 -35,60.621 z"
       style="fill:#000000;fill-opacity:1;fill-rule:nonzero;stroke:none"
       transform="matrix(0.13333333,0,0,-0.13333333,0,120)" />
    <text
       id="text25"
       xml:space="preserve"
       transform="matrix(1.3333333,-9.3333333e-8,0,1.3333333,36.4932,64.533333)"><tspan
         style="font-variant:normal;font-weight:normal;font-size:10px;font-family:Arial;writing-mode:lr-tb;fill:#ffffff;fill-opacity:1;fill-rule:nonzero;stroke:none"
         x="0"
         y="0"
         id="tspan25">R</tspan></text>
    <path
       id="path26"
       d="M 513,398.039 C 541.695,414.605 551.527,451.305 534.961,480 518.395,508.695 481.695,518.527 453,501.961 424.305,485.395 414.473,448.695 431.039,420 447.605,391.305 484.305,381.473 513,398.039"
       style="fill:#000000;fill-opacity:1;fill-rule:nonzero;stroke:none"
       transform="matrix(0.13333333,0,0,-0.13333333,0,120)" />
    <path
       id="path27"
       d="m 396.039,480.621 35,-60.621 103.922,60 -35,60.621 z"
       style="fill:#000000;fill-opacity:1;fill-rule:nonzero;stroke:none"
       transform="matrix(0.13333333,0,0,-0.13333333,0,120)" />
    <text
       id="text27"
       xml:space="preserve"
       transform="matrix(1.3333333,-9.3333333e-8,0,1.3333333,59.953067,64.533333)"><tspan
         style="font-variant:normal;font-weight:normal;font-size:10px;font-family:Arial;writing-mode:lr-tb;fill:#ffffff;fill-opacity:1;fill-rule:nonzero;stroke:none"
         x="0"
         y="0"
         id="tspan27">P</tspan></text>
    <path
       id="path28"
       d="m 716.199,450 c 0,33.137 -26.863,60 -60,60 -33.136,0 -60,-26.863 -60,-60 0,-33.137 26.864,-60 60,-60 33.137,0 60,26.863 60,60"
       style="fill:#000000;fill-opacity:1;fill-rule:nonzero;stroke:none"
       transform="matrix(0.13333333,0,0,-0.13333333,0,120)" />
    <text
       id="text28"
       xml:space="preserve"
       transform="matrix(1.3333333,-9.3333333e-8,0,1.3333333,83.046933,64.533333)"><tspan
         style="font-variant:normal;font-weight:normal;font-size:10px;font-family:Arial;writing-mode:lr-tb;fill:#ffffff;fill-opacity:1;fill-rule:nonzero;stroke:none"
         x="0"
         y="0"
         id="tspan28">E</tspan></text>
    <path
       id="path29"
       d="m 309.438,630.621 70,-121.242 103.925,60 -70,121.242 z"
       style="fill:#000000;fill-opacity:1;fill-rule:nonzero;stroke:none"
       transform="matrix(0.13333333,0,0,-0.13333333,0,120)" />
    <text
       id="text29"
       xml:space="preserve"
       transform="matrix(1.3333333,-9.3333333e-8,0,1.3333333,48.040133,44.533333)"><tspan
         style="font-variant:normal;font-weight:normal;font-size:10px;font-family:Arial;writing-mode:lr-tb;fill:#ffffff;fill-opacity:1;fill-rule:nonzero;stroke:none"
         x="0"
         y="0"
         id="tspan29">A</tspan></text>
    <path
       id="path30"
       d="m 543,750 c 0,33.137 -26.863,60 -60,60 -33.137,0 -60,-26.863 -60,-60 0,-33.137 26.863,-60 60,-60 33.137,0 60,26.863 60,60"
       style="fill:#000000;fill-opacity:1;fill-rule:nonzero;stroke:none"
       transform="matrix(0.13333333,0,0,-0.13333333,0,120)" />
    <text
       id="text30"
       xml:space="preserve"
       transform="matrix(1.3333333,-9.3333333e-8,0,1.3333333,59.5864,24.533333)"><tspan
         style="font-variant:normal;font-weight:normal;font-size:10px;font-family:Arial;writing-mode:lr-tb;fill:#ffffff;fill-opacity:1;fill-rule:nonzero;stroke:none"
         x="0"
         y="0"
         id="tspan30">C</tspan></text>
  </g>
</svg>
