<?xml version="1.0" encoding="UTF-8"?>
<svg width="27.32mm" height="38.032mm" version="1.1" viewBox="0 0 27.32 38.032" xmlns="http://www.w3.org/2000/svg">
 <g transform="translate(-85.438 -314.04)">
  <g transform="translate(.79554 5.5688)">
   <path transform="translate(-7.925e-7)" d="m97.652 308.47-0.79554 6.5632 4.7732 0.19889 1.1109-6.6666z" fill="#f2f2f2"/>
   <g stroke-linecap="round" stroke-linejoin="round">
    <path d="m111.74 315.86-6.0472 14.766h-20.673l6.1878-14.907z" fill="#008eff" stroke="#000" stroke-width=".6"/>
    <path d="m111.52 315.86 0.14064 16.313-6.4691 13.993 0.28126-15.681z" fill="#008eff" stroke="#000" stroke-width=".6"/>
    <path d="m105.16 346.2 0.28125-15.61-20.357-0.0217 0.14063 15.526z" fill="#008eff" stroke="#000" stroke-width=".6"/>
    <path d="m96.122 315.86-3.0939 7.1722h8.5083l2.9533-7.3129z" stroke="#000" stroke-width=".6"/>
    <path d="m102.66 323.17 4.6057 0.21095 2.5314-6.5746-4.6057-0.10548z" fill="#a9c2d9" stroke="#000" stroke-width=".4"/>
    <path d="m89.02 322.82 3.0939-0.0351 2.9533-6.6097h-3.2697z" fill="#a9c2d9" stroke="#000" stroke-width=".4"/>
    <path d="m91.09 333.8-2.0646 6.1528 9.2688 0.0279 1.8204-6.2846z" fill="#c3cfd9" stroke="#000" stroke-width=".4"/>
    <path d="m89.083 339.82 1.4262 2.436h9.2858l-1.4193-2.2336z" stroke="#000" stroke-width=".3607"/>
    <path d="m99.795 342.25 0.29018-8.5209-1.7018 6.2554z" fill="#a9c2d9" stroke="#000" stroke-width=".4"/>
    <path d="m90.19 336.52 9.0896-0.0931" fill="#fff" stroke="#000" stroke-width=".4"/>
    <path d="m91.901 339.78 1.7138-5.9063" fill="#fff" stroke="#000" stroke-width=".4"/>
    <path d="m96.777 333.8-1.8742 6.1753 1.3229 2.311" fill="none" stroke="#000" stroke-width=".4"/>
    <path d="m91.901 339.95 1.1624 2.1657" fill="none" stroke="#000" stroke-width=".3607"/>
    <path d="m101.44 324.7a0.087084 0.16399 25.044 0 0-0.14279 0.15179l-0.92314 2.8537-0.64588-0.0129a0.087084 0.16399 25.044 0 0-0.1423 0.15135l-0.12994 0.40155a0.087084 0.16399 25.044 0 0 0.04305 0.15552l1.7503 0.0355a0.087084 0.16399 25.044 0 0 0.14268-0.15136l0.1295-0.40153a0.087084 0.16399 25.044 0 0-0.043-0.15553l-0.64442-0.0129 0.92327-2.8542a0.087084 0.16399 25.044 0 0-0.0436-0.1551zm0.91743 0.0188a0.087084 0.16399 25.044 0 0-0.1523 0.25227l0.27058 1.3839c-0.12045 0.0844-0.24308 0.16374-0.34825 0.29772-0.15108 0.19358-0.27255 0.43614-0.36036 0.70759-0.0651 0.20141-0.0991 0.37987-0.0936 0.5283 4e-3 0.14098 0.0362 0.25961 0.0932 0.35066 0.0511 0.0809 0.11903 0.13703 0.20306 0.16804 0.0822 0.0321 0.18728 0.0478 0.3162 0.0504l0.57794 0.0117a0.087084 0.16399 25.044 0 0 0.14278-0.15178l1.1027-3.4087a0.087084 0.16399 25.044 0 0-0.0434-0.15553l-0.27491-6e-3a0.087084 0.16399 25.044 0 0-0.14156 0.15135l-0.38887 1.2025-0.25137-5e-3 -0.24211-1.3143a0.087084 0.16399 25.044 0 0-0.0532-0.0567zm2.0219 0.0409a0.087084 0.16399 25.044 0 0-0.1535 0.20307l-0.35234 3.4262a0.087084 0.16399 25.044 0 0 0.0547 0.10212l0.36745 7e-3a0.087084 0.16399 25.044 0 0 0.11937-0.0984l1.8547-3.3958a0.087084 0.16399 25.044 0 0-0.0204-0.20598l-0.27894-6e-3a0.087084 0.16399 25.044 0 0-0.12034 0.10053l-0.45559 0.84478-0.76157-0.0155 0.0935-0.85227a0.087084 0.16399 25.044 0 0-0.0543-0.10383zm0.17869 1.6604 0.46226 9e-3 -0.57676 1.0616zm-1.7046 0.36151 0.18566 5e-3 -0.31729 0.98154-0.23081-5e-3c-0.0694-1e-3 -0.12472-0.0114-0.16617-0.0279a0.087084 0.16399 25.044 0 0-3e-3 2e-5c-0.0396-0.0144-0.0665-0.0389-0.0844-0.0704a0.087084 0.16399 25.044 0 0-3.8e-4 -2e-3c-0.0231-0.0392-0.03-0.0786-0.0273-0.12635a0.087084 0.16399 25.044 0 0 4.7e-4 -5e-3c2e-3 -0.0519 0.0138-0.1145 0.0394-0.19389 0.0365-0.11486 0.0752-0.20189 0.10862-0.26059a0.087084 0.16399 25.044 0 0 6.2e-4 -2e-3c0.0338-0.0602 0.0718-0.11212 0.12033-0.16137 0.0498-0.05 0.10028-0.0842 0.15828-0.10383 0.0625-0.0197 0.13437-0.0297 0.21556-0.0279z" fill="#fff" stroke-width=".75705"/>
    <path d="m88.922 324.68a0.072818 0.15315 22.489 0 0-0.12194 0.14189l-0.44487 1.4265-1.1916 1.8353a0.072818 0.15315 22.489 0 0-0.0021 0.22021l0.25195 2e-3a0.072818 0.15315 22.489 0 0 0.08785-0.0673l0.83106-1.291 0.01828 1.301a0.072818 0.15315 22.489 0 0 0.04497 0.0691l0.26215 2e-3a0.072818 0.15315 22.489 0 0 0.13494-0.21884l-0.03128-1.8976 0.43012-1.3784a0.072818 0.15315 22.489 0 0-0.03164-0.14372zm0.8416 0.0107a0.072818 0.15315 22.489 0 0-0.13177 0.23759l0.19889 1.3551c-0.10773 0.0839-0.21699 0.16431-0.3124 0.29758-0.13501 0.18956-0.24585 0.42469-0.32856 0.6899-0.06112 0.19601-0.09463 0.37053-0.09383 0.51411l-3.48e-4 1e-3c-3.23e-4 0.13727 0.02483 0.25148 0.07168 0.33969 0.04199 0.0782 0.09846 0.13267 0.17008 0.16206l7.03e-4 -2e-3c0.06998 0.0306 0.15954 0.0453 0.27093 0.0468l0.50075 6e-3a0.072818 0.15315 22.489 0 0 0.12088-0.14188l1.0433-3.3451a0.072818 0.15315 22.489 0 0-0.03162-0.14373l-0.2379-2e-3a0.072818 0.15315 22.489 0 0-0.12193 0.14189l-0.37002 1.1866-0.22104-2e-3 -0.17675-1.2841a0.072818 0.15315 22.489 0 0-0.04251-0.0527zm1.8547 0.022a0.072818 0.15315 22.489 0 0-0.12089 0.14188l-0.12334 0.39553a0.072818 0.15315 22.489 0 0 0.03128 0.14603l0.86234 0.0107-0.29764 0.95451-0.86234-0.0107a0.072818 0.15315 22.489 0 0-0.12088 0.14189l-0.12335 0.39553a0.072818 0.15315 22.489 0 0 0.03093 0.14602l0.86269 0.0107-0.19573 0.6272-0.86234-0.0107a0.072818 0.15315 22.489 0 0-0.12158 0.14372l-0.12334 0.39551a0.072818 0.15315 22.489 0 0 0.03162 0.14373l1.1779 0.0138a0.072818 0.15315 22.489 0 0 0.12088-0.14188l1.0433-3.3456a0.072818 0.15315 22.489 0 0-0.03162-0.14371zm6.6829 0.0138c-0.11576-1e-3 -0.24511 0.0297-0.38654 0.0931a0.072818 0.15315 22.489 0 0-7.02e-4 1e-3c-0.13937 0.0633-0.27231 0.13559-0.40095 0.22157a0.072818 0.15315 22.489 0 0-0.08679 0.13191l-0.44733 1.4348a0.072818 0.15315 22.489 0 0 0.03198 0.14601l0.71334 7e-3a0.072818 0.15315 22.489 0 0 0.12264-0.14371l0.12229-0.39142a0.072818 0.15315 22.489 0 0-0.03303-0.14371l-0.4013-5e-3 0.17746-0.56904c0.05124-0.0273 0.10253-0.0556 0.16305-0.075 0.07938-0.0257 0.15531-0.0376 0.227-0.0366 0.19386 2e-3 0.30092 0.10881 0.34191 0.31955 0.04037 0.21096 0.0043 0.50546-0.12264 0.91285-0.11999 0.38475-0.26077 0.66823-0.4273 0.87622-0.16777 0.20947-0.33281 0.31166-0.51621 0.30946-0.08392-9.8e-4 -0.15307-0.0169-0.20662-0.0458a0.072818 0.15315 22.489 0 0-1e-3 -1e-5c-0.05712-0.0288-0.10297-0.0656-0.13951-0.10762-0.03046-0.0359-0.06034-0.0812-0.0875-0.13636-0.02841-0.0578-0.04871-0.10325-0.06079-0.13544a0.072818 0.15315 22.489 0 0-0.03795-0.0315l-0.02109-4.4e-4a0.072818 0.15315 22.489 0 0-0.12264 0.14417l-0.16445 0.52784a0.072818 0.15315 22.489 0 0 0.0042 0.12877c0.09101 0.11419 0.18445 0.19758 0.28253 0.24676l0.0014-1e-5c0.09544 0.0498 0.19648 0.0771 0.30397 0.0783 0.30572 2e-3 0.61037-0.16135 0.89923-0.49853 0.28748-0.33555 0.52388-0.80042 0.69929-1.3629 0.09535-0.30574 0.15648-0.5798 0.18203-0.819 0.02478-0.23527 0.01789-0.43639-0.02319-0.59834-0.04064-0.15994-0.11285-0.28109-0.21401-0.36028-0.1006-0.0787-0.22449-0.11866-0.37073-0.1205zm-5.2686 2e-3a0.072818 0.15315 22.489 0 0-0.12088 0.14189l-0.12334 0.39553a0.072818 0.15315 22.489 0 0 0.03127 0.14555l0.8163 0.0107-0.87498 2.8049a0.072818 0.15315 22.489 0 0 0.03162 0.14371l0.2379 2e-3a0.072818 0.15315 22.489 0 0 0.12194-0.14188l1.0433-3.3456a0.072818 0.15315 22.489 0 0-0.03268-0.14371zm1.368 0.0166a0.072818 0.15315 22.489 0 0-0.12194 0.14187l-0.12335 0.3951a0.072818 0.15315 22.489 0 0 0.03233 0.14601l0.8149 0.01-0.87463 2.8054a0.072818 0.15315 22.489 0 0 0.03302 0.14371l0.23755 2e-3a0.072818 0.15315 22.489 0 0 0.12088-0.14189l1.0433-3.3456a0.072818 0.15315 22.489 0 0-0.03162-0.14373zm1.4014 0.0165a0.072818 0.15315 22.489 0 0-0.13318 0.19182l-0.39216 3.3511a0.072818 0.15315 22.489 0 0 0.04322 0.0961l0.31626 2e-3a0.072818 0.15315 22.489 0 0 0.10262-0.0944l1.693-3.3355a0.072818 0.15315 22.489 0 0-0.01299-0.19365l-0.24106-2e-3a0.072818 0.15315 22.489 0 0-0.1026 0.0944l-0.41817 0.83457-0.66345-7e-3 0.10366-0.83822a0.072818 0.15315 22.489 0 0-0.04216-0.0962zm0.11069 1.6096 0.40938 4e-3 -0.53905 1.0658zm-5.7679 0.31772 0.16235 1e-3 -0.30396 0.97512-0.2024-1e-3c-0.06014-7.2e-4 -0.10797-0.0107-0.14373-0.0266a0.072818 0.15315 22.489 0 0-1e-3 0c-0.0343-0.0138-0.05677-0.0382-0.07168-0.0695a0.072818 0.15315 22.489 0 0-1e-3 2e-5c-0.01933-0.0387-0.02508-0.0793-0.02144-0.12694a0.072818 0.15315 22.489 0 0 1e-3 -4e-3c0.0031-0.0516 0.01451-0.11419 0.03901-0.19274 0.03529-0.11325 0.07099-0.1995 0.10191-0.25819 0.03129-0.0601 0.06799-0.11379 0.11174-0.16298 0.04467-0.0494 0.08977-0.0824 0.14056-0.10207 0.05493-0.0199 0.11833-0.032 0.1887-0.0312z" fill="#fff" stroke-width=".77615"/>
    <path d="m106.95 329.92 0.49222 8.0864 3.1642-6.3988-0.21095-9.352z" fill="#a9c2d9" stroke="#000" stroke-width=".2"/>
    <path d="m97.268 323.17 2.7217-7.5203" stroke="#fff" stroke-width=".4"/>
   </g>
   <path d="m108.04 332.36 1.2427 0.35215m-0.44024 0.73547-1.275-0.35456" fill="none" stroke="#40bfbf" stroke-linecap="round" stroke-linejoin="round" stroke-width=".4"/>
   <path d="m108.77 327.81 1.2427 0.35215m-0.44024 0.73547-1.275-0.35456" fill="none" stroke="#40bfbf" stroke-linecap="round" stroke-linejoin="round" stroke-width=".4"/>
   <path d="m105.95 318.74 0.96411 1.8916m-1.6869-0.73517 0.88953 1.7424" fill="none" stroke="#40bfbf" stroke-linecap="round" stroke-linejoin="round" stroke-width=".4"/>
   <path d="m92.039 317.99 0.56634 1.1457m-1.2891 0.0106 0.64092 1.3446" fill="none" stroke="#40bfbf" stroke-linecap="round" stroke-linejoin="round" stroke-width=".4"/>
  </g>
 </g>
</svg>
