<?xml version="1.0" encoding="UTF-8"?>
<svg width="421.38mm" height="24.927mm" viewBox="0 0 421.38 24.927" xmlns="http://www.w3.org/2000/svg">
 <g transform="translate(116.18 -146.75)">
  <path d="m291.2 160.6 8.3945-.16124.47034 5.7943 5.1406.12229-.37723-7.2199-1.6344-2.738-3.5804-1.3263-8.1626-.27893z" fill="#f2f2f2"/>
  <g transform="translate(-71.435 -257.81)">
   <path d="m362.39 425.81.18709-20.954-407.02.48302.56127 21.328z" fill="#d8b6e7" stroke="#000" stroke-linecap="round" stroke-linejoin="round" stroke-width=".6"/>
   <path d="m-43.639 421.77 405.84.33525-.0387-2.617-405.93.4229z" fill="#9842c0" stroke="#000" stroke-linecap="round" stroke-linejoin="round" stroke-width=".60391"/>
   <path d="m-44.017 411.72 406.41.34014.00001-2.9801-406.32.40823z" fill="#9842c0" stroke="#000" stroke-linecap="round" stroke-linejoin="round" stroke-width=".6"/>
   <path d="m362.24 423.19-11.006 2.0541s-2.71-5.7461-2.1809-10.178c.39337-3.2945 1.7198-6.5484 1.7198-6.5484l11.49-.59726.35812-2.9384-15.02 1.7464s-5.0204 4.8079-5.6158 10.033c-.58572 5.1414 5.2817 11.533 5.2817 11.533l14.942-2.6868z" fill="#6d2e8a" stroke="#000" stroke-linecap="round" stroke-linejoin="round" stroke-width=".6"/>
   <g fill="#fff">
    <path transform="matrix(1.6729 0 0 1.1748 -238.33 -72.211)" d="m350.1 408.62a.091387.091387 0 0 0 -.0862.0528l-.13654.28327a.091387.091387 0 0 0 -.002.0743l.31849.79659-.51372-.24588a.091387.091387 0 0 0 -.12295.0431l-.1075.22653a.091387.091387 0 0 0 .0429.12096l1.5841.76184a.091387.091387 0 0 0 .12295-.0431l.10936-.22653a.091387.091387 0 0 0 -.0429-.12096l-.58972-.28327.97061-.35937a.091387.091387 0 0 0 .051-.0449l.14828-.31274a.091387.091387 0 0 0 -.11338-.12492l-1.1621.42579-.38862-.96462a.091387.091387 0 0 0 -.0819-.0589zm.75159 2.0744a.091387.091387 0 0 0 -.11708.0546l-.24435.65627-1.3475-.50364a.091387.091387 0 0 0 -.11738.0545l-.0896.23445a.091387.091387 0 0 0 .0547.1192l1.6484.61493a.091387.091387 0 0 0 .11707-.0546l.36545-.97825a.091387.091387 0 0 0 -.0547-.11744zm-.26567 1.2343-1.9199.25775a.091387.091387 0 0 0 -.0763.0647l-.0488.16979a.091387.091387 0 0 0 .0293.0959l1.4843 1.2246a.091387.091387 0 0 0 .14643-.0449l.0726-.24808a.091387.091387 0 0 0 -.0294-.0959l-.39262-.32198.17762-.60349.50785-.0686a.091387.091387 0 0 0 .0741-.0642l.0741-.24808a.091387.091387 0 0 0 -.0995-.11744zm-.99809.56082-.076.25952-.26566-.2129zm-1.2304.58369a.091387.091387 0 0 0 -.0528.0686l-.0429.24588a.091387.091387 0 0 0 .0411.0937l.91407.56654-1.0568.22081a.091387.091387 0 0 0 -.0701.0739l-.0429.23445a.091387.091387 0 0 0 .0408.0937l.91623.57226-1.0568.21905a.091387.091387 0 0 0 -.0723.0721l-.0429.24984a.091387.091387 0 0 0 .1075.10556l1.863-.38663a.091387.091387 0 0 0 .0723-.0721l.0102-.055a.091387.091387 0 0 0 -.0411-.0937l-1.1133-.7029 1.2872-.26788a.091387.091387 0 0 0 .0701-.0721l.0102-.0546a.091387.091387 0 0 0 -.0411-.0937l-1.6131-1.0117a.091387.091387 0 0 0 -.0862-.006zm.49055 3.0113c-.0319-.00074-.0638.00024-.0961.003-.17928.0134-.34447.0706-.49025.17199-.14578.1014-.2567.23433-.32404.39411-.0701.16399-.0908.36981-.0723.61757l.0448.59161a.091387.091387 0 0 0 .0976.084l1.7522-.13108a.091387.091387 0 0 0 .0837-.0972l-.0408-.55467c-.0118-.15737-.0239-.26338-.0392-.33033-.0151-.0618-.0397-.12728-.0723-.1953v-.002c-.056-.11974-.13603-.22377-.23446-.31054-.0963-.0856-.20623-.15077-.32807-.19178-.0914-.0308-.18521-.047-.2808-.0493zm-.0766.44602c.17135-.0128.30522.0303.42197.12888.0354.0305.0661.0635.0918.10161.023.0345.0458.0831.0664.14427.0181.0563.0338.14812.0429.26964l.0176.23049-1.121.0858-.0176-.22433c-.009-.11811-.0103-.20439-.006-.24808.004-.0452.0156-.0966.0371-.15263.0207-.0546.0495-.10187.084-.14428.0943-.11732.2152-.17881.38305-.19134zm1.0898 1.2848a.091387.091387 0 0 0 -.0917.0295l-.10164.1192h.002c-.0375.0439-.0993.10805-.18164.18958-.13363.13248-.22521.2316-.28111.30658-.028.0377-.0436.0753-.0646.11305-.0488-.0452-.0914-.10122-.15229-.12492-.10259-.0399-.21538-.0445-.32992-.0176-.16698.0392-.29975.13816-.37316.28327-.0738.14435-.0833.31568-.0392.50364l.0998.42975a.091387.091387 0 0 0 .10936.0686l1.7129-.40248a.091387.091387 0 0 0 .0683-.10952l-.0565-.24588a.091387.091387 0 0 0 -.10936-.0682l-.65428.15395c-.008-.0511-.0118-.0986-.0102-.10513a.091387.091387 0 0 0 0-.00044.091387.091387 0 0 0 0-.00044.091387.091387 0 0 0 0-.00044.091387.091387 0 0 0 0-.00044.091387.091387 0 0 0 0-.00044c.006-.0251.0241-.065.0528-.11128.0271-.0446.0672-.1.1211-.16231l.004-.004.11121-.10909.10565-.10556a.091387.091387 0 0 0 .006-.004l.0547-.0647a.091387.091387 0 0 0 .002 0c.008-.009.0131-.0168.0117-.0154a.091387.091387 0 0 0 .002-.002l.0958-.0994a.091387.091387 0 0 0 .0235-.084l-.0704-.29294a.091387.091387 0 0 0 -.0664-.0664zm-1.0472 1.0416c.0176.00075.0343.004.051.01a.091387.091387 0 0 0 .002 0c.0313.01.054.0262.076.0546.0125.0159.0465.0915.0744.21069l.002.006-.36143.084c-.023-.10381-.0324-.18551-.029-.21685a.091387.091387 0 0 0 0-.00044.091387.091387 0 0 0 0-.00044.091387.091387 0 0 0 0-.00044.091387.091387 0 0 0 0-.00044c.004-.0388.0152-.0633.0389-.088a.091387.091387 0 0 0 0-.00044.091387.091387 0 0 0 0-.00044.091387.091387 0 0 0 0-.00044.091387.091387 0 0 0 0-.00044.091387.091387 0 0 0 0-.00044c.0246-.0261.0516-.0416.0899-.0506l-.00031-.00044c.0203-.005.0389-.006.0565-.005zm1.4105.47813a.091387.091387 0 0 0 -.0859.0176l-1.4865 1.2382a.091387.091387 0 0 0 -.0294.0959l.047.17155a.091387.091387 0 0 0 .0781.0647l1.9082.24632a.091387.091387 0 0 0 .0976-.11745l-.0701-.24808a.091387.091387 0 0 0 -.0763-.0642l-.50199-.0647-.1699-.60525.39078-.32813a.091387.091387 0 0 0 .0293-.0959l-.0704-.24808a.091387.091387 0 0 0 -.0605-.0625zm-.6311 1.0236.0744.25952-.33795-.0392zm.51094.87401c-.0983.002-.19823.0202-.2981.0537-.26614.0892-.46676.26416-.58199.51156-.11556.24658-.12562.51691-.0331.79307.0926.27617.26346.48664.50384.61141.24036.12475.50667.14063.77537.0506.26265-.088.46071-.25993.57612-.50188.11421-.24245.12385-.50726.0334-.77724-.0942-.2811-.26294-.49515-.50198-.62504-.15004-.0815-.30978-.1202-.47356-.11612zm.067.44206c.0737.005.14511.026.21686.0629.14308.073.23894.18409.29501.35145.0559.16687.0469.31206-.0213.45481-.0682.14272-.17201.2358-.33208.28943-.16637.0558-.31001.0462-.44946-.0255-.13985-.0725-.23305-.18639-.291-.35937-.0544-.16221-.0462-.30661.0235-.45129.0687-.14505.17178-.23663.32806-.28899h.00031c.0808-.0271.15646-.0383.23014-.0334zm.90511 1.4282c-.0757-.004-.15172.009-.22519.0387-.12435.0495-.22103.13971-.27741.25996-.0404.085-.0323.18471-.0293.28327-.12827-.0737-.26032-.15382-.40035-.0981-.0969.0386-.1783.0981-.23632.17771-.0583.0794-.0903.17548-.0976.27931-.008.11151.0192.23655.076.37916l.17206.42755a.091387.091387 0 0 0 .11708.051l1.6348-.65056a.091387.091387 0 0 0 .051-.1192l-.22087-.55246c-.0534-.13416-.12083-.24222-.20882-.32066-.0842-.0757-.17869-.12602-.27926-.14648v.00044c-.025-.005-.0504-.008-.0757-.01zm-.0349.4469c.0162-.001.0332-.00039.0519.004v.00044a.091387.091387 0 0 0 .002 0c.036.007.0636.0234.0899.0488.0154.0153.0642.0933.11337.21685l.0584.14428-.34753.14075-.0547-.1346c-.0442-.11134-.0638-.19624-.0646-.23664-.00091-.0467.008-.0784.0275-.10733a.091387.091387 0 0 0 0-.00044.091387.091387 0 0 0 0-.00044.091387.091387 0 0 0 0-.00044.091387.091387 0 0 0 0-.00044c.0201-.0315.0432-.0493.0763-.0625.0159-.006.0313-.0105.0476-.0119zm-.6413.42534c.0228.00035.0447.006.0683.018a.091387.091387 0 0 0 .002.002c.0358.0175.0856.0734.13098.18738l.0293.0704-.3225.12888-.0466-.11744c-.0353-.0887-.0385-.15024-.0275-.18738.0109-.0371.0313-.0618.0917-.0858.0279-.0111.0517-.0166.0744-.0163z"/>
    <circle cx="347.07" cy="428.36" r=".92604" stroke="#000" stroke-linecap="round" stroke-linejoin="round" stroke-width=".4"/>
    <circle cx="345.61" cy="426.25" r=".92604" stroke="#000" stroke-linecap="round" stroke-linejoin="round" stroke-width=".4"/>
    <circle cx="343.93" cy="423.9" r=".92604" stroke="#000" stroke-linecap="round" stroke-linejoin="round" stroke-width=".4"/>
    <circle cx="342.64" cy="420.72" r=".92604" stroke="#000" stroke-linecap="round" stroke-linejoin="round" stroke-width=".4"/>
    <circle cx="342.11" cy="417.88" r=".92604" stroke="#000" stroke-linecap="round" stroke-linejoin="round" stroke-width=".4"/>
    <circle cx="342.37" cy="414.84" r=".92604" stroke="#000" stroke-linecap="round" stroke-linejoin="round" stroke-width=".4"/>
    <circle cx="343.17" cy="412.16" r=".92604" stroke="#000" stroke-linecap="round" stroke-linejoin="round" stroke-width=".4"/>
    <circle cx="344.82" cy="409.48" r=".92604" stroke="#000" stroke-linecap="round" stroke-linejoin="round" stroke-width=".4"/>
    <circle cx="346.8" cy="407" r=".92604" stroke="#000" stroke-linecap="round" stroke-linejoin="round" stroke-width=".4"/>
    <circle cx="350.71" cy="424.33" r=".92604" stroke="#000" stroke-linecap="round" stroke-linejoin="round" stroke-width=".4"/>
    <circle cx="349.78" cy="421.68" r=".92604" stroke="#000" stroke-linecap="round" stroke-linejoin="round" stroke-width=".4"/>
    <circle cx="349.09" cy="418.84" r=".92604" stroke="#000" stroke-linecap="round" stroke-linejoin="round" stroke-width=".4"/>
    <circle cx="348.79" cy="415.93" r=".92604" stroke="#000" stroke-linecap="round" stroke-linejoin="round" stroke-width=".4"/>
    <circle cx="349.35" cy="413.28" r=".92604" stroke="#000" stroke-linecap="round" stroke-linejoin="round" stroke-width=".4"/>
    <circle cx="350.08" cy="410.63" r=".92604" stroke="#000" stroke-linecap="round" stroke-linejoin="round" stroke-width=".4"/>
    <circle cx="351.57" cy="408.62" r=".92604" stroke="#000" stroke-linecap="round" stroke-linejoin="round" stroke-width=".4"/>
   </g>
  </g>
 </g>
</svg>
