<?xml version="1.0" encoding="UTF-8"?>
<svg width="13.796mm" height="13.796mm" version="1.1" viewBox="0 0 13.796 13.796" xmlns="http://www.w3.org/2000/svg">
 <g transform="translate(-2.6914 -2.7196)">
  <g transform="translate(-81.756 -132.82)">
   <ellipse cx="91.346" cy="142.44" rx="6.8982" ry="6.8979" fill="#2f687d"/>
   <path d="m87.466 139.31c-0.51501-5e-3 -0.9388 0.4754-0.95348 1.0808l-0.15079 1.9221c-0.0101 0.41325 0.26272 0.76011 0.61386 0.78052l0.72788 0.11228 0.80417 2.3498 0.16268-2.3132 0.81182 0.0151 0.0975-1.7508c0.0105-0.50776 0.49175-0.86649 0.90387-0.86998l2.9809-0.0511 4e-3 -0.32148c-6e-3 -0.50675-0.35566-0.91481-0.78663-0.91907z" fill="#f2f2f2"/>
   <path transform="matrix(-.5454 0 0 .64136 197.69 13.316)" d="m190.47 208.51-1.1618-3.1554-2.6264 0.0495a1.2318 1.2318 42.207 0 1-1.2511-1.1348l-0.24421-3.0985a1.5537 1.5537 133.06 0 1 1.5661-1.6757l8.7543 0.0969a1.4545 1.4545 44.971 0 1 1.4383 1.4368l0.0343 2.8374a1.3325 1.3325 133.75 0 1-1.2906 1.3479l-3.2062 0.10066z" fill="#f2f2f2"/>
  </g>
 </g>
</svg>
