<?xml version="1.0" encoding="UTF-8"?>
<svg width="30.307mm" height="26.905mm" version="1.1" viewBox="0 0 30.307 26.905" xmlns="http://www.w3.org/2000/svg">
 <g transform="translate(-187.24 -321.21)">
  <path d="m217.51 323.98-5.1974 0.13161 0.0661 3.9791 5.17-0.1824z" fill="#f2f2f2"/>
  <g transform="translate(-9.1667e-7 -1.25e-5)" stroke-linejoin="round">
   <g stroke="#000">
    <path d="m188 327.01 15.832 0.30403 8.2787-5.7998h-15.154z" fill="#9842c0" stroke-width=".6"/>
    <path d="m203.55 326.89 1.2395-0.65481-15.458 0.0234c-0.62957 0.064-1.2514 0.15112-1.789 0.49111z" fill="#d8b6e7" stroke-width=".3"/>
    <path d="m187.61 346.88 16.056 0.92271-0.11789-21.076-16.008 0.1586z" fill="#d8b6e7" stroke-width=".6"/>
    <path d="m203.69 347.24 8.2787-5.0514 0.18709-20.673-8.4424 5.5659z" fill="#9842c0" stroke-width=".6"/>
    <path d="m204.68 346.68-0.0468-20.276c-0.14369-0.16939-0.5476 0.33542-1.128 0.33542l0.0224 21.081c0.58404-0.0385 1.1839-0.51507 1.1525-1.1412z" fill="#d8b6e7" stroke-width=".6"/>
    <g stroke-width=".3">
     <path d="m211.75 328.45-5.3344 3.3217 0.0992-4.4648 5.2546-3.149z" fill="#d8b6e7"/>
     <path d="m211.08 341.23-4.7698 2.9489-0.0855-11.028 4.9102-2.8549c0.0494 4.2464-0.0548 10.934-0.0548 10.934z" fill="#fff"/>
     <path d="m204.39 325.47 4.8286-3.0427-11.675 0.16537-4.2003 2.5466z" fill="#fff"/>
    </g>
   </g>
   <path d="m200.85 323.36 1.5925 1.3955m-3.4397-1.4297 1.551 1.4117" fill="none" stroke="#40bfbf" stroke-linecap="round" stroke-width=".4"/>
   <path transform="matrix(-.062027 -1.1964 .79043 -.87631 -9.1667e-7 -1.25e-5)" d="m-446.43 228.42c0.01543-0.02009 0.0312-0.04156 0.04669-0.06433a0.027371 0.027371 84.345 0 0-0.0061-0.03709l-0.04702-0.03899a0.027371 0.027371 84.345 0 0-0.03884 0.00349c-0.0476 0.065-0.08907 0.11374-0.12321 0.14462-0.0342 0.0309-0.0616 0.04323-0.074 0.04323-5e-3 0-0.00544-8.2e-4 -0.00644-0.00182-6.5e-4 -5.2e-4 -0.00269-0.00217-0.00369-0.00617l-2.7e-4 -0.00198c-3e-3 -0.016-0.00552-0.05303-0.00552-0.10569l1.9e-4 -0.20135c0-0.0602-0.00472-0.1105-0.01072-0.1499s-0.01401-0.06813-0.03081-0.09003c-0.028-0.0366-0.07061-0.05643-0.11935-0.05643-0.0534 0-0.10519 0.02138-0.15401 0.06048-0.0361 0.0289-0.08479 0.09606-0.1329 0.16021l5e-5 -0.20529a0.027371 0.027371 84.345 0 0-0.04097-0.02544l-0.14661 0.07218a0.027371 0.027371 84.345 0 0-0.01558 0.01774c-0.0233 0.10229-0.08716 0.22196-0.17594 0.35165-0.0492 0.075-0.12673 0.09261-0.18934 0.13878 0.0654-0.0866 0.12324-0.17578 0.12324-0.27734 0-0.088-0.02781-0.16143-0.08401-0.21318-0.0552-0.0518-0.13248-0.07583-0.2248-0.07583-0.0969 0-0.18997 0.02866-0.27727 0.08546-0.0809 0.0526-0.18131 0.17405-0.29523 0.33053a0.027371 0.027371 84.345 0 0-0.01147 0.00563c-0.0497 0.0651-0.09257 0.11394-0.12693 0.14499-0.0344 0.031-0.06088 0.04286-0.07028 0.04286-6e-3 0-0.00708-9.4e-4 -0.00808-0.00194-9.1e-4 -7.7e-4 -0.00182-0.00511-0.00382-0.01011l-2.8e-4 -0.00198c-4e-3 -0.0184-0.00817-0.06033-0.00817-0.12093l4.7e-4 -0.42819c0.15555-0.24212 0.26702-0.43193 0.33362-0.5681 0.0673-0.13867 0.1019-0.24986 0.1019-0.33785 0-0.0649-0.01594-0.12027-0.05094-0.16221-0.0342-0.0424-0.08405-0.06415-0.14263-0.06415l7.7e-4 7.1e-4c-0.10936 0-0.21366 0.06533-0.30712 0.18577-0.0939 0.12097-0.14036 0.25849-0.14036 0.40805l-4.6e-4 0.58444c0 5e-3 -0.00984 0.04049-0.02914 0.08989-0.0189 0.0487-0.03529 0.08709-0.05069 0.11697-0.0158 0.0296-0.03143 0.0567-0.04693 0.08-9e-3 0.0132-0.01921 0.02822-0.02921 0.04282-0.0445 0.0623-0.08504 0.11066-0.12103 0.14284-0.0365 0.0327-0.06546 0.04497-0.06836 0.04497-9e-3 0-0.01389-9e-4 -0.01589-0.0019 1e-3 2e-3 -0.00271-0.00843-0.00371-0.02383-1e-3 -0.0151-0.00232-0.03559-0.00232-0.06229l1.6e-4 -0.51385a0.027371 0.027371 84.345 0 0-0.03906-0.02333l-0.12338 0.06288c-0.0495-0.0269-0.10045-0.04528-0.15214-0.04528-0.0832 0-0.17375 0.04237-0.2749 0.12291-0.10054 0.0798-0.19595 0.19002-0.28566 0.32867a0.027371 0.027371 84.345 0 0 0.00818 0.03659l0.04893 0.03523a0.027371 0.027371 84.345 0 0 0.03901-0.0061c0.0167-0.0242 0.01937-0.02814 0.03097-0.04464 3e-3 0.0861 0.02373 0.16157 0.07063 0.21671 0.0512 0.059 0.12122 0.08996 0.20494 0.08996 0.0573 0 0.11067-0.01378 0.15627-0.03938l2.8e-4 0.00198c0.0375-0.0196 0.08031-0.06756 0.12461-0.11705 4e-3 0.0385 0.0059 0.082 0.0233 0.10381 0.0246 0.03 0.06355 0.0426 0.10962 0.0426 0.10746 0 0.20892-0.10439 0.31011-0.24175a0.027371 0.027371 84.345 0 0 0.02971-0.00813c7e-3 -0.01 0.01051-0.01974 0.01761-0.02934 5.5e-4 -7.5e-4 7.7e-4 -8.3e-4 0.00177-0.00183a0.027371 0.027371 84.345 0 0 0.00425-0.00816c3.4e-4 -4.8e-4 -6.1e-4 -9.8e-4 -2.7e-4 -0.00198 0.0251-0.035 0.04337-0.0715 0.06277-0.10753l4e-5 0.17391c0 0.0865 0.00571 0.14337 0.03291 0.17976 0.0234 0.0299 0.06051 0.04459 0.10167 0.04459 0.11402 0 0.22184-0.10579 0.32836-0.24425a0.027371 0.027371 84.345 0 0 0.03089-0.00738c0.01-0.0152 0.01129-0.01734 0.01969-0.02984a0.027371 0.027371 84.345 0 0 0.00367-0.00559c-6e-5 4e-3 2e-5 0.00807 2e-5 0.01177 0 0.0813 0.02944 0.15032 0.08254 0.20457 0.0547 0.0535 0.12763 0.08221 0.2145 0.08221 0.04704 0 0.08732-0.02148 0.12672-0.04563 0.01266-0.00375 0.02518-0.00847 0.03747-0.0134a0.027371 0.027371 84.345 0 0-0.0022 0.02009l0.01199 0.03494a0.027371 0.027371 84.345 0 0 0.02916 0.01798c0.0749-8e-3 0.15084-0.03116 0.2248-0.06866 0.065-0.0339 0.12971-0.11005 0.19701-0.19702a0.027371 0.027371 84.345 0 0 0.00204 1.6e-4 0.027371 0.027371 84.345 0 0 0.01959-0.01023c7e-3 -9e-3 0.00924-0.01842 0.01584-0.02752 5.6e-4 -7.7e-4 7.6e-4 -8.2e-4 0.00176-0.00182a0.027371 0.027371 84.345 0 0 0.00602-0.00999c3.5e-4 -4.9e-4 -2.1e-4 -9.5e-4 1.4e-4 -0.00195 0.0281-0.0392 0.04749-0.07845 0.06839-0.11754l-2.4e-4 0.40662a0.027371 0.027371 84.345 0 0 0.04319 0.02301l0.15024-0.09543a0.027371 0.027371 84.345 0 0 0.01349-0.02313l3.6e-4 -0.26998c2e-3 -3e-3 0.0026-0.0075 0.0076-0.0151 9e-3 -0.0144 0.02334-0.03579 0.04124-0.06279 0.0369-0.0549 0.06532-0.0938 0.08382-0.11503 0.019-0.0229 0.03678-0.03895 0.05098-0.04895 0.015-0.01 0.02571-0.0136 0.03501-0.0136 9e-3 0 0.01056 6.6e-4 0.01426 0.00766 4e-3 6e-3 0.00965 0.02141 0.00965 0.04521l-2e-4 0.34583c0 0.0866 0.00457 0.14285 0.03377 0.17917a0.027371 0.027371 84.345 0 0 0.00163 1.3e-4c0.0245 0.0297 0.0617 0.04475 0.10372 0.04475 0.10972 0 0.21626-0.07385 0.32427-0.21449zm-1.3917-6.8e-4c-0.0405 0.0495-0.09254 0.07421-0.16235 0.07421-0.0687 0-0.11351-0.01899-0.14452-0.05449-0.031-0.0354-0.04864-0.09136-0.04864-0.17184 0-0.0914 0.02029-0.16018 0.05849-0.20723 0.0395-0.0476 0.08735-0.06832 0.15414-0.06832l4.1e-4 4e-5c0.0634 0 0.11117 0.01891 0.14834 0.05871 0.0366 0.0383 0.05481 0.09116 0.05481 0.16578 0 0.087-0.02008 0.15353-0.06068 0.20314zm-0.86934-0.73442 2.4e-4 -0.40662c0-0.11948 0.02078-0.21159 0.06038-0.27704 0.0412-0.0664 0.08556-0.09373 0.13863-0.09373 0.0273 0 0.04158 0.00784 0.05468 0.02914 0.0131 0.0212 0.02154 0.05799 0.02154 0.11152 0 0.068-0.02048 0.15366-0.06278 0.25201-0.0331 0.078-0.11853 0.22538-0.21269 0.38472zm-0.78914 0.65396c-9e-3 0.0133-0.02306 0.03213-0.04276 0.05483-0.0357 0.0412-0.07059 0.05887-0.10791 0.05887-0.0526 0-0.09004-0.01877-0.11888-0.05117-0.0289-0.0341-0.0452-0.0819-0.0452-0.14999 0-0.0782 0.02082-0.14044 0.06482-0.1917 0.0446-0.0521 0.09055-0.07578 0.14233-0.07578 0.0464 0 0.08372 0.01842 0.1177 0.05042l1.3e-4 0.28702c0-8e-3 -9.7e-4 0.0039-0.01023 0.0175zm-0.91976-0.03164c0.08759-0.11836 0.13267-0.2495 0.13267-0.39166 0-0.12629-0.03132-0.23288-0.09732-0.31295-0.063-0.0788-0.1408-0.13687-0.23234-0.17579-0.0894-0.0391-0.20711-0.07778-0.35174-0.11717-0.14343-0.0402-0.24799-0.07373-0.31477-0.09923-0.0644-0.0259-0.11866-0.06009-0.16212-0.1036-0.0404-0.0422-0.05833-0.09433-0.05833-0.16214 0-0.0695 0.02158-0.12538 0.06648-0.17391 0.046-0.0488 0.09573-0.07258 0.15813-0.07258 0.0271 0 0.11214 0.02008 0.23811 0.06118 0.12913 0.0416 0.22913 0.0638 0.30487 0.0638 0.0765 0 0.15548-0.02216 0.23597-0.06386 0.0806-0.0429 0.14168-0.09497 0.18-0.15847a0.027371 0.027371 84.345 0 0-0.00418-0.03498l-0.027-0.02565a0.027371 0.027371 84.345 0 0-0.01944-0.01003 0.027371 0.027371 84.345 0 0-0.01959 0.01023c-0.0592 0.0629-0.12509 0.09192-0.20338 0.09192-0.0467 0-0.13206-0.01506-0.24975-0.04706-0.11894-0.0335-0.20932-0.05054-0.27744-0.05054-0.14307 0-0.27086 0.04956-0.37888 0.1481-0.1083 0.0978-0.16608 0.21968-0.16608 0.35765 0 0.10035 0.02744 0.18481 0.08234 0.24967 0.054 0.0625 0.12125 0.10974 0.1993 0.14247 0.0771 0.0319 0.18161 0.06749 0.31596 0.10586 0.13316 0.038 0.23809 0.07299 0.31079 0.1035 0.0716 0.0296 0.13083 0.07336 0.18149 0.13257 0.0495 0.0569 0.07609 0.1313 0.07609 0.22695 0 0.13964-0.05453 0.25946-0.16575 0.36488-0.11066 0.10393-0.24756 0.15434-0.41585 0.15434-0.15803 0-0.28455-0.04196-0.38692-0.12516-0.1018-0.0836-0.15043-0.17922-0.15043-0.29292 0-0.0867 0.02674-0.15679 0.08184-0.21848 0.0558-0.0614 0.1212-0.09178 0.20502-0.09178 0.0722 0 0.13249 0.02039 0.18189 0.06069 0.05 0.0391 0.07242 0.08464 0.07242 0.14232 0 0.0465-0.01475 0.08143-0.04335 0.11166-0.0274 0.0291-0.05854 0.04303-0.1015 0.04303-0.0385 0-0.07308-0.01562-0.1074-0.05092a0.027371 0.027371 84.345 0 0-0.0334-0.00393l-0.03677 0.0213a0.027371 0.027371 84.345 0 0-0.01156 0.03701c0.0559 0.10536 0.14864 0.16191 0.26368 0.16191 0.0703 0 0.1315-0.02535 0.18149-0.07205 0.0514-0.048 0.07782-0.11073 0.07782-0.18349 0-0.10592-0.05004-0.1993-0.14437-0.2735-0.0933-0.0747-0.20863-0.11311-0.34174-0.11311-0.12808 0-0.23572 0.03959-0.31843 0.11688-0.0816 0.0759-0.12472 0.17351-0.12472 0.28703 0 0.15407 0.07034 0.28924 0.20687 0.39869 0.13802 0.10979 0.31137 0.16416 0.51731 0.16416 0.22612 0 0.4189-0.07274 0.57262-0.21919 0.03853-0.03646 0.07219-0.0742 0.10139-0.11365z" fill="#1a1a1a"/>
   <path d="m208.92 326.69c-0.051 6e-3 -0.1103 0.0585-0.13142 0.1129-0.33085 0.42419-0.52383 1.1336-0.62922 1.5848-0.0789 0.0178-0.2597 0.0606-0.47407 0.12685-0.14088 0.0435-0.28589 0.0933-0.40855 0.15078-0.0613 0.0288-0.11671 0.0602-0.16671 0.0962-0.05 0.0361-0.0991 0.0756-0.1325 0.14981-0.0714 0.15859-0.076 0.33057-0.0284 0.47147 0.0238 0.0704 0.0637 0.13683 0.13009 0.17565 0.0666 0.0385 0.15921 0.0387 0.24378-4e-3 0.0837-0.0421 0.16839-0.11264 0.27125-0.20152 0.0521-0.0451 0.10726-0.0951 0.16287-0.14644-0.0309 0.0744-0.0601 0.1482-0.0863 0.21729-0.0488 0.12901-0.0869 0.23509-0.0997 0.33219-0.0129 0.0982 0.0129 0.19215 0.0655 0.24938 0.0527 0.0572 0.12231 0.082 0.19223 0.0885 0.14018 0.0125 0.29525-0.0389 0.41819-0.16035 0.0568-0.056 0.0789-0.11717 0.0964-0.17854 0.0174-0.0614 0.0276-0.1275 0.0351-0.19817 0.015-0.14136 0.0174-0.30296 0.0145-0.45856-5e-3 -0.2559-0.0217-0.45935-0.028-0.52987 0.4819-0.18423 1.1097-0.68286 1.388-1.0122 0.0604-0.0475 0.0814-0.13529 0.0472-0.19624-0.0341-0.0607-0.11049-0.0721-0.17101-0.0259l-1.109 0.79779 0.51008-1.2636c0.0292-0.0743 1e-3 -0.15235-0.0621-0.17423-0.0151-5e-3 -0.0316-7e-3 -0.0482-4e-3zm-1.0338 2.0506c-0.0533 0.0526-0.054 0.0553-0.11614 0.11486-0.10437 0.0998-0.2156 0.20223-0.31171 0.28528-0.0961 0.0831-0.18485 0.14788-0.20958 0.16035-0.0239 0.012-0.0213 9e-3 -0.0279 5e-3 -6e-3 -4e-3 -0.0227-0.0204-0.0337-0.0527-0.0211-0.0626-0.0164-0.17393 0.0101-0.23981 6.8e-4 3.2e-4 9e-3 -0.0114 0.0275-0.0244 0.0267-0.0192 0.0692-0.0429 0.12046-0.067 0.10262-0.0481 0.23902-0.0959 0.37338-0.13737 0.0854-0.0264 0.0922-0.024 0.16766-0.044zm0.24376 0.22213c4e-3 0.0821 8e-3 0.0884 0.01 0.18236 3e-3 0.14841 2e-3 0.30059-0.0111 0.41883-6e-3 0.0592-0.0153 0.11033-0.0246 0.14312-5e-3 0.0194-0.011 0.0297-0.0132 0.0329-0.0493 0.0451-0.1433 0.0797-0.20476 0.0742-0.0317-3e-3 -0.0524-0.0151-0.0593-0.0225-7e-3 -7e-3 -9e-3 -6e-3 -6e-3 -0.0344 4e-3 -0.029 0.0344-0.13631 0.08-0.25655 0.0456-0.12025 0.10577-0.2618 0.16381-0.39489 0.0331-0.076 0.035-0.0768 0.0651-0.14311z" stroke-linecap="round" stroke-width=".88295"/>
  </g>
 </g>
</svg>
