<?xml version="1.0" encoding="UTF-8" standalone="no"?>
<!-- Created with Inkscape (http://www.inkscape.org/) -->

<svg
   width="1920"
   height="1080"
   viewBox="0 0 1920 1080"
   version="1.1"
   id="svg1"
   xml:space="preserve"
   xmlns="http://www.w3.org/2000/svg"
   xmlns:svg="http://www.w3.org/2000/svg"><defs
     id="defs1" /><g
     id="g1505"
     transform="translate(-1930)"><g
       id="g1598"
       transform="translate(-0.62199986,-0.51902212)"
       style="display:inline"><path
         style="fill:#5e3d20;fill-opacity:1;stroke:#000000;stroke-width:4;stroke-linejoin:round;stroke-dasharray:none;stroke-opacity:1"
         d="m 3335.0065,857.01593 h 124.9041 c 0,0 14.2873,-4.176 19.893,-8.7683 8.4072,-6.8874 13.6475,-17.0755 18.7647,-26.6636 7.2325,-13.5516 12.02,-28.3306 16.5457,-43.0096 5.7359,-18.6044 9.7881,-37.7188 13.3652,-56.856 4.1678,-22.2977 7.0887,-44.8332 9.4079,-67.3982 2.5283,-24.599 4.0675,-49.309 4.9038,-74.0234 0.8607,-25.4343 0.8969,-50.9097 0.1149,-76.3466 -0.7619,-24.7817 -2.2317,-49.5607 -4.681,-74.2328 -2.2533,-22.6973 -5.1132,-45.3659 -9.2047,-67.8048 -3.5238,-19.3255 -7.5301,-38.6264 -13.1934,-57.4365 -4.4887,-14.9087 -9.252,-29.9058 -16.4153,-43.7299 -5.0963,-9.8351 -10.3022,-20.2389 -18.6831,-27.482 -5.5685,-4.8125 -19.8656,-9.6371 -19.8656,-9.6371 h -125.8562"
         id="path1346" /><g
         id="g1350"
         transform="translate(1657.9635,-1019.0342)"
         style="display:inline"><path
           style="fill:#483012;fill-opacity:1;stroke:#000000;stroke-width:4.21757;stroke-linejoin:bevel;stroke-dasharray:none;stroke-opacity:1"
           d="m 1644.6508,1874.4384 c 0,0 31.2609,3.187 46.3934,0 7.0616,-1.4872 14.2282,-4.1586 19.8106,-8.7319 8.3724,-6.8589 13.5908,-17.0047 18.6868,-26.5531 7.2025,-13.4954 11.9702,-28.2132 16.4771,-42.8313 5.7121,-18.5273 9.7475,-37.5624 13.3098,-56.6202 4.1506,-22.2053 7.0595,-44.6474 9.3691,-67.1189 2.5178,-24.4969 4.0506,-49.1045 4.8834,-73.7164 0.8571,-25.3289 0.8931,-50.6986 0.1143,-76.03 -0.7588,-24.679 -2.2223,-49.3552 -4.6615,-73.9251 -2.244,-22.6033 -5.0922,-45.1779 -9.1667,-67.5239 -3.5092,-19.2453 -7.4987,-38.4663 -13.1385,-57.1983 -4.4701,-14.8469 -9.2136,-29.7818 -16.3473,-43.5486 -5.0752,-9.7943 -10.2596,-20.155 -18.6058,-27.368 -5.5454,-4.7925 -12.6399,-7.9558 -19.7832,-9.597 -15.0718,-3.4628 -46.3933,0 -46.3933,0"
           id="path1348" /><path
           style="fill:#6e5225;fill-opacity:1;stroke:#000000;stroke-width:4.21757;stroke-linejoin:bevel;stroke-dasharray:none;stroke-opacity:1"
           d="m 1645.599,1243.6757 c -7.2153,-0.1318 -14.2282,4.1585 -19.8106,8.7317 -8.3724,6.8588 -18.6869,26.5531 -18.6869,26.5531 l -16.4771,42.8314 -13.3099,56.6202 -9.3689,67.1188 -4.8835,73.7165 -0.1143,76.03 4.6616,73.925 9.1666,67.5239 13.1385,57.1984 16.3473,43.5485 c 0,0 10.2596,20.1551 18.6058,27.3682 5.5454,4.7925 12.455,9.4632 19.7832,9.597 7.2154,0.1317 14.2282,-4.1586 19.8107,-8.7319 8.3724,-6.8588 13.591,-17.0047 18.687,-26.5531 7.2025,-13.4954 11.97,-28.2132 16.4769,-42.8313 5.7121,-18.5273 9.7475,-37.5624 13.3098,-56.6202 4.1506,-22.2053 7.0595,-44.6474 9.3691,-67.1189 2.5178,-24.4969 4.0505,-49.1045 4.8834,-73.7164 0.8571,-25.3289 0.8933,-50.6986 0.1145,-76.03 -0.7588,-24.679 -2.2225,-49.3552 -4.6617,-73.9251 -2.244,-22.6033 -5.0921,-45.1779 -9.1666,-67.5239 -3.5092,-19.2453 -7.4988,-38.4663 -13.1386,-57.1983 -4.47,-14.8469 -9.2135,-29.7819 -16.3471,-43.5486 -5.0752,-9.7944 -10.2597,-20.155 -18.6059,-27.368 -5.5454,-4.7925 -12.4551,-9.4632 -19.7833,-9.597 z"
           id="path1349" /><path
           id="path1350"
           style="fill:#ac7d3c;fill-opacity:1;stroke:#000000;stroke-width:4;stroke-linejoin:bevel"
           d="m 1732.3383,1557.5529 33.5236,-19.3549 v 38.7097 z" /></g><path
         id="path1352"
         style="fill:#5d4620;stroke-width:1.69344;stroke-linejoin:bevel"
         d="m 2245.208,259.78483 h 1042.2603 v 550.1434 l -1042.2603,3.8374 z" /><path
         style="display:inline;fill:#5d4620;fill-opacity:1;stroke:none;stroke-width:3.66236;stroke-linejoin:bevel;stroke-dasharray:none;stroke-opacity:1"
         d="m 3287.4683,262.81163 -17.2116,7.5863 -16.2354,23.0695 -14.3154,37.2121 -11.5636,49.1921 -8.1397,58.3132 -4.2429,64.0452 -0.099,66.0554 4.05,64.2266 7.9639,58.665 11.415,49.6943 14.2026,37.8352 16.1648,23.7776 17.1878,8.3379 17.2116,-7.5862 16.2354,-23.0696 14.3153,-37.212 11.5636,-49.1921 8.1398,-58.3132 4.2428,-64.0454 0.099,-66.0553 -4.05,-64.2264 -7.964,-58.6651 -11.415,-49.6942 -14.2025,-37.8353 -16.1648,-23.7776 z"
         id="path1354" /><path
         style="display:inline;fill:none;fill-opacity:1;stroke:#000000;stroke-width:3.66425;stroke-linecap:round;stroke-linejoin:bevel;stroke-dasharray:none;stroke-opacity:1"
         d="m 3261.065,810.82203 c 0,0 17.2362,1.7572 25.5798,0 6.1352,-1.2921 12.3615,-3.6129 17.2116,-7.5862 7.274,-5.959 11.808,-14.7739 16.2354,-23.0696 6.2576,-11.7248 10.3997,-24.5117 14.3153,-37.212 4.9627,-16.0967 8.4687,-32.6345 11.5636,-49.1921 3.606,-19.2921 6.1332,-38.7899 8.1398,-58.3132 2.1875,-21.2831 3.5193,-42.6624 4.2428,-64.0454 0.7446,-22.0059 0.7757,-44.0472 0.099,-66.0553 -0.6593,-21.4412 -1.9308,-42.88 -4.05,-64.2264 -1.9496,-19.6379 -4.424,-39.2508 -7.964,-58.6651 -3.0488,-16.7204 -6.5151,-33.4197 -11.415,-49.6942 -3.8836,-12.8991 -8.0048,-25.8746 -14.2025,-37.8353 -4.4094,-8.5094 -8.9136,-17.5108 -16.1648,-23.7776 -4.8179,-4.1638 -11.0856,-6.5179 -17.1877,-8.338 -7.2153,-2.1522 -22.4033,-2.8852 -22.4033,-2.8852"
         id="path1369" /></g><g
       id="g1500"
       style="display:inline"
       transform="translate(1657.3415,-1026.9412)"><g
         id="g1499"
         transform="translate(-5.9990586)"
         style="display:inline"><path
           id="path1596"
           style="display:inline;opacity:1;fill:#6e5225;fill-opacity:1;stroke:none;stroke-width:3.664;stroke-linejoin:round;stroke-dasharray:none"
           transform="translate(-881.96396,1026.4222)"
           d="m 2393.3069,261.21017 c 9.3179,-15.13589 19.5616,-22.69119 30.3151,-22.69117 43.0141,9e-5 77.8847,133.10254 77.8847,298.29771 0,165.19517 -34.8706,301.70221 -77.8847,301.70229 -10.7535,2e-5 -20.9972,-10.95986 -30.3151,-26.09575 l 0.019,-1.60135 c 0,0 8.9748,0.915 13.3192,0 6.1352,-1.2921 12.3615,-3.6129 17.2116,-7.5862 7.274,-5.959 11.808,-14.7739 16.2354,-23.0696 6.2576,-11.7248 10.3997,-24.5117 14.3153,-37.212 4.9627,-16.0967 8.4687,-32.6345 11.5636,-49.1921 3.606,-19.2921 6.1332,-38.7899 8.1398,-58.3132 2.1875,-21.2831 3.5193,-42.6624 4.2428,-64.0454 0.7446,-22.0059 0.7757,-44.0472 0.099,-66.0553 -0.6593,-21.4412 -1.9308,-42.88 -4.05,-64.2264 -1.9496,-19.6379 -4.424,-39.2508 -7.964,-58.6651 -3.0488,-16.7204 -6.5151,-33.4197 -11.415,-49.6942 -3.8836,-12.8991 -8.0048,-25.8746 -14.2025,-37.8353 -4.4094,-8.5094 -8.9136,-17.5108 -16.1648,-23.7776 -4.8179,-4.1638 -10.9816,-6.9121 -17.1877,-8.338 -4.7853,-1.0994 -14.7298,10e-5 -14.7298,10e-5 z" /><path
           style="display:inline;opacity:1;fill:none;stroke:#000000;stroke-width:3.664;stroke-linejoin:round;stroke-dasharray:none"
           d="m 2393.3261,810.8219 c 0,0 8.9748,0.915 13.3192,0 6.1352,-1.2921 12.3615,-3.6129 17.2116,-7.5862 7.274,-5.959 11.808,-14.7739 16.2354,-23.0696 6.2576,-11.7248 10.3997,-24.5117 14.3153,-37.212 4.9627,-16.0967 8.4687,-32.6345 11.5636,-49.1921 3.606,-19.2921 6.1332,-38.7899 8.1398,-58.3132 2.1875,-21.2831 3.5193,-42.6624 4.2428,-64.0454 0.7446,-22.0059 0.7757,-44.0472 0.099,-66.0553 -0.6593,-21.4412 -1.9308,-42.88 -4.05,-64.2264 -1.9496,-19.6379 -4.424,-39.2508 -7.964,-58.6651 -3.0488,-16.7204 -6.5151,-33.4197 -11.415,-49.6942 -3.8836,-12.8991 -8.0048,-25.8746 -14.2025,-37.8353 -4.4094,-8.5094 -8.9136,-17.5108 -16.1648,-23.7776 -4.8179,-4.1638 -10.9816,-6.9121 -17.1877,-8.338 -4.7853,-1.0994 -14.7298,10e-5 -14.7298,10e-5"
           transform="translate(-881.96396,1026.4222)"
           id="path1598" /><path
           style="display:none;fill:none;fill-opacity:1;stroke:#000000;stroke-width:4;stroke-linejoin:bevel;stroke-dasharray:none;stroke-opacity:1"
           d="m 1541.658,1264.9412 -18.804,8.717 -12.079,15.5756 c 0,0 9.3794,-0.997 13.9063,0 6.461,1.423 12.9667,4.0575 18.0112,8.3379 7.3077,6.2008 11.7554,15.2682 16.1648,23.7776 6.1977,11.9607 10.3189,24.9362 14.2025,37.8353 4.8999,16.2745 8.3662,32.9738 11.415,49.6942 3.54,19.4143 6.0144,39.0272 7.964,58.6651 2.1192,21.3464 3.3907,42.7852 4.05,64.2264 0.6767,22.0081 0.6456,44.0494 -0.099,66.0553 -0.7235,21.383 -2.0553,42.7623 -4.2428,64.0454 -2.0066,19.5233 -4.5338,39.0211 -8.1398,58.3132 -3.0949,16.5576 -6.6009,33.0954 -11.5636,49.1921 -3.9156,12.7003 -8.0577,25.4872 -14.3153,37.212 -4.4274,8.2957 -8.9614,17.1106 -16.2354,23.0696 -4.8501,3.9733 -11.034,6.5153 -17.2116,7.5862 -4.0893,0.7089 -12.4186,-0.8938 -12.4186,-0.8938 l 10.5913,19.8739 18.804,8.717 18.804,-8.717 17.711,-25.646 15.588,-41.084 12.561,-54.134 8.803,-64.038 4.533,-70.22 -0.5109,-72.2153 -4.4211,-70.1116 -8.6936,-64.0405 -12.4609,-54.2477 -15.504,-41.3021 -17.646,-25.9563 z"
           id="path1497" /><g
           id="g1496"
           transform="translate(16)"
           style="display:none"><path
             style="fill:#484019;fill-opacity:1;stroke:#000000;stroke-width:4;stroke-linecap:butt;stroke-linejoin:round;stroke-dasharray:none;stroke-opacity:1"
             d="m 1525.658,1264.9412 18.804,8.717 h 64 l -18.804,-8.717 z"
             id="path1484" /><path
             style="fill:#54481d;fill-opacity:1;stroke:#000000;stroke-width:4;stroke-linejoin:bevel;stroke-dasharray:none;stroke-opacity:1"
             d="m 1544.462,1273.6582 h 64 l 17.711,25.646 h -64 z"
             id="path1485" /><path
             style="fill:#605021;fill-opacity:1;stroke:#000000;stroke-width:4;stroke-linejoin:bevel;stroke-dasharray:none;stroke-opacity:1"
             d="m 1562.173,1299.3042 15.588,41.084 h 64 l -15.588,-41.084 z"
             id="path1486" /><path
             style="fill:#6d5725;fill-opacity:1;stroke:#000000;stroke-width:4;stroke-linejoin:bevel;stroke-dasharray:none;stroke-opacity:1"
             d="m 1577.761,1340.3882 h 64 l 12.561,54.134 h -64 z"
             id="path1487" /><path
             style="fill:#7a5f2a;fill-opacity:1;stroke:#000000;stroke-width:4;stroke-linejoin:bevel;stroke-dasharray:none;stroke-opacity:1"
             d="m 1590.322,1394.5222 h 64 l 8.803,64.038 h -64 z"
             id="path1488" /><path
             style="fill:#88672f;fill-opacity:1;stroke:#000000;stroke-width:4;stroke-linejoin:bevel;stroke-dasharray:none;stroke-opacity:1"
             d="m 1599.125,1458.5602 h 64 l 4.533,70.22 h -64 z"
             id="path1489" /><path
             style="fill:#ac7d3c;fill-opacity:1;stroke:#000000;stroke-width:4;stroke-linejoin:bevel;stroke-dasharray:none;stroke-opacity:1"
             d="m 1603.658,1528.7802 h 64 v 72.322 h -64 z"
             id="path1490" /><path
             style="fill:#845d30;fill-opacity:1;stroke:#000000;stroke-width:4;stroke-linejoin:bevel;stroke-dasharray:none;stroke-opacity:1"
             d="m 1603.658,1601.1022 h 64 l -4.533,70.22 h -64 z"
             id="path1491" /><path
             style="fill:#714d2a;fill-opacity:1;stroke:#000000;stroke-width:4;stroke-linejoin:bevel;stroke-dasharray:none;stroke-opacity:1"
             d="m 1599.125,1671.3222 -8.803,64.038 h 64 l 8.803,-64.038 z"
             id="path1492" /><path
             style="fill:#5d3e24;fill-opacity:1;stroke:#000000;stroke-width:4;stroke-linejoin:bevel;stroke-dasharray:none;stroke-opacity:1"
             d="m 1577.761,1789.4942 12.561,-54.134 h 64 l -12.561,54.134 z"
             id="path1493" /><path
             style="fill:#4a301e;fill-opacity:1;stroke:#000000;stroke-width:4;stroke-linejoin:bevel;stroke-dasharray:none;stroke-opacity:1"
             d="m 1562.173,1830.5782 15.588,-41.084 h 64 l -15.588,41.084 z"
             id="path1494" /><path
             style="fill:#372317;fill-opacity:1;stroke:#000000;stroke-width:4;stroke-linejoin:bevel;stroke-dasharray:none;stroke-opacity:1"
             d="m 1544.462,1856.2242 17.711,-25.646 h 64 l -17.711,25.646 z"
             id="path1495" /><path
             style="fill:#24170f;fill-opacity:1;stroke:#000000;stroke-width:4;stroke-linejoin:bevel;stroke-dasharray:none;stroke-opacity:1"
             d="m 1525.658,1864.9412 18.804,-8.717 h 64 l -18.804,8.717 z"
             id="path1496" /></g></g><g
         id="g1711"
         transform="translate(-115.99913)"
         style="display:inline"><path
           id="path1695"
           style="display:inline;opacity:1;fill:#6e5225;fill-opacity:1;stroke:none;stroke-width:3.664;stroke-linejoin:round;stroke-dasharray:none"
           transform="translate(-881.96396,1026.4222)"
           d="m 2393.3069,261.21017 c 9.3179,-15.13589 19.5616,-22.69119 30.3151,-22.69117 43.0141,9e-5 77.8847,133.10254 77.8847,298.29771 0,165.19517 -34.8706,301.70221 -77.8847,301.70229 -10.7535,2e-5 -20.9972,-10.95986 -30.3151,-26.09575 l 0.019,-1.60135 c 0,0 8.9748,0.915 13.3192,0 6.1352,-1.2921 12.3615,-3.6129 17.2116,-7.5862 7.274,-5.959 11.808,-14.7739 16.2354,-23.0696 6.2576,-11.7248 10.3997,-24.5117 14.3153,-37.212 4.9627,-16.0967 8.4687,-32.6345 11.5636,-49.1921 3.606,-19.2921 6.1332,-38.7899 8.1398,-58.3132 2.1875,-21.2831 3.5193,-42.6624 4.2428,-64.0454 0.7446,-22.0059 0.7757,-44.0472 0.099,-66.0553 -0.6593,-21.4412 -1.9308,-42.88 -4.05,-64.2264 -1.9496,-19.6379 -4.424,-39.2508 -7.964,-58.6651 -3.0488,-16.7204 -6.5151,-33.4197 -11.415,-49.6942 -3.8836,-12.8991 -8.0048,-25.8746 -14.2025,-37.8353 -4.4094,-8.5094 -8.9136,-17.5108 -16.1648,-23.7776 -4.8179,-4.1638 -10.9816,-6.9121 -17.1877,-8.338 -4.7853,-1.0994 -14.7298,10e-5 -14.7298,10e-5 z" /><path
           style="display:inline;opacity:1;fill:none;stroke:#000000;stroke-width:3.664;stroke-linejoin:round;stroke-dasharray:none"
           d="m 2393.3261,810.8219 c 0,0 8.9748,0.915 13.3192,0 6.1352,-1.2921 12.3615,-3.6129 17.2116,-7.5862 7.274,-5.959 11.808,-14.7739 16.2354,-23.0696 6.2576,-11.7248 10.3997,-24.5117 14.3153,-37.212 4.9627,-16.0967 8.4687,-32.6345 11.5636,-49.1921 3.606,-19.2921 6.1332,-38.7899 8.1398,-58.3132 2.1875,-21.2831 3.5193,-42.6624 4.2428,-64.0454 0.7446,-22.0059 0.7757,-44.0472 0.099,-66.0553 -0.6593,-21.4412 -1.9308,-42.88 -4.05,-64.2264 -1.9496,-19.6379 -4.424,-39.2508 -7.964,-58.6651 -3.0488,-16.7204 -6.5151,-33.4197 -11.415,-49.6942 -3.8836,-12.8991 -8.0048,-25.8746 -14.2025,-37.8353 -4.4094,-8.5094 -8.9136,-17.5108 -16.1648,-23.7776 -4.8179,-4.1638 -10.9816,-6.9121 -17.1877,-8.338 -4.7853,-1.0994 -14.7298,10e-5 -14.7298,10e-5"
           transform="translate(-881.96396,1026.4222)"
           id="path1696" /><path
           style="display:none;fill:none;fill-opacity:1;stroke:#000000;stroke-width:4;stroke-linejoin:bevel;stroke-dasharray:none;stroke-opacity:1"
           d="m 1541.658,1264.9412 -18.804,8.717 -12.079,15.5756 c 0,0 9.3794,-0.997 13.9063,0 6.461,1.423 12.9667,4.0575 18.0112,8.3379 7.3077,6.2008 11.7554,15.2682 16.1648,23.7776 6.1977,11.9607 10.3189,24.9362 14.2025,37.8353 4.8999,16.2745 8.3662,32.9738 11.415,49.6942 3.54,19.4143 6.0144,39.0272 7.964,58.6651 2.1192,21.3464 3.3907,42.7852 4.05,64.2264 0.6767,22.0081 0.6456,44.0494 -0.099,66.0553 -0.7235,21.383 -2.0553,42.7623 -4.2428,64.0454 -2.0066,19.5233 -4.5338,39.0211 -8.1398,58.3132 -3.0949,16.5576 -6.6009,33.0954 -11.5636,49.1921 -3.9156,12.7003 -8.0577,25.4872 -14.3153,37.212 -4.4274,8.2957 -8.9614,17.1106 -16.2354,23.0696 -4.8501,3.9733 -11.034,6.5153 -17.2116,7.5862 -4.0893,0.7089 -12.4186,-0.8938 -12.4186,-0.8938 l 10.5913,19.8739 18.804,8.717 18.804,-8.717 17.711,-25.646 15.588,-41.084 12.561,-54.134 8.803,-64.038 4.533,-70.22 -0.5109,-72.2153 -4.4211,-70.1116 -8.6936,-64.0405 -12.4609,-54.2477 -15.504,-41.3021 -17.646,-25.9563 z"
           id="path1697" /><g
           id="g1710"
           transform="translate(16)"
           style="display:none"><path
             style="fill:#484019;fill-opacity:1;stroke:#000000;stroke-width:4;stroke-linecap:butt;stroke-linejoin:round;stroke-dasharray:none;stroke-opacity:1"
             d="m 1525.658,1264.9412 18.804,8.717 h 64 l -18.804,-8.717 z"
             id="path1698" /><path
             style="fill:#54481d;fill-opacity:1;stroke:#000000;stroke-width:4;stroke-linejoin:bevel;stroke-dasharray:none;stroke-opacity:1"
             d="m 1544.462,1273.6582 h 64 l 17.711,25.646 h -64 z"
             id="path1699" /><path
             style="fill:#605021;fill-opacity:1;stroke:#000000;stroke-width:4;stroke-linejoin:bevel;stroke-dasharray:none;stroke-opacity:1"
             d="m 1562.173,1299.3042 15.588,41.084 h 64 l -15.588,-41.084 z"
             id="path1700" /><path
             style="fill:#6d5725;fill-opacity:1;stroke:#000000;stroke-width:4;stroke-linejoin:bevel;stroke-dasharray:none;stroke-opacity:1"
             d="m 1577.761,1340.3882 h 64 l 12.561,54.134 h -64 z"
             id="path1701" /><path
             style="fill:#7a5f2a;fill-opacity:1;stroke:#000000;stroke-width:4;stroke-linejoin:bevel;stroke-dasharray:none;stroke-opacity:1"
             d="m 1590.322,1394.5222 h 64 l 8.803,64.038 h -64 z"
             id="path1702" /><path
             style="fill:#88672f;fill-opacity:1;stroke:#000000;stroke-width:4;stroke-linejoin:bevel;stroke-dasharray:none;stroke-opacity:1"
             d="m 1599.125,1458.5602 h 64 l 4.533,70.22 h -64 z"
             id="path1703" /><path
             style="fill:#ac7d3c;fill-opacity:1;stroke:#000000;stroke-width:4;stroke-linejoin:bevel;stroke-dasharray:none;stroke-opacity:1"
             d="m 1603.658,1528.7802 h 64 v 72.322 h -64 z"
             id="path1704" /><path
             style="fill:#845d30;fill-opacity:1;stroke:#000000;stroke-width:4;stroke-linejoin:bevel;stroke-dasharray:none;stroke-opacity:1"
             d="m 1603.658,1601.1022 h 64 l -4.533,70.22 h -64 z"
             id="path1705" /><path
             style="fill:#714d2a;fill-opacity:1;stroke:#000000;stroke-width:4;stroke-linejoin:bevel;stroke-dasharray:none;stroke-opacity:1"
             d="m 1599.125,1671.3222 -8.803,64.038 h 64 l 8.803,-64.038 z"
             id="path1706" /><path
             style="fill:#5d3e24;fill-opacity:1;stroke:#000000;stroke-width:4;stroke-linejoin:bevel;stroke-dasharray:none;stroke-opacity:1"
             d="m 1577.761,1789.4942 12.561,-54.134 h 64 l -12.561,54.134 z"
             id="path1707" /><path
             style="fill:#4a301e;fill-opacity:1;stroke:#000000;stroke-width:4;stroke-linejoin:bevel;stroke-dasharray:none;stroke-opacity:1"
             d="m 1562.173,1830.5782 15.588,-41.084 h 64 l -15.588,41.084 z"
             id="path1708" /><path
             style="fill:#372317;fill-opacity:1;stroke:#000000;stroke-width:4;stroke-linejoin:bevel;stroke-dasharray:none;stroke-opacity:1"
             d="m 1544.462,1856.2242 17.711,-25.646 h 64 l -17.711,25.646 z"
             id="path1709" /><path
             style="fill:#24170f;fill-opacity:1;stroke:#000000;stroke-width:4;stroke-linejoin:bevel;stroke-dasharray:none;stroke-opacity:1"
             d="m 1525.658,1864.9412 18.804,-8.717 h 64 l -18.804,8.717 z"
             id="path1710" /></g></g><g
         id="g1695"
         transform="translate(-225.9992)"
         style="display:inline"><path
           id="path1679"
           style="display:inline;opacity:1;fill:#6e5225;fill-opacity:1;stroke:none;stroke-width:3.664;stroke-linejoin:round;stroke-dasharray:none"
           transform="translate(-881.96396,1026.4222)"
           d="m 2393.3069,261.21017 c 9.3179,-15.13589 19.5616,-22.69119 30.3151,-22.69117 43.0141,9e-5 77.8847,133.10254 77.8847,298.29771 0,165.19517 -34.8706,301.70221 -77.8847,301.70229 -10.7535,2e-5 -20.9972,-10.95986 -30.3151,-26.09575 l 0.019,-1.60135 c 0,0 8.9748,0.915 13.3192,0 6.1352,-1.2921 12.3615,-3.6129 17.2116,-7.5862 7.274,-5.959 11.808,-14.7739 16.2354,-23.0696 6.2576,-11.7248 10.3997,-24.5117 14.3153,-37.212 4.9627,-16.0967 8.4687,-32.6345 11.5636,-49.1921 3.606,-19.2921 6.1332,-38.7899 8.1398,-58.3132 2.1875,-21.2831 3.5193,-42.6624 4.2428,-64.0454 0.7446,-22.0059 0.7757,-44.0472 0.099,-66.0553 -0.6593,-21.4412 -1.9308,-42.88 -4.05,-64.2264 -1.9496,-19.6379 -4.424,-39.2508 -7.964,-58.6651 -3.0488,-16.7204 -6.5151,-33.4197 -11.415,-49.6942 -3.8836,-12.8991 -8.0048,-25.8746 -14.2025,-37.8353 -4.4094,-8.5094 -8.9136,-17.5108 -16.1648,-23.7776 -4.8179,-4.1638 -10.9816,-6.9121 -17.1877,-8.338 -4.7853,-1.0994 -14.7298,10e-5 -14.7298,10e-5 z" /><path
           style="display:inline;opacity:1;fill:none;stroke:#000000;stroke-width:3.664;stroke-linejoin:round;stroke-dasharray:none"
           d="m 2393.3261,810.8219 c 0,0 8.9748,0.915 13.3192,0 6.1352,-1.2921 12.3615,-3.6129 17.2116,-7.5862 7.274,-5.959 11.808,-14.7739 16.2354,-23.0696 6.2576,-11.7248 10.3997,-24.5117 14.3153,-37.212 4.9627,-16.0967 8.4687,-32.6345 11.5636,-49.1921 3.606,-19.2921 6.1332,-38.7899 8.1398,-58.3132 2.1875,-21.2831 3.5193,-42.6624 4.2428,-64.0454 0.7446,-22.0059 0.7757,-44.0472 0.099,-66.0553 -0.6593,-21.4412 -1.9308,-42.88 -4.05,-64.2264 -1.9496,-19.6379 -4.424,-39.2508 -7.964,-58.6651 -3.0488,-16.7204 -6.5151,-33.4197 -11.415,-49.6942 -3.8836,-12.8991 -8.0048,-25.8746 -14.2025,-37.8353 -4.4094,-8.5094 -8.9136,-17.5108 -16.1648,-23.7776 -4.8179,-4.1638 -10.9816,-6.9121 -17.1877,-8.338 -4.7853,-1.0994 -14.7298,10e-5 -14.7298,10e-5"
           transform="translate(-881.96396,1026.4222)"
           id="path1680" /><path
           style="display:none;fill:none;fill-opacity:1;stroke:#000000;stroke-width:4;stroke-linejoin:bevel;stroke-dasharray:none;stroke-opacity:1"
           d="m 1541.658,1264.9412 -18.804,8.717 -12.079,15.5756 c 0,0 9.3794,-0.997 13.9063,0 6.461,1.423 12.9667,4.0575 18.0112,8.3379 7.3077,6.2008 11.7554,15.2682 16.1648,23.7776 6.1977,11.9607 10.3189,24.9362 14.2025,37.8353 4.8999,16.2745 8.3662,32.9738 11.415,49.6942 3.54,19.4143 6.0144,39.0272 7.964,58.6651 2.1192,21.3464 3.3907,42.7852 4.05,64.2264 0.6767,22.0081 0.6456,44.0494 -0.099,66.0553 -0.7235,21.383 -2.0553,42.7623 -4.2428,64.0454 -2.0066,19.5233 -4.5338,39.0211 -8.1398,58.3132 -3.0949,16.5576 -6.6009,33.0954 -11.5636,49.1921 -3.9156,12.7003 -8.0577,25.4872 -14.3153,37.212 -4.4274,8.2957 -8.9614,17.1106 -16.2354,23.0696 -4.8501,3.9733 -11.034,6.5153 -17.2116,7.5862 -4.0893,0.7089 -12.4186,-0.8938 -12.4186,-0.8938 l 10.5913,19.8739 18.804,8.717 18.804,-8.717 17.711,-25.646 15.588,-41.084 12.561,-54.134 8.803,-64.038 4.533,-70.22 -0.5109,-72.2153 -4.4211,-70.1116 -8.6936,-64.0405 -12.4609,-54.2477 -15.504,-41.3021 -17.646,-25.9563 z"
           id="path1681" /><g
           id="g1694"
           transform="translate(16)"
           style="display:none"><path
             style="fill:#484019;fill-opacity:1;stroke:#000000;stroke-width:4;stroke-linecap:butt;stroke-linejoin:round;stroke-dasharray:none;stroke-opacity:1"
             d="m 1525.658,1264.9412 18.804,8.717 h 64 l -18.804,-8.717 z"
             id="path1682" /><path
             style="fill:#54481d;fill-opacity:1;stroke:#000000;stroke-width:4;stroke-linejoin:bevel;stroke-dasharray:none;stroke-opacity:1"
             d="m 1544.462,1273.6582 h 64 l 17.711,25.646 h -64 z"
             id="path1683" /><path
             style="fill:#605021;fill-opacity:1;stroke:#000000;stroke-width:4;stroke-linejoin:bevel;stroke-dasharray:none;stroke-opacity:1"
             d="m 1562.173,1299.3042 15.588,41.084 h 64 l -15.588,-41.084 z"
             id="path1684" /><path
             style="fill:#6d5725;fill-opacity:1;stroke:#000000;stroke-width:4;stroke-linejoin:bevel;stroke-dasharray:none;stroke-opacity:1"
             d="m 1577.761,1340.3882 h 64 l 12.561,54.134 h -64 z"
             id="path1685" /><path
             style="fill:#7a5f2a;fill-opacity:1;stroke:#000000;stroke-width:4;stroke-linejoin:bevel;stroke-dasharray:none;stroke-opacity:1"
             d="m 1590.322,1394.5222 h 64 l 8.803,64.038 h -64 z"
             id="path1686" /><path
             style="fill:#88672f;fill-opacity:1;stroke:#000000;stroke-width:4;stroke-linejoin:bevel;stroke-dasharray:none;stroke-opacity:1"
             d="m 1599.125,1458.5602 h 64 l 4.533,70.22 h -64 z"
             id="path1687" /><path
             style="fill:#ac7d3c;fill-opacity:1;stroke:#000000;stroke-width:4;stroke-linejoin:bevel;stroke-dasharray:none;stroke-opacity:1"
             d="m 1603.658,1528.7802 h 64 v 72.322 h -64 z"
             id="path1688" /><path
             style="fill:#845d30;fill-opacity:1;stroke:#000000;stroke-width:4;stroke-linejoin:bevel;stroke-dasharray:none;stroke-opacity:1"
             d="m 1603.658,1601.1022 h 64 l -4.533,70.22 h -64 z"
             id="path1689" /><path
             style="fill:#714d2a;fill-opacity:1;stroke:#000000;stroke-width:4;stroke-linejoin:bevel;stroke-dasharray:none;stroke-opacity:1"
             d="m 1599.125,1671.3222 -8.803,64.038 h 64 l 8.803,-64.038 z"
             id="path1690" /><path
             style="fill:#5d3e24;fill-opacity:1;stroke:#000000;stroke-width:4;stroke-linejoin:bevel;stroke-dasharray:none;stroke-opacity:1"
             d="m 1577.761,1789.4942 12.561,-54.134 h 64 l -12.561,54.134 z"
             id="path1691" /><path
             style="fill:#4a301e;fill-opacity:1;stroke:#000000;stroke-width:4;stroke-linejoin:bevel;stroke-dasharray:none;stroke-opacity:1"
             d="m 1562.173,1830.5782 15.588,-41.084 h 64 l -15.588,41.084 z"
             id="path1692" /><path
             style="fill:#372317;fill-opacity:1;stroke:#000000;stroke-width:4;stroke-linejoin:bevel;stroke-dasharray:none;stroke-opacity:1"
             d="m 1544.462,1856.2242 17.711,-25.646 h 64 l -17.711,25.646 z"
             id="path1693" /><path
             style="fill:#24170f;fill-opacity:1;stroke:#000000;stroke-width:4;stroke-linejoin:bevel;stroke-dasharray:none;stroke-opacity:1"
             d="m 1525.658,1864.9412 18.804,-8.717 h 64 l -18.804,8.717 z"
             id="path1694" /></g></g><g
         id="g1679"
         transform="translate(-335.99926)"
         style="display:inline"><path
           id="path1663"
           style="display:inline;opacity:1;fill:#6e5225;fill-opacity:1;stroke:none;stroke-width:3.664;stroke-linejoin:round;stroke-dasharray:none"
           transform="translate(-881.96396,1026.4222)"
           d="m 2393.3069,261.21017 c 9.3179,-15.13589 19.5616,-22.69119 30.3151,-22.69117 43.0141,9e-5 77.8847,133.10254 77.8847,298.29771 0,165.19517 -34.8706,301.70221 -77.8847,301.70229 -10.7535,2e-5 -20.9972,-10.95986 -30.3151,-26.09575 l 0.019,-1.60135 c 0,0 8.9748,0.915 13.3192,0 6.1352,-1.2921 12.3615,-3.6129 17.2116,-7.5862 7.274,-5.959 11.808,-14.7739 16.2354,-23.0696 6.2576,-11.7248 10.3997,-24.5117 14.3153,-37.212 4.9627,-16.0967 8.4687,-32.6345 11.5636,-49.1921 3.606,-19.2921 6.1332,-38.7899 8.1398,-58.3132 2.1875,-21.2831 3.5193,-42.6624 4.2428,-64.0454 0.7446,-22.0059 0.7757,-44.0472 0.099,-66.0553 -0.6593,-21.4412 -1.9308,-42.88 -4.05,-64.2264 -1.9496,-19.6379 -4.424,-39.2508 -7.964,-58.6651 -3.0488,-16.7204 -6.5151,-33.4197 -11.415,-49.6942 -3.8836,-12.8991 -8.0048,-25.8746 -14.2025,-37.8353 -4.4094,-8.5094 -8.9136,-17.5108 -16.1648,-23.7776 -4.8179,-4.1638 -10.9816,-6.9121 -17.1877,-8.338 -4.7853,-1.0994 -14.7298,10e-5 -14.7298,10e-5 z" /><path
           style="display:inline;opacity:1;fill:none;stroke:#000000;stroke-width:3.664;stroke-linejoin:round;stroke-dasharray:none"
           d="m 2393.3261,810.8219 c 0,0 8.9748,0.915 13.3192,0 6.1352,-1.2921 12.3615,-3.6129 17.2116,-7.5862 7.274,-5.959 11.808,-14.7739 16.2354,-23.0696 6.2576,-11.7248 10.3997,-24.5117 14.3153,-37.212 4.9627,-16.0967 8.4687,-32.6345 11.5636,-49.1921 3.606,-19.2921 6.1332,-38.7899 8.1398,-58.3132 2.1875,-21.2831 3.5193,-42.6624 4.2428,-64.0454 0.7446,-22.0059 0.7757,-44.0472 0.099,-66.0553 -0.6593,-21.4412 -1.9308,-42.88 -4.05,-64.2264 -1.9496,-19.6379 -4.424,-39.2508 -7.964,-58.6651 -3.0488,-16.7204 -6.5151,-33.4197 -11.415,-49.6942 -3.8836,-12.8991 -8.0048,-25.8746 -14.2025,-37.8353 -4.4094,-8.5094 -8.9136,-17.5108 -16.1648,-23.7776 -4.8179,-4.1638 -10.9816,-6.9121 -17.1877,-8.338 -4.7853,-1.0994 -14.7298,10e-5 -14.7298,10e-5"
           transform="translate(-881.96396,1026.4222)"
           id="path1664" /><path
           style="display:none;fill:none;fill-opacity:1;stroke:#000000;stroke-width:4;stroke-linejoin:bevel;stroke-dasharray:none;stroke-opacity:1"
           d="m 1541.658,1264.9412 -18.804,8.717 -12.079,15.5756 c 0,0 9.3794,-0.997 13.9063,0 6.461,1.423 12.9667,4.0575 18.0112,8.3379 7.3077,6.2008 11.7554,15.2682 16.1648,23.7776 6.1977,11.9607 10.3189,24.9362 14.2025,37.8353 4.8999,16.2745 8.3662,32.9738 11.415,49.6942 3.54,19.4143 6.0144,39.0272 7.964,58.6651 2.1192,21.3464 3.3907,42.7852 4.05,64.2264 0.6767,22.0081 0.6456,44.0494 -0.099,66.0553 -0.7235,21.383 -2.0553,42.7623 -4.2428,64.0454 -2.0066,19.5233 -4.5338,39.0211 -8.1398,58.3132 -3.0949,16.5576 -6.6009,33.0954 -11.5636,49.1921 -3.9156,12.7003 -8.0577,25.4872 -14.3153,37.212 -4.4274,8.2957 -8.9614,17.1106 -16.2354,23.0696 -4.8501,3.9733 -11.034,6.5153 -17.2116,7.5862 -4.0893,0.7089 -12.4186,-0.8938 -12.4186,-0.8938 l 10.5913,19.8739 18.804,8.717 18.804,-8.717 17.711,-25.646 15.588,-41.084 12.561,-54.134 8.803,-64.038 4.533,-70.22 -0.5109,-72.2153 -4.4211,-70.1116 -8.6936,-64.0405 -12.4609,-54.2477 -15.504,-41.3021 -17.646,-25.9563 z"
           id="path1665" /><g
           id="g1678"
           transform="translate(16)"
           style="display:none"><path
             style="fill:#484019;fill-opacity:1;stroke:#000000;stroke-width:4;stroke-linecap:butt;stroke-linejoin:round;stroke-dasharray:none;stroke-opacity:1"
             d="m 1525.658,1264.9412 18.804,8.717 h 64 l -18.804,-8.717 z"
             id="path1666" /><path
             style="fill:#54481d;fill-opacity:1;stroke:#000000;stroke-width:4;stroke-linejoin:bevel;stroke-dasharray:none;stroke-opacity:1"
             d="m 1544.462,1273.6582 h 64 l 17.711,25.646 h -64 z"
             id="path1667" /><path
             style="fill:#605021;fill-opacity:1;stroke:#000000;stroke-width:4;stroke-linejoin:bevel;stroke-dasharray:none;stroke-opacity:1"
             d="m 1562.173,1299.3042 15.588,41.084 h 64 l -15.588,-41.084 z"
             id="path1668" /><path
             style="fill:#6d5725;fill-opacity:1;stroke:#000000;stroke-width:4;stroke-linejoin:bevel;stroke-dasharray:none;stroke-opacity:1"
             d="m 1577.761,1340.3882 h 64 l 12.561,54.134 h -64 z"
             id="path1669" /><path
             style="fill:#7a5f2a;fill-opacity:1;stroke:#000000;stroke-width:4;stroke-linejoin:bevel;stroke-dasharray:none;stroke-opacity:1"
             d="m 1590.322,1394.5222 h 64 l 8.803,64.038 h -64 z"
             id="path1670" /><path
             style="fill:#88672f;fill-opacity:1;stroke:#000000;stroke-width:4;stroke-linejoin:bevel;stroke-dasharray:none;stroke-opacity:1"
             d="m 1599.125,1458.5602 h 64 l 4.533,70.22 h -64 z"
             id="path1671" /><path
             style="fill:#ac7d3c;fill-opacity:1;stroke:#000000;stroke-width:4;stroke-linejoin:bevel;stroke-dasharray:none;stroke-opacity:1"
             d="m 1603.658,1528.7802 h 64 v 72.322 h -64 z"
             id="path1672" /><path
             style="fill:#845d30;fill-opacity:1;stroke:#000000;stroke-width:4;stroke-linejoin:bevel;stroke-dasharray:none;stroke-opacity:1"
             d="m 1603.658,1601.1022 h 64 l -4.533,70.22 h -64 z"
             id="path1673" /><path
             style="fill:#714d2a;fill-opacity:1;stroke:#000000;stroke-width:4;stroke-linejoin:bevel;stroke-dasharray:none;stroke-opacity:1"
             d="m 1599.125,1671.3222 -8.803,64.038 h 64 l 8.803,-64.038 z"
             id="path1674" /><path
             style="fill:#5d3e24;fill-opacity:1;stroke:#000000;stroke-width:4;stroke-linejoin:bevel;stroke-dasharray:none;stroke-opacity:1"
             d="m 1577.761,1789.4942 12.561,-54.134 h 64 l -12.561,54.134 z"
             id="path1675" /><path
             style="fill:#4a301e;fill-opacity:1;stroke:#000000;stroke-width:4;stroke-linejoin:bevel;stroke-dasharray:none;stroke-opacity:1"
             d="m 1562.173,1830.5782 15.588,-41.084 h 64 l -15.588,41.084 z"
             id="path1676" /><path
             style="fill:#372317;fill-opacity:1;stroke:#000000;stroke-width:4;stroke-linejoin:bevel;stroke-dasharray:none;stroke-opacity:1"
             d="m 1544.462,1856.2242 17.711,-25.646 h 64 l -17.711,25.646 z"
             id="path1677" /><path
             style="fill:#24170f;fill-opacity:1;stroke:#000000;stroke-width:4;stroke-linejoin:bevel;stroke-dasharray:none;stroke-opacity:1"
             d="m 1525.658,1864.9412 18.804,-8.717 h 64 l -18.804,8.717 z"
             id="path1678" /></g></g><g
         id="g1663"
         transform="translate(-445.99933)"
         style="display:inline"><path
           id="path1647"
           style="display:inline;opacity:1;fill:#6e5225;fill-opacity:1;stroke:none;stroke-width:3.664;stroke-linejoin:round;stroke-dasharray:none"
           transform="translate(-881.96396,1026.4222)"
           d="m 2393.3069,261.21017 c 9.3179,-15.13589 19.5616,-22.69119 30.3151,-22.69117 43.0141,9e-5 77.8847,133.10254 77.8847,298.29771 0,165.19517 -34.8706,301.70221 -77.8847,301.70229 -10.7535,2e-5 -20.9972,-10.95986 -30.3151,-26.09575 l 0.019,-1.60135 c 0,0 8.9748,0.915 13.3192,0 6.1352,-1.2921 12.3615,-3.6129 17.2116,-7.5862 7.274,-5.959 11.808,-14.7739 16.2354,-23.0696 6.2576,-11.7248 10.3997,-24.5117 14.3153,-37.212 4.9627,-16.0967 8.4687,-32.6345 11.5636,-49.1921 3.606,-19.2921 6.1332,-38.7899 8.1398,-58.3132 2.1875,-21.2831 3.5193,-42.6624 4.2428,-64.0454 0.7446,-22.0059 0.7757,-44.0472 0.099,-66.0553 -0.6593,-21.4412 -1.9308,-42.88 -4.05,-64.2264 -1.9496,-19.6379 -4.424,-39.2508 -7.964,-58.6651 -3.0488,-16.7204 -6.5151,-33.4197 -11.415,-49.6942 -3.8836,-12.8991 -8.0048,-25.8746 -14.2025,-37.8353 -4.4094,-8.5094 -8.9136,-17.5108 -16.1648,-23.7776 -4.8179,-4.1638 -10.9816,-6.9121 -17.1877,-8.338 -4.7853,-1.0994 -14.7298,10e-5 -14.7298,10e-5 z" /><path
           style="display:inline;opacity:1;fill:none;stroke:#000000;stroke-width:3.664;stroke-linejoin:round;stroke-dasharray:none"
           d="m 2393.3261,810.8219 c 0,0 8.9748,0.915 13.3192,0 6.1352,-1.2921 12.3615,-3.6129 17.2116,-7.5862 7.274,-5.959 11.808,-14.7739 16.2354,-23.0696 6.2576,-11.7248 10.3997,-24.5117 14.3153,-37.212 4.9627,-16.0967 8.4687,-32.6345 11.5636,-49.1921 3.606,-19.2921 6.1332,-38.7899 8.1398,-58.3132 2.1875,-21.2831 3.5193,-42.6624 4.2428,-64.0454 0.7446,-22.0059 0.7757,-44.0472 0.099,-66.0553 -0.6593,-21.4412 -1.9308,-42.88 -4.05,-64.2264 -1.9496,-19.6379 -4.424,-39.2508 -7.964,-58.6651 -3.0488,-16.7204 -6.5151,-33.4197 -11.415,-49.6942 -3.8836,-12.8991 -8.0048,-25.8746 -14.2025,-37.8353 -4.4094,-8.5094 -8.9136,-17.5108 -16.1648,-23.7776 -4.8179,-4.1638 -10.9816,-6.9121 -17.1877,-8.338 -4.7853,-1.0994 -14.7298,10e-5 -14.7298,10e-5"
           transform="translate(-881.96396,1026.4222)"
           id="path1648" /><path
           style="display:none;fill:none;fill-opacity:1;stroke:#000000;stroke-width:4;stroke-linejoin:bevel;stroke-dasharray:none;stroke-opacity:1"
           d="m 1541.658,1264.9412 -18.804,8.717 -12.079,15.5756 c 0,0 9.3794,-0.997 13.9063,0 6.461,1.423 12.9667,4.0575 18.0112,8.3379 7.3077,6.2008 11.7554,15.2682 16.1648,23.7776 6.1977,11.9607 10.3189,24.9362 14.2025,37.8353 4.8999,16.2745 8.3662,32.9738 11.415,49.6942 3.54,19.4143 6.0144,39.0272 7.964,58.6651 2.1192,21.3464 3.3907,42.7852 4.05,64.2264 0.6767,22.0081 0.6456,44.0494 -0.099,66.0553 -0.7235,21.383 -2.0553,42.7623 -4.2428,64.0454 -2.0066,19.5233 -4.5338,39.0211 -8.1398,58.3132 -3.0949,16.5576 -6.6009,33.0954 -11.5636,49.1921 -3.9156,12.7003 -8.0577,25.4872 -14.3153,37.212 -4.4274,8.2957 -8.9614,17.1106 -16.2354,23.0696 -4.8501,3.9733 -11.034,6.5153 -17.2116,7.5862 -4.0893,0.7089 -12.4186,-0.8938 -12.4186,-0.8938 l 10.5913,19.8739 18.804,8.717 18.804,-8.717 17.711,-25.646 15.588,-41.084 12.561,-54.134 8.803,-64.038 4.533,-70.22 -0.5109,-72.2153 -4.4211,-70.1116 -8.6936,-64.0405 -12.4609,-54.2477 -15.504,-41.3021 -17.646,-25.9563 z"
           id="path1649" /><g
           id="g1662"
           transform="translate(16)"
           style="display:none"><path
             style="fill:#484019;fill-opacity:1;stroke:#000000;stroke-width:4;stroke-linecap:butt;stroke-linejoin:round;stroke-dasharray:none;stroke-opacity:1"
             d="m 1525.658,1264.9412 18.804,8.717 h 64 l -18.804,-8.717 z"
             id="path1650" /><path
             style="fill:#54481d;fill-opacity:1;stroke:#000000;stroke-width:4;stroke-linejoin:bevel;stroke-dasharray:none;stroke-opacity:1"
             d="m 1544.462,1273.6582 h 64 l 17.711,25.646 h -64 z"
             id="path1651" /><path
             style="fill:#605021;fill-opacity:1;stroke:#000000;stroke-width:4;stroke-linejoin:bevel;stroke-dasharray:none;stroke-opacity:1"
             d="m 1562.173,1299.3042 15.588,41.084 h 64 l -15.588,-41.084 z"
             id="path1652" /><path
             style="fill:#6d5725;fill-opacity:1;stroke:#000000;stroke-width:4;stroke-linejoin:bevel;stroke-dasharray:none;stroke-opacity:1"
             d="m 1577.761,1340.3882 h 64 l 12.561,54.134 h -64 z"
             id="path1653" /><path
             style="fill:#7a5f2a;fill-opacity:1;stroke:#000000;stroke-width:4;stroke-linejoin:bevel;stroke-dasharray:none;stroke-opacity:1"
             d="m 1590.322,1394.5222 h 64 l 8.803,64.038 h -64 z"
             id="path1654" /><path
             style="fill:#88672f;fill-opacity:1;stroke:#000000;stroke-width:4;stroke-linejoin:bevel;stroke-dasharray:none;stroke-opacity:1"
             d="m 1599.125,1458.5602 h 64 l 4.533,70.22 h -64 z"
             id="path1655" /><path
             style="fill:#ac7d3c;fill-opacity:1;stroke:#000000;stroke-width:4;stroke-linejoin:bevel;stroke-dasharray:none;stroke-opacity:1"
             d="m 1603.658,1528.7802 h 64 v 72.322 h -64 z"
             id="path1656" /><path
             style="fill:#845d30;fill-opacity:1;stroke:#000000;stroke-width:4;stroke-linejoin:bevel;stroke-dasharray:none;stroke-opacity:1"
             d="m 1603.658,1601.1022 h 64 l -4.533,70.22 h -64 z"
             id="path1657" /><path
             style="fill:#714d2a;fill-opacity:1;stroke:#000000;stroke-width:4;stroke-linejoin:bevel;stroke-dasharray:none;stroke-opacity:1"
             d="m 1599.125,1671.3222 -8.803,64.038 h 64 l 8.803,-64.038 z"
             id="path1658" /><path
             style="fill:#5d3e24;fill-opacity:1;stroke:#000000;stroke-width:4;stroke-linejoin:bevel;stroke-dasharray:none;stroke-opacity:1"
             d="m 1577.761,1789.4942 12.561,-54.134 h 64 l -12.561,54.134 z"
             id="path1659" /><path
             style="fill:#4a301e;fill-opacity:1;stroke:#000000;stroke-width:4;stroke-linejoin:bevel;stroke-dasharray:none;stroke-opacity:1"
             d="m 1562.173,1830.5782 15.588,-41.084 h 64 l -15.588,41.084 z"
             id="path1660" /><path
             style="fill:#372317;fill-opacity:1;stroke:#000000;stroke-width:4;stroke-linejoin:bevel;stroke-dasharray:none;stroke-opacity:1"
             d="m 1544.462,1856.2242 17.711,-25.646 h 64 l -17.711,25.646 z"
             id="path1661" /><path
             style="fill:#24170f;fill-opacity:1;stroke:#000000;stroke-width:4;stroke-linejoin:bevel;stroke-dasharray:none;stroke-opacity:1"
             d="m 1525.658,1864.9412 18.804,-8.717 h 64 l -18.804,8.717 z"
             id="path1662" /></g></g><g
         id="g1647"
         transform="translate(-555.9994)"
         style="display:inline"><path
           id="path1631"
           style="display:inline;opacity:1;fill:#6e5225;fill-opacity:1;stroke:none;stroke-width:3.664;stroke-linejoin:round;stroke-dasharray:none"
           transform="translate(-881.96396,1026.4222)"
           d="m 2393.3069,261.21017 c 9.3179,-15.13589 19.5616,-22.69119 30.3151,-22.69117 43.0141,9e-5 77.8847,133.10254 77.8847,298.29771 0,165.19517 -34.8706,301.70221 -77.8847,301.70229 -10.7535,2e-5 -20.9972,-10.95986 -30.3151,-26.09575 l 0.019,-1.60135 c 0,0 8.9748,0.915 13.3192,0 6.1352,-1.2921 12.3615,-3.6129 17.2116,-7.5862 7.274,-5.959 11.808,-14.7739 16.2354,-23.0696 6.2576,-11.7248 10.3997,-24.5117 14.3153,-37.212 4.9627,-16.0967 8.4687,-32.6345 11.5636,-49.1921 3.606,-19.2921 6.1332,-38.7899 8.1398,-58.3132 2.1875,-21.2831 3.5193,-42.6624 4.2428,-64.0454 0.7446,-22.0059 0.7757,-44.0472 0.099,-66.0553 -0.6593,-21.4412 -1.9308,-42.88 -4.05,-64.2264 -1.9496,-19.6379 -4.424,-39.2508 -7.964,-58.6651 -3.0488,-16.7204 -6.5151,-33.4197 -11.415,-49.6942 -3.8836,-12.8991 -8.0048,-25.8746 -14.2025,-37.8353 -4.4094,-8.5094 -8.9136,-17.5108 -16.1648,-23.7776 -4.8179,-4.1638 -10.9816,-6.9121 -17.1877,-8.338 -4.7853,-1.0994 -14.7298,10e-5 -14.7298,10e-5 z" /><path
           style="display:inline;opacity:1;fill:none;stroke:#000000;stroke-width:3.664;stroke-linejoin:round;stroke-dasharray:none"
           d="m 2393.3261,810.8219 c 0,0 8.9748,0.915 13.3192,0 6.1352,-1.2921 12.3615,-3.6129 17.2116,-7.5862 7.274,-5.959 11.808,-14.7739 16.2354,-23.0696 6.2576,-11.7248 10.3997,-24.5117 14.3153,-37.212 4.9627,-16.0967 8.4687,-32.6345 11.5636,-49.1921 3.606,-19.2921 6.1332,-38.7899 8.1398,-58.3132 2.1875,-21.2831 3.5193,-42.6624 4.2428,-64.0454 0.7446,-22.0059 0.7757,-44.0472 0.099,-66.0553 -0.6593,-21.4412 -1.9308,-42.88 -4.05,-64.2264 -1.9496,-19.6379 -4.424,-39.2508 -7.964,-58.6651 -3.0488,-16.7204 -6.5151,-33.4197 -11.415,-49.6942 -3.8836,-12.8991 -8.0048,-25.8746 -14.2025,-37.8353 -4.4094,-8.5094 -8.9136,-17.5108 -16.1648,-23.7776 -4.8179,-4.1638 -10.9816,-6.9121 -17.1877,-8.338 -4.7853,-1.0994 -14.7298,10e-5 -14.7298,10e-5"
           transform="translate(-881.96396,1026.4222)"
           id="path1632" /><path
           style="display:none;fill:none;fill-opacity:1;stroke:#000000;stroke-width:4;stroke-linejoin:bevel;stroke-dasharray:none;stroke-opacity:1"
           d="m 1541.658,1264.9412 -18.804,8.717 -12.079,15.5756 c 0,0 9.3794,-0.997 13.9063,0 6.461,1.423 12.9667,4.0575 18.0112,8.3379 7.3077,6.2008 11.7554,15.2682 16.1648,23.7776 6.1977,11.9607 10.3189,24.9362 14.2025,37.8353 4.8999,16.2745 8.3662,32.9738 11.415,49.6942 3.54,19.4143 6.0144,39.0272 7.964,58.6651 2.1192,21.3464 3.3907,42.7852 4.05,64.2264 0.6767,22.0081 0.6456,44.0494 -0.099,66.0553 -0.7235,21.383 -2.0553,42.7623 -4.2428,64.0454 -2.0066,19.5233 -4.5338,39.0211 -8.1398,58.3132 -3.0949,16.5576 -6.6009,33.0954 -11.5636,49.1921 -3.9156,12.7003 -8.0577,25.4872 -14.3153,37.212 -4.4274,8.2957 -8.9614,17.1106 -16.2354,23.0696 -4.8501,3.9733 -11.034,6.5153 -17.2116,7.5862 -4.0893,0.7089 -12.4186,-0.8938 -12.4186,-0.8938 l 10.5913,19.8739 18.804,8.717 18.804,-8.717 17.711,-25.646 15.588,-41.084 12.561,-54.134 8.803,-64.038 4.533,-70.22 -0.5109,-72.2153 -4.4211,-70.1116 -8.6936,-64.0405 -12.4609,-54.2477 -15.504,-41.3021 -17.646,-25.9563 z"
           id="path1633" /><g
           id="g1646"
           transform="translate(16)"
           style="display:none"><path
             style="fill:#484019;fill-opacity:1;stroke:#000000;stroke-width:4;stroke-linecap:butt;stroke-linejoin:round;stroke-dasharray:none;stroke-opacity:1"
             d="m 1525.658,1264.9412 18.804,8.717 h 64 l -18.804,-8.717 z"
             id="path1634" /><path
             style="fill:#54481d;fill-opacity:1;stroke:#000000;stroke-width:4;stroke-linejoin:bevel;stroke-dasharray:none;stroke-opacity:1"
             d="m 1544.462,1273.6582 h 64 l 17.711,25.646 h -64 z"
             id="path1635" /><path
             style="fill:#605021;fill-opacity:1;stroke:#000000;stroke-width:4;stroke-linejoin:bevel;stroke-dasharray:none;stroke-opacity:1"
             d="m 1562.173,1299.3042 15.588,41.084 h 64 l -15.588,-41.084 z"
             id="path1636" /><path
             style="fill:#6d5725;fill-opacity:1;stroke:#000000;stroke-width:4;stroke-linejoin:bevel;stroke-dasharray:none;stroke-opacity:1"
             d="m 1577.761,1340.3882 h 64 l 12.561,54.134 h -64 z"
             id="path1637" /><path
             style="fill:#7a5f2a;fill-opacity:1;stroke:#000000;stroke-width:4;stroke-linejoin:bevel;stroke-dasharray:none;stroke-opacity:1"
             d="m 1590.322,1394.5222 h 64 l 8.803,64.038 h -64 z"
             id="path1638" /><path
             style="fill:#88672f;fill-opacity:1;stroke:#000000;stroke-width:4;stroke-linejoin:bevel;stroke-dasharray:none;stroke-opacity:1"
             d="m 1599.125,1458.5602 h 64 l 4.533,70.22 h -64 z"
             id="path1639" /><path
             style="fill:#ac7d3c;fill-opacity:1;stroke:#000000;stroke-width:4;stroke-linejoin:bevel;stroke-dasharray:none;stroke-opacity:1"
             d="m 1603.658,1528.7802 h 64 v 72.322 h -64 z"
             id="path1640" /><path
             style="fill:#845d30;fill-opacity:1;stroke:#000000;stroke-width:4;stroke-linejoin:bevel;stroke-dasharray:none;stroke-opacity:1"
             d="m 1603.658,1601.1022 h 64 l -4.533,70.22 h -64 z"
             id="path1641" /><path
             style="fill:#714d2a;fill-opacity:1;stroke:#000000;stroke-width:4;stroke-linejoin:bevel;stroke-dasharray:none;stroke-opacity:1"
             d="m 1599.125,1671.3222 -8.803,64.038 h 64 l 8.803,-64.038 z"
             id="path1642" /><path
             style="fill:#5d3e24;fill-opacity:1;stroke:#000000;stroke-width:4;stroke-linejoin:bevel;stroke-dasharray:none;stroke-opacity:1"
             d="m 1577.761,1789.4942 12.561,-54.134 h 64 l -12.561,54.134 z"
             id="path1643" /><path
             style="fill:#4a301e;fill-opacity:1;stroke:#000000;stroke-width:4;stroke-linejoin:bevel;stroke-dasharray:none;stroke-opacity:1"
             d="m 1562.173,1830.5782 15.588,-41.084 h 64 l -15.588,41.084 z"
             id="path1644" /><path
             style="fill:#372317;fill-opacity:1;stroke:#000000;stroke-width:4;stroke-linejoin:bevel;stroke-dasharray:none;stroke-opacity:1"
             d="m 1544.462,1856.2242 17.711,-25.646 h 64 l -17.711,25.646 z"
             id="path1645" /><path
             style="fill:#24170f;fill-opacity:1;stroke:#000000;stroke-width:4;stroke-linejoin:bevel;stroke-dasharray:none;stroke-opacity:1"
             d="m 1525.658,1864.9412 18.804,-8.717 h 64 l -18.804,8.717 z"
             id="path1646" /></g></g><g
         id="g1631"
         transform="translate(-665.99947)"
         style="display:inline"><path
           id="path1615"
           style="display:inline;opacity:1;fill:#6e5225;fill-opacity:1;stroke:none;stroke-width:3.664;stroke-linejoin:round;stroke-dasharray:none"
           transform="translate(-881.96396,1026.4222)"
           d="m 2393.3069,261.21017 c 9.3179,-15.13589 19.5616,-22.69119 30.3151,-22.69117 43.0141,9e-5 77.8847,133.10254 77.8847,298.29771 0,165.19517 -34.8706,301.70221 -77.8847,301.70229 -10.7535,2e-5 -20.9972,-10.95986 -30.3151,-26.09575 l 0.019,-1.60135 c 0,0 8.9748,0.915 13.3192,0 6.1352,-1.2921 12.3615,-3.6129 17.2116,-7.5862 7.274,-5.959 11.808,-14.7739 16.2354,-23.0696 6.2576,-11.7248 10.3997,-24.5117 14.3153,-37.212 4.9627,-16.0967 8.4687,-32.6345 11.5636,-49.1921 3.606,-19.2921 6.1332,-38.7899 8.1398,-58.3132 2.1875,-21.2831 3.5193,-42.6624 4.2428,-64.0454 0.7446,-22.0059 0.7757,-44.0472 0.099,-66.0553 -0.6593,-21.4412 -1.9308,-42.88 -4.05,-64.2264 -1.9496,-19.6379 -4.424,-39.2508 -7.964,-58.6651 -3.0488,-16.7204 -6.5151,-33.4197 -11.415,-49.6942 -3.8836,-12.8991 -8.0048,-25.8746 -14.2025,-37.8353 -4.4094,-8.5094 -8.9136,-17.5108 -16.1648,-23.7776 -4.8179,-4.1638 -10.9816,-6.9121 -17.1877,-8.338 -4.7853,-1.0994 -14.7298,10e-5 -14.7298,10e-5 z" /><path
           style="display:inline;opacity:1;fill:none;stroke:#000000;stroke-width:3.664;stroke-linejoin:round;stroke-dasharray:none"
           d="m 2393.3261,810.8219 c 0,0 8.9748,0.915 13.3192,0 6.1352,-1.2921 12.3615,-3.6129 17.2116,-7.5862 7.274,-5.959 11.808,-14.7739 16.2354,-23.0696 6.2576,-11.7248 10.3997,-24.5117 14.3153,-37.212 4.9627,-16.0967 8.4687,-32.6345 11.5636,-49.1921 3.606,-19.2921 6.1332,-38.7899 8.1398,-58.3132 2.1875,-21.2831 3.5193,-42.6624 4.2428,-64.0454 0.7446,-22.0059 0.7757,-44.0472 0.099,-66.0553 -0.6593,-21.4412 -1.9308,-42.88 -4.05,-64.2264 -1.9496,-19.6379 -4.424,-39.2508 -7.964,-58.6651 -3.0488,-16.7204 -6.5151,-33.4197 -11.415,-49.6942 -3.8836,-12.8991 -8.0048,-25.8746 -14.2025,-37.8353 -4.4094,-8.5094 -8.9136,-17.5108 -16.1648,-23.7776 -4.8179,-4.1638 -10.9816,-6.9121 -17.1877,-8.338 -4.7853,-1.0994 -14.7298,10e-5 -14.7298,10e-5"
           transform="translate(-881.96396,1026.4222)"
           id="path1616" /><path
           style="display:none;fill:none;fill-opacity:1;stroke:#000000;stroke-width:4;stroke-linejoin:bevel;stroke-dasharray:none;stroke-opacity:1"
           d="m 1541.658,1264.9412 -18.804,8.717 -12.079,15.5756 c 0,0 9.3794,-0.997 13.9063,0 6.461,1.423 12.9667,4.0575 18.0112,8.3379 7.3077,6.2008 11.7554,15.2682 16.1648,23.7776 6.1977,11.9607 10.3189,24.9362 14.2025,37.8353 4.8999,16.2745 8.3662,32.9738 11.415,49.6942 3.54,19.4143 6.0144,39.0272 7.964,58.6651 2.1192,21.3464 3.3907,42.7852 4.05,64.2264 0.6767,22.0081 0.6456,44.0494 -0.099,66.0553 -0.7235,21.383 -2.0553,42.7623 -4.2428,64.0454 -2.0066,19.5233 -4.5338,39.0211 -8.1398,58.3132 -3.0949,16.5576 -6.6009,33.0954 -11.5636,49.1921 -3.9156,12.7003 -8.0577,25.4872 -14.3153,37.212 -4.4274,8.2957 -8.9614,17.1106 -16.2354,23.0696 -4.8501,3.9733 -11.034,6.5153 -17.2116,7.5862 -4.0893,0.7089 -12.4186,-0.8938 -12.4186,-0.8938 l 10.5913,19.8739 18.804,8.717 18.804,-8.717 17.711,-25.646 15.588,-41.084 12.561,-54.134 8.803,-64.038 4.533,-70.22 -0.5109,-72.2153 -4.4211,-70.1116 -8.6936,-64.0405 -12.4609,-54.2477 -15.504,-41.3021 -17.646,-25.9563 z"
           id="path1617" /><g
           id="g1630"
           transform="translate(16)"
           style="display:none"><path
             style="fill:#484019;fill-opacity:1;stroke:#000000;stroke-width:4;stroke-linecap:butt;stroke-linejoin:round;stroke-dasharray:none;stroke-opacity:1"
             d="m 1525.658,1264.9412 18.804,8.717 h 64 l -18.804,-8.717 z"
             id="path1618" /><path
             style="fill:#54481d;fill-opacity:1;stroke:#000000;stroke-width:4;stroke-linejoin:bevel;stroke-dasharray:none;stroke-opacity:1"
             d="m 1544.462,1273.6582 h 64 l 17.711,25.646 h -64 z"
             id="path1619" /><path
             style="fill:#605021;fill-opacity:1;stroke:#000000;stroke-width:4;stroke-linejoin:bevel;stroke-dasharray:none;stroke-opacity:1"
             d="m 1562.173,1299.3042 15.588,41.084 h 64 l -15.588,-41.084 z"
             id="path1620" /><path
             style="fill:#6d5725;fill-opacity:1;stroke:#000000;stroke-width:4;stroke-linejoin:bevel;stroke-dasharray:none;stroke-opacity:1"
             d="m 1577.761,1340.3882 h 64 l 12.561,54.134 h -64 z"
             id="path1621" /><path
             style="fill:#7a5f2a;fill-opacity:1;stroke:#000000;stroke-width:4;stroke-linejoin:bevel;stroke-dasharray:none;stroke-opacity:1"
             d="m 1590.322,1394.5222 h 64 l 8.803,64.038 h -64 z"
             id="path1622" /><path
             style="fill:#88672f;fill-opacity:1;stroke:#000000;stroke-width:4;stroke-linejoin:bevel;stroke-dasharray:none;stroke-opacity:1"
             d="m 1599.125,1458.5602 h 64 l 4.533,70.22 h -64 z"
             id="path1623" /><path
             style="fill:#ac7d3c;fill-opacity:1;stroke:#000000;stroke-width:4;stroke-linejoin:bevel;stroke-dasharray:none;stroke-opacity:1"
             d="m 1603.658,1528.7802 h 64 v 72.322 h -64 z"
             id="path1624" /><path
             style="fill:#845d30;fill-opacity:1;stroke:#000000;stroke-width:4;stroke-linejoin:bevel;stroke-dasharray:none;stroke-opacity:1"
             d="m 1603.658,1601.1022 h 64 l -4.533,70.22 h -64 z"
             id="path1625" /><path
             style="fill:#714d2a;fill-opacity:1;stroke:#000000;stroke-width:4;stroke-linejoin:bevel;stroke-dasharray:none;stroke-opacity:1"
             d="m 1599.125,1671.3222 -8.803,64.038 h 64 l 8.803,-64.038 z"
             id="path1626" /><path
             style="fill:#5d3e24;fill-opacity:1;stroke:#000000;stroke-width:4;stroke-linejoin:bevel;stroke-dasharray:none;stroke-opacity:1"
             d="m 1577.761,1789.4942 12.561,-54.134 h 64 l -12.561,54.134 z"
             id="path1627" /><path
             style="fill:#4a301e;fill-opacity:1;stroke:#000000;stroke-width:4;stroke-linejoin:bevel;stroke-dasharray:none;stroke-opacity:1"
             d="m 1562.173,1830.5782 15.588,-41.084 h 64 l -15.588,41.084 z"
             id="path1628" /><path
             style="fill:#372317;fill-opacity:1;stroke:#000000;stroke-width:4;stroke-linejoin:bevel;stroke-dasharray:none;stroke-opacity:1"
             d="m 1544.462,1856.2242 17.711,-25.646 h 64 l -17.711,25.646 z"
             id="path1629" /><path
             style="fill:#24170f;fill-opacity:1;stroke:#000000;stroke-width:4;stroke-linejoin:bevel;stroke-dasharray:none;stroke-opacity:1"
             d="m 1525.658,1864.9412 18.804,-8.717 h 64 l -18.804,8.717 z"
             id="path1630" /></g></g><g
         id="g1727"
         transform="translate(-665.99947)"
         style="display:none"><path
           id="path1711"
           style="display:inline;opacity:1;fill:#6e5225;fill-opacity:1;stroke:none;stroke-width:3.664;stroke-linejoin:round;stroke-dasharray:none"
           transform="translate(-881.96396,1026.4222)"
           d="m 2393.3069,261.21017 c 9.3179,-15.13589 19.5616,-22.69119 30.3151,-22.69117 43.0141,9e-5 77.8847,133.10254 77.8847,298.29771 0,165.19517 -34.8706,301.70221 -77.8847,301.70229 -10.7535,2e-5 -20.9972,-10.95986 -30.3151,-26.09575 l 0.019,-1.60135 c 0,0 8.9748,0.915 13.3192,0 6.1352,-1.2921 12.3615,-3.6129 17.2116,-7.5862 7.274,-5.959 11.808,-14.7739 16.2354,-23.0696 6.2576,-11.7248 10.3997,-24.5117 14.3153,-37.212 4.9627,-16.0967 8.4687,-32.6345 11.5636,-49.1921 3.606,-19.2921 6.1332,-38.7899 8.1398,-58.3132 2.1875,-21.2831 3.5193,-42.6624 4.2428,-64.0454 0.7446,-22.0059 0.7757,-44.0472 0.099,-66.0553 -0.6593,-21.4412 -1.9308,-42.88 -4.05,-64.2264 -1.9496,-19.6379 -4.424,-39.2508 -7.964,-58.6651 -3.0488,-16.7204 -6.5151,-33.4197 -11.415,-49.6942 -3.8836,-12.8991 -8.0048,-25.8746 -14.2025,-37.8353 -4.4094,-8.5094 -8.9136,-17.5108 -16.1648,-23.7776 -4.8179,-4.1638 -10.9816,-6.9121 -17.1877,-8.338 -4.7853,-1.0994 -14.7298,10e-5 -14.7298,10e-5 z" /><path
           style="display:inline;opacity:1;fill:none;stroke:#000000;stroke-width:3.664;stroke-linejoin:round;stroke-dasharray:none"
           d="m 2393.3261,810.8219 c 0,0 8.9748,0.915 13.3192,0 6.1352,-1.2921 12.3615,-3.6129 17.2116,-7.5862 7.274,-5.959 11.808,-14.7739 16.2354,-23.0696 6.2576,-11.7248 10.3997,-24.5117 14.3153,-37.212 4.9627,-16.0967 8.4687,-32.6345 11.5636,-49.1921 3.606,-19.2921 6.1332,-38.7899 8.1398,-58.3132 2.1875,-21.2831 3.5193,-42.6624 4.2428,-64.0454 0.7446,-22.0059 0.7757,-44.0472 0.099,-66.0553 -0.6593,-21.4412 -1.9308,-42.88 -4.05,-64.2264 -1.9496,-19.6379 -4.424,-39.2508 -7.964,-58.6651 -3.0488,-16.7204 -6.5151,-33.4197 -11.415,-49.6942 -3.8836,-12.8991 -8.0048,-25.8746 -14.2025,-37.8353 -4.4094,-8.5094 -8.9136,-17.5108 -16.1648,-23.7776 -4.8179,-4.1638 -10.9816,-6.9121 -17.1877,-8.338 -4.7853,-1.0994 -14.7298,10e-5 -14.7298,10e-5"
           transform="translate(-881.96396,1026.4222)"
           id="path1712" /><path
           style="display:none;fill:none;fill-opacity:1;stroke:#000000;stroke-width:4;stroke-linejoin:bevel;stroke-dasharray:none;stroke-opacity:1"
           d="m 1541.658,1264.9412 -18.804,8.717 -12.079,15.5756 c 0,0 9.3794,-0.997 13.9063,0 6.461,1.423 12.9667,4.0575 18.0112,8.3379 7.3077,6.2008 11.7554,15.2682 16.1648,23.7776 6.1977,11.9607 10.3189,24.9362 14.2025,37.8353 4.8999,16.2745 8.3662,32.9738 11.415,49.6942 3.54,19.4143 6.0144,39.0272 7.964,58.6651 2.1192,21.3464 3.3907,42.7852 4.05,64.2264 0.6767,22.0081 0.6456,44.0494 -0.099,66.0553 -0.7235,21.383 -2.0553,42.7623 -4.2428,64.0454 -2.0066,19.5233 -4.5338,39.0211 -8.1398,58.3132 -3.0949,16.5576 -6.6009,33.0954 -11.5636,49.1921 -3.9156,12.7003 -8.0577,25.4872 -14.3153,37.212 -4.4274,8.2957 -8.9614,17.1106 -16.2354,23.0696 -4.8501,3.9733 -11.034,6.5153 -17.2116,7.5862 -4.0893,0.7089 -12.4186,-0.8938 -12.4186,-0.8938 l 10.5913,19.8739 18.804,8.717 18.804,-8.717 17.711,-25.646 15.588,-41.084 12.561,-54.134 8.803,-64.038 4.533,-70.22 -0.5109,-72.2153 -4.4211,-70.1116 -8.6936,-64.0405 -12.4609,-54.2477 -15.504,-41.3021 -17.646,-25.9563 z"
           id="path1713" /><path
           style="display:inline;fill:none;fill-opacity:1;stroke:#000000;stroke-width:4;stroke-linejoin:bevel;stroke-dasharray:none;stroke-opacity:1"
           d="m 1549.502,1266.4402 -18.938,1.506 -18.293,18.767 -1.496,2.5206 c 0,0 9.3794,-0.997 13.9063,0 6.461,1.423 12.9667,4.0575 18.0112,8.3379 7.3077,6.2008 11.7554,15.2682 16.1648,23.7776 6.1977,11.9607 10.3189,24.9362 14.2025,37.8353 4.8999,16.2745 8.3662,32.9738 11.415,49.6942 3.54,19.4143 6.0144,39.0272 7.964,58.6651 2.1192,21.3464 3.3907,42.7852 4.05,64.2264 0.6767,22.0081 0.6456,44.0494 -0.099,66.0553 -0.7235,21.383 -2.0553,42.7623 -4.2428,64.0454 -2.0066,19.5233 -4.5338,39.0211 -8.1398,58.3132 -3.0949,16.5576 -6.6009,33.0954 -11.5636,49.1921 -3.9156,12.7003 -8.0577,25.4872 -14.3153,37.212 -4.4274,8.2957 -8.9614,17.1106 -16.2354,23.0696 -4.8501,3.9733 -11.034,6.5153 -17.2116,7.5862 -4.0893,0.7089 -12.4186,-0.8938 -12.4186,-0.8938 l 3.0693,11.2509 18.482,15.841 18.938,-1.506 18.293,-18.767 16.585,-34.936 13.913,-49.076 10.433,-60.362 6.347,-68.142 1.891,-71.961 -2.675,-71.597 -7.084,-67.074 -11.082,-58.651 -14.437,-46.82 -16.952,-32.269 z"
           id="path1728" /><g
           id="g1726"
           transform="translate(16)"
           style="display:inline"><path
             style="fill:#484019;fill-opacity:1;stroke:#000000;stroke-width:4;stroke-linejoin:bevel;stroke-dasharray:none;stroke-opacity:1"
             d="m 1533.502,1266.4402 h 64 l 18.482,15.841 h -64 z"
             id="path1715" /><path
             style="fill:#54481d;fill-opacity:1;stroke:#000000;stroke-width:4;stroke-linejoin:bevel;stroke-dasharray:none;stroke-opacity:1"
             d="m 1551.984,1282.2812 16.952,32.269 h 64 l -16.952,-32.269 z"
             id="path1716" /><path
             style="fill:#605021;fill-opacity:1;stroke:#000000;stroke-width:4;stroke-linejoin:bevel;stroke-dasharray:none;stroke-opacity:1"
             d="m 1568.936,1314.5502 h 64 l 14.437,46.82 h -64 z"
             id="path1717" /><path
             style="fill:#6d5725;fill-opacity:1;stroke:#000000;stroke-width:4;stroke-linejoin:bevel;stroke-dasharray:none;stroke-opacity:1"
             d="m 1583.373,1361.3702 h 64 l 11.082,58.651 h -64 z"
             id="path1718" /><path
             style="fill:#7a5f2a;fill-opacity:1;stroke:#000000;stroke-width:4;stroke-linejoin:bevel;stroke-dasharray:none;stroke-opacity:1"
             d="m 1594.455,1420.0212 h 64 l 7.084,67.074 h -64 z"
             id="path1719" /><path
             style="fill:#88672f;fill-opacity:1;stroke:#000000;stroke-width:4;stroke-linejoin:bevel;stroke-dasharray:none;stroke-opacity:1"
             d="m 1601.539,1487.0952 h 64 l 2.675,71.597 h -64 z"
             id="path1720" /><path
             style="fill:#845d30;fill-opacity:1;stroke:#000000;stroke-width:4;stroke-linejoin:bevel;stroke-dasharray:none;stroke-opacity:1"
             d="m 1604.214,1558.6922 h 64 l -1.891,71.961 h -64 z"
             id="path1721" /><path
             style="fill:#714d2a;fill-opacity:1;stroke:#000000;stroke-width:4;stroke-linejoin:bevel;stroke-dasharray:none;stroke-opacity:1"
             d="m 1602.323,1630.6532 -6.347,68.142 h 64 l 6.347,-68.142 z"
             id="path1722" /><path
             style="fill:#4a301e;fill-opacity:1;stroke:#000000;stroke-width:4;stroke-linejoin:bevel;stroke-dasharray:none;stroke-opacity:1"
             d="m 1571.63,1808.2332 13.913,-49.076 h 64 l -13.913,49.076 z"
             id="path1723" /><path
             style="fill:#372317;fill-opacity:1;stroke:#000000;stroke-width:4;stroke-linejoin:bevel;stroke-dasharray:none;stroke-opacity:1"
             d="m 1555.045,1843.1692 16.585,-34.936 h 64 l -16.585,34.936 z"
             id="path1724" /><path
             style="fill:#24170f;fill-opacity:1;stroke:#000000;stroke-width:4;stroke-linejoin:bevel;stroke-dasharray:none;stroke-opacity:1"
             d="m 1536.752,1861.9362 18.293,-18.767 h 64 l -18.293,18.767 z"
             id="path1725" /><path
             style="fill:#24170f;fill-opacity:1;stroke:#000000;stroke-width:4;stroke-linejoin:bevel;stroke-dasharray:none;stroke-opacity:1"
             d="m 1517.814,1863.4422 18.938,-1.506 h 64 l -18.938,1.506 z"
             id="path1726" /><path
             style="fill:#5d3e24;fill-opacity:1;stroke:#000000;stroke-width:4;stroke-linejoin:bevel;stroke-dasharray:none;stroke-opacity:1"
             d="m 1595.976,1698.7952 -10.433,60.362 h 64 l 10.433,-60.362 z"
             id="path1727" /></g></g><g
         id="g1615"
         transform="translate(-775.99954)"
         style="display:inline"><path
           id="path1599"
           style="display:inline;opacity:1;fill:#6e5225;fill-opacity:1;stroke:none;stroke-width:3.664;stroke-linejoin:round;stroke-dasharray:none"
           transform="translate(-881.96396,1026.4222)"
           d="m 2393.3069,261.21017 c 9.3179,-15.13589 19.5616,-22.69119 30.3151,-22.69117 43.0141,9e-5 77.8847,133.10254 77.8847,298.29771 0,165.19517 -34.8706,301.70221 -77.8847,301.70229 -10.7535,2e-5 -20.9972,-10.95986 -30.3151,-26.09575 l 0.019,-1.60135 c 0,0 8.9748,0.915 13.3192,0 6.1352,-1.2921 12.3615,-3.6129 17.2116,-7.5862 7.274,-5.959 11.808,-14.7739 16.2354,-23.0696 6.2576,-11.7248 10.3997,-24.5117 14.3153,-37.212 4.9627,-16.0967 8.4687,-32.6345 11.5636,-49.1921 3.606,-19.2921 6.1332,-38.7899 8.1398,-58.3132 2.1875,-21.2831 3.5193,-42.6624 4.2428,-64.0454 0.7446,-22.0059 0.7757,-44.0472 0.099,-66.0553 -0.6593,-21.4412 -1.9308,-42.88 -4.05,-64.2264 -1.9496,-19.6379 -4.424,-39.2508 -7.964,-58.6651 -3.0488,-16.7204 -6.5151,-33.4197 -11.415,-49.6942 -3.8836,-12.8991 -8.0048,-25.8746 -14.2025,-37.8353 -4.4094,-8.5094 -8.9136,-17.5108 -16.1648,-23.7776 -4.8179,-4.1638 -10.9816,-6.9121 -17.1877,-8.338 -4.7853,-1.0994 -14.7298,10e-5 -14.7298,10e-5 z" /><path
           style="display:inline;opacity:1;fill:none;stroke:#000000;stroke-width:3.664;stroke-linejoin:round;stroke-dasharray:none"
           d="m 2393.3261,810.8219 c 0,0 8.9748,0.915 13.3192,0 6.1352,-1.2921 12.3615,-3.6129 17.2116,-7.5862 7.274,-5.959 11.808,-14.7739 16.2354,-23.0696 6.2576,-11.7248 10.3997,-24.5117 14.3153,-37.212 4.9627,-16.0967 8.4687,-32.6345 11.5636,-49.1921 3.606,-19.2921 6.1332,-38.7899 8.1398,-58.3132 2.1875,-21.2831 3.5193,-42.6624 4.2428,-64.0454 0.7446,-22.0059 0.7757,-44.0472 0.099,-66.0553 -0.6593,-21.4412 -1.9308,-42.88 -4.05,-64.2264 -1.9496,-19.6379 -4.424,-39.2508 -7.964,-58.6651 -3.0488,-16.7204 -6.5151,-33.4197 -11.415,-49.6942 -3.8836,-12.8991 -8.0048,-25.8746 -14.2025,-37.8353 -4.4094,-8.5094 -8.9136,-17.5108 -16.1648,-23.7776 -4.8179,-4.1638 -10.9816,-6.9121 -17.1877,-8.338 -4.7853,-1.0994 -14.7298,10e-5 -14.7298,10e-5"
           transform="translate(-881.96396,1026.4222)"
           id="path1600" /><path
           style="display:none;fill:none;fill-opacity:1;stroke:#000000;stroke-width:4;stroke-linejoin:bevel;stroke-dasharray:none;stroke-opacity:1"
           d="m 1541.658,1264.9412 -18.804,8.717 -12.079,15.5756 c 0,0 9.3794,-0.997 13.9063,0 6.461,1.423 12.9667,4.0575 18.0112,8.3379 7.3077,6.2008 11.7554,15.2682 16.1648,23.7776 6.1977,11.9607 10.3189,24.9362 14.2025,37.8353 4.8999,16.2745 8.3662,32.9738 11.415,49.6942 3.54,19.4143 6.0144,39.0272 7.964,58.6651 2.1192,21.3464 3.3907,42.7852 4.05,64.2264 0.6767,22.0081 0.6456,44.0494 -0.099,66.0553 -0.7235,21.383 -2.0553,42.7623 -4.2428,64.0454 -2.0066,19.5233 -4.5338,39.0211 -8.1398,58.3132 -3.0949,16.5576 -6.6009,33.0954 -11.5636,49.1921 -3.9156,12.7003 -8.0577,25.4872 -14.3153,37.212 -4.4274,8.2957 -8.9614,17.1106 -16.2354,23.0696 -4.8501,3.9733 -11.034,6.5153 -17.2116,7.5862 -4.0893,0.7089 -12.4186,-0.8938 -12.4186,-0.8938 l 10.5913,19.8739 18.804,8.717 18.804,-8.717 17.711,-25.646 15.588,-41.084 12.561,-54.134 8.803,-64.038 4.533,-70.22 -0.5109,-72.2153 -4.4211,-70.1116 -8.6936,-64.0405 -12.4609,-54.2477 -15.504,-41.3021 -17.646,-25.9563 z"
           id="path1601" /><g
           id="g1614"
           transform="translate(16)"
           style="display:none"><path
             style="fill:#484019;fill-opacity:1;stroke:#000000;stroke-width:4;stroke-linecap:butt;stroke-linejoin:round;stroke-dasharray:none;stroke-opacity:1"
             d="m 1525.658,1264.9412 18.804,8.717 h 64 l -18.804,-8.717 z"
             id="path1602" /><path
             style="fill:#54481d;fill-opacity:1;stroke:#000000;stroke-width:4;stroke-linejoin:bevel;stroke-dasharray:none;stroke-opacity:1"
             d="m 1544.462,1273.6582 h 64 l 17.711,25.646 h -64 z"
             id="path1603" /><path
             style="fill:#605021;fill-opacity:1;stroke:#000000;stroke-width:4;stroke-linejoin:bevel;stroke-dasharray:none;stroke-opacity:1"
             d="m 1562.173,1299.3042 15.588,41.084 h 64 l -15.588,-41.084 z"
             id="path1604" /><path
             style="fill:#6d5725;fill-opacity:1;stroke:#000000;stroke-width:4;stroke-linejoin:bevel;stroke-dasharray:none;stroke-opacity:1"
             d="m 1577.761,1340.3882 h 64 l 12.561,54.134 h -64 z"
             id="path1605" /><path
             style="fill:#7a5f2a;fill-opacity:1;stroke:#000000;stroke-width:4;stroke-linejoin:bevel;stroke-dasharray:none;stroke-opacity:1"
             d="m 1590.322,1394.5222 h 64 l 8.803,64.038 h -64 z"
             id="path1606" /><path
             style="fill:#88672f;fill-opacity:1;stroke:#000000;stroke-width:4;stroke-linejoin:bevel;stroke-dasharray:none;stroke-opacity:1"
             d="m 1599.125,1458.5602 h 64 l 4.533,70.22 h -64 z"
             id="path1607" /><path
             style="fill:#ac7d3c;fill-opacity:1;stroke:#000000;stroke-width:4;stroke-linejoin:bevel;stroke-dasharray:none;stroke-opacity:1"
             d="m 1603.658,1528.7802 h 64 v 72.322 h -64 z"
             id="path1608" /><path
             style="fill:#845d30;fill-opacity:1;stroke:#000000;stroke-width:4;stroke-linejoin:bevel;stroke-dasharray:none;stroke-opacity:1"
             d="m 1603.658,1601.1022 h 64 l -4.533,70.22 h -64 z"
             id="path1609" /><path
             style="fill:#714d2a;fill-opacity:1;stroke:#000000;stroke-width:4;stroke-linejoin:bevel;stroke-dasharray:none;stroke-opacity:1"
             d="m 1599.125,1671.3222 -8.803,64.038 h 64 l 8.803,-64.038 z"
             id="path1610" /><path
             style="fill:#5d3e24;fill-opacity:1;stroke:#000000;stroke-width:4;stroke-linejoin:bevel;stroke-dasharray:none;stroke-opacity:1"
             d="m 1577.761,1789.4942 12.561,-54.134 h 64 l -12.561,54.134 z"
             id="path1611" /><path
             style="fill:#4a301e;fill-opacity:1;stroke:#000000;stroke-width:4;stroke-linejoin:bevel;stroke-dasharray:none;stroke-opacity:1"
             d="m 1562.173,1830.5782 15.588,-41.084 h 64 l -15.588,41.084 z"
             id="path1612" /><path
             style="fill:#372317;fill-opacity:1;stroke:#000000;stroke-width:4;stroke-linejoin:bevel;stroke-dasharray:none;stroke-opacity:1"
             d="m 1544.462,1856.2242 17.711,-25.646 h 64 l -17.711,25.646 z"
             id="path1613" /><path
             style="fill:#24170f;fill-opacity:1;stroke:#000000;stroke-width:4;stroke-linejoin:bevel;stroke-dasharray:none;stroke-opacity:1"
             d="m 1525.658,1864.9412 18.804,-8.717 h 64 l -18.804,8.717 z"
             id="path1614" /></g></g></g><g
       id="g1593"
       transform="translate(25.377674,-0.51902212)"
       style="display:inline"><g
         id="g1502"
         transform="translate(651.34239,-1019.0342)"
         style="display:inline"><path
           style="fill:#483012;fill-opacity:1;stroke:#000000;stroke-width:4.21757;stroke-linejoin:round;stroke-dasharray:none;stroke-opacity:1"
           d="m 1644.6508,1874.4384 h 46.3934 c 0,0 14.2282,-4.1586 19.8106,-8.7319 8.3724,-6.8589 13.5908,-17.0047 18.6868,-26.5531 7.2025,-13.4954 11.9702,-28.2132 16.4771,-42.8313 5.7121,-18.5273 9.7475,-37.5624 13.3098,-56.6202 4.1506,-22.2053 7.0595,-44.6474 9.3691,-67.1189 2.5178,-24.4969 4.0506,-49.1045 4.8834,-73.7164 0.8571,-25.3289 0.8931,-50.6986 0.1143,-76.03 -0.7588,-24.679 -2.2223,-49.3552 -4.6615,-73.9251 -2.244,-22.6033 -5.0922,-45.1779 -9.1667,-67.5239 -3.5092,-19.2453 -7.4987,-38.4663 -13.1385,-57.1983 -4.4701,-14.8469 -9.2136,-29.7818 -16.3473,-43.5486 -5.0752,-9.7943 -10.2596,-20.155 -18.6058,-27.368 -5.5454,-4.7925 -19.7832,-9.597 -19.7832,-9.597 h -46.3933"
           id="path1500" /><path
           style="fill:#5e3d20;fill-opacity:1;stroke:#000000;stroke-width:4.21757;stroke-linejoin:bevel;stroke-dasharray:none;stroke-opacity:1"
           d="m 1645.599,1243.6757 c -7.2153,-0.1318 -14.2282,4.1585 -19.8106,8.7317 -8.3724,6.8588 -18.6869,26.5531 -18.6869,26.5531 l -16.4771,42.8314 -13.3099,56.6202 -9.3689,67.1188 -4.8835,73.7165 -0.1143,76.03 4.6616,73.925 9.1666,67.5239 13.1385,57.1984 16.3473,43.5485 c 0,0 10.2596,20.1551 18.6058,27.3682 5.5454,4.7925 12.455,9.4632 19.7832,9.597 7.2154,0.1317 14.2282,-4.1586 19.8107,-8.7319 8.3724,-6.8588 13.591,-17.0047 18.687,-26.5531 7.2025,-13.4954 11.97,-28.2132 16.4769,-42.8313 5.7121,-18.5273 9.7475,-37.5624 13.3098,-56.6202 4.1506,-22.2053 7.0595,-44.6474 9.3691,-67.1189 2.5178,-24.4969 4.0505,-49.1045 4.8834,-73.7164 0.8571,-25.3289 0.8933,-50.6986 0.1145,-76.03 -0.7588,-24.679 -2.2225,-49.3552 -4.6617,-73.9251 -2.244,-22.6033 -5.0921,-45.1779 -9.1666,-67.5239 -3.5092,-19.2453 -7.4988,-38.4663 -13.1386,-57.1983 -4.47,-14.8469 -9.2135,-29.7819 -16.3471,-43.5486 -5.0752,-9.7944 -10.2597,-20.155 -18.6059,-27.368 -5.5454,-4.7925 -12.4551,-9.4632 -19.7833,-9.597 z"
           id="path1501" /><path
           id="path1502"
           style="display:inline;fill:#ac7d3c;fill-opacity:1;stroke:#000000;stroke-width:4;stroke-linejoin:bevel"
           d="m 1769.3048,1557.5529 -33.5236,-19.3549 v 38.7097 z" /></g><path
         style="fill:#5e3d20;fill-opacity:1;stroke:#000000;stroke-width:3.9861;stroke-linejoin:bevel;stroke-dasharray:none;stroke-opacity:1"
         d="M 2296.2099,855.82173 H 2171.74 c 0,0 -14.2377,-4.1615 -19.8239,-8.7378 -8.3779,-6.8635 -13.6,-17.0162 -18.6994,-26.5709 -7.2074,-13.5045 -11.9783,-28.2322 -16.4882,-42.8601 -5.716,-18.5398 -9.7541,-37.5877 -13.3188,-56.6584 -4.1533,-22.2202 -7.064,-44.6774 -9.3752,-67.1639 -2.5195,-24.5135 -4.0533,-49.1376 -4.8867,-73.7661 -0.8577,-25.3459 -0.8938,-50.7327 -0.1145,-76.0812 0.7592,-24.6956 2.2239,-49.3884 4.6647,-73.9748 2.2455,-22.6184 5.0954,-45.2082 9.1727,-67.5691 3.5116,-19.2583 7.5039,-38.4921 13.1475,-57.2368 4.4731,-14.8569 9.2199,-29.8019 16.3583,-43.5779 5.0786,-9.8009 10.2664,-20.1686 18.6181,-27.3865 5.5492,-4.7958 19.7966,-9.6036 19.7966,-9.6036 h 125.4187"
         id="path1504" /><path
         style="fill:#5e3d20;fill-opacity:1;stroke:#000000;stroke-width:4.21757;stroke-linejoin:bevel;stroke-dasharray:none;stroke-opacity:1"
         d="m 2172.6882,225.05903 c -7.2153,-0.1318 -14.2282,4.1585 -19.8106,8.7317 -8.3724,6.8588 -13.5909,17.0047 -18.6869,26.5531 -7.2025,13.4954 -11.9702,28.2133 -16.4771,42.8314 -5.7122,18.5273 -9.7477,37.5624 -13.3099,56.6202 -4.1506,22.2053 -7.0593,44.6473 -9.3689,67.1188 -2.5178,24.497 -4.0507,49.1046 -4.8835,73.7165 -0.8571,25.3289 -0.8931,50.6986 -0.1143,76.03 0.7588,24.6789 2.2224,49.3552 4.6616,73.925 2.244,22.6033 5.0921,45.1779 9.1666,67.5239 3.5091,19.2453 7.4987,38.4663 13.1385,57.1984 4.47,14.8469 9.2137,29.7818 16.3473,43.5485 5.0752,9.7944 10.2596,20.1551 18.6058,27.3682 5.5454,4.7925 12.455,9.4632 19.7832,9.597 7.2154,0.1317 14.2282,-4.1586 19.8107,-8.7319 8.3724,-6.8588 13.591,-17.0047 18.687,-26.5531 7.2025,-13.4954 11.97,-28.2132 16.4769,-42.8313 5.7121,-18.5273 9.7475,-37.5624 13.3098,-56.6202 4.1506,-22.2053 7.0595,-44.6474 9.3691,-67.1189 2.5178,-24.4969 4.0505,-49.1045 4.8834,-73.7164 0.8571,-25.3289 0.8933,-50.6986 0.1145,-76.03 -0.7588,-24.679 -2.2225,-49.3552 -4.6617,-73.9251 -2.244,-22.6033 -5.0921,-45.1779 -9.1666,-67.5239 -3.5092,-19.2453 -7.4988,-38.4663 -13.1386,-57.1983 -4.47,-14.8469 -9.2135,-29.7819 -16.3471,-43.5486 -5.0752,-9.7944 -10.2597,-20.155 -18.6059,-27.368 -5.5454,-4.7925 -12.4551,-9.4632 -19.7833,-9.597 z"
         id="path1505" /></g></g></svg>
