<?xml version="1.0" encoding="UTF-8"?>
<!-- Created with Inkscape (http://www.inkscape.org/) -->
<svg width="1091.4" height="665.03" version="1.1" viewBox="0 0 1091.4 665.03" xml:space="preserve" xmlns="http://www.w3.org/2000/svg"><defs><filter id="filter1541" x="-.23515" y="-.60363" width="1.4703" height="2.2073" color-interpolation-filters="sRGB"><feGaussianBlur stdDeviation="0.89734702"/></filter><filter id="filter1542" x="-.17345" y="-.29873" width="1.3469" height="1.5975" color-interpolation-filters="sRGB"><feGaussianBlur stdDeviation="0.89734702"/></filter><filter id="filter1543" x="-.08152" y="-.34453" width="1.163" height="1.6891" color-interpolation-filters="sRGB"><feGaussianBlur stdDeviation="0.89734702"/></filter><filter id="filter1544" x="-.090981" y="-.33267" width="1.182" height="1.6653" color-interpolation-filters="sRGB"><feGaussianBlur stdDeviation="0.89734702"/></filter><filter id="filter3592" x="-.24703" y="-.31755" width="1.4941" height="1.6351" color-interpolation-filters="sRGB"><feGaussianBlur stdDeviation="52.91087"/></filter><filter id="filter3593" x="-.40911" y="-.31433" width="1.8182" height="1.6287" color-interpolation-filters="sRGB"><feGaussianBlur stdDeviation="52.91087"/></filter><filter id="filter3594" x="-.32627" y="-.40523" width="1.6525" height="1.8105" color-interpolation-filters="sRGB"><feGaussianBlur stdDeviation="52.91087"/></filter></defs><g transform="translate(-354.87 929.73)"><g transform="translate(47.723 -1164.4)" stroke-linejoin="round"><g stroke="#000" stroke-linecap="round" stroke-width="6"><path d="m496.57 792.39c-12.593 5.7627-27.692 4.6302-41.44 2.965-18.081-2.19-36.131-7.8464-51.992-16.798-21.331-12.039-42.057-27.693-55.479-48.182-15.431-23.556-23.79-52.483-25.304-80.602-0.67029-12.452 1.762-25.52 7.3085-36.688 8.4614-17.038 19.994-36.163 37.856-42.707 23.611-8.6499 51.699 0.525 74.665 10.767 30.384 13.55 58.33 36.174 76.606 63.973 18.4 27.988 36.771 63.871 28.553 96.343-5.8813 23.239-28.976 40.955-50.775 50.931z" fill="#6e5225" style="paint-order:markers fill stroke"/><path d="m899.37 462.47-51.359-96.052-76.724-97.743s30.553-27.524 49.781-30.359c20.705-3.0528 42.595 5.4323 60.759 15.829 27.705 15.858 52.763 39.498 67.751 67.683 12.962 24.375 24.542 55.13 15.769 81.306-9.3994 28.045-65.978 59.336-65.978 59.336z" fill="#6e5225" style="paint-order:markers fill stroke"/><path d="m390.35 562.66 380.94-293.99s49.7 4.2462 71.651 14.887c20.521 9.9478 38.509 25.893 52.419 43.965 16.221 21.074 33.996 45.619 33.92 72.213-0.065 23.165-29.907 62.731-29.907 62.731l-366.19 301.62s32.131-25.664 35.83-44.289c6.5244-32.853-9.9539-68.486-28.553-96.343-16.88-25.282-42.396-46.691-70.827-57.451-24.738-9.3625-79.281-3.3403-79.281-3.3403z" fill="#84622c" style="paint-order:markers fill stroke"/></g><g fill="#855b19" stroke="#000" stroke-linecap="round" stroke-width="10.834"><path d="m517.22 523.34 328.04-238.42" display="none" style="paint-order:markers fill stroke"/><path d="m895.36 327.52-304.92 256.41" display="none" style="paint-order:markers fill stroke"/><path d="m929.28 399.73-310.28 280.54" display="none" style="paint-order:markers fill stroke"/></g><g fill="none" stroke="#000" stroke-linecap="round"><g stroke-width="6"><path d="m431.36 547.81 361.6-279.14" style="paint-order:markers fill stroke"/><path d="m496.49 576.56 352.32-279.65" style="paint-order:markers fill stroke"/><path d="m534.07 608.77 352.56-287.56" style="paint-order:markers fill stroke"/><path d="m456.14 552.5 348.54-270.97" style="paint-order:markers fill stroke"/></g><path d="m899.38 340.72-300.99 248.57" display="none" stroke-width="10.834" style="paint-order:markers fill stroke"/><path d="m565.31 661.78 350.97-288.94" stroke-width="6" style="paint-order:markers fill stroke"/><path d="m623.75 647.62 302.68-249.41" display="none" stroke-width="10.834" style="paint-order:markers fill stroke"/><path d="m573.67 710.49 348.14-284.85" stroke-width="6" style="paint-order:markers fill stroke"/></g><path d="m716.52 307.26s10.734-31.922 23.311-41.68c12.145-9.4224 29.243-10.752 44.579-11.802 18.431-1.2613 37.737 0.19789 55.009 6.7524 22.118 8.3936 41.667 23.586 58.444 40.264 15.413 15.323 29.422 33.221 37.306 53.474 8.3678 21.495 11.165 45.602 9.1997 68.585-0.92622 10.83-3.9774 21.91-9.7602 31.114-5.756 9.161-13.943 17.488-23.687 22.191-9.5192 4.595-31.37 4.6327-31.37 4.6327s15.762-8.389 21.502-14.971c6.3298-7.2571 11.939-16.176 13.132-25.732 3.8932-31.176-4.3867-65.172-20.884-91.91-17.689-28.669-46.131-53.404-78.035-64.218-23.301-7.8979-50.77-6.1699-73.765 2.5813-10.111 3.848-15.045 16.722-24.983 20.717z" fill="#a06e1f" stroke="#000" stroke-linecap="round" stroke-width="5.9981" style="paint-order:markers fill stroke"/><g fill="#af8b54" stroke="#000" stroke-linecap="round" stroke-width="3"><path d="m663.53 341.32 15.458-1.4121-22.254 16.523z"/><path d="m703.85 311.71 15.458-1.4121-22.254 16.523z"/><path d="m622.97 372.94 15.458-1.4121-22.254 16.523z"/><path d="m579.6 406.47 15.458-1.4121-22.254 16.523z"/><path d="m540.49 436.64 15.458-1.4121-22.254 16.523z"/><path d="m498.69 469.49 15.458-1.4121-22.254 16.523z"/><path d="m455.97 502.47 15.458-1.4121-22.254 16.523z"/></g><g fill="#6f5836" stroke="#000" stroke-linecap="round" stroke-width="3"><path d="m626.6 695.17-14.721 4.429 16.033-13.206z"/><path d="m666.16 661.61-14.721 4.429 16.033-13.206z"/><path d="m707.95 628.17-14.721 4.429 16.033-13.206z"/><path d="m747.39 595.42-14.721 4.429 16.033-13.206z"/><path d="m787.85 562.48-14.721 4.429 16.033-13.206z"/><path d="m829 527.69-14.721 4.429 16.033-13.206z"/><path d="m870.48 494.08-14.721 4.429 16.033-13.206z"/></g><g stroke="#000"><path d="m629.07 687.88-2.4745 7.2895-13.558 5.9161 6.8356-5.106 3.765-19.247v-33.12l-5.474-34.758-27.094-44.338-28.465-30.793-34.212-18.885-32.248-7.6332-33.666 0.74032-13.305 9.6352 6.7964-15.111 43.034-2.5689 33.939 8.7585 35.034 19.707 29.475 31.131 28.55 44.411 5.474 37.224v30.655z" fill="#5e4722" stroke-width="3"/><g stroke-linecap="round"><path d="m334.77 598.3s5.3784-17.428 11.255-24.045c9.5152-10.714 22.67-18.98 36.509-22.696 21.462-5.7626 45.267-4.0072 66.632 2.103 24.236 6.9312 46.563 21.209 65.418 37.94 15.957 14.159 29.401 31.839 38.468 51.149 11.342 24.153 19.443 51.217 18.499 77.883-0.38457 10.863-3.9774 21.91-9.7602 31.114-5.756 9.161-23.687 22.191-23.687 22.191l-15.097 5.7951s20.329-26.935 22.015-42.927c3.2887-31.195-7.5311-64.49-24.538-90.848-18.264-28.306-47.077-50.936-78.035-64.218-22.766-9.767-49.84-15.466-73.765-9.0424-13.68 3.6728-33.915 25.6-33.915 25.6z" fill="#a06e1f" stroke-width="6" style="paint-order:markers fill stroke"/><path d="m522.74 633.7h21.37l-6.5754 23.836z" fill="#e0c86c" stroke-width="3"/><path d="m920.55 348.49h-21.37l6.5754-23.836z" fill="#e0c86c" stroke-width="3"/></g><g fill="#5e4722" stroke-width="3"><path d="m667.36 654.23-2.4745 7.2895-13.558 5.9161 6.8356-5.106 3.765-19.247v-33.12l-5.474-34.758-27.094-44.338-28.465-30.793-34.212-18.885-32.248-7.6332-31.411 2.788-10.916 7.7931 6.5857-14.642 38.601-3.2428 33.939 8.7585 35.034 19.707 29.475 31.131 28.55 44.411 5.474 37.224v30.655z"/><path d="m709.59 622.05-1.6369 6.1272-13.54 2.9322 6.8356-5.106 2.909-15.1v-33.12l-5.474-34.758-27.094-44.338-28.465-30.793-34.212-18.885-32.248-7.6332-33.019 2.9862-9.3084 7.5949 6.5857-14.642 38.601-3.2428 33.939 8.7585 35.034 19.707 29.475 31.131 28.55 44.411 5.474 37.224v30.655z"/><path d="m751.02 590.71-3.6369 4.7083-13.54 2.9322 9.3307-7.9311 3.6878-20.32-1.2739-23.656-5.474-34.758-27.094-44.338-28.465-30.793-34.212-18.885-32.248-8.2144-33.167 2.7305-12.129 9.3886 6.7964-15.111 41.359-3.7312 33.939 8.7585 35.034 19.707 29.475 31.131 28.55 44.411 5.474 37.224v30.655z"/><path d="m791.49 557.77-3.6369 4.7083-13.54 2.9322 9.3307-7.9311 4.2689-19.739-1.2739-23.656-5.474-34.758-27.094-44.338-28.465-30.793-34.212-18.885-32.248-8.2144-33.167 2.7305-9.8046 8.2262 6.7964-15.111 39.034-2.5689 33.939 8.7585 35.034 19.707 29.475 31.131 28.55 44.411 5.474 37.224v30.655z"/><path d="m831.17 518.64-2.1734 9.0465-9.7929 2.9464 2.7044-7.7098 4.8237-17.65-1.2739-23.656-5.474-34.758-27.094-44.338-28.465-30.793-34.212-18.885-32.248-8.2144-31.423 3.5681-9.8046 8.2262 6.7964-15.111 37.29-3.4065 33.939 8.7585 35.034 19.707 29.475 31.131 28.55 44.411 5.474 37.224v30.655z"/><path d="m872.65 485.04-2.1734 9.0465-11.273 3.3918 4.1849-8.1552 3.1564-15.017-1.2739-23.656-5.474-34.758-27.094-44.338-28.465-30.793-34.212-18.885-32.248-8.2144-30.918 4.9348-9.8046 8.2262 6.7964-15.111 36.785-4.7731 33.939 8.7585 35.034 19.707 29.475 31.131 28.55 44.411 5.474 37.224v30.655z"/><path d="m585.5 721-1.3122 8.7766-14.721 4.429 6.8356-5.106 3.765-19.247v-33.12l-5.474-34.758-27.094-44.338-28.465-30.793-34.212-18.885-32.248-7.6332-33.666 0.74032-13.305 9.6352 6.7964-15.111 43.034-2.5689 33.939 8.7585 35.034 19.707 29.475 31.131 28.55 44.411 5.474 37.224v30.655z"/></g></g><g fill="#aa7f43" stroke="#000" stroke-width="3"><path d="m870.48 494.08 3.137-14.477v-30.655l-5.474-37.224-29.56-45.982-28.465-29.56-35.034-19.707-33.939-8.7585-37.29 3.9877 22.785-18.752 41.94-4.5689 33.939 8.7585 35.034 19.707 28.465 29.56 29.56 45.982 5.474 37.224v30.655l-4.2994 13.895z"/><path d="m829 527.69 4.2994-17.895v-30.655l-5.474-37.224-29.56-45.982-28.465-29.56-35.034-19.707-33.939-8.7585-37.29 3.4065 25.691-18.171 39.034-4.5689 33.939 8.7585 35.034 19.707 28.465 29.56 29.56 45.982 5.474 37.224v30.655l-3.137 14.408z"/><path d="m787.85 562.48 6.6241-20.22v-30.655l-5.474-37.224-29.56-45.982-28.465-29.56-35.034-19.707-33.939-8.7585-39.034 2.5689 27.435-19.333 39.034-2.5689 33.939 8.7585 35.034 19.707 28.465 29.56 29.56 45.982 5.474 37.224v30.655l-5.4617 15.571z"/><path d="m747.39 595.42 6.0429-20.801v-30.655l-5.4741-37.224-29.56-45.982-28.465-29.56-35.034-19.707-33.939-8.7585-41.359 3.7312 28.597-21.077 40.196-1.9877 33.939 8.7585 35.034 19.707 28.465 29.56 29.56 45.982 5.474 37.224v30.655l-5.4617 17.314z"/><path d="m707.95 628.17 4.0429-22.22v-30.655l-5.474-37.224-29.56-45.982-28.465-29.56-35.034-19.707-33.939-8.7585-39.034 2.5689 27.435-19.333 39.034-2.5689 33.939 8.7585 35.034 19.707 28.465 29.56 29.56 45.982 5.474 37.224v30.655l-4.0429 19.314z"/><path d="m666.16 661.61 4.0429-22.801v-30.655l-5.474-37.224-29.56-45.982-28.465-29.56-35.034-19.707-33.939-8.7585-39.034 2.5689 25.691-19.333 40.778-2.5689 33.939 8.7585 35.034 19.707 28.465 29.56 29.56 45.982 5.474 37.224v30.655l-2.8806 19.895z"/><path d="m626.6 695.17 2.8806-23.383v-30.655l-5.474-37.224-29.56-45.982-28.465-29.56-35.034-19.707-33.939-8.7585-41.034 2.5689 25.691-19.333 42.778-2.5689 33.939 8.7585 35.034 19.707 28.465 29.56 29.56 45.982 5.474 37.224v30.655l-5.2053 21.639z"/><path d="m584.19 729.77 3.7182-24.87v-30.655l-5.474-37.224-29.56-45.982-28.465-29.56-35.034-19.707-33.939-8.7585-43.034 2.5689 26.273-19.333 44.196-2.5689 33.939 8.7585 35.034 19.707 28.465 29.56 29.56 45.982 5.474 37.224v30.655l-3.7182 21.964z"/></g><g stroke="#000" stroke-linecap="round"><path d="m514.56 769.22c-12.573 6.7634-29.214 7.8053-42.713 3.158-22.572-7.771-36.412-30.995-53.036-48.128-13.112-13.514-24.45-28.643-36.681-42.96-8.0842-9.4637-17.154-18.166-24.259-28.385-7.7633-11.165-20.209-22.05-19.844-35.644 0.49512-18.458 12.74-39.137 29.501-46.885 22.825-10.55 51.699 0.525 74.665 10.767 30.384 13.55 58.494 36.067 76.606 63.973 16.364 25.213 30.299 57.237 24.605 86.751-2.98 15.446-14.989 29.902-28.843 37.354z" fill="#151007" stroke-width="6" style="paint-order:markers fill stroke"/><path d="m438.03 848.47c-11.052 1.3487-21.386 9.5054-32.423 8.0327-9.1583-1.222-17.548-7.0915-24.216-13.487-17.089-16.39-27.849-38.775-37.124-60.561-16.82-39.507-28.855-86.613-32.505-124.65-1.9856-29.95-4.6724-46.924 7.2544-65.459 6.7257-8.3177 24.309-15.122 37.586-16.939 10.808-1.4792 19.224-2.0904 27.959 1.1833 10.601 3.9731 18.963 12.788 26.517 21.22 13.38 14.936 25.065 32.072 32.214 50.807 17.731 46.467 32.982 98.221 24.359 147.2-3.491 19.831-12.941 41.367-29.622 52.647z" fill="#6e5225" stroke-width="5.752" style="paint-order:markers fill stroke"/><path d="m899.37 462.47-51.359-96.052-76.724-97.743s30.553-27.524 49.781-30.359c20.705-3.0528 42.595 5.4323 60.759 15.829 27.705 15.858 52.763 39.498 67.751 67.683 12.962 24.375 24.542 55.13 15.769 81.306-9.3994 28.045-65.978 59.336-65.978 59.336z" display="none" fill="#6e5225" stroke-width="6" style="paint-order:markers fill stroke"/><path d="m716.52 307.26s10.734-31.922 23.311-41.68c12.145-9.4224 29.243-10.752 44.579-11.802 18.431-1.2613 37.737 0.19789 55.009 6.7524 22.118 8.3936 41.667 23.586 58.444 40.264 15.413 15.323 29.422 33.221 37.306 53.474 8.3678 21.495 11.165 45.602 9.1997 68.585-0.92622 10.83-3.9774 21.91-9.7602 31.114-5.756 9.161-13.943 17.488-23.687 22.191-9.5192 4.595-31.37 4.6327-31.37 4.6327s15.762-8.389 21.502-14.971c6.3298-7.2571 11.939-16.176 13.132-25.732 3.8932-31.176-4.3867-65.172-20.884-91.91-17.689-28.669-46.131-53.404-78.035-64.218-23.301-7.8979-50.77-6.1699-73.765 2.5813-10.111 3.848-15.045 16.722-24.983 20.717z" display="none" fill="#a06e1f" stroke-width="6" style="paint-order:markers fill stroke"/></g><path d="m324.49 589.57c3.4253-1.1921 10.796-4.497 13.574-4.398 13.495 0.48097 28.029 16.778 38.708 28.804 9.9848 11.245 17.273 25.01 22.462 39.124 15.57 42.349 27.29 88.045 24.696 133.09-1.315 22.833 4.9032 69.389-20.18 65.577l-14.799-2.2494" fill="none" stroke="#423216" stroke-linecap="round" stroke-width="2.876"/></g><g transform="translate(183.85 -1219.1)"><g transform="matrix(8.6342 0 0 8.6342 -6118.9 -4205.4)"><g fill="#faefff"><path transform="matrix(.10062 0 0 .10062 699.07 504.21)" d="m1178.8 401.23c-15.714 18.422-35.576 40.902-52.796 57.629-0.038 0.0345-0.07 0.0911-0.1083 0.12555-2.917 2.8298-5.9061 5.7734-8.5599 8.133-30.869 27.446-81.365 63.355-124.15 92.393-21.392 14.519-40.856 27.318-54.97 36.491-14.114 9.1739-22.885 14.713-22.885 14.713s3.0797-16.629 2.6206-30.668c-0.15342-4.6796-0.69828-9.0678-1.8829-12.461-4.9734-14.239-14.807-29.207-28.766-34.919-21.398-8.7571-47-23.108-69.198 2.1546-1.4791 1.6831-2.9394 3.5404-4.3867 5.5903-38.708 77.519 9.0313 97.83 37.481 134.79 22.354 29.037 61.752 39.863 94.858 55.572 60.748 28.825 189.06 70.343 189.06 70.343 0.3972-0.44214 1.0298-0.99029 1.0298-0.99029 11.866-12.635 32.398-34.617 33.017-56.387-1.0202-5.866-2.3329-10.991-3.9976-15.296-2.4805-4.4926-5.9349-8.4701-9.8992-11.258-12.153-8.5467-44.12-6.3277-44.12-6.3277l66.189-92.801 135.91-194.2s-84.528-4.169-124.07-17.644c-3.3977-1.1575-6.8657-2.9313-10.365-4.9886zm-42.664 398.9c2e-4 -6e-5 7.9419 0.97729 16.285-2.038-5.4552 1.9082-16.285 2.038-16.285 2.038z" filter="url(#filter3592)" style="mix-blend-mode:normal;paint-order:markers fill stroke"/><path transform="matrix(.10062 0 0 .10062 699.07 504.21)" d="m1368 396.15c-21.124 0.0491-42.442 4.6113-54.718 27.718l-135.91 194.2-66.189 92.801s31.967-2.219 44.12 6.3277c8.1039 5.6991 14.118 16.357 13.917 26.262-0.4426 21.865-21.118 43.986-33.036 56.678 0 0 11.581-0.0948 16.848-2.1739 17.704-6.989 32.753-20.031 46.371-33.328 18.33-17.896 31.449-40.454 46.313-61.317 38.39-53.886 110.64-164.79 110.64-164.79s45.124-55.443 57.571-88.298c4.4319-11.698 11.156-25.988 5.4738-37.132-5.2409-10.275-19.162-15.207-30.668-16.014-6.6546-0.46667-13.689-0.9482-20.73-0.9318z" filter="url(#filter3593)" style="mix-blend-mode:normal;paint-order:markers fill stroke"/><path transform="matrix(.10062 0 0 .10062 699.07 504.21)" d="m1123.2 297.39c-17.935-0.76208-34.156 15.625-49.943 25.156-59.609 35.99-165.9 126.94-165.9 126.94-21.483 8.8601-88.034 62.183-93.558 90.937 23.158-32.796 50.759-17.086 73.584-7.7449 13.959 5.7128 23.792 20.68 28.766 34.919 4.7405 13.573-0.73772 43.13-0.73772 43.13s140.26-88.705 202-143.6c31.745-28.225 85.483-94.509 85.483-94.509 2.5583-59.781-41.036-68.757-76.088-74.846-1.2109-0.20976-2.4157-0.33768-3.61-0.3874z" filter="url(#filter3594)" style="mix-blend-mode:normal;paint-order:markers fill stroke"/></g><g transform="matrix(.10062 0 0 .10062 699.07 504.21)"><path d="m1178.8 401.23c-15.714 18.422-35.576 40.902-52.796 57.629-0.038 0.0345-0.07 0.0911-0.1083 0.12555-2.917 2.8298-5.9061 5.7734-8.5599 8.133-30.869 27.446-81.365 63.355-124.15 92.393-21.392 14.519-40.856 27.318-54.97 36.491-14.114 9.1739-22.885 14.713-22.885 14.713s3.0797-16.629 2.6206-30.668c-0.15342-4.6796-0.69828-9.0678-1.8829-12.461-4.9734-14.239-14.807-29.207-28.766-34.919-21.398-8.7571-47-23.108-69.198 2.1546-1.4791 1.6831-2.9394 3.5404-4.3867 5.5903-38.708 77.519 9.0313 97.83 37.481 134.79 22.354 29.037 61.752 39.863 94.858 55.572 60.748 28.825 189.06 70.343 189.06 70.343 0.3972-0.44214 1.0298-0.99029 1.0298-0.99029 11.866-12.635 32.398-34.617 33.017-56.387-1.0202-5.866-2.3329-10.991-3.9976-15.296-2.4805-4.4926-5.9349-8.4701-9.8992-11.258-12.153-8.5467-44.12-6.3277-44.12-6.3277l66.189-92.801 135.91-194.2s-84.528-4.169-124.07-17.644c-3.3977-1.1575-6.8657-2.9313-10.365-4.9886zm-42.664 398.9c2e-4 -6e-5 7.9419 0.97729 16.285-2.038-5.4552 1.9082-16.285 2.038-16.285 2.038z" fill="#fff" stroke="#ac8fbf" stroke-linecap="round" stroke-linejoin="round" stroke-width="4.6041" style="paint-order:markers fill stroke"/><path transform="matrix(9.9381 0 0 9.9381 -6947.4 -5010.9)" d="m803.5 576.31c1.0619-1.4771 1.6433-3.4243 2.9291-4.7378 0.72953-0.74528 0.48672 1.7455 1.4645 1.7455 0.0814 0 0.19201 0.0639 0.2441 0 1.6088-1.9723 2.9087-4.5144 4.1495-6.7326 0.27079-0.48411 0.41927-1.0394 0.73227-1.4962 0.26394-0.3852 0.67682-0.64044 0.97636-0.99743 0.57646-0.68704 0.31163-0.73749 0.97636-1.2468 0.6363-0.48754 1.281-0.30266 1.9527-0.49872 0.68725-0.20059 2.0028-0.89936 2.4409-1.4962 1.0022-1.365 1.4834-3.5102 2.685-4.7378 0.15212-0.15539 1.8822-0.16899 2.1968-0.24936 1.1782-0.30092 2.685-2.091 2.685-3.2416" fill="none" stroke="#a5a5a5" stroke-linejoin="bevel"/><path transform="matrix(9.9381 0 0 9.9381 -6947.4 -5010.9)" d="m795.39 571.57c0.0253 3.0155-0.32002 3.3048 1.2204-1e-5 1.483-3.1815 4.6799-10.807 7.3227-12.967 1.2656-1.0344 0.78777 0.91824 0.97636 1.4962 0.16707 0.51193 0.76061 1.6064 1.4645 1.2468 0.46597-0.23809 0.63731-0.8427 0.97635-1.2468 0.95549-1.1388 1.946-2.4059 3.1732-3.2416 0.37639-0.2564 1.287 0.17226 1.7086-2e-5 0.54477-0.22254 0.92524-0.76132 1.4645-0.99742 0.30837-0.13496 0.66799-0.11442 0.97624-0.24983 1.8774-0.822 2.7014-2.7015 3.9054-4.2391 0.2914-0.37207 0.97638-0.73308 0.97638-1.2468" fill="none" stroke="#a5a5a5" stroke-linejoin="bevel"/><path d="m1368 396.15c-21.124 0.0491-42.442 4.6113-54.718 27.718l-135.91 194.2-66.189 92.801s31.967-2.219 44.12 6.3277c8.1039 5.6991 14.118 16.357 13.917 26.262-0.4426 21.865-21.118 43.986-33.036 56.678 0 0 11.581-0.0948 16.848-2.1739 17.704-6.989 32.753-20.031 46.371-33.328 18.33-17.896 31.449-40.454 46.313-61.317 38.39-53.886 110.64-164.79 110.64-164.79s45.124-55.443 57.571-88.298c4.4319-11.698 11.156-25.988 5.4738-37.132-5.2409-10.275-19.162-15.207-30.668-16.014-6.6546-0.46667-13.689-0.9482-20.73-0.9318z" fill="#fff" stroke="#ac8fbf" stroke-linecap="round" stroke-linejoin="round" stroke-width="4.6041" style="paint-order:markers fill stroke"/><path transform="matrix(9.9381 0 0 9.9381 -6947.4 -5010.9)" d="m787.45 566.72c0-0.53426-0.0708-1.255 0.21897-1.7518 0.73723-1.2638 3.3422-4.7368 4.8175-5.4744 0.33185-0.16593 0.99573 0.39801 1.5328 0.21897 0.60719-0.20239 0.79731-0.83662 1.3139-1.0949 0.0653-0.0326 0.16736 0.0516 0.21898 0 0.0516-0.0516-0.0516-0.16736 0-0.21897 0.1389-0.13891 0.69359 0.0911 0.87591 0 0.60072-0.30035 1.3417-3.3032 2.6277-4.1606 0.47327-0.31551 1.2087 0.27588 1.5328 0.43796 0.23963 0.11981 1.0322 0.0704 1.3139 0 1.6945-0.42362 1.964-3.0623 2.8467-3.5036 0.70337-0.35168 1.1494 0.32897 1.7518-0.87591" fill="none" stroke="#a5a5a5" stroke-linejoin="bevel"/><path d="m1123.2 297.39c-17.935-0.76208-34.156 15.625-49.943 25.156-59.609 35.99-165.9 126.94-165.9 126.94-21.483 8.8601-88.034 62.183-93.558 90.937 23.158-32.796 50.759-17.086 73.584-7.7449 13.959 5.7128 23.792 20.68 28.766 34.919 4.7405 13.573-0.73772 43.13-0.73772 43.13s140.26-88.705 202-143.6c31.745-28.225 85.483-94.509 85.483-94.509 2.5583-59.781-41.036-68.757-76.088-74.846-1.2109-0.20976-2.4157-0.33768-3.61-0.3874z" fill="#fff" stroke="#ac8fbf" stroke-linecap="round" stroke-linejoin="round" stroke-width="4.6041" style="paint-order:markers fill stroke"/></g><g fill="#aa6fe9" stroke-linejoin="round"><path d="m798.2 563.8c0.0399 0.028 0.0787 0.0584 0.1197 0.0841 0.10315 0.0645 0.41744 0.24706 0.3159 0.17924-2.3631-1.5782-1.4725-1.0241-0.99122-0.59803 0.77588 0.82953 0.54311 1.0375 2.1482 1.4171 0.11556 0.0273 0.11606-0.23644 0.17408-0.35466 0.50845-1.062 1.1572-2.1108 2.0646-2.7702 0.14626-0.10629 0.31172-0.17273 0.46758-0.25909 0.54346-0.24798 1.0151-0.0528 1.5301 0.14257 0.48254 0.13406 0.98215 0.11657 1.4728 0.20335 0.59007 0.14819 1.0729 0.65392 1.663 0.7939 0.0938 0.0223 0.19063 0.0221 0.28595 0.0331 0.45101-0.0101 0.87039-0.2319 1.3209-0.2553 0.22398-0.0116 0.49741 0.0352 0.71956 0.0651 0.23132 0.0246 0.47446 0.20912 0.71414 0.17106 0.17685-0.0281 0.36564-0.22814 0.50786-0.33491 0.53694-0.32039 1.1414-0.36806 1.735-0.37088 0.0554-0.0205 0.11746-0.025 0.16633-0.0614 0.0577-0.043 0.0968-0.1121 0.14376-0.1698 0.17902-0.22023 0.20222-0.28976 0.44641-0.47419 0.4454-0.33638 0.57295-0.3347 1.1203-0.54985 0.68772-0.21935 1.3919-0.35527 2.092-0.50936 0.21672-0.0477 0.65557-0.16659 0.89819-0.13415 0.13724 0.0183 0.26538 0.0886 0.39805 0.13294 0.13483 0.0864 0.53955 0.34526 0.40449 0.2593-0.32288-0.20549-0.63561-0.43347-0.96796-0.6179-0.11886-0.066 0.21784 0.17151 0.32454 0.26085 0.059 0.0494 0.33229 0.30267 0.42774 0.35982 0.52916 0.31683 1.066 0.61631 1.5991 0.92446 0.0497-0.0665 0.10522-0.12767 0.1488-0.19955 0.36305-0.59871-0.13071 0.10744 0.27798-0.53131 0.16989-0.26553 0.37632-0.45537 0.6085-0.64182l-0.67088-1.5838c0.0464 0.0328 0.064 0.0343 0.0243 0.0983-0.20077 0.22077-0.55485 0.22426-0.75038 0.467-0.23628 0.21182-0.44646 0.42901-0.63238 0.70185-0.10458 0.15348-0.18311 0.33018-0.29562 0.47603-0.0212 0.0274-0.0522 0.0422-0.0782 0.0634 0.44082 0.30543 0.88379 0.60677 1.3225 0.91628 0.0689 0.0486-0.14565-0.0819-0.21291-0.13343-0.37243-0.28548-0.19035-0.22179-0.61025-0.51565-1.6291-1.1401-1.2014-0.89204-2.193-1.421-0.14622-0.0306-0.29012-0.0868-0.43869-0.0917-0.19509-6e-3 -0.69152 0.15098-0.85293 0.19576-0.68633 0.19041-1.3774 0.3553-2.0625 0.5519-0.63298 0.2085-0.72669 0.18503-1.2482 0.52596-0.1146 0.0749-0.2206 0.16655-0.32533 0.25865-0.10067 0.0885-0.17548 0.22074-0.29035 0.28224-0.0408 0.0218-0.0876 0.0233-0.13142 0.035-0.60629 0.059-1.2197 0.1504-1.7753 0.45455-0.0446 0.0281-0.26918 0.17593-0.34256 0.20262-0.25429 0.0925-0.53513-0.1181-0.78811-0.11186-0.28595-0.0237-0.44016-0.048-0.73137-0.0226-0.44436 0.0387-0.87377 0.22473-1.3229 0.18989-0.67948-0.14727-1.2471-0.6367-1.9234-0.80636-0.50372-0.0835-1.0204-0.1016-1.5091-0.27427-0.51973-0.18742-1.0027-0.23498-1.5146 0.0553-0.15049 0.10316-0.30916 0.19195-0.45147 0.30948-0.88366 0.72981-1.5378 1.7603-2.1741 2.7568-0.54718 0.74412-0.25389 0.17012 1.1963 1.2316 0.0396 0.029-0.0972-0.0169-0.13399-0.0504-0.16486-0.15025-0.23405-0.44219-0.42519-0.56796-0.66047-0.7206-1.5437-1.0999-2.3292-1.6167z" stroke-width=".93218"/><path d="m790.98 569.96c0.63579 0.3495 1.2675 0.721 1.9497 0.98202 0.0934 0.0152 0.18637 0.0573 0.28039 0.0457 0.39372-0.0487 0.75023-0.45001 1.0186-0.68334 0.51729-0.44978 0.30457-0.26879 0.8389-0.70755 0.47418-0.32582 1.1159-1.0338 1.7539-1.0292 0.0972 7e-4 0.19057 0.0365 0.28586 0.0548-2.5472-1.3675-1.3438-0.84236-0.8625-0.19047 0.27839 0.37708 0.48497 0.80427 0.7044 1.2138 0.52814 1.0673 0.58029 1.0737 2.29 1.6043 0.0226 7e-3 0.155-0.29815 0.25281-0.51621 0.21877-0.33895 0.70147-1.0788 1.204-0.99729 0.0758 0.0123 0.13808 0.0651 0.20713 0.0976 0.96254 0.5928-1.8272-0.93347-1.356-0.72741 0.6584 0.28794 1.2524 0.69768 1.9001 1.0071 0.0531 0.0254 0.12382 0.01 0.17738-0.0146 0.0749-0.0343 0.38369-0.31543 0.43377-0.35964 0.23077-0.18531 0.4612-0.49448 0.77339-0.56681 0.0812-0.0188 0.1663 0.0143 0.24944 0.0214-0.49447-0.25224-0.96595-0.55135-1.4834-0.75674-0.1151-0.0457 0.16635 0.178 0.24951 0.267 0.4356 0.82063 0.57154 1.7468 0.91675 2.6014 0.50287 0.64293 0.37329 0.5223 2.0696 0.9251 0.12063 0.0286 0.16369-0.17952 0.24337-0.27103 0.30793-0.35366 0.62121-0.70073 0.93725-1.0479 0.0991-0.10002 0.1945-0.20339 0.29706-0.30007 0.12025-0.11334 0.32905-0.32286 0.52109-0.35498 0.0643-0.0108 0.24706 0.0752 0.19034 0.0442-1.7994-0.98496-2.0015-1.2034-1.4574-0.68265 0.092 0.13556 0.15873 0.28695 0.18807 0.44678 3e-3 0.0176-0.016 0.0459 7.4e-4 0.0537 1.9156 0.88999 1.6322 1.4286 1.9442 0.64009 0.36347-0.64922 0.91484-1.2633 1.6541-1.5127 0.0828-1e-3 0.16578-9e-3 0.24843-4e-3 0.27428 0.0166 0.66076 0.26262 0.87551 0.23831 0.0978-0.0111 0.18402-0.0674 0.27603-0.10105 0.69484-0.56142 1.106-1.3745 1.7736-1.9628 0.11195-0.0986 0.24285-0.17538 0.36428-0.26307 0.1022-0.0285 0.20016-0.0879 0.30655-0.0855 0.0803 2e-3 0.28986 0.13278 0.21871 0.097-0.51158-0.25704-0.99948-0.56658-1.5402-0.76101-0.0971-0.0349 0.11161 0.1691 0.1506 0.26135 0.0982 0.23247 0.11992 0.44132 0.16255 0.68622 0.062 0.35198 0.0389 0.70841 0.0452 1.0625 7.2e-4 0.04-0.0239 0.0994 0.0123 0.11944 0.61395 0.34035 1.2604 0.6236 1.8906 0.9354l1.6316-2.1682c-0.39303 0.0412-0.78534 0.0854-1.1652 0.19741-0.43218 0.12959-0.86234 0.25623-1.2728 0.44266-0.22914 0.10407-0.44275 0.23812-0.67301 0.33989-0.0657 0.029-0.13612 0.0472-0.20418 0.0708 0.55545 0.32889 1.1114 0.6569 1.6663 0.98665 0.0271 0.0161-0.0715-0.0171-0.0829-0.0457-0.0242-0.0605-9e-3 -0.1292-0.0128-0.19385-0.0174-0.306-0.0349-0.61193-0.0722-0.91654-0.0216-0.15165-0.11363-0.94903-0.23347-1.0358-0.59718-0.43217-1.2456-0.79839-1.9021-1.1421-0.0773-0.0405-0.17971-0.0162-0.26408 8e-3 -0.10947 0.0315-0.20168 0.10321-0.30251 0.15482-0.41907 0.36023-0.33666 0.26564-0.72829 0.71191-0.36462 0.4155-0.69582 0.87657-1.1312 1.2304-0.0863 0.0701-0.18905 0.119-0.28356 0.1785-0.0765 6e-3 -0.15315 0.0241-0.22949 0.0169-0.045-4e-3 -0.38933-0.11959-0.4218-0.12772-0.25705-0.0643-0.50109-0.0664-0.75583 0.0135-0.73111 0.3675-1.2755 0.97895-1.7576 1.6106-0.45814 0.73009-0.16367 0.13687 1.6986 1.1329 0.0154 8e-3 -0.0357-0.0133-0.044-0.0283-0.087-0.16009-0.0763-0.36414-0.17673-0.52033-0.46208-0.77311-0.17866-0.37178-2.0307-1.2193-0.25557-0.11696-0.89934 0.64945-1.0274 0.78918-0.30883 0.34596-0.62148 0.69999-0.9663 1.0141-0.0782 0.0713-0.32997 0.12854-0.24963 0.1976 0.97421 0.83729 2.2968 1.1394 1.4221 0.92651-0.47778-0.81615-0.57467-1.7723-0.92043-2.6389-0.0642-0.11081-0.0821-0.26301-0.19255-0.33243-0.35532-0.2232-1.4808-1.3092-2.2861-0.9843-0.30911 0.1247-0.54067 0.3937-0.79769 0.58798-0.0939 0.0667-0.24477 0.20544-0.38474 0.21726-0.0465 4e-3 -0.17563-0.0546-0.13601-0.031 3.3594 1.9974 0.6868 0.2282-0.54071-0.24996-0.0849-6e-3 -0.17055-0.0292-0.25469-0.0169-0.55502 0.0809-0.99474 0.74923-1.2935 1.1472-0.48456 0.89376-0.52537 0.21621 1.4591 1.3311 0.0509 0.0286-0.10719-0.0542-0.14494-0.0978-0.084-0.0969-0.32122-0.5397-0.36482-0.61804-0.28652-0.5269-0.53407-1.1203-0.92222-1.5886-0.52027-0.62772-1.8994-1.13-2.2768-1.3317-0.10795-3e-5 -0.21728-0.0167-0.32381-9e-5 -0.69931 0.10902-1.1974 0.77062-1.7357 1.1421-0.41543 0.33826-1.0748 0.98044-1.5769 1.1608-0.22171 0.0796-0.28718 0.0297-0.49982-0.0245-0.69951-0.28956-1.3322-0.70225-2.0254-1.0022z" stroke-width="1.0206"/><path d="m814.88 552.42c-0.026-0.57143 0.47235-1.0195 0.82154-1.3438 0.26324-0.17738 0.79261-0.6291 1.1236-0.49371 0.0804 0.0329 0.27812 0.22143 0.19816 0.18684-0.40522-0.17524-0.78947-0.40885-1.1842-0.61328 0.41767 1.2642 0.39603 2.6368 0.33238 3.9664-0.12152 1.0539-0.19766 0.85226 1.3948 1.5942 0.0917 0.0427 0.11408-0.18594 0.17621-0.2744 0.27893-0.39706 0.31162-0.40609 0.66045-0.79216 0.90892-0.91313 1.866-1.7978 2.9322-2.4584 0.0971-0.0323 0.19089-0.0847 0.29147-0.0967 0.0688-8e-3 0.13681 0.0252 0.20522 0.0377-0.42821-0.26341-0.84628-0.54984-1.2846-0.79023-0.0586-0.0322 0.0991 0.0988 0.13582 0.16025 0.0788 0.13149 0.14648 0.37455 0.19249 0.51845 0.31392 1.2298 0.41318 1.3562 1.9184 1.8697 0.10851 0.0371 0.1529-0.19201 0.22936-0.288 0.75657-1.1424 1.4329-2.3681 2.334-3.374 0.14607-0.16304 0.30812-0.30607 0.46216-0.45912 0.12422-0.0703 0.2376-0.17571 0.37261-0.21097 0.087-0.0226 0.17631 0.0297 0.26445 0.0446-0.40656-0.23861-0.78679-0.54921-1.2197-0.71582-0.0936-0.036 0.10698 0.19307 0.13962 0.30011 0.0762 0.24962 0.0884 0.61026 0.10819 0.86353 0.0553 0.84122-0.0622 1.6867 0.0197 2.5255l0.25243 0.0478c1.3633-1.5492 1.0988-1.4018 1.135-1.7617 0.0161-0.16045-0.0242-1.1753-0.14414-1.2783-0.0882-0.0758-1.2378-1.3691-1.8778-1.0084-0.12481 0.0704-0.22527 0.18721-0.3379 0.28081-0.46414 0.54571-0.46907 0.53355-0.9323 1.164-0.52279 0.7115-1.0014 1.4713-1.5505 2.1572-0.12526 0.15643-0.26436 0.29745-0.39655 0.44618-0.63185 0.47409-0.28588 0.11137 1.0829 1.0854 0.0493 0.0351-0.10699-0.0611-0.14341-0.11283-0.15095-0.21407-0.16055-0.53876-0.24565-0.78427-0.0366-0.12924-0.16444-0.71384-0.26015-0.7837-1.1056-0.80689-1.2257-1.2944-2.071-0.81932-1.0155 0.764-1.954 1.6604-2.9126 2.5135-0.25436 0.24401-0.49746 0.50383-0.75911 0.73743-0.0357 0.0319-0.1547 0.0437-0.11872 0.0752 1.7007 1.4856 1.3202 1.444 1.3277 0.40116 5e-3 -1.3491 4e-3 -2.7141-0.25494-4.0369-0.51309-0.43414-1.0123-0.89083-1.5393-1.3024-0.0734-0.0575-0.1642-0.0898-0.25284-0.0973-0.41909-0.0353-0.82229 0.37783-1.1546 0.60108-0.42143 0.38448-0.88528 0.84605-0.98666 1.4841z" stroke-width=".91458"/><path d="m781.17 562.02c0.57196 0.71977 1.0848 1.4842 1.6207 2.2305 0.59366 0.74588 1.255 0.98151 2.3226 1.3056 0.10317 0.0313 0.9036-0.82249 0.98555-0.90816 0.33849-0.35598 0.66634-0.72108 1.0243-1.0579 0.0794-0.0747 0.38431-0.35778 0.50003-0.42244 0.0607-0.0339 0.13283-0.0409 0.19924-0.0614 0.71066 0.12799 0.3862 0.086-1.3821-0.79003-0.0561-0.0278 0.0975 0.0794 0.13987 0.1255 0.0731 0.0796 0.0999 0.20403 0.19127 0.26172 0.58046 0.36653 1.1806 0.70092 1.7709 1.0514 0.22994 2e-3 0.42896-0.29479 0.66509-0.24271 0.0739 0.0163 0.25776 0.158 0.19025 0.12383-0.47725-0.24157-0.94699-0.49769-1.4205-0.74654 0.066 0.0838 0.13895 0.16267 0.19801 0.25154 0.0684 0.10297 0.27951 0.62836 0.32073 0.65613 1.723 1.1606 1.3375 1.5958 1.8324 0.8789l-1.4755-1.4295c-0.14821 0.11671-0.22817 0.23391-0.23184 0.42645 0.41163-0.58713-0.0207-0.0199 1.653 0.91928 0.0506 0.0284-0.0698-0.0931-0.0977-0.14394-0.0979-0.17823-0.16474-0.3723-0.2621-0.5508-0.0533-0.0977-0.11695-0.18932-0.17543-0.28398-0.61904-0.38672-1.2214-0.80147-1.8571-1.1602-0.0787-0.0444-0.17804-0.0432-0.26834-0.0391-0.2061 9e-3 -0.39513 0.22107-0.59984 0.11177 0.51884 0.31264 1.0316 0.63569 1.5565 0.93791 0.043 0.0248-0.077-0.0641-0.10719-0.10356-0.0345-0.0452-0.16816-0.30666-0.21577-0.3357-0.60174-0.36696-1.2137-0.72006-1.8477-1.0279-0.0564-0.0274-0.12223 0.0278-0.18334 0.0416-0.68575 0.39065-1.0981 1.1357-1.6819 1.6504-0.21627 0.20506-0.46162 0.45918-0.71612 0.62459-0.0831 0.054-0.34185 0.0603-0.26865 0.12707 0.41967 0.3827 0.9563 0.61321 1.4278 0.92993 0.0731 0.0491-0.16337-0.0711-0.23177-0.12648-0.0896-0.0726-0.15759-0.16837-0.23638-0.25255-0.54821-0.70394-1.0662-1.4354-1.5359-2.1942z"/></g><g fill="#964ae4" stroke-linejoin="round"><path d="m798.2 563.8c0.0399 0.028 0.0787 0.0584 0.1197 0.0841 0.10315 0.0645 0.41744 0.24706 0.3159 0.17924-2.3631-1.5782-1.4725-1.0241-0.99122-0.59803 0.77588 0.82953 0.54311 1.0375 2.1482 1.4171 0.11556 0.0273 0.11606-0.23644 0.17408-0.35466 0.50845-1.062 1.1572-2.1108 2.0646-2.7702 0.14626-0.10629 0.31172-0.17273 0.46758-0.25909 0.54346-0.24798 1.0151-0.0528 1.5301 0.14257 0.48254 0.13406 0.98215 0.11657 1.4728 0.20335 0.59007 0.14819 1.0729 0.65392 1.663 0.7939 0.0938 0.0223 0.19063 0.0221 0.28595 0.0331 0.45101-0.0101 0.87039-0.2319 1.3209-0.2553 0.22398-0.0116 0.49741 0.0352 0.71956 0.0651 0.23132 0.0246 0.47446 0.20912 0.71414 0.17106 0.17685-0.0281 0.36564-0.22814 0.50786-0.33491 0.53694-0.32039 1.1414-0.36806 1.735-0.37088 0.0554-0.0205 0.11746-0.025 0.16633-0.0614 0.0577-0.043 0.0968-0.1121 0.14376-0.1698 0.17902-0.22023 0.20222-0.28976 0.44641-0.47419 0.4454-0.33638 0.57295-0.3347 1.1203-0.54985 0.68772-0.21935 1.3919-0.35527 2.092-0.50936 0.21672-0.0477 0.65557-0.16659 0.89819-0.13415 0.13724 0.0183 0.26538 0.0886 0.39805 0.13294 0.13483 0.0864 0.53955 0.34526 0.40449 0.2593-0.32288-0.20549-0.63561-0.43347-0.96796-0.6179-0.11886-0.066 0.21784 0.17151 0.32454 0.26085 0.059 0.0494 0.33229 0.30267 0.42774 0.35982 0.52916 0.31683 1.066 0.61631 1.5991 0.92446 0.0497-0.0665 0.10522-0.12767 0.1488-0.19955 0.36305-0.59871-0.13071 0.10744 0.27798-0.53131 0.16989-0.26553 0.37632-0.45537 0.6085-0.64182l-0.67088-1.5838c0.0464 0.0328 0.064 0.0343 0.0243 0.0983-0.20077 0.22077-0.55485 0.22426-0.75038 0.467-0.23628 0.21182-0.44646 0.42901-0.63238 0.70185-0.10458 0.15348-0.18311 0.33018-0.29562 0.47603-0.0212 0.0274-0.0522 0.0422-0.0782 0.0634 0.44082 0.30543 0.88379 0.60677 1.3225 0.91628 0.0689 0.0486-0.14565-0.0819-0.21291-0.13343-0.37243-0.28548-0.19035-0.22179-0.61025-0.51565-1.6291-1.1401-1.2014-0.89204-2.193-1.421-0.14622-0.0306-0.29012-0.0868-0.43869-0.0917-0.19509-6e-3 -0.69152 0.15098-0.85293 0.19576-0.68633 0.19041-1.3774 0.3553-2.0625 0.5519-0.63298 0.2085-0.72669 0.18503-1.2482 0.52596-0.1146 0.0749-0.2206 0.16655-0.32533 0.25865-0.10067 0.0885-0.17548 0.22074-0.29035 0.28224-0.0408 0.0218-0.0876 0.0233-0.13142 0.035-0.60629 0.059-1.2197 0.1504-1.7753 0.45455-0.0446 0.0281-0.26918 0.17593-0.34256 0.20262-0.25429 0.0925-0.53513-0.1181-0.78811-0.11186-0.28595-0.0237-0.44016-0.048-0.73137-0.0226-0.44436 0.0387-0.87377 0.22473-1.3229 0.18989-0.67948-0.14727-1.2471-0.6367-1.9234-0.80636-0.50372-0.0835-1.0204-0.1016-1.5091-0.27427-0.51973-0.18742-1.0027-0.23498-1.5146 0.0553-0.15049 0.10316-0.30916 0.19195-0.45147 0.30948-0.88366 0.72981-1.5378 1.7603-2.1741 2.7568-0.54718 0.74412-0.25389 0.17012 1.1963 1.2316 0.0396 0.029-0.0972-0.0169-0.13399-0.0504-0.16486-0.15025-0.23405-0.44219-0.42519-0.56796-0.66047-0.7206-1.5437-1.0999-2.3292-1.6167z" filter="url(#filter1544)" stroke-width=".93218" style="mix-blend-mode:normal"/><path d="m790.98 569.96c0.63579 0.3495 1.2675 0.721 1.9497 0.98202 0.0934 0.0152 0.18637 0.0573 0.28039 0.0457 0.39372-0.0487 0.75023-0.45001 1.0186-0.68334 0.51729-0.44978 0.30457-0.26879 0.8389-0.70755 0.47418-0.32582 1.1159-1.0338 1.7539-1.0292 0.0972 7e-4 0.19057 0.0365 0.28586 0.0548-2.5472-1.3675-1.3438-0.84236-0.8625-0.19047 0.27839 0.37708 0.48497 0.80427 0.7044 1.2138 0.52814 1.0673 0.58029 1.0737 2.29 1.6043 0.0226 7e-3 0.155-0.29815 0.25281-0.51621 0.21877-0.33895 0.70147-1.0788 1.204-0.99729 0.0758 0.0123 0.13808 0.0651 0.20713 0.0976 0.96254 0.5928-1.8272-0.93347-1.356-0.72741 0.6584 0.28794 1.2524 0.69768 1.9001 1.0071 0.0531 0.0254 0.12382 0.01 0.17738-0.0146 0.0749-0.0343 0.38369-0.31543 0.43377-0.35964 0.23077-0.18531 0.4612-0.49448 0.77339-0.56681 0.0812-0.0188 0.1663 0.0143 0.24944 0.0214-0.49447-0.25224-0.96595-0.55135-1.4834-0.75674-0.1151-0.0457 0.16635 0.178 0.24951 0.267 0.4356 0.82063 0.57154 1.7468 0.91675 2.6014 0.50287 0.64293 0.37329 0.5223 2.0696 0.9251 0.12063 0.0286 0.16369-0.17952 0.24337-0.27103 0.30793-0.35366 0.62121-0.70073 0.93725-1.0479 0.0991-0.10002 0.1945-0.20339 0.29706-0.30007 0.12025-0.11334 0.32905-0.32286 0.52109-0.35498 0.0643-0.0108 0.24706 0.0752 0.19034 0.0442-1.7994-0.98496-2.0015-1.2034-1.4574-0.68265 0.092 0.13556 0.15873 0.28695 0.18807 0.44678 3e-3 0.0176-0.016 0.0459 7.4e-4 0.0537 1.9156 0.88999 1.6322 1.4286 1.9442 0.64009 0.36347-0.64922 0.91484-1.2633 1.6541-1.5127 0.0828-1e-3 0.16578-9e-3 0.24843-4e-3 0.27428 0.0166 0.66076 0.26262 0.87551 0.23831 0.0978-0.0111 0.18402-0.0674 0.27603-0.10105 0.69484-0.56142 1.106-1.3745 1.7736-1.9628 0.11195-0.0986 0.24285-0.17538 0.36428-0.26307 0.1022-0.0285 0.20016-0.0879 0.30655-0.0855 0.0803 2e-3 0.28986 0.13278 0.21871 0.097-0.51158-0.25704-0.99948-0.56658-1.5402-0.76101-0.0971-0.0349 0.11161 0.1691 0.1506 0.26135 0.0982 0.23247 0.11992 0.44132 0.16255 0.68622 0.062 0.35198 0.0389 0.70841 0.0452 1.0625 7.2e-4 0.04-0.0239 0.0994 0.0123 0.11944 0.61395 0.34035 1.2604 0.6236 1.8906 0.9354l1.6316-2.1682c-0.39303 0.0412-0.78534 0.0854-1.1652 0.19741-0.43218 0.12959-0.86234 0.25623-1.2728 0.44266-0.22914 0.10407-0.44275 0.23812-0.67301 0.33989-0.0657 0.029-0.13612 0.0472-0.20418 0.0708 0.55545 0.32889 1.1114 0.6569 1.6663 0.98665 0.0271 0.0161-0.0715-0.0171-0.0829-0.0457-0.0242-0.0605-9e-3 -0.1292-0.0128-0.19385-0.0174-0.306-0.0349-0.61193-0.0722-0.91654-0.0216-0.15165-0.11363-0.94903-0.23347-1.0358-0.59718-0.43217-1.2456-0.79839-1.9021-1.1421-0.0773-0.0405-0.17971-0.0162-0.26408 8e-3 -0.10947 0.0315-0.20168 0.10321-0.30251 0.15482-0.41907 0.36023-0.33666 0.26564-0.72829 0.71191-0.36462 0.4155-0.69582 0.87657-1.1312 1.2304-0.0863 0.0701-0.18905 0.119-0.28356 0.1785-0.0765 6e-3 -0.15315 0.0241-0.22949 0.0169-0.045-4e-3 -0.38933-0.11959-0.4218-0.12772-0.25705-0.0643-0.50109-0.0664-0.75583 0.0135-0.73111 0.3675-1.2755 0.97895-1.7576 1.6106-0.45814 0.73009-0.16367 0.13687 1.6986 1.1329 0.0154 8e-3 -0.0357-0.0133-0.044-0.0283-0.087-0.16009-0.0763-0.36414-0.17673-0.52033-0.46208-0.77311-0.17866-0.37178-2.0307-1.2193-0.25557-0.11696-0.89934 0.64945-1.0274 0.78918-0.30883 0.34596-0.62148 0.69999-0.9663 1.0141-0.0782 0.0713-0.32997 0.12854-0.24963 0.1976 0.97421 0.83729 2.2968 1.1394 1.4221 0.92651-0.47778-0.81615-0.57467-1.7723-0.92043-2.6389-0.0642-0.11081-0.0821-0.26301-0.19255-0.33243-0.35532-0.2232-1.4808-1.3092-2.2861-0.9843-0.30911 0.1247-0.54067 0.3937-0.79769 0.58798-0.0939 0.0667-0.24477 0.20544-0.38474 0.21726-0.0465 4e-3 -0.17563-0.0546-0.13601-0.031 3.3594 1.9974 0.6868 0.2282-0.54071-0.24996-0.0849-6e-3 -0.17055-0.0292-0.25469-0.0169-0.55502 0.0809-0.99474 0.74923-1.2935 1.1472-0.48456 0.89376-0.52537 0.21621 1.4591 1.3311 0.0509 0.0286-0.10719-0.0542-0.14494-0.0978-0.084-0.0969-0.32122-0.5397-0.36482-0.61804-0.28652-0.5269-0.53407-1.1203-0.92222-1.5886-0.52027-0.62772-1.8994-1.13-2.2768-1.3317-0.10795-3e-5 -0.21728-0.0167-0.32381-9e-5 -0.69931 0.10902-1.1974 0.77062-1.7357 1.1421-0.41543 0.33826-1.0748 0.98044-1.5769 1.1608-0.22171 0.0796-0.28718 0.0297-0.49982-0.0245-0.69951-0.28956-1.3322-0.70225-2.0254-1.0022z" filter="url(#filter1543)" stroke-width="1.0206" style="mix-blend-mode:normal"/><path transform="matrix(1.0895 0 0 1 -72.578 0)" d="m814.57 552.42c-0.0239-0.57143 0.43355-1.0195 0.75406-1.3438 0.24162-0.17738 0.72751-0.6291 1.0313-0.49371 0.0738 0.0329 0.25527 0.22143 0.18188 0.18684-0.37194-0.17524-0.72463-0.40885-1.0869-0.61328 0.38336 1.2642 0.3635 2.6368 0.30508 3.9664-0.11154 1.0539-0.18143 0.85226 1.2803 1.5942 0.0842 0.0427 0.10471-0.18594 0.16174-0.2744 0.25601-0.39706 0.28602-0.40609 0.60619-0.79216 0.83427-0.91313 1.7128-1.7978 2.6914-2.4584 0.0891-0.0323 0.1752-0.0847 0.26752-0.0967 0.0632-8e-3 0.12558 0.0252 0.18837 0.0377-0.39304-0.26341-0.77677-0.54984-1.1791-0.79023-0.0538-0.0322 0.091 0.0988 0.12467 0.16025 0.0723 0.13149 0.13445 0.37455 0.17668 0.51845 0.28814 1.2298 0.37924 1.3562 1.7608 1.8697 0.0996 0.0371 0.14034-0.19201 0.21052-0.288 0.69442-1.1424 1.3152-2.3681 2.1423-3.374 0.13407-0.16304 0.28281-0.30607 0.4242-0.45912 0.11402-0.0703 0.21809-0.17571 0.34201-0.21097 0.0798-0.0226 0.16182 0.0297 0.24273 0.0446-0.37317-0.23861-0.72217-0.54921-1.1195-0.71582-0.0859-0.036 0.0982 0.19307 0.12815 0.30011 0.0699 0.24962 0.0811 0.61026 0.0993 0.86353 0.0508 0.84122-0.0571 1.6867 0.0181 2.5255l0.23169 0.0478c0.52 1.41 1.0256 0.60499 1.0418-1.7617-4e-3 -0.16108-0.0222-1.1753-0.1323-1.2783-0.0809-0.0758-1.1361-1.3691-1.7235-1.0084-0.11455 0.0704-0.20676 0.18721-0.31014 0.28081-0.42602 0.54571-0.43054 0.53355-0.85572 1.164-0.47985 0.7115-0.91916 1.4713-1.4232 2.1572-0.11497 0.15643-0.24265 0.29745-0.36398 0.44618-0.57995 0.47409-0.2624 0.11137 0.99394 1.0854 0.0452 0.0351-0.0982-0.0611-0.13163-0.11283-0.13855-0.21407-0.14736-0.53876-0.22547-0.78427-0.0336-0.12924-0.15094-0.71384-0.23878-0.7837-1.0148-0.80689-1.125-1.2944-1.9009-0.81932-0.93206 0.764-1.7935 1.6604-2.6733 2.5135-0.23346 0.24401-0.45659 0.50383-0.69675 0.73743-0.0327 0.0319-0.14199 0.0437-0.10897 0.0752 1.561 1.4856 1.2117 1.444 1.2186 0.40116 5e-3 -1.3491 4e-3 -2.7141-0.23399-4.0369-0.47095-0.43414-0.92915-0.89083-1.4129-1.3024-0.0674-0.0575-0.15071-0.0898-0.23207-0.0973-0.38467-0.0353-0.75475 0.37783-1.0598 0.60108-0.38681 0.38448-0.81257 0.84605-0.90562 1.4841z" filter="url(#filter1542)" stroke-width=".87621"/><path d="m781.17 562.02c0.57196 0.71977 1.0848 1.4842 1.6207 2.2305 0.59366 0.74588 1.255 0.98151 2.3226 1.3056 0.10317 0.0313 0.9036-0.82249 0.98555-0.90816 0.33849-0.35598 0.66634-0.72108 1.0243-1.0579 0.0794-0.0747 0.38431-0.35778 0.50003-0.42244 0.0607-0.0339 0.13283-0.0409 0.19924-0.0614 0.71066 0.12799 0.3862 0.086-1.3821-0.79003-0.0561-0.0278 0.0975 0.0794 0.13987 0.1255 0.0731 0.0796 0.0999 0.20403 0.19127 0.26172 0.58046 0.36653 1.1806 0.70092 1.7709 1.0514 0.22994 2e-3 0.42896-0.29479 0.66509-0.24271 0.0739 0.0163 0.25776 0.158 0.19025 0.12383-0.47725-0.24157-0.94699-0.49769-1.4205-0.74654 0.066 0.0838 0.13895 0.16267 0.19801 0.25154 0.0684 0.10297 0.27951 0.62836 0.32073 0.65613 1.723 1.1606 1.3375 1.5958 1.8324 0.8789l-1.4755-1.4295c-0.14821 0.11671-0.22817 0.23391-0.23184 0.42645 0.41163-0.58713-0.0207-0.0199 1.653 0.91928 0.0506 0.0284-0.0698-0.0931-0.0977-0.14394-0.0979-0.17823-0.16474-0.3723-0.2621-0.5508-0.0533-0.0977-0.11695-0.18932-0.17543-0.28398-0.61904-0.38672-1.2214-0.80147-1.8571-1.1602-0.0787-0.0444-0.17804-0.0432-0.26834-0.0391-0.2061 9e-3 -0.39513 0.22107-0.59984 0.11177 0.51884 0.31264 1.0316 0.63569 1.5565 0.93791 0.043 0.0248-0.077-0.0641-0.10719-0.10356-0.0345-0.0452-0.16816-0.30666-0.21577-0.3357-0.60174-0.36696-1.2137-0.72006-1.8477-1.0279-0.0564-0.0274-0.12223 0.0278-0.18334 0.0416-0.68575 0.39065-1.0981 1.1357-1.6819 1.6504-0.21627 0.20506-0.46162 0.45918-0.71612 0.62459-0.0831 0.054-0.34185 0.0603-0.26865 0.12707 0.41967 0.3827 0.9563 0.61321 1.4278 0.92993 0.0731 0.0491-0.16337-0.0711-0.23177-0.12648-0.0896-0.0726-0.15759-0.16837-0.23638-0.25255-0.54821-0.70394-1.0662-1.4354-1.5359-2.1942z" filter="url(#filter1541)" style="mix-blend-mode:normal"/></g></g></g></g></svg>
