<?xml version="1.0" encoding="UTF-8"?>
<svg width="1920" height="1080" version="1.1" viewBox="0 0 1920 1080" xml:space="preserve" xmlns="http://www.w3.org/2000/svg"><g transform="translate(-1930)"><g transform="translate(-.622 -.51902)"><path d="m3335 857.02h124.9s14.287-4.176 19.893-8.7683c8.4072-6.8874 13.648-17.076 18.765-26.664 7.2325-13.552 12.02-28.331 16.546-43.01 5.7359-18.604 9.7881-37.719 13.365-56.856 4.1678-22.298 7.0887-44.833 9.4079-67.398 2.5283-24.599 4.0675-49.309 4.9038-74.023 0.8607-25.434 0.8969-50.91 0.1149-76.347-0.7619-24.782-2.2317-49.561-4.681-74.233-2.2533-22.697-5.1132-45.366-9.2047-67.805-3.5238-19.326-7.5301-38.626-13.193-57.436-4.4887-14.909-9.252-29.906-16.415-43.73-5.0963-9.8351-10.302-20.239-18.683-27.482-5.5685-4.8125-19.866-9.6371-19.866-9.6371h-125.86" fill="#5e3d20" stroke="#000" stroke-linejoin="round" stroke-width="4"/><g transform="translate(1658 -1019)" stroke="#000" stroke-linejoin="bevel"><path d="m1644.7 1874.4s31.261 3.187 46.393 0c7.0616-1.4872 14.228-4.1586 19.811-8.7319 8.3724-6.8589 13.591-17.005 18.687-26.553 7.2025-13.495 11.97-28.213 16.477-42.831 5.7121-18.527 9.7475-37.562 13.31-56.62 4.1506-22.205 7.0595-44.647 9.3691-67.119 2.5178-24.497 4.0506-49.104 4.8834-73.716 0.8571-25.329 0.8931-50.699 0.1143-76.03-0.7588-24.679-2.2223-49.355-4.6615-73.925-2.244-22.603-5.0922-45.178-9.1667-67.524-3.5092-19.245-7.4987-38.466-13.138-57.198-4.4701-14.847-9.2136-29.782-16.347-43.549-5.0752-9.7943-10.26-20.155-18.606-27.368-5.5454-4.7925-12.64-7.9558-19.783-9.597-15.072-3.4628-46.393 0-46.393 0" fill="#483012" stroke-width="4.2176"/><path d="m1645.6 1243.7c-7.2153-0.1318-14.228 4.1585-19.811 8.7317-8.3724 6.8588-18.687 26.553-18.687 26.553l-16.477 42.831-13.31 56.62-9.3689 67.119-4.8835 73.716-0.1143 76.03 4.6616 73.925 9.1666 67.524 13.138 57.198 16.347 43.548s10.26 20.155 18.606 27.368c5.5454 4.7925 12.455 9.4632 19.783 9.597 7.2154 0.1317 14.228-4.1586 19.811-8.7319 8.3724-6.8588 13.591-17.005 18.687-26.553 7.2025-13.495 11.97-28.213 16.477-42.831 5.7121-18.527 9.7475-37.562 13.31-56.62 4.1506-22.205 7.0595-44.647 9.3691-67.119 2.5178-24.497 4.0505-49.104 4.8834-73.716 0.8571-25.329 0.8933-50.699 0.1145-76.03-0.7588-24.679-2.2225-49.355-4.6617-73.925-2.244-22.603-5.0921-45.178-9.1666-67.524-3.5092-19.245-7.4988-38.466-13.139-57.198-4.47-14.847-9.2135-29.782-16.347-43.549-5.0752-9.7944-10.26-20.155-18.606-27.368-5.5454-4.7925-12.455-9.4632-19.783-9.597z" fill="#6e5225" stroke-width="4.2176"/><path d="m1732.3 1557.6 33.524-19.355v38.71z" fill="#ac7d3c" stroke-width="4"/></g><path d="m2245.2 259.78h1042.3v550.14l-1042.3 3.8374z" fill="#5d4620" stroke-linejoin="bevel" stroke-width="1.6934"/><path d="m3287.5 262.81-17.212 7.5863-16.235 23.07-14.315 37.212-11.564 49.192-8.1397 58.313-4.2429 64.045-0.099 66.055 4.05 64.227 7.9639 58.665 11.415 49.694 14.203 37.835 16.165 23.778 17.188 8.3379 17.212-7.5862 16.235-23.07 14.315-37.212 11.564-49.192 8.1398-58.313 4.2428-64.045 0.099-66.055-4.05-64.226-7.964-58.665-11.415-49.694-14.202-37.835-16.165-23.778z" fill="#5d4620"/><path d="m3261.1 810.82s17.236 1.7572 25.58 0c6.1352-1.2921 12.362-3.6129 17.212-7.5862 7.274-5.959 11.808-14.774 16.235-23.07 6.2576-11.725 10.4-24.512 14.315-37.212 4.9627-16.097 8.4687-32.634 11.564-49.192 3.606-19.292 6.1332-38.79 8.1398-58.313 2.1875-21.283 3.5193-42.662 4.2428-64.045 0.7446-22.006 0.7757-44.047 0.099-66.055-0.6593-21.441-1.9308-42.88-4.05-64.226-1.9496-19.638-4.424-39.251-7.964-58.665-3.0488-16.72-6.5151-33.42-11.415-49.694-3.8836-12.899-8.0048-25.875-14.202-37.835-4.4094-8.5094-8.9136-17.511-16.165-23.778-4.8179-4.1638-11.086-6.5179-17.188-8.338-7.2153-2.1522-22.403-2.8852-22.403-2.8852" fill="none" stroke="#000" stroke-linecap="round" stroke-linejoin="bevel" stroke-width="3.6642"/></g><g transform="translate(1657.3 -1026.9)"><g transform="translate(-5.9991)"><path transform="translate(-881.96 1026.4)" d="m2393.3 261.21c9.3179-15.136 19.562-22.691 30.315-22.691 43.014 9e-5 77.885 133.1 77.885 298.3s-34.871 301.7-77.885 301.7c-10.754 2e-5 -20.997-10.96-30.315-26.096l0.019-1.6014s8.9748 0.915 13.319 0c6.1352-1.2921 12.362-3.6129 17.212-7.5862 7.274-5.959 11.808-14.774 16.235-23.07 6.2576-11.725 10.4-24.512 14.315-37.212 4.9627-16.097 8.4687-32.634 11.564-49.192 3.606-19.292 6.1332-38.79 8.1398-58.313 2.1875-21.283 3.5193-42.662 4.2428-64.045 0.7446-22.006 0.7757-44.047 0.099-66.055-0.6593-21.441-1.9308-42.88-4.05-64.226-1.9496-19.638-4.424-39.251-7.964-58.665-3.0488-16.72-6.5151-33.42-11.415-49.694-3.8836-12.899-8.0048-25.875-14.202-37.835-4.4094-8.5094-8.9136-17.511-16.165-23.778-4.8179-4.1638-10.982-6.9121-17.188-8.338-4.7853-1.0994-14.73 1e-4 -14.73 1e-4z" fill="#6e5225"/><path transform="translate(-881.96 1026.4)" d="m2393.3 810.82s8.9748 0.915 13.319 0c6.1352-1.2921 12.362-3.6129 17.212-7.5862 7.274-5.959 11.808-14.774 16.235-23.07 6.2576-11.725 10.4-24.512 14.315-37.212 4.9627-16.097 8.4687-32.634 11.564-49.192 3.606-19.292 6.1332-38.79 8.1398-58.313 2.1875-21.283 3.5193-42.662 4.2428-64.045 0.7446-22.006 0.7757-44.047 0.099-66.055-0.6593-21.441-1.9308-42.88-4.05-64.226-1.9496-19.638-4.424-39.251-7.964-58.665-3.0488-16.72-6.5151-33.42-11.415-49.694-3.8836-12.899-8.0048-25.875-14.202-37.835-4.4094-8.5094-8.9136-17.511-16.165-23.778-4.8179-4.1638-10.982-6.9121-17.188-8.338-4.7853-1.0994-14.73 1e-4 -14.73 1e-4" fill="none" stroke="#000" stroke-linejoin="round" stroke-width="3.664"/><path d="m1541.7 1264.9-18.804 8.717-12.079 15.576s9.3794-0.997 13.906 0c6.461 1.423 12.967 4.0575 18.011 8.3379 7.3077 6.2008 11.755 15.268 16.165 23.778 6.1977 11.961 10.319 24.936 14.202 37.835 4.8999 16.274 8.3662 32.974 11.415 49.694 3.54 19.414 6.0144 39.027 7.964 58.665 2.1192 21.346 3.3907 42.785 4.05 64.226 0.6767 22.008 0.6456 44.049-0.099 66.055-0.7235 21.383-2.0553 42.762-4.2428 64.045-2.0066 19.523-4.5338 39.021-8.1398 58.313-3.0949 16.558-6.6009 33.095-11.564 49.192-3.9156 12.7-8.0577 25.487-14.315 37.212-4.4274 8.2957-8.9614 17.111-16.235 23.07-4.8501 3.9733-11.034 6.5153-17.212 7.5862-4.0893 0.7089-12.419-0.8938-12.419-0.8938l10.591 19.874 18.804 8.717 18.804-8.717 17.711-25.646 15.588-41.084 12.561-54.134 8.803-64.038 4.533-70.22-0.5109-72.215-4.4211-70.112-8.6936-64.04-12.461-54.248-15.504-41.302-17.646-25.956z" display="none" fill="none" stroke="#000" stroke-linejoin="bevel" stroke-width="4"/><g transform="translate(16)" display="none" stroke="#000" stroke-width="4"><path d="m1525.7 1264.9 18.804 8.717h64l-18.804-8.717z" fill="#484019" stroke-linejoin="round"/><path d="m1544.5 1273.7h64l17.711 25.646h-64z" fill="#54481d" stroke-linejoin="bevel"/><path d="m1562.2 1299.3 15.588 41.084h64l-15.588-41.084z" fill="#605021" stroke-linejoin="bevel"/><path d="m1577.8 1340.4h64l12.561 54.134h-64z" fill="#6d5725" stroke-linejoin="bevel"/><path d="m1590.3 1394.5h64l8.803 64.038h-64z" fill="#7a5f2a" stroke-linejoin="bevel"/><path d="m1599.1 1458.6h64l4.533 70.22h-64z" fill="#88672f" stroke-linejoin="bevel"/><path d="m1603.7 1528.8h64v72.322h-64z" fill="#ac7d3c" stroke-linejoin="bevel"/><path d="m1603.7 1601.1h64l-4.533 70.22h-64z" fill="#845d30" stroke-linejoin="bevel"/><path d="m1599.1 1671.3-8.803 64.038h64l8.803-64.038z" fill="#714d2a" stroke-linejoin="bevel"/><path d="m1577.8 1789.5 12.561-54.134h64l-12.561 54.134z" fill="#5d3e24" stroke-linejoin="bevel"/><path d="m1562.2 1830.6 15.588-41.084h64l-15.588 41.084z" fill="#4a301e" stroke-linejoin="bevel"/><path d="m1544.5 1856.2 17.711-25.646h64l-17.711 25.646z" fill="#372317" stroke-linejoin="bevel"/><path d="m1525.7 1864.9 18.804-8.717h64l-18.804 8.717z" fill="#24170f" stroke-linejoin="bevel"/></g></g><g transform="translate(-116)"><path transform="translate(-881.96 1026.4)" d="m2393.3 261.21c9.3179-15.136 19.562-22.691 30.315-22.691 43.014 9e-5 77.885 133.1 77.885 298.3s-34.871 301.7-77.885 301.7c-10.754 2e-5 -20.997-10.96-30.315-26.096l0.019-1.6014s8.9748 0.915 13.319 0c6.1352-1.2921 12.362-3.6129 17.212-7.5862 7.274-5.959 11.808-14.774 16.235-23.07 6.2576-11.725 10.4-24.512 14.315-37.212 4.9627-16.097 8.4687-32.634 11.564-49.192 3.606-19.292 6.1332-38.79 8.1398-58.313 2.1875-21.283 3.5193-42.662 4.2428-64.045 0.7446-22.006 0.7757-44.047 0.099-66.055-0.6593-21.441-1.9308-42.88-4.05-64.226-1.9496-19.638-4.424-39.251-7.964-58.665-3.0488-16.72-6.5151-33.42-11.415-49.694-3.8836-12.899-8.0048-25.875-14.202-37.835-4.4094-8.5094-8.9136-17.511-16.165-23.778-4.8179-4.1638-10.982-6.9121-17.188-8.338-4.7853-1.0994-14.73 1e-4 -14.73 1e-4z" fill="#6e5225"/><path transform="translate(-881.96 1026.4)" d="m2393.3 810.82s8.9748 0.915 13.319 0c6.1352-1.2921 12.362-3.6129 17.212-7.5862 7.274-5.959 11.808-14.774 16.235-23.07 6.2576-11.725 10.4-24.512 14.315-37.212 4.9627-16.097 8.4687-32.634 11.564-49.192 3.606-19.292 6.1332-38.79 8.1398-58.313 2.1875-21.283 3.5193-42.662 4.2428-64.045 0.7446-22.006 0.7757-44.047 0.099-66.055-0.6593-21.441-1.9308-42.88-4.05-64.226-1.9496-19.638-4.424-39.251-7.964-58.665-3.0488-16.72-6.5151-33.42-11.415-49.694-3.8836-12.899-8.0048-25.875-14.202-37.835-4.4094-8.5094-8.9136-17.511-16.165-23.778-4.8179-4.1638-10.982-6.9121-17.188-8.338-4.7853-1.0994-14.73 1e-4 -14.73 1e-4" fill="none" stroke="#000" stroke-linejoin="round" stroke-width="3.664"/><path d="m1541.7 1264.9-18.804 8.717-12.079 15.576s9.3794-0.997 13.906 0c6.461 1.423 12.967 4.0575 18.011 8.3379 7.3077 6.2008 11.755 15.268 16.165 23.778 6.1977 11.961 10.319 24.936 14.202 37.835 4.8999 16.274 8.3662 32.974 11.415 49.694 3.54 19.414 6.0144 39.027 7.964 58.665 2.1192 21.346 3.3907 42.785 4.05 64.226 0.6767 22.008 0.6456 44.049-0.099 66.055-0.7235 21.383-2.0553 42.762-4.2428 64.045-2.0066 19.523-4.5338 39.021-8.1398 58.313-3.0949 16.558-6.6009 33.095-11.564 49.192-3.9156 12.7-8.0577 25.487-14.315 37.212-4.4274 8.2957-8.9614 17.111-16.235 23.07-4.8501 3.9733-11.034 6.5153-17.212 7.5862-4.0893 0.7089-12.419-0.8938-12.419-0.8938l10.591 19.874 18.804 8.717 18.804-8.717 17.711-25.646 15.588-41.084 12.561-54.134 8.803-64.038 4.533-70.22-0.5109-72.215-4.4211-70.112-8.6936-64.04-12.461-54.248-15.504-41.302-17.646-25.956z" display="none" fill="none" stroke="#000" stroke-linejoin="bevel" stroke-width="4"/><g transform="translate(16)" display="none" stroke="#000" stroke-width="4"><path d="m1525.7 1264.9 18.804 8.717h64l-18.804-8.717z" fill="#484019" stroke-linejoin="round"/><path d="m1544.5 1273.7h64l17.711 25.646h-64z" fill="#54481d" stroke-linejoin="bevel"/><path d="m1562.2 1299.3 15.588 41.084h64l-15.588-41.084z" fill="#605021" stroke-linejoin="bevel"/><path d="m1577.8 1340.4h64l12.561 54.134h-64z" fill="#6d5725" stroke-linejoin="bevel"/><path d="m1590.3 1394.5h64l8.803 64.038h-64z" fill="#7a5f2a" stroke-linejoin="bevel"/><path d="m1599.1 1458.6h64l4.533 70.22h-64z" fill="#88672f" stroke-linejoin="bevel"/><path d="m1603.7 1528.8h64v72.322h-64z" fill="#ac7d3c" stroke-linejoin="bevel"/><path d="m1603.7 1601.1h64l-4.533 70.22h-64z" fill="#845d30" stroke-linejoin="bevel"/><path d="m1599.1 1671.3-8.803 64.038h64l8.803-64.038z" fill="#714d2a" stroke-linejoin="bevel"/><path d="m1577.8 1789.5 12.561-54.134h64l-12.561 54.134z" fill="#5d3e24" stroke-linejoin="bevel"/><path d="m1562.2 1830.6 15.588-41.084h64l-15.588 41.084z" fill="#4a301e" stroke-linejoin="bevel"/><path d="m1544.5 1856.2 17.711-25.646h64l-17.711 25.646z" fill="#372317" stroke-linejoin="bevel"/><path d="m1525.7 1864.9 18.804-8.717h64l-18.804 8.717z" fill="#24170f" stroke-linejoin="bevel"/></g></g><g transform="translate(-226)"><path transform="translate(-881.96 1026.4)" d="m2393.3 261.21c9.3179-15.136 19.562-22.691 30.315-22.691 43.014 9e-5 77.885 133.1 77.885 298.3s-34.871 301.7-77.885 301.7c-10.754 2e-5 -20.997-10.96-30.315-26.096l0.019-1.6014s8.9748 0.915 13.319 0c6.1352-1.2921 12.362-3.6129 17.212-7.5862 7.274-5.959 11.808-14.774 16.235-23.07 6.2576-11.725 10.4-24.512 14.315-37.212 4.9627-16.097 8.4687-32.634 11.564-49.192 3.606-19.292 6.1332-38.79 8.1398-58.313 2.1875-21.283 3.5193-42.662 4.2428-64.045 0.7446-22.006 0.7757-44.047 0.099-66.055-0.6593-21.441-1.9308-42.88-4.05-64.226-1.9496-19.638-4.424-39.251-7.964-58.665-3.0488-16.72-6.5151-33.42-11.415-49.694-3.8836-12.899-8.0048-25.875-14.202-37.835-4.4094-8.5094-8.9136-17.511-16.165-23.778-4.8179-4.1638-10.982-6.9121-17.188-8.338-4.7853-1.0994-14.73 1e-4 -14.73 1e-4z" fill="#6e5225"/><path transform="translate(-881.96 1026.4)" d="m2393.3 810.82s8.9748 0.915 13.319 0c6.1352-1.2921 12.362-3.6129 17.212-7.5862 7.274-5.959 11.808-14.774 16.235-23.07 6.2576-11.725 10.4-24.512 14.315-37.212 4.9627-16.097 8.4687-32.634 11.564-49.192 3.606-19.292 6.1332-38.79 8.1398-58.313 2.1875-21.283 3.5193-42.662 4.2428-64.045 0.7446-22.006 0.7757-44.047 0.099-66.055-0.6593-21.441-1.9308-42.88-4.05-64.226-1.9496-19.638-4.424-39.251-7.964-58.665-3.0488-16.72-6.5151-33.42-11.415-49.694-3.8836-12.899-8.0048-25.875-14.202-37.835-4.4094-8.5094-8.9136-17.511-16.165-23.778-4.8179-4.1638-10.982-6.9121-17.188-8.338-4.7853-1.0994-14.73 1e-4 -14.73 1e-4" fill="none" stroke="#000" stroke-linejoin="round" stroke-width="3.664"/><path d="m1541.7 1264.9-18.804 8.717-12.079 15.576s9.3794-0.997 13.906 0c6.461 1.423 12.967 4.0575 18.011 8.3379 7.3077 6.2008 11.755 15.268 16.165 23.778 6.1977 11.961 10.319 24.936 14.202 37.835 4.8999 16.274 8.3662 32.974 11.415 49.694 3.54 19.414 6.0144 39.027 7.964 58.665 2.1192 21.346 3.3907 42.785 4.05 64.226 0.6767 22.008 0.6456 44.049-0.099 66.055-0.7235 21.383-2.0553 42.762-4.2428 64.045-2.0066 19.523-4.5338 39.021-8.1398 58.313-3.0949 16.558-6.6009 33.095-11.564 49.192-3.9156 12.7-8.0577 25.487-14.315 37.212-4.4274 8.2957-8.9614 17.111-16.235 23.07-4.8501 3.9733-11.034 6.5153-17.212 7.5862-4.0893 0.7089-12.419-0.8938-12.419-0.8938l10.591 19.874 18.804 8.717 18.804-8.717 17.711-25.646 15.588-41.084 12.561-54.134 8.803-64.038 4.533-70.22-0.5109-72.215-4.4211-70.112-8.6936-64.04-12.461-54.248-15.504-41.302-17.646-25.956z" display="none" fill="none" stroke="#000" stroke-linejoin="bevel" stroke-width="4"/><g transform="translate(16)" display="none" stroke="#000" stroke-width="4"><path d="m1525.7 1264.9 18.804 8.717h64l-18.804-8.717z" fill="#484019" stroke-linejoin="round"/><path d="m1544.5 1273.7h64l17.711 25.646h-64z" fill="#54481d" stroke-linejoin="bevel"/><path d="m1562.2 1299.3 15.588 41.084h64l-15.588-41.084z" fill="#605021" stroke-linejoin="bevel"/><path d="m1577.8 1340.4h64l12.561 54.134h-64z" fill="#6d5725" stroke-linejoin="bevel"/><path d="m1590.3 1394.5h64l8.803 64.038h-64z" fill="#7a5f2a" stroke-linejoin="bevel"/><path d="m1599.1 1458.6h64l4.533 70.22h-64z" fill="#88672f" stroke-linejoin="bevel"/><path d="m1603.7 1528.8h64v72.322h-64z" fill="#ac7d3c" stroke-linejoin="bevel"/><path d="m1603.7 1601.1h64l-4.533 70.22h-64z" fill="#845d30" stroke-linejoin="bevel"/><path d="m1599.1 1671.3-8.803 64.038h64l8.803-64.038z" fill="#714d2a" stroke-linejoin="bevel"/><path d="m1577.8 1789.5 12.561-54.134h64l-12.561 54.134z" fill="#5d3e24" stroke-linejoin="bevel"/><path d="m1562.2 1830.6 15.588-41.084h64l-15.588 41.084z" fill="#4a301e" stroke-linejoin="bevel"/><path d="m1544.5 1856.2 17.711-25.646h64l-17.711 25.646z" fill="#372317" stroke-linejoin="bevel"/><path d="m1525.7 1864.9 18.804-8.717h64l-18.804 8.717z" fill="#24170f" stroke-linejoin="bevel"/></g></g><g transform="translate(-336)"><path transform="translate(-881.96 1026.4)" d="m2393.3 261.21c9.3179-15.136 19.562-22.691 30.315-22.691 43.014 9e-5 77.885 133.1 77.885 298.3s-34.871 301.7-77.885 301.7c-10.754 2e-5 -20.997-10.96-30.315-26.096l0.019-1.6014s8.9748 0.915 13.319 0c6.1352-1.2921 12.362-3.6129 17.212-7.5862 7.274-5.959 11.808-14.774 16.235-23.07 6.2576-11.725 10.4-24.512 14.315-37.212 4.9627-16.097 8.4687-32.634 11.564-49.192 3.606-19.292 6.1332-38.79 8.1398-58.313 2.1875-21.283 3.5193-42.662 4.2428-64.045 0.7446-22.006 0.7757-44.047 0.099-66.055-0.6593-21.441-1.9308-42.88-4.05-64.226-1.9496-19.638-4.424-39.251-7.964-58.665-3.0488-16.72-6.5151-33.42-11.415-49.694-3.8836-12.899-8.0048-25.875-14.202-37.835-4.4094-8.5094-8.9136-17.511-16.165-23.778-4.8179-4.1638-10.982-6.9121-17.188-8.338-4.7853-1.0994-14.73 1e-4 -14.73 1e-4z" fill="#6e5225"/><path transform="translate(-881.96 1026.4)" d="m2393.3 810.82s8.9748 0.915 13.319 0c6.1352-1.2921 12.362-3.6129 17.212-7.5862 7.274-5.959 11.808-14.774 16.235-23.07 6.2576-11.725 10.4-24.512 14.315-37.212 4.9627-16.097 8.4687-32.634 11.564-49.192 3.606-19.292 6.1332-38.79 8.1398-58.313 2.1875-21.283 3.5193-42.662 4.2428-64.045 0.7446-22.006 0.7757-44.047 0.099-66.055-0.6593-21.441-1.9308-42.88-4.05-64.226-1.9496-19.638-4.424-39.251-7.964-58.665-3.0488-16.72-6.5151-33.42-11.415-49.694-3.8836-12.899-8.0048-25.875-14.202-37.835-4.4094-8.5094-8.9136-17.511-16.165-23.778-4.8179-4.1638-10.982-6.9121-17.188-8.338-4.7853-1.0994-14.73 1e-4 -14.73 1e-4" fill="none" stroke="#000" stroke-linejoin="round" stroke-width="3.664"/><path d="m1541.7 1264.9-18.804 8.717-12.079 15.576s9.3794-0.997 13.906 0c6.461 1.423 12.967 4.0575 18.011 8.3379 7.3077 6.2008 11.755 15.268 16.165 23.778 6.1977 11.961 10.319 24.936 14.202 37.835 4.8999 16.274 8.3662 32.974 11.415 49.694 3.54 19.414 6.0144 39.027 7.964 58.665 2.1192 21.346 3.3907 42.785 4.05 64.226 0.6767 22.008 0.6456 44.049-0.099 66.055-0.7235 21.383-2.0553 42.762-4.2428 64.045-2.0066 19.523-4.5338 39.021-8.1398 58.313-3.0949 16.558-6.6009 33.095-11.564 49.192-3.9156 12.7-8.0577 25.487-14.315 37.212-4.4274 8.2957-8.9614 17.111-16.235 23.07-4.8501 3.9733-11.034 6.5153-17.212 7.5862-4.0893 0.7089-12.419-0.8938-12.419-0.8938l10.591 19.874 18.804 8.717 18.804-8.717 17.711-25.646 15.588-41.084 12.561-54.134 8.803-64.038 4.533-70.22-0.5109-72.215-4.4211-70.112-8.6936-64.04-12.461-54.248-15.504-41.302-17.646-25.956z" display="none" fill="none" stroke="#000" stroke-linejoin="bevel" stroke-width="4"/><g transform="translate(16)" display="none" stroke="#000" stroke-width="4"><path d="m1525.7 1264.9 18.804 8.717h64l-18.804-8.717z" fill="#484019" stroke-linejoin="round"/><path d="m1544.5 1273.7h64l17.711 25.646h-64z" fill="#54481d" stroke-linejoin="bevel"/><path d="m1562.2 1299.3 15.588 41.084h64l-15.588-41.084z" fill="#605021" stroke-linejoin="bevel"/><path d="m1577.8 1340.4h64l12.561 54.134h-64z" fill="#6d5725" stroke-linejoin="bevel"/><path d="m1590.3 1394.5h64l8.803 64.038h-64z" fill="#7a5f2a" stroke-linejoin="bevel"/><path d="m1599.1 1458.6h64l4.533 70.22h-64z" fill="#88672f" stroke-linejoin="bevel"/><path d="m1603.7 1528.8h64v72.322h-64z" fill="#ac7d3c" stroke-linejoin="bevel"/><path d="m1603.7 1601.1h64l-4.533 70.22h-64z" fill="#845d30" stroke-linejoin="bevel"/><path d="m1599.1 1671.3-8.803 64.038h64l8.803-64.038z" fill="#714d2a" stroke-linejoin="bevel"/><path d="m1577.8 1789.5 12.561-54.134h64l-12.561 54.134z" fill="#5d3e24" stroke-linejoin="bevel"/><path d="m1562.2 1830.6 15.588-41.084h64l-15.588 41.084z" fill="#4a301e" stroke-linejoin="bevel"/><path d="m1544.5 1856.2 17.711-25.646h64l-17.711 25.646z" fill="#372317" stroke-linejoin="bevel"/><path d="m1525.7 1864.9 18.804-8.717h64l-18.804 8.717z" fill="#24170f" stroke-linejoin="bevel"/></g></g><g transform="translate(-446)"><path transform="translate(-881.96 1026.4)" d="m2393.3 261.21c9.3179-15.136 19.562-22.691 30.315-22.691 43.014 9e-5 77.885 133.1 77.885 298.3s-34.871 301.7-77.885 301.7c-10.754 2e-5 -20.997-10.96-30.315-26.096l0.019-1.6014s8.9748 0.915 13.319 0c6.1352-1.2921 12.362-3.6129 17.212-7.5862 7.274-5.959 11.808-14.774 16.235-23.07 6.2576-11.725 10.4-24.512 14.315-37.212 4.9627-16.097 8.4687-32.634 11.564-49.192 3.606-19.292 6.1332-38.79 8.1398-58.313 2.1875-21.283 3.5193-42.662 4.2428-64.045 0.7446-22.006 0.7757-44.047 0.099-66.055-0.6593-21.441-1.9308-42.88-4.05-64.226-1.9496-19.638-4.424-39.251-7.964-58.665-3.0488-16.72-6.5151-33.42-11.415-49.694-3.8836-12.899-8.0048-25.875-14.202-37.835-4.4094-8.5094-8.9136-17.511-16.165-23.778-4.8179-4.1638-10.982-6.9121-17.188-8.338-4.7853-1.0994-14.73 1e-4 -14.73 1e-4z" fill="#6e5225"/><path transform="translate(-881.96 1026.4)" d="m2393.3 810.82s8.9748 0.915 13.319 0c6.1352-1.2921 12.362-3.6129 17.212-7.5862 7.274-5.959 11.808-14.774 16.235-23.07 6.2576-11.725 10.4-24.512 14.315-37.212 4.9627-16.097 8.4687-32.634 11.564-49.192 3.606-19.292 6.1332-38.79 8.1398-58.313 2.1875-21.283 3.5193-42.662 4.2428-64.045 0.7446-22.006 0.7757-44.047 0.099-66.055-0.6593-21.441-1.9308-42.88-4.05-64.226-1.9496-19.638-4.424-39.251-7.964-58.665-3.0488-16.72-6.5151-33.42-11.415-49.694-3.8836-12.899-8.0048-25.875-14.202-37.835-4.4094-8.5094-8.9136-17.511-16.165-23.778-4.8179-4.1638-10.982-6.9121-17.188-8.338-4.7853-1.0994-14.73 1e-4 -14.73 1e-4" fill="none" stroke="#000" stroke-linejoin="round" stroke-width="3.664"/><path d="m1541.7 1264.9-18.804 8.717-12.079 15.576s9.3794-0.997 13.906 0c6.461 1.423 12.967 4.0575 18.011 8.3379 7.3077 6.2008 11.755 15.268 16.165 23.778 6.1977 11.961 10.319 24.936 14.202 37.835 4.8999 16.274 8.3662 32.974 11.415 49.694 3.54 19.414 6.0144 39.027 7.964 58.665 2.1192 21.346 3.3907 42.785 4.05 64.226 0.6767 22.008 0.6456 44.049-0.099 66.055-0.7235 21.383-2.0553 42.762-4.2428 64.045-2.0066 19.523-4.5338 39.021-8.1398 58.313-3.0949 16.558-6.6009 33.095-11.564 49.192-3.9156 12.7-8.0577 25.487-14.315 37.212-4.4274 8.2957-8.9614 17.111-16.235 23.07-4.8501 3.9733-11.034 6.5153-17.212 7.5862-4.0893 0.7089-12.419-0.8938-12.419-0.8938l10.591 19.874 18.804 8.717 18.804-8.717 17.711-25.646 15.588-41.084 12.561-54.134 8.803-64.038 4.533-70.22-0.5109-72.215-4.4211-70.112-8.6936-64.04-12.461-54.248-15.504-41.302-17.646-25.956z" display="none" fill="none" stroke="#000" stroke-linejoin="bevel" stroke-width="4"/><g transform="translate(16)" display="none" stroke="#000" stroke-width="4"><path d="m1525.7 1264.9 18.804 8.717h64l-18.804-8.717z" fill="#484019" stroke-linejoin="round"/><path d="m1544.5 1273.7h64l17.711 25.646h-64z" fill="#54481d" stroke-linejoin="bevel"/><path d="m1562.2 1299.3 15.588 41.084h64l-15.588-41.084z" fill="#605021" stroke-linejoin="bevel"/><path d="m1577.8 1340.4h64l12.561 54.134h-64z" fill="#6d5725" stroke-linejoin="bevel"/><path d="m1590.3 1394.5h64l8.803 64.038h-64z" fill="#7a5f2a" stroke-linejoin="bevel"/><path d="m1599.1 1458.6h64l4.533 70.22h-64z" fill="#88672f" stroke-linejoin="bevel"/><path d="m1603.7 1528.8h64v72.322h-64z" fill="#ac7d3c" stroke-linejoin="bevel"/><path d="m1603.7 1601.1h64l-4.533 70.22h-64z" fill="#845d30" stroke-linejoin="bevel"/><path d="m1599.1 1671.3-8.803 64.038h64l8.803-64.038z" fill="#714d2a" stroke-linejoin="bevel"/><path d="m1577.8 1789.5 12.561-54.134h64l-12.561 54.134z" fill="#5d3e24" stroke-linejoin="bevel"/><path d="m1562.2 1830.6 15.588-41.084h64l-15.588 41.084z" fill="#4a301e" stroke-linejoin="bevel"/><path d="m1544.5 1856.2 17.711-25.646h64l-17.711 25.646z" fill="#372317" stroke-linejoin="bevel"/><path d="m1525.7 1864.9 18.804-8.717h64l-18.804 8.717z" fill="#24170f" stroke-linejoin="bevel"/></g></g><g transform="translate(-556)"><path transform="translate(-881.96 1026.4)" d="m2393.3 261.21c9.3179-15.136 19.562-22.691 30.315-22.691 43.014 9e-5 77.885 133.1 77.885 298.3s-34.871 301.7-77.885 301.7c-10.754 2e-5 -20.997-10.96-30.315-26.096l0.019-1.6014s8.9748 0.915 13.319 0c6.1352-1.2921 12.362-3.6129 17.212-7.5862 7.274-5.959 11.808-14.774 16.235-23.07 6.2576-11.725 10.4-24.512 14.315-37.212 4.9627-16.097 8.4687-32.634 11.564-49.192 3.606-19.292 6.1332-38.79 8.1398-58.313 2.1875-21.283 3.5193-42.662 4.2428-64.045 0.7446-22.006 0.7757-44.047 0.099-66.055-0.6593-21.441-1.9308-42.88-4.05-64.226-1.9496-19.638-4.424-39.251-7.964-58.665-3.0488-16.72-6.5151-33.42-11.415-49.694-3.8836-12.899-8.0048-25.875-14.202-37.835-4.4094-8.5094-8.9136-17.511-16.165-23.778-4.8179-4.1638-10.982-6.9121-17.188-8.338-4.7853-1.0994-14.73 1e-4 -14.73 1e-4z" fill="#6e5225"/><path transform="translate(-881.96 1026.4)" d="m2393.3 810.82s8.9748 0.915 13.319 0c6.1352-1.2921 12.362-3.6129 17.212-7.5862 7.274-5.959 11.808-14.774 16.235-23.07 6.2576-11.725 10.4-24.512 14.315-37.212 4.9627-16.097 8.4687-32.634 11.564-49.192 3.606-19.292 6.1332-38.79 8.1398-58.313 2.1875-21.283 3.5193-42.662 4.2428-64.045 0.7446-22.006 0.7757-44.047 0.099-66.055-0.6593-21.441-1.9308-42.88-4.05-64.226-1.9496-19.638-4.424-39.251-7.964-58.665-3.0488-16.72-6.5151-33.42-11.415-49.694-3.8836-12.899-8.0048-25.875-14.202-37.835-4.4094-8.5094-8.9136-17.511-16.165-23.778-4.8179-4.1638-10.982-6.9121-17.188-8.338-4.7853-1.0994-14.73 1e-4 -14.73 1e-4" fill="none" stroke="#000" stroke-linejoin="round" stroke-width="3.664"/><path d="m1541.7 1264.9-18.804 8.717-12.079 15.576s9.3794-0.997 13.906 0c6.461 1.423 12.967 4.0575 18.011 8.3379 7.3077 6.2008 11.755 15.268 16.165 23.778 6.1977 11.961 10.319 24.936 14.202 37.835 4.8999 16.274 8.3662 32.974 11.415 49.694 3.54 19.414 6.0144 39.027 7.964 58.665 2.1192 21.346 3.3907 42.785 4.05 64.226 0.6767 22.008 0.6456 44.049-0.099 66.055-0.7235 21.383-2.0553 42.762-4.2428 64.045-2.0066 19.523-4.5338 39.021-8.1398 58.313-3.0949 16.558-6.6009 33.095-11.564 49.192-3.9156 12.7-8.0577 25.487-14.315 37.212-4.4274 8.2957-8.9614 17.111-16.235 23.07-4.8501 3.9733-11.034 6.5153-17.212 7.5862-4.0893 0.7089-12.419-0.8938-12.419-0.8938l10.591 19.874 18.804 8.717 18.804-8.717 17.711-25.646 15.588-41.084 12.561-54.134 8.803-64.038 4.533-70.22-0.5109-72.215-4.4211-70.112-8.6936-64.04-12.461-54.248-15.504-41.302-17.646-25.956z" display="none" fill="none" stroke="#000" stroke-linejoin="bevel" stroke-width="4"/><g transform="translate(16)" display="none" stroke="#000" stroke-width="4"><path d="m1525.7 1264.9 18.804 8.717h64l-18.804-8.717z" fill="#484019" stroke-linejoin="round"/><path d="m1544.5 1273.7h64l17.711 25.646h-64z" fill="#54481d" stroke-linejoin="bevel"/><path d="m1562.2 1299.3 15.588 41.084h64l-15.588-41.084z" fill="#605021" stroke-linejoin="bevel"/><path d="m1577.8 1340.4h64l12.561 54.134h-64z" fill="#6d5725" stroke-linejoin="bevel"/><path d="m1590.3 1394.5h64l8.803 64.038h-64z" fill="#7a5f2a" stroke-linejoin="bevel"/><path d="m1599.1 1458.6h64l4.533 70.22h-64z" fill="#88672f" stroke-linejoin="bevel"/><path d="m1603.7 1528.8h64v72.322h-64z" fill="#ac7d3c" stroke-linejoin="bevel"/><path d="m1603.7 1601.1h64l-4.533 70.22h-64z" fill="#845d30" stroke-linejoin="bevel"/><path d="m1599.1 1671.3-8.803 64.038h64l8.803-64.038z" fill="#714d2a" stroke-linejoin="bevel"/><path d="m1577.8 1789.5 12.561-54.134h64l-12.561 54.134z" fill="#5d3e24" stroke-linejoin="bevel"/><path d="m1562.2 1830.6 15.588-41.084h64l-15.588 41.084z" fill="#4a301e" stroke-linejoin="bevel"/><path d="m1544.5 1856.2 17.711-25.646h64l-17.711 25.646z" fill="#372317" stroke-linejoin="bevel"/><path d="m1525.7 1864.9 18.804-8.717h64l-18.804 8.717z" fill="#24170f" stroke-linejoin="bevel"/></g></g><g transform="translate(-666)"><path transform="translate(-881.96 1026.4)" d="m2393.3 261.21c9.3179-15.136 19.562-22.691 30.315-22.691 43.014 9e-5 77.885 133.1 77.885 298.3s-34.871 301.7-77.885 301.7c-10.754 2e-5 -20.997-10.96-30.315-26.096l0.019-1.6014s8.9748 0.915 13.319 0c6.1352-1.2921 12.362-3.6129 17.212-7.5862 7.274-5.959 11.808-14.774 16.235-23.07 6.2576-11.725 10.4-24.512 14.315-37.212 4.9627-16.097 8.4687-32.634 11.564-49.192 3.606-19.292 6.1332-38.79 8.1398-58.313 2.1875-21.283 3.5193-42.662 4.2428-64.045 0.7446-22.006 0.7757-44.047 0.099-66.055-0.6593-21.441-1.9308-42.88-4.05-64.226-1.9496-19.638-4.424-39.251-7.964-58.665-3.0488-16.72-6.5151-33.42-11.415-49.694-3.8836-12.899-8.0048-25.875-14.202-37.835-4.4094-8.5094-8.9136-17.511-16.165-23.778-4.8179-4.1638-10.982-6.9121-17.188-8.338-4.7853-1.0994-14.73 1e-4 -14.73 1e-4z" fill="#6e5225"/><path transform="translate(-881.96 1026.4)" d="m2393.3 810.82s8.9748 0.915 13.319 0c6.1352-1.2921 12.362-3.6129 17.212-7.5862 7.274-5.959 11.808-14.774 16.235-23.07 6.2576-11.725 10.4-24.512 14.315-37.212 4.9627-16.097 8.4687-32.634 11.564-49.192 3.606-19.292 6.1332-38.79 8.1398-58.313 2.1875-21.283 3.5193-42.662 4.2428-64.045 0.7446-22.006 0.7757-44.047 0.099-66.055-0.6593-21.441-1.9308-42.88-4.05-64.226-1.9496-19.638-4.424-39.251-7.964-58.665-3.0488-16.72-6.5151-33.42-11.415-49.694-3.8836-12.899-8.0048-25.875-14.202-37.835-4.4094-8.5094-8.9136-17.511-16.165-23.778-4.8179-4.1638-10.982-6.9121-17.188-8.338-4.7853-1.0994-14.73 1e-4 -14.73 1e-4" fill="none" stroke="#000" stroke-linejoin="round" stroke-width="3.664"/><path d="m1541.7 1264.9-18.804 8.717-12.079 15.576s9.3794-0.997 13.906 0c6.461 1.423 12.967 4.0575 18.011 8.3379 7.3077 6.2008 11.755 15.268 16.165 23.778 6.1977 11.961 10.319 24.936 14.202 37.835 4.8999 16.274 8.3662 32.974 11.415 49.694 3.54 19.414 6.0144 39.027 7.964 58.665 2.1192 21.346 3.3907 42.785 4.05 64.226 0.6767 22.008 0.6456 44.049-0.099 66.055-0.7235 21.383-2.0553 42.762-4.2428 64.045-2.0066 19.523-4.5338 39.021-8.1398 58.313-3.0949 16.558-6.6009 33.095-11.564 49.192-3.9156 12.7-8.0577 25.487-14.315 37.212-4.4274 8.2957-8.9614 17.111-16.235 23.07-4.8501 3.9733-11.034 6.5153-17.212 7.5862-4.0893 0.7089-12.419-0.8938-12.419-0.8938l10.591 19.874 18.804 8.717 18.804-8.717 17.711-25.646 15.588-41.084 12.561-54.134 8.803-64.038 4.533-70.22-0.5109-72.215-4.4211-70.112-8.6936-64.04-12.461-54.248-15.504-41.302-17.646-25.956z" display="none" fill="none" stroke="#000" stroke-linejoin="bevel" stroke-width="4"/><g transform="translate(16)" display="none" stroke="#000" stroke-width="4"><path d="m1525.7 1264.9 18.804 8.717h64l-18.804-8.717z" fill="#484019" stroke-linejoin="round"/><path d="m1544.5 1273.7h64l17.711 25.646h-64z" fill="#54481d" stroke-linejoin="bevel"/><path d="m1562.2 1299.3 15.588 41.084h64l-15.588-41.084z" fill="#605021" stroke-linejoin="bevel"/><path d="m1577.8 1340.4h64l12.561 54.134h-64z" fill="#6d5725" stroke-linejoin="bevel"/><path d="m1590.3 1394.5h64l8.803 64.038h-64z" fill="#7a5f2a" stroke-linejoin="bevel"/><path d="m1599.1 1458.6h64l4.533 70.22h-64z" fill="#88672f" stroke-linejoin="bevel"/><path d="m1603.7 1528.8h64v72.322h-64z" fill="#ac7d3c" stroke-linejoin="bevel"/><path d="m1603.7 1601.1h64l-4.533 70.22h-64z" fill="#845d30" stroke-linejoin="bevel"/><path d="m1599.1 1671.3-8.803 64.038h64l8.803-64.038z" fill="#714d2a" stroke-linejoin="bevel"/><path d="m1577.8 1789.5 12.561-54.134h64l-12.561 54.134z" fill="#5d3e24" stroke-linejoin="bevel"/><path d="m1562.2 1830.6 15.588-41.084h64l-15.588 41.084z" fill="#4a301e" stroke-linejoin="bevel"/><path d="m1544.5 1856.2 17.711-25.646h64l-17.711 25.646z" fill="#372317" stroke-linejoin="bevel"/><path d="m1525.7 1864.9 18.804-8.717h64l-18.804 8.717z" fill="#24170f" stroke-linejoin="bevel"/></g></g><g transform="translate(-666)" display="none"><path transform="translate(-881.96 1026.4)" d="m2393.3 261.21c9.3179-15.136 19.562-22.691 30.315-22.691 43.014 9e-5 77.885 133.1 77.885 298.3s-34.871 301.7-77.885 301.7c-10.754 2e-5 -20.997-10.96-30.315-26.096l0.019-1.6014s8.9748 0.915 13.319 0c6.1352-1.2921 12.362-3.6129 17.212-7.5862 7.274-5.959 11.808-14.774 16.235-23.07 6.2576-11.725 10.4-24.512 14.315-37.212 4.9627-16.097 8.4687-32.634 11.564-49.192 3.606-19.292 6.1332-38.79 8.1398-58.313 2.1875-21.283 3.5193-42.662 4.2428-64.045 0.7446-22.006 0.7757-44.047 0.099-66.055-0.6593-21.441-1.9308-42.88-4.05-64.226-1.9496-19.638-4.424-39.251-7.964-58.665-3.0488-16.72-6.5151-33.42-11.415-49.694-3.8836-12.899-8.0048-25.875-14.202-37.835-4.4094-8.5094-8.9136-17.511-16.165-23.778-4.8179-4.1638-10.982-6.9121-17.188-8.338-4.7853-1.0994-14.73 1e-4 -14.73 1e-4z" display="inline" fill="#6e5225"/><path transform="translate(-881.96 1026.4)" d="m2393.3 810.82s8.9748 0.915 13.319 0c6.1352-1.2921 12.362-3.6129 17.212-7.5862 7.274-5.959 11.808-14.774 16.235-23.07 6.2576-11.725 10.4-24.512 14.315-37.212 4.9627-16.097 8.4687-32.634 11.564-49.192 3.606-19.292 6.1332-38.79 8.1398-58.313 2.1875-21.283 3.5193-42.662 4.2428-64.045 0.7446-22.006 0.7757-44.047 0.099-66.055-0.6593-21.441-1.9308-42.88-4.05-64.226-1.9496-19.638-4.424-39.251-7.964-58.665-3.0488-16.72-6.5151-33.42-11.415-49.694-3.8836-12.899-8.0048-25.875-14.202-37.835-4.4094-8.5094-8.9136-17.511-16.165-23.778-4.8179-4.1638-10.982-6.9121-17.188-8.338-4.7853-1.0994-14.73 1e-4 -14.73 1e-4" display="inline" fill="none" stroke="#000" stroke-linejoin="round" stroke-width="3.664"/><path d="m1541.7 1264.9-18.804 8.717-12.079 15.576s9.3794-0.997 13.906 0c6.461 1.423 12.967 4.0575 18.011 8.3379 7.3077 6.2008 11.755 15.268 16.165 23.778 6.1977 11.961 10.319 24.936 14.202 37.835 4.8999 16.274 8.3662 32.974 11.415 49.694 3.54 19.414 6.0144 39.027 7.964 58.665 2.1192 21.346 3.3907 42.785 4.05 64.226 0.6767 22.008 0.6456 44.049-0.099 66.055-0.7235 21.383-2.0553 42.762-4.2428 64.045-2.0066 19.523-4.5338 39.021-8.1398 58.313-3.0949 16.558-6.6009 33.095-11.564 49.192-3.9156 12.7-8.0577 25.487-14.315 37.212-4.4274 8.2957-8.9614 17.111-16.235 23.07-4.8501 3.9733-11.034 6.5153-17.212 7.5862-4.0893 0.7089-12.419-0.8938-12.419-0.8938l10.591 19.874 18.804 8.717 18.804-8.717 17.711-25.646 15.588-41.084 12.561-54.134 8.803-64.038 4.533-70.22-0.5109-72.215-4.4211-70.112-8.6936-64.04-12.461-54.248-15.504-41.302-17.646-25.956z" display="none" fill="none" stroke="#000" stroke-linejoin="bevel" stroke-width="4"/><path d="m1549.5 1266.4-18.938 1.506-18.293 18.767-1.496 2.5206s9.3794-0.997 13.906 0c6.461 1.423 12.967 4.0575 18.011 8.3379 7.3077 6.2008 11.755 15.268 16.165 23.778 6.1977 11.961 10.319 24.936 14.202 37.835 4.8999 16.274 8.3662 32.974 11.415 49.694 3.54 19.414 6.0144 39.027 7.964 58.665 2.1192 21.346 3.3907 42.785 4.05 64.226 0.6767 22.008 0.6456 44.049-0.099 66.055-0.7235 21.383-2.0553 42.762-4.2428 64.045-2.0066 19.523-4.5338 39.021-8.1398 58.313-3.0949 16.558-6.6009 33.095-11.564 49.192-3.9156 12.7-8.0577 25.487-14.315 37.212-4.4274 8.2957-8.9614 17.111-16.235 23.07-4.8501 3.9733-11.034 6.5153-17.212 7.5862-4.0893 0.7089-12.419-0.8938-12.419-0.8938l3.0693 11.251 18.482 15.841 18.938-1.506 18.293-18.767 16.585-34.936 13.913-49.076 10.433-60.362 6.347-68.142 1.891-71.961-2.675-71.597-7.084-67.074-11.082-58.651-14.437-46.82-16.952-32.269z" display="inline" fill="none" stroke="#000" stroke-linejoin="bevel" stroke-width="4"/><g transform="translate(16)" display="inline" stroke="#000" stroke-linejoin="bevel" stroke-width="4"><path d="m1533.5 1266.4h64l18.482 15.841h-64z" fill="#484019"/><path d="m1552 1282.3 16.952 32.269h64l-16.952-32.269z" fill="#54481d"/><path d="m1568.9 1314.6h64l14.437 46.82h-64z" fill="#605021"/><path d="m1583.4 1361.4h64l11.082 58.651h-64z" fill="#6d5725"/><path d="m1594.5 1420h64l7.084 67.074h-64z" fill="#7a5f2a"/><path d="m1601.5 1487.1h64l2.675 71.597h-64z" fill="#88672f"/><path d="m1604.2 1558.7h64l-1.891 71.961h-64z" fill="#845d30"/><path d="m1602.3 1630.7-6.347 68.142h64l6.347-68.142z" fill="#714d2a"/><path d="m1571.6 1808.2 13.913-49.076h64l-13.913 49.076z" fill="#4a301e"/><path d="m1555 1843.2 16.585-34.936h64l-16.585 34.936z" fill="#372317"/><path d="m1536.8 1861.9 18.293-18.767h64l-18.293 18.767z" fill="#24170f"/><path d="m1517.8 1863.4 18.938-1.506h64l-18.938 1.506z" fill="#24170f"/><path d="m1596 1698.8-10.433 60.362h64l10.433-60.362z" fill="#5d3e24"/></g></g><g transform="translate(-776)"><path transform="translate(-881.96 1026.4)" d="m2393.3 261.21c9.3179-15.136 19.562-22.691 30.315-22.691 43.014 9e-5 77.885 133.1 77.885 298.3s-34.871 301.7-77.885 301.7c-10.754 2e-5 -20.997-10.96-30.315-26.096l0.019-1.6014s8.9748 0.915 13.319 0c6.1352-1.2921 12.362-3.6129 17.212-7.5862 7.274-5.959 11.808-14.774 16.235-23.07 6.2576-11.725 10.4-24.512 14.315-37.212 4.9627-16.097 8.4687-32.634 11.564-49.192 3.606-19.292 6.1332-38.79 8.1398-58.313 2.1875-21.283 3.5193-42.662 4.2428-64.045 0.7446-22.006 0.7757-44.047 0.099-66.055-0.6593-21.441-1.9308-42.88-4.05-64.226-1.9496-19.638-4.424-39.251-7.964-58.665-3.0488-16.72-6.5151-33.42-11.415-49.694-3.8836-12.899-8.0048-25.875-14.202-37.835-4.4094-8.5094-8.9136-17.511-16.165-23.778-4.8179-4.1638-10.982-6.9121-17.188-8.338-4.7853-1.0994-14.73 1e-4 -14.73 1e-4z" fill="#6e5225"/><path transform="translate(-881.96 1026.4)" d="m2393.3 810.82s8.9748 0.915 13.319 0c6.1352-1.2921 12.362-3.6129 17.212-7.5862 7.274-5.959 11.808-14.774 16.235-23.07 6.2576-11.725 10.4-24.512 14.315-37.212 4.9627-16.097 8.4687-32.634 11.564-49.192 3.606-19.292 6.1332-38.79 8.1398-58.313 2.1875-21.283 3.5193-42.662 4.2428-64.045 0.7446-22.006 0.7757-44.047 0.099-66.055-0.6593-21.441-1.9308-42.88-4.05-64.226-1.9496-19.638-4.424-39.251-7.964-58.665-3.0488-16.72-6.5151-33.42-11.415-49.694-3.8836-12.899-8.0048-25.875-14.202-37.835-4.4094-8.5094-8.9136-17.511-16.165-23.778-4.8179-4.1638-10.982-6.9121-17.188-8.338-4.7853-1.0994-14.73 1e-4 -14.73 1e-4" fill="none" stroke="#000" stroke-linejoin="round" stroke-width="3.664"/><path d="m1541.7 1264.9-18.804 8.717-12.079 15.576s9.3794-0.997 13.906 0c6.461 1.423 12.967 4.0575 18.011 8.3379 7.3077 6.2008 11.755 15.268 16.165 23.778 6.1977 11.961 10.319 24.936 14.202 37.835 4.8999 16.274 8.3662 32.974 11.415 49.694 3.54 19.414 6.0144 39.027 7.964 58.665 2.1192 21.346 3.3907 42.785 4.05 64.226 0.6767 22.008 0.6456 44.049-0.099 66.055-0.7235 21.383-2.0553 42.762-4.2428 64.045-2.0066 19.523-4.5338 39.021-8.1398 58.313-3.0949 16.558-6.6009 33.095-11.564 49.192-3.9156 12.7-8.0577 25.487-14.315 37.212-4.4274 8.2957-8.9614 17.111-16.235 23.07-4.8501 3.9733-11.034 6.5153-17.212 7.5862-4.0893 0.7089-12.419-0.8938-12.419-0.8938l10.591 19.874 18.804 8.717 18.804-8.717 17.711-25.646 15.588-41.084 12.561-54.134 8.803-64.038 4.533-70.22-0.5109-72.215-4.4211-70.112-8.6936-64.04-12.461-54.248-15.504-41.302-17.646-25.956z" display="none" fill="none" stroke="#000" stroke-linejoin="bevel" stroke-width="4"/><g transform="translate(16)" display="none" stroke="#000" stroke-width="4"><path d="m1525.7 1264.9 18.804 8.717h64l-18.804-8.717z" fill="#484019" stroke-linejoin="round"/><path d="m1544.5 1273.7h64l17.711 25.646h-64z" fill="#54481d" stroke-linejoin="bevel"/><path d="m1562.2 1299.3 15.588 41.084h64l-15.588-41.084z" fill="#605021" stroke-linejoin="bevel"/><path d="m1577.8 1340.4h64l12.561 54.134h-64z" fill="#6d5725" stroke-linejoin="bevel"/><path d="m1590.3 1394.5h64l8.803 64.038h-64z" fill="#7a5f2a" stroke-linejoin="bevel"/><path d="m1599.1 1458.6h64l4.533 70.22h-64z" fill="#88672f" stroke-linejoin="bevel"/><path d="m1603.7 1528.8h64v72.322h-64z" fill="#ac7d3c" stroke-linejoin="bevel"/><path d="m1603.7 1601.1h64l-4.533 70.22h-64z" fill="#845d30" stroke-linejoin="bevel"/><path d="m1599.1 1671.3-8.803 64.038h64l8.803-64.038z" fill="#714d2a" stroke-linejoin="bevel"/><path d="m1577.8 1789.5 12.561-54.134h64l-12.561 54.134z" fill="#5d3e24" stroke-linejoin="bevel"/><path d="m1562.2 1830.6 15.588-41.084h64l-15.588 41.084z" fill="#4a301e" stroke-linejoin="bevel"/><path d="m1544.5 1856.2 17.711-25.646h64l-17.711 25.646z" fill="#372317" stroke-linejoin="bevel"/><path d="m1525.7 1864.9 18.804-8.717h64l-18.804 8.717z" fill="#24170f" stroke-linejoin="bevel"/></g></g></g><g transform="translate(25.378 -.51902)" stroke="#000"><g transform="translate(651.34 -1019)"><path d="m1644.7 1874.4h46.393s14.228-4.1586 19.811-8.7319c8.3724-6.8589 13.591-17.005 18.687-26.553 7.2025-13.495 11.97-28.213 16.477-42.831 5.7121-18.527 9.7475-37.562 13.31-56.62 4.1506-22.205 7.0595-44.647 9.3691-67.119 2.5178-24.497 4.0506-49.104 4.8834-73.716 0.8571-25.329 0.8931-50.699 0.1143-76.03-0.7588-24.679-2.2223-49.355-4.6615-73.925-2.244-22.603-5.0922-45.178-9.1667-67.524-3.5092-19.245-7.4987-38.466-13.138-57.198-4.4701-14.847-9.2136-29.782-16.347-43.549-5.0752-9.7943-10.26-20.155-18.606-27.368-5.5454-4.7925-19.783-9.597-19.783-9.597h-46.393" fill="#483012" stroke-linejoin="round" stroke-width="4.2176"/><path d="m1645.6 1243.7c-7.2153-0.1318-14.228 4.1585-19.811 8.7317-8.3724 6.8588-18.687 26.553-18.687 26.553l-16.477 42.831-13.31 56.62-9.3689 67.119-4.8835 73.716-0.1143 76.03 4.6616 73.925 9.1666 67.524 13.138 57.198 16.347 43.548s10.26 20.155 18.606 27.368c5.5454 4.7925 12.455 9.4632 19.783 9.597 7.2154 0.1317 14.228-4.1586 19.811-8.7319 8.3724-6.8588 13.591-17.005 18.687-26.553 7.2025-13.495 11.97-28.213 16.477-42.831 5.7121-18.527 9.7475-37.562 13.31-56.62 4.1506-22.205 7.0595-44.647 9.3691-67.119 2.5178-24.497 4.0505-49.104 4.8834-73.716 0.8571-25.329 0.8933-50.699 0.1145-76.03-0.7588-24.679-2.2225-49.355-4.6617-73.925-2.244-22.603-5.0921-45.178-9.1666-67.524-3.5092-19.245-7.4988-38.466-13.139-57.198-4.47-14.847-9.2135-29.782-16.347-43.549-5.0752-9.7944-10.26-20.155-18.606-27.368-5.5454-4.7925-12.455-9.4632-19.783-9.597z" fill="#5e3d20" stroke-linejoin="bevel" stroke-width="4.2176"/><path d="m1769.3 1557.6-33.524-19.355v38.71z" fill="#ac7d3c" stroke-linejoin="bevel" stroke-width="4"/></g><path d="m2296.2 855.82h-124.47s-14.238-4.1615-19.824-8.7378c-8.3779-6.8635-13.6-17.016-18.699-26.571-7.2074-13.504-11.978-28.232-16.488-42.86-5.716-18.54-9.7541-37.588-13.319-56.658-4.1533-22.22-7.064-44.677-9.3752-67.164-2.5195-24.514-4.0533-49.138-4.8867-73.766-0.8577-25.346-0.8938-50.733-0.1145-76.081 0.7592-24.696 2.2239-49.388 4.6647-73.975 2.2455-22.618 5.0954-45.208 9.1727-67.569 3.5116-19.258 7.5039-38.492 13.148-57.237 4.4731-14.857 9.2199-29.802 16.358-43.578 5.0786-9.8009 10.266-20.169 18.618-27.386 5.5492-4.7958 19.797-9.6036 19.797-9.6036h125.42" fill="#5e3d20" stroke-linejoin="bevel" stroke-width="3.9861"/><path d="m2172.7 225.06c-7.2153-0.1318-14.228 4.1585-19.811 8.7317-8.3724 6.8588-13.591 17.005-18.687 26.553-7.2025 13.495-11.97 28.213-16.477 42.831-5.7122 18.527-9.7477 37.562-13.31 56.62-4.1506 22.205-7.0593 44.647-9.3689 67.119-2.5178 24.497-4.0507 49.105-4.8835 73.716-0.8571 25.329-0.8931 50.699-0.1143 76.03 0.7588 24.679 2.2224 49.355 4.6616 73.925 2.244 22.603 5.0921 45.178 9.1666 67.524 3.5091 19.245 7.4987 38.466 13.138 57.198 4.47 14.847 9.2137 29.782 16.347 43.548 5.0752 9.7944 10.26 20.155 18.606 27.368 5.5454 4.7925 12.455 9.4632 19.783 9.597 7.2154 0.1317 14.228-4.1586 19.811-8.7319 8.3724-6.8588 13.591-17.005 18.687-26.553 7.2025-13.495 11.97-28.213 16.477-42.831 5.7121-18.527 9.7475-37.562 13.31-56.62 4.1506-22.205 7.0595-44.647 9.3691-67.119 2.5178-24.497 4.0505-49.104 4.8834-73.716 0.8571-25.329 0.8933-50.699 0.1145-76.03-0.7588-24.679-2.2225-49.355-4.6617-73.925-2.244-22.603-5.0921-45.178-9.1666-67.524-3.5092-19.245-7.4988-38.466-13.139-57.198-4.47-14.847-9.2135-29.782-16.347-43.549-5.0752-9.7944-10.26-20.155-18.606-27.368-5.5454-4.7925-12.455-9.4632-19.783-9.597z" fill="#5e3d20" stroke-linejoin="bevel" stroke-width="4.2176"/></g></g></svg>
