<?xml version="1.0" encoding="UTF-8"?>
<svg width="1920" height="1080" version="1.1" viewBox="0 0 1920 1080" xml:space="preserve" xmlns="http://www.w3.org/2000/svg"><g transform="matrix(.58767 0 0 .58767 586.32 970.86)"><g transform="matrix(1.0614 0 0 1.0614 473.97 -1537.4)" stroke-linejoin="round"><path d="m496.57 792.39c-12.593 5.7627-27.692 4.6302-41.44 2.965-18.081-2.19-36.131-7.8464-51.992-16.798-21.331-12.039-42.057-27.693-55.479-48.182-15.431-23.556-23.79-52.483-25.304-80.602-0.67029-12.452 1.762-25.52 7.3085-36.688 8.4614-17.038 19.994-36.163 37.856-42.707 23.611-8.6499 51.699 0.525 74.665 10.767 30.384 13.55 58.33 36.174 76.606 63.973 18.4 27.988 36.771 63.871 28.553 96.343-5.8813 23.239-28.976 40.955-50.775 50.931z" fill="#6e5225" stroke="#000" stroke-linecap="round" stroke-width="6" style="paint-order:markers fill stroke"/><path d="m899.37 462.47-51.359-96.052-76.724-97.743s30.553-27.524 49.781-30.359c20.705-3.0528 42.595 5.4323 60.759 15.829 27.705 15.858 52.763 39.498 67.751 67.683 12.962 24.375 24.542 55.13 15.769 81.306-9.3994 28.045-65.978 59.336-65.978 59.336z" fill="#6e5225" stroke="#000" stroke-linecap="round" stroke-width="6" style="paint-order:markers fill stroke"/><path d="m390.35 562.66 380.94-293.99s49.7 4.2462 71.651 14.887c20.521 9.9478 38.509 25.893 52.419 43.965 16.221 21.074 33.996 45.619 33.92 72.213-0.065 23.165-29.907 62.731-29.907 62.731l-366.19 301.62s32.131-25.664 35.83-44.289c6.5244-32.853-9.9539-68.486-28.553-96.343-16.88-25.282-42.396-46.691-70.827-57.451-24.738-9.3625-79.281-3.3403-79.281-3.3403z" fill="#84622c" stroke="#000" stroke-linecap="round" stroke-width="6" style="paint-order:markers fill stroke"/><path d="m517.22 523.34 328.04-238.42" display="none" fill="#855b19" stroke="#000" stroke-linecap="round" stroke-width="10.834" style="paint-order:markers fill stroke"/><path d="m895.36 327.52-304.92 256.41" display="none" fill="#855b19" stroke="#000" stroke-linecap="round" stroke-width="10.834" style="paint-order:markers fill stroke"/><path d="m929.28 399.73-310.28 280.54" display="none" fill="#855b19" stroke="#000" stroke-linecap="round" stroke-width="10.834" style="paint-order:markers fill stroke"/><path d="m431.36 547.81 361.6-279.14" fill="none" stroke="#000" stroke-linecap="round" stroke-width="6" style="paint-order:markers fill stroke"/><path d="m496.49 576.56 352.32-279.65" fill="none" stroke="#000" stroke-linecap="round" stroke-width="6" style="paint-order:markers fill stroke"/><path d="m534.07 608.77 352.56-287.56" fill="none" stroke="#000" stroke-linecap="round" stroke-width="6" style="paint-order:markers fill stroke"/><path d="m456.14 552.5 348.54-270.97" fill="none" stroke="#000" stroke-linecap="round" stroke-width="6" style="paint-order:markers fill stroke"/><path d="m899.38 340.72-300.99 248.57" display="none" fill="none" stroke="#000" stroke-linecap="round" stroke-width="10.834" style="paint-order:markers fill stroke"/><path d="m565.31 661.78 350.97-288.94" fill="none" stroke="#000" stroke-linecap="round" stroke-width="6" style="paint-order:markers fill stroke"/><path d="m623.75 647.62 302.68-249.41" display="none" fill="none" stroke="#000" stroke-linecap="round" stroke-width="10.834" style="paint-order:markers fill stroke"/><path d="m573.67 710.49 348.14-284.85" fill="none" stroke="#000" stroke-linecap="round" stroke-width="6" style="paint-order:markers fill stroke"/><path d="m716.52 307.26s10.734-31.922 23.311-41.68c12.145-9.4224 29.243-10.752 44.579-11.802 18.431-1.2613 37.737 0.19789 55.009 6.7524 22.118 8.3936 41.667 23.586 58.444 40.264 15.413 15.323 29.422 33.221 37.306 53.474 8.3678 21.495 11.165 45.602 9.1997 68.585-0.92622 10.83-3.9774 21.91-9.7602 31.114-5.756 9.161-13.943 17.488-23.687 22.191-9.5192 4.595-31.37 4.6327-31.37 4.6327s15.762-8.389 21.502-14.971c6.3298-7.2571 11.939-16.176 13.132-25.732 3.8932-31.176-4.3867-65.172-20.884-91.91-17.689-28.669-46.131-53.404-78.035-64.218-23.301-7.8979-50.77-6.1699-73.765 2.5813-10.111 3.848-15.045 16.722-24.983 20.717z" fill="#a06e1f" stroke="#000" stroke-linecap="round" stroke-width="5.9981" style="paint-order:markers fill stroke"/><g fill="#af8b54" stroke="#000" stroke-linecap="round" stroke-width="3"><path d="m663.53 341.32 15.458-1.4121-22.254 16.523z"/><path d="m703.85 311.71 15.458-1.4121-22.254 16.523z"/><path d="m622.97 372.94 15.458-1.4121-22.254 16.523z"/><path d="m579.6 406.47 15.458-1.4121-22.254 16.523z"/><path d="m540.49 436.64 15.458-1.4121-22.254 16.523z"/><path d="m498.69 469.49 15.458-1.4121-22.254 16.523z"/><path d="m455.97 502.47 15.458-1.4121-22.254 16.523z"/></g><g fill="#6f5836" stroke="#000" stroke-linecap="round" stroke-width="3"><path d="m626.6 695.17-14.721 4.429 16.033-13.206z"/><path d="m666.16 661.61-14.721 4.429 16.033-13.206z"/><path d="m707.95 628.17-14.721 4.429 16.033-13.206z"/><path d="m747.39 595.42-14.721 4.429 16.033-13.206z"/><path d="m787.85 562.48-14.721 4.429 16.033-13.206z"/><path d="m829 527.69-14.721 4.429 16.033-13.206z"/><path d="m870.48 494.08-14.721 4.429 16.033-13.206z"/></g><g stroke="#000"><path d="m629.07 687.88-2.4745 7.2895-13.558 5.9161 6.8356-5.106 3.765-19.247v-33.12l-5.474-34.758-27.094-44.338-28.465-30.793-34.212-18.885-32.248-7.6332-33.666 0.74032-13.305 9.6352 6.7964-15.111 43.034-2.5689 33.939 8.7585 35.034 19.707 29.475 31.131 28.55 44.411 5.474 37.224v30.655z" fill="#5e4722" stroke-width="3"/><path d="m334.77 598.3s5.3784-17.428 11.255-24.045c9.5152-10.714 22.67-18.98 36.509-22.696 21.462-5.7626 45.267-4.0072 66.632 2.103 24.236 6.9312 46.563 21.209 65.418 37.94 15.957 14.159 29.401 31.839 38.468 51.149 11.342 24.153 19.443 51.217 18.499 77.883-0.38457 10.863-3.9774 21.91-9.7602 31.114-5.756 9.161-23.687 22.191-23.687 22.191l-15.097 5.7951s20.329-26.935 22.015-42.927c3.2887-31.195-7.5311-64.49-24.538-90.848-18.264-28.306-47.077-50.936-78.035-64.218-22.766-9.767-49.84-15.466-73.765-9.0424-13.68 3.6728-33.915 25.6-33.915 25.6z" fill="#a06e1f" stroke-linecap="round" stroke-width="6" style="paint-order:markers fill stroke"/><path d="m522.74 633.7h21.37l-6.5754 23.836z" fill="#e0c86c" stroke-linecap="round" stroke-width="3"/><path d="m920.55 348.49h-21.37l6.5754-23.836z" fill="#e0c86c" stroke-linecap="round" stroke-width="3"/><path d="m667.36 654.23-2.4745 7.2895-13.558 5.9161 6.8356-5.106 3.765-19.247v-33.12l-5.474-34.758-27.094-44.338-28.465-30.793-34.212-18.885-32.248-7.6332-31.411 2.788-10.916 7.7931 6.5857-14.642 38.601-3.2428 33.939 8.7585 35.034 19.707 29.475 31.131 28.55 44.411 5.474 37.224v30.655z" fill="#5e4722" stroke-width="3"/><path d="m709.59 622.05-1.6369 6.1272-13.54 2.9322 6.8356-5.106 2.909-15.1v-33.12l-5.474-34.758-27.094-44.338-28.465-30.793-34.212-18.885-32.248-7.6332-33.019 2.9862-9.3084 7.5949 6.5857-14.642 38.601-3.2428 33.939 8.7585 35.034 19.707 29.475 31.131 28.55 44.411 5.474 37.224v30.655z" fill="#5e4722" stroke-width="3"/><path d="m751.02 590.71-3.6369 4.7083-13.54 2.9322 9.3307-7.9311 3.6878-20.32-1.2739-23.656-5.474-34.758-27.094-44.338-28.465-30.793-34.212-18.885-32.248-8.2144-33.167 2.7305-12.129 9.3886 6.7964-15.111 41.359-3.7312 33.939 8.7585 35.034 19.707 29.475 31.131 28.55 44.411 5.474 37.224v30.655z" fill="#5e4722" stroke-width="3"/><path d="m791.49 557.77-3.6369 4.7083-13.54 2.9322 9.3307-7.9311 4.2689-19.739-1.2739-23.656-5.474-34.758-27.094-44.338-28.465-30.793-34.212-18.885-32.248-8.2144-33.167 2.7305-9.8046 8.2262 6.7964-15.111 39.034-2.5689 33.939 8.7585 35.034 19.707 29.475 31.131 28.55 44.411 5.474 37.224v30.655z" fill="#5e4722" stroke-width="3"/><path d="m831.17 518.64-2.1734 9.0465-9.7929 2.9464 2.7044-7.7098 4.8237-17.65-1.2739-23.656-5.474-34.758-27.094-44.338-28.465-30.793-34.212-18.885-32.248-8.2144-31.423 3.5681-9.8046 8.2262 6.7964-15.111 37.29-3.4065 33.939 8.7585 35.034 19.707 29.475 31.131 28.55 44.411 5.474 37.224v30.655z" fill="#5e4722" stroke-width="3"/><path d="m872.65 485.04-2.1734 9.0465-11.273 3.3918 4.1849-8.1552 3.1564-15.017-1.2739-23.656-5.474-34.758-27.094-44.338-28.465-30.793-34.212-18.885-32.248-8.2144-30.918 4.9348-9.8046 8.2262 6.7964-15.111 36.785-4.7731 33.939 8.7585 35.034 19.707 29.475 31.131 28.55 44.411 5.474 37.224v30.655z" fill="#5e4722" stroke-width="3"/><path d="m585.5 721-1.3122 8.7766-14.721 4.429 6.8356-5.106 3.765-19.247v-33.12l-5.474-34.758-27.094-44.338-28.465-30.793-34.212-18.885-32.248-7.6332-33.666 0.74032-13.305 9.6352 6.7964-15.111 43.034-2.5689 33.939 8.7585 35.034 19.707 29.475 31.131 28.55 44.411 5.474 37.224v30.655z" fill="#5e4722" stroke-width="3"/></g><g fill="#aa7f43" stroke="#000" stroke-width="3"><path d="m870.48 494.08 3.137-14.477v-30.655l-5.474-37.224-29.56-45.982-28.465-29.56-35.034-19.707-33.939-8.7585-37.29 3.9877 22.785-18.752 41.94-4.5689 33.939 8.7585 35.034 19.707 28.465 29.56 29.56 45.982 5.474 37.224v30.655l-4.2994 13.895z"/><path d="m829 527.69 4.2994-17.895v-30.655l-5.474-37.224-29.56-45.982-28.465-29.56-35.034-19.707-33.939-8.7585-37.29 3.4065 25.691-18.171 39.034-4.5689 33.939 8.7585 35.034 19.707 28.465 29.56 29.56 45.982 5.474 37.224v30.655l-3.137 14.408z"/><path d="m787.85 562.48 6.6241-20.22v-30.655l-5.474-37.224-29.56-45.982-28.465-29.56-35.034-19.707-33.939-8.7585-39.034 2.5689 27.435-19.333 39.034-2.5689 33.939 8.7585 35.034 19.707 28.465 29.56 29.56 45.982 5.474 37.224v30.655l-5.4617 15.571z"/><path d="m747.39 595.42 6.0429-20.801v-30.655l-5.4741-37.224-29.56-45.982-28.465-29.56-35.034-19.707-33.939-8.7585-41.359 3.7312 28.597-21.077 40.196-1.9877 33.939 8.7585 35.034 19.707 28.465 29.56 29.56 45.982 5.474 37.224v30.655l-5.4617 17.314z"/><path d="m707.95 628.17 4.0429-22.22v-30.655l-5.474-37.224-29.56-45.982-28.465-29.56-35.034-19.707-33.939-8.7585-39.034 2.5689 27.435-19.333 39.034-2.5689 33.939 8.7585 35.034 19.707 28.465 29.56 29.56 45.982 5.474 37.224v30.655l-4.0429 19.314z"/><path d="m666.16 661.61 4.0429-22.801v-30.655l-5.474-37.224-29.56-45.982-28.465-29.56-35.034-19.707-33.939-8.7585-39.034 2.5689 25.691-19.333 40.778-2.5689 33.939 8.7585 35.034 19.707 28.465 29.56 29.56 45.982 5.474 37.224v30.655l-2.8806 19.895z"/><path d="m626.6 695.17 2.8806-23.383v-30.655l-5.474-37.224-29.56-45.982-28.465-29.56-35.034-19.707-33.939-8.7585-41.034 2.5689 25.691-19.333 42.778-2.5689 33.939 8.7585 35.034 19.707 28.465 29.56 29.56 45.982 5.474 37.224v30.655l-5.2053 21.639z"/><path d="m584.19 729.77 3.7182-24.87v-30.655l-5.474-37.224-29.56-45.982-28.465-29.56-35.034-19.707-33.939-8.7585-43.034 2.5689 26.273-19.333 44.196-2.5689 33.939 8.7585 35.034 19.707 28.465 29.56 29.56 45.982 5.474 37.224v30.655l-3.7182 21.964z"/></g><path d="m514.56 769.22c-12.573 6.7634-29.214 7.8053-42.713 3.158-22.572-7.771-36.412-30.995-53.036-48.128-13.112-13.514-24.45-28.643-36.681-42.96-8.0842-9.4637-17.154-18.166-24.259-28.385-7.7633-11.165-20.209-22.05-19.844-35.644 0.49512-18.458 12.74-39.137 29.501-46.885 22.825-10.55 51.699 0.525 74.665 10.767 30.384 13.55 58.494 36.067 76.606 63.973 16.364 25.213 30.299 57.237 24.605 86.751-2.98 15.446-14.989 29.902-28.843 37.354z" fill="#151007" stroke="#000" stroke-linecap="round" stroke-width="6" style="paint-order:markers fill stroke"/><path d="m438.03 848.47c-11.052 1.3487-21.386 9.5054-32.423 8.0327-9.1583-1.222-17.548-7.0915-24.216-13.487-17.089-16.39-27.849-38.775-37.124-60.561-16.82-39.507-28.855-86.613-32.505-124.65-1.9856-29.95-4.6724-46.924 7.2544-65.459 6.7257-8.3177 24.309-15.122 37.586-16.939 10.808-1.4792 19.224-2.0904 27.959 1.1833 10.601 3.9731 18.963 12.788 26.517 21.22 13.38 14.936 25.065 32.072 32.214 50.807 17.731 46.467 32.982 98.221 24.359 147.2-3.491 19.831-12.941 41.367-29.622 52.647z" fill="#6e5225" stroke="#000" stroke-linecap="round" stroke-width="5.752" style="paint-order:markers fill stroke"/><path d="m899.37 462.47-51.359-96.052-76.724-97.743s30.553-27.524 49.781-30.359c20.705-3.0528 42.595 5.4323 60.759 15.829 27.705 15.858 52.763 39.498 67.751 67.683 12.962 24.375 24.542 55.13 15.769 81.306-9.3994 28.045-65.978 59.336-65.978 59.336z" display="none" fill="#6e5225" stroke="#000" stroke-linecap="round" stroke-width="6" style="paint-order:markers fill stroke"/><path d="m716.52 307.26s10.734-31.922 23.311-41.68c12.145-9.4224 29.243-10.752 44.579-11.802 18.431-1.2613 37.737 0.19789 55.009 6.7524 22.118 8.3936 41.667 23.586 58.444 40.264 15.413 15.323 29.422 33.221 37.306 53.474 8.3678 21.495 11.165 45.602 9.1997 68.585-0.92622 10.83-3.9774 21.91-9.7602 31.114-5.756 9.161-13.943 17.488-23.687 22.191-9.5192 4.595-31.37 4.6327-31.37 4.6327s15.762-8.389 21.502-14.971c6.3298-7.2571 11.939-16.176 13.132-25.732 3.8932-31.176-4.3867-65.172-20.884-91.91-17.689-28.669-46.131-53.404-78.035-64.218-23.301-7.8979-50.77-6.1699-73.765 2.5813-10.111 3.848-15.045 16.722-24.983 20.717z" display="none" fill="#a06e1f" stroke="#000" stroke-linecap="round" stroke-width="6" style="paint-order:markers fill stroke"/><path d="m324.49 589.57c3.4253-1.1921 10.796-4.497 13.574-4.398 13.495 0.48097 28.029 16.778 38.708 28.804 9.9848 11.245 17.273 25.01 22.462 39.124 15.57 42.349 27.29 88.045 24.696 133.09-1.315 22.833 4.9032 69.389-20.18 65.577l-14.799-2.2494" fill="none" stroke="#423216" stroke-linecap="round" stroke-width="2.876"/></g><g transform="matrix(1.0614 0 0 1.0614 618.45 -1595.4)"><path d="m941.17 496.61c-13.652 16.005-30.908 35.535-45.869 50.068-0.033 0.03-0.0608 0.0791-0.0941 0.10907-2.5343 2.4585-5.1312 5.0159-7.4368 7.0659-26.819 23.845-70.689 55.043-107.86 80.271-18.585 12.614-35.495 23.733-47.758 31.704-12.262 7.9702-19.882 12.783-19.882 12.783s2.6756-14.448 2.2768-26.645c-0.13329-4.0656-0.60666-7.8781-1.6358-10.826-4.3209-12.371-12.864-25.375-24.992-30.338-18.591-7.6081-40.833-20.076-60.119 1.8719-1.2851 1.4623-2.5538 3.0759-3.8112 4.8568-33.629 67.348 7.8464 84.994 32.564 117.1 19.421 25.227 53.65 34.633 82.412 48.28 52.777 25.043 164.25 61.114 164.25 61.114 0.34509-0.38413 0.89469-0.86036 0.89469-0.86036 10.309-10.977 28.147-30.075 28.685-48.989-0.88634-5.0964-2.0268-9.5486-3.4731-13.289-2.155-3.9032-5.1562-7.3588-8.6004-9.7809-10.559-7.4253-38.331-5.4975-38.331-5.4975l57.505-80.625 118.08-168.72s-73.438-3.622-107.79-15.329c-2.9519-1.0056-5.9649-2.5467-9.0052-4.334zm-37.066 346.56c1.8e-4 -5e-5 6.8999 0.84907 14.149-1.7706-4.7394 1.6578-14.149 1.7706-14.149 1.7706z" fill="#f8f8f7" stroke="#000" stroke-linecap="round" stroke-linejoin="round" stroke-width="4" style="paint-order:markers fill stroke"/><path d="m818.64 770.53c9.1683-12.754 14.189-29.566 25.29-40.907 6.2989-6.4349 4.2024 15.071 12.645 15.071 0.70282 0 1.6578 0.55173 2.1076 0 13.891-17.029 25.114-38.978 35.828-58.131 2.338-4.1799 3.62-8.974 6.3225-12.918 2.2789-3.3259 5.8438-5.5297 8.43-8.612 4.9773-5.932 2.6907-6.3676 8.4301-10.765 5.4939-4.2095 11.06-2.6132 16.86-4.306 5.9338-1.7319 17.292-7.7652 21.075-12.918 8.6529-11.786 12.808-30.308 23.183-40.907 1.3134-1.3417 16.251-1.4591 18.968-2.153 10.173-2.5982 23.183-18.054 23.183-27.989" fill="none" stroke="#656565" stroke-linejoin="bevel" stroke-width="8.6342"/><path d="m748.69 729.62c0.21844 26.036-2.7631 28.534 10.538-8e-5 12.804-27.469 40.407-93.307 63.225-111.96 10.927-8.9308 6.8017 7.9282 8.4301 12.918 1.4425 4.4201 6.5672 13.87 12.645 10.765 4.0233-2.0557 5.5026-7.276 8.43-10.765 8.2499-9.8322 16.802-20.773 27.398-27.989 3.2498-2.2138 11.113 1.4873 14.753-1.7e-4 4.7036-1.9214 7.9887-6.5734 12.645-8.6119 2.6625-1.1653 5.7675-0.98792 8.429-2.1571 16.21-7.0973 23.324-23.325 33.72-36.601 2.516-3.2125 8.4302-6.3295 8.4302-10.765" fill="none" stroke="#656565" stroke-linejoin="bevel" stroke-width="8.6342"/><path d="m1105.5 492.19c-18.352 0.0427-36.873 4.0063-47.539 24.081l-118.08 168.72-57.505 80.625s27.772-1.9279 38.331 5.4975c7.0406 4.9514 12.265 14.211 12.091 22.817-0.38453 18.996-18.347 38.215-28.702 49.242 0 0 10.062-0.0824 14.638-1.8887 15.381-6.072 28.455-17.403 40.287-28.955 15.925-15.548 27.323-35.146 40.237-53.272 33.353-46.816 96.123-143.17 96.123-143.17s39.203-48.168 50.017-76.713c3.8504-10.163 9.6927-22.578 4.7556-32.26-4.5533-8.927-16.648-13.211-26.645-13.912-5.7815-0.40544-11.893-0.8238-18.01-0.80955z" fill="#f8f8f7" stroke="#000" stroke-linecap="round" stroke-linejoin="round" stroke-width="4" style="paint-order:markers fill stroke"/><path d="m680.05 687.73c0-4.6129-0.6113-10.836 1.8906-15.126 6.3654-10.912 28.857-40.898 41.595-47.267 2.8652-1.4327 8.5973 3.4365 13.235 1.8906 5.2426-1.7475 6.8841-7.2235 11.344-9.4536 0.56381-0.28147 1.445 0.44552 1.8907 0 0.44553-0.44552-0.44552-1.445 0-1.8906 1.1993-1.1994 5.9886 0.78657 7.5628 0 5.1867-2.5933 11.584-28.521 22.688-35.923 4.0863-2.7242 10.436 2.382 13.235 3.7814 2.069 1.0345 8.9118 0.60785 11.344 0 14.631-3.6576 16.957-26.44 24.579-30.251 6.073-3.0365 9.924 2.8404 15.126-7.5628" fill="none" stroke="#656565" stroke-linejoin="bevel" stroke-width="8.6342"/><path d="m892.79 406.39c-15.582-0.6621-29.675 13.574-43.39 21.855-51.788 31.268-144.13 110.29-144.13 110.29-18.664 7.6976-76.484 54.025-81.283 79.006 20.12-28.493 44.1-14.844 63.93-6.7287 12.128 4.9632 20.67 17.967 24.992 30.338 4.1185 11.792-0.64093 37.471-0.64093 37.471s121.86-77.066 175.5-124.76c27.58-24.522 74.267-82.109 74.267-82.109 2.2226-51.938-35.652-59.736-66.105-65.026-1.052-0.18224-2.0988-0.29337-3.1364-0.33657z" fill="#f8f8f7" stroke="#000" stroke-linecap="round" stroke-linejoin="round" stroke-width="4" style="paint-order:markers fill stroke"/></g></g></svg>
