<?xml version="1.0" encoding="UTF-8" standalone="no"?>
<!-- Created with Inkscape (http://www.inkscape.org/) -->

<svg
   width="1920"
   height="1080"
   viewBox="0 0 1920 1080"
   version="1.1"
   id="svg1"
   xml:space="preserve"
   xmlns="http://www.w3.org/2000/svg"
   xmlns:svg="http://www.w3.org/2000/svg"><defs
     id="defs1" /><g
     id="g4315"
     style="display:inline"
     transform="matrix(0.58767041,0,0,0.58767041,586.3225,970.85657)"><g
       id="g4304"
       style="display:inline"
       transform="matrix(1.0614097,0,0,1.0614097,473.96564,-1537.407)"><path
         id="path4256"
         style="fill:#6e5225;fill-opacity:1;stroke:#000000;stroke-width:6;stroke-linecap:round;stroke-linejoin:round;stroke-dasharray:none;paint-order:markers fill stroke"
         d="m 496.57388,792.39202 c -12.59258,5.76273 -27.69162,4.63024 -41.43968,2.96504 -18.08052,-2.18997 -36.13074,-7.84635 -51.99175,-16.79786 -21.33086,-12.03854 -42.05722,-27.69295 -55.47885,-48.18176 -15.43093,-23.55609 -23.78991,-52.48284 -25.30361,-80.60243 -0.67029,-12.45175 1.76205,-25.52012 7.30851,-36.68847 8.46143,-17.03792 19.99359,-36.16333 37.85596,-42.70717 23.61115,-8.64989 51.69938,0.525 74.66484,10.76681 30.3837,13.55009 58.33029,36.17384 76.60585,63.97273 18.40008,27.98831 36.77086,63.87135 28.55326,96.34256 -5.88131,23.23949 -28.97649,40.95512 -50.77453,50.93055 z" /><path
         id="path4257"
         style="fill:#6e5225;fill-opacity:1;stroke:#000000;stroke-width:6;stroke-linecap:round;stroke-linejoin:round;stroke-dasharray:none;paint-order:markers fill stroke"
         d="m 899.37475,462.46584 -51.359,-96.05232 -76.72351,-97.74339 c 0,0 30.55278,-27.52391 49.78082,-30.35889 20.70522,-3.05278 42.59515,5.43231 60.75906,15.82933 27.70452,15.85806 52.76327,39.49798 67.75099,67.68284 12.96184,24.37514 24.54229,55.13035 15.76921,81.30649 -9.39941,28.04491 -65.97757,59.33594 -65.97757,59.33594 z" /><path
         style="fill:#84622c;fill-opacity:1;stroke:#000000;stroke-width:6;stroke-linecap:round;stroke-linejoin:round;stroke-dasharray:none;stroke-dashoffset:0;stroke-opacity:1;paint-order:markers fill stroke"
         d="M 390.35469,562.65992 771.29224,268.67013 c 0,0 49.70011,4.24625 71.65063,14.8869 20.52119,9.94782 38.5092,25.89309 52.41943,43.96463 16.22142,21.07416 33.99622,45.61908 33.91973,72.21324 -0.065,23.16511 -29.90728,62.73094 -29.90728,62.73094 l -366.18878,301.6172 c 0,0 32.13141,-25.6638 35.8303,-44.28943 6.52438,-32.85333 -9.95389,-68.48629 -28.55326,-96.34256 -16.88041,-25.28178 -42.39569,-46.69065 -70.82692,-57.45082 -24.73817,-9.36248 -79.2814,-3.34031 -79.2814,-3.34031 z"
         id="path4258" /><path
         style="display:none;fill:#855b19;fill-opacity:1;stroke:#000000;stroke-width:10.8339;stroke-linecap:round;stroke-linejoin:round;stroke-dasharray:none;stroke-dashoffset:0;stroke-opacity:1;paint-order:markers fill stroke"
         d="M 517.22087,523.33964 845.2648,284.91593"
         id="path4259" /><path
         style="display:none;fill:#855b19;fill-opacity:1;stroke:#000000;stroke-width:10.8339;stroke-linecap:round;stroke-linejoin:round;stroke-dasharray:none;stroke-dashoffset:0;stroke-opacity:1;paint-order:markers fill stroke"
         d="M 895.3623,327.52166 590.4448,583.93056"
         id="path4260" /><path
         style="display:none;fill:#855b19;fill-opacity:1;stroke:#000000;stroke-width:10.8339;stroke-linecap:round;stroke-linejoin:round;stroke-dasharray:none;stroke-dashoffset:0;stroke-opacity:1;paint-order:markers fill stroke"
         d="M 929.28203,399.7349 618.99806,680.27312"
         id="path4261" /><path
         style="fill:none;fill-opacity:1;stroke:#000000;stroke-width:6;stroke-linecap:round;stroke-linejoin:round;stroke-dasharray:none;stroke-dashoffset:0;stroke-opacity:1;paint-order:markers fill stroke"
         d="M 431.36021,547.80641 792.9601,268.67013"
         id="path4262" /><path
         style="display:inline;fill:none;fill-opacity:1;stroke:#000000;stroke-width:6;stroke-linecap:round;stroke-linejoin:round;stroke-dasharray:none;stroke-dashoffset:0;stroke-opacity:1;paint-order:markers fill stroke"
         d="M 496.49231,576.56173 848.81,296.91593"
         id="path4263" /><path
         style="fill:none;fill-opacity:1;stroke:#000000;stroke-width:6;stroke-linecap:round;stroke-linejoin:round;stroke-dasharray:none;stroke-dashoffset:0;stroke-opacity:1;paint-order:markers fill stroke"
         d="M 534.07273,608.7686 886.62908,321.20734"
         id="path4264" /><path
         style="fill:none;fill-opacity:1;stroke:#000000;stroke-width:6;stroke-linecap:round;stroke-linejoin:round;stroke-dasharray:none;stroke-dashoffset:0;stroke-opacity:1;paint-order:markers fill stroke"
         d="m 456.14143,552.50412 348.54055,-270.97"
         id="path4265" /><path
         style="display:none;fill:none;fill-opacity:1;stroke:#000000;stroke-width:10.8339;stroke-linecap:round;stroke-linejoin:round;stroke-dasharray:none;stroke-dashoffset:0;stroke-opacity:1;paint-order:markers fill stroke"
         d="M 899.37518,340.71728 598.3864,589.28674"
         id="path4266" /><path
         style="fill:none;fill-opacity:1;stroke:#000000;stroke-width:6;stroke-linecap:round;stroke-linejoin:round;stroke-dasharray:none;stroke-dashoffset:0;stroke-opacity:1;paint-order:markers fill stroke"
         d="M 565.3141,661.78073 916.28467,372.84541"
         id="path4267" /><path
         style="display:none;fill:none;fill-opacity:1;stroke:#000000;stroke-width:10.8339;stroke-linecap:round;stroke-linejoin:round;stroke-dasharray:none;stroke-dashoffset:0;stroke-opacity:1;paint-order:markers fill stroke"
         d="M 623.75069,647.62442 926.43032,398.20959"
         id="path4268" /><path
         style="display:inline;fill:none;fill-opacity:1;stroke:#000000;stroke-width:6;stroke-linecap:round;stroke-linejoin:round;stroke-dasharray:none;stroke-dashoffset:0;stroke-opacity:1;paint-order:markers fill stroke"
         d="M 573.66574,710.49467 921.80889,425.64077"
         id="path4269" /><path
         style="display:inline;fill:#a06e1f;fill-opacity:1;stroke:#000000;stroke-width:5.99811;stroke-linecap:round;stroke-linejoin:round;stroke-dasharray:none;stroke-dashoffset:0;stroke-opacity:1;paint-order:markers fill stroke"
         d="m 716.51956,307.25742 c 0,0 10.73402,-31.92227 23.31143,-41.68004 12.14507,-9.42236 29.24323,-10.75202 44.57888,-11.8015 18.4307,-1.26129 37.73661,0.19789 55.00854,6.75244 22.11807,8.39362 41.66694,23.58561 58.44421,40.26449 15.41325,15.32287 29.42162,33.2209 37.30608,53.47414 8.36784,21.49492 11.1652,45.60216 9.19969,68.58452 -0.92622,10.83006 -3.97739,21.91019 -9.76018,31.11386 -5.75602,9.16105 -13.94324,17.48791 -23.68677,22.19113 -9.51923,4.59495 -31.3704,4.6327 -31.3704,4.6327 0,0 15.76155,-8.38895 21.50221,-14.97065 6.32975,-7.25709 11.9391,-16.17625 13.13246,-25.73167 3.89317,-31.1755 -4.38672,-65.17229 -20.88392,-91.91007 -17.68887,-28.66918 -46.13055,-53.40399 -78.03474,-64.21791 -23.30112,-7.89791 -50.77027,-6.16986 -73.76454,2.58129 -10.11098,3.84803 -15.04486,16.72177 -24.98295,20.71727 z"
         id="path4270" /><g
         id="g4277"><path
           style="fill:#af8b54;fill-opacity:1;stroke:#000000;stroke-width:3;stroke-linecap:round;stroke-linejoin:round;stroke-dasharray:none;stroke-opacity:1"
           d="m 663.5339,341.31555 15.45765,-1.41206 -22.25404,16.52287 z"
           id="path4271" /><path
           style="fill:#af8b54;fill-opacity:1;stroke:#000000;stroke-width:3;stroke-linecap:round;stroke-linejoin:round;stroke-dasharray:none;stroke-opacity:1"
           d="m 703.8522,311.7092 15.45765,-1.41206 -22.25404,16.52287 z"
           id="path4272" /><path
           style="fill:#af8b54;fill-opacity:1;stroke:#000000;stroke-width:3;stroke-linecap:round;stroke-linejoin:round;stroke-dasharray:none;stroke-opacity:1"
           d="m 622.96747,372.94299 15.45765,-1.41206 -22.25404,16.52287 z"
           id="path4273" /><path
           style="fill:#af8b54;fill-opacity:1;stroke:#000000;stroke-width:3;stroke-linecap:round;stroke-linejoin:round;stroke-dasharray:none;stroke-opacity:1"
           d="m 579.59897,406.46572 15.45765,-1.41206 -22.25404,16.52287 z"
           id="path4274" /><path
           style="fill:#af8b54;fill-opacity:1;stroke:#000000;stroke-width:3;stroke-linecap:round;stroke-linejoin:round;stroke-dasharray:none;stroke-opacity:1"
           d="m 540.48874,436.63633 15.45765,-1.41206 -22.25404,16.52287 z"
           id="path4275" /><path
           style="fill:#af8b54;fill-opacity:1;stroke:#000000;stroke-width:3;stroke-linecap:round;stroke-linejoin:round;stroke-dasharray:none;stroke-opacity:1"
           d="m 498.69241,469.49004 15.45765,-1.41206 -22.25404,16.52287 z"
           id="path4276" /><path
           style="fill:#af8b54;fill-opacity:1;stroke:#000000;stroke-width:3;stroke-linecap:round;stroke-linejoin:round;stroke-dasharray:none;stroke-opacity:1"
           d="m 455.97266,502.47444 15.45765,-1.41206 -22.25404,16.52287 z"
           id="path4277" /></g><g
         id="g4284"
         style="fill:#6f5836;fill-opacity:1"><path
           style="fill:#6f5836;fill-opacity:1;stroke:#000000;stroke-width:3;stroke-linecap:round;stroke-linejoin:round;stroke-dasharray:none;stroke-opacity:1"
           d="m 626.59819,695.1735 -14.72054,4.42897 16.03271,-13.2056 z"
           id="path4278" /><path
           style="fill:#6f5836;fill-opacity:1;stroke:#000000;stroke-width:3;stroke-linecap:round;stroke-linejoin:round;stroke-dasharray:none;stroke-opacity:1"
           d="m 666.15557,661.60792 -14.72054,4.42897 16.03271,-13.2056 z"
           id="path4279" /><path
           style="fill:#6f5836;fill-opacity:1;stroke:#000000;stroke-width:3;stroke-linecap:round;stroke-linejoin:round;stroke-dasharray:none;stroke-opacity:1"
           d="m 707.9519,628.17303 -14.72054,4.42897 16.03271,-13.2056 z"
           id="path4280" /><path
           style="fill:#6f5836;fill-opacity:1;stroke:#000000;stroke-width:3;stroke-linecap:round;stroke-linejoin:round;stroke-dasharray:none;stroke-opacity:1"
           d="m 747.38686,595.42123 -14.72054,4.42897 16.03271,-13.2056 z"
           id="path4281" /><path
           style="fill:#6f5836;fill-opacity:1;stroke:#000000;stroke-width:3;stroke-linecap:round;stroke-linejoin:round;stroke-dasharray:none;stroke-opacity:1"
           d="m 787.84945,562.47969 -14.72054,4.42897 16.03271,-13.2056 z"
           id="path4282" /><path
           style="fill:#6f5836;fill-opacity:1;stroke:#000000;stroke-width:3;stroke-linecap:round;stroke-linejoin:round;stroke-dasharray:none;stroke-opacity:1"
           d="m 828.99706,527.68988 -14.72054,4.42897 16.03271,-13.2056 z"
           id="path4283" /><path
           style="fill:#6f5836;fill-opacity:1;stroke:#000000;stroke-width:3;stroke-linecap:round;stroke-linejoin:round;stroke-dasharray:none;stroke-opacity:1"
           d="m 870.47773,494.08352 -14.72054,4.42897 16.03271,-13.2056 z"
           id="path4284" /></g><g
         id="g4295"><path
           id="path4285"
           style="display:inline;fill:#5e4722;fill-opacity:1;stroke:#000000;stroke-width:3;stroke-linejoin:round;stroke-dasharray:none;stroke-opacity:1"
           d="m 629.07272,687.88398 -2.47453,7.28952 -13.55818,5.91608 6.83556,-5.10599 3.76502,-19.24668 v -33.12046 l -5.47405,-34.75783 -27.09415,-44.33823 -28.46509,-30.79278 -34.21204,-18.88467 -32.24777,-7.6332 -33.66603,0.74032 -13.30519,9.63519 6.79639,-15.11081 43.03395,-2.56886 33.93914,8.75849 35.03396,19.70659 29.47497,31.13083 28.55002,44.41114 5.47405,37.22358 v 30.65471 z" /><path
           style="fill:#a06e1f;fill-opacity:1;stroke:#000000;stroke-width:6;stroke-linecap:round;stroke-linejoin:round;stroke-dasharray:none;stroke-dashoffset:0;stroke-opacity:1;paint-order:markers fill stroke"
           d="m 334.7714,598.30403 c 0,0 5.37838,-17.42785 11.25466,-24.04462 9.5152,-10.71425 22.66965,-18.97997 36.50895,-22.69591 21.46161,-5.76258 45.26695,-4.00718 66.63221,2.10298 24.23636,6.93125 46.5629,21.20913 65.41841,37.93975 15.95743,14.15913 29.4007,31.83889 38.46845,51.14941 11.34169,24.15304 19.44269,51.21676 18.49863,77.88345 -0.38457,10.86279 -3.97739,21.91019 -9.76018,31.11386 -5.75602,9.16105 -23.68676,22.19114 -23.68676,22.19114 l -15.09727,5.79506 c 0,0 20.32917,-26.9347 22.01517,-42.92714 3.2887,-31.19481 -7.53109,-64.49025 -24.53756,-90.84762 -18.26397,-28.30628 -47.07653,-50.93608 -78.03474,-64.21791 -22.76554,-9.76697 -49.83962,-15.46588 -73.76454,-9.04237 -13.67969,3.67281 -33.91543,25.59992 -33.91543,25.59992 z"
           id="path4286" /><path
           style="fill:#e0c86c;fill-opacity:1;stroke:#000000;stroke-width:3;stroke-linecap:round;stroke-linejoin:round;stroke-dasharray:none;stroke-opacity:1"
           d="m 522.73971,633.69864 h 21.36987 l -6.57535,23.83561 z"
           id="path4287" /><path
           style="fill:#e0c86c;fill-opacity:1;stroke:#000000;stroke-width:3;stroke-linecap:round;stroke-linejoin:round;stroke-dasharray:none;stroke-opacity:1"
           d="m 920.548,348.49294 h -21.36987 l 6.57535,-23.83561 z"
           id="path4288" /><path
           id="path4289"
           style="display:inline;fill:#5e4722;fill-opacity:1;stroke:#000000;stroke-width:3;stroke-linejoin:round;stroke-dasharray:none;stroke-opacity:1"
           d="m 667.35921,654.22561 -2.47453,7.28952 -13.55818,5.91608 6.83556,-5.10599 3.76502,-19.24668 v -33.12046 l -5.47405,-34.75783 -27.09415,-44.33823 -28.46509,-30.79278 -34.21204,-18.88467 -32.24777,-7.6332 -31.41094,2.78805 -10.91637,7.79308 6.58574,-14.64246 38.60069,-3.24283 33.93914,8.75849 35.03396,19.70659 29.47497,31.13083 28.55002,44.41114 5.47405,37.22358 v 30.65471 z" /><path
           id="path4290"
           style="display:inline;fill:#5e4722;fill-opacity:1;stroke:#000000;stroke-width:3;stroke-linejoin:round;stroke-dasharray:none;stroke-opacity:1"
           d="m 709.5888,622.04587 -1.6369,6.12716 -13.53975,2.93216 6.83556,-5.10599 2.90896,-15.1004 v -33.12046 l -5.47405,-34.75783 -27.09415,-44.33823 -28.46509,-30.79278 -34.21204,-18.88467 -32.24777,-7.6332 -33.01887,2.98623 -9.30844,7.5949 6.58574,-14.64246 38.60069,-3.24283 33.93914,8.75849 35.03396,19.70659 29.47497,31.13083 28.55002,44.41114 5.47405,37.22358 v 30.65471 z" /><path
           id="path4291"
           style="display:inline;fill:#5e4722;fill-opacity:1;stroke:#000000;stroke-width:3;stroke-linejoin:round;stroke-dasharray:none;stroke-opacity:1"
           d="m 751.02376,590.71289 -3.6369,4.70834 -13.53975,2.93216 9.33068,-7.9311 3.68775,-20.32043 -1.27391,-23.6565 -5.47405,-34.75783 -27.09415,-44.33823 -28.46509,-30.79278 -34.21204,-18.88467 -32.24777,-8.21438 -33.16659,2.73048 -12.12936,9.38858 6.79639,-15.11081 41.35868,-3.73123 33.93914,8.75849 35.03396,19.70659 29.47497,31.13083 28.55002,44.41114 5.47405,37.22358 v 30.65471 z" /><path
           id="path4292"
           style="display:inline;fill:#5e4722;fill-opacity:1;stroke:#000000;stroke-width:3;stroke-linejoin:round;stroke-dasharray:none;stroke-opacity:1"
           d="m 791.48635,557.77135 -3.6369,4.70834 -13.53975,2.93216 9.33068,-7.9311 4.26893,-19.73925 -1.27391,-23.6565 -5.47405,-34.75783 -27.09415,-44.33823 -28.46509,-30.79278 -34.21204,-18.88467 -32.24777,-8.21438 -33.16659,2.73048 -9.80463,8.22621 6.79639,-15.11081 39.03395,-2.56886 33.93914,8.75849 35.03396,19.70659 29.47497,31.13083 28.55002,44.41114 5.47405,37.22358 v 30.65471 z" /><path
           id="path4293"
           style="display:inline;fill:#5e4722;fill-opacity:1;stroke:#000000;stroke-width:3;stroke-linejoin:round;stroke-dasharray:none;stroke-opacity:1"
           d="m 831.17048,518.64337 -2.17342,9.04651 -9.79289,2.94639 2.70435,-7.70978 4.82367,-17.65006 -1.27391,-23.6565 -5.47405,-34.75783 -27.09415,-44.33823 -28.46509,-30.79278 -34.21204,-18.88467 -32.24777,-8.21438 -31.42304,3.56811 -9.80463,8.22621 6.79639,-15.11081 37.2904,-3.40649 33.93914,8.75849 35.03396,19.70659 29.47497,31.13083 28.55002,44.41114 5.47405,37.22358 v 30.65471 z" /><path
           id="path4294"
           style="display:inline;fill:#5e4722;fill-opacity:1;stroke:#000000;stroke-width:3;stroke-linejoin:round;stroke-dasharray:none;stroke-opacity:1"
           d="m 872.65115,485.03701 -2.17342,9.04651 -11.27341,3.39183 4.18487,-8.15522 3.15636,-15.0167 -1.27391,-23.6565 -5.47405,-34.75783 -27.09415,-44.33823 -28.46509,-30.79278 -34.21204,-18.88467 -32.24777,-8.21438 -30.9181,4.93476 -9.80463,8.22621 6.79639,-15.11081 36.78546,-4.77314 33.93914,8.75849 35.03396,19.70659 29.47497,31.13083 28.55002,44.41114 5.47405,37.22358 v 30.65471 z" /><path
           id="path4295"
           style="display:inline;fill:#5e4722;fill-opacity:1;stroke:#000000;stroke-width:3;stroke-linejoin:round;stroke-dasharray:none;stroke-opacity:1"
           d="m 585.49827,720.99518 -1.31217,8.77663 -14.72054,4.42897 6.83556,-5.10599 3.76502,-19.24668 v -33.12046 l -5.47405,-34.75783 -27.09415,-44.33823 -28.46509,-30.79278 -34.21204,-18.88467 -32.24777,-7.6332 -33.66603,0.74032 -13.30519,9.63519 6.79639,-15.11081 43.03395,-2.56886 33.93914,8.75849 35.03396,19.70659 29.47497,31.13083 28.55002,44.41114 5.47405,37.22358 v 30.65471 z" /></g><g
         id="g4303"><path
           id="path4296"
           style="display:inline;fill:#aa7f43;fill-opacity:1;stroke:#000000;stroke-width:3;stroke-linejoin:round;stroke-dasharray:none;stroke-opacity:1"
           d="m 870.47773,494.08352 3.13701,-14.47666 v -30.65471 l -5.47405,-37.22358 -29.5599,-45.98207 -28.46509,-29.5599 -35.03396,-19.70659 -33.93914,-8.75849 -37.2904,3.98768 22.78549,-18.7518 41.93987,-4.56886 33.93914,8.75849 35.03396,19.70659 28.46509,29.5599 29.5599,45.98207 5.47405,37.22358 v 30.65471 l -4.29938,13.89548 z" /><path
           id="path4297"
           style="display:inline;fill:#aa7f43;fill-opacity:1;stroke:#000000;stroke-width:3;stroke-linejoin:round;stroke-dasharray:none;stroke-opacity:1"
           d="m 828.99706,527.68988 4.29938,-17.89548 v -30.65471 l -5.47405,-37.22358 -29.5599,-45.98207 -28.46509,-29.5599 -35.03396,-19.70659 -33.93914,-8.75849 -37.2904,3.40649 25.69141,-18.17061 39.03395,-4.56886 33.93914,8.75849 35.03396,19.70659 28.46509,29.5599 29.5599,45.98207 5.47405,37.22358 v 30.65471 l -3.13701,14.40838 z" /><path
           id="path4298"
           style="display:inline;fill:#aa7f43;fill-opacity:1;stroke:#000000;stroke-width:3;stroke-linejoin:round;stroke-dasharray:none;stroke-opacity:1"
           d="m 787.84945,562.47969 6.62411,-20.22022 v -30.65471 l -5.47405,-37.22358 -29.5599,-45.98207 -28.46509,-29.5599 -35.03396,-19.70659 -33.93914,-8.75849 -39.03395,2.56886 27.43496,-19.33298 39.03395,-2.56886 33.93914,8.75849 35.03396,19.70659 28.46509,29.5599 29.5599,45.98207 5.47405,37.22358 v 30.65471 l -5.46174,15.57075 z" /><path
           id="path4299"
           style="display:inline;fill:#aa7f43;fill-opacity:1;stroke:#000000;stroke-width:3;stroke-linejoin:round;stroke-dasharray:none;stroke-opacity:1"
           d="m 747.38686,595.42123 6.04293,-20.8014 v -30.65471 l -5.47406,-37.22358 -29.55989,-45.98207 -28.4651,-29.5599 -35.03395,-19.70659 -33.93914,-8.75849 -41.35868,3.73123 28.59733,-21.07653 40.19632,-1.98768 33.93913,8.75849 35.03396,19.70659 28.46509,29.5599 29.5599,45.98207 5.47405,37.22358 v 30.65471 l -5.46174,17.3143 z" /><path
           id="path4300"
           style="display:inline;fill:#aa7f43;fill-opacity:1;stroke:#000000;stroke-width:3;stroke-linejoin:round;stroke-dasharray:none;stroke-opacity:1"
           d="m 707.9519,628.17303 4.04293,-22.22022 V 575.2981 l -5.47405,-37.22358 -29.5599,-45.98207 -28.46509,-29.5599 -35.03396,-19.70659 -33.93914,-8.75849 -39.03395,2.56886 27.43497,-19.33298 39.03395,-2.56886 33.93913,8.75849 35.03396,19.70659 28.46509,29.5599 29.5599,45.98207 5.47405,37.22358 v 30.65471 l -4.04292,19.3143 z" /><path
           id="path4301"
           style="display:inline;fill:#aa7f43;fill-opacity:1;stroke:#000000;stroke-width:3;stroke-linejoin:round;stroke-dasharray:none;stroke-opacity:1"
           d="m 666.15557,661.60792 4.04293,-22.8014 v -30.65471 l -5.47405,-37.22358 -29.5599,-45.98207 -28.46509,-29.5599 -35.03396,-19.70659 -33.93914,-8.75849 -39.03395,2.56886 25.69142,-19.33298 40.7775,-2.56886 33.93913,8.75849 35.03396,19.70659 28.46509,29.5599 29.5599,45.98207 5.47405,37.22358 v 30.65471 l -2.88055,19.89548 z" /><path
           id="path4302"
           style="display:inline;fill:#aa7f43;fill-opacity:1;stroke:#000000;stroke-width:3;stroke-linejoin:round;stroke-dasharray:none;stroke-opacity:1"
           d="m 626.59819,695.1735 2.88056,-23.38258 v -30.65471 l -5.47405,-37.22358 -29.5599,-45.98207 -28.46509,-29.5599 -35.03396,-19.70659 -33.93914,-8.75849 -41.03395,2.56886 25.69142,-19.33298 42.7775,-2.56886 33.93913,8.75849 35.03396,19.70659 28.46509,29.5599 29.5599,45.98207 5.47405,37.22358 v 30.65471 l -5.20529,21.63903 z" /><path
           id="path4303"
           style="display:inline;fill:#aa7f43;fill-opacity:1;stroke:#000000;stroke-width:3;stroke-linejoin:round;stroke-dasharray:none;stroke-opacity:1"
           d="m 584.1861,729.77181 3.7182,-24.86969 v -30.65471 l -5.47405,-37.22358 -29.5599,-45.98207 -28.46509,-29.5599 -35.03396,-19.70659 -33.93914,-8.75849 -43.03395,2.56886 26.2726,-19.33298 44.19632,-2.56886 33.93913,8.75849 35.03396,19.70659 28.46509,29.5599 29.5599,45.98207 5.47405,37.22358 v 30.65471 l -3.71819,21.96377 z" /></g></g><g
       id="g4308"
       style="display:inline"
       transform="matrix(1.0614097,0,0,1.0614097,473.96564,-1537.407)"><path
         id="path4304"
         style="display:inline;fill:#151007;fill-opacity:1;stroke:#000000;stroke-width:6;stroke-linecap:round;stroke-linejoin:round;stroke-dasharray:none;paint-order:markers fill stroke"
         d="m 514.55697,769.22358 c -12.57293,6.76339 -29.21424,7.80527 -42.71329,3.15795 -22.57247,-7.77102 -36.41243,-30.99458 -53.0361,-48.12813 -13.11204,-13.51422 -24.45044,-28.64289 -36.68068,-42.96005 -8.08421,-9.46366 -17.15367,-18.16642 -24.25927,-28.38531 -7.76334,-11.16482 -20.20903,-22.05039 -19.84439,-35.64413 0.49512,-18.45799 12.74046,-39.13732 29.50122,-46.88454 22.82533,-10.55041 51.69938,0.525 74.66484,10.76681 30.3837,13.55009 58.49397,36.06693 76.60585,63.97273 16.3639,25.21261 30.29891,57.23729 24.60516,86.75057 -2.97996,15.44649 -14.98932,29.90157 -28.84334,37.3541 z" /><path
         id="path4305"
         style="display:inline;fill:#6e5225;fill-opacity:1;stroke:#000000;stroke-width:5.75197;stroke-linecap:round;stroke-linejoin:round;stroke-dasharray:none;paint-order:markers fill stroke"
         d="m 438.03158,848.47048 c -11.05234,1.34872 -21.38624,9.50538 -32.42275,8.03273 -9.15827,-1.22203 -17.54759,-7.09154 -24.21587,-13.48696 -17.08873,-16.3895 -27.84859,-38.77502 -37.12396,-60.56052 -16.82043,-39.50696 -28.85496,-86.61324 -32.50549,-124.64724 -1.98561,-29.95027 -4.67239,-46.92384 7.25439,-65.45863 6.72567,-8.31771 24.30921,-15.12192 37.58634,-16.93903 10.80816,-1.4792 19.22416,-2.09041 27.95875,1.18329 10.60074,3.97313 18.96345,12.78787 26.51714,21.22014 13.38011,14.93638 25.0649,32.07175 32.21412,50.80705 17.73122,46.4666 32.9816,98.22075 24.35893,147.20229 -3.49105,19.83108 -12.9413,41.36738 -29.62159,52.64688 z" /><path
         id="path4306"
         style="display:none;fill:#6e5225;fill-opacity:1;stroke:#000000;stroke-width:6;stroke-linecap:round;stroke-linejoin:round;stroke-dasharray:none;paint-order:markers fill stroke"
         d="m 899.37475,462.46584 -51.359,-96.05232 -76.72351,-97.74339 c 0,0 30.55278,-27.52391 49.78082,-30.35889 20.70522,-3.05278 42.59515,5.43231 60.75906,15.82933 27.70452,15.85806 52.76327,39.49798 67.75099,67.68284 12.96184,24.37514 24.54229,55.13035 15.76921,81.30649 -9.39941,28.04491 -65.97757,59.33594 -65.97757,59.33594 z" /><path
         style="display:none;fill:#a06e1f;fill-opacity:1;stroke:#000000;stroke-width:6;stroke-linecap:round;stroke-linejoin:round;stroke-dasharray:none;stroke-dashoffset:0;stroke-opacity:1;paint-order:markers fill stroke"
         d="m 716.51956,307.25742 c 0,0 10.73402,-31.92227 23.31143,-41.68004 12.14507,-9.42236 29.24323,-10.75202 44.57888,-11.8015 18.4307,-1.26129 37.73661,0.19789 55.00854,6.75244 22.11807,8.39362 41.66694,23.58561 58.44421,40.26449 15.41325,15.32287 29.42162,33.2209 37.30608,53.47414 8.36784,21.49492 11.1652,45.60216 9.19969,68.58452 -0.92622,10.83006 -3.97739,21.91019 -9.76018,31.11386 -5.75602,9.16105 -13.94324,17.48791 -23.68677,22.19113 -9.51923,4.59495 -31.3704,4.6327 -31.3704,4.6327 0,0 15.76155,-8.38895 21.50221,-14.97065 6.32975,-7.25709 11.9391,-16.17625 13.13246,-25.73167 3.89317,-31.1755 -4.38672,-65.17229 -20.88392,-91.91007 -17.68887,-28.66918 -46.13055,-53.40399 -78.03474,-64.21791 -23.30112,-7.89791 -50.77027,-6.16986 -73.76454,2.58129 -10.11098,3.84803 -15.04486,16.72177 -24.98295,20.71727 z"
         id="path4307" /><path
         style="display:inline;fill:none;stroke:#423216;stroke-width:2.876;stroke-linecap:round;stroke-linejoin:round;stroke-dasharray:none;stroke-opacity:1"
         d="m 324.48571,589.56651 c 3.42529,-1.19214 10.79577,-4.49699 13.57425,-4.39797 13.49511,0.48097 28.02919,16.77774 38.70786,28.8039 9.98483,11.24477 17.27312,25.01007 22.46246,39.12434 15.57039,42.34923 27.29038,88.04453 24.69605,133.09077 -1.31499,22.83263 4.9032,69.38921 -20.17961,65.57671 l -14.79922,-2.24943"
         id="path4308" /></g><g
       id="g4314"
       style="display:inline"
       transform="matrix(1.0614097,0,0,1.0614097,618.44986,-1595.4133)"><path
         d="m 941.17132,496.61251 c -13.65234,16.005 -30.90818,35.53512 -45.8691,50.06804 -0.033,0.03 -0.0608,0.0791 -0.0941,0.10907 -2.53428,2.45852 -5.13119,5.01593 -7.4368,7.06589 -26.81911,23.84523 -70.68946,55.04288 -107.8595,80.27068 -18.5851,12.61401 -35.49525,23.73343 -47.75791,31.70352 -12.26243,7.97023 -19.88219,12.78271 -19.88219,12.78271 0,0 2.67561,-14.4476 2.27676,-26.64452 -0.13329,-4.0656 -0.60666,-7.87807 -1.63583,-10.82636 -4.32091,-12.37118 -12.86432,-25.37458 -24.99195,-30.33779 -18.59084,-7.60814 -40.8334,-20.0765 -60.11866,1.87189 -1.28506,1.46228 -2.55375,3.07591 -3.81117,4.85681 -33.62921,67.3485 7.84639,84.99422 32.56354,117.10089 19.42074,25.22704 53.64961,34.6327 82.41245,48.2804 52.77736,25.0427 164.25155,61.11382 164.25155,61.11382 0.34509,-0.38413 0.89469,-0.86036 0.89469,-0.86036 10.30869,-10.97738 28.14741,-30.07523 28.68502,-48.9888 -0.88634,-5.09636 -2.02681,-9.54862 -3.4731,-13.28875 -2.15504,-3.90316 -5.15621,-7.35876 -8.60038,-9.78087 -10.55856,-7.42534 -38.33099,-5.49747 -38.33099,-5.49747 l 57.50479,-80.62484 118.07906,-168.72049 c 0,0 -73.43791,-3.62199 -107.79209,-15.32898 -2.9519,-1.00564 -5.96489,-2.54674 -9.00515,-4.33403 z m -37.06638,346.56401 c 1.8e-4,-5e-5 6.89989,0.84907 14.1486,-1.77056 -4.73945,1.6578 -14.1486,1.77056 -14.1486,1.77056 z"
         style="fill:#f8f8f7;fill-opacity:1;stroke:#000000;stroke-width:4;stroke-linecap:round;stroke-linejoin:round;stroke-dasharray:none;stroke-opacity:1;paint-order:markers fill stroke"
         id="path4309" /><path
         style="display:inline;fill:none;stroke:#656565;stroke-width:8.63417;stroke-linejoin:bevel;stroke-dasharray:none;stroke-opacity:1"
         d="m 818.64191,770.53151 c 9.16828,-12.75353 14.18862,-29.56581 25.29017,-40.90696 6.29889,-6.43488 4.20242,15.07102 12.64491,15.07102 0.70282,0 1.65785,0.55173 2.1076,0 13.89108,-17.02917 25.11429,-38.97782 35.82766,-58.13083 2.33804,-4.17988 3.62004,-8.974 6.32254,-12.91801 2.2789,-3.32588 5.84377,-5.52966 8.43005,-8.61197 4.97726,-5.93202 2.69067,-6.36762 8.43006,-10.76491 5.49392,-4.2095 11.0602,-2.61322 16.86002,-4.30603 5.93384,-1.73193 17.29234,-7.76523 21.07506,-12.9181 8.6529,-11.7859 12.80792,-30.30809 23.18274,-40.90687 1.31343,-1.34167 16.2508,-1.45909 18.96762,-2.15302 10.17326,-2.59819 23.18266,-18.0537 23.18266,-27.98886"
         id="path4310" /><path
         style="display:inline;fill:none;stroke:#656565;stroke-width:8.63417;stroke-linejoin:bevel;stroke-dasharray:none;stroke-opacity:1"
         d="m 748.68573,729.62463 c 0.21844,26.03634 -2.76311,28.53403 10.53757,-8e-5 12.80412,-27.46935 40.40678,-93.30678 63.22533,-111.95563 10.92741,-8.93075 6.80174,7.92824 8.43006,12.91801 1.44251,4.42009 6.56723,13.8695 12.645,10.765 4.02326,-2.05571 5.50264,-7.27602 8.42997,-10.76509 8.24986,-9.83215 16.80243,-20.77277 27.39776,-27.98877 3.24982,-2.2138 11.11252,1.48732 14.7526,-1.7e-4 4.70364,-1.92145 7.98868,-6.57337 12.645,-8.6119 2.66252,-1.16526 5.76754,-0.98792 8.42902,-2.15707 16.21022,-7.09729 23.32399,-23.32512 33.71996,-36.60084 2.516,-3.21252 8.43023,-6.32954 8.43023,-10.765"
         id="path4311" /><path
         d="m 1105.5071,492.1942 c -18.3522,0.0427 -36.8734,4.00629 -47.5386,24.08132 l -118.079,168.72049 -57.50479,80.62483 c 0,0 27.77244,-1.92786 38.33099,5.49748 7.04064,4.95135 12.26531,14.21077 12.09121,22.81653 -0.38453,18.99601 -18.34723,38.21521 -28.70197,49.24167 0,0 10.06178,-0.0824 14.63756,-1.88868 15.38098,-6.07203 28.45531,-17.40297 40.28717,-28.9548 15.92459,-15.54759 27.3231,-35.14612 40.23662,-53.27212 33.35331,-46.81565 96.12271,-143.17203 96.12271,-143.17203 0,0 39.2031,-48.16834 50.0174,-76.7126 3.8504,-10.16347 9.6927,-22.57783 4.7556,-32.26009 -4.5533,-8.927 -16.6482,-13.21143 -26.6446,-13.91245 -5.7815,-0.40544 -11.8929,-0.8238 -18.0103,-0.80955 z"
         style="fill:#f8f8f7;fill-opacity:1;stroke:#000000;stroke-width:4;stroke-linecap:round;stroke-linejoin:round;stroke-dasharray:none;stroke-opacity:1;paint-order:markers fill stroke"
         id="path4312" /><path
         style="display:inline;fill:none;stroke:#656565;stroke-width:8.63417;stroke-linejoin:bevel;stroke-dasharray:none;stroke-opacity:1"
         d="m 680.05472,687.73208 c 0,-4.61289 -0.6113,-10.83622 1.89062,-15.1255 6.36537,-10.91204 28.85668,-40.89807 41.59528,-47.26732 2.86524,-1.43267 8.59729,3.43648 13.23488,1.89062 5.24258,-1.74747 6.88411,-7.22352 11.34417,-9.45355 0.56381,-0.28147 1.44502,0.44552 1.89071,0 0.44553,-0.44552 -0.44552,-1.44501 0,-1.89062 1.19929,-1.19938 5.98858,0.78657 7.56276,0 5.18671,-2.59328 11.58437,-28.52056 22.68834,-35.92324 4.0863,-2.72416 10.43612,2.382 13.2348,3.78142 2.06901,1.03446 8.91176,0.60785 11.34418,0 14.63051,-3.6576 16.95742,-26.44032 24.57897,-30.2511 6.07301,-3.03646 9.92402,2.84039 15.12559,-7.56275"
         id="path4313" /><path
         d="m 892.78958,406.39211 c -15.58211,-0.6621 -29.67493,13.5745 -43.39008,21.85536 -51.78786,31.2678 -144.13333,110.28797 -144.13333,110.28797 -18.66408,7.69764 -76.48369,54.02467 -81.28252,79.00607 20.11985,-28.49327 44.09958,-14.84427 63.92984,-6.7287 12.12763,4.96321 20.67046,17.96677 24.99194,30.33779 4.11854,11.79246 -0.64093,37.47088 -0.64093,37.47088 0,0 121.8614,-77.06626 175.49962,-124.75691 27.57982,-24.52176 74.26733,-82.10909 74.26733,-82.10909 2.22264,-51.93772 -35.65207,-59.73593 -66.10535,-65.02604 -1.05202,-0.18224 -2.09875,-0.29337 -3.13635,-0.33657 z"
         style="fill:#f8f8f7;fill-opacity:1;stroke:#000000;stroke-width:4;stroke-linecap:round;stroke-linejoin:round;stroke-dasharray:none;stroke-opacity:1;paint-order:markers fill stroke"
         id="path4314" /></g></g></svg>
