<?xml version="1.0" encoding="UTF-8" standalone="no"?>
<!-- Created with Inkscape (http://www.inkscape.org/) -->

<svg
   width="1920"
   height="1080"
   viewBox="0 0 1920 1080"
   version="1.1"
   id="svg1"
   xml:space="preserve"
   sodipodi:docname="cryptex_open_in_situ_desktop_blacklight_draft1_export.svg"
   inkscape:version="1.3.2 (091e20e, 2023-11-25)"
   xmlns:inkscape="http://www.inkscape.org/namespaces/inkscape"
   xmlns:sodipodi="http://sodipodi.sourceforge.net/DTD/sodipodi-0.dtd"
   xmlns="http://www.w3.org/2000/svg"
   xmlns:svg="http://www.w3.org/2000/svg"><sodipodi:namedview
     id="namedview1"
     pagecolor="#ffffff"
     bordercolor="#000000"
     borderopacity="0.25"
     inkscape:showpageshadow="2"
     inkscape:pageopacity="0.0"
     inkscape:pagecheckerboard="0"
     inkscape:deskcolor="#d1d1d1"
     inkscape:zoom="0.21851852"
     inkscape:cx="958.72881"
     inkscape:cy="540"
     inkscape:window-width="1312"
     inkscape:window-height="449"
     inkscape:window-x="0"
     inkscape:window-y="25"
     inkscape:window-maximized="0"
     inkscape:current-layer="svg1" /><defs
     id="defs1"><filter
       style="color-interpolation-filters:sRGB"
       id="filter1541"
       x="-0.23514998"
       y="-0.60362956"
       width="1.4703"
       height="2.2072591"><feGaussianBlur
         stdDeviation="0.89734702"
         id="feGaussianBlur1541" /></filter><filter
       style="color-interpolation-filters:sRGB"
       id="filter1542"
       x="-0.17345039"
       y="-0.2987344"
       width="1.3469008"
       height="1.5974688"><feGaussianBlur
         stdDeviation="0.89734702"
         id="feGaussianBlur1542" /></filter><filter
       style="color-interpolation-filters:sRGB"
       id="filter1543"
       x="-0.081519816"
       y="-0.34453427"
       width="1.1630396"
       height="1.6890685"><feGaussianBlur
         stdDeviation="0.89734702"
         id="feGaussianBlur1543" /></filter><filter
       style="color-interpolation-filters:sRGB"
       id="filter1544"
       x="-0.090980953"
       y="-0.33267377"
       width="1.1819619"
       height="1.6653475"><feGaussianBlur
         stdDeviation="0.89734702"
         id="feGaussianBlur1544" /></filter><filter
       style="color-interpolation-filters:sRGB"
       id="filter3592"
       x="-0.2470276"
       y="-0.31755076"
       width="1.4940552"
       height="1.6351015"><feGaussianBlur
         stdDeviation="52.91087"
         id="feGaussianBlur3592" /></filter><filter
       style="color-interpolation-filters:sRGB"
       id="filter3593"
       x="-0.40911018"
       y="-0.31433159"
       width="1.8182204"
       height="1.6286632"><feGaussianBlur
         stdDeviation="52.91087"
         id="feGaussianBlur3593" /></filter><filter
       style="color-interpolation-filters:sRGB"
       id="filter3594"
       x="-0.32626882"
       y="-0.40523145"
       width="1.6525376"
       height="1.8104629"><feGaussianBlur
         stdDeviation="52.91087"
         id="feGaussianBlur3594" /></filter></defs><g
     id="g4255"
     style="display:inline"
     transform="matrix(0.58767041,0,0,0.58767041,586.3225,970.85657)"><g
       id="g4232"
       style="display:inline"
       transform="matrix(1.0614097,0,0,1.0614097,473.96564,-1537.407)"><path
         id="path4184"
         style="fill:#6e5225;fill-opacity:1;stroke:#000000;stroke-width:6;stroke-linecap:round;stroke-linejoin:round;stroke-dasharray:none;paint-order:markers fill stroke"
         d="m 496.57388,792.39202 c -12.59258,5.76273 -27.69162,4.63024 -41.43968,2.96504 -18.08052,-2.18997 -36.13074,-7.84635 -51.99175,-16.79786 -21.33086,-12.03854 -42.05722,-27.69295 -55.47885,-48.18176 -15.43093,-23.55609 -23.78991,-52.48284 -25.30361,-80.60243 -0.67029,-12.45175 1.76205,-25.52012 7.30851,-36.68847 8.46143,-17.03792 19.99359,-36.16333 37.85596,-42.70717 23.61115,-8.64989 51.69938,0.525 74.66484,10.76681 30.3837,13.55009 58.33029,36.17384 76.60585,63.97273 18.40008,27.98831 36.77086,63.87135 28.55326,96.34256 -5.88131,23.23949 -28.97649,40.95512 -50.77453,50.93055 z" /><path
         id="path4185"
         style="fill:#6e5225;fill-opacity:1;stroke:#000000;stroke-width:6;stroke-linecap:round;stroke-linejoin:round;stroke-dasharray:none;paint-order:markers fill stroke"
         d="m 899.37475,462.46584 -51.359,-96.05232 -76.72351,-97.74339 c 0,0 30.55278,-27.52391 49.78082,-30.35889 20.70522,-3.05278 42.59515,5.43231 60.75906,15.82933 27.70452,15.85806 52.76327,39.49798 67.75099,67.68284 12.96184,24.37514 24.54229,55.13035 15.76921,81.30649 -9.39941,28.04491 -65.97757,59.33594 -65.97757,59.33594 z" /><path
         style="fill:#84622c;fill-opacity:1;stroke:#000000;stroke-width:6;stroke-linecap:round;stroke-linejoin:round;stroke-dasharray:none;stroke-dashoffset:0;stroke-opacity:1;paint-order:markers fill stroke"
         d="M 390.35469,562.65992 771.29224,268.67013 c 0,0 49.70011,4.24625 71.65063,14.8869 20.52119,9.94782 38.5092,25.89309 52.41943,43.96463 16.22142,21.07416 33.99622,45.61908 33.91973,72.21324 -0.065,23.16511 -29.90728,62.73094 -29.90728,62.73094 l -366.18878,301.6172 c 0,0 32.13141,-25.6638 35.8303,-44.28943 6.52438,-32.85333 -9.95389,-68.48629 -28.55326,-96.34256 -16.88041,-25.28178 -42.39569,-46.69065 -70.82692,-57.45082 -24.73817,-9.36248 -79.2814,-3.34031 -79.2814,-3.34031 z"
         id="path4186" /><path
         style="fill:none;fill-opacity:1;stroke:#000000;stroke-width:6;stroke-linecap:round;stroke-linejoin:round;stroke-dasharray:none;stroke-dashoffset:0;stroke-opacity:1;paint-order:markers fill stroke"
         d="M 431.36021,547.80641 792.9601,268.67013"
         id="path4190" /><path
         style="display:inline;fill:none;fill-opacity:1;stroke:#000000;stroke-width:6;stroke-linecap:round;stroke-linejoin:round;stroke-dasharray:none;stroke-dashoffset:0;stroke-opacity:1;paint-order:markers fill stroke"
         d="M 496.49231,576.56173 848.81,296.91593"
         id="path4191" /><path
         style="fill:none;fill-opacity:1;stroke:#000000;stroke-width:6;stroke-linecap:round;stroke-linejoin:round;stroke-dasharray:none;stroke-dashoffset:0;stroke-opacity:1;paint-order:markers fill stroke"
         d="M 534.07273,608.7686 886.62908,321.20734"
         id="path4192" /><path
         style="fill:none;fill-opacity:1;stroke:#000000;stroke-width:6;stroke-linecap:round;stroke-linejoin:round;stroke-dasharray:none;stroke-dashoffset:0;stroke-opacity:1;paint-order:markers fill stroke"
         d="m 456.14143,552.50412 348.54055,-270.97"
         id="path4193" /><path
         style="fill:none;fill-opacity:1;stroke:#000000;stroke-width:6;stroke-linecap:round;stroke-linejoin:round;stroke-dasharray:none;stroke-dashoffset:0;stroke-opacity:1;paint-order:markers fill stroke"
         d="M 565.3141,661.78073 916.28467,372.84541"
         id="path4195" /><path
         style="display:inline;fill:none;fill-opacity:1;stroke:#000000;stroke-width:6;stroke-linecap:round;stroke-linejoin:round;stroke-dasharray:none;stroke-dashoffset:0;stroke-opacity:1;paint-order:markers fill stroke"
         d="M 573.66574,710.49467 921.80889,425.64077"
         id="path4197" /><path
         style="display:inline;fill:#a06e1f;fill-opacity:1;stroke:#000000;stroke-width:5.99811;stroke-linecap:round;stroke-linejoin:round;stroke-dasharray:none;stroke-dashoffset:0;stroke-opacity:1;paint-order:markers fill stroke"
         d="m 716.51956,307.25742 c 0,0 10.73402,-31.92227 23.31143,-41.68004 12.14507,-9.42236 29.24323,-10.75202 44.57888,-11.8015 18.4307,-1.26129 37.73661,0.19789 55.00854,6.75244 22.11807,8.39362 41.66694,23.58561 58.44421,40.26449 15.41325,15.32287 29.42162,33.2209 37.30608,53.47414 8.36784,21.49492 11.1652,45.60216 9.19969,68.58452 -0.92622,10.83006 -3.97739,21.91019 -9.76018,31.11386 -5.75602,9.16105 -13.94324,17.48791 -23.68677,22.19113 -9.51923,4.59495 -31.3704,4.6327 -31.3704,4.6327 0,0 15.76155,-8.38895 21.50221,-14.97065 6.32975,-7.25709 11.9391,-16.17625 13.13246,-25.73167 3.89317,-31.1755 -4.38672,-65.17229 -20.88392,-91.91007 -17.68887,-28.66918 -46.13055,-53.40399 -78.03474,-64.21791 -23.30112,-7.89791 -50.77027,-6.16986 -73.76454,2.58129 -10.11098,3.84803 -15.04486,16.72177 -24.98295,20.71727 z"
         id="path4198" /><g
         id="g4205"><path
           style="fill:#af8b54;fill-opacity:1;stroke:#000000;stroke-width:3;stroke-linecap:round;stroke-linejoin:round;stroke-dasharray:none;stroke-opacity:1"
           d="m 663.5339,341.31555 15.45765,-1.41206 -22.25404,16.52287 z"
           id="path4199" /><path
           style="fill:#af8b54;fill-opacity:1;stroke:#000000;stroke-width:3;stroke-linecap:round;stroke-linejoin:round;stroke-dasharray:none;stroke-opacity:1"
           d="m 703.8522,311.7092 15.45765,-1.41206 -22.25404,16.52287 z"
           id="path4200" /><path
           style="fill:#af8b54;fill-opacity:1;stroke:#000000;stroke-width:3;stroke-linecap:round;stroke-linejoin:round;stroke-dasharray:none;stroke-opacity:1"
           d="m 622.96747,372.94299 15.45765,-1.41206 -22.25404,16.52287 z"
           id="path4201" /><path
           style="fill:#af8b54;fill-opacity:1;stroke:#000000;stroke-width:3;stroke-linecap:round;stroke-linejoin:round;stroke-dasharray:none;stroke-opacity:1"
           d="m 579.59897,406.46572 15.45765,-1.41206 -22.25404,16.52287 z"
           id="path4202" /><path
           style="fill:#af8b54;fill-opacity:1;stroke:#000000;stroke-width:3;stroke-linecap:round;stroke-linejoin:round;stroke-dasharray:none;stroke-opacity:1"
           d="m 540.48874,436.63633 15.45765,-1.41206 -22.25404,16.52287 z"
           id="path4203" /><path
           style="fill:#af8b54;fill-opacity:1;stroke:#000000;stroke-width:3;stroke-linecap:round;stroke-linejoin:round;stroke-dasharray:none;stroke-opacity:1"
           d="m 498.69241,469.49004 15.45765,-1.41206 -22.25404,16.52287 z"
           id="path4204" /><path
           style="fill:#af8b54;fill-opacity:1;stroke:#000000;stroke-width:3;stroke-linecap:round;stroke-linejoin:round;stroke-dasharray:none;stroke-opacity:1"
           d="m 455.97266,502.47444 15.45765,-1.41206 -22.25404,16.52287 z"
           id="path4205" /></g><g
         id="g4212"
         style="fill:#6f5836;fill-opacity:1"><path
           style="fill:#6f5836;fill-opacity:1;stroke:#000000;stroke-width:3;stroke-linecap:round;stroke-linejoin:round;stroke-dasharray:none;stroke-opacity:1"
           d="m 626.59819,695.1735 -14.72054,4.42897 16.03271,-13.2056 z"
           id="path4206" /><path
           style="fill:#6f5836;fill-opacity:1;stroke:#000000;stroke-width:3;stroke-linecap:round;stroke-linejoin:round;stroke-dasharray:none;stroke-opacity:1"
           d="m 666.15557,661.60792 -14.72054,4.42897 16.03271,-13.2056 z"
           id="path4207" /><path
           style="fill:#6f5836;fill-opacity:1;stroke:#000000;stroke-width:3;stroke-linecap:round;stroke-linejoin:round;stroke-dasharray:none;stroke-opacity:1"
           d="m 707.9519,628.17303 -14.72054,4.42897 16.03271,-13.2056 z"
           id="path4208" /><path
           style="fill:#6f5836;fill-opacity:1;stroke:#000000;stroke-width:3;stroke-linecap:round;stroke-linejoin:round;stroke-dasharray:none;stroke-opacity:1"
           d="m 747.38686,595.42123 -14.72054,4.42897 16.03271,-13.2056 z"
           id="path4209" /><path
           style="fill:#6f5836;fill-opacity:1;stroke:#000000;stroke-width:3;stroke-linecap:round;stroke-linejoin:round;stroke-dasharray:none;stroke-opacity:1"
           d="m 787.84945,562.47969 -14.72054,4.42897 16.03271,-13.2056 z"
           id="path4210" /><path
           style="fill:#6f5836;fill-opacity:1;stroke:#000000;stroke-width:3;stroke-linecap:round;stroke-linejoin:round;stroke-dasharray:none;stroke-opacity:1"
           d="m 828.99706,527.68988 -14.72054,4.42897 16.03271,-13.2056 z"
           id="path4211" /><path
           style="fill:#6f5836;fill-opacity:1;stroke:#000000;stroke-width:3;stroke-linecap:round;stroke-linejoin:round;stroke-dasharray:none;stroke-opacity:1"
           d="m 870.47773,494.08352 -14.72054,4.42897 16.03271,-13.2056 z"
           id="path4212" /></g><g
         id="g4223"><path
           id="path4213"
           style="display:inline;fill:#5e4722;fill-opacity:1;stroke:#000000;stroke-width:3;stroke-linejoin:round;stroke-dasharray:none;stroke-opacity:1"
           d="m 629.07272,687.88398 -2.47453,7.28952 -13.55818,5.91608 6.83556,-5.10599 3.76502,-19.24668 v -33.12046 l -5.47405,-34.75783 -27.09415,-44.33823 -28.46509,-30.79278 -34.21204,-18.88467 -32.24777,-7.6332 -33.66603,0.74032 -13.30519,9.63519 6.79639,-15.11081 43.03395,-2.56886 33.93914,8.75849 35.03396,19.70659 29.47497,31.13083 28.55002,44.41114 5.47405,37.22358 v 30.65471 z" /><path
           style="fill:#a06e1f;fill-opacity:1;stroke:#000000;stroke-width:6;stroke-linecap:round;stroke-linejoin:round;stroke-dasharray:none;stroke-dashoffset:0;stroke-opacity:1;paint-order:markers fill stroke"
           d="m 334.7714,598.30403 c 0,0 5.37838,-17.42785 11.25466,-24.04462 9.5152,-10.71425 22.66965,-18.97997 36.50895,-22.69591 21.46161,-5.76258 45.26695,-4.00718 66.63221,2.10298 24.23636,6.93125 46.5629,21.20913 65.41841,37.93975 15.95743,14.15913 29.4007,31.83889 38.46845,51.14941 11.34169,24.15304 19.44269,51.21676 18.49863,77.88345 -0.38457,10.86279 -3.97739,21.91019 -9.76018,31.11386 -5.75602,9.16105 -23.68676,22.19114 -23.68676,22.19114 l -15.09727,5.79506 c 0,0 20.32917,-26.9347 22.01517,-42.92714 3.2887,-31.19481 -7.53109,-64.49025 -24.53756,-90.84762 -18.26397,-28.30628 -47.07653,-50.93608 -78.03474,-64.21791 -22.76554,-9.76697 -49.83962,-15.46588 -73.76454,-9.04237 -13.67969,3.67281 -33.91543,25.59992 -33.91543,25.59992 z"
           id="path4214" /><path
           style="fill:#e0c86c;fill-opacity:1;stroke:#000000;stroke-width:3;stroke-linecap:round;stroke-linejoin:round;stroke-dasharray:none;stroke-opacity:1"
           d="m 522.73971,633.69864 h 21.36987 l -6.57535,23.83561 z"
           id="path4215" /><path
           style="fill:#e0c86c;fill-opacity:1;stroke:#000000;stroke-width:3;stroke-linecap:round;stroke-linejoin:round;stroke-dasharray:none;stroke-opacity:1"
           d="m 920.548,348.49294 h -21.36987 l 6.57535,-23.83561 z"
           id="path4216" /><path
           id="path4217"
           style="display:inline;fill:#5e4722;fill-opacity:1;stroke:#000000;stroke-width:3;stroke-linejoin:round;stroke-dasharray:none;stroke-opacity:1"
           d="m 667.35921,654.22561 -2.47453,7.28952 -13.55818,5.91608 6.83556,-5.10599 3.76502,-19.24668 v -33.12046 l -5.47405,-34.75783 -27.09415,-44.33823 -28.46509,-30.79278 -34.21204,-18.88467 -32.24777,-7.6332 -31.41094,2.78805 -10.91637,7.79308 6.58574,-14.64246 38.60069,-3.24283 33.93914,8.75849 35.03396,19.70659 29.47497,31.13083 28.55002,44.41114 5.47405,37.22358 v 30.65471 z" /><path
           id="path4218"
           style="display:inline;fill:#5e4722;fill-opacity:1;stroke:#000000;stroke-width:3;stroke-linejoin:round;stroke-dasharray:none;stroke-opacity:1"
           d="m 709.5888,622.04587 -1.6369,6.12716 -13.53975,2.93216 6.83556,-5.10599 2.90896,-15.1004 v -33.12046 l -5.47405,-34.75783 -27.09415,-44.33823 -28.46509,-30.79278 -34.21204,-18.88467 -32.24777,-7.6332 -33.01887,2.98623 -9.30844,7.5949 6.58574,-14.64246 38.60069,-3.24283 33.93914,8.75849 35.03396,19.70659 29.47497,31.13083 28.55002,44.41114 5.47405,37.22358 v 30.65471 z" /><path
           id="path4219"
           style="display:inline;fill:#5e4722;fill-opacity:1;stroke:#000000;stroke-width:3;stroke-linejoin:round;stroke-dasharray:none;stroke-opacity:1"
           d="m 751.02376,590.71289 -3.6369,4.70834 -13.53975,2.93216 9.33068,-7.9311 3.68775,-20.32043 -1.27391,-23.6565 -5.47405,-34.75783 -27.09415,-44.33823 -28.46509,-30.79278 -34.21204,-18.88467 -32.24777,-8.21438 -33.16659,2.73048 -12.12936,9.38858 6.79639,-15.11081 41.35868,-3.73123 33.93914,8.75849 35.03396,19.70659 29.47497,31.13083 28.55002,44.41114 5.47405,37.22358 v 30.65471 z" /><path
           id="path4220"
           style="display:inline;fill:#5e4722;fill-opacity:1;stroke:#000000;stroke-width:3;stroke-linejoin:round;stroke-dasharray:none;stroke-opacity:1"
           d="m 791.48635,557.77135 -3.6369,4.70834 -13.53975,2.93216 9.33068,-7.9311 4.26893,-19.73925 -1.27391,-23.6565 -5.47405,-34.75783 -27.09415,-44.33823 -28.46509,-30.79278 -34.21204,-18.88467 -32.24777,-8.21438 -33.16659,2.73048 -9.80463,8.22621 6.79639,-15.11081 39.03395,-2.56886 33.93914,8.75849 35.03396,19.70659 29.47497,31.13083 28.55002,44.41114 5.47405,37.22358 v 30.65471 z" /><path
           id="path4221"
           style="display:inline;fill:#5e4722;fill-opacity:1;stroke:#000000;stroke-width:3;stroke-linejoin:round;stroke-dasharray:none;stroke-opacity:1"
           d="m 831.17048,518.64337 -2.17342,9.04651 -9.79289,2.94639 2.70435,-7.70978 4.82367,-17.65006 -1.27391,-23.6565 -5.47405,-34.75783 -27.09415,-44.33823 -28.46509,-30.79278 -34.21204,-18.88467 -32.24777,-8.21438 -31.42304,3.56811 -9.80463,8.22621 6.79639,-15.11081 37.2904,-3.40649 33.93914,8.75849 35.03396,19.70659 29.47497,31.13083 28.55002,44.41114 5.47405,37.22358 v 30.65471 z" /><path
           id="path4222"
           style="display:inline;fill:#5e4722;fill-opacity:1;stroke:#000000;stroke-width:3;stroke-linejoin:round;stroke-dasharray:none;stroke-opacity:1"
           d="m 872.65115,485.03701 -2.17342,9.04651 -11.27341,3.39183 4.18487,-8.15522 3.15636,-15.0167 -1.27391,-23.6565 -5.47405,-34.75783 -27.09415,-44.33823 -28.46509,-30.79278 -34.21204,-18.88467 -32.24777,-8.21438 -30.9181,4.93476 -9.80463,8.22621 6.79639,-15.11081 36.78546,-4.77314 33.93914,8.75849 35.03396,19.70659 29.47497,31.13083 28.55002,44.41114 5.47405,37.22358 v 30.65471 z" /><path
           id="path4223"
           style="display:inline;fill:#5e4722;fill-opacity:1;stroke:#000000;stroke-width:3;stroke-linejoin:round;stroke-dasharray:none;stroke-opacity:1"
           d="m 585.49827,720.99518 -1.31217,8.77663 -14.72054,4.42897 6.83556,-5.10599 3.76502,-19.24668 v -33.12046 l -5.47405,-34.75783 -27.09415,-44.33823 -28.46509,-30.79278 -34.21204,-18.88467 -32.24777,-7.6332 -33.66603,0.74032 -13.30519,9.63519 6.79639,-15.11081 43.03395,-2.56886 33.93914,8.75849 35.03396,19.70659 29.47497,31.13083 28.55002,44.41114 5.47405,37.22358 v 30.65471 z" /></g><g
         id="g4231"><path
           id="path4224"
           style="display:inline;fill:#aa7f43;fill-opacity:1;stroke:#000000;stroke-width:3;stroke-linejoin:round;stroke-dasharray:none;stroke-opacity:1"
           d="m 870.47773,494.08352 3.13701,-14.47666 v -30.65471 l -5.47405,-37.22358 -29.5599,-45.98207 -28.46509,-29.5599 -35.03396,-19.70659 -33.93914,-8.75849 -37.2904,3.98768 22.78549,-18.7518 41.93987,-4.56886 33.93914,8.75849 35.03396,19.70659 28.46509,29.5599 29.5599,45.98207 5.47405,37.22358 v 30.65471 l -4.29938,13.89548 z" /><path
           id="path4225"
           style="display:inline;fill:#aa7f43;fill-opacity:1;stroke:#000000;stroke-width:3;stroke-linejoin:round;stroke-dasharray:none;stroke-opacity:1"
           d="m 828.99706,527.68988 4.29938,-17.89548 v -30.65471 l -5.47405,-37.22358 -29.5599,-45.98207 -28.46509,-29.5599 -35.03396,-19.70659 -33.93914,-8.75849 -37.2904,3.40649 25.69141,-18.17061 39.03395,-4.56886 33.93914,8.75849 35.03396,19.70659 28.46509,29.5599 29.5599,45.98207 5.47405,37.22358 v 30.65471 l -3.13701,14.40838 z" /><path
           id="path4226"
           style="display:inline;fill:#aa7f43;fill-opacity:1;stroke:#000000;stroke-width:3;stroke-linejoin:round;stroke-dasharray:none;stroke-opacity:1"
           d="m 787.84945,562.47969 6.62411,-20.22022 v -30.65471 l -5.47405,-37.22358 -29.5599,-45.98207 -28.46509,-29.5599 -35.03396,-19.70659 -33.93914,-8.75849 -39.03395,2.56886 27.43496,-19.33298 39.03395,-2.56886 33.93914,8.75849 35.03396,19.70659 28.46509,29.5599 29.5599,45.98207 5.47405,37.22358 v 30.65471 l -5.46174,15.57075 z" /><path
           id="path4227"
           style="display:inline;fill:#aa7f43;fill-opacity:1;stroke:#000000;stroke-width:3;stroke-linejoin:round;stroke-dasharray:none;stroke-opacity:1"
           d="m 747.38686,595.42123 6.04293,-20.8014 v -30.65471 l -5.47406,-37.22358 -29.55989,-45.98207 -28.4651,-29.5599 -35.03395,-19.70659 -33.93914,-8.75849 -41.35868,3.73123 28.59733,-21.07653 40.19632,-1.98768 33.93913,8.75849 35.03396,19.70659 28.46509,29.5599 29.5599,45.98207 5.47405,37.22358 v 30.65471 l -5.46174,17.3143 z" /><path
           id="path4228"
           style="display:inline;fill:#aa7f43;fill-opacity:1;stroke:#000000;stroke-width:3;stroke-linejoin:round;stroke-dasharray:none;stroke-opacity:1"
           d="m 707.9519,628.17303 4.04293,-22.22022 V 575.2981 l -5.47405,-37.22358 -29.5599,-45.98207 -28.46509,-29.5599 -35.03396,-19.70659 -33.93914,-8.75849 -39.03395,2.56886 27.43497,-19.33298 39.03395,-2.56886 33.93913,8.75849 35.03396,19.70659 28.46509,29.5599 29.5599,45.98207 5.47405,37.22358 v 30.65471 l -4.04292,19.3143 z" /><path
           id="path4229"
           style="display:inline;fill:#aa7f43;fill-opacity:1;stroke:#000000;stroke-width:3;stroke-linejoin:round;stroke-dasharray:none;stroke-opacity:1"
           d="m 666.15557,661.60792 4.04293,-22.8014 v -30.65471 l -5.47405,-37.22358 -29.5599,-45.98207 -28.46509,-29.5599 -35.03396,-19.70659 -33.93914,-8.75849 -39.03395,2.56886 25.69142,-19.33298 40.7775,-2.56886 33.93913,8.75849 35.03396,19.70659 28.46509,29.5599 29.5599,45.98207 5.47405,37.22358 v 30.65471 l -2.88055,19.89548 z" /><path
           id="path4230"
           style="display:inline;fill:#aa7f43;fill-opacity:1;stroke:#000000;stroke-width:3;stroke-linejoin:round;stroke-dasharray:none;stroke-opacity:1"
           d="m 626.59819,695.1735 2.88056,-23.38258 v -30.65471 l -5.47405,-37.22358 -29.5599,-45.98207 -28.46509,-29.5599 -35.03396,-19.70659 -33.93914,-8.75849 -41.03395,2.56886 25.69142,-19.33298 42.7775,-2.56886 33.93913,8.75849 35.03396,19.70659 28.46509,29.5599 29.5599,45.98207 5.47405,37.22358 v 30.65471 l -5.20529,21.63903 z" /><path
           id="path4231"
           style="display:inline;fill:#aa7f43;fill-opacity:1;stroke:#000000;stroke-width:3;stroke-linejoin:round;stroke-dasharray:none;stroke-opacity:1"
           d="m 584.1861,729.77181 3.7182,-24.86969 v -30.65471 l -5.47405,-37.22358 -29.5599,-45.98207 -28.46509,-29.5599 -35.03396,-19.70659 -33.93914,-8.75849 -43.03395,2.56886 26.2726,-19.33298 44.19632,-2.56886 33.93913,8.75849 35.03396,19.70659 28.46509,29.5599 29.5599,45.98207 5.47405,37.22358 v 30.65471 l -3.71819,21.96377 z" /></g></g><g
       id="g4236"
       style="display:inline"
       transform="matrix(1.0614097,0,0,1.0614097,473.96564,-1537.407)"><path
         id="path4232"
         style="display:inline;fill:#151007;fill-opacity:1;stroke:#000000;stroke-width:6;stroke-linecap:round;stroke-linejoin:round;stroke-dasharray:none;paint-order:markers fill stroke"
         d="m 514.55697,769.22358 c -12.57293,6.76339 -29.21424,7.80527 -42.71329,3.15795 -22.57247,-7.77102 -36.41243,-30.99458 -53.0361,-48.12813 -13.11204,-13.51422 -24.45044,-28.64289 -36.68068,-42.96005 -8.08421,-9.46366 -17.15367,-18.16642 -24.25927,-28.38531 -7.76334,-11.16482 -20.20903,-22.05039 -19.84439,-35.64413 0.49512,-18.45799 12.74046,-39.13732 29.50122,-46.88454 22.82533,-10.55041 51.69938,0.525 74.66484,10.76681 30.3837,13.55009 58.49397,36.06693 76.60585,63.97273 16.3639,25.21261 30.29891,57.23729 24.60516,86.75057 -2.97996,15.44649 -14.98932,29.90157 -28.84334,37.3541 z" /><path
         id="path4233"
         style="display:inline;fill:#6e5225;fill-opacity:1;stroke:#000000;stroke-width:5.75197;stroke-linecap:round;stroke-linejoin:round;stroke-dasharray:none;paint-order:markers fill stroke"
         d="m 438.03158,848.47048 c -11.05234,1.34872 -21.38624,9.50538 -32.42275,8.03273 -9.15827,-1.22203 -17.54759,-7.09154 -24.21587,-13.48696 -17.08873,-16.3895 -27.84859,-38.77502 -37.12396,-60.56052 -16.82043,-39.50696 -28.85496,-86.61324 -32.50549,-124.64724 -1.98561,-29.95027 -4.67239,-46.92384 7.25439,-65.45863 6.72567,-8.31771 24.30921,-15.12192 37.58634,-16.93903 10.80816,-1.4792 19.22416,-2.09041 27.95875,1.18329 10.60074,3.97313 18.96345,12.78787 26.51714,21.22014 13.38011,14.93638 25.0649,32.07175 32.21412,50.80705 17.73122,46.4666 32.9816,98.22075 24.35893,147.20229 -3.49105,19.83108 -12.9413,41.36738 -29.62159,52.64688 z" /><path
         id="path4234"
         style="display:none;fill:#6e5225;fill-opacity:1;stroke:#000000;stroke-width:6;stroke-linecap:round;stroke-linejoin:round;stroke-dasharray:none;paint-order:markers fill stroke"
         d="m 899.37475,462.46584 -51.359,-96.05232 -76.72351,-97.74339 c 0,0 30.55278,-27.52391 49.78082,-30.35889 20.70522,-3.05278 42.59515,5.43231 60.75906,15.82933 27.70452,15.85806 52.76327,39.49798 67.75099,67.68284 12.96184,24.37514 24.54229,55.13035 15.76921,81.30649 -9.39941,28.04491 -65.97757,59.33594 -65.97757,59.33594 z" /><path
         style="display:none;fill:#a06e1f;fill-opacity:1;stroke:#000000;stroke-width:6;stroke-linecap:round;stroke-linejoin:round;stroke-dasharray:none;stroke-dashoffset:0;stroke-opacity:1;paint-order:markers fill stroke"
         d="m 716.51956,307.25742 c 0,0 10.73402,-31.92227 23.31143,-41.68004 12.14507,-9.42236 29.24323,-10.75202 44.57888,-11.8015 18.4307,-1.26129 37.73661,0.19789 55.00854,6.75244 22.11807,8.39362 41.66694,23.58561 58.44421,40.26449 15.41325,15.32287 29.42162,33.2209 37.30608,53.47414 8.36784,21.49492 11.1652,45.60216 9.19969,68.58452 -0.92622,10.83006 -3.97739,21.91019 -9.76018,31.11386 -5.75602,9.16105 -13.94324,17.48791 -23.68677,22.19113 -9.51923,4.59495 -31.3704,4.6327 -31.3704,4.6327 0,0 15.76155,-8.38895 21.50221,-14.97065 6.32975,-7.25709 11.9391,-16.17625 13.13246,-25.73167 3.89317,-31.1755 -4.38672,-65.17229 -20.88392,-91.91007 -17.68887,-28.66918 -46.13055,-53.40399 -78.03474,-64.21791 -23.30112,-7.89791 -50.77027,-6.16986 -73.76454,2.58129 -10.11098,3.84803 -15.04486,16.72177 -24.98295,20.71727 z"
         id="path4235" /><path
         style="display:inline;fill:none;stroke:#423216;stroke-width:2.876;stroke-linecap:round;stroke-linejoin:round;stroke-dasharray:none;stroke-opacity:1"
         d="m 324.48571,589.56651 c 3.42529,-1.19214 10.79577,-4.49699 13.57425,-4.39797 13.49511,0.48097 28.02919,16.77774 38.70786,28.8039 9.98483,11.24477 17.27312,25.01007 22.46246,39.12434 15.57039,42.34923 27.29038,88.04453 24.69605,133.09077 -1.31499,22.83263 4.9032,69.38921 -20.17961,65.57671 l -14.79922,-2.24943"
         id="path4236" /></g><g
       id="g4254"
       style="display:inline"
       transform="translate(183.84775,-1219.052)"><g
         id="g4253"
         transform="matrix(9.1643897,0,0,9.1643897,-6060.0365,-4839.996)"><path
           d="m 1178.8463,401.23135 c -15.7141,18.42206 -35.5759,40.9016 -52.7962,57.62926 -0.038,0.0345 -0.07,0.0911 -0.1083,0.12555 -2.917,2.8298 -5.9061,5.77342 -8.5599,8.13297 -30.8693,27.44631 -81.3649,63.35539 -124.14831,92.39306 -21.3918,14.51897 -40.8557,27.31763 -54.97026,36.49135 -14.11428,9.17388 -22.88477,14.71314 -22.88477,14.71314 0,0 3.07968,-16.62946 2.62059,-30.66834 -0.15342,-4.67959 -0.69828,-9.06781 -1.88287,-12.46135 -4.97345,-14.23946 -14.80707,-29.20662 -28.7662,-34.91937 -21.39841,-8.75711 -47.00002,-23.10843 -69.19771,2.15459 -1.47913,1.68311 -2.93942,3.54043 -4.38673,5.59028 -38.70786,77.51939 9.03134,97.82994 37.48125,134.78533 22.35363,29.03679 61.75171,39.86288 94.85828,55.57165 60.74773,28.82461 189.05663,70.34315 189.05663,70.34315 0.3972,-0.44214 1.0298,-0.99029 1.0298,-0.99029 11.8655,-12.63517 32.3982,-34.61715 33.017,-56.38703 -1.0202,-5.86601 -2.3329,-10.99064 -3.9976,-15.2956 -2.4805,-4.49261 -5.9349,-8.47007 -9.8992,-11.25797 -12.1531,-8.5467 -44.1197,-6.32769 -44.1197,-6.32769 l 66.1891,-92.80071 135.9112,-194.20046 c 0,0 -84.5284,-4.16898 -124.0707,-17.64395 -3.3977,-1.15751 -6.8657,-2.93134 -10.3651,-4.98855 z m -42.6641,398.90171 c 2e-4,-6e-5 7.9419,0.97729 16.2853,-2.03795 -5.4552,1.90816 -16.2853,2.03795 -16.2853,2.03795 z"
           style="display:inline;mix-blend-mode:normal;fill:#faefff;fill-opacity:1;stroke:none;stroke-width:19.8762;stroke-linecap:round;stroke-linejoin:round;stroke-dasharray:none;stroke-opacity:1;paint-order:markers fill stroke;filter:url(#filter3592)"
           id="path4237"
           transform="matrix(0.10062296,0,0,0.10062296,699.06851,504.20699)" /><path
           d="m 1367.9999,396.1458 c -21.1238,0.0491 -42.442,4.61131 -54.7178,27.71805 l -135.9112,194.20046 -66.1891,92.8007 c 0,0 31.9666,-2.219 44.1197,6.3277 8.1039,5.6991 14.1176,16.35687 13.9172,26.26226 -0.4426,21.86477 -21.118,43.98643 -33.0365,56.67809 0,0 11.5813,-0.0948 16.8481,-2.17391 17.7038,-6.98902 32.7526,-20.03114 46.3713,-33.32752 18.3295,-17.89556 31.4494,-40.45384 46.3131,-61.31721 38.3903,-53.88569 110.639,-164.7937 110.639,-164.7937 0,0 45.1236,-55.44267 57.571,-88.29765 4.4319,-11.69835 11.1565,-25.98751 5.4738,-37.13197 -5.2409,-10.27515 -19.1624,-15.20661 -30.6684,-16.0135 -6.6546,-0.46667 -13.689,-0.9482 -20.7302,-0.9318 z"
           style="display:inline;mix-blend-mode:normal;fill:#faefff;fill-opacity:1;stroke:none;stroke-width:19.8762;stroke-linecap:round;stroke-linejoin:round;stroke-dasharray:none;paint-order:markers fill stroke;filter:url(#filter3593)"
           id="path4238"
           transform="matrix(0.10062296,0,0,0.10062296,699.06851,504.20699)" /><path
           d="m 1123.158,297.38597 c -17.9353,-0.76208 -34.1564,15.62451 -49.9428,25.15594 -59.6088,35.98982 -165.90017,126.94353 -165.90017,126.94353 -21.48271,8.86013 -88.03417,62.18341 -93.55771,90.93747 23.15832,-32.79629 50.75944,-17.08603 73.58444,-7.74486 13.95914,5.71275 23.79209,20.68009 28.7662,34.91937 4.74051,13.57334 -0.73772,43.12969 -0.73772,43.12969 0,0 140.26476,-88.70472 202.00336,-143.59756 31.7449,-28.225 85.4831,-94.50911 85.4831,-94.50911 2.5583,-59.78129 -41.0362,-68.75718 -76.0885,-74.84619 -1.2109,-0.20976 -2.4157,-0.33768 -3.61,-0.3874 z"
           style="display:inline;mix-blend-mode:normal;fill:#faefff;fill-opacity:1;stroke:none;stroke-width:19.8762;stroke-linecap:round;stroke-linejoin:round;stroke-dasharray:none;paint-order:markers fill stroke;filter:url(#filter3594)"
           id="path4239"
           transform="matrix(0.10062296,0,0,0.10062296,699.06851,504.20699)" /><g
           id="g4245"
           style="display:inline"
           transform="matrix(0.10062296,0,0,0.10062296,699.06851,504.20699)"><path
             d="m 1178.8463,401.23135 c -15.7141,18.42206 -35.5759,40.9016 -52.7962,57.62926 -0.038,0.0345 -0.07,0.0911 -0.1083,0.12555 -2.917,2.8298 -5.9061,5.77342 -8.5599,8.13297 -30.8693,27.44631 -81.3649,63.35539 -124.14831,92.39306 -21.3918,14.51897 -40.8557,27.31763 -54.97026,36.49135 -14.11428,9.17388 -22.88477,14.71314 -22.88477,14.71314 0,0 3.07968,-16.62946 2.62059,-30.66834 -0.15342,-4.67959 -0.69828,-9.06781 -1.88287,-12.46135 -4.97345,-14.23946 -14.80707,-29.20662 -28.7662,-34.91937 -21.39841,-8.75711 -47.00002,-23.10843 -69.19771,2.15459 -1.47913,1.68311 -2.93942,3.54043 -4.38673,5.59028 -38.70786,77.51939 9.03134,97.82994 37.48125,134.78533 22.35363,29.03679 61.75171,39.86288 94.85828,55.57165 60.74773,28.82461 189.05663,70.34315 189.05663,70.34315 0.3972,-0.44214 1.0298,-0.99029 1.0298,-0.99029 11.8655,-12.63517 32.3982,-34.61715 33.017,-56.38703 -1.0202,-5.86601 -2.3329,-10.99064 -3.9976,-15.2956 -2.4805,-4.49261 -5.9349,-8.47007 -9.8992,-11.25797 -12.1531,-8.5467 -44.1197,-6.32769 -44.1197,-6.32769 l 66.1891,-92.80071 135.9112,-194.20046 c 0,0 -84.5284,-4.16898 -124.0707,-17.64395 -3.3977,-1.15751 -6.8657,-2.93134 -10.3651,-4.98855 z m -42.6641,398.90171 c 2e-4,-6e-5 7.9419,0.97729 16.2853,-2.03795 -5.4552,1.90816 -16.2853,2.03795 -16.2853,2.03795 z"
             style="fill:#ffffff;fill-opacity:1;stroke:#ac8fbf;stroke-width:4.60408;stroke-linecap:round;stroke-linejoin:round;stroke-dasharray:none;stroke-opacity:1;paint-order:markers fill stroke"
             id="path4240" /><path
             style="display:inline;fill:none;stroke:#a5a5a5;stroke-width:1;stroke-linejoin:bevel;stroke-dasharray:none;stroke-opacity:1"
             d="m 803.49629,576.30508 c 1.06186,-1.4771 1.64331,-3.42428 2.92908,-4.7378 0.72953,-0.74528 0.48672,1.74551 1.46452,1.74551 0.0814,0 0.19201,0.0639 0.2441,0 1.60885,-1.9723 2.90871,-4.51437 4.14952,-6.73265 0.27079,-0.48411 0.41927,-1.03936 0.73227,-1.49615 0.26394,-0.3852 0.67682,-0.64044 0.97636,-0.99743 0.57646,-0.68704 0.31163,-0.73749 0.97636,-1.24678 0.6363,-0.48754 1.28098,-0.30266 1.95271,-0.49872 0.68725,-0.20059 2.00278,-0.89936 2.44089,-1.49616 1.00217,-1.36503 1.4834,-3.51025 2.685,-4.73779 0.15212,-0.15539 1.88215,-0.16899 2.19681,-0.24936 1.17825,-0.30092 2.68499,-2.09096 2.68499,-3.24164"
             id="path4241"
             transform="matrix(9.9380897,0,0,9.9380897,-6947.4055,-5010.8543)" /><path
             style="display:inline;fill:none;stroke:#a5a5a5;stroke-width:1;stroke-linejoin:bevel;stroke-dasharray:none;stroke-opacity:1"
             d="m 795.39404,571.56729 c 0.0253,3.0155 -0.32002,3.30478 1.22045,-10e-6 1.48296,-3.18147 4.67987,-10.80669 7.32269,-12.96658 1.2656,-1.03435 0.78777,0.91824 0.97636,1.49615 0.16707,0.51193 0.76061,1.60635 1.46453,1.24679 0.46597,-0.23809 0.63731,-0.8427 0.97635,-1.2468 0.95549,-1.13875 1.94604,-2.40588 3.17318,-3.24163 0.37639,-0.2564 1.28704,0.17226 1.70863,-2e-5 0.54477,-0.22254 0.92524,-0.76132 1.46453,-0.99742 0.30837,-0.13496 0.66799,-0.11442 0.97624,-0.24983 1.87745,-0.822 2.70136,-2.70149 3.90541,-4.23907 0.2914,-0.37207 0.97638,-0.73308 0.97638,-1.24679"
             id="path4242"
             transform="matrix(9.9380897,0,0,9.9380897,-6947.4055,-5010.8543)" /><path
             d="m 1367.9999,396.1458 c -21.1238,0.0491 -42.442,4.61131 -54.7178,27.71805 l -135.9112,194.20046 -66.1891,92.8007 c 0,0 31.9666,-2.219 44.1197,6.3277 8.1039,5.6991 14.1176,16.35687 13.9172,26.26226 -0.4426,21.86477 -21.118,43.98643 -33.0365,56.67809 0,0 11.5813,-0.0948 16.8481,-2.17391 17.7038,-6.98902 32.7526,-20.03114 46.3713,-33.32752 18.3295,-17.89556 31.4494,-40.45384 46.3131,-61.31721 38.3903,-53.88569 110.639,-164.7937 110.639,-164.7937 0,0 45.1236,-55.44267 57.571,-88.29765 4.4319,-11.69835 11.1565,-25.98751 5.4738,-37.13197 -5.2409,-10.27515 -19.1624,-15.20661 -30.6684,-16.0135 -6.6546,-0.46667 -13.689,-0.9482 -20.7302,-0.9318 z"
             style="fill:#ffffff;fill-opacity:1;stroke:#ac8fbf;stroke-width:4.60408;stroke-linecap:round;stroke-linejoin:round;stroke-dasharray:none;stroke-opacity:1;paint-order:markers fill stroke"
             id="path4243" /><path
             style="display:inline;fill:none;stroke:#a5a5a5;stroke-width:1;stroke-linejoin:bevel;stroke-dasharray:none;stroke-opacity:1"
             d="m 787.44527,566.71534 c 0,-0.53426 -0.0708,-1.25504 0.21897,-1.75182 0.73723,-1.26382 3.34215,-4.73677 4.81752,-5.47445 0.33185,-0.16593 0.99573,0.39801 1.53285,0.21897 0.60719,-0.20239 0.79731,-0.83662 1.31387,-1.0949 0.0653,-0.0326 0.16736,0.0516 0.21898,0 0.0516,-0.0516 -0.0516,-0.16736 0,-0.21897 0.1389,-0.13891 0.69359,0.0911 0.87591,0 0.60072,-0.30035 1.34169,-3.30322 2.62774,-4.16059 0.47327,-0.31551 1.2087,0.27588 1.53284,0.43796 0.23963,0.11981 1.03215,0.0704 1.31387,0 1.69449,-0.42362 1.96399,-3.06229 2.84671,-3.50365 0.70337,-0.35168 1.14939,0.32897 1.75183,-0.87591"
             id="path4244"
             transform="matrix(9.9380897,0,0,9.9380897,-6947.4055,-5010.8543)" /><path
             d="m 1123.158,297.38597 c -17.9353,-0.76208 -34.1564,15.62451 -49.9428,25.15594 -59.6088,35.98982 -165.90017,126.94353 -165.90017,126.94353 -21.48271,8.86013 -88.03417,62.18341 -93.55771,90.93747 23.15832,-32.79629 50.75944,-17.08603 73.58444,-7.74486 13.95914,5.71275 23.79209,20.68009 28.7662,34.91937 4.74051,13.57334 -0.73772,43.12969 -0.73772,43.12969 0,0 140.26476,-88.70472 202.00336,-143.59756 31.7449,-28.225 85.4831,-94.50911 85.4831,-94.50911 2.5583,-59.78129 -41.0362,-68.75718 -76.0885,-74.84619 -1.2109,-0.20976 -2.4157,-0.33768 -3.61,-0.3874 z"
             style="fill:#ffffff;fill-opacity:1;stroke:#ac8fbf;stroke-width:4.60408;stroke-linecap:round;stroke-linejoin:round;stroke-dasharray:none;stroke-opacity:1;paint-order:markers fill stroke"
             id="path4245" /></g><g
           id="g4249"><path
             style="fill:#aa6fe9;stroke-width:0.932176;stroke-linejoin:round;stroke-dasharray:none"
             id="path4246"
             d="m 798.19837,563.79647 c 0.0399,0.028 0.0787,0.0584 0.1197,0.0841 0.10315,0.0645 0.41744,0.24706 0.3159,0.17924 -2.36312,-1.57819 -1.47246,-1.02409 -0.99122,-0.59803 0.77588,0.82953 0.54311,1.0375 2.14816,1.41713 0.11556,0.0273 0.11606,-0.23644 0.17408,-0.35466 0.50845,-1.06202 1.15721,-2.11076 2.0646,-2.77021 0.14626,-0.10629 0.31172,-0.17273 0.46758,-0.25909 0.54346,-0.24798 1.01506,-0.0528 1.53014,0.14257 0.48254,0.13406 0.98215,0.11657 1.4728,0.20335 0.59007,0.14819 1.07286,0.65392 1.66296,0.7939 0.0938,0.0223 0.19063,0.0221 0.28595,0.0331 0.45101,-0.0101 0.87039,-0.2319 1.32092,-0.2553 0.22398,-0.0116 0.49741,0.0352 0.71956,0.0651 0.23132,0.0246 0.47446,0.20912 0.71414,0.17106 0.17685,-0.0281 0.36564,-0.22814 0.50786,-0.33491 0.53694,-0.32039 1.14138,-0.36806 1.73497,-0.37088 0.0554,-0.0205 0.11746,-0.025 0.16633,-0.0614 0.0577,-0.043 0.0968,-0.1121 0.14376,-0.1698 0.17902,-0.22023 0.20222,-0.28976 0.44641,-0.47419 0.4454,-0.33638 0.57295,-0.3347 1.1203,-0.54985 0.68772,-0.21935 1.39194,-0.35527 2.09202,-0.50936 0.21672,-0.0477 0.65557,-0.16659 0.89819,-0.13415 0.13724,0.0183 0.26538,0.0886 0.39805,0.13294 0.13483,0.0864 0.53955,0.34526 0.40449,0.2593 -0.32288,-0.20549 -0.63561,-0.43347 -0.96796,-0.6179 -0.11886,-0.066 0.21784,0.17151 0.32454,0.26085 0.059,0.0494 0.33229,0.30267 0.42774,0.35982 0.52916,0.31683 1.06604,0.61631 1.59907,0.92446 0.0497,-0.0665 0.10522,-0.12767 0.1488,-0.19955 0.36305,-0.59871 -0.13071,0.10744 0.27798,-0.53131 0.16989,-0.26553 0.37632,-0.45537 0.6085,-0.64182 l -0.67088,-1.58381 v 0 c 0.0464,0.0328 0.064,0.0343 0.0243,0.0983 -0.20077,0.22077 -0.55485,0.22426 -0.75038,0.467 -0.23628,0.21182 -0.44646,0.42901 -0.63238,0.70185 -0.10458,0.15348 -0.18311,0.33018 -0.29562,0.47603 -0.0212,0.0274 -0.0522,0.0422 -0.0782,0.0634 0.44082,0.30543 0.88379,0.60677 1.32246,0.91628 0.0689,0.0486 -0.14565,-0.0819 -0.21291,-0.13343 -0.37243,-0.28548 -0.19035,-0.22179 -0.61025,-0.51565 -1.62914,-1.14013 -1.20141,-0.89204 -2.19303,-1.42104 -0.14622,-0.0306 -0.29012,-0.0868 -0.43869,-0.0917 -0.19509,-0.006 -0.69152,0.15098 -0.85293,0.19576 -0.68633,0.19041 -1.37738,0.3553 -2.06247,0.5519 -0.63298,0.2085 -0.72669,0.18503 -1.24818,0.52596 -0.1146,0.0749 -0.2206,0.16655 -0.32533,0.25865 -0.10067,0.0885 -0.17548,0.22074 -0.29035,0.28224 -0.0408,0.0218 -0.0876,0.0233 -0.13142,0.035 -0.60629,0.059 -1.21969,0.1504 -1.7753,0.45455 -0.0446,0.0281 -0.26918,0.17593 -0.34256,0.20262 -0.25429,0.0925 -0.53513,-0.1181 -0.78811,-0.11186 -0.28595,-0.0237 -0.44016,-0.048 -0.73137,-0.0226 -0.44436,0.0387 -0.87377,0.22473 -1.32286,0.18989 -0.67948,-0.14727 -1.24709,-0.6367 -1.92335,-0.80636 -0.50372,-0.0835 -1.02043,-0.1016 -1.50911,-0.27427 -0.51973,-0.18742 -1.00273,-0.23498 -1.51461,0.0553 -0.15049,0.10316 -0.30916,0.19195 -0.45147,0.30948 -0.88366,0.72981 -1.53785,1.76034 -2.17413,2.75678 -0.54718,0.74412 -0.25389,0.17012 1.1963,1.23155 0.0396,0.029 -0.0972,-0.0169 -0.13399,-0.0504 -0.16486,-0.15025 -0.23405,-0.44219 -0.42519,-0.56796 -0.66047,-0.7206 -1.54367,-1.0999 -2.32924,-1.61667 z" /><path
             style="fill:#aa6fe9;stroke-width:1.02065;stroke-linejoin:round;stroke-dasharray:none"
             id="path4247"
             d="m 790.97527,569.96251 c 0.63579,0.3495 1.26753,0.721 1.94974,0.98202 0.0934,0.0152 0.18637,0.0573 0.28039,0.0457 0.39372,-0.0487 0.75023,-0.45001 1.01857,-0.68334 0.51729,-0.44978 0.30457,-0.26879 0.8389,-0.70755 0.47418,-0.32582 1.11588,-1.03379 1.75394,-1.02918 0.0972,7e-4 0.19057,0.0365 0.28586,0.0548 -2.54715,-1.36747 -1.34378,-0.84236 -0.8625,-0.19047 0.27839,0.37708 0.48497,0.80427 0.7044,1.21378 0.52814,1.06732 0.58029,1.0737 2.28999,1.60427 0.0226,0.007 0.155,-0.29815 0.25281,-0.51621 0.21877,-0.33895 0.70147,-1.07883 1.20403,-0.99729 0.0758,0.0123 0.13808,0.0651 0.20713,0.0976 0.96254,0.5928 -1.82725,-0.93347 -1.35604,-0.72741 0.6584,0.28794 1.25241,0.69768 1.90012,1.00714 0.0531,0.0254 0.12382,0.01 0.17738,-0.0146 0.0749,-0.0343 0.38369,-0.31543 0.43377,-0.35964 0.23077,-0.18531 0.4612,-0.49448 0.77339,-0.56681 0.0812,-0.0188 0.1663,0.0143 0.24944,0.0214 -0.49447,-0.25224 -0.96595,-0.55135 -1.48341,-0.75674 -0.1151,-0.0457 0.16635,0.178 0.24951,0.267 0.4356,0.82063 0.57154,1.74679 0.91675,2.60138 0.50287,0.64293 0.37329,0.5223 2.0696,0.9251 0.12063,0.0286 0.16369,-0.17952 0.24337,-0.27103 0.30793,-0.35366 0.62121,-0.70073 0.93725,-1.04789 0.0991,-0.10002 0.1945,-0.20339 0.29706,-0.30007 0.12025,-0.11334 0.32905,-0.32286 0.52109,-0.35498 0.0643,-0.0108 0.24706,0.0752 0.19034,0.0442 -1.79942,-0.98496 -2.00146,-1.20337 -1.45742,-0.68265 0.092,0.13556 0.15873,0.28695 0.18807,0.44678 0.003,0.0176 -0.016,0.0459 7.4e-4,0.0537 1.91562,0.88999 1.63219,1.42862 1.94422,0.64009 0.36347,-0.64922 0.91484,-1.26326 1.65412,-1.51267 0.0828,-10e-4 0.16578,-0.009 0.24843,-0.004 0.27428,0.0166 0.66076,0.26262 0.87551,0.23831 0.0978,-0.0111 0.18402,-0.0674 0.27603,-0.10105 0.69484,-0.56142 1.10598,-1.37452 1.77359,-1.96279 0.11195,-0.0986 0.24285,-0.17538 0.36428,-0.26307 0.1022,-0.0285 0.20016,-0.0879 0.30655,-0.0855 0.0803,0.002 0.28986,0.13278 0.21871,0.097 -0.51158,-0.25704 -0.99948,-0.56658 -1.54021,-0.76101 -0.0971,-0.0349 0.11161,0.1691 0.1506,0.26135 0.0982,0.23247 0.11992,0.44132 0.16255,0.68622 0.062,0.35198 0.0389,0.70841 0.0452,1.06247 7.2e-4,0.04 -0.0239,0.0994 0.0123,0.11944 0.61395,0.34035 1.26038,0.6236 1.89058,0.9354 l 1.63162,-2.16818 v 0 c -0.39303,0.0412 -0.78534,0.0854 -1.16522,0.19741 -0.43218,0.12959 -0.86234,0.25623 -1.27283,0.44266 -0.22914,0.10407 -0.44275,0.23812 -0.67301,0.33989 -0.0657,0.029 -0.13612,0.0472 -0.20418,0.0708 0.55545,0.32889 1.11145,0.6569 1.66633,0.98665 0.0271,0.0161 -0.0715,-0.0171 -0.0829,-0.0457 -0.0242,-0.0605 -0.009,-0.1292 -0.0128,-0.19385 -0.0174,-0.306 -0.0349,-0.61193 -0.0722,-0.91654 -0.0216,-0.15165 -0.11363,-0.94903 -0.23347,-1.03577 -0.59718,-0.43217 -1.24556,-0.79839 -1.90212,-1.14213 -0.0773,-0.0405 -0.17971,-0.0162 -0.26408,0.008 -0.10947,0.0315 -0.20168,0.10321 -0.30251,0.15482 -0.41907,0.36023 -0.33666,0.26564 -0.72829,0.71191 -0.36462,0.4155 -0.69582,0.87657 -1.13125,1.23036 -0.0863,0.0701 -0.18905,0.119 -0.28356,0.1785 -0.0765,0.006 -0.15315,0.0241 -0.22949,0.0169 -0.045,-0.004 -0.38933,-0.11959 -0.4218,-0.12772 -0.25705,-0.0643 -0.50109,-0.0664 -0.75583,0.0135 -0.73111,0.3675 -1.27553,0.97895 -1.75762,1.6106 -0.45814,0.73009 -0.16367,0.13687 1.69862,1.13294 0.0154,0.008 -0.0357,-0.0133 -0.044,-0.0283 -0.087,-0.16009 -0.0763,-0.36414 -0.17673,-0.52033 -0.46208,-0.77311 -0.17866,-0.37178 -2.03068,-1.21933 -0.25557,-0.11696 -0.89934,0.64945 -1.0274,0.78918 -0.30883,0.34596 -0.62148,0.69999 -0.9663,1.01407 -0.0782,0.0713 -0.32997,0.12854 -0.24963,0.1976 0.97421,0.83729 2.29685,1.13945 1.42212,0.92651 -0.47778,-0.81615 -0.57467,-1.77228 -0.92043,-2.63887 -0.0642,-0.11081 -0.0821,-0.26301 -0.19255,-0.33243 -0.35532,-0.2232 -1.48077,-1.30916 -2.28613,-0.9843 -0.30911,0.1247 -0.54067,0.3937 -0.79769,0.58798 -0.0939,0.0667 -0.24477,0.20544 -0.38474,0.21726 -0.0465,0.004 -0.17563,-0.0546 -0.13601,-0.031 3.3594,1.99741 0.6868,0.2282 -0.54071,-0.24996 -0.0849,-0.006 -0.17055,-0.0292 -0.25469,-0.0169 -0.55502,0.0809 -0.99474,0.74923 -1.2935,1.14716 -0.48456,0.89376 -0.52537,0.21621 1.45909,1.33106 0.0509,0.0286 -0.10719,-0.0542 -0.14494,-0.0978 -0.084,-0.0969 -0.32122,-0.5397 -0.36482,-0.61804 -0.28652,-0.5269 -0.53407,-1.12032 -0.92222,-1.58863 -0.52027,-0.62772 -1.89942,-1.13003 -2.27678,-1.33174 -0.10795,-3e-5 -0.21728,-0.0167 -0.32381,-9e-5 -0.69931,0.10902 -1.19744,0.77062 -1.73568,1.14209 -0.41543,0.33826 -1.07477,0.98044 -1.57691,1.1608 -0.22171,0.0796 -0.28718,0.0297 -0.49982,-0.0245 -0.69951,-0.28956 -1.33224,-0.70225 -2.02535,-1.00222 z" /><path
             style="fill:#aa6fe9;stroke-width:0.91458;stroke-linejoin:round;stroke-dasharray:none"
             id="path4248"
             d="m 814.88395,552.42388 c -0.026,-0.57143 0.47235,-1.0195 0.82154,-1.34375 0.26324,-0.17738 0.79261,-0.6291 1.12363,-0.49371 0.0804,0.0329 0.27812,0.22143 0.19816,0.18684 -0.40522,-0.17524 -0.78947,-0.40885 -1.18421,-0.61328 0.41767,1.26416 0.39603,2.63679 0.33238,3.96637 -0.12152,1.0539 -0.19766,0.85226 1.39483,1.5942 0.0917,0.0427 0.11408,-0.18594 0.17621,-0.2744 0.27893,-0.39706 0.31162,-0.40609 0.66045,-0.79216 0.90892,-0.91313 1.86603,-1.79784 2.93219,-2.45835 0.0971,-0.0323 0.19089,-0.0847 0.29147,-0.0967 0.0688,-0.008 0.13681,0.0252 0.20522,0.0377 -0.42821,-0.26341 -0.84628,-0.54984 -1.2846,-0.79023 -0.0586,-0.0322 0.0991,0.0988 0.13582,0.16025 0.0788,0.13149 0.14648,0.37455 0.19249,0.51845 0.31392,1.22975 0.41318,1.35617 1.91843,1.8697 0.10851,0.0371 0.1529,-0.19201 0.22936,-0.288 0.75657,-1.14239 1.43291,-2.36812 2.33405,-3.37397 0.14607,-0.16304 0.30812,-0.30607 0.46216,-0.45912 0.12422,-0.0703 0.2376,-0.17571 0.37261,-0.21097 0.087,-0.0226 0.17631,0.0297 0.26445,0.0446 -0.40656,-0.23861 -0.78679,-0.54921 -1.21969,-0.71582 -0.0936,-0.036 0.10698,0.19307 0.13962,0.30011 0.0762,0.24962 0.0884,0.61026 0.10819,0.86353 0.0553,0.84122 -0.0622,1.68666 0.0197,2.52551 l 0.25243,0.0478 v 0 c 1.36327,-1.54915 1.09882,-1.40181 1.13505,-1.76171 0.0161,-0.16045 -0.0242,-1.1753 -0.14414,-1.27834 -0.0882,-0.0758 -1.23776,-1.36912 -1.87776,-1.00844 -0.12481,0.0704 -0.22527,0.18721 -0.3379,0.28081 -0.46414,0.54571 -0.46907,0.53355 -0.9323,1.16399 -0.52279,0.7115 -1.00142,1.47134 -1.55053,2.15716 -0.12526,0.15643 -0.26436,0.29745 -0.39655,0.44618 -0.63185,0.47409 -0.28588,0.11137 1.08289,1.0854 0.0493,0.0351 -0.10699,-0.0611 -0.14341,-0.11283 -0.15095,-0.21407 -0.16055,-0.53876 -0.24565,-0.78427 -0.0366,-0.12924 -0.16444,-0.71384 -0.26015,-0.7837 -1.10555,-0.80689 -1.22569,-1.29441 -2.07102,-0.81932 -1.01547,0.764 -1.95403,1.66043 -2.91255,2.51353 -0.25436,0.24401 -0.49746,0.50383 -0.75911,0.73743 -0.0357,0.0319 -0.1547,0.0437 -0.11872,0.0752 1.70073,1.4856 1.32016,1.44395 1.3277,0.40116 0.005,-1.34911 0.004,-2.7141 -0.25494,-4.03686 -0.51309,-0.43414 -1.0123,-0.89083 -1.5393,-1.3024 -0.0734,-0.0575 -0.1642,-0.0898 -0.25284,-0.0973 -0.41909,-0.0353 -0.82229,0.37783 -1.15462,0.60108 -0.42143,0.38448 -0.88528,0.84605 -0.98666,1.48412 z" /><path
             style="fill:#aa6fe9;stroke-width:1;stroke-linejoin:round;stroke-dasharray:none"
             id="path4249"
             d="m 781.16984,562.02178 c 0.57196,0.71977 1.08476,1.48415 1.62074,2.23054 0.59366,0.74588 1.25503,0.98151 2.32265,1.30557 0.10317,0.0313 0.9036,-0.82249 0.98555,-0.90816 0.33849,-0.35598 0.66634,-0.72108 1.02433,-1.0579 0.0794,-0.0747 0.38431,-0.35778 0.50003,-0.42244 0.0607,-0.0339 0.13283,-0.0409 0.19924,-0.0614 0.71066,0.12799 0.3862,0.086 -1.38207,-0.79003 -0.0561,-0.0278 0.0975,0.0794 0.13987,0.1255 0.0731,0.0796 0.0999,0.20403 0.19127,0.26172 0.58046,0.36653 1.18059,0.70092 1.77089,1.05138 0.22994,0.002 0.42896,-0.29479 0.66509,-0.24271 0.0739,0.0163 0.25776,0.158 0.19025,0.12383 -0.47725,-0.24157 -0.94699,-0.49769 -1.42048,-0.74654 0.066,0.0838 0.13895,0.16267 0.19801,0.25154 0.0684,0.10297 0.27951,0.62836 0.32073,0.65613 1.72299,1.16064 1.33748,1.59584 1.83245,0.8789 l -1.47549,-1.4295 v 0 c -0.14821,0.11671 -0.22817,0.23391 -0.23184,0.42645 0.41163,-0.58713 -0.0207,-0.0199 1.65295,0.91928 0.0506,0.0284 -0.0698,-0.0931 -0.0977,-0.14394 -0.0979,-0.17823 -0.16474,-0.3723 -0.2621,-0.5508 -0.0533,-0.0977 -0.11695,-0.18932 -0.17543,-0.28398 -0.61904,-0.38672 -1.22143,-0.80147 -1.85713,-1.16015 -0.0787,-0.0444 -0.17804,-0.0432 -0.26834,-0.0391 -0.2061,0.009 -0.39513,0.22107 -0.59984,0.11177 0.51884,0.31264 1.03155,0.63569 1.55653,0.93791 0.043,0.0248 -0.077,-0.0641 -0.10719,-0.10356 -0.0345,-0.0452 -0.16816,-0.30666 -0.21577,-0.3357 -0.60174,-0.36696 -1.21373,-0.72006 -1.84774,-1.02794 -0.0564,-0.0274 -0.12223,0.0278 -0.18334,0.0416 -0.68575,0.39065 -1.09809,1.13574 -1.68186,1.65035 -0.21627,0.20506 -0.46162,0.45918 -0.71612,0.62459 -0.0831,0.054 -0.34185,0.0603 -0.26865,0.12707 0.41967,0.3827 0.9563,0.61321 1.42776,0.92993 0.0731,0.0491 -0.16337,-0.0711 -0.23177,-0.12648 -0.0896,-0.0726 -0.15759,-0.16837 -0.23638,-0.25255 -0.54821,-0.70394 -1.06624,-1.43542 -1.53589,-2.19415 z" /></g><path
           style="mix-blend-mode:normal;fill:#964ae4;fill-opacity:1;stroke-width:0.932176;stroke-linejoin:round;stroke-dasharray:none;filter:url(#filter1544)"
           id="path4250"
           d="m 798.19837,563.79647 c 0.0399,0.028 0.0787,0.0584 0.1197,0.0841 0.10315,0.0645 0.41744,0.24706 0.3159,0.17924 -2.36312,-1.57819 -1.47246,-1.02409 -0.99122,-0.59803 0.77588,0.82953 0.54311,1.0375 2.14816,1.41713 0.11556,0.0273 0.11606,-0.23644 0.17408,-0.35466 0.50845,-1.06202 1.15721,-2.11076 2.0646,-2.77021 0.14626,-0.10629 0.31172,-0.17273 0.46758,-0.25909 0.54346,-0.24798 1.01506,-0.0528 1.53014,0.14257 0.48254,0.13406 0.98215,0.11657 1.4728,0.20335 0.59007,0.14819 1.07286,0.65392 1.66296,0.7939 0.0938,0.0223 0.19063,0.0221 0.28595,0.0331 0.45101,-0.0101 0.87039,-0.2319 1.32092,-0.2553 0.22398,-0.0116 0.49741,0.0352 0.71956,0.0651 0.23132,0.0246 0.47446,0.20912 0.71414,0.17106 0.17685,-0.0281 0.36564,-0.22814 0.50786,-0.33491 0.53694,-0.32039 1.14138,-0.36806 1.73497,-0.37088 0.0554,-0.0205 0.11746,-0.025 0.16633,-0.0614 0.0577,-0.043 0.0968,-0.1121 0.14376,-0.1698 0.17902,-0.22023 0.20222,-0.28976 0.44641,-0.47419 0.4454,-0.33638 0.57295,-0.3347 1.1203,-0.54985 0.68772,-0.21935 1.39194,-0.35527 2.09202,-0.50936 0.21672,-0.0477 0.65557,-0.16659 0.89819,-0.13415 0.13724,0.0183 0.26538,0.0886 0.39805,0.13294 0.13483,0.0864 0.53955,0.34526 0.40449,0.2593 -0.32288,-0.20549 -0.63561,-0.43347 -0.96796,-0.6179 -0.11886,-0.066 0.21784,0.17151 0.32454,0.26085 0.059,0.0494 0.33229,0.30267 0.42774,0.35982 0.52916,0.31683 1.06604,0.61631 1.59907,0.92446 0.0497,-0.0665 0.10522,-0.12767 0.1488,-0.19955 0.36305,-0.59871 -0.13071,0.10744 0.27798,-0.53131 0.16989,-0.26553 0.37632,-0.45537 0.6085,-0.64182 l -0.67088,-1.58381 v 0 c 0.0464,0.0328 0.064,0.0343 0.0243,0.0983 -0.20077,0.22077 -0.55485,0.22426 -0.75038,0.467 -0.23628,0.21182 -0.44646,0.42901 -0.63238,0.70185 -0.10458,0.15348 -0.18311,0.33018 -0.29562,0.47603 -0.0212,0.0274 -0.0522,0.0422 -0.0782,0.0634 0.44082,0.30543 0.88379,0.60677 1.32246,0.91628 0.0689,0.0486 -0.14565,-0.0819 -0.21291,-0.13343 -0.37243,-0.28548 -0.19035,-0.22179 -0.61025,-0.51565 -1.62914,-1.14013 -1.20141,-0.89204 -2.19303,-1.42104 -0.14622,-0.0306 -0.29012,-0.0868 -0.43869,-0.0917 -0.19509,-0.006 -0.69152,0.15098 -0.85293,0.19576 -0.68633,0.19041 -1.37738,0.3553 -2.06247,0.5519 -0.63298,0.2085 -0.72669,0.18503 -1.24818,0.52596 -0.1146,0.0749 -0.2206,0.16655 -0.32533,0.25865 -0.10067,0.0885 -0.17548,0.22074 -0.29035,0.28224 -0.0408,0.0218 -0.0876,0.0233 -0.13142,0.035 -0.60629,0.059 -1.21969,0.1504 -1.7753,0.45455 -0.0446,0.0281 -0.26918,0.17593 -0.34256,0.20262 -0.25429,0.0925 -0.53513,-0.1181 -0.78811,-0.11186 -0.28595,-0.0237 -0.44016,-0.048 -0.73137,-0.0226 -0.44436,0.0387 -0.87377,0.22473 -1.32286,0.18989 -0.67948,-0.14727 -1.24709,-0.6367 -1.92335,-0.80636 -0.50372,-0.0835 -1.02043,-0.1016 -1.50911,-0.27427 -0.51973,-0.18742 -1.00273,-0.23498 -1.51461,0.0553 -0.15049,0.10316 -0.30916,0.19195 -0.45147,0.30948 -0.88366,0.72981 -1.53785,1.76034 -2.17413,2.75678 -0.54718,0.74412 -0.25389,0.17012 1.1963,1.23155 0.0396,0.029 -0.0972,-0.0169 -0.13399,-0.0504 -0.16486,-0.15025 -0.23405,-0.44219 -0.42519,-0.56796 -0.66047,-0.7206 -1.54367,-1.0999 -2.32924,-1.61667 z" /><path
           style="mix-blend-mode:normal;fill:#964ae4;fill-opacity:1;stroke-width:1.02065;stroke-linejoin:round;stroke-dasharray:none;filter:url(#filter1543)"
           id="path4251"
           d="m 790.97527,569.96251 c 0.63579,0.3495 1.26753,0.721 1.94974,0.98202 0.0934,0.0152 0.18637,0.0573 0.28039,0.0457 0.39372,-0.0487 0.75023,-0.45001 1.01857,-0.68334 0.51729,-0.44978 0.30457,-0.26879 0.8389,-0.70755 0.47418,-0.32582 1.11588,-1.03379 1.75394,-1.02918 0.0972,7e-4 0.19057,0.0365 0.28586,0.0548 -2.54715,-1.36747 -1.34378,-0.84236 -0.8625,-0.19047 0.27839,0.37708 0.48497,0.80427 0.7044,1.21378 0.52814,1.06732 0.58029,1.0737 2.28999,1.60427 0.0226,0.007 0.155,-0.29815 0.25281,-0.51621 0.21877,-0.33895 0.70147,-1.07883 1.20403,-0.99729 0.0758,0.0123 0.13808,0.0651 0.20713,0.0976 0.96254,0.5928 -1.82725,-0.93347 -1.35604,-0.72741 0.6584,0.28794 1.25241,0.69768 1.90012,1.00714 0.0531,0.0254 0.12382,0.01 0.17738,-0.0146 0.0749,-0.0343 0.38369,-0.31543 0.43377,-0.35964 0.23077,-0.18531 0.4612,-0.49448 0.77339,-0.56681 0.0812,-0.0188 0.1663,0.0143 0.24944,0.0214 -0.49447,-0.25224 -0.96595,-0.55135 -1.48341,-0.75674 -0.1151,-0.0457 0.16635,0.178 0.24951,0.267 0.4356,0.82063 0.57154,1.74679 0.91675,2.60138 0.50287,0.64293 0.37329,0.5223 2.0696,0.9251 0.12063,0.0286 0.16369,-0.17952 0.24337,-0.27103 0.30793,-0.35366 0.62121,-0.70073 0.93725,-1.04789 0.0991,-0.10002 0.1945,-0.20339 0.29706,-0.30007 0.12025,-0.11334 0.32905,-0.32286 0.52109,-0.35498 0.0643,-0.0108 0.24706,0.0752 0.19034,0.0442 -1.79942,-0.98496 -2.00146,-1.20337 -1.45742,-0.68265 0.092,0.13556 0.15873,0.28695 0.18807,0.44678 0.003,0.0176 -0.016,0.0459 7.4e-4,0.0537 1.91562,0.88999 1.63219,1.42862 1.94422,0.64009 0.36347,-0.64922 0.91484,-1.26326 1.65412,-1.51267 0.0828,-10e-4 0.16578,-0.009 0.24843,-0.004 0.27428,0.0166 0.66076,0.26262 0.87551,0.23831 0.0978,-0.0111 0.18402,-0.0674 0.27603,-0.10105 0.69484,-0.56142 1.10598,-1.37452 1.77359,-1.96279 0.11195,-0.0986 0.24285,-0.17538 0.36428,-0.26307 0.1022,-0.0285 0.20016,-0.0879 0.30655,-0.0855 0.0803,0.002 0.28986,0.13278 0.21871,0.097 -0.51158,-0.25704 -0.99948,-0.56658 -1.54021,-0.76101 -0.0971,-0.0349 0.11161,0.1691 0.1506,0.26135 0.0982,0.23247 0.11992,0.44132 0.16255,0.68622 0.062,0.35198 0.0389,0.70841 0.0452,1.06247 7.2e-4,0.04 -0.0239,0.0994 0.0123,0.11944 0.61395,0.34035 1.26038,0.6236 1.89058,0.9354 l 1.63162,-2.16818 v 0 c -0.39303,0.0412 -0.78534,0.0854 -1.16522,0.19741 -0.43218,0.12959 -0.86234,0.25623 -1.27283,0.44266 -0.22914,0.10407 -0.44275,0.23812 -0.67301,0.33989 -0.0657,0.029 -0.13612,0.0472 -0.20418,0.0708 0.55545,0.32889 1.11145,0.6569 1.66633,0.98665 0.0271,0.0161 -0.0715,-0.0171 -0.0829,-0.0457 -0.0242,-0.0605 -0.009,-0.1292 -0.0128,-0.19385 -0.0174,-0.306 -0.0349,-0.61193 -0.0722,-0.91654 -0.0216,-0.15165 -0.11363,-0.94903 -0.23347,-1.03577 -0.59718,-0.43217 -1.24556,-0.79839 -1.90212,-1.14213 -0.0773,-0.0405 -0.17971,-0.0162 -0.26408,0.008 -0.10947,0.0315 -0.20168,0.10321 -0.30251,0.15482 -0.41907,0.36023 -0.33666,0.26564 -0.72829,0.71191 -0.36462,0.4155 -0.69582,0.87657 -1.13125,1.23036 -0.0863,0.0701 -0.18905,0.119 -0.28356,0.1785 -0.0765,0.006 -0.15315,0.0241 -0.22949,0.0169 -0.045,-0.004 -0.38933,-0.11959 -0.4218,-0.12772 -0.25705,-0.0643 -0.50109,-0.0664 -0.75583,0.0135 -0.73111,0.3675 -1.27553,0.97895 -1.75762,1.6106 -0.45814,0.73009 -0.16367,0.13687 1.69862,1.13294 0.0154,0.008 -0.0357,-0.0133 -0.044,-0.0283 -0.087,-0.16009 -0.0763,-0.36414 -0.17673,-0.52033 -0.46208,-0.77311 -0.17866,-0.37178 -2.03068,-1.21933 -0.25557,-0.11696 -0.89934,0.64945 -1.0274,0.78918 -0.30883,0.34596 -0.62148,0.69999 -0.9663,1.01407 -0.0782,0.0713 -0.32997,0.12854 -0.24963,0.1976 0.97421,0.83729 2.29685,1.13945 1.42212,0.92651 -0.47778,-0.81615 -0.57467,-1.77228 -0.92043,-2.63887 -0.0642,-0.11081 -0.0821,-0.26301 -0.19255,-0.33243 -0.35532,-0.2232 -1.48077,-1.30916 -2.28613,-0.9843 -0.30911,0.1247 -0.54067,0.3937 -0.79769,0.58798 -0.0939,0.0667 -0.24477,0.20544 -0.38474,0.21726 -0.0465,0.004 -0.17563,-0.0546 -0.13601,-0.031 3.3594,1.99741 0.6868,0.2282 -0.54071,-0.24996 -0.0849,-0.006 -0.17055,-0.0292 -0.25469,-0.0169 -0.55502,0.0809 -0.99474,0.74923 -1.2935,1.14716 -0.48456,0.89376 -0.52537,0.21621 1.45909,1.33106 0.0509,0.0286 -0.10719,-0.0542 -0.14494,-0.0978 -0.084,-0.0969 -0.32122,-0.5397 -0.36482,-0.61804 -0.28652,-0.5269 -0.53407,-1.12032 -0.92222,-1.58863 -0.52027,-0.62772 -1.89942,-1.13003 -2.27678,-1.33174 -0.10795,-3e-5 -0.21728,-0.0167 -0.32381,-9e-5 -0.69931,0.10902 -1.19744,0.77062 -1.73568,1.14209 -0.41543,0.33826 -1.07477,0.98044 -1.57691,1.1608 -0.22171,0.0796 -0.28718,0.0297 -0.49982,-0.0245 -0.69951,-0.28956 -1.33224,-0.70225 -2.02535,-1.00222 z" /><path
           style="fill:#964ae4;fill-opacity:1;stroke-width:0.876214;stroke-linejoin:round;stroke-dasharray:none;filter:url(#filter1542)"
           id="path4252"
           d="m 814.56673,552.42388 c -0.0239,-0.57143 0.43355,-1.0195 0.75406,-1.34375 0.24162,-0.17738 0.72751,-0.6291 1.03134,-0.49371 0.0738,0.0329 0.25527,0.22143 0.18188,0.18684 -0.37194,-0.17524 -0.72463,-0.40885 -1.08694,-0.61328 0.38336,1.26416 0.3635,2.63679 0.30508,3.96637 -0.11154,1.0539 -0.18143,0.85226 1.28026,1.5942 0.0842,0.0427 0.10471,-0.18594 0.16174,-0.2744 0.25601,-0.39706 0.28602,-0.40609 0.60619,-0.79216 0.83427,-0.91313 1.71276,-1.79784 2.69135,-2.45835 0.0891,-0.0323 0.1752,-0.0847 0.26752,-0.0967 0.0632,-0.008 0.12558,0.0252 0.18837,0.0377 -0.39304,-0.26341 -0.77677,-0.54984 -1.17909,-0.79023 -0.0538,-0.0322 0.091,0.0988 0.12467,0.16025 0.0723,0.13149 0.13445,0.37455 0.17668,0.51845 0.28814,1.22975 0.37924,1.35617 1.76085,1.8697 0.0996,0.0371 0.14034,-0.19201 0.21052,-0.288 0.69442,-1.14239 1.31521,-2.36812 2.14233,-3.37397 0.13407,-0.16304 0.28281,-0.30607 0.4242,-0.45912 0.11402,-0.0703 0.21809,-0.17571 0.34201,-0.21097 0.0798,-0.0226 0.16182,0.0297 0.24273,0.0446 -0.37317,-0.23861 -0.72217,-0.54921 -1.11951,-0.71582 -0.0859,-0.036 0.0982,0.19307 0.12815,0.30011 0.0699,0.24962 0.0811,0.61026 0.0993,0.86353 0.0508,0.84122 -0.0571,1.68666 0.0181,2.52551 l 0.23169,0.0478 v 0 c 0.52,1.41003 1.02558,0.60499 1.04182,-1.76171 -0.004,-0.16108 -0.0222,-1.1753 -0.1323,-1.27834 -0.0809,-0.0758 -1.1361,-1.36912 -1.72353,-1.00844 -0.11455,0.0704 -0.20676,0.18721 -0.31014,0.28081 -0.42602,0.54571 -0.43054,0.53355 -0.85572,1.16399 -0.47985,0.7115 -0.91916,1.47134 -1.42317,2.15716 -0.11497,0.15643 -0.24265,0.29745 -0.36398,0.44618 -0.57995,0.47409 -0.2624,0.11137 0.99394,1.0854 0.0452,0.0351 -0.0982,-0.0611 -0.13163,-0.11283 -0.13855,-0.21407 -0.14736,-0.53876 -0.22547,-0.78427 -0.0336,-0.12924 -0.15094,-0.71384 -0.23878,-0.7837 -1.01475,-0.80689 -1.12502,-1.29441 -1.90091,-0.81932 -0.93206,0.764 -1.79352,1.66043 -2.67332,2.51353 -0.23346,0.24401 -0.45659,0.50383 -0.69675,0.73743 -0.0327,0.0319 -0.14199,0.0437 -0.10897,0.0752 1.56103,1.4856 1.21172,1.44395 1.21864,0.40116 0.005,-1.34911 0.004,-2.7141 -0.23399,-4.03686 -0.47095,-0.43414 -0.92915,-0.89083 -1.41287,-1.3024 -0.0674,-0.0575 -0.15071,-0.0898 -0.23207,-0.0973 -0.38467,-0.0353 -0.75475,0.37783 -1.05978,0.60108 -0.38681,0.38448 -0.81257,0.84605 -0.90562,1.48412 z"
           transform="matrix(1.0894897,0,0,1,-72.578161,0)" /><path
           style="mix-blend-mode:normal;fill:#964ae4;fill-opacity:1;stroke-width:1;stroke-linejoin:round;stroke-dasharray:none;filter:url(#filter1541)"
           id="path4253"
           d="m 781.16984,562.02178 c 0.57196,0.71977 1.08476,1.48415 1.62074,2.23054 0.59366,0.74588 1.25503,0.98151 2.32265,1.30557 0.10317,0.0313 0.9036,-0.82249 0.98555,-0.90816 0.33849,-0.35598 0.66634,-0.72108 1.02433,-1.0579 0.0794,-0.0747 0.38431,-0.35778 0.50003,-0.42244 0.0607,-0.0339 0.13283,-0.0409 0.19924,-0.0614 0.71066,0.12799 0.3862,0.086 -1.38207,-0.79003 -0.0561,-0.0278 0.0975,0.0794 0.13987,0.1255 0.0731,0.0796 0.0999,0.20403 0.19127,0.26172 0.58046,0.36653 1.18059,0.70092 1.77089,1.05138 0.22994,0.002 0.42896,-0.29479 0.66509,-0.24271 0.0739,0.0163 0.25776,0.158 0.19025,0.12383 -0.47725,-0.24157 -0.94699,-0.49769 -1.42048,-0.74654 0.066,0.0838 0.13895,0.16267 0.19801,0.25154 0.0684,0.10297 0.27951,0.62836 0.32073,0.65613 1.72299,1.16064 1.33748,1.59584 1.83245,0.8789 l -1.47549,-1.4295 v 0 c -0.14821,0.11671 -0.22817,0.23391 -0.23184,0.42645 0.41163,-0.58713 -0.0207,-0.0199 1.65295,0.91928 0.0506,0.0284 -0.0698,-0.0931 -0.0977,-0.14394 -0.0979,-0.17823 -0.16474,-0.3723 -0.2621,-0.5508 -0.0533,-0.0977 -0.11695,-0.18932 -0.17543,-0.28398 -0.61904,-0.38672 -1.22143,-0.80147 -1.85713,-1.16015 -0.0787,-0.0444 -0.17804,-0.0432 -0.26834,-0.0391 -0.2061,0.009 -0.39513,0.22107 -0.59984,0.11177 0.51884,0.31264 1.03155,0.63569 1.55653,0.93791 0.043,0.0248 -0.077,-0.0641 -0.10719,-0.10356 -0.0345,-0.0452 -0.16816,-0.30666 -0.21577,-0.3357 -0.60174,-0.36696 -1.21373,-0.72006 -1.84774,-1.02794 -0.0564,-0.0274 -0.12223,0.0278 -0.18334,0.0416 -0.68575,0.39065 -1.09809,1.13574 -1.68186,1.65035 -0.21627,0.20506 -0.46162,0.45918 -0.71612,0.62459 -0.0831,0.054 -0.34185,0.0603 -0.26865,0.12707 0.41967,0.3827 0.9563,0.61321 1.42776,0.92993 0.0731,0.0491 -0.16337,-0.0711 -0.23177,-0.12648 -0.0896,-0.0726 -0.15759,-0.16837 -0.23638,-0.25255 -0.54821,-0.70394 -1.06624,-1.43542 -1.53589,-2.19415 z" /></g></g></g></svg>
