<svg width="123.0" height="106.0" viewBox="-61.5 -53.0 123.0 106.0" preserveAspectRatio="xMinYMin meet" version="1.1" xmlns="http://www.w3.org/2000/svg">
  <!--
  Icons from
  Font Awesome Free 6.5.2 by @fontawesome - https://fontawesome.com
  License - https://fontawesome.com/license/free (Icons: CC BY 4.0, Fonts: SIL OFL 1.1, Code: MIT License)
  Copyright 2024 Fonticons, Inc.
  -->
  <symbol id="chess-king" viewBox="0 0 448 512">
    <path d="M224 0c17.7 0 32 14.3 32 32V48h16c17.7 0 32 14.3 32 32s-14.3 32-32 32H256v48H408c22.1 0 40 17.9 40 40c0 5.3-1 10.5-3.1 15.4L368 400H80L3.1 215.4C1 210.5 0 205.3 0 200c0-22.1 17.9-40 40-40H192V112H176c-17.7 0-32-14.3-32-32s14.3-32 32-32h16V32c0-17.7 14.3-32 32-32zM38.6 473.4L80 432H368l41.4 41.4c4.2 4.2 6.6 10 6.6 16c0 12.5-10.1 22.6-22.6 22.6H54.6C42.1 512 32 501.9 32 489.4c0-6 2.4-11.8 6.6-16z" />
  </symbol>
  <symbol id="chess-queen" viewBox="0 0 512 512">
    <path d="M256 0a56 56 0 1 1 0 112A56 56 0 1 1 256 0zM134.1 143.8c3.3-13 15-23.8 30.2-23.8c12.3 0 22.6 7.2 27.7 17c12 23.2 36.2 39 64 39s52-15.8 64-39c5.1-9.8 15.4-17 27.7-17c15.3 0 27 10.8 30.2 23.8c7 27.8 32.2 48.3 62.1 48.3c10.8 0 21-2.7 29.8-7.4c8.4-4.4 18.9-4.5 27.6 .9c13 8 17.1 25 9.2 38L399.7 400H384 343.6 168.4 128 112.3L5.4 223.6c-7.9-13-3.8-30 9.2-38c8.7-5.3 19.2-5.3 27.6-.9c8.9 4.7 19 7.4 29.8 7.4c29.9 0 55.1-20.5 62.1-48.3zM256 224l0 0 0 0h0zM112 432H400l41.4 41.4c4.2 4.2 6.6 10 6.6 16c0 12.5-10.1 22.6-22.6 22.6H86.6C74.1 512 64 501.9 64 489.4c0-6 2.4-11.8 6.6-16L112 432z" />
  </symbol>
  <symbol id="chess-bishop" viewBox="0 0 320 512">
    <path d="M128 0C110.3 0 96 14.3 96 32c0 16.1 11.9 29.4 27.4 31.7C78.4 106.8 8 190 8 288c0 47.4 30.8 72.3 56 84.7V400H256V372.7c25.2-12.5 56-37.4 56-84.7c0-37.3-10.2-72.4-25.3-104.1l-99.4 99.4c-6.2 6.2-16.4 6.2-22.6 0s-6.2-16.4 0-22.6L270.8 154.6c-23.2-38.1-51.8-69.5-74.2-90.9C212.1 61.4 224 48.1 224 32c0-17.7-14.3-32-32-32H128zM48 432L6.6 473.4c-4.2 4.2-6.6 10-6.6 16C0 501.9 10.1 512 22.6 512H297.4c12.5 0 22.6-10.1 22.6-22.6c0-6-2.4-11.8-6.6-16L272 432H48z" />
  </symbol>
  <symbol id="chess-rook" viewBox="0 0 448 512">
    <path d="M32 192V48c0-8.8 7.2-16 16-16h64c8.8 0 16 7.2 16 16V88c0 4.4 3.6 8 8 8h32c4.4 0 8-3.6 8-8V48c0-8.8 7.2-16 16-16h64c8.8 0 16 7.2 16 16V88c0 4.4 3.6 8 8 8h32c4.4 0 8-3.6 8-8V48c0-8.8 7.2-16 16-16h64c8.8 0 16 7.2 16 16V192c0 10.1-4.7 19.6-12.8 25.6L352 256l16 144H80L96 256 44.8 217.6C36.7 211.6 32 202.1 32 192zm176 96h32c8.8 0 16-7.2 16-16V224c0-17.7-14.3-32-32-32s-32 14.3-32 32v48c0 8.8 7.2 16 16 16zM22.6 473.4L64 432H384l41.4 41.4c4.2 4.2 6.6 10 6.6 16c0 12.5-10.1 22.6-22.6 22.6H38.6C26.1 512 16 501.9 16 489.4c0-6 2.4-11.8 6.6-16z" />
  </symbol>
  <symbol id="chess-pawn" viewBox="0 0 320 512">
    <path d="M215.5 224c29.2-18.4 48.5-50.9 48.5-88c0-57.4-46.6-104-104-104S56 78.6 56 136c0 37.1 19.4 69.6 48.5 88H96c-17.7 0-32 14.3-32 32c0 16.5 12.5 30 28.5 31.8L80 400H240L227.5 287.8c16-1.8 28.5-15.3 28.5-31.8c0-17.7-14.3-32-32-32h-8.5zM22.6 473.4c-4.2 4.2-6.6 10-6.6 16C16 501.9 26.1 512 38.6 512H281.4c12.5 0 22.6-10.1 22.6-22.6c0-6-2.4-11.8-6.6-16L256 432H64L22.6 473.4z" />
  </symbol>
  <polygon fill="#c0c0c0" points="-60.6217782649, 0.0 -56.291651246, 7.5 -47.6313972081, 7.5 -43.3012701892, 15.0 -34.6410161514, 15.0 -30.3108891325, 22.5 -34.6410161514, 30.0 -30.3108891325, 37.5 -34.6410161514, 45.0 -30.3108891325, 52.5 -21.6506350946, 52.5 -17.3205080757, 45.0 -8.6602540378, 45.0 -4.3301270189, 37.5 4.3301270189, 37.5 8.6602540378, 45.0 17.3205080757, 45.0 21.6506350946, 52.5 30.3108891325, 52.5 34.6410161514, 45.0 30.3108891325, 37.5 34.6410161514, 30.0 30.3108891325, 22.5 34.6410161514, 15.0 43.3012701892, 15.0 47.6313972081, 7.5 56.291651246, 7.5 60.6217782649, 0.0 56.291651246, -7.5 47.6313972081, -7.5 43.3012701892, -15.0 34.6410161514, -15.0 30.3108891325, -22.5 34.6410161514, -30.0 30.3108891325, -37.5 34.6410161514, -45.0 30.3108891325, -52.5 21.6506350946, -52.5 17.3205080757, -45.0 8.6602540378, -45.0 4.3301270189, -37.5 -4.3301270189, -37.5 -8.6602540378, -45.0 -17.3205080757, -45.0 -21.6506350946, -52.5 -30.3108891325, -52.5 -34.6410161514, -45.0 -30.3108891325, -37.5 -34.6410161514, -30.0 -30.3108891325, -22.5 -34.6410161514, -15.0 -43.3012701892, -15.0 -47.6313972081, -7.5 -56.291651246, -7.5" />
  <polygon fill="black" stroke="none" points="-60.6217782649, 0.0 -58.4567147554, 3.75 -58.4567147554, -3.75" />
  <g stroke="black" stroke-width="1" stroke-linecap="round">
    <line x1="-56.291651246" y1="-7.5" x2="-47.6313972081" y2="-7.5" />
    <line x1="17.3205080757" y1="-45.0" x2="21.6506350946" y2="-52.5" />
    <line x1="4.3301270189" y1="-37.5" x2="8.6602540378" y2="-30.0" />
    <line x1="-8.6602540378" y1="15.0" x2="-4.3301270189" y2="7.5" />
    <line x1="17.3205080757" y1="-30.0" x2="21.6506350946" y2="-37.5" />
    <line x1="4.3301270189" y1="-22.5" x2="8.6602540378" y2="-15.0" />
    <line x1="17.3205080757" y1="45.0" x2="21.6506350946" y2="37.5" />
    <line x1="-30.3108891325" y1="-52.5" x2="-21.6506350946" y2="-52.5" />
    <line x1="-30.3108891325" y1="-37.5" x2="-21.6506350946" y2="-37.5" />
    <line x1="17.3205080757" y1="-15.0" x2="21.6506350946" y2="-7.5" />
    <line x1="-8.6602540378" y1="-15.0" x2="-4.3301270189" y2="-7.5" />
    <line x1="17.3205080757" y1="-45.0" x2="21.6506350946" y2="-37.5" />
    <line x1="17.3205080757" y1="-30.0" x2="21.6506350946" y2="-22.5" />
    <line x1="-8.6602540378" y1="15.0" x2="-4.3301270189" y2="22.5" />
    <line x1="-17.3205080757" y1="-45.0" x2="-8.6602540378" y2="-45.0" />
    <line x1="17.3205080757" y1="45.0" x2="21.6506350946" y2="52.5" />
    <line x1="-17.3205080757" y1="-30.0" x2="-8.6602540378" y2="-30.0" />
    <line x1="-43.3012701892" y1="-15.0" x2="-34.6410161514" y2="-15.0" />
    <line x1="34.6410161514" y1="15.0" x2="43.3012701892" y2="15.0" />
    <line x1="8.6602540378" y1="30.0" x2="17.3205080757" y2="30.0" />
    <line x1="43.3012701892" y1="15.0" x2="47.6313972081" y2="7.5" />
    <line x1="-56.291651246" y1="7.5" x2="-47.6313972081" y2="7.5" />
    <line x1="-4.3301270189" y1="-7.5" x2="4.3301270189" y2="-7.5" />
    <line x1="-47.6313972081" y1="7.5" x2="-43.3012701892" y2="0.0" />
    <line x1="43.3012701892" y1="-15.0" x2="47.6313972081" y2="-7.5" />
    <line x1="21.6506350946" y1="-37.5" x2="30.3108891325" y2="-37.5" />
    <line x1="-21.6506350946" y1="-52.5" x2="-17.3205080757" y2="-45.0" />
    <line x1="-34.6410161514" y1="-30.0" x2="-30.3108891325" y2="-37.5" />
    <line x1="-8.6602540378" y1="30.0" x2="-4.3301270189" y2="22.5" />
    <line x1="-34.6410161514" y1="-15.0" x2="-30.3108891325" y2="-22.5" />
    <line x1="-4.3301270189" y1="-37.5" x2="4.3301270189" y2="-37.5" />
    <line x1="-4.3301270189" y1="-22.5" x2="4.3301270189" y2="-22.5" />
    <line x1="17.3205080757" y1="15.0" x2="21.6506350946" y2="7.5" />
    <line x1="21.6506350946" y1="7.5" x2="30.3108891325" y2="7.5" />
    <line x1="-47.6313972081" y1="7.5" x2="-43.3012701892" y2="15.0" />
    <line x1="30.3108891325" y1="-37.5" x2="34.6410161514" y2="-45.0" />
    <line x1="30.3108891325" y1="-22.5" x2="34.6410161514" y2="-30.0" />
    <line x1="30.3108891325" y1="-52.5" x2="34.6410161514" y2="-45.0" />
    <line x1="4.3301270189" y1="7.5" x2="8.6602540378" y2="0.0" />
    <line x1="-21.6506350946" y1="-7.5" x2="-17.3205080757" y2="-15.0" />
    <line x1="8.6602540378" y1="-15.0" x2="17.3205080757" y2="-15.0" />
    <line x1="30.3108891325" y1="22.5" x2="34.6410161514" y2="30.0" />
    <line x1="-4.3301270189" y1="7.5" x2="4.3301270189" y2="7.5" />
    <line x1="30.3108891325" y1="37.5" x2="34.6410161514" y2="45.0" />
    <line x1="-8.6602540378" y1="30.0" x2="-4.3301270189" y2="37.5" />
    <line x1="30.3108891325" y1="22.5" x2="34.6410161514" y2="15.0" />
    <line x1="-30.3108891325" y1="37.5" x2="-21.6506350946" y2="37.5" />
    <line x1="-30.3108891325" y1="52.5" x2="-21.6506350946" y2="52.5" />
    <line x1="17.3205080757" y1="15.0" x2="21.6506350946" y2="22.5" />
    <line x1="-17.3205080757" y1="15.0" x2="-8.6602540378" y2="15.0" />
    <line x1="-17.3205080757" y1="30.0" x2="-8.6602540378" y2="30.0" />
    <line x1="-4.3301270189" y1="22.5" x2="4.3301270189" y2="22.5" />
    <line x1="-21.6506350946" y1="-7.5" x2="-17.3205080757" y2="0.0" />
    <line x1="-8.6602540378" y1="-15.0" x2="-4.3301270189" y2="-22.5" />
    <line x1="17.3205080757" y1="30.0" x2="21.6506350946" y2="22.5" />
    <line x1="21.6506350946" y1="-7.5" x2="30.3108891325" y2="-7.5" />
    <line x1="-17.3205080757" y1="45.0" x2="-8.6602540378" y2="45.0" />
    <line x1="30.3108891325" y1="-7.5" x2="34.6410161514" y2="-15.0" />
    <line x1="-21.6506350946" y1="-37.5" x2="-17.3205080757" y2="-45.0" />
    <line x1="21.6506350946" y1="-22.5" x2="30.3108891325" y2="-22.5" />
    <line x1="-21.6506350946" y1="37.5" x2="-17.3205080757" y2="30.0" />
    <line x1="-34.6410161514" y1="0.0" x2="-30.3108891325" y2="-7.5" />
    <line x1="-21.6506350946" y1="52.5" x2="-17.3205080757" y2="45.0" />
    <line x1="-30.3108891325" y1="7.5" x2="-21.6506350946" y2="7.5" />
    <line x1="17.3205080757" y1="30.0" x2="21.6506350946" y2="37.5" />
    <line x1="43.3012701892" y1="0.0" x2="47.6313972081" y2="7.5" />
    <line x1="-30.3108891325" y1="-7.5" x2="-21.6506350946" y2="-7.5" />
    <line x1="34.6410161514" y1="-15.0" x2="43.3012701892" y2="-15.0" />
    <line x1="56.291651246" y1="-7.5" x2="60.6217782649" y2="0.0" />
    <line x1="21.6506350946" y1="52.5" x2="30.3108891325" y2="52.5" />
    <line x1="30.3108891325" y1="-7.5" x2="34.6410161514" y2="0.0" />
    <line x1="-21.6506350946" y1="-37.5" x2="-17.3205080757" y2="-30.0" />
    <line x1="8.6602540378" y1="0.0" x2="17.3205080757" y2="0.0" />
    <line x1="4.3301270189" y1="-7.5" x2="8.6602540378" y2="-15.0" />
    <line x1="-21.6506350946" y1="37.5" x2="-17.3205080757" y2="45.0" />
    <line x1="-34.6410161514" y1="-30.0" x2="-30.3108891325" y2="-22.5" />
    <line x1="30.3108891325" y1="52.5" x2="34.6410161514" y2="45.0" />
    <line x1="-60.6217782649" y1="0.0" x2="-56.291651246" y2="7.5" />
    <line x1="30.3108891325" y1="7.5" x2="34.6410161514" y2="0.0" />
    <line x1="4.3301270189" y1="22.5" x2="8.6602540378" y2="15.0" />
    <line x1="4.3301270189" y1="37.5" x2="8.6602540378" y2="30.0" />
    <line x1="-34.6410161514" y1="-45.0" x2="-30.3108891325" y2="-52.5" />
    <line x1="4.3301270189" y1="-7.5" x2="8.6602540378" y2="0.0" />
    <line x1="-34.6410161514" y1="30.0" x2="-30.3108891325" y2="22.5" />
    <line x1="-34.6410161514" y1="45.0" x2="-30.3108891325" y2="37.5" />
    <line x1="30.3108891325" y1="-37.5" x2="34.6410161514" y2="-30.0" />
    <line x1="17.3205080757" y1="-15.0" x2="21.6506350946" y2="-22.5" />
    <line x1="30.3108891325" y1="-22.5" x2="34.6410161514" y2="-15.0" />
    <line x1="8.6602540378" y1="15.0" x2="17.3205080757" y2="15.0" />
    <line x1="4.3301270189" y1="7.5" x2="8.6602540378" y2="15.0" />
    <line x1="-30.3108891325" y1="-22.5" x2="-21.6506350946" y2="-22.5" />
    <line x1="8.6602540378" y1="-45.0" x2="17.3205080757" y2="-45.0" />
    <line x1="8.6602540378" y1="-30.0" x2="17.3205080757" y2="-30.0" />
    <line x1="-47.6313972081" y1="-7.5" x2="-43.3012701892" y2="-15.0" />
    <line x1="30.3108891325" y1="7.5" x2="34.6410161514" y2="15.0" />
    <line x1="4.3301270189" y1="22.5" x2="8.6602540378" y2="30.0" />
    <line x1="8.6602540378" y1="45.0" x2="17.3205080757" y2="45.0" />
    <line x1="-8.6602540378" y1="0.0" x2="-4.3301270189" y2="7.5" />
    <line x1="4.3301270189" y1="37.5" x2="8.6602540378" y2="45.0" />
    <line x1="-34.6410161514" y1="30.0" x2="-30.3108891325" y2="37.5" />
    <line x1="-30.3108891325" y1="22.5" x2="-21.6506350946" y2="22.5" />
    <line x1="-34.6410161514" y1="45.0" x2="-30.3108891325" y2="52.5" />
    <line x1="17.3205080757" y1="0.0" x2="21.6506350946" y2="7.5" />
    <line x1="-17.3205080757" y1="-15.0" x2="-8.6602540378" y2="-15.0" />
    <line x1="-17.3205080757" y1="0.0" x2="-8.6602540378" y2="0.0" />
    <line x1="-43.3012701892" y1="0.0" x2="-34.6410161514" y2="0.0" />
    <line x1="43.3012701892" y1="0.0" x2="47.6313972081" y2="-7.5" />
    <line x1="-43.3012701892" y1="15.0" x2="-34.6410161514" y2="15.0" />
    <line x1="47.6313972081" y1="-7.5" x2="56.291651246" y2="-7.5" />
    <line x1="-8.6602540378" y1="-30.0" x2="-4.3301270189" y2="-37.5" />
    <line x1="-47.6313972081" y1="-7.5" x2="-43.3012701892" y2="0.0" />
    <line x1="-21.6506350946" y1="-22.5" x2="-17.3205080757" y2="-30.0" />
    <line x1="-8.6602540378" y1="45.0" x2="-4.3301270189" y2="37.5" />
    <line x1="21.6506350946" y1="-52.5" x2="30.3108891325" y2="-52.5" />
    <line x1="-21.6506350946" y1="7.5" x2="-17.3205080757" y2="0.0" />
    <line x1="-21.6506350946" y1="22.5" x2="-17.3205080757" y2="15.0" />
    <line x1="-60.6217782649" y1="0.0" x2="-56.291651246" y2="-7.5" />
    <line x1="-8.6602540378" y1="-45.0" x2="-4.3301270189" y2="-37.5" />
    <line x1="-8.6602540378" y1="-30.0" x2="-4.3301270189" y2="-22.5" />
    <line x1="-21.6506350946" y1="-22.5" x2="-17.3205080757" y2="-15.0" />
    <line x1="-34.6410161514" y1="15.0" x2="-30.3108891325" y2="7.5" />
    <line x1="47.6313972081" y1="7.5" x2="56.291651246" y2="7.5" />
    <line x1="21.6506350946" y1="22.5" x2="30.3108891325" y2="22.5" />
    <line x1="21.6506350946" y1="37.5" x2="30.3108891325" y2="37.5" />
    <line x1="-21.6506350946" y1="7.5" x2="-17.3205080757" y2="15.0" />
    <line x1="-21.6506350946" y1="22.5" x2="-17.3205080757" y2="30.0" />
    <line x1="-34.6410161514" y1="-15.0" x2="-30.3108891325" y2="-7.5" />
    <line x1="34.6410161514" y1="0.0" x2="43.3012701892" y2="0.0" />
    <line x1="4.3301270189" y1="-37.5" x2="8.6602540378" y2="-45.0" />
    <line x1="-8.6602540378" y1="0.0" x2="-4.3301270189" y2="-7.5" />
    <line x1="4.3301270189" y1="-22.5" x2="8.6602540378" y2="-30.0" />
    <line x1="-4.3301270189" y1="37.5" x2="4.3301270189" y2="37.5" />
    <line x1="-34.6410161514" y1="0.0" x2="-30.3108891325" y2="7.5" />
    <line x1="56.291651246" y1="7.5" x2="60.6217782649" y2="0.0" />
    <line x1="-34.6410161514" y1="15.0" x2="-30.3108891325" y2="22.5" />
    <line x1="-34.6410161514" y1="-45.0" x2="-30.3108891325" y2="-37.5" />
    <line x1="30.3108891325" y1="37.5" x2="34.6410161514" y2="30.0" />
    <line x1="17.3205080757" y1="0.0" x2="21.6506350946" y2="-7.5" />
  </g>
  <use href="#chess-king" x="33.7749907476" y="-12.6961524227" height="10.3923048454" width="10.3923048454" fill="black" stroke="none" />
  <use href="#chess-pawn" x="-31.1769145362" y="-5.1961524227" height="10.3923048454" width="10.3923048454" fill="black" stroke="none" />
  <use href="#chess-bishop" x="20.7846096908" y="-50.1961524227" height="10.3923048454" width="10.3923048454" fill="black" stroke="none" />
  <use href="#chess-rook" x="-18.1865334795" y="17.3038475773" height="10.3923048454" width="10.3923048454" fill="white" stroke="none" />
  <use href="#chess-pawn" x="7.7942286341" y="-27.6961524227" height="10.3923048454" width="10.3923048454" fill="white" stroke="none" />
  <use href="#chess-king" x="-31.1769145362" y="9.8038475773" height="10.3923048454" width="10.3923048454" fill="white" stroke="none" />
  <use href="#chess-queen" x="-31.1769145362" y="39.8038475773" height="10.3923048454" width="10.3923048454" fill="black" stroke="none" />
</svg>