<svg width="32.742mm" height="33.959mm" version="1.1" viewBox="0 0 32.742 33.959" xmlns="http://www.w3.org/2000/svg">
 <g transform="translate(-70.379 -109.8)">
  <g transform="translate(-17.75 4.146)">
   <path d="m116.1 113.64-2.0336 21.589a3.9649 3.9649 136.51 0 1-3.7843 3.5897l-19.232 0.79229a2.8009 2.8009 44.616 0 1-2.9151-2.8763l0.56686-20.41a2.9843 2.9843 132.65 0 1 2.6557-2.8834l22.065-2.4359a2.4222 2.4222 44.541 0 1 2.6773 2.6348z" fill="#f2f2f2"/>
   <path d="m120.87 119.82-8.2681-0.63284-0.87033 2.0392 9.0296 0.56253z" fill="#f2f2f2"/>
   <g transform="matrix(1.1443 0 0 1.1565 -12.482 -13.067)" stroke="#000" stroke-linecap="round" stroke-linejoin="round" stroke-width=".3">
    <g fill="#d8b6e7">
     <path d="m90.607 118.26 0.47553-9.2552 1.1576-0.0992 0.35129 9.619z"/>
     <path d="m92.41 118.62 1.1576-0.95912-0.36797-8.684-0.8599-0.0331h-0.06615z"/>
     <path d="m91.052 109.31 1.2307 0.13758 0.92776-0.14558 0.25674-0.37461-0.02179-1.2922-0.35371-0.58161-1.0983 0.27145-0.96053-0.15569-0.29378 0.38827-0.0049 1.3042z"/>
     <path d="m92.869 107.11 0.19844-0.3638v-0.58705l-1.1075 0.13029 0.01605 1.019z"/>
     <path d="m91.307 107.18-0.38117-0.41424-0.01227-0.64834 1.0677 0.20044-0.0248 0.63666 0.05313 0.3384z"/>
     <path d="m91.431 105.7c0.50087-0.0768 0.78459-9e-3 1.1075 0.0331l0.20211 0.41425c-0.61002 0.28868-1.5353 0.0379-1.5427-0.0236z"/>
     <path transform="translate(-.60804 .046772)" d="m92.85 109.43-0.19593-0.47368-0.0502-1.316 0.0083-0.339"/>
    </g>
    <path d="m93.435 108.85-1.3777 0.15318-1.2599-0.12011" fill="none"/>
   </g>
   <path d="m112.63 121.93 2.0482-7.4176-1.1948-5.2325-1.4792 6.4975z" fill="#fff" stroke="#000" stroke-linecap="round" stroke-linejoin="round" stroke-width=".69021"/>
   <path d="m90.844 122.56-0.17068 2.1275 22.075-2.76-0.51205-6.095c-7.1308 1.5902-14.262 3.8363-21.392 6.7276z" fill="#fff" stroke="#000" stroke-linecap="round" stroke-linejoin="round" stroke-width=".69021"/>
   <g transform="matrix(1.1443 0 0 1.1565 -12.875 -16.532)" fill="none" stroke="#40bfbf" stroke-linecap="round" stroke-linejoin="round" stroke-width=".4">
    <path d="m108.64 116.52-1.9391 2.6601"/>
    <path d="m107.35 116.75-2.0386 2.859"/>
    <path d="m103.07 118.26-1.417 1.6408"/>
    <path d="m101.9 118.34-1.7651 1.8645"/>
    <path d="m97.379 119.48-1.4668 1.2928"/>
    <path d="m95.614 119.88-1.4171 1.1436"/>
   </g>
   <g transform="matrix(1.1443 0 0 1.1565 -12.875 -16.532)" fill="#bebebe" stroke="#000" stroke-linecap="round" stroke-linejoin="round" stroke-width=".4">
    <path d="m109.48 116.87-15.492 2.5826"/>
    <path d="m109.36 118.19-18.611 2.7442"/>
    <path d="m109.78 116.62 0.49721-1.3425"/>
    <path d="m107.51 115.51 0.3832 4.3662"/>
    <path d="m105.35 116.06 0.35408 4.0885"/>
    <path d="m103.37 116.45 0.21949 3.8459"/>
    <path d="m101.49 117.04 0.14492 3.533"/>
    <path d="m99.496 117.41 0.0206 3.5571"/>
    <path d="m97.762 117.92-0.03516 3.0042"/>
    <path d="m95.937 118.67-0.14916 2.4494"/>
    <path d="m94.072 119.3v2.0971"/>
    <path d="m92.456 119.9-0.09944 1.8159"/>
   </g>
   <g fill="#d8b6e7" stroke="#000" stroke-linecap="round" stroke-linejoin="round">
    <path d="m89.592 123.02 23.441-7.36c0.0532-3.4516 0.75261-6.6418 1.8775-9.6601-8.6811 3.9948-17.248 8.2337-24.977 14.26z" stroke-width=".69021"/>
    <path d="m89.479 123.02 0.17068 0.69c7.4429-3.654 15.437-6.0272 23.953-7.1876 0.26059-3.6721 0.7785-7.0581 2.1051-9.545l-0.73963-0.97751c-0.89056 2.2748-1.7855 4.5299-2.0482 9.6601-7.8748 0.90444-15.673 3.7576-23.441 7.36z" stroke-width=".46014"/>
    <path d="m95.345 119.02-0.56323 3.0088 11.989-2.2769 0.16092-3.4154z" stroke-width=".3451"/>
    <g transform="matrix(1.1718 0 0 1.1892 -15.732 -27.095)" stroke-width=".4">
     <path d="m95.278 132.26 3.381 1.7402v1.0939l-3.6296-1.0939z"/>
     <path d="m93.601 132.21-3.381 1.7402v1.0939l3.6296-1.0939z"/>
     <path d="m94.918 137.55s0.39777-3.6545 0.39777-4.7981c0-1.1436-0.19888-3.3313-0.84526-3.3313s-1.0441 2.3866-1.0441 3.2816c0 0.89498 0.44749 4.8727 0.44749 4.8727l-1.7029 0.87012-0.13673 0.57179 2.2374-0.49721 2.1877 0.59666-0.13674-0.58423z"/>
    </g>
    <g transform="matrix(1.0909 .43415 -.42779 1.1071 62.16 -59.004)" stroke-width=".4">
     <path d="m95.278 132.26 3.381 1.7402v1.0939l-3.6296-1.0939z"/>
     <path d="m93.601 132.21-3.381 1.7402v1.0939l3.6296-1.0939z"/>
     <path d="m94.918 137.55s0.39777-3.6545 0.39777-4.7981c0-1.1436-0.19888-3.3313-0.84526-3.3313s-1.0441 2.3866-1.0441 3.2816c0 0.89498 0.44749 4.8727 0.44749 4.8727l-1.7029 0.87012-0.13673 0.57179 2.2374-0.49721 2.1877 0.59666-0.13674-0.58423z"/>
    </g>
   </g>
   <path transform="matrix(.93308 -.17178 .18729 1.0372 3.5417e-7 -1.9583e-7)" d="m87.467 127.72-1.4665-2.4e-4a0.084384 0.084384 0 0 0-0.083923 0.08424l-2.1e-4 0.20523a0.084384 0.084384 0 0 0 0.084004 0.08366l0.53331 1.5e-4 -1.96e-4 1.4413a0.084384 0.084384 0 0 0 0.086297 0.08603l0.22819-7e-5a0.084384 0.084384 0 0 0 0.085919-0.08591l1.95e-4 -1.4413 0.53331 1.4e-4a0.084384 0.084384 0 0 0 0.083923-0.08425l-3.26e-4 -0.20532a0.084384 0.084384 0 0 0-0.084004-0.08366zm-2.0567 0.02108-0.001704 2.1e-4c-0.07737-0.0153-0.16994-0.02155-0.27757-0.02155l-0.48405 4e-5a0.084384 0.084384 0 0 0-0.083924 0.08425l-4.8e-5 1.7303a0.084384 0.084384 0 0 0 0.084056 0.08616l0.23043-2e-4a0.084384 0.084384 0 0 0 0.083677-0.08578l4.51e-4 -0.60376 0.20106-8e-5 0.55237 0.65844a0.084384 0.084384 0 0 0 0.064641 0.03113l0.29903 2.1e-4a0.084384 0.084384 0 0 0 0.064263-0.14082l-0.59382-0.68922c0.07555-0.0437 0.15456-0.08286 0.20519-0.15036 0.07465-0.10045 0.1116-0.2267 0.1116-0.36564 0-0.10243-0.020182-0.19353-0.065012-0.26933l3.87e-4 -0.00193c-0.04182-0.072-0.10138-0.13196-0.17421-0.17782a0.084384 0.084384 0 0 0-0.001705 2.2e-4c-0.06464-0.0404-0.13676-0.06935-0.2151-0.08445zm-1.7424-0.04096c-0.061024-0.01143-0.12462-0.01718-0.19095-0.01718-0.12888 0-0.25125 0.02187-0.36334 0.06637-0.11164 0.0447-0.20792 0.11161-0.28497 0.19743-0.07956 0.0891-0.13919 0.19601-0.17958 0.31801-0.04058 0.12175-0.058837 0.25777-0.058837 0.40626 0 0.15071 0.01809 0.28638 0.05872 0.40829 0.04116 0.12095 0.10147 0.22659 0.1798 0.31276 0.07821 0.086 0.17485 0.1524 0.28497 0.19716 0.11101 0.0448 0.23231 0.06615 0.36332 0.06615 0.13371 0 0.25647-0.01979 0.3651-0.06409 0.10901-0.0441 0.20365-0.11198 0.28312-0.19922 0.07794-0.0849 0.13702-0.18911 0.17813-0.31078 0.04228-0.12345 0.062389-0.25989 0.062389-0.41016 0-0.15011-0.019124-0.28744-0.060574-0.41009-0.04039-0.12201-0.10081-0.22724-0.18004-0.3143-0.07717-0.0841-0.17168-0.15084-0.28088-0.19548l-0.002241 1.2e-4c-0.054814-0.0227-0.11311-0.03983-0.17414-0.05125zm1.6257 0.39878c0.03624 7e-3 0.064834 0.01821 0.087444 0.03341 0.02905 0.019 0.046722 0.03941 0.056742 0.06221a0.084384 0.084384 0 0 0 5.2e-5 0.0025c0.01183 0.0252 0.019467 0.0539 0.019467 0.0934 0 0.0577-0.008072 0.10184-0.019602 0.13077a0.084384 0.084384 0 0 0-0.001556 0.00224c-0.01158 0.0298-0.028385 0.05539-0.054845 0.08009-0.02715 0.0249-0.059532 0.04063-0.1016 0.05093-0.046 0.0104-0.10283 0.01716-0.17014 0.01716l-0.14849 3.2e-4 2.19e-4 -0.48672 0.18771 2e-4c0.05778 0 0.1062 0.00579 0.14461 0.01349zm-3.3347-0.37193c-0.047058-0.00481-0.097614-0.00723-0.15196-0.00723l-0.4708 2.5e-4a0.084384 0.084384 0 0 0-0.083826 0.08376l-1.46e-4 1.7308a0.084384 0.084384 0 0 0 0.084153 0.08567l0.23034 2.9e-4a0.084384 0.084384 0 0 0 0.084311-0.08618l7e-5 -0.56048 0.14625-1.9e-4c0.13071 0 0.24165-0.01439 0.33594-0.04849a0.084384 0.084384 0 0 0 0.002241-1.2e-4c0.09206-0.0342 0.17152-0.08591 0.23972-0.15411 0.05609-0.0561 0.10069-0.12253 0.13103-0.19751 0.03079-0.0748 0.046435-0.15578 0.047125-0.2403l9e-5 -0.00597c0-0.11095-0.019352-0.20887-0.064602-0.29069-0.04225-0.0781-0.10389-0.14464-0.18003-0.19572-0.06481-0.0432-0.13796-0.07242-0.21867-0.09152-0.040625-0.01005-0.084167-0.01742-0.13122-0.02223zm1.6276 0.33433c0.099466 0.01846 0.17564 0.06531 0.23983 0.14334 0.08449 0.10204 0.13119 0.25445 0.13119 0.46663 0 0.21445-0.047508 0.36569-0.133 0.46672-0.08638 0.10221-0.1929 0.15056-0.34535 0.15056-0.15245 0-0.26091-0.04793-0.34809-0.15032-0.08549-0.10103-0.1328-0.25244-0.1328-0.46689 0-0.21228 0.047037-0.36506 0.13086-0.46707 0.08546-0.10387 0.19374-0.15226 0.35012-0.15226 0.038665 0 0.074084 0.00313 0.10724 0.00929zm-3.1429-0.32024c-0.07771-0.0155-0.16864-0.02147-0.27703-0.02147l-0.48629 1.7e-4a0.084384 0.084384 0 0 0-0.083924 0.08425l-4.8e-5 1.7303a0.084384 0.084384 0 0 0 0.08352 0.08607l0.23097-1.1e-4a0.084384 0.084384 0 0 0 0.083678-0.08578l-8.5e-5 -0.60385 0.20149 4.9e-4 0.55471 0.65784a0.084384 0.084384 0 0 0 0.064008 0.03152l0.29912-2.8e-4a0.084384 0.084384 0 0 0 0.064262-0.14081l-0.59552-0.68901c0.07573-0.0437 0.15618-0.08297 0.20689-0.15057 0.07465-0.10045 0.11151-0.22622 0.11151-0.36516 0-0.10244-0.02178-0.1938-0.06662-0.2696l3.87e-4 -0.00193c-0.04182-0.072-0.10138-0.13196-0.17421-0.17782-0.06515-0.0407-0.13775-0.06923-0.21681-0.08423zm1.5139 0.35984c0.0392 8e-3 0.071684 0.0214 0.099534 0.0394 0.03084 0.0202 0.049978 0.04353 0.064358 0.07393 0.01464 0.0309 0.02374 0.06918 0.02374 0.11902 0 0.0427-0.006354 0.07744-0.017734 0.10767a0.084384 0.084384 0 0 0 1.49e-4 0.00201c-0.0097 0.0272-0.028332 0.0565-0.056542 0.0858-3.53e-4 3.5e-4 -0.001841-2.3e-4 -0.002241 1.2e-4 -4.49e-4 4.6e-4 6.04e-4 0.00102 1.49e-4 0.00202-0.02504 0.0244-0.059317 0.04277-0.10544 0.05627-0.04686 0.0129-0.1159 0.02166-0.20317 0.02166l-0.10971 2.6e-4 4.13e-4 -0.52355 0.14454 2e-5c0.06867 0 0.12165 0.00689 0.15972 0.01549a0.084384 0.084384 0 0 0 0.002241-1.2e-4zm-2.6683-0.38113-0.6834-9e-5a0.084384 0.084384 0 0 0-0.083923 0.08425l1.4e-4 0.17589a0.084384 0.084384 0 0 0 0.083617 0.08559l0.14284 2.5e-4 -1.2e-4 1.2091-0.1423-1.5e-4a0.084384 0.084384 0 0 0-0.084362 0.08368l1.4e-4 0.17589a0.084384 0.084384 0 0 0 0.084056 0.08616l0.6834 9e-5a0.084384 0.084384 0 0 0 0.08431-0.08618l-1.4e-4 -0.17589a0.084384 0.084384 0 0 0-0.084004-0.08366l-0.14284-2.4e-4 1.2e-4 -1.2091 0.14284 2.4e-4a0.084384 0.084384 0 0 0 0.083677-0.08578l3.96e-4 -0.1758a0.084384 0.084384 0 0 0-0.084443-0.08424zm1.0393 0.37938c0.03624 7e-3 0.063226 0.01794 0.085836 0.03314a0.084384 0.084384 0 0 0 0.002241-1.2e-4c0.02905 0.019 0.044374 0.04001 0.054404 0.06281 0.01136 0.0242 0.019334 0.05418 0.019854 0.09148 2.2e-5 2e-3 -2.38e-4 0.00194-2.38e-4 0.00394 0 0.0577-0.007536 0.10193-0.019066 0.13086-0.01158 0.0298-0.030477 0.05754-0.056937 0.08224-0.02674 0.024-0.058253 0.04081-0.099363 0.05081-0.04626 0.0106-0.10392 0.01535-0.172 0.01535l-0.14849 3.2e-4 -1.68e-4 -0.48479 0.18771 2e-4c0.05778 0 0.1061 0.00627 0.14451 0.01397a0.084384 0.084384 0 0 0 0.001705-2.1e-4zm-2.5429-0.3793h-0.30682a0.084384 0.084384 0 0 0-0.079724 0.05505l-0.62903 1.7322a0.084384 0.084384 0 0 0 0.0781 0.11308l0.23428-6e-5a0.084384 0.084384 0 0 0 0.080014-0.0565l0.1486-0.42577 0.63084-1.5e-4 0.14819 0.4261a0.084384 0.084384 0 0 0 0.080022 0.0566l0.24646-4e-5a0.084384 0.084384 0 0 0 0.078087-0.11311l-0.62914-1.7328a0.084384 0.084384 0 0 0-0.079873-0.05458zm-0.15839 0.53525 0.18168 0.51585-0.36718-3e-5 0.1855-0.51582z" stroke-linecap="round" stroke-linejoin="round"/>
  </g>
 </g>
</svg>
