<svg width="30.011mm" height="31.177mm" version="1.1" viewBox="0 0 30.011 31.177" xmlns="http://www.w3.org/2000/svg">
 <path transform="translate(-153.79 -70.729)" d="m165.98 96.738-0.62012 5.1676 4.1341-0.2067-0.10336-5.1676z" fill="#f2f2f2"/>
 <g transform="translate(-64.558 -120.65)">
  <g transform="translate(-89.233 49.921)">
   <g transform="matrix(1.2177 0 0 1.259 -36.502 -25.093)">
    <g fill="#d8b6e7" stroke="#000" stroke-linecap="round" stroke-linejoin="round" stroke-width=".4">
     <path d="m157.49 93.362-0.87698 2.0463 22.18 0.14616 0.0731-2.0828z"/>
     <path d="m156.65 95.554-0.18271 1.1328h22.29l0.0731-1.2058z"/>
     <path d="m157.1 85.712 0.20671 7.4931 21.652 0.10335-0.15502-7.6094z"/>
     <path d="m179.01 93.283 1.7053-4.0566-0.46509-6.2012-1.4728 2.6355z"/>
     <path d="m156.81 85.615 3.8507-6.0007 8.7333-3.3073-1.5163 3.2656z"/>
     <path d="m179.83 85.661 0.8785-3.359-11.369-5.9428-1.6536 2.9972z"/>
     <path d="m158.39 85.764 0.10336 9.0914h1.6536v-9.2464z"/>
     <path d="m163.61 85.661 0.0517 9.249h1.602v-9.094z"/>
     <path d="m170.74 85.712 0.0517 9.3106 1.6536-0.10335-0.25838-9.3106z"/>
     <path d="m176.68 85.816-0.0517 9.1368h1.7053l-0.20671-9.2918z"/>
     <path d="m156.63 85.609 23.203 0.10335-12.144-6.3562z"/>
    </g>
    <path d="m166.04 93.069-0.10962-5.2619 3.5444-0.10962 0.0731 5.408z" fill="#9842c0" stroke="#000" stroke-linecap="round" stroke-linejoin="round" stroke-width=".4"/>
    <path transform="scale(1.4002 .7142)" d="m118.37 116.5a0.11106 0.11106 0 0 0-0.10153 0.06838l-0.42189 0.97641c-0.2367 0.54646-0.39003 0.881-0.43734 0.96319-0.0225 0.0366-0.04382 0.05897-0.05092 0.06437-9e-3 6e-3 -0.06367 0.03025-0.14851 0.04885a0.11106 0.11106 0 0 0-0.08577 0.10919v0.09022a0.11106 0.11106 0 0 0 0.11911 0.1092c0.13994-0.011 0.25352-0.01552 0.33975-0.01552 0.0656 0 0.18779 0.00564 0.36127 0.01724a0.11106 0.11106 0 0 0 0.11911-0.11092v-0.09022a0.11106 0.11106 0 0 0-0.08001-0.10747c-0.0202-6e-3 -0.03638-0.01002-0.04698-0.01322a0.11106 0.11106 0 0 0-0.00788-0.0023c-0.0386-8e-3 -0.06461-0.01354-0.08971-0.01954 4e-3 -9e-3 5e-3 -0.01418 0.01-0.02528a0.11106 0.11106 0 0 0 0.00182 0l0.13093-0.31838 0.34581-0.00403c0.0828 0 0.23087 0.00203 0.39825 0.00403l0.12699 0.30458c0.0108 0.0258 0.01034 0.02536 0.01364 0.03736-7e-3 3e-3 -5.4e-4 -9.4e-4 -0.01 0.00172-0.0316 9e-3 -0.07834 0.02094-0.13851 0.03334a0.11106 0.11106 0 0 0-0.08789 0.10919v0.09022a0.11106 0.11106 0 0 0 0.11517 0.11092c0.21549-0.0112 0.37006-0.01724 0.45522-0.01724 0.083 0 0.21757 0.00564 0.40219 0.01724a0.11106 0.11106 0 0 0 0.05849-0.02126 0.11106 0.11106 0 0 0 0.0588 0.02126c0.22267-0.0112 0.37765-0.01724 0.4628-0.01724 0.10325 0 0.23245 0.00492 0.38673 0.01552a0.11106 0.11106 0 0 0 0.11911-0.1092v-0.09022a0.11106 0.11106 0 0 0-0.08395-0.10919c-0.0309-7e-3 -0.05408-0.01252-0.07608-0.01552h-0.00424c-0.0602-0.0105-0.10746-0.02051-0.13851-0.02931-0.0254-7e-3 -0.02803-0.01112-0.02333-0.00632 1.7e-4 -2e-3 -0.0011-0.00489-0.00213-0.02529-1e-3 -0.0283-0.00294-0.07063-0.00394-0.12298-3e-3 -0.10468-0.00518-0.25521-0.00818-0.45286l-0.00576-0.59194 0.63647 0.76549 0.63889 0.79308a0.11106 0.11106 0 0 0 0.13275 0.03104l0.09971-0.04655a0.11106 0.11106 0 0 0 0.06425-0.10575c-0.0101-0.19412-0.01545-0.43462-0.01545-0.71894 0-0.24127 0.00306-0.49003 0.00606-0.74768 2e-3 -0.12948 0.00294-0.22946 0.00394-0.29884 1e-3 -0.0694 0.00394-0.1166 0.00394-0.11322l-0.00212 0.00173c3e-3 -0.0291 0.00524-0.03353 0.00424-0.03333 8e-3 -2e-3 0.01762-0.00405 0.03122-0.00805 0.0356-9e-3 0.08666-0.02086 0.15426-0.03506h-0.00606c0.0209-3e-3 0.04293-0.00791 0.07213-0.01551a0.11106 0.11106 0 0 0 0.02364-0.02931 0.11106 0.11106 0 0 0 0.01758 0.02931 0.11106 0.11106 0 0 0 0.00182 0c0.0315 8e-3 0.05712 0.01471 0.08032 0.01781 0.1107 0.0192 0.16906 0.03913 0.18154 0.04253 8.3e-4 0.0174 0.00212 0.03989 0.00212 0.07069l0.00788 0.83216c0 0.30416-0.00512 0.54621-0.01182 0.72641-5.9e-4 0.0181-3.2e-4 0.02718-0.00182 0.03678-3e-3 7.6e-4 0.0018-0.00198-0.0197 0.00402-0.0344 9e-3 -0.08656 0.01779-0.15426 0.02759a0.11106 0.11106 0 0 0-0.00394 0.00172c-0.0185 3e-3 -0.04288 0.00792-0.07608 0.01552a0.11106 0.11106 0 0 0-0.08789 0.10747v0.09195a0.11106 0.11106 0 0 0 0.11699 0.10919c0.21407-0.0111 0.38635-0.01552 0.51584-0.01552 0.1368 0 0.29129 0.00492 0.4628 0.01552a0.11106 0.11106 0 0 0 0.11729-0.10919v-0.09195a0.11106 0.11106 0 0 0-0.08789-0.10689c-0.0813-0.0163-0.14602-0.02928-0.19124-0.03908-0.0392-8e-3 -0.05844-0.01472-0.06244-0.01552-8.9e-4 -0.0123-0.00424-0.02573-0.00424-0.04713l-0.00182-0.52354 0.03516 0.03563a0.11106 0.11106 0 0 0 0 0.00172c0.32868 0.31197 0.50604 0.48754 0.58979 0.57815-0.0146 4e-3 -0.02311 0.00577-0.04091 0.00977a0.11106 0.11106 0 0 0-0.08608 0.10746v0.09195a0.11106 0.11106 0 0 0 0.11547 0.1092c0.27809-0.0112 0.45626-0.01552 0.52736-0.01552 0.0862 0 0.24927 0.00392 0.4822 0.01552a0.11106 0.11106 0 0 0 0.11547-0.1092v-0.09195a0.11106 0.11106 0 0 0-0.08607-0.10746c-0.18655-0.0405-0.30983-0.07406-0.32036-0.07816-0.0238-0.0101-0.04699-0.02268-0.06819-0.03908l-0.00212-0.00173c-1e-3 -9.2e-4 -0.00294-0.0013-0.00394-0.0023l-0.48432-0.44711c-0.1923-0.18128-0.30945-0.29944-0.40825-0.40056l0.09759-0.08735a0.11106 0.11106 0 0 0 0.00213 0l0.41582-0.3793a0.11106 0.11106 0 0 0 0.00212-0.00173l0.25974-0.24424 0.00394-0.0023c0.0127-9e-3 0.029-0.01851 0.0488-0.02701 2e-3 -7e-4 0.09481-0.03097 0.23428-0.06437a0.11106 0.11106 0 0 0 0.08607-0.10747v-0.08965a0.11106 0.11106 0 0 0-0.11729-0.11149c-0.2248 0.0112-0.37765 0.01724-0.4531 0.01724-0.1022 0-0.22347-0.00664-0.36521-0.01724a0.11106 0.11106 0 0 0-0.12093 0.11149v0.08965a0.11106 0.11106 0 0 0 0.08395 0.10747c0.0156 4e-3 0.02788 0.00777 0.03698 0.00977a0.11106 0.11106 0 0 0 0.00212 0c0.0203 4e-3 0.03067 0.0078 0.04667 0.0115-0.01 0.011-0.01235 0.0184-0.02515 0.0316-0.20314 0.20933-0.40275 0.3831-0.60162 0.55458l0.00394-0.28734c2e-3 -0.0976 0.00194-0.17166 0.00394-0.22241 6.4e-4 -0.0186 0.00113-0.0312 0.00213-0.0431 7e-3 -2e-3 0.01029-0.00375 0.01939-0.00575 0.0365-9e-3 0.09214-0.01973 0.16215-0.03333l0.06637-0.01379a0.11106 0.11106 0 0 0 0.0879-0.1092v-0.09022a0.11106 0.11106 0 0 0-0.11517-0.11092l-0.42189 0.01552c-0.0264 1e-3 -0.05743 0.00172-0.09183 0.00172-0.0937 0-0.25031-0.00564-0.46674-0.01724a0.11106 0.11106 0 0 0-0.05486 0.02126 0.11106 0.11106 0 0 0-0.05637-0.02126c-0.18236 0.0111-0.32394 0.01724-0.42401 0.01724-0.10325 0-0.24558-0.00564-0.42583-0.01724a0.11106 0.11106 0 0 0-0.11911 0.11092v0.09022a0.11106 0.11106 0 0 0 0.08608 0.10747c0.0324 8e-3 0.05667 0.01564 0.07607 0.01954a0.11106 0.11106 0 0 0 0.00212 0c0.0608 0.0115 0.10722 0.02121 0.13851 0.02931 0.01145 0.00276 0.01824 0.00564 0.02394 0.00805 0.00106 0.0117 0.00272 0.02547 0.00364 0.04655 2e-3 0.0493 0.00406 0.12114 0.00606 0.21493a0.11106 0.11106 0 0 0 0 0.00173c9e-3 0.40367 0.01364 0.68066 0.01364 0.83043v0.00402c-0.36233-0.4389-0.6918-0.8374-0.72466-0.87698l-0.00212-0.0023-0.43341-0.54309a0.11106 0.11106 0 0 0-0.09395-0.0408c-0.15403 0.0111-0.2628 0.01782-0.31611 0.01782-0.0689 0-0.16745-0.00722-0.2952-0.01782a0.11106 0.11106 0 0 0-0.12093 0.11149v0.08965a0.11106 0.11106 0 0 0 0.12699 0.1092h-0.0391c0.0373 8e-3 0.06507 0.01401 0.08577 0.01781a0.11106 0.11106 0 0 0 0.00213 0c0.0841 0.0141 0.14847 0.02678 0.19336 0.03678 0.0384 9e-3 0.05577 0.01695 0.04667 0.01035 5.6e-4 5e-3 -4e-4 0.00104 0 0.00804 1e-3 0.0191 0.00325 0.04691 0.00425 0.08161 2e-3 0.0695 0.00182 0.16788 0.00182 0.29539 0 0.0771-0.00188 0.33642-0.00788 0.77297-2e-3 0.15346-0.00519 0.27448-0.00819 0.36148-3e-3 0.0824-9e-3 0.13478-0.01 0.1408-1e-3 -5e-5 0.00506-0.00328-0.01364 0.00172-0.0294 8e-3 -0.07374 0.01729-0.13275 0.02759a0.11106 0.11106 0 0 0-0.00606 0.00172c-0.0185 4e-3 -0.04613 0.00922-0.08183 0.01782a0.11106 0.11106 0 0 0-0.02546 0.03333 0.11106 0.11106 0 0 0-0.02333-0.03161c-0.0677-0.0197-0.11885-0.03495-0.15427-0.04655-0.0166-5e-3 -0.02898-0.00936-0.03728-0.01206h-0.00182c-1e-3 -8.1e-4 -0.00824-0.00892-0.01394-0.01552l-0.00182-0.00575c-2e-3 -2e-3 -0.00194-9.1e-4 -0.00394-0.00402l-0.35157-0.76779v-0.00173c-0.20003-0.44682-0.36918-0.8458-0.50584-1.1971a0.11106 0.11106 0 0 0-0.10365-0.07241l-0.09547-5.7e-4zm-2.9765 0.03735a0.11106 0.11106 0 0 0-0.11729 0.11092v0.09022a0.11106 0.11106 0 0 0 0.08789 0.1069c2e-3 4.4e-4 0.00224 0.0023 0.00424 0.0023 0.0248 6e-3 0.0452 0.01069 0.0585 0.01379a0.11106 0.11106 0 0 0 0.00212 0c0.0698 0.0152 0.12288 0.02758 0.16003 0.03678 0.0134 3e-3 0.02261 0.00505 0.03121 0.00805 1e-3 6e-3 3e-4 0.00116 0.00212 0.02356 3e-3 0.0369 0.00476 0.09148 0.00576 0.16034l0.00212 0.67584c0 0.44207-0.00512 0.7163-0.01182 0.79653a0.11106 0.11106 0 0 0 0 0.0023c-5e-3 2e-3 -0.00693 0.00202-0.01363 0.00402-0.037 0.01-0.09347 0.02278-0.16609 0.03678-0.0189 4e-3 -0.04377 0.00792-0.07607 0.01552a0.11106 0.11106 0 0 0-0.08608 0.10746v0.09195a0.11106 0.11106 0 0 0 0.11729 0.1092c0.12236-6e-3 0.2157-0.0107 0.28126-0.0138 0.0656-3e-3 0.11081-0.00344 0.10759-0.00344-9e-3 0 0.05751 0.00147 0.15215 0.00747 0.13761 7e-3 0.23834 0.01207 0.30671 0.01207 0.29454 0 0.52769-0.04575 0.69921-0.1523 0.23644-0.14664 0.37097-0.36985 0.37097-0.63101 0-0.12886-0.03121-0.24793-0.09941-0.34367-0.06-0.0843-0.14613-0.14556-0.24216-0.18965 0.0722-0.059 0.13468-0.12756 0.17578-0.21091 0.0453-0.0908 0.07032-0.185 0.07032-0.28103 0-0.16404-0.06718-0.31442-0.18943-0.42183a0.11106 0.11106 0 0 0-0.00212 0c-0.13046-0.1122-0.31452-0.15862-0.53918-0.15861-0.0636 0-0.15074 0.00232-0.26368 0.00632-0.10997 4e-3 -0.21481 0.00575-0.31641 0.00575-0.1555 0-0.32678-0.00564-0.5116-0.01724l-3e-4 -5.8e-4zm0.93742 0.36551c0.14557 0 0.24021 0.02677 0.27732 0.05287 0.0686 0.0484 0.09789 0.10569 0.09789 0.21493 0 0.0757-0.01845 0.13528-0.05485 0.18908-0.037 0.054-0.07974 0.08635-0.13851 0.10747-0.0557 0.02-0.17271 0.03735-0.33793 0.03735-2e-3 0-0.03506 1.2e-4 -0.04486 0-1.6e-4 -0.0169 0-0.04439 0-0.05689 0-0.22661 0.00686-0.38911 0.01546-0.53102 0.064-6e-3 0.12964-0.01379 0.18548-0.01379zm2.0215 0.44539 0.22064 0.52354c-0.12847 2e-3 -0.29615 0.00403-0.30278 0.00403-0.0271 0-0.09353-0.0013-0.1385-0.0023l0.22064-0.52527zm-2.0918 0.504c0.1579 0 0.272 0.01464 0.32429 0.03104 0.0538 0.0167 0.09773 0.04549 0.13881 0.09769 0.0352 0.0446 0.05456 0.10542 0.05456 0.1954 0 0.13358-0.03577 0.21908-0.10729 0.28677-0.0675 0.0638-0.17882 0.10575-0.35551 0.10575-0.0528 0-0.11973-0.00892-0.18367-0.01552v-0.6994c0.0422-5.8e-4 0.0764-0.00173 0.12881-0.00173z" fill="#3e1a4f"/>
   </g>
  </g>
 </g>
</svg>
