<?xml version="1.0" encoding="UTF-8"?>
<svg width="421.38mm" height="24.927mm" version="1.1" viewBox="0 0 421.38 24.927" xml:space="preserve" xmlns="http://www.w3.org/2000/svg"><g transform="translate(89.719 -.37417)"><g transform="translate(26.46 -146.38)"><path d="m291.2 160.6 8.3945-0.16124 0.47034 5.7943 5.1406 0.12229-0.37723-7.2199-1.6344-2.738-3.5804-1.3263-8.1626-0.27893z" fill="#f2f2f2"/><g transform="translate(-71.435 -257.81)"><path d="m362.39 425.81 0.18709-20.954-407.02 0.48302 0.56127 21.328z" fill="#ffae40" stroke="#000" stroke-linecap="round" stroke-linejoin="round" stroke-width=".6"/><path d="m-43.639 421.77 405.84 0.33525-0.0387-2.617-405.93 0.4229z" fill="#ff9a40" stroke="#000" stroke-linecap="round" stroke-linejoin="round" stroke-width=".60391"/><path d="m-44.017 411.72 406.41 0.34014 1e-5 -2.9801-406.32 0.40823z" fill="#ff9a40" stroke="#000" stroke-linecap="round" stroke-linejoin="round" stroke-width=".6"/><path d="m362.24 423.19-11.006 2.0541s-2.71-5.7461-2.1809-10.178c0.39337-3.2945 1.7198-6.5484 1.7198-6.5484l11.49-0.59726 0.35812-2.9384-15.02 1.7464s-5.0204 4.8079-5.6158 10.033c-0.58572 5.1414 5.2817 11.533 5.2817 11.533l14.942-2.6868z" fill="#ff9a40" stroke="#000" stroke-linecap="round" stroke-linejoin="round" stroke-width=".6"/><path transform="matrix(1.6729 0 0 1.1748 -238.33 -72.211)" d="m350.1 408.62a0.091387 0.091387 0 0 0-0.0862 0.0528l-0.13654 0.28327a0.091387 0.091387 0 0 0-2e-3 0.0743l0.31849 0.79659-0.51372-0.24588a0.091387 0.091387 0 0 0-0.12295 0.0431l-0.1075 0.22653a0.091387 0.091387 0 0 0 0.0429 0.12096l1.5841 0.76184a0.091387 0.091387 0 0 0 0.12295-0.0431l0.10936-0.22653a0.091387 0.091387 0 0 0-0.0429-0.12096l-0.58972-0.28327 0.97061-0.35937a0.091387 0.091387 0 0 0 0.051-0.0449l0.14828-0.31274a0.091387 0.091387 0 0 0-0.11338-0.12492l-1.1621 0.42579-0.38862-0.96462a0.091387 0.091387 0 0 0-0.0819-0.0589zm0.75159 2.0744a0.091387 0.091387 0 0 0-0.11708 0.0546l-0.24435 0.65627-1.3475-0.50364a0.091387 0.091387 0 0 0-0.11738 0.0545l-0.0896 0.23445a0.091387 0.091387 0 0 0 0.0547 0.1192l1.6484 0.61493a0.091387 0.091387 0 0 0 0.11707-0.0546l0.36545-0.97825a0.091387 0.091387 0 0 0-0.0547-0.11744zm-0.26567 1.2343-1.9199 0.25775a0.091387 0.091387 0 0 0-0.0763 0.0647l-0.0488 0.16979a0.091387 0.091387 0 0 0 0.0293 0.0959l1.4843 1.2246a0.091387 0.091387 0 0 0 0.14643-0.0449l0.0726-0.24808a0.091387 0.091387 0 0 0-0.0294-0.0959l-0.39262-0.32198 0.17762-0.60349 0.50785-0.0686a0.091387 0.091387 0 0 0 0.0741-0.0642l0.0741-0.24808a0.091387 0.091387 0 0 0-0.0995-0.11744zm-0.99809 0.56082-0.076 0.25952-0.26566-0.2129zm-1.2304 0.58369a0.091387 0.091387 0 0 0-0.0528 0.0686l-0.0429 0.24588a0.091387 0.091387 0 0 0 0.0411 0.0937l0.91407 0.56654-1.0568 0.22081a0.091387 0.091387 0 0 0-0.0701 0.0739l-0.0429 0.23445a0.091387 0.091387 0 0 0 0.0408 0.0937l0.91623 0.57226-1.0568 0.21905a0.091387 0.091387 0 0 0-0.0723 0.0721l-0.0429 0.24984a0.091387 0.091387 0 0 0 0.1075 0.10556l1.863-0.38663a0.091387 0.091387 0 0 0 0.0723-0.0721l0.0102-0.055a0.091387 0.091387 0 0 0-0.0411-0.0937l-1.1133-0.7029 1.2872-0.26788a0.091387 0.091387 0 0 0 0.0701-0.0721l0.0102-0.0546a0.091387 0.091387 0 0 0-0.0411-0.0937l-1.6131-1.0117a0.091387 0.091387 0 0 0-0.0862-6e-3zm0.49055 3.0113c-0.0319-7.4e-4 -0.0638 2.4e-4 -0.0961 3e-3 -0.17928 0.0134-0.34447 0.0706-0.49025 0.17199-0.14578 0.1014-0.2567 0.23433-0.32404 0.39411-0.0701 0.16399-0.0908 0.36981-0.0723 0.61757l0.0448 0.59161a0.091387 0.091387 0 0 0 0.0976 0.084l1.7522-0.13108a0.091387 0.091387 0 0 0 0.0837-0.0972l-0.0408-0.55467c-0.0118-0.15737-0.0239-0.26338-0.0392-0.33033-0.0151-0.0618-0.0397-0.12728-0.0723-0.1953v-2e-3c-0.056-0.11974-0.13603-0.22377-0.23446-0.31054-0.0963-0.0856-0.20623-0.15077-0.32807-0.19178-0.0914-0.0308-0.18521-0.047-0.2808-0.0493zm-0.0766 0.44602c0.17135-0.0128 0.30522 0.0303 0.42197 0.12888 0.0354 0.0305 0.0661 0.0635 0.0918 0.10161 0.023 0.0345 0.0458 0.0831 0.0664 0.14427 0.0181 0.0563 0.0338 0.14812 0.0429 0.26964l0.0176 0.23049-1.121 0.0858-0.0176-0.22433c-9e-3 -0.11811-0.0103-0.20439-6e-3 -0.24808 4e-3 -0.0452 0.0156-0.0966 0.0371-0.15263 0.0207-0.0546 0.0495-0.10187 0.084-0.14428 0.0943-0.11732 0.2152-0.17881 0.38305-0.19134zm1.0898 1.2848a0.091387 0.091387 0 0 0-0.0917 0.0295l-0.10164 0.1192h2e-3c-0.0375 0.0439-0.0993 0.10805-0.18164 0.18958-0.13363 0.13248-0.22521 0.2316-0.28111 0.30658-0.028 0.0377-0.0436 0.0753-0.0646 0.11305-0.0488-0.0452-0.0914-0.10122-0.15229-0.12492-0.10259-0.0399-0.21538-0.0445-0.32992-0.0176-0.16698 0.0392-0.29975 0.13816-0.37316 0.28327-0.0738 0.14435-0.0833 0.31568-0.0392 0.50364l0.0998 0.42975a0.091387 0.091387 0 0 0 0.10936 0.0686l1.7129-0.40248a0.091387 0.091387 0 0 0 0.0683-0.10952l-0.0565-0.24588a0.091387 0.091387 0 0 0-0.10936-0.0682l-0.65428 0.15395c-8e-3 -0.0511-0.0118-0.0986-0.0102-0.10513a0.091387 0.091387 0 0 0 0-4.4e-4 0.091387 0.091387 0 0 0 0-4.4e-4 0.091387 0.091387 0 0 0 0-4.4e-4 0.091387 0.091387 0 0 0 0-4.4e-4 0.091387 0.091387 0 0 0 0-4.4e-4c6e-3 -0.0251 0.0241-0.065 0.0528-0.11128 0.0271-0.0446 0.0672-0.1 0.1211-0.16231l4e-3 -4e-3 0.11121-0.10909 0.10565-0.10556a0.091387 0.091387 0 0 0 6e-3 -4e-3l0.0547-0.0647a0.091387 0.091387 0 0 0 2e-3 0c8e-3 -9e-3 0.0131-0.0168 0.0117-0.0154a0.091387 0.091387 0 0 0 2e-3 -2e-3l0.0958-0.0994a0.091387 0.091387 0 0 0 0.0235-0.084l-0.0704-0.29294a0.091387 0.091387 0 0 0-0.0664-0.0664zm-1.0472 1.0416c0.0176 7.5e-4 0.0343 4e-3 0.051 0.01a0.091387 0.091387 0 0 0 2e-3 0c0.0313 0.01 0.054 0.0262 0.076 0.0546 0.0125 0.0159 0.0465 0.0915 0.0744 0.21069l2e-3 6e-3 -0.36143 0.084c-0.023-0.10381-0.0324-0.18551-0.029-0.21685a0.091387 0.091387 0 0 0 0-4.4e-4 0.091387 0.091387 0 0 0 0-4.4e-4 0.091387 0.091387 0 0 0 0-4.4e-4 0.091387 0.091387 0 0 0 0-4.4e-4c4e-3 -0.0388 0.0152-0.0633 0.0389-0.088a0.091387 0.091387 0 0 0 0-4.4e-4 0.091387 0.091387 0 0 0 0-4.4e-4 0.091387 0.091387 0 0 0 0-4.4e-4 0.091387 0.091387 0 0 0 0-4.4e-4 0.091387 0.091387 0 0 0 0-4.4e-4c0.0246-0.0261 0.0516-0.0416 0.0899-0.0506l-3.1e-4 -4.4e-4c0.0203-5e-3 0.0389-6e-3 0.0565-5e-3zm1.4105 0.47813a0.091387 0.091387 0 0 0-0.0859 0.0176l-1.4865 1.2382a0.091387 0.091387 0 0 0-0.0294 0.0959l0.047 0.17155a0.091387 0.091387 0 0 0 0.0781 0.0647l1.9082 0.24632a0.091387 0.091387 0 0 0 0.0976-0.11745l-0.0701-0.24808a0.091387 0.091387 0 0 0-0.0763-0.0642l-0.50199-0.0647-0.1699-0.60525 0.39078-0.32813a0.091387 0.091387 0 0 0 0.0293-0.0959l-0.0704-0.24808a0.091387 0.091387 0 0 0-0.0605-0.0625zm-0.6311 1.0236 0.0744 0.25952-0.33795-0.0392zm0.51094 0.87401c-0.0983 2e-3 -0.19823 0.0202-0.2981 0.0537-0.26614 0.0892-0.46676 0.26416-0.58199 0.51156-0.11556 0.24658-0.12562 0.51691-0.0331 0.79307 0.0926 0.27617 0.26346 0.48664 0.50384 0.61141 0.24036 0.12475 0.50667 0.14063 0.77537 0.0506 0.26265-0.088 0.46071-0.25993 0.57612-0.50188 0.11421-0.24245 0.12385-0.50726 0.0334-0.77724-0.0942-0.2811-0.26294-0.49515-0.50198-0.62504-0.15004-0.0815-0.30978-0.1202-0.47356-0.11612zm0.067 0.44206c0.0737 5e-3 0.14511 0.026 0.21686 0.0629 0.14308 0.073 0.23894 0.18409 0.29501 0.35145 0.0559 0.16687 0.0469 0.31206-0.0213 0.45481-0.0682 0.14272-0.17201 0.2358-0.33208 0.28943-0.16637 0.0558-0.31001 0.0462-0.44946-0.0255-0.13985-0.0725-0.23305-0.18639-0.291-0.35937-0.0544-0.16221-0.0462-0.30661 0.0235-0.45129 0.0687-0.14505 0.17178-0.23663 0.32806-0.28899h3.1e-4c0.0808-0.0271 0.15646-0.0383 0.23014-0.0334zm0.90511 1.4282c-0.0757-4e-3 -0.15172 9e-3 -0.22519 0.0387-0.12435 0.0495-0.22103 0.13971-0.27741 0.25996-0.0404 0.085-0.0323 0.18471-0.0293 0.28327-0.12827-0.0737-0.26032-0.15382-0.40035-0.0981-0.0969 0.0386-0.1783 0.0981-0.23632 0.17771-0.0583 0.0794-0.0903 0.17548-0.0976 0.27931-8e-3 0.11151 0.0192 0.23655 0.076 0.37916l0.17206 0.42755a0.091387 0.091387 0 0 0 0.11708 0.051l1.6348-0.65056a0.091387 0.091387 0 0 0 0.051-0.1192l-0.22087-0.55246c-0.0534-0.13416-0.12083-0.24222-0.20882-0.32066-0.0842-0.0757-0.17869-0.12602-0.27926-0.14648v4.4e-4c-0.025-5e-3 -0.0504-8e-3 -0.0757-0.01zm-0.0349 0.4469c0.0162-1e-3 0.0332-3.9e-4 0.0519 4e-3v4.4e-4a0.091387 0.091387 0 0 0 2e-3 0c0.036 7e-3 0.0636 0.0234 0.0899 0.0488 0.0154 0.0153 0.0642 0.0933 0.11337 0.21685l0.0584 0.14428-0.34753 0.14075-0.0547-0.1346c-0.0442-0.11134-0.0638-0.19624-0.0646-0.23664-9.1e-4 -0.0467 8e-3 -0.0784 0.0275-0.10733a0.091387 0.091387 0 0 0 0-4.4e-4 0.091387 0.091387 0 0 0 0-4.4e-4 0.091387 0.091387 0 0 0 0-4.4e-4 0.091387 0.091387 0 0 0 0-4.4e-4c0.0201-0.0315 0.0432-0.0493 0.0763-0.0625 0.0159-6e-3 0.0313-0.0105 0.0476-0.0119zm-0.6413 0.42534c0.0228 3.5e-4 0.0447 6e-3 0.0683 0.018a0.091387 0.091387 0 0 0 2e-3 2e-3c0.0358 0.0175 0.0856 0.0734 0.13098 0.18738l0.0293 0.0704-0.3225 0.12888-0.0466-0.11744c-0.0353-0.0887-0.0385-0.15024-0.0275-0.18738 0.0109-0.0371 0.0313-0.0618 0.0917-0.0858 0.0279-0.0111 0.0517-0.0166 0.0744-0.0163z" fill="#fff"/><circle cx="347.07" cy="428.36" r=".92604" fill="#fff" stroke="#000" stroke-linecap="round" stroke-linejoin="round" stroke-width=".4"/><circle cx="345.61" cy="426.25" r=".92604" fill="#fff" stroke="#000" stroke-linecap="round" stroke-linejoin="round" stroke-width=".4"/><circle cx="343.93" cy="423.9" r=".92604" fill="#fff" stroke="#000" stroke-linecap="round" stroke-linejoin="round" stroke-width=".4"/><circle cx="342.64" cy="420.72" r=".92604" fill="#fff" stroke="#000" stroke-linecap="round" stroke-linejoin="round" stroke-width=".4"/><circle cx="342.11" cy="417.88" r=".92604" fill="#fff" stroke="#000" stroke-linecap="round" stroke-linejoin="round" stroke-width=".4"/><circle cx="342.37" cy="414.84" r=".92604" fill="#fff" stroke="#000" stroke-linecap="round" stroke-linejoin="round" stroke-width=".4"/><circle cx="343.17" cy="412.16" r=".92604" fill="#fff" stroke="#000" stroke-linecap="round" stroke-linejoin="round" stroke-width=".4"/><circle cx="344.82" cy="409.48" r=".92604" fill="#fff" stroke="#000" stroke-linecap="round" stroke-linejoin="round" stroke-width=".4"/><circle cx="346.8" cy="407" r=".92604" fill="#fff" stroke="#000" stroke-linecap="round" stroke-linejoin="round" stroke-width=".4"/><circle cx="350.71" cy="424.33" r=".92604" fill="#fff" stroke="#000" stroke-linecap="round" stroke-linejoin="round" stroke-width=".4"/><circle cx="349.78" cy="421.68" r=".92604" fill="#fff" stroke="#000" stroke-linecap="round" stroke-linejoin="round" stroke-width=".4"/><circle cx="349.09" cy="418.84" r=".92604" fill="#fff" stroke="#000" stroke-linecap="round" stroke-linejoin="round" stroke-width=".4"/><circle cx="348.79" cy="415.93" r=".92604" fill="#fff" stroke="#000" stroke-linecap="round" stroke-linejoin="round" stroke-width=".4"/><circle cx="349.35" cy="413.28" r=".92604" fill="#fff" stroke="#000" stroke-linecap="round" stroke-linejoin="round" stroke-width=".4"/><circle cx="350.08" cy="410.63" r=".92604" fill="#fff" stroke="#000" stroke-linecap="round" stroke-linejoin="round" stroke-width=".4"/><circle cx="351.57" cy="408.62" r=".92604" fill="#fff" stroke="#000" stroke-linecap="round" stroke-linejoin="round" stroke-width=".4"/></g></g></g></svg>
