<svg width="24.002mm" height="24.566mm" version="1.1" viewBox="0 0 24.002 24.566" xmlns="http://www.w3.org/2000/svg">
 <g transform="translate(102.92 -96.044)">
  <g transform="translate(-338.09 -52.79)" stroke-linecap="round" stroke-linejoin="round">
   <g transform="translate(.28127 -4.219)" stroke="#000">
    <g stroke-width=".6">
     <path d="m237.61 176.5 10.437 0.82016-1.8098-16.697-10.548 0.32852z" fill="#9842c0"/>
     <path d="m248.05 177.15-2.0385-15.863 1.9946-6.9437 4.4122 3.4949 2.0114 13.126z" fill="#9842c0"/>
     <path d="m235.18 161.33 10.742 0.57676 2.1775-8.4931-11.364-0.0607z" fill="#6d2e8a"/>
    </g>
    <path d="m249.43 175.66-0.70136-4.6722 1.4695-1.1529 0.60117 4.3688z" fill="#d8b6e7" stroke-width=".51216"/>
    <path d="m248.11 167.92 1.4415-1.0547-0.63284-3.34-1.5118 0.91411z" fill="#fff" stroke-width=".4"/>
    <path d="m246.89 164.05 0.46064 0.44398 1.6193-0.97521 5e-3 -0.72471z" fill="#d8b6e7" stroke-width=".23062"/>
    <g fill="#fff" stroke-width=".4">
     <path d="m250.91 166.12 1.5118-0.94927-0.59768-3.4807-1.5118 0.91411z"/>
     <path d="m252.03 171.14 1.4415-1.336-0.45705-2.6369-1.5118 1.1954z"/>
     <ellipse cx="249.29" cy="158.63" rx=".668" ry="1.0196"/>
    </g>
    <g fill="#d8b6e7">
     <path d="m248.92 168.41-0.91412 2.9884 2.9884-2.1095z" stroke-width=".4"/>
     <path d="m250.97 167.93 0.4855 0.43155 1.6069-1.1741-0.0195-0.78687z" stroke-width=".23062"/>
     <path d="m249.83 162.27 0.37363 0.43155 1.6442-0.95034 0.0799-0.68743z" stroke-width=".23062"/>
    </g>
    <path d="m245.63 161.91 1.1883-0.10827 1.8943-6.9675 4.6951 4.0032 0.50048-0.58029-5.7733-4.8921z" fill="#6d2e8a" stroke-width=".51216"/>
    <g fill="#fff" stroke-width=".4">
     <path d="m250.96 169.36 0.668 4.0784"/>
     <path d="m248.08 171.5 0.668 4.7815"/>
     <path d="m242.06 164.26 2.1446 0.10547 0.35159 3.2346-2.1798-0.14063z"/>
     <path d="m243.08 170.2 1.8985 0.14064 0.21095 3.0588-1.7931-0.0703z"/>
     <path d="m237.88 164.05 2.1446 0.10547 0.35159 3.2346-2.1798-0.14063z"/>
     <path d="m238.9 170 1.8985 0.14064 0.31039 3.1085-1.8925-0.12002z"/>
    </g>
    <g fill="#d8b6e7" stroke-width=".23062">
     <path d="m237.43 163.2 0.41141 0.72962 2.2214 0.14279 0.27102-0.72233z"/>
     <path d="m241.58 163.41 0.38655 0.72962 2.2214 0.14279 0.29588-0.72233z"/>
     <path d="m238.46 169.16 0.42899 0.79994 2.0298 0.0725 0.27102-0.72233z"/>
     <path d="m242.61 169.4 0.38655 0.70476 1.9479 0.11793 0.32074-0.62289z"/>
    </g>
   </g>
   <path d="m252.08 169.6 6.8207 1.0547 0.21095 2.2501-8.7895-1.6876z" fill="#f2f2f2" stroke="#fff" stroke-width=".1"/>
  </g>
 </g>
</svg>
