<?xml version="1.0" encoding="UTF-8"?>
<svg width="41.139mm" height="38.604mm" version="1.1" viewBox="0 0 41.139 38.604" xmlns="http://www.w3.org/2000/svg">
 <g transform="translate(39.952 -120.91)">
  <g transform="translate(-161.57 -64.225)">
   <g transform="matrix(2.2004 0 0 2.2336 22.754 -80.996)">
    <path transform="matrix(.45447 0 0 .44771 -10.341 36.262)" d="m136.01 218.87-14.395 0.92975 0.0505-5.3541 14.547 1.4748z" fill="#f2f2f2"/>
    <path d="m52.935 119.31 10.281-0.0122-3.6367 5.9602-9.1694-0.0888z" fill="#e14a38" stroke="#000" stroke-width=".26458"/>
    <path d="m59.501 125.16-0.10102 10.91h-7.7281l-1.2628-10.91z" fill="#8f2424" stroke="#000" stroke-width=".26478"/>
    <path d="m51.036 126.43 7.5741-0.0333v8.288l-6.3472 0.0964z" fill="#ff4091"/>
    <path d="m63.34 119.31-0.95969 14.749-2.9801 2.1214 0.10102-10.809z" fill="#cf4334" stroke="#000" stroke-width=".26458"/>
    <g fill="#ff4040" stroke-width=".145">
     <path d="m52.913 119.36 0.46431 1 9.2862-0.0714 0.62967-0.99314" stroke="#1a1a1a"/>
     <path d="m52.939 119.41 0.43842 0.98574-2.1608 4.6788-0.71048 0.0368" stroke="#000"/>
     <path d="m63.557 119.17-0.3393 1.4822-3.768 5.5181" stroke="#000"/>
     <path d="m59.503 125.99-9.1076-0.0536" stroke="#000"/>
    </g>
    <g fill="#f00" stroke="#8f2424" stroke-width=".27831">
     <path d="m52.217 126.27 0.43726 9.028"/>
     <path d="m53.771 126.29 0.05357 9.1612"/>
     <path d="m54.985 126.2 0.12501 9.3398"/>
     <path d="m56.414 126.34 0.14286 9.0719"/>
     <path d="m57.967 126.27-0.03572 9.1255"/>
     <path d="m50.985 127.06 7.6611 0.0893"/>
     <path d="m58.646 129.22-7.554 0.0715"/>
     <path d="m58.897 131.21-7.7163 0.20569"/>
     <path d="m58.902 133.02-7.667 0.19952"/>
     <path d="m59.17 134.67-7.3139 0.0357"/>
    </g>
    <path d="m49.593 131.87 0.05051 3.2326c0.04385 0.23064 0.31123 0.27918 0.4449 0.0495-0.02179-0.8123-0.0051-2.7977-0.0051-2.7977z" fill="#cf4434" stroke="#000" stroke-width=".145"/>
    <path d="m48.068 131.34 0.05051 3.2326c0.04385 0.23064 0.31123 0.27918 0.4449 0.0495-0.02179-0.8123-0.0051-2.7977-0.0051-2.7977z" fill="#cf4434" stroke="#000" stroke-width=".145"/>
    <path d="m50.615 132.51s-2.7447-0.40409-2.7098-1.7762c0.04879-1.9194 2.4925-1.8616 2.4925-1.8616" fill="#cf4434" stroke="#000" stroke-width=".145"/>
    <g transform="translate(.98219 .23215)">
     <path d="m50.826 125.95-1.7681 1.0985 0.78163 7.9858 1.3135-1.0605z" fill="#ff5340" stroke="#000" stroke-width=".12726"/>
     <g transform="matrix(1.154 -.060477 .045291 .8642 0 0)" fill="#ff0" stroke="#ff0" stroke-width=".093824" aria-label="C A S I N O">
      <path d="m37.84 150.36q-0.0328 0.0143-0.05963 0.0268-0.02624 0.0125-0.06917 0.0262-0.03637 0.0113-0.0793 0.0191-0.04234 8e-3 -0.09361 8e-3 -0.0966 0-0.1759-0.0268-0.07871-0.0274-0.13714-0.0853-0.05724-0.0566-0.08944-0.1437-0.0322-0.0876-0.0322-0.20333 0-0.10971 0.03101-0.19617 0.03101-0.0865 0.08944-0.14609 0.05664-0.0578 0.13654-0.0882 0.08049-0.0304 0.17828-0.0304 0.07155 0 0.14251 0.0173 0.07155 0.0173 0.15861 0.0608v0.14012h-0.0089q-0.07334-0.0614-0.14549-0.0894t-0.15443-0.028q-0.06738 0-0.12164 0.0221-0.05366 0.0215-0.096 0.0674-0.04114 0.0447-0.0644 0.11329-0.02266 0.068-0.02266 0.15741 0 0.0936 0.02504 0.16099 0.02564 0.0674 0.06559 0.10971 0.04174 0.0441 0.09719 0.0656 0.05605 0.0209 0.11806 0.0209 0.08527 0 0.1598-0.0292t0.13953-0.0876h0.0083z"/>
      <path d="m37.881 151.83h-0.12581l-0.08706-0.24745h-0.38399l-0.08705 0.24745h-0.11985l0.32318-0.88784h0.15741zm-0.24924-0.34881-0.15562-0.43587-0.15622 0.43587z"/>
      <path d="m37.826 152.93q0 0.0519-0.02445 0.10256-0.02385 0.0507-0.06738 0.0859-0.0477 0.0382-0.1115 0.0596-0.0632 0.0215-0.15264 0.0215-0.096 0-0.17292-0.0179-0.07632-0.0179-0.15562-0.0531v-0.14787h0.0083q0.06738 0.056 0.15562 0.0865 0.08825 0.0304 0.16576 0.0304 0.10971 0 0.17053-0.0411 0.06142-0.0411 0.06142-0.10972 0-0.059-0.02922-0.087-0.02862-0.028-0.08765-0.0435-0.04472-0.0119-0.09719-0.0197-0.05188-8e-3 -0.11031-0.0197-0.11806-0.025-0.1753-0.0853-0.05664-0.0608-0.05664-0.15801 0-0.1115 0.09421-0.18245 0.09421-0.0716 0.2391-0.0716 0.09361 0 0.17172 0.0179t0.13833 0.0441v0.13953h-0.0083q-0.05068-0.0429-0.13356-0.071-0.08228-0.0286-0.16874-0.0286-0.09481 0-0.15264 0.0394-0.05724 0.0393-0.05724 0.10136 0 0.0555 0.02862 0.0871t0.10077 0.0483q0.03816 8e-3 0.10852 0.0203 0.07036 0.0119 0.11925 0.0244 0.09898 0.0262 0.14907 0.0793t0.05009 0.14847z"/>
      <path d="m37.658 154.62h-0.3506v-0.0906h0.11627v-0.70658h-0.11627v-0.0906h0.3506v0.0906h-0.11627v0.70658h0.11627z"/>
      <path d="m37.815 156h-0.14608c-0.44782-0.75796-0.42096-1.182-0.42096 0h-0.11031v-0.88784h0.18305l0.38399 0.72506v-0.72506h0.11031z"/>
      <path d="m37.875 156.8c0.01948 0.0577 0.02922 0.12306 0.02922 0.19617 0 0.0731-0.0099 0.13873-0.02981 0.19677-0.01948 0.0577-0.04691 0.10577-0.08228 0.1443-0.03657 0.0401-0.0799 0.0703-0.12999 0.0906-0.04969 0.0203-0.10653 0.0304-0.17053 0.0304-0.06241 0-0.11925-0.0103-0.17053-0.031-0.05088-0.0207-0.09421-0.0507-0.12999-0.09-0.03577-0.0393-0.0634-0.0876-0.08288-0.1449-0.01908-0.0573-0.02862-0.12266-0.02862-0.19617 0-0.0724 0.0095-0.13714 0.02862-0.19438 0.01908-0.0577 0.04691-0.10696 0.08348-0.14787 0.03498-0.0389 0.07831-0.0687 0.12999-0.0894 0.05207-0.0207 0.10872-0.031 0.16994-0.031 0.0636 0 0.12064 0.0105 0.17113 0.0316 0.1121 0.0455 0.17775 0.13061 0.21226 0.23488zm-0.09361 0.19617c0-0.11527-0.02584-0.20412-0.07751-0.26653-0.05168-0.0628-0.12224-0.0942-0.21167-0.0942-0.09023 0-0.16119 0.0314-0.21287 0.0942-0.05128 0.0624-0.07692 0.15124-0.07692 0.26653 0 0.11647 0.02624 0.20572 0.07871 0.26773 0.05247 0.0616 0.12283 0.0924 0.21108 0.0924s0.15841-0.0308 0.21048-0.0924c0.05247-0.062 0.07871-0.15124 0.07871-0.26773z"/>
     </g>
    </g>
    <path d="m59.852 126.45 2.8677-4.3063-0.68508 10.51-1.8966 1.3696z" fill="#ff4091"/>
    <g transform="translate(0 -.090455)" fill="#f00" stroke="#cf1500" stroke-width=".1881">
     <path d="m62.359 122.37-0.65735 10.94"/>
     <path d="m60.11 125.9 0.25594 8.3059"/>
     <path d="m61.545 123.79-0.38608 9.7616"/>
     <path d="m60.719 125.04v8.7726"/>
     <path d="m62.825 122.9-3.0265 4.5534"/>
     <path d="m62.539 126.04-2.7988 2.9225"/>
     <path d="m62.411 127.87-2.467 2.2499"/>
     <path d="m62.161 131.2-2.1583 2.0123"/>
     <path d="m62.309 129.64-2.2908 2.1605"/>
    </g>
   </g>
  </g>
 </g>
</svg>
