<svg width="185" height="218" version="1.1" viewBox="0 0 33.4 39.358" xml:space="preserve" xmlns="http://www.w3.org/2000/svg"><g transform="translate(-.1072 -1.4861)"><g transform="translate(-176.74,-112.98)"><g transform="translate(-46.453,-70.846)"><path d="m223.32 185.34 7.8185-0.0279 19.71 9.6246 5.8245-9e-3 0.0269 29.963-33.4-0.0625z" fill="#5c757d"/><path d="m233.95 224.88c1.428-0.2945 5.1585-1.9385 6.376-6.1105 0.63328-2.17-1.1484-5.5494-1.1484-5.5494l1.7969 0.0722s1.5197 3.2873 0.93816 5.9337c-0.81834 3.7239-3.7009 5.3445-4.7362 5.7196z" fill="#f2f2f2"/><path d="m239.45 189.85c-1.0546 1.8243-1.0033 4.0766-0.43201 6.0487-1.5346 0.63947-3.0928 1.5688-3.8711 3.1001-0.443 0.76354-0.22213 1.7366 0.36793 2.3544 0.72093 0.88461 1.8071 1.3514 2.9089 1.5436 1.4583 0.25708 2.9454 0.49504 4.4297 0.38654 1.493-0.20685 2.9198-0.91416 4.024-1.9358 0.57979-0.49713 1.1351-1.2995 0.71778-2.0727-1.1414-1.9723-3.0961-3.0122-5.251-3.6134-0.37643-1.5009-0.42263-3.4816 0.78517-4.5344-2.2612-1.1063-3.0319-1.458-3.3681-1.5881zm5.7397 9.6857c0.37435 0.65836 0.65856 1.8627-0.32194 2.1342-1.9335 0.16804-3.8717-0.22064-5.7325-0.72605-0.70771-0.16112-1.8148-0.46286-1.6826-1.3937 0.31656-1.5276 1.8631-2.3643 3.446-2.5141 1.9043 0.1253 3.3588 0.98102 4.291 2.4996z" fill="#f2f2f2"/><g stroke="#000" stroke-linecap="round" stroke-linejoin="round"><path d="m240.95 197.69 2.2374 1.8645-6.0908-0.17402z" fill="#9842c0" stroke-width=".4"/><path d="m240.92 197.72-0.74581 1.7651" fill="#9842c0" stroke-width=".3"/><g transform="matrix(1.2816,0,0,1.2909,-63.34,-59.505)"><path d="m224.87 206.48 0.14063 3.1642 5.3792 0.10547-0.0703-3.551z" fill="#d8b6e7" stroke-width=".31098"/><path d="m230.6 202.51-3.551-0.17578-2.4259 4.3244 5.6605 0.0351z" fill="#9842c0" stroke-width=".31098"/><g stroke-width=".46647"><path d="m229.31 205.35-1e-5 5.3699 15.712 0.49721 0.0994-5.2704z" fill="#d8b6e7"/><path d="m244.73 205.94 0.19888 5.3699 1.4916-3.7788-0.29833-4.6738z" fill="#d8b6e7"/><path d="m231.34 200.48 12.082 0.32143 1.6181 5.833-16.188-0.5434z" fill="#9842c0"/><path d="m245.07 206.7-1.6405-5.8987 2.9875 2.0606z" fill="#9842c0"/></g><path transform="translate(.19888 -.24861)" d="m239.81 205.5 0.10547-1.8634 0.94927-0.91411 0.73832 0.91411-0.0206 1.9112z" fill="#d8b6e7" stroke-width=".23323"/><path transform="translate(.19888 -.24861)" d="m239.3 203.87 0.29741 0.30594 1.187-1.2098 1.0384 1.2742 0.25409-0.23154-1.3154-1.5868z" fill="#9842c0" stroke-width=".23323"/><path transform="translate(.19888 -.24861)" d="m240.34 203.88-0.035 1.1419 0.83349 0.0122 0.0269-1.1375z" fill="#f2f2f2" stroke-width=".1"/><path transform="matrix(.87839 0 0 .84668 16.101 32.096)" d="m239.81 205.5 0.10547-1.8634 0.94927-0.91411 0.73832 0.91411-0.0206 1.9112z" fill="#d8b6e7" stroke-width=".27045"/><path transform="matrix(.87839 0 0 .84668 16.101 32.096)" d="m239.3 203.87 0.29741 0.30594 1.187-1.2098 1.0384 1.2742 0.25409-0.23154-1.3154-1.5868z" fill="#9842c0" stroke-width=".27045"/><path transform="matrix(.87839 0 0 .84668 16.101 32.096)" d="m240.34 203.88-0.035 1.1419 0.83349 0.0122 0.0269-1.1375z" fill="#f2f2f2" stroke-width=".1"/><path transform="translate(.64637 -.099442)" d="m231.45 205.01 0.10547-1.8634 0.94927-0.91411 0.73832 0.91411-0.0206 1.9112z" fill="#d8b6e7" stroke-width=".23323"/><path transform="translate(.64637 -.099442)" d="m230.93 203.38 0.29741 0.30594 1.187-1.2098 1.0384 1.2742 0.25409-0.23154-1.3154-1.5868z" fill="#9842c0" stroke-width=".23323"/><path transform="translate(.64637 -.099442)" d="m231.97 203.39-0.035 1.1419 0.83349 0.0122 0.0269-1.1375z" fill="#f2f2f2" stroke-width=".1"/><path d="m235.95 210.87 0.0995-2.5996 1.478-4e-5 -3e-3 2.6638z" fill="#6d2e8a" stroke-width=".15549"/><g fill="#d8b6e7"><path d="m234.83 207.31-4e-3 0.45404 3.704 0.0712-0.0652-0.42278z" stroke-width=".11662"/><g stroke-width=".15549"><path d="m234.87 207.8-0.0403 3.3219 0.54109 8e-3 0.0266-3.3474z"/><path d="m237.99 207.86v3.3519l0.47339-9e-3 1e-3 -3.3439z"/><path d="m238.76 207.64-2e-3 3.3134-0.2834 0.24432 1e-3 -3.3292z"/></g><path d="m238.46 207.87 0.45919-0.37023-0.0352-0.44997-0.43948 0.30933z" stroke-width=".11662"/><path d="m238.88 207.05-0.43433 0.34856-3.6037-0.0879 0.31776-0.32039z" stroke-width=".11662"/></g><g fill="#f2f2f2"><g transform="matrix(2.1063,0,0,1.8444,-258.35,-177.64)" stroke-width=".11833"><path d="m232.2 210.17h1.3425l-0.0249-1.79-1.33-0.0249z"/><path d="m232.84 210.12-0.0249-1.7154"/><path d="m232.21 209.31 1.3052 0.0124"/></g><g transform="matrix(1.9367,0,0,1.9033,-209.47,-189.77)" stroke-width=".12148"><path d="m232.2 210.17h1.3425l-0.0249-1.79-1.33-0.0249z"/><path d="m232.84 210.12-0.0249-1.7154"/><path d="m232.21 209.31 1.3052 0.0124"/></g><g transform="translate(-5.7175,-1.1038)" stroke-width=".15549"><path d="m232.2 210.17h1.3425l-0.0249-1.79-1.33-0.0249z"/><path d="m232.84 210.12-0.0249-1.7154"/><path d="m232.21 209.31 1.3052 0.0124"/></g></g><path d="m235.4 206.99 0.0175-2.4746 1.547-1.1602 1.5118 1.1251 0.0174 2.5665z" fill="#d8b6e7" stroke-width=".23323"/><path d="m235.95 204.73-0.10546 2.004 2.0216 0.044 0.0703-2.048z" fill="#f2f2f2" stroke-width=".15549"/><path d="m236.93 204.76-0.0528 1.9864" fill="#d8b6e7" stroke-width=".1"/><path d="m235.96 205.62 1.881 0.0352" fill="#d8b6e7" stroke-width=".1"/><path d="m235.03 204.68 1.9018-1.417 1.9516 1.3176-0.27347 0.29832-1.6905-1.1933-1.6408 1.2182z" fill="#9842c0" stroke-width=".23323"/><g fill="#fff" stroke-width=".1"><path d="m245.37 209.16-0.0879-2.4699 0.59329-1.4195 0.0571 2.4742z"/><path d="m245.6 206.01 0.0835 2.3336"/><path d="m245.32 207.78 0.57132-0.93169"/></g></g><g fill="#255262"><g stroke-width=".2"><path d="m235.37 214.58s-0.25016 0.62915 0.44963 0.6987c0.6295 0.0626 1.0229-0.30242 1.0229-0.30242s0.67252 0.36258 1.0791 0.0833c0.56206-0.38585 0.32599-0.83427 0.32599-0.83427s0.67447 0.25029 0.67447-0.4797c0-0.73-0.31475-0.59441-0.31475-0.59441s0.22483-0.47971-0.17986-0.91771c-0.40468-0.43799-1.0566-0.19813-1.0566-0.19813s-0.15738-0.79256-0.85433-0.64657c-0.69695 0.146-0.80935 0.52143-0.80935 0.52143s-0.55081-0.41713-1.0229 0.0314c-0.47778 0.45379-0.17986 0.75083-0.17986 0.75083s-0.50584-0.30241-0.75314 0.36501c-0.24731 0.66741 0.42715 0.77169 0.42715 0.77169s-0.17839 0.52878 0.10108 0.69871c0.32599 0.19813 1.0904 0.0521 1.0904 0.0521z"/><path d="m243.17 214.76s-0.25016 0.62915 0.44963 0.6987c0.6295 0.0626 1.0229-0.30242 1.0229-0.30242s0.67252 0.36258 1.0791 0.0833c0.56206-0.38585 0.32599-0.83427 0.32599-0.83427s0.67447 0.25029 0.67447-0.4797c0-0.73-0.31475-0.59441-0.31475-0.59441s0.22483-0.47971-0.17986-0.91771c-0.40468-0.43799-1.0566-0.19813-1.0566-0.19813s-0.15738-0.79256-0.85433-0.64657c-0.69695 0.146-0.80935 0.52143-0.80935 0.52143s-0.55081-0.41713-1.0229 0.0314c-0.47778 0.45379-0.17986 0.75083-0.17986 0.75083s-0.50584-0.30241-0.75314 0.36501c-0.24731 0.66741 0.42715 0.77169 0.42715 0.77169s-0.17839 0.52878 0.10108 0.69871c0.32599 0.19813 1.0904 0.0521 1.0904 0.0521z"/><path d="m231.83 220.36s-0.20776 0.55673 0.37344 0.61828c0.52282 0.0554 0.84959-0.26761 0.84959-0.26761s0.55855 0.32084 0.89625 0.0738c0.46681-0.34144 0.27075-0.73824 0.27075-0.73824s0.56018 0.22147 0.56018-0.4245c0-0.64596-0.26143-0.526-0.26143-0.526s0.18673-0.4245-0.14936-0.81207c-0.3361-0.38758-0.8776-0.17534-0.8776-0.17534s-0.1307-0.70133-0.70955-0.57214c-0.57883 0.12923-0.67219 0.46141-0.67219 0.46141s-0.45746-0.36912-0.84958 0.0277c-0.39682 0.40156-0.14938 0.66441-0.14938 0.66441s-0.42011-0.26761-0.62551 0.32299 0.35477 0.68288 0.35477 0.68288-0.14816 0.46792 0.084 0.61828c0.27073 0.17534 0.90559 0.0461 0.90559 0.0461z"/><path d="m236.16 218.2s-0.1233 0.52247 0.50308 0.58781c0.56345 0.0588 0.82505-0.2547 0.82505-0.2547s0.56346 0.78373 1.0464 0.15674 0.24148-0.76415 0.24148-0.76415 0.98604 0.098 0.98604-0.5878c0-0.68578-0.42259-0.66618-0.42259-0.66618s0.54333-0.23512 0.18112-0.64658c-0.36223-0.41147-1.147-0.29391-1.147-0.29391s-0.14087-0.74455-0.76469-0.60739c-0.62383 0.13715-0.72444 0.48983-0.72444 0.48983s-0.62382-0.72495-0.90555-0.19593c-0.28173 0.52903-0.0604 0.76415-0.0604 0.76415s-0.62381-0.25472-0.84517 0.37227 0.44271 0.86212 0.44271 0.86212-0.40834 0.23722-0.30184 0.50942c0.16097 0.41146 0.94579 0.2743 0.94579 0.2743z"/><path d="m243.33 218.12s-0.24068 0.65123 0.4326 0.72322c0.60565 0.0648 0.98418-0.31303 0.98418-0.31303s0.64704 0.3753 1.0383 0.0863c0.54076-0.39939 0.31363-0.86355 0.31363-0.86355s0.64892 0.25907 0.64892-0.49654-0.30283-0.61528-0.30283-0.61528 0.21631-0.49654-0.17303-0.94991c-0.38935-0.45336-1.0166-0.20509-1.0166-0.20509s-0.15141-0.82037-0.82196-0.66925c-0.67054 0.15112-0.77869 0.53972-0.77869 0.53972s-0.52994-0.43177-0.98418 0.0324c-0.45968 0.46971-0.17305 0.77719-0.17305 0.77719s-0.48667-0.31303-0.72461 0.37781c-0.23793 0.69084 0.41098 0.79878 0.41098 0.79878s-0.17163 0.54734 0.0973 0.72323c0.31363 0.20509 1.0491 0.054 1.0491 0.054z"/><path d="m233.89 222.27s-0.13608 0.58947 0.55523 0.66319c0.62187 0.0663 0.91059-0.28738 0.91059-0.28738s0.62187 0.88426 1.1549 0.17685c0.53303-0.7074 0.26651-0.86215 0.26651-0.86215s1.0883 0.11053 1.0883-0.66319c0-0.77373-0.4664-0.75162-0.4664-0.75162s0.59966-0.26528 0.19989-0.72951c-0.39978-0.46424-1.266-0.3316-1.266-0.3316s-0.15546-0.84004-0.84396-0.6853c-0.68849 0.15474-0.79954 0.55266-0.79954 0.55266s-0.6885-0.81794-0.99943-0.22106c-0.31093 0.59687-0.0666 0.86215-0.0666 0.86215s-0.68849-0.28739-0.9328 0.42002c-0.2443 0.7074 0.48861 0.97268 0.48861 0.97268s-0.45067 0.26766-0.33314 0.57477c0.17767 0.46423 1.0438 0.30949 1.0438 0.30949z"/><path d="m242.02 222.34s-0.19823 0.58866 0.3563 0.65373c0.49883 0.0586 0.8106-0.28295 0.8106-0.28295s0.53292 0.33924 0.85514 0.078c0.44539-0.36102 0.25832-0.78058 0.25832-0.78058s0.53447 0.23418 0.53447-0.44883-0.24942-0.55616-0.24942-0.55616 0.17816-0.44883-0.14252-0.85864c-0.32068-0.4098-0.83732-0.18538-0.83732-0.18538s-0.12471-0.74155-0.67699-0.60495-0.64135 0.48786-0.64135 0.48786-0.43648-0.39028-0.8106 0.0293c-0.37861 0.42458-0.14253 0.70251-0.14253 0.70251s-0.40084-0.28295-0.59681 0.34151 0.33849 0.72203 0.33849 0.72203-0.14136 0.49475 0.0801 0.65374c0.25832 0.18538 0.86405 0.0488 0.86405 0.0488z"/></g><path d="m250.29 218.18s-0.26301 0.71562 0.47272 0.79472c0.66182 0.0712 1.0755-0.34397 1.0755-0.34397s0.70706 0.4124 1.1346 0.0948c0.59092-0.43888 0.34273-0.94893 0.34273-0.94893s0.70911 0.28469 0.70911-0.54563c0-0.83031-0.33092-0.6761-0.33092-0.6761s0.23637-0.54563-0.18909-1.0438c-0.42546-0.49818-1.1109-0.22536-1.1109-0.22536s-0.16545-0.90148-0.89819-0.73542-0.85092 0.59308-0.85092 0.59308-0.5791-0.47446-1.0755 0.0356c-0.50232 0.51615-0.1891 0.85402-0.1891 0.85402s-0.53182-0.34398-0.79182 0.41516c-0.26001 0.75914 0.44909 0.87775 0.44909 0.87775s-0.18755 0.60146 0.10627 0.79474c0.34273 0.22536 1.1464 0.0593 1.1464 0.0593z" stroke-width=".254"/><path d="m226.12 222.08s-0.22368 0.69667 0.40206 0.77368c0.56289 0.0693 0.9147-0.33487 0.9147-0.33487s0.60135 0.40149 0.96495 0.0923c0.50259-0.42727 0.29149-0.92381 0.29149-0.92381s0.60311 0.27715 0.60311-0.53118c0-0.80834-0.28145-0.65821-0.28145-0.65821s0.20104-0.53118-0.16082-1.0162c-0.36186-0.48499-0.94485-0.21939-0.94485-0.21939s-0.14073-0.87762-0.76393-0.71595c-0.6232 0.16166-0.72371 0.57737-0.72371 0.57737s-0.49253-0.46189-0.91469 0.0347c-0.42723 0.50248-0.16084 0.83141-0.16084 0.83141s-0.45231-0.33487-0.67345 0.40417c-0.22113 0.73904 0.38196 0.85451 0.38196 0.85451s-0.15951 0.58553 0.0904 0.7737c0.29149 0.21939 0.97501 0.0577 0.97501 0.0577z" stroke-width=".23112"/></g></g></g></g></g></svg>
