<svg width="34.553mm" height="21.581mm" version="1.1" viewBox="0 0 34.553 21.581" xmlns="http://www.w3.org/2000/svg">
 <g transform="translate(-107.69 -139.17)">
  <g transform="translate(-204.3 36.143)">
   <path d="m346.54 115.44-6.8697-0.73082v3.5079l6.7235 1.1693z" fill="#f2f2f2"/>
   <g transform="translate(172.89 72.322)">
    <g fill="#8a3aaf" stroke="#1a1a1a" stroke-width=".6">
     <path d="m166.4 51.986-7.8548-7.4414 0.82682-13.539 7.7515 6.3045z" stroke-linejoin="round"/>
     <path d="m166.19 51.573-7.6481-6.9246-19.12 0.10335 2.9972 6.2012z" stroke-linejoin="round"/>
     <path d="m139.41 44.885 0.94271-13.776h18.914l-0.72346 13.539z"/>
    </g>
    <g>
     <path transform="translate(5.7004 .43849)" d="m161 45.512 0.16443-3.3617-4.5859-3.179-0.47503 3.2887z" fill="#d8b6e7"/>
     <path d="m166.32 51.705 0.32886-5.9013-4.8782-3.4166-0.52985 4.5676z" fill="#fff"/>
     <path d="m167.01 37.363-4.5128-3.6906-0.52984 5.5725 4.8599 3.3252z" fill="#fff"/>
    </g>
    <g fill="none" stroke="#1a1a1a">
     <path d="m162.42 33.512-1.2402 13.539 5.1311 4.4706 0.60498-14.315z" stroke-width=".4"/>
     <g stroke-width=".3">
      <path d="m161.9 39.171 4.8318 3.4365"/>
      <path d="m161.72 42.401 4.6767 3.3848"/>
      <path d="m164.02 44.002-0.33591 5.3485"/>
      <path d="m164.43 40.824 0.51676-5.271"/>
      <path d="m162.26 36.69 4.625 3.4882"/>
      <path d="m161.49 44.829 4.9609 3.6174"/>
     </g>
    </g>
    <path d="m159.68 31.212-0.72347 13.333s0.86331 0.41511 1.3002 0.61134c0.55625 0.24986 1.1144 0.49627 1.6815 0.72051 0.25817 0.10209 0.55873 0.78465 0.78284 0.28427 0.13218-0.48065-0.35515-1.4547-0.35515-1.4547s0.70742 0.05433 0.69642-0.32177c-0.01-0.35028-0.45748-1.0967-0.45748-1.0967s0.58487-0.0068 0.61307-0.42535c0.0213-0.31566-0.57606-1.0094-0.57606-1.0094s0.63531-0.04757 0.63568-0.33072c4.1e-4 -0.29731-0.44706-0.91907-0.44706-0.91907s0.64642-0.20468 0.64242-0.51265c-4e-3 -0.28312-0.51801-0.88334-0.51801-0.88334s0.62499-0.08856 0.61799-0.48452c-6e-3 -0.33817-0.46516-0.92818-0.46516-0.92818s0.60156-0.13132 0.61876-0.58904c0.0101-0.26697-0.4899-0.86492-0.4899-0.86492s0.63194-0.24053 0.64434-0.61658c0.0103-0.31032-0.46742-0.8942-0.46742-0.8942s0.64315-0.12942 0.62605-0.52897c-0.0154-0.36431-0.59782-0.89425-0.59782-0.89425s0.71363-0.07186 0.66513-0.46624c-0.0337-0.27365-0.63455-0.87692-0.66611-0.90847-0.73324-0.33362-1.3598-0.54642-2.1066-0.81965z" fill="#2f687d" stroke="#000" stroke-linecap="round" stroke-width=".2"/>
    <g fill="#fff">
     <path transform="matrix(.0791 -.83971 1.1512 .42162 -1.25e-6 3.3333e-7)" d="m18.677 138.85c-0.30781-0.12228-0.12714 0.47344-0.52712 0.27819-0.4923 0.0899-0.1297-0.65346-0.2192-0.97898 0.10902-0.40448-0.09583-0.76462-0.51992-0.57409-0.37574-0.0707-0.79707-0.0187-1.1837 0.0291-0.0988 0.14182 0.05941 0.22302 0.2147 0.17602 0.02536 0.52111-0.01766 1.0651-0.03162 1.5933 0.35099 0.0892 0.34503-0.20597 0.31651-0.4828-0.18324-0.55683 0.45177-0.11407 0.5882-0.43907-0.02934-0.3175-0.76174 0.16767-0.5626-0.35991-0.12392-0.37966 0.16676-0.35587 0.43967-0.31786 0.0079 0.14127 0.0659 0.43997 0.22459 0.24418-0.14702-0.28512 0.33833-0.37095 0.21334-0.0604-0.0022 0.47259-0.0094 0.94656-0.06432 1.4164 0.33246-0.0832 0.69433 0.07 1.0037-0.0449 0.11595-0.12632 0.10255-0.31927 0.10771-0.47922z"/>
     <path transform="matrix(.0791 -.83971 1.1512 .42162 -1.25e-6 3.3333e-7)" d="m20.082 137.85c-0.26602-0.52683-1.1206-0.42762-1.2997 0.12044-0.20235 0.46247-0.16954 1.1976 0.38673 1.3854 0.37698 0.13326 0.82584-0.0992 0.94435-0.48996 0.11376-0.32258 0.12975-0.70688-0.03134-1.0159zm-0.28652 0.12922c0.12615 0.37609 0.16087 0.9463-0.22166 1.1799-0.59207 0.13506-0.65484-0.70659-0.52718-1.0977 0.07177-0.40763 0.60061-0.48506 0.74883-0.0822z"/>
     <path transform="matrix(.0791 -.83971 1.1512 .42162 -1.25e-6 3.3333e-7)" d="m23.56 137.61c-0.3396-0.16088-0.8152-0.0351-1.1999-9e-3 -0.19994-0.23068-0.4616-0.0492-0.23925 0.15431 1.75e-4 0.40232-0.20025 0.77624-0.35168 1.1402-0.0837-0.43448-0.17689-0.86725-0.28305-1.2968-0.33557-0.014-0.2453 0.55278-0.40394 0.77288-0.07814 0.19316-0.18981 0.75742-0.22074 0.24025-0.16206-0.32171-0.02574-1.1438-0.55685-1.0625-0.31851-0.0573-0.294 0.33655-4e-3 0.21253 0.21203 0.35548 0.2282 0.81709 0.33516 1.2211-0.0094 0.2157 0.09155 0.53316 0.32122 0.34702 0.13494-0.30021 0.28872-0.89084 0.38962-1.0225 0.0772 0.35388 0.15356 0.70577 0.20851 1.0621 0.30421 0.10454 0.32667-0.26753 0.43948-0.45873 0.16003-0.36833 0.33393-0.74805 0.41556-1.1351 0.30817-0.11437 0.13069 0.2953 0.17085 0.45001-0.0065 0.38091-0.01109 0.76335-0.063 1.1414 0.34267-0.10943 0.77436 0.13406 1.0564-0.0934 0.26439-0.23842-0.09537-0.67647-0.13459-0.24848-0.13194 0.17664-0.78659 0.21138-0.58216-0.17178-0.24649-0.55294 0.77798-0.0787 0.52431-0.54157-0.34729 0.0985-0.63664 0.0272-0.49275-0.38944-0.08815-0.31493 0.67281-0.22198 0.46107 0.13249 0.2983 0.11438 0.19076-0.26395 0.2098-0.44473z"/>
     <path transform="matrix(.0791 -.83971 1.1512 .42162 -1.25e-6 3.3333e-7)" d="m24.832 137.75c-0.29069-0.38272-0.83417-0.18874-1.2344-0.14297-0.07879 0.33088 0.42365-5e-3 0.25798 0.40073 0.04879 0.42529-0.11791 1.0269 0.01233 1.3635 0.41326 0.0821 0.21353-0.41416 0.26841-0.66384-0.0059-0.36225 0.25201 0.34729 0.40878 0.46051 0.07915 0.29457 0.8002 0.28015 0.62097-0.0491-0.28492 0.12579-0.4707-0.25141-0.60943-0.45461-0.26483-0.27138 0.49611-0.35358 0.31924-0.76562 0.0243-0.049-0.07556-0.10736-0.04387-0.14854zm-0.31022 0.0783c0.29003 0.46052-0.6076 0.7902-0.36347 0.1574-0.08982-0.34867 0.16893-0.32937 0.36347-0.1574z"/>
     <path transform="matrix(.0791 -.83971 1.1512 .42162 -1.25e-6 3.3333e-7)" d="m26.65 137.65c-0.31369-0.34129-1.0034-0.0666-0.97208 0.41576-0.02967 0.47722 0.6468 0.45193 0.72879 0.84977-0.0079 0.41048-0.72664 0.30355-0.5586-0.10748-0.30739-0.12639-0.23223 0.34596-0.15807 0.50018 0.40226 0.24045 1.0844-0.0324 0.99558-0.5639-0.02021-0.46845-0.96892-0.43762-0.65768-0.95956 0.3907-0.32348 0.32619 0.30194 0.56239 0.28097 0.13766 0.0156 0.04054-0.32054 0.05967-0.41574z"/>
     <path transform="matrix(.0791 -.83971 1.1512 .42162 -1.25e-6 3.3333e-7)" d="m28.228 137.58c-0.41364-0.20742-0.32909 0.41073-0.3443 0.6523-0.13113 0.1256-0.88194 0.21968-0.66762-0.23376 0.20131-0.40792-0.43414-0.6272-0.54898-0.30403-0.0014 0.19662 0.4297-0.0709 0.24625 0.31983 0.0198 0.44337-0.06297 0.96106-0.01413 1.3609 0.18608 0.0212 0.34436-0.0228 0.28398-0.24083 0.0058-0.20228 0.01156-0.40456 0.01734-0.60684 0.34906-0.0206 0.82369-0.14381 0.67229 0.35466-0.10518 0.39398 0.24657 0.66696 0.59471 0.40137 0.1036-0.30768-0.42165 0.0193-0.2982-0.36877-0.0039-0.44567 0.01418-0.89132 0.05866-1.3348z"/>
     <path transform="matrix(.0791 -.83971 1.1512 .42162 -1.25e-6 3.3333e-7)" d="m29.819 137.85c-0.26651-0.52774-1.1189-0.42629-1.3 0.12051-0.19867 0.462-0.16884 1.1984 0.38566 1.3861 0.39838 0.14462 0.86603-0.1286 0.9649-0.54747 0.0922-0.30936 0.10225-0.66751-0.0506-0.95911zm-0.2857 0.12962c0.13743 0.38746 0.16841 1.1238-0.35766 1.2036-0.56398-0.11386-0.52116-0.93779-0.28899-1.3316 0.18124-0.24459 0.55601-0.14892 0.64664 0.12801z"/>
     <path transform="matrix(.0791 -.83971 1.1512 .42162 -1.25e-6 3.3333e-7)" d="m31.187 137.77c-0.28936-0.39567-0.84593-0.20158-1.252-0.15503-0.09025 0.31114 0.34246 0.023 0.25794 0.31396 0.02289 0.4709-0.06435 1.0216-0.01431 1.4489 0.39224 0.0952 0.27624-0.31872 0.29282-0.57948-0.06313-0.35646 0.65854-0.0852 0.71177-0.54361 0.06012-0.15167 0.07514-0.33406 0.0038-0.48478zm-0.29323 0.11218c0.26733 0.40905-0.60454 0.85528-0.40177 0.23665-0.06708-0.3903 0.11206-0.56141 0.40177-0.23665z"/>
     <path d="m144.35 49.479 3.9791 0.05168-0.93018-2.2221-4.0824-0.2067z"/>
     <path d="m154.48 47.154 3.359-0.56844 2.1704 3.0489-4.4958 0.05168z"/>
    </g>
    <path d="m158.13 44.958-18.876 0.06054c0.0385 0.81948 0.0738 1.0928 0.1417 1.8151 0.13071 0.35444 0.59095 1.1279 1.0601 1.1046 0.93602-0.04653 0.94238-0.80383 1.132-1.0359 0.12223 0.22357 0.42643 1.1464 1.1874 1.1342 0.70514-0.01129 0.96944-1.0738 0.96944-1.0738s0.41453 1.049 1.255 1.0692c0.62936 0.01513 0.8418-1.0645 0.8418-1.0645s0.3643 1.0033 0.90692 0.97384c0.57507-0.03126 0.82735-1.0961 0.82735-1.0961s0.39668 1.0509 1.0296 1.0242c0.50392-0.02123 0.84465-1.0583 0.84465-1.0583s0.50313 0.99641 0.99348 0.91519c0.41881-0.06936 0.77618-0.94258 0.77618-0.94258s0.57272 0.98952 1.1441 0.92914c0.33327-0.03521 0.76505-1.002 0.76505-1.002s0.31064 1.093 0.92425 1.0885c0.63394-0.0047 0.80244-1.0793 0.80244-1.0793s0.4307 1.0734 1.0097 1.0633c0.64688-0.01128 0.77658-1.081 0.77658-1.081s0.54886 0.95988 1.0483 0.9429c0.52131-0.01773 0.63828-0.83842 0.64933-1.3244-0.0849-0.48597-0.0931-0.86237-0.21002-1.3628z" fill="#2f687d" stroke="#000" stroke-width=".2"/>
   </g>
  </g>
 </g>
</svg>
