<?xml version="1.0" encoding="UTF-8"?>
<svg width="32.207mm" height="22.411mm" version="1.1" viewBox="0 0 32.207 22.411" xmlns="http://www.w3.org/2000/svg">
 <g transform="translate(-311.38 -121.99)">
  <g transform="translate(-75.009 -14.155)">
   <path transform="translate(74.612 11.642)" d="m330.86 146.81-0.12695-5.1023h-4.0926l-0.0731 5.2085z" fill="#f2f2f2"/>
   <g transform="translate(74.612 11.642)">
    <path d="m343.13 141.28-5.3743-9.7152 1.4178-6.2732 4.511 8.6723z" fill="#d8b6e7" stroke="#000" stroke-linejoin="round" stroke-width=".6"/>
    <path d="m342.92 141.18-26.252 0.72347-3.6173-10.232 24.805-0.10335z" fill="#d8b6e7" stroke="#000" stroke-width=".6"/>
    <path d="m312.06 131.57 2.3176-6.7659 24.855 0.12108-0.94531 6.2554z" fill="#d8b6e7" stroke="#000" stroke-linejoin="bevel" stroke-width=".6"/>
    <path d="m326.56 141.83-1.1335-5.8511 4.2086 0.2229 1.4072 5.461z" fill="#9842c0" stroke="#000" stroke-width=".41475"/>
    <path d="m339.02 132.42 0.79029-4.405 2.9492 5.6814-0.24951 5.3168z" fill="#fff"/>
    <path d="m332.38 140.29-2.041-6.6632 7.3798-0.20571 3.0306 6.5191z" fill="#fff"/>
    <path d="m317.4 140.56 7.8476-0.0762-1.6631-7.0599-8.5564-0.11848z" fill="#fff"/>
    <path d="m324.91 135.1 5.0426 0.16444s-0.42215-1.3969-2.7406-1.4799c-2.2688-0.0812-2.3021 1.3155-2.3021 1.3155z" fill="#fff" stroke="#000" stroke-width=".2"/>
    <path d="m315.86 134.08c-0.25933 0.17312 0.23152 0.2123 0.16195 0.43026 0.0833 0.45814 0.18047 0.91476 0.25596 1.3736 0.045 0.26969-0.25967-0.13972-0.22413 0.17515-0.0452 0.2822 0.35732 0.28922 0.40465 0.0376 0.12886-0.33578-0.0192-0.68418-0.065-1.0216-0.0423-0.23879-0.0964-0.47615-0.13107-0.71589 0.22953-0.27783-0.16946-0.29345-0.37319-0.27638l-0.028-3e-3zm0.5806 2e-3c-0.22124 0.095 0.0501 0.21263 0.10634 0.29231 0.0903 0.4041 0.16131 0.81312 0.23581 1.2205-0.15261 0.0948-0.0564 0.35106 0.15665 0.24816 0.22309-0.0572 0.53083 0.13828 0.68313-0.0978 0.17228-0.13842-0.0418-0.57492-0.15003-0.25488-0.12578 0.10728-0.48369 0.19688-0.45349-0.0614-0.0161-0.11137-0.0559-0.24197-0.0577-0.34181 0.0994 0.0182 0.27163-0.0533 0.30204 0.082 0.11236 0.25389 0.23124-0.035 0.12859-0.17599 0.029-0.12041-0.11857-0.50728-0.20653-0.24938 0.0356 0.10953-0.3005 0.12379-0.29368 0.0129-0.0285-0.13431-0.0466-0.27892-0.0822-0.4065 0.20774-0.0171 0.40163-0.0107 0.45627 0.21036 0.23164 0.0738-0.0145-0.44771 0.12596-0.25934 0.18801 0.0453 0.22494 0.26818 0.31638 0.41543 0.20044 0.38369 0.38592 0.77599 0.59631 1.154 0.1542 0.17475 0.17526-0.12537 0.18566-0.23461l0.0423-0.31368c0.0997 0.18336 0.18315 0.37671 0.29486 0.55275 0.16219 0.12556 0.16796-0.14211 0.18363-0.24672 0.0669-0.43834 0.11935-0.87927 0.19527-1.3159 0.17964-0.0841 0.18324 0.18742 0.21214 0.31463 0.0569 0.33163 0.13791 0.66053 0.17826 0.99407-0.2457 0.16335 0.11298 0.30997 0.28735 0.2189 0.23022 0.0216 0.58348 0.0953 0.60673-0.24312 0.0614-0.22281-0.1782-0.30568-0.23455-0.0769-0.14936 0.0876-0.45672 0.14869-0.42592-0.10581-0.0205-0.10865-0.0414-0.21722-0.0617-0.32592 0.098 0.0191 0.2594-0.0504 0.30404 0.0667 0.0727 0.24496 0.25955 0.0356 0.14165-0.12761 0.0198-0.12124-0.10861-0.54721-0.21239-0.28248 0.034 0.10961-0.30158 0.12322-0.2953 0.0129-0.0258-0.13559-0.0514-0.27119-0.0772-0.40677 0.20585-0.018 0.39856-9e-3 0.451 0.21033 0.19966 0.012 0.064-0.34269 0.0281-0.4464-0.18907-0.0563-0.40673 0.0198-0.60726-0.0105-0.2273-0.0269-0.42674-4e-3 -0.65547-9e-3 -0.15615 0.17741 0.23068 0.22701 0.0839 0.43977-0.024 0.26853-0.0582 0.53623-0.10053 0.80262-0.0753-0.16048-0.1771-0.31642-0.23636-0.47965 0.0315-0.18109 0.0353-0.37512 0.091-0.54555 0.21805-0.25322-0.29206-0.24207-0.375-0.1956-0.12313-0.0374-0.26426 2e-3 -0.39574-0.0193-0.0884 0.11776-0.12708-0.0362-0.28806 7e-3 -0.12378-0.0269-0.32361 0.0219-0.30857 0.0495-0.15089-0.13445-0.40226 4e-3 -0.59265-0.0442-0.092-3e-3 -0.20468-0.0106-0.28308-0.0277zm5.2561 2e-3c-0.17204 3e-3 -0.67929-0.0337-0.37686 0.2253 0.13941 9e-3 0.10779 0.19579 0.14364 0.29523 0.0567 0.33644 0.14349 0.6691 0.17433 1.0089-0.22191 0.12894 0.0259 0.31302 0.21024 0.2354 0.18083 0.0782 0.4375-0.0791 0.18153-0.2062-0.17836-0.0129-0.12592-0.23444-0.17234-0.35676-0.0182-0.0859-0.0681-0.22132 0.0655-0.16853 0.16738 0.22737 0.30378 0.48348 0.50884 0.67934 0.15156 0.21655 0.55721-0.0707 0.23622-0.1599-0.1991-0.13067-0.30261-0.36278-0.44924-0.5465-0.21495-0.17209 0.17856-0.34888 0.0318-0.57896-0.0552-0.26012-0.29295-0.43908-0.55364-0.42731zm0.60241 0c-0.22585 0.1663 0.17067 0.212 0.21744 0.37213 0.12829 0.20286 0.28064 0.39332 0.39054 0.60571 0.0331 0.18564 0.089 0.38346 0.0924 0.56269-0.26373 0.12529 0.0481 0.29211 0.22045 0.22189 0.24672 0.12504 0.29507-0.20796 0.0656-0.22669-0.0452-0.1999-0.0857-0.40252-0.11545-0.60496 0.0691-0.2154 0.1339-0.43349 0.21292-0.64547 0.2803-0.19376-0.0699-0.33957-0.27304-0.2702-0.24778-0.0332-0.0484 0.22633 0.0313 0.2627-0.0285 0.13103-0.0734 0.25767-0.1133 0.38549-0.0934-0.14047-0.19181-0.28197-0.28137-0.42219 0.1924-0.33475-0.27318-0.20382-0.44749-0.2411zm-1.9822 7e-3c-0.24521 0.14801 0.17476 0.2068 0.13516 0.38695 0.0641 0.37956 0.16 0.75539 0.20172 1.1376-0.23684 0.15552 0.0754 0.32085 0.24793 0.2228 0.20322-0.0106 0.50192 0.11045 0.61093-0.13527 0.14093-0.18782-0.097-0.48183-0.19343-0.17985-0.15396 0.0811-0.45816 0.1578-0.42602-0.10659-0.0629-0.34585-0.13639-0.69014-0.19249-1.037 0.1621-0.1396 0.0529-0.35969-0.19234-0.27726-0.0641 2e-3 -0.13092-9e-3 -0.19146-0.0114zm-2.4626 0.1538c0.15517 0.0694 0.24488 0.21144 0.3152 0.37302 0.0568 0.1297 0.1542 0.25284 0.18005 0.3878-0.0136 0.0993-0.0272 0.19857-0.0408 0.29785-0.17498-0.32205-0.34012-0.64948-0.49925-0.98276 0.0275-0.0128 0.0534-0.0437 0.0448-0.0759zm-0.64132 0.0114c6e-3 -3e-3 2e-3 0.0145 0 0zm2.817 0c4e-3 -2e-3 3e-3 6e-3 0 0zm-3.961 5e-3c0.11161 0.0126 0.0564 0.22821 0.10525 0.33755 0.0657 0.36618 0.1459 0.73033 0.20295 1.0977-0.0988-0.45885-0.16158-0.92644-0.27711-1.381l-0.0234-0.0478-8e-3 -7e-3zm0.55791 0c0.11295 0.0117 0.055 0.2323 0.10833 0.34362 0.035 0.11738 0.0191 0.26357 0.10327 0.35743-0.0404 0.1551 0.0384 0.31614 0.0541 0.47403 0.0304 0.11494 0.0951 0.3836 0.0188 0.15169-0.0755-0.40734-0.14395-0.817-0.23716-1.2205 8e-3 -0.0422-0.0488-0.0672-0.0473-0.10628zm0.0626 0.10477c-7.9e-4 -0.0503-7e-3 -0.023 0 0zm2.7526-0.10477c0.11383 9e-3 0.0532 0.22705 0.10673 0.33549 0.036 0.11963 0.0191 0.27324 0.10757 0.36553-0.0422 0.16072 0.0386 0.32691 0.0551 0.48992 0.0204 0.0973 0.10539 0.34126 0.0185 0.1688-0.0628-0.39882-0.14567-0.79485-0.22179-1.1914-0.0144-0.0587-0.036-0.11582-0.0661-0.16829zm2.1187 0c-0.0204 0.17687 0.0543 0.35216 0.0748 0.52849 0.0456 0.1373 0.0608 0.2495 0.074 0.39113 0.0463 0.16518 0.0326 0.35719 0.13123 0.50128-0.16375 0.027-0.029-0.26379-0.11155-0.362-0.0667-0.32459-0.11287-0.65418-0.19502-0.9751-0.0168-0.0663-0.0871-0.0936 0.0266-0.0838zm1.0457 0c7e-3 0.16737 0.15517 0.29 0.23342 0.43267 0.071 0.0864 0.10974 0.2071 0.21015 0.26265-0.0115 0.20124 0.0628 0.39971 0.09 0.59949 0.0455 0.286-0.0231-0.0186-0.0358-0.14136-0.0417-0.22463-0.0675-0.46194-0.22343-0.64142-0.11942-0.16847-0.22301-0.35012-0.3526-0.5101 0.01 0.0301 0.0653-0.0247 0.0782-2e-3zm-5.0028 7e-3c0.15613 0.0395 0.16087 0.37728 0.29559 0.51749 0.13753 0.25784 0.25534 0.53318 0.41769 0.77065 0.0948 0.0914-4e-3 0.17796-0.0391 5e-3 -0.21548-0.41511-0.42057-0.83602-0.64224-1.2476l-0.0319-0.0449zm0.51171 0c0.13017-0.0139 0.0959 0.22907 0.19711 0.33334 0.17181 0.31894 0.32152 0.65122 0.50743 0.96146 0.11636 0.0877 0.0121 0.16916-0.0235-2e-3 -0.22891-0.42999-0.43579-0.87259-0.681-1.2932zm2.3942 0c0.11749 0.0203 0.0538 0.26356 0.11068 0.38464 0.07 0.32961 0.10985 0.66771 0.20382 0.99071-0.0509 0.097-0.0468-0.22878-0.0862-0.33895-0.0659-0.3216-0.11272-0.64809-0.19165-0.96635-0.0213-9e-3 -0.0106-0.0637-0.0366-0.0701zm2.7271 5e-3c0.061-0.0268 0.0131 0.063 0 0zm-4.8135 0.0473c0.032 0.22652-0.036 0.21427-0.0959 0.0302-0.0469-0.0809 0.0617-0.0512 0.0959-0.0302zm3.565 0.0112c0.14992 0.0346 0.17971 0.4277 0.0832 0.12133-0.0225-0.0437-0.0508-0.0847-0.0832-0.12133zm-0.28365 2e-3c0.27058-0.0428 0.48721 0.53026 0.13932 0.52603-0.11906 0.0257-0.0728-0.14825-0.10916-0.22243-0.0199-0.0968-0.0387-0.22254-0.0606-0.30136 7e-3 6e-3 0.0289 8e-3 0.0304-2e-3zm-4.448 0.61297c0.0196 0.0222-0.0349 9e-3 0 0zm2.8157 2e-3c0.0166 0.0195-0.0335 4e-3 0 0zm1.9094 0.0423c0.0173 0.0389-0.0487-1e-3 0 0zm0.0747 0.0871c0.14021 0.18122 0.24921 0.39044 0.4139 0.54984 0.14961 0.14994-0.16522-0.12537-0.20662-0.23931-0.0655-0.10187-0.15899-0.21446-0.20728-0.31053zm-4.5303 0.49486c9e-3 0.17458-0.37516 0.13185-0.0936 0.0742 0.0307 0.0483 0.0729-0.10912 0.0936-0.0742zm2.8169 0c6e-3 0.1746-0.37028 0.1326-0.0942 0.0742 0.0108 0.055 0.0932-0.11514 0.0942-0.0742zm-4.1565 0.54388c0.0206 5e-3 -3e-3 0.012 0 0z" fill="#6d2e8a" stroke="#6d2e8a" stroke-width=".05"/>
    <path d="m331.73 133.96c-0.0378 0.0105 0.0429-5e-3 0 0zm0.0125 0c-0.31907-0.0271-0.50277 0.33551-0.39481 0.60781 0.078 0.31186 0.40795 0.41726 0.67008 0.52668 0.29921 0.093 0.11674 0.5627-0.16733 0.4146-0.22529-0.019-0.21647-0.41865-0.42398-0.35219-0.0345 0.17899 0.0559 0.38783 0.16368 0.52922 0.25078 0.16864 0.68484 0.13135 0.78455-0.19626 0.10869-0.32483-0.09-0.69929-0.41193-0.80926-0.18181-0.0521-0.50324-0.17545-0.37589-0.4205 0.16659-0.14226 0.4263 0.0286 0.4833 0.21005 0.14925 0.21457 0.21311-0.0774 0.12971-0.20143-4e-3 -0.17447-0.0989-0.27438-0.24564-0.26385-0.0647-0.0324-0.14315-0.0451-0.21174-0.0449zm2.3311 0.0322c-0.32718 0.0243-0.51552 0.36009-0.51698 0.66061-0.03 0.48652 0.26673 1.0462 0.78332 1.1232 0.31 0.0652 0.64145-0.12654 0.72527-0.43496 0.14394-0.48394-0.0546-1.1185-0.55403-1.3082-0.13997-0.0506-0.29109-0.0592-0.43758-0.0407zm2.3274-0.0193c-0.18521 0.0196-0.0676 0.26866 0.0768 0.2422 0.0759 0.24548 0.0847 0.50722 0.12857 0.76033 0.0212 0.18471 0.0628 0.36838 0.0672 0.5541-0.10813 0.10939-0.26502-0.0192-0.35116-0.12705-0.13037-0.17815-0.25448-0.36081-0.38215-0.54091 0.16591-0.13286 0.22604-0.3675 0.13084-0.56011-0.0976-0.27987-0.42211-0.352-0.68502-0.31948-0.15212-5e-3 -0.5531-0.0251-0.311 0.21405 0.14207-6e-3 0.13867 0.15085 0.15591 0.2552 0.044 0.34876 0.11006 0.69542 0.13491 1.046-0.0977 0.0559-0.18448 0.27612 0.0213 0.27467 0.15169-0.0199 0.30553-3e-3 0.45757-3e-3 0.16829-0.11832-0.0689-0.23291-0.17076-0.27034-0.0342-0.15996-0.0506-0.32305-0.0751-0.48469 0.0897-0.0252 0.13403 0.029 0.1713 0.10281 0.14756 0.19807 0.26121 0.42791 0.44938 0.59034 0.14147 0.16001 0.35393-0.0254 0.43669 0.0628 0.23182-0.0261 0.46854-0.0211 0.70138 8e-3 0.22515 7e-3 0.40572-0.33724 0.23517-0.49662-0.15041 3e-3 -0.2232 0.26469-0.43112 0.21453-0.18961 0.0649-0.21969-0.0573-0.22416-0.20659-0.0143-0.099-0.0273-0.19814-0.0423-0.29699 0.1026 9e-3 0.21964-0.0224 0.31106 0.0242-2e-3 0.16943 0.26158 0.23379 0.1972 0.0124-0.0644-0.1422 0.0317-0.52985-0.2122-0.45231 0.0259 0.19634-0.1847 0.13773-0.3167 0.1463-0.0462-0.0403-0.0272-0.15554-0.0487-0.22421-0.0102-0.0879-0.0292-0.17527-0.0333-0.26363 0.031 0.0342 0.21231-1e-3 0.29768 0.0185 0.15657-0.0378 0.11492 0.34285 0.28598 0.17266-6.4e-4 -0.13963 0.049-0.3521-0.0862-0.44267-0.29503 5e-3 -0.59604 0.0335-0.88904-0.0106zm-4.0706 0.0193c-0.18736 0.0492-0.10485 0.38363-0.0313 0.50258 0.1805 0.0531 0.0648-0.2999 0.28656-0.21066 0.0733 9e-3 0.19673-0.0395 0.17506 0.0788 0.0504 0.38394 0.11529 0.76669 0.15632 1.1514-0.19595 0.0319-0.13666 0.33209 0.0804 0.24732 0.11529-6e-3 0.23115 4e-3 0.3456 5e-3 0.19083-0.17765-0.17693-0.19166-0.14652-0.36788-0.0523-0.37152-0.10457-0.74303-0.15686-1.1146 0.11169 8e-3 0.23606-0.0171 0.33878 0.0161 0.0196 0.21874 0.27798 0.15029 0.18264-0.0408 0.012-0.18115-0.11735-0.30542-0.29355-0.26578-0.31237-5.4e-4 -0.62475-1e-3 -0.93712-2e-3zm4.9014 0.1587c6e-3 -4e-3 6e-3 8e-3 0 0zm-1.8656 2e-3c-0.0344 0.15217 0.026 0.30846 0.0364 0.46263 5e-3 0.13256 0.067 0.24679 0.0515 0.36761 0.0298 0.1871 0.0442 0.37832 0.0912 0.56129 0.0805 0.0865-0.12192 0.0576-0.0354-0.0473-0.0406-0.40601-0.10405-0.81018-0.16524-1.2137 0.0125-0.0722-0.12997-0.14795 0.0215-0.13054zm1.2256 0c0.12311-0.0149 0.0344 0.15787 0.0821 0.25188 0.031 0.14904 0.0194 0.31288 0.0913 0.44854-0.0191 0.0827-3e-3 0.20765 0.0146 0.30886 0.0296 0.14215 0.0134 0.30208 0.10581 0.42291-0.13131 0.0276-0.0476-0.18805-0.0933-0.28296-0.0536-0.34759-0.0882-0.69876-0.15595-1.0437-0.0107-0.0365-0.027-0.0745-0.0445-0.10555zm-3.7519 9e-3c0.12656-0.03 0.0248 0.15763 0.0746 0.2388 0.0554 0.36806 0.0967 0.73887 0.16109 1.1052 0.11853 0.11843-0.10515 0.12021-0.0199-0.0157-0.0526-0.40889-0.11134-0.81753-0.17179-1.2254-4e-3 -0.0372-0.0216-0.0752-0.044-0.10294zm-0.79678 0.0386c0.0298 0.0537-0.0294 5e-4 0 0zm2.1386 4e-3c0.35771 5e-3 0.59019 0.37008 0.63922 0.69141 0.0494 0.23424 5e-3 0.56746-0.26163 0.64336-0.32436 0.0694-0.56568-0.24348-0.65867-0.5154-0.0731-0.24306-0.13203-0.56738 0.0794-0.75971 0.0569-0.0445 0.1308-0.0601 0.20164-0.0597zm1.6477 0.0171c0.14074 2e-3 0.17498 0.42354 0.0985 0.15815-0.0234-0.0579-0.0568-0.11183-0.0985-0.15815zm-0.31065 4e-3c0.23782-0.0125 0.42373 0.31024 0.27188 0.49773-0.0766 0.0354-0.26781 0.0884-0.2401-0.0581-0.0201-0.14727-0.0426-0.29457-0.0617-0.4417-0.021 0.014 0.0524 2e-3 0.0299 2e-3zm-0.82213 0.0986c0.15818 0.13648 0.26192 0.35951 0.25238 0.56886-0.0352-0.20644-0.11708-0.40794-0.25238-0.56886zm-0.95001 0.1631c-0.0448 0.1134-0.0441 0.43768-0.0422 0.14639-7.9e-4 -0.0521 0.0216-0.10025 0.0422-0.14639zm-2.2091 0.1394c0.16303 0.20281 0.50586 0.16089 0.63599 0.39878-0.16833-0.17415-0.47818-0.16101-0.62372-0.36808l-0.0127-0.0308zm2.169 0.16942c0.0101 0.21608 0.17207 0.49299 0.24671 0.61509-0.15754-0.16078-0.24805-0.39251-0.24671-0.61509zm3.5291 0.0515c0.019 0.0236-0.0404 6e-3 0 0zm-1.3829 7e-3c-0.0859 0.0694 0.025 0.13617 0.0583 0.20397 0.11491 0.15225 0.20851 0.32268 0.33915 0.46142 0.2209 0.17583-0.11843-0.051-0.15384-0.17546-0.0984-0.14029-0.19077-0.2855-0.29258-0.42292-0.12418-0.0361 0.0409-0.0228 0.049-0.067zm1.6389 0.62405c0.0199 0.1715-0.41461 0.13727-0.14383 0.0922 0.0536-0.0202 0.10438-0.0501 0.14383-0.0922z" fill="#6d2e8a" stroke="#6d2e8a" stroke-width=".05"/>
    <path d="m313.35 132.79-1.1752-0.52764-0.15785-0.7849 25.958-0.5218 0.35045 0.66093 0.0706 0.827z" fill="#9842c0" stroke="#000" stroke-linejoin="round" stroke-width=".4"/>
    <path d="m338.35 131.64 1.2734-5.486-0.38274-1.3056-1.2599 6.0493z" fill="#9842c0" stroke="#000" stroke-linejoin="round" stroke-width=".4"/>
    <path d="m333.82 138.21 1.272-1.5047" fill="none" stroke="#40bfbf" stroke-linecap="round" stroke-linejoin="round" stroke-width=".35022"/>
    <path d="m334.59 138.25 1.2266-1.377" fill="none" stroke="#40bfbf" stroke-linecap="round" stroke-linejoin="round" stroke-width=".35022"/>
    <path d="m318.47 138.87 1.6392-1.7808" fill="none" stroke="#40bfbf" stroke-linecap="round" stroke-linejoin="round" stroke-width=".43251"/>
    <path d="m319.45 138.91 1.5806-1.6296" fill="none" stroke="#40bfbf" stroke-linecap="round" stroke-linejoin="round" stroke-width=".43251"/>
    <path d="m340.76 133.59-0.32963-1.9215" fill="none" stroke="#40bfbf" stroke-linecap="round" stroke-linejoin="round" stroke-width=".3"/>
    <path d="m341.66 134.25-0.40581-2.2097" fill="none" stroke="#40bfbf" stroke-linecap="round" stroke-linejoin="round" stroke-width=".3"/>
   </g>
  </g>
 </g>
</svg>
