<svg width="31.124mm" height="23.415mm" version="1.1" viewBox="0 0 31.124 23.415" xmlns="http://www.w3.org/2000/svg">
 <g transform="translate(-155.31 -130.97)">
  <g fill="#fff" stroke="#000" stroke-width=".6">
   <path transform="translate(-193.22 17.751)" d="m375.24 135 3.8919-7.1516-11.6 0.85495-3.4431 7.4852z"/>
   <path transform="translate(-193.22 17.751)" d="m353.16 129.71 0.10335-9.9736 4.1858-5.7878-0.72347 8.6816z" stroke-linejoin="round"/>
   <path transform="translate(-193.22 17.751)" d="m356.93 122.68c0.49592 3.4708 2.9154 6.41 10.284 6.2012-0.0288 0.55635-3.0203 6.9298-3.2556 7.338-6.4791 0.18727-10.649-2.5624-10.8-7.1314 0.20987 0.0295 3.7724-6.4079 3.7724-6.4079z"/>
  </g>
  <path transform="translate(-193.22 17.751)" d="m356.07 115.87s-0.31943 5.7043-0.0205 8.2221c0.43891 3.6962 2.9419 7.5296 10.177 7.3229 2.7899-0.0797 11.162-0.82682 11.162-0.82682l1.6536-2.8939-3.6174-12.971-17.712-1.1922z" fill="#d8b6e7" stroke="#000" stroke-width=".6"/>
  <path transform="translate(-193.22 17.751)" d="m357.86 113.51s-0.0369 5.0732 0.0574 7.7502c0.1388 3.9364 2.123 7.2157 9.8823 6.8209 4.1887-0.21315 11.447-0.69939 11.447-0.69939l-3.2749-13.027z" fill="#6d2e8a" stroke="#000" stroke-width=".55996"/>
  <path transform="matrix(1.3217 0 -.69382 1.5414 -220.56 -52.948)" d="m360.63 128.28-0.58608 1.1835 0.74426 0.36913 0.10771-0.21859-0.48459-0.2424 0.47864-0.96287-0.25994-0.12874zm0.66987 0.33392-0.28498 0.76574c-0.0451 0.12123-0.06626 0.22128-0.05496 0.30643 0.0106 0.08 0.04549 0.15383 0.09979 0.21691 0.0565 0.0655 0.13673 0.11575 0.24008 0.15422 0.0974 0.0362 0.18733 0.05062 0.2678 0.03722 0.0769-0.013 0.14699-0.04639 0.20497-0.09589 0.0647-0.0554 0.11325-0.1448 0.16024-0.27123l0.28689-0.77177-0.24978-0.09152-0.28903 0.77143c-0.0341 0.0918-0.06804 0.15097-0.08974 0.17166-0.0267 0.0256-0.05316 0.03783-0.08196 0.04123-0.0315 3e-3 -0.07142-0.00228-0.11751-0.01978-0.0725-0.027-0.11294-0.06388-0.13467-0.1113-0.0181-0.0395-0.01638-0.1172 0.02712-0.23435l0.28527-0.76741-0.26953-0.10159zm0.97463 0.35739-0.33361 1.2794 0.25574 0.06638 0.19924-0.76373 0.29868 0.89448 0.25 0.06437 0.33401-1.2794-0.25575-0.06638-0.19924 0.76373-0.2988-0.89247-0.25027-0.06638zm10.967 0.05934c-0.03212-0.00189-0.06641-0.00152-0.1023 0.00101l1.8e-4 3.3e-4 -0.4218 0.02917 0.09185 1.3182 0.28693-0.01945-0.03694-0.50758 0.07033-0.00604 0.37707 0.48445 0.35336-0.02548-0.47272-0.5743c0.0325-0.0219 0.06847-0.0429 0.09167-0.0704 0.0359-0.0426 0.06108-0.08971 0.07808-0.14249 0.0178-0.0525 0.02534-0.1067 0.02144-0.16025-6e-3 -0.0908-0.04255-0.17259-0.10697-0.23804-0.05505-0.0564-0.13381-0.0835-0.23018-0.08918zm-0.63716 0.03822-0.78905 0.05498 0.0938 1.3182 0.82414-0.05666-0.01775-0.24608-0.53498 0.03923-0.0237-0.3185 0.42023-0.02917-0.01765-0.24441-0.41978 0.03152-0.01785-0.26787 0.50024-0.03688-0.01765-0.24441zm-0.8399 0.05867-1.1406 0.08013 0.01748 0.24407 0.42609-0.02917 0.07594 1.0742 0.28732-0.01945-0.07437-1.0742 0.42592-0.02951-0.01775-0.24608zm-1.1913 0.08415-0.26375 0.01744 0.05459 0.7892-0.56834-0.75199-0.25788 0.01743 0.09202 1.3186 0.26358-0.01777-0.05471-0.7872 0.56863 0.75032 0.25771-0.01777-0.09185-1.3182zm2.496 0.07007c0.0728-5e-3 0.12412 0.00206 0.14447 0.01006 0.0271 0.01 0.04226 0.02161 0.05276 0.03721l-1.1e-4 0.00202c0.0119 0.0168 0.01967 0.03587 0.02167 0.06437 3e-3 0.0489-0.00887 0.09252-0.04287 0.13879-0.0233 0.0323-0.08785 0.06117-0.20132 0.07007l-0.02353-0.31816 0.04893-0.00436zm-3.7129 0.01375-0.26777 0.01944 0.05676 0.8224c7e-3 0.0977-6.2e-4 0.16562-0.01184 0.19344-0.0141 0.0349-0.03264 0.05669-0.05834 0.07209-0.0272 0.0155-0.06524 0.026-0.11353 0.0295-0.0772 5e-3 -0.1285-0.01073-0.16785-0.04493-0.0328-0.0285-0.06365-0.10194-0.07245-0.22663l-0.05633-0.81636-0.289 0.02145 0.05662 0.81469c9e-3 0.12903 0.03261 0.22785 0.07811 0.30073 0.0427 0.0685 0.10412 0.12126 0.17975 0.15623 0.0785 0.0364 0.17301 0.0487 0.28303 0.0409 0.10367-7e-3 0.19019-0.0305 0.25797-0.0761 0.0646-0.0436 0.11377-0.1009 0.14614-0.16998 0.0365-0.0773 0.04462-0.18122 0.03522-0.31649l-0.05649-0.82038zm-5.564 0.00804c-0.14543 1.6e-4 -0.27122 0.04159-0.3698 0.12673-0.12769 0.10981-0.20876 0.2665-0.24193 0.45898-0.0325 0.18856-0.01087 0.35916 0.06813 0.5059 0.0825 0.15221 0.23997 0.24693 0.45133 0.2833 0.0504 9e-3 0.09931 0.01402 0.14454 0.01542 0.0447 2e-3 0.09006 1.8e-4 0.13307-0.0057 0.045-6e-3 0.09513-0.0177 0.15042-0.0352l0.03294-0.01173 0.04859-0.2776-0.0935 0.03118c-0.0578 0.0194-0.10578 0.03302-0.14049 0.03922-0.0356 6e-3 -0.07088 0.00906-0.10575 0.01006-0.0345 0-0.0694-0.00406-0.10342-0.01006-0.12173-0.0209-0.19843-0.07104-0.24805-0.15824-0.0501-0.0894-0.06615-0.19775-0.04275-0.33392 0.0226-0.13123 0.07149-0.23278 0.14266-0.30844 0.067-0.0711 0.15177-0.09663 0.28074-0.07443 0.0371 6e-3 0.07635 0.01698 0.11724 0.03118 0.0357 0.0124 0.113 0.05018 0.22459 0.11131l0.07455 0.03922 0.04845-0.2853-0.04277-0.01744c-0.13981-0.0607-0.2649-0.10174-0.37709-0.12103-0.05256-0.00905-0.10323-0.01346-0.1517-0.01341zm3.9402 0.08114c-0.02964-0.00173-0.05993-0.00148-0.09074 6.7e-4h-3.9e-4c-0.12328 9e-3 -0.23254 0.04538-0.32434 0.1113-0.0918 0.0659-0.15975 0.15683-0.20088 0.26754-0.0401 0.10889-0.05363 0.22947-0.04473 0.35572 9e-3 0.13068 0.03965 0.24832 0.09725 0.35135h0.00235c0.0582 0.10264 0.13621 0.18192 0.23417 0.23234 0.0984 0.0503 0.21167 0.06928 0.33407 0.06068l0.03335-0.00201 0.00596-0.01174c0.10764-0.0137 0.20877-0.03876 0.28894-0.09756 0.0909-0.0668 0.15733-0.15791 0.19736-0.26754 0.0401-0.10885 0.05566-0.22796 0.04696-0.3537-9e-3 -0.12634-0.04044-0.24139-0.09594-0.34364-0.0556-0.10405-0.13613-0.1839-0.23628-0.23636-0.07505-0.0393-0.15819-0.06187-0.24711-0.06705zm-3.3216 0.0419-0.12307 1.3162 0.28733 0.02749 0.0525-0.56659 0.45328 0.04124-0.05267 0.56625 0.28676 0.02716 0.12346-1.3162-0.28733-0.02749-0.04682 0.50591-0.45298-0.04291 0.0467-0.5039-0.28716-0.02716zm2.2078 0.03487c-0.03058-3.5e-4 -0.06008 1.1e-4 -0.08847 0.00201l-2.2e-4 3.4e-4c-0.21286 0.0142-0.37941 0.09111-0.48053 0.23233-0.0984 0.13674-0.13975 0.30699-0.12673 0.50189 0.0127 0.1909 0.07449 0.35264 0.18574 0.47674 0.1159 0.12854 0.28969 0.18422 0.50366 0.16998 0.0511-3e-3 0.09828-0.01005 0.14266-0.01945 0.0445-9e-3 0.08813-0.02151 0.12904-0.03721 0.0423-0.0166 0.08701-0.0404 0.13663-0.0704l0.03112-0.01744-0.01941-0.28128-0.08419 0.05263c-0.0516 0.0325-0.09261 0.05631-0.12491 0.07041-0.033 0.0141-0.06777 0.02449-0.10143 0.03319-0.0338 8e-3 -0.06922 0.01493-0.10384 0.01743l0.00207-0.00201c-0.12328 8e-3 -0.21059-0.02245-0.27926-0.09555-0.0697-0.0751-0.10974-0.1766-0.11895-0.31447-9e-3 -0.13285 0.01316-0.24167 0.06466-0.33191 0.0485-0.0848 0.12497-0.13009 0.25555-0.1388 0.0375-2e-3 0.07809-0.00199 0.12109 0.00201 0.0374 4e-3 0.12351 0.02336 0.24634 0.05666l0.08007 0.02146-0.01955-0.289-0.04488-0.00804c-0.11259-0.01958-0.21451-0.03046-0.30626-0.03152zm1.0402 0.17031c0.10543-7e-3 0.17867 0.02168 0.24046 0.09388 0.0626 0.0721 0.1031 0.17942 0.11338 0.32621 0.0103 0.14744-0.01331 0.2583-0.06491 0.33962h-0.00196c-0.0505 0.0804-0.11775 0.12163-0.2243 0.12907-0.10655 7e-3 -0.18052-0.02328-0.2423-0.09588-0.0619-0.0734-0.10077-0.18038-0.11112-0.32789-0.0103-0.14685 0.01478-0.25781 0.06618-0.33794 0.0517-0.0803 0.11915-0.1197 0.22457-0.12707z" fill="#401b51"/>
  <g stroke="#000" stroke-width=".3">
   <path transform="translate(-193.22 17.751)" d="m353.14 125.67 2.7154-3.6273 0.23127 3.0218-2.7765 4.0496z" fill="#9842c0"/>
   <path transform="translate(-193.22 17.751)" d="m357.81 128.44-2.4848 4.3484" fill="#7300a6"/>
   <path transform="translate(-193.22 17.751)" d="m360.8 130.89-1.754 3.6541" fill="#7300a6"/>
   <path transform="translate(-193.22 17.751)" d="m354.19 128.05c-0.57811 5.5269 5.3479 7.0295 9.5601 7.1313 3.9119 0.0946 11.989-0.98185 11.989-0.98185l-0.45218 0.93018s-7.6841 1.0642-11.433 1.3164c-4.7232 0.31772-10.304-1.6534-10.645-7.0009 0.38233-0.60992 0.56566-1.0545 0.98187-1.3953z" fill="#d8b6e7"/>
   <path transform="translate(-193.22 17.751)" d="m353.11 125.63 0.64596-0.85266 0.10337-5.8394-0.69765 0.80098z" fill="#d8b6e7"/>
  </g>
  <g fill="none" stroke="#40bfbf" stroke-linecap="round" stroke-linejoin="round" stroke-width=".3">
   <path transform="translate(-193.22 17.751)" d="m354.69 128.23 1.3533 0.22043"/>
   <path transform="translate(-193.22 17.751)" d="m355.21 128.88 1.2574 0.27221"/>
   <path transform="translate(-193.22 17.751)" d="m354.34 120 0.9578 0.0776"/>
   <path transform="translate(-193.22 17.751)" d="m354.51 120.62 0.78255 0.11478"/>
  </g>
  <path transform="translate(-193.22 17.751)" d="m352.85 126.06-4.2375 0.12918-0.0775 3.3073 4.2633-0.59428z" fill="#f2f2f2"/>
  <g fill="none">
   <path transform="translate(-193.22 17.751)" d="m357.99 127.67c2.4546 3.2298 8.0615 3.1264 8.0615 3.1264l10.335-0.72347"/>
   <g stroke="#40bfbf" stroke-linecap="round" stroke-linejoin="round" stroke-width=".4">
    <path transform="translate(-193.22 17.751)" d="m366.47 133.89 2.0463-1.2789"/>
    <path transform="translate(-193.22 17.751)" d="m368.05 133.71 2.0828-1.3155"/>
    <path transform="translate(-193.22 17.751)" d="m372.02 133.63 2.0097-1.2424"/>
    <path transform="translate(-193.22 17.751)" d="m373.23 133.66 1.9379-1.1369"/>
   </g>
  </g>
 </g>
</svg>
