<?xml version="1.0" encoding="UTF-8"?>
<svg width="28.27mm" height="17.204mm" version="1.1" viewBox="0 0 28.27 17.204" xmlns="http://www.w3.org/2000/svg">
 <g transform="translate(-90.438 -248.29)">
  <path d="m118.71 259.3-6.4546-0.93544 0.28063-1.7773 6.1739-0.28064z" fill="#f2f2f2"/>
  <path d="m90.832 259.21 16.744-0.0936 0.32741-10.524h-17.025z" fill="#8a3aaf" stroke="#000" stroke-linecap="round" stroke-linejoin="round" stroke-width=".6"/>
  <g fill="#d8b6e7" stroke-linecap="round" stroke-linejoin="round">
   <path d="m111.79 265.1-4.303-5.9868-16.744-0.0935 3.8353 5.9868z" stroke="#000" stroke-width=".6"/>
   <path d="m111.79 265.2v-10.477l-3.9289-6.1272-0.37417 10.617z" stroke="#000" stroke-width=".6"/>
   <path d="m108.56 250.92 5.1449 0.0468 1.5435 2.7128-4.724-0.0468z" stroke="#1a1a1a" stroke-width=".4"/>
  </g>
  <g stroke="#000" stroke-linecap="round" stroke-linejoin="round">
   <path d="m108 250.35s4.7583 0.0349 5.6244-4e-3" fill="none" stroke-width=".4"/>
   <g stroke-width=".3">
    <path d="m111.74 256.29-2.1515-3.1104-0.0702 2.3854 2.4322 3.391z" fill="#8a3aaf"/>
    <path d="m94.488 260.36 1.8522 3.4947h5.0821l-1.621-3.4611z" fill="#fff"/>
    <path d="m100.48 260.4 1.7145 3.3818h4.9767l-2.3386-3.4144z" fill="#fff"/>
   </g>
  </g>
  <path transform="matrix(1.1859 0 0 .99481 -18.498 1.5391)" d="m99.887 260.73c-0.04836 0.01-0.10326 0.01933-0.16384 0.02753-0.07303 0.01-0.14736 0.01845-0.22267 0.02545a0.050005 0.050005 0 0 0-0.044883 0.05663l0.005665 0.04311a0.050005 0.050005 0 0 0 0.056649 0.0426l0.054905-0.0078c0.01183-2e-3 0.017992-5.2e-4 0.021352 0 7.18e-4 2e-3 -1.8e-4 0.00187 0.001743 0.00987 3e-3 0.0132 0.007546 0.03223 0.011766 0.05663 0.0084 0.0489 0.019064 0.11863 0.031374 0.20934l0.031375 0.2322c0.01187 0.0874 0.019151 0.15507 0.023531 0.2031 0.0022 0.024 0.003186 0.04343 0.003486 0.05663 2.58e-4 0.01-2.14e-4 0.01144 0 0.01194-0.0042 2e-3 -0.012936 0.00687-0.029196 0.00987l-0.042704 0.00572a0.050005 0.050005 0 0 0-0.019609 0.02753 0.050005 0.050005 0 0 0-0.056649-0.03896c-0.03306 6e-3 -0.058134 0.00471-0.050984 0.00571-0.0018-6.6e-4 -0.003943-5.7e-4 -0.007843-0.00415-8e-5 -7e-5 -0.027204-0.0324-0.062314-0.08l-0.52727-0.70698a0.050005 0.050005 0 0 0-0.050983-0.01922l-0.044883 0.00987a0.050005 0.050005 0 0 0-0.038783 0.04467c-0.0057 0.0515-0.02045 0.13982-0.04314 0.26181l-0.084101 0.46076c-0.0152 0.0819-0.030387 0.15742-0.046627 0.22856a0.050005 0.050005 0 0 0 0 0.00208c-0.0021 0.01015-0.005668 0.01774-0.007843 0.02182-0.003837 0.00103-0.01647 0.00707-0.035297 0.01194l-0.019609 0.00572a0.050005 0.050005 0 0 0-0.034861 0.06077l0.009587 0.04104a0.050005 0.050005 0 0 0 0.062314 0.03688c0.04665-0.0143 0.10245-0.02957 0.16602-0.04467 0.05266-0.0126 0.10079-0.02281 0.14293-0.02961a0.050005 0.050005 0 0 0 0.040962-0.06026l-0.011766-0.04311a0.050005 0.050005 0 0 0-0.054905-0.03688l-0.064493 0.00779a0.050005 0.050005 0 0 0-0.001743 0c-0.0024 3.1e-4 9e-5 -7e-5 -0.002178 0-2.2e-5 -6e-3 -9.17e-4 -0.00381 0-0.01351 0.0021-0.0218 0.007574-0.05334 0.013944-0.09194l0.013508-0.08571 0.32246-0.07636 0.099353 0.14233c0.0062 9e-3 0.009674 0.01314 0.013944 0.01974l-0.064492 0.01922a0.050005 0.050005 0 0 0-0.033554 0.06077l0.010023 0.04104a0.050005 0.050005 0 0 0 0.062313 0.03688c0.08066-0.0225 0.14538-0.0395 0.19348-0.0509 0.05174-0.0124 0.10626-0.02421 0.16428-0.03481a0.050005 0.050005 0 0 0 0.021352-0.01195 0.050005 0.050005 0 0 0 0.002179 0 0.050005 0.050005 0 0 0 0.046626 0.02338c0.06045-0.0113 0.12899-0.02087 0.20524-0.03117 0.06533-9e-3 0.12624-0.01462 0.18171-0.01922a0.050005 0.050005 0 0 0 0.04489-0.05662l-0.0061-0.04519a0.050005 0.050005 0 0 0-0.05665-0.04104l-0.044885 0.00623c-0.01539 2e-3 -0.023806 7.2e-4 -0.029196 0-1e-3 -3e-3 -5.97e-4 -0.00131-0.002179-0.00831-3e-3 -0.0126-0.007546-0.03084-0.011766-0.05454-0.0084-0.0474-0.017225-0.11494-0.029195-0.20311l-0.033118-0.23635c-0.01688-0.12442-0.027215-0.21063-0.031375-0.25765-0.001282-0.01438-9.79e-4 -0.01931-0.001743-0.02026 0.005447-0.00183 0.012762-0.00337 0.023095-0.0052l0.052727-0.00831a0.050005 0.050005 0 0 0 0.04314-0.05662l-0.0061-0.0426a0.050005 0.050005 0 0 0-0.058392-0.04311v-0.00104zm-1.8197 0.39531a0.050005 0.050005 0 0 0-0.020045 0.00519l-0.33989 0.1761c-0.03882 0.0194-0.17068 0.08173-0.39262 0.18908a0.050005 0.050005 0 0 0-0.019609 0.07273c0.03225 0.0523 0.054864 0.09181 0.068414 0.11895l0.035297 0.07429a0.050005 0.050005 0 0 0 0.068414 0.02129l0.037039-0.01922a0.050005 0.050005 0 0 0 0.025274-0.06077l-0.033118-0.08779c-4e-3 -0.0106-0.0049-0.0159-0.0061-0.0213 0.0061-4e-3 0.013211-0.00625 0.023531-0.01195 0.02616-0.0145 0.065092-0.03515 0.11548-0.06025l0.01743-0.01039c0.02499 0.0457 0.051151 0.0912 0.078001 0.14493l0.17605 0.35115c0.0376 0.0752 0.066745 0.13791 0.085845 0.18597 0.002346 0.0061 0.0026 0.00899 0.00305 0.01194-0.004051 0.00346-0.010407 0.00797-0.02048 0.01299l-0.052727 0.02546a0.050005 0.050005 0 0 0-0.021788 0.06649l0.017866 0.03896a0.050005 0.050005 0 0 0 0.070157 0.02181c0.06964-0.0384 0.12943-0.07058 0.17953-0.09558 0.04968-0.0248 0.11189-0.05303 0.18563-0.08623a0.050005 0.050005 0 0 0 0.023531-0.06805l-0.019609-0.03948a0.050005 0.050005 0 0 0-0.066236-0.02129l-0.047062 0.02129c-0.01499 8e-3 -0.024374 0.01213-0.031374 0.01403-0.0055-8e-3 -0.011852-0.0204-0.021352-0.0374-0.019-0.034-0.045521-0.08514-0.078001-0.15013l-0.17561-0.34959c-0.02651-0.053-0.048963-0.10412-0.070593-0.15428l0.006101-0.00208c0.0558-0.0279 0.10543-0.04987 0.15034-0.06857 0.0035 5e-3 0.006845 0.01006 0.011765 0.01766l0.044883 0.07636a0.050005 0.050005 0 0 0 0.066235 0.01922l0.03704-0.01922a0.050005 0.050005 0 0 0 0.023531-0.06649c-0.0303-0.0636-0.059425-0.13111-0.085845-0.20311a0.050005 0.050005 0 0 0-0.027452-0.0296 0.050005 0.050005 0 0 0-0.020917-0.00312zm0.81182 0.13817 0.15034 0.20675-0.1913 0.04519 0.040961-0.25194zm1.1016 0.49972c0.0014-1.7e-4 0.002522 1.9e-4 0.003922 0l-0.003922 0.00208v-0.00208zm-1.3787 0.26025v0.00364l-0.027453 0.00831c0.01135-3e-3 0.018313-0.00925 0.027453-0.01195z" stroke-linecap="round" stroke-linejoin="round"/>
  <path transform="matrix(1.069 0 0 .99797 -6.9757 .76329)" d="m101.29 260.54a0.050005 0.050005 0 0 0-0.05269 0.04867l-0.00193 0.04298a0.050005 0.050005 0 0 0 0.04882 0.05127l0.07445 0.00155c7e-3 2.4e-4 0.0089 0.00107 0.0116 0.00207 3.5e-4 2e-3 -2e-4 -4e-4 0 0.00207 8e-4 0.01 0.00194 0.02448 0.00194 0.04298 4.8e-4 0.037-0.00187 0.09005-0.00387 0.15845l-0.01209 0.37853c-2e-3 0.0631-0.00473 0.11365-0.00773 0.14861-0.00222 0.02582-0.00611 0.04646-0.00677 0.0523-0.00319 0.00242-0.01412 0.01238-0.03819 0.02175a0.050005 0.050005 0 0 0-0.03142 0.04505v0.03728a0.050005 0.050005 0 0 0 0.05076 0.05075c0.093-2e-3 0.16074-1e-3 0.20303 0l0.32631 0.01553a0.050005 0.050005 0 0 0 0.00193 0c0.0731 2e-3 0.13198-1.7e-4 0.1779-0.00621a0.050005 0.050005 0 0 0 0.04302-0.04298c9e-3 -0.0742 0.01916-0.15454 0.03336-0.24027a0.050005 0.050005 0 0 0-0.04689-0.05851h-0.04496a0.050005 0.050005 0 0 0-0.04883 0.03521l-0.03915 0.13101c-0.0237 4e-3 -0.04838 0.00784-0.07058 0.00984-0.0461 3e-3 -0.11259 0.00507-0.19723 0.00207-0.0259-8.1e-4 -0.05297-0.00421-0.07977-0.00621l0.00387-0.18538 0.01547-0.43911c2e-3 -0.0507 0.00328-0.09016 0.00628-0.11755 1e-3 -0.012 0.00287-0.02064 0.00387-0.02744l0.08605 0.00414a0.050005 0.050005 0 0 0 0.05076-0.04867l0.00193-0.04505a0.050005 0.050005 0 0 0-0.05076-0.05075c-0.0816 0-0.14643-7.1e-4 -0.19337-0.00207-0.0343-1e-3 -0.10612-0.00469-0.21512-0.01139v-5.2e-4zm1.3952 0.14343c-0.09623 0.00285-0.18452 0.02765-0.26395 0.07509-0.1269 0.0758-0.21071 0.19778-0.24606 0.35574-0.0233 0.1045-0.02243 0.20527 0.00387 0.29878 0.0261 0.0929 0.07393 0.17301 0.14261 0.23457 0.0689 0.0617 0.15573 0.10359 0.25959 0.12687 0.16604 0.0371 0.3238 0.01377 0.45925-0.07043 0.1352-0.0841 0.2237-0.21243 0.25959-0.37283 0.0333-0.14888 0.01117-0.2862-0.06623-0.40079-0.0772-0.1157-0.20351-0.19165-0.36739-0.22835-0.06281-0.01407-0.12355-0.02035-0.18128-0.01865zm0.02175 0.1569c0.02823-3.5e-4 0.05847 0.00311 0.09088 0.01036 0.0714 0.0159 0.12772 0.04379 0.17016 0.08389 0.0422 0.0398 0.07035 0.09134 0.08605 0.15845 0.0158 0.0656 0.01382 0.1426-0.00628 0.23198-0.0191 0.0852-0.04755 0.15019-0.08605 0.19936a0.050005 0.050005 0 0 0 0 0.00207c-0.0388 0.0502-0.08136 0.08097-0.13052 0.09787-0.0497 0.017-0.10427 0.0194-0.1663 0.0057-0.0668-0.0149-0.1208-0.04412-0.16388-0.08752-0.0421-0.0428-0.07128-0.09956-0.08798-0.17398v-0.00207c-0.0152-0.0743-0.01328-0.15865 0.00822-0.25373 0.0157-0.0699 0.04103-0.12602 0.07783-0.17037 0.0373-0.0452 0.07976-0.07408 0.12907-0.08958 0.0246-0.00785 0.05057-0.01208 0.0788-0.01243zm0.83534 0.0492a0.050005 0.050005 0 0 0-0.01933 0.00362l-4.9e-4 5.2e-4a0.050005 0.050005 0 0 0-0.02707 0.029l-0.01547 0.04142a0.050005 0.050005 0 0 0 0.03094 0.06421l0.03336 0.01398c0.0183 7e-3 0.02969 0.01361 0.03529 0.01761-2.2e-4 2e-3 5.1e-4 -8e-4 0 0.00155-2e-3 0.01-0.00639 0.02313-0.01209 0.04143-0.0112 0.0366-0.02839 0.08951-0.05269 0.15586l-0.11505 0.31069c-0.0281 0.0766-0.05175 0.13524-0.06865 0.17606-8e-3 0.0204-0.01414 0.03797-0.01934 0.04867-2e-3 4e-3 -3e-4 0.00115-0.00193 0.00415-5e-3 -4e-4 -0.01242-0.00122-0.02562-0.00622l-0.04689-0.0176a0.050005 0.050005 0 0 0-0.0643 0.02951l-0.01547 0.04091a0.050005 0.050005 0 0 0 0.03094 0.06421c0.098 0.0325 0.16579 0.05515 0.20159 0.06835 0.046 0.0169 0.10348 0.03925 0.17354 0.06835a0.050005 0.050005 0 0 0 0.06672-0.02899l0.01546-0.03936a0.050005 0.050005 0 0 0-0.02948-0.06421l-0.05076-0.01968c-0.0147-5e-3 -0.02237-0.01016-0.02707-0.01346 3.9e-4 -3e-3 -9.2e-4 -3.5e-4 0-0.00414 3e-3 -0.0114 0.00887-0.02788 0.01547-0.04868 0.0133-0.0417 0.03262-0.10188 0.06042-0.17761l0.03336-0.0901c0.0212 0.056 0.04159 0.11215 0.05849 0.16829l0.11505 0.39251a0.050005 0.050005 0 0 0 0.03723 0.03314c0.0267 7e-3 0.05174 0.015 0.07444 0.0233 0.025 9e-3 0.0538 0.02158 0.0875 0.03728a0.050005 0.050005 0 0 0 0.06865-0.02744l0.01353-0.04091a0.050005 0.050005 0 0 0-0.029-0.06472l-0.01547-0.00467c-8.5e-4 -0.00189-0.00248-0.00519-0.00435-0.00932-4e-3 -9e-3 -0.00784-0.02173-0.01354-0.03883l-0.06429-0.20506c-0.0263-0.0827-0.04688-0.1501-0.06478-0.21489 0.0656 8.6e-4 0.13156 0.00475 0.1837-0.02175 0.0708-0.0353 0.12385-0.09208 0.15034-0.16415 0.0182-0.0491 0.02185-0.10039 0.01015-0.1481-0.0115-0.0478-0.03921-0.09021-0.07831-0.12531-0.0409-0.0373-0.0982-0.06688-0.17548-0.09528-0.0285-0.0105-0.07369-0.02642-0.13681-0.04712-0.0539-0.0174-0.09602-0.0309-0.12327-0.0409-0.041-0.0151-0.10123-0.0397-0.17983-0.0725a0.050005 0.050005 0 0 0-0.01934-0.00362zm0.2596 0.26978c0.0338 3e-3 0.06775 0.00493 0.09765 0.01553 0.0576 0.0211 0.08971 0.04799 0.10538 0.07819 0.0161 0.0305 0.0168 0.06328 0 0.10926-0.019 0.0518-0.04628 0.0789-0.08798 0.0958a0.050005 0.050005 0 0 0 0 0.00207c-0.0405 0.0168-0.08833 0.01532-0.15227-0.00828-9e-3 -3e-3 -0.02716-0.01013-0.05076-0.02123a0.050005 0.050005 0 0 0-0.02127 0.00569l0.03722-0.09942c0.0236-0.0644 0.04733-0.12137 0.07203-0.17761z" stroke-linecap="round" stroke-linejoin="round"/>
  <path d="m97.703 262.48c0.66132-0.4271 1.1862-0.60394 2.4403-0.74981" fill="none"/>
  <path d="m101.27 261.59c1.0528-0.10072 2.4834 0.45079 2.7287 0.57871" fill="none"/>
  <path d="m109.14 256.48-0.14038 3.0285 1.678 2.3035 0.0527-3.1922z" fill="#fff" stroke="#000" stroke-linecap="round" stroke-linejoin="round" stroke-width=".2"/>
  <g transform="translate(-.42095 -.37418)">
   <path d="m114.79 253.65c-0.1223-0.18713-2.8205-1.2958-3.1444-1.4949-0.33409-0.20557-1.072-0.75802-1.2554-0.30455-0.18352 0.45345 0.67627 0.58721 1.1216 0.72684 0.70646 0.22152 3.2031 1.2864 3.2819 1.087 9.7e-4 -1e-3 -8e-5 -9e-3 -2e-3 -0.0151zm-3.4217-1.4369c0.015 0.0232 0.0196 0.0472 0.012 0.0698-0.0404 0.11854-0.36507-0.0367-0.46973-0.0698-0.10457-0.0326-0.43465-0.14298-0.37314-0.28903 0.0615-0.14599 0.31118-0.0214 0.44181 0.0469 0.0811 0.0418 0.32278 0.14358 0.38865 0.24371z"/>
   <g fill="none" stroke="#000" stroke-linecap="round" stroke-linejoin="round" stroke-width=".1">
    <path d="m109.98 251.86h0.7425"/>
    <path d="m111.17 251.85 0.68989 5e-5"/>
    <path d="m111.22 251.63s0.3321 0.18072-0.0914 0.5168c-0.28472 0.22594-0.13532 0.71376 0.22801 0.72202 0.25725 6e-3 1.5563-0.40654 1.8469-0.16555 0.27303 0.22644 0.29764 0.83205-0.19818 0.84375"/>
    <path d="m112.7 253.58h-0.64312"/>
    <path d="m111.7 253.55-0.5028 0.0117"/>
    <path d="m110.96 253.24-0.3274-0.42095"/>
    <path d="m110.41 252.55-0.35079-0.43264"/>
    <path d="m112.26 251.86h0.78343"/>
    <path d="m113.31 251.86 0.60803 0.0117"/>
    <path d="m113.97 252.15 0.28112 0.46302"/>
    <path d="m114.43 252.84 0.33073 0.52917"/>
   </g>
  </g>
 </g>
</svg>
