<?xml version="1.0" encoding="UTF-8"?>
<svg width="187.45" height="35.285" version="1.1" viewBox="0 0 187.45 35.285" xml:space="preserve" xmlns="http://www.w3.org/2000/svg"><g transform="translate(-584.34 -643.67)"><path d="m585.11 677.96 28.029-33.285h157.66l-5.2555 33.285z" fill="#fbfbfb" stroke="#000" stroke-linejoin="bevel" stroke-width="2"/><path d="m613.14 644.67-28.029 33.285h180.44l5.2558-33.285zm6 6h141.66l-4.4238 21.285h-154.51z" fill="#2b4b6b"/><path d="m615.8 660.88c1.381-0.34298 3.0336-0.56441 4.4474-0.35207 0.26021 0.0391 0.51099 0.12581 0.76649 0.18871 0.59956 0.0566 0.94706 0.58675 1.4725 0.79422 0.50867 0.20084 0.73503 0.16342 1.3212 0.20848 1.2927-7e-3 2.5818 0.0133 3.8608 0.2178 0.17735-0.034 0.35956-0.0485 0.53205-0.10191 1.7179-0.53179-0.81597 0.0906 1.1409-0.42083 0.86841-0.22697 1.7196-0.29313 2.6126-0.30872 0.57624-0.0207 1.1087 0.0622 1.5937 0.38224 0.0567 0.0374 0.10642 0.0856 0.15126 0.13666 9e-3 0.0105 0.0138 0.0525 5e-3 0.0415-0.0303-0.0388-0.0488-0.0857-0.0732-0.12849 0.0931 0.70096 1.0844 0.56931 0.9913-0.13164-0.0325-0.10374-0.0469-0.21496-0.0974-0.31122-0.43265-0.82456-1.8013-0.97562-2.5918-0.98886-1.3633 0.0327-2.9082 0.11593-4.1078 0.84362-1.3087-0.20661-2.6279-0.24097-3.9508-0.22793-0.0732-4e-3 -0.70022-0.0112-0.89822-0.0825-0.60734-0.21868-1.0284-0.87121-1.7311-0.89529-0.30808-0.071-0.61118-0.16893-0.92424-0.2131-1.5301-0.21589-3.4882 8e-3 -4.9681 0.45493-0.63245 0.31623-0.18524 1.2107 0.44722 0.89443z"/><path d="m650.76 662.64c1.3478-0.0587 2.6574-0.42819 3.9885-0.62974 0.32866-0.12147 0.75519 0.0222 1.0702-0.15374 0.25819-0.14422 0.46221-0.36907 0.69334-0.55359 0.25561-0.21728 1.9632-1.1723 2.1728-0.80346-0.11079 0.0916-0.0621 0.021 0.0492 0.22978 0.37866 0.71057 1.0324 0.58173 1.72 0.47085 1.1644-0.16274 2.4888-0.60523 3.6337-0.12674 0.60404 0.31625 1.3194 0.0558 1.9646 0.0453 0.20774-3e-3 0.41522 0.0162 0.62282 0.0243 0.61458 0.0381 1.1741 0.32114 1.7692 0.44136 0.42329 0.0855 0.61529 0.0787 1.0628 0.10446 1.7278-0.0564 3.1009 0.0468 4.7362 0.62639 2.6376 0.78087 5.5655 0.65395 8.2978 0.65341 0.98335 0.0113 1.9952-0.0653 2.9736 0.0924 0.11694 0.0189 0.23044 0.0585 0.33977 0.10407 0.0334 0.0139 0.11523 0.0847 0.0815 0.0716-0.0482-0.0188-0.0846-0.0595-0.12694-0.0893 0.1824 0.64988 0.87369 0.69537 1.4733 0.71906 0.85893-0.0835 0.42929-0.034 1.2889-0.14875 0.70086-0.0938 0.56823-1.085-0.13263-0.99117-0.78547 0.10537-0.4114 0.0593-1.1219 0.14051-0.10296-3e-3 -0.20591-6e-3 -0.30887-9e-3 -0.0591-5e-3 -0.1181-0.0132-0.17743-0.0156-0.15019-6e-3 0.0476 0.4183-0.13685-0.16198-0.079-0.0994-0.13992-0.21639-0.23709-0.29811-0.74687-0.62811-3.0382-0.35765-3.9157-0.41421-1.579 4.3e-4 -3.1591 7e-3 -4.7362-0.0856-0.79912-0.047-1.6601-0.10759-2.45-0.2806-0.26485-0.058-0.51999-0.15378-0.77999-0.23067-1.726-0.60143-3.1917-0.74857-5.0131-0.68143-0.26955-0.0137-0.58173-0.0166-0.85256-0.0703-0.67105-0.13285-1.3025-0.4578-1.9997-0.47645-0.84355-0.0254-0.56489-0.0428-1.3393 0.0239-0.14306 0.0123-0.28585 0.0277-0.42859 0.0432-0.0726 8e-3 -0.14623 0.0108-0.21739 0.0272-0.0112 3e-3 -0.01 0.0315-0.0205 0.0277-0.0911-0.0322-0.17367-0.0847-0.26051-0.12705-1.3535-0.48538-2.7931-0.18054-4.1663 0.0774-0.15129 0.0316-0.30663 0.0477-0.45386 0.0947-0.141 0.045-0.0775 0.17583-0.11636 0.12845-0.22348-0.27258-0.2438-0.6836-0.61712-0.85416-0.15819-0.0521-0.30936-0.13534-0.47458-0.15641-0.8588-0.10955-2.0623 0.63663-2.7316 1.097-0.12737 0.10412-0.2665 0.19532-0.3821 0.31237-0.012 0.0122 0.0315 0.0904-0.0192 0.0985-0.28885 0.0459-0.59862-2e-3 -0.88332 0.0853-1.2047 0.18329-2.3944 0.4484-3.5959 0.64827-0.68599-0.1715-0.92853 0.79864-0.24253 0.97014z"/><path d="m654.1 667.79c1.5568-0.20234 3.1479-0.30859 4.7159-0.19559 1.9372 0.28161 3.8614-0.24059 5.7749-0.49259 1.0573-0.0608 2.5181-0.4669 3.3423 0.42849 0.10229 0.0676 0.18977 0.16644 0.30686 0.20278 0.89651 0.27826 2.1639 0.17474 3.0969 0.24515 0.6559 0.0495 1.9301 0.19413 2.5973 0.2671 1.2101 0.0605 2.4586 0.42201 3.6749 0.21277 0.29701-0.0511 0.58543-0.14351 0.87814-0.21526 1.7788-0.41114 3.5961-0.68395 5.422-0.74772 0.12296 1e-3 0.24643-8e-3 0.36887 3e-3 0.32403 0.03 0.64 0.12121 0.96322 0.15886 1.2443 0.14497 2.471 0.15263 3.7223 0.13892 0.70706-8e-3 0.69538-1.0082-0.0117-0.99993-1.193 0.0148-2.3661 0.0114-3.5528-0.12646-0.22947-0.0267-0.86949-0.1504-1.1129-0.17136-0.13706-0.0118-0.27513-2e-3 -0.41269-3e-3 -1.8965 0.0692-3.7841 0.3474-5.6314 0.77758-0.2395 0.0628-0.47514 0.1428-0.7185 0.18842-1.1472 0.21502-2.3383-0.17431-3.4807-0.21051-0.71623-0.0783-1.9498-0.2187-2.6531-0.27162-0.87241-0.0656-1.7673-0.0227-2.6371-0.10512-0.0371-4e-3 -0.069-0.0282-0.10354-0.0423-1.1597-1.1524-2.6974-0.867-4.189-0.72183-1.3728 0.18122-0.97668 0.11821-2.33 0.33897-1.08 0.17617-2.1524 0.35819-3.2452 0.14743-1.6724-0.11143-3.3696-0.0167-5.0274 0.22306-0.68599 0.1715-0.44346 1.1416 0.24254 0.97014z"/><path d="m721.42 668.48c1.868 7e-3 3.7303 0.0487 5.5902-0.1405 1.4616-0.0968 2.9543-0.31935 4.4088-0.058 0.83304 0.12874 1.4889-0.36825 2.1904-0.72761 0.72566-0.37172 0.91688-0.41916 1.7045-0.72129 0.7935-0.24187 1.6892-0.59538 2.5198-0.2767 0.20756 0.0796 0.38708 0.21891 0.58383 0.32242 1.7225 0.6131 3.6018 0.33641 5.3831 0.1932 0.66863-0.0627 1.3379-0.10976 2.0086-0.14248 0.70626-0.0347 0.65721-1.0335-0.049-0.99879-0.681 0.0336-1.3607 0.0805-2.0397 0.14449-1.5965 0.12848-3.2748 0.38321-4.8374-0.0815-0.16891-0.0888-0.67732-0.36208-0.82703-0.41236-1.0337-0.34718-2.1149-4e-3 -3.1016 0.31848-0.86921 0.33602-1.0337 0.37169-1.8345 0.78237-0.48103 0.24669-0.95708 0.66671-1.5289 0.61465-1.5483-0.26437-3.1272-0.0716-4.6824 0.0483-1.8259 0.18665-3.6547 0.14003-5.4887 0.13534-0.70711 0-0.70711 1 0 1z"/><path d="m747.35 652.17c-1.3264-4e-3 -2.774 0.0866-4.085 0.73751-0.24288 0.12058-0.46676 0.28498-0.70013 0.42747-0.95932 0.69462-1.6853 1.5161-1.9718 2.6092-0.22834 0.90803 0.11942 1.596 0.48421 2.3087 0.38955 0.80628 1.091 1.3772 1.6944 2.0106 0.42938 0.41719 0.78822 0.96595 1.32 1.2755 0.14645 0.0853 0.31298 0.13957 0.46948 0.20935 0.88207 0.23466 1.8566 0.16376 2.8064 0.1252 0.89617 7e-3 1.8142-0.13322 2.719-0.38743 0.89676-0.31294 1.6718-0.79548 2.41-1.4308 0.6795-0.61965 0.96481-1.371 1.1178-2.1846 0.14215-0.56962 0.0913-1.0573-0.0381-1.5709-0.26228-0.54371-0.61378-1.0241-0.97659-1.4957-0.44823-0.53191-0.85523-1.0956-1.205-1.702-0.40272-0.56433-1.1366-0.72767-1.8235-0.87526-0.67243-0.10391-1.3752-0.0834-2.0737-0.0693-0.25477 5e-3 -0.51018 0.0142-0.76409 0.014-0.0116-1e-4 -0.0231-2e-4 -0.0346-3e-4 -0.72992-6e-3 -0.9238 1.0278-0.19339 1.0338 0.0141 1.1e-4 0.0281 2.2e-4 0.0421 3.3e-4 0.26119 1.9e-4 0.52372-8e-3 0.78598-0.0142 0.62236-0.0126 1.2487-0.0332 1.8508 0.0488 0.44515 0.0915 0.96904 0.1747 1.2746 0.48582 0.3677 0.6366 0.79389 1.2309 1.2638 1.79 0.29524 0.38318 0.58591 0.78483 0.8323 1.1973 0.0241 0.0929 0.12289 0.29089 0.12423 0.40122 3e-3 0.2445-0.0867 0.50596-0.0975 0.75215-0.0972 0.5478-0.23843 1.0385-0.69392 1.4656-0.59468 0.51557-1.1992 0.90508-1.9246 1.1649-0.81458 0.24361-1.6456 0.34454-2.4523 0.34351-0.81336 0.0331-1.6462 0.0957-2.4161-0.0615-0.65498-0.19822-1.0402-0.84704-1.4995-1.2905-0.55064-0.57765-1.1992-1.0946-1.5619-1.8236-0.26641-0.52002-0.5781-0.98279-0.42136-1.6498 0.17483-0.77804 0.74055-1.3335 1.3997-1.8367 0.16281-0.10664 0.31683-0.23196 0.48842-0.3199 1.1713-0.60033 2.4786-0.6563 3.6648-0.65472 0.73104 0 0.91644-1.0338 0.1854-1.0338z"/><path d="m704.92 662.53c1.4073-0.12999 2.8806-0.37976 4.2955-0.19248 0.24826 0.0329 0.48665 0.11846 0.72997 0.17769 0.8373 0.11763 1.1444 1.0991 1.9448 1.2734 0.26313 0.0573 0.53755 0.0337 0.80632 0.0505 0.33873-0.0388 0.67892-0.0666 1.0162-0.1164 0.41792-0.0617 0.8323-0.14548 1.2484-0.21822 0.4523-0.0742 0.90345-0.15576 1.3569-0.22258 1.1755-0.17322 2.3548-0.29119 3.5386-0.38749 0.89232-0.0102 1.6762-0.44543 2.5198-0.6587 0.58919-0.14895 0.82623-0.15648 1.4423-0.23103 1.1967-0.10788 2.3993-0.0774 3.5988-0.0541 0.70697 0.0137 0.72636-0.9861 0.0194-0.99981-1.2468-0.0242-2.4968-0.0545-3.7405 0.0614-0.71336 0.0894-0.93066 0.0926-1.6146 0.2679-0.77409 0.19837-1.4891 0.59997-2.3065 0.61762-2.3704 0.19362-4.7108 0.56931-7.0573 0.94162-0.12006 6e-3 -0.49001 0.0699-0.65295-0.0279-0.23258-0.13955-0.38766-0.3806-0.59816-0.55165-0.60294-0.48995-0.5389-0.39648-1.2961-0.71885-0.30443-0.0675-0.60397-0.16309-0.9133-0.20256-1.4946-0.19072-3.0485 0.0646-4.5337 0.21102-0.69337 0.13867-0.49726 1.1192 0.19612 0.98058z"/><path d="m642.62 651.77c-0.77473 0.75178-1.5236 1.5888-1.8456 2.638-0.1383 0.85794 0.4137 1.1419 1.1594 1.1286 0.30474-0.021 0.64853 0.0723 0.88567 0.27732 0.17331 0.25405 0.46416 0.31824 0.76474 0.31151 0.23917-0.017 0.47885-0.0243 0.71857-0.0264 0.42496 0.0295 0.81188-0.0168 1.2115-0.17037 0.45254-0.16918 0.77952-0.44725 0.99963-0.86448 0.10318-0.34154-0.076-0.44018 0.0336-0.23027 0.0254 0.0486 0.0658-0.0879 0.10248-0.12872 0.14901-0.25013 0.14659-0.24537 0.17395-0.46548 0.0622-0.70436-0.93389-0.79236-0.99612-0.088 0.12509-0.16356 0.23681-0.27839 0.0602-0.0942-0.16209 0.19475-0.35794 0.51054-0.32555 0.69879 0.26924-0.30365-0.2552 0.24542-0.41036 0.24022-0.0709 0.028-0.1286 0.0921-0.20401 0.10338-0.21334 0.0318-0.4397-0.0245-0.6544-8.4e-4 -0.24943 2e-3 -0.49888 9e-3 -0.74774 0.0271-0.0173 1e-3 -0.0361-3e-3 -0.052 4e-3 -0.0219 0.01 0.0467 0.0162 0.0639 0.0328 0.0391 0.0379 0.0585 0.1401 0.10967 0.12122 0.11083-0.041-0.36494-0.25865-0.23781-0.26285-0.4338-0.31851-0.98227-0.51933-1.5264-0.48463-0.0645 3e-3 -0.16404-0.0468-0.19346 0.0107-4e-3 7e-3 0.11276 0.42958 0.0248 0.13961 0.2348-0.89224 0.97449-1.5701 1.5925-2.2102 0.5-0.5-0.20711-1.2071-0.70711-0.7071z"/><path d="m646.6 654.55c2.1634 0.0241 4.3293-0.0607 6.4901 0.059 0.74936-0.0252 1.5046 0.33935 2.2414 0.10685 0.13846-0.0437 0.97064-0.4585 1.0676-0.50608 1.3686-0.64992 2.9258-1.0468 4.4183-0.64672 1.0153 0.52166 2.2236 0.39631 3.3304 0.40184 1.0915-0.0433 2.1614-0.0529 3.2216 0.21537 0.80894 0.0708 1.6041 0.23678 2.4114 0.33237 1.6574 0.0953 3.3197-0.13001 4.9767-0.21923 1.0126-0.0326 2.0268-0.0904 3.0404-0.0701 0.70698 0.0136 0.72627-0.98617 0.0193-0.99981-1.038-0.0193-2.0764 0.036-3.1135 0.0713-1.6004 0.0862-3.2054 0.30042-4.8059 0.22465-0.76384-0.0895-1.5162-0.25499-2.2831-0.30868-1.1389-0.2882-2.2899-0.29608-3.462-0.24592-1.0405-5e-3 -2.1369 0.12038-3.0888-0.37101-1.7923-0.43739-3.4566-0.0593-5.1051 0.71807-0.0343 0.0168-0.94317 0.50732-0.99814 0.50909-0.5752 0.0186-1.2402-0.29928-1.8159-0.21055-2.1793-0.11774-4.363-0.0392-6.5448-0.0605-0.7071 0-0.7071 1 0 1z"/><path d="m685.13 653.97c0.73622 0.20168 1.442 0.13165 2.0475-0.34218 0.45298-0.0927-0.5583-0.26839 0.0546 0.10954 0.22767 0.13457 0.48835 0.17735 0.74687 0.2044 0.70386 0.0676 0.79953-0.92777 0.0957-0.99542-0.11804-9e-3 -0.23855-0.0138-0.34279-0.0751-0.0922-0.042-0.15597-0.13847-0.25254-0.16906-0.43461-0.13771-0.60589-0.0752-0.93841 0.15448-0.32075 0.3089-0.76636 0.24389-1.1684 0.14325-0.68599-0.1715-0.92853 0.79864-0.24254 0.97014z"/><path d="m615.08 668.48h4.5812c2.3821-0.1275 4.6978-0.75572 7.0218-1.2474 0.81649-0.12893 1.6271-0.351 2.4607-0.299 0.37446 0.0234 0.75428 0.13476 1.1224 0.20095 1.2171 0.18724 2.4527 0.0596 3.6731 0.17977 0.43794-0.05 0.72852 0.25189 1.1009 0.38205 0.40084 0.14011 0.50711 0.12551 0.93636 0.17179 1.1738 0.16478 2.664-0.22034 3.7675 0.17357 0.85165 0.52882 1.7085 0.1162 2.5712-0.18221 0.6663-0.23674 0.33149-1.179-0.3348-0.94228-0.304 0.11147-0.60687 0.22603-0.91198 0.33443-0.12014 0.0427-0.2361 0.11742-0.36358 0.11874-0.23893 2e-3 -0.4262-0.28665-0.65901-0.28205-0.17387-0.0509-0.34325-0.12083-0.52159-0.15266-1.1311-0.20189-2.3104 0.0715-3.4486-0.0626-0.1907-0.0169-0.3896-9.3e-4 -0.57095-0.0623-0.48924-0.16555-0.91085-0.53662-1.4714-0.49204-1.1946-0.10863-2.3992-9e-3 -3.5912-0.1686-0.43087-0.0764-0.85926-0.19558-1.2983-0.21654-0.90389-0.0431-1.7832 0.16792-2.6676 0.32067-2.2562 0.47759-4.5037 1.0874-6.8147 1.2257h-4.5812c-0.7071 0-0.7071 1 0 1z"/><path d="m696.97 654.98c0.0986-0.6765 0.25782-1.3437 0.41501-2.0089 0.13136-0.583 0.30732-1.164 0.65204-1.6563-0.0129 0.11385-0.2854 0.0627 0.0602 0.10537 0.0928 0.0645 0.17544 0.15412 0.25452 0.23815 0.13848 0.17823 0.27694 0.37109 0.38817 0.56976 0.15315 0.24461 0.28013 0.50407 0.4116 0.76049 0.1017 0.27454 0.27202 0.51878 0.38591 0.78684 0.0938 0.1885 0.15929 0.3865 0.24554 0.57745 0.15652 0.3438 0.47357 0.49232 0.83001 0.52381 0.39161 0.0291 0.67603-0.0969 1.0052-0.30156 0.33682-0.23505 0.68526-0.33244 1.0886-0.36454 0.048-1e-3 0.0964-9e-3 0.14415-4e-3 0.0285 3e-3 6e-3 0.0248 0.0209 0.0339 0.0251 0.0153 0.0518 0.0285 0.0796 0.0384 0.22954 0.0814 0.21363 0.066 0.46275 0.10145 0.69491 0.0363 1.3914 0.0202 2.0869 0.014 0.59589-5e-3 1.1918-5e-3 1.7877-4e-3 0.78041 4.7e-4 1.5608 5.9e-4 2.3412 6.3e-4 0.77383 0.0403 1.5397-0.0476 2.3094-0.10659 0.82211-0.0624 1.6469-0.0597 2.4707-0.0561 0.97237 6e-3 1.9448 8e-3 2.9172 8e-3 0.48806 3e-5 0.97613-3.8e-4 1.4642-5.8e-4 0.0477-1e-5 0.0954-2e-5 0.14305-4e-5 0.70711-1.9e-4 0.70684-1.0002-2.7e-4 -1-0.0477 2e-5 -0.0955 3e-5 -0.14319 4e-5 -0.4877 2e-4 -0.97541 6.1e-4 -1.4631 5.8e-4 -0.97117-6.3e-4 -1.9423-3e-3 -2.9135-8e-3 -0.85089-4e-3 -1.7027-6e-3 -2.5518 0.059-0.74428 0.0576-1.4841 0.14442-2.2326 0.10364-0.78031-4e-5 -1.5606-1.6e-4 -2.3409-6.3e-4 -0.59897-2.2e-4 -1.198-9e-4 -1.7969 5e-3 -0.65174 6e-3 -1.304 0.0183-1.9555-7e-3 -0.0507-4e-3 -0.10425 7e-3 -0.1522-0.0103-0.25124-0.0887-0.48375-0.22195-0.76548-0.16336-0.55528 0.0522-1.0651 0.19678-1.5312 0.51285-0.0501 0.0316-0.10168 0.0609-0.15033 0.0947-0.0139 0.01-9e-3 0.0404-0.0257 0.0436-0.0803 0.016-0.16722 1e-3 -0.24829 0.0123 0.0161 0.0194 0.11607 0.20023-2e-3 -3e-3 7e-3 0.10085 4e-3 0.0177-0.0418-0.1208-0.0452-0.13693-0.12655-0.25667-0.17191-0.39286-0.13137-0.28005-0.29155-0.54616-0.40851-0.83334-0.1434-0.27185-0.27529-0.55071-0.43972-0.81107-0.15783-0.2581-0.32554-0.51768-0.52227-0.74703-0.24175-0.25345-0.50324-0.47279-0.858-0.54245-0.41366-0.0507-0.71427-0.0338-1.0029 0.31568-0.41481 0.59819-0.64802 1.2906-0.80471 1.9982-0.17418 0.73975-0.35976 1.4819-0.44172 2.2384 0 0.70711 1 0.70711 1 0z"/></g></svg>
