<?xml version="1.0" encoding="UTF-8" standalone="no"?>
<!-- Created with Inkscape (http://www.inkscape.org/) -->

<svg
   width="187.44611"
   height="35.284668"
   viewBox="0 0 187.44611 35.284668"
   version="1.1"
   id="svg1"
   xml:space="preserve"
   xmlns="http://www.w3.org/2000/svg"
   xmlns:svg="http://www.w3.org/2000/svg"><defs
     id="defs1" /><g
     id="layer4"
     style="display:inline"
     transform="translate(-584.34453,-643.67151)"><path
       style="fill:#fbfbfb;fill-opacity:1;stroke:#000000;stroke-width:2;stroke-linejoin:bevel"
       d="m 585.10946,677.95617 28.0292,-33.28467 h 157.66422 l -5.25547,33.28467 z"
       id="path9" /><path
       id="path434"
       style="fill:#2b4b6b;fill-opacity:1;stroke:none;stroke-width:2;stroke-linejoin:bevel"
       d="m 613.13867,644.67188 -28.02929,33.28515 h 180.4375 l 5.25585,-33.28515 z m 6,6 h 141.66406 l -4.42382,21.28515 H 601.86719 Z" /><path
       style="fill:#000000;fill-opacity:1;stroke:none;stroke-width:5;stroke-linejoin:bevel;stroke-dasharray:none;stroke-opacity:1"
       id="path443"
       d="m 615.80046,660.8789 c 1.38105,-0.34298 3.03363,-0.56441 4.44742,-0.35207 0.26021,0.0391 0.51099,0.12581 0.76649,0.18871 0.59956,0.0566 0.94706,0.58675 1.47253,0.79422 0.50867,0.20084 0.73503,0.16342 1.32121,0.20848 1.29266,-0.007 2.58185,0.0133 3.86077,0.2178 0.17735,-0.034 0.35956,-0.0485 0.53205,-0.10191 1.71791,-0.53179 -0.81597,0.0906 1.14094,-0.42083 0.86841,-0.22697 1.7196,-0.29313 2.6126,-0.30872 0.57624,-0.0207 1.10872,0.0622 1.59366,0.38224 0.0567,0.0374 0.10642,0.0856 0.15126,0.13666 0.009,0.0105 0.0138,0.0525 0.005,0.0415 -0.0303,-0.0388 -0.0488,-0.0857 -0.0732,-0.12849 0.0931,0.70096 1.08439,0.56931 0.9913,-0.13164 v 0 c -0.0325,-0.10374 -0.0469,-0.21496 -0.0974,-0.31122 -0.43265,-0.82456 -1.80126,-0.97562 -2.59175,-0.98886 -1.36328,0.0327 -2.9082,0.11593 -4.10782,0.84362 -1.30867,-0.20661 -2.62791,-0.24097 -3.9508,-0.22793 -0.0732,-0.004 -0.70022,-0.0112 -0.89822,-0.0825 -0.60734,-0.21868 -1.02839,-0.87121 -1.73113,-0.89529 -0.30808,-0.071 -0.61118,-0.16893 -0.92424,-0.2131 -1.53009,-0.21589 -3.4882,0.008 -4.9681,0.45493 -0.63245,0.31623 -0.18524,1.21066 0.44722,0.89443 z" /><path
       style="fill:#000000;fill-opacity:1;stroke:none;stroke-width:5;stroke-linejoin:bevel;stroke-dasharray:none;stroke-opacity:1"
       id="path445"
       d="m 650.75931,662.64452 c 1.34775,-0.0587 2.65736,-0.42819 3.98846,-0.62974 0.32866,-0.12147 0.75519,0.0222 1.07021,-0.15374 0.25819,-0.14422 0.46221,-0.36907 0.69334,-0.55359 0.25561,-0.21728 1.96324,-1.17233 2.17282,-0.80346 -0.11079,0.0916 -0.0621,0.021 0.0492,0.22978 0.37866,0.71057 1.03235,0.58173 1.71996,0.47085 1.16441,-0.16274 2.48875,-0.60523 3.63366,-0.12674 0.60404,0.31625 1.31941,0.0558 1.96458,0.0453 0.20774,-0.003 0.41522,0.0162 0.62282,0.0243 0.61458,0.0381 1.17407,0.32114 1.76915,0.44136 0.42329,0.0855 0.61529,0.0787 1.06279,0.10446 1.72775,-0.0564 3.10093,0.0468 4.73619,0.62639 2.63758,0.78087 5.56548,0.65395 8.29784,0.65341 0.98335,0.0113 1.99516,-0.0653 2.97364,0.0924 0.11694,0.0189 0.23044,0.0585 0.33977,0.10407 0.0334,0.0139 0.11523,0.0847 0.0815,0.0716 -0.0482,-0.0188 -0.0846,-0.0595 -0.12694,-0.0893 0.1824,0.64988 0.87369,0.69537 1.47332,0.71906 0.85893,-0.0835 0.42929,-0.034 1.28891,-0.14875 0.70086,-0.0938 0.56823,-1.08495 -0.13263,-0.99117 v 0 c -0.78547,0.10537 -0.4114,0.0593 -1.12194,0.14051 -0.10296,-0.003 -0.20591,-0.006 -0.30887,-0.009 -0.0591,-0.005 -0.1181,-0.0132 -0.17743,-0.0156 -0.15019,-0.006 0.0476,0.4183 -0.13685,-0.16198 -0.079,-0.0994 -0.13992,-0.21639 -0.23709,-0.29811 -0.74687,-0.62811 -3.03825,-0.35765 -3.91566,-0.41421 -1.57895,4.3e-4 -3.15913,0.007 -4.73619,-0.0856 -0.79912,-0.047 -1.66011,-0.10759 -2.45001,-0.2806 -0.26485,-0.058 -0.51999,-0.15378 -0.77999,-0.23067 -1.72596,-0.60143 -3.19167,-0.74857 -5.01313,-0.68143 -0.26955,-0.0137 -0.58173,-0.0166 -0.85256,-0.0703 -0.67105,-0.13285 -1.30249,-0.4578 -1.99967,-0.47645 -0.84355,-0.0254 -0.56489,-0.0428 -1.33934,0.0239 -0.14306,0.0123 -0.28585,0.0277 -0.42859,0.0432 -0.0726,0.008 -0.14623,0.0108 -0.21739,0.0272 -0.0112,0.003 -0.01,0.0315 -0.0205,0.0277 -0.0911,-0.0322 -0.17367,-0.0847 -0.26051,-0.12705 -1.35346,-0.48538 -2.79314,-0.18054 -4.1663,0.0774 -0.15129,0.0316 -0.30663,0.0477 -0.45386,0.0947 -0.141,0.045 -0.0775,0.17583 -0.11636,0.12845 -0.22348,-0.27258 -0.2438,-0.6836 -0.61712,-0.85416 -0.15819,-0.0521 -0.30936,-0.13534 -0.47458,-0.15641 -0.8588,-0.10955 -2.06229,0.63663 -2.73164,1.09698 -0.12737,0.10412 -0.2665,0.19532 -0.3821,0.31237 -0.012,0.0122 0.0315,0.0904 -0.0192,0.0985 -0.28885,0.0459 -0.59862,-0.002 -0.88332,0.0853 -1.20472,0.18329 -2.39444,0.4484 -3.59587,0.64827 -0.68599,-0.1715 -0.92853,0.79864 -0.24253,0.97014 z" /><path
       style="fill:#000000;fill-opacity:1;stroke:none;stroke-width:5;stroke-linejoin:bevel;stroke-dasharray:none;stroke-opacity:1"
       id="path447"
       d="m 654.09866,667.78954 c 1.55682,-0.20234 3.14791,-0.30859 4.71587,-0.19559 1.93715,0.28161 3.86136,-0.24059 5.7749,-0.49259 1.05728,-0.0608 2.5181,-0.4669 3.34226,0.42849 0.10229,0.0676 0.18977,0.16644 0.30686,0.20278 0.89651,0.27826 2.16386,0.17474 3.09688,0.24515 0.6559,0.0495 1.93013,0.19413 2.59734,0.2671 1.21011,0.0605 2.45861,0.42201 3.67488,0.21277 0.29701,-0.0511 0.58543,-0.14351 0.87814,-0.21526 1.77879,-0.41114 3.5961,-0.68395 5.42204,-0.74772 0.12296,10e-4 0.24643,-0.008 0.36887,0.003 0.32403,0.03 0.64,0.12121 0.96322,0.15886 1.24431,0.14497 2.47102,0.15263 3.72227,0.13892 0.70706,-0.008 0.69538,-1.00819 -0.0117,-0.99993 v 0 c -1.19296,0.0148 -2.36612,0.0114 -3.55281,-0.12646 -0.22947,-0.0267 -0.86949,-0.1504 -1.11288,-0.17136 -0.13706,-0.0118 -0.27513,-0.002 -0.41269,-0.003 -1.89647,0.0692 -3.78412,0.3474 -5.63145,0.77758 -0.2395,0.0628 -0.47514,0.1428 -0.7185,0.18842 -1.14724,0.21502 -2.33829,-0.17431 -3.48073,-0.21051 -0.71623,-0.0783 -1.94983,-0.2187 -2.65313,-0.27162 -0.87241,-0.0656 -1.76726,-0.0227 -2.63707,-0.10512 -0.0371,-0.004 -0.069,-0.0282 -0.10354,-0.0423 -1.1597,-1.15242 -2.69742,-0.867 -4.189,-0.72183 -1.3728,0.18122 -0.97668,0.11821 -2.32996,0.33897 -1.07996,0.17617 -2.15242,0.35819 -3.2452,0.14743 -1.67242,-0.11143 -3.36961,-0.0167 -5.02743,0.22306 -0.68599,0.1715 -0.44346,1.14164 0.24254,0.97014 z" /><path
       style="fill:#000000;fill-opacity:1;stroke:none;stroke-width:5;stroke-linejoin:bevel;stroke-dasharray:none;stroke-opacity:1"
       id="path448"
       d="m 721.41748,668.48362 c 1.86799,0.007 3.73033,0.0487 5.59017,-0.1405 1.46165,-0.0968 2.95434,-0.31935 4.40877,-0.058 0.83304,0.12874 1.4889,-0.36825 2.19042,-0.72761 0.72566,-0.37172 0.91688,-0.41916 1.70454,-0.72129 0.7935,-0.24187 1.68923,-0.59538 2.51983,-0.2767 0.20756,0.0796 0.38708,0.21891 0.58383,0.32242 1.7225,0.6131 3.60176,0.33641 5.38314,0.1932 0.66863,-0.0627 1.33793,-0.10976 2.00857,-0.14248 0.70626,-0.0347 0.65721,-1.03347 -0.049,-0.99879 v 0 c -0.681,0.0336 -1.36073,0.0805 -2.03969,0.14449 -1.59652,0.12848 -3.27478,0.38321 -4.83743,-0.0815 -0.16891,-0.0888 -0.67732,-0.36208 -0.82703,-0.41236 -1.0337,-0.34718 -2.11492,-0.004 -3.10156,0.31848 -0.86921,0.33602 -1.03366,0.37169 -1.83447,0.78237 -0.48103,0.24669 -0.95708,0.66671 -1.52894,0.61465 -1.54833,-0.26437 -3.12716,-0.0716 -4.68237,0.0483 -1.82592,0.18665 -3.6547,0.14003 -5.48873,0.13534 -0.70711,0 -0.70711,1 0,1 z" /><path
       style="fill:#000000;fill-opacity:1;stroke:none;stroke-width:5.1692;stroke-linejoin:bevel;stroke-dasharray:none;stroke-opacity:1"
       id="path450"
       d="m 747.35241,652.17165 c -1.32642,-0.004 -2.77403,0.0866 -4.08496,0.73751 -0.24288,0.12058 -0.46676,0.28498 -0.70013,0.42747 -0.95932,0.69462 -1.68534,1.51609 -1.97184,2.60919 -0.22834,0.90803 0.11942,1.59595 0.48421,2.30866 0.38955,0.80628 1.09101,1.37723 1.69437,2.01059 0.42938,0.41719 0.78822,0.96595 1.31997,1.27553 0.14645,0.0853 0.31298,0.13957 0.46948,0.20935 0.88207,0.23466 1.85663,0.16376 2.80643,0.1252 0.89617,0.007 1.81419,-0.13322 2.71895,-0.38743 0.89676,-0.31294 1.67176,-0.79548 2.41002,-1.43079 0.6795,-0.61965 0.96481,-1.37102 1.11785,-2.18458 0.14215,-0.56962 0.0913,-1.05731 -0.0381,-1.57087 -0.26228,-0.54371 -0.61378,-1.02407 -0.97659,-1.49573 -0.44823,-0.53191 -0.85523,-1.09555 -1.20499,-1.702 -0.40272,-0.56433 -1.13661,-0.72767 -1.8235,-0.87526 -0.67243,-0.10391 -1.37523,-0.0834 -2.07374,-0.0693 -0.25477,0.005 -0.51018,0.0142 -0.76409,0.014 -0.0116,-10e-5 -0.0231,-2e-4 -0.0346,-3e-4 -0.72992,-0.006 -0.9238,1.02781 -0.19339,1.03381 v 0 c 0.0141,1.1e-4 0.0281,2.2e-4 0.0421,3.3e-4 0.26119,1.9e-4 0.52372,-0.008 0.78598,-0.0142 0.62236,-0.0126 1.24867,-0.0332 1.85078,0.0488 0.44515,0.0915 0.96904,0.1747 1.27456,0.48582 0.3677,0.6366 0.79389,1.23087 1.26385,1.78999 0.29524,0.38318 0.58591,0.78483 0.8323,1.19729 0.0241,0.0929 0.12289,0.29089 0.12423,0.40122 0.003,0.2445 -0.0867,0.50596 -0.0975,0.75215 -0.0972,0.5478 -0.23843,1.03846 -0.69392,1.46564 -0.59468,0.51557 -1.19923,0.90508 -1.92455,1.1649 -0.81458,0.24361 -1.64555,0.34454 -2.45228,0.34351 -0.81336,0.0331 -1.64618,0.0957 -2.41608,-0.0615 -0.65498,-0.19822 -1.04018,-0.84704 -1.49946,-1.29047 -0.55064,-0.57765 -1.1992,-1.09456 -1.56188,-1.82363 -0.26641,-0.52002 -0.5781,-0.98279 -0.42136,-1.64976 0.17483,-0.77804 0.74055,-1.33349 1.39969,-1.83667 0.16281,-0.10664 0.31683,-0.23196 0.48842,-0.3199 1.17133,-0.60033 2.47863,-0.6563 3.66475,-0.65472 0.73104,0 0.91644,-1.03384 0.1854,-1.03384 z" /><path
       style="fill:#000000;fill-opacity:1;stroke:none;stroke-width:5;stroke-linejoin:bevel;stroke-dasharray:none;stroke-opacity:1"
       id="path451"
       d="m 704.92305,662.53017 c 1.40727,-0.12999 2.88065,-0.37976 4.29547,-0.19248 0.24826,0.0329 0.48665,0.11846 0.72997,0.17769 0.8373,0.11763 1.14442,1.09907 1.94478,1.27343 0.26313,0.0573 0.53755,0.0337 0.80632,0.0505 0.33873,-0.0388 0.67892,-0.0666 1.01621,-0.1164 0.41792,-0.0617 0.8323,-0.14548 1.24845,-0.21822 0.4523,-0.0742 0.90345,-0.15576 1.3569,-0.22258 1.17554,-0.17322 2.3548,-0.29119 3.53855,-0.38749 0.89232,-0.0102 1.67616,-0.44543 2.51984,-0.6587 0.58919,-0.14895 0.82623,-0.15648 1.44229,-0.23103 1.19674,-0.10788 2.39927,-0.0774 3.59879,-0.0541 0.70697,0.0137 0.72636,-0.9861 0.0194,-0.99981 v 0 c -1.24682,-0.0242 -2.49682,-0.0545 -3.7405,0.0614 -0.71336,0.0894 -0.93066,0.0926 -1.61459,0.2679 -0.77409,0.19837 -1.48909,0.59997 -2.30648,0.61762 -2.37035,0.19362 -4.71078,0.56931 -7.05727,0.94162 -0.12006,0.006 -0.49001,0.0699 -0.65295,-0.0279 -0.23258,-0.13955 -0.38766,-0.3806 -0.59816,-0.55165 -0.60294,-0.48995 -0.5389,-0.39648 -1.29613,-0.71885 -0.30443,-0.0675 -0.60397,-0.16309 -0.9133,-0.20256 -1.49464,-0.19072 -3.0485,0.0646 -4.5337,0.21102 -0.69337,0.13867 -0.49726,1.11925 0.19612,0.98058 z" /><path
       style="fill:#000000;fill-opacity:1;stroke:none;stroke-width:5;stroke-linejoin:bevel;stroke-dasharray:none;stroke-opacity:1"
       id="path452"
       d="m 642.61638,651.76575 c -0.77473,0.75178 -1.52364,1.58885 -1.84562,2.63804 -0.1383,0.85794 0.4137,1.14194 1.1594,1.12856 0.30474,-0.021 0.64853,0.0723 0.88567,0.27732 0.17331,0.25405 0.46416,0.31824 0.76474,0.31151 0.23917,-0.017 0.47885,-0.0243 0.71857,-0.0264 0.42496,0.0295 0.81188,-0.0168 1.2115,-0.17037 0.45254,-0.16918 0.77952,-0.44725 0.99963,-0.86448 0.10318,-0.34154 -0.076,-0.44018 0.0336,-0.23027 0.0254,0.0486 0.0658,-0.0879 0.10248,-0.12872 0.14901,-0.25013 0.14659,-0.24537 0.17395,-0.46548 0.0622,-0.70436 -0.93389,-0.79236 -0.99612,-0.088 v 0 c 0.12509,-0.16356 0.23681,-0.27839 0.0602,-0.0942 -0.16209,0.19475 -0.35794,0.51054 -0.32555,0.69879 0.26924,-0.30365 -0.2552,0.24542 -0.41036,0.24022 -0.0709,0.028 -0.1286,0.0921 -0.20401,0.10338 -0.21334,0.0318 -0.4397,-0.0245 -0.6544,-8.4e-4 -0.24943,0.002 -0.49888,0.009 -0.74774,0.0271 -0.0173,0.001 -0.0361,-0.003 -0.052,0.004 -0.0219,0.01 0.0467,0.0162 0.0639,0.0328 0.0391,0.0379 0.0585,0.1401 0.10967,0.12122 0.11083,-0.041 -0.36494,-0.25865 -0.23781,-0.26285 -0.4338,-0.31851 -0.98227,-0.51933 -1.52641,-0.48463 -0.0645,0.003 -0.16404,-0.0468 -0.19346,0.0107 -0.004,0.007 0.11276,0.42958 0.0248,0.13961 0.2348,-0.89224 0.97449,-1.57014 1.59253,-2.21025 0.5,-0.5 -0.20711,-1.2071 -0.70711,-0.7071 z" /><path
       style="fill:#000000;fill-opacity:1;stroke:none;stroke-width:5;stroke-linejoin:bevel;stroke-dasharray:none;stroke-opacity:1"
       id="path453"
       d="m 646.60481,654.54794 c 2.16343,0.0241 4.32928,-0.0607 6.49013,0.059 0.74936,-0.0252 1.50464,0.33935 2.24144,0.10685 0.13846,-0.0437 0.97064,-0.4585 1.06764,-0.50608 1.36857,-0.64992 2.92585,-1.04685 4.41831,-0.64672 1.01529,0.52166 2.2236,0.39631 3.33036,0.40184 1.09153,-0.0433 2.16142,-0.0529 3.22155,0.21537 0.80894,0.0708 1.60414,0.23678 2.41138,0.33237 1.65737,0.0953 3.3197,-0.13001 4.9767,-0.21923 1.01265,-0.0326 2.02676,-0.0904 3.0404,-0.0701 0.70698,0.0136 0.72627,-0.98617 0.0193,-0.99981 v 0 c -1.03805,-0.0193 -2.07645,0.036 -3.11348,0.0713 -1.60045,0.0862 -3.20543,0.30042 -4.80588,0.22465 -0.76384,-0.0895 -1.51619,-0.25499 -2.28309,-0.30868 -1.13889,-0.2882 -2.28992,-0.29608 -3.46201,-0.24592 -1.04051,-0.005 -2.13692,0.12038 -3.08877,-0.37101 -1.79227,-0.43739 -3.45658,-0.0593 -5.10514,0.71807 -0.0343,0.0168 -0.94317,0.50732 -0.99814,0.50909 -0.5752,0.0186 -1.24019,-0.29928 -1.81594,-0.21055 -2.17929,-0.11774 -4.36296,-0.0392 -6.54475,-0.0605 -0.7071,0 -0.7071,1 0,1 z" /><path
       style="fill:#000000;fill-opacity:1;stroke:none;stroke-width:5;stroke-linejoin:bevel;stroke-dasharray:none;stroke-opacity:1"
       id="path454"
       d="m 685.13398,653.97343 c 0.73622,0.20168 1.44204,0.13165 2.04747,-0.34218 0.45298,-0.0927 -0.5583,-0.26839 0.0546,0.10954 0.22767,0.13457 0.48835,0.17735 0.74687,0.2044 0.70386,0.0676 0.79953,-0.92777 0.0957,-0.99542 v 0 c -0.11804,-0.009 -0.23855,-0.0138 -0.34279,-0.0751 -0.0922,-0.042 -0.15597,-0.13847 -0.25254,-0.16906 -0.43461,-0.13771 -0.60589,-0.0752 -0.93841,0.15448 -0.32075,0.3089 -0.76636,0.24389 -1.16835,0.14325 -0.68599,-0.1715 -0.92853,0.79864 -0.24254,0.97014 z" /><path
       style="fill:#000000;fill-opacity:1;stroke:none;stroke-width:5;stroke-linejoin:bevel;stroke-dasharray:none;stroke-opacity:1"
       id="path456"
       d="m 615.07705,668.48362 c 1.52707,0 3.05413,0 4.58119,0 2.38206,-0.1275 4.69782,-0.75572 7.02177,-1.24737 0.81649,-0.12893 1.6271,-0.351 2.46067,-0.299 0.37446,0.0234 0.75428,0.13476 1.12241,0.20095 1.21706,0.18724 2.45269,0.0596 3.6731,0.17977 0.43794,-0.05 0.72852,0.25189 1.10091,0.38205 0.40084,0.14011 0.50711,0.12551 0.93636,0.17179 1.17379,0.16478 2.66403,-0.22034 3.76746,0.17357 0.85165,0.52882 1.70847,0.1162 2.57117,-0.18221 0.6663,-0.23674 0.33149,-1.17903 -0.3348,-0.94228 v 0 c -0.304,0.11147 -0.60687,0.22603 -0.91198,0.33443 -0.12014,0.0427 -0.2361,0.11742 -0.36358,0.11874 -0.23893,0.002 -0.4262,-0.28665 -0.65901,-0.28205 -0.17387,-0.0509 -0.34325,-0.12083 -0.52159,-0.15266 -1.13112,-0.20189 -2.31045,0.0715 -3.44861,-0.0626 -0.1907,-0.0169 -0.3896,-9.3e-4 -0.57095,-0.0623 -0.48924,-0.16555 -0.91085,-0.53662 -1.47141,-0.49204 -1.19461,-0.10863 -2.39925,-0.009 -3.59119,-0.1686 -0.43087,-0.0764 -0.85926,-0.19558 -1.29834,-0.21654 -0.90389,-0.0431 -1.78317,0.16792 -2.66765,0.32067 -2.25615,0.47759 -4.50373,1.08736 -6.81474,1.2257 -1.52706,0 -3.05412,0 -4.58119,0 -0.7071,0 -0.7071,1 0,1 z" /><path
       style="fill:#000000;fill-opacity:1;stroke:none;stroke-width:5;stroke-linejoin:bevel;stroke-dasharray:none;stroke-opacity:1"
       id="path457"
       d="m 696.97434,654.98236 c 0.0986,-0.6765 0.25782,-1.34368 0.41501,-2.00886 0.13136,-0.583 0.30732,-1.16396 0.65204,-1.65632 -0.0129,0.11385 -0.2854,0.0627 0.0602,0.10537 0.0928,0.0645 0.17544,0.15412 0.25452,0.23815 0.13848,0.17823 0.27694,0.37109 0.38817,0.56976 0.15315,0.24461 0.28013,0.50407 0.4116,0.76049 0.1017,0.27454 0.27202,0.51878 0.38591,0.78684 0.0938,0.1885 0.15929,0.3865 0.24554,0.57745 0.15652,0.3438 0.47357,0.49232 0.83001,0.52381 0.39161,0.0291 0.67603,-0.0969 1.0052,-0.30156 0.33682,-0.23505 0.68526,-0.33244 1.08861,-0.36454 0.048,-10e-4 0.0964,-0.009 0.14415,-0.004 0.0285,0.003 0.006,0.0248 0.0209,0.0339 0.0251,0.0153 0.0518,0.0285 0.0796,0.0384 0.22954,0.0814 0.21363,0.066 0.46275,0.10145 0.69491,0.0363 1.39141,0.0202 2.08694,0.014 0.59589,-0.005 1.1918,-0.005 1.78771,-0.004 0.78041,4.7e-4 1.56082,5.9e-4 2.34124,6.3e-4 0.77383,0.0403 1.53972,-0.0476 2.30936,-0.10659 0.82211,-0.0624 1.64687,-0.0597 2.4707,-0.0561 0.97237,0.006 1.94476,0.008 2.91715,0.008 0.48806,3e-5 0.97613,-3.8e-4 1.46419,-5.8e-4 0.0477,-10e-6 0.0954,-2e-5 0.14305,-4e-5 0.70711,-1.9e-4 0.70684,-1.00019 -2.7e-4,-1 v 0 c -0.0477,2e-5 -0.0955,3e-5 -0.14319,4e-5 -0.4877,2e-4 -0.97541,6.1e-4 -1.46312,5.8e-4 -0.97117,-6.3e-4 -1.94233,-0.003 -2.91348,-0.008 -0.85089,-0.004 -1.70271,-0.006 -2.55179,0.059 -0.74428,0.0576 -1.48407,0.14442 -2.23255,0.10364 -0.78031,-4e-5 -1.56062,-1.6e-4 -2.34093,-6.3e-4 -0.59897,-2.2e-4 -1.19795,-9e-4 -1.79691,0.005 -0.65174,0.006 -1.30401,0.0183 -1.95548,-0.007 -0.0507,-0.004 -0.10425,0.007 -0.1522,-0.0103 -0.25124,-0.0887 -0.48375,-0.22195 -0.76548,-0.16336 -0.55528,0.0522 -1.06511,0.19678 -1.5312,0.51285 -0.0501,0.0316 -0.10168,0.0609 -0.15033,0.0947 -0.0139,0.01 -0.009,0.0404 -0.0257,0.0436 -0.0803,0.016 -0.16722,10e-4 -0.24829,0.0123 0.0161,0.0194 0.11607,0.20023 -0.002,-0.003 0.007,0.10085 0.004,0.0177 -0.0418,-0.1208 -0.0452,-0.13693 -0.12655,-0.25667 -0.17191,-0.39286 -0.13137,-0.28005 -0.29155,-0.54616 -0.40851,-0.83334 -0.1434,-0.27185 -0.27529,-0.55071 -0.43972,-0.81107 -0.15783,-0.2581 -0.32554,-0.51768 -0.52227,-0.74703 -0.24175,-0.25345 -0.50324,-0.47279 -0.858,-0.54245 -0.41366,-0.0507 -0.71427,-0.0338 -1.0029,0.31568 -0.41481,0.59819 -0.64802,1.29057 -0.80471,1.99822 -0.17418,0.73975 -0.35976,1.48186 -0.44172,2.23843 0,0.70711 1,0.70711 1,0 z" /></g></svg>
