<?xml version="1.0" encoding="UTF-8" standalone="no"?>
<!-- Created with Inkscape (http://www.inkscape.org/) -->

<svg
   width="152.51117"
   height="57.301697"
   viewBox="0 0 152.51117 57.301697"
   version="1.1"
   id="svg1"
   xml:space="preserve"
   xmlns="http://www.w3.org/2000/svg"
   xmlns:svg="http://www.w3.org/2000/svg"><defs
     id="defs1" /><g
     id="layer9"
     style="display:inline"
     transform="translate(-424.01154,-624.65393)"><path
       style="fill:#ffffff;fill-opacity:1;stroke:#000000;stroke-width:2;stroke-linejoin:bevel"
       d="m 451.47078,664.44158 18.01825,-18.89416 9.51825,-19.89416 96.59853,3.50365 -8.77007,20.14963 -16.13504,18.82481 -19.39407,12.82482 -106.86131,-3.50365 z"
       id="path8" /><path
       style="fill:none;fill-opacity:1;stroke:#000000;stroke-width:1;stroke-linecap:round;stroke-linejoin:round;stroke-dasharray:none;stroke-opacity:1"
       id="path738"
       d="m 476.75,650.4951 c 4.24633,0.0907 8.50508,-0.16159 12.75,-0.0123 0.85415,0.03 3.13887,-0.17014 3.93319,0.94101 0.0996,0.13939 -0.14046,0.31258 -0.21069,0.46887 0.27977,0.17165 -0.6306,0.6248 -0.42758,0.88003 0.74185,0.93262 2.6613,0.67022 3.59565,0.68806 1.09524,0.0209 2.1907,0.0279 3.28606,0.0419 5.1161,0.0243 10.23225,-0.003 15.34835,-0.0141 1.31019,-0.003 2.62037,-0.007 3.93057,-0.008 0.7459,-6.4e-4 1.49432,-0.0587 2.23769,0.003 0.21946,0.0181 0.41208,0.15539 0.61812,0.23308 -0.13626,-0.13173 -0.27253,-0.26347 -0.40879,-0.3952 -0.002,-0.0442 -0.0314,-0.1691 -0.006,-0.13254 0.20425,0.29994 0.22883,0.77647 0.55429,0.93696 0.3622,0.17862 0.80617,-0.0504 1.20967,-0.0671 0.67083,-0.0278 1.34209,-0.089 2.01311,-0.0663 0.7941,0.0269 1.58265,0.1431 2.37397,0.21466 1.96018,0.19832 3.99938,0.20367 5.68837,1.35699 0.16418,0.11211 0.23348,0.32385 0.37345,0.46504 0.65347,0.65918 0.56224,0.48293 1.55194,0.74355 0.54028,-0.02 1.09082,0.0466 1.62084,-0.0602 0.69207,-0.13935 1.33135,-0.47238 2.00888,-0.6707 2.29372,-0.67138 4.23968,-1.08017 6.60048,-0.69573 1.91493,0.15294 3.89229,0.4115 5.8116,0.14492 0.69716,-0.10978 0.54191,-1.09571 -0.15525,-0.98593 v 0 c -1.79684,0.33576 -3.70684,-0.0472 -5.50383,-0.139 -2.57936,-0.38522 -4.56593,-0.002 -7.07282,0.74465 -0.58734,0.17495 -1.13432,0.4825 -1.73276,0.61455 -0.45053,0.0994 -0.92145,0.0485 -1.38217,0.0728 -1.18718,-0.10023 -0.75909,-0.51927 -1.67018,-1.11216 -1.82395,-1.18692 -3.95097,-1.26579 -6.05101,-1.45575 -2.95383,-0.26236 -1.8332,-0.26171 -4.52735,-0.16073 -0.38485,0.0144 -0.85426,-0.18311 -1.15385,0.0589 -0.24326,0.1965 -0.25578,0.67875 -0.0766,0.93501 0.25101,0.35893 1.1915,-1.65681 0.24242,-1.29141 -0.30926,-0.0903 -0.60669,-0.24443 -0.92777,-0.27082 -0.74379,-0.0611 -1.49258,0.007 -2.23887,0.0105 -1.31025,0.006 -2.62051,0.0102 -3.93076,0.0155 -5.11041,0.0204 -10.22095,0.0423 -15.33134,0.002 -5.00971,-0.0795 -1.52737,-0.004 -5.22736,-0.11855 -0.32757,-0.0101 -0.74557,-0.25006 -0.98289,-0.024 -0.18361,0.17487 0.10053,0.51602 0.25602,0.71631 0.27265,0.35119 -0.20852,-3.69201 0.47867,-1.24497 -0.0911,-0.42704 0.006,-0.94499 -0.27319,-1.28112 -0.9561,-1.15319 -3.36767,-1.02333 -4.44181,-1.059 -4.24515,-0.14097 -8.50351,0.10613 -12.75,-0.0123 -0.70017,0 -0.70017,0.9902 0,0.9902 z" /><path
       style="fill:none;fill-opacity:1;stroke:#000000;stroke-width:1;stroke-linecap:round;stroke-linejoin:round;stroke-dasharray:none;stroke-opacity:1"
       id="path739"
       d="m 479.5,655.48824 c 4.21548,-0.004 3.3718,-0.006 7.25,-9.8e-4 0.75,9.3e-4 1.50212,-0.0525 2.25,0.004 0.12647,0.01 1.14588,0.1866 1.40237,0.45407 0.0362,0.0377 -0.0237,0.10175 -0.0356,0.15262 0.0557,0.15065 0.0717,0.3227 0.16704,0.45196 0.58765,0.7967 2.19567,2.06532 3.19768,2.20684 0.45429,0.0642 0.91759,0.003 1.37639,0.004 1.81854,-0.27499 3.66306,-0.22146 5.48937,-0.3304 0.14296,-0.009 -0.29016,-0.0484 -0.42939,-0.0148 -0.0844,-0.42863 0.0708,0.41111 0.56011,0.72538 0.15416,0.099 0.3616,-0.0617 0.54408,-0.0781 0.75472,-0.0677 2.38295,-0.13091 2.9734,-0.10605 1.01364,0.0427 2.02254,0.1627 3.03381,0.24405 3.99696,0.48604 8.00291,0.97746 11.95067,1.78633 0.78149,0.16012 1.56442,0.32521 2.32643,0.56123 1.14359,0.35421 1.16532,0.17403 0.90148,0.64942 -0.0295,-0.0695 -0.0147,-0.19298 -0.0886,-0.20862 -0.072,-0.0152 -0.10137,0.107 -0.15544,0.15699 -0.0323,0.0298 -0.1459,0.0922 -0.10315,0.0821 0.928,-0.22095 -2.22984,-0.54128 0.8657,0.83013 0.38909,0.17237 0.85019,-0.0397 1.27529,-0.0596 4.54873,-0.0791 9.09861,-0.0106 13.64775,0.003 0.56908,0.002 0.24345,0.0757 0.0304,-1.00092 -0.70588,-0.0129 -0.72418,0.98532 -0.0183,0.99826 v 0 c 0.21538,-1.06416 0.5393,-1.0068 -0.0117,-0.98683 -4.56423,0.0101 -9.1287,-0.0745 -13.69261,-0.002 -0.44384,0.0192 -0.95756,-0.18221 -1.33151,0.0576 -0.30983,0.19872 -0.33014,0.67288 -0.37673,1.03801 -0.0657,0.51525 1.56406,-1.58825 0.89764,-1.24113 -0.14318,-0.24958 -0.20353,-0.57066 -0.42954,-0.74873 -0.69975,-0.55134 -3.09226,-0.98968 -3.56511,-1.08523 -3.98051,-0.80434 -8.0168,-1.30238 -12.04372,-1.8023 -3.06215,-0.2508 -2.51721,-0.30991 -5.05378,-0.22339 -0.3468,0.0118 -2.47078,-0.23303 -1.34895,0.93544 0.0929,0.0968 0.13003,-0.23468 0.19504,-0.35202 0.0239,-0.54191 0.16909,-0.84509 -0.54853,-1.15155 -0.25827,-0.1103 -0.56178,-0.009 -0.8425,-10e-4 -1.55916,0.0435 -3.11186,0.19188 -4.66422,0.33475 -0.35892,0.0118 -0.7187,0.0631 -1.07674,0.0353 -0.23053,-0.0178 -0.46637,-0.0656 -0.67231,-0.17076 -0.24223,-0.12364 -1.70763,-1.1995 -1.88001,-1.4349 -0.11544,-0.15764 -0.13864,-0.36536 -0.20796,-0.54804 -0.13687,-0.19913 -0.22773,-0.43945 -0.41061,-0.59738 -0.88508,-0.76432 -3.21283,-0.54311 -4.09763,-0.542 -3.8782,0.005 -3.03452,0.003 -7.25,-9.8e-4 -0.69047,0 -0.69047,0.97647 0,0.97647 z" /><path
       style="fill:none;fill-opacity:1;stroke:#000000;stroke-width:1;stroke-linecap:round;stroke-linejoin:round;stroke-dasharray:none;stroke-opacity:1"
       id="path740"
       d="m 466.5,661.49412 c 2.31292,-0.004 2.68707,-0.006 5,-0.004 0.58333,4e-4 1.16963,-0.0558 1.75,0.003 0.11382,0.0115 0.36275,0.12597 0.27737,0.20211 -0.14984,0.13364 -0.39776,0.0551 -0.59664,0.0826 -0.19472,0.26966 -0.38944,0.53932 -0.58416,0.80897 -0.0112,0.0127 -0.73607,0.74291 -0.62208,0.91547 0.72044,1.09068 1.40808,0.70702 2.4959,0.64733 0.86641,-0.0475 1.73271,-0.0999 2.59992,-0.12918 1.21401,-0.041 2.42879,-0.0545 3.64319,-0.0818 1.61425,-0.007 3.22848,-0.021 4.84274,-0.0202 2.74762,10e-4 5.15028,0.0304 7.865,0.0606 0.69529,0.008 1.39347,-0.0394 2.08587,0.0245 0.27205,0.0251 0.55591,0.39117 0.78363,0.24021 0.17833,-0.11821 -0.29167,-0.3131 -0.4375,-0.46966 -0.24129,-0.50968 -0.78177,0.40801 0.307,0.7767 0.42919,0.14533 0.88467,-0.19874 1.32063,-0.32232 0.87434,-0.24786 1.72834,-0.56693 2.60892,-0.79161 0.95835,-0.24454 1.9352,-0.40984 2.9028,-0.61476 2.52166,-0.19962 2.65333,-0.32172 4.96132,-0.14283 10e-4,9e-5 1.64747,0.16697 2.01787,0.34288 0.056,0.0266 -0.13225,0.0815 -0.18088,0.0431 -0.0807,-0.0638 -0.082,-0.18874 -0.12293,-0.28312 0.17135,0.28341 0.22332,0.69161 0.51405,0.85023 0.10345,0.0564 2.02929,-0.0901 2.22705,-0.1 0.53486,-0.0267 2.71618,-0.11011 3.20278,-0.0776 0.61884,0.0414 1.2288,0.16956 1.84319,0.25434 1.81207,0.66782 3.74481,0.84534 5.61196,1.28366 1.02246,0.24003 2.03751,0.59166 3.02779,0.94298 1.78853,0.50848 3.63376,-0.11085 5.44455,0.0279 0.40957,0.0314 0.80609,0.15863 1.20914,0.23795 0.26905,0.0845 0.53811,0.16901 0.80717,0.25351 0.0537,-0.28021 -0.14168,0.30618 -0.1214,0.22377 0.0307,-0.12472 -0.0241,-0.36168 0.10402,-0.37102 1.66893,-0.12171 0.26538,1.07477 1.55508,-0.46093 0.44574,-0.54105 -0.31942,-1.17142 -0.76516,-0.63037 v 0 c -0.45292,0.55851 -1.47468,1.21043 -0.16121,1.86792 0.1676,0.0839 0.2255,-0.31402 0.26093,-0.49806 0.16228,-0.84295 -0.88626,-1.27316 -1.49736,-1.35745 -0.47284,-0.0846 -0.93954,-0.21757 -1.41852,-0.25393 -1.69198,-0.12844 -3.40964,0.42327 -5.08556,0.0242 -1.03737,-0.36685 -2.10065,-0.72193 -3.17161,-0.97281 -1.88583,-0.44177 -3.83519,-0.62601 -5.66744,-1.29326 -0.66224,-0.0884 -1.3201,-0.2206 -1.98673,-0.26515 -0.4846,-0.0324 -2.72076,0.0503 -3.2545,0.0758 -0.4017,0.0193 -0.80296,0.047 -1.20413,0.0752 -0.225,0.0159 -0.52443,-0.1115 -0.67427,0.0571 -0.15448,0.17382 0.002,0.46509 0.004,0.69763 0.0722,-0.24808 0.26743,-0.49087 0.21673,-0.74424 -0.12025,-0.601 -0.72466,-0.66408 -1.17312,-0.73658 -2.23236,-0.36088 -4.48435,-0.34393 -6.72479,-0.0261 -4.99177,1.05895 -1.01249,0.12958 -5.54248,1.39978 -0.89926,0.25215 -1.72483,0.007 -1.57205,1.35426 0.0422,0.37155 1.32871,-0.5956 1.0571,-0.37547 -0.0586,-0.31931 0.0529,-0.72752 -0.17578,-0.95794 -0.40568,-0.40874 -2.6637,-0.27867 -3.12659,-0.28218 -4.24577,-0.0322 -8.49165,-0.0721 -12.73758,-0.0378 -3.2801,0.0666 -3.34938,0.0364 -6.28814,0.19529 -0.44085,0.0238 -0.922,-0.0962 -1.32126,0.0922 -0.19417,0.0916 -0.11602,0.41358 -0.18284,0.61763 -0.0181,0.0551 0.0242,-0.11345 0.0363,-0.17017 0.15553,-0.17979 0.31107,-0.35958 0.46661,-0.53937 0.50445,-0.71296 1.16354,-1.32084 0.81919,-2.35842 -0.0821,-0.24728 -0.46392,-0.26703 -0.72263,-0.29789 -0.57923,-0.0691 -1.16667,0.003 -1.75,0.003 -2.31293,0.002 -2.68708,-2.9e-4 -5,-0.004 -0.69879,0 -0.69879,0.98824 0,0.98824 z" /><path
       style="fill:none;fill-opacity:1;stroke:#000000;stroke-width:1;stroke-linecap:round;stroke-linejoin:round;stroke-dasharray:none;stroke-opacity:1"
       id="path741"
       d="m 491.75,675.49314 c 2.63516,0.0144 5.27117,-0.0302 7.90625,0.007 0.30138,0.0906 -0.16638,-0.44497 -0.0864,0.36376 0.062,0.6274 -0.22004,0.14224 0.84004,0.80171 0.26859,-0.13737 0.52079,-0.31313 0.80577,-0.41213 0.40772,-0.14163 0.84045,-0.19733 1.25844,-0.30492 1.16192,-0.29909 2.61083,-0.90746 3.83486,-0.57781 0.054,0.0252 0.22154,0.0798 0.16206,0.0757 -0.0909,-0.006 -0.25747,-0.17359 -0.26065,-0.0825 -0.005,0.15706 0.33171,0.63623 0.5255,0.69973 0.42893,0.14053 0.74891,0.0455 1.16574,-0.0197 0.98492,-0.13195 1.98446,-0.0922 2.97414,-0.0425 0.70441,0.032 0.7497,-0.96416 0.0453,-0.99619 v 0 c -1.05717,-0.0433 -2.12321,-0.0925 -3.17468,0.0547 -0.15055,0.024 -0.31127,0.0126 -0.45166,0.072 -0.0351,0.0149 0.009,0.0756 0.0136,0.11343 -0.32413,-0.0673 0.11887,-0.0227 -0.45952,-0.72263 -0.076,-0.092 -0.22301,-0.0849 -0.33452,-0.12743 -1.46095,-0.2611 -2.8785,0.22334 -4.28135,0.59406 -0.49136,0.12986 -0.99492,0.21846 -1.47593,0.38258 -0.2271,0.0775 -0.42376,0.22525 -0.63564,0.33787 0.14173,0.2157 0.22468,0.48458 0.42518,0.64709 0.0713,0.0578 0.0371,-0.1813 0.0362,-0.27314 -0.006,-0.58052 -0.15688,-1.55416 -0.92649,-1.58348 -2.63508,0.0369 -5.27109,-0.008 -7.90625,0.007 -0.6974,0 -0.6974,0.98628 0,0.98628 z" /><path
       style="fill:none;fill-opacity:1;stroke:#000000;stroke-width:1;stroke-linecap:round;stroke-linejoin:round;stroke-dasharray:none;stroke-opacity:1"
       id="path742"
       d="m 554.34708,632.23539 c 1.37717,-0.19769 1.76223,-0.2843 3.0727,-0.36783 0.15144,-0.01 0.43691,0.15612 0.45522,0.005 0.18389,-1.51268 -0.81318,-0.78855 -1.28427,-0.47742 -0.0975,0.25495 -0.3106,0.49248 -0.29259,0.76485 0.0471,0.71208 0.92104,1.53582 1.63155,1.51812 0.14262,-0.004 0.26865,-0.0961 0.40298,-0.14422 1.26516,-0.19705 2.60278,-0.0453 3.8886,-0.0264 0.27634,0.009 0.55237,0.005 0.82825,-0.009 0.7056,-0.0355 0.65538,-1.03337 -0.0502,-0.99786 v 0 c -0.25494,0.0131 -0.50794,0.0331 -0.76452,0.0134 -1.4353,-0.0179 -2.96651,-0.25159 -4.35651,0.1308 0.0496,0.0342 0.15235,0.16837 0.0937,0.15457 -0.22643,-0.0533 -0.29909,-0.37795 -0.50977,-0.47654 -0.0643,-0.0301 -0.13836,0.11739 -0.19784,0.0787 -0.0668,-0.0435 -0.0284,-0.15677 -0.0426,-0.23515 0.0329,-0.0579 0.0371,-0.14836 0.0987,-0.17362 0.16385,-0.0672 0.44611,0.0765 0.5249,-0.0821 0.15342,-0.30885 0.18405,-0.7258 0.0296,-1.03415 -0.0813,-0.16238 -0.36361,-0.007 -0.54478,0.005 -1.36314,0.0946 -1.74384,0.17834 -3.1773,0.38216 -0.68644,0.13729 -0.49228,1.10807 0.19416,0.97078 z" /><path
       style="fill:none;fill-opacity:1;stroke:#000000;stroke-width:1;stroke-linecap:round;stroke-linejoin:round;stroke-dasharray:none;stroke-opacity:1"
       id="path743"
       d="m 462.75,668.4951 c 2.05681,0.11784 5.72126,-0.44098 7.5252,0.72151 0.39225,0.25277 0.57484,0.82707 0.74004,1.23747 0.0755,0.10097 0.10041,0.2986 0.22639,0.3029 1.2609,0.0431 1.6896,-0.48978 2.80728,-0.97165 1.86916,-0.80587 2.98735,-1.15371 4.99025,-1.18123 0.16483,0.0546 0.36253,0.051 0.49448,0.16387 0.26555,0.22715 -0.21247,0.20412 -0.19854,0.20724 1.08071,0.2416 0.83449,0.20874 1.63057,-0.0746 1.39007,-0.25835 2.6444,0.22254 3.95777,0.59136 0.17514,0.0492 0.40093,0.2825 0.5249,0.14937 0.11097,-0.11917 -0.25985,-0.19632 -0.38977,-0.29448 -0.0816,0.70101 0.90975,0.81646 0.99138,0.11544 v 0 c -0.11108,-0.25994 -0.14071,-0.57285 -0.33325,-0.77983 -0.12412,-0.13343 -0.3515,-0.0963 -0.5271,-0.14506 -0.36978,-0.10262 -0.73871,-0.20827 -1.10901,-0.30898 -1.18817,-0.32315 -2.26959,-0.53047 -3.49841,-0.24615 -0.49991,0.22772 -1.30413,0.5297 -1.17645,0.80159 0.14073,0.29969 0.58279,0.51621 0.89979,0.42065 0.74017,-0.22313 -0.91451,-2.22918 -1.28999,-1.58983 -0.46903,0.0153 -0.94286,-0.0227 -1.4071,0.0459 -1.4302,0.21126 -2.6744,0.67387 -4.00109,1.24164 -0.49127,0.21025 -1.00982,0.39086 -1.43518,0.7143 -0.42813,0.32555 0.0249,0.65949 -0.2499,0.42945 -0.35648,-0.73906 -0.51833,-1.26665 -1.32246,-1.76253 -1.94082,-1.19684 -5.65633,-0.6606 -7.8498,-0.77849 -0.70017,0 -0.70017,0.9902 0,0.9902 z" /><path
       style="fill:none;fill-opacity:1;stroke:#000000;stroke-width:1;stroke-linecap:round;stroke-linejoin:round;stroke-dasharray:none;stroke-opacity:1"
       id="path744"
       d="m 487.25,628.9951 c 1.06247,-0.008 2.12506,0.007 3.1875,0.005 -0.13271,-0.0336 -0.26298,-0.12261 -0.39813,-0.1008 -0.27915,0.0451 0.29654,0.4974 0.52086,0.66953 0.38387,0.29456 0.88482,0.44738 1.3444,0.54811 0.65557,-0.13174 1.30179,-0.14962 1.96913,-0.12631 0.58467,0.0128 0.49218,0.0134 1.09075,0.0155 0.1,3.4e-4 0.36412,0.0757 0.29992,-9.3e-4 -0.88933,-1.06166 -0.27615,0.26352 -0.12785,0.45211 0.22411,0.0552 0.44228,0.14695 0.67234,0.16554 0.18673,0.0151 0.37156,-0.0489 0.55811,-0.0661 0.7531,-0.0693 1.51994,-0.12559 2.27602,-0.0737 -0.30084,-0.0477 -1.17125,-0.14663 -0.14381,-0.9737 0.20169,-0.16235 0.35943,0.39328 0.59635,0.49771 0.0712,0.0314 0.11264,-0.10739 0.17006,-0.1599 0.49186,-0.44985 0.23704,-0.29134 0.81231,-0.52145 0.64332,-0.10513 1.19181,0.22606 1.82481,0.20419 0.071,-0.009 0.14192,-0.0177 0.21288,-0.0265 0.70021,-0.0909 0.57165,-1.08115 -0.12856,-0.99025 v 0 c -0.0506,0.007 -0.10128,0.0139 -0.15191,0.0209 -0.57452,0.0915 -1.54973,-0.5435 -2.17282,-0.11266 -0.20489,0.10179 -1.43104,0.75514 -1.43152,1.08802 -5.1e-4,0.34809 -0.0392,0.98368 0.30864,0.99764 0.34417,0.0138 0.69934,-1.08768 0.16461,-1.02014 -0.56278,-0.0312 -2.53948,-0.0766 -2.89356,0.1383 -0.0508,0.0308 0.0459,0.10971 0.0689,0.16457 -0.32201,-0.2151 -0.06,-0.28627 -0.62163,-0.78227 -0.10425,-0.0921 -1.16282,0.0726 -1.34833,-0.0128 -0.60437,-0.0222 -1.27446,-0.0806 -1.83751,0.13931 -0.3521,-0.0192 -0.15444,0.022 -0.57502,-0.19943 -0.15971,-0.0841 -0.29854,-0.25405 -0.47903,-0.25246 -0.0859,7.6e-4 0.0505,0.33817 0.0241,0.25647 -0.25303,-0.78286 0.41747,0.16983 -0.60453,-0.93774 -1.06244,-0.003 -2.12503,0.0127 -3.1875,0.005 -0.70017,0 -0.70017,0.9902 0,0.9902 z" /><path
       style="fill:none;fill-opacity:1;stroke:#000000;stroke-width:1;stroke-linecap:round;stroke-linejoin:round;stroke-dasharray:none;stroke-opacity:1"
       id="path745"
       d="m 478.22165,641.94329 c 0.62625,-0.25888 2.12946,-1.10271 2.59296,-0.0553 0.32629,0.73732 0.0168,0.28329 0.004,0.80025 -0.004,0.1742 0.0433,0.34582 0.0649,0.51873 0.4886,1.22271 1.3629,-0.0344 2.03214,0.2276 0.0483,0.0189 -0.0454,0.0933 -0.0681,0.14002 -0.0325,0.004 -0.10322,-0.0206 -0.0974,0.0115 0.11523,0.64153 0.49226,1.32979 1.31272,0.49112 0.067,-0.0685 -0.0275,-1.05133 -0.0409,-1.21482 -0.1031,-0.55757 0.16563,-0.96271 -0.32261,-0.0843 -0.0314,0.0565 -0.1063,0.0936 -0.11265,0.15801 -0.009,0.0866 0.0295,0.17151 0.0443,0.25726 0.23252,0.16191 0.42709,0.4013 0.69757,0.48571 0.21384,0.0667 0.42206,-0.15596 0.64189,-0.19907 0.29348,-0.0576 0.58122,-0.0195 0.8791,-0.004 0.3872,0.0312 0.1839,0.0189 0.61005,0.0344 0.70493,0.0247 0.73991,-0.9722 0.035,-0.99694 v 0 c -0.39276,-0.0133 -0.19458,-0.003 -0.59449,-0.0326 -0.39708,-0.0201 -0.79272,-0.0608 -1.18353,0.0351 -0.64533,0.15844 -0.46415,0.0784 -0.0871,0.65968 -0.0444,-0.43212 -0.26763,-1.36449 -0.8611,-1.39283 -1.00637,-0.0481 -0.77051,0.67297 -0.73912,1.1637 0.0129,0.14851 0.0272,0.29691 0.0388,0.44552 0.0112,0.14307 -0.0946,0.35777 0.0297,0.42951 1.51663,0.87544 0.53187,-0.596 0.41449,-0.98953 -0.2206,-0.13041 -0.41507,-0.32205 -0.66182,-0.39123 -0.0871,-0.0244 -1.17976,0.12769 -1.16678,0.258 0.0103,0.10364 0.12321,0.16795 0.18482,0.25193 -5.1e-4,0.0309 -0.001,0.0618 -0.002,0.0927 -0.20177,-0.7771 0.21807,-1.1651 -0.43134,-1.93103 -0.98931,-1.16681 -2.53238,-0.57757 -3.65704,-0.0553 -0.62691,0.31345 -0.18361,1.20004 0.4433,0.88658 z" /><path
       style="fill:none;fill-opacity:1;stroke:#000000;stroke-width:1;stroke-linecap:round;stroke-linejoin:round;stroke-dasharray:none;stroke-opacity:0.544737"
       d="m 451.47078,664.44158 99.22992,3.68977"
       id="path735" /><path
       style="fill:none;fill-opacity:1;stroke:#000000;stroke-width:1;stroke-linecap:round;stroke-linejoin:round;stroke-dasharray:none;stroke-opacity:0.544737"
       d="m 469.48903,645.54742 97.34671,3.75912"
       id="path734" /><path
       style="fill:none;fill-opacity:1;stroke:#000000;stroke-width:1;stroke-linecap:round;stroke-linejoin:round;stroke-dasharray:none;stroke-opacity:1"
       id="path737"
       d="m 484.25,636 c 2.34804,-0.28738 4.69101,-0.65257 7.0625,-0.625 0.033,3.8e-4 -0.0861,0.0403 -0.0986,0.01 -0.1161,-0.28246 -0.17244,-0.58593 -0.25867,-0.8789 -1.05474,0.0139 -1.26811,0.60333 -1.06919,1.50517 0.0348,0.15791 0.034,0.33033 0.11194,0.47202 0.1146,0.20838 0.30097,0.36829 0.45146,0.55243 0.4421,0.0699 0.87913,0.19006 1.32629,0.20958 1.14055,0.0498 2.4915,-0.29357 3.56581,-0.46954 1.49298,-0.24456 2.96511,-0.48985 4.47967,-0.43974 -0.55338,-0.59459 -0.58357,-0.30629 -0.39708,-0.77366 -0.6352,0.31067 -0.19585,1.20899 0.43935,0.89832 v 0 c 0.63741,-0.59993 0.5369,-0.23888 -0.0138,-1.12425 -2.94129,-0.0723 -5.77352,0.83655 -8.69757,0.98781 -0.36242,-0.14503 -0.11756,0.0102 -0.30379,-0.58493 -0.12285,-0.39263 -0.0236,-0.036 -0.20878,-0.0937 -0.15643,-0.0487 0.13111,-1.05356 0.46772,-0.15116 0.18461,-0.33464 0.4849,-0.62799 0.55383,-1.0039 0.0288,-0.15713 -0.90749,-0.1372 -1.44437,-0.11418 -2.00143,0.0858 -3.98185,0.37058 -5.96674,0.62389 -0.70711,0 -0.70711,1 0,1 z" /></g></svg>
