<?xml version="1.0" encoding="UTF-8"?>
<svg width="142.78" height="140.36" version="1.1" viewBox="0 0 142.78 140.36" xml:space="preserve" xmlns="http://www.w3.org/2000/svg"><g transform="translate(-544.96 -376)" stroke="#000" stroke-linejoin="bevel" stroke-width="2"><path d="m546.58 380.74-0.62685 134.64 24.783-4.2347 35.39 1.4222 37.511-1.4062 41.047 1.4222 2.0449-44.237-6.4404-47.772 2.752-23.731-1.4906-15.953z" fill="#bfb49d"/><ellipse cx="606" cy="383" rx="4" ry="6" fill="#d62421"/><path d="m557 472h10c5.1917 0 11.937 1.2658 17 0 4.3815-1.0954 8.4685-1 13-1 1.5978 0 4-2.0404 4 0" fill="none"/><path d="m599.84 482c-2-0.33333-3.9848-0.77609-6-1-1.9953-0.2217-8.1001-0.94994-10 0-0.29814 0.14907 0.2357 0.7643 0 1-0.94281 0.94281-2.7065 0.32338-4 0-3.2985-0.82461-8.367-4.8165-12-3-1.715 0.85752-0.68217 3-1 3-0.33333 0 0.2357-0.7643 0-1-0.95186-0.95186-7.6255 0-9 0" fill="none"/><path d="m629 489c3.0808-5.0359 6.2352 2 8 2 0.71036 0-1.0246-2.3251 1-3 5.1176-1.7058 7.4804 2 9 2 2.0963 0-0.0914-1.2272 3-2 4.7906-1.1977 13.808 0 19 0" fill="none"/><path d="m660.97 474c-6.3283-0.17165-12.678 0.37191-19 0-3.9373-0.2316-12.354-2.8228-16-1-2.4734 1.2367-5.0285 1-8 1" fill="none"/><path d="m618 455.24h10c6.8212 0 13.176-2 20-2 3.5866 0 6.5168-1 10-1h2" fill="none"/><path d="m556.9 399.04c1.632-2.4503 10.132-6.4009 12.815-2.9622 0.41006 0.52563 0.0993 1.3296 0.14889 1.9944 0.0993 1.3296 0.46121 2.6656 0.29778 3.9889-0.0577 0.46784-0.74394 0.6355-0.92278 1.0717-0.12646 0.30841 0.0993 1.3296 0.0744 0.99722-0.0744-0.99722-0.39297-2.0062-0.22333-2.9917 0.26511-1.5401 5.1288-3.789 2.9172-1.2206-3.9913 4.6353 0.27584 0.13657-3.7656 3.2894-0.58112 0.45336-2.0796 3.1636-2.7683 3.215-0.66004 0.0493 1.0764-4.866 4.465-7.3528 0.81086-0.59508 14.581-4.2412 15.807-3.1856 4.2882 3.6925-21.323 7.767-22.564 6.6984-1.1901-1.0248 5.9462-2.0841 8.8261-2.6645 1.3473-0.27153 2.5636-1.042 3.9144-1.295 2.6211-0.49097 5.3185-0.39704 7.9778-0.59556 1.3296-0.0993 3.3055-1.4427 3.9889-0.29779 2.3822 3.9908-8.5694 6.1041-8.5284 6.6534 0.0574 0.76838 3.6674-3.0015 8.6772-4.6589 5.7031-1.8867 12.78-3.3602 18.724-4.4061 1.0547-0.18559 6.4945-0.93963 6.9806-0.52111 1.4481 1.2469-1.1951 2.9285-1.7711 3.1406-0.98212 0.36164-10.076 1.9488-10.821 2.8134-1.5984 1.8563 4.6297 0.16918 6.9806-0.52112 3.2616-0.95773 6.5212-1.932 9.8234-2.7389 3.8991-0.95279 7.9815-0.98659 11.892-1.8906 2.5501-0.58946 8.69-2.5063 6.9806-0.52112-2.6934 3.128-24.494 7.7166-24.41 8.8417 0.26238 3.5148 1.7332-1.1771 4.8372-2.3667 2.2009-0.84347 4.5956-1.0527 6.9061-1.5184 8.9945-1.8127 17.648-3.323 26.776-4.0045 2.4332-0.18164-5.0193 4.8424-6.6084 5.5072-0.3075 0.12866-0.66482 0.0496-0.99722 0.0744-0.30759 0.35722-0.51801 0.83005-0.92278 1.0717-0.28622 0.17086-1.022-0.25796-0.99723 0.0745 0.10193 1.3653 2.926-3.3091 4.6884-4.3611 3.3134-1.9779 8.8131-3.8824 12.666-4.9567 7.5129-2.0947-2.2294 5.1343-3.5422 6.2811-1.8633 1.6277-6.6288 2.5004-2.8428 2.2178 1.9758-0.1475 5.242-3.65 6.6828-4.51 2.2943-1.3696 4.4038-1.3315 6.9061-1.5183" fill="none"/><rect x="618" y="411" width="45" height="30" fill="none"/><path d="m556.9 399.04c1.632-2.4503 10.132-6.4009 12.815-2.9622 0.41006 0.52563 0.0993 1.3296 0.14889 1.9944 0.0993 1.3296 0.46121 2.6656 0.29778 3.9889-0.0577 0.46784-0.74394 0.6355-0.92278 1.0717-0.12646 0.30841 0.0993 1.3296 0.0744 0.99722-0.0744-0.99722-0.39297-2.0062-0.22333-2.9917 0.26511-1.5401 5.1288-3.789 2.9172-1.2206-3.9913 4.6353 0.27584 0.13657-3.7656 3.2894-0.58112 0.45336-2.0796 3.1636-2.7683 3.215-0.66004 0.0493 1.0764-4.866 4.465-7.3528 0.81086-0.59508 14.581-4.2412 15.807-3.1856 4.2882 3.6925-21.323 7.767-22.564 6.6984-1.1901-1.0248 5.9462-2.0841 8.8261-2.6645 1.3473-0.27153 2.5636-1.042 3.9144-1.295 2.6211-0.49097 5.3185-0.39704 7.9778-0.59556 1.3296-0.0993 3.3055-1.4427 3.9889-0.29779 2.3822 3.9908-8.5694 6.1041-8.5284 6.6534 0.0574 0.76838 3.6674-3.0015 8.6772-4.6589 5.7031-1.8867 12.78-3.3602 18.724-4.4061 1.0547-0.18559 6.4945-0.93963 6.9806-0.52111 1.4481 1.2469-1.1951 2.9285-1.7711 3.1406-0.98212 0.36164-10.076 1.9488-10.821 2.8134-1.5984 1.8563 4.6297 0.16918 6.9806-0.52112 3.2616-0.95773 6.5212-1.932 9.8234-2.7389 3.8991-0.95279 7.9815-0.98659 11.892-1.8906 2.5501-0.58946 8.69-2.5063 6.9806-0.52112-2.6934 3.128-24.494 7.7166-24.41 8.8417 0.26238 3.5148 1.7332-1.1771 4.8372-2.3667 2.2009-0.84347 4.5956-1.0527 6.9061-1.5184 8.9945-1.8127 17.648-3.323 26.776-4.0045 2.4332-0.18164-5.0193 4.8424-6.6084 5.5072-0.3075 0.12866-0.66482 0.0496-0.99722 0.0744-0.30759 0.35722-0.51801 0.83005-0.92278 1.0717-0.28622 0.17086-1.022-0.25796-0.99723 0.0745 0.10193 1.3653 2.926-3.3091 4.6884-4.3611 3.3134-1.9779 8.8131-3.8824 12.666-4.9567 7.5129-2.0947-2.2294 5.1343-3.5422 6.2811-1.8633 1.6277-6.6288 2.5004-2.8428 2.2178 1.9758-0.1475 5.242-3.65 6.6828-4.51 2.2943-1.3696 4.4038-1.3315 6.9061-1.5183" fill="none"/><path d="m660.64 504.06c-0.6887 0.0514-2.1865 2.7615-2.7676 3.2148-0.37645 0.29368-0.61762 0.4642-0.86328 0.63867-0.0349-0.2683-0.0669-0.53612-0.10742-0.80469-3e-3 0.0901-4e-3 0.18448-0.0273 0.24024-0.15943 0.38881-0.71775 0.56671-0.87891 0.93164-4.1044 0.60446-9.1125 1.6513-12.449 2.8809l0.0977-4e-3 7.9473 0.27539c0.83092-0.31746 1.647-0.69407 2.5156-0.86914-0.39189 0.45512-0.55192 0.75415-0.56445 0.9375l0.97656 0.0332c0.47638-0.19521 1.0301-0.51967 1.5098-0.90429 0.0356 0.26773 0.0633 0.53498 0.0996 0.80273 7e-3 -4e-3 0.0413-0.0155 0.0469-0.0195 0.61487-0.45125 1.1546-0.9955 1.6562-1.5625 2.9112-0.56495 5.904-1.2602 5.1016-1.9512-0.26444-0.22771-1.6708-0.21125-3.623-0.0254 1.2294-2.0017 1.7354-3.8447 1.3301-3.8145zm-4.5117 7.373c-0.0512 0.033-0.2411 0.0965-0.35742 0.14453l0.37695 0.0137c-7e-3 -0.0528-0.0124-0.10544-0.0195-0.1582zm0.77344-4.3242c0.0154-0.40846-0.12196-1.0282-0.10156-0.75586 0.0187 0.25122 0.0635 0.50372 0.10156 0.75586zm-43.635-1.8281c-0.49891-0.08-1.4269 1.4727-2.8203 2.6465 1.9681-0.60976 3.2704-1.0925 3.25-1.3652-0.0656-0.87869-0.2064-1.2454-0.42969-1.2812zm-2.8203 2.6465c-2.3163 0.71765-5.5637 1.6209-8.873 2.5938 0.12721-0.0255 0.25155-0.0485 0.3789-0.0742 2.3106-0.46566 4.7053-0.67411 6.9062-1.5176 0.59411-0.22768 1.1105-0.59976 1.5879-1.002zm-8.873 2.5938c-2.737 0.54954-5.4436 1.0541-8.1426 1.5312l2.8789 0.11719c1.6771-0.55991 3.4394-1.1122 5.2637-1.6484zm45.129-4.5137c-0.13141-0.0605-0.61909 0.25897-1.1953 0.6582 0.72295-0.25215 1.2546-0.45223 1.2461-0.5664-4e-3 -0.048-0.02-0.0776-0.0508-0.0918zm-1.1953 0.6582c-2.117 0.73836-6.3652 2.0638-7.3945 4.0801 3.344-1.115 5.9493-3.0788 7.3945-4.0801zm-7.3945 4.0801c-0.0127 4e-3 -0.0244 9e-3 -0.0371 0.0137-0.7153 0.23664-1.4515 0.46585-2.2051 0.68946l2.0371-0.0762c0.0315-0.2163 0.10164-0.42433 0.20508-0.62695zm-53.568-3.2695c-0.10658-9.4e-4 -0.27272 0.12478-0.46485 0.30273 0.30594 0.0501 0.63992 0.17131 0.62305-0.0547-0.0127-0.17067-0.0678-0.24726-0.1582-0.24805zm-0.46485 0.30273c-0.14413-0.0236-0.28333-0.0352-0.375 0.0195-0.40476 0.24161-0.61428 0.71504-0.92187 1.0723-0.3324 0.0248-0.69055-0.0544-0.99805 0.0742-0.67575 0.28273-2.401 1.3547-3.9863 2.4785l2.916 0.11718c1.1872-1.0881 2.5786-3.0331 3.3652-3.7617zm-9.3047 0.71094c-0.22839 1e-5 -0.56777 0.0174-1.041 0.0527-1.2845 0.0959-3.0844 1.5891-4.6035 2.873l1.209-0.20703c0.14506-0.11816 0.4673-0.37433 0.55078-0.44726 1.6304-1.4242 5.4835-2.2715 3.8848-2.2715zm49.752 0.40234c-1.4783-0.0585-4.9267 0.88675-6.543 1.3613-2.5332 0.74384-5.0714 1.4747-7.623 2.1524l5.2031-0.19532c2.7497-0.60478 8.788-1.7674 9.4004-2.4785 0.49949-0.58008 0.23444-0.81327-0.4375-0.83985zm44.688 2.5508-9.4727 0.27148 8.9727 0.3125c0.19865-0.20032 0.37557-0.39717 0.5-0.58398z" fill="none"/><path d="m600.16 423.83c-6.3283-0.17165-12.678 0.37191-19 0-3.9373-0.2316-12.354-2.8228-16-1-2.4734 1.2367-5.0285 1-8 1" fill="none"/><path d="m618 467.82c6.3283-0.17165 12.678 0.37191 19 0 3.9373-0.2316 12.354-2.8228 16-1 2.4734 1.2367 5.0285 1 8 1" fill="none"/><path d="m556.29 432.29h10c5.1917 0 11.937 1.2658 17 0 4.3815-1.0954 8.4685-1 13-1 1.5978 0 4-2.0404 4 0" fill="none"/><path d="m617.46 480.61h10c5.1917 0 11.937 1.2658 17 0 4.3815-1.0954 8.4685-1 13-1 1.5978 0 4-2.0404 4 0" fill="none"/><path d="m617.1 448.08h10c5.1917 0 11.937 1.2658 17 0 4.3815-1.0954 8.4685-1 13-1 1.5978 0 4-2.0404 4 0" fill="none"/><path d="m557.65 440.29c2-0.33333 3.9848-0.77609 6-1 1.9953-0.2217 8.1001-0.94994 10 0 0.29814 0.14907-0.2357 0.7643 0 1 0.94281 0.94281 2.7065 0.32338 4 0 3.2985-0.82461 8.367-4.8165 12-3 1.715 0.85752 0.68217 3 1 3 0.33333 0-0.2357-0.7643 0-1 0.95186-0.95186 7.6255 0 9 0" fill="none"/><path d="m557.54 488.41c6.3283-0.17165 12.678 0.37191 19 0 3.9373-0.2316 12.354-2.8228 16-1 2.4734 1.2367 5.0285 1 8 1" fill="none"/><path d="m557 416.92h10c5.1917 0 11.937-1.2658 17 0 4.3815 1.0954 8.4685 1 13 1 1.5978 0 4 2.0404 4 0" fill="none"/><path d="m558.25 464.4c6.3283-0.17165 12.678 0.37191 19 0 3.9373-0.2316 12.354-2.8228 16-1 2.4734 1.2367 5.0285 1 8 1" fill="none"/><path d="m557.19 448.88h10c6.8212 0 13.176-2 20-2 3.5866 0 6.5168-1 10-1h2" fill="none"/><path d="m556 499 120-1" fill="#bfb49d"/><path d="m672 386-119-1" fill="#bfb49d"/><path d="m673 489-1-97" fill="#bfb49d"/><path d="m678.87 412.78c-0.7916 2e-3 -1.582 0.0137-2.373 0.0352h4.6934l2e-3 -0.0195c-0.77375-0.0101-1.5489-0.0179-2.3223-0.0156zm1.6074 6.1836c-0.39113 0.0242-0.79584 0.0287-1.1992 0.0332h1.1953zm-1.1992 0.0332h-2.8086c0.98146 0 1.9059 0.01 2.8086 0zm1.6777 6.4941-5.002 0.11328h5.0176zm-2.959 32.422 7.3516 0.16796-0.0215-0.16796zm8.127 5.9238c-1.6381 0.80977-3.3245 0.96504-5.1328 0.98633h5.2676zm-5.1328 0.98633h-2.832c0.99027 0 1.9219 0.0107 2.832 0zm5.5215 8.2559-9.2226 0.20899h9.2129zm-0.32617 7.0449c-0.57918 0.0602-1.1828 0.12404-1.543 0.16407-2.0152 0.22391-4 0.66667-6 1l7.498-0.17774zm-0.42578 9.2109-7.5742 0.54102h7.5488z" fill="none"/><path d="m610 491-1-81" fill="#bfb49d"/></g></svg>
