<?xml version="1.0" encoding="UTF-8" standalone="no"?>
<!-- Created with Inkscape (http://www.inkscape.org/) -->

<svg
   width="142.77557"
   height="140.3598"
   viewBox="0 0 142.77557 140.3598"
   version="1.1"
   id="svg1"
   xml:space="preserve"
   xmlns="http://www.w3.org/2000/svg"
   xmlns:svg="http://www.w3.org/2000/svg"><defs
     id="defs1" /><g
     id="layer10"
     transform="translate(-544.95789,-376)"><path
       style="display:inline;fill:#bfb49d;fill-opacity:1;stroke:#000000;stroke-width:2;stroke-linejoin:bevel"
       d="m 546.58472,380.73541 -0.62685,134.63868 24.78345,-4.23467 35.39005,1.42218 37.51137,-1.40624 41.0469,1.42218 2.04489,-44.23685 -6.4404,-47.77239 2.75199,-23.73076 -1.49064,-15.95258 z"
       id="path10" /><ellipse
       style="fill:#d62421;fill-opacity:1;stroke:#000000;stroke-width:2;stroke-linejoin:bevel;stroke-dasharray:none;stroke-opacity:1"
       id="path105"
       cx="606"
       cy="383"
       rx="4"
       ry="6" /><path
       style="fill:none;fill-opacity:1;stroke:#000000;stroke-width:2;stroke-linejoin:bevel;stroke-dasharray:none;stroke-opacity:1"
       d="m 557,472 c 3.33333,0 6.66667,0 10,0 5.1917,0 11.93666,1.26584 17,0 4.38147,-1.09537 8.46847,-1 13,-1 1.59775,0 4,-2.04036 4,0"
       id="path396" /><path
       style="fill:none;fill-opacity:1;stroke:#000000;stroke-width:2;stroke-linejoin:bevel;stroke-dasharray:none;stroke-opacity:1"
       d="m 599.8356,482 c -2,-0.33333 -3.98481,-0.77609 -6,-1 -1.99527,-0.2217 -8.10012,-0.94994 -10,0 -0.29814,0.14907 0.2357,0.7643 0,1 -0.94281,0.94281 -2.70648,0.32338 -4,0 -3.29846,-0.82461 -8.36704,-4.81648 -12,-3 -1.71504,0.85752 -0.68217,3 -1,3 -0.33333,0 0.2357,-0.7643 0,-1 -0.95186,-0.95186 -7.62553,0 -9,0"
       id="path398" /><path
       style="fill:none;fill-opacity:1;stroke:#000000;stroke-width:2;stroke-linejoin:bevel;stroke-dasharray:none;stroke-opacity:1"
       d="m 629,489 c 3.08075,-5.03589 6.23522,2 8,2 0.71036,0 -1.02465,-2.32511 1,-3 5.11755,-1.70585 7.48041,2 9,2 2.09627,0 -0.0914,-1.22715 3,-2 4.79065,-1.19766 13.80818,0 19,0"
       id="path399" /><path
       style="fill:none;fill-opacity:1;stroke:#000000;stroke-width:2;stroke-linejoin:bevel;stroke-dasharray:none;stroke-opacity:1"
       d="m 660.97289,474 c -6.32829,-0.17165 -12.6776,0.37191 -19,0 -3.93726,-0.2316 -12.35433,-2.82283 -16,-1 -2.4734,1.2367 -5.02846,1 -8,1"
       id="path400" /><path
       style="fill:none;fill-opacity:1;stroke:#000000;stroke-width:2;stroke-linejoin:bevel;stroke-dasharray:none;stroke-opacity:1"
       d="m 618,455.24264 c 3.33333,0 6.66667,0 10,0 6.82119,0 13.17611,-2 20,-2 3.58662,0 6.5168,-1 10,-1 0.45752,0 4.67974,0 2,0"
       id="path402" /><path
       style="fill:none;fill-opacity:1;stroke:#000000;stroke-width:2;stroke-linejoin:bevel;stroke-dasharray:none;stroke-opacity:1"
       d="m 556.90043,399.03723 c 1.63201,-2.45031 10.1324,-6.40088 12.81504,-2.96224 0.41006,0.52563 0.0993,1.32963 0.14889,1.99445 0.0993,1.32963 0.46121,2.66562 0.29778,3.9889 -0.0577,0.46784 -0.74394,0.6355 -0.92278,1.07167 -0.12646,0.30841 0.0993,1.32963 0.0744,0.99722 -0.0744,-0.99722 -0.39297,-2.00617 -0.22333,-2.99167 0.26511,-1.54012 5.12884,-3.78903 2.91723,-1.22056 -3.99129,4.63528 0.27584,0.13657 -3.76557,3.28945 -0.58112,0.45336 -2.07964,3.1636 -2.76834,3.21501 -0.66004,0.0493 1.07645,-4.86595 4.46501,-7.3528 0.81086,-0.59508 14.58074,-4.24122 15.80671,-3.18558 4.28824,3.69246 -21.32286,7.76704 -22.56395,6.69838 -1.19013,-1.02479 5.94625,-2.08407 8.82614,-2.66446 1.34728,-0.27153 2.56358,-1.04197 3.91445,-1.29501 2.62108,-0.49097 5.31853,-0.39704 7.9778,-0.59556 1.32963,-0.0993 3.3055,-1.44266 3.9889,-0.29779 2.38224,3.99079 -8.56935,6.10411 -8.52835,6.65336 0.0574,0.76838 3.66741,-3.00152 8.67724,-4.65891 5.70314,-1.88674 12.77981,-3.36017 18.72394,-4.40614 1.05469,-0.18559 6.49453,-0.93963 6.98058,-0.52111 1.44807,1.24688 -1.19509,2.92846 -1.77111,3.14056 -0.98212,0.36164 -10.07612,1.94876 -10.82059,2.81335 -1.59836,1.85626 4.6297,0.16918 6.98058,-0.52112 3.26164,-0.95773 6.52118,-1.93198 9.82336,-2.7389 3.89914,-0.95279 7.98151,-0.98659 11.89225,-1.89057 2.55008,-0.58946 8.68995,-2.5063 6.98058,-0.52112 -2.69338,3.12796 -24.4935,7.71658 -24.40951,8.84171 0.26238,3.51475 1.73322,-1.1771 4.83723,-2.36667 2.20094,-0.84347 4.59557,-1.05269 6.90613,-1.51835 8.99452,-1.81269 17.64798,-3.32303 26.77619,-4.00448 2.43317,-0.18164 -5.01932,4.84241 -6.60835,5.50725 -0.3075,0.12866 -0.66482,0.0496 -0.99722,0.0744 -0.30759,0.35722 -0.51801,0.83005 -0.92278,1.07167 -0.28622,0.17086 -1.02204,-0.25796 -0.99723,0.0745 0.10193,1.36531 2.92602,-3.30914 4.68835,-4.36113 3.31338,-1.97786 8.81313,-3.88241 12.66614,-4.95669 7.51291,-2.09471 -2.22941,5.13431 -3.54223,6.28113 -1.86328,1.6277 -6.62879,2.50042 -2.84278,2.21779 1.97585,-0.1475 5.24198,-3.64995 6.68279,-4.51002 2.29433,-1.36956 4.40379,-1.33154 6.90613,-1.51834"
       id="path412" /><rect
       style="fill:none;fill-opacity:1;stroke:#000000;stroke-width:2;stroke-linejoin:bevel;stroke-dasharray:none;stroke-opacity:1"
       id="rect412"
       width="45"
       height="30"
       x="618"
       y="411" /><path
       style="fill:none;fill-opacity:1;stroke:#000000;stroke-width:2;stroke-linejoin:bevel;stroke-dasharray:none;stroke-opacity:1"
       d="m 556.90043,399.03723 c 1.63201,-2.45031 10.1324,-6.40088 12.81504,-2.96224 0.41006,0.52563 0.0993,1.32963 0.14889,1.99445 0.0993,1.32963 0.46121,2.66562 0.29778,3.9889 -0.0577,0.46784 -0.74394,0.6355 -0.92278,1.07167 -0.12646,0.30841 0.0993,1.32963 0.0744,0.99722 -0.0744,-0.99722 -0.39297,-2.00617 -0.22333,-2.99167 0.26511,-1.54012 5.12884,-3.78903 2.91723,-1.22056 -3.99129,4.63528 0.27584,0.13657 -3.76557,3.28945 -0.58112,0.45336 -2.07964,3.1636 -2.76834,3.21501 -0.66004,0.0493 1.07645,-4.86595 4.46501,-7.3528 0.81086,-0.59508 14.58074,-4.24122 15.80671,-3.18558 4.28824,3.69246 -21.32286,7.76704 -22.56395,6.69838 -1.19013,-1.02479 5.94625,-2.08407 8.82614,-2.66446 1.34728,-0.27153 2.56358,-1.04197 3.91445,-1.29501 2.62108,-0.49097 5.31853,-0.39704 7.9778,-0.59556 1.32963,-0.0993 3.3055,-1.44266 3.9889,-0.29779 2.38224,3.99079 -8.56935,6.10411 -8.52835,6.65336 0.0574,0.76838 3.66741,-3.00152 8.67724,-4.65891 5.70314,-1.88674 12.77981,-3.36017 18.72394,-4.40614 1.05469,-0.18559 6.49453,-0.93963 6.98058,-0.52111 1.44807,1.24688 -1.19509,2.92846 -1.77111,3.14056 -0.98212,0.36164 -10.07612,1.94876 -10.82059,2.81335 -1.59836,1.85626 4.6297,0.16918 6.98058,-0.52112 3.26164,-0.95773 6.52118,-1.93198 9.82336,-2.7389 3.89914,-0.95279 7.98151,-0.98659 11.89225,-1.89057 2.55008,-0.58946 8.68995,-2.5063 6.98058,-0.52112 -2.69338,3.12796 -24.4935,7.71658 -24.40951,8.84171 0.26238,3.51475 1.73322,-1.1771 4.83723,-2.36667 2.20094,-0.84347 4.59557,-1.05269 6.90613,-1.51835 8.99452,-1.81269 17.64798,-3.32303 26.77619,-4.00448 2.43317,-0.18164 -5.01932,4.84241 -6.60835,5.50725 -0.3075,0.12866 -0.66482,0.0496 -0.99722,0.0744 -0.30759,0.35722 -0.51801,0.83005 -0.92278,1.07167 -0.28622,0.17086 -1.02204,-0.25796 -0.99723,0.0745 0.10193,1.36531 2.92602,-3.30914 4.68835,-4.36113 3.31338,-1.97786 8.81313,-3.88241 12.66614,-4.95669 7.51291,-2.09471 -2.22941,5.13431 -3.54223,6.28113 -1.86328,1.6277 -6.62879,2.50042 -2.84278,2.21779 1.97585,-0.1475 5.24198,-3.64995 6.68279,-4.51002 2.29433,-1.36956 4.40379,-1.33154 6.90613,-1.51834"
       id="path413" /><path
       id="path414"
       style="fill:none;fill-opacity:1;stroke:#000000;stroke-width:2;stroke-linejoin:bevel;stroke-dasharray:none;stroke-opacity:1"
       d="m 660.63867,504.05859 c -0.6887,0.0514 -2.18646,2.76149 -2.76758,3.21485 -0.37645,0.29368 -0.61762,0.4642 -0.86328,0.63867 -0.0349,-0.2683 -0.0669,-0.53612 -0.10742,-0.80469 -0.003,0.0901 -0.004,0.18448 -0.0273,0.24024 -0.15943,0.38881 -0.71775,0.56671 -0.87891,0.93164 -4.10437,0.60446 -9.11252,1.65129 -12.44922,2.88086 l 0.0977,-0.004 7.94726,0.27539 c 0.83092,-0.31746 1.64699,-0.69407 2.51563,-0.86914 -0.39189,0.45512 -0.55192,0.75415 -0.56445,0.9375 l 0.97656,0.0332 c 0.47638,-0.19521 1.03011,-0.51967 1.50976,-0.90429 0.0356,0.26773 0.0633,0.53498 0.0996,0.80273 0.007,-0.004 0.0413,-0.0155 0.0469,-0.0195 0.61487,-0.45125 1.15462,-0.9955 1.65625,-1.5625 2.91119,-0.56495 5.90399,-1.26022 5.10156,-1.95117 -0.26444,-0.22771 -1.67076,-0.21125 -3.62305,-0.0254 1.22942,-2.00171 1.73535,-3.84473 1.33008,-3.81446 z m -4.51172,7.37305 c -0.0512,0.033 -0.2411,0.0965 -0.35742,0.14453 l 0.37695,0.0137 c -0.007,-0.0528 -0.0124,-0.10544 -0.0195,-0.1582 z m 0.77344,-4.32422 c 0.0154,-0.40846 -0.12196,-1.02817 -0.10156,-0.75586 0.0187,0.25122 0.0635,0.50372 0.10156,0.75586 z m -43.63477,-1.82812 c -0.49891,-0.08 -1.42694,1.4727 -2.82031,2.64648 1.96811,-0.60976 3.27037,-1.09246 3.25,-1.36523 -0.0656,-0.87869 -0.2064,-1.24544 -0.42969,-1.28125 z m -2.82031,2.64648 c -2.31633,0.71765 -5.56372,1.62092 -8.87304,2.59375 0.12721,-0.0255 0.25155,-0.0485 0.3789,-0.0742 2.31056,-0.46566 4.70531,-0.67411 6.90625,-1.51758 0.59411,-0.22768 1.11047,-0.59976 1.58789,-1.00195 z m -8.87304,2.59375 c -2.73703,0.54954 -5.44365,1.05409 -8.14258,1.53125 l 2.8789,0.11719 c 1.67714,-0.55991 3.43938,-1.11216 5.26368,-1.64844 z m 45.1289,-4.51367 c -0.13141,-0.0605 -0.61909,0.25897 -1.19531,0.6582 0.72295,-0.25215 1.25462,-0.45223 1.24609,-0.5664 -0.004,-0.048 -0.02,-0.0776 -0.0508,-0.0918 z m -1.19531,0.6582 c -2.11696,0.73836 -6.36516,2.06379 -7.39453,4.08008 3.34403,-1.11502 5.94931,-3.07876 7.39453,-4.08008 z m -7.39453,4.08008 c -0.0127,0.004 -0.0244,0.009 -0.0371,0.0137 -0.7153,0.23664 -1.45151,0.46585 -2.20508,0.68946 l 2.03711,-0.0762 c 0.0315,-0.2163 0.10164,-0.42433 0.20508,-0.62695 z m -53.56836,-3.26953 c -0.10658,-9.4e-4 -0.27272,0.12478 -0.46485,0.30273 0.30594,0.0501 0.63992,0.17131 0.62305,-0.0547 -0.0127,-0.17067 -0.0678,-0.24726 -0.1582,-0.24805 z m -0.46485,0.30273 c -0.14413,-0.0236 -0.28333,-0.0352 -0.375,0.0195 -0.40476,0.24161 -0.61428,0.71504 -0.92187,1.07226 -0.3324,0.0248 -0.69055,-0.0544 -0.99805,0.0742 -0.67575,0.28273 -2.40102,1.3547 -3.98632,2.47852 l 2.91601,0.11718 c 1.18718,-1.08812 2.57859,-3.03311 3.36523,-3.76172 z m -9.30468,0.71094 c -0.22839,1e-5 -0.56777,0.0174 -1.04102,0.0527 -1.28449,0.0959 -3.08441,1.58913 -4.60351,2.87304 l 1.20898,-0.20703 c 0.14506,-0.11816 0.4673,-0.37433 0.55078,-0.44726 1.63037,-1.42424 5.48347,-2.27153 3.88477,-2.27149 z m 49.75195,0.40234 c -1.47828,-0.0585 -4.92674,0.88675 -6.54297,1.36133 -2.53319,0.74384 -5.07142,1.47472 -7.62304,2.15235 l 5.20312,-0.19532 c 2.7497,-0.60478 8.78805,-1.76737 9.40039,-2.47851 0.49949,-0.58008 0.23444,-0.81327 -0.4375,-0.83985 z m 44.6875,2.55079 -9.47266,0.27148 8.97266,0.3125 c 0.19865,-0.20032 0.37557,-0.39717 0.5,-0.58398 z" /><path
       style="fill:none;fill-opacity:1;stroke:#000000;stroke-width:2;stroke-linejoin:bevel;stroke-dasharray:none;stroke-opacity:1"
       d="m 600.16171,423.82664 c -6.32829,-0.17165 -12.6776,0.37191 -19,0 -3.93726,-0.2316 -12.35433,-2.82283 -16,-1 -2.4734,1.2367 -5.02846,1 -8,1"
       id="path415" /><path
       style="fill:none;fill-opacity:1;stroke:#000000;stroke-width:2;stroke-linejoin:bevel;stroke-dasharray:none;stroke-opacity:1"
       d="m 618,467.81802 c 6.32829,-0.17165 12.6776,0.37191 19,0 3.93726,-0.2316 12.35433,-2.82283 16,-1 2.4734,1.2367 5.02846,1 8,1"
       id="path416" /><path
       style="fill:none;fill-opacity:1;stroke:#000000;stroke-width:2;stroke-linejoin:bevel;stroke-dasharray:none;stroke-opacity:1"
       d="m 556.2929,432.29111 c 3.33333,0 6.66667,0 10,0 5.1917,0 11.93666,1.26584 17,0 4.38147,-1.09537 8.46847,-1 13,-1 1.59775,0 4,-2.04036 4,0"
       id="path417" /><path
       style="fill:none;fill-opacity:1;stroke:#000000;stroke-width:2;stroke-linejoin:bevel;stroke-dasharray:none;stroke-opacity:1"
       d="m 617.45763,480.6066 c 3.33333,0 6.66667,0 10,0 5.1917,0 11.93666,1.26584 17,0 4.38147,-1.09537 8.46847,-1 13,-1 1.59775,0 4,-2.04036 4,0"
       id="path419" /><path
       style="fill:none;fill-opacity:1;stroke:#000000;stroke-width:2;stroke-linejoin:bevel;stroke-dasharray:none;stroke-opacity:1"
       d="m 617.10408,448.07969 c 3.33333,0 6.66667,0 10,0 5.1917,0 11.93666,1.26584 17,0 4.38147,-1.09537 8.46847,-1 13,-1 1.59775,0 4,-2.04036 4,0"
       id="path420" /><path
       style="fill:none;fill-opacity:1;stroke:#000000;stroke-width:2;stroke-linejoin:bevel;stroke-dasharray:none;stroke-opacity:1"
       d="m 557.64645,440.29111 c 2,-0.33333 3.98481,-0.77609 6,-1 1.99527,-0.2217 8.10012,-0.94994 10,0 0.29814,0.14907 -0.2357,0.7643 0,1 0.94281,0.94281 2.70648,0.32338 4,0 3.29846,-0.82461 8.36704,-4.81648 12,-3 1.71504,0.85752 0.68217,3 1,3 0.33333,0 -0.2357,-0.7643 0,-1 0.95186,-0.95186 7.62553,0 9,0"
       id="path421" /><path
       style="fill:none;fill-opacity:1;stroke:#000000;stroke-width:2;stroke-linejoin:bevel;stroke-dasharray:none;stroke-opacity:1"
       d="m 557.54237,488.40559 c 6.32829,-0.17165 12.6776,0.37191 19,0 3.93726,-0.2316 12.35433,-2.82283 16,-1 2.4734,1.2367 5.02846,1 8,1"
       id="path422" /><path
       style="fill:none;fill-opacity:1;stroke:#000000;stroke-width:2;stroke-linejoin:bevel;stroke-dasharray:none;stroke-opacity:1"
       d="m 557.00001,416.91569 c 3.33333,0 6.66667,0 10,0 5.1917,0 11.93666,-1.26584 17,0 4.38147,1.09537 8.46847,1 13,1 1.59775,0 4,2.04036 4,0"
       id="path423" /><path
       style="fill:none;fill-opacity:1;stroke:#000000;stroke-width:2;stroke-linejoin:bevel;stroke-dasharray:none;stroke-opacity:1"
       d="m 558.24948,464.40381 c 6.32829,-0.17165 12.6776,0.37191 19,0 3.93726,-0.2316 12.35433,-2.82283 16,-1 2.4734,1.2367 5.02846,1 8,1"
       id="path424" /><path
       style="fill:none;fill-opacity:1;stroke:#000000;stroke-width:2;stroke-linejoin:bevel;stroke-dasharray:none;stroke-opacity:1"
       d="m 557.18882,448.87868 c 3.33333,0 6.66667,0 10,0 6.82119,0 13.17611,-2 20,-2 3.58662,0 6.5168,-1 10,-1 0.45752,0 4.67974,0 2,0"
       id="path425" /><path
       style="fill:#bfb49d;fill-opacity:1;stroke:#000000;stroke-width:2;stroke-linejoin:bevel;stroke-dasharray:none;stroke-opacity:1"
       d="m 556,499 120,-1"
       id="path426" /><path
       style="fill:#bfb49d;fill-opacity:1;stroke:#000000;stroke-width:2;stroke-linejoin:bevel;stroke-dasharray:none;stroke-opacity:1"
       d="M 672,386 553,385"
       id="path470" /><path
       style="fill:#bfb49d;fill-opacity:1;stroke:#000000;stroke-width:2;stroke-linejoin:bevel;stroke-dasharray:none;stroke-opacity:1"
       d="m 673,489 -1,-97"
       id="path471" /><path
       id="path760"
       style="fill:none;fill-opacity:1;stroke:#000000;stroke-width:2;stroke-linejoin:bevel;stroke-dasharray:none;stroke-opacity:1"
       d="m 678.87305,412.7832 c -0.7916,0.002 -1.58201,0.0137 -2.37305,0.0352 h 4.69336 l 0.002,-0.0195 c -0.77375,-0.0101 -1.54888,-0.0179 -2.32226,-0.0156 z m 1.60742,6.1836 c -0.39113,0.0242 -0.79584,0.0287 -1.19922,0.0332 h 1.19531 z M 679.28125,419 h -2.80859 c 0.98146,0 1.90593,0.01 2.80859,0 z m 1.67773,6.49414 -5.00195,0.11328 h 5.01758 z M 678,457.91602 l 7.35156,0.16796 -0.0215,-0.16796 z m 8.12695,5.92382 c -1.63813,0.80977 -3.32454,0.96504 -5.13281,0.98633 h 5.26758 z m -5.13281,0.98633 h -2.83203 c 0.99027,0 1.92187,0.0107 2.83203,0 z m 5.52148,8.25586 -9.22265,0.20899 h 9.21289 z m -0.32617,7.04492 c -0.57918,0.0602 -1.18275,0.12404 -1.54297,0.16407 -2.01518,0.22391 -4,0.66667 -6,1 l 7.49805,-0.17774 z m -0.42578,9.21094 -7.57422,0.54102 h 7.54883 z" /><path
       style="fill:#bfb49d;fill-opacity:1;stroke:#000000;stroke-width:2;stroke-linejoin:bevel;stroke-dasharray:none;stroke-opacity:1"
       d="m 610,491 -1,-81"
       id="path761" /></g></svg>
