<?xml version="1.0" encoding="UTF-8"?>
<!DOCTYPE svg  PUBLIC '-//W3C//DTD SVG 1.1//EN'  'http://www.w3.org/Graphics/SVG/1.1/DTD/svg11.dtd'>
<svg clip-rule="evenodd" fill-rule="evenodd" stroke-linejoin="round" stroke-miterlimit="2" version="1.1" viewBox="0 0 4160 5400" xml:space="preserve" xmlns="http://www.w3.org/2000/svg" xmlns:serif="http://www.serif.com/">
    <rect width="4159.9" height="5400" fill="none"/>
    <clipPath id="a">
        <rect width="4159.9" height="5400" serif:id="Artboard1"/>
    </clipPath>
    <g clip-path="url(#a)">
        <rect x="-231.34" y="-323.65" width="4586.4" height="6438.9" fill="#2a342f"/>
        <g transform="matrix(1.1543 0 0 1.1543 -414.21 -178.05)">
            <g transform="matrix(-.71994 0 0 .69955 4358.1 -154.82)">
                <path d="m2344.2 1767s66.15 162.67 239.62 208.87c0 0 68.23 33.99 97.15 2.41 0 0 3.38-34.09 15.34-85.86 11.96-51.76 15.79-92.47 33.37-123.48 0 0-48.87-343.14-48.71-449.24l-171.63-96.72-208.86 110.1-50.2 187.82s-43.57 12.2-30.76 80.27c12.82 68.07 36.77 143.03 124.68 165.83z" fill="#b0876b"/>
                
                    <g transform="matrix(.7527 0 0 1 640.82 5.6843e-14)">
                        <path d="m2655.2 1614.6 59.45 143.49s-10.5 40.88-92.36 28.1l13.05 44.09s52.9-4.61 70.41-8.11c0 0 42.98 55.6-23.04 66.29-42.87 6.94-95.11-5.47-95.11-5.47s38.27 27.24 74.58 27.13 51.15 14.1 52.9 39.94c0 0 1.97 15.48-14.69 26.17 0 0 37.24 25.4 50.75-94.79 0 0 53.59-86.33 57.51-156.11l27.35-316.39-84.86-92.97-81.4 164.06s19.58 63.1-14.54 134.57z" fill="#7c5e49"/>
                    </g>
                    <g transform="matrix(.52623 .04388 -.043856 .55704 1353 711.72)">
                        <path d="m2685.4 1836.8c-1.43 0.51-35.15 8.82-139.7 26.34 0 0-5.23 2.67-0.89 7.21 0 0 63.47-6.81 120.73-13.8 18.2-2.22 33.27-24.5 19.86-19.75z" fill="#7c5e49"/>
                    </g>
                
                <g transform="translate(0 -11.385)">
                    <path d="m2491.5 1602.7s-7.25 11.42 0.56 26.51l43.64 1.38s3.49-17.67-0.28-25.69c0 0-28.99-12.53-43.92-2.2z"/>
                </g>
                <g transform="matrix(-.62962 0 0 1 4278.4 -27.373)">
                    <path d="m2491.5 1602.7s-7.25 11.42 0.56 26.51l43.64 1.38s3.49-17.67-0.28-25.69c0 0-28.99-12.53-43.92-2.2z"/>
                </g>
                <g transform="matrix(-.58042 0 0 1 4152.1 -10.356)">
                    <path d="m2428.3 1558.3s42.81-57.35 143.98 42.84c0 0-77.52-16.71-136.49-29.06 0 0-40.85 23.25-7.49-13.78z"/>
                </g>
                <path d="m2427.1 1573.1s77.6-88.85 176.12 26.58c0 0-95.5-24.63-156.33-4.22-1.34 0.45-2.73 0.46-4 0.71 0 0-49.15 13.96-15.79-23.07z"/>
                <g transform="matrix(.93165 0 0 1 150.69 5.6843e-14)">
                    <path d="m2388.1 1319.5s-13.44 118.01 6.53 156.94c0 0-28.05 80.74-50.68 89.92 0 0-8.51 64.51 1.64 81.75 0 0-30.12-33.18-35.97-73.57 0 0-52.27-65.85-73.57-39.24 0 0-40.47-72.81-29.42-261.58 0 0 31.69-63.64 47.41-50.68 0 0 48.99-53.9 70.29-44.14l20.2-35.47s17.84-41.73 27.21-26.66c0 0 2.56-18.81 17.99-21.25 15.44-2.43 57.8-5.7 70.31 0 0 0 55.92-38.88 62.12-21.25 0 0 183.52 4.58 158.57 32.69 0 0 60.11 2.65 44.16 14.72 0 0-8.77 44.58 4.9 32.31 0 0 53.67 32.75 16.94 50.32 0 0 31.57 57.32 48.14 33.1-10.74-23.83 21.03 4.91 7.77 29.31l44.75 19.95s24.26 69.52 16.46 108.03c0 0-46.14 90.75-45.78 109.54 0 0-29.97-80.87-17.99-71.94 0 0-60.11-12.44-49.05-73.57 0 0-34.11 19.8-21.43 68.67 0 0-15.92-5.96-8.56 24.14 10.76 43.97-71.72 83.59-95.65 27.57l-0.33-10.84s38.02 34.38 45.1-16.73c8.71-62.87-87.6-2.87-119.74-35.91 0 0-43.03-9.44-25.55 14.65 0 0-59.81-19.63-74.04-79.21 0 0-32.3-47.33-62.73-31.57z"/>
                </g>
            </g>
            <g transform="matrix(.97416 0 0 .91434 -36.688 -465.44)">
                <path d="m2789.6 4975.5s128.73 127.26-49.02 152.56c-177.75 25.31-61.46 52.46-66.11 89.54 0 0 47.04 220.71 494.38 88.85 0 0 15.13-132.02-32.46-229.07v-205.34l-349.65-83.21 2.86 186.67z" fill="#1a1b1d"/>
            </g>
            <g transform="matrix(.97416 0 0 .91434 -456.12 -312.19)">
                <path d="m2789.6 4975.5s10.6 171.83-167.15 197.13c-177.75 25.31-167.27 38.37-171.93 75.45 0 0 146.68 74.02 442.35 46.56 0 0 64.39-40.71 99.14-33.66l-3.02 49.98s152.4 1.68 179.86-4.51c0 0 15.13-132.02-32.46-229.07v-205.34l-349.65-83.21 2.86 186.67z" fill="#1a1b1d"/>
            </g>
            
                
                    <g transform="matrix(.79201 0 0 .79201 582.38 406.49)">
                        <path d="m1921.4 1878.3s-74.37 240.91 435.59 328.87 248.6-549.69 248.6-549.69l-140.84 36.02-384.76-177.62-158.59 362.42z" fill="#d6dbd9"/>
                    </g>
                    <g transform="matrix(.87993 -.51743 .47311 .80456 -1673.3 1595.8)">
                        <path d="m3313.6 2153.3s-66.77-53.59-70.37-52.82c-90.63 19.51-204.91 197.68-204.91 197.68s25.87 49.88 84.08 67.38 191.2-212.24 191.2-212.24" fill="#fdf8f3"/>
                    </g>
                
            
            <g transform="matrix(1.2596 0 0 1.1822 -1358.4 -1454.7)">
                <path d="m3074.9 2305.6s-147.88 79.76-181.65 488.12c0 0-63.1 365.98-3.29 477.91 0 0-43.09 219.52-18.4 281.72 0 0 78.13-241.23 203.34-282.56l222.06-992.7-222.06 27.51z" fill="#332221"/>
            
            
                <path d="m3313.6 2153.3s-66.77-53.59-70.37-52.82c-90.63 19.51-204.91 197.68-204.91 197.68s25.87 49.88 84.08 67.38 191.2-212.24 191.2-212.24" fill="#fdf8f3"/>
            
            
                <path d="m3118.4 2276.2s-209.6 281.72-254.15 827.88c-10.63 130.23-4.18 234.92-9.75 321.86-17.79 277.64-28.22 374.19-30.48 543.4-2.96 222.19-49.89 742.06-112.22 814.85 0 0-9.17 11.06 24.4 22.77 0 0 204.28 103.36 470.04 34.16l1.63 30.9s283.67 16.29 376.55-103.47c0 0 22.59-37.97 108.96 30.9 0 0 321.55 61.22 665.29-438.34 0 0-705.38-243.97-862.3-909.31 0 0-100.17-281.29-86.84-402.7 0 0 41.39-263.5 37.4-416.37-3.99-152.88 64.81-352.78-43.9-390.71 0 0-38.19-35.25-55.29-60.17 0 0-14.44-48.1-55.3-63.43 0 0-72.47 24.53-174.04 157.78z" fill="#d6dbd9"/>
            </g>
        </g>
        <g transform="matrix(1.454 0 0 1.3647 -1982.2 -1857.3)">
            <path d="m3070 2336.3c-60.21 89.36-158.83 288.04-189.08 658.82-5.18 63.5-12.71 178.85-16.99 233.71-32.55-157.86 29.33-435.13 29.33-435.13 26.04-314.85 119.91-434.37 161.54-472.59 4.22 4.83 9.27 10.03 15.2 15.19z" fill="#332221"/>
        </g>
        <g transform="matrix(1.5938 0 0 1.5938 -1150.7 -1132.8)" fill="#f9382d" fill-rule="nonzero">
            <g transform="translate(0 42.082)">
                <path d="m1090.2 1126.4c0 34.72-11.62 64.42-34.87 89.1-23.25 24.67-51.3 37.01-84.144 37.01h-105.07v-251.9h105.07c32.644 0 60.644 12.33 83.994 37.01s35.02 54.27 35.02 88.78zm-89.33 78.74v-157.16h-37.104v157.16h37.104z"/>
                <path d="m1322 1252.8h-85.78l-43.33-75.61v75.61h-84.59v-209.25h114.86c15.04 0 27.95 5.7 38.73 17.1 10.79 11.4 16.18 25.05 16.18 40.94 0 21.33-8.61 37.65-25.82 48.94l69.75 102.27zm-106.26-111.06v-58.66h-22.85v58.66h22.85z"/>
                <path d="m1390.6 1228.7c0 7.95-3.22 14.8-9.65 20.55s-14.2 8.63-23.3 8.63-16.87-2.88-23.3-8.63-9.64-12.6-9.64-20.55c0-7.94 3.21-14.79 9.64-20.55 6.43-5.75 14.2-8.62 23.3-8.62s16.87 2.87 23.3 8.62c6.43 5.76 9.65 12.61 9.65 20.55z"/>
            </g>
            <g transform="matrix(.99977 0 0 .99748 .19922 -23.611)">
                <path d="m1108.7 1588.6c0 35.14-11.83 65.21-35.49 90.22s-52.11 37.51-85.354 37.51c-33.011 0-61.347-12.5-85.009-37.51-23.661-25.01-35.492-55.08-35.492-90.22v-172.38h121.54v240.09h42.935v-240.09h76.87v172.38z"/>
                <path d="m1295.7 1664.3-10.39 46.12h-157.2v-244.12h98.68v198h68.91z"/>
                <path d="m1499.3 1466.3-72.72 139.08v105.04h-91.76v-97.36l-82.76-146.76h110.11l41.21 72.83 37.74-72.83h58.18z"/>
                <path d="m1659.6 1644.2c0 18.06-6.12 33.61-18.35 46.67-12.24 13.05-26.9 19.58-43.98 19.58h-80.68l-22.85-46.12h68.21l-58.86-96.62c-6.24-10.49-9.35-22.2-9.35-35.14 0-18.05 6.17-33.61 18.52-46.66s27.07-19.58 44.15-19.58h88.65l14.19 46.11h-68.91l59.56 95.9c6.47 10.49 9.7 22.44 9.7 35.86z"/>
                <path d="m1843.5 1644.2c0 18.06-6.12 33.61-18.35 46.67-12.24 13.05-26.9 19.58-43.98 19.58h-80.68l-22.86-46.12h68.22l-58.87-96.62c-6.23-10.49-9.35-22.2-9.35-35.14 0-18.05 6.18-33.61 18.53-46.66s27.07-19.58 44.15-19.58h88.64l14.2 46.11h-68.91l59.56 95.9c6.47 10.49 9.7 22.44 9.7 35.86z"/>
                <path d="m2028.4 1664.3-10.38 46.12h-157.21v-244.12h157.21l10.38 46.11h-68.9v61.86h46.05l10.39 45.75h-56.44v44.28h68.9z"/>
                <path d="m2212.2 1644.2c0 18.06-6.11 33.61-18.35 46.67-12.23 13.05-26.89 19.58-43.98 19.58h-80.68l-22.85-46.12h68.22l-58.87-96.62c-6.23-10.49-9.35-22.2-9.35-35.14 0-18.05 6.18-33.61 18.53-46.66s27.06-19.58 44.14-19.58h88.65l14.2 46.11h-68.91l59.56 95.9c6.46 10.49 9.69 22.44 9.69 35.86z"/>
            </g>
            <g transform="translate(0 -67.262)">
                <path d="m1116.9 1850.2-82.22 251.91h-84.29l-88.744-251.91h113.68l42.439 120.46 39.18-120.46h59.96z"/>
                <path d="m1150.4 2078.3c0 7.94-3.21 14.79-9.64 20.54-6.43 5.76-14.2 8.63-23.3 8.63s-16.87-2.87-23.3-8.63c-6.43-5.75-9.65-12.6-9.65-20.54 0-7.95 3.22-14.8 9.65-20.55s14.2-8.63 23.3-8.63 16.87 2.88 23.3 8.63 9.64 12.6 9.64 20.55z"/>
            </g>
            <g transform="matrix(1.0196 0 0 1.0196 -16.938 -181.59)">
                <path d="m1308.8 2283.4-90.86 325.38h-94.3l-39.49-138.99-39.1 138.99h-89.713l-92.775-325.38h141.08l34.89 124.4 36.04-124.4h86.25l31.44 109.81 34.12-109.81h82.42z"/>
                <path d="m1544.1 2498.1c0 32.15-10.92 59.7-32.78 82.66-21.85 22.96-47.98 34.44-78.4 34.44-30.41 0-56.48-11.48-78.2-34.44-21.73-22.96-32.59-50.51-32.59-82.66v-158.44h111.56v220.44h39.49v-220.44h70.92v158.44z"/>
                <path d="m1843.6 2609.2h-110.79l-55.97-97.66v97.66h-109.26v-270.28h148.36c19.43 0 36.1 7.36 50.03 22.08 13.93 14.73 20.9 32.36 20.9 52.89 0 27.55-11.12 48.62-33.36 63.21l90.09 132.1zm-137.24-143.45v-75.77h-29.52v75.77h29.52z"/>
                <path d="m2036.8 2558.1-11.5 51.06h-174.05v-270.28h109.26v219.22h76.29z"/>
                <rect x="2058.6" y="2338.9" width="109.26" height="270.28"/>
                <path d="m2447.7 2390h-76.29v219.22h-109.26v-219.22h-76.67l11.88-51.06h238.46l11.88 51.06z"/>
                <path d="m2711.5 2338.9-107.34 219.22h92.39l-11.5 51.06h-226.96l107.35-219.22h-92.78l11.5-51.06h227.34z"/>
                <path d="m2912.4 2558.1-11.5 51.06h-174.05v-270.28h174.05l11.5 51.06h-76.29v68.48h50.98l11.51 50.65h-62.49v49.03h76.29z"/>
                <path d="m3211.8 2609.2h-110.8l-55.97-97.66v97.66h-109.26v-270.28h148.37c19.42 0 36.1 7.36 50.03 22.08 13.93 14.73 20.89 32.36 20.89 52.89 0 27.55-11.12 48.62-33.35 63.21l90.09 132.1zm-137.25-143.45v-75.77h-29.52v75.77h29.52z"/>
            </g>
        </g>
        <g transform="matrix(-.88804 0 0 .88804 1183.6 233.47)">
            <path d="m-963.4 1954.2s-37.941 5.89-68.521-59.03c-30.58-64.91-73.81-149.69-55.07-225.12 0 0 37.48-85.97 90.689-17.68l153.74 182.73s-4.772 132.26-120.84 119.1z" fill="#a17e65"/>
            <g transform="translate(-1.641 1.2493)">
                <path d="m-845.32 1335.8s-19.715 60.33 2.038 90.47c21.754 30.13 6.672 101.47 6.672 101.47s60.791 33.5 41.132 104.83-85.899 69.28-85.899 69.28-19.327 87.98 69.921 158.7c0 0 20.746 35.6-49.474 125.99 0 0-19.481 33.25-43.996-2.81 0 0-128.52-139.66-112.2-330.27 0 0 7.37-67.1-2.4-99.65l-10.75-13.79 2.43-45.76s22.45 0.44 36.395-6.43l190.96-332.42s-12.544-5.92 12.321-53.34c0 0 12.764-12.61 29.885 8.44 0 0 23.232 18.3 12.768 34.69-10.464 16.4-99.805 190.6-99.805 190.6z"/>
            </g>
            <path d="m-961.52 1698.8c1.349-3.91 2.467-8.47 3.282-13.79 0 0 5.219-11.08-51.924-66.47-57.15-55.4-51.66 27.01-51.66 27.01s19.95 41.96 54.22 67.82c-11.63 6.83-18.14 15.9-16.5 28.19 4.05 30.44 25.765 32.74 25.765 32.74-10.045 3.58-11.705 25.88-11.705 25.88 1.7 28.38 37.113 24.1 37.113 24.1-0.232 26.47 21.926 24.75 21.926 24.75s22.367-0.83 85.607-2.22c63.24-1.4 61.225 17.87 61.225 17.87 60.899 0.19 33.164-68.52 33.164-68.52 13.217-17.55 1.085-60.47 1.085-60.47 5.587-66.23-44.843-65.64-44.843-65.64l-13.473 9.17-8.632 10.53s-45.608-1.1-95.501 4.81c-10.001 1.18-19.84 2.56-29.149 4.24zm41.131-46.43s62.848-7.46 94.633-41.97c0 0 23.025-32.24-29.787-46.95 0 0-63.199 20.79-75.853 37.74-34.183 45.77 11.007 51.18 11.007 51.18z" fill="#b0876b"/>
        </g>
        <g transform="matrix(2.5936 0 0 2.4145 -2038.2 302.01)" fill="#f9372c" fill-rule="nonzero">
            <path d="m873.36 1252.2v-129.51h18.411c8.2 0 14.734 0.67 19.602 2.01 4.92 1.35 9.073 3.61 12.459 6.8 3.438 3.3 6.163 7.41 8.173 12.33 2.064 4.98 3.095 10.01 3.095 15.1 0 9.28-3.359 17.14-10.078 23.57 6.507 2.35 11.639 6.46 15.395 12.33 3.81 5.81 5.714 12.58 5.714 20.3 0 10.12-3.386 18.67-10.158 25.66-4.073 4.31-8.65 7.3-13.728 8.98-5.556 1.62-12.513 2.43-20.872 2.43h-28.013zm18.491-73.9h5.793c6.877 0 11.917-1.6 15.117-4.82 3.201-3.21 4.801-7.95 4.801-14.22 0-6.09-1.64-10.72-4.92-13.88s-8.041-4.74-14.284-4.74h-6.507v37.66zm0 55.53h11.427c8.359 0 14.496-1.73 18.411-5.2 4.127-3.75 6.19-8.5 6.19-14.26 0-5.59-1.984-10.29-5.952-14.09-3.862-3.75-10.766-5.62-20.712-5.62h-9.364v39.17z"/>
            <path d="m962.34 1186.9c0-18.23 6.322-33.89 18.967-46.97 12.591-13.09 27.719-19.63 45.389-19.63 17.46 0 32.43 6.6 44.92 19.8 12.54 13.19 18.81 29.05 18.81 47.55 0 18.63-6.3 34.42-18.89 47.4-12.64 13.03-27.91 19.54-45.79 19.54-15.82 0-30.023-5.79-42.614-17.36-13.861-12.81-20.792-29.58-20.792-50.33zm18.649 0.25c0 14.32 4.55 26.09 13.65 35.31 9.047 9.23 19.497 13.84 31.347 13.84 12.86 0 23.7-4.69 32.54-14.09 8.83-9.5 13.25-21.08 13.25-34.72 0-13.82-4.37-25.39-13.1-34.73-8.67-9.39-19.41-14.09-32.22-14.09-12.74 0-23.51 4.7-32.293 14.09-8.783 9.28-13.174 20.75-13.174 34.39z"/>
            <path d="m1132.2 1122.7v78.01c0 11.13 1.72 19.26 5.16 24.41 5.13 7.44 12.35 11.15 21.66 11.15 9.37 0 16.61-3.71 21.75-11.15 3.43-4.98 5.15-13.11 5.15-24.41v-78.01h18.49v83.38c0 13.64-4.02 24.88-12.06 33.72-9.04 9.84-20.16 14.76-33.33 14.76s-24.25-4.92-33.25-14.76c-8.04-8.84-12.06-20.08-12.06-33.72v-83.38h18.49z"/>
            <path d="m1233.8 1252.2v-138.32l89.35 98.81v-90h18.49v137.4l-89.35-98.56v90.67h-18.49z"/>
            <path d="m1404.8 1141.1v111.14h-18.49v-111.14h-28.17v-18.37h74.76v18.37h-28.1z"/>
            <path d="m1482.5 1196.3-40-73.56h21.27l28.01 51.75 28.1-51.75h21.26l-40.15 73.56v55.95h-18.49v-55.95z"/>
            <path d="m891.85 1388.1h52.852v-50.66h18.49v129.51h-18.49v-60.48h-52.852v60.48h-18.491v-129.51h18.491v50.66z"/>
            <path d="m1011 1337.4v78.01c0 11.13 1.71 19.26 5.15 24.41 5.14 7.43 12.36 11.15 21.67 11.15 9.36 0 16.61-3.72 21.74-11.15 3.44-4.98 5.16-13.12 5.16-24.41v-78.01h18.49v83.38c0 13.64-4.02 24.88-12.06 33.72-9.05 9.84-20.16 14.76-33.33 14.76-13.18 0-24.26-4.92-33.25-14.76-8.045-8.84-12.066-20.08-12.066-33.72v-83.38h18.496z"/>
            <path d="m1112.6 1466.9v-138.32l89.36 98.81v-90h18.49v137.39l-89.36-98.55v90.67h-18.49z"/>
            <path d="m1283.6 1355.8v111.14h-18.49v-111.14h-28.17v-18.37h74.75v18.37h-28.09z"/>
            <path d="m1395.8 1355.8h-49.12v31.12h47.69v18.37h-47.69v43.28h49.12v18.37h-67.61v-129.51h67.61v18.37z"/>
            <path d="m1461.6 1411.8 37.93 55.19h-22.62l-34.99-53.01h-3.34v53.01h-18.49v-129.51h21.67c16.19 0 27.88 3.22 35.07 9.65 7.94 7.16 11.91 16.6 11.91 28.35 0 9.17-2.49 17.05-7.46 23.65-4.98 6.6-11.54 10.82-19.68 12.67zm-23.02-14.85h5.88c17.51 0 26.26-7.07 26.26-21.22 0-13.25-8.51-19.88-25.55-19.88h-6.59v41.1z"/>
        </g>
        <g transform="matrix(1.6336 0 0 1.6336 -1190.9 -1690.6)" fill="#fff" fill-rule="nonzero">
            <path d="m899.79 1171-9.47 81.24h-13.224l9.47-81.24h-21.308l1.501-13h54.916l-1.501 13h-20.384z"/>
            <path d="m945.35 1149.1-5.89 50.48c5.12-4.19 10.317-6.29 15.591-6.29 5.313 0 9.547 1.49 12.704 4.46 3.272 2.93 4.909 6.77 4.909 11.53 0 1.14-0.058 2.43-0.174 3.88-0.115 1.44-0.269 3.08-0.462 4.91l-3.984 34.12h-12.762l4.042-34.85c0.231-1.87 0.347-3.56 0.347-5.07 0-5.12-2.849-7.69-8.546-7.69-8.162 0-12.916 5.84-14.264 17.52l-3.522 30.09h-12.762l12.011-103.09h12.762z"/>
            <path d="m998.94 1228.3c0 4.23 1.388 7.71 4.158 10.43 2.81 2.73 6.39 4.09 10.74 4.09 5.97 0 10.55-2.36 13.74-7.08l9.53 5.56c-3.31 4.72-6.72 8.01-10.22 9.88-3.54 1.92-7.97 2.87-13.28 2.87-8.43 0-15.15-2.62-20.154-7.87-5.005-5.25-7.507-12.27-7.507-21.06 0-9.2 2.753-16.88 8.258-23.07 5.466-6.14 12.373-9.22 20.733-9.22 8.08 0 14.45 2.77 19.11 8.3 4.74 5.58 7.1 13.04 7.1 22.4 0 0.98-0.05 2.57-0.17 4.77h-42.038zm29.278-10.87c-1.35-8.87-5.99-13.3-13.92-13.3-7.5 0-12.39 4.43-14.665 13.3h28.585z"/>
            <path d="m1124.6 1171-9.47 81.24h-13.22l9.47-81.24h-21.31l1.5-13h54.92l-1.5 13h-20.39z"/>
            <path d="m1200 1194.7-6.69 57.49h-12.77l0.75-6.22c-5.46 5.04-11.12 7.56-16.97 7.56-7.2 0-13.07-2.58-17.62-7.75-4.54-5.17-6.81-11.86-6.81-20.08 0-9.48 2.6-17.25 7.8-23.31 5.27-6.07 12.03-9.1 20.26-9.1 3.89 0 7.2 0.67 9.94 2.02 2.77 1.34 5.6 3.66 8.49 6.95l0.86-7.56h12.76zm-15.53 27.1c0-5.09-1.39-9.22-4.16-12.4-2.77-3.21-6.35-4.82-10.74-4.82-4.77 0-8.77 1.98-12.01 5.92-3.23 3.99-4.85 8.87-4.85 14.65 0 5.05 1.35 9.18 4.04 12.39 2.7 3.22 6.16 4.82 10.4 4.82 4.69 0 8.75-2.01 12.18-6.04 3.43-4.11 5.14-8.95 5.14-14.52z"/>
            <path d="m1230.6 1194.7-0.58 5.31c5.05-4.48 10.15-6.72 15.31-6.72 5.31 0 9.56 1.57 12.76 4.7 3.12 3.13 4.67 7.41 4.67 12.82 0 2.93-0.23 6.43-0.69 10.5l-3.64 30.88h-12.7l3.93-33.81c0.15-1.26 0.26-2.38 0.31-3.36 0.06-0.98 0.09-1.85 0.09-2.62 0-5.21-2.65-7.82-7.97-7.82-3.27 0-6.08 1.06-8.43 3.18-1.92 1.66-3.35 3.7-4.27 6.1-0.5 1.22-0.93 2.72-1.27 4.49-0.35 1.77-0.66 3.81-0.93 6.13l-3.23 27.71h-12.76l6.7-57.49h12.7z"/>
            <path d="m1295.1 1207.2-5.25 44.98h-12.77l5.26-44.98h-7.22l1.44-12.51h7.22l3.12-26.68h12.76l-3.12 26.68h11.78l-1.44 12.51h-11.78z"/>
            <path d="m1373.2 1194.7-6.7 57.49h-12.76l0.75-6.22c-5.47 5.04-11.13 7.56-16.98 7.56-7.2 0-13.07-2.58-17.61-7.75-4.55-5.17-6.82-11.86-6.82-20.08 0-9.48 2.6-17.25 7.8-23.31 5.27-6.07 12.03-9.1 20.27-9.1 3.89 0 7.2 0.67 9.93 2.02 2.77 1.34 5.6 3.66 8.49 6.95l0.87-7.56h12.76zm-15.54 27.1c0-5.09-1.38-9.22-4.15-12.4-2.78-3.21-6.36-4.82-10.75-4.82-4.77 0-8.77 1.98-12.01 5.92-3.23 3.99-4.85 8.87-4.85 14.65 0 5.05 1.35 9.18 4.05 12.39 2.69 3.22 6.15 4.82 10.39 4.82 4.7 0 8.76-2.01 12.18-6.04 3.43-4.11 5.14-8.95 5.14-14.52z"/>
            <path d="m1409.1 1149.1-11.96 103.09h-12.76l12.01-103.09h12.71z"/>
            <path d="m1438.4 1167.4c0 1.96-0.67 3.64-2.02 5.07-1.34 1.42-2.96 2.13-4.85 2.13s-3.52-0.73-4.91-2.19c-1.34-1.55-2.02-3.32-2.02-5.31 0-2 0.66-3.69 1.97-5.07 1.34-1.42 2.94-2.14 4.79-2.14 1.88 0 3.52 0.76 4.91 2.26 1.42 1.47 2.13 3.22 2.13 5.25zm-3.98 27.35-6.7 57.49h-12.76l6.7-57.49h12.76z"/>
            <path d="m1496.6 1239.7-1.45 12.51h-55.89l36.43-44.98h-27.31l1.44-12.51h51.28l-36.67 44.98h32.17z"/>
            <path d="m1530.3 1167.4c0 1.96-0.68 3.64-2.02 5.07-1.35 1.42-2.97 2.13-4.86 2.13-1.88 0-3.52-0.73-4.9-2.19-1.35-1.55-2.03-3.32-2.03-5.31 0-2 0.66-3.69 1.97-5.07 1.35-1.42 2.94-2.14 4.79-2.14 1.89 0 3.52 0.76 4.91 2.26 1.42 1.47 2.14 3.22 2.14 5.25zm-3.99 27.35-6.7 57.49h-12.76l6.7-57.49h12.76z"/>
            <path d="m1556.8 1194.7-0.58 5.31c5.05-4.48 10.14-6.72 15.3-6.72 5.32 0 9.57 1.57 12.77 4.7 3.11 3.13 4.67 7.41 4.67 12.82 0 2.93-0.23 6.43-0.69 10.5l-3.64 30.88h-12.7l3.93-33.81c0.15-1.26 0.25-2.38 0.31-3.36s0.09-1.85 0.09-2.62c0-5.21-2.66-7.82-7.97-7.82-3.27 0-6.08 1.06-8.43 3.18-1.93 1.66-3.35 3.7-4.27 6.1-0.5 1.22-0.93 2.72-1.27 4.49-0.35 1.77-0.66 3.81-0.93 6.13l-3.23 27.71h-12.76l6.7-57.49h12.7z"/>
            <path d="m1663.8 1194.7-6.7 57.92c-0.42 3.46-0.89 6.47-1.41 9.03-0.52 2.57-1.11 4.72-1.76 6.47-1.35 3.58-3.35 6.65-6.01 9.22-5.16 4.88-11.86 7.32-20.09 7.32-8.51 0-15.4-2.36-20.68-7.08-2.69-2.36-4.58-5.04-5.66-8.05-1.07-2.77-1.61-6.66-1.61-11.66h12.35c0.31 5.41 1.62 9.35 3.93 11.81s5.89 3.69 10.74 3.69c5.24 0 9.22-1.48 11.96-4.43 2.73-2.94 4.46-7.63 5.19-14.06l0.93-7.88c-5.39 4.36-11.05 6.53-16.98 6.53-7.39 0-13.49-2.66-18.31-7.99-4.81-5.45-7.21-12.25-7.21-20.39 0-9.15 2.79-16.74 8.37-22.76 5.62-6.07 12.65-9.1 21.08-9.1 4.04 0 7.31 0.63 9.81 1.89 2.74 1.22 5.57 3.44 8.49 6.66l0.81-7.14h12.76zm-14.67 27.28c0-5.21-1.5-9.4-4.5-12.58-3-3.21-6.93-4.82-11.78-4.82-5.04 0-9.24 1.96-12.59 5.86-3.31 3.87-4.96 8.73-4.96 14.59 0 5.13 1.42 9.32 4.27 12.57 2.89 3.14 6.7 4.7 11.43 4.7 5.28 0 9.61-1.91 12.99-5.73 3.43-3.87 5.14-8.73 5.14-14.59z"/>
            <path d="m1731.4 1230.1-10.85 22.15h-14.38l49.31-100.95 30.78 100.95h-13.8l-6.47-22.15h-34.59zm5.72-12.09h25.18l-9.59-33.51-15.59 33.51z"/>
            <path d="m1861.4 1149.1-12.02 103.09h-12.7l0.69-6.16c-3.15 2.97-5.89 4.98-8.2 6.04-2.27 0.98-5.08 1.46-8.43 1.46-7.62 0-13.86-2.66-18.71-7.99-4.85-5.37-7.27-12.29-7.27-20.75 0-9.04 2.65-16.54 7.97-22.53 5.31-5.98 11.99-8.97 20.03-8.97 4.12 0 7.59 0.75 10.4 2.26 2.92 1.55 5.98 4.17 9.18 7.87l6.29-54.32h12.77zm-21.02 71.84c0-4.88-1.43-8.83-4.28-11.84-2.84-3.01-6.58-4.52-11.2-4.52-5 0-9.14 1.98-12.41 5.92-3.28 3.95-4.91 8.93-4.91 14.96 0 5.08 1.4 9.17 4.21 12.27 2.81 3.05 6.55 4.57 11.21 4.57 4.85 0 8.95-2.07 12.3-6.22 3.38-4.07 5.08-9.12 5.08-15.14z"/>
            <path d="m1922.7 1194.7-37.42 64.94-19.34-64.94h13.28l9.35 36.74 19.52-36.74h14.61z"/>
            <path d="m1937.7 1228.3c0 4.23 1.39 7.71 4.16 10.43 2.81 2.73 6.39 4.09 10.74 4.09 5.97 0 10.55-2.36 13.74-7.08l9.53 5.56c-3.31 4.72-6.72 8.01-10.22 9.88-3.54 1.92-7.97 2.87-13.28 2.87-8.43 0-15.15-2.62-20.16-7.87-5-5.25-7.5-12.27-7.5-21.06 0-9.2 2.75-16.88 8.25-23.07 5.47-6.14 12.38-9.22 20.73-9.22 8.09 0 14.46 2.77 19.12 8.3 4.73 5.58 7.1 13.04 7.1 22.4 0 0.98-0.06 2.57-0.17 4.77h-42.04zm29.28-10.87c-1.35-8.87-5.99-13.3-13.92-13.3-7.51 0-12.4 4.43-14.67 13.3h28.59z"/>
            <path d="m2010.4 1194.7-0.58 5.31c5.05-4.48 10.15-6.72 15.31-6.72 5.31 0 9.56 1.57 12.76 4.7 3.12 3.13 4.68 7.41 4.68 12.82 0 2.93-0.24 6.43-0.7 10.5l-3.64 30.88h-12.7l3.93-33.81c0.15-1.26 0.26-2.38 0.32-3.36 0.05-0.98 0.08-1.85 0.08-2.62 0-5.21-2.66-7.82-7.97-7.82-3.27 0-6.08 1.06-8.43 3.18-1.92 1.66-3.35 3.7-4.27 6.1-0.5 1.22-0.92 2.72-1.27 4.49s-0.66 3.81-0.93 6.13l-3.23 27.71h-12.76l6.7-57.49h12.7z"/>
            <path d="m2074.9 1207.2-5.25 44.98h-12.77l5.26-44.98h-7.22l1.44-12.51h7.22l3.12-26.68h12.76l-3.12 26.68h11.78l-1.44 12.51h-11.78z"/>
            <path d="m2144.3 1194.7-3.87 33.44c-0.3 2.85-0.69 5.33-1.15 7.45s-0.96 3.89-1.5 5.31c-1.08 2.72-2.89 5.15-5.43 7.26-4.31 3.58-9.99 5.37-17.04 5.37-6.69 0-12.04-1.81-16.05-5.43-4-3.66-6-8.56-6-14.71 0-0.93 0.04-2.03 0.14-3.29s0.24-2.71 0.43-4.34l3.58-31.06h12.76l-3.75 32.28c-0.15 1.39-0.27 2.6-0.34 3.63-0.08 1.04-0.12 1.91-0.12 2.6 0 6.06 3.37 9.09 10.1 9.09 3.66 0 6.36-0.99 8.09-2.99 1.73-1.99 2.89-5.49 3.46-10.5l3.99-34.11h12.7z"/>
            <path d="m2175 1194.7-0.58 4.94c4.31-4.31 8.66-6.47 13.05-6.47 3.85 0 7.35 1.48 10.51 4.45l-8.14 11.11c-2.35-2.11-4.7-3.17-7.05-3.17-1.62 0-3.04 0.33-4.27 1.01-1.23 0.67-2.3 1.73-3.21 3.17-0.9 1.44-1.65 3.31-2.25 5.59-0.6 2.27-1.07 5-1.41 8.17l-3.35 28.69h-12.77l6.7-57.49h12.77z"/>
            <path d="m2213 1228.3c0 4.23 1.38 7.71 4.16 10.43 2.81 2.73 6.39 4.09 10.74 4.09 5.96 0 10.54-2.36 13.74-7.08l9.53 5.56c-3.31 4.72-6.72 8.01-10.22 9.88-3.55 1.92-7.97 2.87-13.28 2.87-8.44 0-15.15-2.62-20.16-7.87-5-5.25-7.51-12.27-7.51-21.06 0-9.2 2.76-16.88 8.26-23.07 5.47-6.14 12.38-9.22 20.73-9.22 8.09 0 14.46 2.77 19.12 8.3 4.73 5.58 7.1 13.04 7.1 22.4 0 0.98-0.06 2.57-0.17 4.77h-42.04zm29.27-10.87c-1.34-8.87-5.98-13.3-13.91-13.3-7.51 0-12.4 4.43-14.67 13.3h28.58z"/>
            <path d="m2305.4 1201.1-7.22 7.63c-3.38-3.21-6.52-4.82-9.41-4.82-1.96 0-3.59 0.58-4.88 1.74s-1.93 2.59-1.93 4.3c0 1.67 0.53 3.08 1.61 4.21 1.08 1.19 3.33 2.77 6.76 4.76 4.89 2.89 8.16 5.54 9.82 7.94 1.77 2.36 2.65 5.43 2.65 9.22 0 5.45-1.79 9.82-5.37 13.12-3.65 3.25-8.41 4.88-14.26 4.88-7.97 0-14.57-3.8-19.81-11.41l8.38-6.17c3.42 4.36 7.08 6.53 10.97 6.53 2.19 0 3.95-0.61 5.28-1.83s1.99-2.8 1.99-4.76c0-1.71-0.56-3.09-1.67-4.15-0.54-0.53-1.48-1.26-2.83-2.19-1.35-0.94-3.18-2.06-5.49-3.36-4.08-2.4-6.91-4.74-8.49-7.02-1.57-2.4-2.36-5.33-2.36-8.79 0-5.21 1.81-9.52 5.43-12.94 3.61-3.42 8.21-5.13 13.8-5.13 6.16 0 11.83 2.75 17.03 8.24z"/>
            <path d="m2410.6 1222.9c0 8.79-2.88 16.18-8.66 22.16-5.73 5.98-12.82 8.97-21.25 8.97-8.81 0-16.01-2.83-21.6-8.48-5.62-5.7-8.43-12.9-8.43-21.61 0-8.91 2.91-16.32 8.72-22.21 5.85-5.95 13.17-8.92 21.95-8.92 8.62 0 15.65 2.81 21.07 8.43 5.47 5.53 8.2 12.75 8.2 21.66zm-12.87-0.67c0-5.53-1.52-9.91-4.57-13.12-3.04-3.34-7.02-5-11.95-5-5.12 0-9.35 1.85-12.7 5.55-3.35 3.74-5.03 8.44-5.03 14.1 0 5.69 1.58 10.27 4.74 13.73 3.15 3.54 7.24 5.31 12.24 5.31s9.12-1.93 12.36-5.8c3.27-3.82 4.91-8.74 4.91-14.77z"/>
            <path d="m2440.6 1207.2-5.2 44.98h-12.76l5.25-44.98h-8.31l1.44-12.51h8.31l3.01-25.7c0.77-6.84 2.52-11.86 5.25-15.08 2.74-3.21 6.64-4.82 11.72-4.82 3.08 0 6.68 1.04 10.8 3.12l-1.38 11.84c-2.39-2.04-4.58-3.06-6.59-3.06-2.31 0-4.02 0.84-5.14 2.51-1.04 1.66-1.82 4.74-2.36 9.21l-2.54 21.98h11.55l-1.45 12.51h-11.6z"/>
        </g>
        <g transform="matrix(1.0992 0 0 1.0992 -393.1 -456.35)" fill-rule="nonzero">
            <g transform="matrix(.62452 0 0 .62452 1487.9 1811.3)">
                <path d="m1538.7 3864.2v39.65c-11.7-8.86-22.24-13.28-31.6-13.28-10.1 0-18.36 3.77-24.76 11.33-6.41 7.16-9.61 16.73-9.61 28.71 0 10.54 2.28 19.59 6.84 27.14 2.34 4.04 6.19 9.25 11.54 15.63 5.36 6.38 12.29 14.06 20.79 23.05 15.65 16.79 26.31 31.31 31.97 43.55 5.67 11.85 8.5 26.37 8.5 43.56 0 23.3-6.22 42.51-18.66 57.61-12.44 14.72-28.4 22.07-47.86 22.07-16.38 0-30.37-4.75-41.95-14.25v-40.24c13.68 10.55 26.12 15.82 37.33 15.82 10.47 0 18.66-3.68 24.58-11.03 5.91-7.36 8.87-17.35 8.87-29.98 0-10.94-2.28-20.77-6.84-29.5-2.34-4.16-5.61-8.95-9.79-14.35-4.19-5.4-9.43-11.43-15.71-18.07-9.73-10.15-17.8-19.14-24.21-26.95-6.4-7.81-11.15-14.65-14.23-20.51-5.91-11.46-8.87-25.91-8.87-43.36 0-23.57 5.79-42.25 17.37-56.05 11.71-13.94 27.41-20.9 47.12-20.9 13.68 0 26.74 3.45 39.18 10.35z"/>
                <path d="m1695.6 4060.1c0 68.36-20.02 102.54-60.05 102.54-40.04 0-60.06-34.7-60.06-104.1 0-69.67 19.96-104.5 59.87-104.5 10.35 0 19.31 2.09 26.89 6.25 7.57 4.17 13.83 10.62 18.75 19.34 4.93 8.72 8.6 19.73 11 33.01s3.6 29.1 3.6 47.46zm-36.59-0.98c0-26.56-1.66-45.05-4.99-55.47-3.32-10.54-9.24-15.82-17.74-15.82-8.37 0-14.35 5.21-17.92 15.63-3.33 10.41-4.99 28.58-4.99 54.49s1.66 44.01 4.99 54.3c3.57 10.41 9.55 15.62 17.92 15.62 8.38 0 14.23-5.14 17.56-15.43 3.45-9.63 5.17-27.41 5.17-53.32z"/>
                <path d="m1837.7 3957.3v202.15h-35.29v-25.97c-5.05 11.06-10.1 18.68-15.16 22.85-5.05 4.16-11.7 6.25-19.95 6.25-15.9 0-27.54-8.6-34.93-25.78-7.39-17.19-11.08-44.14-11.08-80.86 0-35.03 3.69-60.78 11.08-77.25s19.03-24.71 34.93-24.71c14.53 0 26.24 8.73 35.11 26.18v-22.86h35.29zm-79.83 100.2c0 26.56 1.67 45.12 4.99 55.66 3.45 10.55 9.49 15.82 18.11 15.82 7.89 0 13.61-5.46 17.19-16.4 3.57-11.72 5.36-29.75 5.36-54.1 0-24.48-1.79-42.58-5.36-54.3-3.58-10.94-9.3-16.41-17.19-16.41-8.38 0-14.35 5.21-17.92 15.63-3.45 9.63-5.18 27.67-5.18 54.1z"/>
                <path d="m1877.8 4242.3v-284.97h35.29v26.18c4.93-11.07 9.98-18.75 15.16-23.05 5.17-4.3 11.94-6.45 20.32-6.45 15.77 0 27.32 8.63 34.65 25.88s10.99 44.24 10.99 80.96c0 35.94-3.75 61.78-11.27 77.54-7.39 16.14-19.28 24.22-35.66 24.22-7.89 0-14.35-1.89-19.4-5.67-2.47-1.82-4.93-4.42-7.4-7.81-2.46-3.38-4.92-7.49-7.39-12.3v105.47h-35.29zm79.83-182.82c0-27.47-1.73-46.09-5.18-55.86-3.32-10.54-9.3-15.82-17.92-15.82-8.13 0-13.92 5.47-17.37 16.41-3.45 10.16-5.18 28.25-5.18 54.3 0 26.04 1.73 44.14 5.18 54.29 3.57 10.81 9.36 16.21 17.37 16.21 8.37 0 14.35-5.2 17.92-15.62 3.45-9.64 5.18-27.6 5.18-53.91z"/>
                <path d="m2148.1 3857.9h29.93l61.17 301.56h-38.07l-10.72-58.79h-56.54l-10.9 58.79h-36.96l62.09-301.56zm36.77 211.33-8.5-48.05c-5.67-32.68-10.29-67.58-13.86-104.69-1.72 18.1-3.94 36.43-6.65 54.98-2.71 18.56-5.91 38.25-9.61 59.09l-7.02 38.67h45.64z"/>
                <path d="m2370.9 3827.6v331.83h-35.29v-25.97c-5.05 11.06-10.11 18.68-15.15 22.85-5.06 4.16-11.77 6.25-20.15 6.25-15.77 0-27.35-8.56-34.74-25.69-7.39-17.12-11.08-44.04-11.08-80.76 0-17.71 0.92-33.01 2.77-45.9s4.65-23.5 8.41-31.83c3.75-8.34 8.59-14.49 14.5-18.46 5.92-3.97 12.94-5.96 21.07-5.96 7.76 0 14.16 1.96 19.22 5.86 2.46 1.83 4.98 4.43 7.57 7.82 2.59 3.38 5.11 7.55 7.58 12.5v-152.54h35.29zm-79.83 229.88c0 26.56 1.67 45.12 4.99 55.66 3.45 10.55 9.49 15.82 18.11 15.82 7.89 0 13.61-5.46 17.19-16.4 3.57-11.72 5.36-29.75 5.36-54.1 0-24.48-1.79-42.58-5.36-54.3-3.58-10.94-9.3-16.41-17.19-16.41-8.38 0-14.35 5.21-17.92 15.63-3.45 9.63-5.18 27.67-5.18 54.1z"/>
                <path d="m2392.5 3957.3h37.88l13.86 64.07c2.83 13.02 5.24 26.79 7.21 41.3 1.97 14.52 3.57 30.38 4.8 47.56 0.74-4.03 1.11-6.38 1.11-7.03l4.25-30.08c1.6-11.45 4.74-28.71 9.43-51.75l12.75-64.07h34.18l-49.89 202.15h-23.84l-51.74-202.15z"/>
                <path d="m2611 4091.3h32.89c-2.59 47.52-21.07 71.29-55.44 71.29-10.22 0-19-2.02-26.33-6.06-7.33-4.03-13.4-10.28-18.2-18.75-4.81-8.46-8.35-19.2-10.63-32.22s-3.41-28.52-3.41-46.49c0-35.68 4.71-62.11 14.13-79.29 9.43-17.19 23.99-25.79 43.7-25.79 38.31 0 57.47 35.68 57.47 107.04v4.68h-80.75c0 43.23 8.13 64.85 24.39 64.85 14.78 0 22.18-13.09 22.18-39.26zm-1.85-52.54c-1.48-21.22-3.76-35.16-6.84-41.8-3.2-7.42-8.38-11.13-15.52-11.13-7.27 0-12.44 3.71-15.52 11.13-3.08 6.64-5.36 20.58-6.84 41.8h44.72z"/>
                <path d="m2676.6 3957.3h35.3v25.2c6.03-10.68 12.01-18.16 17.92-22.46 5.92-4.3 13.74-6.77 23.47-7.42v39.06c-2.46-0.39-4.56-0.59-6.28-0.59-12.69 0-21.75 3.45-27.17 10.35-5.29 6.78-7.94 18.62-7.94 35.55v122.46h-35.3v-202.15z"/>
                <path d="m2790.3 3900.7h35.29v56.64h19.22v29.69h-19.22v172.46h-35.29v-172.46h-19.4v-29.69h19.4v-56.64z"/>
                <path d="m2870.2 3957.3h35.48v202.15h-35.48v-202.15zm16.63-85.93c6.4 0 11.95 2.47 16.63 7.42s7.02 10.87 7.02 17.77c0 7.03-2.34 13.02-7.02 17.97s-10.35 7.42-17 7.42-12.32-2.47-17-7.42c-4.56-4.82-6.84-10.87-6.84-18.16 0-6.77 2.34-12.63 7.02-17.58 5.05-4.95 10.78-7.42 17.19-7.42z"/>
                <path d="m3019.3 3961.4v34.96c-8.62-6.77-17.68-10.16-27.16-10.16-3.21 0-6.16 0.59-8.87 1.76s-5.09 2.76-7.12 4.78-3.63 4.43-4.8 7.23-1.76 5.76-1.76 8.89c0 9.63 8.26 21.09 24.76 34.37 6.66 5.47 12.2 10.55 16.63 15.24 4.44 4.68 7.83 9.11 10.17 13.28 4.8 8.2 7.2 18.55 7.2 31.05 0 18.1-4.98 32.62-14.96 43.56-9.86 10.8-23.1 16.21-39.73 16.21-10.23 0-20.57-3.19-31.05-9.57v-36.14c10.23 8.08 19.9 12.11 29.02 12.11 16.13 0 24.2-8.4 24.2-25.19 0-6.25-1.48-11.66-4.43-16.21-1.36-2.22-3.51-4.79-6.47-7.72s-6.59-6.21-10.9-9.86c-14.91-12.24-25.01-22.53-30.31-30.86-5.17-8.59-7.76-18.95-7.76-31.05 0-16.28 4.74-29.63 14.23-40.04 9.61-10.29 22.11-15.43 37.51-15.43 10.84 0 21.37 2.93 31.6 8.79z"/>
                <path d="m3130.5 4091.3h32.89c-2.58 47.52-21.06 71.29-55.43 71.29-10.23 0-19.01-2.02-26.34-6.06-7.33-4.03-13.39-10.28-18.2-18.75-4.8-8.46-8.34-19.2-10.62-32.22s-3.42-28.52-3.42-46.49c0-35.68 4.71-62.11 14.13-79.29 9.43-17.19 24-25.79 43.71-25.79 38.31 0 57.46 35.68 57.46 107.04v4.68h-80.75c0 43.23 8.14 64.85 24.4 64.85 14.78 0 22.17-13.09 22.17-39.26zm-1.85-52.54c-1.48-21.22-3.76-35.16-6.83-41.8-3.21-7.42-8.38-11.13-15.53-11.13-7.26 0-12.44 3.71-15.52 11.13-3.08 6.64-5.36 20.58-6.84 41.8h44.72z"/>
                <path d="m3196.1 3957.3h35.29v25c9.73-18.88 22.67-28.32 38.81-28.32 17.61 0 29.56 9.44 35.85 28.32 9.36-18.88 22.66-28.32 39.91-28.32 13.43 0 23.68 3.75 30.77 11.23 7.08 7.49 10.62 18.53 10.62 33.11v161.13h-35.48v-133.01c0-15.23-1.35-25.45-4.06-30.66-2.59-5.34-7.64-8.01-15.15-8.01-8.5 0-14.29 2.74-17.37 8.21-2.96 5.33-4.44 15.49-4.44 30.46v133.01h-36.59v-133.01c0-7.16-0.34-13.21-1.01-18.16-0.68-4.95-1.82-8.92-3.42-11.91-1.6-3-3.7-5.18-6.28-6.55-2.59-1.36-5.79-2.05-9.61-2.05-8.13 0-13.92 2.93-17.37 8.79s-5.18 15.82-5.18 29.88v133.01h-35.29v-202.15z"/>
                <path d="m3501.2 4091.3h32.89c-2.59 47.52-21.06 71.29-55.43 71.29-10.23 0-19.01-2.02-26.34-6.06-7.33-4.03-13.39-10.28-18.2-18.75-4.8-8.46-8.34-19.2-10.62-32.22s-3.42-28.52-3.42-46.49c0-35.68 4.71-62.11 14.14-79.29 9.42-17.19 23.99-25.79 43.7-25.79 38.31 0 57.46 35.68 57.46 107.04v4.68h-80.75c0 43.23 8.13 64.85 24.4 64.85 14.78 0 22.17-13.09 22.17-39.26zm-1.85-52.54c-1.48-21.22-3.76-35.16-6.84-41.8-3.2-7.42-8.37-11.13-15.52-11.13-7.27 0-12.44 3.71-15.52 11.13-3.08 6.64-5.36 20.58-6.84 41.8h44.72z"/>
                <path d="m3566.8 3957.3h35.29v23.25c10.1-17.71 23.16-26.57 39.18-26.57 15.52 0 26.61 6.45 33.26 19.34 3.69 7.29 5.54 21.42 5.54 42.38v143.75h-35.29l-0.19-135.15c0-13.68-1.54-23.38-4.62-29.11-3.08-5.72-8.37-8.59-15.89-8.59-4.06 0-7.48 0.75-10.25 2.25-2.78 1.49-5.02 3.9-6.75 7.22-1.72 3.32-2.99 7.65-3.79 12.99s-1.2 11.92-1.2 19.73v130.66h-35.29v-202.15z"/>
                <path d="m3724.2 3900.7h35.29v56.64h19.22v29.69h-19.22v172.46h-35.29v-172.46h-19.41v-29.69h19.41v-56.64z"/>
                <path d="m3878 3961.4v34.96c-8.63-6.77-17.68-10.16-27.17-10.16-3.2 0-6.16 0.59-8.87 1.76s-5.08 2.76-7.11 4.78-3.63 4.43-4.8 7.23c-1.18 2.8-1.76 5.76-1.76 8.89 0 9.63 8.25 21.09 24.76 34.37 6.65 5.47 12.2 10.55 16.63 15.24 4.44 4.68 7.82 9.11 10.16 13.28 4.81 8.2 7.21 18.55 7.21 31.05 0 18.1-4.99 32.62-14.97 43.56-9.85 10.8-23.09 16.21-39.73 16.21-10.22 0-20.57-3.19-31.04-9.57v-36.14c10.22 8.08 19.9 12.11 29.01 12.11 16.14 0 24.21-8.4 24.21-25.19 0-6.25-1.48-11.66-4.44-16.21-1.35-2.22-3.51-4.79-6.46-7.72-2.96-2.93-6.59-6.21-10.91-9.86-14.9-12.24-25-22.53-30.3-30.86-5.18-8.59-7.76-18.95-7.76-31.05 0-16.28 4.74-29.63 14.23-40.04 9.61-10.29 22.11-15.43 37.51-15.43 10.84 0 21.37 2.93 31.6 8.79z"/>
                <path d="m3948.4 4114.4c6.16 0 11.46 2.35 15.89 7.04 4.44 4.68 6.65 10.35 6.65 16.99s-2.21 12.3-6.65 16.99c-4.68 4.56-10.1 6.84-16.26 6.84-6.04 0-11.39-2.28-16.08-6.84-4.43-4.69-6.65-10.42-6.65-17.19 0-6.64 2.22-12.24 6.65-16.79 4.56-4.69 10.04-7.04 16.45-7.04zm-18.85-256.44h37.33v229.1h-37.33v-229.1z"/>
            </g>
            <g transform="matrix(.73766 0 0 .73766 1319.1 1045.2)">
                <path d="m1478.8 3857.9h57.65c21.81 0 38.56 1.17 50.26 3.52 11.95 2.21 22.98 6.44 33.08 12.69 18.6 11.33 33.26 28.32 43.98 50.98 10.72 22.65 16.07 47.98 16.07 75.97 0 29.69-6.03 57.17-18.1 82.43-6.04 12.5-13.06 23.47-21.07 32.91s-17.19 17.48-27.53 24.12c-12.08 7.29-24.7 12.3-37.88 15.04-7.03 1.3-15.4 2.28-25.14 2.93-9.73 0.65-21.12 0.97-34.18 0.97h-72.25l35.11-301.56zm37.32 41.6-25.31 218.36h32.15c23.65 0 42.13-2.47 55.44-7.42 12.93-4.82 24.2-13.8 33.81-26.95 16.76-22.4 25.13-50.46 25.13-84.18 0-20.97-3.75-39.33-11.27-55.08-7.64-16.02-17.99-27.61-31.04-34.77-12.45-6.64-30.86-9.96-55.25-9.96h-23.66z"/>
                <path d="m1771.4 3975.5-1.85 15.82c13.8-13.8 27.72-20.7 41.77-20.7 12.32 0 23.53 4.75 33.63 14.25l-26.06 35.55c-7.51-6.77-15.03-10.16-22.54-10.16-5.18 0-9.73 1.08-13.68 3.23-3.94 2.15-7.36 5.53-10.25 10.15-2.9 4.62-5.3 10.58-7.21 17.87-1.91 7.3-3.42 16.02-4.53 26.18l-10.71 91.79h-40.84l21.44-183.98h40.83z"/>
                <path d="m2043.2 3975.5-21.44 183.98h-40.83l2.4-19.92c-17.49 16.15-35.6 24.22-54.33 24.22-23.03 0-41.82-8.27-56.36-24.8-14.53-16.54-21.8-37.96-21.8-64.26 0-30.34 8.31-55.21 24.94-74.61 16.88-19.4 38.5-29.1 64.86-29.1 12.45 0 23.04 2.14 31.79 6.44 8.87 4.3 17.92 11.72 27.16 22.27l2.77-24.22h40.84zm-49.71 86.72c0-16.28-4.43-29.5-13.3-39.65-8.87-10.29-20.33-15.43-34.37-15.43-15.28 0-28.09 6.31-38.44 18.94-10.35 12.76-15.52 28.39-15.52 46.88 0 16.15 4.31 29.36 12.94 39.65 8.62 10.28 19.71 15.43 33.26 15.43 15.03 0 28.02-6.45 38.99-19.34 10.96-13.15 16.44-28.64 16.44-46.48z"/>
                <path d="m2142.4 3975.5-1.85 17.19c13.8-14.59 29.75-21.88 47.86-21.88 10.96 0 19.4 2.15 25.32 6.45 5.91 4.03 11.21 11.65 15.89 22.85 17.24-19.4 35.84-29.1 55.8-29.1 34.5 0 51.74 16.73 51.74 50.19 0 3.39-0.28 8.14-0.83 14.26s-1.32 13.67-2.31 22.66l-11.83 101.36h-40.83l12.56-106.44c1.11-9.9 1.67-17.19 1.67-21.88 0-16.01-7.64-24.02-22.92-24.02-6.03 0-11.27 0.94-15.71 2.83-4.43 1.89-8.22 4.82-11.36 8.79s-5.73 9.11-7.76 15.43-3.6 13.83-4.71 22.56l-11.83 102.73h-40.84l12.75-109.18c1.11-9.89 1.67-16.66 1.67-20.31 0-15.23-7.82-22.85-23.47-22.85-22.67 0-35.91 16.6-39.73 49.8l-12.01 102.54h-40.84l21.44-183.98h42.13z"/>
                <path d="m2571.5 3975.5-21.43 183.98h-40.84l2.4-19.92c-17.49 16.15-35.6 24.22-54.33 24.22-23.03 0-41.82-8.27-56.36-24.8-14.53-16.54-21.8-37.96-21.8-64.26 0-30.34 8.31-55.21 24.94-74.61 16.88-19.4 38.5-29.1 64.86-29.1 12.45 0 23.04 2.14 31.79 6.44 8.87 4.3 17.92 11.72 27.16 22.27l2.77-24.22h40.84zm-49.71 86.72c0-16.28-4.43-29.5-13.3-39.65-8.87-10.29-20.33-15.43-34.37-15.43-15.28 0-28.09 6.31-38.44 18.94-10.34 12.76-15.52 28.39-15.52 46.88 0 16.15 4.31 29.36 12.94 39.65 8.62 10.28 19.71 15.43 33.26 15.43 15.03 0 28.02-6.45 38.99-19.34 10.96-13.15 16.44-28.64 16.44-46.48z"/>
                <path d="m2665 4138c0 7.29-2.34 13.41-7.02 18.36s-10.47 7.42-17.37 7.42c-7.02 0-13-2.6-17.93-7.81-4.8-5.21-7.2-11.72-7.2-19.53 0-7.17 2.34-13.22 7.02-18.17 5.05-4.95 10.97-7.42 17.74-7.42 3.45 0 6.68 0.68 9.7 2.05s5.64 3.26 7.86 5.67c2.21 2.4 3.97 5.27 5.26 8.59s1.94 6.93 1.94 10.84zm27.16-280.08-25.86 222.46h-40.29l25.69-222.46h40.46z"/>
            </g>
            <g transform="matrix(.67993 0 0 .67993 1415.8 1307.5)">
                <path d="m1606.6 3547.5-33.3-100.4-33.3 100.4h66.6zm19.68 59.6h-105.96l-17.03 52.4h-79.1l108.62-301.6h80.98l108.61 301.6h-79.09l-17.03-52.4z"/>
                <path d="m1892.6 3520.7c-11.85-8.53-23.84-12.8-35.95-12.8-6.56 0-12.68 1.2-18.35 3.6-5.68 2.4-10.66 5.8-14.95 10.2s-7.63 9.6-10.03 15.6-3.6 12.74-3.6 20.2c0 7.2 1.2 13.8 3.6 19.8s5.68 11.2 9.84 15.6 9.14 7.8 14.95 10.2c5.8 2.4 11.98 3.6 18.54 3.6 12.87 0 24.85-4.66 35.95-14v61.6c-16.9 7.74-32.92 11.6-48.06 11.6-14.13 0-27.56-2.53-40.3-7.6-12.74-5.06-23.97-12.33-33.68-21.8-9.72-9.46-17.48-20.8-23.28-34s-8.7-27.93-8.7-44.2c0-16.26 2.77-31.13 8.32-44.6 5.55-13.46 13.12-25.06 22.71-34.8 9.59-9.73 21-17.33 34.25-22.8 13.24-5.46 27.44-8.2 42.57-8.2 16.65 0 32.04 3.74 46.17 11.2v61.6z"/>
                <path d="m2008 3514.7v144.8h-68.5v-144.8h-22.71v-60.4h22.71v-61.6h68.5v61.6h38.98v60.4h-38.98z"/>
                <path d="m2146.8 3454.3v205.2h-68.5v-205.2h68.5zm-73.04-78.8c0-5.6 1.01-10.86 3.03-15.8 2.02-4.93 4.79-9.26 8.32-13 3.53-3.73 7.63-6.66 12.3-8.8 4.67-2.13 9.65-3.2 14.95-3.2s10.28 1.07 14.95 3.2c4.67 2.14 8.77 5.07 12.3 8.8 3.53 3.74 6.31 8.07 8.32 13 2.02 4.94 3.03 10.2 3.03 15.8s-1.01 10.87-3.03 15.8c-2.01 4.94-4.79 9.27-8.32 13-3.53 3.74-7.63 6.67-12.3 8.8-4.67 2.14-9.65 3.2-14.95 3.2s-10.28-1.06-14.95-3.2c-4.67-2.13-8.77-5.06-12.3-8.8-3.53-3.73-6.3-8.06-8.32-13-2.02-4.93-3.03-10.2-3.03-15.8z"/>
                <path d="m2258.5 3555.9c0 6.94 1.2 13.27 3.59 19 2.4 5.74 5.55 10.74 9.46 15 3.91 4.27 8.58 7.6 14.01 10 5.42 2.4 11.16 3.6 17.21 3.6 6.06 0 11.8-1.2 17.22-3.6 5.43-2.4 10.1-5.73 14.01-10 3.91-4.26 7.06-9.26 9.46-15 2.39-5.73 3.59-11.93 3.59-18.6 0-6.4-1.2-12.46-3.59-18.2-2.4-5.73-5.55-10.73-9.46-15-3.91-4.26-8.58-7.6-14.01-10-5.42-2.4-11.16-3.6-17.22-3.6-6.05 0-11.79 1.2-17.21 3.6-5.43 2.4-10.1 5.74-14.01 10-3.91 4.27-7.06 9.2-9.46 14.8-2.39 5.6-3.59 11.6-3.59 18zm-72.29-0.8c0-15.2 2.91-29.4 8.71-42.6s13.88-24.66 24.22-34.4c10.34-9.73 22.64-17.4 36.9-23 14.25-5.6 29.83-8.4 46.73-8.4 16.66 0 32.11 2.74 46.36 8.2 14.26 5.47 26.62 13.07 37.09 22.8 10.47 9.74 18.61 21.34 24.41 34.8 5.8 13.47 8.7 28.34 8.7 44.6 0 16.27-2.96 31.14-8.89 44.6-5.93 13.47-14.06 25.07-24.41 34.8-10.34 9.74-22.77 17.27-37.27 22.6-14.51 5.34-30.22 8-47.12 8-16.65 0-32.04-2.66-46.17-8-14.13-5.33-26.3-12.93-36.52-22.8-10.22-9.86-18.23-21.66-24.03-35.4-5.8-13.73-8.71-29-8.71-45.8z"/>
                <path d="m2458.7 3454.3h68.5v26c9.33-12 18.8-20.06 28.38-24.2 9.59-4.13 20.82-6.2 33.68-6.2 13.63 0 25.3 2.34 35.01 7 9.71 4.67 17.98 11.27 24.79 19.8 5.55 6.94 9.33 14.67 11.35 23.2 2.02 8.54 3.03 18.27 3.03 29.2v130.4h-68.5v-103.6c0-10.13-0.69-18.33-2.08-24.6-1.39-6.26-3.85-11.26-7.38-15-3.03-3.2-6.43-5.46-10.22-6.8-3.78-1.33-7.82-2-12.11-2-11.6 0-20.5 3.67-26.68 11-6.18 7.34-9.27 17.8-9.27 31.4v109.6h-68.5v-205.2z"/>
                <path d="m2723.6 3557.1v-199.2h71.15v199.2h-71.15zm-8.7 64c0-6.4 1.13-12.46 3.4-18.2 2.27-5.73 5.43-10.73 9.46-15 4.04-4.26 8.77-7.6 14.2-10 5.42-2.4 11.16-3.6 17.21-3.6 6.06 0 11.8 1.2 17.22 3.6 5.43 2.4 10.16 5.74 14.19 10 4.04 4.27 7.19 9.27 9.47 15 2.27 5.74 3.4 11.8 3.4 18.2s-1.13 12.47-3.4 18.2c-2.28 5.74-5.43 10.74-9.47 15-4.03 4.27-8.76 7.6-14.19 10-5.42 2.4-11.16 3.6-17.22 3.6-6.05 0-11.79-1.2-17.21-3.6-5.43-2.4-10.16-5.73-14.2-10-4.03-4.26-7.19-9.26-9.46-15-2.27-5.73-3.4-11.8-3.4-18.2z"/>
            </g>
        </g>
        <g transform="matrix(.55285 0 0 .55285 -559.28 3183.2)" fill="#fff" fill-rule="nonzero">
            <path d="m1422.1 3357.9h37.14l19.4 140.04 3.14 20.7c1.48 11.2 2.59 21.42 3.33 30.67l2.03 25.58c0.13 0.65 0.25 1.83 0.37 3.52s0.31 3.84 0.56 6.44l0.92-9.76c1.48-17.06 3.05-32.75 4.71-47.07 1.66-14.33 3.48-27.54 5.45-39.65l20.51-130.47h29.57l19.22 126.76c2.83 18.75 5.2 36.13 7.11 52.15 1.91 16.01 3.48 31.31 4.71 45.89 1.24-15.36 2.62-30.2 4.16-44.53 1.54-14.32 3.17-28.38 4.9-42.18l2.77-20.12 16.45-117.97h36.77l-50.45 301.56h-29.93l-20.14-130.27c-0.13-0.52-0.44-2.67-0.93-6.45-0.49-3.77-1.23-9.18-2.22-16.21l-3.88-30.08c-0.24-2.34-0.64-5.85-1.2-10.54-0.55-4.69-1.14-10.61-1.75-17.78l-0.93-12.5c-0.24 3-0.49 5.6-0.74 7.82-0.24 2.21-0.43 4.03-0.55 5.47-0.62 8.59-1.14 15.26-1.57 20.01-0.43 4.76-0.71 7.66-0.83 8.7l-3.88 28.9c-0.86 6.64-1.54 11.85-2.04 15.63-0.49 3.77-0.86 6.12-1.1 7.03l-20.88 130.27h-30.86l-49.34-301.56z"/>
            <path d="m1667.9 3357.9h38.44v117.97h56.36v-117.97h38.43v301.56h-38.43v-149.22h-56.36v149.22h-38.44v-301.56z"/>
            <path d="m1987.9 3516.1c0 53.26-5.6 91.08-16.81 113.48-11.22 22.4-30 33.59-56.36 33.59-27.72 0-47.25-12.04-58.58-36.13-11.21-23.57-16.82-65.43-16.82-125.59 0-53.64 5.55-91.6 16.63-113.86 11.21-22.4 30.19-33.6 56.92-33.6 23.9 0 41.64 8.66 53.22 25.98 7.63 11.59 13.18 28.06 16.63 49.41 3.45 19.8 5.17 48.7 5.17 86.72zm-40.28 4.3c0-52.21-2.22-86.85-6.65-103.91-4.44-17.18-13.49-25.78-27.17-25.78-13.67 0-22.79 7.88-27.35 23.64-4.43 15.88-6.65 47.78-6.65 95.7 0 44.14 2.34 74.74 7.02 91.8 4.81 16.14 13.8 24.21 26.98 24.21 12.94 0 21.81-7.55 26.61-22.65 4.81-14.98 7.21-42.65 7.21-83.01z"/>
            <path d="m2104.4 3357.9h38.43v146.09l53.59-146.09h38.8l-56.17 146.09 60.61 155.47h-43.24l-53.59-155.47v155.47h-38.43v-301.56z"/>
            <path d="m2263.6 3357.9h35.85l38.25 120.31c11.09 33.99 20.88 70.25 29.38 108.79-3.08-23.31-5.36-44.4-6.84-63.28-1.47-18.88-2.22-36.65-2.22-53.32v-112.5h38.63v301.56h-36.04l-43.05-135.74c-3.95-12.63-7.67-25.59-11.18-38.87s-6.75-27.21-9.7-41.79c-0.25-1.83-0.65-4.04-1.2-6.64-0.56-2.61-1.21-5.6-1.94-8.99 0.36 3.39 0.67 6.28 0.92 8.69s0.43 4.46 0.55 6.16l2.04 30.66 2.03 37.3c0.12 2.09 0.22 4.63 0.28 7.62 0.06 3 0.09 6.38 0.09 10.16l2.03 131.44h-37.88v-301.56z"/>
            <path d="m2583.9 3516.1c0 53.26-5.6 91.08-16.81 113.48s-30 33.59-56.36 33.59c-27.72 0-47.24-12.04-58.58-36.13-11.21-23.57-16.81-65.43-16.81-125.59 0-53.64 5.54-91.6 16.63-113.86 11.21-22.4 30.18-33.6 56.91-33.6 23.9 0 41.64 8.66 53.22 25.98 7.64 11.59 13.18 28.06 16.63 49.41 3.45 19.8 5.17 48.7 5.17 86.72zm-40.28 4.3c0-52.21-2.22-86.85-6.65-103.91-4.44-17.18-13.49-25.78-27.17-25.78-13.67 0-22.79 7.88-27.34 23.64-4.44 15.88-6.66 47.78-6.66 95.7 0 44.14 2.34 74.74 7.03 91.8 4.8 16.14 13.79 24.21 26.97 24.21 12.94 0 21.81-7.55 26.61-22.65 4.81-14.98 7.21-42.65 7.21-83.01z"/>
            <path d="m2600.5 3357.9h37.15l19.4 140.04 3.14 20.7c1.48 11.2 2.59 21.42 3.33 30.67l2.03 25.58c0.12 0.65 0.25 1.83 0.37 3.52s0.31 3.84 0.55 6.44l0.93-9.76c1.48-17.06 3.05-32.75 4.71-47.07 1.66-14.33 3.48-27.54 5.45-39.65l20.51-130.47h29.57l19.22 126.76c2.83 18.75 5.2 36.13 7.11 52.15 1.91 16.01 3.48 31.31 4.71 45.89 1.23-15.36 2.62-30.2 4.16-44.53 1.54-14.32 3.17-28.38 4.89-42.18l2.78-20.12 16.44-117.97h36.78l-50.45 301.56h-29.94l-20.14-130.27c-0.12-0.52-0.43-2.67-0.92-6.45-0.49-3.77-1.23-9.18-2.22-16.21l-3.88-30.08c-0.25-2.34-0.65-5.85-1.2-10.54-0.56-4.69-1.14-10.61-1.76-17.78l-0.92-12.5c-0.25 3-0.49 5.6-0.74 7.82-0.25 2.21-0.43 4.03-0.55 5.47-0.62 8.59-1.14 15.26-1.57 20.01-0.44 4.76-0.71 7.66-0.84 8.7l-3.88 28.9c-0.86 6.64-1.54 11.85-2.03 15.63-0.49 3.77-0.86 6.12-1.11 7.03l-20.88 130.27h-30.86l-49.34-301.56z"/>
            <path d="m2945.9 3364.2v39.65c-11.71-8.86-22.24-13.28-31.6-13.28-10.1 0-18.36 3.77-24.76 11.33-6.41 7.16-9.61 16.73-9.61 28.71 0 10.54 2.28 19.59 6.83 27.14 2.34 4.04 6.19 9.25 11.55 15.63s12.29 14.06 20.79 23.05c15.65 16.79 26.3 31.31 31.97 43.55 5.67 11.85 8.5 26.37 8.5 43.56 0 23.3-6.22 42.51-18.66 57.61-12.45 14.72-28.4 22.07-47.86 22.07-16.39 0-30.37-4.75-41.95-14.25v-40.24c13.68 10.55 26.12 15.82 37.33 15.82 10.47 0 18.66-3.68 24.57-11.03 5.92-7.36 8.87-17.35 8.87-29.98 0-10.94-2.27-20.77-6.83-29.5-2.34-4.16-5.61-8.95-9.8-14.35-4.18-5.4-9.42-11.43-15.7-18.07-9.74-10.15-17.8-19.14-24.21-26.95s-11.15-14.65-14.23-20.51c-5.91-11.46-8.87-25.91-8.87-43.36 0-23.57 5.79-42.25 17.37-56.05 11.7-13.94 27.41-20.9 47.12-20.9 13.67 0 26.73 3.45 39.18 10.35z"/>
            <path d="m3048.9 3357.9h37.14l19.41 140.04 3.14 20.7c1.48 11.2 2.58 21.42 3.32 30.67l2.04 25.58c0.12 0.65 0.24 1.83 0.37 3.52 0.12 1.69 0.3 3.84 0.55 6.44l0.92-9.76c1.48-17.06 3.05-32.75 4.72-47.07 1.66-14.33 3.48-27.54 5.45-39.65l20.51-130.47h29.56l19.22 126.76c2.84 18.75 5.21 36.13 7.12 52.15 1.91 16.01 3.48 31.31 4.71 45.89 1.23-15.36 2.62-30.2 4.16-44.53 1.54-14.32 3.17-28.38 4.89-42.18l2.77-20.12 16.45-117.97h36.77l-50.44 301.56h-29.94l-20.14-130.27c-0.13-0.52-0.43-2.67-0.92-6.45-0.5-3.77-1.24-9.18-2.22-16.21l-3.88-30.08c-0.25-2.34-0.65-5.85-1.2-10.54-0.56-4.69-1.14-10.61-1.76-17.78l-0.92-12.5c-0.25 3-0.5 5.6-0.74 7.82-0.25 2.21-0.43 4.03-0.56 5.47-0.61 8.59-1.14 15.26-1.57 20.01-0.43 4.76-0.71 7.66-0.83 8.7l-3.88 28.9c-0.86 6.64-1.54 11.85-2.03 15.63-0.49 3.77-0.87 6.12-1.11 7.03l-20.88 130.27h-30.86l-49.34-301.56z"/>
            <path d="m3294.6 3357.9h38.43v117.97h56.36v-117.97h38.44v301.56h-38.44v-149.22h-56.36v149.22h-38.43v-301.56z"/>
            <path d="m3512.5 3357.9h29.93l61.17 301.56h-38.07l-10.72-58.79h-56.54l-10.9 58.79h-36.96l62.09-301.56zm36.77 211.33-8.5-48.05c-5.67-32.68-10.29-67.58-13.86-104.69-1.72 18.1-3.94 36.43-6.65 54.98-2.71 18.56-5.91 38.25-9.61 59.09l-7.02 38.67h45.64z"/>
            <path d="m3597 3357.9h125.1v35.55h-43.06v266.01h-37.69v-266.01h-44.35v-35.55z"/>
            <path d="m3821.7 3357.9h38.43v117.97h56.36v-117.97h38.44v301.56h-38.44v-149.22h-56.36v149.22h-38.43v-301.56z"/>
            <path d="m3998.9 3357.9h102.19v34.38h-63.75v95.5h56.54v34.38h-56.54v102.93h63.75v34.37h-102.19v-301.56z"/>
            <path d="m4177 3357.9h29.93l61.17 301.56h-38.07l-10.72-58.79h-56.54l-10.9 58.79h-36.96l62.09-301.56zm36.77 211.33-8.5-48.05c-5.67-32.68-10.29-67.58-13.86-104.69-1.72 18.1-3.94 36.43-6.65 54.98-2.71 18.56-5.91 38.25-9.61 59.09l-7.02 38.67h45.64z"/>
            <path d="m4290.6 3357.9h50.63c20.94 0 36.53 5.27 46.75 15.82 12.94 13.67 19.41 34.57 19.41 62.7 0 21.61-3.42 38.96-10.26 52.05-6.84 13.08-16.6 21.19-29.29 24.31l52.48 146.68h-38.99l-52.29-147.65v147.65h-38.44v-301.56zm38.44 133.59c14.9 0 25.44-3.64 31.59-10.93 6.16-7.3 9.24-19.6 9.24-36.92 0-9.37-0.64-17.38-1.94-24.02-1.29-6.64-3.32-12.05-6.09-16.21-2.78-4.17-6.35-7.23-10.72-9.18-4.38-1.95-9.58-2.93-15.62-2.93h-6.46v100.19z"/>
            <path d="m4431.3 3357.9h125.1v35.55h-43.06v266.01h-37.69v-266.01h-44.35v-35.55z"/>
            <path d="m4656 3357.9h38.43v267.19h62.83v34.37h-101.26v-301.56z"/>
            <path d="m4784 3357.9h37.69v213.09c0 21.74 1.85 36.19 5.54 43.36 3.82 7.16 11.34 10.74 22.55 10.74s18.6-3.13 22.17-9.38c3.7-6.38 5.55-19.33 5.55-38.86v-218.95h37.69v218.95c0 32.81-4.74 55.01-14.22 66.6-11.34 13.15-28.65 19.72-51.93 19.72-25.62 0-43.67-8.46-54.14-25.39-7.27-11.59-10.9-33.85-10.9-66.79v-213.09z"/>
            <path d="m4959.2 3357.9h50.63c20.95 0 36.53 5.27 46.75 15.82 12.94 13.67 19.41 34.57 19.41 62.7 0 21.61-3.42 38.96-10.26 52.05-6.84 13.08-16.6 21.19-29.29 24.31l52.48 146.68h-38.99l-52.29-147.65v147.65h-38.44v-301.56zm38.44 133.59c14.9 0 25.44-3.64 31.6-10.93 6.16-7.3 9.23-19.6 9.23-36.92 0-9.37-0.64-17.38-1.93-24.02-1.3-6.64-3.33-12.05-6.1-16.21-2.77-4.17-6.35-7.23-10.72-9.18s-9.58-2.93-15.61-2.93h-6.47v100.19z"/>
            <path d="m5118.6 3357.9h38.44v146.09l53.59-146.09h38.8l-56.17 146.09 60.6 155.47h-43.23l-53.59-155.47v155.47h-38.44v-301.56z"/>
            <path d="m5376.2 3364.2v39.65c-11.71-8.86-22.24-13.28-31.6-13.28-10.1 0-18.36 3.77-24.76 11.33-6.41 7.16-9.61 16.73-9.61 28.71 0 10.54 2.28 19.59 6.84 27.14 2.34 4.04 6.18 9.25 11.54 15.63s12.29 14.06 20.79 23.05c15.65 16.79 26.3 31.31 31.97 43.55 5.67 11.85 8.5 26.37 8.5 43.56 0 23.3-6.22 42.51-18.66 57.61-12.45 14.72-28.4 22.07-47.86 22.07-16.39 0-30.37-4.75-41.95-14.25v-40.24c13.68 10.55 26.12 15.82 37.33 15.82 10.47 0 18.66-3.68 24.57-11.03 5.92-7.36 8.87-17.35 8.87-29.98 0-10.94-2.27-20.77-6.83-29.5-2.34-4.16-5.61-8.95-9.8-14.35-4.18-5.4-9.42-11.43-15.7-18.07-9.74-10.15-17.8-19.14-24.21-26.95s-11.15-14.65-14.23-20.51c-5.91-11.46-8.87-25.91-8.87-43.36 0-23.57 5.79-42.25 17.37-56.05 11.7-13.94 27.41-20.9 47.12-20.9 13.68 0 26.73 3.45 39.18 10.35z"/>
            <rect x="5500.6" y="3357.9" width="38.435" height="301.56"/>
            <path d="m5583 3357.9h35.85l38.25 120.31c11.09 33.99 20.88 70.25 29.38 108.79-3.08-23.31-5.36-44.4-6.84-63.28s-2.21-36.65-2.21-53.32v-112.5h38.62v301.56h-36.04l-43.05-135.74c-3.94-12.63-7.67-25.59-11.18-38.87s-6.75-27.21-9.7-41.79c-0.25-1.83-0.65-4.04-1.2-6.64-0.56-2.61-1.2-5.6-1.94-8.99 0.37 3.39 0.67 6.28 0.92 8.69s0.43 4.46 0.55 6.16l2.04 30.66 2.03 37.3c0.12 2.09 0.21 4.63 0.28 7.62 0.06 3 0.09 6.38 0.09 10.16l2.03 131.44h-37.88v-301.56z"/>
            <path d="m5815.6 3357.9h125.09v35.55h-43.05v266.01h-37.7v-266.01h-44.34v-35.55z"/>
            <path d="m5962 3357.9h38.44v117.97h56.36v-117.97h38.44v301.56h-38.44v-149.22h-56.36v149.22h-38.44v-301.56z"/>
            <path d="m6139.2 3357.9h102.19v34.38h-63.75v95.5h56.54v34.38h-56.54v102.93h63.75v34.37h-102.19v-301.56z"/>
            <path d="m6467 3362.8v36.53c-9.85-5.08-18.11-7.62-24.76-7.62-9.11 0-16.94 2.38-23.47 7.13-6.52 4.75-11.91 12.07-16.16 21.97s-7.4 22.43-9.43 37.6-3.05 33.1-3.05 53.81c0 74.48 18.05 111.72 54.14 111.72 6.29 0 13.86-2.09 22.73-6.25v37.3c-9.24 5.47-19.58 8.2-31.04 8.2-57.78 0-86.66-49.87-86.66-149.61 0-53.9 7.05-94.01 21.15-120.31 14.11-26.3 35.7-39.45 64.77-39.45 10.72 0 21.31 2.99 31.78 8.98z"/>
            <path d="m6499.4 3357.9h38.44v117.97h56.36v-117.97h38.43v301.56h-38.43v-149.22h-56.36v149.22h-38.44v-301.56z"/>
            <path d="m6676.6 3357.9h102.19v34.38h-63.76v95.5h56.55v34.38h-56.55v102.93h63.76v34.37h-102.19v-301.56z"/>
            <path d="m6909.2 3364.2v39.65c-11.7-8.86-22.23-13.28-31.59-13.28-10.1 0-18.36 3.77-24.76 11.33-6.41 7.16-9.61 16.73-9.61 28.71 0 10.54 2.28 19.59 6.83 27.14 2.34 4.04 6.19 9.25 11.55 15.63s12.29 14.06 20.79 23.05c15.65 16.79 26.3 31.31 31.97 43.55 5.67 11.85 8.5 26.37 8.5 43.56 0 23.3-6.22 42.51-18.66 57.61-12.45 14.72-28.4 22.07-47.86 22.07-16.39 0-30.37-4.75-41.95-14.25v-40.24c13.67 10.55 26.12 15.82 37.33 15.82 10.47 0 18.66-3.68 24.57-11.03 5.92-7.36 8.87-17.35 8.87-29.98 0-10.94-2.28-20.77-6.83-29.5-2.34-4.16-5.61-8.95-9.8-14.35s-9.42-11.43-15.7-18.07c-9.74-10.15-17.81-19.14-24.21-26.95-6.41-7.81-11.15-14.65-14.23-20.51-5.91-11.46-8.87-25.91-8.87-43.36 0-23.57 5.79-42.25 17.37-56.05 11.7-13.94 27.41-20.9 47.12-20.9 13.67 0 26.73 3.45 39.17 10.35z"/>
            <path d="m6937.4 3357.9h125.1v35.55h-43.06v266.01h-37.69v-266.01h-44.35v-35.55z"/>
            <path d="m7187.3 3364.2v39.65c-11.7-8.86-22.23-13.28-31.59-13.28-10.11 0-18.36 3.77-24.77 11.33-6.4 7.16-9.6 16.73-9.6 28.71 0 10.54 2.27 19.59 6.83 27.14 2.34 4.04 6.19 9.25 11.55 15.63s12.29 14.06 20.79 23.05c15.64 16.79 26.3 31.31 31.97 43.55 5.66 11.85 8.5 26.37 8.5 43.56 0 23.3-6.22 42.51-18.67 57.61-12.44 14.72-28.39 22.07-47.86 22.07-16.38 0-30.36-4.75-41.94-14.25v-40.24c13.67 10.55 26.11 15.82 37.33 15.82 10.47 0 18.66-3.68 24.57-11.03 5.91-7.36 8.87-17.35 8.87-29.98 0-10.94-2.28-20.77-6.84-29.5-2.34-4.16-5.6-8.95-9.79-14.35s-9.42-11.43-15.71-18.07c-9.73-10.15-17.8-19.14-24.2-26.95-6.41-7.81-11.15-14.65-14.23-20.51-5.92-11.46-8.87-25.91-8.87-43.36 0-23.57 5.79-42.25 17.37-56.05 11.7-13.94 27.41-20.9 47.12-20.9 13.67 0 26.73 3.45 39.17 10.35z"/>
            <path d="m7454.5 3516.1c0 53.26-5.6 91.08-16.81 113.48s-30 33.59-56.36 33.59c-27.72 0-47.25-12.04-58.58-36.13-11.21-23.57-16.82-65.43-16.82-125.59 0-53.64 5.55-91.6 16.64-113.86 11.21-22.4 30.18-33.6 56.91-33.6 23.9 0 41.64 8.66 53.22 25.98 7.64 11.59 13.18 28.06 16.63 49.41 3.45 19.8 5.17 48.7 5.17 86.72zm-40.28 4.3c0-52.21-2.22-86.85-6.65-103.91-4.44-17.18-13.49-25.78-27.17-25.78-13.67 0-22.79 7.88-27.35 23.64-4.43 15.88-6.65 47.78-6.65 95.7 0 44.14 2.34 74.74 7.02 91.8 4.81 16.14 13.8 24.21 26.98 24.21 12.94 0 21.81-7.55 26.61-22.65 4.81-14.98 7.21-42.65 7.21-83.01z"/>
            <path d="m7492.6 3357.9h102.74v34.38h-64.31v95.31h58.03v34.37h-58.03v137.5h-38.43v-301.56z"/>
            <path d="m7716.7 3357.9h32.9l25.13 123.05c3.08 15.36 5.88 30.76 8.4 46.19 2.53 15.43 4.84 31.61 6.93 48.53 0.25-2.21 0.43-3.93 0.56-5.17 0.12-1.24 0.24-2.12 0.37-2.64l5.36-34.57 4.8-32.81 4.25-21.68 22.36-120.9h33.26l26.24 301.56h-36.77l-6.47-102.34c-0.25-5.21-0.46-9.7-0.65-13.48-0.18-3.77-0.27-6.9-0.27-9.37l-1.67-40.43-0.92-37.11c0-0.26-0.03-0.82-0.09-1.66-0.06-0.85-0.16-1.99-0.28-3.42l-0.93 6.05c-0.98 7.17-1.87 13.42-2.67 18.75-0.8 5.34-1.51 9.84-2.13 13.48l-4.8 27.54-1.85 10.35-24.02 131.64h-25.87l-22.55-113.67c-3.08-14.97-5.82-30.17-8.22-45.61-2.4-15.42-4.59-31.6-6.56-48.53l-11.09 207.81h-36.21l23.46-301.56z"/>
            <path d="m7919 3357.9h102.19v34.38h-63.75v95.5h56.54v34.38h-56.54v102.93h63.75v34.37h-102.19v-301.56z"/>
            <path d="m8056.5 3357.9h35.85l38.25 120.31c11.09 33.99 20.88 70.25 29.38 108.79-3.08-23.31-5.36-44.4-6.83-63.28-1.48-18.88-2.22-36.65-2.22-53.32v-112.5h38.62v301.56h-36.03l-43.06-135.74c-3.94-12.63-7.67-25.59-11.18-38.87s-6.74-27.21-9.7-41.79c-0.25-1.83-0.65-4.04-1.2-6.64-0.56-2.61-1.2-5.6-1.94-8.99 0.37 3.39 0.68 6.28 0.92 8.69 0.25 2.41 0.43 4.46 0.56 6.16l2.03 30.66 2.03 37.3c0.12 2.09 0.22 4.63 0.28 7.62 0.06 3 0.09 6.38 0.09 10.16l2.03 131.44h-37.88v-301.56z"/>
        </g>
        <g transform="matrix(-1 0 0 1 165.54 0)">
            <path d="m63.249-56.759v5926.5l10.239-469.79 28.798-5400-39.037-56.759z" fill="#f9372c"/>
        </g>
        <g transform="translate(-17.198 -14.164)">
            <path d="m1882.8 1162.9 51.83-41.41s-70.58-7.37-119.33-61.03c0 0 59.82-3.31 115.24-74.173s-95.92 5.144-225.92-28.922c0 0 124.75-29.309 136.94-43.057 12.19-13.749-236.14-47.49-275.83-71.464-39.68-23.975 144.85 5.901 158.07-14.203l-108.51-61.62s147.49 30.785 144.71 58.787c0 0-38.15 29.719-77.34 29.449l195.39 56.683s-54.74 34.655-72.24 37.746c0 0 142.43-46.423 174.3-16.923 0 0-62.28 131.96-122.27 131.88s83.78 52.81 97.96 58.02c0 0-72.57 44-79.22 70.63-6.65 26.62-11.42-21.76 6.22-30.39z" fill="#fff"/>
        </g>
        <g transform="matrix(.93428 .10936 -.11798 1.0078 266.37 -237.15)">
            <g transform="matrix(.83606 0 0 1.2743 381.21 -169.55)">
                <path d="m2104.9 727.07s346.63 104.89 945.37-126.45c0 0-47.29-7.824-268.01-37.897-222.54-30.323-757.33 108.62-677.36 164.34z" fill="#d6dbd9"/>
            </g>
            <g transform="matrix(1.3067 0 0 1.1592 -774.17 -85.282)">
                <path d="m2333.1 667.41 17.56-223.63s31.57-31.007 84.45-0.95c0 0 9.75-34.498 62.89-45.874s139.54-23.533 144.1 24.911l69.77 169.41s-64.99 105.64-378.77 76.128z" fill="#d6dbd9"/>
            
            
                <path d="m2694.5 549.14 17.36 42.145s-64.99 105.64-378.77 76.128l4.23-53.827c237.5 20.448 328.55-37.739 357.18-64.446z" fill="#332221"/>
            </g>
        </g>
    </g>
</svg>
