<?xml version="1.0" encoding="UTF-8" standalone="no"?>
<!DOCTYPE svg PUBLIC "-//W3C//DTD SVG 1.1//EN" "http://www.w3.org/Graphics/SVG/1.1/DTD/svg11.dtd">
<svg width="100%" height="100%" viewBox="0 0 4160 5400" version="1.1" xmlns="http://www.w3.org/2000/svg" xmlns:xlink="http://www.w3.org/1999/xlink" xml:space="preserve" xmlns:serif="http://www.serif.com/" style="fill-rule:evenodd;clip-rule:evenodd;stroke-linejoin:round;stroke-miterlimit:2;">
    <rect id="Artboard1" x="0" y="0" width="4159.89" height="5400" style="fill:none;"/>
    <clipPath id="_clip1">
        <rect id="Artboard11" serif:id="Artboard1" x="0" y="0" width="4159.89" height="5400"/>
    </clipPath>
    <g clip-path="url(#_clip1)">
        <rect x="-231.342" y="-323.65" width="4586.42" height="6438.9" style="fill:rgb(42,52,47);"/>
        <g transform="matrix(1.15431,0,0,1.15431,-414.211,-178.049)">
            <g transform="matrix(-0.719936,0,0,0.699548,4358.1,-154.816)">
                <path d="M2344.18,1767C2344.18,1767 2410.33,1929.67 2583.8,1975.87C2583.8,1975.87 2652.03,2009.86 2680.95,1978.28C2680.95,1978.28 2684.33,1944.19 2696.29,1892.42C2708.25,1840.66 2712.08,1799.95 2729.66,1768.94C2729.66,1768.94 2680.79,1425.8 2680.95,1319.7L2509.32,1222.98L2300.46,1333.08L2250.26,1520.9C2250.26,1520.9 2206.69,1533.1 2219.5,1601.17C2232.32,1669.24 2256.27,1744.2 2344.18,1767Z" style="fill:rgb(176,135,107);"/>
                <g>
                    <g transform="matrix(0.752696,0,0,1,640.815,5.68434e-14)">
                        <path d="M2655.25,1614.57L2714.7,1758.06C2714.7,1758.06 2704.2,1798.94 2622.34,1786.16L2635.39,1830.25C2635.39,1830.25 2688.29,1825.64 2705.8,1822.14C2705.8,1822.14 2748.78,1877.74 2682.76,1888.43C2639.89,1895.37 2587.65,1882.96 2587.65,1882.96C2587.65,1882.96 2625.92,1910.2 2662.23,1910.09C2698.54,1909.98 2713.38,1924.19 2715.13,1950.03C2715.13,1950.03 2717.1,1965.51 2700.44,1976.2C2700.44,1976.2 2737.68,2001.6 2751.19,1881.41C2751.19,1881.41 2804.78,1795.08 2808.7,1725.3L2836.05,1408.91L2751.19,1315.94L2669.79,1480C2669.79,1480 2689.37,1543.1 2655.25,1614.57Z" style="fill:rgb(124,94,73);"/>
                    </g>
                    <g transform="matrix(0.526229,0.0438801,-0.0438559,0.55704,1352.97,711.724)">
                        <path d="M2685.42,1836.84C2683.99,1837.35 2650.27,1845.66 2545.72,1863.18C2545.72,1863.18 2540.49,1865.85 2544.83,1870.39C2544.83,1870.39 2608.3,1863.58 2665.56,1856.59C2683.76,1854.37 2698.83,1832.09 2685.42,1836.84Z" style="fill:rgb(124,94,73);"/>
                    </g>
                </g>
                <g transform="matrix(1,0,0,1,0,-11.3849)">
                    <path d="M2491.48,1602.67C2491.48,1602.67 2484.23,1614.09 2492.04,1629.18L2535.68,1630.56C2535.68,1630.56 2539.17,1612.89 2535.4,1604.87C2535.4,1604.87 2506.41,1592.34 2491.48,1602.67Z"/>
                </g>
                <g transform="matrix(-0.629616,0,0,1,4278.38,-27.3734)">
                    <path d="M2491.48,1602.67C2491.48,1602.67 2484.23,1614.09 2492.04,1629.18L2535.68,1630.56C2535.68,1630.56 2539.17,1612.89 2535.4,1604.87C2535.4,1604.87 2506.41,1592.34 2491.48,1602.67Z"/>
                </g>
                <g transform="matrix(-0.580415,0,0,1,4152.14,-10.3555)">
                    <path d="M2428.28,1558.33C2428.28,1558.33 2471.09,1500.98 2572.26,1601.17C2572.26,1601.17 2494.74,1584.46 2435.77,1572.11C2435.77,1572.11 2394.92,1595.36 2428.28,1558.33Z"/>
                </g>
                <path d="M2427.1,1573.07C2427.1,1573.07 2504.7,1484.22 2603.22,1599.65C2603.22,1599.65 2507.72,1575.02 2446.89,1595.43C2445.55,1595.88 2444.16,1595.89 2442.89,1596.14C2442.89,1596.14 2393.74,1610.1 2427.1,1573.07Z"/>
                <g transform="matrix(0.931651,0,0,1,150.686,5.68434e-14)">
                    <path d="M2388.06,1319.47C2388.06,1319.47 2374.62,1437.48 2394.59,1476.41C2394.59,1476.41 2366.54,1557.15 2343.91,1566.33C2343.91,1566.33 2335.4,1630.84 2345.55,1648.08C2345.55,1648.08 2315.43,1614.9 2309.58,1574.51C2309.58,1574.51 2257.31,1508.66 2236.01,1535.27C2236.01,1535.27 2195.54,1462.46 2206.59,1273.69C2206.59,1273.69 2238.28,1210.05 2254,1223.01C2254,1223.01 2302.99,1169.11 2324.29,1178.87L2344.49,1143.4C2344.49,1143.4 2362.33,1101.67 2371.7,1116.74C2371.7,1116.74 2374.26,1097.93 2389.69,1095.49C2405.13,1093.06 2447.49,1089.79 2460,1095.49C2460,1095.49 2515.92,1056.61 2522.12,1074.24C2522.12,1074.24 2705.64,1078.82 2680.69,1106.93C2680.69,1106.93 2740.8,1109.58 2724.85,1121.65C2724.85,1121.65 2716.08,1166.23 2729.75,1153.96C2729.75,1153.96 2783.42,1186.71 2746.69,1204.28C2746.69,1204.28 2778.26,1261.6 2794.83,1237.38C2784.09,1213.55 2815.86,1242.29 2802.6,1266.69L2847.35,1286.64C2847.35,1286.64 2871.61,1356.16 2863.81,1394.67C2863.81,1394.67 2817.67,1485.42 2818.03,1504.21C2818.03,1504.21 2788.06,1423.34 2800.04,1432.27C2800.04,1432.27 2739.93,1419.83 2750.99,1358.7C2750.99,1358.7 2716.88,1378.5 2729.56,1427.37C2729.56,1427.37 2713.64,1421.41 2721,1451.51C2731.76,1495.48 2649.28,1535.1 2625.35,1479.08L2625.02,1468.24C2625.02,1468.24 2663.04,1502.62 2670.12,1451.51C2678.83,1388.64 2582.52,1448.64 2550.38,1415.6C2550.38,1415.6 2507.35,1406.16 2524.83,1430.25C2524.83,1430.25 2465.02,1410.62 2450.79,1351.04C2450.79,1351.04 2418.49,1303.71 2388.06,1319.47Z"/>
                </g>
            </g>
            <g transform="matrix(0.974165,0,0,0.914341,-36.6877,-465.437)">
                <path d="M2789.64,4975.47C2789.64,4975.47 2918.37,5102.73 2740.62,5128.03C2562.87,5153.34 2679.16,5180.49 2674.51,5217.57C2674.51,5217.57 2721.55,5438.28 3168.89,5306.42C3168.89,5306.42 3184.02,5174.4 3136.43,5077.35L3136.43,4872.01L2786.78,4788.8L2789.64,4975.47Z" style="fill:rgb(26,27,29);"/>
            </g>
            <g transform="matrix(0.974165,0,0,0.914341,-456.121,-312.188)">
                <path d="M2789.64,4975.47C2789.64,4975.47 2800.24,5147.3 2622.49,5172.6C2444.74,5197.91 2455.22,5210.97 2450.56,5248.05C2450.56,5248.05 2597.24,5322.07 2892.91,5294.61C2892.91,5294.61 2957.3,5253.9 2992.05,5260.95L2989.03,5310.93C2989.03,5310.93 3141.43,5312.61 3168.89,5306.42C3168.89,5306.42 3184.02,5174.4 3136.43,5077.35L3136.43,4872.01L2786.78,4788.8L2789.64,4975.47Z" style="fill:rgb(26,27,29);"/>
            </g>
            <g>
                <g>
                    <g transform="matrix(0.792014,0,0,0.792014,582.376,406.489)">
                        <path d="M1921.35,1878.27C1921.35,1878.27 1846.98,2119.18 2356.94,2207.14C2866.9,2295.1 2605.54,1657.45 2605.54,1657.45L2464.7,1693.47L2079.94,1515.85L1921.35,1878.27Z" style="fill:rgb(214,219,217);"/>
                    </g>
                    <g transform="matrix(0.879929,-0.517434,0.473113,0.804558,-1673.28,1595.76)">
                        <path d="M3313.64,2153.27C3313.64,2153.27 3246.87,2099.68 3243.27,2100.45C3152.64,2119.96 3038.36,2298.13 3038.36,2298.13C3038.36,2298.13 3064.23,2348.01 3122.44,2365.51C3180.65,2383.01 3313.64,2153.27 3313.64,2153.27" style="fill:rgb(253,248,243);"/>
                    </g>
                </g>
            </g>
            <g transform="matrix(1.2596,0,0,1.18225,-1358.42,-1454.73)">
                <path d="M3074.9,2305.55C3074.9,2305.55 2927.02,2385.31 2893.25,2793.67C2893.25,2793.67 2830.15,3159.65 2889.96,3271.58C2889.96,3271.58 2846.87,3491.1 2871.56,3553.3C2871.56,3553.3 2949.69,3312.07 3074.9,3270.74L3296.96,2278.04L3074.9,2305.55Z" style="fill:rgb(51,34,33);"/>
            </g>
            <g transform="matrix(1.2596,0,0,1.18225,-1358.42,-1454.73)">
                <path d="M3313.64,2153.27C3313.64,2153.27 3246.87,2099.68 3243.27,2100.45C3152.64,2119.96 3038.36,2298.13 3038.36,2298.13C3038.36,2298.13 3064.23,2348.01 3122.44,2365.51C3180.65,2383.01 3313.64,2153.27 3313.64,2153.27" style="fill:rgb(253,248,243);"/>
            </g>
            <g transform="matrix(1.2596,0,0,1.18225,-1358.42,-1454.73)">
                <path d="M3118.36,2276.19C3118.36,2276.19 2908.76,2557.91 2864.21,3104.07C2853.58,3234.3 2860.03,3338.99 2854.46,3425.93C2836.67,3703.57 2826.24,3800.12 2823.98,3969.33C2821.02,4191.52 2774.09,4711.39 2711.76,4784.18C2711.76,4784.18 2702.59,4795.24 2736.16,4806.95C2736.16,4806.95 2940.44,4910.31 3206.2,4841.11L3207.83,4872.01C3207.83,4872.01 3491.5,4888.3 3584.38,4768.54C3584.38,4768.54 3606.97,4730.57 3693.34,4799.44C3693.34,4799.44 4014.89,4860.66 4358.63,4361.1C4358.63,4361.1 3653.25,4117.13 3496.33,3451.79C3496.33,3451.79 3396.16,3170.5 3409.49,3049.09C3409.49,3049.09 3450.88,2785.59 3446.89,2632.72C3442.9,2479.84 3511.7,2279.94 3402.99,2242.01C3402.99,2242.01 3364.8,2206.76 3347.7,2181.84C3347.7,2181.84 3333.26,2133.74 3292.4,2118.41C3292.4,2118.41 3219.93,2142.94 3118.36,2276.19Z" style="fill:rgb(214,219,217);"/>
            </g>
        </g>
        <g transform="matrix(1.45397,0,0,1.36468,-1982.25,-1857.26)">
            <path d="M3069.99,2336.27C3009.78,2425.63 2911.16,2624.31 2880.91,2995.09C2875.73,3058.59 2868.2,3173.94 2863.92,3228.8C2831.37,3070.94 2893.25,2793.67 2893.25,2793.67C2919.29,2478.82 3013.16,2359.3 3054.79,2321.08C3059.01,2325.91 3064.06,2331.11 3069.99,2336.27Z" style="fill:rgb(51,34,33);"/>
        </g>
        <g transform="matrix(1.59383,0,0,1.59383,-1150.71,-1132.76)">
            <g transform="matrix(1,0,0,1,0,42.0821)">
                <path d="M1090.18,1126.41C1090.18,1161.13 1078.56,1190.83 1055.31,1215.51C1032.06,1240.18 1004.01,1252.52 971.166,1252.52L866.098,1252.52L866.098,1000.62L971.166,1000.62C1003.81,1000.62 1031.81,1012.95 1055.16,1037.63C1078.51,1062.31 1090.18,1091.9 1090.18,1126.41ZM1000.85,1205.15L1000.85,1047.99L963.746,1047.99L963.746,1205.15L1000.85,1205.15Z" style="fill:rgb(249,56,45);fill-rule:nonzero;"/>
                <path d="M1321.99,1252.84L1236.21,1252.84L1192.88,1177.23L1192.88,1252.84L1108.29,1252.84L1108.29,1043.59L1223.15,1043.59C1238.19,1043.59 1251.1,1049.29 1261.88,1060.69C1272.67,1072.09 1278.06,1085.74 1278.06,1101.63C1278.06,1122.96 1269.45,1139.28 1252.24,1150.57L1321.99,1252.84ZM1215.73,1141.78L1215.73,1083.12L1192.88,1083.12L1192.88,1141.78L1215.73,1141.78Z" style="fill:rgb(249,56,45);fill-rule:nonzero;"/>
                <path d="M1390.55,1228.68C1390.55,1236.63 1387.33,1243.48 1380.9,1249.23C1374.47,1254.98 1366.7,1257.86 1357.6,1257.86C1348.5,1257.86 1340.73,1254.98 1334.3,1249.23C1327.87,1243.48 1324.66,1236.63 1324.66,1228.68C1324.66,1220.74 1327.87,1213.89 1334.3,1208.13C1340.73,1202.38 1348.5,1199.51 1357.6,1199.51C1366.7,1199.51 1374.47,1202.38 1380.9,1208.13C1387.33,1213.89 1390.55,1220.74 1390.55,1228.68Z" style="fill:rgb(249,56,45);fill-rule:nonzero;"/>
            </g>
            <g transform="matrix(0.99977,0,0,0.997483,0.199223,-23.6107)">
                <path d="M1108.68,1588.56C1108.68,1623.7 1096.85,1653.77 1073.19,1678.78C1049.53,1703.79 1021.08,1716.29 987.836,1716.29C954.825,1716.29 926.489,1703.79 902.827,1678.78C879.166,1653.77 867.335,1623.7 867.335,1588.56L867.335,1416.18L988.875,1416.18L988.875,1656.27L1031.81,1656.27L1031.81,1416.18L1108.68,1416.18L1108.68,1588.56Z" style="fill:rgb(249,56,45);fill-rule:nonzero;"/>
                <path d="M1295.67,1664.32L1285.28,1710.44L1128.08,1710.44L1128.08,1466.32L1226.76,1466.32L1226.76,1664.32L1295.67,1664.32Z" style="fill:rgb(249,56,45);fill-rule:nonzero;"/>
                <path d="M1499.28,1466.32L1426.56,1605.4L1426.56,1710.44L1334.8,1710.44L1334.8,1613.08L1252.04,1466.32L1362.15,1466.32L1403.36,1539.15L1441.1,1466.32L1499.28,1466.32Z" style="fill:rgb(249,56,45);fill-rule:nonzero;"/>
                <path d="M1659.6,1644.19C1659.6,1662.25 1653.48,1677.8 1641.25,1690.86C1629.01,1703.91 1614.35,1710.44 1597.27,1710.44L1516.59,1710.44L1493.74,1664.32L1561.95,1664.32L1503.09,1567.7C1496.85,1557.21 1493.74,1545.5 1493.74,1532.56C1493.74,1514.51 1499.91,1498.95 1512.26,1485.9C1524.61,1472.85 1539.33,1466.32 1556.41,1466.32L1645.06,1466.32L1659.25,1512.43L1590.34,1512.43L1649.9,1608.33C1656.37,1618.82 1659.6,1630.77 1659.6,1644.19Z" style="fill:rgb(249,56,45);fill-rule:nonzero;"/>
                <path d="M1843.47,1644.19C1843.47,1662.25 1837.35,1677.8 1825.12,1690.86C1812.88,1703.91 1798.22,1710.44 1781.14,1710.44L1700.46,1710.44L1677.6,1664.32L1745.82,1664.32L1686.95,1567.7C1680.72,1557.21 1677.6,1545.5 1677.6,1532.56C1677.6,1514.51 1683.78,1498.95 1696.13,1485.9C1708.48,1472.85 1723.2,1466.32 1740.28,1466.32L1828.92,1466.32L1843.12,1512.43L1774.21,1512.43L1833.77,1608.33C1840.24,1618.82 1843.47,1630.77 1843.47,1644.19Z" style="fill:rgb(249,56,45);fill-rule:nonzero;"/>
                <path d="M2028.37,1664.32L2017.99,1710.44L1860.78,1710.44L1860.78,1466.32L2017.99,1466.32L2028.37,1512.43L1959.47,1512.43L1959.47,1574.29L2005.52,1574.29L2015.91,1620.04L1959.47,1620.04L1959.47,1664.32L2028.37,1664.32Z" style="fill:rgb(249,56,45);fill-rule:nonzero;"/>
                <path d="M2212.24,1644.19C2212.24,1662.25 2206.13,1677.8 2193.89,1690.86C2181.66,1703.91 2167,1710.44 2149.91,1710.44L2069.23,1710.44L2046.38,1664.32L2114.6,1664.32L2055.73,1567.7C2049.5,1557.21 2046.38,1545.5 2046.38,1532.56C2046.38,1514.51 2052.56,1498.95 2064.91,1485.9C2077.26,1472.85 2091.97,1466.32 2109.05,1466.32L2197.7,1466.32L2211.9,1512.43L2142.99,1512.43L2202.55,1608.33C2209.01,1618.82 2212.24,1630.77 2212.24,1644.19Z" style="fill:rgb(249,56,45);fill-rule:nonzero;"/>
            </g>
            <g transform="matrix(1,0,0,1,0,-67.2621)">
                <path d="M1116.9,1850.25L1034.68,2102.16L950.39,2102.16L861.646,1850.25L975.321,1850.25L1017.76,1970.71L1056.94,1850.25L1116.9,1850.25Z" style="fill:rgb(249,56,45);fill-rule:nonzero;"/>
                <path d="M1150.43,2078.32C1150.43,2086.26 1147.22,2093.11 1140.79,2098.86C1134.36,2104.62 1126.59,2107.49 1117.49,2107.49C1108.39,2107.49 1100.62,2104.62 1094.19,2098.86C1087.76,2093.11 1084.54,2086.26 1084.54,2078.32C1084.54,2070.37 1087.76,2063.52 1094.19,2057.77C1100.62,2052.02 1108.39,2049.14 1117.49,2049.14C1126.59,2049.14 1134.36,2052.02 1140.79,2057.77C1147.22,2063.52 1150.43,2070.37 1150.43,2078.32Z" style="fill:rgb(249,56,45);fill-rule:nonzero;"/>
            </g>
            <g transform="matrix(1.01964,0,0,1.01964,-16.9382,-181.586)">
                <path d="M1308.75,2283.38L1217.89,2608.76L1123.59,2608.76L1084.1,2469.77L1045,2608.76L955.287,2608.76L862.512,2283.38L1003.59,2283.38L1038.48,2407.78L1074.52,2283.38L1160.77,2283.38L1192.21,2393.19L1226.33,2283.38L1308.75,2283.38Z" style="fill:rgb(249,56,45);fill-rule:nonzero;"/>
                <path d="M1544.14,2498.14C1544.14,2530.29 1533.22,2557.84 1511.36,2580.8C1489.51,2603.76 1463.38,2615.24 1432.96,2615.24C1402.55,2615.24 1376.48,2603.76 1354.76,2580.8C1333.03,2557.84 1322.17,2530.29 1322.17,2498.14L1322.17,2339.7L1433.73,2339.7L1433.73,2560.14L1473.22,2560.14L1473.22,2339.7L1544.14,2339.7L1544.14,2498.14Z" style="fill:rgb(249,56,45);fill-rule:nonzero;"/>
                <path d="M1843.55,2609.17L1732.76,2609.17L1676.79,2511.51L1676.79,2609.17L1567.53,2609.17L1567.53,2338.89L1715.89,2338.89C1735.32,2338.89 1751.99,2346.25 1765.92,2360.97C1779.85,2375.7 1786.82,2393.33 1786.82,2413.86C1786.82,2441.41 1775.7,2462.48 1753.46,2477.07L1843.55,2609.17ZM1706.31,2465.72L1706.31,2389.95L1676.79,2389.95L1676.79,2465.72L1706.31,2465.72Z" style="fill:rgb(249,56,45);fill-rule:nonzero;"/>
                <path d="M2036.77,2558.11L2025.27,2609.17L1851.22,2609.17L1851.22,2338.89L1960.48,2338.89L1960.48,2558.11L2036.77,2558.11Z" style="fill:rgb(249,56,45);fill-rule:nonzero;"/>
                <rect x="2058.62" y="2338.89" width="109.26" height="270.275" style="fill:rgb(249,56,45);fill-rule:nonzero;"/>
                <path d="M2447.74,2389.95L2371.45,2389.95L2371.45,2609.17L2262.19,2609.17L2262.19,2389.95L2185.52,2389.95L2197.4,2338.89L2435.86,2338.89L2447.74,2389.95Z" style="fill:rgb(249,56,45);fill-rule:nonzero;"/>
                <path d="M2711.5,2338.89L2604.16,2558.11L2696.55,2558.11L2685.05,2609.17L2458.09,2609.17L2565.44,2389.95L2472.66,2389.95L2484.16,2338.89L2711.5,2338.89Z" style="fill:rgb(249,56,45);fill-rule:nonzero;"/>
                <path d="M2912.39,2558.11L2900.89,2609.17L2726.84,2609.17L2726.84,2338.89L2900.89,2338.89L2912.39,2389.95L2836.1,2389.95L2836.1,2458.43L2887.08,2458.43L2898.59,2509.08L2836.1,2509.08L2836.1,2558.11L2912.39,2558.11Z" style="fill:rgb(249,56,45);fill-rule:nonzero;"/>
                <path d="M3211.8,2609.17L3101,2609.17L3045.03,2511.51L3045.03,2609.17L2935.77,2609.17L2935.77,2338.89L3084.14,2338.89C3103.56,2338.89 3120.24,2346.25 3134.17,2360.97C3148.1,2375.7 3155.06,2393.33 3155.06,2413.86C3155.06,2441.41 3143.94,2462.48 3121.71,2477.07L3211.8,2609.17ZM3074.55,2465.72L3074.55,2389.95L3045.03,2389.95L3045.03,2465.72L3074.55,2465.72Z" style="fill:rgb(249,56,45);fill-rule:nonzero;"/>
            </g>
        </g>
        <g transform="matrix(-0.888044,0,0,0.888044,1183.56,233.473)">
            <path d="M-963.399,1954.18C-963.399,1954.18 -1001.34,1960.07 -1031.92,1895.15C-1062.5,1830.24 -1105.73,1745.46 -1086.99,1670.03C-1086.99,1670.03 -1049.51,1584.06 -996.301,1652.35L-842.556,1835.08C-842.556,1835.08 -847.328,1967.34 -963.399,1954.18Z" style="fill:rgb(161,126,101);"/>
            <g transform="matrix(1,0,0,1,-1.64105,1.24926)">
                <path d="M-845.325,1335.81C-845.325,1335.81 -865.04,1396.14 -843.287,1426.28C-821.533,1456.41 -836.615,1527.75 -836.615,1527.75C-836.615,1527.75 -775.824,1561.25 -795.483,1632.58C-815.142,1703.91 -881.382,1701.86 -881.382,1701.86C-881.382,1701.86 -900.709,1789.84 -811.461,1860.56C-811.461,1860.56 -790.715,1896.16 -860.935,1986.55C-860.935,1986.55 -880.416,2019.8 -904.931,1983.74C-904.931,1983.74 -1033.45,1844.08 -1017.13,1653.47C-1017.13,1653.47 -1009.76,1586.37 -1019.53,1553.82L-1030.28,1540.03L-1027.85,1494.27C-1027.85,1494.27 -1005.4,1494.71 -991.455,1487.84L-800.494,1155.42C-800.494,1155.42 -813.038,1149.5 -788.173,1102.08C-788.173,1102.08 -775.409,1089.47 -758.288,1110.52C-758.288,1110.52 -735.056,1128.82 -745.52,1145.21C-755.984,1161.61 -845.325,1335.81 -845.325,1335.81Z"/>
            </g>
            <path d="M-961.518,1698.78C-960.169,1694.87 -959.051,1690.31 -958.236,1684.99C-958.236,1684.99 -953.017,1673.91 -1010.16,1618.52C-1067.31,1563.12 -1061.82,1645.53 -1061.82,1645.53C-1061.82,1645.53 -1041.87,1687.49 -1007.6,1713.35C-1019.23,1720.18 -1025.74,1729.25 -1024.1,1741.54C-1020.05,1771.98 -998.335,1774.28 -998.335,1774.28C-1008.38,1777.86 -1010.04,1800.16 -1010.04,1800.16C-1008.34,1828.54 -972.927,1824.26 -972.927,1824.26C-973.159,1850.73 -951.001,1849.01 -951.001,1849.01C-951.001,1849.01 -928.634,1848.18 -865.394,1846.79C-802.154,1845.39 -804.169,1864.66 -804.169,1864.66C-743.27,1864.85 -771.005,1796.14 -771.005,1796.14C-757.788,1778.59 -769.92,1735.67 -769.92,1735.67C-764.333,1669.44 -814.763,1670.03 -814.763,1670.03L-828.236,1679.2L-836.868,1689.73C-836.868,1689.73 -882.476,1688.63 -932.369,1694.54C-942.37,1695.72 -952.209,1697.1 -961.518,1698.78ZM-920.387,1652.35C-920.387,1652.35 -857.539,1644.89 -825.754,1610.38C-825.754,1610.38 -802.729,1578.14 -855.541,1563.43C-855.541,1563.43 -918.74,1584.22 -931.394,1601.17C-965.577,1646.94 -920.387,1652.35 -920.387,1652.35Z" style="fill:rgb(176,135,107);"/>
        </g>
        <g transform="matrix(2.59357,0,0,2.41449,-2038.17,302.007)">
            <path d="M873.359,1252.21L873.359,1122.7L891.77,1122.7C899.97,1122.7 906.504,1123.37 911.372,1124.71C916.292,1126.06 920.445,1128.32 923.831,1131.51C927.269,1134.81 929.994,1138.92 932.004,1143.84C934.068,1148.82 935.099,1153.85 935.099,1158.94C935.099,1168.22 931.74,1176.08 925.021,1182.51C931.528,1184.86 936.66,1188.97 940.416,1194.84C944.226,1200.65 946.13,1207.42 946.13,1215.14C946.13,1225.26 942.744,1233.81 935.972,1240.8C931.899,1245.11 927.322,1248.1 922.244,1249.78C916.688,1251.4 909.731,1252.21 901.372,1252.21L873.359,1252.21ZM891.85,1178.31L897.643,1178.31C904.52,1178.31 909.56,1176.71 912.76,1173.49C915.961,1170.28 917.561,1165.54 917.561,1159.27C917.561,1153.18 915.921,1148.55 912.641,1145.39C909.361,1142.23 904.6,1140.65 898.357,1140.65L891.85,1140.65L891.85,1178.31ZM891.85,1233.84L903.277,1233.84C911.636,1233.84 917.773,1232.11 921.688,1228.64C925.815,1224.89 927.878,1220.14 927.878,1214.38C927.878,1208.79 925.894,1204.09 921.926,1200.29C918.064,1196.54 911.16,1194.67 901.214,1194.67L891.85,1194.67L891.85,1233.84Z" style="fill:rgb(249,55,44);fill-rule:nonzero;"/>
            <path d="M962.344,1186.87C962.344,1168.64 968.666,1152.98 981.311,1139.9C993.902,1126.81 1009.03,1120.27 1026.7,1120.27C1044.16,1120.27 1059.13,1126.87 1071.62,1140.07C1084.16,1153.26 1090.43,1169.12 1090.43,1187.62C1090.43,1206.25 1084.13,1222.04 1071.54,1235.02C1058.9,1248.05 1043.63,1254.56 1025.75,1254.56C1009.93,1254.56 995.727,1248.77 983.136,1237.2C969.275,1224.39 962.344,1207.62 962.344,1186.87ZM980.993,1187.12C980.993,1201.44 985.543,1213.21 994.643,1222.43C1003.69,1231.66 1014.14,1236.27 1025.99,1236.27C1038.85,1236.27 1049.69,1231.58 1058.53,1222.18C1067.36,1212.68 1071.78,1201.1 1071.78,1187.46C1071.78,1173.64 1067.41,1162.07 1058.68,1152.73C1050.01,1143.34 1039.27,1138.64 1026.46,1138.64C1013.72,1138.64 1002.95,1143.34 994.167,1152.73C985.384,1162.01 980.993,1173.48 980.993,1187.12Z" style="fill:rgb(249,55,44);fill-rule:nonzero;"/>
            <path d="M1132.17,1122.7L1132.17,1200.71C1132.17,1211.84 1133.89,1219.97 1137.33,1225.12C1142.46,1232.56 1149.68,1236.27 1158.99,1236.27C1168.36,1236.27 1175.6,1232.56 1180.74,1225.12C1184.17,1220.14 1185.89,1212.01 1185.89,1200.71L1185.89,1122.7L1204.38,1122.7L1204.38,1206.08C1204.38,1219.72 1200.36,1230.96 1192.32,1239.8C1183.28,1249.64 1172.16,1254.56 1158.99,1254.56C1145.82,1254.56 1134.74,1249.64 1125.74,1239.8C1117.7,1230.96 1113.68,1219.72 1113.68,1206.08L1113.68,1122.7L1132.17,1122.7Z" style="fill:rgb(249,55,44);fill-rule:nonzero;"/>
            <path d="M1233.75,1252.21L1233.75,1113.89L1323.1,1212.7L1323.1,1122.7L1341.59,1122.7L1341.59,1260.1L1252.24,1161.54L1252.24,1252.21L1233.75,1252.21Z" style="fill:rgb(249,55,44);fill-rule:nonzero;"/>
            <path d="M1404.76,1141.07L1404.76,1252.21L1386.27,1252.21L1386.27,1141.07L1358.1,1141.07L1358.1,1122.7L1432.86,1122.7L1432.86,1141.07L1404.76,1141.07Z" style="fill:rgb(249,55,44);fill-rule:nonzero;"/>
            <path d="M1482.51,1196.26L1442.51,1122.7L1463.78,1122.7L1491.79,1174.45L1519.89,1122.7L1541.15,1122.7L1501,1196.26L1501,1252.21L1482.51,1252.21L1482.51,1196.26Z" style="fill:rgb(249,55,44);fill-rule:nonzero;"/>
            <path d="M891.85,1388.09L944.702,1388.09L944.702,1337.43L963.192,1337.43L963.192,1466.94L944.702,1466.94L944.702,1406.46L891.85,1406.46L891.85,1466.94L873.359,1466.94L873.359,1337.43L891.85,1337.43L891.85,1388.09Z" style="fill:rgb(249,55,44);fill-rule:nonzero;"/>
            <path d="M1011.05,1337.43L1011.05,1415.44C1011.05,1426.57 1012.76,1434.7 1016.2,1439.85C1021.34,1447.28 1028.56,1451 1037.87,1451C1047.23,1451 1054.48,1447.28 1059.61,1439.85C1063.05,1434.87 1064.77,1426.73 1064.77,1415.44L1064.77,1337.43L1083.26,1337.43L1083.26,1420.81C1083.26,1434.45 1079.24,1445.69 1071.2,1454.53C1062.15,1464.37 1051.04,1469.29 1037.87,1469.29C1024.69,1469.29 1013.61,1464.37 1004.62,1454.53C996.575,1445.69 992.554,1434.45 992.554,1420.81L992.554,1337.43L1011.05,1337.43Z" style="fill:rgb(249,55,44);fill-rule:nonzero;"/>
            <path d="M1112.62,1466.94L1112.62,1328.62L1201.98,1427.43L1201.98,1337.43L1220.47,1337.43L1220.47,1474.82L1131.11,1376.27L1131.11,1466.94L1112.62,1466.94Z" style="fill:rgb(249,55,44);fill-rule:nonzero;"/>
            <path d="M1283.64,1355.8L1283.64,1466.94L1265.15,1466.94L1265.15,1355.8L1236.98,1355.8L1236.98,1337.43L1311.73,1337.43L1311.73,1355.8L1283.64,1355.8Z" style="fill:rgb(249,55,44);fill-rule:nonzero;"/>
            <path d="M1395.85,1355.8L1346.73,1355.8L1346.73,1386.92L1394.42,1386.92L1394.42,1405.29L1346.73,1405.29L1346.73,1448.57L1395.85,1448.57L1395.85,1466.94L1328.24,1466.94L1328.24,1337.43L1395.85,1337.43L1395.85,1355.8Z" style="fill:rgb(249,55,44);fill-rule:nonzero;"/>
            <path d="M1461.64,1411.75L1499.57,1466.94L1476.95,1466.94L1441.96,1413.93L1438.62,1413.93L1438.62,1466.94L1420.13,1466.94L1420.13,1337.43L1441.8,1337.43C1457.99,1337.43 1469.68,1340.65 1476.87,1347.08C1484.81,1354.24 1488.78,1363.68 1488.78,1375.43C1488.78,1384.6 1486.29,1392.48 1481.32,1399.08C1476.34,1405.68 1469.78,1409.9 1461.64,1411.75ZM1438.62,1396.9L1444.5,1396.9C1462.01,1396.9 1470.76,1389.83 1470.76,1375.68C1470.76,1362.43 1462.25,1355.8 1445.21,1355.8L1438.62,1355.8L1438.62,1396.9Z" style="fill:rgb(249,55,44);fill-rule:nonzero;"/>
        </g>
        <g transform="matrix(1.63365,0,0,1.63365,-1190.93,-1690.65)">
            <path d="M899.793,1170.97L890.323,1252.21L877.099,1252.21L886.569,1170.97L865.261,1170.97L866.762,1157.97L921.678,1157.97L920.177,1170.97L899.793,1170.97Z" style="fill:white;fill-rule:nonzero;"/>
            <path d="M945.354,1149.12L939.464,1199.6C944.584,1195.41 949.781,1193.31 955.055,1193.31C960.368,1193.31 964.602,1194.8 967.759,1197.77C971.031,1200.7 972.668,1204.54 972.668,1209.3C972.668,1210.44 972.61,1211.73 972.494,1213.18C972.379,1214.62 972.225,1216.26 972.032,1218.09L968.048,1252.21L955.286,1252.21L959.328,1217.36C959.559,1215.49 959.675,1213.8 959.675,1212.29C959.675,1207.17 956.826,1204.6 951.129,1204.6C942.967,1204.6 938.213,1210.44 936.865,1222.12L933.343,1252.21L920.581,1252.21L932.592,1149.12L945.354,1149.12Z" style="fill:white;fill-rule:nonzero;"/>
            <path d="M998.942,1228.29C998.942,1232.52 1000.33,1236 1003.1,1238.72C1005.91,1241.45 1009.49,1242.81 1013.84,1242.81C1019.81,1242.81 1024.39,1240.45 1027.58,1235.73L1037.11,1241.29C1033.8,1246.01 1030.39,1249.3 1026.89,1251.17C1023.35,1253.09 1018.92,1254.04 1013.61,1254.04C1005.18,1254.04 998.46,1251.42 993.456,1246.17C988.451,1240.92 985.949,1233.9 985.949,1225.11C985.949,1215.91 988.702,1208.23 994.207,1202.04C999.673,1195.9 1006.58,1192.82 1014.94,1192.82C1023.02,1192.82 1029.39,1195.59 1034.05,1201.12C1038.79,1206.7 1041.15,1214.16 1041.15,1223.52C1041.15,1224.5 1041.1,1226.09 1040.98,1228.29L998.942,1228.29ZM1028.22,1217.42C1026.87,1208.55 1022.23,1204.12 1014.3,1204.12C1006.8,1204.12 1001.91,1208.55 999.635,1217.42L1028.22,1217.42Z" style="fill:white;fill-rule:nonzero;"/>
            <path d="M1124.65,1170.97L1115.18,1252.21L1101.96,1252.21L1111.43,1170.97L1090.12,1170.97L1091.62,1157.97L1146.54,1157.97L1145.04,1170.97L1124.65,1170.97Z" style="fill:white;fill-rule:nonzero;"/>
            <path d="M1200,1194.72L1193.31,1252.21L1180.54,1252.21L1181.29,1245.99C1175.83,1251.03 1170.17,1253.55 1164.32,1253.55C1157.12,1253.55 1151.25,1250.97 1146.7,1245.8C1142.16,1240.63 1139.89,1233.94 1139.89,1225.72C1139.89,1216.24 1142.49,1208.47 1147.69,1202.41C1152.96,1196.34 1159.72,1193.31 1167.95,1193.31C1171.84,1193.31 1175.15,1193.98 1177.89,1195.33C1180.66,1196.67 1183.49,1198.99 1186.38,1202.28L1187.24,1194.72L1200,1194.72ZM1184.47,1221.82C1184.47,1216.73 1183.08,1212.6 1180.31,1209.42C1177.54,1206.21 1173.96,1204.6 1169.57,1204.6C1164.8,1204.6 1160.8,1206.58 1157.56,1210.52C1154.33,1214.51 1152.71,1219.39 1152.71,1225.17C1152.71,1230.22 1154.06,1234.35 1156.75,1237.56C1159.45,1240.78 1162.91,1242.38 1167.15,1242.38C1171.84,1242.38 1175.9,1240.37 1179.33,1236.34C1182.76,1232.23 1184.47,1227.39 1184.47,1221.82Z" style="fill:white;fill-rule:nonzero;"/>
            <path d="M1230.55,1194.72L1229.97,1200.03C1235.02,1195.55 1240.12,1193.31 1245.28,1193.31C1250.59,1193.31 1254.84,1194.88 1258.04,1198.01C1261.16,1201.14 1262.71,1205.42 1262.71,1210.83C1262.71,1213.76 1262.48,1217.26 1262.02,1221.33L1258.38,1252.21L1245.68,1252.21L1249.61,1218.4C1249.76,1217.14 1249.87,1216.02 1249.92,1215.04C1249.98,1214.06 1250.01,1213.19 1250.01,1212.42C1250.01,1207.21 1247.36,1204.6 1242.04,1204.6C1238.77,1204.6 1235.96,1205.66 1233.61,1207.78C1231.69,1209.44 1230.26,1211.48 1229.34,1213.88C1228.84,1215.1 1228.41,1216.6 1228.07,1218.37C1227.72,1220.14 1227.41,1222.18 1227.14,1224.5L1223.91,1252.21L1211.15,1252.21L1217.85,1194.72L1230.55,1194.72Z" style="fill:white;fill-rule:nonzero;"/>
            <path d="M1295.11,1207.23L1289.86,1252.21L1277.09,1252.21L1282.35,1207.23L1275.13,1207.23L1276.57,1194.72L1283.79,1194.72L1286.91,1168.04L1299.67,1168.04L1296.55,1194.72L1308.33,1194.72L1306.89,1207.23L1295.11,1207.23Z" style="fill:white;fill-rule:nonzero;"/>
            <path d="M1373.25,1194.72L1366.55,1252.21L1353.79,1252.21L1354.54,1245.99C1349.07,1251.03 1343.41,1253.55 1337.56,1253.55C1330.36,1253.55 1324.49,1250.97 1319.95,1245.8C1315.4,1240.63 1313.13,1233.94 1313.13,1225.72C1313.13,1216.24 1315.73,1208.47 1320.93,1202.41C1326.2,1196.34 1332.96,1193.31 1341.2,1193.31C1345.09,1193.31 1348.4,1193.98 1351.13,1195.33C1353.9,1196.67 1356.73,1198.99 1359.62,1202.28L1360.49,1194.72L1373.25,1194.72ZM1357.71,1221.82C1357.71,1216.73 1356.33,1212.6 1353.56,1209.42C1350.78,1206.21 1347.2,1204.6 1342.81,1204.6C1338.04,1204.6 1334.04,1206.58 1330.8,1210.52C1327.57,1214.51 1325.95,1219.39 1325.95,1225.17C1325.95,1230.22 1327.3,1234.35 1330,1237.56C1332.69,1240.78 1336.15,1242.38 1340.39,1242.38C1345.09,1242.38 1349.15,1240.37 1352.57,1236.34C1356,1232.23 1357.71,1227.39 1357.71,1221.82Z" style="fill:white;fill-rule:nonzero;"/>
            <path d="M1409.11,1149.12L1397.15,1252.21L1384.39,1252.21L1396.4,1149.12L1409.11,1149.12Z" style="fill:white;fill-rule:nonzero;"/>
            <path d="M1438.38,1167.37C1438.38,1169.33 1437.71,1171.01 1436.36,1172.44C1435.02,1173.86 1433.4,1174.57 1431.51,1174.57C1429.62,1174.57 1427.99,1173.84 1426.6,1172.38C1425.26,1170.83 1424.58,1169.06 1424.58,1167.07C1424.58,1165.07 1425.24,1163.38 1426.55,1162C1427.89,1160.58 1429.49,1159.86 1431.34,1159.86C1433.22,1159.86 1434.86,1160.62 1436.25,1162.12C1437.67,1163.59 1438.38,1165.34 1438.38,1167.37ZM1434.4,1194.72L1427.7,1252.21L1414.94,1252.21L1421.64,1194.72L1434.4,1194.72Z" style="fill:white;fill-rule:nonzero;"/>
            <path d="M1496.65,1239.7L1495.2,1252.21L1439.31,1252.21L1475.74,1207.23L1448.43,1207.23L1449.87,1194.72L1501.15,1194.72L1464.48,1239.7L1496.65,1239.7Z" style="fill:white;fill-rule:nonzero;"/>
            <path d="M1530.26,1167.37C1530.26,1169.33 1529.58,1171.01 1528.24,1172.44C1526.89,1173.86 1525.27,1174.57 1523.38,1174.57C1521.5,1174.57 1519.86,1173.84 1518.48,1172.38C1517.13,1170.83 1516.45,1169.06 1516.45,1167.07C1516.45,1165.07 1517.11,1163.38 1518.42,1162C1519.77,1160.58 1521.36,1159.86 1523.21,1159.86C1525.1,1159.86 1526.73,1160.62 1528.12,1162.12C1529.54,1163.59 1530.26,1165.34 1530.26,1167.37ZM1526.27,1194.72L1519.57,1252.21L1506.81,1252.21L1513.51,1194.72L1526.27,1194.72Z" style="fill:white;fill-rule:nonzero;"/>
            <path d="M1556.82,1194.72L1556.24,1200.03C1561.29,1195.55 1566.38,1193.31 1571.54,1193.31C1576.86,1193.31 1581.11,1194.88 1584.31,1198.01C1587.42,1201.14 1588.98,1205.42 1588.98,1210.83C1588.98,1213.76 1588.75,1217.26 1588.29,1221.33L1584.65,1252.21L1571.95,1252.21L1575.88,1218.4C1576.03,1217.14 1576.13,1216.02 1576.19,1215.04C1576.25,1214.06 1576.28,1213.19 1576.28,1212.42C1576.28,1207.21 1573.62,1204.6 1568.31,1204.6C1565.04,1204.6 1562.23,1205.66 1559.88,1207.78C1557.95,1209.44 1556.53,1211.48 1555.61,1213.88C1555.11,1215.1 1554.68,1216.6 1554.34,1218.37C1553.99,1220.14 1553.68,1222.18 1553.41,1224.5L1550.18,1252.21L1537.42,1252.21L1544.12,1194.72L1556.82,1194.72Z" style="fill:white;fill-rule:nonzero;"/>
            <path d="M1663.82,1194.72L1657.12,1252.64C1656.7,1256.1 1656.23,1259.11 1655.71,1261.67C1655.19,1264.24 1654.6,1266.39 1653.95,1268.14C1652.6,1271.72 1650.6,1274.79 1647.94,1277.36C1642.78,1282.24 1636.08,1284.68 1627.85,1284.68C1619.34,1284.68 1612.45,1282.32 1607.17,1277.6C1604.48,1275.24 1602.59,1272.56 1601.51,1269.55C1600.44,1266.78 1599.9,1262.89 1599.9,1257.89L1612.25,1257.89C1612.56,1263.3 1613.87,1267.24 1616.18,1269.7C1618.49,1272.16 1622.07,1273.39 1626.92,1273.39C1632.16,1273.39 1636.14,1271.91 1638.88,1268.96C1641.61,1266.02 1643.34,1261.33 1644.07,1254.9L1645,1247.02C1639.61,1251.38 1633.95,1253.55 1628.02,1253.55C1620.63,1253.55 1614.53,1250.89 1609.71,1245.56C1604.9,1240.11 1602.5,1233.31 1602.5,1225.17C1602.5,1216.02 1605.29,1208.43 1610.87,1202.41C1616.49,1196.34 1623.52,1193.31 1631.95,1193.31C1635.99,1193.31 1639.26,1193.94 1641.76,1195.2C1644.5,1196.42 1647.33,1198.64 1650.25,1201.86L1651.06,1194.72L1663.82,1194.72ZM1649.15,1222C1649.15,1216.79 1647.65,1212.6 1644.65,1209.42C1641.65,1206.21 1637.72,1204.6 1632.87,1204.6C1627.83,1204.6 1623.63,1206.56 1620.28,1210.46C1616.97,1214.33 1615.32,1219.19 1615.32,1225.05C1615.32,1230.18 1616.74,1234.37 1619.59,1237.62C1622.48,1240.76 1626.29,1242.32 1631.02,1242.32C1636.3,1242.32 1640.63,1240.41 1644.01,1236.59C1647.44,1232.72 1649.15,1227.86 1649.15,1222Z" style="fill:white;fill-rule:nonzero;"/>
            <path d="M1731.44,1230.06L1720.59,1252.21L1706.21,1252.21L1755.52,1151.26L1786.3,1252.21L1772.5,1252.21L1766.03,1230.06L1731.44,1230.06ZM1737.16,1217.97L1762.34,1217.97L1752.75,1184.46L1737.16,1217.97Z" style="fill:white;fill-rule:nonzero;"/>
            <path d="M1861.41,1149.12L1849.39,1252.21L1836.69,1252.21L1837.38,1246.05C1834.23,1249.02 1831.49,1251.03 1829.18,1252.09C1826.91,1253.07 1824.1,1253.55 1820.75,1253.55C1813.13,1253.55 1806.89,1250.89 1802.04,1245.56C1797.19,1240.19 1794.77,1233.27 1794.77,1224.81C1794.77,1215.77 1797.42,1208.27 1802.74,1202.28C1808.05,1196.3 1814.73,1193.31 1822.77,1193.31C1826.89,1193.31 1830.36,1194.06 1833.17,1195.57C1836.09,1197.12 1839.15,1199.74 1842.35,1203.44L1848.64,1149.12L1861.41,1149.12ZM1840.39,1220.96C1840.39,1216.08 1838.96,1212.13 1836.11,1209.12C1833.27,1206.11 1829.53,1204.6 1824.91,1204.6C1819.91,1204.6 1815.77,1206.58 1812.5,1210.52C1809.22,1214.47 1807.59,1219.45 1807.59,1225.48C1807.59,1230.56 1808.99,1234.65 1811.8,1237.75C1814.61,1240.8 1818.35,1242.32 1823.01,1242.32C1827.86,1242.32 1831.96,1240.25 1835.31,1236.1C1838.69,1232.03 1840.39,1226.98 1840.39,1220.96Z" style="fill:white;fill-rule:nonzero;"/>
            <path d="M1922.73,1194.72L1885.31,1259.66L1865.97,1194.72L1879.25,1194.72L1888.6,1231.46L1908.12,1194.72L1922.73,1194.72Z" style="fill:white;fill-rule:nonzero;"/>
            <path d="M1937.68,1228.29C1937.68,1232.52 1939.07,1236 1941.84,1238.72C1944.65,1241.45 1948.23,1242.81 1952.58,1242.81C1958.55,1242.81 1963.13,1240.45 1966.32,1235.73L1975.85,1241.29C1972.54,1246.01 1969.13,1249.3 1965.63,1251.17C1962.09,1253.09 1957.66,1254.04 1952.35,1254.04C1943.92,1254.04 1937.2,1251.42 1932.19,1246.17C1927.19,1240.92 1924.69,1233.9 1924.69,1225.11C1924.69,1215.91 1927.44,1208.23 1932.94,1202.04C1938.41,1195.9 1945.32,1192.82 1953.67,1192.82C1961.76,1192.82 1968.13,1195.59 1972.79,1201.12C1977.52,1206.7 1979.89,1214.16 1979.89,1223.52C1979.89,1224.5 1979.83,1226.09 1979.72,1228.29L1937.68,1228.29ZM1966.96,1217.42C1965.61,1208.55 1960.97,1204.12 1953.04,1204.12C1945.53,1204.12 1940.64,1208.55 1938.37,1217.42L1966.96,1217.42Z" style="fill:white;fill-rule:nonzero;"/>
            <path d="M2010.38,1194.72L2009.8,1200.03C2014.85,1195.55 2019.95,1193.31 2025.11,1193.31C2030.42,1193.31 2034.67,1194.88 2037.87,1198.01C2040.99,1201.14 2042.55,1205.42 2042.55,1210.83C2042.55,1213.76 2042.31,1217.26 2041.85,1221.33L2038.21,1252.21L2025.51,1252.21L2029.44,1218.4C2029.59,1217.14 2029.7,1216.02 2029.76,1215.04C2029.81,1214.06 2029.84,1213.19 2029.84,1212.42C2029.84,1207.21 2027.18,1204.6 2021.87,1204.6C2018.6,1204.6 2015.79,1205.66 2013.44,1207.78C2011.52,1209.44 2010.09,1211.48 2009.17,1213.88C2008.67,1215.1 2008.25,1216.6 2007.9,1218.37C2007.55,1220.14 2007.24,1222.18 2006.97,1224.5L2003.74,1252.21L1990.98,1252.21L1997.68,1194.72L2010.38,1194.72Z" style="fill:white;fill-rule:nonzero;"/>
            <path d="M2074.94,1207.23L2069.69,1252.21L2056.92,1252.21L2062.18,1207.23L2054.96,1207.23L2056.4,1194.72L2063.62,1194.72L2066.74,1168.04L2079.5,1168.04L2076.38,1194.72L2088.16,1194.72L2086.72,1207.23L2074.94,1207.23Z" style="fill:white;fill-rule:nonzero;"/>
            <path d="M2144.29,1194.72L2140.42,1228.16C2140.12,1231.01 2139.73,1233.49 2139.27,1235.61C2138.81,1237.73 2138.31,1239.5 2137.77,1240.92C2136.69,1243.64 2134.88,1246.07 2132.34,1248.18C2128.03,1251.76 2122.35,1253.55 2115.3,1253.55C2108.61,1253.55 2103.26,1251.74 2099.25,1248.12C2095.25,1244.46 2093.25,1239.56 2093.25,1233.41C2093.25,1232.48 2093.29,1231.38 2093.39,1230.12C2093.49,1228.86 2093.63,1227.41 2093.82,1225.78L2097.4,1194.72L2110.16,1194.72L2106.41,1227C2106.26,1228.39 2106.14,1229.6 2106.07,1230.63C2105.99,1231.67 2105.95,1232.54 2105.95,1233.23C2105.95,1239.29 2109.32,1242.32 2116.05,1242.32C2119.71,1242.32 2122.41,1241.33 2124.14,1239.33C2125.87,1237.34 2127.03,1233.84 2127.6,1228.83L2131.59,1194.72L2144.29,1194.72Z" style="fill:white;fill-rule:nonzero;"/>
            <path d="M2174.96,1194.72L2174.38,1199.66C2178.69,1195.35 2183.04,1193.19 2187.43,1193.19C2191.28,1193.19 2194.78,1194.67 2197.94,1197.64L2189.8,1208.75C2187.45,1206.64 2185.1,1205.58 2182.75,1205.58C2181.13,1205.58 2179.71,1205.91 2178.48,1206.59C2177.25,1207.26 2176.18,1208.32 2175.27,1209.76C2174.37,1211.2 2173.62,1213.07 2173.02,1215.35C2172.42,1217.62 2171.95,1220.35 2171.61,1223.52L2168.26,1252.21L2155.49,1252.21L2162.19,1194.72L2174.96,1194.72Z" style="fill:white;fill-rule:nonzero;"/>
            <path d="M2213.03,1228.29C2213.03,1232.52 2214.41,1236 2217.19,1238.72C2220,1241.45 2223.58,1242.81 2227.93,1242.81C2233.89,1242.81 2238.47,1240.45 2241.67,1235.73L2251.2,1241.29C2247.89,1246.01 2244.48,1249.3 2240.98,1251.17C2237.43,1253.09 2233.01,1254.04 2227.7,1254.04C2219.26,1254.04 2212.55,1251.42 2207.54,1246.17C2202.54,1240.92 2200.03,1233.9 2200.03,1225.11C2200.03,1215.91 2202.79,1208.23 2208.29,1202.04C2213.76,1195.9 2220.67,1192.82 2229.02,1192.82C2237.11,1192.82 2243.48,1195.59 2248.14,1201.12C2252.87,1206.7 2255.24,1214.16 2255.24,1223.52C2255.24,1224.5 2255.18,1226.09 2255.07,1228.29L2213.03,1228.29ZM2242.3,1217.42C2240.96,1208.55 2236.32,1204.12 2228.39,1204.12C2220.88,1204.12 2215.99,1208.55 2213.72,1217.42L2242.3,1217.42Z" style="fill:white;fill-rule:nonzero;"/>
            <path d="M2305.42,1201.06L2298.2,1208.69C2294.82,1205.48 2291.68,1203.87 2288.79,1203.87C2286.83,1203.87 2285.2,1204.45 2283.91,1205.61C2282.62,1206.77 2281.98,1208.2 2281.98,1209.91C2281.98,1211.58 2282.51,1212.99 2283.59,1214.12C2284.67,1215.31 2286.92,1216.89 2290.35,1218.88C2295.24,1221.77 2298.51,1224.42 2300.17,1226.82C2301.94,1229.18 2302.82,1232.25 2302.82,1236.04C2302.82,1241.49 2301.03,1245.86 2297.45,1249.16C2293.8,1252.41 2289.04,1254.04 2283.19,1254.04C2275.22,1254.04 2268.62,1250.24 2263.38,1242.63L2271.76,1236.46C2275.18,1240.82 2278.84,1242.99 2282.73,1242.99C2284.92,1242.99 2286.68,1242.38 2288.01,1241.16C2289.34,1239.94 2290,1238.36 2290,1236.4C2290,1234.69 2289.44,1233.31 2288.33,1232.25C2287.79,1231.72 2286.85,1230.99 2285.5,1230.06C2284.15,1229.12 2282.32,1228 2280.01,1226.7C2275.93,1224.3 2273.1,1221.96 2271.52,1219.68C2269.95,1217.28 2269.16,1214.35 2269.16,1210.89C2269.16,1205.68 2270.97,1201.37 2274.59,1197.95C2278.2,1194.53 2282.8,1192.82 2288.39,1192.82C2294.55,1192.82 2300.22,1195.57 2305.42,1201.06Z" style="fill:white;fill-rule:nonzero;"/>
            <path d="M2410.63,1222.91C2410.63,1231.7 2407.75,1239.09 2401.97,1245.07C2396.24,1251.05 2389.15,1254.04 2380.72,1254.04C2371.91,1254.04 2364.71,1251.21 2359.12,1245.56C2353.5,1239.86 2350.69,1232.66 2350.69,1223.95C2350.69,1215.04 2353.6,1207.63 2359.41,1201.74C2365.26,1195.79 2372.58,1192.82 2381.36,1192.82C2389.98,1192.82 2397.01,1195.63 2402.43,1201.25C2407.9,1206.78 2410.63,1214 2410.63,1222.91ZM2397.76,1222.24C2397.76,1216.71 2396.24,1212.33 2393.19,1209.12C2390.15,1205.78 2386.17,1204.12 2381.24,1204.12C2376.12,1204.12 2371.89,1205.97 2368.54,1209.67C2365.19,1213.41 2363.51,1218.11 2363.51,1223.77C2363.51,1229.46 2365.09,1234.04 2368.25,1237.5C2371.4,1241.04 2375.49,1242.81 2380.49,1242.81C2385.49,1242.81 2389.61,1240.88 2392.85,1237.01C2396.12,1233.19 2397.76,1228.27 2397.76,1222.24Z" style="fill:white;fill-rule:nonzero;"/>
            <path d="M2440.55,1207.23L2435.35,1252.21L2422.59,1252.21L2427.84,1207.23L2419.53,1207.23L2420.97,1194.72L2429.28,1194.72L2432.29,1169.02C2433.06,1162.18 2434.81,1157.16 2437.54,1153.94C2440.28,1150.73 2444.18,1149.12 2449.26,1149.12C2452.34,1149.12 2455.94,1150.16 2460.06,1152.24L2458.68,1164.08C2456.29,1162.04 2454.1,1161.02 2452.09,1161.02C2449.78,1161.02 2448.07,1161.86 2446.95,1163.53C2445.91,1165.19 2445.13,1168.27 2444.59,1172.74L2442.05,1194.72L2453.6,1194.72L2452.15,1207.23L2440.55,1207.23Z" style="fill:white;fill-rule:nonzero;"/>
        </g>
        <g transform="matrix(1.0992,0,0,1.0992,-393.098,-456.347)">
            <g transform="matrix(0.624523,0,0,0.624523,1487.9,1811.3)">
                <path d="M1538.72,3864.17L1538.72,3903.82C1527.02,3894.96 1516.48,3890.54 1507.12,3890.54C1497.02,3890.54 1488.76,3894.31 1482.36,3901.87C1475.95,3909.03 1472.75,3918.6 1472.75,3930.58C1472.75,3941.12 1475.03,3950.17 1479.59,3957.72C1481.93,3961.76 1485.78,3966.97 1491.13,3973.35C1496.49,3979.73 1503.42,3987.41 1511.92,3996.4C1527.57,4013.19 1538.23,4027.71 1543.89,4039.95C1549.56,4051.8 1552.39,4066.32 1552.39,4083.51C1552.39,4106.81 1546.17,4126.02 1533.73,4141.12C1521.29,4155.84 1505.33,4163.19 1485.87,4163.19C1469.49,4163.19 1455.5,4158.44 1443.92,4148.94L1443.92,4108.7C1457.6,4119.25 1470.04,4124.52 1481.25,4124.52C1491.72,4124.52 1499.91,4120.84 1505.83,4113.49C1511.74,4106.13 1514.7,4096.14 1514.7,4083.51C1514.7,4072.57 1512.42,4062.74 1507.86,4054.01C1505.52,4049.85 1502.25,4045.06 1498.07,4039.66C1493.88,4034.26 1488.64,4028.23 1482.36,4021.59C1472.63,4011.44 1464.56,4002.45 1458.15,3994.64C1451.75,3986.83 1447,3979.99 1443.92,3974.13C1438.01,3962.67 1435.05,3948.22 1435.05,3930.77C1435.05,3907.2 1440.84,3888.52 1452.42,3874.72C1464.13,3860.78 1479.83,3853.82 1499.54,3853.82C1513.22,3853.82 1526.28,3857.27 1538.72,3864.17Z" style="fill-rule:nonzero;"/>
                <path d="M1695.6,4060.07C1695.6,4128.43 1675.58,4162.61 1635.55,4162.61C1595.51,4162.61 1575.49,4127.91 1575.49,4058.51C1575.49,3988.84 1595.45,3954.01 1635.36,3954.01C1645.71,3954.01 1654.67,3956.1 1662.25,3960.26C1669.82,3964.43 1676.08,3970.88 1681,3979.6C1685.93,3988.32 1689.6,3999.33 1692,4012.61C1694.4,4025.89 1695.6,4041.71 1695.6,4060.07ZM1659.01,4059.09C1659.01,4032.53 1657.35,4014.04 1654.02,4003.62C1650.7,3993.08 1644.78,3987.8 1636.28,3987.8C1627.91,3987.8 1621.93,3993.01 1618.36,4003.43C1615.03,4013.84 1613.37,4032.01 1613.37,4057.92C1613.37,4083.83 1615.03,4101.93 1618.36,4112.22C1621.93,4122.63 1627.91,4127.84 1636.28,4127.84C1644.66,4127.84 1650.51,4122.7 1653.84,4112.41C1657.29,4102.78 1659.01,4085 1659.01,4059.09Z" style="fill-rule:nonzero;"/>
                <path d="M1837.7,3957.33L1837.7,4159.48L1802.41,4159.48L1802.41,4133.51C1797.36,4144.57 1792.31,4152.19 1787.25,4156.36C1782.2,4160.52 1775.55,4162.61 1767.3,4162.61C1751.4,4162.61 1739.76,4154.01 1732.37,4136.83C1724.98,4119.64 1721.29,4092.69 1721.29,4055.97C1721.29,4020.94 1724.98,3995.19 1732.37,3978.72C1739.76,3962.25 1751.4,3954.01 1767.3,3954.01C1781.83,3954.01 1793.54,3962.74 1802.41,3980.19L1802.41,3957.33L1837.7,3957.33ZM1757.87,4057.53C1757.87,4084.09 1759.54,4102.65 1762.86,4113.19C1766.31,4123.74 1772.35,4129.01 1780.97,4129.01C1788.86,4129.01 1794.58,4123.55 1798.16,4112.61C1801.73,4100.89 1803.52,4082.86 1803.52,4058.51C1803.52,4034.03 1801.73,4015.93 1798.16,4004.21C1794.58,3993.27 1788.86,3987.8 1780.97,3987.8C1772.59,3987.8 1766.62,3993.01 1763.05,4003.43C1759.6,4013.06 1757.87,4031.1 1757.87,4057.53Z" style="fill-rule:nonzero;"/>
                <path d="M1877.8,4242.3L1877.8,3957.33L1913.09,3957.33L1913.09,3983.51C1918.02,3972.44 1923.07,3964.76 1928.25,3960.46C1933.42,3956.16 1940.19,3954.01 1948.57,3954.01C1964.34,3954.01 1975.89,3962.64 1983.22,3979.89C1990.55,3997.14 1994.21,4024.13 1994.21,4060.85C1994.21,4096.79 1990.46,4122.63 1982.94,4138.39C1975.55,4154.53 1963.66,4162.61 1947.28,4162.61C1939.39,4162.61 1932.93,4160.72 1927.88,4156.94C1925.41,4155.12 1922.95,4152.52 1920.48,4149.13C1918.02,4145.75 1915.56,4141.64 1913.09,4136.83L1913.09,4242.3L1877.8,4242.3ZM1957.63,4059.48C1957.63,4032.01 1955.9,4013.39 1952.45,4003.62C1949.13,3993.08 1943.15,3987.8 1934.53,3987.8C1926.4,3987.8 1920.61,3993.27 1917.16,4004.21C1913.71,4014.37 1911.98,4032.46 1911.98,4058.51C1911.98,4084.55 1913.71,4102.65 1917.16,4112.8C1920.73,4123.61 1926.52,4129.01 1934.53,4129.01C1942.9,4129.01 1948.88,4123.81 1952.45,4113.39C1955.9,4103.75 1957.63,4085.79 1957.63,4059.48Z" style="fill-rule:nonzero;"/>
                <path d="M2148.14,3857.92L2178.07,3857.92L2239.24,4159.48L2201.17,4159.48L2190.45,4100.69L2133.91,4100.69L2123.01,4159.48L2086.05,4159.48L2148.14,3857.92ZM2184.91,4069.25L2176.41,4021.2C2170.74,3988.52 2166.12,3953.62 2162.55,3916.51C2160.83,3934.61 2158.61,3952.94 2155.9,3971.49C2153.19,3990.05 2149.99,4009.74 2146.29,4030.58L2139.27,4069.25L2184.91,4069.25Z" style="fill-rule:nonzero;"/>
                <path d="M2370.91,3827.65L2370.91,4159.48L2335.62,4159.48L2335.62,4133.51C2330.57,4144.57 2325.51,4152.19 2320.47,4156.36C2315.41,4160.52 2308.7,4162.61 2300.32,4162.61C2284.55,4162.61 2272.97,4154.05 2265.58,4136.92C2258.19,4119.8 2254.5,4092.88 2254.5,4056.16C2254.5,4038.45 2255.42,4023.15 2257.27,4010.26C2259.12,3997.37 2261.92,3986.76 2265.68,3978.43C2269.43,3970.09 2274.27,3963.94 2280.18,3959.97C2286.1,3956 2293.12,3954.01 2301.25,3954.01C2309.01,3954.01 2315.41,3955.97 2320.47,3959.87C2322.93,3961.7 2325.45,3964.3 2328.04,3967.69C2330.63,3971.07 2333.15,3975.24 2335.62,3980.19L2335.62,3827.65L2370.91,3827.65ZM2291.08,4057.53C2291.08,4084.09 2292.75,4102.65 2296.07,4113.19C2299.52,4123.74 2305.56,4129.01 2314.18,4129.01C2322.07,4129.01 2327.79,4123.55 2331.37,4112.61C2334.94,4100.89 2336.73,4082.86 2336.73,4058.51C2336.73,4034.03 2334.94,4015.93 2331.37,4004.21C2327.79,3993.27 2322.07,3987.8 2314.18,3987.8C2305.8,3987.8 2299.83,3993.01 2296.26,4003.43C2292.81,4013.06 2291.08,4031.1 2291.08,4057.53Z" style="fill-rule:nonzero;"/>
                <path d="M2392.53,3957.33L2430.41,3957.33L2444.27,4021.4C2447.1,4034.42 2449.51,4048.19 2451.48,4062.7C2453.45,4077.22 2455.05,4093.08 2456.28,4110.26C2457.02,4106.23 2457.39,4103.88 2457.39,4103.23L2461.64,4073.15C2463.24,4061.7 2466.38,4044.44 2471.07,4021.4L2483.82,3957.33L2518,3957.33L2468.11,4159.48L2444.27,4159.48L2392.53,3957.33Z" style="fill-rule:nonzero;"/>
                <path d="M2611.01,4091.32L2643.9,4091.32C2641.31,4138.84 2622.83,4162.61 2588.46,4162.61C2578.24,4162.61 2569.46,4160.59 2562.13,4156.55C2554.8,4152.52 2548.73,4146.27 2543.93,4137.8C2539.12,4129.34 2535.58,4118.6 2533.3,4105.58C2531.02,4092.56 2529.89,4077.06 2529.89,4059.09C2529.89,4023.41 2534.6,3996.98 2544.02,3979.8C2553.45,3962.61 2568.01,3954.01 2587.72,3954.01C2626.03,3954.01 2645.19,3989.69 2645.19,4061.05L2645.19,4065.73L2564.44,4065.73C2564.44,4108.96 2572.57,4130.58 2588.83,4130.58C2603.61,4130.58 2611.01,4117.49 2611.01,4091.32ZM2609.16,4038.78C2607.68,4017.56 2605.4,4003.62 2602.32,3996.98C2599.12,3989.56 2593.94,3985.85 2586.8,3985.85C2579.53,3985.85 2574.36,3989.56 2571.28,3996.98C2568.2,4003.62 2565.92,4017.56 2564.44,4038.78L2609.16,4038.78Z" style="fill-rule:nonzero;"/>
                <path d="M2676.6,3957.33L2711.9,3957.33L2711.9,3982.53C2717.93,3971.85 2723.91,3964.37 2729.82,3960.07C2735.74,3955.77 2743.56,3953.3 2753.29,3952.65L2753.29,3991.71C2750.83,3991.32 2748.73,3991.12 2747.01,3991.12C2734.32,3991.12 2725.26,3994.57 2719.84,4001.47C2714.55,4008.25 2711.9,4020.09 2711.9,4037.02L2711.9,4159.48L2676.6,4159.48L2676.6,3957.33Z" style="fill-rule:nonzero;"/>
                <path d="M2790.33,3900.69L2825.62,3900.69L2825.62,3957.33L2844.84,3957.33L2844.84,3987.02L2825.62,3987.02L2825.62,4159.48L2790.33,4159.48L2790.33,3987.02L2770.93,3987.02L2770.93,3957.33L2790.33,3957.33L2790.33,3900.69Z" style="fill-rule:nonzero;"/>
                <path d="M2870.16,3957.33L2905.64,3957.33L2905.64,4159.48L2870.16,4159.48L2870.16,3957.33ZM2886.79,3871.4C2893.19,3871.4 2898.74,3873.87 2903.42,3878.82C2908.1,3883.77 2910.44,3889.69 2910.44,3896.59C2910.44,3903.62 2908.1,3909.61 2903.42,3914.56C2898.74,3919.51 2893.07,3921.98 2886.42,3921.98C2879.77,3921.98 2874.1,3919.51 2869.42,3914.56C2864.86,3909.74 2862.58,3903.69 2862.58,3896.4C2862.58,3889.63 2864.92,3883.77 2869.6,3878.82C2874.65,3873.87 2880.38,3871.4 2886.79,3871.4Z" style="fill-rule:nonzero;"/>
                <path d="M3019.28,3961.44L3019.28,3996.4C3010.66,3989.63 3001.6,3986.24 2992.12,3986.24C2988.91,3986.24 2985.96,3986.83 2983.25,3988C2980.54,3989.17 2978.16,3990.76 2976.13,3992.78C2974.1,3994.8 2972.5,3997.21 2971.33,4000.01C2970.16,4002.81 2969.57,4005.77 2969.57,4008.9C2969.57,4018.53 2977.83,4029.99 2994.33,4043.27C3000.99,4048.74 3006.53,4053.82 3010.96,4058.51C3015.4,4063.19 3018.79,4067.62 3021.13,4071.79C3025.93,4079.99 3028.33,4090.34 3028.33,4102.84C3028.33,4120.94 3023.35,4135.46 3013.37,4146.4C3003.51,4157.2 2990.27,4162.61 2973.64,4162.61C2963.41,4162.61 2953.07,4159.42 2942.59,4153.04L2942.59,4116.9C2952.82,4124.98 2962.49,4129.01 2971.61,4129.01C2987.74,4129.01 2995.81,4120.61 2995.81,4103.82C2995.81,4097.57 2994.33,4092.16 2991.38,4087.61C2990.02,4085.39 2987.87,4082.82 2984.91,4079.89C2981.95,4076.96 2978.32,4073.68 2974.01,4070.03C2959.1,4057.79 2949,4047.5 2943.7,4039.17C2938.53,4030.58 2935.94,4020.22 2935.94,4008.12C2935.94,3991.84 2940.68,3978.49 2950.17,3968.08C2959.78,3957.79 2972.28,3952.65 2987.68,3952.65C2998.52,3952.65 3009.05,3955.58 3019.28,3961.44Z" style="fill-rule:nonzero;"/>
                <path d="M3130.52,4091.32L3163.41,4091.32C3160.83,4138.84 3142.35,4162.61 3107.98,4162.61C3097.75,4162.61 3088.97,4160.59 3081.64,4156.55C3074.31,4152.52 3068.25,4146.27 3063.44,4137.8C3058.64,4129.34 3055.1,4118.6 3052.82,4105.58C3050.54,4092.56 3049.4,4077.06 3049.4,4059.09C3049.4,4023.41 3054.11,3996.98 3063.53,3979.8C3072.96,3962.61 3087.53,3954.01 3107.24,3954.01C3145.55,3954.01 3164.7,3989.69 3164.7,4061.05L3164.7,4065.73L3083.95,4065.73C3083.95,4108.96 3092.09,4130.58 3108.35,4130.58C3123.13,4130.58 3130.52,4117.49 3130.52,4091.32ZM3128.67,4038.78C3127.19,4017.56 3124.91,4003.62 3121.84,3996.98C3118.63,3989.56 3113.46,3985.85 3106.31,3985.85C3099.05,3985.85 3093.87,3989.56 3090.79,3996.98C3087.71,4003.62 3085.43,4017.56 3083.95,4038.78L3128.67,4038.78Z" style="fill-rule:nonzero;"/>
                <path d="M3196.12,3957.33L3231.41,3957.33L3231.41,3982.33C3241.14,3963.45 3254.08,3954.01 3270.22,3954.01C3287.83,3954.01 3299.78,3963.45 3306.07,3982.33C3315.43,3963.45 3328.73,3954.01 3345.98,3954.01C3359.41,3954.01 3369.66,3957.76 3376.75,3965.24C3383.83,3972.73 3387.37,3983.77 3387.37,3998.35L3387.37,4159.48L3351.89,4159.48L3351.89,4026.47C3351.89,4011.24 3350.54,4001.02 3347.83,3995.81C3345.24,3990.47 3340.19,3987.8 3332.68,3987.8C3324.18,3987.8 3318.39,3990.54 3315.31,3996.01C3312.35,4001.34 3310.87,4011.5 3310.87,4026.47L3310.87,4159.48L3274.28,4159.48L3274.28,4026.47C3274.28,4019.31 3273.94,4013.26 3273.27,4008.31C3272.59,4003.36 3271.45,3999.39 3269.85,3996.4C3268.25,3993.4 3266.15,3991.22 3263.57,3989.85C3260.98,3988.49 3257.78,3987.8 3253.96,3987.8C3245.83,3987.8 3240.04,3990.73 3236.59,3996.59C3233.14,4002.45 3231.41,4012.41 3231.41,4026.47L3231.41,4159.48L3196.12,4159.48L3196.12,3957.33Z" style="fill-rule:nonzero;"/>
                <path d="M3501.2,4091.32L3534.09,4091.32C3531.5,4138.84 3513.03,4162.61 3478.66,4162.61C3468.43,4162.61 3459.65,4160.59 3452.32,4156.55C3444.99,4152.52 3438.93,4146.27 3434.12,4137.8C3429.32,4129.34 3425.78,4118.6 3423.5,4105.58C3421.22,4092.56 3420.08,4077.06 3420.08,4059.09C3420.08,4023.41 3424.79,3996.98 3434.22,3979.8C3443.64,3962.61 3458.21,3954.01 3477.92,3954.01C3516.23,3954.01 3535.38,3989.69 3535.38,4061.05L3535.38,4065.73L3454.63,4065.73C3454.63,4108.96 3462.76,4130.58 3479.03,4130.58C3493.81,4130.58 3501.2,4117.49 3501.2,4091.32ZM3499.35,4038.78C3497.87,4017.56 3495.59,4003.62 3492.51,3996.98C3489.31,3989.56 3484.14,3985.85 3476.99,3985.85C3469.72,3985.85 3464.55,3989.56 3461.47,3996.98C3458.39,4003.62 3456.11,4017.56 3454.63,4038.78L3499.35,4038.78Z" style="fill-rule:nonzero;"/>
                <path d="M3566.8,3957.33L3602.09,3957.33L3602.09,3980.58C3612.19,3962.87 3625.25,3954.01 3641.27,3954.01C3656.79,3954.01 3667.88,3960.46 3674.53,3973.35C3678.22,3980.64 3680.07,3994.77 3680.07,4015.73L3680.07,4159.48L3644.78,4159.48L3644.59,4024.33C3644.59,4010.65 3643.05,4000.95 3639.97,3995.22C3636.89,3989.5 3631.6,3986.63 3624.08,3986.63C3620.02,3986.63 3616.6,3987.38 3613.83,3988.88C3611.05,3990.37 3608.81,3992.78 3607.08,3996.1C3605.36,3999.42 3604.09,4003.75 3603.29,4009.09C3602.49,4014.43 3602.09,4021.01 3602.09,4028.82L3602.09,4159.48L3566.8,4159.48L3566.8,3957.33Z" style="fill-rule:nonzero;"/>
                <path d="M3724.24,3900.69L3759.53,3900.69L3759.53,3957.33L3778.75,3957.33L3778.75,3987.02L3759.53,3987.02L3759.53,4159.48L3724.24,4159.48L3724.24,3987.02L3704.83,3987.02L3704.83,3957.33L3724.24,3957.33L3724.24,3900.69Z" style="fill-rule:nonzero;"/>
                <path d="M3877.98,3961.44L3877.98,3996.4C3869.35,3989.63 3860.3,3986.24 3850.81,3986.24C3847.61,3986.24 3844.65,3986.83 3841.94,3988C3839.23,3989.17 3836.86,3990.76 3834.83,3992.78C3832.8,3994.8 3831.2,3997.21 3830.03,4000.01C3828.85,4002.81 3828.27,4005.77 3828.27,4008.9C3828.27,4018.53 3836.52,4029.99 3853.03,4043.27C3859.68,4048.74 3865.23,4053.82 3869.66,4058.51C3874.1,4063.19 3877.48,4067.62 3879.82,4071.79C3884.63,4079.99 3887.03,4090.34 3887.03,4102.84C3887.03,4120.94 3882.04,4135.46 3872.06,4146.4C3862.21,4157.2 3848.97,4162.61 3832.33,4162.61C3822.11,4162.61 3811.76,4159.42 3801.29,4153.04L3801.29,4116.9C3811.51,4124.98 3821.19,4129.01 3830.3,4129.01C3846.44,4129.01 3854.51,4120.61 3854.51,4103.82C3854.51,4097.57 3853.03,4092.16 3850.07,4087.61C3848.72,4085.39 3846.56,4082.82 3843.61,4079.89C3840.65,4076.96 3837.02,4073.68 3832.7,4070.03C3817.8,4057.79 3807.7,4047.5 3802.4,4039.17C3797.22,4030.58 3794.64,4020.22 3794.64,4008.12C3794.64,3991.84 3799.38,3978.49 3808.87,3968.08C3818.48,3957.79 3830.98,3952.65 3846.38,3952.65C3857.22,3952.65 3867.75,3955.58 3877.98,3961.44Z" style="fill-rule:nonzero;"/>
                <path d="M3948.38,4114.36C3954.54,4114.36 3959.84,4116.71 3964.27,4121.4C3968.71,4126.08 3970.92,4131.75 3970.92,4138.39C3970.92,4145.03 3968.71,4150.69 3964.27,4155.38C3959.59,4159.94 3954.17,4162.22 3948.01,4162.22C3941.97,4162.22 3936.62,4159.94 3931.93,4155.38C3927.5,4150.69 3925.28,4144.96 3925.28,4138.19C3925.28,4131.55 3927.5,4125.95 3931.93,4121.4C3936.49,4116.71 3941.97,4114.36 3948.38,4114.36ZM3929.53,3857.92L3966.86,3857.92L3966.86,4087.02L3929.53,4087.02L3929.53,3857.92Z" style="fill-rule:nonzero;"/>
            </g>
            <g transform="matrix(0.737656,0,0,0.737656,1319.14,1045.24)">
                <path d="M1478.85,3857.92L1536.5,3857.92C1558.31,3857.92 1575.06,3859.09 1586.76,3861.44C1598.71,3863.65 1609.74,3867.88 1619.84,3874.13C1638.44,3885.46 1653.1,3902.45 1663.82,3925.11C1674.54,3947.76 1679.89,3973.09 1679.89,4001.08C1679.89,4030.77 1673.86,4058.25 1661.79,4083.51C1655.75,4096.01 1648.73,4106.98 1640.72,4116.42C1632.71,4125.86 1623.53,4133.9 1613.19,4140.54C1601.11,4147.83 1588.49,4152.84 1575.31,4155.58C1568.28,4156.88 1559.91,4157.86 1550.17,4158.51C1540.44,4159.16 1529.05,4159.48 1515.99,4159.48L1443.74,4159.48L1478.85,3857.92ZM1516.17,3899.52L1490.86,4117.88L1523.01,4117.88C1546.66,4117.88 1565.14,4115.41 1578.45,4110.46C1591.38,4105.64 1602.65,4096.66 1612.26,4083.51C1629.02,4061.11 1637.39,4033.05 1637.39,3999.33C1637.39,3978.36 1633.64,3960 1626.12,3944.25C1618.48,3928.23 1608.13,3916.64 1595.08,3909.48C1582.63,3902.84 1564.22,3899.52 1539.83,3899.52L1516.17,3899.52Z" style="fill-rule:nonzero;"/>
                <path d="M1771.36,3975.5L1769.51,3991.32C1783.31,3977.52 1797.23,3970.62 1811.28,3970.62C1823.6,3970.62 1834.81,3975.37 1844.91,3984.87L1818.85,4020.42C1811.34,4013.65 1803.82,4010.26 1796.31,4010.26C1791.13,4010.26 1786.58,4011.34 1782.63,4013.49C1778.69,4015.64 1775.27,4019.02 1772.38,4023.64C1769.48,4028.26 1767.08,4034.22 1765.17,4041.51C1763.26,4048.81 1761.75,4057.53 1760.64,4067.69L1749.93,4159.48L1709.09,4159.48L1730.53,3975.5L1771.36,3975.5Z" style="fill-rule:nonzero;"/>
                <path d="M2043.22,3975.5L2021.78,4159.48L1980.95,4159.48L1983.35,4139.56C1965.86,4155.71 1947.75,4163.78 1929.02,4163.78C1905.99,4163.78 1887.2,4155.51 1872.66,4138.98C1858.13,4122.44 1850.86,4101.02 1850.86,4074.72C1850.86,4044.38 1859.17,4019.51 1875.8,4000.11C1892.68,3980.71 1914.3,3971.01 1940.66,3971.01C1953.11,3971.01 1963.7,3973.15 1972.45,3977.45C1981.32,3981.75 1990.37,3989.17 1999.61,3999.72L2002.38,3975.5L2043.22,3975.5ZM1993.51,4062.22C1993.51,4045.94 1989.08,4032.72 1980.21,4022.57C1971.34,4012.28 1959.88,4007.14 1945.84,4007.14C1930.56,4007.14 1917.75,4013.45 1907.4,4026.08C1897.05,4038.84 1891.88,4054.47 1891.88,4072.96C1891.88,4089.11 1896.19,4102.32 1904.82,4112.61C1913.44,4122.89 1924.53,4128.04 1938.08,4128.04C1953.11,4128.04 1966.1,4121.59 1977.07,4108.7C1988.03,4095.55 1993.51,4080.06 1993.51,4062.22Z" style="fill-rule:nonzero;"/>
                <path d="M2142.45,3975.5L2140.6,3992.69C2154.4,3978.1 2170.35,3970.81 2188.46,3970.81C2199.42,3970.81 2207.86,3972.96 2213.78,3977.26C2219.69,3981.29 2224.99,3988.91 2229.67,4000.11C2246.91,3980.71 2265.51,3971.01 2285.47,3971.01C2319.97,3971.01 2337.21,3987.74 2337.21,4021.2C2337.21,4024.59 2336.93,4029.34 2336.38,4035.46C2335.83,4041.58 2335.06,4049.13 2334.07,4058.12L2322.24,4159.48L2281.41,4159.48L2293.97,4053.04C2295.08,4043.14 2295.64,4035.85 2295.64,4031.16C2295.64,4015.15 2288,4007.14 2272.72,4007.14C2266.69,4007.14 2261.45,4008.08 2257.01,4009.97C2252.58,4011.86 2248.79,4014.79 2245.65,4018.76C2242.51,4022.73 2239.92,4027.87 2237.89,4034.19C2235.86,4040.51 2234.29,4048.02 2233.18,4056.75L2221.35,4159.48L2180.51,4159.48L2193.26,4050.3C2194.37,4040.41 2194.93,4033.64 2194.93,4029.99C2194.93,4014.76 2187.11,4007.14 2171.46,4007.14C2148.79,4007.14 2135.55,4023.74 2131.73,4056.94L2119.72,4159.48L2078.88,4159.48L2100.32,3975.5L2142.45,3975.5Z" style="fill-rule:nonzero;"/>
                <path d="M2571.52,3975.5L2550.09,4159.48L2509.25,4159.48L2511.65,4139.56C2494.16,4155.71 2476.05,4163.78 2457.32,4163.78C2434.29,4163.78 2415.5,4155.51 2400.96,4138.98C2386.43,4122.44 2379.16,4101.02 2379.16,4074.72C2379.16,4044.38 2387.47,4019.51 2404.1,4000.11C2420.98,3980.71 2442.6,3971.01 2468.96,3971.01C2481.41,3971.01 2492,3973.15 2500.75,3977.45C2509.62,3981.75 2518.67,3989.17 2527.91,3999.72L2530.68,3975.5L2571.52,3975.5ZM2521.81,4062.22C2521.81,4045.94 2517.38,4032.72 2508.51,4022.57C2499.64,4012.28 2488.18,4007.14 2474.14,4007.14C2458.86,4007.14 2446.05,4013.45 2435.7,4026.08C2425.36,4038.84 2420.18,4054.47 2420.18,4072.96C2420.18,4089.11 2424.49,4102.32 2433.12,4112.61C2441.74,4122.89 2452.83,4128.04 2466.38,4128.04C2481.41,4128.04 2494.4,4121.59 2505.37,4108.7C2516.33,4095.55 2521.81,4080.06 2521.81,4062.22Z" style="fill-rule:nonzero;"/>
                <path d="M2665.02,4138C2665.02,4145.29 2662.68,4151.41 2658,4156.36C2653.32,4161.31 2647.53,4163.78 2640.63,4163.78C2633.61,4163.78 2627.63,4161.18 2622.7,4155.97C2617.9,4150.76 2615.5,4144.25 2615.5,4136.44C2615.5,4129.27 2617.84,4123.22 2622.52,4118.27C2627.57,4113.32 2633.49,4110.85 2640.26,4110.85C2643.71,4110.85 2646.94,4111.53 2649.96,4112.9C2652.98,4114.27 2655.6,4116.16 2657.82,4118.57C2660.03,4120.97 2661.79,4123.84 2663.08,4127.16C2664.37,4130.48 2665.02,4134.09 2665.02,4138ZM2692.18,3857.92L2666.32,4080.38L2626.03,4080.38L2651.72,3857.92L2692.18,3857.92Z" style="fill-rule:nonzero;"/>
            </g>
            <g transform="matrix(0.679929,0,0,0.679929,1415.76,1307.47)">
                <path d="M1606.62,3547.48L1573.32,3447.08L1540.02,3547.48L1606.62,3547.48ZM1626.3,3607.08L1520.34,3607.08L1503.31,3659.48L1424.21,3659.48L1532.83,3357.88L1613.81,3357.88L1722.42,3659.48L1643.33,3659.48L1626.3,3607.08Z" style="fill-rule:nonzero;"/>
                <path d="M1892.59,3520.68C1880.74,3512.15 1868.75,3507.88 1856.64,3507.88C1850.08,3507.88 1843.96,3509.08 1838.29,3511.48C1832.61,3513.88 1827.63,3517.28 1823.34,3521.68C1819.05,3526.08 1815.71,3531.28 1813.31,3537.28C1810.91,3543.28 1809.71,3550.02 1809.71,3557.48C1809.71,3564.68 1810.91,3571.28 1813.31,3577.28C1815.71,3583.28 1818.99,3588.48 1823.15,3592.88C1827.31,3597.28 1832.29,3600.68 1838.1,3603.08C1843.9,3605.48 1850.08,3606.68 1856.64,3606.68C1869.51,3606.68 1881.49,3602.02 1892.59,3592.68L1892.59,3654.28C1875.69,3662.02 1859.67,3665.88 1844.53,3665.88C1830.4,3665.88 1816.97,3663.35 1804.23,3658.28C1791.49,3653.22 1780.26,3645.95 1770.55,3636.48C1760.83,3627.02 1753.07,3615.68 1747.27,3602.48C1741.47,3589.28 1738.57,3574.55 1738.57,3558.28C1738.57,3542.02 1741.34,3527.15 1746.89,3513.68C1752.44,3500.22 1760.01,3488.62 1769.6,3478.88C1779.19,3469.15 1790.6,3461.55 1803.85,3456.08C1817.09,3450.62 1831.29,3447.88 1846.42,3447.88C1863.07,3447.88 1878.46,3451.62 1892.59,3459.08L1892.59,3520.68Z" style="fill-rule:nonzero;"/>
                <path d="M2008.02,3514.68L2008.02,3659.48L1939.52,3659.48L1939.52,3514.68L1916.81,3514.68L1916.81,3454.28L1939.52,3454.28L1939.52,3392.68L2008.02,3392.68L2008.02,3454.28L2047,3454.28L2047,3514.68L2008.02,3514.68Z" style="fill-rule:nonzero;"/>
                <path d="M2146.83,3454.28L2146.83,3659.48L2078.33,3659.48L2078.33,3454.28L2146.83,3454.28ZM2073.79,3375.48C2073.79,3369.88 2074.8,3364.62 2076.82,3359.68C2078.84,3354.75 2081.61,3350.42 2085.14,3346.68C2088.67,3342.95 2092.77,3340.02 2097.44,3337.88C2102.11,3335.75 2107.09,3334.68 2112.39,3334.68C2117.69,3334.68 2122.67,3335.75 2127.34,3337.88C2132.01,3340.02 2136.11,3342.95 2139.64,3346.68C2143.17,3350.42 2145.95,3354.75 2147.96,3359.68C2149.98,3364.62 2150.99,3369.88 2150.99,3375.48C2150.99,3381.08 2149.98,3386.35 2147.96,3391.28C2145.95,3396.22 2143.17,3400.55 2139.64,3404.28C2136.11,3408.02 2132.01,3410.95 2127.34,3413.08C2122.67,3415.22 2117.69,3416.28 2112.39,3416.28C2107.09,3416.28 2102.11,3415.22 2097.44,3413.08C2092.77,3410.95 2088.67,3408.02 2085.14,3404.28C2081.61,3400.55 2078.84,3396.22 2076.82,3391.28C2074.8,3386.35 2073.79,3381.08 2073.79,3375.48Z" style="fill-rule:nonzero;"/>
                <path d="M2258.47,3555.88C2258.47,3562.82 2259.67,3569.15 2262.06,3574.88C2264.46,3580.62 2267.61,3585.62 2271.52,3589.88C2275.43,3594.15 2280.1,3597.48 2285.53,3599.88C2290.95,3602.28 2296.69,3603.48 2302.74,3603.48C2308.8,3603.48 2314.54,3602.28 2319.96,3599.88C2325.39,3597.48 2330.06,3594.15 2333.97,3589.88C2337.88,3585.62 2341.03,3580.62 2343.43,3574.88C2345.82,3569.15 2347.02,3562.95 2347.02,3556.28C2347.02,3549.88 2345.82,3543.82 2343.43,3538.08C2341.03,3532.35 2337.88,3527.35 2333.97,3523.08C2330.06,3518.82 2325.39,3515.48 2319.96,3513.08C2314.54,3510.68 2308.8,3509.48 2302.74,3509.48C2296.69,3509.48 2290.95,3510.68 2285.53,3513.08C2280.1,3515.48 2275.43,3518.82 2271.52,3523.08C2267.61,3527.35 2264.46,3532.28 2262.06,3537.88C2259.67,3543.48 2258.47,3549.48 2258.47,3555.88ZM2186.18,3555.08C2186.18,3539.88 2189.09,3525.68 2194.89,3512.48C2200.69,3499.28 2208.77,3487.82 2219.11,3478.08C2229.45,3468.35 2241.75,3460.68 2256.01,3455.08C2270.26,3449.48 2285.84,3446.68 2302.74,3446.68C2319.4,3446.68 2334.85,3449.42 2349.1,3454.88C2363.36,3460.35 2375.72,3467.95 2386.19,3477.68C2396.66,3487.42 2404.8,3499.02 2410.6,3512.48C2416.4,3525.95 2419.3,3540.82 2419.3,3557.08C2419.3,3573.35 2416.34,3588.22 2410.41,3601.68C2404.48,3615.15 2396.35,3626.75 2386,3636.48C2375.66,3646.22 2363.23,3653.75 2348.73,3659.08C2334.22,3664.42 2318.51,3667.08 2301.61,3667.08C2284.96,3667.08 2269.57,3664.42 2255.44,3659.08C2241.31,3653.75 2229.14,3646.15 2218.92,3636.28C2208.7,3626.42 2200.69,3614.62 2194.89,3600.88C2189.09,3587.15 2186.18,3571.88 2186.18,3555.08Z" style="fill-rule:nonzero;"/>
                <path d="M2458.66,3454.28L2527.16,3454.28L2527.16,3480.28C2536.49,3468.28 2545.96,3460.22 2555.54,3456.08C2565.13,3451.95 2576.36,3449.88 2589.22,3449.88C2602.85,3449.88 2614.52,3452.22 2624.23,3456.88C2633.94,3461.55 2642.21,3468.15 2649.02,3476.68C2654.57,3483.62 2658.35,3491.35 2660.37,3499.88C2662.39,3508.42 2663.4,3518.15 2663.4,3529.08L2663.4,3659.48L2594.9,3659.48L2594.9,3555.88C2594.9,3545.75 2594.21,3537.55 2592.82,3531.28C2591.43,3525.02 2588.97,3520.02 2585.44,3516.28C2582.41,3513.08 2579.01,3510.82 2575.22,3509.48C2571.44,3508.15 2567.4,3507.48 2563.11,3507.48C2551.51,3507.48 2542.61,3511.15 2536.43,3518.48C2530.25,3525.82 2527.16,3536.28 2527.16,3549.88L2527.16,3659.48L2458.66,3659.48L2458.66,3454.28Z" style="fill-rule:nonzero;"/>
                <path d="M2723.57,3557.08L2723.57,3357.88L2794.72,3357.88L2794.72,3557.08L2723.57,3557.08ZM2714.87,3621.08C2714.87,3614.68 2716,3608.62 2718.27,3602.88C2720.54,3597.15 2723.7,3592.15 2727.73,3587.88C2731.77,3583.62 2736.5,3580.28 2741.93,3577.88C2747.35,3575.48 2753.09,3574.28 2759.14,3574.28C2765.2,3574.28 2770.94,3575.48 2776.36,3577.88C2781.79,3580.28 2786.52,3583.62 2790.55,3587.88C2794.59,3592.15 2797.74,3597.15 2800.02,3602.88C2802.29,3608.62 2803.42,3614.68 2803.42,3621.08C2803.42,3627.48 2802.29,3633.55 2800.02,3639.28C2797.74,3645.02 2794.59,3650.02 2790.55,3654.28C2786.52,3658.55 2781.79,3661.88 2776.36,3664.28C2770.94,3666.68 2765.2,3667.88 2759.14,3667.88C2753.09,3667.88 2747.35,3666.68 2741.93,3664.28C2736.5,3661.88 2731.77,3658.55 2727.73,3654.28C2723.7,3650.02 2720.54,3645.02 2718.27,3639.28C2716,3633.55 2714.87,3627.48 2714.87,3621.08Z" style="fill-rule:nonzero;"/>
            </g>
        </g>
        <g transform="matrix(0.552852,0,0,0.552852,-559.281,3183.2)">
            <path d="M1422.12,3357.92L1459.26,3357.92L1478.66,3497.96L1481.8,3518.66C1483.28,3529.86 1484.39,3540.08 1485.13,3549.33L1487.16,3574.91C1487.29,3575.56 1487.41,3576.74 1487.53,3578.43C1487.65,3580.12 1487.84,3582.27 1488.09,3584.87L1489.01,3575.11C1490.49,3558.05 1492.06,3542.36 1493.72,3528.04C1495.38,3513.71 1497.2,3500.5 1499.17,3488.39L1519.68,3357.92L1549.25,3357.92L1568.47,3484.68C1571.3,3503.43 1573.67,3520.81 1575.58,3536.83C1577.49,3552.84 1579.06,3568.14 1580.29,3582.72C1581.53,3567.36 1582.91,3552.52 1584.45,3538.19C1585.99,3523.87 1587.62,3509.81 1589.35,3496.01L1592.12,3475.89L1608.57,3357.92L1645.34,3357.92L1594.89,3659.48L1564.96,3659.48L1544.82,3529.21C1544.69,3528.69 1544.38,3526.54 1543.89,3522.76C1543.4,3518.99 1542.66,3513.58 1541.67,3506.55L1537.79,3476.47C1537.55,3474.13 1537.15,3470.62 1536.59,3465.93C1536.04,3461.24 1535.45,3455.32 1534.84,3448.15L1533.91,3435.65C1533.67,3438.65 1533.42,3441.25 1533.17,3443.47C1532.93,3445.68 1532.74,3447.5 1532.62,3448.94C1532,3457.53 1531.48,3464.2 1531.05,3468.95C1530.62,3473.71 1530.34,3476.61 1530.22,3477.65L1526.34,3506.55C1525.48,3513.19 1524.8,3518.4 1524.3,3522.18C1523.81,3525.95 1523.44,3528.3 1523.2,3529.21L1502.32,3659.48L1471.46,3659.48L1422.12,3357.92Z" style="fill:white;fill-rule:nonzero;"/>
            <path d="M1667.88,3357.92L1706.32,3357.92L1706.32,3475.89L1762.68,3475.89L1762.68,3357.92L1801.11,3357.92L1801.11,3659.48L1762.68,3659.48L1762.68,3510.26L1706.32,3510.26L1706.32,3659.48L1667.88,3659.48L1667.88,3357.92Z" style="fill:white;fill-rule:nonzero;"/>
            <path d="M1987.93,3516.12C1987.93,3569.38 1982.33,3607.2 1971.12,3629.6C1959.9,3652 1941.12,3663.19 1914.76,3663.19C1887.04,3663.19 1867.51,3651.15 1856.18,3627.06C1844.97,3603.49 1839.36,3561.63 1839.36,3501.47C1839.36,3447.83 1844.91,3409.87 1855.99,3387.61C1867.2,3365.21 1886.18,3354.01 1912.91,3354.01C1936.81,3354.01 1954.55,3362.67 1966.13,3379.99C1973.76,3391.58 1979.31,3408.05 1982.76,3429.4C1986.21,3449.2 1987.93,3478.1 1987.93,3516.12ZM1947.65,3520.42C1947.65,3468.21 1945.43,3433.57 1941,3416.51C1936.56,3399.33 1927.51,3390.73 1913.83,3390.73C1900.16,3390.73 1891.04,3398.61 1886.48,3414.37C1882.05,3430.25 1879.83,3462.15 1879.83,3510.07C1879.83,3554.21 1882.17,3584.81 1886.85,3601.87C1891.66,3618.01 1900.65,3626.08 1913.83,3626.08C1926.77,3626.08 1935.64,3618.53 1940.44,3603.43C1945.25,3588.45 1947.65,3560.78 1947.65,3520.42Z" style="fill:white;fill-rule:nonzero;"/>
            <path d="M2104.35,3357.92L2142.78,3357.92L2142.78,3504.01L2196.37,3357.92L2235.17,3357.92L2179,3504.01L2239.61,3659.48L2196.37,3659.48L2142.78,3504.01L2142.78,3659.48L2104.35,3659.48L2104.35,3357.92Z" style="fill:white;fill-rule:nonzero;"/>
            <path d="M2263.63,3357.92L2299.48,3357.92L2337.73,3478.23C2348.82,3512.22 2358.61,3548.48 2367.11,3587.02C2364.03,3563.71 2361.75,3542.62 2360.27,3523.74C2358.8,3504.86 2358.05,3487.09 2358.05,3470.42L2358.05,3357.92L2396.68,3357.92L2396.68,3659.48L2360.64,3659.48L2317.59,3523.74C2313.64,3511.11 2309.92,3498.15 2306.41,3484.87C2302.9,3471.59 2299.66,3457.66 2296.71,3443.08C2296.46,3441.25 2296.06,3439.04 2295.51,3436.44C2294.95,3433.83 2294.3,3430.84 2293.57,3427.45C2293.93,3430.84 2294.24,3433.73 2294.49,3436.14C2294.74,3438.55 2294.92,3440.6 2295.04,3442.3L2297.08,3472.96L2299.11,3510.26C2299.23,3512.35 2299.33,3514.89 2299.39,3517.88C2299.45,3520.88 2299.48,3524.26 2299.48,3528.04L2301.51,3659.48L2263.63,3659.48L2263.63,3357.92Z" style="fill:white;fill-rule:nonzero;"/>
            <path d="M2583.88,3516.12C2583.88,3569.38 2578.28,3607.2 2567.07,3629.6C2555.86,3652 2537.07,3663.19 2510.71,3663.19C2482.99,3663.19 2463.47,3651.15 2452.13,3627.06C2440.92,3603.49 2435.32,3561.63 2435.32,3501.47C2435.32,3447.83 2440.86,3409.87 2451.95,3387.61C2463.16,3365.21 2482.13,3354.01 2508.86,3354.01C2532.76,3354.01 2550.5,3362.67 2562.08,3379.99C2569.72,3391.58 2575.26,3408.05 2578.71,3429.4C2582.16,3449.2 2583.88,3478.1 2583.88,3516.12ZM2543.6,3520.42C2543.6,3468.21 2541.38,3433.57 2536.95,3416.51C2532.51,3399.33 2523.46,3390.73 2509.78,3390.73C2496.11,3390.73 2486.99,3398.61 2482.44,3414.37C2478,3430.25 2475.78,3462.15 2475.78,3510.07C2475.78,3554.21 2478.12,3584.81 2482.81,3601.87C2487.61,3618.01 2496.6,3626.08 2509.78,3626.08C2522.72,3626.08 2531.59,3618.53 2536.39,3603.43C2541.2,3588.45 2543.6,3560.78 2543.6,3520.42Z" style="fill:white;fill-rule:nonzero;"/>
            <path d="M2600.51,3357.92L2637.66,3357.92L2657.06,3497.96L2660.2,3518.66C2661.68,3529.86 2662.79,3540.08 2663.53,3549.33L2665.56,3574.91C2665.68,3575.56 2665.81,3576.74 2665.93,3578.43C2666.05,3580.12 2666.24,3582.27 2666.48,3584.87L2667.41,3575.11C2668.89,3558.05 2670.46,3542.36 2672.12,3528.04C2673.78,3513.71 2675.6,3500.5 2677.57,3488.39L2698.08,3357.92L2727.65,3357.92L2746.87,3484.68C2749.7,3503.43 2752.07,3520.81 2753.98,3536.83C2755.89,3552.84 2757.46,3568.14 2758.69,3582.72C2759.92,3567.36 2761.31,3552.52 2762.85,3538.19C2764.39,3523.87 2766.02,3509.81 2767.74,3496.01L2770.52,3475.89L2786.96,3357.92L2823.74,3357.92L2773.29,3659.48L2743.35,3659.48L2723.21,3529.21C2723.09,3528.69 2722.78,3526.54 2722.29,3522.76C2721.8,3518.99 2721.06,3513.58 2720.07,3506.55L2716.19,3476.47C2715.94,3474.13 2715.54,3470.62 2714.99,3465.93C2714.43,3461.24 2713.85,3455.32 2713.23,3448.15L2712.31,3435.65C2712.06,3438.65 2711.82,3441.25 2711.57,3443.47C2711.32,3445.68 2711.14,3447.5 2711.02,3448.94C2710.4,3457.53 2709.88,3464.2 2709.45,3468.95C2709.01,3473.71 2708.74,3476.61 2708.61,3477.65L2704.73,3506.55C2703.87,3513.19 2703.19,3518.4 2702.7,3522.18C2702.21,3525.95 2701.84,3528.3 2701.59,3529.21L2680.71,3659.48L2649.85,3659.48L2600.51,3357.92Z" style="fill:white;fill-rule:nonzero;"/>
            <path d="M2945.94,3364.17L2945.94,3403.82C2934.23,3394.96 2923.7,3390.54 2914.34,3390.54C2904.24,3390.54 2895.98,3394.31 2889.58,3401.87C2883.17,3409.03 2879.97,3418.6 2879.97,3430.58C2879.97,3441.12 2882.25,3450.17 2886.8,3457.72C2889.14,3461.76 2892.99,3466.97 2898.35,3473.35C2903.71,3479.73 2910.64,3487.41 2919.14,3496.4C2934.79,3513.19 2945.44,3527.71 2951.11,3539.95C2956.78,3551.8 2959.61,3566.32 2959.61,3583.51C2959.61,3606.81 2953.39,3626.02 2940.95,3641.12C2928.5,3655.84 2912.55,3663.19 2893.09,3663.19C2876.7,3663.19 2862.72,3658.44 2851.14,3648.94L2851.14,3608.7C2864.82,3619.25 2877.26,3624.52 2888.47,3624.52C2898.94,3624.52 2907.13,3620.84 2913.04,3613.49C2918.96,3606.13 2921.91,3596.14 2921.91,3583.51C2921.91,3572.57 2919.64,3562.74 2915.08,3554.01C2912.74,3549.85 2909.47,3545.06 2905.28,3539.66C2901.1,3534.26 2895.86,3528.23 2889.58,3521.59C2879.84,3511.44 2871.78,3502.45 2865.37,3494.64C2858.96,3486.83 2854.22,3479.99 2851.14,3474.13C2845.23,3462.67 2842.27,3448.22 2842.27,3430.77C2842.27,3407.2 2848.06,3388.52 2859.64,3374.72C2871.34,3360.78 2887.05,3353.82 2906.76,3353.82C2920.43,3353.82 2933.49,3357.27 2945.94,3364.17Z" style="fill:white;fill-rule:nonzero;"/>
            <path d="M3048.86,3357.92L3086,3357.92L3105.41,3497.96L3108.55,3518.66C3110.03,3529.86 3111.13,3540.08 3111.87,3549.33L3113.91,3574.91C3114.03,3575.56 3114.15,3576.74 3114.28,3578.43C3114.4,3580.12 3114.58,3582.27 3114.83,3584.87L3115.75,3575.11C3117.23,3558.05 3118.8,3542.36 3120.47,3528.04C3122.13,3513.71 3123.95,3500.5 3125.92,3488.39L3146.43,3357.92L3175.99,3357.92L3195.21,3484.68C3198.05,3503.43 3200.42,3520.81 3202.33,3536.83C3204.24,3552.84 3205.81,3568.14 3207.04,3582.72C3208.27,3567.36 3209.66,3552.52 3211.2,3538.19C3212.74,3523.87 3214.37,3509.81 3216.09,3496.01L3218.86,3475.89L3235.31,3357.92L3272.08,3357.92L3221.64,3659.48L3191.7,3659.48L3171.56,3529.21C3171.43,3528.69 3171.13,3526.54 3170.64,3522.76C3170.14,3518.99 3169.4,3513.58 3168.42,3506.55L3164.54,3476.47C3164.29,3474.13 3163.89,3470.62 3163.34,3465.93C3162.78,3461.24 3162.2,3455.32 3161.58,3448.15L3160.66,3435.65C3160.41,3438.65 3160.16,3441.25 3159.92,3443.47C3159.67,3445.68 3159.49,3447.5 3159.36,3448.94C3158.75,3457.53 3158.22,3464.2 3157.79,3468.95C3157.36,3473.71 3157.08,3476.61 3156.96,3477.65L3153.08,3506.55C3152.22,3513.19 3151.54,3518.4 3151.05,3522.18C3150.56,3525.95 3150.18,3528.3 3149.94,3529.21L3129.06,3659.48L3098.2,3659.48L3048.86,3357.92Z" style="fill:white;fill-rule:nonzero;"/>
            <path d="M3294.63,3357.92L3333.06,3357.92L3333.06,3475.89L3389.42,3475.89L3389.42,3357.92L3427.86,3357.92L3427.86,3659.48L3389.42,3659.48L3389.42,3510.26L3333.06,3510.26L3333.06,3659.48L3294.63,3659.48L3294.63,3357.92Z" style="fill:white;fill-rule:nonzero;"/>
            <path d="M3512.49,3357.92L3542.42,3357.92L3603.59,3659.48L3565.52,3659.48L3554.8,3600.69L3498.26,3600.69L3487.36,3659.48L3450.4,3659.48L3512.49,3357.92ZM3549.26,3569.25L3540.76,3521.2C3535.09,3488.52 3530.47,3453.62 3526.9,3416.51C3525.18,3434.61 3522.96,3452.94 3520.25,3471.49C3517.54,3490.05 3514.34,3509.74 3510.64,3530.58L3503.62,3569.25L3549.26,3569.25Z" style="fill:white;fill-rule:nonzero;"/>
            <path d="M3596.96,3357.92L3722.06,3357.92L3722.06,3393.47L3679,3393.47L3679,3659.48L3641.31,3659.48L3641.31,3393.47L3596.96,3393.47L3596.96,3357.92Z" style="fill:white;fill-rule:nonzero;"/>
            <path d="M3821.66,3357.92L3860.09,3357.92L3860.09,3475.89L3916.45,3475.89L3916.45,3357.92L3954.89,3357.92L3954.89,3659.48L3916.45,3659.48L3916.45,3510.26L3860.09,3510.26L3860.09,3659.48L3821.66,3659.48L3821.66,3357.92Z" style="fill:white;fill-rule:nonzero;"/>
            <path d="M3998.86,3357.92L4101.05,3357.92L4101.05,3392.3L4037.3,3392.3L4037.3,3487.8L4093.84,3487.8L4093.84,3522.18L4037.3,3522.18L4037.3,3625.11L4101.05,3625.11L4101.05,3659.48L3998.86,3659.48L3998.86,3357.92Z" style="fill:white;fill-rule:nonzero;"/>
            <path d="M4177,3357.92L4206.93,3357.92L4268.1,3659.48L4230.03,3659.48L4219.31,3600.69L4162.77,3600.69L4151.87,3659.48L4114.91,3659.48L4177,3357.92ZM4213.77,3569.25L4205.27,3521.2C4199.6,3488.52 4194.98,3453.62 4191.41,3416.51C4189.69,3434.61 4187.47,3452.94 4184.76,3471.49C4182.05,3490.05 4178.85,3509.74 4175.15,3530.58L4168.13,3569.25L4213.77,3569.25Z" style="fill:white;fill-rule:nonzero;"/>
            <path d="M4290.64,3357.92L4341.27,3357.92C4362.21,3357.92 4377.8,3363.19 4388.02,3373.74C4400.96,3387.41 4407.43,3408.31 4407.43,3436.44C4407.43,3458.05 4404.01,3475.4 4397.17,3488.49C4390.33,3501.57 4380.57,3509.68 4367.88,3512.8L4420.36,3659.48L4381.37,3659.48L4329.08,3511.83L4329.08,3659.48L4290.64,3659.48L4290.64,3357.92ZM4329.08,3491.51C4343.98,3491.51 4354.52,3487.87 4360.67,3480.58C4366.83,3473.28 4369.91,3460.98 4369.91,3443.66C4369.91,3434.29 4369.27,3426.28 4367.97,3419.64C4366.68,3413 4364.65,3407.59 4361.88,3403.43C4359.1,3399.26 4355.53,3396.2 4351.16,3394.25C4346.78,3392.3 4341.58,3391.32 4335.54,3391.32L4329.08,3391.32L4329.08,3491.51Z" style="fill:white;fill-rule:nonzero;"/>
            <path d="M4431.29,3357.92L4556.39,3357.92L4556.39,3393.47L4513.33,3393.47L4513.33,3659.48L4475.64,3659.48L4475.64,3393.47L4431.29,3393.47L4431.29,3357.92Z" style="fill:white;fill-rule:nonzero;"/>
            <path d="M4655.99,3357.92L4694.42,3357.92L4694.42,3625.11L4757.25,3625.11L4757.25,3659.48L4655.99,3659.48L4655.99,3357.92Z" style="fill:white;fill-rule:nonzero;"/>
            <path d="M4784.01,3357.92L4821.7,3357.92L4821.7,3571.01C4821.7,3592.75 4823.55,3607.2 4827.24,3614.37C4831.06,3621.53 4838.58,3625.11 4849.79,3625.11C4861,3625.11 4868.39,3621.98 4871.96,3615.73C4875.66,3609.35 4877.51,3596.4 4877.51,3576.87L4877.51,3357.92L4915.2,3357.92L4915.2,3576.87C4915.2,3609.68 4910.46,3631.88 4900.98,3643.47C4889.64,3656.62 4872.33,3663.19 4849.05,3663.19C4823.43,3663.19 4805.38,3654.73 4794.91,3637.8C4787.64,3626.21 4784.01,3603.95 4784.01,3571.01L4784.01,3357.92Z" style="fill:white;fill-rule:nonzero;"/>
            <path d="M4959.18,3357.92L5009.81,3357.92C5030.76,3357.92 5046.34,3363.19 5056.56,3373.74C5069.5,3387.41 5075.97,3408.31 5075.97,3436.44C5075.97,3458.05 5072.55,3475.4 5065.71,3488.49C5058.87,3501.57 5049.11,3509.68 5036.42,3512.8L5088.9,3659.48L5049.91,3659.48L4997.62,3511.83L4997.62,3659.48L4959.18,3659.48L4959.18,3357.92ZM4997.62,3491.51C5012.52,3491.51 5023.06,3487.87 5029.22,3480.58C5035.38,3473.28 5038.45,3460.98 5038.45,3443.66C5038.45,3434.29 5037.81,3426.28 5036.52,3419.64C5035.22,3413 5033.19,3407.59 5030.42,3403.43C5027.65,3399.26 5024.07,3396.2 5019.7,3394.25C5015.33,3392.3 5010.12,3391.32 5004.09,3391.32L4997.62,3391.32L4997.62,3491.51Z" style="fill:white;fill-rule:nonzero;"/>
            <path d="M5118.65,3357.92L5157.09,3357.92L5157.09,3504.01L5210.68,3357.92L5249.48,3357.92L5193.31,3504.01L5253.91,3659.48L5210.68,3659.48L5157.09,3504.01L5157.09,3659.48L5118.65,3659.48L5118.65,3357.92Z" style="fill:white;fill-rule:nonzero;"/>
            <path d="M5376.23,3364.17L5376.23,3403.82C5364.52,3394.96 5353.99,3390.54 5344.63,3390.54C5334.53,3390.54 5326.27,3394.31 5319.87,3401.87C5313.46,3409.03 5310.26,3418.6 5310.26,3430.58C5310.26,3441.12 5312.54,3450.17 5317.1,3457.72C5319.44,3461.76 5323.28,3466.97 5328.64,3473.35C5334,3479.73 5340.93,3487.41 5349.43,3496.4C5365.08,3513.19 5375.73,3527.71 5381.4,3539.95C5387.07,3551.8 5389.9,3566.32 5389.9,3583.51C5389.9,3606.81 5383.68,3626.02 5371.24,3641.12C5358.79,3655.84 5342.84,3663.19 5323.38,3663.19C5306.99,3663.19 5293.01,3658.44 5281.43,3648.94L5281.43,3608.7C5295.11,3619.25 5307.55,3624.52 5318.76,3624.52C5329.23,3624.52 5337.42,3620.84 5343.33,3613.49C5349.25,3606.13 5352.2,3596.14 5352.2,3583.51C5352.2,3572.57 5349.93,3562.74 5345.37,3554.01C5343.03,3549.85 5339.76,3545.06 5335.57,3539.66C5331.39,3534.26 5326.15,3528.23 5319.87,3521.59C5310.13,3511.44 5302.07,3502.45 5295.66,3494.64C5289.25,3486.83 5284.51,3479.99 5281.43,3474.13C5275.52,3462.67 5272.56,3448.22 5272.56,3430.77C5272.56,3407.2 5278.35,3388.52 5289.93,3374.72C5301.63,3360.78 5317.34,3353.82 5337.05,3353.82C5350.73,3353.82 5363.78,3357.27 5376.23,3364.17Z" style="fill:white;fill-rule:nonzero;"/>
            <rect x="5500.59" y="3357.92" width="38.435" height="301.563" style="fill:white;fill-rule:nonzero;"/>
            <path d="M5583,3357.92L5618.85,3357.92L5657.1,3478.23C5668.19,3512.22 5677.98,3548.48 5686.48,3587.02C5683.4,3563.71 5681.12,3542.62 5679.64,3523.74C5678.16,3504.86 5677.43,3487.09 5677.43,3470.42L5677.43,3357.92L5716.05,3357.92L5716.05,3659.48L5680.01,3659.48L5636.96,3523.74C5633.02,3511.11 5629.29,3498.15 5625.78,3484.87C5622.27,3471.59 5619.03,3457.66 5616.08,3443.08C5615.83,3441.25 5615.43,3439.04 5614.88,3436.44C5614.32,3433.83 5613.68,3430.84 5612.94,3427.45C5613.31,3430.84 5613.61,3433.73 5613.86,3436.14C5614.11,3438.55 5614.29,3440.6 5614.41,3442.3L5616.45,3472.96L5618.48,3510.26C5618.6,3512.35 5618.69,3514.89 5618.76,3517.88C5618.82,3520.88 5618.85,3524.26 5618.85,3528.04L5620.88,3659.48L5583,3659.48L5583,3357.92Z" style="fill:white;fill-rule:nonzero;"/>
            <path d="M5815.65,3357.92L5940.74,3357.92L5940.74,3393.47L5897.69,3393.47L5897.69,3659.48L5859.99,3659.48L5859.99,3393.47L5815.65,3393.47L5815.65,3357.92Z" style="fill:white;fill-rule:nonzero;"/>
            <path d="M5961.99,3357.92L6000.43,3357.92L6000.43,3475.89L6056.79,3475.89L6056.79,3357.92L6095.23,3357.92L6095.23,3659.48L6056.79,3659.48L6056.79,3510.26L6000.43,3510.26L6000.43,3659.48L5961.99,3659.48L5961.99,3357.92Z" style="fill:white;fill-rule:nonzero;"/>
            <path d="M6139.2,3357.92L6241.39,3357.92L6241.39,3392.3L6177.64,3392.3L6177.64,3487.8L6234.18,3487.8L6234.18,3522.18L6177.64,3522.18L6177.64,3625.11L6241.39,3625.11L6241.39,3659.48L6139.2,3659.48L6139.2,3357.92Z" style="fill:white;fill-rule:nonzero;"/>
            <path d="M6467.01,3362.8L6467.01,3399.33C6457.16,3394.25 6448.9,3391.71 6442.25,3391.71C6433.14,3391.71 6425.31,3394.09 6418.78,3398.84C6412.26,3403.59 6406.87,3410.91 6402.62,3420.81C6398.37,3430.71 6395.22,3443.24 6393.19,3458.41C6391.16,3473.58 6390.14,3491.51 6390.14,3512.22C6390.14,3586.7 6408.19,3623.94 6444.28,3623.94C6450.57,3623.94 6458.14,3621.85 6467.01,3617.69L6467.01,3654.99C6457.77,3660.46 6447.43,3663.19 6435.97,3663.19C6378.19,3663.19 6349.31,3613.32 6349.31,3513.58C6349.31,3459.68 6356.36,3419.57 6370.46,3393.27C6384.57,3366.97 6406.16,3353.82 6435.23,3353.82C6445.95,3353.82 6456.54,3356.81 6467.01,3362.8Z" style="fill:white;fill-rule:nonzero;"/>
            <path d="M6499.35,3357.92L6537.79,3357.92L6537.79,3475.89L6594.15,3475.89L6594.15,3357.92L6632.58,3357.92L6632.58,3659.48L6594.15,3659.48L6594.15,3510.26L6537.79,3510.26L6537.79,3659.48L6499.35,3659.48L6499.35,3357.92Z" style="fill:white;fill-rule:nonzero;"/>
            <path d="M6676.56,3357.92L6778.75,3357.92L6778.75,3392.3L6714.99,3392.3L6714.99,3487.8L6771.54,3487.8L6771.54,3522.18L6714.99,3522.18L6714.99,3625.11L6778.75,3625.11L6778.75,3659.48L6676.56,3659.48L6676.56,3357.92Z" style="fill:white;fill-rule:nonzero;"/>
            <path d="M6909.2,3364.17L6909.2,3403.82C6897.5,3394.96 6886.97,3390.54 6877.61,3390.54C6867.51,3390.54 6859.25,3394.31 6852.85,3401.87C6846.44,3409.03 6843.24,3418.6 6843.24,3430.58C6843.24,3441.12 6845.52,3450.17 6850.07,3457.72C6852.41,3461.76 6856.26,3466.97 6861.62,3473.35C6866.98,3479.73 6873.91,3487.41 6882.41,3496.4C6898.06,3513.19 6908.71,3527.71 6914.38,3539.95C6920.05,3551.8 6922.88,3566.32 6922.88,3583.51C6922.88,3606.81 6916.66,3626.02 6904.22,3641.12C6891.77,3655.84 6875.82,3663.19 6856.36,3663.19C6839.97,3663.19 6825.99,3658.44 6814.41,3648.94L6814.41,3608.7C6828.08,3619.25 6840.53,3624.52 6851.74,3624.52C6862.21,3624.52 6870.4,3620.84 6876.31,3613.49C6882.23,3606.13 6885.18,3596.14 6885.18,3583.51C6885.18,3572.57 6882.9,3562.74 6878.35,3554.01C6876.01,3549.85 6872.74,3545.06 6868.55,3539.66C6864.36,3534.26 6859.13,3528.23 6852.85,3521.59C6843.11,3511.44 6835.04,3502.45 6828.64,3494.64C6822.23,3486.83 6817.49,3479.99 6814.41,3474.13C6808.5,3462.67 6805.54,3448.22 6805.54,3430.77C6805.54,3407.2 6811.33,3388.52 6822.91,3374.72C6834.61,3360.78 6850.32,3353.82 6870.03,3353.82C6883.7,3353.82 6896.76,3357.27 6909.2,3364.17Z" style="fill:white;fill-rule:nonzero;"/>
            <path d="M6937.37,3357.92L7062.47,3357.92L7062.47,3393.47L7019.41,3393.47L7019.41,3659.48L6981.72,3659.48L6981.72,3393.47L6937.37,3393.47L6937.37,3357.92Z" style="fill:white;fill-rule:nonzero;"/>
            <path d="M7187.28,3364.17L7187.28,3403.82C7175.58,3394.96 7165.05,3390.54 7155.69,3390.54C7145.58,3390.54 7137.33,3394.31 7130.92,3401.87C7124.52,3409.03 7121.32,3418.6 7121.32,3430.58C7121.32,3441.12 7123.59,3450.17 7128.15,3457.72C7130.49,3461.76 7134.34,3466.97 7139.7,3473.35C7145.06,3479.73 7151.99,3487.41 7160.49,3496.4C7176.13,3513.19 7186.79,3527.71 7192.46,3539.95C7198.12,3551.8 7200.96,3566.32 7200.96,3583.51C7200.96,3606.81 7194.74,3626.02 7182.29,3641.12C7169.85,3655.84 7153.9,3663.19 7134.43,3663.19C7118.05,3663.19 7104.07,3658.44 7092.49,3648.94L7092.49,3608.7C7106.16,3619.25 7118.6,3624.52 7129.82,3624.52C7140.29,3624.52 7148.48,3620.84 7154.39,3613.49C7160.3,3606.13 7163.26,3596.14 7163.26,3583.51C7163.26,3572.57 7160.98,3562.74 7156.42,3554.01C7154.08,3549.85 7150.82,3545.06 7146.63,3539.66C7142.44,3534.26 7137.21,3528.23 7130.92,3521.59C7121.19,3511.44 7113.12,3502.45 7106.72,3494.64C7100.31,3486.83 7095.57,3479.99 7092.49,3474.13C7086.57,3462.67 7083.62,3448.22 7083.62,3430.77C7083.62,3407.2 7089.41,3388.52 7100.99,3374.72C7112.69,3360.78 7128.4,3353.82 7148.11,3353.82C7161.78,3353.82 7174.84,3357.27 7187.28,3364.17Z" style="fill:white;fill-rule:nonzero;"/>
            <path d="M7454.48,3516.12C7454.48,3569.38 7448.88,3607.2 7437.67,3629.6C7426.46,3652 7407.67,3663.19 7381.31,3663.19C7353.59,3663.19 7334.06,3651.15 7322.73,3627.06C7311.52,3603.49 7305.91,3561.63 7305.91,3501.47C7305.91,3447.83 7311.46,3409.87 7322.55,3387.61C7333.76,3365.21 7352.73,3354.01 7379.46,3354.01C7403.36,3354.01 7421.1,3362.67 7432.68,3379.99C7440.32,3391.58 7445.86,3408.05 7449.31,3429.4C7452.76,3449.2 7454.48,3478.1 7454.48,3516.12ZM7414.2,3520.42C7414.2,3468.21 7411.98,3433.57 7407.55,3416.51C7403.11,3399.33 7394.06,3390.73 7380.38,3390.73C7366.71,3390.73 7357.59,3398.61 7353.03,3414.37C7348.6,3430.25 7346.38,3462.15 7346.38,3510.07C7346.38,3554.21 7348.72,3584.81 7353.4,3601.87C7358.21,3618.01 7367.2,3626.08 7380.38,3626.08C7393.32,3626.08 7402.19,3618.53 7406.99,3603.43C7411.8,3588.45 7414.2,3560.78 7414.2,3520.42Z" style="fill:white;fill-rule:nonzero;"/>
            <path d="M7492.55,3357.92L7595.29,3357.92L7595.29,3392.3L7530.98,3392.3L7530.98,3487.61L7589.01,3487.61L7589.01,3521.98L7530.98,3521.98L7530.98,3659.48L7492.55,3659.48L7492.55,3357.92Z" style="fill:white;fill-rule:nonzero;"/>
            <path d="M7716.69,3357.92L7749.59,3357.92L7774.72,3480.97C7777.8,3496.33 7780.6,3511.73 7783.12,3527.16C7785.65,3542.59 7787.96,3558.77 7790.05,3575.69C7790.3,3573.48 7790.48,3571.76 7790.61,3570.52C7790.73,3569.28 7790.85,3568.4 7790.98,3567.88L7796.34,3533.31L7801.14,3500.5L7805.39,3478.82L7827.75,3357.92L7861.01,3357.92L7887.25,3659.48L7850.48,3659.48L7844.01,3557.14C7843.76,3551.93 7843.55,3547.44 7843.36,3543.66C7843.18,3539.89 7843.09,3536.76 7843.09,3534.29L7841.42,3493.86L7840.5,3456.75C7840.5,3456.49 7840.47,3455.93 7840.41,3455.09C7840.35,3454.24 7840.25,3453.1 7840.13,3451.67L7839.2,3457.72C7838.22,3464.89 7837.33,3471.14 7836.53,3476.47C7835.73,3481.81 7835.02,3486.31 7834.4,3489.95L7829.6,3517.49L7827.75,3527.84L7803.73,3659.48L7777.86,3659.48L7755.31,3545.81C7752.23,3530.84 7749.49,3515.64 7747.09,3500.2C7744.69,3484.78 7742.5,3468.6 7740.53,3451.67L7729.44,3659.48L7693.23,3659.48L7716.69,3357.92Z" style="fill:white;fill-rule:nonzero;"/>
            <path d="M7919.03,3357.92L8021.22,3357.92L8021.22,3392.3L7957.47,3392.3L7957.47,3487.8L8014.01,3487.8L8014.01,3522.18L7957.47,3522.18L7957.47,3625.11L8021.22,3625.11L8021.22,3659.48L7919.03,3659.48L7919.03,3357.92Z" style="fill:white;fill-rule:nonzero;"/>
            <path d="M8056.51,3357.92L8092.36,3357.92L8130.61,3478.23C8141.7,3512.22 8151.49,3548.48 8159.99,3587.02C8156.91,3563.71 8154.63,3542.62 8153.16,3523.74C8151.68,3504.86 8150.94,3487.09 8150.94,3470.42L8150.94,3357.92L8189.56,3357.92L8189.56,3659.48L8153.53,3659.48L8110.47,3523.74C8106.53,3511.11 8102.8,3498.15 8099.29,3484.87C8095.78,3471.59 8092.55,3457.66 8089.59,3443.08C8089.34,3441.25 8088.94,3439.04 8088.39,3436.44C8087.83,3433.83 8087.19,3430.84 8086.45,3427.45C8086.82,3430.84 8087.13,3433.73 8087.37,3436.14C8087.62,3438.55 8087.8,3440.6 8087.93,3442.3L8089.96,3472.96L8091.99,3510.26C8092.11,3512.35 8092.21,3514.89 8092.27,3517.88C8092.33,3520.88 8092.36,3524.26 8092.36,3528.04L8094.39,3659.48L8056.51,3659.48L8056.51,3357.92Z" style="fill:white;fill-rule:nonzero;"/>
        </g>
        <g transform="matrix(-1,0,0,1,165.535,0)">
            <path d="M63.249,-56.759L63.249,5869.79L73.488,5400L102.286,0L63.249,-56.759Z" style="fill:rgb(249,55,44);"/>
        </g>
        <g transform="matrix(1,0,0,1,-17.1984,-14.1637)">
            <path d="M1882.75,1162.93L1934.58,1121.52C1934.58,1121.52 1864,1114.15 1815.25,1060.49C1815.25,1060.49 1875.07,1057.18 1930.49,986.317C1985.91,915.454 1834.57,991.461 1704.57,957.395C1704.57,957.395 1829.32,928.086 1841.51,914.338C1853.7,900.589 1605.37,866.848 1565.68,842.874C1526,818.899 1710.53,848.775 1723.75,828.671L1615.24,767.051C1615.24,767.051 1762.73,797.836 1759.95,825.838C1759.95,825.838 1721.8,855.557 1682.61,855.287L1878,911.97C1878,911.97 1823.26,946.625 1805.76,949.716C1805.76,949.716 1948.19,903.293 1980.06,932.793C1980.06,932.793 1917.78,1064.75 1857.79,1064.67C1797.8,1064.59 1941.57,1117.48 1955.75,1122.69C1955.75,1122.69 1883.18,1166.69 1876.53,1193.32C1869.88,1219.94 1865.11,1171.56 1882.75,1162.93Z" style="fill:white;"/>
        </g>
        <g transform="matrix(0.934281,0.109364,-0.117976,1.00785,266.367,-237.153)">
            <g transform="matrix(0.836061,0,0,1.27434,381.207,-169.547)">
                <path d="M2104.91,727.073C2104.91,727.073 2451.54,831.966 3050.28,600.627C3050.28,600.627 3002.99,592.803 2782.27,562.73C2559.73,532.407 2024.94,671.345 2104.91,727.073Z" style="fill:rgb(214,219,217);"/>
            </g>
            <g transform="matrix(1.30668,0,0,1.15917,-774.174,-85.282)">
                <path d="M2333.1,667.414L2350.66,443.786C2350.66,443.786 2382.23,412.779 2435.11,442.836C2435.11,442.836 2444.86,408.338 2498,396.962C2551.14,385.586 2637.54,373.429 2642.1,421.873L2711.87,591.286C2711.87,591.286 2646.88,696.927 2333.1,667.414Z" style="fill:rgb(214,219,217);"/>
            </g>
            <g transform="matrix(1.30668,0,0,1.15917,-774.174,-85.282)">
                <path d="M2694.51,549.141L2711.87,591.286C2711.87,591.286 2646.88,696.927 2333.1,667.414L2337.33,613.587C2574.83,634.035 2665.88,575.848 2694.51,549.141Z" style="fill:rgb(51,34,33);"/>
            </g>
        </g>
    </g>
</svg>
