<?xml version="1.0" encoding="UTF-8" standalone="no"?><!DOCTYPE svg PUBLIC "-//W3C//DTD SVG 1.1//EN" "http://www.w3.org/Graphics/SVG/1.1/DTD/svg11.dtd"><svg width="100%" height="100%" viewBox="0 0 190 100" version="1.1" xmlns="http://www.w3.org/2000/svg" xmlns:xlink="http://www.w3.org/1999/xlink" xml:space="preserve" xmlns:serif="http://www.serif.com/" style="fill-rule:evenodd;clip-rule:evenodd;stroke-linejoin:round;stroke-miterlimit:2;"><g id="Dark"><g><path d="M51.771,69.089c0.602,-0 1.028,0.122 1.278,0.366c0.249,0.244 0.374,0.651 0.374,1.221l-0,5.615c-0,0.57 -0.125,0.977 -0.374,1.221c-0.25,0.244 -0.676,0.366 -1.278,0.366c-0.558,0 -0.94,-0.212 -1.145,-0.635c-0.705,-1.481 -1.697,-2.608 -2.974,-3.381c-1.278,-0.773 -2.731,-1.16 -4.361,-1.16c-1.616,0 -2.868,0.415 -3.756,1.245c-0.888,0.83 -1.333,1.945 -1.333,3.345c0,0.667 0.155,1.229 0.463,1.685c0.308,0.455 0.749,0.846 1.322,1.172c0.514,0.292 1.116,0.533 1.806,0.72c0.69,0.187 1.615,0.403 2.775,0.647c1.263,0.276 2.265,0.508 3.007,0.696c0.741,0.187 1.472,0.443 2.192,0.769c1.468,0.667 2.617,1.599 3.447,2.795c0.829,1.196 1.244,2.812 1.244,4.846c0,1.693 -0.36,3.178 -1.079,4.456c-0.72,1.277 -1.781,2.274 -3.183,2.99c-1.402,0.717 -3.087,1.075 -5.055,1.075c-1.469,-0 -2.831,-0.297 -4.086,-0.891c-1.256,-0.595 -2.346,-1.461 -3.271,-2.601l-0,1.905c-0,0.569 -0.125,0.976 -0.375,1.22c-0.249,0.245 -0.675,0.367 -1.277,0.367c-0.602,-0 -1.028,-0.122 -1.278,-0.367c-0.249,-0.244 -0.374,-0.651 -0.374,-1.22l-0,-7.324c-0,-0.57 0.125,-0.977 0.374,-1.221c0.25,-0.244 0.676,-0.366 1.278,-0.366c0.631,-0 1.057,0.341 1.277,1.025c0.603,1.888 1.561,3.337 2.875,4.346c1.314,1.009 2.933,1.513 4.857,1.513c1.879,0 3.322,-0.447 4.328,-1.342c1.006,-0.896 1.509,-2.084 1.509,-3.565c-0,-1.025 -0.231,-1.859 -0.694,-2.502c-0.462,-0.643 -1.134,-1.176 -2.015,-1.599c-0.558,-0.277 -1.168,-0.501 -1.829,-0.672c-0.66,-0.171 -1.563,-0.386 -2.709,-0.647c-1.204,-0.26 -2.214,-0.504 -3.029,-0.732c-0.815,-0.228 -1.567,-0.513 -2.257,-0.855c-1.175,-0.586 -2.089,-1.379 -2.743,-2.38c-0.653,-1.001 -0.98,-2.315 -0.98,-3.943c0,-1.676 0.364,-3.133 1.091,-4.37c0.726,-1.237 1.74,-2.185 3.039,-2.844c1.3,-0.659 2.779,-0.989 4.439,-0.989c1.292,-0 2.54,0.277 3.744,0.83c1.204,0.553 2.232,1.302 3.084,2.246l-0,-1.489c-0,-0.57 0.125,-0.977 0.374,-1.221c0.25,-0.244 0.676,-0.366 1.278,-0.366Z" style="fill:#547a00;fill-rule:nonzero;stroke:#000;stroke-width:0.42px;"/><path d="M69.967,75.51c2.129,-0 3.946,0.476 5.452,1.428c1.505,0.952 2.661,2.271 3.469,3.955c0.807,1.685 1.27,3.626 1.387,5.823c0,0.553 -0.106,0.944 -0.319,1.172c-0.213,0.228 -0.569,0.342 -1.068,0.342l-15.948,-0c0.103,2.425 0.753,4.26 1.95,5.505c1.196,1.245 2.889,1.868 5.077,1.868c1.351,-0 2.687,-0.192 4.009,-0.574c1.321,-0.383 2.481,-0.891 3.48,-1.526c0.25,-0.146 0.477,-0.22 0.683,-0.22c0.514,0 0.932,0.432 1.255,1.294c0.133,0.342 0.199,0.651 0.199,0.928c-0,0.651 -0.323,1.156 -0.97,1.514c-1.13,0.634 -2.467,1.147 -4.008,1.538c-1.542,0.39 -3.092,0.586 -4.648,0.586c-2.217,-0 -4.112,-0.472 -5.683,-1.416c-1.571,-0.944 -2.768,-2.303 -3.59,-4.078c-0.823,-1.774 -1.234,-3.881 -1.234,-6.323c0,-2.327 0.448,-4.386 1.344,-6.177c0.895,-1.79 2.136,-3.177 3.722,-4.162c1.586,-0.985 3.4,-1.477 5.441,-1.477Zm-0,3.54c-1.806,-0 -3.3,0.509 -4.483,1.526c-1.182,1.017 -1.956,2.429 -2.323,4.236l13.458,-0c-0.308,-1.872 -1.017,-3.3 -2.126,-4.285c-1.108,-0.985 -2.617,-1.477 -4.526,-1.477Z" style="fill:#547a00;fill-rule:nonzero;stroke:#000;stroke-width:0.42px;"/><path d="M95.101,75.51c2.761,-0 4.831,0.683 6.212,2.051c1.38,1.367 2.07,3.393 2.07,6.079l0,9.717c0,1.285 0.485,1.928 1.454,1.928l0.771,0c0.499,0 0.855,0.126 1.068,0.379c0.213,0.252 0.32,0.679 0.32,1.281c-0,0.603 -0.107,1.03 -0.32,1.282c-0.213,0.252 -0.569,0.379 -1.068,0.379l-1.41,-0c-0.954,-0 -1.773,-0.265 -2.456,-0.794c-0.682,-0.529 -1.127,-1.306 -1.332,-2.331c-1.204,1.171 -2.508,2.075 -3.91,2.71c-1.402,0.634 -2.889,0.952 -4.46,0.952c-1.484,-0 -2.794,-0.281 -3.932,-0.843c-1.138,-0.561 -2.03,-1.379 -2.677,-2.453c-0.646,-1.074 -0.969,-2.352 -0.969,-3.833c0,-2.572 0.83,-4.472 2.489,-5.701c1.66,-1.229 3.804,-1.843 6.432,-1.843c2.335,-0 4.567,0.415 6.696,1.245l0,-2.075c0,-1.579 -0.4,-2.739 -1.2,-3.479c-0.8,-0.741 -2.089,-1.111 -3.866,-1.111c-1.101,-0 -2.247,0.171 -3.436,0.513c-1.189,0.341 -2.32,0.813 -3.392,1.416c-0.25,0.146 -0.477,0.219 -0.683,0.219c-0.485,0 -0.888,-0.39 -1.211,-1.172c-0.162,-0.39 -0.243,-0.716 -0.243,-0.976c0,-0.57 0.272,-1.009 0.815,-1.318c1.234,-0.717 2.559,-1.266 3.976,-1.648c1.417,-0.383 2.838,-0.574 4.262,-0.574Zm-1.696,12.402c-1.689,0 -3.021,0.322 -3.998,0.965c-0.976,0.642 -1.464,1.664 -1.464,3.064c-0,1.188 0.37,2.111 1.112,2.771c0.741,0.659 1.78,0.988 3.117,0.988c2.922,0 5.558,-1.342 7.907,-4.028l0,-2.661c-0.998,-0.358 -2.07,-0.631 -3.216,-0.818c-1.145,-0.187 -2.298,-0.281 -3.458,-0.281Z" style="fill:#547a00;fill-rule:nonzero;stroke:#000;stroke-width:0.42px;"/><path d="M126.998,75.51c1.145,-0 2.217,0.325 3.216,0.976c0.587,0.391 0.881,0.896 0.881,1.514c-0,0.293 -0.066,0.635 -0.198,1.025c-0.309,0.928 -0.735,1.392 -1.278,1.392c-0.22,0 -0.426,-0.065 -0.617,-0.195c-0.719,-0.44 -1.49,-0.659 -2.312,-0.659c-1.322,-0 -2.651,0.508 -3.987,1.525c-1.337,1.018 -2.434,2.373 -3.293,4.065c-0.859,1.693 -1.289,3.492 -1.289,5.396l0,4.736l7.423,0c0.499,0 0.855,0.126 1.068,0.379c0.213,0.252 0.32,0.679 0.32,1.281c-0,0.603 -0.107,1.03 -0.32,1.282c-0.213,0.252 -0.569,0.379 -1.068,0.379l-14.185,-0c-0.499,-0 -0.856,-0.127 -1.068,-0.379c-0.213,-0.252 -0.32,-0.679 -0.32,-1.282c0,-0.602 0.107,-1.029 0.32,-1.281c0.212,-0.253 0.569,-0.379 1.068,-0.379l3.458,0l0,-15.918l-2.797,0c-0.5,0 -0.856,-0.126 -1.069,-0.378c-0.213,-0.252 -0.319,-0.68 -0.319,-1.282c-0,-0.602 0.106,-1.029 0.319,-1.282c0.213,-0.252 0.569,-0.378 1.069,-0.378l4.493,-0c0.499,-0 0.855,0.126 1.068,0.378c0.213,0.253 0.32,0.68 0.32,1.282l-0,4.932c0.705,-1.433 1.556,-2.686 2.555,-3.76c0.998,-1.074 2.063,-1.904 3.194,-2.49c1.131,-0.586 2.247,-0.879 3.348,-0.879Z" style="fill:#547a00;fill-rule:nonzero;stroke:#000;stroke-width:0.42px;"/><path d="M153.432,75.51c0.602,-0 1.028,0.122 1.277,0.366c0.25,0.244 0.375,0.651 0.375,1.221l-0,7.08c-0,0.57 -0.125,0.976 -0.375,1.221c-0.249,0.244 -0.675,0.366 -1.277,0.366c-0.602,-0 -1.028,-0.122 -1.278,-0.366c-0.249,-0.245 -0.374,-0.651 -0.374,-1.221c-0,-0.993 -0.235,-1.872 -0.705,-2.637c-0.47,-0.765 -1.171,-1.359 -2.104,-1.782c-0.932,-0.423 -2.052,-0.635 -3.359,-0.635c-1.409,0 -2.672,0.35 -3.788,1.05c-1.116,0.7 -1.99,1.676 -2.621,2.93c-0.632,1.253 -0.948,2.661 -0.948,4.223c0,1.579 0.298,2.991 0.892,4.236c0.595,1.245 1.432,2.218 2.511,2.918c1.08,0.699 2.324,1.049 3.734,1.049c1.351,0 2.662,-0.232 3.932,-0.695c1.27,-0.464 2.426,-1.136 3.469,-2.015c0.308,-0.26 0.595,-0.39 0.859,-0.39c0.426,-0 0.822,0.333 1.19,1.001c0.22,0.407 0.33,0.797 0.33,1.172c-0,0.569 -0.235,1.041 -0.705,1.416c-1.175,0.976 -2.562,1.741 -4.163,2.295c-1.601,0.553 -3.238,0.83 -4.912,0.83c-2.1,-0 -3.954,-0.513 -5.562,-1.538c-1.608,-1.026 -2.852,-2.434 -3.733,-4.224c-0.881,-1.79 -1.322,-3.809 -1.322,-6.055c0,-2.246 0.448,-4.264 1.344,-6.054c0.896,-1.791 2.147,-3.199 3.755,-4.224c1.608,-1.025 3.448,-1.538 5.518,-1.538c1.307,-0 2.507,0.264 3.601,0.793c1.094,0.529 2.023,1.282 2.787,2.259l-0,-1.465c-0,-0.57 0.125,-0.977 0.374,-1.221c0.25,-0.244 0.676,-0.366 1.278,-0.366Z" style="fill:#547a00;fill-rule:nonzero;stroke:#000;stroke-width:0.42px;"/><path d="M164.249,66.574c0.499,0 0.855,0.126 1.068,0.379c0.213,0.252 0.319,0.679 0.319,1.281l0,12.159c0.955,-1.579 2.06,-2.788 3.316,-3.626c1.255,-0.838 2.61,-1.257 4.063,-1.257c1.337,-0 2.497,0.321 3.481,0.964c0.984,0.643 1.74,1.567 2.268,2.771c0.529,1.205 0.793,2.613 0.793,4.224l0,11.816l1.807,0c0.499,0 0.855,0.126 1.068,0.379c0.213,0.252 0.319,0.679 0.319,1.281c0,0.603 -0.106,1.03 -0.319,1.282c-0.213,0.252 -0.569,0.379 -1.068,0.379l-7.137,-0c-0.499,-0 -0.855,-0.127 -1.068,-0.379c-0.213,-0.252 -0.32,-0.679 -0.32,-1.282c0,-0.602 0.107,-1.029 0.32,-1.281c0.213,-0.253 0.569,-0.379 1.068,-0.379l2.026,0l0,-11.45c0,-1.449 -0.301,-2.596 -0.903,-3.442c-0.602,-0.847 -1.49,-1.27 -2.665,-1.27c-1.248,0 -2.412,0.399 -3.491,1.196c-1.08,0.798 -1.942,1.897 -2.588,3.296c-0.646,1.4 -0.97,2.963 -0.97,4.688l0,6.982l2.027,0c0.499,0 0.855,0.126 1.068,0.379c0.213,0.252 0.32,0.679 0.32,1.281c-0,0.603 -0.107,1.03 -0.32,1.282c-0.213,0.252 -0.569,0.379 -1.068,0.379l-7.137,-0c-0.499,-0 -0.855,-0.127 -1.068,-0.379c-0.213,-0.252 -0.319,-0.679 -0.319,-1.282c-0,-0.602 0.106,-1.029 0.319,-1.281c0.213,-0.253 0.569,-0.379 1.068,-0.379l1.806,0l0,-25.39l-2.026,-0c-0.499,-0 -0.855,-0.127 -1.068,-0.379c-0.213,-0.252 -0.32,-0.679 -0.32,-1.282c0,-0.602 0.107,-1.029 0.32,-1.281c0.213,-0.253 0.569,-0.379 1.068,-0.379l3.943,0Z" style="fill:#547a00;fill-rule:nonzero;stroke:#000;stroke-width:0.42px;"/><path d="M17.118,65.698c-7.077,0 -12.065,-2.08 -14.962,-6.24c-2.232,-3.24 -2.731,-6.74 -1.496,-10.5c1.235,-3.76 3.562,-6.38 6.982,-7.86c1.615,-0.68 3.372,-1.02 5.272,-1.02c5.035,0 8.479,1.64 10.331,4.92c0.808,1.44 1.212,2.82 1.212,4.14c-0,1.32 -0.285,2.58 -0.855,3.78c-1.235,2.76 -3.254,4.14 -6.057,4.14c-0.854,0 -1.472,-0.28 -1.852,-0.84l-0.142,-0.3c2.042,0 3.633,-1.22 4.773,-3.66c0.57,-1.2 0.855,-2.41 0.855,-3.63c0,-1.22 -0.309,-2.47 -0.926,-3.75c-1.188,-2.44 -3.681,-3.66 -7.481,-3.66c-3.8,0 -6.816,1.56 -9.049,4.68c-1.472,2.08 -2.208,4.28 -2.208,6.6c-0,0.96 0.118,1.96 0.356,3c0.997,3.76 3.562,6.32 7.695,7.68c1.852,0.6 4.156,0.9 6.911,0.9c2.755,0 5.331,-0.53 7.73,-1.59c2.399,-1.06 4.346,-2.53 5.842,-4.41c1.497,-1.88 2.767,-3.96 3.812,-6.24c1.045,-2.28 1.912,-4.84 2.601,-7.68c0.688,-2.84 1.27,-5.52 1.745,-8.04c1.33,-7.16 2.542,-12.1 3.634,-14.82c-4.417,-0.28 -6.721,-0.42 -6.911,-0.42c-6.745,0 -11.471,1.86 -14.178,5.58c-1.235,1.68 -1.853,3.4 -1.853,5.16c0,0.84 0.143,1.68 0.428,2.52c0.855,2.4 2.422,3.6 4.702,3.6c0,0.32 -0.19,0.62 -0.57,0.9c-0.38,0.28 -0.855,0.42 -1.425,0.42c-2.707,0 -4.631,-1.18 -5.771,-3.54c-0.522,-1.16 -0.784,-2.42 -0.784,-3.78c0,-1.36 0.475,-2.88 1.425,-4.56c2.09,-3.8 5.914,-6.22 11.471,-7.26c1.758,-0.32 3.361,-0.48 4.809,-0.48c1.449,0 4.525,0.18 9.227,0.54c2.137,-4.56 5.201,-6.84 9.191,-6.84c0.332,0 0.629,0.09 0.891,0.27c0.261,0.18 0.463,0.43 0.605,0.75c-3.467,0 -5.937,2 -7.41,6l1.425,0c4.893,0 8.313,-1.3 10.26,-3.9c0.76,-1 1.14,-1.86 1.14,-2.58c-0,-1.88 -0.784,-2.82 -2.351,-2.82c0.285,-0.72 0.831,-1.08 1.638,-1.08c1.378,0 2.304,0.72 2.779,2.16c0.143,0.52 0.214,1.02 0.214,1.5c-0,1.44 -0.665,2.86 -1.995,4.26c-2.517,2.56 -6.436,3.84 -11.756,3.84l-1.781,0c-0.855,2.8 -1.496,6.21 -1.924,10.23c-0.427,4.02 -0.89,7.34 -1.389,9.96c-0.499,2.62 -1.069,5.03 -1.71,7.23c-0.641,2.2 -1.591,4.36 -2.85,6.48c-1.259,2.12 -2.743,3.91 -4.453,5.37c-1.71,1.46 -3.919,2.64 -6.626,3.54c-2.707,0.9 -5.771,1.35 -9.191,1.35Z" style="fill-rule:nonzero;"/><path d="M66.635,21.298c1.71,-3.76 2.565,-6.32 2.565,-7.68c0,-1.36 -0.404,-2.08 -1.211,-2.16c-2.233,0 -4.548,3.01 -6.947,9.03c-2.398,6.02 -4.275,12.26 -5.628,18.72c-1.354,6.46 -2.031,11.03 -2.031,13.71c0,4.52 1.33,6.78 3.99,6.78c-0,0.28 -0.214,0.56 -0.641,0.84c-0.428,0.28 -0.926,0.42 -1.496,0.42c-3.895,0 -5.843,-2.94 -5.843,-8.82c0,-2.16 0.475,-5.47 1.425,-9.93c0.95,-4.46 2.185,-9.13 3.705,-14.01c1.52,-4.88 3.491,-9.13 5.914,-12.75c2.422,-3.62 4.892,-5.43 7.409,-5.43c1.995,0 2.993,1.06 2.993,3.18c-0,1.6 -0.594,3.84 -1.781,6.72c-2.28,5.6 -5.558,11.2 -9.833,16.8c-1.14,1.48 -2.161,2.68 -3.063,3.6c-0.238,0.24 -0.356,0.16 -0.356,-0.24c-0.048,-0.76 0.166,-1.42 0.641,-1.98c3.895,-4.92 7.291,-10.52 10.188,-16.8Z" style="fill-rule:nonzero;"/><path d="M83.521,21.298c1.71,-3.76 2.565,-6.32 2.565,-7.68c-0,-1.36 -0.404,-2.08 -1.211,-2.16c-2.233,0 -4.548,3.01 -6.947,9.03c-2.399,6.02 -4.275,12.26 -5.629,18.72c-1.353,6.46 -2.03,11.03 -2.03,13.71c-0,4.52 1.33,6.78 3.99,6.78c-0,0.28 -0.214,0.56 -0.642,0.84c-0.427,0.28 -0.926,0.42 -1.496,0.42c-3.895,0 -5.842,-2.94 -5.842,-8.82c-0,-2.16 0.475,-5.47 1.425,-9.93c0.95,-4.46 2.185,-9.13 3.705,-14.01c1.52,-4.88 3.491,-9.13 5.913,-12.75c2.423,-3.62 4.893,-5.43 7.41,-5.43c1.995,0 2.993,1.06 2.993,3.18c-0,1.6 -0.594,3.84 -1.782,6.72c-2.28,5.6 -5.557,11.2 -9.832,16.8c-1.14,1.48 -2.161,2.68 -3.064,3.6c-0.237,0.24 -0.356,0.16 -0.356,-0.24c-0.047,-0.76 0.167,-1.42 0.641,-1.98c3.895,-4.92 7.292,-10.52 10.189,-16.8Z" style="fill-rule:nonzero;"/><path d="M86.585,50.158c-0,4.84 2.042,7.26 6.127,7.26c1.52,0 3.123,-0.57 4.809,-1.71c1.686,-1.14 3.218,-2.51 4.596,-4.11c3.039,-3.68 5.177,-6.68 6.412,-9l0.926,-1.68l1.924,0c-0.808,1.6 -1.995,3.57 -3.563,5.91c-1.567,2.34 -3.063,4.31 -4.488,5.91c-1.425,1.6 -3.111,3.05 -5.059,4.35c-1.947,1.3 -3.8,1.95 -5.557,1.95c-7.03,0 -10.545,-3.32 -10.545,-9.96c0,-3.08 1.069,-6.16 3.206,-9.24c2.945,-4.28 6.579,-6.42 10.901,-6.42c3.04,0 4.56,1.4 4.56,4.2c0,2.08 -0.95,4.24 -2.85,6.48c-2.66,3.04 -5.771,4.58 -9.333,4.62c-0.523,0 -0.855,-0.2 -0.998,-0.6l-0.071,-0.24c2.47,0 4.833,-1.37 7.089,-4.11c2.256,-2.74 3.384,-5.03 3.384,-6.87c0,-1.24 -0.57,-1.86 -1.709,-1.86c-2.518,0 -4.869,1.86 -7.054,5.58c-1.805,3.16 -2.707,6.34 -2.707,9.54Z" style="fill-rule:nonzero;"/><path d="M128.478,37.018c1.188,0 1.781,0.84 1.781,2.52c0,1.2 -0.783,4.67 -2.351,10.41c-1.567,5.74 -2.968,10.49 -4.203,14.25c-1.235,3.76 -2.399,6.55 -3.491,8.37c-1.093,1.82 -2.411,3.65 -3.955,5.49c-1.543,1.84 -3.242,3.1 -5.094,3.78c-1.852,0.68 -3.99,1.02 -6.412,1.02c-4.513,0 -6.769,-1.94 -6.769,-5.82c0,-2.28 1.021,-4.74 3.064,-7.38c2.945,-3.88 6.887,-6.44 11.827,-7.68c1.757,-0.44 3.586,-0.66 5.486,-0.66c0.333,0 0.499,0.28 0.499,0.84c-0,0.56 -0.166,0.84 -0.499,0.84c-5.605,0 -10.307,1.86 -14.107,5.58c-2.802,2.8 -4.204,5.5 -4.204,8.1c0,2.6 1.188,4.1 3.563,4.5l1.14,0.06c3.895,0 6.982,-1.36 9.262,-4.08c2.327,-2.76 4.156,-6.24 5.486,-10.44c1.33,-4.24 3.04,-10.88 5.13,-19.92l-0.57,0c-5.13,8.12 -9.357,12.18 -12.682,12.18c-3.753,0 -5.629,-2.38 -5.629,-7.14c0,-2.76 0.855,-5.78 2.565,-9.06c2.375,-4.44 5.391,-7.34 9.049,-8.7c1.282,-0.44 2.576,-0.66 3.883,-0.66c1.306,0 2.339,0.32 3.099,0.96c0.76,0.64 1.14,1.36 1.14,2.16c-0,0.36 -0.226,0.53 -0.677,0.51c-0.451,-0.02 -0.677,-0.21 -0.677,-0.57c0,-0.36 -0.225,-0.69 -0.677,-0.99c-0.451,-0.3 -1.104,-0.45 -1.959,-0.45c-2.992,0 -5.7,2.26 -8.122,6.78c-2.28,4.2 -3.42,8.18 -3.42,11.94c-0,2.32 0.594,3.48 1.781,3.48c1.567,0 3.61,-1.56 6.127,-4.68c3.8,-4.72 6.769,-9.34 8.906,-13.86c0.57,-1.12 1.14,-1.68 1.71,-1.68Z" style="fill-rule:nonzero;"/><path d="M139.023,58.978c-3.752,0 -5.629,-2.38 -5.629,-7.14c0,-2.76 0.855,-5.78 2.565,-9.06c2.375,-4.44 5.391,-7.34 9.049,-8.7c1.282,-0.44 2.577,-0.66 3.883,-0.66c1.306,0 2.339,0.32 3.099,0.96c0.76,0.64 1.14,1.36 1.14,2.16c-0,0.36 -0.226,0.53 -0.677,0.51c-0.451,-0.02 -0.677,-0.21 -0.677,-0.57c0,-0.36 -0.225,-0.69 -0.677,-0.99c-0.451,-0.3 -1.104,-0.45 -1.959,-0.45c-2.992,0 -5.7,2.26 -8.122,6.78c-2.28,4.2 -3.42,8.18 -3.42,11.94c-0,2.32 0.606,3.48 1.817,3.48c1.211,0 2.683,-0.87 4.417,-2.61c1.734,-1.74 3.337,-3.77 4.809,-6.09c3.183,-4.88 5.059,-8.02 5.629,-9.42c0.57,-1.4 1.187,-2.1 1.852,-2.1c1.188,0 1.782,0.84 1.782,2.52c-0,0.52 -0.072,1.12 -0.214,1.8c-1.568,6.4 -2.411,10.1 -2.529,11.1c-0.119,1 -0.179,1.72 -0.179,2.16c0,1.92 0.547,2.88 1.639,2.88c1.235,0 2.969,-1.38 5.201,-4.14c2.233,-2.76 4.156,-5.52 5.771,-8.28l2.423,-4.14l1.923,0c-0.285,0.48 -0.653,1.13 -1.104,1.95c-0.451,0.82 -1.342,2.28 -2.672,4.38c-1.33,2.1 -2.6,3.95 -3.812,5.55c-1.211,1.6 -2.564,3.05 -4.061,4.35c-1.496,1.3 -2.79,1.95 -3.883,1.95c-3.515,0 -5.272,-2.16 -5.272,-6.48c0,-1.44 0.19,-3.12 0.57,-5.04l-0.499,0c-4.845,7.6 -8.906,11.4 -12.183,11.4Z" style="fill-rule:nonzero;"/><path d="M185.548,21.298c1.71,-3.76 2.565,-6.32 2.565,-7.68c-0,-1.36 -0.404,-2.08 -1.212,-2.16c-2.232,0 -4.548,3.01 -6.946,9.03c-2.399,6.02 -4.275,12.26 -5.629,18.72c-1.354,6.46 -2.03,11.03 -2.03,13.71c-0,4.52 1.33,6.78 3.989,6.78c0,0.28 -0.213,0.56 -0.641,0.84c-0.427,0.28 -0.926,0.42 -1.496,0.42c-3.895,0 -5.842,-2.94 -5.842,-8.82c-0,-2.16 0.475,-5.47 1.425,-9.93c0.95,-4.46 2.185,-9.13 3.705,-14.01c1.52,-4.88 3.491,-9.13 5.913,-12.75c2.423,-3.62 4.892,-5.43 7.41,-5.43c1.995,0 2.992,1.06 2.992,3.18c0,1.6 -0.593,3.84 -1.781,6.72c-2.28,5.6 -5.557,11.2 -9.832,16.8c-1.14,1.48 -2.161,2.68 -3.064,3.6c-0.237,0.24 -0.356,0.16 -0.356,-0.24c-0.047,-0.76 0.166,-1.42 0.641,-1.98c3.895,-4.92 7.291,-10.52 10.189,-16.8Z" style="fill-rule:nonzero;"/><path d="M116.442,2.751c0.416,0 0.713,0.106 0.89,0.316c0.178,0.21 0.267,0.566 0.267,1.068l-0,7.67c-0,0.475 -0.104,0.814 -0.313,1.017c-0.208,0.204 -0.562,0.305 -1.064,0.305c-0.502,0 -0.857,-0.101 -1.065,-0.305c-0.208,-0.203 -0.312,-0.542 -0.312,-1.017l0,-6.287l-4.901,0l0,18.616l4.332,0c0.416,0 0.713,0.105 0.89,0.315c0.178,0.211 0.267,0.567 0.267,1.069c-0,0.501 -0.089,0.857 -0.267,1.068c-0.177,0.21 -0.474,0.315 -0.89,0.315l-11.417,0c-0.416,0 -0.713,-0.105 -0.89,-0.315c-0.178,-0.211 -0.266,-0.567 -0.266,-1.068c-0,-0.502 0.088,-0.858 0.266,-1.069c0.177,-0.21 0.474,-0.315 0.89,-0.315l4.332,0l-0,-18.616l-4.901,0l-0,6.287c-0,0.475 -0.104,0.814 -0.312,1.017c-0.208,0.204 -0.563,0.305 -1.065,0.305c-0.502,0 -0.856,-0.101 -1.064,-0.305c-0.208,-0.203 -0.312,-0.542 -0.312,-1.017l-0,-7.67c-0,-0.502 0.088,-0.858 0.266,-1.068c0.177,-0.21 0.474,-0.316 0.89,-0.316l15.749,0Z" style="fill:#547a00;fill-rule:nonzero;stroke:#000;stroke-width:0.42px;"/><path d="M124.19,0.208c0.416,0 0.713,0.105 0.89,0.316c0.177,0.21 0.266,0.566 0.266,1.068l0,10.132c0.796,-1.316 1.716,-2.323 2.763,-3.022c1.046,-0.698 2.175,-1.047 3.386,-1.047c1.114,-0 2.081,0.267 2.9,0.803c0.82,0.536 1.451,1.306 1.891,2.309c0.441,1.004 0.661,2.177 0.661,3.52l-0,9.847l1.505,0c0.416,0 0.713,0.105 0.89,0.315c0.178,0.211 0.266,0.567 0.266,1.069c0,0.501 -0.088,0.857 -0.266,1.068c-0.177,0.21 -0.474,0.315 -0.89,0.315l-5.947,0c-0.416,0 -0.713,-0.105 -0.89,-0.315c-0.178,-0.211 -0.267,-0.567 -0.267,-1.068c0,-0.502 0.089,-0.858 0.267,-1.069c0.177,-0.21 0.474,-0.315 0.89,-0.315l1.689,0l-0,-9.542c-0,-1.207 -0.251,-2.163 -0.753,-2.868c-0.502,-0.706 -1.242,-1.058 -2.221,-1.058c-1.04,-0 -2.01,0.332 -2.909,0.997c-0.9,0.664 -1.619,1.58 -2.157,2.746c-0.539,1.167 -0.808,2.469 -0.808,3.906l0,5.819l1.689,0c0.416,0 0.713,0.105 0.89,0.315c0.178,0.211 0.266,0.567 0.266,1.069c0,0.501 -0.088,0.857 -0.266,1.068c-0.177,0.21 -0.474,0.315 -0.89,0.315l-5.947,0c-0.416,0 -0.713,-0.105 -0.891,-0.315c-0.177,-0.211 -0.266,-0.567 -0.266,-1.068c0,-0.502 0.089,-0.858 0.266,-1.069c0.178,-0.21 0.475,-0.315 0.891,-0.315l1.505,0l-0,-21.159l-1.689,0c-0.416,0 -0.713,-0.105 -0.89,-0.315c-0.178,-0.21 -0.266,-0.566 -0.266,-1.068c-0,-0.502 0.088,-0.858 0.266,-1.068c0.177,-0.211 0.474,-0.316 0.89,-0.316l3.286,0Z" style="fill:#547a00;fill-rule:nonzero;stroke:#000;stroke-width:0.42px;"/><path d="M150.807,7.655c1.774,-0 3.289,0.396 4.543,1.19c1.254,0.793 2.218,1.892 2.891,3.296c0.673,1.404 1.059,3.021 1.156,4.852c0,0.461 -0.088,0.787 -0.266,0.977c-0.177,0.189 -0.474,0.284 -0.89,0.284l-13.29,0c0.086,2.021 0.628,3.551 1.625,4.588c0.997,1.038 2.408,1.557 4.231,1.557c1.126,-0 2.239,-0.16 3.341,-0.479c1.101,-0.318 2.068,-0.742 2.9,-1.271c0.208,-0.122 0.398,-0.183 0.569,-0.183c0.428,-0 0.777,0.359 1.046,1.078c0.11,0.285 0.165,0.543 0.165,0.773c0,0.543 -0.269,0.963 -0.807,1.262c-0.943,0.529 -2.056,0.956 -3.341,1.281c-1.285,0.326 -2.576,0.489 -3.873,0.489c-1.848,-0 -3.426,-0.394 -4.736,-1.18c-1.309,-0.787 -2.307,-1.92 -2.992,-3.398c-0.685,-1.478 -1.028,-3.235 -1.028,-5.269c0,-1.94 0.373,-3.656 1.12,-5.148c0.746,-1.492 1.78,-2.648 3.102,-3.469c1.322,-0.82 2.833,-1.23 4.534,-1.23Zm-0,2.95c-1.505,-0 -2.75,0.424 -3.735,1.271c-0.986,0.848 -1.631,2.025 -1.937,3.53l11.215,0c-0.257,-1.56 -0.847,-2.75 -1.771,-3.57c-0.924,-0.821 -2.181,-1.231 -3.772,-1.231Z" style="fill:#547a00;fill-rule:nonzero;stroke:#000;stroke-width:0.42px;"/></g></g></svg>