<?xml version="1.0" encoding="UTF-8"?>
<svg width="88.048" height="93.427" version="1.1" viewBox="0 0 88.048 93.427" xml:space="preserve" xmlns="http://www.w3.org/2000/svg"><g transform="translate(-1192.2 -402.16)"><g transform="matrix(-1 0 0 1 2470.5 0)"><path d="m1214.7 434.14c-0.3097 0.92904-22.916 46.968-22.916 46.968l17.807-2.0129 6.0387-29.936z" fill="#5b3d11" stroke="#000" stroke-linejoin="round" stroke-width="3"/><path d="m1195.9 413.57 9.6222 80.517 71.235-6.6316-12.25-83.795z" fill="#5b3d11" stroke="#000" stroke-linejoin="round" stroke-width="3"/><path d="m1226.8 443.11 2.0926 16.028 17.183-2.4023-1.7564-15.855z" fill="#dcd7c9" stroke="#000" stroke-linejoin="round" stroke-width="2"/><path d="m1223.7 427.67-5.5743 7.755" fill="none" stroke="#fff" stroke-linecap="round" stroke-linejoin="bevel"/><path d="m1228.1 427.26-10.529 15.82" fill="none" stroke="#fff" stroke-linecap="round" stroke-linejoin="bevel"/><path d="m1230.1 445.66 1.1483 10.335 11.942-1.6076-1.3779-10.335z" fill="#a92222" fill-opacity=".7862"/><path d="m1233.1 447.63 0.6256 5.6299 6.5057-0.87577-0.7507-5.6299z" fill="#243578"/><path d="m1218.3 477.5 42.267-4.8486-7.3261-52.35-41.241 6.0122z" fill="#d9fcff" fill-opacity=".24474" stroke="#000" stroke-linejoin="round" stroke-width="3"/><path d="m1255.7 459.49-5.044 8.1085" fill="none" stroke="#fff" stroke-linecap="round" stroke-linejoin="bevel"/><path d="m1254.7 454.48-10.529 15.82" fill="none" stroke="#fff" stroke-linecap="round" stroke-linejoin="bevel"/><path d="m1219 428.99-3.794 5.3585" fill="none" stroke="#fff" stroke-linecap="round" stroke-linejoin="bevel"/></g></g></svg>
