<?xml version="1.0" encoding="UTF-8"?>
<svg width="625.01" height="600" version="1.1" viewBox="0 0 625.01 600" xml:space="preserve" xmlns="http://www.w3.org/2000/svg" xmlns:xlink="http://www.w3.org/1999/xlink"><defs><pattern id="a" xlink:href="#c" patternTransform="matrix(0,4.4,-4.4,0,0,0)" preserveAspectRatio="xMidYMid"/><pattern id="c" width="1.5" height="1" fill="#e14444" patternTransform="translate(0) scale(2)" patternUnits="userSpaceOnUse" preserveAspectRatio="xMidYMid">
      <rect y="-.5" width="1" height="2"/>
    </pattern></defs><g transform="translate(-518.04 -157.64)"><path d="m1141 234.74a20 20 0 0 1-2.0137 0.19727 20 20 0 0 1-20-20 20 20 0 0 1 20-20 20 20 0 0 1 2.0137 0.53906v-17.547a20 20 0 0 1-8.0078 1.7109 20 20 0 0 1-20-20 20 20 0 0 1 0-6e-3h-20.541a20 20 0 0 1 0 6e-3 20 20 0 0 1-20 20 20 20 0 0 1-20-20 20 20 0 0 1 0-6e-3h-20.543a20 20 0 0 1 0 6e-3 20 20 0 0 1-20 20 20 20 0 0 1-20-20 20 20 0 0 1 2e-3 -6e-3h-20.541a20 20 0 0 1 2e-3 6e-3 20 20 0 0 1-20 20 20 20 0 0 1-20-20 20 20 0 0 1 2e-3 -6e-3h-20.541a20 20 0 0 1 2e-3 6e-3 20 20 0 0 1-20 20 20 20 0 0 1-20-20 20 20 0 0 1 2e-3 -6e-3h-20.543a20 20 0 0 1 2e-3 6e-3 20 20 0 0 1-20 20 20 20 0 0 1-20-20 20 20 0 0 1 2e-3 -6e-3h-20.542a20 20 0 0 1 2e-3 6e-3 20 20 0 0 1-20 20 20 20 0 0 1-20-20 20 20 0 0 1 2e-3 -6e-3h-20.535a20 20 0 0 1 2e-3 6e-3 20 20 0 0 1-20 20 20 20 0 0 1-20-20 20 20 0 0 1 2e-3 -6e-3h-20.541a20 20 0 0 1 2e-3 6e-3 20 20 0 0 1-20 20 20 20 0 0 1-20-20 20 20 0 0 1 0-6e-3h-20.543a20 20 0 0 1 0 6e-3 20 20 0 0 1-20 20 20 20 0 0 1-20-20 20 20 0 0 1 0-6e-3h-20.541a20 20 0 0 1 0 6e-3 20 20 0 0 1-20 20 20 20 0 0 1-7.6133-2.041v18.275a20 20 0 0 1 17.508 19.332 20 20 0 0 1-17.508 19.754v21.453a20 20 0 0 1 17.508 19.332 20 20 0 0 1-17.508 19.754v21.451a20 20 0 0 1 17.508 19.332 20 20 0 0 1-17.508 19.754v21.451a20 20 0 0 1 17.508 19.332 20 20 0 0 1-17.508 19.756v21.451a20 20 0 0 1 17.508 19.332 20 20 0 0 1-17.508 19.754v21.451a20 20 0 0 1 17.508 19.332 20 20 0 0 1-17.508 19.756v21.451a20 20 0 0 1 17.508 19.332 20 20 0 0 1-17.508 19.754v21.451a20 20 0 0 1 17.508 19.332 20 20 0 0 1-17.508 19.754v21.453a20 20 0 0 1 17.508 19.332 20 20 0 0 1-17.508 19.754v21.451a20 20 0 0 1 1.0547 0.2813 20 20 0 0 1 4.5508-1.2188 20 20 0 0 1 18.889 15.856h22.762a20 20 0 0 1 18.889-15.856 20 20 0 0 1 18.889 15.856h22.759a20 20 0 0 1 18.889-15.856 20 20 0 0 1 18.889 15.856h22.76a20 20 0 0 1 18.891-15.856 20 20 0 0 1 18.889 15.856h22.76a20 20 0 0 1 18.889-15.856 20 20 0 0 1 18.889 15.856h22.768a20 20 0 0 1 18.889-15.856 20 20 0 0 1 18.889 15.856h22.762a20 20 0 0 1 18.889-15.856 20 20 0 0 1 18.889 15.856h22.76a20 20 0 0 1 18.889-15.856 20 20 0 0 1 18.889 15.856h22.762a20 20 0 0 1 18.889-15.856 20 20 0 0 1 18.889 15.856h22.76a20 20 0 0 1 18.889-15.856 20 20 0 0 1 18.889 15.856h22.76a20 20 0 0 1 18.891-15.856 20 20 0 0 1 4 1.0723 20 20 0 0 1 4-1.0723 20 20 0 0 1 2.0137 0.5391v-21.275a20 20 0 0 1-2.0137 0.1992 20 20 0 0 1-20-20 20 20 0 0 1 20-20 20 20 0 0 1 2.0137 0.5391v-21.275a20 20 0 0 1-2.0137 0.1973 20 20 0 0 1-20-20 20 20 0 0 1 20-20 20 20 0 0 1 2.0137 0.53907v-21.275a20 20 0 0 1-2.0137 0.19922 20 20 0 0 1-20-20 20 20 0 0 1 20-20 20 20 0 0 1 2.0137 0.53906v-21.275a20 20 0 0 1-2.0137 0.19922 20 20 0 0 1-20-20 20 20 0 0 1 20-20 20 20 0 0 1 2.0137 0.53905v-21.277a20 20 0 0 1-2.0137 0.19921 20 20 0 0 1-20-20 20 20 0 0 1 20-20 20 20 0 0 1 2.0137 0.53908v-21.275a20 20 0 0 1-2.0137 0.19921 20 20 0 0 1-20-20 20 20 0 0 1 20-20 20 20 0 0 1 2.0137 0.53908v-21.275a20 20 0 0 1-2.0137 0.19726 20 20 0 0 1-20-20 20 20 0 0 1 20-20 20 20 0 0 1 2.0137 0.53905v-21.275a20 20 0 0 1-2.0137 0.19922 20 20 0 0 1-20-20 20 20 0 0 1 20-20 20 20 0 0 1 2.0137 0.53906z" fill="#faf5e2" stroke="#000" stroke-linejoin="bevel" stroke-width="3.9999"/><rect x="587.91" y="224.73" width="485.28" height="465.82" fill="url(#a)" stroke="#730000" stroke-linecap="round" stroke-linejoin="round" stroke-width="3"/><rect x="579.91" y="216.73" width="501.28" height="481.82" fill="none" stroke="#730000" stroke-linecap="round" stroke-linejoin="round" stroke-width="4"/><path d="m726.31 612.02h265.16s31.055-14.907 38.142-29.284c14.57-29.555 5.2686-66.326 0-98.853-4.9033-30.272-12.91-61.216-29.042-87.296-16.051-25.949-38.497-49.195-64.811-64.64-31.353-18.402-68.556-30.958-104.89-29.87-42.2 1.2631-87.77 14.086-119.52 41.912-41.177 36.084-62.703 92.998-74.225 146.52-6.6438 30.861-11.273 67.118 4.2426 94.61 7.5184 13.322 38.184 26.9 38.184 26.9z" fill="#faf5e2" stroke="#b90000" stroke-linecap="round" stroke-linejoin="round" stroke-width="4"/><ellipse cx="651.34" cy="641.97" rx="62.933" ry="48.083" fill="#faf5e2" stroke="#b90000" stroke-linecap="round" stroke-linejoin="round" stroke-width="4"/><ellipse cx="1009.8" cy="641.97" rx="62.933" ry="48.083" fill="#faf5e2" stroke="#b90000" stroke-linecap="round" stroke-linejoin="round" stroke-width="4"/><ellipse cx="651.34" cy="641.97" rx="51.353" ry="39.236" fill="#e14444" stroke="#b90000" stroke-linecap="round" stroke-linejoin="round" stroke-width="3.264"/><ellipse cx="1009.8" cy="641.97" rx="51.353" ry="39.236" fill="#e14444" stroke="#b90000" stroke-linecap="round" stroke-linejoin="round" stroke-width="3.264"/><path transform="translate(-.66073 -11.694)" d="m650.07 661.09q0 0.53334-0.13334 1.2667-1 5.6667-1.5333 13.667-8-0.33333-15.6-0.33333-0.4 0-1.6 0.0667-1.6 0.0667-2.6667 0.0667l-8.8667 0.2q-0.46667 0-1 0.0667-0.53333 0-0.53333 0-2.4 0-2.4-0.8 0-0.53333 1-1.3333 8.1333-6.4667 13.733-12.667 5.6667-6.2667 5.6667-15.667 0-6.2667-3-9.6-2.1333-2.3333-5.7333-2.3333-3 0-5 1.7333-1.9333 1.6667-1.9333 3.5333 0 1.0667 0.93333 1.3333 0.33334 0.0667 1.9333 0.2 2.0667 0.13334 3.3333 1.5333 1.2667 1.3333 1.2667 3.4t-1.2 3.4q-1.2 1.2667-3.1333 1.2667-2.5333 0-4.1333-1.9333-1.5333-1.9333-1.5333-5.1333 0-5.4667 3.6667-8.5333 3.7333-3.1333 10.2-3.1333 6.6667 0 10.867 3.7333 4.2 3.6667 4.2 9.5333 0 11.533-21.267 23.2l2.2-0.0667 6.0667-0.0667q7.2667-0.0667 9.4-0.33334 2.8667-0.26666 3.8667-1.3333 0.73333-0.86667 1.2667-3.6 0.4-2.2667 1.0667-2.2667 0.6 0 0.6 0.93333zm38.2 9.6q0 0.73333-0.46666 0.73333-0.53334 0-0.66667-0.46666-0.13333-0.53334-0.26667-2.8-0.0667-1.6667-0.46666-2.1333-0.4-0.53333-1.7333-0.73333l-3.9333-0.0667v6.6667q0 2.0667 0.66666 2.4667 0.66667 0.33333 4.4667 0.4 1.6 0 1.6 0.6 0 0.46666-3.3333 0.46666-12.733 0-16.6 0.13334-1.9333 0.0667-2.6667 0.0667-1.2 0-1.2-0.53333 0-0.66667 2-0.66667 4.2 0 4.6667-0.6 0.53334-0.6 0.53334-2.2v-6.6h-6.6q-8.2 0-9.8667-0.13333-1.4-0.0667-1.4-0.6 0-0.53334 0.93333-1.7333 1.3333-1.6667 6.6-8.4 5.2667-6.8 13.933-17.133 0.0667-0.13333 3.6667-4.4667 1.4-1.7333 1.9333-1.7333 0.6 0 0.6 1.6l0.0667 30.733q4.0667-0.0667 5.1333-0.4 0.66667-0.33333 0.73334-0.8 0.13333-0.53333 0.13333-2.8667 0-2.4 0.66667-2.4 0.46666 0 0.53333 0.93333 0.0667 0.86667 0.13333 6.0667 0 4.6667 0.0667 5.3333 0.13333 0.6 0.13333 1.2667zm-16.733-26.867q-1.7333 1.8-5.6667 7-1.6 2.0667-4.5333 5.8-3.6 4.5333-5.2 6.7333 4.2667 0.26667 10.133 0.26667h4.6667q0.2-12.667 0.6-19.8z" fill="#faf5e2" stroke="#faf5e2" stroke-linecap="round" stroke-linejoin="round" stroke-width="2" style="white-space:pre" aria-label="24"/><path transform="translate(357.75 -11.694)" d="m650.07 661.09q0 0.53334-0.13334 1.2667-1 5.6667-1.5333 13.667-8-0.33333-15.6-0.33333-0.4 0-1.6 0.0667-1.6 0.0667-2.6667 0.0667l-8.8667 0.2q-0.46667 0-1 0.0667-0.53333 0-0.53333 0-2.4 0-2.4-0.8 0-0.53333 1-1.3333 8.1333-6.4667 13.733-12.667 5.6667-6.2667 5.6667-15.667 0-6.2667-3-9.6-2.1333-2.3333-5.7333-2.3333-3 0-5 1.7333-1.9333 1.6667-1.9333 3.5333 0 1.0667 0.93333 1.3333 0.33334 0.0667 1.9333 0.2 2.0667 0.13334 3.3333 1.5333 1.2667 1.3333 1.2667 3.4t-1.2 3.4q-1.2 1.2667-3.1333 1.2667-2.5333 0-4.1333-1.9333-1.5333-1.9333-1.5333-5.1333 0-5.4667 3.6667-8.5333 3.7333-3.1333 10.2-3.1333 6.6667 0 10.867 3.7333 4.2 3.6667 4.2 9.5333 0 11.533-21.267 23.2l2.2-0.0667 6.0667-0.0667q7.2667-0.0667 9.4-0.33334 2.8667-0.26666 3.8667-1.3333 0.73333-0.86667 1.2667-3.6 0.4-2.2667 1.0667-2.2667 0.6 0 0.6 0.93333zm38.2 9.6q0 0.73333-0.46666 0.73333-0.53334 0-0.66667-0.46666-0.13333-0.53334-0.26667-2.8-0.0667-1.6667-0.46666-2.1333-0.4-0.53333-1.7333-0.73333l-3.9333-0.0667v6.6667q0 2.0667 0.66666 2.4667 0.66667 0.33333 4.4667 0.4 1.6 0 1.6 0.6 0 0.46666-3.3333 0.46666-12.733 0-16.6 0.13334-1.9333 0.0667-2.6667 0.0667-1.2 0-1.2-0.53333 0-0.66667 2-0.66667 4.2 0 4.6667-0.6 0.53334-0.6 0.53334-2.2v-6.6h-6.6q-8.2 0-9.8667-0.13333-1.4-0.0667-1.4-0.6 0-0.53334 0.93333-1.7333 1.3333-1.6667 6.6-8.4 5.2667-6.8 13.933-17.133 0.0667-0.13333 3.6667-4.4667 1.4-1.7333 1.9333-1.7333 0.6 0 0.6 1.6l0.0667 30.733q4.0667-0.0667 5.1333-0.4 0.66667-0.33333 0.73334-0.8 0.13333-0.53333 0.13333-2.8667 0-2.4 0.66667-2.4 0.46666 0 0.53333 0.93333 0.0667 0.86667 0.13333 6.0667 0 4.6667 0.0667 5.3333 0.13333 0.6 0.13333 1.2667zm-16.733-26.867q-1.7333 1.8-5.6667 7-1.6 2.0667-4.5333 5.8-3.6 4.5333-5.2 6.7333 4.2667 0.26667 10.133 0.26667h4.6667q0.2-12.667 0.6-19.8z" fill="#faf5e2" stroke="#faf5e2" stroke-linecap="round" stroke-linejoin="round" stroke-width="2" style="white-space:pre" aria-label="24"/><path d="m762.06 664.7-0.06 1.02q0 0.3-0.3 3.78-0.24 2.64-0.24 4.08 0 1.8 0.06 3 0.06 0.42 0.06 1.02 0 0.66-0.3 0.66t-0.66-0.6q-1.32-2.16-2.82-2.82-4.5 3.84-9.66 3.84-7.86 0-13.86-5.88-6.36-6.24-6.36-15.72 0-9.18 5.7-15.3 5.76-6.18 14.34-6.18 3.96 0 7.08 1.8 1.8 1.02 2.64 1.02 1.26 0 2.34-1.14 0.78-0.84 0.96-0.84 0.24 0 0.24 0.42 0 0.18-0.06 0.54-0.36 2.04-0.36 5.04 0 0.3 0.06 2.46 0 2.1 0 2.82v1.32q0 1.08-0.6 1.08-0.48 0-0.96-2.34-2.16-10.8-9.9-10.8-6.12 0-8.88 7.92-1.92 5.4-1.92 12.96 0 11.22 4.56 16.44 2.4 2.76 6.3 2.76 8.46 0 11.1-11.28 0.42-1.86 0.96-1.86 0.6 0 0.54 0.78zm45.42 2.64q0 0.12-0.06 5.58-0.06 2.88-0.12 4.14 0 1.26 0 1.2-15.84-0.72-27.72-0.42l-5.04 0.12q-1.08 0-1.08-0.48 0-0.36 0.24-0.42 0.3-0.06 1.86-0.18 2.82-0.18 3.06-1.62 0.12-0.78 0.12-1.74v-30.42q0-3.6-0.06-3.96-0.06-0.96-0.6-1.32t-2.22-0.36q-1.86 0-1.86-0.54 0-0.6 1.62-0.6 1.68 0 4.62-0.06 11.04-0.24 18.06-0.12l4.08 0.06q1.32 0 3.24-0.24l0.54 6.54q0.3 3.12 0.3 3.84 0 0.6-0.6 0.6t-0.78-1.56q-0.54-4.14-3.36-6-2.76-1.92-8.22-1.92-1.68 0-5.76 0.18v17.7q6.6 0.06 8.28-0.9 1.74-1.02 2.34-5.16 0.3-2.22 0.9-2.22 0.54 0 0.54 1.08t-0.18 4.44q-0.06 1.14-0.06 3.06 0 5.16 0.12 7.8 0.06 0.36 0.06 0.9 0 0.72-0.54 0.72-0.42 0-0.54-0.24-0.12-0.3-0.36-1.98-0.6-4.26-1.68-5.28-1.02-1.08-4.8-1.08h-4.08v20.22l3.84-0.06q6.6-0.12 8.04-0.3 1.8-0.24 3.48-1.32 1.5-1.2 2.04-2.58 0.6-1.38 1.26-5.1 0.18-0.9 0.6-0.9 0.48 0 0.48 0.9zm50.52-30.36q0 0.3-0.48 0.36-0.42 0.06-3.18 0.18-1.62 0.06-1.86 0.66-0.24 0.36-0.18 3.84l0.06 6.96q0.06 6.96 0.06 18.18v10.2q0 1.02-0.42 1.02-0.66 0-8.76-9.9-8.04-9.96-17.7-22.74v4.44q0 2.28 0.06 3.96 0 1.68 0 2.04v18.66q0 1.26 0.78 1.56 1.26 0.48 2.94 0.48 1.98 0 2.22 0.3 0.06 0.06 0.06 0.24 0 0.48-0.9 0.48-0.54 0-0.9-0.06-3.6-0.12-4.5-0.12-2.1 0-5.52 0.12-1.68 0.06-1.44 0.06-0.9 0-0.9-0.48 0-0.42 2.64-0.6 3.06-0.24 3.54-0.96 0.3-0.48 0.3-4.32v-24.66q0-3.78-0.12-4.56-0.36-2.64-2.1-3.84-1.32-0.9-4.92-1.02-0.96-0.06-0.96-0.54 0-0.54 0.84-0.54 0.36 0 2.58 0.12 1.08 0.06 3.24 0.06 4.44 0 7.2-0.12l21.06 27.06v-23.76q0-1.44-0.48-1.8-0.48-0.42-2.04-0.48l-2.58-0.12q-0.72-0.06-0.72-0.42 0-0.48 1.08-0.48h1.32q0.36 0 1.2-0.06 0.78 0 1.38 0 6.06 0 7.08 0.06t1.02 0.54zm44.16 10.5q0 0.48-0.42 0.48-0.66 0-1.2-2.34-1.08-4.62-3-6.3t-6.12-1.68q-1.62 0-2.82 0.12l0.06 36.48q0.06 1.5 0.84 1.92t4.2 0.72q0.66 0.06 0.66 0.54 0 0.6-0.96 0.6-0.18 0-0.9-0.06-0.9-0.06-1.5-0.06l-6.18-0.18-10.2 0.18q-0.84 0-0.84-0.48 0-0.36 0.24-0.42t1.98-0.12q3.3-0.12 3.54-1.56 0.12-0.78 0.12-12.18v-25.38q-0.66-0.06-1.56-0.06-4.8 0-7.02 1.8-2.16 1.74-2.82 6.24-0.42 2.64-1.08 2.64-0.54 0-0.54-0.72 0-0.48 0.24-3.3 0.48-5.88 0.6-8.04h0.9l4.38-0.06q0.18 0 4.14 0.12 4.02 0.12 10.2 0.12 3.42 0 6.12-0.06t4.92-0.06q1.98 0 3-0.12 0.18 3.9 0.9 9.96 0.12 1.02 0.12 1.26zm36.96 18.54q0 5.46-3.9 9.06-3.84 3.54-9.84 3.54-3.66 0-10.08-2.46-0.48-0.18-0.84-0.18-1.02 0-1.56 2.16-0.18 0.66-0.48 0.66-0.48 0-0.48-0.84 0-0.78 0.3-2.76 0.24-1.62 0.24-3.78 0-1.74-0.06-2.76-0.12-2.04-0.12-2.4 0-0.96 0.6-0.96t1.08 2.58q0.84 4.44 3.78 6.9 3.18 2.64 6.84 2.64 3.24 0 5.46-2.04t2.22-4.98q0-2.52-1.44-4.02-1.08-1.08-6.96-4.26-6.54-3.48-8.88-6.96-2.16-3.18-2.16-7.56 0-5.16 3.66-8.52 3.66-3.42 9.24-3.42 3 0 6.42 1.44 1.14 0.48 1.62 0.48 0.9 0 1.2-1.56 0.12-0.54 0.54-0.54 0.6 0 0.6 0.78 0 0.3-0.12 1.68t-0.12 2.28q0 3.12 0.24 5.28 0.06 0.18 0.06 0.48 0 0.54-0.48 0.54-0.54 0-1.08-1.92t-1.92-3.78q-1.32-1.92-2.7-2.76-1.8-1.08-4.2-1.08-3.36 0-5.34 1.62t-1.98 4.44q0 2.46 1.86 4.38 1.86 1.86 7.14 4.8 6.48 3.6 8.58 5.76 3.06 3.18 3.06 8.04z" fill="#b90000" stroke="#b90000" stroke-linecap="round" stroke-linejoin="round" stroke-width="10" style="white-space:pre" aria-label="C E N T S"/><path transform="translate(8,-1)" d="m750.06 661.7-0.06 1.02q0 0.3-0.3 3.78-0.24 2.64-0.24 4.08 0 1.8 0.06 3 0.06 0.42 0.06 1.02 0 0.66-0.3 0.66t-0.66-0.6q-1.32-2.16-2.82-2.82-4.5 3.84-9.66 3.84-7.86 0-13.86-5.88-6.36-6.24-6.36-15.72 0-9.18 5.7-15.3 5.76-6.18 14.34-6.18 3.96 0 7.08 1.8 1.8 1.02 2.64 1.02 1.26 0 2.34-1.14 0.78-0.84 0.96-0.84 0.24 0 0.24 0.42 0 0.18-0.06 0.54-0.36 2.04-0.36 5.04 0 0.3 0.06 2.46 0 2.1 0 2.82v1.32q0 1.08-0.6 1.08-0.48 0-0.96-2.34-2.16-10.8-9.9-10.8-6.12 0-8.88 7.92-1.92 5.4-1.92 12.96 0 11.22 4.56 16.44 2.4 2.76 6.3 2.76 8.46 0 11.1-11.28 0.42-1.86 0.96-1.86 0.6 0 0.54 0.78zm45.42 2.64q0 0.12-0.06 5.58-0.06 2.88-0.12 4.14 0 1.26 0 1.2-15.84-0.72-27.72-0.42l-5.04 0.12q-1.08 0-1.08-0.48 0-0.36 0.24-0.42 0.3-0.06 1.86-0.18 2.82-0.18 3.06-1.62 0.12-0.78 0.12-1.74v-30.42q0-3.6-0.06-3.96-0.06-0.96-0.6-1.32t-2.22-0.36q-1.86 0-1.86-0.54 0-0.6 1.62-0.6 1.68 0 4.62-0.06 11.04-0.24 18.06-0.12l4.08 0.06q1.32 0 3.24-0.24l0.54 6.54q0.3 3.12 0.3 3.84 0 0.6-0.6 0.6t-0.78-1.56q-0.54-4.14-3.36-6-2.76-1.92-8.22-1.92-1.68 0-5.76 0.18v17.7q6.6 0.06 8.28-0.9 1.74-1.02 2.34-5.16 0.3-2.22 0.9-2.22 0.54 0 0.54 1.08t-0.18 4.44q-0.06 1.14-0.06 3.06 0 5.16 0.12 7.8 0.06 0.36 0.06 0.9 0 0.72-0.54 0.72-0.42 0-0.54-0.24-0.12-0.3-0.36-1.98-0.6-4.26-1.68-5.28-1.02-1.08-4.8-1.08h-4.08v20.22l3.84-0.06q6.6-0.12 8.04-0.3 1.8-0.24 3.48-1.32 1.5-1.2 2.04-2.58 0.6-1.38 1.26-5.1 0.18-0.9 0.6-0.9 0.48 0 0.48 0.9zm50.52-30.36q0 0.3-0.48 0.36-0.42 0.06-3.18 0.18-1.62 0.06-1.86 0.66-0.24 0.36-0.18 3.84l0.06 6.96q0.06 6.96 0.06 18.18v10.2q0 1.02-0.42 1.02-0.66 0-8.76-9.9-8.04-9.96-17.7-22.74v4.44q0 2.28 0.06 3.96 0 1.68 0 2.04v18.66q0 1.26 0.78 1.56 1.26 0.48 2.94 0.48 1.98 0 2.22 0.3 0.06 0.06 0.06 0.24 0 0.48-0.9 0.48-0.54 0-0.9-0.06-3.6-0.12-4.5-0.12-2.1 0-5.52 0.12-1.68 0.06-1.44 0.06-0.9 0-0.9-0.48 0-0.42 2.64-0.6 3.06-0.24 3.54-0.96 0.3-0.48 0.3-4.32v-24.66q0-3.78-0.12-4.56-0.36-2.64-2.1-3.84-1.32-0.9-4.92-1.02-0.96-0.06-0.96-0.54 0-0.54 0.84-0.54 0.36 0 2.58 0.12 1.08 0.06 3.24 0.06 4.44 0 7.2-0.12l21.06 27.06v-23.76q0-1.44-0.48-1.8-0.48-0.42-2.04-0.48l-2.58-0.12q-0.72-0.06-0.72-0.42 0-0.48 1.08-0.48h1.32q0.36 0 1.2-0.06 0.78 0 1.38 0 6.06 0 7.08 0.06t1.02 0.54zm44.16 10.5q0 0.48-0.42 0.48-0.66 0-1.2-2.34-1.08-4.62-3-6.3t-6.12-1.68q-1.62 0-2.82 0.12l0.06 36.48q0.06 1.5 0.84 1.92t4.2 0.72q0.66 0.06 0.66 0.54 0 0.6-0.96 0.6-0.18 0-0.9-0.06-0.9-0.06-1.5-0.06l-6.18-0.18-10.2 0.18q-0.84 0-0.84-0.48 0-0.36 0.24-0.42t1.98-0.12q3.3-0.12 3.54-1.56 0.12-0.78 0.12-12.18v-25.38q-0.66-0.06-1.56-0.06-4.8 0-7.02 1.8-2.16 1.74-2.82 6.24-0.42 2.64-1.08 2.64-0.54 0-0.54-0.72 0-0.48 0.24-3.3 0.48-5.88 0.6-8.04h0.9l4.38-0.06q0.18 0 4.14 0.12 4.02 0.12 10.2 0.12 3.42 0 6.12-0.06t4.92-0.06q1.98 0 3-0.12 0.18 3.9 0.9 9.96 0.12 1.02 0.12 1.26zm36.96 18.54q0 5.46-3.9 9.06-3.84 3.54-9.84 3.54-3.66 0-10.08-2.46-0.48-0.18-0.84-0.18-1.02 0-1.56 2.16-0.18 0.66-0.48 0.66-0.48 0-0.48-0.84 0-0.78 0.3-2.76 0.24-1.62 0.24-3.78 0-1.74-0.06-2.76-0.12-2.04-0.12-2.4 0-0.96 0.6-0.96t1.08 2.58q0.84 4.44 3.78 6.9 3.18 2.64 6.84 2.64 3.24 0 5.46-2.04t2.22-4.98q0-2.52-1.44-4.02-1.08-1.08-6.96-4.26-6.54-3.48-8.88-6.96-2.16-3.18-2.16-7.56 0-5.16 3.66-8.52 3.66-3.42 9.24-3.42 3 0 6.42 1.44 1.14 0.48 1.62 0.48 0.9 0 1.2-1.56 0.12-0.54 0.54-0.54 0.6 0 0.6 0.78 0 0.3-0.12 1.68t-0.12 2.28q0 3.12 0.24 5.28 0.06 0.18 0.06 0.48 0 0.54-0.48 0.54-0.54 0-1.08-1.92t-1.92-3.78q-1.32-1.92-2.7-2.76-1.8-1.08-4.2-1.08-3.36 0-5.34 1.62t-1.98 4.44q0 2.46 1.86 4.38 1.86 1.86 7.14 4.8 6.48 3.6 8.58 5.76 3.06 3.18 3.06 8.04z" fill="#faf5e2" stroke="#faf5e2" stroke-linecap="round" stroke-linejoin="round" stroke-width="2" style="white-space:pre" aria-label="C E N T S"/><path d="m601.54 339.13v-99.047h99.047z" fill="#e14444" stroke="#b90000" stroke-linecap="round" stroke-linejoin="round" stroke-width="3"/><path d="m1059.9 339.13v-99.047h-99.047z" fill="#e14444" stroke="#b90000" stroke-linecap="round" stroke-linejoin="round" stroke-width="3"/><path d="m1013.4 261.22c0.905-0.49714 1.8649-0.93292 2.9133-0.98007 0.1841-8e-3 0.466 0.17229 0.6398 0.24953 0.3503 0.25178 0.8898-0.10081 1.2359 0.0214 0.044 0.0155-0.057 0.10649-0.022 0.13761 0.6928 0.62481 0.328-0.0442 0.5814 0.50299 0.6214 0.50899 1.238 0.98211 1.7815 1.5744 0.06 0.067 0.1453 0.11815 0.1807 0.20101 0.021 0.0483-0.1028 0.0381-0.1134 0.0702-0.053 0.15999-0.1623 0.33226-0.1116 0.49296 0.08 0.25261 0.2231 0.4804 0.3347 0.7206 0.116 0.095 0.2509 0.17073 0.3481 0.28491 0.027 0.0322-0.1797 1.561-0.1995 1.721 6e-4 0.64295 0.041 1.2832 0.031 1.9268-0.106 0.58229 0.1381 1.249 0 1.8199-0.011 0.0438-0.094-0.0494-0.1329-0.0258-0.097 0.0597-0.1557 0.1671-0.2336 0.25065-0.077 0.18358-0.1289 0.38017-0.2317 0.55072-0.022 0.0357-0.085 0.0127-0.1207 0.0335-0.1312 0.0757-0.2549 0.16408-0.3772 0.25353-0.539 0.39426-0.8248 0.66302-1.495 0.69702-1.387 0.54471-2.8714 0.33613-4.3191 0.27386-1.1626-0.0326-2.3258 4e-3 -3.4886 0.0111-0.358 2e-3 -0.7223 0.0704-1.074 4e-3 -0.4845-0.0921-0.9343-0.31615-1.4015-0.47423-1.318-0.63699-2.8731-1.0277-3.9688-2.0624-0.1128-0.10652-0.152-0.27248-0.2509-0.39201-0.4996-0.60378-0.5986-0.5648-1.3403-1.0109-1.7915-1.2412-0.2321-0.10817-2.1232-1.6625-0.3791-0.31158-0.79736-0.5758-1.1599-0.90645-0.62509-0.57007-1.0645-1.2795-1.5279-1.9748-0.57965-0.8191-1.4739-1.3395-2.1279-2.0877-0.21708-0.24835-0.66797-1.0201-0.85066-1.3228-0.13245-0.1826-0.23125-0.39519-0.39736-0.54781-1.4407-1.3238-0.17666 0.13708-1.5685-1.0037-0.53853-0.44139-0.5713-0.80677-1.0289-1.3186-0.23526-0.26314-0.51764-0.48001-0.77645-0.72001-0.61051-0.60652-1.4251-0.95453-2.1-1.4624-0.40594-0.30547-0.69178-0.92175-0.97205-1.3289-0.65339-1.1301-2.2793-1.7684-2.7579-2.9552 0.81346-0.34763-0.26718-0.88985-0.60829-0.90532-0.12196-6e-3 -0.44046 0.0327-0.34841 0.11291 0.17559 0.15298 0.45122 0.11548 0.67684 0.17322-0.11668 0.0817 0.0735-0.104 0.0534-0.0793-0.32137 0.39455-0.43275 0.36009 0.26076 0.4039 0.29964 0.0189 0.60011 0.0212 0.90016 0.0319 1.0783-0.0221 2.1863-1.2817 3.2308-1.0204 0.98154 0.24552 1.1714-0.1423 2.1681 0 0.42733 0.061 0.86176-0.0258 1.2926 0 2.7003 0.5546 5.455 0.0882 8.1876 0 0.8024 0.0542 1.6407-0.10801 2.441 0 0.3708 0.0499 0.7289-0.077 1.095 0 1.4905 0.31358 1.0453-0.1575 2.5187 0 0.3655 1.7e-4 0.7313 0.0115 1.0967 0 0.3286-0.0103 0.6558-0.0183 0.984 0 0.6767 0.0378 1.3297-0.12569 1.9894 0 0.909 0.17318 0.9188-0.0209 1.8527 0 1.1674 0.0213 2.355-0.0934 3.5217 0 0.9511 0.0762 1.8724-0.12313 2.8186 0 0.531 0.0691 1.0666-0.0479 1.5999 0 1.8423 0.0331 3.6689-0.0374 5.5117 0 2.7873 0.0488 5.5752 1e-3 8.3627 0 0.7569 3e-3 1.5097 4e-3 2.2657 0 0.8158-2e-3 1.6316 0 2.4473 0 0.5533 6.9e-4 1.1067-2e-3 1.66 0 0.5029-1.1e-4 7.8344-4e-3 8.3372 0 0.5396 0.0322-0.5179 0.27654 0 0 0.8058-0.43026-0.5157 0.13822 0 0 0.6377 0.18381-0.5092 0.39679 0 0 0.059-0.0461-0.071 0.0231 0 0 0.036-0.0116 0.015-0.0345 0 0-0.094 0.0181 0.02-0.0936 0 0-0.092 0.42903 1e-3 -0.43871 0 0-0.01 0.79417 0.016 5.8492 0 6.6433-0.045 2.2662 0.013 4.5287 0 6.7955 0.03 3.9484 0.011 7.8968 0 11.845 0.1385 0.87608-0.097 1.7732 0 2.6514 0.094 0.83408-0.1132 1.6338 0 2.4655 0.1627 1.1957 7e-4 1.7741 0 2.9928-0.021 0.44344-0.021 0.88687 0 1.3303 0.048 1.0148-0.1121 2.0102 0 3.02 0.2463 0.84818-0.09 1.7226 0 2.5786 0.036 0.34662-0.071 0.68236 0 1.0236 0.3585 1.1275-0.08 2.3004 0 3.4511 0.1045 1.5038-0.1116 2.9949 0 4.5016 0.014 1.9554-0.034 3.902 0 5.8575 0.036 1.5873 0 3.1751 0 4.7627 0.2896 1.0982-0.695 1.3527-0.9759 2.4235-0.095 0.41972-0.023 0.83518-0.01 1.2549-0.01 0.33197-0.01 0.66384-0.01 0.99588 9e-4 0.5278 0 1.0558 0 1.5836 1e-4 0.0873-0.086 0.24691 4e-4 0.26197 0.3289 0.0576 0.7823 0.1677 0.998-0.0872 0.1569-0.18532-0.2913-0.389-0.4218-0.59369-0.06-0.0946-0.075-0.21774-0.1492-0.3017-0.3504-0.39546-1.3981-1.2558-1.7338-1.5412-1.8186-1.4961-3.2431-3.3886-4.7967-5.1409-0.5367-0.60528-1.1241-1.1665-1.6319-1.7962-0.9631-1.1942-1.8894-2.8415-2.6643-4.1198-1.515-2.4944-0.5027-0.99087-1.944-2.8646-0.1021-0.1327-0.1605-0.30423-0.2903-0.40988-0.1784-0.14508-0.422-0.18971-0.6098-0.3223-0.3356-0.23691-0.5587-0.60257-0.8294-0.91156-2.0164-2.8894 0.5427 0.84213-1.5232-2.4006-0.2831-0.44438-0.6228-0.85131-0.9005-1.2991-0.6032-0.97282-1.0316-1.9754-1.7366-2.8805-1.0577-0.76427-1.7343-1.854-2.4387-2.9153-0.4618-0.69568-0.9646-1.3635-1.428-2.0581-0.2625-0.46791-0.7474-1.3723-1.0844-1.835-0.1478-0.20301-0.3667-0.35234-0.4943-0.56866-0.076-0.12836-0.054-0.29379-0.099-0.43611-0.09-0.28837-0.2431-0.65503-0.3636-0.951 0.1019-0.35155-0.087 0.27281 0.021 0.0728 0.2207-0.41009 0.1436-0.99055 0.1317-1.4261-0.042-1.4878-0.018-2.9764-0.016-4.4645 0.1443-0.4482-0.1052-0.94219 0-1.3947 0.021-0.0878 0.1318-0.12449 0.1855-0.19702 0.3205-0.43351 0.6189-0.83548 0.8817-1.3108 0.5012-0.75799 1.6777-2.2404 2.5883-2.5116 1.0081 0.35065 1.8815-0.35404 2.8765-0.37714 1.0254 0.0568 2.0522 0.10005 3.079 0.11888 0.3373 6e-3 0.678-0.0411 1.0119 7e-3 0.2497 0.0358 0.663 0.29015 0.8932 0.42026 0.4402 0.54539 0.083-0.01 0.2231 0.54906 0.052 0.21006 0.1546 0.40489 0.2176 0.61207 0.1992 0.65524 0.8501 1.362 0.8287 2.0487-0.1245 1.1616 0.1181 1.9456 0.1181 1.9456s-0.6227 2.8513-0.8196 2.1933c-0.082 0.0604-0.1678 0.11568-0.2457 0.18121-0.1896 0.15952-0.4934 0.44272-0.6795 0.6359-0.036 0.0375-0.1488 0.14056-0.1013 0.1191 0.1178-0.0532 0.4496-0.20845 0.3206-0.2182-0.2448-0.0185-0.4748 0.12572-0.7122 0.18857-0.2827 2e-3 -0.3754 0.28331-0.5812 0.39517-0.058 0.0316 0.065-0.17075 0.1287-0.1514 0.061 0.0186 0.235 0.0968 0.1732 0.0811-0.1759-0.0448-0.3452-0.11255-0.5178-0.16882-0.2036-0.0182-0.4054 7e-3 -0.6086 0.0164-0.7043 0.0347 0.049 0.99611 0.049 0.99611v0s0.2864-0.0219 0.4423-0.022c-0.1706-0.27338 0.3001 0.13999 0.5047 0.11738 0.4655-0.0514 0.4671-0.14395 0.7839-0.34198 0.2445-0.34356 0.015-0.0901 0.7967-0.26765 0.299-0.0679 0.495-0.70924 0.8457-0.76429 0.6616-0.80288 1.2157-3.0097 1.2157-3.0097s-0.2019-0.74983-0.081-1.895c0.035-1.1353-0.7413-1.8763-1.1143-2.9329-0.083-0.23853-0.1135-0.50142-0.2442-0.71771-0.1139-0.18855-0.3134-0.30966-0.47-0.46449-0.4787-0.25094-0.7833-0.4493-1.3607-0.5345-0.3265-0.0482-0.6601 5.2e-4 -0.9901-5e-3 -1.0523-0.0178-2.1035-0.0699-3.1544-0.12517-0.5938 0.0384-0.5921 7.9e-4 -1.1588 0.18527-0.161 0.0524-0.3161 0.12195-0.471 0.19043-0.098 0.0431-0.179 0.13918-0.2854 0.14403-0.4278 0.0195-0.8424-0.29361-1.2825-0.0729-1.2964 0.58604-2.3395 1.8003-3.0996 2.9734-0.3505 0.72754 0.024 0.0359-0.6058 0.86734-0.6238 0.82418-0.6291 1.5021-0.5722 2.4948 0 1.4975-0.025 2.9954 0.012 4.4926 0.01 0.30324 0.052 0.64252-0.026 0.94381-0.03 0.1183-0.095 0.2297-0.1035 0.35158-0.01 0.13856 0.034 0.27568 0.051 0.41352 0.2242 0.53021 0.3577 1.1696 0.6403 1.6644 0.098 0.17183 0.2827 0.27933 0.4001 0.43864 0.3393 0.46058 0.8491 1.4077 1.1007 1.8532 0.4544 0.68106 0.9465 1.3366 1.3995 2.0186 0.7269 1.0942 1.4198 2.2394 2.511 3.0258 0.7098 0.86766 1.1165 1.8721 1.7057 2.8231 0.2638 0.42559 0.5895 0.81026 0.8583 1.2326 2.1388 3.3609-0.5045-0.49675 1.6292 2.5615 0.3936 0.44432 0.7049 0.86057 1.2136 1.1847 0.046 0.0296 0.1218-0.0589 0.1636-0.0231 0.1394 0.11923 0.2133 0.29866 0.3269 0.44267 1.3614 1.7257 0.3968 0.32406 1.8841 2.7502 0.8889 1.4717 1.6908 2.933 2.7732 4.273 0.5034 0.62326 1.0864 1.1778 1.6181 1.7772 1.5868 1.7887 3.0402 3.7204 4.8908 5.2549 0.505 0.43252 1.0766 0.79735 1.5162 1.2962 0.1434 0.16264 0.1906 0.40167 0.3509 0.5476 0.043 0.0394 0.02-0.15332 0.078-0.15711 1.0852-0.0703 0.9976 0.46453 0.9983-0.17469 0-0.52933-9e-4 -1.0588 0-1.588 0-0.33057 0-0.66108 0.01-0.99156-0.01-0.39132-0.081-0.60365-0.025-1.0022 0.2573-0.98725 0.4925-1.7879 0.015-2.6738 0-1.5945 0.031-3.1892 0-4.7835-0.04-1.9737 0.025-3.9392 0-5.913-0.1142-1.4791 0.099-2.9481 0-4.4244-0.082-1.2225 0.3726-2.4681 0-3.6665-0.2728-1.1657 0.1317-2.3274 0-3.5203-0.1051-0.95148 0.045-1.8875 0-2.8438-0.021-0.45862-0.021-0.91732 0-1.376 0-1.3355 0.1784-1.8691 0-3.1818-0.1043-0.76897 0.089-1.5047 0-2.2756-0.1008-0.87759 0.136-1.7748 0-2.6501 0-3.9473 0.035-7.8945 0-11.842 0.014-2.2638-0.049-4.5234 0-6.7865 0.01-0.34751 0.1991-6.039 0-6.6582-0.085-0.26461 0.212 0.17985 0 0-0.1812 0.0449 0.1756-0.0635 0 0-0.1526 0.0552 0.095-0.13178 0 0-0.023 0.0324 0.04-4e-3 0 0-0.3838 0.0341 0.3881-0.17152 0 0-0.1528 0.0648 0.1448-0.0808 0 0-0.1007 0.0562 0.1122-0.0363 0 0-0.1994 0.0646 0.2092-0.0364 0 0-0.5028 4e-3 -7.8392 6e-5 -8.3421 0-0.5533 3e-3 -1.1066-7.2e-4 -1.6598 0-0.816-1.9e-4 -1.632 0-2.448 0-0.7554-3e-3 -1.5107-8e-3 -2.2662 0-2.7803 5e-3 -5.5612 0.0445-8.3412 0-1.8211-0.0383-3.6252 0.0127-5.4452 0-0.5064-0.0445-1.0152 0.0659-1.5193 0-0.1527-0.0199-2.85 0.0128-3.0103 0-1.1522-0.0917-2.3265 0.0163-3.4795 0-0.8175-0.0111-0.8403 0.15272-1.6494 0-0.9456-0.17848-1.2544 0.0595-2.2781 0-0.3068-0.0178-0.6125-0.0113-0.9195 0-0.3302 0.0122-0.6608-2e-3 -0.9912 0-1.2738-0.1303-2.4501 0.16876-3.7021 0-0.8155-0.10994-1.6694 0.0486-2.487 0-2.7054 0.0868-5.429 0.55725-8.1023 0-0.37156-0.0177-0.74619 0.0512-1.1147 0-0.84327-0.11647-1.3801 0.20958-2.2168 0-1.0923-0.27362-2.2506 0.0126-3.3778 0.0306-0.27544-0.0102-0.55124-0.0131-0.8263-0.0306-0.86037-0.0546-1.3952-0.24463-1.4061 0.83967 0.24798 0.1826 0.50618 0.35208 0.74393 0.54781 0.23282 0.19166-0.2443-0.0767-0.26284-0.16434-0.0315-0.14904 0.19336-1.2324 0.0413-1.2231-0.30717 0.0188-0.15684 1.6522-0.15066 1.7244 0.11597 0.21145 0.20134 0.44283 0.3479 0.63434 0.70048 0.91532 1.8373 1.4681 2.4823 2.4423 0.24533 0.35661 0.4535 0.74132 0.73254 1.0722 0.68222 0.80902 1.7288 1.1627 2.4926 1.8887 0.21165 0.18708 0.44727 0.35011 0.63495 0.56123 0.83062 0.93441 0.29419 0.74103 1.3366 1.6005 0.37632 0.31029 0.89999 0.41145 1.2658 0.73406 0.14805 0.13057 0.23434 0.31774 0.35152 0.47661 0.29345 0.48032 0.65566 1.1091 1.0185 1.5249 0.60644 0.69493 1.4185 1.1889 1.9824 1.9238 0.52885 0.78479 1.0399 1.5517 1.7478 2.1974 0.35068 0.31986 0.75648 0.57387 1.1232 0.87515 2.0042 1.6463 0.37508 0.46055 2.2681 1.7747 0.5923 0.32724 0.6283 0.27094 1.0328 0.7366 0.1681 0.19364 0.2825 0.43487 0.4722 0.60748 1.1914 1.0841 2.8327 1.5262 4.2507 2.1992 0.5686 0.17594 1.121 0.41766 1.7059 0.52783 0.3536 0.0666 0.7196-1e-3 1.0793-3e-3 1.1457-6e-3 2.2917-0.0373 3.4372-9e-3 1.4912 0.0654 3.051 0.28476 4.4777-0.27685 0.2392-0.037 0.4871-0.0373 0.7177-0.11109 0.5257-0.16829 2.0511-1.1302 2.1212-1.7331 0.2598-0.28089 0.507-0.50772 0.6304-0.90403 0.1532-0.49213-0.1057-1.2755 0.01-1.8052 0.01-0.60879-0.014-1.215-0.038-1.8229 0.098-0.86352 0.5007-2.1544-0.3594-2.7433-0.047 0.041-0.093 0.16286-0.1412 0.12307-0.077-0.0635 0.4342-1.4498-0.1933-1.6591-0.5125-0.56289-1.07-1.0559-1.7057-1.4794-0.6392-0.77734-1.1882-1.1384-2.2128-1.0021-1.515-0.63266-2.8733-0.0409-4.2594 0.70696-0.6649 0.22162-0.3515 1.1619 0.3134 0.94026z" fill="none" stroke="#faf5e2" stroke-linecap="round" stroke-linejoin="round" stroke-width="3"/><path d="m647.74 261.22c-0.905-0.49714-1.8649-0.93292-2.9133-0.98007-0.1841-8e-3 -0.466 0.17229-0.6398 0.24953-0.3503 0.25178-0.8898-0.10081-1.2359 0.0214-0.044 0.0155 0.057 0.10649 0.022 0.13761-0.6928 0.62481-0.328-0.0442-0.5814 0.50299-0.6214 0.50899-1.238 0.98211-1.7815 1.5744-0.06 0.067-0.1453 0.11815-0.1807 0.20101-0.021 0.0483 0.1028 0.0381 0.1134 0.0702 0.053 0.15999 0.1623 0.33226 0.1116 0.49296-0.08 0.25261-0.2231 0.4804-0.3347 0.7206-0.116 0.095-0.2509 0.17073-0.3481 0.28491-0.027 0.0322 0.1797 1.561 0.1995 1.721-6e-4 0.64295-0.041 1.2832-0.031 1.9268 0.106 0.58229-0.1381 1.249 0 1.8199 0.011 0.0438 0.094-0.0494 0.1329-0.0258 0.097 0.0597 0.1557 0.1671 0.2336 0.25065 0.077 0.18358 0.1289 0.38017 0.2317 0.55072 0.022 0.0357 0.085 0.0127 0.1207 0.0335 0.1312 0.0757 0.2549 0.16408 0.3772 0.25353 0.539 0.39426 0.8248 0.66302 1.495 0.69702 1.387 0.54471 2.8714 0.33613 4.3191 0.27386 1.1626-0.0326 2.3258 4e-3 3.4886 0.0111 0.358 2e-3 0.7223 0.0704 1.074 4e-3 0.4845-0.0921 0.9343-0.31615 1.4015-0.47423 1.318-0.63699 2.8731-1.0277 3.9688-2.0624 0.1128-0.10652 0.152-0.27248 0.2509-0.39201 0.4996-0.60378 0.5986-0.5648 1.3403-1.0109 1.7915-1.2412 0.2321-0.10817 2.1232-1.6625 0.3791-0.31158 0.7974-0.5758 1.1599-0.90645 0.6251-0.57007 1.0646-1.2795 1.528-1.9748 0.5796-0.8191 1.4739-1.3395 2.1279-2.0877 0.2171-0.24835 0.6679-1.0201 0.8506-1.3228 0.1325-0.1826 0.2313-0.39519 0.3974-0.54781 1.4407-1.3238 0.1767 0.13708 1.5685-1.0037 0.5386-0.44139 0.5713-0.80677 1.029-1.3186 0.2352-0.26314 0.5176-0.48001 0.7764-0.72001 0.6105-0.60652 1.4251-0.95453 2.1-1.4624 0.406-0.30547 0.6918-0.92175 0.9721-1.3289 0.6534-1.1301 2.2793-1.7684 2.7579-2.9552-0.8135-0.34763 0.2672-0.88985 0.6083-0.90532 0.1219-6e-3 0.4404 0.0327 0.3484 0.11291-0.1756 0.15298-0.4512 0.11548-0.6769 0.17322 0.1167 0.0817-0.073-0.104-0.053-0.0793 0.3214 0.39455 0.4328 0.36009-0.2607 0.4039-0.2997 0.0189-0.6001 0.0212-0.9002 0.0319-1.0783-0.0221-2.1862-1.2817-3.2308-1.0204-0.9815 0.24552-1.1714-0.1423-2.1681 0-0.4273 0.061-0.8617-0.0258-1.2926 0-2.7003 0.5546-5.455 0.0882-8.1876 0-0.8024 0.0542-1.6407-0.10801-2.441 0-0.3708 0.0499-0.7289-0.077-1.095 0-1.4905 0.31358-1.0453-0.1575-2.5187 0-0.3655 1.7e-4 -0.7313 0.0115-1.0967 0-0.3286-0.0103-0.6558-0.0183-0.984 0-0.6767 0.0378-1.3297-0.12569-1.9894 0-0.909 0.17318-0.9188-0.0209-1.8527 0-1.1674 0.0213-2.355-0.0934-3.5217 0-0.9511 0.0762-1.8724-0.12313-2.8186 0-0.531 0.0691-1.0666-0.0479-1.5999 0-1.8423 0.0331-3.6689-0.0374-5.5117 0-2.7873 0.0488-5.5752 1e-3 -8.3627 0-0.7569 3e-3 -1.5097 4e-3 -2.2657 0-0.8158-2e-3 -1.6316 0-2.4473 0-0.5533 6.9e-4 -1.1067-2e-3 -1.66 0-0.5029-1.1e-4 -7.8344-4e-3 -8.3372 0-0.5396 0.0322 0.5179 0.27654 0 0-0.8058-0.43026 0.5157 0.13822 0 0-0.6377 0.18381 0.5092 0.39679 0 0-0.059-0.0461 0.071 0.0231 0 0-0.036-0.0116-0.015-0.0345 0 0 0.094 0.0181-0.02-0.0936 0 0 0.092 0.42903-1e-3 -0.43871 0 0 0.01 0.79417-0.016 5.8492 0 6.6433 0.045 2.2662-0.013 4.5287 0 6.7955-0.03 3.9484-0.011 7.8968 0 11.845-0.1385 0.87608 0.097 1.7732 0 2.6514-0.094 0.83408 0.1132 1.6338 0 2.4655-0.1627 1.1957-7e-4 1.7741 0 2.9928 0.021 0.44344 0.021 0.88687 0 1.3303-0.048 1.0148 0.1121 2.0102 0 3.02-0.2463 0.84818 0.09 1.7226 0 2.5786-0.036 0.34662 0.071 0.68236 0 1.0236-0.3585 1.1275 0.08 2.3004 0 3.4511-0.1045 1.5038 0.1116 2.9949 0 4.5016-0.014 1.9554 0.034 3.902 0 5.8575-0.036 1.5873 0 3.1751 0 4.7627-0.2896 1.0982 0.695 1.3527 0.9759 2.4235 0.095 0.41972 0.023 0.83518 0.01 1.2549 0.01 0.33197 0.01 0.66384 0.01 0.99588-9e-4 0.5278 0 1.0558 0 1.5836-1e-4 0.0873 0.086 0.24691-4e-4 0.26197-0.3289 0.0576-0.7823 0.1677-0.998-0.0872-0.1569-0.18532 0.2913-0.389 0.4218-0.59369 0.06-0.0946 0.075-0.21774 0.1492-0.3017 0.3504-0.39546 1.3981-1.2558 1.7338-1.5412 1.8186-1.4961 3.2431-3.3886 4.7967-5.1409 0.5367-0.60528 1.1241-1.1665 1.6319-1.7962 0.9631-1.1942 1.8894-2.8415 2.6643-4.1198 1.515-2.4944 0.5027-0.99087 1.944-2.8646 0.1021-0.1327 0.1605-0.30423 0.2903-0.40988 0.1784-0.14508 0.422-0.18971 0.6098-0.3223 0.3356-0.23691 0.5587-0.60257 0.8294-0.91156 2.0164-2.8894-0.5427 0.84213 1.5232-2.4006 0.2831-0.44438 0.6228-0.85131 0.9005-1.2991 0.6032-0.97282 1.0316-1.9754 1.7366-2.8805 1.0577-0.76427 1.7343-1.854 2.4387-2.9153 0.4618-0.69568 0.9646-1.3635 1.428-2.0581 0.2625-0.46791 0.7474-1.3723 1.0844-1.835 0.1478-0.20301 0.3667-0.35234 0.4943-0.56866 0.076-0.12836 0.054-0.29379 0.099-0.43611 0.09-0.28837 0.2431-0.65503 0.3636-0.951-0.1019-0.35155 0.087 0.27281-0.021 0.0728-0.2207-0.41009-0.1436-0.99055-0.1317-1.4261 0.042-1.4878 0.018-2.9764 0.016-4.4645-0.1443-0.4482 0.1052-0.94219 0-1.3947-0.021-0.0878-0.1318-0.12449-0.1855-0.19702-0.3205-0.43351-0.6189-0.83548-0.8817-1.3108-0.5012-0.75799-1.6777-2.2404-2.5883-2.5116-1.0081 0.35065-1.8815-0.35404-2.8765-0.37714-1.0254 0.0568-2.0522 0.10005-3.079 0.11888-0.3373 6e-3 -0.678-0.0411-1.0119 7e-3 -0.2497 0.0358-0.663 0.29015-0.8932 0.42026-0.4402 0.54539-0.083-0.01-0.2231 0.54906-0.052 0.21006-0.1546 0.40489-0.2176 0.61207-0.1992 0.65524-0.8501 1.362-0.8287 2.0487 0.1245 1.1616-0.1181 1.9456-0.1181 1.9456s0.6227 2.8513 0.8196 2.1933c0.082 0.0604 0.1678 0.11568 0.2457 0.18121 0.1896 0.15952 0.4934 0.44272 0.6795 0.6359 0.036 0.0375 0.1488 0.14056 0.1013 0.1191-0.1178-0.0532-0.4496-0.20845-0.3206-0.2182 0.2448-0.0185 0.4748 0.12572 0.7122 0.18857 0.2827 2e-3 0.3754 0.28331 0.5812 0.39517 0.058 0.0316-0.065-0.17075-0.1287-0.1514-0.061 0.0186-0.235 0.0968-0.1732 0.0811 0.1759-0.0448 0.3452-0.11255 0.5178-0.16882 0.2036-0.0182 0.4054 7e-3 0.6086 0.0164 0.70428 0.0347-0.049 0.99611-0.049 0.99611v0s-0.2864-0.0219-0.4423-0.022c0.1706-0.27338-0.3001 0.13999-0.5047 0.11738-0.4655-0.0514-0.4671-0.14395-0.7839-0.34198-0.2445-0.34356-0.015-0.0901-0.7967-0.26765-0.299-0.0679-0.495-0.70924-0.8457-0.76429-0.6616-0.80288-1.2157-3.0097-1.2157-3.0097s0.2019-0.74983 0.081-1.895c-0.035-1.1353 0.7413-1.8763 1.1143-2.9329 0.083-0.23853 0.1135-0.50142 0.2442-0.71771 0.1139-0.18855 0.3134-0.30966 0.47-0.46449 0.4787-0.25094 0.7833-0.4493 1.3607-0.5345 0.3265-0.0482 0.6601 5.2e-4 0.9901-5e-3 1.0523-0.0178 2.1035-0.0699 3.1544-0.12517 0.5938 0.0384 0.5921 7.9e-4 1.1588 0.18527 0.161 0.0524 0.3161 0.12195 0.471 0.19043 0.098 0.0431 0.179 0.13918 0.2854 0.14403 0.4278 0.0195 0.8424-0.29361 1.2825-0.0729 1.2964 0.58604 2.3395 1.8003 3.0996 2.9734 0.3505 0.72754-0.024 0.0359 0.6058 0.86734 0.6238 0.82418 0.6291 1.5021 0.5722 2.4948 0 1.4975 0.025 2.9954-0.012 4.4926-0.01 0.30324-0.052 0.64252 0.026 0.94381 0.03 0.1183 0.095 0.2297 0.1035 0.35158 0.01 0.13856-0.034 0.27568-0.051 0.41352-0.2242 0.53021-0.3577 1.1696-0.6403 1.6644-0.098 0.17183-0.2827 0.27933-0.4001 0.43864-0.3393 0.46058-0.8491 1.4077-1.1007 1.8532-0.4544 0.68106-0.9465 1.3366-1.3995 2.0186-0.7269 1.0942-1.4198 2.2394-2.511 3.0258-0.7098 0.86766-1.1165 1.8721-1.7057 2.8231-0.2638 0.42559-0.5895 0.81026-0.8583 1.2326-2.1388 3.3609 0.5045-0.49675-1.6292 2.5615-0.3936 0.44432-0.7049 0.86057-1.2136 1.1847-0.046 0.0296-0.1218-0.0589-0.1636-0.0231-0.1394 0.11923-0.2133 0.29866-0.3269 0.44267-1.3614 1.7257-0.3968 0.32406-1.8841 2.7502-0.8889 1.4717-1.6908 2.933-2.7732 4.273-0.5034 0.62326-1.0864 1.1778-1.6181 1.7772-1.5868 1.7887-3.0402 3.7204-4.8908 5.2549-0.505 0.43252-1.0766 0.79735-1.5162 1.2962-0.1434 0.16264-0.1906 0.40167-0.3509 0.5476-0.043 0.0394-0.02-0.15332-0.078-0.15711-1.0852-0.0703-0.9976 0.46453-0.9983-0.17469 0-0.52933 9e-4 -1.0588 0-1.588 0-0.33057 0-0.66108-0.01-0.99156 0.01-0.39132 0.081-0.60365 0.025-1.0022-0.2573-0.98725-0.4925-1.7879-0.015-2.6738 0-1.5945-0.031-3.1892 0-4.7835 0.04-1.9737-0.025-3.9392 0-5.913 0.1142-1.4791-0.099-2.9481 0-4.4244 0.082-1.2225-0.3726-2.4681 0-3.6665 0.2728-1.1657-0.1317-2.3274 0-3.5203 0.1051-0.95148-0.045-1.8875 0-2.8438 0.021-0.45862 0.021-0.91732 0-1.376 0-1.3355-0.1784-1.8691 0-3.1818 0.1043-0.76897-0.089-1.5047 0-2.2756 0.1008-0.87759-0.136-1.7748 0-2.6501 0-3.9473-0.035-7.8945 0-11.842-0.014-2.2638 0.049-4.5234 0-6.7865-0.01-0.34751-0.1991-6.039 0-6.6582 0.085-0.26461-0.212 0.17985 0 0 0.1812 0.0449-0.1756-0.0635 0 0 0.1526 0.0552-0.095-0.13178 0 0 0.023 0.0324-0.04-4e-3 0 0 0.3838 0.0341-0.3881-0.17152 0 0 0.1528 0.0648-0.1448-0.0808 0 0 0.1007 0.0562-0.1122-0.0363 0 0 0.1994 0.0646-0.2092-0.0364 0 0 0.5028 4e-3 7.8392 6e-5 8.3421 0 0.5533 3e-3 1.1066-7.2e-4 1.6598 0 0.816-1.9e-4 1.632 0 2.448 0 0.7554-3e-3 1.5107-8e-3 2.2662 0 2.7803 5e-3 5.5612 0.0445 8.3412 0 1.8211-0.0383 3.6252 0.0127 5.4452 0 0.5064-0.0445 1.0152 0.0659 1.5193 0 0.1527-0.0199 2.85 0.0128 3.0103 0 1.1522-0.0917 2.3265 0.0163 3.4795 0 0.8175-0.0111 0.8403 0.15272 1.6494 0 0.9456-0.17848 1.2544 0.0595 2.2781 0 0.3068-0.0178 0.6125-0.0113 0.9195 0 0.3302 0.0122 0.6608-2e-3 0.9912 0 1.2738-0.1303 2.4501 0.16876 3.7021 0 0.8155-0.10994 1.6694 0.0486 2.487 0 2.7054 0.0868 5.4291 0.55725 8.1024 0 0.3715-0.0177 0.7461 0.0512 1.1146 0 0.8433-0.11647 1.3801 0.20958 2.2168 0 1.0923-0.27362 2.2506 0.0126 3.3778 0.0306 0.2755-0.0102 0.5513-0.0131 0.8263-0.0306 0.8604-0.0546 1.3952-0.24463 1.4061 0.83967-0.248 0.1826-0.5062 0.35208-0.7439 0.54781-0.2329 0.19166 0.2443-0.0767 0.2628-0.16434 0.032-0.14904-0.1934-1.2324-0.041-1.2231 0.3072 0.0188 0.1568 1.6522 0.1507 1.7244-0.116 0.21145-0.2014 0.44283-0.3479 0.63434-0.7005 0.91532-1.8374 1.4681-2.4824 2.4423-0.2453 0.35661-0.4535 0.74132-0.7325 1.0722-0.6822 0.80902-1.7288 1.1627-2.4926 1.8887-0.2117 0.18708-0.4473 0.35011-0.635 0.56123-0.8306 0.93441-0.2941 0.74103-1.3365 1.6005-0.3764 0.31029-0.9 0.41145-1.2658 0.73406-0.1481 0.13057-0.2344 0.31774-0.3516 0.47661-0.2934 0.48032-0.6556 1.1091-1.0185 1.5249-0.6064 0.69493-1.4185 1.1889-1.9823 1.9238-0.5289 0.78479-1.04 1.5517-1.7479 2.1974-0.3506 0.31986-0.7564 0.57387-1.1232 0.87515-2.0042 1.6463-0.3751 0.46055-2.2681 1.7747-0.5923 0.32724-0.6283 0.27094-1.0328 0.7366-0.1681 0.19364-0.2825 0.43487-0.4722 0.60748-1.1914 1.0841-2.8327 1.5262-4.2507 2.1992-0.5686 0.17594-1.121 0.41766-1.7059 0.52783-0.3536 0.0666-0.7196-1e-3 -1.0793-3e-3 -1.1457-6e-3 -2.2917-0.0373-3.4372-9e-3 -1.4912 0.0654-3.051 0.28476-4.4777-0.27685-0.2392-0.037-0.4871-0.0373-0.7177-0.11109-0.5257-0.16829-2.0511-1.1302-2.1212-1.7331-0.2598-0.28089-0.507-0.50772-0.6304-0.90403-0.1532-0.49213 0.1057-1.2755-0.01-1.8052-0.01-0.60879 0.014-1.215 0.038-1.8229-0.098-0.86352-0.5007-2.1544 0.3594-2.7433 0.047 0.041 0.093 0.16286 0.1412 0.12307 0.077-0.0635-0.4342-1.4498 0.1933-1.6591 0.5125-0.56289 1.07-1.0559 1.7057-1.4794 0.6392-0.77734 1.1882-1.1384 2.2128-1.0021 1.515-0.63266 2.8733-0.0409 4.2594 0.70696 0.6649 0.22162 0.3515 1.1619-0.3134 0.94026z" fill="none" stroke="#faf5e2" stroke-linecap="round" stroke-linejoin="round" stroke-width="3"/><g transform="matrix(-.88097 0 0 -.88097 1583.7 914.33)"><path transform="matrix(1 0 -.02945 .99957 0 0)" d="m745.45 512.8c0 12.294-7.704 41.672-18.396 44.4-12.979 3.3112-16.832 2.742-23.24 1.5041-11.178-2.1593-20.936-6.3675-28.355-14.424s-12.009-19.186-12.009-31.48c0-24.587 18.356-44.519 41-44.519s41 19.932 41 44.519z" fill="#0a0f20" stroke="#0a0f20" stroke-linecap="round" stroke-linejoin="round" stroke-width="3.0006"/><path d="m1035.1 504.41c0 5.8616-0.8068 11.446-2.2659 16.525-1.459 5.079-3.5703 9.653-6.1792 13.494-2.609 3.8412 1.7091 9.4247-1.7405 11.573s-14.667 0.86129-18.648 0.86128c-15.924-3e-5 -28.833-19.007-28.833-42.453s12.909-42.453 28.833-42.453c15.924-3e-5 28.834 19.007 28.834 42.453z" fill="#162149" stroke="#162149" stroke-linecap="round" stroke-linejoin="round" stroke-width="3.0939"/><path d="m801.15 425.64 14.385-25.749 88.974-3.5858-23.456 42.77-34.648-9.8995z" fill="#dcdfed" stroke="#3e4b78" stroke-linecap="round" stroke-linejoin="round" stroke-width="3"/><ellipse cx="1020.2" cy="504.41" rx="28.833" ry="42.453" fill="#3e4b78" stroke="#162149" stroke-linecap="round" stroke-linejoin="round" stroke-width="3.0939"/><path d="m706.07 451.41-22.536-2s-13.057-0.72651-19.172 1.1716c-4.6367 1.4393-9.5 3.6714-12.485 7.5-2.2383 2.8706-4.1098 6.9326-3.1716 10.45 0.72196 2.7065 3.5439 4.6604 6.1213 5.7574 3.5952 1.5301 7.8089 0.85221 11.707 0.58579 4.2218-0.28854 12.475-2.3536 12.475-2.3536l14.99-1.5251 17 2z" fill="#243578" stroke="#000" stroke-linejoin="bevel" stroke-width="2"/><ellipse cx="1024.1" cy="505.36" rx="15.089" ry="25.161" fill="#8c98c4" stroke="#acb4cb" stroke-linecap="round" stroke-linejoin="round" stroke-width="1.8337"/><ellipse transform="matrix(1 0 -.02945 .99957 0 0)" cx="716.51" cy="514.8" rx="41" ry="44.519" fill="#162149" stroke="#0a0f20" stroke-linecap="round" stroke-linejoin="round" stroke-width="3.0006"/><path d="m659.54 501.84s7.0272-11.948 11.596-17.102c4.1242-4.6523 9.7091-7.8125 14.071-12.243 3.8981-3.959 7.2704-8.4067 10.744-12.743 4.0835-5.0966 7.5328-10.704 11.864-15.592 3.296-3.7197 6.5705-7.6143 10.692-10.391 5.3393-3.5967 17.678-7.7782 17.678-7.7782l57.562-0.54278 57.964 0.46738s12.303 4.4493 18.738 4.7175c3.1028 0.12934 6.1005-1.2246 9.1924-1.5147 36.754-3.4487 73.992-6.4048 110.71-2.636 5.179 0.53151 10.744 0.86472 15.213 3.5355 6.4306 3.8432 14.849 16.87 14.849 16.87s10.12-0.059 14.485 2.1213c5.7428 2.868 10.1 8.2263 13.678 13.556 4.1224 6.1423 6.533 13.371 8.4853 20.506 1.9804 7.2379 3.1821 22.286 3.1821 22.286l-11.18-0.9512s-0.8478-14.321-3.6794-20.749c-2.5759-5.8477-5.9366-12.384-11.667-15.21-3.4879-1.7204-8.1476-1.6543-11.667 0-5.9597 2.8011-10.131 9.1081-12.606 15.21-3.3778 8.3254-2.2151 17.886-2.1213 26.87 0.049 4.7373 1.4141 14.142 1.4141 14.142l-76.146 14.142-23.255 0.70711-31.113-12.021-38.184-23.335-14.142-15.556-51.619-2.8284-25.456 31.113-9.1924 17.854-18.097-4.5702-39.482-10.132-20.419-4.8994z" fill="#2b3f8f" stroke="#162149" stroke-linecap="round" stroke-linejoin="round" stroke-width="3"/><path d="m835.49 536.67c0 12.828-16.353 40.563-22.955 44.161-6.9039 3.7621-10.184 2.2921-22.826 2.2921-25.284 0-45.781-20.798-45.781-46.453s20.497-46.453 45.781-46.453 45.781 20.798 45.781 46.453z" fill="#162149" stroke="#162149" stroke-linecap="round" stroke-linejoin="round" stroke-width="3"/><path d="m704.68 451.84c-0.8948 9.0435-1.8306 18.127-1.6464 27.213 0.10864 5.3616 1.1354 10.665 1.6213 16.006 0.39826 4.3769 1.0607 13.142 1.0607 13.142l4.9246 14.349 20.506-9.1924 10.253-3.182s4.8926-12.597 6.7175-19.092c3.1585-11.241 6.028-22.654 7.2855-34.262 0.69008-6.3697 2.2554-13.179 0.12132-19.221-1.1268-3.1898-3.6826-5.8752-6.4246-7.8566-2.323-1.6787-5.236-2.4317-8.0282-3.0784-3.025-0.70064-6.1789-1.017-9.2782-0.82843-3.8992 0.23724-7.8292 1.0089-11.46 2.4497-2.8711 1.1393-5.6038 2.765-7.9246 4.8033-2.494 2.1904-4.9079 4.7282-6.2175 7.7782-1.4564 3.3919-1.147 7.2972-1.5104 10.971z" fill="#acb4cb" stroke="#8c98c4" stroke-linejoin="bevel" stroke-width="3"/><ellipse cx="689.41" cy="454.62" rx="13" ry="20.5" fill="#8c98c4" stroke="#acb4cb" stroke-linecap="round" stroke-linejoin="round" stroke-width="3"/><path d="m653.61 502.1-0.67157 8.2071s7.1336 7.2202 11.518 9.636c9.7965 5.3981 21.069 7.6661 31.95 10.255 11.766 2.7996 23.842 4.1286 35.839 5.659 5.7593 0.73465 17.336 1.6893 17.336 1.6893l0.16421-7.3002s-17.18-1.3581-25.689-2.6642c-10.698-1.6421-21.379-3.6208-31.814-6.4911-8.0611-2.2172-16.263-4.405-23.683-8.2589-5.4438-2.8278-14.95-10.732-14.95-10.732z" fill="#8c98c4" stroke="#3e4b78" stroke-linecap="round" stroke-linejoin="round" stroke-width="3"/><g fill="none" stroke-linejoin="bevel" stroke-width="3"><path d="m722.66 517.96c1.9672-28.457 2.3657-52.993 6.0306-85.694" stroke="#8c98c4"/><path d="m729.29 513.64c2.1863-25.838-0.0165-40.264 6.6339-77.709" stroke="#8c98c4"/><path d="m736.27 511.77c0.1778-25.137 1.3333-49.492 6.1872-70.887" stroke="#8c98c4"/><path d="m715.95 517.25c2.0036-28.565 2.2155-57.129 6.0306-85.694" stroke="#3e4b78"/><path d="m710.29 518.66c2.0036-28.565 1.862-57.129 5.677-85.694" stroke="#3e4b78"/><path d="m706.75 508.58c0.33965-27.504-0.5771-42.451 2.495-71.016" stroke="#3e4b78"/><path d="m741.27 508.77c1.6778-24.637-0.16673-37.992 4.6872-59.387" stroke="#8c98c4"/></g><path d="m706 440c1.1878-2.0358 2.9686-3.8047 5-5 3.1373-1.846 6.8665-2.7824 10.5-3 4.2121-0.25228 8.5963 0.39787 12.5 2 2.6527 1.0887 5.1872 2.7783 7 5 2.0755 2.5437 3.3388 5.7843 4 9 2.6519 12.898-0.5 39.5-0.5 39.5s-21.509-2.4508-32-5c-3.0729-0.74669-9-3-9-3s-0.48285-8.997-0.5-13.5c-0.0216-5.6691-0.34816-11.395 0.5-17 0.46583-3.0786 0.93089-6.3107 2.5-9z" fill="none" stroke="#8c98c4" stroke-linejoin="bevel" stroke-width="3"/><path d="m654.61 500.1 3.4645-4.1716s3.3398 5.6313 6.1893 6.6716c3.2408 1.1831 6.8243-1.3923 10.272-1.2678 3.7642 0.13592 7.7772 0.38903 11.086 2.1893 2.1815 1.187 5.182 5.3536 5.182 5.3536s11.819-0.54666 17.658 0.19975c5.8163 0.74352 11.564 2.2271 17.074 4.2322 5.1674 1.8804 9.5585 5.6454 14.818 7.25 3.8965 1.1888 12.107 1.6716 12.107 1.6716l-3.4645 7.7678s-8.5214-1.6446-12.536-3.227c-4.0742-1.6061-7.4308-4.7616-11.536-6.2877-5.8942-2.1914-12.18-3.3807-18.439-3.9853-6.1998-0.59885-18.682 0.37868-18.682 0.37868s-3.4992-5.0436-6.0502-6.5858c-2.8525-1.7244-6.3355-2.3945-9.6642-2.568-4.0364-0.2104-8.3313 3.6193-11.979 1.8787-3.3024-1.5758-5.5-9.5-5.5-9.5z" fill="#8c98c4" stroke="#3e4b78" stroke-linecap="round" stroke-linejoin="round" stroke-width="3"/><path d="m979 523s1.5679-26.333 4.5355-39.121c1.9752-8.5116 3.3505-17.843 8.7574-24.707 4.3157-5.4788 10.92-9.2047 17.536-11.414 3.5402-1.1824 7.44-0.83754 11.172-0.75736 3.0178 0.0648 9 1 9 1" fill="none" stroke="#162149" stroke-linejoin="bevel" stroke-width="2"/><ellipse cx="749" cy="463.5" rx="13" ry="20.5" fill="#8c98c4" stroke="#acb4cb" stroke-linecap="round" stroke-linejoin="round" stroke-width="3"/><path d="m829.97 424.65s15.971 1.668 23.754 3.5429c5.394 1.2994 11.155 2.2384 15.775 5.3107 3.6531 2.4293 8.6967 9.8787 8.6967 9.8787l31.803-1.8787 57-4h32l15.057 0.70708s-5.1858-6.7118-8.8501-8.5606c-5.7201-2.886-12.562-2.7897-18.957-3.1716-24.018-1.4343-66.685 0.62943-99.997-0.53553-9.7012-0.33926-19.356-1.6698-29.061-1.8787-9.0739-0.19531-27.222 0.58579-27.222 0.58579z" fill="#acb4cb" stroke="#8c98c4" stroke-linejoin="bevel" stroke-width="2"/><path d="m949.38 425.03s5.8818 0.50164 8.2527 2.0561c3.8343 2.514 6.2433 6.853 8.3713 10.914 4.5501 8.6838 7.1602 18.371 9 28 1.8808 9.8441 1.4878 19.991 2 30 0.47734 9.3271 1 28 1 28" fill="none" stroke="#162149" stroke-linecap="round" stroke-linejoin="bevel" stroke-width="2"/><path d="m888.75 425s5.0496 1.7676 7 3.5c2.834 2.5172 4.6134 6.081 6.25 9.5 4.2329 8.8427 7.1602 18.371 9 28 1.8808 9.8441 1.4878 19.991 2 30 0.47734 9.3271 1 28 1 28" fill="none" stroke="#162149" stroke-linejoin="bevel" stroke-width="2"/><path d="m919.52 490.97c0 23.438-13.159 42.438-29.391 42.438s-29.391-19-29.391-42.438c0-23.438 13.159-42.438 29.391-42.438 8.116 0 16.171-1.9674 24.318 3.2375 7.8723 5.0294 5.0728 27.482 5.0728 39.201z" fill="#162149" stroke="#162149" stroke-linecap="round" stroke-linejoin="round" stroke-width="3.1232"/><ellipse cx="904.4" cy="490.97" rx="29.391" ry="42.438" fill="#3e4b78" stroke="#162149" stroke-linecap="round" stroke-linejoin="round" stroke-width="3.1219"/><ellipse cx="801.71" cy="536.67" rx="45.781" ry="46.453" fill="#3e4b78" stroke="#162149" stroke-linecap="round" stroke-linejoin="round" stroke-width="3"/><path d="m750.58 505.48c4.3578 2.394 9.9035 1.926 14.849 1.4142 7.0004-0.72445 13.203-5.2199 20.163-6.2635 15.284-2.2915 32.757-7.1655 46.363 0.16422 6.916 3.7258 7.2439 14.326 13.034 19.635 8.7074 7.9835 19.796 13.582 31.113 16.971 13.707 4.1039 28.488 4.2264 42.78 3.5355 30.403-1.4696 89.855-16.263 89.855-16.263l-31.477-0.0711s-36.623 8.8633-55.196 8.026c-10.894-0.49109-21.893-3.0865-31.82-7.6014-12.383-5.6324-21.875-16.202-33.234-23.688-11.055-7.2849-21.846-15.244-33.941-20.627-8.9926-4.0027-18.483-7.5744-28.284-8.4853-7.7886-0.72388-15.859 0.18337-23.335 2.4853-8.431 2.596-18.048 5.4228-23.335 12.485-2.4322 3.2495-3.4017 7.9662-2.4853 11.92 0.60678 2.618 2.5944 5.07 4.9498 6.364z" fill="#243578" stroke="#162149" stroke-linecap="round" stroke-linejoin="round" stroke-width="3"/><path d="m871.5 525c10.755 5.4114 21.902 10.271 33.5 13.5 5.0417 1.4035 15.5 2.5 15.5 2.5s-30.168 0.64829-44.395-3.5988c-11.32-3.3794-31.113-16.971-31.113-16.971-2.1069-5.3295-6.2496-11.765-13.034-19.635 0 0 25.737 17.258 39.542 24.204z" fill="#0a0f20" stroke="#162149" stroke-linecap="round" stroke-linejoin="bevel" stroke-width="3"/><ellipse cx="906.4" cy="490.97" rx="17.053" ry="24.623" fill="#8c98c4" stroke="#acb4cb" stroke-linecap="round" stroke-linejoin="round" stroke-width="2"/><ellipse cx="866.5" cy="446.5" rx="8.5" ry="11.5" fill="#8c98c4" stroke="#acb4cb" stroke-linejoin="bevel" stroke-width="2"/><path d="m1009.4 483.66s7.9449-17.914 15.858-22.627c5.3-3.1568 12.52-4.0358 18.385-2.1213 3.088 1.0081 7.1569 6.614 7.1569 6.614" fill="none" stroke="#162149" stroke-linejoin="bevel" stroke-width="2"/><path d="m1009.4 483.66s6.6468-12.409 12.606-15.21c3.5197-1.6543 8.1794-1.7204 11.667 0 5.7307 2.8266 9.0914 9.3625 11.667 15.21 2.8316 6.4281 3.6794 20.749 3.6794 20.749l11.18 0.9512s-1.3896-14.999-3.1821-22.286c-1.4825-6.0265-2.8041-12.367-6.2192-17.549-1.7875-2.7123-4.0689-5.6058-7.1569-6.614-5.8643-1.9145-13.085-1.0355-18.385 2.1213-7.913 4.7132-15.858 22.627-15.858 22.627z" fill="#0a0f20" stroke="#162149" stroke-linecap="round" stroke-linejoin="bevel" stroke-width="3.1219"/><path d="m793.75 425.45s31.09-0.64465 36.224-0.8053 11.541-0.55533 16.284-0.52399c0.68176 5e-3 10.329-0.0745 10.937-0.0618 4.587 0.0953 13.737 0.86732 13.737 0.86732s14.469 0.79017 39.385 0.58047 60.28-1.4193 80.041 0.97748c5.1683 0.62684 10.744 0.86472 15.213 3.5355 6.4306 3.8432 14.849 16.87 14.849 16.87" fill="none" stroke="#162149" stroke-linecap="round" stroke-linejoin="round" stroke-width="3"/><path d="m904.51 396.3-22.218 40.825" fill="#8c98c4" stroke="#3e4b78" stroke-linejoin="bevel" stroke-width="4"/><ellipse cx="803.71" cy="536.67" rx="28.37" ry="28.786" fill="#8c98c4" stroke="#acb4cb" stroke-linecap="round" stroke-linejoin="round" stroke-width="2"/></g><g fill="#b90000" stroke="#b90000" stroke-linejoin="round" stroke-width="8.7621"><path transform="matrix(1.0271 0 0 1.0271 -23.672 -13.149)" d="m1038 476.75q-0.1059 0.027-4.9403 1.2015-2.5563 0.59451-3.6823 0.82481-1.1125 0.28327-1.0595 0.26978-2.9255-14.148-5.8612-24.569l-1.2391-4.423q-0.2428-0.95358 0.181-1.0615 0.3179-0.0809 0.4248 0.11748 0.1205 0.25139 0.5771 1.6018 0.7929 2.4494 2.1183 2.3376 0.7157-0.0694 1.5633-0.28524l26.859-6.839q3.1786-0.80936 3.483-0.94327 0.8341-0.2688 1.0305-0.82652 0.1965-0.55773-0.1812-2.0411-0.4182-1.6423 0.059-1.7637 0.5298-0.13489 0.894 1.2955 0.3777 1.4833 1.0916 4.0657 2.694 9.6937 4.1663 15.919l0.8642 3.6159q0.2968 1.1655 0.9404 2.8068l-5.653 1.9471q-2.6874 0.96632-3.3231 1.1282-0.5297 0.13489-0.6646-0.39487t1.202-1.0394q3.534-1.4076 4.5422-4.3156 1.0748-2.8686-0.1528-7.6894-0.3777-1.4833-1.4539-5.0453l-15.628 3.9793q1.4309 5.8409 2.6562 7.1084 1.2918 1.307 5.082 0.906 2.0276-0.23422 2.1625 0.29554 0.1214 0.47679-0.8322 0.7196-0.9535 0.2428-3.9607 0.83927-1.02 0.20332-2.7153 0.63498-4.5559 1.1601-6.8599 1.8596-0.3044 0.13391-0.7812 0.25532-0.6357 0.16187-0.7571-0.31492-0.094-0.37083 0.09-0.53074 0.2379-0.1734 1.6673-0.76301 3.6264-1.4875 4.2842-2.6704 0.7243-1.1434-0.1255-4.4809l-0.9173-3.6024-17.853 4.5459 0.9163 3.377q1.5897 5.8004 2.0724 7.0314 0.6166 1.5353 1.9479 2.7759 1.3967 1.0546 2.7366 1.2212 1.3533 0.21951 4.7862-0.0341 0.8351-0.0434 0.9296 0.32742 0.1079 0.42381-0.6868 0.62615z" style="white-space:pre"/><path transform="matrix(1.0271 0 0 1.0271 -23.672 -13.149)" d="m1032.7 445.78q-0.5184 0.17353-1.1259-1.8137-0.7291-2.3501-1.8697-2.1412-0.6568 0.10455-4.1301 1.2672-1.1923 0.39911-2.108 0.76329-6.264-4.7634-8.1381-10.362-2.464-7.3612 1.0541-14.073 3.5355-6.66 11.26-9.2455 8.1906-2.7417 15.334 0.51659t9.7119 10.931q1.0585 3.1622 0.6312 7.0524-0.1538 1.435 0 1.9016 0.2776 0.82943 1.7127 0.98321 0.7088 0.051 0.8129 0.362 0.1215 0.36288-0.3969 0.5364-0.1037 0.0347-2.1256 0.53858-0.6395 0.15639-2.9723 0.93725-1.7625 0.58999-3.5422 1.301t-1.7797 0.71101q-0.9849 0.3297-1.1584-0.18869-0.243-0.72576 1.7439-1.679 4.3536-2.1491 6.1992-5.4187 1.3281-2.4046 0.2696-5.5668-3.2796-9.7977-20.698-3.9673-10.834 3.6267-14.01 8.2636-2.0189 2.9241-0.891 6.2936 1.4229 4.2508 6.8142 2.4462 4.0435-1.3535 4.3886-1.8725 0.4143-0.48456-0.054-1.8842l-0.4338-1.296q-0.3644-1.0886 0.1021-1.2448 0.4666-0.15617 0.7616 0.7251 0.6073 1.8144 1.4751 4.5792l1.0588 3.3351q0.3297 0.98495 1.0929 3.093 0.8325 2.1426 1.0408 2.7646l0.2255 0.67392q0.2083 0.62207-0.2583 0.77824z" style="white-space:pre"/><path transform="matrix(1.0271 0 0 1.0271 -23.672 -13.149)" d="m1013.6 392.5q0.1152-0.12887 0.7116-0.84784 4.419-5.0464 6.1608-7.1762 0.4812-0.59009 1.4232-1.6957l0.6914-0.77325q-2.5291 0.31288-6.8412 1.1418-4.8206 0.93079-6.7869 1.2367 0.2443 0.42708 0.6446 1.0168 0.3257 0.56945 0.5971 1.044l1.5198 2.6574q0.6243 1.0914 1.8796 3.3963z" style="white-space:pre"/><path transform="matrix(1.0271 0 0 1.0271 -23.672 -13.149)" d="m1011.2 413.94q-0.3796 0.21712-0.6917-0.10823-0.2374-0.30503-1.0787-1.7761-0.2172-0.37963-1.1739-2.1626-1.9135-3.5658-2.6734-4.8946-0.8957-1.566-1.6216-2.7252-1.452-2.3184-1.9405-3.1726-0.7328-1.2812-0.2583-1.5526 0.4746-0.27141 2.069 2.4063 0.38 0.66435 0.6649 0.94225 0.5291 0.70497 1.0037 0.43357 0.2373-0.1357 1.6673-1.7094l2.5146-2.7606q0.8811-0.88182 3.1381-3.4322l-0.4886-0.85416-2.0695-3.7285q-1.0924-2.0202-2.4629-4.1962-1.1934 0.11573-5.1936 0.82923l-3.6816 0.72015q-0.84751 0.16984-1.2746 0.41411-0.80671 0.46139-0.44689 1.6411 0.0883 0.26441 1.1401 2.4338 0.33252 0.69149-0.0471 0.90862-0.42708 0.24426-0.91561-0.6099l-4.4307-7.857q-0.2103-0.25758-0.40028-0.58976-0.37997-0.66435 0.0946-0.93575 0.28472-0.16284 1.221 1.2539 1.1805 1.8439 2.096 2.013t4.9631-0.57148q2.8884-0.4554 8.5159-1.4068l19.086-3.2959q1.2883-0.17001 3.9528-0.68635 1.912-0.40079 2.0748-0.11607 0.1629 0.28472-1.5857 2.2924-2.257 2.5504-17.337 20.999-1.9247 2.3604-3.9444 4.775-1.7215 2.0552-1.7346 3.1333-0.027 0.83402 1.3505 3.1321 0.3257 0.56944-0.1014 0.81371z" style="white-space:pre"/><path transform="matrix(1.0271 0 0 1.0271 -23.672 -13.149)" d="m1012.5 364.1q-0.3299 0.28717-0.5811-1e-3 -0.3949-0.45354 0.8901-2.2245 2.5286-3.5061 2.5344-5.8306 0.01-2.3244-2.5069-5.2106-0.9692-1.1132-1.7696-1.866l-25.032 21.866q-0.99486 0.93862-0.81684 1.7259 0.17803 0.78727 2.0179 3.3169 0.35362 0.48943 0.0238 0.7766-0.4123 0.35895-0.98663-0.30073-0.10769-0.1237-0.49721-0.65436-0.4972-0.65435-0.85616-1.0666l-3.5736-4.3544-6.2259-6.9015q-0.50254-0.57722-0.1727-0.86439 0.24739-0.21537 0.4322-0.0863 0.18481 0.12902 1.267 1.2888 2.0567 2.1959 3.1898 1.4993 0.60779-0.38418 8.4416-7.2044l17.44-15.184q-0.3537-0.48943-0.8921-1.1079-2.8716-3.2984-5.4367-3.7471-2.4879-0.44332-5.9751 1.7953-2.0654 1.2908-2.4603 0.83726-0.32307-0.37107 0.1717-0.80182 0.32984-0.28717 2.4113-1.8093 4.3278-3.1879 5.8838-4.3977l0.53843 0.61846 2.6616 2.9739q0.1077 0.12369 2.3944 2.9167 2.3225 2.8342 6.0198 7.081 2.046 2.3501 3.7026 4.1696 1.6565 1.8195 2.9846 3.345 1.1846 1.3606 1.8773 1.9897-2.5723 2.4569-6.3059 6.5771-0.6291 0.69268-0.794 0.83626z" style="white-space:pre"/><path transform="matrix(1.0271 0 0 1.0271 -23.672 -13.149)" d="m976.18 348.81q-3.2122 3.7986-8.0434 4.0087-4.7542 0.2037-8.9284-3.3262-2.5463-2.1532-5.5655-7.6416-0.22805-0.40762-0.47851-0.61941-0.70962-0.60008-2.3561 0.58497-0.51351 0.35327-0.72223 0.17678-0.33394-0.28239 0.16025-0.86679 0.45888-0.54265 1.8324-1.7437 1.12-0.98586 2.3908-2.4886 1.0237-1.2105 1.582-1.9555 1.1167-1.4898 1.3285-1.7403 0.56478-0.66788 0.9822-0.31489 0.41743 0.35298-0.76647 2.4303-2.0277 3.5831-1.4296 7.0242 0.65922 3.7075 3.2055 5.8607 2.2541 1.9061 4.9987 1.7929 2.7446-0.1132 4.4743-2.1586 1.4826-1.7532 1.3632-3.6439-0.11599-1.3867-2.3359-7.0584-2.5026-6.2686-2.0833-10.066 0.3681-3.4831 2.9449-6.5303 3.0357-3.5899 7.5587-3.7742 4.5583-0.22611 8.4404 3.0567 2.0871 1.7649 3.6193 4.7788 0.51072 1.0046 0.84467 1.287 0.62614 0.52948 1.7526-0.37933 0.40117-0.30509 0.69337-0.058 0.41742 0.35299-0.0415 0.89564-0.17649 0.20871-1.0718 1.0982-0.89535 0.88948-1.4248 1.5156-1.8355 2.1706-2.9393 3.8146-0.0642 0.16053-0.24064 0.36924-0.31769 0.37569-0.65163 0.0933-0.37569-0.31769 0.37819-1.9712 0.75387-1.6534 0.88805-3.7593 0.21122-2.1123-0.25468-3.5086-0.61691-1.8103-2.2866-3.2223-2.3376-1.9767-4.6682-2.0145-2.3306-0.0378-3.9896 1.9241-1.4472 1.7114-1.2828 4.1415 0.19977 2.3883 2.1435 7.54 2.3903 6.3168 2.5805 9.055 0.25805 4.0126-2.6012 7.3938z" style="white-space:pre"/><path transform="matrix(1.0271 0 0 1.0271 -23.672 -13.149)" d="m943.46 294.72c-1.7597 0.01-3.5472 0.30218-5.3622 0.8804-4.8085 1.5598-8.5709 4.7539-11.287 9.5817-2.645 4.7008-3.398 9.5689-2.2571 14.602 1.1409 5.0328 3.8248 8.7374 8.0491 11.114 4.3196 2.4305 8.8753 2.8397 13.67 1.2303 4.8442-1.6233 8.6066-4.8155 11.287-9.5798 2.7164-4.8278 3.5413-9.6748 2.4739-14.541-1.0496-4.8978-3.7175-8.5534-8.0053-10.966-2.7792-1.5638-5.6353-2.3376-8.5682-2.3217zm5.3451 2.3408c0.90798-7.2e-4 1.7666 0.22692 2.5765 0.68264 2.128 1.1974 3.1297 3.0577 3.0063 5.5809-0.20497 3.8573-2.0854 8.9466-5.6418 15.267-2.9309 5.2089-5.9392 8.9956-9.0245 11.358-1.9835 1.5185-4.0228 1.6872-6.119 0.5077-1.8104-1.0187-2.7998-2.495-2.9663-4.4286-0.41036-4.6217 1.2788-10.3 5.0675-17.034 2.6092-4.6372 5.3265-7.9782 8.1518-10.027 1.7856-1.2691 3.4363-1.906 4.9496-1.9072z" style="white-space:pre"/><path transform="matrix(1.0271 0 0 1.0271 -23.672 -13.149)" d="m915.95 290.99q2.6199-7.6547-2.1901-9.301-2.8964-0.99132-3.7638 1.543l-4.638 13.551q2.1206 0.72579 2.9495 0.83617 1.5884 0.25476 2.9932-0.30448 2.8967-1.2042 4.6492-6.3246z" style="white-space:pre"/><path transform="matrix(1.0271 0 0 1.0271 -23.672 -13.149)" d="m924.38 293.53q-1.5224 4.448-5.7708 6.0563-4.2307 1.5566-9.7131-0.31989-1.3965-0.47796-3.8069-1.7074l-4.5318 13.241q-0.97362 2.8447-0.7886 3.4858 0.25445 0.60711 2.7017 1.5603 1.4142 0.42624 1.2372 0.94345-0.15932 0.46549-0.98686 0.18226l-0.77582-0.26554q-0.2586-0.0885-2.4132-0.88373-2.1029-0.77751-4.3786-1.5564l-6.0691-2.0194q-1.7068-0.58417-1.93-0.77613-0.2232-0.19195-0.15239-0.39883 0.14162-0.41377 0.96916-0.13054 2.552 0.8157 3.1592 0.56125 0.65883-0.23675 1.3315-2.2022l9.099-26.585q1.133-3.3102 1.1045-4.071-0.0285-0.76088-2.4076-1.5752-1.3965-0.47796-1.2549-0.89173 0.15932-0.46549 1.4524-0.0229l14.81 5.0111q5.4307 1.8587 7.5537 4.4343 3.0131 3.6891 1.5615 7.9303z" style="white-space:pre"/><path transform="matrix(1.0271 0 0 1.0271 -23.672 -13.149)" d="m854.03 293.96q-0.60141 4.9382-4.5252 7.7645-3.8629 2.7787-9.2895 2.1178-3.3102-0.40315-8.8457-3.3352-0.4143-0.21567-0.7399-0.25532-0.92251-0.11235-1.6488 1.7817-0.23549 0.5771-0.50682 0.54405-0.43413-0.0529-0.3416-0.81259 0.0859-0.70545 0.57534-2.4632 0.3955-1.4387 0.63342-3.3923 0.19166-1.5737 0.24975-2.5028 0.11617-1.8583 0.15582-2.1838 0.10575-0.86825 0.6484-0.80216 0.54266 0.0661 0.6926 2.4524 0.27066 4.1082 2.6587 6.6569 2.5853 2.738 5.8955 3.1411 2.9304 0.35688 5.1629-1.2436 2.2325-1.6005 2.5564-4.2595 0.27757-2.2792-0.85958-3.7944-0.85782-1.0957-5.8256-4.6195-5.5316-3.8678-7.2647-7.273-1.6033-3.114-1.1208-7.0754 0.56837-4.6669 4.2487-7.3026 3.6869-2.69 8.7336-2.0754 2.7133 0.33045 5.6478 2.0095 0.97818 0.55969 1.4123 0.61256 0.81398 0.0991 1.2571-1.2787 0.16801-0.47517 0.54787-0.42891 0.54266 0.0661 0.45675 0.77155-0.0331 0.27133-0.29359 1.5062-0.26053 1.2349-0.35967 2.0489-0.34366 2.8218-0.36452 4.8018 0.0344 0.16941 1e-3 0.44073-0.0595 0.4884-0.4936 0.43552-0.48839-0.0595-0.7653-1.8555-0.27691-1.796-1.3201-3.6302-0.98236-1.8819-2.138-2.7936-1.509-1.175-3.6796-1.4394-3.0389-0.3701-5.0081 0.87698t-2.2798 3.7976q-0.27097 2.2249 1.1998 4.1663 1.4774 1.8871 5.9289 5.1277 5.4642 3.9697 7.1256 6.1546 2.4173 3.2131 1.882 7.6087z" style="white-space:pre"/><path transform="matrix(1.0271 0 0 1.0271 -23.672 -13.149)" d="m826.6 301.01q9e-3 0.43725-0.7018 0.45142-0.38259 8e-3 -0.71161-0.0405-3.2826-0.0985-5.6328-0.0516-2.4595 0.0491-7.2113 0.30793-1.5839 0.0863-2.3491 0.10155-0.81984 0.0164-0.82965-0.47554-5e-3 -0.27328 0.26673-0.33339 0.32685-0.0612 2.1294-0.15184 1.6878-0.36175 1.948-1.0231 0.2591-0.71598 0.18493-4.4326l-0.5246-26.289q-0.0207-1.0385-0.0404-2.0223-0.0743-0.98271-0.0732-0.92806-0.0273-1.3664-2.7601-1.3119-1.5304 0.0305-1.538-0.35205-8e-3 -0.38259 0.2099-0.44161 0.21753-0.059 1.42-0.083-0.54656 0.0109 1.9687 0.0154 2.5153 4e-3 4.3189-0.0315l2.7874-0.0556q0.87449-0.0174 2.4584-0.10374 1.6375-0.14203 2.2934-0.15512l0.54656-0.0109q0.71053-0.0142 0.71925 0.42307 7e-3 0.32793-0.26455 0.4427-0.21754 0.059-1.6375 0.14203-1.6921 0.14312-2.0627 0.75197l-0.14324 1.0417 0.61622 30.881q0.0469 2.3502 0.54752 2.7776 0.55528 0.42634 3.5646 0.53032 0.49299 0.0448 0.50062 0.42743z" style="white-space:pre"/><path transform="matrix(1.0271 0 0 1.0271 -23.672 -13.149)" d="m806.23 292.35q0.22928 1.013 0.33284 1.7182 0.31768 2.3943 0.69682 3.8218l0.91009 3.7735q-6.8851 1.278-24.747 5.3205l-2.2394 0.50682q-2.346 0.53096-2.4425 0.10441-0.0965-0.42654 0.64992-0.59549 2.6538-0.65667 3.2434-1.5188 0.38333-0.53515-0.0994-2.6679l-6.5938-28.886q-0.41029-1.8128-0.82674-2.167-0.82082-0.65496-2.1417-0.29996l-1.3209 0.35499q-0.5865 0.13274-0.68304-0.2938-0.0965-0.42655 0.64992-0.59549 0.42655-0.0965 0.86516-0.13976l13.543-3.0651q0.25453-0.11365 0.57444-0.18606 0.53318-0.12067 0.62971 0.30588 0.10861 0.47986-1.2777 0.79361-1.9728 0.44648-2.2374 1.0108-0.2113 0.55227 0.6334 4.2845l2.872 12.69q0.88091 3.8922 4.1593 17.387 1.0251-0.17596 2.3048-0.46557 5.5984-1.2671 7.6346-2.1763 3.2022-1.4534 3.8131-4.4502 0.32607-1.5311 0.17142-4.6909-0.0331-0.88929 0.28679-0.96169 0.37323-0.0845 0.6387 1.0885z" style="white-space:pre"/><path transform="matrix(1.0271 0 0 1.0271 -23.672 -13.149)" d="m752.09 279.51c-2.2628-0.0103-4.5168 0.48837-6.7598 1.4984-4.6523 2.0948-7.7931 5.5483-9.4238 10.359-1.5975 4.7961-1.259 9.7198 1.0154 14.771 2.2146 4.9182 5.6846 8.4114 10.413 10.479s9.3034 2.1061 13.723 0.11599c4.5194-2.035 7.5532-5.4595 9.1025-10.274 1.5676-4.8626 1.2291-9.7862-1.0154-14.771-2.2744-5.0511-5.6874-8.5901-10.238-10.618-2.2826-1.0306-4.554-1.5508-6.8169-1.5611zm-4.1301 1.8559c1.3286-0.0174 2.606 0.47397 3.8296 1.4718 2.9834 2.4537 5.9632 6.9866 8.9409 13.6 2.454 5.4499 3.7171 10.118 3.7878 14.003 0.0454 2.4976-1.0298 4.2397-3.223 5.2272-1.8942 0.8529-3.6689 0.77368-5.3242-0.23959-3.9638-2.4119-7.5314-7.1402-10.704-14.185-2.1846-4.8517-3.2638-9.0242-3.2364-12.514 0.0607-3.5046 1.222-5.7652 3.4817-6.7827 0.83493-0.37594 1.6501-0.56949 2.4472-0.57995z" style="white-space:pre"/><path transform="matrix(1.0271 0 0 1.0271 -23.672 -13.149)" d="m720.49 304.73q-4.1088-6.9697-8.4884-4.3878-2.6372 1.5547-1.2768 3.8622l7.2736 12.338q1.9308-1.1382 2.5539-1.696 1.2269-1.0406 1.7161-2.4712 0.97003-2.9833-1.7784-7.6455z" style="white-space:pre"/><path transform="matrix(1.0271 0 0 1.0271 -23.672 -13.149)" d="m727.9 299.98q2.3875 4.05 0.84499 8.3226-1.5703 4.2256-6.5621 7.1684-1.2715 0.74958-3.7734 1.7803l7.1071 12.056q1.5269 2.5901 2.1342 2.8667 0.6266 0.20173 2.9426-1.0367 1.2437-0.79667 1.5214-0.32574 0.24985 0.42384-0.50363 0.86803l-0.70639 0.41643q-0.23546 0.13881-2.2411 1.2577-1.9586 1.0912-4.0306 2.3127l-5.4821 3.2952q-1.5541 0.91614-1.845 0.96077-0.29099 0.0446-0.40203-0.14375-0.2221-0.37674 0.53138-0.82093 2.2798-1.4074 2.4815-2.034 0.24883-0.65436-0.80613-2.4439l-14.27-24.206q-1.7768-3.0139-2.3731-3.4873-0.59637-0.4734-2.7626 0.80365-1.2715 0.74958-1.4936 0.37284-0.24986-0.42384 0.92746-1.1179l13.441-7.987q4.9447-2.915 8.2819-2.8517 4.7619 0.11187 7.0384 3.9735z" style="white-space:pre"/><path transform="matrix(1.0271 0 0 1.0271 -23.672 -13.149)" d="m685.95 319.81c-4.2099 0.0806-7.8594 1.6188-10.949 4.6168-3.6615 3.5533-5.4417 7.8704-5.3375 12.949 0.13036 5.0535 2.1262 9.5671 5.984 13.543 3.7563 3.8708 8.2085 5.9742 13.358 6.3092 5.1496 0.33499 9.4632-1.1861 12.942-4.5617 3.5569-3.4518 5.2456-7.7049 5.0637-12.759-0.18113-5.1058-2.177-9.6194-5.984-13.543-3.8578-3.9754-8.2695-6.1432-13.238-6.5012-0.62428-0.048-1.2374-0.0648-1.8388-0.0532zm-6.3967 3.727c0.68339 0.0133 1.3979 0.14987 2.143 0.41072 3.6404 1.2917 7.986 4.5406 13.037 9.7452 4.1624 4.2892 6.9378 8.2477 8.3267 11.877 0.89283 2.333 0.47496 4.3374-1.2512 6.0126-1.4908 1.4467-3.1852 1.9752-5.0865 1.5859-4.548-0.91875-9.5138-4.1512-14.894-9.6958-3.7056-3.8184-6.1379-7.373-7.2999-10.664-1.1358-3.316-0.8163-5.8364 0.96216-7.5623 1.2047-1.1691 2.5601-1.7386 4.0635-1.7094z" style="white-space:pre"/><path transform="matrix(1.0271 0 0 1.0271 -23.672 -13.149)" d="m656.41 363.45q-6.0851-3.564-8.9032 1.2474-0.91173 1.5566-0.095 2.5418 0.52225 0.62265 5.0035 3.2473l7.8304 4.5863q2.2022-3.6517 1.2823-6.4078-0.91986-2.7561-5.1181-5.215z" style="white-space:pre"/><path transform="matrix(1.0271 0 0 1.0271 -23.672 -13.149)" d="m687.23 365.47q2.6416 1.5472 0.62472 4.9907-2.5418 4.3398-6.7973 5.3317-3.3107 0.78508-5.8822-0.34093l-4.1443-1.7938q-3.9556-1.6833-6.1639-1.2662-2.1806 0.36997-3.7635 3.1807l10.708 6.2716q3.7265 2.1826 4.0372 2.3012 0.80191 0.46968 1.5189 3e-3 0.66982-0.49463 1.7473-2.3343 0.66308-1.1321 1.0876-0.88345 0.37737 0.22102 0.0458 0.78708l-2.7271 4.548t-0.44205 0.75474q-0.45014 0.87671-0.8922 1.6314l-1.9892 3.3963q-0.27628 0.47172-0.68262 1.0573-0.30391 0.51889-0.3868 0.6604l-1.2237 2.1975q-0.38679 0.6604-0.76416 0.43937-0.42454-0.24865 0.61387-2.2379 0.84503-1.6591 0.3504-2.3289-0.24731-0.33491-1.8983-1.3019l-24.293-14.229q-2.4529-1.4367-2.9327-1.591-0.52697-0.18194-1.0667 0.1988-0.66982 0.49463-1.5263 1.9569-0.60782 1.0378-1.0324 0.78912-0.3302-0.1934-0.12872-0.64557 0.15431-0.4798 1.2318-2.3195 0 0 0.49731-0.84908 0.54448-0.82145 1.0142-1.6234l0.91174-1.5566q0.0276-0.0472 0.53302-1.0182 0.52494-0.89625 0.99462-1.6982l1.6024-2.7359q3.868-6.604 6.3148-8.4019 1.907-1.4172 4.2211-1.5823t4.2953 0.99527q4.5284 2.6523 3.9355 8.6404-0.27222 2.6281-2.1766 6.9611l0.2554 0.21294q3.3417-4.9483 7.1012-5.8506 3.7124-0.92998 9.319 1.7203 4.4664 2.1092 6.021 1.9427 1.5074-0.19409 2.0048-1.0432 0.41443-0.70757 0.0371-0.9286-0.18869-0.11051-0.85043 0.26214-0.63411 0.32549-1.2473-0.0337-1.2736-0.74596-0.44477-2.1611t2.4327-0.47577z" style="white-space:pre"/><path transform="matrix(1.0271 0 0 1.0271 -23.672 -13.149)" d="m646.54 385.22q0.39652 0.18448 0.23511 0.53143-0.25366 0.54522-2.3942 0.092-4.2316-0.88341-6.3573 0.057-2.1257 0.94042-3.7399 4.41-0.62261 1.3383-0.98467 2.3757l30.159 13.971q1.2622 0.52692 1.9089 0.044 0.64673-0.48293 2.209-3.1928 0.30322-0.52216 0.69974-0.33768 0.49565 0.2306 0.1267 1.0236-0.0692 0.14869-0.39546 0.72042-0.39546 0.72041-0.62605 1.2161l-2.5238 5.036-3.7714 8.4953q-0.32284 0.69391-0.71936 0.50943-0.29739-0.13836-0.25472-0.35968 0.0427-0.22132 0.66184-1.6818 1.1691-2.7722 0.0718-3.5239-0.59822-0.3989-10.016-4.7802l-20.966-9.7542q-0.30322 0.52216-0.64911 1.2656-1.8448 3.9652-1.211 6.4909 0.60724 2.4531 4.071 4.7278 2.0194 1.3616 1.7658 1.9068-0.20754 0.44609-0.80232 0.16938-0.39652-0.18448-2.6338-1.4665-4.6729-2.6564-6.4111-3.5856l0.34589-0.74348 1.6338-3.6413q0.0692-0.1487 1.6902-3.3739 1.6441-3.2748 4.0192-8.38 1.3144-2.8252 2.3025-5.0787 0.98812-2.2535 1.8413-4.0874 0.76096-1.6356 1.0538-2.5244 3.2909 1.3502 8.5737 3.0844 0.88872 0.29288 1.087 0.38512z" style="white-space:pre"/><path transform="matrix(1.0271 0 0 1.0271 -23.672 -13.149)" d="m657.58 426.67q0.40462 0.16595 0.13496 0.82346-0.14521 0.35405-0.32025 0.63678-1.3963 2.9725-2.2883 5.1473-0.93346 2.276-2.5864 6.7386-0.55099 1.4875-0.84139 2.1956-0.31116 0.75867-0.76636 0.57198-0.25289-0.10372-0.19975-0.37735 0.0739-0.32422 0.70784-2.014 0.33958-1.6924-0.16364-2.1942-0.5538-0.52256-3.9931-1.9331l-24.328-9.9776q-0.96098-0.39413-1.8714-0.76752-0.93115-0.3228-0.88057-0.30206-1.2645-0.51859-2.3016 2.0103-0.58082 1.4162-0.93487 1.271-0.35405-0.14521-0.32165-0.36826 0.0324-0.22306 0.48875-1.3358-0.20743 0.50578 0.79735-1.8001t1.6893-3.9749l1.0579-2.5795q0.3319-0.80925 0.88288-2.2968 0.52115-1.5588 0.77007-2.1658l0.20744-0.50578q0.26966-0.65751 0.67429-0.49157 0.30347 0.12447 0.30091 0.41884-0.0324 0.22306-0.52115 1.5588-0.5419 1.6094-0.13074 2.1916l0.89875 0.54587 28.577 11.72q2.1749 0.89197 2.7662 0.60272 0.61206-0.33984 1.9047-3.0594 0.23727-0.43446 0.59132-0.28925z" style="white-space:pre"/><path transform="matrix(1.0271 0 0 1.0271 -23.672 -13.149)" d="m650.45 442.93q0.51623 0.17985 0.15652 1.2123l-0.1259 0.36136q-0.39568 1.1357-1.4545 4.0086-1.0408 2.8213-1.5264 4.2151-0.19784 0.56785-0.7757 2.3927-0.61151 1.7552-1.6547 4.7493l-0.44964 1.2906q-0.25179 0.72273-0.7164 0.56086t-0.21282-0.8846l0.66313-1.7372q0.87896-2.3567 0.18122-3.1787-0.20416-0.2448-3.0434-1.234l-27.998-9.6965q3.7092 3.1447 12.118 9.0845l14.232 9.9948q2.6031 1.8332 2.4233 2.3494-0.19785 0.56786-1.8052 0.52887-0.51857-7e-3 -11.063-0.14932-3.9757-0.0537-22.226-0.50747l26.689 9.2985q2.323 0.80934 2.8056 0.91959 0.43097 0.0923 0.8846-0.21281 0.94088-0.54054 1.5367-2.417 0.59585-1.8764 1.2153-1.6606 0.36137 0.1259 0.0916 0.90025l-1.704 4.5585q-0.46529 1.1694-0.90161 2.754-0.61617 2.1009-0.86797 2.8236-0.3777 1.0841-0.84231 0.92222-0.41298-0.14388-0.10723-1.0215 0.71942-2.0649 0.81168-2.4959 0.35106-1.6723-0.53986-2.2721-0.56552-0.3707-2.5272-1.0542l-24.624-8.5791q-4.1299-1.4388-4.9808-1.1564-0.8846 0.21282-1.9997 3.4135-0.28777 0.82598-0.75238 0.66411-0.51623-0.17986-0.15885-1.0395l0.53723-1.3758 3.3476-9.7748q0.054-0.15487 0.24947-0.54987 15.828 0.594 26.337 0.83956l-21.37-15.26 0.37769-1.0841 2.4257-6.7963q0.054-0.15487 0.30576-0.87759 0.21815-0.79234 0.43398-1.4118l0.82733-2.3747q0.35971-1.0325 0.82432-0.8706 0.51624 0.17985 0.24879 0.78135l-0.46529 1.1694q-0.85864 2.1322-0.61219 3.0864 0.26444 0.90259 1.7615 1.4242 0.41298 0.14388 1.8248 0.57786 1.4118 0.43399 12.975 4.4627l14.403 5.018q1.8584 0.64748 2.4919-0.17383 0.59984-0.89091 1.1957-2.7673 0.61384-1.928 1.1301-1.7482z" style="white-space:pre"/></g><text transform="matrix(1.0271 0 0 1.0271 -23.672 -13.149)" display="none" fill="#faf5e2" font-family="'Bodoni 72'" font-size="57.333px" font-weight="bold" stroke="#000000" stroke-linejoin="round" stroke-width="4" text-align="justify" style="font-variant-caps:normal;font-variant-east-asian:normal;font-variant-ligatures:normal;font-variant-numeric:normal;white-space:pre" xml:space="preserve"><textPath fill="#faf5e2" font-family="'Bodoni 72'" font-size="54.667px" font-weight="bold" stroke="none" text-align="start" style="font-variant-caps:normal;font-variant-east-asian:normal;font-variant-ligatures:normal;font-variant-numeric:normal" xlink:href="#b">MITROPOLIS    POSTAGE</textPath></text><path id="b" d="m637.11 483.89c0.46725-4.283 37.069-116.41 74.225-139.89 37.392-23.63 76.833-46.241 119.52-41.912 36.169 3.6678 73.541 11.468 104.89 29.87 26.314 15.444 48.761 38.691 64.811 64.64 16.132 26.081 29.042 87.296 29.042 87.296" display="none" fill="none" stroke="#090000" stroke-linejoin="round" stroke-width="4"/><g fill="#faf5e2"><path d="m1044.6 473.71q-0.1088 0.0277-5.0744 1.2341-2.6257 0.61065-3.7823 0.8472-1.1427 0.29096-1.0882 0.2771-3.0049-14.532-6.0203-25.236l-1.2728-4.5431q-0.2494-0.97946 0.1859-1.0903 0.3266-0.0831 0.4364 0.12067 0.1237 0.25821 0.5927 1.6453 0.8145 2.5159 2.1758 2.401 0.7352-0.0713 1.6058-0.29299l27.588-7.0247q3.2649-0.83133 3.5776-0.96887 0.8567-0.2761 1.0585-0.84896 0.2018-0.57287-0.1862-2.0965-0.4295-1.6868 0.061-1.8116 0.5442-0.13855 0.9183 1.3306 0.388 1.5236 1.1212 4.176 2.7672 9.9568 4.2794 16.351l0.8877 3.714q0.3049 1.1971 0.9659 2.883l-5.8064 2q-2.7604 0.99255-3.4133 1.1588-0.5441 0.13855-0.6827-0.40559-0.1385-0.54415 1.2346-1.0676 3.63-1.4458 4.6656-4.4328 1.1039-2.9464-0.157-7.8982-0.3879-1.5236-1.4934-5.1822l-16.052 4.0874q1.4697 5.9994 2.7283 7.3014 1.3269 1.3425 5.22 0.9306 2.0826-0.24058 2.2212 0.30356 0.1247 0.48974-0.8548 0.73914-0.9794 0.24939-4.0683 0.86205-1.0476 0.20884-2.789 0.65222-4.6795 1.1916-7.0461 1.91-0.3127 0.13754-0.8024 0.26225-0.653 0.16627-0.7777-0.32347-0.097-0.3809 0.092-0.54515 0.2443-0.1781 1.7126-0.78372 3.7248-1.5279 4.4005-2.7429 0.7439-1.1744-0.129-4.6026l-0.9422-3.7002-18.338 4.6693 0.9412 3.4687q1.6328 5.9579 2.1286 7.2223 0.6334 1.577 2.0008 2.8512 1.4346 1.0833 2.8109 1.2543 1.39 0.22547 4.9161-0.035 0.8578-0.0446 0.9549 0.33631 0.1108 0.43532-0.7055 0.64315z" stroke-linejoin="round" stroke-width="4.1086" style="white-space:pre"/><path d="m1038.5 441.9q-0.5324 0.17824-1.1564-1.863-0.7489-2.4139-1.9205-2.1994-0.6746 0.10739-4.2422 1.3016-1.2247 0.40994-2.1652 0.78401-6.4341-4.8927-8.3591-10.643-2.5309-7.5611 1.0828-14.455 3.6314-6.8408 11.565-9.4965 8.413-2.8161 15.751 0.53061t9.9755 11.227q1.0873 3.2481 0.6484 7.2438-0.158 1.474 0 1.9532 0.2851 0.85194 1.7592 1.0099 0.728 0.0524 0.8349 0.37183 0.1248 0.37273-0.4076 0.55096-0.1065 0.0356-2.1833 0.5532-0.6569 0.16063-3.053 0.96269-1.8104 0.60601-3.6384 1.3363t-1.828 0.73031q-1.0116 0.33865-1.1898-0.19381-0.2496-0.74546 1.7912-1.7246 4.4718-2.2074 6.3675-5.5658 1.3641-2.4699 0.2769-5.7179-3.3686-10.064-21.26-4.075-11.129 3.7251-14.39 8.488-2.0737 3.0034-0.9152 6.4645 1.4615 4.3662 6.9992 2.5126 4.1533-1.3902 4.5077-1.9234 0.4256-0.49771-0.055-1.9354l-0.4456-1.3312q-0.3743-1.1182 0.1049-1.2786t0.7822 0.74478q0.6238 1.8636 1.5152 4.7036l1.0875 3.4256q0.3387 1.0117 1.1226 3.177 0.8551 2.2007 1.0691 2.8397l0.2316 0.69222q0.2139 0.63895-0.2653 0.79936z" stroke-linejoin="round" stroke-width="4.1086" style="white-space:pre"/><path d="m1039 372.98c-0.3552 0.0198-0.859 0.0991-1.5136 0.23633-1.8246 0.35358-3.1784 0.58671-4.0606 0.70312l-19.604 3.3867c-3.8535 0.65152-6.7702 1.1335-8.748 1.4453-2.7717 0.50717-4.4708 0.70178-5.0977 0.58595-0.62685-0.11584-1.344-0.80381-2.1523-2.0664-0.64112-0.97016-1.0589-1.4006-1.2539-1.289-0.32497 0.18584-0.35785 0.50601-0.0977 0.96093 0.13008 0.22746 0.2681 0.42909 0.41211 0.60547l4.5508 8.0703c0.3345 0.5849 0.647 0.79422 0.9394 0.62696 0.26-0.14869 0.2766-0.46009 0.049-0.93359-0.7202-1.4855-1.1114-2.3189-1.1719-2.5-0.2464-0.8078-0.093-1.3696 0.459-1.6856 0.2925-0.16726 0.7302-0.30948 1.3106-0.42577l3.7811-0.73828c2.7392-0.48859 4.5168-0.77232 5.334-0.85157 0.9385 1.4901 1.7813 2.9252 2.5294 4.3086l2.1269 3.8301 0.5019 0.87696c-1.5455 1.7464-2.6212 2.9216-3.2246 3.5254l-2.582 2.8359c-0.9792 1.0776-1.5504 1.6629-1.7129 1.7558-0.325 0.18585-0.6689 0.0374-1.0312-0.4453-0.1951-0.1903-0.4215-0.51188-0.6817-0.96681-1.0917-1.8336-1.7999-2.6585-2.1249-2.4726-0.325 0.18584-0.2382 0.71835 0.2636 1.5957 0.3345 0.58489 0.9999 1.6702 1.9941 3.2578 0.4971 0.79378 1.0528 1.7265 1.6661 2.7988 0.5203 0.90985 1.4357 2.5856 2.7461 5.0274 0.6551 1.2209 1.0563 1.9627 1.205 2.2226 0.5761 1.0073 0.9449 1.6154 1.1075 1.8242 0.2136 0.22279 0.451 0.26001 0.7109 0.11133 0.2925-0.16727 0.3265-0.44601 0.1035-0.83593-0.9432-1.5736-1.4052-2.6457-1.3867-3.2168 0.01-0.73826 0.6024-1.8114 1.7812-3.2188 1.3831-1.6535 2.7348-3.288 4.0527-4.9043 10.326-12.633 16.261-19.824 17.807-21.57 1.1973-1.3748 1.7404-2.1605 1.6288-2.3555-0.055-0.0975-0.262-0.13511-0.6172-0.11524zm-11.598 3.416-0.7109 0.79297c-0.6451 0.75708-1.1315 1.3381-1.461 1.7422-1.1927 1.4584-3.3022 3.9155-6.3281 7.3711-0.4084 0.49232-0.6516 0.78285-0.7305 0.87109-0.8596-1.5783-1.5041-2.7409-1.9316-3.4883l-1.5606-2.7305c-0.1858-0.32494-0.3902-0.68232-0.6133-1.0723-0.274-0.40384-0.4948-0.75248-0.6621-1.0449 1.3465-0.20946 3.6698-0.63215 6.9708-1.2695 2.9527-0.56758 5.2954-0.95762 7.0273-1.1719z" stroke-linejoin="round" stroke-width="4.1086" style="white-space:pre"/><path d="m1016.3 357.3q-0.3388 0.29497-0.5968-1e-3 -0.4057-0.46585 0.9142-2.2849 2.5973-3.6013 2.6032-5.9888 0.01-2.3876-2.5749-5.352-0.9955-1.1434-1.8177-1.9167l-25.712 22.459q-1.0219 0.9641-0.83901 1.7728 0.18286 0.80864 2.0727 3.4069 0.36322 0.50272 0.0244 0.79768-0.42349 0.3687-1.0134-0.30889-0.11061-0.12706-0.51071-0.67213-0.5107-0.67211-0.8794-1.0956l-3.6706-4.4726-6.395-7.0889q-0.51618-0.59289-0.17739-0.88785 0.25411-0.22122 0.44394-0.0886 0.18982 0.13253 1.3014 1.3238 2.1126 2.2555 3.2764 1.54 0.62429-0.39461 8.6707-7.3999l17.914-15.596q-0.3633-0.50272-0.9163-1.138-2.9495-3.388-5.5842-3.8488-2.5555-0.45535-6.1374 1.844-2.1215 1.3258-2.527 0.85999-0.33184-0.38115 0.17636-0.82359 0.33879-0.29497 2.4767-1.8585 4.4453-3.2745 6.0436-4.5171l0.553 0.63525 2.7338 3.0547q0.1107 0.12705 2.4594 2.9959 2.3856 2.9112 6.1833 7.2732 2.1015 2.4139 3.8031 4.2828 1.7015 1.8689 3.0656 3.4358 1.2168 1.3975 1.9283 2.0438-2.6422 2.5236-6.4771 6.7557-0.6462 0.71149-0.8156 0.85896z" stroke-linejoin="round" stroke-width="4.1086" style="white-space:pre"/><path d="m979.01 341.59q-3.2994 3.9017-8.2617 4.1176-4.8832 0.20923-9.1708-3.4165-2.6154-2.2117-5.7166-7.8491-0.23424-0.41869-0.4915-0.63623-0.72889-0.61637-2.42 0.60085-0.52745 0.36286-0.74184 0.18158-0.343-0.29006 0.1646-0.89032 0.47134-0.55738 1.8822-1.791 1.1504-1.0126 2.4557-2.5561 1.0514-1.2434 1.6249-2.0086 1.147-1.5303 1.3645-1.7876 0.58011-0.68602 1.0089-0.32344 0.42876 0.36256-0.78728 2.4963-2.0828 3.6804-1.4684 7.2149 0.67712 3.8082 3.2926 6.0198 2.3153 1.9579 5.1344 1.8416 2.8192-0.11628 4.5957-2.2172 1.5228-1.8008 1.4002-3.7429-0.11914-1.4244-2.3994-7.25-2.5706-6.4388-2.1398-10.34 0.3781-3.5777 3.0248-6.7076 3.1181-3.6873 7.7639-3.8767 4.6821-0.23225 8.6695 3.1396 2.1438 1.8128 3.7175 4.9085 0.52459 1.0319 0.8676 1.322 0.64314 0.54385 1.8002-0.38963 0.41206-0.31337 0.71219-0.0596 0.42875 0.36258-0.0426 0.91996-0.18128 0.21437-1.101 1.128-0.91966 0.91363-1.4635 1.5568-1.8854 2.2295-3.0191 3.9181-0.0659 0.16489-0.24717 0.37926-0.32631 0.38589-0.66932 0.0958-0.38589-0.32632 0.38846-2.0247 0.77433-1.6983 0.91216-3.8614 0.21695-2.1697-0.2616-3.6039-0.63365-1.8595-2.3487-3.3097-2.401-2.0304-4.7949-2.0692-2.3938-0.0388-4.0979 1.9763-1.4865 1.7579-1.3176 4.2539 0.20519 2.4531 2.2017 7.7446 2.4552 6.4883 2.6506 9.3008 0.26506 4.1215-2.6718 7.5945z" stroke-linejoin="round" stroke-width="4.1086" style="white-space:pre"/><path d="m944.7 286.04c-1.8075 0.0103-3.6434 0.31039-5.5078 0.9043-4.939 1.6022-8.8036 4.883-11.594 9.8418-2.7168 4.8284-3.4902 9.8287-2.3184 14.998 1.1718 5.1694 3.9286 8.9746 8.2676 11.416 4.4369 2.4965 9.1163 2.9168 14.041 1.2637 4.9757-1.6674 8.8403-4.9462 11.594-9.8398 2.7902-4.9588 3.6374-9.9375 2.541-14.936-1.0781-5.0307-3.8184-8.7856-8.2227-11.264-2.8546-1.6062-5.7882-2.4011-8.8008-2.3848zm5.4902 2.4043c0.93263-7.4e-4 1.8146 0.23308 2.6465 0.70117 2.1858 1.2299 3.2147 3.1407 3.0879 5.7324-0.21053 3.962-2.142 9.1895-5.7949 15.682-3.0105 5.3503-6.1004 9.2398-9.2695 11.666-2.0373 1.5597-4.132 1.733-6.2852 0.52149-1.8596-1.0463-2.8758-2.5627-3.0469-4.5488-0.4215-4.7472 1.3135-10.58 5.2051-17.496 2.68-4.7631 5.4711-8.1948 8.373-10.299 1.8341-1.3035 3.5296-1.9577 5.084-1.959z" stroke-linejoin="round" stroke-width="4.1086" style="white-space:pre"/><path d="m899.49 267.46c-0.24863 4e-3 -0.40054 0.0847-0.45508 0.24414-0.097 0.28334 0.3328 0.58873 1.2891 0.91601 1.6292 0.55762 2.4531 1.0981 2.4726 1.6191 0.0195 0.52103-0.35896 1.915-1.1348 4.1816l-9.3457 27.307c-0.46063 1.3458-0.91605 2.0996-1.3672 2.2617-0.41573 0.17425-1.4966-0.0195-3.2441-0.57812-0.56668-0.19394-0.89912-0.14857-0.9961 0.13477-0.0485 0.14166 3e-3 0.27871 0.15625 0.41016 0.15285 0.13144 0.81368 0.39684 1.9824 0.79687l6.2344 2.0742c1.5583 0.53336 3.0561 1.0672 4.4961 1.5996 1.4754 0.54455 2.3034 0.84565 2.4805 0.90626l0.79688 0.27343c0.56667 0.19395 0.90458 0.13125 1.0137-0.18749 0.12121-0.35417-0.30311-0.67688-1.2715-0.96876-1.6758-0.65268-2.6012-1.1878-2.7754-1.6035-0.1267-0.43902 0.14385-1.6322 0.81055-3.5801l4.6543-13.6c1.6506 0.84189 2.9539 1.4266 3.9102 1.7539 3.7542 1.2849 7.0796 1.394 9.9766 0.32812 2.9091-1.1013 4.8852-3.1749 5.9277-6.2207 0.994-2.9042 0.45972-5.6183-1.6035-8.1445-1.4538-1.7637-4.041-3.2819-7.7598-4.5547l-15.211-5.1484c-0.4427-0.15153-0.78848-0.22463-1.0371-0.2207zm13.043 5.623c0.48411-0.0236 1.0365 0.0711 1.6562 0.28321 3.2938 1.1273 4.044 4.313 2.25 9.5547-1.2001 3.5063-2.7918 5.6715-4.7754 6.4961-0.96194 0.38294-1.9865 0.48695-3.0742 0.3125-0.56763-0.0756-1.5772-0.36238-3.0293-0.85937l4.7637-13.918c0.40836-1.1931 1.144-1.8171 2.209-1.8691z" stroke-linejoin="round" stroke-width="4.1086" style="white-space:pre"/><path d="m854.25 285.25q-0.61774 5.0722-4.6481 7.9753-3.9678 2.8541-9.5417 2.1753-3.4001-0.4141-9.0858-3.4257-0.42555-0.22153-0.75999-0.26225-0.94755-0.1154-1.6936 1.8301-0.24188 0.59276-0.52058 0.55881-0.44592-0.0543-0.35087-0.83465 0.0882-0.7246 0.59096-2.53 0.40623-1.4778 0.65061-3.4844 0.19686-1.6164 0.25653-2.5708 0.11932-1.9087 0.16005-2.2431 0.10862-0.89182 0.666-0.82394 0.5574 0.0679 0.71141 2.519 0.278 4.2197 2.7309 6.8376 2.6555 2.8123 6.0556 3.2264 3.0099 0.36657 5.303-1.2774 2.2932-1.644 2.6258-4.3752 0.28511-2.341-0.88291-3.8974-0.88111-1.1255-5.9837-4.7449-5.6818-3.9728-7.4619-7.4704-1.6468-3.1986-1.1513-7.2675 0.5838-4.7936 4.364-7.5008 3.787-2.763 8.9707-2.1317 2.787 0.33942 5.8011 2.0641 1.0047 0.57488 1.4506 0.62919 0.83608 0.10179 1.2913-1.3134 0.17257-0.48807 0.56274-0.44055 0.55739 0.0679 0.46915 0.79249-0.034 0.2787-0.30156 1.5471-0.2676 1.2684-0.36943 2.1045-0.35299 2.8984-0.37442 4.9322 0.0353 0.17401 1e-3 0.4527-0.0611 0.50165-0.507 0.44734-0.50165-0.0611-0.78608-1.9058-0.28442-1.8447-1.356-3.7288-1.009-1.933-2.196-2.8695-1.55-1.207-3.7795-1.4785-3.1214-0.38014-5.144 0.90079-2.0227 1.2809-2.3417 3.9007-0.27833 2.2853 1.2324 4.2794 1.5175 1.9384 6.0898 5.2669 5.6125 4.0775 7.319 6.3217 2.4829 3.3004 1.933 7.8152z" stroke-linejoin="round" stroke-width="4.1086" style="white-space:pre"/><path d="m826.07 292.5q9e-3 0.44912-0.72086 0.46367-0.39297 8e-3 -0.73092-0.0416-3.3717-0.10117-5.7857-0.053-2.5263 0.0504-7.4071 0.31629-1.6269 0.0886-2.4129 0.10431-0.84209 0.0168-0.85217-0.48845-5e-3 -0.2807 0.27397-0.34244 0.33573-0.0629 2.1872-0.15596 1.7336-0.37157 2.0009-1.0508 0.26614-0.73541 0.18995-4.5529l-0.53884-27.003q-0.0213-1.0667-0.0415-2.0772-0.0763-1.0094-0.0752-0.95325-0.028-1.4035-2.835-1.3475-1.5719 0.0313-1.5798-0.3616-8e-3 -0.39298 0.2156-0.4536 0.22343-0.0606 1.4585-0.0852-0.56139 0.0112 2.0222 0.0158 2.5835 4e-3 4.4361-0.0324l2.8631-0.0571q0.89823-0.0179 2.5252-0.10656 1.682-0.14588 2.3556-0.15933l0.5614-0.0112q0.72982-0.0146 0.73877 0.43455 7e-3 0.33683-0.27173 0.45472-0.22344 0.0606-1.682 0.14588-1.7381 0.14701-2.1187 0.77239l-0.14713 1.07 0.63295 31.719q0.0482 2.414 0.56239 2.853 0.57035 0.43791 3.6614 0.54472 0.50638 0.046 0.51422 0.43903z" stroke-linejoin="round" stroke-width="4.1086" style="white-space:pre"/><path d="m803.74 283.6q0.23551 1.0405 0.34188 1.7649 0.3263 2.4593 0.71574 3.9256l0.93479 3.876q-7.072 1.3127-25.418 5.465l-2.3002 0.52057q-2.4097 0.54538-2.5088 0.10725-0.0991-0.43812 0.66757-0.61166 2.7259-0.67449 3.3315-1.56 0.39373-0.54967-0.1021-2.7403l-6.7728-29.671q-0.42143-1.862-0.84919-2.2258-0.8431-0.67274-2.1998-0.3081l-1.3568 0.36462q-0.60242 0.13635-0.70158-0.30177-0.0991-0.43813 0.66756-0.61166 0.43813-0.0991 0.88865-0.14355l13.91-3.1483q0.26144-0.11673 0.59003-0.19111 0.54766-0.12395 0.64681 0.31418 0.11156 0.49289-1.3124 0.81516-2.0263 0.4586-2.2981 1.0383-0.21703 0.56726 0.6506 4.4008l2.95 13.034q0.90482 3.9979 4.2722 17.859 1.0529-0.18074 2.3673-0.47821 5.7504-1.3014 7.8419-2.2354 3.2891-1.4928 3.9166-4.571 0.33492-1.5726 0.17607-4.8182-0.034-0.91343 0.29457-0.9878 0.38337-0.0868 0.65604 1.1181z" stroke-linejoin="round" stroke-width="4.1086" style="white-space:pre"/><path d="m748.84 270.42c-2.3243-0.0106-4.6394 0.50163-6.9434 1.5391-4.7786 2.1517-8.0047 5.699-9.6797 10.641-1.6408 4.9263-1.2932 9.9836 1.043 15.172 2.2747 5.0517 5.8389 8.6398 10.695 10.764 4.8564 2.1239 9.556 2.1633 14.096 0.11913 4.6421-2.0902 7.7583-5.6077 9.3496-10.553 1.6101-4.9946 1.2624-10.052-1.043-15.172-2.3361-5.1882-5.8418-8.8233-10.516-10.906-2.3446-1.0586-4.6777-1.593-7.002-1.6035zm-4.2422 1.9063c1.3647-0.0179 2.6767 0.48683 3.9336 1.5117 3.0643 2.5203 6.1251 7.1763 9.1836 13.969 2.5206 5.5978 3.818 10.392 3.8906 14.383 0.0466 2.5654-1.0578 4.3548-3.3105 5.3691-1.9456 0.87606-3.7685 0.79469-5.4688-0.24609-4.0714-2.4774-7.7358-7.3341-10.994-14.57-2.2439-4.9834-3.3524-9.2692-3.3242-12.854 0.0624-3.5997 1.2551-5.9217 3.5762-6.9668 0.8576-0.38615 1.6949-0.58495 2.5137-0.59569z" stroke-linejoin="round" stroke-width="4.1086" style="white-space:pre"/><path d="m716.76 287.36c-2.2852-0.0433-5.1199 0.93163-8.5058 2.9277l-13.807 8.2051c-0.80617 0.47526-1.1242 0.85821-0.95312 1.1484 0.15208 0.25798 0.66448 0.13047 1.5352-0.38282 1.4834-0.87447 2.4295-1.1503 2.8379-0.82616 0.40837 0.32415 1.2208 1.5182 2.4375 3.582l14.656 24.863c0.7224 1.2254 0.99851 2.0617 0.82813 2.5098-0.13815 0.42908-0.98773 1.1261-2.5488 2.0898-0.51595 0.30417-0.697 0.58382-0.54492 0.8418 0.076 0.12898 0.21286 0.17898 0.41211 0.14844 0.19926-0.0306 0.83037-0.35899 1.8945-0.98633l5.6309-3.3848c1.4189-0.83646 2.7995-1.6298 4.1406-2.377 1.3734-0.76619 2.1415-1.196 2.3027-1.291l0.72461-0.42773c0.51596-0.30416 0.68867-0.60234 0.51758-0.89257-0.19011-0.32249-0.71083-0.2096-1.5625 0.33594-1.5859 0.848-2.5924 1.2026-3.0215 1.0644-0.41583-0.18941-1.1478-1.1717-2.1934-2.9453l-7.2988-12.383c1.7132-0.70578 3.0043-1.3148 3.875-1.8281 3.4182-2.0151 5.665-4.4698 6.7402-7.3633 1.0563-2.9258 0.76771-5.7756-0.86719-8.5488-1.5588-2.6443-3.9697-4.0035-7.2305-4.0801zm-6.5976 3.7402c2.118 0.0515 4.1887 1.7904 6.2109 5.2207 1.882 3.1925 2.4904 5.8107 1.8262 7.8535-0.33501 0.97967-0.9216 1.8265-1.7617 2.5391-0.42668 0.38189-1.3009 0.96275-2.6231 1.7422l-7.4726-12.674c-0.93151-1.5801-0.49336-2.9022 1.3125-3.9668 0.84347-0.49724 1.679-0.73498 2.5078-0.71485z" stroke-linejoin="round" stroke-width="4.1086" style="white-space:pre"/><path d="m651.28 348.16c-0.19451-5e-5 -0.38982 7e-3 -0.58789 0.0215-1.5846 0.11306-3.0301 0.65458-4.3359 1.625-1.6755 1.2311-3.8377 4.1067-6.4863 8.6289l-1.6465 2.8105c-0.32162 0.54913-0.66203 1.1304-1.0215 1.7441-0.34609 0.66493-0.52798 1.0146-0.54688 1.0469l-0.93749 1.5977c-0.32162 0.54912-0.66818 1.1055-1.041 1.668l-0.50977 0.87304c-0.73783 1.2598-1.16 2.0523-1.2656 2.3809-0.13797 0.30963-0.0952 0.53163 0.13086 0.66407 0.29071 0.17026 0.64433-0.0999 1.0606-0.81055 0.58648-1.0013 1.1097-1.6711 1.5684-2.0098 0.36961-0.26071 0.73485-0.32966 1.0957-0.20508 0.32855 0.10567 1.3321 0.65098 3.0117 1.6348l24.953 14.615c1.1306 0.66216 1.7799 1.1066 1.9492 1.3359 0.3387 0.45868 0.21926 1.2565-0.35938 2.3926-0.71107 1.3622-0.92157 2.1286-0.63087 2.2988 0.25841 0.15135 0.52031 1e-3 0.78517-0.45117l1.2578-2.2578c0.0568-0.0969 0.18838-0.32242 0.39648-0.67773 0.27824-0.40099 0.51199-0.76292 0.70117-1.0859l2.043-3.4883c0.3027-0.51682 0.60777-1.0754 0.916-1.6758l0.45508-0.77539 2.8008-4.6719c0.22705-0.38763 0.21153-0.65725-0.0468-0.8086-0.29071-0.17027-0.66313 0.13297-1.1172 0.9082-0.73784 1.2598-1.3362 2.0597-1.7949 2.3984-0.49097 0.31957-1.0114 0.31772-1.5605-4e-3 -0.21272-0.0813-1.5947-0.8687-4.1465-2.3633l-10.998-6.4414c1.0839-1.9247 2.372-3.0142 3.8652-3.2676 1.5122-0.28565 3.6234 0.14812 6.332 1.3008l4.2559 1.8418c1.7609 0.77105 3.7759 0.8872 6.043 0.34961 2.914-0.67927 5.2399-2.5049 6.9805-5.4766 1.3811-2.358 1.1682-4.0656-0.64063-5.125-1.0982-0.64325-1.9305-0.48076-2.498 0.48828-0.56757 0.96903-0.41705 1.7099 0.45508 2.2207 0.41991 0.24597 0.84704 0.25609 1.2813 0.0332 0.45313-0.25517 0.74579-0.34325 0.87499-0.26757 0.25839 0.15135 0.24473 0.4686-0.039 0.95312-0.34054 0.58142-1.0264 0.93741-2.0586 1.0703-1.0646 0.11397-3.1271-0.54985-6.1856-1.9942-3.8392-1.8148-7.0282-2.4044-9.5703-1.7676-2.5744 0.61789-5.0066 2.6214-7.2949 6.0098l-0.26172-0.21875c1.304-2.9671 2.048-5.3508 2.2344-7.1504 0.40604-4.1004-0.9401-7.0588-4.041-8.875-1.1871-0.69527-2.4626-1.0426-3.8242-1.043zm-5.5469 6.9121c1.3948-0.03 3.0032 0.4889 4.8262 1.5566 2.8748 1.6838 4.6279 3.4682 5.2578 5.3555 0.62989 1.8873 0.18962 4.0815-1.3184 6.582l-8.043-4.7109c-3.0686-1.7973-4.7811-2.9096-5.1387-3.3359-0.55926-0.67463-0.52666-1.5434 0.0977-2.6094 1.0855-1.8533 2.525-2.7993 4.3184-2.8379z" stroke-linejoin="round" stroke-width="4.1086" style="white-space:pre"/><path d="m639 380.4q0.40729 0.18948 0.2415 0.54585-0.26055 0.56002-2.4592 0.0945-4.3465-0.90739-6.5299 0.0586-2.1834 0.96595-3.8414 4.5297-0.63951 1.3746-1.0114 2.4402l30.977 14.35q1.2964 0.54123 1.9607 0.0452 0.66429-0.49604 2.2689-3.2795 0.31145-0.53634 0.71873-0.34685 0.50911 0.23686 0.13014 1.0514-0.0711 0.15273-0.40619 0.73998-0.4062 0.73997-0.64305 1.2491l-2.5923 5.1728-3.8738 8.7259q-0.3316 0.71274-0.73888 0.52326-0.30547-0.14212-0.26164-0.36945 0.0439-0.22733 0.67981-1.7274 1.2009-2.8475 0.0738-3.6196-0.61446-0.40973-10.288-4.91l-21.535-10.019q-0.31146 0.53633-0.66674 1.3-1.8948 4.0728-1.2439 6.6671 0.62372 2.5197 4.1815 4.8561 2.0743 1.3985 1.8137 1.9586-0.21317 0.4582-0.8241 0.17398-0.40729-0.18949-2.7053-1.5064-4.7998-2.7285-6.5852-3.683l0.35528-0.76366 1.6781-3.7402q0.0711-0.15274 1.7361-3.4655 1.6888-3.3636 4.1284-8.6074 1.3501-2.9019 2.365-5.2166 1.0149-2.3147 1.8913-4.1984 0.78161-1.68 1.0824-2.5929 3.3803 1.3868 8.8065 3.1681 0.91284 0.30083 1.1165 0.39558z" stroke-linejoin="round" stroke-width="4.1086" style="white-space:pre"/><path d="m650.35 422.99q0.41561 0.17045 0.13863 0.84581-0.14915 0.36366-0.32895 0.65407-1.4342 3.0532-2.3504 5.287-0.9588 2.3378-2.6566 6.9215-0.56595 1.5279-0.86423 2.2552-0.31961 0.77927-0.78717 0.58751-0.25975-0.10654-0.20517-0.3876 0.0759-0.33302 0.72706-2.0687 0.3488-1.7383-0.16809-2.2538-0.56883-0.53674-4.1015-1.9856l-24.989-10.248q-0.98707-0.40483-1.9222-0.78836-0.95643-0.33156-0.90447-0.31026-1.2988-0.53267-2.3641 2.0649-0.59659 1.4546-0.96025 1.3055-0.36367-0.14915-0.33039-0.37826 0.0333-0.22911 0.50202-1.372-0.21306 0.51951 0.819-1.8489 1.0321-2.3684 1.7352-4.0828l1.0866-2.6495q0.34091-0.83122 0.90685-2.3591 0.53529-1.6012 0.79097-2.2246l0.21307-0.51951q0.27698-0.67536 0.6926-0.50492 0.31171 0.12785 0.30908 0.43021-0.0333 0.22912-0.5353 1.6012-0.55661 1.6531-0.13429 2.2511l0.92315 0.56068 29.352 12.038q2.2339 0.91619 2.8413 0.61908 0.62867-0.34906 1.9564-3.1425 0.24371-0.44626 0.60737-0.2971z" stroke-linejoin="round" stroke-width="4.1086" style="white-space:pre"/><path d="m643.02 438.39q0.53024 0.18473 0.16077 1.2452l-0.12932 0.37117q-0.40642 1.1666-1.494 4.1175-1.0691 2.8979-1.5679 4.3296-0.20322 0.58326-0.79676 2.4576-0.62811 1.8028-1.6996 4.8783l-0.46185 1.3256q-0.25862 0.74235-0.73585 0.57609-0.47722-0.16627-0.21859-0.90862l0.68113-1.7844q0.90282-2.4207 0.18614-3.265-0.20971-0.25145-3.1261-1.2675l-28.758-9.9598q3.8099 3.2301 12.447 9.3312l14.618 10.266q2.6738 1.8829 2.4891 2.4132-0.20322 0.58328-1.8542 0.54323-0.53265-7e-3 -11.363-0.15337-4.0836-0.0552-22.83-0.52125l27.414 9.5509q2.3861 0.83131 2.8818 0.94455 0.44267 0.0948 0.90862-0.21858 0.96642-0.55522 1.5785-2.4826 0.61202-1.9274 1.2483-1.7057 0.37118 0.12932 0.0941 0.92469l-1.7502 4.6823q-0.47792 1.2011-0.92609 2.8288-0.6329 2.1579-0.89153 2.9003-0.38795 1.1135-0.86518 0.94725-0.42419-0.14778-0.11014-1.0492 0.73895-2.121 0.83372-2.5637 0.36059-1.7177-0.55452-2.3338-0.58087-0.38077-2.5958-1.0828l-25.293-8.812q-4.242-1.4779-5.116-1.1878-0.90861 0.2186-2.054 3.5061-0.29558 0.84841-0.7728 0.68214-0.53024-0.18474-0.16316-1.0677l0.55181-1.4132 3.4385-10.04q0.0555-0.15908 0.25624-0.5648 16.258 0.61013 27.052 0.86235l-21.95-15.675 0.38795-1.1135 2.4916-6.9808q0.0555-0.15907 0.31406-0.90141 0.22407-0.81385 0.44576-1.4502l0.84979-2.4391q0.36947-1.0605 0.8467-0.89424 0.53025 0.18474 0.25554 0.80257l-0.47792 1.2011q-0.88195 2.1901-0.62881 3.1702 0.27162 0.92709 1.8093 1.4628 0.42419 0.14778 1.8743 0.59355 1.4501 0.44577 13.328 4.5839l14.794 5.1542q1.9089 0.66506 2.5596-0.17855 0.61612-0.9151 1.2282-2.8425 0.6305-1.9804 1.1608-1.7956z" stroke-linejoin="round" stroke-width="4.1086" style="white-space:pre"/><path d="m680.9 312.51c-4.3241 0.0828-8.0728 1.6627-11.246 4.7422-3.7609 3.6498-5.5895 8.0841-5.4824 13.301 0.13389 5.1906 2.1839 9.8268 6.1465 13.91 3.8583 3.9758 8.4313 6.1364 13.721 6.4805 5.2894 0.34408 9.7201-1.2183 13.293-4.6856 3.6535-3.5455 5.388-7.914 5.2012-13.105-0.18605-5.2444-2.236-9.8806-6.1465-13.91-3.9626-4.0833-8.494-6.31-13.598-6.6777-0.64123-0.0493-1.2709-0.0666-1.8887-0.0546zm-6.5703 3.8281c0.70194 0.0137 1.4358 0.15394 2.2012 0.42187 3.7392 1.3268 8.2028 4.6639 13.391 10.01 4.2754 4.4057 7.1262 8.4716 8.5527 12.199 0.91707 2.3963 0.48786 4.4552-1.2852 6.1758-1.5312 1.486-3.2716 2.0288-5.2246 1.6289-4.6715-0.94369-9.7721-4.2639-15.299-9.959-3.8062-3.9221-6.3046-7.5732-7.498-10.953-1.1666-3.406-0.83846-5.9948 0.98828-7.7676 1.2374-1.2008 2.6296-1.7858 4.1738-1.7559z" style="white-space:pre"/></g><rect x="587.91" y="224.73" width="485.28" height="465.82" fill="none" stroke="#730000" stroke-linecap="round" stroke-linejoin="round" stroke-width="3"/></g></svg>
