<?xml version="1.0" encoding="UTF-8" standalone="no"?>
<!-- Created with Inkscape (http://www.inkscape.org/) -->

<svg
   width="88.047729"
   height="93.427063"
   viewBox="0 0 88.047729 93.427063"
   version="1.1"
   id="svg1"
   xml:space="preserve"
   xmlns="http://www.w3.org/2000/svg"
   xmlns:svg="http://www.w3.org/2000/svg"><defs
     id="defs1" /><g
     id="layer7"
     style="display:inline"
     transform="translate(-1192.2458,-402.15656)"><g
       id="g1029"
       transform="matrix(-1,0,0,1,2470.5394,0)"><path
         style="fill:#5b3d11;fill-opacity:1;stroke:#000000;stroke-width:3;stroke-linejoin:round;stroke-dasharray:none;stroke-opacity:1"
         d="m 1214.6622,434.13542 c -0.3097,0.92904 -22.9165,46.96817 -22.9165,46.96817 l 17.8068,-2.01293 6.0387,-29.93568 z"
         id="path727" /><path
         style="fill:#5b3d11;stroke:#000000;stroke-width:3;stroke-linejoin:round;stroke-dasharray:none"
         d="m 1195.9363,413.56635 9.6222,80.51727 71.2351,-6.6316 -12.2498,-83.79549 z"
         id="path4" /><path
         style="fill:#dcd7c9;fill-opacity:1;stroke:#000000;stroke-width:2;stroke-linejoin:round;stroke-dasharray:none"
         d="m 1226.7899,443.1144 2.0926,16.02831 17.1828,-2.40231 -1.7564,-15.85528 z"
         id="path7" /><path
         style="fill:none;fill-opacity:1;stroke:#ffffff;stroke-width:1;stroke-linecap:round;stroke-linejoin:bevel;stroke-dasharray:none;stroke-opacity:1"
         d="m 1223.7282,427.67184 -5.5743,7.75498"
         id="path728" /><path
         style="fill:none;fill-opacity:1;stroke:#ffffff;stroke-width:1;stroke-linecap:round;stroke-linejoin:bevel;stroke-dasharray:none;stroke-opacity:1"
         d="m 1228.1333,427.2602 -10.5291,15.81963"
         id="path729" /><path
         style="fill:#a92222;fill-opacity:0.786195;stroke:none;stroke-width:2.59832;stroke-linecap:round;stroke-linejoin:bevel;stroke-dasharray:none;stroke-opacity:1"
         d="m 1230.0562,445.6581 1.1483,10.33476 11.9424,-1.60762 -1.3779,-10.33476 z"
         id="path730" /><path
         style="fill:#243578;fill-opacity:1;stroke:none;stroke-width:1.41545;stroke-linecap:round;stroke-linejoin:bevel;stroke-dasharray:none;stroke-opacity:1"
         d="m 1233.1171,447.62679 0.6256,5.62994 6.5057,-0.87577 -0.7507,-5.62994 z"
         id="path18" /><path
         style="fill:#d9fcff;fill-opacity:0.244737;stroke:#000000;stroke-width:3;stroke-linejoin:round;stroke-dasharray:none"
         d="m 1218.3397,477.50271 42.267,-4.84864 -7.3261,-52.34986 -41.2408,6.01223 z"
         id="path6" /><path
         style="fill:none;fill-opacity:1;stroke:#ffffff;stroke-width:1;stroke-linecap:round;stroke-linejoin:bevel;stroke-dasharray:none;stroke-opacity:1"
         d="m 1255.7248,459.49165 -5.044,8.10853"
         id="path731" /><path
         style="fill:none;fill-opacity:1;stroke:#ffffff;stroke-width:1;stroke-linecap:round;stroke-linejoin:bevel;stroke-dasharray:none;stroke-opacity:1"
         d="m 1254.7053,454.48381 -10.5291,15.81963"
         id="path732" /><path
         style="fill:none;fill-opacity:1;stroke:#ffffff;stroke-width:1;stroke-linecap:round;stroke-linejoin:bevel;stroke-dasharray:none;stroke-opacity:1"
         d="m 1218.9748,428.99165 -3.794,5.35853"
         id="path733" /></g></g></svg>
