<?xml version="1.0" encoding="UTF-8"?>
<svg width="543.91" height="665.21" version="1.1" viewBox="0 0 543.91 665.21" xml:space="preserve" xmlns="http://www.w3.org/2000/svg"><g transform="translate(-597.01 -241.96)"><g transform="matrix(3.9313 0 0 3.9313 -4571 -221.78)" stroke="#000"><path d="m1390.8 203.05s-5.6662-6.7536-9.652-7.1652c-4.9095-0.50713-9.2649 3.5804-13.442 6.2095-5.2266 3.2896-11.242 6.4274-14.28 11.804-1.3914 2.4625-2.0776 5.6851-1.2566 8.3917 1.1373 3.7488 3.992 8.5104 7.905 8.6967 13.827 0.65834 30.726-27.937 30.726-27.937z" fill="#6a4714" stroke-linecap="round" stroke-linejoin="round" stroke-width="3"/><path d="m1373.5 285.07c13.774 0.84779 20.539-5.497 20.539-5.497l-17.605-26.691-34.244-1.8594s-2.599-10.833-6.8783-13.536c-3.6435-2.3006-9.139-2.3952-12.923-0.33344-2.9183 1.5901-4.3552 5.297-5.1873 8.5145-1.9268 7.4505-1.2651 15.697 0.947 23.067 1.744 5.8108 4.418 12.479 9.3905 15.591z" fill="#6a4714" stroke-linejoin="round" stroke-width="3.0009"/><path d="m1389.6 189.73s-13.287 16.507-16.71 26.318c-3.6794 10.545-6.6072 22.581-3.5357 33.319 1.2677 4.432 4.4291 8.7581 8.5108 10.9 11.365 5.964 38.437 2.2586 38.437 2.2586l22.212-26.012 8.84-29.127-9.8005-26.475-21.912 8.5077z" fill="#6a4714" stroke-linecap="round" stroke-linejoin="round" stroke-width="3"/><path d="m1411.7 247.24-35.314 2.4497s-3.855-9.3176-7.7-12.211c-3.4225-2.5752-8.0693-3.8706-12.342-3.575-4.2069 0.29105-9.0738 1.7469-11.551 5.1596-3.098 4.2677-2.0207 10.472-1.6599 15.733 0.3811 5.5577 1.878 11.077 4.0055 16.225 1.5196 3.6775 3.2592 7.4989 6.1546 10.228 1.9903 1.8762 4.626 3.1015 7.2683 3.8086 3.7549 1.0049 7.765 0.42397 11.652 0.47028 8.9784 0.10698 17.99 0.35684 26.933-0.44471 11.784-1.0561 25.268 0.9552 35.026-5.734 6.2725-4.2997 9.8456-12.261 11.557-19.67 2.1402-9.2641-2.1985-28.44-2.1985-28.44z" fill="#6a4714" stroke-linecap="round" stroke-linejoin="round" stroke-width="3"/><path d="m1419.8 187.65s1.5589 13.127 0.556 19.578c-1.6283 10.474-11.432 19.453-10.51 30.013 0.4022 4.605 2.9679 9.4852 6.7829 12.096 3.3929 2.3216 8.2626 2.868 12.212 1.7262 5.9003-1.7059 10.344-7.0212 14.054-11.917 3.496-4.6141 5.9676-10.141 7.2283-15.791 1.4467-6.4834 1.8585-13.496 0.1954-19.928-2.1607-8.3556-12.773-22.521-12.773-22.521z" fill="#6a4714" stroke-linecap="round" stroke-linejoin="round" stroke-width="3"/><ellipse transform="rotate(-10.919)" cx="1250.4" cy="508.28" rx="6.8943" ry="18.738" fill="#6a4714" stroke-linejoin="bevel" stroke-width="3"/><ellipse transform="rotate(-11.832)" cx="1269.2" cy="534.63" rx="6.8943" ry="18.738" fill="#6a4714" stroke-linejoin="bevel" stroke-width="3"/><path d="m1389.2 143.65c-2.3204-9.2673-9.7711-15.141 1.2966-21.624 20.298-8.0741 17.387 5.6101 23.117 16.03z" fill="#6a4714" stroke-linejoin="bevel" stroke-width="3.247"/><path d="m1390.5 138.83c-6.2072 4.2587-12.628 18.722-12.628 18.722s-9.9113 1.4098-12.284 5.1649c-3.9662 6.2774-3.9472 16.733 1.0198 22.253 11.371 12.636 33.718 10.864 50.415 7.6744 8.8884-1.6981 19.163-5.7178 23.442-13.691 5.3528-9.9727 4.2869-24.445-1.9341-33.9-4.8384-7.3541-14.877-10.769-23.618-11.817-8.2895-0.99403-17.53 0.87069-24.414 5.5939z" fill="#6a4714" stroke-linejoin="bevel" stroke-width="3.247"/><path d="m1435.7 146.82c3.1567-9.0168 11.112-14.186 0.6828-21.652-19.476-9.8933-17.827 3.9995-24.484 13.853" fill="#6a4714" stroke-linejoin="bevel" stroke-width="3.247"/><path d="m1389.7 154.16c-1.4508-0.10097-2.9821 1.1851-3.5628 2.5185-0.5693 1.3075-0.4033 3.1996 0.5722 4.2399 1.1477 1.2238 3.5906 1.9961 4.9345 0.99181 1.0415-0.77826 0.5084-2.595 0.3464-3.885-0.1128-0.89808-0.4082-1.8028-0.9024-2.5611-0.3466-0.53184-0.7546-1.2601-1.3879-1.3042z" stroke-linejoin="bevel" stroke-width="3.247"/><path d="m1366.7 164.64 3.7836 1.969s-2.5593 3.6109-3.818 5.4311c-0.3884 0.5619-1.1525 1.6947-1.1525 1.6947l-1.6395 1.4637s-1.2082-1.1629-1.4133-1.9348c-0.418-1.574 0.079-3.2948 0.5446-4.8553 0.2524-0.8447 0.5857-1.7223 1.195-2.3594 0.6613-0.69127 2.5001-1.4091 2.5001-1.4091z" stroke-linejoin="round" stroke-width="2.5773"/><path d="m1372.8 190.16 6.2736-3.1606 6.4134-6.2187" fill="#5b3d11" stroke-linecap="round" stroke-linejoin="bevel" stroke-width="3.247"/></g></g></svg>
