<?xml version="1.0" encoding="UTF-8" standalone="no"?>
<!-- Created with Inkscape (http://www.inkscape.org/) -->

<svg
   width="543.90521"
   height="665.2063"
   viewBox="0 0 543.90521 665.2063"
   version="1.1"
   id="svg1"
   xml:space="preserve"
   xmlns="http://www.w3.org/2000/svg"
   xmlns:svg="http://www.w3.org/2000/svg"><defs
     id="defs1" /><g
     id="g809"
     style="display:inline"
     transform="translate(-597.01141,-241.95998)"><g
       id="g808"
       transform="matrix(3.931333,0,0,3.931333,-4570.9823,-221.77992)"><path
         style="fill:#6a4714;fill-opacity:1;stroke:#000000;stroke-width:3;stroke-linecap:round;stroke-linejoin:round;stroke-dasharray:none;stroke-opacity:1"
         d="m 1390.7677,203.04789 c 0,0 -5.6662,-6.75355 -9.652,-7.16525 -4.9095,-0.50713 -9.2649,3.58042 -13.4421,6.20951 -5.2266,3.28958 -11.2417,6.42738 -14.2799,11.80402 -1.3914,2.46249 -2.0776,5.68513 -1.2566,8.39173 1.1373,3.74877 3.992,8.51037 7.905,8.69668 13.8268,0.65834 30.7256,-27.93669 30.7256,-27.93669 z"
         id="path785" /><path
         style="fill:#6a4714;fill-opacity:1;stroke:#000000;stroke-width:3.00094;stroke-linecap:butt;stroke-linejoin:round;stroke-dasharray:none;stroke-opacity:1"
         d="m 1373.5038,285.07086 c 13.7745,0.84779 20.5389,-5.49703 20.5389,-5.49703 l -17.605,-26.69107 -34.2437,-1.85945 c 0,0 -2.599,-10.83342 -6.8783,-13.53552 -3.6435,-2.30065 -9.139,-2.39519 -12.9229,-0.33344 -2.9183,1.59014 -4.3552,5.29696 -5.1873,8.51451 -1.9268,7.45048 -1.2651,15.69657 0.947,23.06736 1.744,5.81081 4.418,12.47874 9.3905,15.59106 z"
         id="path789" /><path
         style="fill:#6a4714;fill-opacity:1;stroke:#000000;stroke-width:3;stroke-linecap:round;stroke-linejoin:round;stroke-dasharray:none;stroke-opacity:1"
         d="m 1389.6085,189.72607 c 0,0 -13.2868,16.50683 -16.7103,26.31846 -3.6794,10.54513 -6.6072,22.58079 -3.5357,33.31876 1.2677,4.43202 4.4291,8.75814 8.5108,10.90025 11.3646,5.96404 38.437,2.25858 38.437,2.25858 l 22.2117,-26.0123 8.84,-29.12651 -9.8005,-26.47544 -21.9116,8.50772 z"
         id="path793" /><path
         style="fill:#6a4714;fill-opacity:1;stroke:#000000;stroke-width:3;stroke-linecap:round;stroke-linejoin:round;stroke-dasharray:none;stroke-opacity:1"
         d="m 1411.7361,247.2365 -35.3143,2.44968 c 0,0 -3.855,-9.31759 -7.7,-12.21077 -3.4225,-2.57525 -8.0693,-3.87063 -12.3423,-3.57502 -4.2069,0.29105 -9.0738,1.74694 -11.5511,5.15959 -3.098,4.26769 -2.0207,10.47223 -1.6599,15.73348 0.3811,5.55768 1.878,11.07661 4.0055,16.22509 1.5196,3.67747 3.2592,7.49893 6.1546,10.22833 1.9903,1.87621 4.626,3.10149 7.2683,3.80864 3.7549,1.00494 7.765,0.42397 11.6518,0.47028 8.9784,0.10698 17.9902,0.35684 26.9333,-0.44471 11.7836,-1.05613 25.2681,0.9552 35.0264,-5.73403 6.2725,-4.29974 9.8456,-12.26057 11.5573,-19.67015 2.1402,-9.26414 -2.1985,-28.43956 -2.1985,-28.43956 z"
         id="path795" /><path
         style="fill:#6a4714;fill-opacity:1;stroke:#000000;stroke-width:3;stroke-linecap:round;stroke-linejoin:round;stroke-dasharray:none;stroke-opacity:1"
         d="m 1419.8161,187.65191 c 0,0 1.5589,13.12668 0.556,19.57774 -1.6283,10.47427 -11.4323,19.45337 -10.51,30.01324 0.4022,4.60499 2.9679,9.48519 6.7829,12.09552 3.3929,2.32155 8.2626,2.86797 12.212,1.72615 5.9003,-1.70587 10.3445,-7.02121 14.0537,-11.91672 3.496,-4.61413 5.9676,-10.14111 7.2283,-15.79111 1.4467,-6.48338 1.8585,-13.49625 0.1954,-19.92751 -2.1607,-8.35557 -12.7729,-22.52135 -12.7729,-22.52135 z"
         id="path802" /><ellipse
         style="fill:#6a4714;fill-opacity:1;stroke:#000000;stroke-width:3;stroke-linejoin:bevel;stroke-dasharray:none;stroke-opacity:1"
         id="ellipse802"
         cx="1250.395"
         cy="508.27994"
         rx="6.8942909"
         ry="18.738329"
         transform="rotate(-10.919496)" /><ellipse
         style="fill:#6a4714;fill-opacity:1;stroke:#000000;stroke-width:3;stroke-linejoin:bevel;stroke-dasharray:none;stroke-opacity:1"
         id="ellipse803"
         cx="1269.2043"
         cy="534.63245"
         rx="6.8942909"
         ry="18.738329"
         transform="rotate(-11.831841)" /><path
         style="fill:#6a4714;fill-opacity:1;stroke:#000000;stroke-width:3.24701;stroke-linejoin:bevel;stroke-dasharray:none"
         d="m 1389.1839,143.64999 v 0 c -2.3204,-9.26728 -9.7711,-15.1411 1.2966,-21.62442 20.2983,-8.07407 17.3871,5.61009 23.1174,16.03048 v 0 0 z"
         id="path803" /><path
         style="fill:#6a4714;fill-opacity:1;stroke:#000000;stroke-width:3.24701;stroke-linejoin:bevel;stroke-dasharray:none"
         d="m 1390.4876,138.83401 c -6.2072,4.25866 -12.6278,18.72245 -12.6278,18.72245 0,0 -9.9113,1.40985 -12.2837,5.16494 -3.9662,6.27738 -3.9472,16.73323 1.0198,22.2527 11.3708,12.63558 33.7185,10.86415 50.4153,7.6744 8.8884,-1.69806 19.1627,-5.71785 23.4422,-13.69111 5.3528,-9.9727 4.2869,-24.44467 -1.9341,-33.90011 -4.8384,-7.35409 -14.8773,-10.76909 -23.6176,-11.8172 -8.2895,-0.99403 -17.5296,0.87069 -24.4141,5.59393 z"
         id="path804" /><path
         style="fill:#6a4714;fill-opacity:1;stroke:#000000;stroke-width:3.24701;stroke-linejoin:bevel;stroke-dasharray:none"
         d="m 1435.7404,146.82438 v 0 c 3.1567,-9.01676 11.1124,-14.18591 0.6828,-21.65248 -19.4765,-9.89332 -17.8266,3.99946 -24.4843,13.85324 v 0 0"
         id="path805" /><path
         style="fill:#000000;fill-opacity:1;stroke:#000000;stroke-width:3.24701;stroke-linejoin:bevel;stroke-dasharray:none;stroke-opacity:1"
         d="m 1389.7477,154.15906 c -1.4508,-0.10097 -2.9821,1.18506 -3.5628,2.5185 -0.5693,1.30753 -0.4033,3.19961 0.5722,4.23987 1.1477,1.22379 3.5906,1.99611 4.9345,0.99181 1.0415,-0.77826 0.5084,-2.59496 0.3464,-3.88495 -0.1128,-0.89808 -0.4082,-1.80279 -0.9024,-2.56107 -0.3466,-0.53184 -0.7546,-1.26008 -1.3879,-1.30416 z"
         id="path806" /><path
         style="fill:#000000;fill-opacity:1;stroke:#000000;stroke-width:2.5773;stroke-linecap:butt;stroke-linejoin:round;stroke-dasharray:none;stroke-opacity:1"
         d="m 1366.6732,164.64345 3.7836,1.96903 c 0,0 -2.5593,3.61091 -3.818,5.43106 -0.3884,0.5619 -1.1525,1.69469 -1.1525,1.69469 l -1.6395,1.46373 c 0,0 -1.2082,-1.16289 -1.4133,-1.93482 -0.418,-1.574 0.079,-3.29481 0.5446,-4.85526 0.2524,-0.8447 0.5857,-1.7223 1.195,-2.35935 0.6613,-0.69127 2.5001,-1.40908 2.5001,-1.40908 z"
         id="path807" /><path
         style="fill:#5b3d11;fill-opacity:1;stroke:#000000;stroke-width:3.24701;stroke-linecap:round;stroke-linejoin:bevel;stroke-dasharray:none;stroke-opacity:1"
         d="m 1372.7786,190.15702 6.2736,-3.16063 6.4134,-6.21874"
         id="path808" /></g></g></svg>
