<svg width="2634.8" height="455.17" version="1.2" viewBox="0 0 2634.8 455.17" xmlns="http://www.w3.org/2000/svg">
 <title>Songs (1)</title>
 <desc>Generated by MuseScore Studio 4.4.3</desc>
 <g fill="none" stroke="#000" stroke-linejoin="bevel">
  <g stroke-width="2.73">
   <path class="StaffLines" transform="translate(-212.6 -212.59)" d="m212.6 394.36h2634.8"/>
   <path class="StaffLines" transform="translate(-212.6 -212.59)" d="m212.6 419.16h2634.8"/>
   <path class="StaffLines" transform="translate(-212.6 -212.59)" d="m212.6 443.96h2634.8"/>
   <path class="StaffLines" transform="translate(-212.6 -212.59)" d="m212.6 468.76h2634.8"/>
   <path class="StaffLines" transform="translate(-212.6 -212.59)" d="m212.6 493.56h2634.8"/>
  </g>
  <path class="BarLine" transform="translate(-212.6 -212.59)" d="m2845.2 392.99v101.93" stroke-width="4.46"/>
  <g stroke-width="3.97">
   <path class="LedgerLine" transform="translate(-212.6 -212.59)" d="m2680.9 344.76h48.6"/>
   <path class="LedgerLine" transform="translate(-212.6 -212.59)" d="m2680.9 369.56h48.6"/>
   <path class="LedgerLine" transform="translate(-212.6 -212.59)" d="m2527 369.56h48.59"/>
   <path class="LedgerLine" transform="translate(-212.6 -212.59)" d="m2373.1 369.56h48.59"/>
  </g>
  <g stroke-width="2.48">
   <path class="Stem" transform="translate(-212.6 -212.59)" d="m2690.3 348.92v95.033"/>
   <path class="Stem" transform="translate(-212.6 -212.59)" d="m2536.4 361.32v82.633"/>
   <path class="Stem" transform="translate(-212.6 -212.59)" d="m2382.5 373.72v82.633"/>
   <path class="Stem" transform="translate(-212.6 -212.59)" d="m2228.7 386.12v82.633"/>
   <path class="Stem" transform="translate(-212.6 -212.59)" d="m2074.8 386.12v82.633"/>
   <path class="Stem" transform="translate(-212.6 -212.59)" d="m1920.9 398.52v82.633"/>
   <path class="Stem" transform="translate(-212.6 -212.59)" d="m1767 410.92v82.634"/>
   <path class="Stem" transform="translate(-212.6 -212.59)" d="m1613.1 423.32v82.634"/>
   <path class="Stem" transform="translate(-212.6 -212.59)" d="m1489 427.59v-64.232"/>
   <path class="Stem" transform="translate(-212.6 -212.59)" d="m1335.1 439.99v-70.432"/>
   <path class="Stem" transform="translate(-212.6 -212.59)" d="m1181.2 452.39v-76.632"/>
   <path class="Stem" transform="translate(-212.6 -212.59)" d="m1027.4 464.79v-82.832"/>
   <path class="Stem" transform="translate(-212.6 -212.59)" d="m873.49 464.79v-82.832"/>
   <path class="Stem" transform="translate(-212.6 -212.59)" d="m719.61 477.19v-82.832"/>
   <path class="Stem" transform="translate(-212.6 -212.59)" d="m565.73 489.59v-82.832"/>
   <path class="Stem" transform="translate(-212.6 -212.59)" d="m411.85 501.99v-82.833"/>
  </g>
 </g>
 <g stroke-width=".992">
  <path class="Note" d="m1245.4 223.13c0 4.2656 3.0752 9.0272 11.11 9.0272 10.317 0 21.13-8.432 21.13-17.162 0-5.8528-4.96-9.1264-11.11-9.1264-9.6224 0-21.13 8.1344-21.13 17.261"/>
  <path class="Note" d="m168.27 297.53c0 4.2656 3.0752 9.0272 11.11 9.0272 10.317 0 21.13-8.432 21.13-17.162 0-5.8528-4.96-9.1264-11.11-9.1264-9.6224 0-21.13 8.1344-21.13 17.261"/>
  <path class="Note" d="m322.15 285.13c0 4.2656 3.0752 9.0272 11.11 9.0272 10.317 0 21.13-8.432 21.13-17.162 0-5.8528-4.96-9.1264-11.11-9.1264-9.6224 0-21.13 8.1344-21.13 17.261"/>
  <path class="Note" d="m476.03 272.73c0 4.2656 3.0752 9.0272 11.11 9.0272 10.317 0 21.13-8.432 21.13-17.162 0-5.8528-4.96-9.1264-11.11-9.1264-9.6224 0-21.13 8.1344-21.13 17.261"/>
  <path class="Note" d="m629.91 260.33c0 4.2656 3.0752 9.0272 11.11 9.0272 10.317 0 21.13-8.432 21.13-17.162 0-5.8528-4.96-9.1264-11.11-9.1264-9.6224 0-21.13 8.1344-21.13 17.261"/>
  <path class="Note" d="m783.79 260.33c0 4.2656 3.0752 9.0272 11.11 9.0272 10.317 0 21.13-8.432 21.13-17.162 0-5.8528-4.96-9.1264-11.11-9.1264-9.6224 0-21.13 8.1344-21.13 17.261"/>
  <path class="Note" d="m937.66 247.93c0 4.2656 3.0752 9.0272 11.11 9.0272 10.317 0 21.13-8.432 21.13-17.162 0-5.8528-4.96-9.1264-11.11-9.1264-9.6224 0-21.13 8.1344-21.13 17.261"/>
  <path class="Note" d="m2476.5 136.33c0 4.2656 3.0752 9.0272 11.11 9.0272 10.317 0 21.13-8.432 21.13-17.162 0-5.8528-4.96-9.1264-11.11-9.1264-9.6224 0-21.13 8.1344-21.13 17.261"/>
  <path class="Note" d="m2322.6 148.73c0 4.2656 3.0752 9.0272 11.11 9.0272 10.317 0 21.13-8.432 21.13-17.162 0-5.8528-4.96-9.1264-11.11-9.1264-9.6224 0-21.13 8.1344-21.13 17.261"/>
  <path class="Note" d="m2168.7 161.13c0 4.2656 3.0752 9.0272 11.11 9.0272 10.317 0 21.13-8.432 21.13-17.162 0-5.8528-4.96-9.1264-11.11-9.1264-9.6224 0-21.13 8.1344-21.13 17.261"/>
  <path class="Note" d="m2014.8 173.53c0 4.2656 3.0752 9.0272 11.11 9.0272 10.317 0 21.13-8.432 21.13-17.162 0-5.8528-4.96-9.1264-11.11-9.1264-9.6224 0-21.13 8.1344-21.13 17.261"/>
  <path class="Note" d="m1860.9 173.53c0 4.2656 3.0752 9.0272 11.11 9.0272 10.317 0 21.13-8.432 21.13-17.162 0-5.8528-4.96-9.1264-11.11-9.1264-9.6224 0-21.13 8.1344-21.13 17.261"/>
  <path class="Note" d="m1707.1 185.93c0 4.2656 3.0752 9.0272 11.11 9.0272 10.317 0 21.13-8.432 21.13-17.162 0-5.8528-4.96-9.1264-11.11-9.1264-9.6224 0-21.13 8.1344-21.13 17.261"/>
  <path class="Note" d="m1553.2 198.33c0 4.2656 3.0752 9.0272 11.11 9.0272 10.317 0 21.13-8.432 21.13-17.162 0-5.8528-4.96-9.1264-11.11-9.1264-9.6224 0-21.13 8.1344-21.13 17.261"/>
  <path class="Note" d="m1091.5 235.53c0 4.2656 3.0752 9.0272 11.11 9.0272 10.317 0 21.13-8.432 21.13-17.162 0-5.8528-4.96-9.1264-11.11-9.1264-9.6224 0-21.13 8.1344-21.13 17.261"/>
  <path class="Note" d="m1399.3 210.73c0 4.2656 3.0752 9.0272 11.11 9.0272 10.317 0 21.13-8.432 21.13-17.162 0-5.8528-4.96-9.1264-11.11-9.1264-9.6224 0-21.13 8.1344-21.13 17.261"/>
  <path class="Clef" d="m30.802 307.05c0 6.5472 4.96 15.178 18.352 15.178 4.6624 0 8.7296-1.1904 12.301-3.3728 5.3568-3.7696 6.7456-10.317 6.7456-16.566 0-3.8688-0.5952-8.3328-1.5872-13.987-0.2976-1.984-0.8928-4.96-1.488-8.8288 9.7216-3.1744 16.963-13.293 16.963-23.51 0-14.979-10.614-25.098-25.098-25.098-0.992-5.952-1.984-11.805-2.7776-17.36 10.416-11.011 17.658-23.411 17.658-39.184 0-9.0272-2.7776-16.368-4.3648-19.939-2.3808-5.0592-5.2576-8.5312-7.0432-8.5312-0.6944 0-3.7696 1.1904-7.0432 5.0592-6.3488 7.5392-8.1344 20.237-8.1344 28.57 0 5.3568 0.496 10.218 2.1824 21.328-0.0992 0.0992-5.2576 5.3568-7.3408 7.0432-9.0272 8.3328-21.526 20.435-21.526 40.275 0 18.55 16.17 33.133 34.621 33.133 2.8768 0 5.5552-0.29761 7.8368-0.69441 1.8848 9.5232 3.0752 16.467 3.0752 21.725 0 10.317-5.3568 15.773-15.376 15.773-2.3808 0-4.464-0.496-4.6624-0.496-0.0992-0.0992-0.2976-0.1984-0.2976-0.2976 0-0.1984 0.1984-0.2976 0.496-0.2976 4.6624-0.7936 9.3248-4.7616 9.3248-11.11 0-5.3568-4.0672-11.011-11.507-11.011-6.944 0-11.309 5.6544-11.309 12.202m20.733-132.43c0.8928-3.968 5.456-14.384 10.614-14.384 1.488 0 3.8688 4.7616 3.8688 11.706 0 10.317-7.6384 18.054-14.483 24.8-0.5952-3.968-1.0912-7.8368-1.0912-12.003 0-3.6704 0.2976-7.0432 1.0912-10.118m8.7296 101.98c-1.984 0.3968-3.8688 0.5952-5.7536 0.5952-14.186 0-26.288-9.92-26.288-24.899 0-12.102 8.5312-22.915 17.261-30.454 1.6864-1.488 3.2736-2.8768 4.7616-4.3648 0.8928 5.3568 1.5872 10.019 2.2816 14.086-9.0272 2.6784-15.178 12.202-15.178 21.526 0 6.944 5.456 16.467 13.392 16.467 0.7936 0 1.6864-0.3968 1.6864-1.2896s-0.992-1.3888-2.1824-2.1824c-3.8688-2.3808-6.0512-4.96-6.0512-9.8208 0-6.0512 4.5632-10.912 10.317-12.301l5.7536 32.637m14.086-18.352c0 7.0432-2.8768 14.285-9.92 17.162-2.0832-11.904-4.7616-27.677-5.456-32.042 8.928 0 15.376 6.0512 15.376 14.88"/>
  <path class="KeySig" d="m123.79 171.35c0.5952-0.0992 1.0912-0.7936 1.0912-1.3888v-5.8528c0-0.992-0.6944-1.3888-1.5872-1.3888l-3.2736 0.6944v-14.781h-2.7776v15.376l-8.8288 1.7856v-13.987h-2.7776v14.582l-3.8688 0.79361c-0.5952 0.0992-1.0912 0.7936-1.0912 1.3888v5.7536c0 1.0912 0.7936 1.3888 1.6864 1.3888l3.2736-0.6944v16.368l-3.8688 0.7936c-0.5952 0.0992-1.0912 0.7936-1.0912 1.3888v5.7536c0 1.0912 0.7936 1.3888 1.6864 1.3888l3.2736-0.6944v14.781h2.7776v-15.376l8.8288-1.7856v13.987h2.7776v-14.582l3.7696-0.69441c0.5952-0.0992 1.0912-0.7936 1.0912-1.3888v-5.8528c0-0.992-0.6944-1.3888-1.5872-1.3888l-3.2736 0.6944v-16.368l3.7696-0.6944m-15.376 3.0752 8.8288-1.7856v16.368l-8.8288 1.8848v-16.467"/>
 </g>
 <path class="SystemText" d="m175.94 19.35h2.9c5.05 0.2 7.05 2.25 7.6 7.75l0.25 2.55c0.6 5.65 2.45 7.95 6.4 7.95 4.1 0 6.05-2.75 6.2-8.75h-2.1c-0.2 3.45-0.8 4.95-2.15 4.95-1.15 0-1.65-0.85-2.5-4.3l-0.8-3.15c-1.1-4.6-3.05-6.7-6.95-7.7 7.2-1 10.65-3.9 10.65-8.95 0-5.7-4.8-8.95-13.2-8.95h-17.3v2.35h0.9c2.85 0.05 3.8 0.2 4.2 0.7 0.3 0.45 0.3 0.55 0.3 3.1v23.85c0 2.5 0 2.6-0.3 3.1-0.4 0.5-1.35 0.65-4.2 0.65h-0.9v2.35h16.4v-2.35h-0.9c-2.85 0-3.8-0.15-4.2-0.65-0.3-0.5-0.3-0.6-0.3-3.1v-11.4m0-2.35v-11c-0.1-2.75 0.15-2.95 3.45-2.9h2.7c4.95 0 7.2 2.1 7.2 6.65 0 5.25-2.8 7.25-7.85 7.25h-5.5m46.941 3.75c0-3.15-0.55-4.75-2-5.95-1.65-1.35-4.1-2-7.3-2-5.65 0-9.75 2.65-9.75 6.3 0 1.85 1.15 3.05 2.9 3.05 1.6 0 2.7-1.05 2.7-2.55 0-0.65-0.25-1.35-0.75-2.05-0.3-0.35-0.35-0.45-0.35-0.7 0-1 2-1.9 4.4-1.9 1.6 0 3.35 0.5 4.15 1.25 0.95 0.8 1.3 2 1.3 4.25v1.95c-5.2 0.9-6.85 1.3-9.3 2.25-4.35 1.6-6.4 3.9-6.4 7.1 0 3.6 2.8 5.85 7.25 5.85 3.45 0 6.55-1.4 8.7-3.95 0.8 2.55 2.05 3.55 4.4 3.55 2.25 0 4.6-1.45 4.6-2.9 0-0.35-0.2-0.6-0.5-0.6-0.2 0-0.4 0.05-0.75 0.2-0.7 0.3-1 0.35-1.4 0.35-1.4 0-1.9-0.9-1.9-3.45v-10.05m-4.7 6.1c0 3-0.15 3.7-1 5-1.25 1.85-3.5 3.1-5.7 3.1-2.3 0-3.95-1.65-3.95-3.9 0-2.1 1.05-3.6 3.25-4.65 1.55-0.7 3.5-1.2 7.4-1.85v2.3m28.897 10.35 8.7-0.35v-2.15h-0.9c-2.85-0.15-3.1-0.45-3.1-3.65v-31.05l-9.8 0.55v2.15h2.95c1.9 0.05 2.15 0.35 2.15 2.5v11.3c-1.85-2.55-4-3.7-6.9-3.7-5.65 0-9.95 5.45-9.95 12.65 0 7.1 4.15 12.15 9.95 12.15 3.15 0 5.3-1.35 6.9-4.35v3.95m-5.9-21.7c2.05 0 4 1.5 4.9 3.8 0.65 1.5 0.95 3.55 0.95 6 0 5.85-2.3 9.6-5.9 9.6-3.55 0-5.65-3.3-5.65-8.85 0-3 0.3-5.25 0.95-6.9 0.85-2.25 2.7-3.65 4.75-3.65m23.537-14.4c-1.6 0-2.9 1.3-2.9 2.9s1.3 2.9 2.85 2.9c1.65 0 2.95-1.3 2.95-2.9s-1.3-2.9-2.9-2.9m2.35 12.45-9.4 0.55v2.15h2.55c1.9 0.05 2.15 0.35 2.15 2.5v14.3c-0.05 0.75-0.1 1.05-0.3 1.3-0.35 0.45-1.3 0.65-3.45 0.7h-0.35v1.8h12.95v-1.8h-0.35c-3.35-0.1-3.8-0.35-3.8-2.15v-19.35m18.05-0.75c-6.15 0-10.9 5.45-10.9 12.45 0 6.85 4.8 12.35 10.8 12.35s10.8-5.5 10.8-12.4c0-6.85-4.8-12.4-10.7-12.4m0 2.15c3.5 0 5.45 3.65 5.45 10.25 0 6.65-1.95 10.25-5.55 10.25s-5.55-3.6-5.55-10.2c0-6.8 1.9-10.3 5.65-10.3m36.191-1.4-8.85 0.55v2.15h2.05c1.9 0.05 2.15 0.35 2.15 2.5v14.3c-0.05 0.75-0.1 1.05-0.3 1.3-0.35 0.45-1.35 0.65-3.5 0.7h-0.2v1.8h13.35v-1.8h-0.9c-3.35-0.1-3.8-0.35-3.8-2.15v-2.7c0.05-8.4 3.05-14.8 6.95-15-0.7 0.8-0.9 1.3-0.9 2.25 0 1.6 1.15 2.75 2.75 2.75 1.85 0 3.05-1.35 3.05-3.35 0-2.45-1.7-4.05-4.35-4.05-3.15 0-5.85 2.5-7.5 6.95v-6.2m34.481 7.2c0-3.15-0.55-4.75-2-5.95-1.65-1.35-4.1-2-7.3-2-5.65 0-9.75 2.65-9.75 6.3 0 1.85 1.15 3.05 2.9 3.05 1.6 0 2.7-1.05 2.7-2.55 0-0.65-0.25-1.35-0.75-2.05-0.3-0.35-0.35-0.45-0.35-0.7 0-1 2-1.9 4.4-1.9 1.6 0 3.35 0.5 4.15 1.25 0.95 0.8 1.3 2 1.3 4.25v1.95c-5.2 0.9-6.85 1.3-9.3 2.25-4.35 1.6-6.4 3.9-6.4 7.1 0 3.6 2.8 5.85 7.25 5.85 3.45 0 6.55-1.4 8.7-3.95 0.8 2.55 2.05 3.55 4.4 3.55 2.25 0 4.6-1.45 4.6-2.9 0-0.35-0.2-0.6-0.5-0.6-0.2 0-0.4 0.05-0.75 0.2-0.7 0.3-1 0.35-1.4 0.35-1.4 0-1.9-0.9-1.9-3.45v-10.05m-4.7 6.1c0 3-0.15 3.7-1 5-1.25 1.85-3.5 3.1-5.7 3.1-2.3 0-3.95-1.65-3.95-3.9 0-2.1 1.05-3.6 3.25-4.65 1.55-0.7 3.5-1.2 7.4-1.85v2.3m19.897-13.3-8.65 0.55v2.15h1.8c1.9 0.05 2.15 0.35 2.15 2.5v14.3c-0.05 0.75-0.1 1.05-0.3 1.3-0.35 0.45-1.3 0.65-3.45 0.7h-0.2v1.8h12.65v-1.8h-0.2c-3.35-0.1-3.8-0.35-3.8-2.15v-7.4c0-2.45 0.35-4.7 0.9-5.85 1.05-2.25 3.3-3.8 5.45-3.8 1.3 0 2.8 0.7 3.55 1.75 0.75 1.1 1.1 2.6 1.1 5v10.45c-0.05 0.75-0.1 1.05-0.3 1.3-0.35 0.45-1.35 0.65-3.5 0.7h-0.2v1.8h12.65v-1.8h-0.2c-3.3-0.1-3.75-0.35-3.75-2.15v-10.05c0-3.6-0.15-4.5-1.05-6.2-1.25-2.4-3.75-3.85-6.75-3.85-3.25 0-5.7 1.5-7.9 4.8v-4.05m30.191 19.6c-2.75-0.05-2.9-0.1-3.5-0.45-0.35-0.2-0.6-0.75-0.6-1.3 0-1.5 1.35-2.15 4.7-2.25 4.7-0.1 5.45-0.2 7.15-0.95 3-1.35 4.65-3.95 4.65-7.25 0-2-0.45-3.25-1.8-4.9 0.85-0.9 1.3-1.2 1.7-1.2 0.25 0 0.4 0.15 0.5 0.7 0.2 1.2 1 1.85 2.25 1.85 1.3 0 2.25-1.05 2.25-2.4 0-1.7-1.35-2.9-3.3-2.9-1.6 0-2.5 0.5-4.8 2.6-2.1-1.4-3.7-1.9-6.2-1.9-5.95 0-9.85 3.3-9.85 8.3 0 2.95 1.6 5.45 4.2 6.7-3.35 0.75-4.75 2.25-4.75 5 0 2.2 1 3.5 3.35 4.3-3.1 1.15-4.6 2.7-4.6 4.75 0 1.5 1 2.9 2.6 3.75 1.95 1 4.35 1.4 7.95 1.4 8.35 0 12.5-2.65 12.5-7.9 0-2.5-1.15-4.5-2.95-5.25-1.35-0.5-2.95-0.7-6.35-0.7h-5.1m2.95-18.2c3.1 0 4.85 2.15 4.85 6.05s-1.9 6.25-5.05 6.25c-3.1 0-5.05-2.35-5.05-6.1 0-3.95 1.9-6.2 5.25-6.2m-0.45 22.5c4.15 0 4.45 0 5.15 0.1 2.05 0.2 3.25 1.3 3.25 2.9 0 2.85-3.25 4.5-8.8 4.5-4.25 0-6.6-1.25-6.6-3.5 0-1.65 0.9-2.75 3.3-4h3.7m37.231-11.85c0.05-7.5-4.2-12.8-10.3-12.8-6.4 0-11.2 5.55-11.2 13.05 0 7.05 4.55 11.75 11.3 11.75 4.8 0 8.15-2.35 10.2-7.1l-1.75-0.95c-2.05 3.85-4.15 5.35-7.5 5.35-2.55 0-4.4-1.05-5.7-3.3-0.9-1.5-1.3-3.25-1.25-6h16.2m-16.15-2.15c0-3.5 1.6-8.5 5.8-8.5 3 0 5 2.65 5 6.7 0 1.4-0.45 1.8-2.05 1.8h-8.75"/>
 <path class="TextLineSegment" d="m1427.1 121.87v11.2c0 2.55 0 2.65-0.3 3.1-0.4 0.5-1.35 0.7-4.2 0.7h-0.9v2.35h16.4v-2.35h-0.9c-2.85 0-3.8-0.2-4.2-0.7-0.3-0.45-0.3-0.5-0.3-3.1v-23.8c0-2.6 0-2.65 0.3-3.1 0.45-0.55 1.35-0.7 4.2-0.7h0.9v-2.35h-16.2v2.35h0.7c2.85 0 3.75 0.15 4.2 0.7 0.3 0.45 0.3 0.55 0.3 3.1v9.9h-16.75v-9.9c0-2.55 0-2.65 0.35-3.1 0.4-0.55 1.3-0.7 4.15-0.7h0.95v-2.35h-16.45v2.35h0.9c2.85 0 3.75 0.15 4.2 0.7 0.3 0.45 0.3 0.55 0.3 3.1v23.8c0 2.5 0 2.65-0.3 3.1-0.4 0.5-1.35 0.7-4.2 0.7h-0.9v2.35h16.45v-2.35h-0.95c-2.85-0.05-3.75-0.2-4.15-0.7-0.35-0.45-0.35-0.55-0.35-3.1v-11.2h16.75m35.7 6.1c0.05-7.5-4.2-12.8-10.3-12.8-6.4 0-11.2 5.55-11.2 13.05 0 7.05 4.55 11.75 11.3 11.75 4.8 0 8.15-2.35 10.2-7.1l-1.75-0.95c-2.05 3.85-4.15 5.35-7.5 5.35-2.55 0-4.4-1.05-5.7-3.3-0.9-1.5-1.3-3.25-1.25-6h16.2m-16.15-2.15c0-3.5 1.6-8.5 5.8-8.5 3 0 5 2.65 5 6.7 0 1.4-0.45 1.8-2.05 1.8h-8.75m40.18-2.7c0-3.15-0.55-4.75-2-5.95-1.65-1.35-4.1-2-7.3-2-5.65 0-9.75 2.65-9.75 6.3 0 1.85 1.15 3.05 2.9 3.05 1.6 0 2.7-1.05 2.7-2.55 0-0.65-0.25-1.35-0.75-2.05-0.3-0.35-0.35-0.45-0.35-0.7 0-1 2-1.9 4.4-1.9 1.6 0 3.35 0.5 4.15 1.25 0.95 0.8 1.3 2 1.3 4.25v1.95c-5.2 0.9-6.85 1.3-9.3 2.25-4.35 1.6-6.4 3.9-6.4 7.1 0 3.6 2.8 5.85 7.25 5.85 3.45 0 6.55-1.4 8.7-3.95 0.8 2.55 2.05 3.55 4.4 3.55 2.25 0 4.6-1.45 4.6-2.9 0-0.35-0.2-0.6-0.5-0.6-0.2 0-0.4 0.05-0.75 0.2-0.7 0.3-1 0.35-1.4 0.35-1.4 0-1.9-0.9-1.9-3.45v-10.05m-4.7 6.1c0 3-0.15 3.7-1 5-1.25 1.85-3.5 3.1-5.7 3.1-2.3 0-3.95-1.65-3.95-3.9 0-2.1 1.05-3.6 3.25-4.65 1.55-0.7 3.5-1.2 7.4-1.85v2.3m28.9 10.35 8.7-0.35v-2.15h-0.9c-2.85-0.15-3.1-0.45-3.1-3.65v-31.05l-9.8 0.55v2.15h2.95c1.9 0.05 2.15 0.35 2.15 2.5v11.3c-1.85-2.55-4-3.7-6.9-3.7-5.65 0-9.95 5.45-9.95 12.65 0 7.1 4.15 12.15 9.95 12.15 3.15 0 5.3-1.35 6.9-4.35v3.95m-5.9-21.7c2.05 0 4 1.5 4.9 3.8 0.65 1.5 0.95 3.55 0.95 6 0 5.85-2.3 9.6-5.9 9.6-3.55 0-5.65-3.3-5.65-8.85 0-3 0.3-5.25 0.95-6.9 0.85-2.25 2.7-3.65 4.75-3.65m25.64-1.95-8.65 0.55v2.15h1.8c1.9 0.05 2.15 0.35 2.15 2.5v24.45c-0.05 0.7-0.1 1-0.3 1.25-0.35 0.45-1.3 0.65-3.45 0.7h-0.2v1.8h13v-1.8h-0.55c-3.35-0.1-3.8-0.35-3.8-2.15v-9.45c1.65 2.9 3.5 4.05 6.6 4.05 6.65 0 10.1-6.55 10.1-12.5 0-5.65-3.45-12.3-9.8-12.3-3.1 0-5.15 1.3-6.9 4.3v-3.55m6 1.95c3.45 0 5.45 3.45 5.45 9.3 0 6.45-2 10.1-5.6 10.1s-5.9-3.7-5.9-9.45c0-6.25 2.25-9.95 6.05-9.95m22.63-15.5-9.25 0.55v2.15h2.4c1.9 0.05 2.15 0.35 2.15 2.5v27.9c-0.05 0.7-0.1 1-0.3 1.25-0.35 0.45-1.3 0.65-3.45 0.7h-0.2v1.8h12.65v-1.8h-0.2c-3.35-0.1-3.8-0.35-3.8-2.15v-7.4c0-2.45 0.35-4.7 0.9-5.85 1.1-2.25 3.3-3.8 5.45-3.8 1.3 0 2.8 0.75 3.5 1.75 0.8 1.1 1.15 2.6 1.15 5.05v10.45c-0.05 0.7-0.1 1-0.3 1.25-0.35 0.45-1.35 0.65-3.5 0.7h-0.2v1.8h12.65v-1.8h-0.2c-3.3-0.1-3.75-0.35-3.75-2.15v-10.05c0-3.6-0.15-4.5-1.05-6.2-1.25-2.45-3.75-3.85-6.75-3.85-3.25 0-5.65 1.45-7.9 4.8v-17.6m33.15 12.8c-6.15 0-10.9 5.45-10.9 12.45 0 6.85 4.8 12.35 10.8 12.35s10.8-5.5 10.8-12.4c0-6.85-4.8-12.4-10.7-12.4m0 2.15c3.5 0 5.45 3.65 5.45 10.25 0 6.65-1.95 10.25-5.55 10.25s-5.55-3.6-5.55-10.2c0-6.8 1.9-10.3 5.65-10.3m22.4-1.4-8.65 0.55v2.15h1.8c1.9 0.05 2.15 0.35 2.15 2.5v14.3c-0.05 0.75-0.1 1.05-0.3 1.3-0.35 0.45-1.3 0.65-3.45 0.7h-0.2v1.8h12.65v-1.8h-0.2c-3.35-0.1-3.8-0.35-3.8-2.15v-7.4c0-2.45 0.35-4.7 0.9-5.85 1.05-2.25 3.3-3.8 5.45-3.8 1.3 0 2.8 0.7 3.55 1.75 0.75 1.1 1.1 2.6 1.1 5v10.45c-0.05 0.75-0.1 1.05-0.3 1.3-0.35 0.45-1.35 0.65-3.5 0.7h-0.2v1.8h12.65v-1.8h-0.2c-3.3-0.1-3.75-0.35-3.75-2.15v-10.05c0-3.6-0.15-4.5-1.05-6.2-1.25-2.4-3.75-3.85-6.75-3.85-3.25 0-5.7 1.5-7.9 4.8v-4.05m43.8 12.05c0.05-7.5-4.2-12.8-10.3-12.8-6.4 0-11.2 5.55-11.2 13.05 0 7.05 4.55 11.75 11.3 11.75 4.8 0 8.15-2.35 10.2-7.1l-1.75-0.95c-2.05 3.85-4.15 5.35-7.5 5.35-2.55 0-4.4-1.05-5.7-3.3-0.9-1.5-1.3-3.25-1.25-6h16.2m-16.15-2.15c0-3.5 1.6-8.5 5.8-8.5 3 0 5 2.65 5 6.7 0 1.4-0.45 1.8-2.05 1.8h-8.75"/>
 <path class="TextLineSegment" transform="translate(-212.6 -212.59)" d="m1884.1 338.43h318.55v37.2" fill="none" stroke="#000" stroke-miterlimit="2" stroke-width="3.72"/>
 <path class="TextLineSegment" d="m168.19 102.72h-12.9v2.35h0.95c2.85 0.05 3.8 0.2 4.15 0.7 0.35 0.45 0.35 0.5 0.35 3.1v19.15c0 6.8-0.95 8.2-5.8 8.45v2.35h14.25v-2.35c-4.8-0.25-5.75-1.65-5.75-8.45v-22.1l11.9 32.9h2l11.15-32.9v26.75c0 2.55 0 2.65-0.3 3.15-0.4 0.5-1.35 0.65-4.2 0.65h-0.9v2.35h16.4v-2.35h-0.9c-2.85 0-3.8-0.15-4.2-0.65-0.3-0.5-0.3-0.55-0.3-3.15v-23.8c0-2.55 0-2.65 0.3-3.1 0.4-0.5 1.35-0.65 4.2-0.7h0.9v-2.35h-12.55l-9.15 26.65-9.6-26.65m55.438 20c0-3.15-0.55-4.75-2-5.95-1.65-1.35-4.1-2-7.3-2-5.65 0-9.75 2.65-9.75 6.3 0 1.85 1.15 3.05 2.9 3.05 1.6 0 2.7-1.05 2.7-2.55 0-0.65-0.25-1.35-0.75-2.05-0.3-0.35-0.35-0.45-0.35-0.7 0-1 2-1.9 4.4-1.9 1.6 0 3.35 0.5 4.15 1.25 0.95 0.8 1.3 2 1.3 4.25v1.95c-5.2 0.9-6.85 1.3-9.3 2.25-4.35 1.6-6.4 3.9-6.4 7.1 0 3.6 2.8 5.85 7.25 5.85 3.45 0 6.55-1.4 8.7-3.95 0.8 2.55 2.05 3.55 4.4 3.55 2.25 0 4.6-1.45 4.6-2.9 0-0.35-0.2-0.6-0.5-0.6-0.2 0-0.4 0.05-0.75 0.2-0.7 0.3-1 0.35-1.4 0.35-1.4 0-1.9-0.9-1.9-3.45v-10.05m-4.7 6.1c0 3-0.15 3.7-1 5-1.25 1.85-3.5 3.1-5.7 3.1-2.3 0-3.95-1.65-3.95-3.9 0-2.1 1.05-3.6 3.25-4.65 1.55-0.7 3.5-1.2 7.4-1.85v2.3m19.744 6.3c-2.75-0.05-2.9-0.1-3.5-0.45-0.35-0.2-0.6-0.75-0.6-1.3 0-1.5 1.35-2.15 4.7-2.25 4.7-0.1 5.45-0.2 7.15-0.95 3-1.35 4.65-3.95 4.65-7.25 0-2-0.45-3.25-1.8-4.9 0.85-0.9 1.3-1.2 1.7-1.2 0.25 0 0.4 0.15 0.5 0.7 0.2 1.2 1 1.85 2.25 1.85 1.3 0 2.25-1.05 2.25-2.4 0-1.7-1.35-2.9-3.3-2.9-1.6 0-2.5 0.5-4.8 2.6-2.1-1.4-3.7-1.9-6.2-1.9-5.95 0-9.85 3.3-9.85 8.3 0 2.95 1.6 5.45 4.2 6.7-3.35 0.75-4.75 2.25-4.75 5 0 2.2 1 3.5 3.35 4.3-3.1 1.15-4.6 2.7-4.6 4.75 0 1.5 1 2.9 2.6 3.75 1.95 1 4.35 1.4 7.95 1.4 8.35 0 12.5-2.65 12.5-7.9 0-2.5-1.15-4.5-2.95-5.25-1.35-0.5-2.95-0.7-6.35-0.7h-5.1m2.95-18.2c3.1 0 4.85 2.15 4.85 6.05s-1.9 6.25-5.05 6.25c-3.1 0-5.05-2.35-5.05-6.1 0-3.95 1.9-6.2 5.25-6.2m-0.45 22.5c4.15 0 4.45 0 5.15 0.1 2.05 0.2 3.25 1.3 3.25 2.9 0 2.85-3.25 4.5-8.8 4.5-4.25 0-6.6-1.25-6.6-3.5 0-1.65 0.9-2.75 3.3-4h3.7m24.543-23.9-8.65 0.55v2.15h1.8c1.9 0.05 2.15 0.35 2.15 2.5v14.3c-0.05 0.75-0.1 1.05-0.3 1.3-0.35 0.45-1.3 0.65-3.45 0.7h-0.2v1.8h12.65v-1.8h-0.2c-3.35-0.1-3.8-0.35-3.8-2.15v-7.4c0-2.45 0.35-4.7 0.9-5.85 1.05-2.25 3.3-3.8 5.45-3.8 1.3 0 2.8 0.7 3.55 1.75 0.75 1.1 1.1 2.6 1.1 5v10.45c-0.05 0.75-0.1 1.05-0.3 1.3-0.35 0.45-1.35 0.65-3.5 0.7h-0.2v1.8h12.65v-1.8h-0.2c-3.3-0.1-3.75-0.35-3.75-2.15v-10.05c0-3.6-0.15-4.5-1.05-6.2-1.25-2.4-3.75-3.85-6.75-3.85-3.25 0-5.7 1.5-7.9 4.8v-4.05m43.797 12.05c0.05-7.5-4.2-12.8-10.3-12.8-6.4 0-11.2 5.55-11.2 13.05 0 7.05 4.55 11.75 11.3 11.75 4.8 0 8.15-2.35 10.2-7.1l-1.75-0.95c-2.05 3.85-4.15 5.35-7.5 5.35-2.55 0-4.4-1.05-5.7-3.3-0.9-1.5-1.3-3.25-1.25-6h16.2m-16.15-2.15c0-3.5 1.6-8.5 5.8-8.5 3 0 5 2.65 5 6.7 0 1.4-0.45 1.8-2.05 1.8h-8.75m26.6-9.9v-9.9h-2.05c-0.5 6.5-2.7 9.8-6.75 10.1v1.95h4.1v12.75c0 3.5 0.1 4.75 0.6 5.9 0.8 2.1 2.8 3.25 5.7 3.25 4.5 0 7.4-3.4 7.4-8.7 0-0.3 0-0.65-0.05-1.15h-2.1c-0.15 4.5-1.45 6.8-3.9 6.8-1.15 0-2.15-0.6-2.5-1.45-0.3-0.7-0.45-1.95-0.45-3.75v-13.65h7.35v-2.15h-7.35"/>
 <path class="TextLineSegment" transform="translate(-212.6 -212.59)" d="m554.9 338.43h403.35v37.2" fill="none" stroke="#000" stroke-miterlimit="2" stroke-width="3.72"/>
 <path class="TextLineSegment" d="m794.1 107.79h-10.303v2.35h1.25c2.853 0.1 3.803 0.45 4.603 1.65v21.25c0 6.8-0.95 8.25-5.803 8.5v2.35h14.253v-2.35c-4.8-0.25-5.75-1.7-5.75-8.5v-18.55l22.3 30.1h2.1v-25.95c0-6.8 0.95-8.25 5.8-8.5v-2.35h-14.25v2.35c4.8 0.25 5.75 1.65 5.75 8.5v15.7l-19.95-26.55m40.85 12.05c-6.15 0-10.9 5.45-10.9 12.45 0 6.85 4.8 12.35 10.8 12.35s10.8-5.5 10.8-12.4c0-6.85-4.8-12.4-10.7-12.4m0 2.15c3.5 0 5.45 3.65 5.45 10.25 0 6.65-1.95 10.25-5.55 10.25s-5.55-3.6-5.55-10.2c0-6.8 1.9-10.3 5.65-10.3m45.79-1.95h-1.75l-1.45 1.8c-1.8-1.4-3.6-2-6.1-2-4.4 0-7.3 2.85-7.3 7.25 0 4.7 3.05 5.9 7.05 6.85l2.65 0.6c3.95 0.95 5.35 1.95 5.35 3.95 0 2.35-2.05 4-4.95 4-4.25 0-7.25-2.7-8.45-7.7h-2v9.45h1.75l1.75-2.05c2.05 1.65 4.3 2.45 6.85 2.45 4.9 0 8.15-3.05 8.15-7.7 0-2.2-0.7-3.9-2.1-5.05-1.2-1.05-2.2-1.45-5.25-2.1l-2.5-0.55c-2.75-0.6-2.75-0.6-3.65-1.1-1.1-0.5-1.75-1.55-1.75-2.65 0-2.05 1.9-3.45 4.65-3.45 4.1 0 6.1 2.9 7.3 6.4h1.75v-8.4m13.64-13-9.25 0.55v2.15h2.4c1.9 0.05 2.15 0.35 2.15 2.5v27.9c-0.05 0.7-0.1 1-0.3 1.25-0.35 0.45-1.3 0.65-3.45 0.7h-0.2v1.8h12.65v-1.8h-0.2c-3.35-0.1-3.8-0.35-3.8-2.15v-7.4c0-2.45 0.35-4.7 0.9-5.85 1.1-2.25 3.3-3.8 5.45-3.8 1.3 0 2.8 0.75 3.5 1.75 0.8 1.1 1.15 2.6 1.15 5.05v10.45c-0.05 0.7-0.1 1-0.3 1.25-0.35 0.45-1.35 0.65-3.5 0.7h-0.2v1.8h12.65v-1.8h-0.2c-3.3-0.1-3.75-0.35-3.75-2.15v-10.05c0-3.6-0.15-4.5-1.05-6.2-1.25-2.45-3.75-3.85-6.75-3.85-3.25 0-5.65 1.45-7.9 4.8v-17.6m28.5 1.1c-1.6 0-2.9 1.3-2.9 2.9s1.3 2.9 2.85 2.9c1.65 0 2.95-1.3 2.95-2.9s-1.3-2.9-2.9-2.9m2.35 12.45-9.4 0.55v2.15h2.55c1.9 0.05 2.15 0.35 2.15 2.5v14.3c-0.05 0.75-0.1 1.05-0.3 1.3-0.35 0.45-1.3 0.65-3.45 0.7h-0.35v1.8h12.95v-1.8h-0.35c-3.35-0.1-3.8-0.35-3.8-2.15v-19.35m15.5 0v-2.85c0-2.5 0.15-4.15 0.55-5.15 0.8-2.2 2.55-3.55 4.55-3.55 1.05 0 1.7 0.3 1.7 0.85 0 0.2 0 0.25-0.3 0.65-0.3 0.45-0.45 1.05-0.45 1.6 0 1.5 1.2 2.65 2.75 2.65 1.65 0 2.8-1.25 2.8-3.05 0-2.9-2.5-4.7-6.55-4.7-3.45 0-6 1.2-7.75 3.7-1.5 2.1-2 4.25-2 8.3v1.55h-4.4v2.15h4.4v17.35c-0.05 0.7-0.1 1-0.3 1.3-0.35 0.45-1.3 0.65-3.45 0.7h-0.2v1.8h13.35v-1.8h-0.9c-3.35-0.1-3.8-0.35-3.8-2.15v-17.2h5.5v-2.15h-5.5m16.93 0v-9.9h-2.05c-0.5 6.5-2.7 9.8-6.75 10.1v1.95h4.1v12.75c0 3.5 0.1 4.75 0.6 5.9 0.8 2.1 2.8 3.25 5.7 3.25 4.5 0 7.4-3.4 7.4-8.7 0-0.3 0-0.65-0.05-1.15h-2.1c-0.15 4.5-1.45 6.8-3.9 6.8-1.15 0-2.15-0.6-2.5-1.45-0.3-0.7-0.45-1.95-0.45-3.75v-13.65h7.35v-2.15h-7.35"/>
 <path class="TextLineSegment" transform="translate(-212.6 -212.59)" d="m1192.2 338.43h394.85v37.2" fill="none" stroke="#000" stroke-miterlimit="2" stroke-width="3.72"/>
 <path class="TextLineSegment" d="m2042.6 95.691v11.2c0 2.55 0 2.65-0.3 3.1-0.4 0.5-1.35 0.7-4.2 0.7h-0.9v2.35h16.4v-2.35h-0.9c-2.85 0-3.8-0.2-4.2-0.7-0.3-0.45-0.3-0.5-0.3-3.1v-23.8c0-2.6 0-2.65 0.3-3.1 0.45-0.55 1.35-0.7 4.2-0.7h0.9v-2.35h-16.2v2.35h0.7c2.85 0 3.75 0.15 4.2 0.7 0.3 0.45 0.3 0.55 0.3 3.1v9.9h-16.75v-9.9c0-2.55 0-2.65 0.35-3.1 0.4-0.55 1.3-0.7 4.15-0.7h0.95v-2.35h-16.45v2.35h0.9c2.85 0 3.75 0.15 4.2 0.7 0.3 0.45 0.3 0.55 0.3 3.1v23.8c0 2.5 0 2.65-0.3 3.1-0.4 0.5-1.35 0.7-4.2 0.7h-0.9v2.35h16.45v-2.35h-0.95c-2.85-0.05-3.75-0.2-4.15-0.7-0.35-0.45-0.35-0.55-0.35-3.1v-11.2h16.75m24.84 1.3h5.65c4.5 0 6.85-0.35 8.9-1.3 3.5-1.7 5.5-4.9 5.5-8.85 0-7.95-7-9.9-13.55-9.9h-17.5v2.35h0.9c2.85 0.05 3.8 0.2 4.2 0.7 0.3 0.45 0.3 0.55 0.3 3.1v23.8c0 2.55 0 2.65-0.3 3.1-0.4 0.5-1.35 0.7-4.2 0.7h-0.9v2.35h16.8v-2.35h-1.3c-2.85 0-3.8-0.2-4.2-0.7-0.3-0.45-0.3-0.55-0.3-3.1v-9.9m0-2.35v-12.8c0-2.3 0.25-2.55 3.05-2.55h3.2c5.2 0 7.65 2.45 7.65 7.75 0 5.15-2.55 7.6-7.85 7.6h-6.05m34.1 3.75h-10.6v4h10.6v10.65h4v-10.65h10.6v-4h-10.6v-10.6h-4v10.6m31.49-21.45h-12.9v2.35h0.95c2.85 0.05 3.8 0.2 4.15 0.7 0.35 0.45 0.35 0.5 0.35 3.1v19.15c0 6.8-0.95 8.2-5.8 8.45v2.35h14.25v-2.35c-4.8-0.25-5.75-1.65-5.75-8.45v-22.1l11.9 32.9h2l11.15-32.9v26.75c0 2.55 0 2.65-0.3 3.15-0.4 0.5-1.35 0.65-4.2 0.65h-0.9v2.35h16.4v-2.35h-0.9c-2.85 0-3.8-0.15-4.2-0.65-0.3-0.5-0.3-0.55-0.3-3.15v-23.8c0-2.55 0-2.65 0.3-3.1 0.4-0.5 1.35-0.65 4.2-0.7h0.9v-2.35h-12.55l-9.15 26.65-9.6-26.65m55.44 20c0-3.15-0.55-4.75-2-5.95-1.65-1.35-4.1-2-7.3-2-5.65 0-9.75 2.65-9.75 6.3 0 1.85 1.15 3.05 2.9 3.05 1.6 0 2.7-1.05 2.7-2.55 0-0.65-0.25-1.35-0.75-2.05-0.3-0.35-0.35-0.45-0.35-0.7 0-1 2-1.9 4.4-1.9 1.6 0 3.35 0.5 4.15 1.25 0.95 0.8 1.3 2 1.3 4.25v1.95c-5.2 0.9-6.85 1.3-9.3 2.25-4.35 1.6-6.4 3.9-6.4 7.1 0 3.6 2.8 5.85 7.25 5.85 3.45 0 6.55-1.4 8.7-3.95 0.8 2.55 2.05 3.55 4.4 3.55 2.25 0 4.6-1.45 4.6-2.9 0-0.35-0.2-0.6-0.5-0.6-0.2 0-0.4 0.05-0.75 0.2-0.7 0.3-1 0.35-1.4 0.35-1.4 0-1.9-0.9-1.9-3.45v-10.05m-4.7 6.1c0 3-0.15 3.7-1 5-1.25 1.85-3.5 3.1-5.7 3.1-2.3 0-3.95-1.65-3.95-3.9 0-2.1 1.05-3.6 3.25-4.65 1.55-0.7 3.5-1.2 7.4-1.85v2.3m19.75 6.3c-2.75-0.05-2.9-0.1-3.5-0.45-0.35-0.2-0.6-0.75-0.6-1.3 0-1.5 1.35-2.15 4.7-2.25 4.7-0.1 5.45-0.2 7.15-0.95 3-1.35 4.65-3.95 4.65-7.25 0-2-0.45-3.25-1.8-4.9 0.85-0.9 1.3-1.2 1.7-1.2 0.25 0 0.4 0.15 0.5 0.7 0.2 1.2 1 1.85 2.25 1.85 1.3 0 2.25-1.05 2.25-2.4 0-1.7-1.35-2.9-3.3-2.9-1.6 0-2.5 0.5-4.8 2.6-2.1-1.4-3.7-1.9-6.2-1.9-5.95 0-9.85 3.3-9.85 8.3 0 2.95 1.6 5.45 4.2 6.7-3.35 0.75-4.75 2.25-4.75 5 0 2.2 1 3.5 3.35 4.3-3.1 1.15-4.6 2.7-4.6 4.75 0 1.5 1 2.9 2.6 3.75 1.95 1 4.35 1.4 7.95 1.4 8.35 0 12.5-2.65 12.5-7.9 0-2.5-1.15-4.5-2.95-5.25-1.35-0.5-2.95-0.7-6.35-0.7h-5.1m2.95-18.2c3.1 0 4.85 2.15 4.85 6.05s-1.9 6.25-5.05 6.25c-3.1 0-5.05-2.35-5.05-6.1 0-3.95 1.9-6.2 5.25-6.2m-0.45 22.5c4.15 0 4.45 0 5.15 0.1 2.05 0.2 3.25 1.3 3.25 2.9 0 2.85-3.25 4.5-8.8 4.5-4.25 0-6.6-1.25-6.6-3.5 0-1.65 0.9-2.75 3.3-4h3.7m24.54-23.9-8.65 0.55v2.15h1.8c1.9 0.05 2.15 0.35 2.15 2.5v14.3c-0.05 0.75-0.1 1.05-0.3 1.3-0.35 0.45-1.3 0.65-3.45 0.7h-0.2v1.8h12.65v-1.8h-0.2c-3.35-0.1-3.8-0.35-3.8-2.15v-7.4c0-2.45 0.35-4.7 0.9-5.85 1.05-2.25 3.3-3.8 5.45-3.8 1.3 0 2.8 0.7 3.55 1.75 0.75 1.1 1.1 2.6 1.1 5v10.45c-0.05 0.75-0.1 1.05-0.3 1.3-0.35 0.45-1.35 0.65-3.5 0.7h-0.2v1.8h12.65v-1.8h-0.2c-3.3-0.1-3.75-0.35-3.75-2.15v-10.05c0-3.6-0.15-4.5-1.05-6.2-1.25-2.4-3.75-3.85-6.75-3.85-3.25 0-5.7 1.5-7.9 4.8v-4.05m43.8 12.05c0.05-7.5-4.2-12.8-10.3-12.8-6.4 0-11.2 5.55-11.2 13.05 0 7.05 4.55 11.75 11.3 11.75 4.8 0 8.15-2.35 10.2-7.1l-1.75-0.95c-2.05 3.85-4.15 5.35-7.5 5.35-2.55 0-4.4-1.05-5.7-3.3-0.9-1.5-1.3-3.25-1.25-6h16.2m-16.15-2.15c0-3.5 1.6-8.5 5.8-8.5 3 0 5 2.65 5 6.7 0 1.4-0.45 1.8-2.05 1.8h-8.75m26.6-9.9v-9.9h-2.05c-0.5 6.5-2.7 9.8-6.75 10.1v1.95h4.1v12.75c0 3.5 0.1 4.75 0.6 5.9 0.8 2.1 2.8 3.25 5.7 3.25 4.5 0 7.4-3.4 7.4-8.7 0-0.3 0-0.65-0.05-1.15h-2.1c-0.15 4.5-1.45 6.8-3.9 6.8-1.15 0-2.15-0.6-2.5-1.45-0.3-0.7-0.45-1.95-0.45-3.75v-13.65h7.35v-2.15h-7.35"/>
 <path class="TextLineSegment" transform="translate(-212.6 -212.59)" d="m2519.7 312.66h298.41v37.2" fill="none" stroke="#000" stroke-miterlimit="2" stroke-width="3.72"/>
 <g stroke-width="7.646">
  <path transform="rotate(-45)" d="m-244.03 368.63h-6.6927l-15.339-17.266-3.8542 4.1146v13.151h-5.1562v-38.776h5.1562v20.234l18.828-20.234h6.25l-17.318 18.229zm29.714 0h-4.8958v-16.562q0-2.0052-0.23437-3.75-0.23438-1.7708-0.85938-2.7604-0.65104-1.0938-1.875-1.6146-1.224-0.54688-3.1771-0.54688-2.0052 0-4.1927 0.98958-2.1875 0.98959-4.1927 2.526v21.719h-4.8958v-29.089h4.8958v3.2292q2.2917-1.901 4.7396-2.9688 2.4479-1.0677 5.026-1.0677 4.7135 0 7.1875 2.8385 2.474 2.8385 2.474 8.1771zm34.219-14.531q0 7.1094-3.6458 11.224t-9.7656 4.1146q-6.1719 0-9.8177-4.1146-3.6198-4.1146-3.6198-11.224t3.6198-11.224q3.6458-4.1406 9.8177-4.1406 6.1198 0 9.7656 4.1406 3.6458 4.1146 3.6458 11.224zm-5.0521 0q0-5.651-2.2135-8.3854-2.2135-2.7604-6.1458-2.7604-3.9844 0-6.1979 2.7604-2.1875 2.7344-2.1875 8.3854 0 5.4688 2.2135 8.3073 2.2135 2.8125 6.1719 2.8125 3.9062 0 6.1198-2.7864 2.2396-2.8125 2.2396-8.3333zm34.141 12.708q-2.4479 1.1719-4.6614 1.8229-2.1875 0.65104-4.6615 0.65104-3.151 0-5.7812-0.91146-2.6302-0.9375-4.5052-2.8125-1.901-1.875-2.9427-4.7396-1.0417-2.8646-1.0417-6.6927 0-7.1354 3.9062-11.198 3.9323-4.0625 10.365-4.0625 2.5 0 4.8958 0.70313 2.4219 0.70312 4.4271 1.7188v5.4427h-0.26041q-2.2396-1.7448-4.6354-2.6823-2.3698-0.9375-4.6354-0.9375-4.1667 0-6.5885 2.8125-2.3958 2.7865-2.3958 8.2031 0 5.2604 2.3438 8.099 2.3698 2.8125 6.6406 2.8125 1.4844 0 3.0208-0.39062 1.5365-0.39063 2.7604-1.0156 1.0677-0.54687 2.0052-1.1458 0.9375-0.625 1.4844-1.0677h0.26041zm32.682 1.8229h-6.4583l-11.667-12.734-3.1771 3.0208v9.7135h-4.8958v-40.521h4.8958v25.99l14.141-14.557h6.1719l-13.516 13.437z" aria-label="Knock"/>
  <path transform="rotate(-45)" d="m-90.158 433.93h-19.609v10.937h16.849v4.5833h-16.849v18.672h-5.1562v-38.776h24.766zm28.984 19.661q0 7.1094-3.6458 11.224t-9.7656 4.1146q-6.1719 0-9.8177-4.1146-3.6198-4.1146-3.6198-11.224t3.6198-11.224q3.6458-4.1406 9.8177-4.1406 6.1198 0 9.7656 4.1406 3.6458 4.1146 3.6458 11.224zm-5.0521 0q0-5.651-2.2135-8.3854-2.2135-2.7604-6.1458-2.7604-3.9844 0-6.1979 2.7604-2.1875 2.7344-2.1875 8.3854 0 5.4688 2.2135 8.3073 2.2135 2.8125 6.1719 2.8125 3.9062 0 6.1198-2.7865 2.2396-2.8125 2.2396-8.3333zm37.422 0q0 7.1094-3.6458 11.224t-9.7656 4.1146q-6.1719 0-9.8177-4.1146-3.6198-4.1146-3.6198-11.224t3.6198-11.224q3.6458-4.1406 9.8177-4.1406 6.1198 0 9.7656 4.1406 3.6458 4.1146 3.6458 11.224zm-5.0521 0q0-5.651-2.2135-8.3854-2.2135-2.7604-6.1458-2.7604-3.9844 0-6.1979 2.7604-2.1875 2.7344-2.1875 8.3854 0 5.4688 2.2135 8.3073 2.2135 2.8125 6.1719 2.8125 3.9062 0 6.1198-2.7865 2.2396-2.8125 2.2396-8.3333zm27.734 14.271q-1.3802 0.36458-3.0208 0.59895-1.6146 0.23438-2.8906 0.23438-4.4531 0-6.7708-2.3958t-2.3177-7.6823v-15.469h-3.3073v-4.1146h3.3073v-8.3594h4.8958v8.3594h10.104v4.1146h-10.104v13.255q0 2.2917 0.10417 3.5938 0.10417 1.276 0.72917 2.3958 0.57292 1.0417 1.5625 1.5365 1.0156 0.46875 3.0729 0.46875 1.1979 0 2.5-0.33854 1.3021-0.36459 1.875-0.59896h0.26042z" aria-label="Foot"/>
  <path transform="rotate(-45)" d="m-21.363 565.07q0 2.8906-1.0938 5.1042-1.0937 2.2135-2.9427 3.6458-2.1875 1.7188-4.8177 2.4479-2.6042 0.72916-6.6406 0.72916h-13.75v-38.776h11.484q4.2448 0 6.3542 0.3125 2.1094 0.3125 4.0365 1.3021 2.1354 1.1198 3.099 2.8906 0.96354 1.7448 0.96354 4.1927 0 2.7604-1.4062 4.7135-1.4062 1.9271-3.75 3.099v0.20833q3.9323 0.80729 6.1979 3.4635 2.2656 2.6302 2.2656 6.6667zm-8.6719-17.474q0-1.4062-0.46875-2.3698-0.46875-0.96354-1.5104-1.5625-1.224-0.70313-2.9687-0.85938-1.7448-0.18229-4.3229-0.18229h-6.1458v11.198h6.6667q2.4219 0 3.8542-0.23437 1.4323-0.26042 2.6562-1.0417t1.7187-2.0052q0.52083-1.25 0.52083-2.9427zm3.3073 17.682q0-2.3438-0.70312-3.724-0.70312-1.3802-2.5521-2.3438-1.25-0.65104-3.0469-0.83333-1.7708-0.20833-4.3229-0.20833h-8.099v14.427h6.8229q3.3854 0 5.5469-0.33854 2.1615-0.36458 3.5417-1.3021 1.4583-1.0156 2.1354-2.3177t0.67708-3.3594zm36.406 11.719h-4.8958v-3.2292q-2.474 1.9531-4.7396 2.9948-2.2656 1.0417-5 1.0417-4.5833 0-7.1354-2.7864-2.5521-2.8125-2.5521-8.2292v-18.88h4.8958v16.562q0 2.2135 0.20833 3.8021 0.20833 1.5625 0.88542 2.6823 0.70312 1.1458 1.8229 1.6667 1.1198 0.52084 3.2552 0.52084 1.901 0 4.1406-0.98959 2.2656-0.98958 4.2187-2.526v-21.719h4.8958zm24.74-0.26041q-1.3802 0.36458-3.0208 0.59895-1.6146 0.23438-2.8906 0.23438-4.4531 0-6.7708-2.3958-2.3177-2.3958-2.3177-7.6823v-15.469h-3.3073v-4.1146h3.3073v-8.3594h4.8958v8.3594h10.104v4.1146h-10.104v13.255q0 2.2917 0.10417 3.5938 0.10417 1.276 0.72917 2.3958 0.57292 1.0417 1.5625 1.5365 1.0156 0.46875 3.0729 0.46875 1.1979 0 2.5-0.33855 1.3021-0.36458 1.875-0.59895h0.26042zm21.016 0q-1.3802 0.36458-3.0208 0.59895-1.6146 0.23438-2.8906 0.23438-4.4531 0-6.7708-2.3958-2.3177-2.3958-2.3177-7.6823v-15.469h-3.3073v-4.1146h3.3073v-8.3594h4.8958v8.3594h10.104v4.1146h-10.104v13.255q0 2.2917 0.10417 3.5938 0.10417 1.276 0.72917 2.3958 0.57292 1.0417 1.5625 1.5365 1.0156 0.46875 3.0729 0.46875 1.1979 0 2.5-0.33855 1.3021-0.36458 1.875-0.59895h0.26042zm30.703-14.271q0 7.1094-3.6458 11.224t-9.7656 4.1146q-6.1719 0-9.8177-4.1146-3.6198-4.1146-3.6198-11.224t3.6198-11.224q3.6458-4.1406 9.8177-4.1406 6.1198 0 9.7656 4.1406 3.6458 4.1146 3.6458 11.224zm-5.0521 0q0-5.651-2.2135-8.3854-2.2135-2.7604-6.1458-2.7604-3.9844 0-6.1979 2.7604-2.1875 2.7344-2.1875 8.3854 0 5.4688 2.2135 8.3073 2.2135 2.8125 6.1719 2.8125 3.9062 0 6.1198-2.7865 2.2396-2.8125 2.2396-8.3333zm36.953 14.531h-4.8958v-16.562q0-2.0052-0.23437-3.75-0.23438-1.7708-0.85938-2.7604-0.65104-1.0938-1.875-1.6146-1.224-0.54688-3.1771-0.54688-2.0052 0-4.1927 0.98958-2.1875 0.98959-4.1927 2.526v21.719h-4.8958v-29.089h4.8958v3.2292q2.2917-1.901 4.7396-2.9688 2.4479-1.0677 5.026-1.0677 4.7135 0 7.1875 2.8385 2.474 2.8385 2.474 8.1771z" aria-label="Button"/>
  <path transform="rotate(-45)" d="m123.26 676.48h-24.531v-38.776h5.1562v34.193h19.375zm10.026-33.958h-5.5208v-5.0781h5.5208zm-0.3125 33.958h-4.8958v-29.089h4.8958zm33.281-3.3073q0 7.3958-3.3594 10.859-3.3594 3.4635-10.339 3.4635-2.3177 0-4.5312-0.33854-2.1875-0.3125-4.3229-0.91146v-5h0.26041q1.1979 0.46875 3.8021 1.1458 2.6042 0.70312 5.2083 0.70312 2.5 0 4.1406-0.59895 1.6406-0.59896 2.5521-1.6667 0.91146-1.0156 1.3021-2.4479 0.39063-1.4323 0.39063-3.2031v-2.6562q-2.2135 1.7708-4.2448 2.6562-2.0052 0.85938-5.1302 0.85938-5.2083 0-8.2812-3.75-3.0469-3.776-3.0469-10.625 0-3.75 1.0417-6.4583 1.0677-2.7344 2.8906-4.7135 1.6927-1.849 4.1146-2.8646 2.4219-1.0417 4.8177-1.0417 2.526 0 4.2188 0.52083 1.7188 0.49479 3.6198 1.5365l0.3125-1.25h4.5833zm-4.8958-4.6875v-15.859q-1.9531-0.88541-3.6458-1.25-1.6667-0.39062-3.3333-0.39062-4.0365 0-6.3542 2.7083-2.3177 2.7083-2.3177 7.8646 0 4.8958 1.7187 7.4219 1.7188 2.526 5.7031 2.526 2.1354 0 4.2708-0.80729 2.1614-0.83334 3.9583-2.2135zm38.854 7.9948h-4.8958v-16.562q0-2.0052-0.23438-3.75-0.23437-1.7708-0.85937-2.7604-0.65105-1.0938-1.875-1.6146-1.224-0.54688-3.1771-0.54688-2.0052 0-4.1927 0.98959-2.1875 0.98958-4.1927 2.526v21.719h-4.8958v-40.521h4.8958v14.661q2.2917-1.901 4.7396-2.9687 2.4479-1.0677 5.026-1.0677 4.7135 0 7.1875 2.8385t2.474 8.1771zm24.531-0.26041q-1.3802 0.36458-3.0208 0.59896-1.6146 0.23437-2.8906 0.23437-4.4531 0-6.7708-2.3958t-2.3177-7.6823v-15.469h-3.3073v-4.1146h3.3073v-8.3594h4.8958v8.3594h10.104v4.1146h-10.104v13.255q0 2.2917 0.10416 3.5938 0.10417 1.276 0.72917 2.3958 0.57291 1.0417 1.5625 1.5365 1.0156 0.46875 3.0729 0.46875 1.1979 0 2.5-0.33854 1.3021-0.36459 1.875-0.59896h0.26042z" aria-label="Light"/>
  <path transform="rotate(-45)" d="m557.64 1103.6h-24.531v-38.776h5.1562v34.193h19.375zm10.026-33.958h-5.5208v-5.0781h5.5208zm-0.3125 33.958h-4.8958v-29.089h4.8958zm33.281-3.3073q0 7.3958-3.3594 10.859-3.3594 3.4636-10.339 3.4636-2.3177 0-4.5312-0.3386-2.1875-0.3125-4.3229-0.9114v-5h0.26041q1.1979 0.4687 3.8021 1.1458 2.6042 0.7031 5.2083 0.7031 2.5 0 4.1406-0.5989 1.6406-0.599 2.5521-1.6667 0.91146-1.0156 1.3021-2.4479 0.39063-1.4323 0.39063-3.2031v-2.6563q-2.2135 1.7709-4.2448 2.6563-2.0052 0.8594-5.1302 0.8594-5.2083 0-8.2812-3.75-3.0469-3.7761-3.0469-10.625 0-3.75 1.0417-6.4584 1.0677-2.7343 2.8906-4.7135 1.6927-1.849 4.1146-2.8646 2.4219-1.0417 4.8177-1.0417 2.526 0 4.2188 0.5209 1.7188 0.4948 3.6198 1.5364l0.3125-1.25h4.5833zm-4.8958-4.6875v-15.859q-1.9531-0.8854-3.6458-1.25-1.6667-0.3906-3.3333-0.3906-4.0364 0-6.3542 2.7083t-2.3177 7.8646q0 4.8958 1.7188 7.4219 1.7188 2.526 5.7031 2.526 2.1354 0 4.2708-0.8073 2.1614-0.8333 3.9583-2.2135zm38.854 7.9948h-4.8958v-16.562q0-2.0052-0.23437-3.75-0.23438-1.7709-0.85938-2.7604-0.65104-1.0938-1.875-1.6146-1.224-0.5469-3.1771-0.5469-2.0052 0-4.1927 0.9896t-4.1927 2.526v21.719h-4.8958v-40.521h4.8958v14.662q2.2917-1.901 4.7396-2.9687 2.4479-1.0678 5.026-1.0678 4.7135 0 7.1875 2.8386 2.474 2.8385 2.474 8.1771zm24.531-0.2605q-1.3802 0.3646-3.0208 0.599-1.6146 0.2344-2.8906 0.2344-4.4531 0-6.7708-2.3959-2.3177-2.3958-2.3177-7.6822v-15.469h-3.3073v-4.1146h3.3073v-8.3593h4.8958v8.3593h10.104v4.1146h-10.104v13.255q0 2.2917 0.10417 3.5938 0.10417 1.276 0.72917 2.3958 0.57291 1.0417 1.5625 1.5365 1.0156 0.4687 3.0729 0.4687 1.1979 0 2.5-0.3385 1.3021-0.3646 1.875-0.599h0.26041z" aria-label="Light"/>
  <path transform="rotate(-45)" d="m990.11 1538h-24.531v-38.776h5.1562v34.193h19.375zm10.026-33.958h-5.5208v-5.0781h5.5208zm-0.3125 33.958h-4.8958v-29.088h4.8958zm33.281-3.3072q0 7.3958-3.3593 10.859-3.3594 3.4636-10.339 3.4636-2.3177 0-4.5312-0.3386-2.1875-0.3125-4.3229-0.9114v-5h0.2604q1.1979 0.4687 3.8021 1.1458 2.6041 0.7031 5.2083 0.7031 2.5 0 4.1406-0.5989 1.6406-0.599 2.5521-1.6667 0.9114-1.0156 1.3021-2.4479 0.3906-1.4323 0.3906-3.2031v-2.6563q-2.2135 1.7708-4.2448 2.6563-2.0052 0.8593-5.1302 0.8593-5.2083 0-8.2812-3.75-3.0469-3.776-3.0469-10.625 0-3.75 1.0417-6.4583 1.0677-2.7344 2.8906-4.7135 1.6927-1.849 4.1146-2.8646 2.4218-1.0417 4.8177-1.0417 2.526 0 4.2187 0.5209 1.7188 0.4948 3.6198 1.5364l0.3125-1.25h4.5833zm-4.8958-4.6875v-15.859q-1.9531-0.8854-3.6458-1.25-1.6667-0.3906-3.3334-0.3906-4.0364 0-6.3541 2.7083t-2.3177 7.8646q0 4.8958 1.7187 7.4218 1.7188 2.5261 5.7031 2.5261 2.1355 0 4.2709-0.8073 2.1614-0.8333 3.9583-2.2135zm38.854 7.9947h-4.8958v-16.562q0-2.0053-0.2344-3.75-0.2343-1.7709-0.8593-2.7605-0.6511-1.0937-1.875-1.6145-1.224-0.5469-3.1771-0.5469-2.0052 0-4.1927 0.9896-2.1875 0.9895-4.1927 2.526v21.719h-4.8959v-40.521h4.8959v14.662q2.2916-1.9011 4.7395-2.9688 2.448-1.0677 5.0261-1.0677 4.7135 0 7.1875 2.8386 2.4739 2.8385 2.4739 8.177zm24.531-0.2604q-1.3802 0.3646-3.0209 0.599-1.6145 0.2344-2.8906 0.2344-4.4531 0-6.7708-2.3959-2.3177-2.3958-2.3177-7.6823v-15.469h-3.3073v-4.1146h3.3073v-8.3594h4.8958v8.3594h10.104v4.1146h-10.104v13.255q0 2.2917 0.1042 3.5937 0.1041 1.2761 0.7291 2.3959 0.573 1.0416 1.5625 1.5364 1.0157 0.4688 3.073 0.4688 1.1979 0 2.5-0.3386 1.302-0.3645 1.875-0.5989h0.2604z" aria-label="Light"/>
  <path transform="rotate(-45)" d="m1428.5 1978.7h-24.531v-38.776h5.1563v34.193h19.375zm10.026-33.958h-5.5208v-5.0781h5.5208zm-0.3125 33.958h-4.8958v-29.088h4.8958zm33.281-3.3073q0 7.3958-3.3593 10.859-3.3594 3.4635-10.339 3.4635-2.3177 0-4.5312-0.3385-2.1875-0.3125-4.3229-0.9115v-5h0.2604q1.1979 0.4688 3.8021 1.1459 2.6041 0.7031 5.2083 0.7031 2.5 0 4.1406-0.599 1.6406-0.5989 2.5521-1.6666 0.9115-1.0157 1.3021-2.448 0.3906-1.4322 0.3906-3.2031v-2.6562q-2.2135 1.7708-4.2448 2.6562-2.0052 0.8594-5.1302 0.8594-5.2083 0-8.2812-3.75-3.0469-3.776-3.0469-10.625 0-3.75 1.0417-6.4583 1.0677-2.7344 2.8906-4.7136 1.6927-1.8489 4.1146-2.8645 2.4218-1.0417 4.8177-1.0417 2.526 0 4.2187 0.5208 1.7188 0.4948 3.6198 1.5365l0.3125-1.25h4.5833zm-4.8958-4.6875v-15.859q-1.9531-0.8855-3.6458-1.25-1.6667-0.3907-3.3334-0.3907-4.0364 0-6.3541 2.7084-2.3177 2.7083-2.3177 7.8645 0 4.8959 1.7187 7.4219 1.7188 2.526 5.7032 2.526 2.1354 0 4.2708-0.8072 2.1614-0.8334 3.9583-2.2136zm38.854 7.9948h-4.8959v-16.562q0-2.0052-0.2344-3.75-0.2343-1.7708-0.8593-2.7604-0.6511-1.0937-1.875-1.6146-1.224-0.5469-3.1771-0.5469-2.0052 0-4.1927 0.9896t-4.1927 2.5261v21.719h-4.8959v-40.521h4.8959v14.661q2.2916-1.901 4.7396-2.9687 2.4479-1.0677 5.026-1.0677 4.7135 0 7.1875 2.8385 2.474 2.8386 2.474 8.1771zm24.531-0.2604q-1.3802 0.3646-3.0208 0.5989-1.6146 0.2344-2.8907 0.2344-4.4531 0-6.7708-2.3958t-2.3177-7.6823v-15.469h-3.3073v-4.1146h3.3073v-8.3594h4.8958v8.3594h10.104v4.1146h-10.104v13.255q0 2.2916 0.1042 3.5937 0.1042 1.276 0.7292 2.3958 0.5729 1.0417 1.5625 1.5365 1.0156 0.4687 3.0729 0.4687 1.1979 0 2.5-0.3385 1.3021-0.3646 1.875-0.599h0.2604z" aria-label="Light"/>
  <path transform="rotate(-45)" d="m411.22 983.13q0 2.8906-1.0938 5.1042t-2.9427 3.6458q-2.1875 1.7188-4.8177 2.4479-2.6042 0.72916-6.6406 0.72916h-13.75v-38.776h11.484q4.2448 0 6.3542 0.3125 2.1094 0.3125 4.0365 1.3021 2.1354 1.1198 3.099 2.8906 0.96354 1.7448 0.96354 4.1927 0 2.7604-1.4062 4.7135-1.4062 1.9271-3.75 3.099v0.20833q3.9323 0.8073 6.1979 3.4635 2.2656 2.6302 2.2656 6.6667zm-8.6719-17.474q0-1.4062-0.46875-2.3698t-1.5104-1.5625q-1.224-0.70312-2.9688-0.85937-1.7448-0.1823-4.3229-0.1823h-6.1458v11.198h6.6667q2.4219 0 3.8542-0.23437 1.4323-0.26042 2.6562-1.0417 1.224-0.78125 1.7188-2.0052 0.52083-1.25 0.52083-2.9427zm3.3073 17.682q0-2.3438-0.70313-3.724-0.70312-1.3802-2.5521-2.3437-1.25-0.65105-3.0469-0.83334-1.7708-0.20833-4.3229-0.20833h-8.099v14.427h6.8229q3.3854 0 5.5469-0.33854 2.1615-0.36458 3.5417-1.3021 1.4583-1.0156 2.1354-2.3177 0.67709-1.3021 0.67709-3.3594zm36.406 11.719h-4.8958v-3.2292q-2.474 1.9531-4.7396 2.9948-2.2656 1.0417-5 1.0417-4.5833 0-7.1354-2.7864-2.5521-2.8125-2.5521-8.2292v-18.88h4.8958v16.562q0 2.2135 0.20834 3.8021 0.20833 1.5625 0.88541 2.6823 0.70313 1.1458 1.8229 1.6667 1.1198 0.52083 3.2552 0.52083 1.901 0 4.1406-0.98958 2.2656-0.98959 4.2187-2.526v-21.719h4.8958zm24.74-0.26041q-1.3802 0.36458-3.0208 0.59895-1.6146 0.23438-2.8906 0.23438-4.4531 0-6.7708-2.3958-2.3177-2.3958-2.3177-7.6823v-15.469h-3.3073v-4.1146h3.3073v-8.3594h4.8958v8.3594h10.104v4.1146h-10.104v13.255q0 2.2917 0.10417 3.5938 0.10416 1.276 0.72916 2.3958 0.57292 1.0417 1.5625 1.5365 1.0156 0.46875 3.0729 0.46875 1.1979 0 2.5-0.33854 1.3021-0.36459 1.875-0.59896h0.26042zm21.016 0q-1.3802 0.36458-3.0208 0.59895-1.6146 0.23438-2.8906 0.23438-4.4531 0-6.7708-2.3958-2.3177-2.3958-2.3177-7.6823v-15.469h-3.3073v-4.1146h3.3073v-8.3594h4.8958v8.3594h10.104v4.1146h-10.104v13.255q0 2.2917 0.10416 3.5938 0.10417 1.276 0.72917 2.3958 0.57292 1.0417 1.5625 1.5365 1.0156 0.46875 3.0729 0.46875 1.1979 0 2.5-0.33854 1.3021-0.36459 1.875-0.59896h0.26042zm30.703-14.271q0 7.1094-3.6458 11.224t-9.7656 4.1146q-6.1719 0-9.8177-4.1146-3.6198-4.1146-3.6198-11.224t3.6198-11.224q3.6458-4.1406 9.8177-4.1406 6.1198 0 9.7656 4.1406 3.6458 4.1146 3.6458 11.224zm-5.0521 0q0-5.651-2.2135-8.3854-2.2135-2.7604-6.1458-2.7604-3.9844 0-6.1979 2.7604-2.1875 2.7344-2.1875 8.3854 0 5.4688 2.2135 8.3073 2.2135 2.8125 6.1719 2.8125 3.9062 0 6.1198-2.7865 2.2396-2.8125 2.2396-8.3333zm36.953 14.531h-4.8958v-16.562q0-2.0052-0.23438-3.75-0.23437-1.7708-0.85937-2.7604-0.65104-1.0938-1.875-1.6146-1.224-0.54688-3.1771-0.54688-2.0052 0-4.1927 0.98959-2.1875 0.98958-4.1927 2.526v21.719h-4.8958v-29.089h4.8958v3.2292q2.2917-1.901 4.7396-2.9687 2.4479-1.0677 5.026-1.0677 4.7135 0 7.1875 2.8385t2.474 8.1771z" aria-label="Button"/>
  <path transform="rotate(-45)" d="m846.23 1415.9q0 2.8906-1.0938 5.1041-1.0938 2.2136-2.9427 3.6459-2.1875 1.7187-4.8177 2.4479-2.6042 0.7291-6.6406 0.7291h-13.75v-38.776h11.484q4.2448 0 6.3542 0.3125t4.0365 1.3021q2.1354 1.1198 3.099 2.8906 0.96354 1.7448 0.96354 4.1927 0 2.7604-1.4062 4.7136-1.4062 1.9271-3.75 3.0989v0.2084q3.9323 0.8073 6.1979 3.4635 2.2656 2.6302 2.2656 6.6667zm-8.6719-17.474q0-1.4062-0.46875-2.3698-0.46875-0.9635-1.5104-1.5625-1.224-0.7031-2.9688-0.8593-1.7448-0.1823-4.3229-0.1823h-6.1458v11.198h6.6667q2.4219 0 3.8542-0.2344 1.4323-0.2604 2.6562-1.0417 1.224-0.7812 1.7188-2.0052 0.52083-1.25 0.52083-2.9427zm3.3073 17.682q0-2.3438-0.70312-3.724-0.70313-1.3802-2.5521-2.3437-1.25-0.651-3.0469-0.8333-1.7708-0.2084-4.3229-0.2084h-8.099v14.427h6.8229q3.3854 0 5.5469-0.3385 2.1615-0.3646 3.5417-1.3021 1.4583-1.0156 2.1354-2.3177t0.67708-3.3594zm36.406 11.719h-4.8958v-3.2291q-2.474 1.9531-4.7396 2.9948-2.2656 1.0416-5 1.0416-4.5833 0-7.1354-2.7864-2.5521-2.8125-2.5521-8.2292v-18.88h4.8958v16.562q0 2.2135 0.20833 3.8021 0.20833 1.5625 0.88542 2.6823 0.70312 1.1458 1.8229 1.6666 1.1198 0.5209 3.2552 0.5209 1.901 0 4.1406-0.9896 2.2656-0.9896 4.2188-2.526v-21.719h4.8958zm24.74-0.2604q-1.3802 0.3646-3.0208 0.599-1.6146 0.2344-2.8906 0.2344-4.4531 0-6.7708-2.3959-2.3177-2.3958-2.3177-7.6823v-15.469h-3.3073v-4.1146h3.3073v-8.3594h4.8958v8.3594h10.104v4.1146h-10.104v13.255q0 2.2917 0.10416 3.5937 0.10417 1.2761 0.72917 2.3959 0.57291 1.0416 1.5625 1.5364 1.0156 0.4688 3.0729 0.4688 1.1979 0 2.5-0.3386 1.3021-0.3645 1.875-0.5989h0.26042zm21.016 0q-1.3802 0.3646-3.0208 0.599-1.6146 0.2344-2.8906 0.2344-4.4531 0-6.7708-2.3959-2.3177-2.3958-2.3177-7.6823v-15.469h-3.3073v-4.1146h3.3073v-8.3594h4.8958v8.3594h10.104v4.1146h-10.104v13.255q0 2.2917 0.10417 3.5937 0.10417 1.2761 0.72917 2.3959 0.57291 1.0416 1.5625 1.5364 1.0156 0.4688 3.0729 0.4688 1.1979 0 2.5-0.3386 1.3021-0.3645 1.875-0.5989h0.26041zm30.703-14.271q0 7.1094-3.6458 11.224-3.6458 4.1145-9.7656 4.1145-6.1719 0-9.8177-4.1145-3.6198-4.1146-3.6198-11.224t3.6198-11.224q3.6458-4.1406 9.8177-4.1406 6.1198 0 9.7656 4.1406 3.6458 4.1146 3.6458 11.224zm-5.0521 0q0-5.651-2.2135-8.3854-2.2135-2.7604-6.1458-2.7604-3.9844 0-6.1979 2.7604-2.1875 2.7344-2.1875 8.3854 0 5.4687 2.2135 8.3073 2.2135 2.8125 6.1719 2.8125 3.9062 0 6.1198-2.7865 2.2396-2.8125 2.2396-8.3333zm36.953 14.531h-4.8958v-16.562q0-2.0053-0.23437-3.75-0.23438-1.7709-0.85938-2.7605-0.65104-1.0937-1.875-1.6145-1.224-0.5469-3.1771-0.5469-2.0052 0-4.1927 0.9896-2.1875 0.9895-4.1927 2.526v21.719h-4.8958v-29.088h4.8958v3.2292q2.2917-1.9011 4.7396-2.9688t5.026-1.0677q4.7135 0 7.1875 2.8386 2.474 2.8385 2.474 8.177z" aria-label="Button"/>
  <path transform="rotate(-45)" d="m1287.9 1858.9q0 2.8906-1.0938 5.1041-1.0937 2.2136-2.9427 3.6459-2.1875 1.7187-4.8177 2.4479-2.6042 0.7292-6.6406 0.7292h-13.75v-38.776h11.484q4.2448 0 6.3541 0.3125 2.1094 0.3125 4.0365 1.3021 2.1354 1.1198 3.0989 2.8906 0.9636 1.7448 0.9636 4.1927 0 2.7605-1.4063 4.7136-1.4062 1.9271-3.75 3.0989v0.2084q3.9323 0.8073 6.1979 3.4635 2.2657 2.6302 2.2657 6.6667zm-8.6719-17.474q0-1.4062-0.4687-2.3698-0.4688-0.9635-1.5105-1.5625-1.2239-0.7031-2.9687-0.8593-1.7448-0.1823-4.3229-0.1823h-6.1459v11.198h6.6667q2.4219 0 3.8542-0.2344 1.4323-0.2604 2.6562-1.0417 1.224-0.7812 1.7188-2.0052 0.5208-1.25 0.5208-2.9427zm3.3073 17.682q0-2.3437-0.7031-3.7239-0.7032-1.3803-2.5521-2.3438-1.25-0.651-3.0469-0.8333-1.7708-0.2084-4.3229-0.2084h-8.099v14.427h6.823q3.3854 0 5.5468-0.3385 2.1615-0.3646 3.5417-1.3021 1.4583-1.0156 2.1354-2.3177t0.6771-3.3594zm36.406 11.719h-4.8958v-3.2292q-2.474 1.9531-4.7396 2.9948-2.2656 1.0416-5 1.0416-4.5833 0-7.1354-2.7864-2.5521-2.8125-2.5521-8.2292v-18.88h4.8958v16.562q0 2.2136 0.2084 3.8021 0.2083 1.5625 0.8854 2.6823 0.7031 1.1458 1.8229 1.6667 1.1198 0.5208 3.2552 0.5208 1.9011 0 4.1406-0.9896 2.2657-0.9896 4.2188-2.526v-21.719h4.8958zm24.74-0.2605q-1.3802 0.3646-3.0208 0.599-1.6146 0.2344-2.8907 0.2344-4.4531 0-6.7708-2.3959-2.3177-2.3958-2.3177-7.6822v-15.469h-3.3073v-4.1146h3.3073v-8.3593h4.8958v8.3593h10.104v4.1146h-10.104v13.255q0 2.2917 0.1042 3.5938 0.1042 1.276 0.7292 2.3958 0.5729 1.0417 1.5625 1.5364 1.0156 0.4688 3.0729 0.4688 1.1979 0 2.5-0.3385 1.3021-0.3646 1.875-0.599h0.2604zm21.016 0q-1.3802 0.3646-3.0208 0.599-1.6146 0.2344-2.8907 0.2344-4.4531 0-6.7708-2.3959-2.3177-2.3958-2.3177-7.6822v-15.469h-3.3073v-4.1146h3.3073v-8.3593h4.8958v8.3593h10.104v4.1146h-10.104v13.255q0 2.2917 0.1042 3.5938 0.1042 1.276 0.7292 2.3958 0.5729 1.0417 1.5625 1.5364 1.0156 0.4688 3.0729 0.4688 1.1979 0 2.5-0.3385 1.3021-0.3646 1.875-0.599h0.2604zm30.703-14.271q0 7.1094-3.6458 11.224-3.6459 4.1145-9.7656 4.1145-6.1719 0-9.8177-4.1145-3.6198-4.1146-3.6198-11.224t3.6198-11.224q3.6458-4.1407 9.8177-4.1407 6.1197 0 9.7656 4.1407 3.6458 4.1145 3.6458 11.224zm-5.0521 0q0-5.651-2.2135-8.3854-2.2136-2.7604-6.1458-2.7604-3.9844 0-6.198 2.7604-2.1875 2.7344-2.1875 8.3854 0 5.4688 2.2136 8.3073 2.2135 2.8125 6.1719 2.8125 3.9062 0 6.1197-2.7865 2.2396-2.8125 2.2396-8.3333zm36.953 14.531h-4.8958v-16.562q0-2.0052-0.2344-3.75-0.2344-1.7709-0.8593-2.7605-0.6511-1.0937-1.875-1.6145-1.224-0.5469-3.1771-0.5469-2.0052 0-4.1927 0.9896t-4.1927 2.526v21.719h-4.8959v-29.089h4.8959v3.2292q2.2916-1.901 4.7395-2.9688 2.448-1.0677 5.0261-1.0677 4.7135 0 7.1875 2.8386 2.4739 2.8385 2.4739 8.1771z" aria-label="Button"/>
  <path transform="rotate(-45)" d="m352.01 854.11h-19.609v10.938h16.849v4.5833h-16.849v18.672h-5.1562v-38.776h24.766zm28.984 19.661q0 7.1094-3.6458 11.224t-9.7656 4.1146q-6.1719 0-9.8177-4.1146-3.6198-4.1146-3.6198-11.224t3.6198-11.224q3.6458-4.1406 9.8177-4.1406 6.1198 0 9.7656 4.1406 3.6458 4.1146 3.6458 11.224zm-5.0521 0q0-5.651-2.2135-8.3854-2.2135-2.7604-6.1458-2.7604-3.9844 0-6.1979 2.7604-2.1875 2.7344-2.1875 8.3854 0 5.4688 2.2135 8.3073 2.2135 2.8125 6.1719 2.8125 3.9062 0 6.1198-2.7864 2.2396-2.8125 2.2396-8.3333zm37.422 0q0 7.1094-3.6458 11.224t-9.7656 4.1146q-6.1719 0-9.8177-4.1146-3.6198-4.1146-3.6198-11.224t3.6198-11.224q3.6458-4.1406 9.8177-4.1406 6.1198 0 9.7656 4.1406 3.6458 4.1146 3.6458 11.224zm-5.0521 0q0-5.651-2.2135-8.3854-2.2135-2.7604-6.1458-2.7604-3.9844 0-6.1979 2.7604-2.1875 2.7344-2.1875 8.3854 0 5.4688 2.2135 8.3073 2.2135 2.8125 6.1719 2.8125 3.9062 0 6.1198-2.7864 2.2396-2.8125 2.2396-8.3333zm27.734 14.271q-1.3802 0.36459-3.0208 0.59896-1.6146 0.23438-2.8906 0.23438-4.4531 0-6.7708-2.3958-2.3177-2.3958-2.3177-7.6823v-15.469h-3.3073v-4.1146h3.3073v-8.3594h4.8958v8.3594h10.104v4.1146h-10.104v13.255q0 2.2917 0.10417 3.5938 0.10416 1.276 0.72916 2.3958 0.57292 1.0417 1.5625 1.5365 1.0156 0.46874 3.0729 0.46874 1.1979 0 2.5-0.33854 1.3021-0.36458 1.875-0.59895h0.26041z" aria-label="Foot"/>
  <path transform="rotate(-45)" d="m788.43 1292h-19.609v10.938h16.849v4.5833h-16.849v18.672h-5.1562v-38.776h24.766zm28.984 19.661q0 7.1094-3.6458 11.224t-9.7656 4.1146q-6.1719 0-9.8177-4.1146-3.6198-4.1146-3.6198-11.224 0-7.1093 3.6198-11.224 3.6458-4.1407 9.8177-4.1407 6.1198 0 9.7656 4.1407 3.6458 4.1146 3.6458 11.224zm-5.0521 0q0-5.651-2.2135-8.3854-2.2135-2.7604-6.1458-2.7604-3.9844 0-6.1979 2.7604-2.1875 2.7344-2.1875 8.3854 0 5.4688 2.2135 8.3073 2.2135 2.8125 6.1719 2.8125 3.9062 0 6.1198-2.7864 2.2396-2.8125 2.2396-8.3334zm37.422 0q0 7.1094-3.6458 11.224t-9.7656 4.1146q-6.1719 0-9.8177-4.1146-3.6198-4.1146-3.6198-11.224 0-7.1093 3.6198-11.224 3.6458-4.1407 9.8177-4.1407 6.1198 0 9.7656 4.1407 3.6458 4.1146 3.6458 11.224zm-5.0521 0q0-5.651-2.2135-8.3854-2.2135-2.7604-6.1458-2.7604-3.9844 0-6.1979 2.7604-2.1875 2.7344-2.1875 8.3854 0 5.4688 2.2135 8.3073 2.2135 2.8125 6.1719 2.8125 3.9062 0 6.1198-2.7864 2.2396-2.8125 2.2396-8.3334zm27.734 14.271q-1.3802 0.3646-3.0208 0.599-1.6146 0.2344-2.8906 0.2344-4.4531 0-6.7708-2.3959-2.3177-2.3958-2.3177-7.6822v-15.469h-3.3073v-4.1146h3.3073v-8.3593h4.8958v8.3593h10.104v4.1146h-10.104v13.255q0 2.2917 0.10416 3.5938 0.10417 1.276 0.72917 2.3958 0.57292 1.0417 1.5625 1.5365 1.0156 0.4687 3.0729 0.4687 1.1979 0 2.5-0.3385 1.3021-0.3646 1.875-0.599h0.26042z" aria-label="Foot"/>
  <path transform="rotate(-45)" d="m1229.1 1730.8h-19.609v10.938h16.849v4.5833h-16.849v18.672h-5.1563v-38.776h24.766zm28.984 19.661q0 7.1094-3.6458 11.224-3.6459 4.1146-9.7656 4.1146-6.1719 0-9.8177-4.1146-3.6198-4.1146-3.6198-11.224 0-7.1093 3.6198-11.224 3.6458-4.1406 9.8177-4.1406 6.1197 0 9.7656 4.1406 3.6458 4.1146 3.6458 11.224zm-5.0521 0q0-5.651-2.2135-8.3854-2.2136-2.7604-6.1458-2.7604-3.9844 0-6.198 2.7604-2.1875 2.7344-2.1875 8.3854 0 5.4688 2.2136 8.3073 2.2135 2.8125 6.1719 2.8125 3.9062 0 6.1197-2.7864 2.2396-2.8125 2.2396-8.3334zm37.422 0q0 7.1094-3.6459 11.224-3.6458 4.1146-9.7656 4.1146-6.1718 0-9.8177-4.1146-3.6198-4.1146-3.6198-11.224 0-7.1093 3.6198-11.224 3.6459-4.1406 9.8177-4.1406 6.1198 0 9.7656 4.1406 3.6459 4.1146 3.6459 11.224zm-5.0521 0q0-5.651-2.2135-8.3854-2.2136-2.7604-6.1459-2.7604-3.9843 0-6.1979 2.7604-2.1875 2.7344-2.1875 8.3854 0 5.4688 2.2136 8.3073 2.2135 2.8125 6.1718 2.8125 3.9063 0 6.1198-2.7864 2.2396-2.8125 2.2396-8.3334zm27.734 14.271q-1.3802 0.3645-3.0209 0.5989-1.6146 0.2344-2.8906 0.2344-4.4531 0-6.7708-2.3958-2.3177-2.3959-2.3177-7.6823v-15.469h-3.3073v-4.1146h3.3073v-8.3593h4.8958v8.3593h10.104v4.1146h-10.104v13.255q0 2.2917 0.1042 3.5938 0.1041 1.276 0.7291 2.3958 0.5729 1.0417 1.5625 1.5365 1.0157 0.4687 3.0729 0.4687 1.198 0 2.5-0.3385 1.3021-0.3646 1.875-0.599h0.2605z" aria-label="Foot"/>
  <path transform="rotate(-45)" d="m211.77 786.67h-6.6927l-15.339-17.266-3.8542 4.1146v13.151h-5.1562v-38.776h5.1562v20.234l18.828-20.234h6.25l-17.318 18.229zm29.714 0h-4.8958v-16.562q0-2.0052-0.23438-3.75-0.23437-1.7708-0.85937-2.7604-0.65104-1.0938-1.875-1.6146-1.224-0.54688-3.1771-0.54688-2.0052 0-4.1927 0.98958-2.1875 0.98959-4.1927 2.526v21.719h-4.8958v-29.089h4.8958v3.2292q2.2917-1.901 4.7396-2.9688 2.4479-1.0677 5.026-1.0677 4.7135 0 7.1875 2.8385 2.474 2.8385 2.474 8.1771zm34.219-14.531q0 7.1094-3.6458 11.224t-9.7656 4.1146q-6.1719 0-9.8177-4.1146-3.6198-4.1146-3.6198-11.224t3.6198-11.224q3.6458-4.1406 9.8177-4.1406 6.1198 0 9.7656 4.1406 3.6458 4.1146 3.6458 11.224zm-5.0521 0q0-5.651-2.2135-8.3854-2.2135-2.7604-6.1458-2.7604-3.9844 0-6.1979 2.7604-2.1875 2.7344-2.1875 8.3854 0 5.4688 2.2135 8.3073 2.2135 2.8125 6.1719 2.8125 3.9062 0 6.1198-2.7864 2.2396-2.8125 2.2396-8.3333zm34.141 12.708q-2.4479 1.1719-4.6615 1.8229-2.1875 0.65104-4.6614 0.65104-3.151 0-5.7812-0.91146-2.6302-0.9375-4.5052-2.8125-1.901-1.875-2.9427-4.7396-1.0417-2.8646-1.0417-6.6927 0-7.1354 3.9062-11.198 3.9323-4.0625 10.365-4.0625 2.5 0 4.8958 0.70313 2.4219 0.70312 4.4271 1.7188v5.4427h-0.26042q-2.2396-1.7448-4.6354-2.6823-2.3698-0.9375-4.6354-0.9375-4.1667 0-6.5885 2.8125-2.3958 2.7865-2.3958 8.2031 0 5.2604 2.3438 8.099 2.3698 2.8125 6.6406 2.8125 1.4844 0 3.0208-0.39062 1.5365-0.39063 2.7604-1.0156 1.0677-0.54687 2.0052-1.1458 0.9375-0.625 1.4844-1.0677h0.26042zm32.682 1.8229h-6.4583l-11.667-12.734-3.1771 3.0208v9.7135h-4.8958v-40.521h4.8958v25.99l14.141-14.557h6.1719l-13.516 13.437z" aria-label="Knock"/>
  <path transform="rotate(-45)" d="m640.72 1213.4h-6.6927l-15.339-17.266-3.8542 4.1145v13.151h-5.1562v-38.776h5.1562v20.234l18.828-20.234h6.25l-17.318 18.229zm29.714 0h-4.8958v-16.562q0-2.0052-0.23438-3.75-0.23437-1.7708-0.85937-2.7604-0.65104-1.0938-1.875-1.6146-1.224-0.5469-3.1771-0.5469-2.0052 0-4.1927 0.9896t-4.1927 2.526v21.719h-4.8958v-29.089h4.8958v3.2292q2.2917-1.901 4.7396-2.9687 2.4479-1.0677 5.026-1.0677 4.7135 0 7.1875 2.8385t2.474 8.1771zm34.219-14.531q0 7.1094-3.6458 11.224t-9.7656 4.1146q-6.1719 0-9.8177-4.1146-3.6198-4.1146-3.6198-11.224 0-7.1093 3.6198-11.224 3.6458-4.1406 9.8177-4.1406 6.1198 0 9.7656 4.1406 3.6458 4.1146 3.6458 11.224zm-5.0521 0q0-5.651-2.2135-8.3854-2.2135-2.7604-6.1458-2.7604-3.9844 0-6.1979 2.7604-2.1875 2.7344-2.1875 8.3854 0 5.4688 2.2135 8.3073 2.2135 2.8125 6.1719 2.8125 3.9062 0 6.1198-2.7864 2.2396-2.8125 2.2396-8.3334zm34.141 12.708q-2.4479 1.1718-4.6615 1.8229-2.1875 0.651-4.6614 0.651-3.151 0-5.7812-0.9114-2.6302-0.9375-4.5052-2.8125-1.901-1.875-2.9427-4.7396-1.0417-2.8646-1.0417-6.6927 0-7.1354 3.9062-11.198 3.9323-4.0625 10.365-4.0625 2.5 0 4.8958 0.7031 2.4219 0.7031 4.4271 1.7187v5.4427h-0.26042q-2.2396-1.7447-4.6354-2.6822-2.3698-0.9375-4.6354-0.9375-4.1667 0-6.5885 2.8125-2.3958 2.7864-2.3958 8.2031 0 5.2604 2.3438 8.0989 2.3698 2.8125 6.6406 2.8125 1.4844 0 3.0208-0.3906 1.5364-0.3906 2.7604-1.0156 1.0677-0.5469 2.0052-1.1459 0.9375-0.625 1.4844-1.0677h0.26042zm32.682 1.8229h-6.4583l-11.667-12.734-3.1771 3.0208v9.7136h-4.8958v-40.521h4.8958v25.99l14.141-14.557h6.1719l-13.516 13.438z" aria-label="Knock"/>
  <path transform="rotate(-45)" d="m1073.1 1647h-6.6927l-15.339-17.266-3.8541 4.1146v13.151h-5.1563v-38.776h5.1563v20.234l18.828-20.234h6.25l-17.318 18.229zm29.714 0h-4.8958v-16.562q0-2.0052-0.2344-3.75-0.2344-1.7709-0.8594-2.7605-0.651-1.0937-1.875-1.6145-1.2239-0.5469-3.1771-0.5469-2.0052 0-4.1927 0.9896t-4.1927 2.526v21.719h-4.8958v-29.088h4.8958v3.2292q2.2917-1.9011 4.7396-2.9688t5.026-1.0677q4.7136 0 7.1875 2.8386 2.474 2.8385 2.474 8.1771zm34.219-14.531q0 7.1094-3.6458 11.224-3.6458 4.1145-9.7656 4.1145-6.1719 0-9.8177-4.1145-3.6198-4.1146-3.6198-11.224t3.6198-11.224q3.6458-4.1407 9.8177-4.1407 6.1198 0 9.7656 4.1407 3.6458 4.1145 3.6458 11.224zm-5.0521 0q0-5.651-2.2135-8.3854-2.2135-2.7604-6.1458-2.7604-3.9844 0-6.1979 2.7604-2.1875 2.7344-2.1875 8.3854 0 5.4688 2.2135 8.3073 2.2135 2.8125 6.1719 2.8125 3.9062 0 6.1198-2.7865 2.2395-2.8125 2.2395-8.3333zm34.141 12.708q-2.4479 1.1719-4.6614 1.8229-2.1875 0.6511-4.6615 0.6511-3.151 0-5.7812-0.9115-2.6302-0.9375-4.5052-2.8125-1.9011-1.875-2.9427-4.7395-1.0417-2.8646-1.0417-6.6927 0-7.1355 3.9063-11.198 3.9322-4.0625 10.364-4.0625 2.5 0 4.8959 0.7032 2.4218 0.7031 4.427 1.7187v5.4427h-0.2604q-2.2396-1.7448-4.6354-2.6823-2.3698-0.9375-4.6354-0.9375-4.1667 0-6.5885 2.8125-2.3959 2.7865-2.3959 8.2032 0 5.2604 2.3438 8.0989 2.3698 2.8125 6.6406 2.8125 1.4844 0 3.0208-0.3906 1.5365-0.3906 2.7604-1.0156 1.0678-0.5469 2.0053-1.1459 0.9375-0.625 1.4843-1.0677h0.2604zm32.682 1.8229h-6.4583l-11.667-12.734-3.1771 3.0208v9.7135h-4.8958v-40.521h4.8958v25.99l14.141-14.557h6.1718l-13.516 13.438z" aria-label="Knock"/>
 </g>
</svg>
