<?xml version="1.0" encoding="UTF-8"?>
<svg width="29.67in" height="22.72in" viewBox="0 0 2136 1636" xmlns="http://www.w3.org/2000/svg">
 <defs>
  <style>.cls-1,.cls-2,.cls-3,.cls-4,.cls-5,.cls-6,.cls-7,.cls-8,.cls-9,.cls-10,.cls-11,.cls-12,.cls-13,.cls-14,.cls-15,.cls-16,.cls-17,.cls-18,.cls-19,.cls-20,.cls-21,.cls-22,.cls-23,.cls-24,.cls-25,.cls-26,.cls-27,.cls-28,.cls-29,.cls-30,.cls-31,.cls-32,.cls-33,.cls-34,.cls-35,.cls-36,.cls-37,.cls-38,.cls-39,.cls-40,.cls-41,.cls-42,.cls-43,.cls-44,.cls-45,.cls-46,.cls-47,.cls-48,.cls-49,.cls-50,.cls-51,.cls-52,.cls-53,.cls-54,.cls-55,.cls-56,.cls-57,.cls-58,.cls-59,.cls-60,.cls-61,.cls-62,.cls-63,.cls-64,.cls-65{fill:none;}.cls-1,.cls-2,.cls-3,.cls-4,.cls-5,.cls-6,.cls-7,.cls-8,.cls-9,.cls-10,.cls-11,.cls-12,.cls-13,.cls-14,.cls-15,.cls-16,.cls-17,.cls-18,.cls-19,.cls-20,.cls-21,.cls-22,.cls-23,.cls-24,.cls-25,.cls-26,.cls-27,.cls-28,.cls-29,.cls-30,.cls-31,.cls-32,.cls-33,.cls-34,.cls-35,.cls-36,.cls-37,.cls-38,.cls-39,.cls-40,.cls-41,.cls-42,.cls-43,.cls-44,.cls-45,.cls-46,.cls-47,.cls-48,.cls-49,.cls-50,.cls-51,.cls-52,.cls-53,.cls-54,.cls-55,.cls-56,.cls-57,.cls-58,.cls-59,.cls-65{stroke-linejoin:bevel;}.cls-1,.cls-2,.cls-3,.cls-4,.cls-5,.cls-6,.cls-7,.cls-8,.cls-9,.cls-10,.cls-11,.cls-12,.cls-14,.cls-17,.cls-18,.cls-19,.cls-20,.cls-22,.cls-23,.cls-26,.cls-27,.cls-28,.cls-29,.cls-30,.cls-31,.cls-32,.cls-33,.cls-34,.cls-35,.cls-37,.cls-38,.cls-44,.cls-45,.cls-46,.cls-48,.cls-49,.cls-50,.cls-51,.cls-52,.cls-53,.cls-55,.cls-56,.cls-57,.cls-58,.cls-59,.cls-66{stroke-width:8px;}.cls-1,.cls-67{stroke:#6c3c09;}.cls-2{stroke:#331c04;}.cls-3,.cls-61,.cls-65,.cls-68{stroke:#663908;}.cls-4{stroke:#7f470a;}.cls-5{stroke:#8c4f0b;}.cls-6{stroke:#693a08;}.cls-7{stroke:#6b3c09;}.cls-8{stroke:#6a3b09;}.cls-9{stroke:#6a3b08;}.cls-10,.cls-16,.cls-69,.cls-70,.cls-71,.cls-72,.cls-73{stroke:#3f2305;}.cls-11{stroke:#442605;}.cls-12{stroke:#371f04;}.cls-13,.cls-15,.cls-41{stroke-width:8px;}.cls-13,.cls-19{stroke:#422505;}.cls-14{stroke:#361e05;}.cls-15{stroke:#3e2205;}.cls-16{stroke-width:8px;}.cls-17{stroke:#3e2305;}.cls-18{stroke:#432506;}.cls-20{stroke:#6f3e09;}.cls-21{stroke:#884b0b;}.cls-21,.cls-24,.cls-40{stroke-width:8px;}.cls-22{stroke:#512d06;}.cls-23{stroke:#703e09;}.cls-24{stroke:#7a440a;}.cls-25{stroke:#472806;}.cls-25,.cls-42,.cls-43{stroke-width:8px;}.cls-26{stroke:#3a2105;}.cls-27{stroke:#3c2205;}.cls-28{stroke:#7c450a;}.cls-29{stroke:#4c2906;}.cls-30,.cls-36{stroke:#472706;}.cls-31{stroke:#5e3508;}.cls-32{stroke:#79430a;}.cls-33,.cls-62{stroke:#4d2b06;}.cls-34{stroke:#462705;}.cls-35{stroke:#552f07;}.cls-36,.cls-39,.cls-47{stroke-width:8px;}.cls-37{stroke:#76420a;}.cls-38{stroke:#542f07;}.cls-39,.cls-74{stroke:#392005;}.cls-40,.cls-41,.cls-47,.cls-50,.cls-75{stroke:#653808;}.cls-42{stroke:#5d3408;}.cls-43{stroke:#3c2105;}.cls-44{stroke:#583107;}.cls-45{stroke:#5b3307;}.cls-46{stroke:#593207;}.cls-48{stroke:#643808;}.cls-49,.cls-63{stroke:#5c3307;}.cls-51,.cls-76,.cls-77{stroke:#4b2a06;}.cls-52{stroke:#563007;}.cls-53{stroke:#2b1804;}.cls-54{stroke-width:8px;}.cls-54,.cls-59{stroke:#4e2c06;}.cls-55{stroke:#4f2c06;}.cls-56,.cls-78{stroke:#522e07;}.cls-57{stroke:#3c2204;}.cls-58{stroke:#4e2b07;}.cls-79{clip-path:url(#a);}.cls-60{stroke-width:0px;}.cls-80,.cls-81,.cls-76,.cls-82,.cls-83,.cls-84,.cls-85,.cls-86,.cls-69,.cls-87,.cls-88,.cls-89,.cls-90,.cls-91,.cls-92,.cls-93,.cls-94,.cls-77,.cls-95,.cls-61,.cls-62,.cls-63,.cls-64,.cls-66,.cls-70,.cls-71,.cls-72,.cls-73,.cls-96,.cls-97,.cls-98,.cls-74,.cls-99,.cls-78,.cls-75,.cls-100,.cls-101,.cls-102,.cls-67,.cls-103,.cls-68,.cls-104{stroke-linejoin:round;}.cls-80,.cls-81,.cls-76,.cls-82,.cls-83,.cls-84,.cls-85,.cls-86,.cls-69,.cls-87,.cls-88,.cls-89,.cls-90,.cls-91,.cls-92,.cls-94,.cls-77,.cls-62,.cls-63,.cls-64{stroke-width:5px;}.cls-80,.cls-69,.cls-89,.cls-90,.cls-91,.cls-92,.cls-93,.cls-94,.cls-77,.cls-70,.cls-71,.cls-72,.cls-73,.cls-96,.cls-97,.cls-98,.cls-74,.cls-99,.cls-78,.cls-75,.cls-100,.cls-101,.cls-102,.cls-67,.cls-103,.cls-68,.cls-104{fill:#615851;}.cls-80,.cls-102{stroke:#683a08;}.cls-81{stroke:#351e05;}.cls-81,.cls-76,.cls-82,.cls-83,.cls-84,.cls-85,.cls-86,.cls-87,.cls-88{fill:#483112;}.cls-82{stroke:#96550c;}.cls-83{stroke:#613708;}.cls-84{stroke:#532f07;}.cls-85{stroke:#4d2c06;}.cls-86{stroke:#583207;}.cls-87{stroke:#321c04;}.cls-88{stroke:#361e04;}.cls-89{stroke:#96540c;}.cls-90{stroke:#77430a;}.cls-91{stroke:#2b1803;}.cls-92{stroke:#5a3207;}.cls-93{stroke:#703f09;stroke-width:5px;}.cls-94{stroke:#653909;}.cls-95{fill:#210c00;stroke-width:3px;}.cls-95,.cls-66{stroke:#000;}.cls-61{stroke-width:5.63px;}.cls-64{stroke:#6c3c08;}.cls-66{fill:#d1d1d1;}.cls-65{stroke-width:12.14px;}.cls-70,.cls-96,.cls-97,.cls-98,.cls-74,.cls-99,.cls-75,.cls-101,.cls-102,.cls-103,.cls-68{stroke-width:3.55px;}.cls-71{stroke-width:3.55px;}.cls-72,.cls-100,.cls-67{stroke-width:3.55px;}.cls-73,.cls-78{stroke-width:3.55px;}.cls-96{stroke:#764209;}.cls-97{stroke:#603608;}.cls-98{stroke:#5b3207;}.cls-99,.cls-100{stroke:#573007;}.cls-101{stroke:#693a09;}.cls-103{stroke:#8d4e0b;}.cls-104{stroke:#6d3d09;stroke-width:4px;}</style>
  <clipPath id="a">
   <rect class="cls-60" x="-201.5" y="-91.64" width="2337.5" height="1727.6"/>
  </clipPath>
 </defs>
 <g class="cls-79">
  <path class="cls-95" d="m273.5 1379.6c5.69-1.93 200.74-678.44-102.68-779.37-46.99-15.63-84.84-46.74-99.39-88.69-9.42-27.15 0.57-60.04 14.98-84.91 6.52-11.25 29.97-24.97 29.97-24.97s-92.47-97.44-99.89-159.82c-2.8-23.53 5.22-51.19 22.48-67.43 18.83-17.71 74.92-19.98 74.92-19.98s-8.41-47.36-2.5-69.92c4.45-16.99 13.25-34.65 27.47-44.95 23.55-17.05 56.45-25.93 84.91-19.98 24.44 5.11 59.93 44.95 59.93 44.95s60.73-57.03 97.87-54.02c30.19 2.44 71.45 56.14 71.45 56.14s43.94-42.01 72.22-46.95c53.13-9.28 106.72 18.87 157.53 36.96 66.48 23.67 128.22 59.21 190.28 92.78 105.73 57.19 309.66 184.8 309.66 184.8l304.67 84.91 194.79 129.86 244.73 129.86 635.64 664.54-38.03 618.97s-372.31 54.23-502.17 54.23-1862.8 100.31-1862.8 100.31l113.99-737.3z"/>
  <path class="cls-66" d="m97.65 162.94s-31.03-7.23-45.81-3.23c-11.83 3.2-22.16 11.61-30.36 20.71-8.22 9.13-17.48 32.46-17.48 32.46s17.18-14.73 27.47-18.98c7.59-3.14 16.29-2.33 24.24-4.39 6.63-1.71 19.46-6.6 19.46-6.6l22.48-19.98z"/>
  <path class="cls-66" d="m99.52 439.39 25.6-20.23s-17.24-6.18-26.22-6.24c-7.67-0.06-16.12 0.69-22.48 4.99-9.17 6.22-15.46 16.88-18.73 27.47-1.96 6.36 0 19.98 0 19.98s12.19-13.83 19.98-18.48c6.61-3.95 21.85-7.49 21.85-7.49z"/>
  <path class="cls-66" d="m91.9 90.19s8.67-37.58 21.32-50.96c9.23-9.77 22.99-15.46 36.25-17.64 16.18-2.65 48.79 6.26 48.79 6.26l-14.58 14.99s-13.53 7.65-20.91 9.88c-11.03 3.33-23.75 0.15-34.2 5-14.81 6.88-36.67 32.46-36.67 32.46z"/>
  <path class="cls-66" d="m355.16 32.82 31.78-11.47s-21.64-15.68-34.34-17.02c-15.5-1.63-32.2 3.15-45.3 11.59-11.54 7.43-25.79 32.1-25.79 32.1s22.43-9.49 34.06-13.05c5.19-1.59 10.44-3.26 15.85-3.71 7.91-0.65 23.75 1.57 23.75 1.57z"/>
  <path class="cls-66" d="m552.73 24.02s-23.73-9.96-36.32-10.49c-12.51-0.52-25.9 1.26-36.82 7.38-9.74 5.46-22.76 24.58-22.76 24.58s24.22-8.3 36.84-9.47c9.85-0.91 29.62 1.97 29.62 1.97l29.44-13.98z"/>
  <path class="cls-95" d="m858.06 174.43c59.93 0 319.65 54.94 319.65 54.94l56.9 25.83c-39.45 2.53-68.64 2.11-21.94 39.1l216.48 64.93c-45.51 8.2-54.64 18.21-16.7 44.95l138.03 8.78c-20.2 14.7-28.7 29.4-11.35 44.09l237.92 42.02c-34.63 23.31-63.96 25.43-33.5 48.73 88.06 6.48 125.27 22.15 258.75 74.06-30.58 22.36-57.23 40.02-20.63 87.58 123.19 41.54 255.44 59.23 317.28 135.83-76.4-14.8-102.66-8.11-113.58 5.16 81.93 29.83 148.98 63.09 183.36 112.06-60.11 33.83-65.11-8.73-60.32 34.36l193.96 175.63-85.04 97.93"/>
  <path class="cls-95" d="m389.32 566.16c-25.33 84.08-118.82 228.07-147.72 337.22 17.92-5.39 51.79-43.86 65.39 12.81 11.62 48.44-76.33 107.77-71.24 131.38-10.61 0 77.9 4.74 35.92 95.86-32.7 70.97-147.31 159-158.82 187.78 37.67 9.08 76.05 17.76 49.44 63.57-9.58 4.1-106.82 197.93-84.76 190.71 85.55-27.99 73.49 61.19 70.63 63.57l-49.44 127.14c164.92-80.39 262.76-17.92 437.93-70.63"/>
  <path class="cls-82" d="m1891.3 1029.4 153.92 188.76"/>
  <path class="cls-82" d="m1868.2 1041.9 120.68 174.89"/>
  <path class="cls-83" d="m1848.4 1096.7 161.58 227.97"/>
  <path class="cls-88" d="m1822.9 1096.6 89.12 221.77"/>
  <path class="cls-82" d="m850.85 412.67 233.59 119.51"/>
  <path class="cls-82" d="m840.65 342.79 197.77 77.7"/>
  <path class="cls-81" d="m854.78 399.29 261.34 98.89"/>
  <path class="cls-84" d="m833.59 413.42 197.77 134.2"/>
  <path class="cls-76" d="m863.41 393.69 233.09 70.63"/>
  <path class="cls-89" d="m1358.5 745.36 145.94 97.96"/>
  <path class="cls-77" d="m1374 615.18 242.09 157.03"/>
  <path class="cls-80" d="m1375.3 644.27 235.06 209.65"/>
  <path class="cls-89" d="m1313.5 736.26 103.41 237.09"/>
  <path class="cls-90" d="m1328 753.6 182.36 238.63"/>
  <path class="cls-91" d="m1415.6 587.56 243.57 114.09"/>
  <path class="cls-87" d="m1819.6 870.31 259.71 232.53"/>
  <path class="cls-85" d="m1780.6 885.71 203.62 215.45"/>
  <path class="cls-85" d="m1747.2 953.18 272.63 280.84"/>
  <path class="cls-85" d="m1704.2 953.04 150.38 273.2"/>
  <path class="cls-87" d="m1819.6 870.31 259.71 232.53"/>
  <path class="cls-87" d="m1869 1029.2 259.71 232.53"/>
  <path class="cls-26" d="m599.33 1334.2c4.75-5.09 9.8-3.76 14.52-9.6 3.36-4.16 6.31-11.67 9.57-16.74 7.13-11.07 14.6-19.59 21.59-31.63 30.76-52.94 60.33-115.42 89.49-177.15 29.53-65.88 4.19-11.11 23.83-50.45 1.03-2.07 11.36-28.33 13.09-29.47"/>
  <path class="cls-58" d="m441.13 1352.1c13.67-12.51 154.09-144.81 167.65-159.46 8.58-9.27 16.83-22.53 25.22-34.03 14.42-19.78 28.85-39.55 43.22-59.81 19.64-27.68 39.38-54.47 58.8-84 6.19-9.41 11.81-22.72 17.93-32.67 6.7-10.91 13.65-16.58 20.38-30.83"/>
  <path class="cls-20" d="m505.03 1174.5c34.52-31.11 106.63-96.85 141.22-124.63 19.77-15.88 39.4-35.96 59.14-52.99 3.21-2.77 6.47-3.54 9.68-6.4 16.89-15.8 33.78-31.59 50.67-47.39 1.61-1.07 3.23-1.85 4.84-3.2 7.99-6.72 16.13-17.61 24.12-22.89"/>
  <path class="cls-38" d="m747.81 861.27c-86.34 53.64-172.68 107.28-259.02 160.91l-85.9 56.82"/>
  <path class="cls-14" d="m693.36,668.31c-11.63,10.16-23.47,12.49-35.09,23.21-11.33,10.45-22.43,25.05-33.73,36.19-47.19,46.51-94.96,88.1-142.39,128.88-45.2,38.85-7.89,3.87-41.06,34.1-.82.75-17.17,12.06-19.28,19.69"/>
  <path class="cls-55" d="m755.25 873.7c-11.48 7.6-23.68 14.59-35.05 26.65-8.5 9.03-16.79 21.08-25.26 30.59-47.57 53.4-95.36 102.38-143.42 146.9-32.16 29.79-64.51 55.59-96.53 88.13-10.95 11.13-21.6 26.6-32.48 38.83-32.37 36.4-33.84 32.87-60.09 77.91"/>
  <path class="cls-46" d="m1696.8,1408.82c2.85-5.56,12.36-10.47,14.43-16.1,1.47-4.01-.96-8.12-.51-12.17.97-8.86,4.94-17.67,4.75-26.54-.82-38.99-12.76-78.2-24.67-116.89-15.3-39.67-3.86-5.89-9.73-31.62-.31-1.35-8.75-15.72-7.04-17.63"/>
  <path class="cls-46" d="m1456 1571.3c10.25-15.69 111.84-177.33 119.85-193.22 5.06-10.05 5.76-20.37 8.36-30.57 4.48-17.53 8.96-35.06 12.89-52.61 5.37-23.98 11.77-47.93 15.01-71.96 1.03-7.66-2.62-15.33-2.23-23 0.43-8.4 6.3-16.27 3.55-25.2"/>
  <path class="cls-46" d="m1389.2 1480.2c26.34-39.53 80.63-122.21 110.29-161.31 16.95-22.35 29.63-45.18 45.41-67.67 2.57-3.66 7.14-7.07 9.62-10.74 12.33-19.42 24.66-38.85 36.99-58.27 1.6-1.79 3.49-3.54 4.81-5.37 6.56-9.08 9.34-18.92 17.29-27.79"/>
  <path class="cls-46" d="m1483.5 1188.2c-89.16 95.25-178.31 190.49-267.47 285.74l-85.38 95.28"/>
  <path class="cls-46" d="m1208.8,1214.32c-9.18,13.27-26.25,25.58-34.87,38.92-8.41,13.01-12.46,26.41-20.16,39.48-32.16,54.63-70.02,109.1-108.11,163.12-36.29,51.47-9.15,8.55-34.13,46.58-.62.95-16.4,19.15-12.48,22.43"/>
  <path class="cls-46" d="m1507.6 1182.5c-11.41 12.74-24.58 26.11-31.49 39.39-5.18 9.94-7.08 20.11-11.74 30.09-26.15 56.04-56.91 111.64-92.42 166.86-23.76 36.94-51.67 73.48-72.55 110.7-7.14 12.73-11.09 22.28-17.05 35.1-17.73 38.15-23.53 30.36-22.96 63.61"/>
  <path class="cls-93" d="m1421 731.67 168.99 48.34"/>
  <path class="cls-93" d="m1395.7 603.03 278.65 74.98"/>
  <path class="cls-93" d="m1405.9 630.31 288.14 127.22"/>
  <path class="cls-93" d="m1375.4 736.86 171.3 193.81"/>
  <path class="cls-93" d="m1394.5 748.9 246.9 171"/>
  <path class="cls-93" d="m1426.8 563.96 266.85 33.67"/>
  <path class="cls-93" d="m1089.5 352.06 266.85 33.67"/>
  <path class="cls-93" d="m1437.4 479.2 266.85 33.67"/>
  <path class="cls-93" d="m1437.4 479.2 266.85 33.67"/>
  <path class="cls-93" d="m1619.3 549.83 266.85 33.67"/>
  <path class="cls-86" d="m984.21 483.31 269.4 254.98"/>
  <path class="cls-86" d="m972.45 334.22 228.09 165.77"/>
  <path class="cls-86" d="m988.74 454.78 301.4 210.98"/>
  <path class="cls-86" d="m964.3 484.92 228.09 286.32"/>
  <path class="cls-86" d="m998.7 442.83 268.82 150.7"/>
  <path class="cls-52" d="m825.72 991.18c-1.66-6.66 1.66-21.64-4.99-19.98-6.66 1.66 4.99 13.11 4.99 19.98 0 21.71-1.92 43.44-4.99 64.93-3.6 25.21-10.68 49.82-14.98 74.92-5.69 33.19-7.68 67.02-14.98 99.89-6.05 27.24-17.83 52.93-24.97 79.91-7.86 29.68-13.22 59.96-19.98 89.9-4.89 21.67-10.17 43.25-14.98 64.93-2.28 10.28-9.99 40.5-9.99 29.97"/>
  <path class="cls-52" d="m865.68 1021.2v54.94c0 72.12 2.83 47.59-24.97 154.83-1.87 7.21-7.48 12.97-9.99 19.98-10.82 30.29-34.96 90.17-34.96 124.86"/>
  <path class="cls-52" d="m855.69,876.31c-7.03,35.18,11.16,66.44,14.98,99.89,13.67,119.6,20.52,239.38,24.97,359.61,1.29,34.94,0,69.92,0,104.89,0,8.32-1.03,16.71,0,24.97.85,6.81,11.86,19.98,4.99,19.98s-4.99-11.43-4.99-14.98"/>
  <path class="cls-52" d="m664.84 1391.9c-52.72 47.07-92.1 107.95-144.84 154.83-18.3 16.26-40.81 29.65-59.93 44.95"/>
  <path class="cls-45" d="m486.1,1460.66c-74.51,4.04-151.56-7.21-224.75,4.99-12.75,2.12-30.46.49-39.96,9.99"/>
  <path class="cls-45" d="m521.06 1495.6c-61.91 43.9-135.87 56.72-199.78 97.39-12.08 7.69-63.46 27.62-74.92 36.21"/>
  <path class="cls-45" d="m241.36,1545.57c63.83-10.44,125.14-35.72,189.79-44.95,6.59-.94,13.57,1.83,19.98,0,5.77-1.65,9.41-7.76,14.98-9.99,3.09-1.24,6.76.81,9.99,0,9.1-2.28,16.36-9.99,24.97-9.99"/>
  <path class="cls-46" d="m790.76 1290.8c-1.98 41.89-25.92 74.19-44.95 109.88-20.99 39.35-18.43 42.78-44.95 79.91-7.56 10.58-17.57 19.28-24.97 29.97-7.64 11.04-12.24 24-19.98 34.96-17.09 24.22-54.73 55.25-71.17 79.91"/>
  <path class="cls-30" d="m1753.5 1309.4 56.19 141.28 84.45 176.88"/>
  <path class="cls-59" d="m1884.6 1400.7c67.55 23.65 99.79 72.73 149.84 124.86 13.04 13.59 27.79 25.58 39.96 39.96 6.27 7.41 9.02 17.31 14.98 24.97 4.24 5.45 39.96 32.29 39.96 39.96"/>
  <path class="cls-59" d="m1849.6 1440.7c29.36 30.04 48.81 67.25 74.92 99.89 9.74 12.17 29.78 37.36 44.95 44.95 14.7 7.35 52.72 28.58 69.29 45.14"/>
  <path class="cls-59" d="m1864.6 1325.8c14.98 4.99 30.95 7.68 44.95 14.98 116.1 60.57 33.33 34.14 94.9 64.93 29.39 14.69 66.29 13.62 94.9 29.97 7.23 4.13 12.75 10.85 19.98 14.98"/>
  <path class="cls-46" d="m785.77 551.66c3.33 11.65 7.26 23.15 9.99 34.96 13.87 60.12 22.22 120.68 39.96 179.8 2.98 9.95 19.98 63.17 19.98 39.96"/>
  <path class="cls-37" d="m895.65 601.61c14.2 77.23 26.85 161.12 39.96 239.74 3.38 20.25 11.56 39.42 14.98 59.93 1.72 10.34 2.58 44.95 14.98 44.95"/>
  <path class="cls-53" d="m935.6 601.61c63.17 124.24 102.69 258.74 129.86 394.57 20.44 81.78-8.43-40.57 4.99 39.96 2.61 15.66 20.48 20.15-9.99 9.99"/>
  <path class="cls-56" d="m1215.3 1101.1c4.64-91-25.93-177.22-44.95-264.71-7.37-33.92-2.18-109.88-49.95-109.88"/>
  <path class="cls-2" d="m614.39,493.8c-86.43,6.31-175.8-11.26-260.7,7.8-14.79,3.32-35.33.77-46.35,15.61"/>
  <path class="cls-18" d="m654.94 548.42c-71.81 68.59-157.6 108.13-231.73 171.67-14.02 12.01-27.26 25.59-40.55 39.02-14.65 14.79-18.84 27.28-28.97 0"/>
  <path class="cls-17" d="m330.51 626.45c74.04-16.31 145.16-55.8 220.15-70.23 7.65-1.47 15.75 2.86 23.17 0 6.69-2.58 10.92-12.12 17.38-15.61 3.59-1.93 7.84 1.26 11.59 0 10.56-3.56 18.98-15.61 28.97-15.61"/>
  <path class="cls-50" d="m955.58 821.37c3.33 11.65 7.26 23.15 9.99 34.96 13.87 60.12 22.22 120.68 39.96 179.8 2.98 9.95 19.98 63.17 19.98 39.96"/>
  <path class="cls-50" d="m1065.5 871.31c14.2 77.23 26.85 161.12 39.96 239.74 3.38 20.25 11.56 39.42 14.98 59.93 1.72 10.34 2.58 44.95 14.98 44.95"/>
  <path class="cls-50" d="m1105.4 871.31c63.17 124.24 102.69 258.74 129.86 394.57 20.44 81.78-8.43-40.57 4.99 39.96 2.61 15.66 20.48 20.15-9.99 9.99"/>
  <path class="cls-1" d="m1470 1161c3.33 11.65 7.26 23.15 9.99 34.96 13.87 60.12 22.22 120.68 39.96 179.8 2.98 9.95 19.98 63.17 19.98 39.96"/>
  <path class="cls-8" d="m1579.9 1210.9c14.2 77.23 26.85 161.12 39.96 239.74 3.38 20.25 11.56 39.42 14.98 59.93 1.72 10.34 2.58 44.95 14.98 44.95"/>
  <path class="cls-31" d="m1619.8 1210.9c63.17 124.24 128.88 278.76 156.04 414.59"/>
  <path class="cls-42" d="m1018.9 1231.2c-58.93 45.78-128.65 80.44-181.85 132.17-9.26 9.01-24.75 17.76-27.14 30.98"/>
  <path class="cls-43" d="m1067.5 1240c-25.86 71.35-72.22 134.3-101.57 204.13-5.55 13.2-9.98 26.85-14.5 40.44-4.98 14.98-3.4 23.6-20.52 14.23"/>
  <path class="cls-25" d="m866.14 1440.4c46.5-44.95 82.49-100.66 130.35-145.08 4.88-4.53 12.2-6.23 16.42-11.38 3.8-4.64 3.31-11.74 6.62-16.75 1.84-2.78 6.01-3.19 8.21-5.69 6.18-7.06 7.75-17.53 14.83-22.44"/>
  <path class="cls-1" d="m1533.3 915.52c21.58 85.04 27.53 176.86 57.46 258.31 5.21 14.18 7.59 35.06 19.87 43.62"/>
  <path class="cls-50" d="m1562.3 866.31c60.92 60.4 104.92 139.43 162.88 202.95 10.96 12.01 22.82 23.01 34.59 34.07"/>
  <path class="cls-7" d="m1680.2 1176.7c-25.88-71.08-66.92-135.5-91.71-207.83-2.53-7.38-1.21-16.14-4.64-23.07-3.09-6.25-10.41-8.91-14.07-14.78-2.03-3.26-0.71-8.01-2.32-11.54-4.53-9.94-14.39-16.37-16.39-26.32"/>
  <path class="cls-13" d="m730.88 499.78c-6.6 10.16-12.69 20.68-19.81 30.49-36.23 49.94-76.42 44.01-109.35 96.21-5.54 8.79-34.52 56.55-17.01 41.31"/>
  <path class="cls-41" d="m765.38 563.44c-48.92 61.43-103.87 126.06-154.55 187.57-13.06 15.85-22.13 34.61-35.36 50.66-6.66 8.09-32.21 31.46-24.06 40.82"/>
  <path class="cls-15" d="m791.62,593.58c-52.21,129.23-127.68,247.36-212.28,357.05-48.24,69.12,25.06-33-26.85,30.01-10.09,12.25-1.74,28.67-14.09-.97"/>
  <path class="cls-47" d="m1265.4 924.16c5.22 10.94 11.02 21.62 15.67 32.81 23.69 56.97 42.01 115.3 69.35 170.63 4.6 9.31 30.22 58.96 26.36 36.07"/>
  <path class="cls-36" d="m1382 955.1c26.87 73.79 53.32 154.4 79.33 229.73 6.7 19.41 17.97 36.94 24.76 56.6 3.42 9.91 10.03 43.89 22.26 41.83"/>
  <path class="cls-39" d="m1421.4 948.44c82.98 111.98 144.36 238.01 193.77 367.42 33.78 77.23-15.07-38.6 11.58 38.57 5.18 15 23.55 16.45-8.19 11.51"/>
  <path class="cls-40" d="m1568.2 707.18c10.35 6.31 21.03 12.1 31.04 18.94 50.94 34.81 98.12 73.69 151.23 105.14 8.94 5.29 57.5 32.92 41.77 15.84"/>
  <path class="cls-24" d="m1682.8 669.45c62.78 47.17 128.94 100.28 191.85 149.22 16.21 12.61 35.22 21.15 51.63 33.92 8.27 6.43 32.36 31.31 41.48 22.9"/>
  <path class="cls-40" d="m1712.2 642.37c130.65 48.56 279.57 146.27 391.6 227.74"/>
  <path class="cls-40" d="m1058.7 462.45c10.35 6.31 21.03 12.1 31.04 18.94 50.94 34.81 98.12 73.69 151.23 105.14 8.94 5.29 57.5 32.92 41.77 15.84"/>
  <path class="cls-21" d="m1173.4 424.71c62.78 47.17 128.94 100.28 191.85 149.22 16.21 12.61 35.22 21.15 51.63 33.92 8.27 6.43 32.36 31.31 41.48 22.9"/>
  <path class="cls-40" d="m1202.75,397.64c130.65,48.56,250.86,120.67,362.88,202.15,70.45,46.28-33.69-24.12,30.75,26,12.53,9.75,28.71.94-.58,14.11"/>
  <path class="cls-21" d="m1173.4 424.71c62.78 47.17 128.94 100.28 191.85 149.22 16.21 12.61 35.22 21.15 51.63 33.92 8.27 6.43 32.36 31.31 41.48 22.9"/>
  <path class="cls-21" d="m1825 846.75c62.78 47.17 128.94 100.28 191.85 149.22 16.21 12.61 35.22 21.15 51.63 33.92 8.27 6.43 32.36 31.31 41.48 22.9"/>
  <path class="cls-50" d="m780.49,116.44c-7.91.83-15.8,2.19-23.73,2.51-40.38,1.63-80.35-1.3-120.59,3.62-6.77.83-43.12,6.09-28.2,9.81"/>
  <path class="cls-50" d="m734.46,197.61c-51.42-.85-106.92-4.02-159.09-5.98-13.44-.51-26.79,3.07-40.41,2.56-6.86-.26-29.21-5.11-30.78,4.96"/>
  <path class="cls-10" d="m729.4,230.04c-87.84,31.36-179.26,41.88-269.97,42.17-55.13,3.49,27.13-.34-26.3-2.35-10.39-.39-15.54,13.39-5.15-9.71"/>
  <path class="cls-40" d="m685.49 377.13 166.63 230.31"/>
  <path class="cls-40" d="m728.86 402.24c62.78 47.17 128.94 100.28 191.85 149.22 16.21 12.61 35.22 21.15 51.63 33.92 8.27 6.43 32.36 31.31 41.48 22.9"/>
  <path class="cls-40" d="m758.24,375.16c130.65,48.56,250.86,120.67,362.88,202.15,70.45,46.28-33.69-24.12,30.75,26,12.53,9.75,28.71.94-.58,14.11"/>
  <path class="cls-52" d="m659.92 523.52c-69.11 98.56-143.44 192.74-219.86 285.66-22.21 27-46.38 52.32-69.58 78.49-5.52 6.23-11.86 11.82-16.57 18.69-3.88 5.66-4.38 22.82-9.52 18.26-5.31-4.7 3.85-11.87 6.2-14.53"/>
  <path class="cls-22" d="m1321.81,1297.48c1.53-6.06,9.71-12.97,10.46-18.92.54-4.24-2.75-7.7-3.22-11.75-1.04-8.85.86-18.33-1.3-26.93-9.52-37.82-29.93-73.37-50.19-108.41-23.78-35.25-5.08-4.88-16.56-28.64-.6-1.25-12.05-13.36-10.81-15.61"/>
  <path class="cls-46" d="m1123.49,1509.72c6.48-17.58,69.35-197.85,73.6-215.13,2.69-10.93,1.05-21.14,1.31-31.66.44-18.09.89-36.17.79-54.16-.13-24.57.75-49.35-1.47-73.5-.71-7.7-5.98-14.35-7.32-21.91-1.46-8.29,2.5-17.27-2.18-25.36"/>
  <path class="cls-46" d="m1038 1435.9c16.83-44.42 51.26-137.15 71.41-181.89 11.52-25.58 18.77-50.66 29.12-76.11 1.68-4.14 5.38-8.49 6.97-12.62 7.67-21.69 15.35-43.38 23.02-65.07 1.16-2.1 2.61-4.23 3.49-6.31 4.36-10.32 4.88-20.53 10.64-30.96"/>
  <path class="cls-27" d="m1064.5 1130.1c-65.59 112.78-131.18 225.55-196.78 338.33l-61.9 111.96"/>
  <path class="cls-12" d="m802.68 1217.1c-5.98 14.99-19.87 30.8-25.28 45.73-5.28 14.56-6.23 28.53-10.81 42.99-19.13 60.44-43.84 122-68.89 183.17-23.86 58.28-7 10.38-22.84 53.03-0.39 1.06-11.7 22.34-7.15 24.65"/>
  <path class="cls-46" d="m1086.8 1119.2c-8.28 14.97-18.11 30.94-21.88 45.44-2.82 10.85-2.4 21.19-4.71 31.95-12.96 60.47-30.5 121.54-52.76 183.3-14.89 41.32-33.92 83.18-45.95 124.12-4.11 14-3.6 27.3-6.54 41.13-8.75 41.15-14.19 43.38-6.2 75.65"/>
  <path class="cls-46" d="m693.11,1391.2c4.31-4.53,14.82-6.55,18.39-11.37,2.55-3.44,1.37-8.06,2.94-11.82,3.43-8.23,9.73-15.56,12.06-24.12,10.23-37.63,9.85-78.62,9.35-119.09-3.47-42.38-2.04-6.74-.41-33.08.09-1.39-3.96-17.55-1.78-18.9"/>
  <path class="cls-46" d="m416.23 1479.1c14.26-12.15 157.38-138.51 169.55-151.49 7.7-8.21 11.28-17.92 16.66-26.96 9.25-15.55 18.49-31.1 27.22-46.83 11.92-21.48 24.83-42.65 34.72-64.79 3.15-7.06 1.81-15.44 4.35-22.69 2.78-7.94 10.64-13.83 10.53-23.17"/>
  <path class="cls-46" d="m377.87 1372.8c36.43-30.48 111.87-94.45 151.36-123.58 22.57-16.65 41.18-34.97 62.67-52.08 3.5-2.78 8.85-4.76 12.26-7.58 17.32-15.15 34.63-30.3 51.95-45.45 2.04-1.26 4.35-2.41 6.13-3.79 8.86-6.86 14.31-15.51 24.44-21.78"/>
  <path class="cls-46" d="m550.8 1119.3c-112.43 66.18-113.12 82.39-225.55 148.58l-140.99 80.19"/>
  <path class="cls-46" d="m618.28,849.66c-12.56,10.13-32.41,17.12-44.44,27.48-11.74,10.1-19.41,21.81-30.49,32.18-46.29,43.32-97.98,84.88-149.79,125.94-49.35,39.12-11.19,5.62-45.9,35.04-.86.73-21.14,13.74-18.31,17.99"/>
  <path class="cls-34" d="m575.52 1120.6c-14.55 9-30.95 18.1-41.34 28.89-7.77 8.07-12.47 17.29-19.76 25.55-40.92 46.37-86.13 91.02-135.79 133.95-33.23 28.73-70.32 55.89-100.87 85.7-10.44 10.19-16.51 22.03-25.85 32.65-27.79 31.58-33.62 30.86-42.47 62.92"/>
  <path class="cls-59" d="m1709.8 1280.9c67.55 23.65 99.79 72.73 149.84 124.86 13.04 13.59 27.79 25.58 39.96 39.96 6.27 7.41 9.02 17.31 14.98 24.97 4.24 5.45 39.96 32.29 39.96 39.96"/>
  <path class="cls-59" d="m1674.8 1320.8c29.36 30.04 48.81 67.25 74.92 99.89 9.74 12.17 29.78 37.36 44.95 44.95 14.7 7.35-6.58-11.57 9.99 4.99"/>
  <path class="cls-59" d="m1689.8 1205.9c14.98 4.99 30.95 7.68 44.95 14.98 116.1 60.57 33.33 34.14 94.9 64.93 29.39 14.69 66.29 13.62 94.9 29.97 7.23 4.13 12.75 10.85 19.98 14.98 8.48 4.84 26.85 6.75 34.96 9.99 9.77 3.91 7.89 9.99 19.98 9.99"/>
  <path class="cls-5" d="m1639.8 791.4c67.55 23.65 99.79 72.73 149.84 124.86 13.04 13.59 27.79 25.58 39.96 39.96 6.27 7.41 9.02 17.31 14.98 24.97 4.24 5.45 39.96 32.29 39.96 39.96"/>
  <path class="cls-59" d="m1604.9 831.35c29.36 30.04 48.81 67.25 74.92 99.89 9.74 12.17 29.78 37.36 44.95 44.95 14.7 7.35-6.58-11.57 9.99 4.99"/>
  <path class="cls-59" d="m1619.8 716.48c14.98 4.99 30.95 7.68 44.95 14.98 116.1 60.57 33.33 34.14 94.9 64.93 29.39 14.69 66.29 13.62 94.9 29.97 7.23 4.13 12.75 10.85 19.98 14.98 8.48 4.84 26.85 6.75 34.96 9.99 9.77 3.91 7.89 9.99 19.98 9.99"/>
  <path class="cls-54" d="m857.63,317.28c65.28,29.34,122.45,15.92,194.64,12.54,18.81-.88,37.76.57,56.49-1.49,9.65-1.06,18.46-6.35,28.06-7.8,6.83-1.04,51.21,4.07,56.49-1.49"/>
  <path class="cls-54" d="m859.76 264.23c41.98-1.59 81.7-15.2 123.1-20.9 15.44-2.13 47.32-6.61 63.55-1.67 15.72 4.78-12.73 3.87 10.68 3.25"/>
  <path class="cls-54" d="m791.57,357.88c14.31,6.69,27.74,15.73,42.92,20.07,125.92,35.96,47.68-1.83,113.53,18.21,31.43,9.57,57.46,35.74,89.47,43.57,8.09,1.98,16.72.9,24.81,2.88,9.48,2.32,24.12,13.59,32.24,16.82,9.77,3.89,12.6-1.81,21.37,6.5"/>
  <path class="cls-16" d="m264.94 352.87c11.15 4.75 22.56 8.92 33.46 14.24 55.45 27.05 107.78 58.67 164.89 82.09 9.61 3.94 61.67 24.23 43.63 9.62"/>
  <path class="cls-16" d="m372.9 298.9c68.96 37.56 142.12 80.52 211.47 119.8 17.87 10.12 37.91 15.82 56.01 26.07 9.12 5.17 36.56 26.28 44.36 16.64"/>
  <path class="cls-16" d="m398.04 267.85c136.31 29.09 265.71 83 388.37 147.36 76.42 35.57-36.83-18.98 34.2 21.26 13.81 7.82 28.54-3.24 1.48 14.05"/>
  <path class="cls-16" d="m1178.9 622.58c11.15 4.75 22.56 8.92 33.46 14.24 55.45 27.05 107.78 58.67 164.89 82.09 9.61 3.94 61.67 24.23 43.63 9.62"/>
  <path class="cls-16" d="m1286.9 568.61c68.96 37.56 142.12 80.52 211.47 119.8 17.87 10.12 37.91 15.82 56.01 26.07 9.12 5.17 36.56 26.28 44.36 16.64"/>
  <path class="cls-16" d="m1312 537.55c136.31 29.09 265.71 83 388.37 147.36 76.42 35.57-36.83-18.98 34.2 21.26 13.81 7.82 28.54-3.24 1.48 14.05"/>
  <path class="cls-46" d="m1168.68,798.77c.22-6.25,5.29-14.68,4.94-20.67-.25-4.27-3.26-6.99-4.24-10.87-2.15-8.48-2.19-18.15-5.15-26.16-13.01-35.17-33.86-65.92-54.51-96.21-23.34-29.77-4.58-3.76-16.88-24.75-.65-1.11-11.13-10.67-10.54-13.13"/>
  <path class="cls-46" d="m1052.4 1047c2.15-18.55 21.53-208.07 22.06-225.87 0.33-11.26-2.48-20.95-3.91-31.32-2.46-17.83-4.93-35.66-7.78-53.28-3.9-24.07-7.07-48.56-12.48-71.8-1.72-7.41-6.72-12.87-8.89-20.02-2.38-7.83-0.79-17.44-5.56-24.43"/>
  <path class="cls-46" d="m976.67,991.82c5.78-46.97,17.32-144.87,25.56-192.83,4.71-27.41,6.28-53.48,10.12-80.53.63-4.4,2.73-9.41,3.29-13.78,2.41-22.82,4.83-45.65,7.24-68.47.55-2.3,1.31-4.68,1.65-6.89,1.69-11,.49-21.13,3.21-32.51"/>
  <path class="cls-46" d="m949.31 686.53c-31.87 123.86-63.75 247.72-95.62 371.58l-29.23 122.31"/>
  <path class="cls-46" d="m765.87,824.67c-2.18,15.91-10.17,34.22-11.94,49.96-1.72,15.35-.27,29.24-1.48,44.35-5.04,63.14-14.09,128.52-23.46,193.58-8.93,61.99-3.66,11.6-8.97,56.63-.13,1.12-5.34,24.27-1.56,25.62"/>
  <path class="cls-46" d="m964.34,671.34c-3.91,16.35-8.83,34.01-9.43,48.99-.44,11.21,1.47,21.27,1.4,32.3-.39,61.93-4.13,125.38-11.31,190.45-4.81,43.54-12.64,88.44-15.35,131.03-.93,14.56,1.52,27.5,1.44,41.66-.22,42.13-3.96,45.41,7.04,75.46"/>
  <path class="cls-50" d="m1197.1 644.18c1.57 11.93 3.56 23.75 4.7 35.78 5.84 61.23 7.89 122.42 16.42 182.99 1.44 10.19 9.81 64.82 11.2 41.64"/>
  <path class="cls-50" d="m1268.93,703.7c5.03,78.34,8.62,163.19,12.82,242.81,1.08,20.51,5.51,40.36,6.61,61.14.55,10.47-.94,45.1,7.5,46.19"/>
  <path class="cls-50" d="m1296.14,707.21c35.55,129.57,54.39,267.3,64.74,405.27,9.01,83.42-3.3-41.24,1,40.32.84,15.86,12.73,21.91-7.4,9.09"/>
  <path class="cls-19" d="m777.99 191.12c-8.05 2.97-15.97 6.61-24.16 8.9-41.69 11.64-83.94 17.14-124.75 33.11-6.87 2.69-43.57 18.21-27.23 19.64"/>
  <path class="cls-19" d="m747.75,309.63c-53.72,10.94-112.19,19.77-166.93,29.41-14.1,2.49-27.22,10.36-41.51,12.88-7.2,1.27-31.52.08-30.96,13.81"/>
  <path class="cls-48" d="m749.53 353.85c-84.61 62.23-177.5 97.66-271.88 119.34-56.64 17.57 28.18-6.82-27.9 3.06-10.9 1.92-13.26 21.42-7.48-11.67"/>
  <path class="cls-63" d="m68.83 210.88 104.17 70.41"/>
  <path class="cls-63" d="m122.35 127.29 130.35 82.9"/>
  <path class="cls-63" d="m123.3 148.2 125.33 108.24"/>
  <path class="cls-63" d="m36.71 204.34 73.81 170.42"/>
  <path class="cls-63" d="m47.07 216.8 130.17 171.53"/>
  <path class="cls-63" d="m152.06 107.44 128.9 72.02"/>
  <path class="cls-69" d="m326.04 66.58 104.18 69.21"/>
  <path class="cls-69" d="m464.47 57.01 172.82 110.94"/>
  <path class="cls-69" d="m465.42 77.57 167.8 148.12"/>
  <path class="cls-69" d="m293.92 60.15 73.82 167.51"/>
  <path class="cls-69" d="m304.28 72.4 130.18 168.6"/>
  <path class="cls-69" d="m481.69 54.98 186.36 63.12"/>
  <path class="cls-62" d="m111.17 543.11 89.33 51.07"/>
  <path class="cls-62" d="m94.78 481.91 173.03 85.87"/>
  <path class="cls-64" d="m95.73 497.82 168 114.65"/>
  <path class="cls-62" d="m124.52 466.8 174.08 62.39"/>
  <path class="cls-9" d="m561.35,282.81c-8.58-.05-17.27.57-25.74-.16-43.12-3.76-84.61-13.46-128.43-12.85-7.38.1-47.19,1.73-32.39,8.82"/>
  <path class="cls-57" d="m491.38,383.13c-54.14-8.64-111.98-20.93-166.62-31.14-14.08-2.63-29.13.13-43.39-2.53-7.18-1.34-29.54-11.01-33.84,2.04"/>
  <path class="cls-11" d="m477.51 425.15c-101.09 28.52-200.5 29.04-296.48 16.16-59.2-3.45 28.78 3.52-27.19-6.94-10.88-2.03-19.94 15.39-2.9-13.55"/>
  <path class="cls-51" d="m748.25 204.57c46.8 34.42 88.87 80.21 138.22 108.58 8.59 4.94 18.66 14.84 28.3 13.29"/>
  <path class="cls-51" d="m741.4,164.05c55.51,1.79,110.7,21.88,166.09,26.81,10.47.93,20.96.87,31.42.89"/>
  <path class="cls-51" d="m931.34,270.26c-42.95-24.87-90.46-38.68-133.42-64.76-4.38-2.66-7.47-7.97-12.1-9.95-4.17-1.78-8.88.45-13.17-.85-2.38-.72-3.76-3.9-6.05-4.97-6.45-3.03-14.01-1.54-19.23-5.83"/>
  <path class="cls-4" d="m547.47,265.31c-4.33-2.04-4.87-6.79-9.65-8.51-3.4-1.22-8.71-.82-12.62-1.61-8.56-1.74-15.68-4.74-24.79-6-40.06-5.52-85.54-6.39-130.47-7.2-47.52.47-7.8.74-36.72-.66-1.52-.07-20.08,1.32-21.23.31"/>
  <path class="cls-6" d="m600.37 391.26c-11.17-6.68-128.2-73.84-140.63-79.6-7.86-3.65-18.04-5.49-27.2-8.13-15.75-4.53-31.49-9.05-47.52-13.35-21.89-5.87-43.27-26.18-66.22-31.16-7.31-1.59-16.82-1.2-24.44-2.52-8.35-1.45-13.61-5.1-23.99-5.29"/>
  <path class="cls-20" d="m476.46,405.71c-27.92-17.05-86.69-52.38-112.63-70.77-14.83-10.51-32.14-19.29-47.65-29.33-2.52-1.63-3.86-4.07-6.43-5.67-14.01-8.12-28.01-16.24-42.02-24.36-1.07-.95-1.97-2-3.22-2.84-6.17-4.13-14.89-6.79-20.21-11.47"/>
  <path class="cls-33" d="m193.29 349.47c55.28 51.92 140.52 76.36 195.8 128.28l57.07 50.33"/>
  <path class="cls-33" d="m121.59,441.72c9.21,5.87,13.77,14.92,23.31,20.56,9.31,5.5,21.05,9.23,30.76,14.44,40.56,21.78,78.32,45.94,115.5,70.13,35.42,23.05,4.43,5.14,31.46,21.4.67.4,11.83,9.79,16.99,8.64"/>
  <path class="cls-33" d="m211.27 298.51c7.63 6.73 32.57 26.77 42.86 31.69 7.7 3.68 17.16 6.01 25.14 9.48 44.81 19.46 87.02 40.8 126.62 64.07 26.5 15.58 50.64 32.84 78.76 47.24 9.61 4.93 21.76 7.94 32.02 12.38 30.53 13.22 28.8 15.81 62.9 20.57"/>
  <path class="cls-29" d="m1499.37,423.82c-5.31.76-10.38,1.73-15.94,2.28-28.29,2.82-58.31,3.78-85.03,7.91-4.5.7-28.28,4.76-15.92,5.46"/>
  <path class="cls-10" d="m1502.25,458.98c-37.32,2.41-78.6,4.1-116.95,6.11-9.88.52-17.89,2.67-27.9,3.19-5.04.26-23.25-.49-19.92,3.65"/>
  <path class="cls-10" d="m1512.97,472.31c-49.22,17.33-110.24,26.47-175.29,31.44-38.06,4.36,19.35-1.59-19.94.46-7.64.4-5.23,6.23-8-3.63"/>
  <path class="cls-10" d="m1733.49,496.86c-5.31.76-42.22.48-47.78,1.03-28.29,2.82-70.79-3.09-97.52,1.05-4.5.7-28.28,4.76-15.92,5.46"/>
  <path class="cls-10" d="m1723.26,524.53c-37.32,2.41-109.82,3.48-148.17,5.48-9.88.52-17.89,2.67-27.9,3.19-5.04.26-23.25-.49-19.92,3.65"/>
  <path class="cls-10" d="m1702.76,537.24c-49.22,17.33-110.24,26.47-175.29,31.44-38.06,4.36,19.35-1.59-19.94.46-7.64.4-5.23,6.23-8-3.63"/>
  <path class="cls-10" d="m1791.55,556.17c-5.31.76-10.38,1.73-15.94,2.28-28.29,2.82-58.31,3.78-85.03,7.91-4.5.7-28.28,4.76-15.92,5.46"/>
  <path class="cls-10" d="m1794.43,591.33c-37.32,2.41-78.6,4.1-116.95,6.11-9.88.52-17.89,2.67-27.9,3.19-5.04.26-23.25-.49-19.92,3.65"/>
  <path class="cls-22" d="m1805.15,604.67c-49.22,17.33-110.24,26.47-175.29,31.44-38.06,4.36,19.35-1.59-19.94.46-7.64.4-5.23,6.23-8-3.63"/>
  <path class="cls-10" d="m1282.11,331.42c65.89,6.82-9.49,1.8-15.94,2.28-28.36,2.1-58.31,3.78-85.03,7.91-4.5.7-28.28,4.76-15.92,5.46"/>
  <path class="cls-10" d="m1382.38,357.84c-37.32,2.41-175.99,12.85-214.34,14.85-9.88.52-17.89,2.67-27.9,3.19-5.04.26-23.25-.49-19.92,3.65"/>
  <path class="cls-10" d="m1295.71,379.91c-49.22,17.33-110.24,26.47-175.29,31.44-38.06,4.36,19.35-1.59-19.94.46-7.64.4-5.23,6.23-8-3.63"/>
  <path class="cls-10" d="m1119.79,239.02c-5.31.76-10.38,1.73-15.94,2.28-28.29,2.82-58.31,3.78-85.03,7.91-4.5.7-28.28,4.76-15.92,5.46"/>
  <path class="cls-65" d="m1188.85,253.58c-37.32,2.41-144.78,24.71-183.13,26.71-9.88.52-17.89,2.67-27.9,3.19-5.04.26-160.84,30.72-157.51,34.86"/>
  <path class="cls-10" d="m1133.39,287.51c-49.22,17.33-110.24,26.47-175.29,31.44-38.06,4.36,19.35-1.59-19.94.46-7.64.4-5.23,6.23-8-3.63"/>
  <path class="cls-44" d="m1022.86,207.67c-37.32,2.41-144.78,24.71-183.13,26.71-9.88.52-17.89,2.67-27.9,3.19-5.04.26-23.25-.49-19.92,3.65"/>
  <path class="cls-35" d="m1954.43,622.66c-5.31-.77-10.45-1.27-15.94-2.3-27.94-5.27-57.01-12.81-83.82-16.37-4.51-.6-28.48-3.4-16.81.76"/>
  <path class="cls-10" d="m1947.3 657.21c-36.49-8.2-76.57-18.21-113.93-27.09-9.63-2.29-17.92-2.48-27.67-4.8-4.91-1.17-22.17-7.02-20.14-2.12"/>
  <path class="cls-10" d="m1953.8 673.02c-52.11 2.76-113.23-5.67-177.04-19.22-37.75-6.54 19.01 3.93-19.26-5.17-7.44-1.77-6.78 4.5-6.65-5.74"/>
  <path class="cls-10" d="m2136.73,765.01c-5.31-.77-10.45-1.27-15.94-2.3-27.94-5.27-57.01-12.81-83.82-16.37-4.51-.6-28.48-3.4-16.81.76"/>
  <path class="cls-10" d="m2129.6 799.55c-36.49-8.2-76.57-18.21-113.93-27.09-9.63-2.29-17.92-2.48-27.67-4.8-4.91-1.17-22.17-7.02-20.14-2.12"/>
  <path class="cls-10" d="m2136.1 815.37c-52.11 2.76-113.23-5.67-177.04-19.22-37.75-6.54 19.01 3.93-19.26-5.17-7.44-1.77-6.78 4.5-6.65-5.74"/>
  <path class="cls-10" d="m367.44 891.35c-3.57 4.01-6.82 8.01-10.71 12.02-19.81 20.4-42.13 40.49-59.89 60.88-2.99 3.43-18.55 21.88-8.64 14.44"/>
  <path class="cls-10" d="m392.31 916.36c-26.97 25.91-57.43 53.82-85.45 80.09-7.22 6.77-11.95 13.58-19.26 20.43-3.68 3.45-18.09 14.61-12.87 15.63"/>
  <path class="cls-3" d="m409.1 919.64c-26.44 44.99-67.18 91.32-113.69 137.07"/>
  <path class="cls-10" d="m392.2 712.17c-4.18 3.37-8.04 6.79-12.53 10.11-22.87 16.89-48.17 33.07-69.02 50.29-3.51 2.9-21.87 18.56-10.89 12.84"/>
  <path class="cls-10" d="m412.66 740.91c-30.84 21.16-65.44 43.73-97.37 65.07-8.23 5.5-14.01 11.44-22.34 17.01-4.2 2.81-20.23 11.47-15.25 13.32"/>
  <path class="cls-23" d="m428.69,746.89c-33.43,40.07-81.19,79.13-134.54,116.67-30.48,23.21,15.81-11.26-16.9,10.6-6.36,4.25-1.31,8.03-8.73.97"/>
  <path class="cls-10" d="m282.32 1196.6c-4.18 3.37-8.04 6.79-12.53 10.11-22.87 16.89-48.17 33.07-69.02 50.29-3.51 2.9-21.87 18.56-10.89 12.84"/>
  <path class="cls-52" d="m302.78 1225.4c-30.84 21.16-65.44 43.73-97.37 65.07-8.23 5.5-14.01 11.44-22.34 17.01-4.2 2.81-20.23 11.47-15.25 13.32"/>
  <path class="cls-10" d="m318.81 1231.4c-33.43 40.07-81.19 79.13-134.54 116.67"/>
  <path class="cls-49" d="m219.89 1413.9c-4.18 3.37-8.04 6.79-12.53 10.11-22.87 16.89-48.17 33.07-69.02 50.29-3.51 2.9-21.87 18.56-10.89 12.84"/>
  <path class="cls-56" d="m240.34 1442.6c-30.84 21.16-65.44 43.73-97.37 65.07-8.23 5.5-14.01 11.44-22.34 17.01-4.2 2.81-20.23 11.47-15.25 13.32"/>
  <path class="cls-10" d="m256.38,1448.62c-33.43,40.07-81.19,79.13-134.54,116.67-30.48,23.21,15.81-11.26-16.9,10.6-6.36,4.25-1.31,8.03-8.73.97"/>
  <path class="cls-10" d="m279.82 1466.3c-4.18 3.37-8.04 6.79-12.53 10.11-22.87 16.89-48.17 33.07-69.02 50.29-3.51 2.9-21.87 18.56-10.89 12.84"/>
  <path class="cls-10" d="m300.28 1495.1c-30.84 21.16-65.44 43.73-97.37 65.07-8.23 5.5-14.01 11.44-22.34 17.01-4.2 2.81-20.23 11.47-15.25 13.32"/>
  <path class="cls-10" d="m316.31,1501.06c-33.43,40.07-81.19,79.13-134.54,116.67-30.48,23.21,15.81-11.26-16.9,10.6-6.36,4.25-1.31,8.03-8.73.97"/>
  <path class="cls-10" d="m304.79 1239.1c-4.18 3.37-8.04 6.79-12.53 10.11-22.87 16.89-48.17 33.07-69.02 50.29-3.51 2.9-21.87 18.56-10.89 12.84"/>
  <path class="cls-10" d="m325.25 1267.8c-30.84 21.16-65.44 43.73-97.37 65.07-8.23 5.5-14.01 11.44-22.34 17.01-4.2 2.81-20.23 11.47-15.25 13.32"/>
  <path class="cls-10" d="m341.28,1273.81c-33.43,40.07-81.19,79.13-134.54,116.67-30.48,23.21,15.81-11.26-16.9,10.6-6.36,4.25-1.31,8.03-8.73.97"/>
  <path class="cls-10" d="m506.07 919.74c-7.79 5.92-14.99 11.93-23.37 17.75-42.65 29.66-89.83 58.06-128.71 88.3-6.54 5.09-40.78 32.58-20.3 22.54"/>
  <path class="cls-10" d="m544.22 970.2c-57.51 37.15-122.04 76.78-181.58 114.24-15.34 9.65-26.12 20.09-41.66 29.87-7.83 4.93-37.72 20.13-28.44 23.39"/>
  <path class="cls-10" d="m574.12 980.69c-62.34 70.35-151.4 138.93-250.9 204.84-56.84 40.76 29.48-19.77-31.51 18.6-11.86 7.46-2.45 14.09-16.28 1.7"/>
  <path class="cls-10" d="m427.37 746.51c-3.57 4.01-6.82 8.01-10.71 12.02-19.81 20.4-42.13 40.49-59.89 60.88-2.99 3.43-18.55 21.88-8.64 14.44"/>
  <path class="cls-10" d="m452.25 771.52c-26.97 25.91-57.43 53.82-85.45 80.09-7.22 6.77-11.95 13.58-19.26 20.43-3.68 3.45-18.09 14.61-12.87 15.63"/>
  <path class="cls-10" d="m469.04,774.8c-26.44,44.99-67.18,91.32-113.69,137.07-26.28,27.88,13.76-13.69-14.94,13.21-5.58,5.23.02,8.13-8.46,2.38"/>
  <path class="cls-10" d="m389.91 529.24c-3.57 4.01-6.82 8.01-10.71 12.02-19.81 20.4-42.13 40.49-59.89 60.88-2.99 3.43-18.55 21.88-8.64 14.44"/>
  <path class="cls-10" d="m414.79 554.26c-26.97 25.91-57.43 53.82-85.45 80.09-7.22 6.77-11.95 13.58-19.26 20.43-3.68 3.45-18.09 14.61-12.87 15.63"/>
  <path class="cls-10" d="m431.58,557.54c-26.44,44.99-67.18,91.32-113.69,137.07-26.28,27.88,13.76-13.69-14.94,13.21-5.58,5.23.02,8.13-8.46,2.38"/>
  <path class="cls-19" d="m680.47,152.35c-5.86-1.11-11.82-1.86-17.57-3.32-29.26-7.39-57.1-17.71-87.05-22.89-5.04-.87-32.3-5-22.56.59"/>
  <path class="cls-19" d="m627.72 196.5c-36.54-11.35-75.42-25.09-112.22-37.33-9.48-3.15-19.9-3.58-29.5-6.78-4.84-1.61-19.62-9.51-23.21-3.17"/>
  <path class="cls-19" d="m616.17 216.93c-70.44 2.37-138.34-9.83-203.23-28.66-40.25-9.25 19.47 5.47-18.22-7.07-7.33-2.44-14.38 5.62-1.31-7.51"/>
  <path class="cls-32" d="m769.06,323.92c-6.24-1.12-12.6-1.93-18.72-3.37-31.19-7.35-60.89-17.4-92.8-22.7-5.37-.89-34.42-5.18-24.01.18"/>
  <path class="cls-28" d="m713.12 364.1c-38.96-11.14-80.43-24.55-119.67-36.53-10.11-3.09-21.2-3.66-31.44-6.78-5.16-1.58-20.94-9.16-24.73-3.32"/>
  <path class="cls-50" d="m700.92 382.9c-74.98 1.05-147.34-11.39-216.53-29.96-42.9-9.25 20.76 5.4-19.44-6.87-7.82-2.39-15.28 4.99-1.43-7.01"/>
  <path class="cls-100" d="m326.19 60.1 120.65 166.18"/>
  <path class="cls-72" d="m319.59 79.59 102.46 198.99"/>
  <path class="cls-67" d="m360.95 52.72 132.66 138.31"/>
  <path class="cls-70" d="m109.86 99.47 172.82 110.94"/>
  <path class="cls-70" d="m110.81 120.02 167.8 148.12"/>
  <path class="cls-99" d="m139.57 79.95 173.87 80.6"/>
  <path class="cls-68" d="m679.24 249.3 172.82 110.94"/>
  <path class="cls-70" d="m680.18 269.86 167.8 148.12"/>
  <path class="cls-70" d="m708.94 229.79 173.87 80.6"/>
  <path class="cls-70" d="m742.21 454.64 231.32 193.85"/>
  <path class="cls-70" d="m743.47 490.55 224.6 258.81"/>
  <path class="cls-70" d="m781.97 420.54 232.73 140.84"/>
  <path class="cls-70" d="m1086.9 655.32 209.01 162.09"/>
  <path class="cls-70" d="m1022.4 640.27 148.1 392.31"/>
  <path class="cls-70" d="m1043.2 668.97 261.17 394.87"/>
  <path class="cls-70" d="m716.27 734.35-160.46 204.06"/>
  <path class="cls-70" d="m686.55 735.47-214.23 198.13"/>
  <path class="cls-70" d="m744.5 769.42-116.58 205.3"/>
  <path class="cls-70" d="m1084.1 374.86 265.72 126.65"/>
  <path class="cls-70" d="m1085.5 398.33 258 169.09"/>
  <path class="cls-70" d="m1129.8 352.59 267.34 92.02"/>
  <path class="cls-96" d="m1151.5 594.62 265.72 126.65"/>
  <path class="cls-70" d="m1153 618.09 258 169.09"/>
  <path class="cls-103" d="m1197.2 572.35 267.34 92.02"/>
  <path class="cls-70" d="m809.21 582.51-14.69 293.99"/>
  <path class="cls-70" d="m788.11 592.88-56.84 303.19"/>
  <path class="cls-70" d="m847.34 616.1 17.89 282.16"/>
  <path class="cls-70" d="m747.22 518.06-170.03 240.29"/>
  <path class="cls-70" d="m723.85 515.5-210.54 225.45"/>
  <path class="cls-70" d="m761.4 566.86-136.18 247.77"/>
  <path class="cls-70" d="m609.43 412.7-14.69 293.99"/>
  <path class="cls-70" d="m588.33 423.07-56.84 303.19"/>
  <path class="cls-70" d="m647.56 446.29 17.89 282.16"/>
  <path class="cls-70" d="m590.43 507.65-231.64 178.13"/>
  <path class="cls-70" d="m556.79 486.44-290.46 128.04"/>
  <path class="cls-70" d="m613.21 581.16-182.73 213.7"/>
  <path class="cls-70" d="m643.99 85.38 128.73 76.11"/>
  <path class="cls-70" d="m644.7 99.48 124.99 101.62"/>
  <path class="cls-70" d="m666.12 71.99 129.52 55.3"/>
  <path class="cls-70" d="m1315.4 814.5 205.44 155.44"/>
  <path class="cls-70" d="m1252.1 800.07 145.56 376.21"/>
  <path class="cls-70" d="m1272.5 827.59 256.7 378.67"/>
  <path class="cls-70" d="m1969.6 823.11 166.84 104.5"/>
  <path class="cls-70" d="m1906 812.47 145.92 277.1"/>
  <path class="cls-70" d="m1926.5 832.75 209.87 218.98"/>
  <path class="cls-75" d="m1944.4 1026.5 176.95 166.95"/>
  <path class="cls-70" d="m1874.5 1007.5 160.7 493.59"/>
  <path class="cls-74" d="m1897.1 1043.6 232.66 374.83"/>
  <path class="cls-101" d="m1589.8 849.15 226.8 203.94"/>
  <path class="cls-70" d="m1519.9 830.22 160.7 493.59"/>
  <path class="cls-70" d="m1542.5 866.33 283.4 496.81"/>
  <path class="cls-70" d="m1616.6 1312.4 114.91 282.53"/>
  <path class="cls-70" d="m1562 1264.8-53.61 371.86"/>
  <path class="cls-70" d="m1566.5 1307.1 20.39 319.18"/>
  <path class="cls-70" d="m1434 1214.4-51.97 300.55"/>
  <path class="cls-70" d="m1412.8 1145.1-332.38 398.72"/>
  <path class="cls-70" d="m1394.3 1183.4-252.34 453.6"/>
  <path class="cls-70" d="m1643.6 695.79 259.18 147.07"/>
  <path class="cls-70" d="m1645 723.04 251.65 196.36"/>
  <path class="cls-70" d="m1688.1 669.92 260.76 106.85"/>
  <path class="cls-102" d="m127.34 239.31 172.82 110.94"/>
  <path class="cls-70" d="m128.29 259.87 167.8 148.12"/>
  <path class="cls-70" d="m157.05 219.8 173.87 80.6"/>
  <path class="cls-70" d="m914.96 850.02-96.69 136.73"/>
  <path class="cls-70" d="m923.94 807.86-234.01 96.88"/>
  <path class="cls-70" d="m906.82 821.46-235.54 170.85"/>
  <path class="cls-70" d="m1037.2 1015.8-43.26 233.06"/>
  <path class="cls-70" d="m1029 955.05-201.78 253.3"/>
  <path class="cls-70" d="m1017 982.22-172.67 352.34"/>
  <path class="cls-70" d="m650.31 969.26-220.32 188.92"/>
  <path class="cls-70" d="m609.49 970.29-294.16 183.43"/>
  <path class="cls-70" d="m689.06 1001.7-160.07 190.07"/>
  <path class="cls-70" d="m209.62 195.06 231.18 24.73"/>
  <path class="cls-70" d="m221.07 216.09 245.09 66.33"/>
  <path class="cls-70" d="m229.66 158.89 216.76-7.61"/>
  <path class="cls-78" d="m108.82 241.44 124.44 12.52"/>
  <path class="cls-73" d="m77.41 250.77 143.53 113.61"/>
  <path class="cls-73" d="m92.3 256.76 193.87 88.24"/>
  <path class="cls-71" d="m190.85 433.02 124.27-14.18"/>
  <path class="cls-71" d="m162.14 448.8 164.37 80.56"/>
  <path class="cls-71" d="m177.96 451.5 208.18 45.09"/>
  <path class="cls-70" d="m208.67 46.6 104.18 69.21"/>
  <path class="cls-70" d="m176.55 55.16 73.82 152.52"/>
  <path class="cls-97" d="m193.15 61.17 130.18 168.6"/>
  <path class="cls-70" d="m503.35 356.26 104.18 69.21"/>
  <path class="cls-70" d="m471.23 349.83 73.82 167.51"/>
  <path class="cls-70" d="m481.58 362.09 130.18 168.6"/>
  <path class="cls-70" d="m795.53 129.01 104.18 69.21"/>
  <path class="cls-70" d="m763.41 122.58 73.82 167.51"/>
  <path class="cls-70" d="m773.76 134.84 130.18 168.6"/>
  <path class="cls-32" d="m568.47 238.87c-6.47-2.95-13.14-5.78-19.42-8.84-31.95-15.61-61.7-32.03-94.9-46.88-5.59-2.5-35.93-15.74-25.91-9.05"/>
  <path class="cls-28" d="m499.16 238c-39.47-20.5-81.15-43.11-120.74-64.15-10.2-5.42-22.02-9.93-32.36-15.42-5.21-2.77-20.5-12.63-25.9-11.11"/>
  <path class="cls-50" d="m481.78,242.91c-81.04-28.02-156.21-61.91-226.59-97.7-44.15-21.04,21.16,10.65-19.4-10.9-7.89-4.19-17.59-3.28.04-4.11"/>
  <path class="cls-32" d="m427.37 462.37c-6.47-2.95-13.14-5.78-19.42-8.84-31.95-15.61-61.7-32.03-94.9-46.88-5.59-2.5-35.93-15.74-25.91-9.05"/>
  <path class="cls-28" d="m358.06 461.5c-39.47-20.5-81.15-43.11-120.74-64.15-10.2-5.42-22.02-9.93-32.36-15.42-5.21-2.77-20.5-12.63-25.9-11.11"/>
  <path class="cls-50" d="m340.69,466.42c-81.04-28.02-156.21-61.91-226.59-97.7-44.15-21.04,21.16,10.65-19.4-10.9-7.89-4.19-17.59-3.28.04-4.11"/>
  <path class="cls-92" d="m326.04 66.58 104.18 69.21"/>
  <path class="cls-69" d="m464.47 57.01 172.82 110.94"/>
  <path class="cls-94" d="m465.42 77.57 167.8 148.12"/>
  <path class="cls-69" d="m293.92 60.15 73.82 167.51"/>
  <path class="cls-69" d="m304.28 72.4 130.18 168.6"/>
  <path class="cls-61" d="m481.69 54.98 186.36 63.12"/>
  <path class="cls-32" d="m476.07 664.65c-6.47-2.95-13.14-5.78-19.42-8.84-31.95-15.61-61.7-32.03-94.9-46.88-5.59-2.5-35.93-15.74-25.91-9.05"/>
  <path class="cls-28" d="m406.76 663.78c-39.47-20.5-81.15-43.11-120.74-64.15-10.2-5.42-22.02-9.93-32.36-15.42-5.21-2.77-20.5-12.63-25.9-11.11"/>
  <path class="cls-50" d="m389.38,668.7c-81.04-28.02-156.21-61.91-226.59-97.7-44.15-21.04,21.16,10.65-19.4-10.9-7.89-4.19-17.59-3.28.04-4.11"/>
  <path class="cls-32" d="m812.26 291.86c-5.14-3.36-10.62-6.59-15.43-10.09-24.49-17.82-45.68-36.56-72.29-53.51-4.48-2.85-29.07-17.97-22.92-10.33"/>
  <path class="cls-28" d="m731.17 290.86c-29.22-23.4-59.25-49.21-88.16-73.22-7.45-6.19-17.58-11.34-25.13-17.6-3.8-3.16-13.5-14.42-21.16-12.68"/>
  <path class="cls-50" d="m706.5 296.47c-71.91-31.98-131.94-70.66-184.69-111.5-34.28-24.02 15.95 12.16-13.67-12.44-5.76-4.78-17.98-3.75 3.52-4.69"/>
  <path class="cls-32" d="m783.54 341.8c-5.14-3.36-10.62-6.59-15.43-10.09-24.49-17.82-45.68-36.56-72.29-53.51-4.48-2.85-29.07-17.97-22.92-10.33"/>
  <path class="cls-28" d="m702.46 340.81c-29.22-23.4-59.25-49.21-88.16-73.22-7.45-6.19-17.58-11.34-25.13-17.6-3.8-3.16-13.5-14.42-21.16-12.68"/>
  <path class="cls-50" d="m677.78 346.42c-71.91-31.98-131.94-70.66-184.69-111.5-34.28-24.02 15.95 12.16-13.67-12.44-5.76-4.78-17.98-3.75 3.52-4.69"/>
  <path class="cls-104" d="m581.26 28.94 104.18 69.21"/>
  <path class="cls-70" d="m549.14 37.5 73.82 152.52"/>
  <path class="cls-70" d="m565.74 43.51 130.18 168.6"/>
  <path class="cls-102" d="m393.66 48.11 69.5 69.4"/>
  <path class="cls-70" d="m372.23 56.69 49.24 152.94"/>
  <path class="cls-70" d="m383.31 62.72 86.84 169.06"/>
  <path class="cls-99" d="m690.66 343.83-14.69 293.99"/>
  <path class="cls-98" d="m669.56 354.2-56.84 303.19"/>
  <path class="cls-70" d="m728.79 377.42 17.89 282.16"/>
  <path class="cls-70" d="m888.9 1400.8-43.26 233.06"/>
  <path class="cls-70" d="m880.7 1340-201.78 253.3"/>
  <path class="cls-70" d="m868.63 1367.2-124.99 256.99"/>
  <path class="cls-70" d="m560.68 1275.1-84.42 221.5"/>
  <path class="cls-70" d="m563.52 1213.8-244 212.93"/>
  <path class="cls-70" d="m546.78 1238.4-233.16 315.59"/>
  <path class="cls-70" d="m692.06 1348.8-108.66 237.95"/>
  <path class="cls-70" d="m701.75 1280.4-266.14 208.1"/>
  <path class="cls-70" d="m682.37 1305.9-266.89 324.71"/>
  <path class="cls-70" d="m1189.3 1377.8-43.35 186.67"/>
  <path class="cls-70" d="m1181.1 1329.2-202.2 202.88"/>
  <path class="cls-70" d="m1169 1350.9-173.04 282.2"/>
  <path class="cls-70" d="m1512.5 1406.1-43.35 186.67"/>
  <path class="cls-70" d="m1504.2 1357.4-202.2 202.88"/>
  <path class="cls-70" d="m1492.2 1379.2-153.61 255.71"/>
 </g>
</svg>
