<?xml version="1.0" encoding="UTF-8"?>
<!-- Created with Inkscape (http://www.inkscape.org/) -->
<svg width="724.29" height="704.99" version="1.1" viewBox="0 0 724.29 704.99" xmlns="http://www.w3.org/2000/svg">
 <defs>
  <filter id="filter1619" x="-.044691" y="-.15753" width="1.0894" height="1.3151" color-interpolation-filters="sRGB">
   <feGaussianBlur stdDeviation="5.7932178"/>
  </filter>
  <filter id="filter1620" x="-.043267" y="-.1418" width="1.0865" height="1.2836" color-interpolation-filters="sRGB">
   <feGaussianBlur stdDeviation="5.7932178"/>
  </filter>
  <filter id="filter1621" x="-.098446" y="-.21681" width="1.1969" height="1.4336" color-interpolation-filters="sRGB">
   <feGaussianBlur stdDeviation="5.7932178"/>
  </filter>
  <filter id="filter1622" x="-.074907" y="-.20843" width="1.1498" height="1.4169" color-interpolation-filters="sRGB">
   <feGaussianBlur stdDeviation="5.7932178"/>
  </filter>
  <filter id="filter1623" x="-.1306" y="-.41718" width="1.2612" height="1.8344" color-interpolation-filters="sRGB">
   <feGaussianBlur stdDeviation="5.7932178"/>
  </filter>
  <filter id="filter1624" x="-.20898" y="-.46181" width="1.418" height="1.9236" color-interpolation-filters="sRGB">
   <feGaussianBlur stdDeviation="5.7932178"/>
  </filter>
  <filter id="filter1625" x="-.093325" y="-.32175" width="1.1867" height="1.6435" color-interpolation-filters="sRGB">
   <feGaussianBlur stdDeviation="5.7932178"/>
  </filter>
  <filter id="filter1626" x="-.10715" y="-.31783" width="1.2143" height="1.6357" color-interpolation-filters="sRGB">
   <feGaussianBlur stdDeviation="5.7932178"/>
  </filter>
  <filter id="filter1627" x="-.1296" y="-.30079" width="1.2592" height="1.6016" color-interpolation-filters="sRGB">
   <feGaussianBlur stdDeviation="5.7932178"/>
  </filter>
  <filter id="filter1628" x="-.18987" y="-.3724" width="1.3797" height="1.7448" color-interpolation-filters="sRGB">
   <feGaussianBlur stdDeviation="5.7932178"/>
  </filter>
 </defs>
 <g transform="translate(-601.09 -311.35)">
  <g>
   <path d="m611.26 855.78 9.5652 19.964 432.03 130.48 262.46-567.62-3.7459-19.619-262.71 567.38z" fill="#a09f99"/>
   <g stroke-linejoin="round" stroke-width="4">
    <path d="m603.09 852.76 294.68-539.41 415.79 103.64-264.71 569.38z" fill="#41250a" stroke="#846421"/>
    <path d="m1194.8 387.4 55.896 164.75 62.836-135.16z" fill="#381209" stroke="#866622"/>
    <path d="m924.27 949.03 187.84-98.728-63.259 136.07z" fill="#381209" stroke="#866622"/>
    <path d="m620.82 875.74-9.5652-19.964-8.1698-3.0193 12.74 27.978 440.77 133.6 266.78-581.76-8.29-2.428 1.3243 4.4703-263.56 571.61z" fill="#41250a" stroke="#71571d"/>
    <path d="m634.11 861.59 295.39-540.44-31.733-7.789-294.68 539.41z" fill="#2b0d06" stroke="#856421"/>
    <path d="m1003.9 339.4-74.397-18.261-295.39 540.44 85.746 26.172z" fill="#381209" stroke="#856421"/>
   </g>
  </g>
  <path transform="matrix(.8914 .22225 -.55835 .98262 346.59 13.793)" d="m865.12 256.64q1.248 0 2.592 0.048t2.592 0.048q1.344 0 2.688 0 1.344-0.048 2.688-0.096l-5.328-12.192zm21.264 14.928q-0.672-0.096-1.296-0.096-0.576 0-1.248 0t-1.296 0q-0.576 0-1.248 0.096-0.336-1.104-0.912-2.64-0.576-1.584-1.296-3.264-0.672-1.728-1.392-3.456-0.72-1.776-1.344-3.36-1.536-0.048-3.12-0.048-1.584-0.048-3.168-0.048-1.488 0-2.928 0.048-1.44 0-2.928 0.048-1.536 3.744-2.784 7.152-1.248 3.36-1.872 5.568-0.816-0.096-1.776-0.096t-1.776 0.096q3.888-8.4 7.584-16.704t7.44-16.896h0.912q1.152 2.784 2.496 6.048 1.344 3.216 2.736 6.528t2.784 6.576 2.592 6.096q1.248 2.784 2.208 4.992 1.008 2.208 1.632 3.36zm28.896-1.968q-0.432 0.384-1.392 0.864-0.912 0.432-2.256 0.816-1.296 0.336-2.928 0.624t-3.408 0.288q-3.792 0-7.008-1.056-3.216-1.104-5.568-3.312-2.304-2.208-3.648-5.376-1.296-3.216-1.296-7.296t1.296-7.248q1.344-3.216 3.696-5.424 2.4-2.208 5.712-3.36t7.296-1.152q3.168 0 5.76 0.672 2.64 0.624 4.656 1.536-0.384 0.672-0.624 1.824t-0.384 1.92l-0.288 0.096q-0.48-0.576-1.344-1.296t-2.016-1.392-2.592-1.104q-1.44-0.48-3.168-0.48-2.832 0-5.28 0.912-2.4 0.912-4.224 2.832-1.776 1.872-2.784 4.8-1.008 2.88-1.008 6.864t1.008 6.912q1.008 2.88 2.784 4.8 1.824 1.872 4.224 2.784 2.448 0.912 5.28 0.912 1.728 0 3.168-0.432 1.488-0.432 2.688-1.008 1.248-0.624 2.208-1.296 1.008-0.72 1.68-1.248l0.192 0.192zm32.016 0q-0.432 0.384-1.392 0.864-0.912 0.432-2.256 0.816-1.296 0.336-2.928 0.624t-3.408 0.288q-3.792 0-7.008-1.056-3.216-1.104-5.568-3.312-2.304-2.208-3.648-5.376-1.296-3.216-1.296-7.296t1.296-7.248q1.344-3.216 3.696-5.424 2.4-2.208 5.712-3.36t7.296-1.152q3.168 0 5.76 0.672 2.64 0.624 4.656 1.536-0.384 0.672-0.624 1.824t-0.384 1.92l-0.288 0.096q-0.48-0.576-1.344-1.296t-2.016-1.392-2.592-1.104q-1.44-0.48-3.168-0.48-2.832 0-5.28 0.912-2.4 0.912-4.224 2.832-1.776 1.872-2.784 4.8-1.008 2.88-1.008 6.864t1.008 6.912q1.008 2.88 2.784 4.8 1.824 1.872 4.224 2.784 2.448 0.912 5.28 0.912 1.728 0 3.168-0.432 1.488-0.432 2.688-1.008 1.248-0.624 2.208-1.296 1.008-0.72 1.68-1.248l0.192 0.192zm4.512-14.448q0-4.08 1.296-7.248 1.344-3.216 3.696-5.424 2.4-2.208 5.712-3.36t7.248-1.152q3.984 0 7.296 1.152t5.664 3.36q2.4 2.208 3.696 5.424 1.344 3.168 1.344 7.248t-1.344 7.296q-1.296 3.168-3.696 5.376-2.352 2.208-5.664 3.312-3.312 1.056-7.296 1.056-3.936 0-7.248-1.056-3.312-1.104-5.712-3.312-2.352-2.208-3.696-5.376-1.296-3.216-1.296-7.296zm31.248 0q0-3.984-1.008-6.864-1.008-2.928-2.832-4.8-1.776-1.92-4.224-2.832-2.4-0.912-5.232-0.912-2.784 0-5.232 0.912-2.4 0.912-4.224 2.832-1.776 1.872-2.784 4.8-1.008 2.88-1.008 6.864t1.008 6.912q1.008 2.88 2.784 4.8 1.824 1.872 4.224 2.784 2.448 0.912 5.232 0.912 2.832 0 5.232-0.912 2.448-0.912 4.224-2.784 1.824-1.92 2.832-4.8 1.008-2.928 1.008-6.912zm36.432-0.96q0-6.816-0.048-10.512t-0.24-5.088q0.528 0.096 1.008 0.192 0.48 0.048 0.96 0.048 0.624 0 1.44-0.24-0.144 1.68-0.288 4.032-0.144 2.304-0.24 4.992-0.096 2.64-0.192 5.472-0.096 2.784-0.144 5.424-0.048 3.216-1.008 5.76-0.912 2.544-2.64 4.32t-4.272 2.688q-2.496 0.912-5.76 0.912-7.2 0-10.464-3.264-3.264-3.264-3.264-10.32 0-2.256 0.096-3.984 0.144-1.776 0.144-3.6 0-4.032-0.096-7.152t-0.192-5.28q0.576 0.096 1.248 0.192 0.672 0.048 1.248 0.048 0.528 0 1.008-0.048 0.528-0.096 1.056-0.192-0.096 1.056-0.192 2.784-0.096 1.68-0.192 3.84t-0.144 4.656-0.048 5.184q0 1.632 0.048 3.408 0.048 1.728 0.336 3.408 0.288 1.632 0.912 3.168 0.67199 1.488 1.872 2.64 1.2 1.104 3.024 1.776 1.824 0.624 4.512 0.624 2.64 0 4.416-0.768 1.824-0.768 2.976-2.016t1.776-2.88q0.672-1.632 0.96-3.408t0.336-3.552 0.048-3.264zm39.36 18q-5.52-6.384-11.76-13.056-6.24-6.72-12.48-13.344-0.048 1.344-0.096 3.6t-0.048 6.144q0 1.008 0 2.496 0.048 1.488 0.048 3.12 0.048 1.632 0.096 3.312t0.096 3.12 0.096 2.544q0.048 1.056 0.096 1.44-0.768-0.096-1.68-0.096-0.96 0-1.776 0.096 0.096-0.48 0.192-1.776 0.144-1.296 0.24-3.072 0.096-1.824 0.192-3.936 0.144-2.112 0.192-4.224 0.096-2.112 0.144-4.128t0.048-3.6q0-4.608-0.048-7.92 0-3.312-0.096-4.944h0.768q2.928 3.168 6.24 6.816 3.36 3.6 6.624 7.152 3.312 3.504 6.24 6.672 2.976 3.12 5.184 5.328v-6.528q0-5.04-0.096-9.792-0.048-4.8-0.288-9.024 0.96 0.24 1.632 0.24 0.576 0 1.536-0.24-0.096 1.056-0.24 3.168-0.096 2.112-0.24 4.512-0.096 2.4-0.192 4.704t-0.096 3.696q0 1.2 0 2.88 0 1.632 0 3.408 0.048 1.776 0.048 3.6 0.048 1.776 0.048 3.36 0.048 1.536 0.048 2.688 0 1.056 0 1.584zm16.992-21.168q0-4.992-0.144-9.936-1.248 0-2.64 0.048-1.344 0-2.736 0.096-1.344 0.048-2.64 0.144-1.248 0.096-2.256 0.24 0.24-0.864 0.24-1.536 0-0.528-0.24-1.488 3.168 0.096 6.192 0.192 3.024 0.048 6.192 0.048t6.192-0.048q3.024-0.096 6.192-0.192-0.24 0.96-0.24 1.536 0 0.624 0.24 1.488-1.008-0.144-2.304-0.24-1.248-0.096-2.64-0.144-1.344-0.096-2.736-0.096-1.344-0.048-2.592-0.048-0.144 4.944-0.144 9.936v8.256q0 3.168 0.096 6.24 0.144 3.072 0.288 6.048-1.104-0.096-2.352-0.096t-2.352 0.096q0.144-2.976 0.24-6.048 0.144-3.072 0.144-6.24zm18.96 14.304q0.384 0.864 1.008 1.776 0.672 0.864 1.584 1.584 0.96 0.72 2.208 1.2 1.248 0.432 2.784 0.432 1.584 0 2.832-0.528 1.296-0.576 2.16-1.488 0.912-0.96 1.392-2.208 0.48-1.296 0.48-2.736 0-2.208-1.152-3.504-1.104-1.296-2.784-2.16t-3.648-1.584q-1.92-0.72-3.6-1.776-1.68-1.104-2.832-2.784-1.104-1.68-1.104-4.512 0-2.016 0.72-3.648 0.72-1.68 2.064-2.88 1.392-1.2 3.312-1.872t4.32-0.672q2.304 0 3.984 0.576 1.68 0.528 3.12 1.68-0.432 0.816-0.72 1.728t-0.576 2.304h-0.576q-0.24-0.672-0.672-1.44-0.384-0.816-1.104-1.488-0.672-0.672-1.632-1.104-0.96-0.48-2.304-0.48t-2.496 0.432q-1.104 0.432-1.968 1.248-0.816 0.768-1.296 1.872-0.432 1.104-0.432 2.4 0 2.256 1.104 3.552 1.152 1.296 2.832 2.208 1.68 0.864 3.6 1.584 1.968 0.672 3.648 1.68t2.784 2.592q1.152 1.584 1.152 4.224 0 2.208-0.816 4.176-0.768 1.968-2.304 3.456-1.488 1.44-3.696 2.256-2.16 0.768-4.944 0.768-2.976 0-4.848-0.768-1.824-0.816-3.072-1.824 0.432-1.104 0.576-1.968 0.192-0.912 0.336-2.304z" fill="#887151" stroke="#d2aa2e" stroke-linejoin="round" stroke-width="2" style="white-space:pre" aria-label="ACCOUNTS"/>
 </g>
 <g transform="translate(-601.09 -300.1)" stroke-linejoin="round" stroke-width="3.664">
  <g fill="#aa6fe9">
   <path d="m906.89 433.49c5.9281-5.3383 13.355-8.3454 20.975-10.317 1.161-0.13556 2.3157-0.46873 3.483-0.40663 0.90219 0.048 1.74 0.48717 2.61 0.73075-3.4936-1.8179-6.815-4.0144-10.481-5.4537-0.74863-0.29395 1.0702 1.2158 1.468 1.9149 0.99267 1.7446 1.1767 3.1438 1.6319 5.0664 1.1732 9.22-0.85892 6.2826 13.999 13.054 0.48775 0.22229 0.84079-0.66555 1.2742-0.98096 0.4313-0.31388 0.8793-0.60414 1.319-0.90622 1.4505-0.80729 2.9502-1.7453 4.5697-2.1915 0.39286-0.10823 0.84399-0.31765 1.2137-0.1463 0.36701 0.1701 1.028 1.1912 0.66325 1.0162-4.0085-1.9225-7.8265-4.2191-11.74-6.3287 1.7379 2.8671 0.50179 6.5227 2.0392 9.3652 4.7789 2.41 9.366 5.2452 14.337 7.2299 0.22351 0.0892 4.9381-1.2971 5.437-1.4439 3.9862-1.1728 7.9585-2.2802 11.995-3.2688 2.4177-0.35465 4.161-0.88854 6.5655-0.28065 0.79855 0.20188 2.9538 1.4577 2.2293 1.0658-3.5463-1.9182-6.9736-4.0992-10.697-5.6461-0.66117-0.27468 0.93499 1.099 1.2722 1.7306 0.31543 0.59085 0.44273 1.2643 0.66409 1.8964 1.0762 8.7838-2.4141 4.4133 13.451 12.811 0.0144 8e-3 3.5609-1.1702 4.0488-1.3317 5.765-1.6258 11.766-4.3363 17.88-4.2536 0.9319 0.0126 1.8439 0.27251 2.7658 0.40877-3.411-1.8248-6.6848-3.9333-10.233-5.4745-0.77592-0.33703 1.3088 1.105 1.7843 1.8047 2.2112 3.2531 1.6476 7.5094 1.3368 11.178-0.043 1.7576-0.9591 3.8504-0.3771 5.6236 0.1536 0.46776 0.3495 1.0129 0.778 1.2554 14.251 8.0653 9.5219 9.3062 16.9 6.1171 12.329-6.3882 24.768-12.426 37.835-17.153 4.1713-0.80169 6.4104-1.6539 10.56-1.0268 1.2241 0.18502 4.5844 1.8011 3.5316 1.1497-16.023-9.9146-9.9974-6.9402-8.2883-1.4229 0.3689 5.1154-0.3887 6.7853 3.7177 10.592 3.8096 2.1792 12.019 8.397 18.443 9.6005 5.0826 0.95223 10.325 0.58398 15.451 0.84072 1.8873 0.0945 3.7649 0.33016 5.6473 0.49525-2.8989-3.3513 12.843 5.2984 10.016 3.2236-2.3644-1.7349-4.9307-3.3539-7.7482-4.1673-1.465-0.42291 2.3709 1.9204 3.5031 2.9418 1.9873 1.793 3.6441 3.6163 5.4752 5.5528 5.705 5.7296 12.45 8.8328 19.888 12.644 2.3921 1.2257 6.7269 1.4981 9.4012 1.8438 4.0023-0.37254 7.1319 2.0492 10.76 3.0209 0.5934 0.0899 1.1802 0.28603 1.7802 0.26967 1.4653-0.0399 5.8702-0.95001 6.9798-1.1498 5.0056-0.90121 10.014-1.606 15.061-2.2251 4.2064-0.14965 8.4996-0.0224 12.502 1.443 0.9156 0.33525 3.4686 1.7782 2.6284 1.2836-12.218-7.1912-13.416-8.2845-9.1478-4.8256 1.8394 1.5962 1.8214 3.9531 2.6886 6.035 0.3045 0.38104 0.6091 0.76207 0.9137 1.1431l13.665 5.5706-1.0689-0.62871c-1.35-2.0455-0.8639-4.7074-2.6685-6.569-4.9905-5.2909-1.6769-2.0489-15.632-9.6172-4.5012-2.4412-10.187-1.8676-15.057-1.7455-5.5337 0.70021-4.9165 0.60319-10.459 1.3806-4.5086 0.63245-9.3131 1.8922-13.809 0.61402-3.4432-1.346-6.7881-2.6325-10.585-2.5612-2.3081-0.34261-3.7782-0.48626-6.0478-1.1363-1.0407-0.2981-3.9435-1.7035-3.0673-1.0677 2.9887 2.1686 6.2935 3.8655 9.4843 5.7239 0.911 0.53061-1.8075-1.0944-2.642-1.7387-0.9036-0.69764-1.7059-1.5176-2.5588-2.2764-2.457-2.5981-6.2127-7.0631-9.1176-8.9304-9.1011-5.8504-15.868-10.515-26.056-12.119-5.5282-0.40596-11.154-0.35278-16.652-1.0777-1.5747-0.20764-3.1508-0.45655-4.6862-0.86313-1.18-0.31244-4.4138-2.0065-3.4288-1.2857 2.9958 2.1922 6.3567 3.8361 9.535 5.7541-4.531-3.2644-3.7989-4.5193-3.9992-9.7324-1.9427-8.5113-5.2946-7.8029-16.035-13.422-1.0659-0.55763-2.343-0.62432-3.5448-0.67713-4.0652-0.17863-6.2679 0.74891-10.281 1.7758-13.081 5.1261-25.6 11.533-38.767 16.422-0.8575 0.15763-3.2357-0.0931-2.5725 0.47288 3.3614 2.8685 7.6095 4.5037 11.283 6.9603 0.355 0.23742-0.9412 0.0347-1.2557-0.25422-1.1825-1.0861-0.013-4.2805-0.1357-5.455 1.2153-15.502-1.2955-14.181-17.165-22.669-7.2034-0.21476-14.061 2.5373-20.99 4.1912-0.83542 0.1478-1.6588 0.40275-2.5062 0.4434-0.42091 0.0202-1.5818-0.50517-1.2363-0.26386 13.63 9.5211 11.821 11.065 11.245 2.7695-1.8346-8.1156-6.2033-7.711-15.748-13.113-0.71746-0.40607-1.5754-0.53275-2.3959-0.61369-2.3714-0.23395-4.2221 0.32241-6.5482 0.77086-4.0535 1.0567-8.0917 2.2022-12.178 3.1289-1.0585 0.24009-2.1169 0.49177-3.1909 0.64901-0.7814 0.1144-2.9787-0.33096-2.3635 0.1642 3.4529 2.7791 7.5279 4.6813 11.292 7.022-0.31444-0.0567-0.69345 0.0289-0.94332-0.17023-1.0104-0.8053-0.70522-7.2159-1.4729-8.7046-12.502-8.5418-10.843-11.89-20.473-6.3221-0.4484 0.2573-0.87011 0.56805-1.3452 0.77191-0.27539 0.11817-1.1261 0.0117-0.88019 0.18301 3.8708 2.6959 7.9823 5.0288 11.973 7.5432-0.16187-0.28723-0.40913-0.54099-0.48561-0.86171-0.35828-1.5024-0.0549-3.1172-0.56968-4.5984-0.32546-1.7042-1.0998-6.7894-2.6344-7.8584-9.2934-6.4735-11.705-10.118-20.514-8.1249-7.8416 2.429-15.428 5.6455-22.155 10.425z"/>
   <path d="m915.54 472.57c5.5059-3.3894 12.363-4.2537 18.653-5.2833 0.92716-0.045 1.8642-0.27729 2.7815-0.135 0.71123 0.11033 2.6153 1.2014 1.9749 0.87288-3.6233-1.8588-7.0163-4.3267-10.926-5.465-0.92703-0.26988 0.87591 1.7264 1.2038 2.6345 0.84094 2.329 1.1915 4.455 1.6921 6.869 0.17197 1.1063 0.36414 2.2096 0.51592 3.3188 0.26594 1.9435 0.28363 2.564 0.44442 4.3473 0.0232 0.25768-0.15609 0.6606 0.0773 0.77232 14.26 6.8265 12.019 10.46 14.665 3.8849 0.99474-1.9265 1.9378-4.2364 3.7032-5.6338 0.427-0.33799 0.93715-0.67922 1.4816-0.6883 0.45082-8e-3 1.5868 0.85709 1.1896 0.64372-3.8398-2.0626-7.6783-4.1277-11.517-6.1915 1.2443 1.1292 1.7868 2.6336 2.2824 4.1864 1.9973 6.2577-5.0761-1.2956 13.836 7.9132 0.0402-1.4009 0.39014-0.0537 0.29662-0.1-4.2421-2.0994-8.3093-4.5467-12.589-6.5674-0.36496-0.1723 0.52421 0.6191 0.72812 0.96739 0.64899 1.1085 1.1339 2.3053 1.7168 3.4499 3.5703 7.2302 9.0086 8.3779 17.484 12.428 0.36893 0.17629 5.1975 0.18167 5.3449 0.1833 6.067-0.78354 10.851 1.2257 16.44 2.8216 3.9821 0.0516 3.5533-2.9562 7.929-0.68307-19.178-11.538-10.94-6.569-7.1673-2.6089 1.2201 1.2808 2.3245 2.5367 3.6797 3.6787 4.7742 2.6281 9.4751 5.394 14.323 7.8844 1.4609 0.75055 3.1783 0.84084 4.7319 1.3735 2.4721 0.84749 4.8674 1.9229 7.312 2.8459 3.5359 1.1292 6.5422-1.2929 9.6803-2.6308 3.4898-1.4879 4.0632-1.59 7.6997-2.7881 2.8174-0.27602 6.1153-1.9852 9.0302-1.2485 0.659 0.16655 2.3659 1.3391 1.766 1.0195-11.353-6.0498-13.75-9.0815-9.8558-4.6451 3.996 5.5019 7.4695 6.4946 16.225 9.3385 0.9725 0.31587 1.7863-0.99554 2.6818-1.489 4.5196-2.4905 2.527-1.4454 7.4055-3.7999 2.6837-1.0932 5.0561-2.4212 8.0662-2.3177 1.1348 0.039 4.2327 1.5157 3.2903 0.88223-18.516-12.446-9.1337-5.2471-6.9645-2.4429 0.6919 0.89439 1.1885 1.9241 1.7827 2.8862 1.628 1.6282 2.3519 9.39 4.07 10.483 4.4685 2.8425 9.1554 5.3261 13.733 7.9891 3.9378-0.38612 6.1594 0.93129 9.5118 2.502 0.3986-0.22833 0.8655-0.36579 1.1958-0.68499 0.3617-0.3495 0.5483-0.84341 0.8224-1.2651 0.3068-0.40877 0.5512-0.87298 0.9205-1.2263 1.9412-1.8572 4.4101-2.3574 6.9276-2.9243 1.0114 0.11807 2.049 0.0971 3.0343 0.35422 1.8517 0.48329 19.526 9.129-6.7431-4.1779-0.769-0.38956 1.4099 0.99451 2.0803 1.5365 1.1811 0.95491 1.6442 1.4984 2.6407 2.5441 0.3121 0.32364 0.5541 0.73414 0.9363 0.97091 4.5314 2.8072 9.0923 5.5744 13.766 8.1373 0.502 0.27524 1.1398 0.15856 1.6844 0.33496 0.608 0.19693 1.181 0.49186 1.7523 0.77819 0.6353 0.31834 2.4811 1.3866 1.8642 1.0341-3.484-1.9905-6.9768-3.9654-10.465-5.948 5.6348 3.4426 7.9749 4.9048 16.13 9.1566 1.1792 0.61485 2.9985-0.2379 3.6027-0.0244 0.2134 0.0755 0.1948 0.40874 0.2922 0.61311-4.0707-2.2562-7.9157-4.9792-12.212-6.7687-0.5803-0.24171 0.2827 1.2257 0.3908 1.845 0.7091 4.0632 1.0259 8.1006 2.0439 12.11 7.6292 15.323 19.278 10.081 30.543 7.2641 6.4205-1.815 12.954-2.5574 19.598-2.3204 1.0776 0.29923 2.2676-0.11316 3.3474 0.17388 0.4609 0.12251 1.6763 0.91029 1.2584 0.6806-3.766-2.0698-7.4368-4.324-11.302-6.201-0.5259-0.25533 0.8379 0.82182 1.188 1.2899 0.3618 0.4837 0.6247 1.034 0.937 1.5511 2.5024 6.9731 10.274 14.164 18.238 11.392 5.6072-2.2749 11.566-3.406 17.518-4.3333-2.0443-2.7659 7.7511 2.54 6.1202 1.6144-18.365-10.422-9.034-5.2554-4.9796-1.7728 0.5748 0.57131 1.1496 1.1426 1.7245 1.7139l13.337 5.5304c-0.6001-0.61286-1.2001-1.2257-1.8002-1.8386-5.9745-5.5445-11.697-8.2272-19.528-12.582-2.1403-1.1902-4.3733-1.643-6.7298-0.9571-5.9386 1.2471-11.854 2.5822-17.676 4.3005-6.3444 0.64893-2.0167-0.14986 9.9994 7.2817 0.2635 0.16295-0.6296-0.14947-0.8567-0.36017-1.0499-0.97398-1.4318-2.7877-2.0435-3.9987-3.505-7.568-12.296-12.399-20.552-12.075-6.5137 0.12618-12.863 1.3994-19.153 3.0607-4.0776 0.93501-8.4374 2.3704-12.668 2.3699-0.8649-1.1e-4 -3.2475-0.90544-2.5683-0.36994 14.377 11.335 12.249 8.9771 9.0209 4.7439-1.2464-3.8763-1.7406-7.7275-1.9443-11.792-0.034-0.6755 0.4746-1.594-0.044-2.0286-3.9964-3.3514-8.6085-5.8912-12.913-8.8369-1.9098 0.28651-4.0097-0.62179-3.6125-0.37362 2.888 1.8042 15.89 9.3943 8.8065 5.1778-4.7928-2.794-9.561-5.6306-14.378-8.3819-1.6113-0.92023-2.2038-1.0172-3.8869-1.6822-0.5168-0.2042-2.0105-0.93518-1.5389-0.64114 3.7284 2.3249 7.5021 4.5794 11.326 6.7438 0.4044 0.22891-0.6959-0.6159-1.0439-0.92385-5.6335-6.1776-11.802-8.9356-19.825-13.112-0.9734-0.50675-2.0808-0.74435-3.1675-0.89741-1.0841-0.15269-2.1896-8e-3 -3.2844-0.0113-3.5485 0.93163-6.4456 1.9135-8.9046 4.7329-0.4641 0.53209-0.142 0.48442-0.788 0.26218-3.0561-1.4692-6.2353-1.8434-9.5091-2.4904 3.8112 2.3041 7.6224 4.6083 11.434 6.9124-0.3575-0.2518-0.8142-0.40263-1.0726-0.75539-1.7334-2.3662-2.0045-7.1852-3.6557-9.6677-4.6889-8.633-7.6999-9.1989-19.088-14.75-1.0455-0.50962-2.3112-0.44648-3.4709-0.35752-2.9126 0.22343-5.5386 1.5726-8.1713 2.6602-2.5721 1.182-5.0875 2.4976-7.7202 3.5377-0.8709 0.34404-3.368 0.19592-2.6825 0.83374 3.2504 3.024 7.4875 4.7726 11.247 7.1342 0.3814 0.23959-0.7934-0.44923-1.1121-0.76747-0.3934-0.39277-0.6641-0.89166-0.9961-1.3375-4.0398-5.9546-1.3055-2.3894-15.034-10.118-3.191-1.7965-7.7845 0.96278-10.909 1.3708-5.0795 1.6899-2.9515 0.92557-7.8912 2.7896-3.0823 1.1631-6.0328 2.8219-9.325 1.5489-5.9328-2.2504-25.062-9.7228-1.3075 2.242-7.7185-4.9152-10.065-14.946-21.703-15.471-0.64327-0.13628-1.2729-0.38002-1.9298-0.40883-2.1955-0.0963-3.8739 1.8136-6.051 1.1534-5.3878-1.5715-10.735-2.7664-16.419-2.3721-0.96405-0.0684-1.9339-0.0795-2.8922-0.20518-0.80903-0.10611-3.0573-0.9703-2.3986-0.48875 3.39 2.4782 7.1444 4.4154 10.739 6.5861 0.49426 0.29845-1.0145-0.57393-1.4361-0.96847-0.87789-0.82168-1.4392-2.0472-2.0028-3.069-0.60337-1.1777-1.1231-2.0821-1.5572-3.3233-0.1581-0.45205 0.0274-1.1282-0.37581-1.3867-6.5844-4.2207-10.895-11.726-14.526-6.5671 29.072 15.352 14.266 10.497 12.511 5.8619-0.62932-1.6626-0.98334-3.4333-1.9566-4.9516-13.475-7.8548-14.688-12.865-21.179-0.78374-3.2844 5.9591-1.359 1.1745 11.743 9.2051 0.20382 0.12493-0.57111-0.0179-0.67883-0.23129-0.28161-0.55791-0.25469-1.2238-0.36605-1.8388-0.32721-1.8069-0.71717-4.3501-0.99515-6.1081-0.22711-1.1941-1.5733-9.4144-2.296-10.007-7.545-6.1857-10.86-10.266-18.771-9.0647-6.6554 1.3483-13.765 2.3598-19.789 5.5914z"/>
   <path d="m880.28 488.11c4.3609-5.2659 9.6818-3.3268 14.819-0.55913-3.0375-1.5671-5.7981-3.8668-9.1126-4.7013-1.3177-0.33178 1.8448 2.0008 2.6712 3.0795 2.9277 3.8216 4.9815 8.2636 7.0565 12.579 3.4922 6.3145 7.6811 7.0134 16.253 10.432 0.6573 0.26214 1.2745-0.61792 1.9306-0.88295 2.33-0.94113 3.2806-1.1475 5.777-1.881 3.4362-0.3159 3.9286-0.69238 7.3232 0.33986 1.2 0.36491 4.5204 2.1532 3.4543 1.4924-15.951-9.8855-7.8151-4.4286-4.1369-0.31899 5.3026 7.93 12.749 13.172 22.94 14.679 0.93125 0.0758 1.8782 0.0411 2.7938 0.22731 2.9719 0.60434 7.1462 3.1955 5.3746 2.1451-18.199-10.791-10.561-6.2938-6.7991-3.1638 4.8523 2.6556 9.5604 5.5938 14.557 7.9668 0.8465 0.40204 1.8762 0.10575 2.7978 0.27565 1.1242 0.20723 2.2301 0.51302 3.3216 0.85246 4.2161 1.3111 8.0944 3.3588 12.047 5.2895 3.9969 1.9184 7.912 4.5643 12.483 4.7879 1.5987 0.0782 6.9792-0.32869 8.4281-0.42481 1.4625-0.11344 2.925-0.22687 4.3875-0.3403 0 0-11.33-8.1006-11.33-8.1006l-4.3462 0.32523c-3.0523 0.10322-5.5086 0.32142-8.535-0.077-4.3213-0.56896-8.0607-3.105-11.956-4.839-2.3017-1.0987-5.9659-2.8956-8.3186-3.8196-5.2887-2.0771-23.416-6.8808 0.01 3.5927-7.442-6.5431-16.478-12.22-26.429-13.397-6.5843-1.5339-2.346-0.81778 7.939 5.7782 0.5629 0.36101-1.2541-0.48902-1.8177-0.84894-2.0106-1.284-3.0345-3.5141-4.4252-5.3534-5.7552-7.0126-10.685-8.896-20.069-13.927-2.077-1.1136-5.2121-1.6568-7.5318-1.6366-1.3014 0.0113-2.5842 0.31138-3.8763 0.46708-2.0496 0.55385-4.0749 1.1987-6.1361 1.7072-0.56702 0.13988-2.1898-0.0427-1.7244 0.31012 3.5612 2.6992 7.5996 4.7031 11.413 7.0331 0.47848 0.29239-1.0136-0.52175-1.4085-0.9199-0.54364-0.54818-0.90786-1.249-1.3618-1.8735-2.2661-4.395-4.4146-8.8816-7.2104-12.974-0.77948-1.1409-1.3373-2.5279-2.4553-3.3398-4.7619-3.458-9.993-6.2189-14.99-9.3283-1.1756-0.51426-2.2988-1.171-3.527-1.5428-4.7277-1.4309-9.7549-0.24074-13.147 3.3513z"/>
   <path d="m1030.8 542.29c12.037-0.66161 24.065-0.67938 36.081 0.27185 4.7218 0.84763 7.2272 1.0017 11.584 2.8442 1.4354 0.607 5.4947 2.9417 4.0983 2.2497-13.193-6.5377-9.4881-6.0372-5.1985-0.25154 1.7955 2.7387 2.4472 6.0664 4.7558 8.4477 2.3176 1.0851 4.7429 5.0748 6.6085 6.235 4.3972 2.7346 8.9144 5.2714 13.372 7.9071 5.1416-1.1828 9.6083 0.16582 14.372 2.1301 4.4474 1.9884 8.5103 4.9298 13.184 6.4179 2.7807 0.88538 4.5292 0.99384 7.4598 1.4062 11.498 1.4036 21.796 6.6177 31.899 11.941 5.6755 3.4923 10.939 5.0639 17.493 5.2827 5.1474 0.77258 10.212 1.9647 15.387 2.6528 0.8555 0.16276 1.7109 0.32551 2.5664 0.48826l-11.498-8.6723c-0.8736-0.15021-1.7472-0.30041-2.6208-0.45061-5.1807-0.72449-10.244-2.0852-15.454-2.5548-5.9665-0.43865-11.358-2.1975-16.531-5.2955-10.315-5.2414-20.829-10.238-32.431-11.806-3.3742-0.64607-4.336-0.67978-7.4564-1.812-4.5387-1.6469-8.5771-4.4204-13.03-6.2604-3.1552-1.1764-4.1406-1.7332-7.4013-2.255-2.2441-0.35911-4.5037 0.18443-6.7087-0.20789-0.2884-0.0513-0.5369-0.23447-0.8054-0.35171 26.874 16.004 13.767 9.1256 10.733 6.0982-1.7923-1.7884-3.334-3.8329-5.4303-5.309-2.8617-2.1636-3.6524-5.2188-5.2972-8.3224-5.2361-7.5819-8.4915-8.099-18.794-14.132-4.704-2.7544-10.103-3.6395-15.436-4.2194-12.476-0.74199-24.967-0.66467-37.453-1.1562z"/>
   <path d="m941.19 353.99c4.4499 1.2659 15.068 3.8516-4.9702-3.8657-1.0905-0.41998 1.7324 1.5803 2.4769 2.481 1.925 2.3292 2.0137 2.9962 3.1465 5.6105 2.0862 7.7368-0.0892 5.1604 14.296 11.213 0.01 4e-3 3.7281-3.7305 5.2252-5.1738 2.7082-1.9395 6.2373-6.1414 10.052-4.9623 0.79964 0.24714 2.8704 1.717 2.1221 1.3421-3.4668-1.7367-6.8576-3.6214-10.286-5.432 4.1293 4.1591 4.7048 10.22 7.5308 15.121 4.6241 2.7226 8.968 5.9901 13.872 8.1679 0.78168 0.34713 1.5992-0.60883 2.3839-0.94901 5.1444-2.2301 10.095-4.8163 15.291-6.9435 4.5061-2.0732 8.775-2.1345 13.209-3.2e-4 0.826 0.39756 3.2297 1.7359 2.4288 1.2899-3.4846-1.9405-6.9868-3.8491-10.48-5.7737 5.1492 4.652 8.3536 5.9626 16.518 9.8663 0.6889 0.3294 3.5264-0.76733 4.2809-0.94472 2.7837-1.362 5.2818 1.2032 7.1062-0.92512 0.4508-1.3296 0.1657-1.8471-0.634-2.8732l-13.9-5.4893c0.6444 0.17996 1.1212 0.59687 1.7491 0.50933-2.1941-0.44385-4.3388-0.30984-6.5168 0.31749-0.852 0.17633-1.936 0.43944-2.811 0.46181-0.3711 9e-3 -1.419-0.31498-1.108-0.11222 21.193 13.819 12.778 8.4014 8.9234 4.5805-11.972-7.1912-17.48-14.083-30.635-8.834-4.1014 1.7371-8.1187 3.7171-12.253 5.3701-1.0672 0.42667-2.1343 0.88026-3.2535 1.1415-0.62156 0.14507-2.4246-0.31801-1.9137 0.0645 3.5373 2.6485 7.5246 4.6356 11.287 6.9534-3.8416-4.4105-3.66-11.076-7.569-15.543-14.836-9.2101-15.581-14.328-27.764-4.0486-0.78752 0.70156-3.1149 2.8206-4.0907 3.5346-0.26346 0.1928-1.1336 0.2607-0.86894 0.45185 15.128 10.927 12.761 11.107 10.998 3.7072-4.0986-10.597-14.492-17.77-25.888-19.065z"/>
   <path d="m1042.2 372.09c0.3432 3.651-0.2168 7.3648 0.2369 10.997 5.4829 21.78 13.844 6.3333 18.343 3.0632 0.6852-0.49802 1.4549-0.86793 2.1824-1.3019 4.8807-2.0821 9.1626 0.29428 13.768 1.5899 1.0257 0.53551 2.2481 0.0584 3.3013 0.29008 0.6819 0.15001 1.5553 0.85061 2.0683 1.2035-3.6876-2.0146-7.3752-4.0292-11.063-6.0437 3.6447 4.337 12.502 21.588 18.727 13.475 1.1848-2.7613 3.1582-4.9902 6.0227-2.9772-20.076-15.239-9.6919-3.9757-5.1972 0.21072 4.931 3.5698 10.404 6.7241 15.904 9.1233 0.4657 0.20316 1.1936 0.73742 1.4894 0.32428 0.3834-0.53552 0.4984-1.2193 0.7476-1.829l-13.768-6.0846c0.3674-0.41728 0.8351-0.76427 1.1023-1.2519 0.2016-0.3677-0.7717-0.32866-1.1507-0.50798-0.3748-0.17732-1.4861-0.73164-1.1309-0.51794 8.9509 5.3838 15.873 9.1532 10.587 6.264-7.4529-4.9325-7.7644-14.694-20.251-14.907-3.4072-0.6054-5.6366 1.4888-7.2004 4.3928 2.3536-4.6036-0.1467-0.0293 12.304 6.9738 0.3934 0.22123-0.6161-0.66436-0.8688-1.0382-1.2304-1.8205-1.0598-2.1156-2.2849-4.104-0.4244-0.68885-0.9366-1.3196-1.4048-1.9795-9.6382-6.0191-11.302-8.7018-19.652-10.071-4.7689-1.5697-9.5094-2.7887-14.318-0.4592-0.6635 0.41456-6.9707 5.036-6.6597 5.2554 10.608 7.4846 17.401 7.1168 11.843 7.323-1.4121-3.1741-0.037-7.2436-0.3605-10.628z"/>
   <path d="m1138.3 410.95c0.4327 0.13977 0.8945 0.20993 1.2982 0.4193 0.6255 0.32445 2.3913 1.4848 1.7619 1.168-3.4483-1.7358-6.6401-4.0095-10.23-5.4304-1.0634-0.42095 1.6751 1.5584 2.4858 2.3652 0.979 0.97423 1.9215 1.9845 2.8823 2.9767 0.9888 0.9763 1.9776 1.9526 2.9663 2.9289 8.4147 5.9357 17.513 15.981 28.417 13.567 2.8295-0.9503 5.6442-1.8401 8.6003-2.2836 2.4542 0.27742 4.1423-0.83767 6.3086-1.6205 4.5374-1.2228 9.1335-0.0832 13.677 0.46503 0.7945 0.2024 1.6053 0.34922 2.3835 0.60719 2.8638 0.94928 5.7667 2.8256 4.867 2.3318-16.381-8.9919-11.24-6.5049-6.3363-2.296 5.4176 3.8558 6.4897 4.7488 16.252 8.4823 0.4899 0.18733 5.0413-2.144 5.071-2.1568 3.2954-1.4326 4.0435-1.5531 7.5916-2.6574 3.7802-0.9892 7.2121-1.1475 10.9 0.18977 0.9688 0.35125 3.7061 1.7939 2.8178 1.2716-12.565-7.3887-12.955-7.892-8.5999-4.2643 1.8715 1.7321 3.0914 3.9976 4.7054 5.9422 6.1293 4.7516 13.208 7.024 19.789 10.568 2.6641 1.1237 3.9936 3.6566 6.3541 1.2467 1.8356-2.4044 4.415-2.822 7.1328-1.7712 7.7911 5.2838-14.536-10.247-8.0722-3.6218l13.597 5.7126c-4.4444-5.2899-10.932-8.445-17.271-11.07-3.1316-0.41056-5.8998 0.34708-8.0401 2.7785-1.5052 0.39072-3.6714-2.3199-5.1977-2.5456-0.8673-0.48775-2.13-1.2463-3.0837-1.604-0.8056-0.30214-3.2235-1.1255-2.4919-0.67278 9.2262 5.7092 16.24 9.041 11.118 6.5884-2.2524-1.2982-2.9809-4.3161-4.9413-6.0023-4.9645-4.793-14.907-11.541-22.814-11.925-2.8047-0.13633-4.9874 0.54139-7.7017 1.1354-3.5798 1.0952-7.0559 2.674-10.635 3.7109-0.6741 0.19527-2.6252-0.11234-2.0795 0.32886 1.9631 1.587 16.26 9.9754 9.2004 5.8225-1.3615-1.0915-2.4754-2.4992-3.9421-3.4446-6.9533-4.4818-14.005-9.8795-22.327-11.452-4.7358-0.62634-9.6016-1.3885-14.282-1e-3 -2.0275 0.8226-3.9104 1.3348-6.1396 1.3869-2.8984 0.58111-5.6522 1.5962-8.5008 2.3618-1.5695 0.21004-2.18 0.4277-3.8151 0.028-0.7991-0.19536-2.9963-1.3211-2.311-0.86598 19.186 12.742 7.065 3.8274 3.0354 1.1937-7.5046-7.239-15.57-17.963-26.761-18.278z"/>
   <path d="m938.42 386.47c8.5371-0.70451 12.825 0.20306 20.687 3.8312-2.239-1.1766-4.2603-4.1312-6.7172-3.53-2.018 0.4939 3.2434 2.602 4.7757 4.0051 3.7516 3.4351 6.7382 7.5301 10.312 11.121 22.839 13.806 7.518 4.2969 24.404 4.6156 6.2131 1.1425 12.53 2.38 18.512 4.4553 0.8396 0.35421 1.6965 0.67032 2.519 1.0626 11.408 5.4409-17.236-9.5035-3.9553-1.8834 4.6871 2.6894 9.4058 5.3232 14.109 7.9848 3.9836 1.2595 8.4244-0.26649 12.484-0.79808 4.5379-0.33807 8.5528 1.8045 12.718 3.178 2.5078 0.77378 5.2161 0.72648 7.8241 0.86452l-11.953-8.7802c-2.5606-0.13275-5.1565-0.26397-7.5759-1.2007-4.1594-1.5188-8.4164-2.9612-12.923-2.4807-3.9998 0.51872-8.3413 1.8229-12.154-0.0189 3.7449 2.1988 7.4826 4.4102 11.235 6.5965 0.5418 0.31569-1.072-0.65084-1.6031-0.98431-0.6878-0.43198-1.3572-0.89356-2.0535-1.312-6.6701-4.0085-12.942-8.546-20.249-11.201-6.0744-1.7898-12.314-3.2106-18.602-3.9575-3.343 0.0658-5.7631 0.23347-8.7752 1.6927-5.5348 2.6814-5.2304-1.0707 9.6674 7.7236-2.7179-2.1845-4.7389-4.8313-7.1076-7.3855-7.6082-8.2041-15.147-13.57-25.904-18.492-8.0541-3.4284-13.169-4.1728-21.767-3.8918z"/>
   <path d="m1085.9 430.93c3.64 0.89883 14.401 3.6911-8.7443-5.0643-1.1957-0.45231 1.9398 1.6737 2.809 2.6112 3.0171 3.2543 5.0481 7.1398 7.1174 11.018 2.536 6.0684 9.768 26.036 20.282 14.079 3.1146-3.2338 7.7128-7.6969 12.73-6.0668 0.835 0.2713 1.5235 0.87311 2.2853 1.3097-3.4815-1.9161-6.8839-3.9837-10.445-5.7483-1.0543-0.52248 1.7036 1.6733 2.7473 2.2166 4.5907 2.3894 9.1048 4.9595 13.875 6.9663 0.6366 0.26782 1.0177-0.9341 1.5328-1.3942 0.218-0.19514 0.3615-0.5932 0.654-0.58542 0.2625 7e-3 0.7244 0.73617 0.491 0.61589-3.9777-2.05-7.823-4.3489-11.782-6.4349-1.9087-1.0057 2.0508 1.5796 3.0621 2.5494 11.804 12.2 11.635 7.5695 20.93 5.5726 3.5654-0.55412 7.0007-0.73821 10.175-2.5698 0.3342-0.20563 1.9952-1.3137 2.4483-1.0058 0.1712 0.11639 0.3298 0.70096 0.147 0.60359-4.2447-2.2613-8.3396-4.793-12.509-7.1895 1.6242 2.7614 0.9975 7.2479 1.0353 10.41 0.051 11.747-3.1843 7.1048 13.143 13.906 0.541-4.3339 2.2605-8.0401 7.2151-7.2816 4.6689 1.6493 14.084 6.9174-6.647-4.26-1.1738-0.63288 2.2241 1.6245 4.0587 3.5924 4.9723 4.9518 11.306 9.0521 18.307 9.9868l-11.88-8.9492c-0.8236-0.17985-3.1431-1.1595-2.4249-0.71816 20.845 12.808 13.788 8.5721 9.6638 5.4273-5.8804-6.7847-14.172-11.97-22.966-13.731-5.3732 0.61818-7.5635 4.1528-8.5889 9.1841 16.592 9.9934 13.087 11.398 13.17-0.51811-0.01-3.763 0.03-7.5364-0.2063-11.292-8.1517-4.8644-10.319-10.624-16.479-6.305-2.9963 1.6636-6.4327 1.5753-9.7099 2.3464-1.9437 0.43193-3.8056 1.1239-5.7261 1.581-0.2809 0.0668-1.1092-0.10184-0.8646 0.0514 10.681 6.6922 16.843 8.3758 11.469 6.8497-4.6659-4.7592-12.852-14.495-18.863-9.759-4.3473 3.3894-7.1744-3.315 11.125 7.6752 0.4235 0.25433-0.9549-0.31067-1.3545-0.60105-0.6134-0.44574-0.9996-1.1708-1.6408-1.5755-4.7905-3.0237-9.7401-5.7879-14.61-8.6818-7.1464-2.3331-11.085 1.4226-16.072 6.1628-5.215 4.4829-2.0736 0.88371 10.369 8.8018 0.3452 0.21964-0.853-0.18236-1.1268-0.48628-2.1597-2.3968-2.0613-6.3612-4.0116-8.885-5.3409-10.179-12.992-22.851-26.552-22.801z"/>
   <path d="m1201.6 467.64c7.0819-3.7497 15.011-6.5214 23.008-7.3698 6.6659-0.24643 14.689 4.5433-6.316-5.761-0.3715-0.18224 0.5211 0.65839 0.6721 1.0436 0.2264 0.57769 0.2968 1.2049 0.4452 1.8074 0.5836 5.5787 0.5748 11.227 0.2405 16.823-0.041 0.14457-0.2556 0.36522-0.1219 0.43372 20.841 10.682 12.036 10.419 13.457 3.8378 0.3135-1.4523-0.015-1.1872 0.9004-1.4765 3.9219 3.8848 0.2368 0.10481-11.014-5.6808-0.5106-0.26258 0.914 0.69526 1.3625 1.0537 1.1578 0.92518 2.2551 1.9001 3.4409 2.7902 4.7002 2.6196 9.325 5.3792 14.1 7.8589 1.3538 0.70293 4.725 1.0842 6.3658 1.7633 1.8948 0.78426 3.7097 1.7523 5.6008 2.5455 3.4464 1.399 6.381 3.3278 8.7755-0.42861l-12.898-7.5132c-1.4485 2.3525-5.5245-0.5776-7.2521-1.0479-5.9269-2.5958-25.772-10.069-0.8523 2.2131-6.5242-3.565-11.96-13.888-20.289-11.492-6.5628 7.2528 5.9686 9.6165 11.646 12.468 0.1779 0.0893-0.044-0.39562-0.066-0.59344-0.1366-5.6928 0.028-11.388-0.1562-17.08-0.9534-9.9867-11.57-12.913-19.889-11.921-8.1032 1.4259-15.973 4.2915-23.47 7.6277z"/>
  </g>
  <g fill="#e6d5f8">
   <path d="m906.89 433.49c5.9281-5.3383 13.355-8.3454 20.975-10.317 1.161-0.13556 2.3157-0.46873 3.483-0.40663 0.90219 0.048 1.74 0.48717 2.61 0.73075-3.4936-1.8179-6.815-4.0144-10.481-5.4537-0.74863-0.29395 1.0702 1.2158 1.468 1.9149 0.99267 1.7446 1.1767 3.1438 1.6319 5.0664 1.1732 9.22-0.85892 6.2826 13.999 13.054 0.48775 0.22229 0.84079-0.66555 1.2742-0.98096 0.4313-0.31388 0.8793-0.60414 1.319-0.90622 1.4505-0.80729 2.9502-1.7453 4.5697-2.1915 0.39286-0.10823 0.84399-0.31765 1.2137-0.1463 0.36701 0.1701 1.028 1.1912 0.66325 1.0162-4.0085-1.9225-7.8265-4.2191-11.74-6.3287 1.7379 2.8671 0.50179 6.5227 2.0392 9.3652 4.7789 2.41 9.366 5.2452 14.337 7.2299 0.22351 0.0892 4.9381-1.2971 5.437-1.4439 3.9862-1.1728 7.9585-2.2802 11.995-3.2688 2.4177-0.35465 4.161-0.88854 6.5655-0.28065 0.79855 0.20188 2.9538 1.4577 2.2293 1.0658-3.5463-1.9182-6.9736-4.0992-10.697-5.6461-0.66117-0.27468 0.93499 1.099 1.2722 1.7306 0.31543 0.59085 0.44273 1.2643 0.66409 1.8964 1.0762 8.7838-2.4141 4.4133 13.451 12.811 0.0144 8e-3 3.5609-1.1702 4.0488-1.3317 5.765-1.6258 11.766-4.3363 17.88-4.2536 0.9319 0.0126 1.8439 0.27251 2.7658 0.40877-3.411-1.8248-6.6848-3.9333-10.233-5.4745-0.77592-0.33703 1.3088 1.105 1.7843 1.8047 2.2112 3.2531 1.6476 7.5094 1.3368 11.178-0.043 1.7576-0.9591 3.8504-0.3771 5.6236 0.1536 0.46776 0.3495 1.0129 0.778 1.2554 14.251 8.0653 9.5219 9.3062 16.9 6.1171 12.329-6.3882 24.768-12.426 37.835-17.153 4.1713-0.80169 6.4104-1.6539 10.56-1.0268 1.2241 0.18502 4.5844 1.8011 3.5316 1.1497-16.023-9.9146-9.9974-6.9402-8.2883-1.4229 0.3689 5.1154-0.3887 6.7853 3.7177 10.592 3.8096 2.1792 12.019 8.397 18.443 9.6005 5.0826 0.95223 10.325 0.58398 15.451 0.84072 1.8873 0.0945 3.7649 0.33016 5.6473 0.49525-2.8989-3.3513 12.843 5.2984 10.016 3.2236-2.3644-1.7349-4.9307-3.3539-7.7482-4.1673-1.465-0.42291 2.3709 1.9204 3.5031 2.9418 1.9873 1.793 3.6441 3.6163 5.4752 5.5528 5.705 5.7296 12.45 8.8328 19.888 12.644 2.3921 1.2257 6.7269 1.4981 9.4012 1.8438 4.0023-0.37254 7.1319 2.0492 10.76 3.0209 0.5934 0.0899 1.1802 0.28603 1.7802 0.26967 1.4653-0.0399 5.8702-0.95001 6.9798-1.1498 5.0056-0.90121 10.014-1.606 15.061-2.2251 4.2064-0.14965 8.4996-0.0224 12.502 1.443 0.9156 0.33525 3.4686 1.7782 2.6284 1.2836-12.218-7.1912-13.416-8.2845-9.1478-4.8256 1.8394 1.5962 1.8214 3.9531 2.6886 6.035 0.3045 0.38104 0.6091 0.76207 0.9137 1.1431l13.665 5.5706-1.0689-0.62871c-1.35-2.0455-0.8639-4.7074-2.6685-6.569-4.9905-5.2909-1.6769-2.0489-15.632-9.6172-4.5012-2.4412-10.187-1.8676-15.057-1.7455-5.5337 0.70021-4.9165 0.60319-10.459 1.3806-4.5086 0.63245-9.3131 1.8922-13.809 0.61402-3.4432-1.346-6.7881-2.6325-10.585-2.5612-2.3081-0.34261-3.7782-0.48626-6.0478-1.1363-1.0407-0.2981-3.9435-1.7035-3.0673-1.0677 2.9887 2.1686 6.2935 3.8655 9.4843 5.7239 0.911 0.53061-1.8075-1.0944-2.642-1.7387-0.9036-0.69764-1.7059-1.5176-2.5588-2.2764-2.457-2.5981-6.2127-7.0631-9.1176-8.9304-9.1011-5.8504-15.868-10.515-26.056-12.119-5.5282-0.40596-11.154-0.35278-16.652-1.0777-1.5747-0.20764-3.1508-0.45655-4.6862-0.86313-1.18-0.31244-4.4138-2.0065-3.4288-1.2857 2.9958 2.1922 6.3567 3.8361 9.535 5.7541-4.531-3.2644-3.7989-4.5193-3.9992-9.7324-1.9427-8.5113-5.2946-7.8029-16.035-13.422-1.0659-0.55763-2.343-0.62432-3.5448-0.67713-4.0652-0.17863-6.2679 0.74891-10.281 1.7758-13.081 5.1261-25.6 11.533-38.767 16.422-0.8575 0.15763-3.2357-0.0931-2.5725 0.47288 3.3614 2.8685 7.6095 4.5037 11.283 6.9603 0.355 0.23742-0.9412 0.0347-1.2557-0.25422-1.1825-1.0861-0.013-4.2805-0.1357-5.455 1.2153-15.502-1.2955-14.181-17.165-22.669-7.2034-0.21476-14.061 2.5373-20.99 4.1912-0.83542 0.1478-1.6588 0.40275-2.5062 0.4434-0.42091 0.0202-1.5818-0.50517-1.2363-0.26386 13.63 9.5211 11.821 11.065 11.245 2.7695-1.8346-8.1156-6.2033-7.711-15.748-13.113-0.71746-0.40607-1.5754-0.53275-2.3959-0.61369-2.3714-0.23395-4.2221 0.32241-6.5482 0.77086-4.0535 1.0567-8.0917 2.2022-12.178 3.1289-1.0585 0.24009-2.1169 0.49177-3.1909 0.64901-0.7814 0.1144-2.9787-0.33096-2.3635 0.1642 3.4529 2.7791 7.5279 4.6813 11.292 7.022-0.31444-0.0567-0.69345 0.0289-0.94332-0.17023-1.0104-0.8053-0.70522-7.2159-1.4729-8.7046-12.502-8.5418-10.843-11.89-20.473-6.3221-0.4484 0.2573-0.87011 0.56805-1.3452 0.77191-0.27539 0.11817-1.1261 0.0117-0.88019 0.18301 3.8708 2.6959 7.9823 5.0288 11.973 7.5432-0.16187-0.28723-0.40913-0.54099-0.48561-0.86171-0.35828-1.5024-0.0549-3.1172-0.56968-4.5984-0.32546-1.7042-1.0998-6.7894-2.6344-7.8584-9.2934-6.4735-11.705-10.118-20.514-8.1249-7.8416 2.429-15.428 5.6455-22.155 10.425z" filter="url(#filter1619)" style="mix-blend-mode:normal"/>
   <path d="m915.54 472.57c5.5059-3.3894 12.363-4.2537 18.653-5.2833 0.92716-0.045 1.8642-0.27729 2.7815-0.135 0.71123 0.11033 2.6153 1.2014 1.9749 0.87288-3.6233-1.8588-7.0163-4.3267-10.926-5.465-0.92703-0.26988 0.87591 1.7264 1.2038 2.6345 0.84094 2.329 1.1915 4.455 1.6921 6.869 0.17197 1.1063 0.36414 2.2096 0.51592 3.3188 0.26594 1.9435 0.28363 2.564 0.44442 4.3473 0.0232 0.25768-0.15609 0.6606 0.0773 0.77232 14.26 6.8265 12.019 10.46 14.665 3.8849 0.99474-1.9265 1.9378-4.2364 3.7032-5.6338 0.427-0.33799 0.93715-0.67922 1.4816-0.6883 0.45082-8e-3 1.5868 0.85709 1.1896 0.64372-3.8398-2.0626-7.6783-4.1277-11.517-6.1915 1.2443 1.1292 1.7868 2.6336 2.2824 4.1864 1.9973 6.2577-5.0761-1.2956 13.836 7.9132 0.0402-1.4009 0.39014-0.0537 0.29662-0.1-4.2421-2.0994-8.3093-4.5467-12.589-6.5674-0.36496-0.1723 0.52421 0.6191 0.72812 0.96739 0.64899 1.1085 1.1339 2.3053 1.7168 3.4499 3.5703 7.2302 9.0086 8.3779 17.484 12.428 0.36893 0.17629 5.1975 0.18167 5.3449 0.1833 6.067-0.78354 10.851 1.2257 16.44 2.8216 3.9821 0.0516 3.5533-2.9562 7.929-0.68307-19.178-11.538-10.94-6.569-7.1673-2.6089 1.2201 1.2808 2.3245 2.5367 3.6797 3.6787 4.7742 2.6281 9.4751 5.394 14.323 7.8844 1.4609 0.75055 3.1783 0.84084 4.7319 1.3735 2.4721 0.84749 4.8674 1.9229 7.312 2.8459 3.5359 1.1292 6.5422-1.2929 9.6803-2.6308 3.4898-1.4879 4.0632-1.59 7.6997-2.7881 2.8174-0.27602 6.1153-1.9852 9.0302-1.2485 0.659 0.16655 2.3659 1.3391 1.766 1.0195-11.353-6.0498-13.75-9.0815-9.8558-4.6451 3.996 5.5019 7.4695 6.4946 16.225 9.3385 0.9725 0.31587 1.7863-0.99554 2.6818-1.489 4.5196-2.4905 2.527-1.4454 7.4055-3.7999 2.6837-1.0932 5.0561-2.4212 8.0662-2.3177 1.1348 0.039 4.2327 1.5157 3.2903 0.88223-18.516-12.446-9.1337-5.2471-6.9645-2.4429 0.6919 0.89439 1.1885 1.9241 1.7827 2.8862 1.628 1.6282 2.3519 9.39 4.07 10.483 4.4685 2.8425 9.1554 5.3261 13.733 7.9891 3.9378-0.38612 6.1594 0.93129 9.5118 2.502 0.3986-0.22833 0.8655-0.36579 1.1958-0.68499 0.3617-0.3495 0.5483-0.84341 0.8224-1.2651 0.3068-0.40877 0.5512-0.87298 0.9205-1.2263 1.9412-1.8572 4.4101-2.3574 6.9276-2.9243 1.0114 0.11807 2.049 0.0971 3.0343 0.35422 1.8517 0.48329 19.526 9.129-6.7431-4.1779-0.769-0.38956 1.4099 0.99451 2.0803 1.5365 1.1811 0.95491 1.6442 1.4984 2.6407 2.5441 0.3121 0.32364 0.5541 0.73414 0.9363 0.97091 4.5314 2.8072 9.0923 5.5744 13.766 8.1373 0.502 0.27524 1.1398 0.15856 1.6844 0.33496 0.608 0.19693 1.181 0.49186 1.7523 0.77819 0.6353 0.31834 2.4811 1.3866 1.8642 1.0341-3.484-1.9905-6.9768-3.9654-10.465-5.948 5.6348 3.4426 7.9749 4.9048 16.13 9.1566 1.1792 0.61485 2.9985-0.2379 3.6027-0.0244 0.2134 0.0755 0.1948 0.40874 0.2922 0.61311-4.0707-2.2562-7.9157-4.9792-12.212-6.7687-0.5803-0.24171 0.2827 1.2257 0.3908 1.845 0.7091 4.0632 1.0259 8.1006 2.0439 12.11 7.6292 15.323 19.278 10.081 30.543 7.2641 6.4205-1.815 12.954-2.5574 19.598-2.3204 1.0776 0.29923 2.2676-0.11316 3.3474 0.17388 0.4609 0.12251 1.6763 0.91029 1.2584 0.6806-3.766-2.0698-7.4368-4.324-11.302-6.201-0.5259-0.25533 0.8379 0.82182 1.188 1.2899 0.3618 0.4837 0.6247 1.034 0.937 1.5511 2.5024 6.9731 10.274 14.164 18.238 11.392 5.6072-2.2749 11.566-3.406 17.518-4.3333-2.0443-2.7659 7.7511 2.54 6.1202 1.6144-18.365-10.422-9.034-5.2554-4.9796-1.7728 0.5748 0.57131 1.1496 1.1426 1.7245 1.7139l13.337 5.5304c-0.6001-0.61286-1.2001-1.2257-1.8002-1.8386-5.9745-5.5445-11.697-8.2272-19.528-12.582-2.1403-1.1902-4.3733-1.643-6.7298-0.9571-5.9386 1.2471-11.854 2.5822-17.676 4.3005-6.3444 0.64893-2.0167-0.14986 9.9994 7.2817 0.2635 0.16295-0.6296-0.14947-0.8567-0.36017-1.0499-0.97398-1.4318-2.7877-2.0435-3.9987-3.505-7.568-12.296-12.399-20.552-12.075-6.5137 0.12618-12.863 1.3994-19.153 3.0607-4.0776 0.93501-8.4374 2.3704-12.668 2.3699-0.8649-1.1e-4 -3.2475-0.90544-2.5683-0.36994 14.377 11.335 12.249 8.9771 9.0209 4.7439-1.2464-3.8763-1.7406-7.7275-1.9443-11.792-0.034-0.6755 0.4746-1.594-0.044-2.0286-3.9964-3.3514-8.6085-5.8912-12.913-8.8369-1.9098 0.28651-4.0097-0.62179-3.6125-0.37362 2.888 1.8042 15.89 9.3943 8.8065 5.1778-4.7928-2.794-9.561-5.6306-14.378-8.3819-1.6113-0.92023-2.2038-1.0172-3.8869-1.6822-0.5168-0.2042-2.0105-0.93518-1.5389-0.64114 3.7284 2.3249 7.5021 4.5794 11.326 6.7438 0.4044 0.22891-0.6959-0.6159-1.0439-0.92385-5.6335-6.1776-11.802-8.9356-19.825-13.112-0.9734-0.50675-2.0808-0.74435-3.1675-0.89741-1.0841-0.15269-2.1896-8e-3 -3.2844-0.0113-3.5485 0.93163-6.4456 1.9135-8.9046 4.7329-0.4641 0.53209-0.142 0.48442-0.788 0.26218-3.0561-1.4692-6.2353-1.8434-9.5091-2.4904 3.8112 2.3041 7.6224 4.6083 11.434 6.9124-0.3575-0.2518-0.8142-0.40263-1.0726-0.75539-1.7334-2.3662-2.0045-7.1852-3.6557-9.6677-4.6889-8.633-7.6999-9.1989-19.088-14.75-1.0455-0.50962-2.3112-0.44648-3.4709-0.35752-2.9126 0.22343-5.5386 1.5726-8.1713 2.6602-2.5721 1.182-5.0875 2.4976-7.7202 3.5377-0.8709 0.34404-3.368 0.19592-2.6825 0.83374 3.2504 3.024 7.4875 4.7726 11.247 7.1342 0.3814 0.23959-0.7934-0.44923-1.1121-0.76747-0.3934-0.39277-0.6641-0.89166-0.9961-1.3375-4.0398-5.9546-1.3055-2.3894-15.034-10.118-3.191-1.7965-7.7845 0.96278-10.909 1.3708-5.0795 1.6899-2.9515 0.92557-7.8912 2.7896-3.0823 1.1631-6.0328 2.8219-9.325 1.5489-5.9328-2.2504-25.062-9.7228-1.3075 2.242-7.7185-4.9152-10.065-14.946-21.703-15.471-0.64327-0.13628-1.2729-0.38002-1.9298-0.40883-2.1955-0.0963-3.8739 1.8136-6.051 1.1534-5.3878-1.5715-10.735-2.7664-16.419-2.3721-0.96405-0.0684-1.9339-0.0795-2.8922-0.20518-0.80903-0.10611-3.0573-0.9703-2.3986-0.48875 3.39 2.4782 7.1444 4.4154 10.739 6.5861 0.49426 0.29845-1.0145-0.57393-1.4361-0.96847-0.87789-0.82168-1.4392-2.0472-2.0028-3.069-0.60337-1.1777-1.1231-2.0821-1.5572-3.3233-0.1581-0.45205 0.0274-1.1282-0.37581-1.3867-6.5844-4.2207-10.895-11.726-14.526-6.5671 29.072 15.352 14.266 10.497 12.511 5.8619-0.62932-1.6626-0.98334-3.4333-1.9566-4.9516-13.475-7.8548-14.688-12.865-21.179-0.78374-3.2844 5.9591-1.359 1.1745 11.743 9.2051 0.20382 0.12493-0.57111-0.0179-0.67883-0.23129-0.28161-0.55791-0.25469-1.2238-0.36605-1.8388-0.32721-1.8069-0.71717-4.3501-0.99515-6.1081-0.22711-1.1941-1.5733-9.4144-2.296-10.007-7.545-6.1857-10.86-10.266-18.771-9.0647-6.6554 1.3483-13.765 2.3598-19.789 5.5914z" filter="url(#filter1620)" style="mix-blend-mode:normal"/>
   <path d="m880.28 488.11c4.3609-5.2659 9.6818-3.3268 14.819-0.55913-3.0375-1.5671-5.7981-3.8668-9.1126-4.7013-1.3177-0.33178 1.8448 2.0008 2.6712 3.0795 2.9277 3.8216 4.9815 8.2636 7.0565 12.579 3.4922 6.3145 7.6811 7.0134 16.253 10.432 0.6573 0.26214 1.2745-0.61792 1.9306-0.88295 2.33-0.94113 3.2806-1.1475 5.777-1.881 3.4362-0.3159 3.9286-0.69238 7.3232 0.33986 1.2 0.36491 4.5204 2.1532 3.4543 1.4924-15.951-9.8855-7.8151-4.4286-4.1369-0.31899 5.3026 7.93 12.749 13.172 22.94 14.679 0.93125 0.0758 1.8782 0.0411 2.7938 0.22731 2.9719 0.60434 7.1462 3.1955 5.3746 2.1451-18.199-10.791-10.561-6.2938-6.7991-3.1638 4.8523 2.6556 9.5604 5.5938 14.557 7.9668 0.8465 0.40204 1.8762 0.10575 2.7978 0.27565 1.1242 0.20723 2.2301 0.51302 3.3216 0.85246 4.2161 1.3111 8.0944 3.3588 12.047 5.2895 3.9969 1.9184 7.912 4.5643 12.483 4.7879 1.5987 0.0782 6.9792-0.32869 8.4281-0.42481 1.4625-0.11344 2.925-0.22687 4.3875-0.3403 0 0-11.33-8.1006-11.33-8.1006l-4.3462 0.32523c-3.0523 0.10322-5.5086 0.32142-8.535-0.077-4.3213-0.56896-8.0607-3.105-11.956-4.839-2.3017-1.0987-5.9659-2.8956-8.3186-3.8196-5.2887-2.0771-23.416-6.8808 0.01 3.5927-7.442-6.5431-16.478-12.22-26.429-13.397-6.5843-1.5339-2.346-0.81778 7.939 5.7782 0.5629 0.36101-1.2541-0.48902-1.8177-0.84894-2.0106-1.284-3.0345-3.5141-4.4252-5.3534-5.7552-7.0126-10.685-8.896-20.069-13.927-2.077-1.1136-5.2121-1.6568-7.5318-1.6366-1.3014 0.0113-2.5842 0.31138-3.8763 0.46708-2.0496 0.55385-4.0749 1.1987-6.1361 1.7072-0.56702 0.13988-2.1898-0.0427-1.7244 0.31012 3.5612 2.6992 7.5996 4.7031 11.413 7.0331 0.47848 0.29239-1.0136-0.52175-1.4085-0.9199-0.54364-0.54818-0.90786-1.249-1.3618-1.8735-2.2661-4.395-4.4146-8.8816-7.2104-12.974-0.77948-1.1409-1.3373-2.5279-2.4553-3.3398-4.7619-3.458-9.993-6.2189-14.99-9.3283-1.1756-0.51426-2.2988-1.171-3.527-1.5428-4.7277-1.4309-9.7549-0.24074-13.147 3.3513z" filter="url(#filter1621)" style="mix-blend-mode:normal"/>
   <path d="m1030.8 542.29c12.037-0.66161 24.065-0.67938 36.081 0.27185 4.7218 0.84763 7.2272 1.0017 11.584 2.8442 1.4354 0.607 5.4947 2.9417 4.0983 2.2497-13.193-6.5377-9.4881-6.0372-5.1985-0.25154 1.7955 2.7387 2.4472 6.0664 4.7558 8.4477 2.3176 1.0851 4.7429 5.0748 6.6085 6.235 4.3972 2.7346 8.9144 5.2714 13.372 7.9071 5.1416-1.1828 9.6083 0.16582 14.372 2.1301 4.4474 1.9884 8.5103 4.9298 13.184 6.4179 2.7807 0.88538 4.5292 0.99384 7.4598 1.4062 11.498 1.4036 21.796 6.6177 31.899 11.941 5.6755 3.4923 10.939 5.0639 17.493 5.2827 5.1474 0.77258 10.212 1.9647 15.387 2.6528 0.8555 0.16276 1.7109 0.32551 2.5664 0.48826l-11.498-8.6723c-0.8736-0.15021-1.7472-0.30041-2.6208-0.45061-5.1807-0.72449-10.244-2.0852-15.454-2.5548-5.9665-0.43865-11.358-2.1975-16.531-5.2955-10.315-5.2414-20.829-10.238-32.431-11.806-3.3742-0.64607-4.336-0.67978-7.4564-1.812-4.5387-1.6469-8.5771-4.4204-13.03-6.2604-3.1552-1.1764-4.1406-1.7332-7.4013-2.255-2.2441-0.35911-4.5037 0.18443-6.7087-0.20789-0.2884-0.0513-0.5369-0.23447-0.8054-0.35171 26.874 16.004 13.767 9.1256 10.733 6.0982-1.7923-1.7884-3.334-3.8329-5.4303-5.309-2.8617-2.1636-3.6524-5.2188-5.2972-8.3224-5.2361-7.5819-8.4915-8.099-18.794-14.132-4.704-2.7544-10.103-3.6395-15.436-4.2194-12.476-0.74199-24.967-0.66467-37.453-1.1562z" filter="url(#filter1622)" style="mix-blend-mode:normal"/>
   <path d="m941.19 353.99c4.4499 1.2659 15.068 3.8516-4.9702-3.8657-1.0905-0.41998 1.7324 1.5803 2.4769 2.481 1.925 2.3292 2.0137 2.9962 3.1465 5.6105 2.0862 7.7368-0.0892 5.1604 14.296 11.213 0.01 4e-3 3.7281-3.7305 5.2252-5.1738 2.7082-1.9395 6.2373-6.1414 10.052-4.9623 0.79964 0.24714 2.8704 1.717 2.1221 1.3421-3.4668-1.7367-6.8576-3.6214-10.286-5.432 4.1293 4.1591 4.7048 10.22 7.5308 15.121 4.6241 2.7226 8.968 5.9901 13.872 8.1679 0.78168 0.34713 1.5992-0.60883 2.3839-0.94901 5.1444-2.2301 10.095-4.8163 15.291-6.9435 4.5061-2.0732 8.775-2.1345 13.209-3.2e-4 0.826 0.39756 3.2297 1.7359 2.4288 1.2899-3.4846-1.9405-6.9868-3.8491-10.48-5.7737 5.1492 4.652 8.3536 5.9626 16.518 9.8663 0.6889 0.3294 3.5264-0.76733 4.2809-0.94472 2.7837-1.362 5.2818 1.2032 7.1062-0.92512 0.4508-1.3296 0.1657-1.8471-0.634-2.8732l-13.9-5.4893c0.6444 0.17996 1.1212 0.59687 1.7491 0.50933-2.1941-0.44385-4.3388-0.30984-6.5168 0.31749-0.852 0.17633-1.936 0.43944-2.811 0.46181-0.3711 9e-3 -1.419-0.31498-1.108-0.11222 21.193 13.819 12.778 8.4014 8.9234 4.5805-11.972-7.1912-17.48-14.083-30.635-8.834-4.1014 1.7371-8.1187 3.7171-12.253 5.3701-1.0672 0.42667-2.1343 0.88026-3.2535 1.1415-0.62156 0.14507-2.4246-0.31801-1.9137 0.0645 3.5373 2.6485 7.5246 4.6356 11.287 6.9534-3.8416-4.4105-3.66-11.076-7.569-15.543-14.836-9.2101-15.581-14.328-27.764-4.0486-0.78752 0.70156-3.1149 2.8206-4.0907 3.5346-0.26346 0.1928-1.1336 0.2607-0.86894 0.45185 15.128 10.927 12.761 11.107 10.998 3.7072-4.0986-10.597-14.492-17.77-25.888-19.065z" filter="url(#filter1623)" style="mix-blend-mode:normal"/>
   <path d="m1042.2 372.09c0.3432 3.651-0.2168 7.3648 0.2369 10.997 5.4829 21.78 13.844 6.3333 18.343 3.0632 0.6852-0.49802 1.4549-0.86793 2.1824-1.3019 4.8807-2.0821 9.1626 0.29428 13.768 1.5899 1.0257 0.53551 2.2481 0.0584 3.3013 0.29008 0.6819 0.15001 1.5553 0.85061 2.0683 1.2035-3.6876-2.0146-7.3752-4.0292-11.063-6.0437 3.6447 4.337 12.502 21.588 18.727 13.475 1.1848-2.7613 3.1582-4.9902 6.0227-2.9772-20.076-15.239-9.6919-3.9757-5.1972 0.21072 4.931 3.5698 10.404 6.7241 15.904 9.1233 0.4657 0.20316 1.1936 0.73742 1.4894 0.32428 0.3834-0.53552 0.4984-1.2193 0.7476-1.829l-13.768-6.0846c0.3674-0.41728 0.8351-0.76427 1.1023-1.2519 0.2016-0.3677-0.7717-0.32866-1.1507-0.50798-0.3748-0.17732-1.4861-0.73164-1.1309-0.51794 8.9509 5.3838 15.873 9.1532 10.587 6.264-7.4529-4.9325-7.7644-14.694-20.251-14.907-3.4072-0.6054-5.6366 1.4888-7.2004 4.3928 2.3536-4.6036-0.1467-0.0293 12.304 6.9738 0.3934 0.22123-0.6161-0.66436-0.8688-1.0382-1.2304-1.8205-1.0598-2.1156-2.2849-4.104-0.4244-0.68885-0.9366-1.3196-1.4048-1.9795-9.6382-6.0191-11.302-8.7018-19.652-10.071-4.7689-1.5697-9.5094-2.7887-14.318-0.4592-0.6635 0.41456-6.9707 5.036-6.6597 5.2554 10.608 7.4846 17.401 7.1168 11.843 7.323-1.4121-3.1741-0.037-7.2436-0.3605-10.628z" filter="url(#filter1624)" style="mix-blend-mode:normal"/>
   <path d="m1138.3 410.95c0.4327 0.13977 0.8945 0.20993 1.2982 0.4193 0.6255 0.32445 2.3913 1.4848 1.7619 1.168-3.4483-1.7358-6.6401-4.0095-10.23-5.4304-1.0634-0.42095 1.6751 1.5584 2.4858 2.3652 0.979 0.97423 1.9215 1.9845 2.8823 2.9767 0.9888 0.9763 1.9776 1.9526 2.9663 2.9289 8.4147 5.9357 17.513 15.981 28.417 13.567 2.8295-0.9503 5.6442-1.8401 8.6003-2.2836 2.4542 0.27742 4.1423-0.83767 6.3086-1.6205 4.5374-1.2228 9.1335-0.0832 13.677 0.46503 0.7945 0.2024 1.6053 0.34922 2.3835 0.60719 2.8638 0.94928 5.7667 2.8256 4.867 2.3318-16.381-8.9919-11.24-6.5049-6.3363-2.296 5.4176 3.8558 6.4897 4.7488 16.252 8.4823 0.4899 0.18733 5.0413-2.144 5.071-2.1568 3.2954-1.4326 4.0435-1.5531 7.5916-2.6574 3.7802-0.9892 7.2121-1.1475 10.9 0.18977 0.9688 0.35125 3.7061 1.7939 2.8178 1.2716-12.565-7.3887-12.955-7.892-8.5999-4.2643 1.8715 1.7321 3.0914 3.9976 4.7054 5.9422 6.1293 4.7516 13.208 7.024 19.789 10.568 2.6641 1.1237 3.9936 3.6566 6.3541 1.2467 1.8356-2.4044 4.415-2.822 7.1328-1.7712 7.7911 5.2838-14.536-10.247-8.0722-3.6218l13.597 5.7126c-4.4444-5.2899-10.932-8.445-17.271-11.07-3.1316-0.41056-5.8998 0.34708-8.0401 2.7785-1.5052 0.39072-3.6714-2.3199-5.1977-2.5456-0.8673-0.48775-2.13-1.2463-3.0837-1.604-0.8056-0.30214-3.2235-1.1255-2.4919-0.67278 9.2262 5.7092 16.24 9.041 11.118 6.5884-2.2524-1.2982-2.9809-4.3161-4.9413-6.0023-4.9645-4.793-14.907-11.541-22.814-11.925-2.8047-0.13633-4.9874 0.54139-7.7017 1.1354-3.5798 1.0952-7.0559 2.674-10.635 3.7109-0.6741 0.19527-2.6252-0.11234-2.0795 0.32886 1.9631 1.587 16.26 9.9754 9.2004 5.8225-1.3615-1.0915-2.4754-2.4992-3.9421-3.4446-6.9533-4.4818-14.005-9.8795-22.327-11.452-4.7358-0.62634-9.6016-1.3885-14.282-1e-3 -2.0275 0.8226-3.9104 1.3348-6.1396 1.3869-2.8984 0.58111-5.6522 1.5962-8.5008 2.3618-1.5695 0.21004-2.18 0.4277-3.8151 0.028-0.7991-0.19536-2.9963-1.3211-2.311-0.86598 19.186 12.742 7.065 3.8274 3.0354 1.1937-7.5046-7.239-15.57-17.963-26.761-18.278z" filter="url(#filter1625)" style="mix-blend-mode:normal"/>
   <path d="m938.42 386.47c8.5371-0.70451 12.825 0.20306 20.687 3.8312-2.239-1.1766-4.2603-4.1312-6.7172-3.53-2.018 0.4939 3.2434 2.602 4.7757 4.0051 3.7516 3.4351 6.7382 7.5301 10.312 11.121 22.839 13.806 7.518 4.2969 24.404 4.6156 6.2131 1.1425 12.53 2.38 18.512 4.4553 0.8396 0.35421 1.6965 0.67032 2.519 1.0626 11.408 5.4409-17.236-9.5035-3.9553-1.8834 4.6871 2.6894 9.4058 5.3232 14.109 7.9848 3.9836 1.2595 8.4244-0.26649 12.484-0.79808 4.5379-0.33807 8.5528 1.8045 12.718 3.178 2.5078 0.77378 5.2161 0.72648 7.8241 0.86452l-11.953-8.7802c-2.5606-0.13275-5.1565-0.26397-7.5759-1.2007-4.1594-1.5188-8.4164-2.9612-12.923-2.4807-3.9998 0.51872-8.3413 1.8229-12.154-0.0189 3.7449 2.1988 7.4826 4.4102 11.235 6.5965 0.5418 0.31569-1.072-0.65084-1.6031-0.98431-0.6878-0.43198-1.3572-0.89356-2.0535-1.312-6.6701-4.0085-12.942-8.546-20.249-11.201-6.0744-1.7898-12.314-3.2106-18.602-3.9575-3.343 0.0658-5.7631 0.23347-8.7752 1.6927-5.5348 2.6814-5.2304-1.0707 9.6674 7.7236-2.7179-2.1845-4.7389-4.8313-7.1076-7.3855-7.6082-8.2041-15.147-13.57-25.904-18.492-8.0541-3.4284-13.169-4.1728-21.767-3.8918z" filter="url(#filter1626)" style="mix-blend-mode:normal"/>
   <path d="m1085.9 430.93c3.64 0.89883 14.401 3.6911-8.7443-5.0643-1.1957-0.45231 1.9398 1.6737 2.809 2.6112 3.0171 3.2543 5.0481 7.1398 7.1174 11.018 2.536 6.0684 9.768 26.036 20.282 14.079 3.1146-3.2338 7.7128-7.6969 12.73-6.0668 0.835 0.2713 1.5235 0.87311 2.2853 1.3097-3.4815-1.9161-6.8839-3.9837-10.445-5.7483-1.0543-0.52248 1.7036 1.6733 2.7473 2.2166 4.5907 2.3894 9.1048 4.9595 13.875 6.9663 0.6366 0.26782 1.0177-0.9341 1.5328-1.3942 0.218-0.19514 0.3615-0.5932 0.654-0.58542 0.2625 7e-3 0.7244 0.73617 0.491 0.61589-3.9777-2.05-7.823-4.3489-11.782-6.4349-1.9087-1.0057 2.0508 1.5796 3.0621 2.5494 11.804 12.2 11.635 7.5695 20.93 5.5726 3.5654-0.55412 7.0007-0.73821 10.175-2.5698 0.3342-0.20563 1.9952-1.3137 2.4483-1.0058 0.1712 0.11639 0.3298 0.70096 0.147 0.60359-4.2447-2.2613-8.3396-4.793-12.509-7.1895 1.6242 2.7614 0.9975 7.2479 1.0353 10.41 0.051 11.747-3.1843 7.1048 13.143 13.906 0.541-4.3339 2.2605-8.0401 7.2151-7.2816 4.6689 1.6493 14.084 6.9174-6.647-4.26-1.1738-0.63288 2.2241 1.6245 4.0587 3.5924 4.9723 4.9518 11.306 9.0521 18.307 9.9868l-11.88-8.9492c-0.8236-0.17985-3.1431-1.1595-2.4249-0.71816 20.845 12.808 13.788 8.5721 9.6638 5.4273-5.8804-6.7847-14.172-11.97-22.966-13.731-5.3732 0.61818-7.5635 4.1528-8.5889 9.1841 16.592 9.9934 13.087 11.398 13.17-0.51811-0.01-3.763 0.03-7.5364-0.2063-11.292-8.1517-4.8644-10.319-10.624-16.479-6.305-2.9963 1.6636-6.4327 1.5753-9.7099 2.3464-1.9437 0.43193-3.8056 1.1239-5.7261 1.581-0.2809 0.0668-1.1092-0.10184-0.8646 0.0514 10.681 6.6922 16.843 8.3758 11.469 6.8497-4.6659-4.7592-12.852-14.495-18.863-9.759-4.3473 3.3894-7.1744-3.315 11.125 7.6752 0.4235 0.25433-0.9549-0.31067-1.3545-0.60105-0.6134-0.44574-0.9996-1.1708-1.6408-1.5755-4.7905-3.0237-9.7401-5.7879-14.61-8.6818-7.1464-2.3331-11.085 1.4226-16.072 6.1628-5.215 4.4829-2.0736 0.88371 10.369 8.8018 0.3452 0.21964-0.853-0.18236-1.1268-0.48628-2.1597-2.3968-2.0613-6.3612-4.0116-8.885-5.3409-10.179-12.992-22.851-26.552-22.801z" filter="url(#filter1627)" style="mix-blend-mode:normal"/>
   <path d="m1201.6 467.64c7.0819-3.7497 15.011-6.5214 23.008-7.3698 6.6659-0.24643 14.689 4.5433-6.316-5.761-0.3715-0.18224 0.5211 0.65839 0.6721 1.0436 0.2264 0.57769 0.2968 1.2049 0.4452 1.8074 0.5836 5.5787 0.5748 11.227 0.2405 16.823-0.041 0.14457-0.2556 0.36522-0.1219 0.43372 20.841 10.682 12.036 10.419 13.457 3.8378 0.3135-1.4523-0.015-1.1872 0.9004-1.4765 3.9219 3.8848 0.2368 0.10481-11.014-5.6808-0.5106-0.26258 0.914 0.69526 1.3625 1.0537 1.1578 0.92518 2.2551 1.9001 3.4409 2.7902 4.7002 2.6196 9.325 5.3792 14.1 7.8589 1.3538 0.70293 4.725 1.0842 6.3658 1.7633 1.8948 0.78426 3.7097 1.7523 5.6008 2.5455 3.4464 1.399 6.381 3.3278 8.7755-0.42861l-12.898-7.5132c-1.4485 2.3525-5.5245-0.5776-7.2521-1.0479-5.9269-2.5958-25.772-10.069-0.8523 2.2131-6.5242-3.565-11.96-13.888-20.289-11.492-6.5628 7.2528 5.9686 9.6165 11.646 12.468 0.1779 0.0893-0.044-0.39562-0.066-0.59344-0.1366-5.6928 0.028-11.388-0.1562-17.08-0.9534-9.9867-11.57-12.913-19.889-11.921-8.1032 1.4259-15.973 4.2915-23.47 7.6277z" filter="url(#filter1628)" style="mix-blend-mode:normal"/>
  </g>
 </g>
</svg>
