<?xml version="1.0" encoding="UTF-8" standalone="no"?>
<!-- Created with Inkscape (http://www.inkscape.org/) -->

<svg
   width="724.28625"
   height="704.99036"
   viewBox="0 0 724.28625 704.99036"
   version="1.1"
   id="svg1"
   xmlns="http://www.w3.org/2000/svg"
   xmlns:svg="http://www.w3.org/2000/svg">
  <defs
     id="defs1" />
  <g
     id="layer1"
     transform="translate(-601.08911,-311.35262)"
     style="display:inline">
    <path
       style="fill:#a09f99;fill-opacity:1;stroke:none;stroke-width:3;stroke-linejoin:bevel;stroke-opacity:1"
       d="m 611.25876,855.78064 9.56519,19.96432 432.02645,130.48194 262.4558,-567.61906 -3.7459,-19.61884 -262.7099,567.37594 z"
       id="path2" />
    <path
       style="fill:#41250a;fill-opacity:1;stroke:#846421;stroke-width:4;stroke-linejoin:round;stroke-dasharray:none;stroke-opacity:1"
       d="M 603.089,852.76138 897.76602,313.35259 1313.5603,416.989 1048.8504,986.36494 Z"
       id="path89" />
    <path
       style="fill:#381209;fill-opacity:1;stroke:#866622;stroke-width:4;stroke-linejoin:round;stroke-dasharray:none;stroke-opacity:1"
       d="m 1194.8285,387.3952 55.8957,164.75079 62.8361,-135.15699 z"
       id="path90" />
    <path
       style="fill:#381209;fill-opacity:1;stroke:#866622;stroke-width:4;stroke-linejoin:round;stroke-dasharray:none;stroke-opacity:1"
       d="m 924.27291,949.02659 187.83649,-98.72826 -63.259,136.06661 z"
       id="path91" />
    <path
       style="fill:#41250a;fill-opacity:1;stroke:#71571d;stroke-width:4;stroke-linejoin:round;stroke-dasharray:none;stroke-opacity:1"
       d="m 620.82395,875.74496 -9.56519,-19.96432 -8.16976,-3.01926 12.74042,27.9781 440.76688,133.60352 266.7792,-581.76404 -8.29,-2.42802 1.3243,4.47034 -263.5594,571.60562 z"
       id="path94" />
    <path
       style="fill:#2b0d06;fill-opacity:1;stroke:#856421;stroke-width:4;stroke-linejoin:round;stroke-dasharray:none;stroke-opacity:1"
       d="M 634.10863,861.58593 929.49911,321.14163 897.76602,313.35259 603.089,852.76138 Z"
       id="path92" />
    <path
       style="fill:#381209;fill-opacity:1;stroke:#856421;stroke-width:4;stroke-linejoin:round;stroke-dasharray:none;stroke-opacity:1"
       d="m 1003.8963,339.40275 -74.39719,-18.26112 -295.39048,540.4443 85.74601,26.17244 z"
       id="path93" />
    <path
       d="m 865.12196,256.6373 q 1.248,0 2.592,0.048 1.344,0.048 2.592,0.048 1.344,0 2.688,0 1.344,-0.048 2.688,-0.096 l -5.328,-12.192 z m 21.264,14.928 q -0.672,-0.096 -1.296,-0.096 -0.576,0 -1.248,0 -0.672,0 -1.296,0 -0.576,0 -1.248,0.096 -0.336,-1.104 -0.912,-2.64 -0.576,-1.584 -1.296,-3.264 -0.672,-1.728 -1.392,-3.456 -0.72,-1.776 -1.344,-3.36 -1.536,-0.048 -3.12,-0.048 -1.584,-0.048 -3.168,-0.048 -1.488,0 -2.928,0.048 -1.44,0 -2.928,0.048 -1.536,3.744 -2.784,7.152 -1.248,3.36 -1.872,5.568 -0.816,-0.096 -1.776,-0.096 -0.96,0 -1.776,0.096 3.888,-8.4 7.584,-16.704 3.696,-8.304 7.44,-16.896 h 0.912 q 1.152,2.784 2.496,6.048 1.344,3.216 2.736,6.528 1.392,3.312 2.784,6.576 1.392,3.264 2.592,6.096 1.248,2.784 2.208,4.992 1.008,2.208 1.632,3.36 z m 28.89596,-1.968 q -0.432,0.384 -1.392,0.864 -0.912,0.432 -2.256,0.816 -1.296,0.336 -2.928,0.624 -1.632,0.288 -3.408,0.288 -3.792,0 -7.008,-1.056 -3.216,-1.104 -5.568,-3.312 -2.304,-2.208 -3.648,-5.376 -1.296,-3.216 -1.296,-7.296 0,-4.08 1.296,-7.248 1.344,-3.216 3.696,-5.424 2.4,-2.208 5.712,-3.36 3.312,-1.152 7.296,-1.152 3.168,0 5.76,0.672 2.64,0.624 4.656,1.536 -0.384,0.672 -0.624,1.824 -0.24,1.152 -0.384,1.92 l -0.288,0.096 q -0.48,-0.576 -1.344,-1.296 -0.864,-0.72 -2.016,-1.392 -1.152,-0.672 -2.592,-1.104 -1.44,-0.48 -3.168,-0.48 -2.832,0 -5.28,0.912 -2.4,0.912 -4.224,2.832 -1.776,1.872 -2.784,4.8 -1.008,2.88 -1.008,6.864 0,3.984 1.008,6.912 1.008,2.88 2.784,4.8 1.824,1.872 4.224,2.784 2.448,0.912 5.28,0.912 1.728,0 3.168,-0.432 1.488,-0.432 2.688,-1.008 1.248,-0.624 2.208,-1.296 1.008,-0.72 1.68,-1.248 l 0.192,0.192 z m 32.01599,0 q -0.432,0.384 -1.392,0.864 -0.912,0.432 -2.256,0.816 -1.296,0.336 -2.928,0.624 -1.632,0.288 -3.408,0.288 -3.792,0 -7.008,-1.056 -3.216,-1.104 -5.568,-3.312 -2.304,-2.208 -3.648,-5.376 -1.296,-3.216 -1.296,-7.296 0,-4.08 1.296,-7.248 1.344,-3.216 3.696,-5.424 2.4,-2.208 5.712,-3.36 3.312,-1.152 7.296,-1.152 3.168,0 5.76,0.672 2.64,0.624 4.656,1.536 -0.384,0.672 -0.624,1.824 -0.24,1.152 -0.384,1.92 l -0.288,0.096 q -0.48,-0.576 -1.344,-1.296 -0.864,-0.72 -2.016,-1.392 -1.152,-0.672 -2.592,-1.104 -1.44,-0.48 -3.168,-0.48 -2.832,0 -5.28,0.912 -2.4,0.912 -4.224,2.832 -1.776,1.872 -2.784,4.8 -1.008,2.88 -1.008,6.864 0,3.984 1.008,6.912 1.008,2.88 2.784,4.8 1.824,1.872 4.224,2.784 2.448,0.912 5.28,0.912 1.728,0 3.168,-0.432 1.488,-0.432 2.688,-1.008 1.248,-0.624 2.208,-1.296 1.008,-0.72 1.68,-1.248 l 0.192,0.192 z m 4.51199,-14.448 q 0,-4.08 1.296,-7.248 1.344,-3.216 3.696,-5.424 2.4,-2.208 5.712,-3.36 3.312,-1.152 7.248,-1.152 3.984,0 7.296,1.152 3.312,1.152 5.664,3.36 2.4,2.208 3.696,5.424 1.344,3.168 1.344,7.248 0,4.08 -1.344,7.296 -1.296,3.168 -3.696,5.376 -2.352,2.208 -5.664,3.312 -3.312,1.056 -7.296,1.056 -3.936,0 -7.248,-1.056 -3.312,-1.104 -5.712,-3.312 -2.352,-2.208 -3.696,-5.376 -1.296,-3.216 -1.296,-7.296 z m 31.248,0 q 0,-3.984 -1.008,-6.864 -1.008,-2.928 -2.832,-4.8 -1.776,-1.92 -4.224,-2.832 -2.4,-0.912 -5.232,-0.912 -2.784,0 -5.232,0.912 -2.4,0.912 -4.224,2.832 -1.776,1.872 -2.784,4.8 -1.008,2.88 -1.008,6.864 0,3.984 1.008,6.912 1.008,2.88 2.784,4.8 1.824,1.872 4.224,2.784 2.448,0.912 5.232,0.912 2.832,0 5.232,-0.912 2.448,-0.912 4.224,-2.784 1.824,-1.92 2.832,-4.8 1.008,-2.928 1.008,-6.912 z m 36.432,-0.96 q 0,-6.816 -0.048,-10.512 -0.048,-3.696 -0.24,-5.088 0.528,0.096 1.008,0.192 0.48,0.048 0.96,0.048 0.624,0 1.44,-0.24 -0.144,1.68 -0.288,4.032 -0.144,2.304 -0.24,4.992 -0.096,2.64 -0.192,5.472 -0.096,2.784 -0.144,5.424 -0.048,3.216 -1.008,5.76 -0.912,2.544 -2.64,4.32 -1.728,1.776 -4.272,2.688 -2.496,0.912 -5.76,0.912 -7.2,0 -10.46399,-3.264 -3.264,-3.264 -3.264,-10.32 0,-2.256 0.096,-3.984 0.144,-1.776 0.144,-3.6 0,-4.032 -0.096,-7.152 -0.096,-3.12 -0.192,-5.28 0.576,0.096 1.248,0.192 0.672,0.048 1.248,0.048 0.528,0 1.008,-0.048 0.528,-0.096 1.056,-0.192 -0.096,1.056 -0.192,2.784 -0.096,1.68 -0.192,3.84 -0.096,2.16 -0.144,4.656 -0.048,2.496 -0.048,5.184 0,1.632 0.048,3.408 0.048,1.728 0.336,3.408 0.288,1.632 0.912,3.168 0.67199,1.488 1.87199,2.64 1.2,1.104 3.024,1.776 1.824,0.624 4.512,0.624 2.64,0 4.416,-0.768 1.824,-0.768 2.976,-2.016 1.152,-1.248 1.776,-2.88 0.672,-1.632 0.96,-3.408 0.288,-1.776 0.336,-3.552 0.048,-1.776 0.048,-3.264 z m 39.36,18 q -5.52,-6.384 -11.76,-13.056 -6.24,-6.72 -12.48,-13.344 -0.048,1.344 -0.096,3.6 -0.048,2.256 -0.048,6.144 0,1.008 0,2.496 0.048,1.488 0.048,3.12 0.048,1.632 0.096,3.312 0.048,1.68 0.096,3.12 0.048,1.44 0.096,2.544 0.048,1.056 0.096,1.44 -0.768,-0.096 -1.68,-0.096 -0.96,0 -1.776,0.096 0.096,-0.48 0.192,-1.776 0.144,-1.296 0.24,-3.072 0.096,-1.824 0.192,-3.936 0.144,-2.112 0.192,-4.224 0.096,-2.112 0.144,-4.128 0.048,-2.016 0.048,-3.6 0,-4.608 -0.048,-7.92 0,-3.312 -0.096,-4.944 h 0.768 q 2.928,3.168 6.24,6.816 3.36,3.6 6.624,7.152 3.312,3.504 6.24,6.672 2.976,3.12 5.184,5.328 v -6.528 q 0,-5.04 -0.096,-9.792 -0.048,-4.8 -0.288,-9.024 0.96,0.24 1.632,0.24 0.576,0 1.536,-0.24 -0.096,1.056 -0.24,3.168 -0.096,2.112 -0.24,4.512 -0.096,2.4 -0.192,4.704 -0.096,2.304 -0.096,3.696 0,1.2 0,2.88 0,1.632 0,3.408 0.048,1.776 0.048,3.6 0.048,1.776 0.048,3.36 0.048,1.536 0.048,2.688 0,1.056 0,1.584 z m 16.992,-21.168 q 0,-4.992 -0.144,-9.936 -1.248,0 -2.64,0.048 -1.344,0 -2.736,0.096 -1.344,0.048 -2.64,0.144 -1.248,0.096 -2.256,0.24 0.24,-0.864 0.24,-1.536 0,-0.528 -0.24,-1.488 3.168,0.096 6.192,0.192 3.024,0.048 6.192,0.048 3.168,0 6.192,-0.048 3.024,-0.096 6.192,-0.192 -0.24,0.96 -0.24,1.536 0,0.624 0.24,1.488 -1.008,-0.144 -2.304,-0.24 -1.248,-0.096 -2.64,-0.144 -1.344,-0.096 -2.736,-0.096 -1.344,-0.048 -2.592,-0.048 -0.144,4.944 -0.144,9.936 v 8.256 q 0,3.168 0.096,6.24 0.144,3.072 0.288,6.048 -1.104,-0.096 -2.352,-0.096 -1.248,0 -2.352,0.096 0.144,-2.976 0.24,-6.048 0.144,-3.072 0.144,-6.24 z m 18.96,14.304 q 0.384,0.864 1.008,1.776 0.672,0.864 1.584,1.584 0.96,0.72 2.208,1.2 1.248,0.432 2.784,0.432 1.584,0 2.832,-0.528 1.296,-0.576 2.16,-1.488 0.912,-0.96 1.392,-2.208 0.48,-1.296 0.48,-2.736 0,-2.208 -1.152,-3.504 -1.104,-1.296 -2.784,-2.16 -1.68,-0.864 -3.648,-1.584 -1.92,-0.72 -3.6,-1.776 -1.68,-1.104 -2.832,-2.784 -1.104,-1.68 -1.104,-4.512 0,-2.016 0.72,-3.648 0.72,-1.68 2.064,-2.88 1.392,-1.2 3.312,-1.872 1.92,-0.672 4.32,-0.672 2.304,0 3.984,0.576 1.68,0.528 3.12,1.68 -0.432,0.816 -0.72,1.728 -0.288,0.912 -0.576,2.304 h -0.576 q -0.24,-0.672 -0.672,-1.44 -0.384,-0.816 -1.104,-1.488 -0.672,-0.672 -1.632,-1.104 -0.96,-0.48 -2.304,-0.48 -1.344,0 -2.496,0.432 -1.104,0.432 -1.968,1.248 -0.816,0.768 -1.296,1.872 -0.432,1.104 -0.432,2.4 0,2.256 1.104,3.552 1.152,1.296 2.832,2.208 1.68,0.864 3.6,1.584 1.968,0.672 3.648,1.68 1.68,1.008 2.784,2.592 1.152,1.584 1.152,4.224 0,2.208 -0.816,4.176 -0.768,1.968 -2.304,3.456 -1.488,1.44 -3.696,2.256 -2.16,0.768 -4.944,0.768 -2.976,0 -4.848,-0.768 -1.824,-0.816 -3.072,-1.824 0.432,-1.104 0.576,-1.968 0.192,-0.912 0.336,-2.304 z"
       id="text1638"
       style="font-size:48px;line-height:0px;font-family:Optima;-inkscape-font-specification:'Optima, Normal';text-align:center;white-space:pre;fill:#887151;stroke:#d2aa2e;stroke-width:2;stroke-linejoin:round"
       transform="matrix(0.89140058,0.22225007,-0.55835135,0.98261813,346.59095,13.792622)"
       aria-label="ACCOUNTS" />
  </g>
</svg>
