<?xml version="1.0" encoding="UTF-8"?>
<svg width="724.29" height="704.99" version="1.1" viewBox="0 0 724.29 704.99" xmlns="http://www.w3.org/2000/svg">
 <g transform="translate(-601.09 -311.35)">
  <path d="m611.26 855.78 9.5652 19.964 432.03 130.48 262.46-567.62-3.7459-19.619-262.71 567.38z" fill="#a09f99"/>
  <path d="m603.09 852.76 294.68-539.41 415.79 103.64-264.71 569.38z" fill="#41250a" stroke="#846421" stroke-linejoin="round" stroke-width="4"/>
  <path d="m1194.8 387.4 55.896 164.75 62.836-135.16z" fill="#381209" stroke="#866622" stroke-linejoin="round" stroke-width="4"/>
  <path d="m924.27 949.03 187.84-98.728-63.259 136.07z" fill="#381209" stroke="#866622" stroke-linejoin="round" stroke-width="4"/>
  <path d="m620.82 875.74-9.5652-19.964-8.1698-3.0193 12.74 27.978 440.77 133.6 266.78-581.76-8.29-2.428 1.3243 4.4703-263.56 571.61z" fill="#41250a" stroke="#71571d" stroke-linejoin="round" stroke-width="4"/>
  <path d="m634.11 861.59 295.39-540.44-31.733-7.789-294.68 539.41z" fill="#2b0d06" stroke="#856421" stroke-linejoin="round" stroke-width="4"/>
  <path d="m1003.9 339.4-74.397-18.261-295.39 540.44 85.746 26.172z" fill="#381209" stroke="#856421" stroke-linejoin="round" stroke-width="4"/>
  <path transform="matrix(.8914 .22225 -.55835 .98262 346.59 13.793)" d="m865.12 256.64q1.248 0 2.592 0.048t2.592 0.048q1.344 0 2.688 0 1.344-0.048 2.688-0.096l-5.328-12.192zm21.264 14.928q-0.672-0.096-1.296-0.096-0.576 0-1.248 0t-1.296 0q-0.576 0-1.248 0.096-0.336-1.104-0.912-2.64-0.576-1.584-1.296-3.264-0.672-1.728-1.392-3.456-0.72-1.776-1.344-3.36-1.536-0.048-3.12-0.048-1.584-0.048-3.168-0.048-1.488 0-2.928 0.048-1.44 0-2.928 0.048-1.536 3.744-2.784 7.152-1.248 3.36-1.872 5.568-0.816-0.096-1.776-0.096t-1.776 0.096q3.888-8.4 7.584-16.704t7.44-16.896h0.912q1.152 2.784 2.496 6.048 1.344 3.216 2.736 6.528t2.784 6.576 2.592 6.096q1.248 2.784 2.208 4.992 1.008 2.208 1.632 3.36zm28.896-1.968q-0.432 0.384-1.392 0.864-0.912 0.432-2.256 0.816-1.296 0.336-2.928 0.624t-3.408 0.288q-3.792 0-7.008-1.056-3.216-1.104-5.568-3.312-2.304-2.208-3.648-5.376-1.296-3.216-1.296-7.296t1.296-7.248q1.344-3.216 3.696-5.424 2.4-2.208 5.712-3.36t7.296-1.152q3.168 0 5.76 0.672 2.64 0.624 4.656 1.536-0.384 0.672-0.624 1.824t-0.384 1.92l-0.288 0.096q-0.48-0.576-1.344-1.296t-2.016-1.392-2.592-1.104q-1.44-0.48-3.168-0.48-2.832 0-5.28 0.912-2.4 0.912-4.224 2.832-1.776 1.872-2.784 4.8-1.008 2.88-1.008 6.864t1.008 6.912q1.008 2.88 2.784 4.8 1.824 1.872 4.224 2.784 2.448 0.912 5.28 0.912 1.728 0 3.168-0.432 1.488-0.432 2.688-1.008 1.248-0.624 2.208-1.296 1.008-0.72 1.68-1.248l0.192 0.192zm32.016 0q-0.432 0.384-1.392 0.864-0.912 0.432-2.256 0.816-1.296 0.336-2.928 0.624t-3.408 0.288q-3.792 0-7.008-1.056-3.216-1.104-5.568-3.312-2.304-2.208-3.648-5.376-1.296-3.216-1.296-7.296t1.296-7.248q1.344-3.216 3.696-5.424 2.4-2.208 5.712-3.36t7.296-1.152q3.168 0 5.76 0.672 2.64 0.624 4.656 1.536-0.384 0.672-0.624 1.824t-0.384 1.92l-0.288 0.096q-0.48-0.576-1.344-1.296t-2.016-1.392-2.592-1.104q-1.44-0.48-3.168-0.48-2.832 0-5.28 0.912-2.4 0.912-4.224 2.832-1.776 1.872-2.784 4.8-1.008 2.88-1.008 6.864t1.008 6.912q1.008 2.88 2.784 4.8 1.824 1.872 4.224 2.784 2.448 0.912 5.28 0.912 1.728 0 3.168-0.432 1.488-0.432 2.688-1.008 1.248-0.624 2.208-1.296 1.008-0.72 1.68-1.248l0.192 0.192zm4.512-14.448q0-4.08 1.296-7.248 1.344-3.216 3.696-5.424 2.4-2.208 5.712-3.36t7.248-1.152q3.984 0 7.296 1.152t5.664 3.36q2.4 2.208 3.696 5.424 1.344 3.168 1.344 7.248t-1.344 7.296q-1.296 3.168-3.696 5.376-2.352 2.208-5.664 3.312-3.312 1.056-7.296 1.056-3.936 0-7.248-1.056-3.312-1.104-5.712-3.312-2.352-2.208-3.696-5.376-1.296-3.216-1.296-7.296zm31.248 0q0-3.984-1.008-6.864-1.008-2.928-2.832-4.8-1.776-1.92-4.224-2.832-2.4-0.912-5.232-0.912-2.784 0-5.232 0.912-2.4 0.912-4.224 2.832-1.776 1.872-2.784 4.8-1.008 2.88-1.008 6.864t1.008 6.912q1.008 2.88 2.784 4.8 1.824 1.872 4.224 2.784 2.448 0.912 5.232 0.912 2.832 0 5.232-0.912 2.448-0.912 4.224-2.784 1.824-1.92 2.832-4.8 1.008-2.928 1.008-6.912zm36.432-0.96q0-6.816-0.048-10.512t-0.24-5.088q0.528 0.096 1.008 0.192 0.48 0.048 0.96 0.048 0.624 0 1.44-0.24-0.144 1.68-0.288 4.032-0.144 2.304-0.24 4.992-0.096 2.64-0.192 5.472-0.096 2.784-0.144 5.424-0.048 3.216-1.008 5.76-0.912 2.544-2.64 4.32t-4.272 2.688q-2.496 0.912-5.76 0.912-7.2 0-10.464-3.264-3.264-3.264-3.264-10.32 0-2.256 0.096-3.984 0.144-1.776 0.144-3.6 0-4.032-0.096-7.152t-0.192-5.28q0.576 0.096 1.248 0.192 0.672 0.048 1.248 0.048 0.528 0 1.008-0.048 0.528-0.096 1.056-0.192-0.096 1.056-0.192 2.784-0.096 1.68-0.192 3.84t-0.144 4.656-0.048 5.184q0 1.632 0.048 3.408 0.048 1.728 0.336 3.408 0.288 1.632 0.912 3.168 0.67199 1.488 1.872 2.64 1.2 1.104 3.024 1.776 1.824 0.624 4.512 0.624 2.64 0 4.416-0.768 1.824-0.768 2.976-2.016t1.776-2.88q0.672-1.632 0.96-3.408t0.336-3.552 0.048-3.264zm39.36 18q-5.52-6.384-11.76-13.056-6.24-6.72-12.48-13.344-0.048 1.344-0.096 3.6t-0.048 6.144q0 1.008 0 2.496 0.048 1.488 0.048 3.12 0.048 1.632 0.096 3.312t0.096 3.12 0.096 2.544q0.048 1.056 0.096 1.44-0.768-0.096-1.68-0.096-0.96 0-1.776 0.096 0.096-0.48 0.192-1.776 0.144-1.296 0.24-3.072 0.096-1.824 0.192-3.936 0.144-2.112 0.192-4.224 0.096-2.112 0.144-4.128t0.048-3.6q0-4.608-0.048-7.92 0-3.312-0.096-4.944h0.768q2.928 3.168 6.24 6.816 3.36 3.6 6.624 7.152 3.312 3.504 6.24 6.672 2.976 3.12 5.184 5.328v-6.528q0-5.04-0.096-9.792-0.048-4.8-0.288-9.024 0.96 0.24 1.632 0.24 0.576 0 1.536-0.24-0.096 1.056-0.24 3.168-0.096 2.112-0.24 4.512-0.096 2.4-0.192 4.704t-0.096 3.696q0 1.2 0 2.88 0 1.632 0 3.408 0.048 1.776 0.048 3.6 0.048 1.776 0.048 3.36 0.048 1.536 0.048 2.688 0 1.056 0 1.584zm16.992-21.168q0-4.992-0.144-9.936-1.248 0-2.64 0.048-1.344 0-2.736 0.096-1.344 0.048-2.64 0.144-1.248 0.096-2.256 0.24 0.24-0.864 0.24-1.536 0-0.528-0.24-1.488 3.168 0.096 6.192 0.192 3.024 0.048 6.192 0.048t6.192-0.048q3.024-0.096 6.192-0.192-0.24 0.96-0.24 1.536 0 0.624 0.24 1.488-1.008-0.144-2.304-0.24-1.248-0.096-2.64-0.144-1.344-0.096-2.736-0.096-1.344-0.048-2.592-0.048-0.144 4.944-0.144 9.936v8.256q0 3.168 0.096 6.24 0.144 3.072 0.288 6.048-1.104-0.096-2.352-0.096t-2.352 0.096q0.144-2.976 0.24-6.048 0.144-3.072 0.144-6.24zm18.96 14.304q0.384 0.864 1.008 1.776 0.672 0.864 1.584 1.584 0.96 0.72 2.208 1.2 1.248 0.432 2.784 0.432 1.584 0 2.832-0.528 1.296-0.576 2.16-1.488 0.912-0.96 1.392-2.208 0.48-1.296 0.48-2.736 0-2.208-1.152-3.504-1.104-1.296-2.784-2.16t-3.648-1.584q-1.92-0.72-3.6-1.776-1.68-1.104-2.832-2.784-1.104-1.68-1.104-4.512 0-2.016 0.72-3.648 0.72-1.68 2.064-2.88 1.392-1.2 3.312-1.872t4.32-0.672q2.304 0 3.984 0.576 1.68 0.528 3.12 1.68-0.432 0.816-0.72 1.728t-0.576 2.304h-0.576q-0.24-0.672-0.672-1.44-0.384-0.816-1.104-1.488-0.672-0.672-1.632-1.104-0.96-0.48-2.304-0.48t-2.496 0.432q-1.104 0.432-1.968 1.248-0.816 0.768-1.296 1.872-0.432 1.104-0.432 2.4 0 2.256 1.104 3.552 1.152 1.296 2.832 2.208 1.68 0.864 3.6 1.584 1.968 0.672 3.648 1.68t2.784 2.592q1.152 1.584 1.152 4.224 0 2.208-0.816 4.176-0.768 1.968-2.304 3.456-1.488 1.44-3.696 2.256-2.16 0.768-4.944 0.768-2.976 0-4.848-0.768-1.824-0.816-3.072-1.824 0.432-1.104 0.576-1.968 0.192-0.912 0.336-2.304z" fill="#887151" stroke="#d2aa2e" stroke-linejoin="round" stroke-width="2" style="white-space:pre" aria-label="ACCOUNTS"/>
 </g>
</svg>
