<?xml version="1.0" encoding="UTF-8"?>
<svg width="1920" height="1080" version="1.1" viewBox="0 0 1920 1080" xmlns="http://www.w3.org/2000/svg">
 <g>
  <g stroke-linejoin="round">
   <path transform="rotate(2.5541)" d="m1486.5 1014.8-3e-4 -473.36-937.41 2e-4 3.6e-4 515.17" fill="#41250a" stroke="#71571d" stroke-width="5"/>
   <path transform="rotate(2.5541)" d="m1469.6 1015.5 2e-4 -493.37-937.41 2.1e-4 -7e-5 535.19" fill="#41250a" stroke="#866622" stroke-width="5"/>
   <path d="m1198.4 576.12 232.34 328.53 14.164-317.53z" fill="#381209" stroke="#866622" stroke-width="5"/>
   <path d="m690.55 1080 23.441-525.49-205.6-9.1719-23.85 534.66" fill="#381209" stroke="#856421" stroke-width="5"/>
   <path d="m526.57 1080 23.766-532.79-41.945-1.8711-23.85 534.66" fill="#2b0d06" stroke="#866622" stroke-width="5"/>
   <path transform="rotate(2.5541 -1103.4 -376.88)" d="m812.8 731.42q2.6 0 5.4 0.1t5.4 0.1q2.8 0 5.6 0 2.8-0.1 5.6-0.2l-11.1-25.4zm44.3 31.1q-1.4-0.2-2.7-0.2-1.2 0-2.6 0t-2.7 0q-1.2 0-2.6 0.2-0.7-2.3-1.9-5.5-1.2-3.3-2.7-6.8-1.4-3.6-2.9-7.2-1.5-3.7-2.8-7-3.2-0.1-6.5-0.1-3.3-0.1-6.6-0.1-3.1 0-6.1 0.1-3 0-6.1 0.1-3.2 7.8-5.8 14.9-2.6 7-3.9 11.6-1.7-0.2-3.7-0.2t-3.7 0.2q8.1-17.5 15.8-34.8t15.5-35.2h1.9q2.4 5.8 5.2 12.6 2.8 6.7 5.7 13.6t5.8 13.7 5.4 12.7q2.6 5.8 4.6 10.4 2.1 4.6 3.4 7zm60.2-4.1q-0.9 0.8-2.9 1.8-1.9 0.9-4.7 1.7-2.7 0.7-6.1 1.3t-7.1 0.6q-7.9 0-14.6-2.2-6.7-2.3-11.6-6.9-4.8-4.6-7.6-11.2-2.7-6.7-2.7-15.2t2.7-15.1q2.8-6.7 7.7-11.3 5-4.6 11.9-7t15.2-2.4q6.6 0 12 1.4 5.5 1.3 9.7 3.2-0.8 1.4-1.3 3.8t-0.8 4l-0.6 0.2q-1-1.2-2.8-2.7t-4.2-2.9-5.4-2.3q-3-1-6.6-1-5.9 0-11 1.9-5 1.9-8.8 5.9-3.7 3.9-5.8 10-2.1 6-2.1 14.3t2.1 14.4q2.1 6 5.8 10 3.8 3.9 8.8 5.8 5.1 1.9 11 1.9 3.6 0 6.6-0.9 3.1-0.9 5.6-2.1 2.6-1.3 4.6-2.7 2.1-1.5 3.5-2.6l0.4 0.4zm66.7 0q-0.9 0.8-2.9 1.8-1.9 0.9-4.7 1.7-2.7 0.7-6.1 1.3t-7.1 0.6q-7.9 0-14.6-2.2-6.7-2.3-11.6-6.9-4.8-4.6-7.6-11.2-2.7-6.7-2.7-15.2t2.7-15.1q2.8-6.7 7.7-11.3 5-4.6 11.9-7t15.2-2.4q6.6 0 12 1.4 5.5 1.3 9.7 3.2-0.8 1.4-1.3 3.8t-0.8 4l-0.6 0.2q-1-1.2-2.8-2.7t-4.2-2.9-5.4-2.3q-3-1-6.6-1-5.9 0-11 1.9-5 1.9-8.8 5.9-3.7 3.9-5.8 10-2.1 6-2.1 14.3t2.1 14.4q2.1 6 5.8 10 3.8 3.9 8.8 5.8 5.1 1.9 11 1.9 3.6 0 6.6-0.9 3.1-0.9 5.6-2.1 2.6-1.3 4.6-2.7 2.1-1.5 3.5-2.6l0.4 0.4zm9.4-30.1q0-8.5 2.7-15.1 2.8-6.7 7.7-11.3 5-4.6 11.9-7t15.1-2.4q8.3 0 15.2 2.4t11.8 7q5 4.6 7.7 11.3 2.8 6.6 2.8 15.1t-2.8 15.2q-2.7 6.6-7.7 11.2-4.9 4.6-11.8 6.9-6.9 2.2-15.2 2.2-8.2 0-15.1-2.2-6.9-2.3-11.9-6.9-4.9-4.6-7.7-11.2-2.7-6.7-2.7-15.2zm65.1 0q0-8.3-2.1-14.3-2.1-6.1-5.9-10-3.7-4-8.8-5.9-5-1.9-10.9-1.9-5.8 0-10.9 1.9-5 1.9-8.8 5.9-3.7 3.9-5.8 10-2.1 6-2.1 14.3t2.1 14.4q2.1 6 5.8 10 3.8 3.9 8.8 5.8 5.1 1.9 10.9 1.9 5.9 0 10.9-1.9 5.1-1.9 8.8-5.8 3.8-4 5.9-10 2.1-6.1 2.1-14.4zm75.9-2q0-14.2-0.1-21.9t-0.5-10.6q1.1 0.2 2.1 0.4 1 0.1 2 0.1 1.3 0 3-0.5-0.3 3.5-0.6 8.4-0.3 4.8-0.5 10.4-0.2 5.5-0.4 11.4-0.2 5.8-0.3 11.3-0.1 6.7-2.1 12-1.9 5.3-5.5 9t-8.9 5.6q-5.2 1.9-12 1.9-15 0-21.8-6.8t-6.8-21.5q0-4.7 0.2-8.3 0.3-3.7 0.3-7.5 0-8.4-0.2-14.9t-0.4-11q1.2 0.2 2.6 0.4 1.4 0.1 2.6 0.1 1.1 0 2.1-0.1 1.1-0.2 2.2-0.4-0.2 2.2-0.4 5.8-0.2 3.5-0.4 8t-0.3 9.7-0.1 10.8q0 3.4 0.1 7.1 0.1 3.6 0.7 7.1 0.6 3.4 1.9 6.6 1.4 3.1 3.9 5.5 2.5 2.3 6.3 3.7 3.8 1.3 9.4 1.3 5.5 0 9.2-1.6 3.8-1.6 6.2-4.2t3.7-6q1.4-3.4 2-7.1t0.7-7.4 0.1-6.8zm82 37.5q-11.5-13.3-24.5-27.2-13-14-26-27.8-0.1 2.8-0.2 7.5t-0.1 12.8q0 2.1 0 5.2 0.1 3.1 0.1 6.5 0.1 3.4 0.2 6.9t0.2 6.5 0.2 5.3q0.1 2.2 0.2 3-1.6-0.2-3.5-0.2-2 0-3.7 0.2 0.2-1 0.4-3.7 0.3-2.7 0.5-6.4 0.2-3.8 0.4-8.2 0.3-4.4 0.4-8.8 0.2-4.4 0.3-8.6t0.1-7.5q0-9.6-0.1-16.5 0-6.9-0.2-10.3h1.6q6.1 6.6 13 14.2 7 7.5 13.8 14.9 6.9 7.3 13 13.9 6.2 6.5 10.8 11.1v-13.6q0-10.5-0.2-20.4-0.1-10-0.6-18.8 2 0.5 3.4 0.5 1.2 0 3.2-0.5-0.2 2.2-0.5 6.6-0.2 4.4-0.5 9.4-0.2 5-0.4 9.8t-0.2 7.7q0 2.5 0 6 0 3.4 0 7.1 0.1 3.7 0.1 7.5 0.1 3.7 0.1 7 0.1 3.2 0.1 5.6 0 2.2 0 3.3zm35.4-44.1q0-10.4-0.3-20.7-2.6 0-5.5 0.1-2.8 0-5.7 0.2-2.8 0.1-5.5 0.3-2.6 0.2-4.7 0.5 0.5-1.8 0.5-3.2 0-1.1-0.5-3.1 6.6 0.2 12.9 0.4 6.3 0.1 12.9 0.1t12.9-0.1q6.3-0.2 12.9-0.4-0.5 2-0.5 3.2 0 1.3 0.5 3.1-2.1-0.3-4.8-0.5-2.6-0.2-5.5-0.3-2.8-0.2-5.7-0.2-2.8-0.1-5.4-0.1-0.3 10.3-0.3 20.7v17.2q0 6.6 0.2 13 0.3 6.4 0.6 12.6-2.3-0.2-4.9-0.2t-4.9 0.2q0.3-6.2 0.5-12.6 0.3-6.4 0.3-13zm39.5 29.8q0.8 1.8 2.1 3.7 1.4 1.8 3.3 3.3 2 1.5 4.6 2.5 2.6 0.9 5.8 0.9 3.3 0 5.9-1.1 2.7-1.2 4.5-3.1 1.9-2 2.9-4.6 1-2.7 1-5.7 0-4.6-2.4-7.3-2.3-2.7-5.8-4.5t-7.6-3.3q-4-1.5-7.5-3.7-3.5-2.3-5.9-5.8-2.3-3.5-2.3-9.4 0-4.2 1.5-7.6 1.5-3.5 4.3-6 2.9-2.5 6.9-3.9t9-1.4q4.8 0 8.3 1.2 3.5 1.1 6.5 3.5-0.9 1.7-1.5 3.6t-1.2 4.8h-1.2q-0.5-1.4-1.4-3-0.8-1.7-2.3-3.1-1.4-1.4-3.4-2.3-2-1-4.8-1t-5.2 0.9q-2.3 0.9-4.1 2.6-1.7 1.6-2.7 3.9-0.9 2.3-0.9 5 0 4.7 2.3 7.4 2.4 2.7 5.9 4.6 3.5 1.8 7.5 3.3 4.1 1.4 7.6 3.5t5.8 5.4q2.4 3.3 2.4 8.8 0 4.6-1.7 8.7-1.6 4.1-4.8 7.2-3.1 3-7.7 4.7-4.5 1.6-10.3 1.6-6.2 0-10.1-1.6-3.8-1.7-6.4-3.8 0.9-2.3 1.2-4.1 0.4-1.9 0.7-4.8z" fill="#887151" stroke="#d2aa2e" stroke-width="3" style="white-space:pre" aria-label="ACCOUNTS"/>
  </g>
 </g>
</svg>
