<?xml version="1.0" encoding="UTF-8" standalone="no"?>
<!-- Created with Inkscape (http://www.inkscape.org/) -->

<svg
   width="1920"
   height="1080"
   viewBox="0 0 1920 1080"
   version="1.1"
   id="svg1"
   xmlns="http://www.w3.org/2000/svg"
   xmlns:svg="http://www.w3.org/2000/svg">
  <defs
     id="defs1">
    <linearGradient
       id="swatch151">
      <stop
         style="stop-color:#210c00;stop-opacity:1;"
         offset="0"
         id="stop151" />
    </linearGradient>
  </defs>
  <g
     id="layer3"
     style="display:inline">
    <g
       id="g148"
       style="display:inline">
      <path
         id="rect112"
         style="fill:#41250a;fill-opacity:1;stroke:#71571d;stroke-width:5;stroke-linejoin:round;stroke-opacity:1"
         d="m 1486.4768,1014.7666 -3e-4,-473.355 -937.41168,2e-4 3.6e-4,515.17"
         transform="rotate(2.5541032)" />
      <path
         id="rect105"
         style="fill:#41250a;fill-opacity:1;stroke:#866622;stroke-width:5;stroke-linejoin:round;stroke-opacity:1"
         d="m 1469.601,1015.5194 2e-4,-493.37493 -937.41174,2.1e-4 -7e-5,535.18982"
         transform="rotate(2.5541032)" />
      <path
         style="fill:#381209;fill-opacity:1;stroke:#866622;stroke-width:5;stroke-linejoin:round;stroke-opacity:1"
         d="m 1198.3695,576.11988 232.3386,328.52971 14.1642,-317.53394 z"
         id="path106" />
      <path
         id="path107"
         style="fill:#381209;fill-opacity:1;stroke:#856421;stroke-width:5;stroke-linejoin:round;stroke-opacity:1"
         d="M 690.54688,1080 713.98828,554.51367 508.39258,545.3418 484.54297,1080" />
      <path
         id="path108"
         style="fill:#2b0d06;fill-opacity:1;stroke:#866622;stroke-width:5;stroke-linejoin:round;stroke-opacity:1"
         d="M 526.57227,1080 550.33789,547.21289 508.39258,545.3418 484.54297,1080" />
      <path
         d="m 812.79949,731.42455 q 2.6,0 5.4,0.1 2.8,0.1 5.4,0.1 2.8,0 5.6,0 2.8,-0.1 5.6,-0.2 l -11.1,-25.4 z m 44.3,31.1 q -1.4,-0.2 -2.7,-0.2 -1.2,0 -2.6,0 -1.4,0 -2.7,0 -1.2,0 -2.6,0.2 -0.7,-2.3 -1.9,-5.5 -1.2,-3.3 -2.7,-6.8 -1.4,-3.6 -2.9,-7.2 -1.5,-3.7 -2.8,-7 -3.2,-0.1 -6.5,-0.1 -3.3,-0.1 -6.6,-0.1 -3.1,0 -6.1,0.1 -3,0 -6.1,0.1 -3.2,7.8 -5.8,14.9 -2.6,7 -3.9,11.6 -1.7,-0.2 -3.7,-0.2 -2,0 -3.7,0.2 8.1,-17.5 15.8,-34.8 7.7,-17.3 15.5,-35.2 h 1.9 q 2.4,5.8 5.2,12.6 2.8,6.7 5.7,13.6 2.9,6.9 5.8,13.7 2.9,6.8 5.4,12.7 2.6,5.8 4.6,10.4 2.1,4.6 3.4,7 z m 60.19991,-4.1 q -0.9,0.8 -2.9,1.8 -1.9,0.9 -4.7,1.7 -2.7,0.7 -6.1,1.3 -3.4,0.6 -7.1,0.6 -7.9,0 -14.6,-2.2 -6.7,-2.3 -11.6,-6.9 -4.8,-4.6 -7.6,-11.2 -2.7,-6.7 -2.7,-15.2 0,-8.5 2.7,-15.1 2.8,-6.7 7.7,-11.3 5,-4.6 11.9,-7 6.9,-2.4 15.2,-2.4 6.6,0 12,1.4 5.5,1.3 9.7,3.2 -0.8,1.4 -1.3,3.8 -0.5,2.4 -0.8,4 l -0.6,0.2 q -1,-1.2 -2.8,-2.7 -1.8,-1.5 -4.2,-2.9 -2.4,-1.4 -5.4,-2.3 -3,-1 -6.6,-1 -5.9,0 -11,1.9 -5,1.9 -8.8,5.9 -3.7,3.9 -5.8,10 -2.1,6 -2.1,14.3 0,8.3 2.1,14.4 2.1,6 5.8,10 3.8,3.9 8.8,5.8 5.1,1.9 11,1.9 3.6,0 6.6,-0.9 3.1,-0.9 5.6,-2.1 2.6,-1.3 4.6,-2.7 2.1,-1.5 3.5,-2.6 l 0.4,0.4 z m 66.69999,0 q -0.9,0.8 -2.9,1.8 -1.9,0.9 -4.7,1.7 -2.7,0.7 -6.1,1.3 -3.4,0.6 -7.1,0.6 -7.9,0 -14.6,-2.2 -6.7,-2.3 -11.6,-6.9 -4.8,-4.6 -7.6,-11.2 -2.7,-6.7 -2.7,-15.2 0,-8.5 2.7,-15.1 2.8,-6.7 7.7,-11.3 5,-4.6 11.9,-7 6.9,-2.4 15.2,-2.4 6.6,0 12,1.4 5.5,1.3 9.7,3.2 -0.8,1.4 -1.3,3.8 -0.5,2.4 -0.8,4 l -0.6,0.2 q -1,-1.2 -2.8,-2.7 -1.8,-1.5 -4.2,-2.9 -2.4,-1.4 -5.4,-2.3 -3,-1 -6.6,-1 -5.9,0 -11,1.9 -5,1.9 -8.8,5.9 -3.7,3.9 -5.8,10 -2.1,6 -2.1,14.3 0,8.3 2.1,14.4 2.1,6 5.8,10 3.8,3.9 8.8,5.8 5.1,1.9 11,1.9 3.6,0 6.6,-0.9 3.1,-0.9 5.6,-2.1 2.6,-1.3 4.6,-2.7 2.1,-1.5 3.5,-2.6 l 0.4,0.4 z m 9.39999,-30.1 q 0,-8.5 2.7,-15.1 2.8,-6.7 7.70002,-11.3 5,-4.6 11.9,-7 6.9,-2.4 15.1,-2.4 8.3,0 15.2,2.4 6.9,2.4 11.8,7 5,4.6 7.7,11.3 2.8,6.6 2.8,15.1 0,8.5 -2.8,15.2 -2.7,6.6 -7.7,11.2 -4.9,4.6 -11.8,6.9 -6.9,2.2 -15.2,2.2 -8.2,0 -15.1,-2.2 -6.9,-2.3 -11.9,-6.9 -4.90002,-4.6 -7.70002,-11.2 -2.7,-6.7 -2.7,-15.2 z m 65.10002,0 q 0,-8.3 -2.1,-14.3 -2.1,-6.1 -5.9,-10 -3.7,-4 -8.8,-5.9 -5,-1.9 -10.9,-1.9 -5.8,0 -10.9,1.9 -5,1.9 -8.8,5.9 -3.7,3.9 -5.8,10 -2.1,6 -2.1,14.3 0,8.3 2.1,14.4 2.1,6 5.8,10 3.8,3.9 8.8,5.8 5.1,1.9 10.9,1.9 5.9,0 10.9,-1.9 5.1,-1.9 8.8,-5.8 3.8,-4 5.9,-10 2.1,-6.1 2.1,-14.4 z m 75.9,-2 q 0,-14.2 -0.1,-21.9 -0.1,-7.7 -0.5,-10.6 1.1,0.2 2.1,0.4 1,0.1 2,0.1 1.3,0 3,-0.5 -0.3,3.5 -0.6,8.4 -0.3,4.8 -0.5,10.4 -0.2,5.5 -0.4,11.4 -0.2,5.8 -0.3,11.3 -0.1,6.7 -2.1,12 -1.9,5.3 -5.5,9 -3.6,3.7 -8.9,5.6 -5.2,1.9 -12,1.9 -15,0 -21.8,-6.8 -6.8,-6.8 -6.8,-21.5 0,-4.7 0.2,-8.3 0.3,-3.7 0.3,-7.5 0,-8.4 -0.2,-14.9 -0.2,-6.5 -0.4,-11 1.2,0.2 2.6,0.4 1.4,0.1 2.6,0.1 1.1,0 2.1,-0.1 1.1,-0.2 2.2,-0.4 -0.2,2.2 -0.4,5.8 -0.2,3.5 -0.4,8 -0.2,4.5 -0.3,9.7 -0.1,5.2 -0.1,10.8 0,3.4 0.1,7.1 0.1,3.6 0.7,7.1 0.6,3.4 1.9,6.6 1.4,3.1 3.9,5.5 2.5,2.3 6.3,3.7 3.8,1.3 9.4,1.3 5.5,0 9.2,-1.6 3.8,-1.6 6.2,-4.2 2.4,-2.6 3.7,-6 1.4,-3.4 2,-7.1 0.6,-3.7 0.7,-7.4 0.1,-3.7 0.1,-6.8 z m 82,37.5 q -11.5,-13.3 -24.5,-27.2 -13,-14 -26,-27.8 -0.1,2.8 -0.2,7.5 -0.1,4.7 -0.1,12.8 0,2.1 0,5.2 0.1,3.1 0.1,6.5 0.1,3.4 0.2,6.9 0.1,3.5 0.2,6.5 0.1,3 0.2,5.3 0.1,2.2 0.2,3 -1.6,-0.2 -3.5,-0.2 -2,0 -3.7,0.2 0.2,-1 0.4,-3.7 0.3,-2.7 0.5,-6.4 0.2,-3.8 0.4,-8.2 0.3,-4.4 0.4,-8.8 0.2,-4.4 0.3,-8.6 0.1,-4.2 0.1,-7.5 0,-9.6 -0.1,-16.5 0,-6.9 -0.2,-10.3 h 1.6 q 6.1,6.6 13,14.2 7,7.5 13.8,14.9 6.9,7.3 13,13.9 6.2,6.5 10.8,11.1 v -13.6 q 0,-10.5 -0.2,-20.4 -0.1,-10 -0.6,-18.8 2,0.5 3.4,0.5 1.2,0 3.2,-0.5 -0.2,2.2 -0.5,6.6 -0.2,4.4 -0.5,9.4 -0.2,5 -0.4,9.8 -0.2,4.8 -0.2,7.7 0,2.5 0,6 0,3.4 0,7.1 0.1,3.7 0.1,7.5 0.1,3.7 0.1,7 0.1,3.2 0.1,5.6 0,2.2 0,3.3 z m 35.4,-44.1 q 0,-10.4 -0.3,-20.7 -2.6,0 -5.5,0.1 -2.8,0 -5.7,0.2 -2.8,0.1 -5.5,0.3 -2.6,0.2 -4.7,0.5 0.5,-1.8 0.5,-3.2 0,-1.1 -0.5,-3.1 6.6,0.2 12.9,0.4 6.3,0.1 12.9,0.1 6.6,0 12.9,-0.1 6.3,-0.2 12.9,-0.4 -0.5,2 -0.5,3.2 0,1.3 0.5,3.1 -2.1,-0.3 -4.8,-0.5 -2.6,-0.2 -5.5,-0.3 -2.8,-0.2 -5.7,-0.2 -2.8,-0.1 -5.4,-0.1 -0.3,10.3 -0.3,20.7 v 17.2 q 0,6.6 0.2,13 0.3,6.4 0.6,12.6 -2.3,-0.2 -4.9,-0.2 -2.6,0 -4.9,0.2 0.3,-6.2 0.5,-12.6 0.3,-6.4 0.3,-13 z m 39.4999,29.8 q 0.8,1.8 2.1,3.7 1.4,1.8 3.3,3.3 2,1.5 4.6,2.5 2.6,0.9 5.8,0.9 3.3,0 5.9,-1.1 2.7,-1.2 4.5,-3.1 1.9,-2 2.9,-4.6 1,-2.7 1,-5.7 0,-4.6 -2.4,-7.3 -2.3,-2.7 -5.8,-4.5 -3.5,-1.8 -7.6,-3.3 -4,-1.5 -7.5,-3.7 -3.5,-2.3 -5.9,-5.8 -2.3,-3.5 -2.3,-9.4 0,-4.2 1.5,-7.6 1.5,-3.5 4.3,-6 2.9,-2.5 6.9,-3.9 4,-1.4 9,-1.4 4.8,0 8.3,1.2 3.5,1.1 6.5,3.5 -0.9,1.7 -1.5,3.6 -0.6,1.9 -1.2,4.8 h -1.2 q -0.5,-1.4 -1.4,-3 -0.8,-1.7 -2.3,-3.1 -1.4,-1.4 -3.4,-2.3 -2,-1 -4.8,-1 -2.8,0 -5.2,0.9 -2.3,0.9 -4.1,2.6 -1.7,1.6 -2.7,3.9 -0.9,2.3 -0.9,5 0,4.7 2.3,7.4 2.4,2.7 5.9,4.6 3.5,1.8 7.5,3.3 4.1,1.4 7.6,3.5 3.5,2.1 5.8,5.4 2.4,3.3 2.4,8.8 0,4.6 -1.7,8.7 -1.6,4.1 -4.8,7.2 -3.1,3 -7.7,4.7 -4.5,1.6 -10.3,1.6 -6.2,0 -10.1,-1.6 -3.8,-1.7 -6.4,-3.8 0.9,-2.3 1.2,-4.1 0.4,-1.9 0.7,-4.8 z"
         id="text1637"
         style="font-size:100px;line-height:0px;font-family:Optima;-inkscape-font-specification:'Optima, Normal';text-align:center;white-space:pre;fill:#887151;stroke:#d2aa2e;stroke-width:3;stroke-linejoin:round"
         transform="rotate(2.5541032,-1103.4241,-376.8817)"
         aria-label="ACCOUNTS" />
    </g>
  </g>
</svg>
