<?xml version="1.0" encoding="UTF-8"?>
<svg width="1920" height="1080" version="1.1" viewBox="0 0 1920 1080" xmlns="http://www.w3.org/2000/svg" xmlns:xlink="http://www.w3.org/1999/xlink">
 <defs>
  <pattern id="a" xlink:href="#b" patternTransform="translate(48.442 46.562)" preserveAspectRatio="xMidYMid"/>
  <pattern id="b" width="203.2554" height="206.02851" fill="#2b150d" patternTransform="translate(48.442 46.562)" patternUnits="userSpaceOnUse" preserveAspectRatio="xMidYMid">
   <path d="m201.83 0c-2.3333 14.977-1.364 30.264-1.4887 45.363 1.3928 15.859 3.832 31.692 2.5559 47.657-0.10575 16.313 0.83472 32.623-0.30859 48.897 0.3564 13.515 1.5197 27.32-2.3275 40.47-1.0442 5.1314 4.5977 8.6096 1.5689 23.625h-4.0978s0.84773-22.022 0.32232-30.443c1.5592-12.997 4.7333-26.204 1.7742-39.25-1.6512-17.73 2.2224-35.537 0.93263-53.183-3.3722-16.501-0.39336-33.413-3.2425-49.98-1.1569-10.99-1.5902-22.289 0.21335-33.157zm-9.6745 0c0.92586 15.949-0.66016 31.984 1.3364 47.883-2.772 12.367 1.2879 24.476 0.26782 36.354-1.9516 12.997 0.11339 26.183 0.39564 39.113-1.6848 10.856-0.94525 21.935-3.1881 32.719-0.58365 12.344 4.1964 23.895 1.6831 36.347 0.0594 2.0072-0.49487 13.595-0.49487 13.595h-2.7516c-0.0779-10.716 2.3408-25.353-0.9559-35.847-2.2982-13.117 3.7559-25.92 3.3037-39.107 0.92648-24.126-4.5839-48.299-0.68522-72.318 0.55348-14.175-0.0212-28.353-1.8938-42.37 0.84438-2.9744 0.73134-11.729 0.23127-16.369zm-13.895 0c0.30538 14.14 0.1226 28.463 2.5043 42.376 4.3678 12.749 2.0394 26.57 5.1105 39.578 1.3424 13.372-0.35573 26.808-3.2792 39.813-0.83252 13.231-3.2184 26.426-3.2792 39.658 1.2274 14.942-1.0481 32.054-1.0563 44.587h-2.2037c-0.21786-8.7674 3.7998-24.23 2.4946-32.595-1.8598-12.166-4.1024-24.413 0.89457-36.214 0.50616-8.8178-0.63935-17.764 0.86877-26.623 0.59642-10.134 4.5878-19.985 2.8428-30.145 0.81189-11.115-4.0596-21.278-5.0752-32.149-1.9922-13.096-4.4269-26.185-1.9904-39.461 0.80221-1.2356 0.21967-5.8163-0.03515-8.8248zm-12.424 0c-0.26743 9.4866-3.1171 19.151-2.7667 28.856-2.1047 12.539 7.3874 22.203 10.021 33.825 5.1601 15.357 3.5756 32.539-2.8741 47.296-3.4275 11.66-8.2632 25.214-3.146 37.092 3.7057 13.013-3.8483 26.447 0.48127 39.404-0.50358 1.2214-2.0193 16.198-1.7158 19.538h-2.821c1.5931-13.807-0.73057-25.778 2.1712-39.486 0.86459-14.189-5.664-28.32-1.4003-42.407 1.9271-11.247 7.5258-21.548 9.4828-32.7 1.1096-11.89-0.99145-24.112-6.2852-34.837-1.9193-10.671-9.9815-20.612-4.7298-31.812 1.0328-5.3919 0.7725-18.4 0.76135-24.77zm-10.285 0c-0.9941 12.647-1.0772 25.299-4.8916 37.378-1.5014 17.109-8.8658 33.748-5.657 51.139 0.94488 10.14 5.5524 19.255 10.701 27.644 2.3443 13.176-5.7636 26.038-1.0931 39.247 1.2285 13.282-0.37483 26.392 1.8191 39.704 0.28713 3.5512-0.77269 6.5678-0.87827 10.899h-2.1127c-0.38205-17.733-1.2534-36.133-1.1842-53.884-6.097-12.906 7.4605-26.891-1.2331-39.748-6.841-11.115-9.2142-23.622-8.7432-36.528-1.7634-13.049 6.5954-24.105 5.9412-37.152 1.9323-11.116 4.1212-26.864 5.2193-38.699zm-10.388 0c-0.90437 7.668-3.2065 20.189-2.3765 28.655-1.6006 11.76-7.5316 22.703-6.4252 34.765 0.18389 11.167-0.6341 22.508 0.43506 33.563 3.6628 12.096 0.22415 25.076 4.7421 36.943 4.5068 17.471 3.9631 35.87 2.8646 53.69 0.40574 4.0629 1.5368 13.517 0.76001 18.396h-2.7572c0.29008-6.4215 1.9696-15.921-0.61724-21.349-1.1083-10.254 3.5114-20.284 0.6893-30.495-6.8164-29.614-8.8451-60.163-8.1505-90.497-3.3946-13.274 8.2942-24.841 5.5864-38.343 1.3392-7.3395 2.4973-20.164 2.492-25.328zm-10.932 0c-0.84101 21.433-4.8592 42.657-4.428 64.166-0.63894 27.22-1.7736 54.671 2.4989 81.649 0.4499 20.414 2.9161 41.344 1.9292 60.197h-3.165s-0.13285-15.206-1.2141-21.479c2.1822-21.154-1.9189-42.153-4.1738-63.094-1.4794-10.789 1.0823-21.448 1.5594-32.126 0.0316-17.518-1.3556-35.042-0.32631-52.553 5.904-11.382 3.7365-24.415 4.1548-36.759zm-11.859 0c-0.85761 14.544-0.61283 29.147-2.0882 43.655 1.8511 15.68-3.333 31.158-2.6837 46.889-0.47377 12.163 5.2874 23.466 4.4838 35.684 0.36793 15.648-2.8063 31.38 0.23783 46.881 0.58293 11.116 1.0293 21.847 0.0503 32.902h-2.1114v-1e-3c0.13338-0.7569 2.227-24.062-0.30861-32.704-1.8193-12.641-3.2138-25.546 0.70153-37.965 2.904-10.857-1.2341-21.48-5.6299-31.246-4.3964-17.528 4.8581-34.663 3.1297-52.243 0.5623-17.437 2.3565-49.834 2.1004-51.852zm-2.1114 206.01c-6e-3 0.0212-8e-3 0.0238-8e-3 0zm-8.9172-206.01c1.7138 18.816 6.6969 38.258-0.15496 56.61-2.5467 16.001-0.6634 32.285-2.0923 48.373-0.14049 13.061 3.8707 25.69 5.2356 38.536-0.13444 12.902-4.9742 26.12-0.51662 38.788 0.47853 5.5953-3.5375 15.381-2.4716 23.705h-2.5056c-0.29612-10.626 4.5888-20.601 1.8653-31.263-0.45473-15.505 2.3801-31.143-1.0332-46.491-1.4246-12.732-2.9515-25.453-4.3424-38.19 4.0043-12.638 2.7633-26.111 5.5823-38.984 0.88559-12.872-0.42007-25.759-0.0789-38.682 1.2456-2.3973-2.0241-8.9625-1.9931-12.403zm-12.145 0c0.2996 18.416 4.6323 37.017 0.0734 55.227-1.0935 15.128 0.98629 30.547-2.991 45.391-1.7404 14.258 0.36714 29.742-7.6202 42.513-7.2818 17.638 0.25572 36.746 8.8425 52.389 1.0546 2.0295 1.6953 10.492 1.6953 10.492h-5.0018c-2.65-13.369-8.7754-22.439-9.1157-34.973-3.0395-13.667-0.37088-27.506 5.9507-39.613 3.1598-17.076-1.2535-35.213 5.725-51.644 1.345-11.928-3.0827-24.174 1.5526-35.791 2.9548-14.762-0.67512-29.678-4.1126-43.991zm-12.422 0c1.3054 14.677-1.7885 29.554 1.626 44.006 2.1036 22.049-5.446 43.599-4.2962 65.65-0.2423 17.248-1.8626 34.391-3.4791 51.544-1.7512 11.129 3.5094 21.185 4.5382 32.025 0.39571 2.0481 1.6111 12.787 1.6111 12.787h-3.5063c0.50954-10.774-6.1865-36.015-4.5776-52.783 3.9921-18.232 0.29065-37.107 3.4016-55.498 1.6668-12.473 3.546-25.027 2.3683-37.6 3.1219-14.059-0.31374-27.918 0.1197-42.037 0.68418-8.7527-1.8521-15.019-1.312-18.094zm-12.573 0c0.39707 20.998 1.4553 42.14-1.9183 62.948 0.12234 16.092 4.4914 32.27 0.86061 48.272-0.39797 17.356-0.25466 34.731-0.12234 52.1-2.5832 13.872 1.2293 30.433 1.1801 42.691h-4.2323c0.52738-3.9555-0.55346-12.635 0.03137-13.846 2.1509-11.947-3.0247-23.637-0.52481-35.551 3.2967-15.885-1.0217-32.079 1.5866-48.076-0.09233-18.42 0.93493-37.058-2.7844-55.226 5.6447-13.057 5.9895-27.583 2.8142-41.296 0.23864-2.6157-1.7884-8.6556-1.123-12.017zm-10.415 0c0.0057 18.398 2.1484 36.923 0.39019 55.214-5.0006 17.691 0.46255 36.228-3.1868 54.057-0.24469 26.817 2.3213 53.574 2.488 80.402-0.48517 4.6607 0.5036 5.2739 0.30864 16.339h-2.5396c1.9382-5.8146 0.66821-20.229-1.5186-28.739 0.20258-12.996 2.5146-26.363-2.0964-38.928-3.5259-19.174 2.3621-38.375 2.3044-57.612 1.2593-21.512 4.0693-43.175 0.8565-64.627 0.65201-3.0676-1.065-11.977 0.45409-16.105zm-5.9711 0c-1.6281 16.747-4.1638 33.507-9.4937 49.512-2.4576 14.275 1.6482 28.549 0.84701 42.668-3.1065 12.362-3.6728 24.917-3.5946 37.559-0.45106 14.867 2.6395 29.575 2.556 44.37-0.6594 10.953 10.501 23.903 9.6854 31.903h-3.3486c0.20311-4.7826-1.9496-14.968-5.2941-21.454-7.014-13.772-5.3444-29.665-6.2091-44.598-0.36378-15.207 1.3315-30.407 3.1215-45.425-0.90118-15.359-0.40426-30.799-0.80216-46.146 2.51-13.647 10.775-26.315 9.2218-40.539 0.10129-1.8632-0.15077-5.3226-0.038136-7.85zm-7.608 0c-0.12442 13.308-2.0679 26.945-8.2742 38.735-5.2411-12.957-16.256-26.516-15.673-38.735h2.6661c0.83496 6.8789 1.8538 18.163 5.2941 18.987 6.666 0.98921 7.857 18.037 11.014 5.3566 3.7506-6.3067 3.0147-19.408 3.3689-24.344zm-5.0874 0c1.3409 7.5764-1.1559 23.472-8.9771 13.567-2.4906-3.2214-3.6342-8.9337-3.9794-13.567h2.3221c1.873 7.5717 10.631 14.03 8.625 4.4933 0.10473-0.97903-0.75662-2.9188-1.1012-4.4933zm-21.396 0c-0.58979 11.43 5.4707 21.676 11.934 30.625 6.542 14.75 2.4426 31.245 3.7523 46.794 0.38232 17.287-1.0255 34.583-2.8075 51.714-0.80744 13.517-3.648 26.827-3.9386 40.404-0.02381 13.353-9.3369 23.325-8.9404 36.474h-1.9319s4.7857-21.022 7.1295-30.108c4.0744-18.071 3.1362-36.743 5.9208-54.985-4.2859-12.249 2.919-24.591 2.5274-37.046 0.18467-12.937-2.5221-25.941 0.10341-38.79-0.021166-12.439-12.503-20.019-13.314-32.267-0.83194-3.7-2.3973-9.5484-2.367-12.814zm-4.7611 0c-1.0226 12.731 2.0735 25.211 6.6903 36.962 4.5013 16.249 1.5988 33.163 1.5132 49.733-1.1129 11.093-3.5791 22.033-3.2112 33.264 0.13153 8.6012 2.3977 17 0.71783 25.331 1.2598 9.6168-2.3248 19.093-5.5374 28.386-1.473 9.8979 1.3692 20.933-0.17257 32.335h-2.991c0.86945-4.8589 1.1885-18.768 0.36299-24.36 2.405-15.703 2.937-20.871 6.9458-36.361-2.4749-12.643 0.60516-36.081-0.19967-48.786 2.9643-13.672 3.6133-27.718 2.5029-41.654-2.9467-11.533-1.9408-23.508-7.7562-34.41-0.88205-4.4288-2.5401-15.601-1.8558-20.441zm-7.7073 0c-0.58929 14.664 3.6905 33.598 5.5543 48.162-0.84785 17.272 1.9993 30.237-0.58053 47.39 2.086 20.464-2.0545 41.352-1.2364 61.892-0.68519 16.877-5.4868 31.716-3.7374 48.567h-4.2962c3.9157-11.77 1.4806-26.124 4.4933-39.08 0.38918-12.665 0.52302-25.275 1.9943-37.905 0.61965-10.33 0.84396-20.883-0.27137-31.01 2.2084-10.592 0.7907-27.411-0.6976-38.304-2.2967-11.421 0.37308-12.272 1.5678-23.682-0.51697-10.627-6.4384-27.101-7.0865-36.03zm-7.9074 0c-0.55002 9.9281 0.63738 24.589 3.6113 34.171 0.24968 12.543-2.6199 24.621-0.26786 37.163 0.49434 14.383-1.4546 21.259-0.81797 35.613-1.1431 12.569-4.2886 30.818-0.027213 43.174-0.66091 13.497-3.3311 27.881-1.9769 41.211-1.1356 6.7804-1.0141 8.1356-0.5232 14.697h-3.112c0.70057-6.9696 2.9386-16.08-0.23626-23.144 2.0016-14.366 4.189-29.737 2.4554-44.243-1.1821-20.83 0.82113-14.911 2.2128-35.701 1.1624-12.692-0.33642-51.09-0.78805-70.233 0.22443-6.5651-4.2124-25.748-3.6439-32.708zm152.39 47.016c10.651 15.284 13.947 35.611 9.0573 53.509-3.5908 3.7714-4.485 21.254-8.7568 8.1817-5.3304-10.006-4.539-21.477-6.6223-32.164 0.44357-10.063 4.2279-19.728 6.3219-29.527zm4.0174 12.43c-10.292 5.4583-7.3441 18.655-6.7787 28.157-1.9203 7.3372 3.3793 22.318 10.172 10.062 4.7579-10.535 0.23125-22.764-1.2957-33.71-0.52907-1.5741-1.2094-3.1035-2.0978-4.5096zm-1.7497 7.6719c2.4442 6.5273 5.505 26.594-1.2888 25.126-0.60892-8.3591-1.5684-17.045 1.2888-25.126zm-56.11 53.501c2.3824 13.348 4.9265 26.993 4.7312 40.532-3.1686 10.852-0.78687 25.721-4.3329 34.451-6.0037-8.7454-5.7205-20.513-12.754-28.659-2.2641-13.586 7.4936-25.175 8.9431-38.308 0.75159-2.7871 1.3744-5.8362 3.4125-8.0159zm-1.9129 14.678c-5.2393 9.939-11.677 21.732-6.3681 33.006 0.45099 5.2291 8.4424 20.919 8.7092 8.1328 0.80942-12.619 5.5074-25.566-0.2623-37.681l-0.92856-1.8504zm-0.4568 7.816c2.0613 6.1185 2.0763 24.798-3.2479 23.426-2.0424-7.9257 0.14048-16.099 3.2479-23.426zm-61.494 25.807c0.24968 13.539 12.22 24.487 12.179 37.092h-1.6043s-0.0771-11.225-3.4709-13.086c-2.7726-7.1115-9.0348-19.904-11.586-5.3158-2.5412 4.9811-4.9514 14.61-4.6197 18.401h-2.6661c0.18232-7.5081 8.7589-25.515 11.211-36.119l0.29367-0.51255zm-0.40242 20.967c4.9278 2.0023 7.4938 16.126 7.4938 16.126h-3.1106c-2.941-7.6435-8.5268-9.894-7.5237 0h-2.3221c-0.34507-4.7092 5.4626-16.126 5.4626-16.126z" style="paint-order:markers fill stroke"/>
  </pattern>
 </defs>
 <g>
  <rect width="1920" height="1080" fill="#502819"/>
  <rect width="1920" height="1080" fill="url(#a)" opacity=".79597"/>
  <g fill="none" stroke="#000" stroke-linejoin="bevel" stroke-width="8">
   <path d="m906.51 0v327.75m-535.26 2.4993-2.4997-330.25"/>
   <path d="m906.51 0v329m587.6 2.7e-4v-329"/>
  </g>
 </g>
</svg>
