<svg width="2546.1146871262" height="2520.0" viewBox="-1273.0573435631 -1260.0 2546.1146871262 2520.0" preserveAspectRatio="xMinYMin meet" version="1.1" xmlns="http://www.w3.org/2000/svg">
  <defs>
    <g id="b0">
      <!--
  Icons from
  Font Awesome Free 6.5.2 by @fontawesome - https://fontawesome.com
  License - https://fontawesome.com/license/free (Icons: CC BY 4.0, Fonts: SIL OFL 1.1, Code: MIT License)
  Copyright 2024 Fonticons, Inc.
  -->
      <symbol id="question" viewBox="0 0 320 512">
        <path d="M80 160c0-35.3 28.7-64 64-64h32c35.3 0 64 28.7 64 64v3.6c0 21.8-11.1 42.1-29.4 53.8l-42.2 27.1c-25.2 16.2-40.4 44.1-40.4 74V320c0 17.7 14.3 32 32 32s32-14.3 32-32v-1.4c0-8.2 4.2-15.8 11-20.2l42.2-27.1c36.6-23.6 58.8-64.1 58.8-107.7V160c0-70.7-57.3-128-128-128H144C73.3 32 16 89.3 16 160c0 17.7 14.3 32 32 32s32-14.3 32-32zm80 320a40 40 0 1 0 0-80 40 40 0 1 0 0 80z" />
      </symbol>
      <symbol id="chess-king" viewBox="0 0 448 512">
        <path d="M224 0c17.7 0 32 14.3 32 32V48h16c17.7 0 32 14.3 32 32s-14.3 32-32 32H256v48H408c22.1 0 40 17.9 40 40c0 5.3-1 10.5-3.1 15.4L368 400H80L3.1 215.4C1 210.5 0 205.3 0 200c0-22.1 17.9-40 40-40H192V112H176c-17.7 0-32-14.3-32-32s14.3-32 32-32h16V32c0-17.7 14.3-32 32-32zM38.6 473.4L80 432H368l41.4 41.4c4.2 4.2 6.6 10 6.6 16c0 12.5-10.1 22.6-22.6 22.6H54.6C42.1 512 32 501.9 32 489.4c0-6 2.4-11.8 6.6-16z" />
      </symbol>
      <symbol id="chess-queen" viewBox="0 0 512 512">
        <path d="M256 0a56 56 0 1 1 0 112A56 56 0 1 1 256 0zM134.1 143.8c3.3-13 15-23.8 30.2-23.8c12.3 0 22.6 7.2 27.7 17c12 23.2 36.2 39 64 39s52-15.8 64-39c5.1-9.8 15.4-17 27.7-17c15.3 0 27 10.8 30.2 23.8c7 27.8 32.2 48.3 62.1 48.3c10.8 0 21-2.7 29.8-7.4c8.4-4.4 18.9-4.5 27.6 .9c13 8 17.1 25 9.2 38L399.7 400H384 343.6 168.4 128 112.3L5.4 223.6c-7.9-13-3.8-30 9.2-38c8.7-5.3 19.2-5.3 27.6-.9c8.9 4.7 19 7.4 29.8 7.4c29.9 0 55.1-20.5 62.1-48.3zM256 224l0 0 0 0h0zM112 432H400l41.4 41.4c4.2 4.2 6.6 10 6.6 16c0 12.5-10.1 22.6-22.6 22.6H86.6C74.1 512 64 501.9 64 489.4c0-6 2.4-11.8 6.6-16L112 432z" />
      </symbol>
      <symbol id="chess-bishop" viewBox="0 0 320 512">
        <path d="M128 0C110.3 0 96 14.3 96 32c0 16.1 11.9 29.4 27.4 31.7C78.4 106.8 8 190 8 288c0 47.4 30.8 72.3 56 84.7V400H256V372.7c25.2-12.5 56-37.4 56-84.7c0-37.3-10.2-72.4-25.3-104.1l-99.4 99.4c-6.2 6.2-16.4 6.2-22.6 0s-6.2-16.4 0-22.6L270.8 154.6c-23.2-38.1-51.8-69.5-74.2-90.9C212.1 61.4 224 48.1 224 32c0-17.7-14.3-32-32-32H128zM48 432L6.6 473.4c-4.2 4.2-6.6 10-6.6 16C0 501.9 10.1 512 22.6 512H297.4c12.5 0 22.6-10.1 22.6-22.6c0-6-2.4-11.8-6.6-16L272 432H48z" />
      </symbol>
      <symbol id="chess-pawn" viewBox="0 0 320 512">
        <path d="M215.5 224c29.2-18.4 48.5-50.9 48.5-88c0-57.4-46.6-104-104-104S56 78.6 56 136c0 37.1 19.4 69.6 48.5 88H96c-17.7 0-32 14.3-32 32c0 16.5 12.5 30 28.5 31.8L80 400H240L227.5 287.8c16-1.8 28.5-15.3 28.5-31.8c0-17.7-14.3-32-32-32h-8.5zM22.6 473.4c-4.2 4.2-6.6 10-6.6 16C16 501.9 26.1 512 38.6 512H281.4c12.5 0 22.6-10.1 22.6-22.6c0-6-2.4-11.8-6.6-16L256 432H64L22.6 473.4z" />
      </symbol>
      <polygon fill="#558964" points="-60.6217782649, 0.0 -56.291651246, 7.5 -47.6313972081, 7.5 -43.3012701892, 15.0 -34.6410161514, 15.0 -30.3108891325, 22.5 -34.6410161514, 30.0 -30.3108891325, 37.5 -34.6410161514, 45.0 -30.3108891325, 52.5 -21.6506350946, 52.5 -17.3205080757, 45.0 -8.6602540378, 45.0 -4.3301270189, 37.5 4.3301270189, 37.5 8.6602540378, 45.0 17.3205080757, 45.0 21.6506350946, 52.5 30.3108891325, 52.5 34.6410161514, 45.0 30.3108891325, 37.5 34.6410161514, 30.0 30.3108891325, 22.5 34.6410161514, 15.0 43.3012701892, 15.0 47.6313972081, 7.5 56.291651246, 7.5 60.6217782649, 0.0 56.291651246, -7.5 47.6313972081, -7.5 43.3012701892, -15.0 34.6410161514, -15.0 30.3108891325, -22.5 34.6410161514, -30.0 30.3108891325, -37.5 34.6410161514, -45.0 30.3108891325, -52.5 21.6506350946, -52.5 17.3205080757, -45.0 8.6602540378, -45.0 4.3301270189, -37.5 -4.3301270189, -37.5 -8.6602540378, -45.0 -17.3205080757, -45.0 -21.6506350946, -52.5 -30.3108891325, -52.5 -34.6410161514, -45.0 -30.3108891325, -37.5 -34.6410161514, -30.0 -30.3108891325, -22.5 -34.6410161514, -15.0 -43.3012701892, -15.0 -47.6313972081, -7.5 -56.291651246, -7.5" />
      <polygon fill="black" stroke="none" points="-60.6217782649, 0.0 -58.4567147554, 3.75 -58.4567147554, -3.75" />
      <g stroke="black" stroke-width="1" stroke-linecap="round">
        <line x1="-56.291651246" y1="-7.5" x2="-47.6313972081" y2="-7.5" />
        <line x1="17.3205080757" y1="-45.0" x2="21.6506350946" y2="-52.5" />
        <line x1="4.3301270189" y1="-37.5" x2="8.6602540378" y2="-30.0" />
        <line x1="-8.6602540378" y1="15.0" x2="-4.3301270189" y2="7.5" />
        <line x1="17.3205080757" y1="-30.0" x2="21.6506350946" y2="-37.5" />
        <line x1="4.3301270189" y1="-22.5" x2="8.6602540378" y2="-15.0" />
        <line x1="17.3205080757" y1="45.0" x2="21.6506350946" y2="37.5" />
        <line x1="-30.3108891325" y1="-52.5" x2="-21.6506350946" y2="-52.5" />
        <line x1="-30.3108891325" y1="-37.5" x2="-21.6506350946" y2="-37.5" />
        <line x1="17.3205080757" y1="-15.0" x2="21.6506350946" y2="-7.5" />
        <line x1="-8.6602540378" y1="-15.0" x2="-4.3301270189" y2="-7.5" />
        <line x1="17.3205080757" y1="-45.0" x2="21.6506350946" y2="-37.5" />
        <line x1="17.3205080757" y1="-30.0" x2="21.6506350946" y2="-22.5" />
        <line x1="-8.6602540378" y1="15.0" x2="-4.3301270189" y2="22.5" />
        <line x1="-17.3205080757" y1="-45.0" x2="-8.6602540378" y2="-45.0" />
        <line x1="17.3205080757" y1="45.0" x2="21.6506350946" y2="52.5" />
        <line x1="-17.3205080757" y1="-30.0" x2="-8.6602540378" y2="-30.0" />
        <line x1="-43.3012701892" y1="-15.0" x2="-34.6410161514" y2="-15.0" />
        <line x1="34.6410161514" y1="15.0" x2="43.3012701892" y2="15.0" />
        <line x1="8.6602540378" y1="30.0" x2="17.3205080757" y2="30.0" />
        <line x1="43.3012701892" y1="15.0" x2="47.6313972081" y2="7.5" />
        <line x1="-56.291651246" y1="7.5" x2="-47.6313972081" y2="7.5" />
        <line x1="-4.3301270189" y1="-7.5" x2="4.3301270189" y2="-7.5" />
        <line x1="-47.6313972081" y1="7.5" x2="-43.3012701892" y2="0.0" />
        <line x1="43.3012701892" y1="-15.0" x2="47.6313972081" y2="-7.5" />
        <line x1="21.6506350946" y1="-37.5" x2="30.3108891325" y2="-37.5" />
        <line x1="-21.6506350946" y1="-52.5" x2="-17.3205080757" y2="-45.0" />
        <line x1="-34.6410161514" y1="-30.0" x2="-30.3108891325" y2="-37.5" />
        <line x1="-8.6602540378" y1="30.0" x2="-4.3301270189" y2="22.5" />
        <line x1="-34.6410161514" y1="-15.0" x2="-30.3108891325" y2="-22.5" />
        <line x1="-4.3301270189" y1="-37.5" x2="4.3301270189" y2="-37.5" />
        <line x1="-4.3301270189" y1="-22.5" x2="4.3301270189" y2="-22.5" />
        <line x1="17.3205080757" y1="15.0" x2="21.6506350946" y2="7.5" />
        <line x1="21.6506350946" y1="7.5" x2="30.3108891325" y2="7.5" />
        <line x1="-47.6313972081" y1="7.5" x2="-43.3012701892" y2="15.0" />
        <line x1="30.3108891325" y1="-37.5" x2="34.6410161514" y2="-45.0" />
        <line x1="30.3108891325" y1="-22.5" x2="34.6410161514" y2="-30.0" />
        <line x1="30.3108891325" y1="-52.5" x2="34.6410161514" y2="-45.0" />
        <line x1="4.3301270189" y1="7.5" x2="8.6602540378" y2="0.0" />
        <line x1="-21.6506350946" y1="-7.5" x2="-17.3205080757" y2="-15.0" />
        <line x1="8.6602540378" y1="-15.0" x2="17.3205080757" y2="-15.0" />
        <line x1="30.3108891325" y1="22.5" x2="34.6410161514" y2="30.0" />
        <line x1="-4.3301270189" y1="7.5" x2="4.3301270189" y2="7.5" />
        <line x1="30.3108891325" y1="37.5" x2="34.6410161514" y2="45.0" />
        <line x1="-8.6602540378" y1="30.0" x2="-4.3301270189" y2="37.5" />
        <line x1="30.3108891325" y1="22.5" x2="34.6410161514" y2="15.0" />
        <line x1="-30.3108891325" y1="37.5" x2="-21.6506350946" y2="37.5" />
        <line x1="-30.3108891325" y1="52.5" x2="-21.6506350946" y2="52.5" />
        <line x1="17.3205080757" y1="15.0" x2="21.6506350946" y2="22.5" />
        <line x1="-17.3205080757" y1="15.0" x2="-8.6602540378" y2="15.0" />
        <line x1="-17.3205080757" y1="30.0" x2="-8.6602540378" y2="30.0" />
        <line x1="-4.3301270189" y1="22.5" x2="4.3301270189" y2="22.5" />
        <line x1="-21.6506350946" y1="-7.5" x2="-17.3205080757" y2="0.0" />
        <line x1="-8.6602540378" y1="-15.0" x2="-4.3301270189" y2="-22.5" />
        <line x1="17.3205080757" y1="30.0" x2="21.6506350946" y2="22.5" />
        <line x1="21.6506350946" y1="-7.5" x2="30.3108891325" y2="-7.5" />
        <line x1="-17.3205080757" y1="45.0" x2="-8.6602540378" y2="45.0" />
        <line x1="30.3108891325" y1="-7.5" x2="34.6410161514" y2="-15.0" />
        <line x1="-21.6506350946" y1="-37.5" x2="-17.3205080757" y2="-45.0" />
        <line x1="21.6506350946" y1="-22.5" x2="30.3108891325" y2="-22.5" />
        <line x1="-21.6506350946" y1="37.5" x2="-17.3205080757" y2="30.0" />
        <line x1="-34.6410161514" y1="0.0" x2="-30.3108891325" y2="-7.5" />
        <line x1="-21.6506350946" y1="52.5" x2="-17.3205080757" y2="45.0" />
        <line x1="-30.3108891325" y1="7.5" x2="-21.6506350946" y2="7.5" />
        <line x1="17.3205080757" y1="30.0" x2="21.6506350946" y2="37.5" />
        <line x1="43.3012701892" y1="0.0" x2="47.6313972081" y2="7.5" />
        <line x1="-30.3108891325" y1="-7.5" x2="-21.6506350946" y2="-7.5" />
        <line x1="34.6410161514" y1="-15.0" x2="43.3012701892" y2="-15.0" />
        <line x1="56.291651246" y1="-7.5" x2="60.6217782649" y2="0.0" />
        <line x1="21.6506350946" y1="52.5" x2="30.3108891325" y2="52.5" />
        <line x1="30.3108891325" y1="-7.5" x2="34.6410161514" y2="0.0" />
        <line x1="-21.6506350946" y1="-37.5" x2="-17.3205080757" y2="-30.0" />
        <line x1="8.6602540378" y1="0.0" x2="17.3205080757" y2="0.0" />
        <line x1="4.3301270189" y1="-7.5" x2="8.6602540378" y2="-15.0" />
        <line x1="-21.6506350946" y1="37.5" x2="-17.3205080757" y2="45.0" />
        <line x1="-34.6410161514" y1="-30.0" x2="-30.3108891325" y2="-22.5" />
        <line x1="30.3108891325" y1="52.5" x2="34.6410161514" y2="45.0" />
        <line x1="-60.6217782649" y1="0.0" x2="-56.291651246" y2="7.5" />
        <line x1="30.3108891325" y1="7.5" x2="34.6410161514" y2="0.0" />
        <line x1="4.3301270189" y1="22.5" x2="8.6602540378" y2="15.0" />
        <line x1="4.3301270189" y1="37.5" x2="8.6602540378" y2="30.0" />
        <line x1="-34.6410161514" y1="-45.0" x2="-30.3108891325" y2="-52.5" />
        <line x1="4.3301270189" y1="-7.5" x2="8.6602540378" y2="0.0" />
        <line x1="-34.6410161514" y1="30.0" x2="-30.3108891325" y2="22.5" />
        <line x1="-34.6410161514" y1="45.0" x2="-30.3108891325" y2="37.5" />
        <line x1="30.3108891325" y1="-37.5" x2="34.6410161514" y2="-30.0" />
        <line x1="17.3205080757" y1="-15.0" x2="21.6506350946" y2="-22.5" />
        <line x1="30.3108891325" y1="-22.5" x2="34.6410161514" y2="-15.0" />
        <line x1="8.6602540378" y1="15.0" x2="17.3205080757" y2="15.0" />
        <line x1="4.3301270189" y1="7.5" x2="8.6602540378" y2="15.0" />
        <line x1="-30.3108891325" y1="-22.5" x2="-21.6506350946" y2="-22.5" />
        <line x1="8.6602540378" y1="-45.0" x2="17.3205080757" y2="-45.0" />
        <line x1="8.6602540378" y1="-30.0" x2="17.3205080757" y2="-30.0" />
        <line x1="-47.6313972081" y1="-7.5" x2="-43.3012701892" y2="-15.0" />
        <line x1="30.3108891325" y1="7.5" x2="34.6410161514" y2="15.0" />
        <line x1="4.3301270189" y1="22.5" x2="8.6602540378" y2="30.0" />
        <line x1="8.6602540378" y1="45.0" x2="17.3205080757" y2="45.0" />
        <line x1="-8.6602540378" y1="0.0" x2="-4.3301270189" y2="7.5" />
        <line x1="4.3301270189" y1="37.5" x2="8.6602540378" y2="45.0" />
        <line x1="-34.6410161514" y1="30.0" x2="-30.3108891325" y2="37.5" />
        <line x1="-30.3108891325" y1="22.5" x2="-21.6506350946" y2="22.5" />
        <line x1="-34.6410161514" y1="45.0" x2="-30.3108891325" y2="52.5" />
        <line x1="17.3205080757" y1="0.0" x2="21.6506350946" y2="7.5" />
        <line x1="-17.3205080757" y1="-15.0" x2="-8.6602540378" y2="-15.0" />
        <line x1="-17.3205080757" y1="0.0" x2="-8.6602540378" y2="0.0" />
        <line x1="-43.3012701892" y1="0.0" x2="-34.6410161514" y2="0.0" />
        <line x1="43.3012701892" y1="0.0" x2="47.6313972081" y2="-7.5" />
        <line x1="-43.3012701892" y1="15.0" x2="-34.6410161514" y2="15.0" />
        <line x1="47.6313972081" y1="-7.5" x2="56.291651246" y2="-7.5" />
        <line x1="-8.6602540378" y1="-30.0" x2="-4.3301270189" y2="-37.5" />
        <line x1="-47.6313972081" y1="-7.5" x2="-43.3012701892" y2="0.0" />
        <line x1="-21.6506350946" y1="-22.5" x2="-17.3205080757" y2="-30.0" />
        <line x1="-8.6602540378" y1="45.0" x2="-4.3301270189" y2="37.5" />
        <line x1="21.6506350946" y1="-52.5" x2="30.3108891325" y2="-52.5" />
        <line x1="-21.6506350946" y1="7.5" x2="-17.3205080757" y2="0.0" />
        <line x1="-21.6506350946" y1="22.5" x2="-17.3205080757" y2="15.0" />
        <line x1="-60.6217782649" y1="0.0" x2="-56.291651246" y2="-7.5" />
        <line x1="-8.6602540378" y1="-45.0" x2="-4.3301270189" y2="-37.5" />
        <line x1="-8.6602540378" y1="-30.0" x2="-4.3301270189" y2="-22.5" />
        <line x1="-21.6506350946" y1="-22.5" x2="-17.3205080757" y2="-15.0" />
        <line x1="-34.6410161514" y1="15.0" x2="-30.3108891325" y2="7.5" />
        <line x1="47.6313972081" y1="7.5" x2="56.291651246" y2="7.5" />
        <line x1="21.6506350946" y1="22.5" x2="30.3108891325" y2="22.5" />
        <line x1="21.6506350946" y1="37.5" x2="30.3108891325" y2="37.5" />
        <line x1="-21.6506350946" y1="7.5" x2="-17.3205080757" y2="15.0" />
        <line x1="-21.6506350946" y1="22.5" x2="-17.3205080757" y2="30.0" />
        <line x1="-34.6410161514" y1="-15.0" x2="-30.3108891325" y2="-7.5" />
        <line x1="34.6410161514" y1="0.0" x2="43.3012701892" y2="0.0" />
        <line x1="4.3301270189" y1="-37.5" x2="8.6602540378" y2="-45.0" />
        <line x1="-8.6602540378" y1="0.0" x2="-4.3301270189" y2="-7.5" />
        <line x1="4.3301270189" y1="-22.5" x2="8.6602540378" y2="-30.0" />
        <line x1="-4.3301270189" y1="37.5" x2="4.3301270189" y2="37.5" />
        <line x1="-34.6410161514" y1="0.0" x2="-30.3108891325" y2="7.5" />
        <line x1="56.291651246" y1="7.5" x2="60.6217782649" y2="0.0" />
        <line x1="-34.6410161514" y1="15.0" x2="-30.3108891325" y2="22.5" />
        <line x1="-34.6410161514" y1="-45.0" x2="-30.3108891325" y2="-37.5" />
        <line x1="30.3108891325" y1="37.5" x2="34.6410161514" y2="30.0" />
        <line x1="17.3205080757" y1="0.0" x2="21.6506350946" y2="-7.5" />
      </g>
      <use href="#question" x="-57.1576766498" y="-5.1961524227" height="10.3923048454" width="10.3923048454" fill="white" stroke="none" />
      <use href="#question" x="-44.167295593" y="2.3038475773" height="10.3923048454" width="10.3923048454" fill="white" stroke="none" />
      <use href="#question" x="-31.1769145362" y="9.8038475773" height="10.3923048454" width="10.3923048454" fill="white" stroke="none" />
      <use href="#question" x="-18.1865334795" y="17.3038475773" height="10.3923048454" width="10.3923048454" fill="white" stroke="none" />
      <use href="#question" x="-5.1961524227" y="-35.1961524227" height="10.3923048454" width="10.3923048454" fill="white" stroke="none" />
      <use href="#question" x="7.7942286341" y="-27.6961524227" height="10.3923048454" width="10.3923048454" fill="white" stroke="none" />
      <use href="#question" x="20.7846096908" y="-5.1961524227" height="10.3923048454" width="10.3923048454" fill="white" stroke="none" />
      <use href="#question" x="33.7749907476" y="2.3038475773" height="10.3923048454" width="10.3923048454" fill="white" stroke="none" />
      <use href="#question" x="46.7653718044" y="-5.1961524227" height="10.3923048454" width="10.3923048454" fill="white" stroke="none" />
      <use href="#chess-king" x="33.7749907476" y="-12.6961524227" height="10.3923048454" width="10.3923048454" fill="black" stroke="none" />
      <use href="#chess-queen" x="-18.1865334795" y="32.3038475773" height="10.3923048454" width="10.3923048454" fill="black" stroke="none" />
      <use href="#chess-pawn" x="-31.1769145362" y="-5.1961524227" height="10.3923048454" width="10.3923048454" fill="black" stroke="none" />
      <use href="#chess-bishop" x="20.7846096908" y="-50.1961524227" height="10.3923048454" width="10.3923048454" fill="black" stroke="none" />
    </g>
    <g id="b1">
      <polygon fill="#DE5650" stroke="none" points="-60.6217782649,0 -30.3108891325,52.5 30.3108891325,52.5 60.6217782649,0 30.3108891325,-52.5 -30.3108891325,-52.5" />
    </g>
    <g id="b2">
      <polygon fill="#5F6399" stroke="none" points="-60.6217782649,0 -30.3108891325,52.5 30.3108891325,52.5 60.6217782649,0 30.3108891325,-52.5 -30.3108891325,-52.5" />
    </g>
  </defs>
  <rect x="-1273.0573435631" y="-1260.0" width="2546.1146871262" height="2520.0" fill="#558964" />
  <use href="#b1" transform="translate(-1273.0573435631 -1155.0)" />
  <use href="#b2" transform="translate(-1273.0573435631 -1050.0)" />
  <use href="#b1" transform="translate(-1273.0573435631 -840.0)" />
  <use href="#b2" transform="translate(-1273.0573435631 -735.0)" />
  <use href="#b1" transform="translate(-1273.0573435631 -525.0)" />
  <use href="#b2" transform="translate(-1273.0573435631 -420.0)" />
  <use href="#b1" transform="translate(-1273.0573435631 -210.0)" />
  <use href="#b2" transform="translate(-1273.0573435631 -105.0)" />
  <use href="#b1" transform="translate(-1273.0573435631 105.0)" />
  <use href="#b2" transform="translate(-1273.0573435631 210.0)" />
  <use href="#b1" transform="translate(-1273.0573435631 420.0)" />
  <use href="#b2" transform="translate(-1273.0573435631 525.0)" />
  <use href="#b1" transform="translate(-1273.0573435631 735.0)" />
  <use href="#b2" transform="translate(-1273.0573435631 840.0)" />
  <use href="#b1" transform="translate(-1273.0573435631 1050.0)" />
  <use href="#b2" transform="translate(-1273.0573435631 1155.0)" />
  <use href="#b2" transform="translate(-1182.1246761658 -1207.5)" />
  <use href="#b1" transform="translate(-1182.1246761658 -997.5)" />
  <use href="#b2" transform="translate(-1182.1246761658 -892.5)" />
  <use href="#b1" transform="translate(-1182.1246761658 -682.5)" />
  <use href="#b2" transform="translate(-1182.1246761658 -577.5)" />
  <use href="#b1" transform="translate(-1182.1246761658 -367.5)" />
  <use href="#b2" transform="translate(-1182.1246761658 -262.5)" />
  <use href="#b1" transform="translate(-1182.1246761658 -52.5)" />
  <use href="#b2" transform="translate(-1182.1246761658 52.5)" />
  <use href="#b1" transform="translate(-1182.1246761658 262.5)" />
  <use href="#b2" transform="translate(-1182.1246761658 367.5)" />
  <use href="#b1" transform="translate(-1182.1246761658 577.5)" />
  <use href="#b2" transform="translate(-1182.1246761658 682.5)" />
  <use href="#b1" transform="translate(-1182.1246761658 892.5)" />
  <use href="#b2" transform="translate(-1182.1246761658 997.5)" />
  <use href="#b1" transform="translate(-1182.1246761658 1207.5)" />
  <use href="#b2" transform="translate(-1182.1246761658 1312.5)" />
  <use href="#b1" transform="translate(-1091.1920087684 -1155.0)" />
  <use href="#b2" transform="translate(-1091.1920087684 -1050.0)" />
  <use href="#b1" transform="translate(-1091.1920087684 -840.0)" />
  <use href="#b2" transform="translate(-1091.1920087684 -735.0)" />
  <use href="#b1" transform="translate(-1091.1920087684 -525.0)" />
  <use href="#b2" transform="translate(-1091.1920087684 -420.0)" />
  <use href="#b1" transform="translate(-1091.1920087684 -210.0)" />
  <use href="#b2" transform="translate(-1091.1920087684 -105.0)" />
  <use href="#b1" transform="translate(-1091.1920087684 105.0)" />
  <use href="#b2" transform="translate(-1091.1920087684 210.0)" />
  <use href="#b1" transform="translate(-1091.1920087684 420.0)" />
  <use href="#b2" transform="translate(-1091.1920087684 525.0)" />
  <use href="#b1" transform="translate(-1091.1920087684 735.0)" />
  <use href="#b2" transform="translate(-1091.1920087684 840.0)" />
  <use href="#b1" transform="translate(-1091.1920087684 1050.0)" />
  <use href="#b2" transform="translate(-1091.1920087684 1155.0)" />
  <use href="#b2" transform="translate(-1000.259341371 -1207.5)" />
  <use href="#b1" transform="translate(-1000.259341371 -997.5)" />
  <use href="#b2" transform="translate(-1000.259341371 -892.5)" />
  <use href="#b1" transform="translate(-1000.259341371 -682.5)" />
  <use href="#b2" transform="translate(-1000.259341371 -577.5)" />
  <use href="#b1" transform="translate(-1000.259341371 -367.5)" />
  <use href="#b2" transform="translate(-1000.259341371 -262.5)" />
  <use href="#b1" transform="translate(-1000.259341371 -52.5)" />
  <use href="#b2" transform="translate(-1000.259341371 52.5)" />
  <use href="#b1" transform="translate(-1000.259341371 262.5)" />
  <use href="#b2" transform="translate(-1000.259341371 367.5)" />
  <use href="#b1" transform="translate(-1000.259341371 577.5)" />
  <use href="#b2" transform="translate(-1000.259341371 682.5)" />
  <use href="#b1" transform="translate(-1000.259341371 892.5)" />
  <use href="#b2" transform="translate(-1000.259341371 997.5)" />
  <use href="#b1" transform="translate(-1000.259341371 1207.5)" />
  <use href="#b2" transform="translate(-1000.259341371 1312.5)" />
  <use href="#b1" transform="translate(-909.3266739737 -1155.0)" />
  <use href="#b2" transform="translate(-909.3266739737 -1050.0)" />
  <use href="#b1" transform="translate(-909.3266739737 -840.0)" />
  <use href="#b2" transform="translate(-909.3266739737 -735.0)" />
  <use href="#b1" transform="translate(-909.3266739737 -525.0)" />
  <use href="#b2" transform="translate(-909.3266739737 -420.0)" />
  <use href="#b1" transform="translate(-909.3266739737 -210.0)" />
  <use href="#b2" transform="translate(-909.3266739737 -105.0)" />
  <use href="#b1" transform="translate(-909.3266739737 105.0)" />
  <use href="#b2" transform="translate(-909.3266739737 210.0)" />
  <use href="#b1" transform="translate(-909.3266739737 420.0)" />
  <use href="#b2" transform="translate(-909.3266739737 525.0)" />
  <use href="#b1" transform="translate(-909.3266739737 735.0)" />
  <use href="#b2" transform="translate(-909.3266739737 840.0)" />
  <use href="#b1" transform="translate(-909.3266739737 1050.0)" />
  <use href="#b2" transform="translate(-909.3266739737 1155.0)" />
  <use href="#b2" transform="translate(-818.3940065763 -1207.5)" />
  <use href="#b1" transform="translate(-818.3940065763 -997.5)" />
  <use href="#b2" transform="translate(-818.3940065763 -892.5)" />
  <use href="#b1" transform="translate(-818.3940065763 -682.5)" />
  <use href="#b2" transform="translate(-818.3940065763 -577.5)" />
  <use href="#b1" transform="translate(-818.3940065763 -367.5)" />
  <use href="#b2" transform="translate(-818.3940065763 -262.5)" />
  <use href="#b1" transform="translate(-818.3940065763 -52.5)" />
  <use href="#b2" transform="translate(-818.3940065763 52.5)" />
  <use href="#b1" transform="translate(-818.3940065763 262.5)" />
  <use href="#b2" transform="translate(-818.3940065763 367.5)" />
  <use href="#b1" transform="translate(-818.3940065763 577.5)" />
  <use href="#b2" transform="translate(-818.3940065763 682.5)" />
  <use href="#b1" transform="translate(-818.3940065763 892.5)" />
  <use href="#b2" transform="translate(-818.3940065763 997.5)" />
  <use href="#b1" transform="translate(-818.3940065763 1207.5)" />
  <use href="#b2" transform="translate(-818.3940065763 1312.5)" />
  <use href="#b1" transform="translate(-727.4613391789 -1155.0)" />
  <use href="#b2" transform="translate(-727.4613391789 -1050.0)" />
  <use href="#b1" transform="translate(-727.4613391789 -840.0)" />
  <use href="#b2" transform="translate(-727.4613391789 -735.0)" />
  <use href="#b1" transform="translate(-727.4613391789 -525.0)" />
  <use href="#b2" transform="translate(-727.4613391789 -420.0)" />
  <use href="#b1" transform="translate(-727.4613391789 -210.0)" />
  <use href="#b2" transform="translate(-727.4613391789 -105.0)" />
  <use href="#b1" transform="translate(-727.4613391789 105.0)" />
  <use href="#b2" transform="translate(-727.4613391789 210.0)" />
  <use href="#b1" transform="translate(-727.4613391789 420.0)" />
  <use href="#b2" transform="translate(-727.4613391789 525.0)" />
  <use href="#b1" transform="translate(-727.4613391789 735.0)" />
  <use href="#b2" transform="translate(-727.4613391789 840.0)" />
  <use href="#b1" transform="translate(-727.4613391789 1050.0)" />
  <use href="#b2" transform="translate(-727.4613391789 1155.0)" />
  <use href="#b2" transform="translate(-636.5286717816 -1207.5)" />
  <use href="#b1" transform="translate(-636.5286717816 -997.5)" />
  <use href="#b2" transform="translate(-636.5286717816 -892.5)" />
  <use href="#b1" transform="translate(-636.5286717816 -682.5)" />
  <use href="#b2" transform="translate(-636.5286717816 -577.5)" />
  <use href="#b1" transform="translate(-636.5286717816 -367.5)" />
  <use href="#b2" transform="translate(-636.5286717816 -262.5)" />
  <use href="#b1" transform="translate(-636.5286717816 -52.5)" />
  <use href="#b2" transform="translate(-636.5286717816 52.5)" />
  <use href="#b1" transform="translate(-636.5286717816 262.5)" />
  <use href="#b2" transform="translate(-636.5286717816 367.5)" />
  <use href="#b1" transform="translate(-636.5286717816 577.5)" />
  <use href="#b2" transform="translate(-636.5286717816 682.5)" />
  <use href="#b1" transform="translate(-636.5286717816 892.5)" />
  <use href="#b2" transform="translate(-636.5286717816 997.5)" />
  <use href="#b1" transform="translate(-636.5286717816 1207.5)" />
  <use href="#b2" transform="translate(-636.5286717816 1312.5)" />
  <use href="#b1" transform="translate(-545.5960043842 -1155.0)" />
  <use href="#b2" transform="translate(-545.5960043842 -1050.0)" />
  <use href="#b1" transform="translate(-545.5960043842 -840.0)" />
  <use href="#b2" transform="translate(-545.5960043842 -735.0)" />
  <use href="#b1" transform="translate(-545.5960043842 -525.0)" />
  <use href="#b2" transform="translate(-545.5960043842 -420.0)" />
  <use href="#b1" transform="translate(-545.5960043842 -210.0)" />
  <use href="#b2" transform="translate(-545.5960043842 -105.0)" />
  <use href="#b1" transform="translate(-545.5960043842 105.0)" />
  <use href="#b2" transform="translate(-545.5960043842 210.0)" />
  <use href="#b1" transform="translate(-545.5960043842 420.0)" />
  <use href="#b2" transform="translate(-545.5960043842 525.0)" />
  <use href="#b1" transform="translate(-545.5960043842 735.0)" />
  <use href="#b2" transform="translate(-545.5960043842 840.0)" />
  <use href="#b1" transform="translate(-545.5960043842 1050.0)" />
  <use href="#b2" transform="translate(-545.5960043842 1155.0)" />
  <use href="#b2" transform="translate(-454.6633369868 -1207.5)" />
  <use href="#b1" transform="translate(-454.6633369868 -997.5)" />
  <use href="#b2" transform="translate(-454.6633369868 -892.5)" />
  <use href="#b1" transform="translate(-454.6633369868 -682.5)" />
  <use href="#b2" transform="translate(-454.6633369868 -577.5)" />
  <use href="#b1" transform="translate(-454.6633369868 -367.5)" />
  <use href="#b2" transform="translate(-454.6633369868 -262.5)" />
  <use href="#b1" transform="translate(-454.6633369868 -52.5)" />
  <use href="#b2" transform="translate(-454.6633369868 52.5)" />
  <use href="#b1" transform="translate(-454.6633369868 262.5)" />
  <use href="#b2" transform="translate(-454.6633369868 367.5)" />
  <use href="#b1" transform="translate(-454.6633369868 577.5)" />
  <use href="#b2" transform="translate(-454.6633369868 682.5)" />
  <use href="#b1" transform="translate(-454.6633369868 892.5)" />
  <use href="#b2" transform="translate(-454.6633369868 997.5)" />
  <use href="#b1" transform="translate(-454.6633369868 1207.5)" />
  <use href="#b2" transform="translate(-454.6633369868 1312.5)" />
  <use href="#b1" transform="translate(-363.7306695895 -1155.0)" />
  <use href="#b2" transform="translate(-363.7306695895 -1050.0)" />
  <use href="#b1" transform="translate(-363.7306695895 -840.0)" />
  <use href="#b2" transform="translate(-363.7306695895 -735.0)" />
  <use href="#b1" transform="translate(-363.7306695895 -525.0)" />
  <use href="#b2" transform="translate(-363.7306695895 -420.0)" />
  <use href="#b1" transform="translate(-363.7306695895 -210.0)" />
  <use href="#b2" transform="translate(-363.7306695895 -105.0)" />
  <use href="#b1" transform="translate(-363.7306695895 105.0)" />
  <use href="#b2" transform="translate(-363.7306695895 210.0)" />
  <use href="#b1" transform="translate(-363.7306695895 420.0)" />
  <use href="#b2" transform="translate(-363.7306695895 525.0)" />
  <use href="#b1" transform="translate(-363.7306695895 735.0)" />
  <use href="#b2" transform="translate(-363.7306695895 840.0)" />
  <use href="#b1" transform="translate(-363.7306695895 1050.0)" />
  <use href="#b2" transform="translate(-363.7306695895 1155.0)" />
  <use href="#b2" transform="translate(-272.7980021921 -1207.5)" />
  <use href="#b1" transform="translate(-272.7980021921 -997.5)" />
  <use href="#b2" transform="translate(-272.7980021921 -892.5)" />
  <use href="#b1" transform="translate(-272.7980021921 -682.5)" />
  <use href="#b2" transform="translate(-272.7980021921 -577.5)" />
  <use href="#b1" transform="translate(-272.7980021921 -367.5)" />
  <use href="#b2" transform="translate(-272.7980021921 -262.5)" />
  <use href="#b1" transform="translate(-272.7980021921 -52.5)" />
  <use href="#b2" transform="translate(-272.7980021921 52.5)" />
  <use href="#b1" transform="translate(-272.7980021921 262.5)" />
  <use href="#b2" transform="translate(-272.7980021921 367.5)" />
  <use href="#b1" transform="translate(-272.7980021921 577.5)" />
  <use href="#b2" transform="translate(-272.7980021921 682.5)" />
  <use href="#b1" transform="translate(-272.7980021921 892.5)" />
  <use href="#b2" transform="translate(-272.7980021921 997.5)" />
  <use href="#b1" transform="translate(-272.7980021921 1207.5)" />
  <use href="#b2" transform="translate(-272.7980021921 1312.5)" />
  <use href="#b1" transform="translate(-181.8653347947 -1155.0)" />
  <use href="#b2" transform="translate(-181.8653347947 -1050.0)" />
  <use href="#b1" transform="translate(-181.8653347947 -840.0)" />
  <use href="#b2" transform="translate(-181.8653347947 -735.0)" />
  <use href="#b1" transform="translate(-181.8653347947 -525.0)" />
  <use href="#b2" transform="translate(-181.8653347947 -420.0)" />
  <use href="#b1" transform="translate(-181.8653347947 -210.0)" />
  <use href="#b2" transform="translate(-181.8653347947 -105.0)" />
  <use href="#b1" transform="translate(-181.8653347947 105.0)" />
  <use href="#b2" transform="translate(-181.8653347947 210.0)" />
  <use href="#b1" transform="translate(-181.8653347947 420.0)" />
  <use href="#b2" transform="translate(-181.8653347947 525.0)" />
  <use href="#b1" transform="translate(-181.8653347947 735.0)" />
  <use href="#b2" transform="translate(-181.8653347947 840.0)" />
  <use href="#b1" transform="translate(-181.8653347947 1050.0)" />
  <use href="#b2" transform="translate(-181.8653347947 1155.0)" />
  <use href="#b2" transform="translate(-90.9326673974 -1207.5)" />
  <use href="#b1" transform="translate(-90.9326673974 -997.5)" />
  <use href="#b2" transform="translate(-90.9326673974 -892.5)" />
  <use href="#b1" transform="translate(-90.9326673974 -682.5)" />
  <use href="#b2" transform="translate(-90.9326673974 -577.5)" />
  <use href="#b1" transform="translate(-90.9326673974 -367.5)" />
  <use href="#b2" transform="translate(-90.9326673974 -262.5)" />
  <use href="#b1" transform="translate(-90.9326673974 -52.5)" />
  <use href="#b2" transform="translate(-90.9326673974 52.5)" />
  <use href="#b1" transform="translate(-90.9326673974 262.5)" />
  <use href="#b2" transform="translate(-90.9326673974 367.5)" />
  <use href="#b1" transform="translate(-90.9326673974 577.5)" />
  <use href="#b2" transform="translate(-90.9326673974 682.5)" />
  <use href="#b1" transform="translate(-90.9326673974 892.5)" />
  <use href="#b2" transform="translate(-90.9326673974 997.5)" />
  <use href="#b1" transform="translate(-90.9326673974 1207.5)" />
  <use href="#b2" transform="translate(-90.9326673974 1312.5)" />
  <use href="#b1" transform="translate(0.0 -1155.0)" />
  <use href="#b2" transform="translate(0.0 -1050.0)" />
  <use href="#b1" transform="translate(0.0 -840.0)" />
  <use href="#b2" transform="translate(0.0 -735.0)" />
  <use href="#b1" transform="translate(0.0 -525.0)" />
  <use href="#b2" transform="translate(0.0 -420.0)" />
  <use href="#b1" transform="translate(0.0 -210.0)" />
  <use href="#b2" transform="translate(0.0 -105.0)" />
  <use href="#b1" transform="translate(0.0 105.0)" />
  <use href="#b2" transform="translate(0.0 210.0)" />
  <use href="#b1" transform="translate(0.0 420.0)" />
  <use href="#b2" transform="translate(0.0 525.0)" />
  <use href="#b1" transform="translate(0.0 735.0)" />
  <use href="#b2" transform="translate(0.0 840.0)" />
  <use href="#b1" transform="translate(0.0 1050.0)" />
  <use href="#b2" transform="translate(0.0 1155.0)" />
  <use href="#b2" transform="translate(90.9326673974 -1207.5)" />
  <use href="#b1" transform="translate(90.9326673974 -997.5)" />
  <use href="#b2" transform="translate(90.9326673974 -892.5)" />
  <use href="#b1" transform="translate(90.9326673974 -682.5)" />
  <use href="#b2" transform="translate(90.9326673974 -577.5)" />
  <use href="#b1" transform="translate(90.9326673974 -367.5)" />
  <use href="#b2" transform="translate(90.9326673974 -262.5)" />
  <use href="#b1" transform="translate(90.9326673974 -52.5)" />
  <use href="#b2" transform="translate(90.9326673974 52.5)" />
  <use href="#b1" transform="translate(90.9326673974 262.5)" />
  <use href="#b2" transform="translate(90.9326673974 367.5)" />
  <use href="#b1" transform="translate(90.9326673974 577.5)" />
  <use href="#b2" transform="translate(90.9326673974 682.5)" />
  <use href="#b1" transform="translate(90.9326673974 892.5)" />
  <use href="#b2" transform="translate(90.9326673974 997.5)" />
  <use href="#b1" transform="translate(90.9326673974 1207.5)" />
  <use href="#b2" transform="translate(90.9326673974 1312.5)" />
  <use href="#b1" transform="translate(181.8653347947 -1155.0)" />
  <use href="#b2" transform="translate(181.8653347947 -1050.0)" />
  <use href="#b1" transform="translate(181.8653347947 -840.0)" />
  <use href="#b2" transform="translate(181.8653347947 -735.0)" />
  <use href="#b1" transform="translate(181.8653347947 -525.0)" />
  <use href="#b2" transform="translate(181.8653347947 -420.0)" />
  <use href="#b1" transform="translate(181.8653347947 -210.0)" />
  <use href="#b2" transform="translate(181.8653347947 -105.0)" />
  <use href="#b1" transform="translate(181.8653347947 105.0)" />
  <use href="#b2" transform="translate(181.8653347947 210.0)" />
  <use href="#b1" transform="translate(181.8653347947 420.0)" />
  <use href="#b2" transform="translate(181.8653347947 525.0)" />
  <use href="#b1" transform="translate(181.8653347947 735.0)" />
  <use href="#b2" transform="translate(181.8653347947 840.0)" />
  <use href="#b1" transform="translate(181.8653347947 1050.0)" />
  <use href="#b2" transform="translate(181.8653347947 1155.0)" />
  <use href="#b2" transform="translate(272.7980021921 -1207.5)" />
  <use href="#b1" transform="translate(272.7980021921 -997.5)" />
  <use href="#b2" transform="translate(272.7980021921 -892.5)" />
  <use href="#b1" transform="translate(272.7980021921 -682.5)" />
  <use href="#b2" transform="translate(272.7980021921 -577.5)" />
  <use href="#b1" transform="translate(272.7980021921 -367.5)" />
  <use href="#b2" transform="translate(272.7980021921 -262.5)" />
  <use href="#b1" transform="translate(272.7980021921 -52.5)" />
  <use href="#b2" transform="translate(272.7980021921 52.5)" />
  <use href="#b1" transform="translate(272.7980021921 262.5)" />
  <use href="#b2" transform="translate(272.7980021921 367.5)" />
  <use href="#b1" transform="translate(272.7980021921 577.5)" />
  <use href="#b2" transform="translate(272.7980021921 682.5)" />
  <use href="#b1" transform="translate(272.7980021921 892.5)" />
  <use href="#b2" transform="translate(272.7980021921 997.5)" />
  <use href="#b1" transform="translate(272.7980021921 1207.5)" />
  <use href="#b2" transform="translate(272.7980021921 1312.5)" />
  <use href="#b1" transform="translate(363.7306695895 -1155.0)" />
  <use href="#b2" transform="translate(363.7306695895 -1050.0)" />
  <use href="#b1" transform="translate(363.7306695895 -840.0)" />
  <use href="#b2" transform="translate(363.7306695895 -735.0)" />
  <use href="#b1" transform="translate(363.7306695895 -525.0)" />
  <use href="#b2" transform="translate(363.7306695895 -420.0)" />
  <use href="#b1" transform="translate(363.7306695895 -210.0)" />
  <use href="#b2" transform="translate(363.7306695895 -105.0)" />
  <use href="#b1" transform="translate(363.7306695895 105.0)" />
  <use href="#b2" transform="translate(363.7306695895 210.0)" />
  <use href="#b1" transform="translate(363.7306695895 420.0)" />
  <use href="#b2" transform="translate(363.7306695895 525.0)" />
  <use href="#b1" transform="translate(363.7306695895 735.0)" />
  <use href="#b2" transform="translate(363.7306695895 840.0)" />
  <use href="#b1" transform="translate(363.7306695895 1050.0)" />
  <use href="#b2" transform="translate(363.7306695895 1155.0)" />
  <use href="#b2" transform="translate(454.6633369868 -1207.5)" />
  <use href="#b1" transform="translate(454.6633369868 -997.5)" />
  <use href="#b2" transform="translate(454.6633369868 -892.5)" />
  <use href="#b1" transform="translate(454.6633369868 -682.5)" />
  <use href="#b2" transform="translate(454.6633369868 -577.5)" />
  <use href="#b1" transform="translate(454.6633369868 -367.5)" />
  <use href="#b2" transform="translate(454.6633369868 -262.5)" />
  <use href="#b1" transform="translate(454.6633369868 -52.5)" />
  <use href="#b2" transform="translate(454.6633369868 52.5)" />
  <use href="#b1" transform="translate(454.6633369868 262.5)" />
  <use href="#b2" transform="translate(454.6633369868 367.5)" />
  <use href="#b1" transform="translate(454.6633369868 577.5)" />
  <use href="#b2" transform="translate(454.6633369868 682.5)" />
  <use href="#b1" transform="translate(454.6633369868 892.5)" />
  <use href="#b2" transform="translate(454.6633369868 997.5)" />
  <use href="#b1" transform="translate(454.6633369868 1207.5)" />
  <use href="#b2" transform="translate(454.6633369868 1312.5)" />
  <use href="#b1" transform="translate(545.5960043842 -1155.0)" />
  <use href="#b2" transform="translate(545.5960043842 -1050.0)" />
  <use href="#b1" transform="translate(545.5960043842 -840.0)" />
  <use href="#b2" transform="translate(545.5960043842 -735.0)" />
  <use href="#b1" transform="translate(545.5960043842 -525.0)" />
  <use href="#b2" transform="translate(545.5960043842 -420.0)" />
  <use href="#b1" transform="translate(545.5960043842 -210.0)" />
  <use href="#b2" transform="translate(545.5960043842 -105.0)" />
  <use href="#b1" transform="translate(545.5960043842 105.0)" />
  <use href="#b2" transform="translate(545.5960043842 210.0)" />
  <use href="#b1" transform="translate(545.5960043842 420.0)" />
  <use href="#b2" transform="translate(545.5960043842 525.0)" />
  <use href="#b1" transform="translate(545.5960043842 735.0)" />
  <use href="#b2" transform="translate(545.5960043842 840.0)" />
  <use href="#b1" transform="translate(545.5960043842 1050.0)" />
  <use href="#b2" transform="translate(545.5960043842 1155.0)" />
  <use href="#b2" transform="translate(636.5286717816 -1207.5)" />
  <use href="#b1" transform="translate(636.5286717816 -997.5)" />
  <use href="#b2" transform="translate(636.5286717816 -892.5)" />
  <use href="#b1" transform="translate(636.5286717816 -682.5)" />
  <use href="#b2" transform="translate(636.5286717816 -577.5)" />
  <use href="#b1" transform="translate(636.5286717816 -367.5)" />
  <use href="#b2" transform="translate(636.5286717816 -262.5)" />
  <use href="#b1" transform="translate(636.5286717816 -52.5)" />
  <use href="#b2" transform="translate(636.5286717816 52.5)" />
  <use href="#b1" transform="translate(636.5286717816 262.5)" />
  <use href="#b2" transform="translate(636.5286717816 367.5)" />
  <use href="#b1" transform="translate(636.5286717816 577.5)" />
  <use href="#b2" transform="translate(636.5286717816 682.5)" />
  <use href="#b1" transform="translate(636.5286717816 892.5)" />
  <use href="#b2" transform="translate(636.5286717816 997.5)" />
  <use href="#b1" transform="translate(636.5286717816 1207.5)" />
  <use href="#b2" transform="translate(636.5286717816 1312.5)" />
  <use href="#b1" transform="translate(727.4613391789 -1155.0)" />
  <use href="#b2" transform="translate(727.4613391789 -1050.0)" />
  <use href="#b1" transform="translate(727.4613391789 -840.0)" />
  <use href="#b2" transform="translate(727.4613391789 -735.0)" />
  <use href="#b1" transform="translate(727.4613391789 -525.0)" />
  <use href="#b2" transform="translate(727.4613391789 -420.0)" />
  <use href="#b1" transform="translate(727.4613391789 -210.0)" />
  <use href="#b2" transform="translate(727.4613391789 -105.0)" />
  <use href="#b1" transform="translate(727.4613391789 105.0)" />
  <use href="#b2" transform="translate(727.4613391789 210.0)" />
  <use href="#b1" transform="translate(727.4613391789 420.0)" />
  <use href="#b2" transform="translate(727.4613391789 525.0)" />
  <use href="#b1" transform="translate(727.4613391789 735.0)" />
  <use href="#b2" transform="translate(727.4613391789 840.0)" />
  <use href="#b1" transform="translate(727.4613391789 1050.0)" />
  <use href="#b2" transform="translate(727.4613391789 1155.0)" />
  <use href="#b2" transform="translate(818.3940065763 -1207.5)" />
  <use href="#b1" transform="translate(818.3940065763 -997.5)" />
  <use href="#b2" transform="translate(818.3940065763 -892.5)" />
  <use href="#b1" transform="translate(818.3940065763 -682.5)" />
  <use href="#b2" transform="translate(818.3940065763 -577.5)" />
  <use href="#b1" transform="translate(818.3940065763 -367.5)" />
  <use href="#b2" transform="translate(818.3940065763 -262.5)" />
  <use href="#b1" transform="translate(818.3940065763 -52.5)" />
  <use href="#b2" transform="translate(818.3940065763 52.5)" />
  <use href="#b1" transform="translate(818.3940065763 262.5)" />
  <use href="#b2" transform="translate(818.3940065763 367.5)" />
  <use href="#b1" transform="translate(818.3940065763 577.5)" />
  <use href="#b2" transform="translate(818.3940065763 682.5)" />
  <use href="#b1" transform="translate(818.3940065763 892.5)" />
  <use href="#b2" transform="translate(818.3940065763 997.5)" />
  <use href="#b1" transform="translate(818.3940065763 1207.5)" />
  <use href="#b2" transform="translate(818.3940065763 1312.5)" />
  <use href="#b1" transform="translate(909.3266739737 -1155.0)" />
  <use href="#b2" transform="translate(909.3266739737 -1050.0)" />
  <use href="#b1" transform="translate(909.3266739737 -840.0)" />
  <use href="#b2" transform="translate(909.3266739737 -735.0)" />
  <use href="#b1" transform="translate(909.3266739737 -525.0)" />
  <use href="#b2" transform="translate(909.3266739737 -420.0)" />
  <use href="#b1" transform="translate(909.3266739737 -210.0)" />
  <use href="#b2" transform="translate(909.3266739737 -105.0)" />
  <use href="#b1" transform="translate(909.3266739737 105.0)" />
  <use href="#b2" transform="translate(909.3266739737 210.0)" />
  <use href="#b1" transform="translate(909.3266739737 420.0)" />
  <use href="#b2" transform="translate(909.3266739737 525.0)" />
  <use href="#b1" transform="translate(909.3266739737 735.0)" />
  <use href="#b2" transform="translate(909.3266739737 840.0)" />
  <use href="#b1" transform="translate(909.3266739737 1050.0)" />
  <use href="#b2" transform="translate(909.3266739737 1155.0)" />
  <use href="#b2" transform="translate(1000.259341371 -1207.5)" />
  <use href="#b1" transform="translate(1000.259341371 -997.5)" />
  <use href="#b2" transform="translate(1000.259341371 -892.5)" />
  <use href="#b1" transform="translate(1000.259341371 -682.5)" />
  <use href="#b2" transform="translate(1000.259341371 -577.5)" />
  <use href="#b1" transform="translate(1000.259341371 -367.5)" />
  <use href="#b2" transform="translate(1000.259341371 -262.5)" />
  <use href="#b1" transform="translate(1000.259341371 -52.5)" />
  <use href="#b2" transform="translate(1000.259341371 52.5)" />
  <use href="#b1" transform="translate(1000.259341371 262.5)" />
  <use href="#b2" transform="translate(1000.259341371 367.5)" />
  <use href="#b1" transform="translate(1000.259341371 577.5)" />
  <use href="#b2" transform="translate(1000.259341371 682.5)" />
  <use href="#b1" transform="translate(1000.259341371 892.5)" />
  <use href="#b2" transform="translate(1000.259341371 997.5)" />
  <use href="#b1" transform="translate(1000.259341371 1207.5)" />
  <use href="#b2" transform="translate(1000.259341371 1312.5)" />
  <use href="#b1" transform="translate(1091.1920087684 -1155.0)" />
  <use href="#b2" transform="translate(1091.1920087684 -1050.0)" />
  <use href="#b1" transform="translate(1091.1920087684 -840.0)" />
  <use href="#b2" transform="translate(1091.1920087684 -735.0)" />
  <use href="#b1" transform="translate(1091.1920087684 -525.0)" />
  <use href="#b2" transform="translate(1091.1920087684 -420.0)" />
  <use href="#b1" transform="translate(1091.1920087684 -210.0)" />
  <use href="#b2" transform="translate(1091.1920087684 -105.0)" />
  <use href="#b1" transform="translate(1091.1920087684 105.0)" />
  <use href="#b2" transform="translate(1091.1920087684 210.0)" />
  <use href="#b1" transform="translate(1091.1920087684 420.0)" />
  <use href="#b2" transform="translate(1091.1920087684 525.0)" />
  <use href="#b1" transform="translate(1091.1920087684 735.0)" />
  <use href="#b2" transform="translate(1091.1920087684 840.0)" />
  <use href="#b1" transform="translate(1091.1920087684 1050.0)" />
  <use href="#b2" transform="translate(1091.1920087684 1155.0)" />
  <use href="#b2" transform="translate(1182.1246761658 -1207.5)" />
  <use href="#b1" transform="translate(1182.1246761658 -997.5)" />
  <use href="#b2" transform="translate(1182.1246761658 -892.5)" />
  <use href="#b1" transform="translate(1182.1246761658 -682.5)" />
  <use href="#b2" transform="translate(1182.1246761658 -577.5)" />
  <use href="#b1" transform="translate(1182.1246761658 -367.5)" />
  <use href="#b2" transform="translate(1182.1246761658 -262.5)" />
  <use href="#b1" transform="translate(1182.1246761658 -52.5)" />
  <use href="#b2" transform="translate(1182.1246761658 52.5)" />
  <use href="#b1" transform="translate(1182.1246761658 262.5)" />
  <use href="#b2" transform="translate(1182.1246761658 367.5)" />
  <use href="#b1" transform="translate(1182.1246761658 577.5)" />
  <use href="#b2" transform="translate(1182.1246761658 682.5)" />
  <use href="#b1" transform="translate(1182.1246761658 892.5)" />
  <use href="#b2" transform="translate(1182.1246761658 997.5)" />
  <use href="#b1" transform="translate(1182.1246761658 1207.5)" />
  <use href="#b2" transform="translate(1182.1246761658 1312.5)" />
  <use href="#b1" transform="translate(1273.0573435631 -1155.0)" />
  <use href="#b2" transform="translate(1273.0573435631 -1050.0)" />
  <use href="#b1" transform="translate(1273.0573435631 -840.0)" />
  <use href="#b2" transform="translate(1273.0573435631 -735.0)" />
  <use href="#b1" transform="translate(1273.0573435631 -525.0)" />
  <use href="#b2" transform="translate(1273.0573435631 -420.0)" />
  <use href="#b1" transform="translate(1273.0573435631 -210.0)" />
  <use href="#b2" transform="translate(1273.0573435631 -105.0)" />
  <use href="#b1" transform="translate(1273.0573435631 105.0)" />
  <use href="#b2" transform="translate(1273.0573435631 210.0)" />
  <use href="#b1" transform="translate(1273.0573435631 420.0)" />
  <use href="#b2" transform="translate(1273.0573435631 525.0)" />
  <use href="#b1" transform="translate(1273.0573435631 735.0)" />
  <use href="#b2" transform="translate(1273.0573435631 840.0)" />
  <use href="#b1" transform="translate(1273.0573435631 1050.0)" />
  <use href="#b2" transform="translate(1273.0573435631 1155.0)" />
  <use href="#b0" />
</svg>