<svg
  width="32px"
  height="32px"
  version="1.1"
  viewBox="0 0 1200 1200"
  xmlns="http://www.w3.org/2000/svg"
>
  <path
    d="m440.9 440.76-53.156 53.156c-87.562 87.562-87.562 230.53 0 318.05 87.562 87.562 230.76 87.562 318.32 0l52.875-52.875v0.046875c7.0781-7.0781 11.062-16.641 11.062-26.578 0-9.9844-3.9844-19.547-11.062-26.578l-265.22-265.18 0.046875-0.046876c-14.625-14.531-38.25-14.531-52.875 0zm26.578 79.734 212.06 212.06-26.578 26.578c-58.922 58.875-153.14 58.875-212.06 0-58.922-58.875-58.922-153.14 0-212.06z"
    fill="#eaeae0"
  />
  <path
    d="m1012.5 150.1c-9.9375-0.046875-19.5 3.8438-26.578 10.828l-227.02 227.02v-0.046875c-14.531 14.625-14.531 38.25 0 52.875 7.0781 7.0781 16.641 11.062 26.578 11.062 9.9844 0 19.547-3.9844 26.578-11.062l227.02-226.74v0.046875c7.0781-7.0312 11.016-16.594 11.016-26.578s-3.9375-19.547-11.016-26.578c-7.0781-6.9844-16.641-10.875-26.578-10.828z"
    fill="#eaeae0"
  />
  <path
    d="m652.97 322.31c-57.656 0-115.12 21.844-158.9 65.625l-52.875 52.875v-0.046875c-7.0781 7.0312-11.016 16.594-11.016 26.578s3.9375 19.547 11.016 26.578l265.22 265.18v0.046875c14.625 14.531 38.203 14.531 52.828 0l53.156-53.156c87.562-87.562 87.562-230.53 0-318.05-43.781-43.781-101.53-65.625-159.19-65.625zm0 74.484c38.297 0 76.594 14.578 106.03 44.016 58.875 58.875 58.875 153.42 0 212.34l-26.297 26.297-212.34-212.06 26.578-26.578c29.438-29.438 67.734-44.016 106.03-44.016z"
    fill="#eaeae0"
  />
  <path
    d="m387.74 759.14-226.74 226.74 0.046875-0.046874c-7.0781 7.0312-11.062 16.594-11.062 26.578 0 9.9844 3.9844 19.547 11.062 26.578 14.625 14.531 38.203 14.531 52.828 0l227.02-227.02v0.046876c14.531-14.625 14.531-38.25 0-52.875-7.0312-7.0781-16.594-11.062-26.578-11.062s-19.547 3.9844-26.578 11.062z"
    fill="#eaeae0"
  />
</svg>