<svg
  width="32px"
  height="32px"
  version="1.1"
  viewBox="0 0 1200 1200"
  xmlns="http://www.w3.org/2000/svg"
>
  <path
    d="m321.71 840.98c-9.9375-0.09375-19.5 3.7969-26.578 10.781l-134.26 134.26c-14.531 14.625-14.531 38.25 0 52.875 7.0312 7.0781 16.594 11.062 26.578 11.062s19.547-3.9844 26.578-11.062l134.02-133.97h-0.046875c7.0781-7.0312 11.062-16.594 11.062-26.578 0-9.9844-3.9844-19.547-11.062-26.578-6.9844-6.8906-16.453-10.781-26.297-10.781z"
    fill="#de7754"
  />
  <path
    d="m348 533.72-52.875 53.156c-87.562 87.562-87.562 230.53 0 318.05 87.562 87.562 230.53 87.562 318.1 0l53.156-53.156c14.531-14.625 14.531-38.25 0-52.875l-265.22-265.18c-7.0312-7.0781-16.594-11.062-26.578-11.062s-19.547 3.9844-26.578 11.062zm26.578 79.734 212.06 212.06-26.297 26.297c-58.875 58.875-153.42 58.875-212.29 0-58.922-58.875-58.922-153.14 0-212.06z"
    fill="#de7754"
  />
  <path
    d="m480.61 507.14-79.453 79.734v-0.046875c-14.531 14.625-14.531 38.25 0 52.875 14.625 14.531 38.25 14.531 52.875 0l79.734-79.453c7.0312-7.0312 11.016-16.594 11.016-26.531 0-9.9844-3.9844-19.547-11.016-26.578-7.0312-7.0781-16.594-11.062-26.578-11.062s-19.547 3.9844-26.578 11.062z"
    fill="#de7754"
  />
  <path
    d="m666.37 655.22c-9.9844 0-19.547 3.9844-26.578 11.062l-79.453 79.453c-7.0781 7.0312-11.062 16.594-11.062 26.578s3.9844 19.547 11.062 26.578c14.625 14.531 38.25 14.531 52.875 0l79.734-79.734c14.531-14.625 14.531-38.25 0-52.875-7.0781-7.0781-16.641-11.062-26.578-11.062z"
    fill="#de7754"
  />
  <path
    d="m1012.4 150.05c-9.8438 0.046875-19.312 4.0312-26.297 11.062l-134.26 133.97c-14.531 14.625-14.531 38.25 0 52.875 7.0312 7.0781 16.594 11.062 26.578 11.062s19.547-3.9844 26.578-11.062l134.02-133.97h-0.046875c14.578-14.625 14.578-38.25 0-52.875-7.0312-7.0781-16.594-11.062-26.578-11.062z"
    fill="#de7754"
  />
  <path
    d="m745.78 229.45c-57.656 0-115.41 21.844-159.19 65.625l-52.875 52.875h0.046874c-7.0781 7.0312-11.062 16.594-11.062 26.578s3.9844 19.547 11.062 26.578l265.22 265.18h-0.046875c14.625 14.531 38.25 14.531 52.875 0l53.156-53.156c87.562-87.562 87.562-230.53 0-318.05-43.781-43.781-101.53-65.625-159.19-65.625zm0 74.484c38.297 0 76.594 14.578 106.03 44.016 58.922 58.875 58.922 153.42 0 212.34l-26.578 26.297-212.02-212.06 26.578-26.578c29.438-29.438 67.688-44.016 106.03-44.016z"
    fill="#de7754"
  />
</svg>