<?xml version="1.0" encoding="UTF-8" standalone="no"?>
<!DOCTYPE svg PUBLIC "-//W3C//DTD SVG 1.1//EN" "http://www.w3.org/Graphics/SVG/1.1/DTD/svg11.dtd">
<svg width="100%" height="100%" viewBox="0 0 34 34" version="1.1" xmlns="http://www.w3.org/2000/svg" xmlns:xlink="http://www.w3.org/1999/xlink" xml:space="preserve" xmlns:serif="http://www.serif.com/" style="fill-rule:evenodd;clip-rule:evenodd;stroke-linejoin:round;stroke-miterlimit:2;">
    <g id="Artboard3" transform="matrix(1.00034,0,0,1.03188,0,0)">
        <rect x="0" y="0" width="33" height="32" style="fill:none;"/>
        <g id="Artboard2" transform="matrix(0.773853,0,0,0.738187,-37.9046,-35.8004)">
            <g>
                <rect x="49.527" y="49.396" width="41.553" height="41.553" style="fill:none;"/>
                <g>
                    <clipPath id="_clip1">
                        <rect x="49.527" y="49.396" width="41.553" height="41.553"/>
                    </clipPath>
                    <g clip-path="url(#_clip1)">
                        <g transform="matrix(2.18698,0,0,2.22256,-83.449,-83.7368)">
                            <g transform="matrix(1,0,0,1,1.80337,-1.213)">
                                <path d="M59.731,68.624L62.308,64.581L64.559,67.247L68.197,77.957L59.731,68.624Z" style="fill:rgb(67,61,49);"/>
                            </g>
                            <g transform="matrix(1,0,0,1,6.03627,-1.66311)">
                                <path d="M60.45,68.08L64.267,63.884L67.91,68.056L64.267,78.408L60.45,68.08Z" style="fill:rgb(132,124,107);"/>
                            </g>
                            <g transform="matrix(1,0,0,1,6.03627,-1.66311)">
                                <path d="M68.173,68.208L70.39,65.031L73.247,69.231L64.267,78.408L68.173,68.208Z" style="fill:rgb(67,61,49);"/>
                            </g>
                            <g transform="matrix(1,0,0,1,49.5272,49.3964)">
                                <path d="M15.135,13.971L16.718,16.638L20.382,13.096L15.135,13.971" style="fill:rgb(132,124,107);"/>
                            </g>
                            <g transform="matrix(1,0,0,1,55.1692,49.3964)">
                                <path d="M15.56,13.268L19.286,16.864L21.077,13.992" style="fill:rgb(132,124,107);"/>
                            </g>
                            <g transform="matrix(1,0,0,1,49.5272,49.3964)">
                                <path d="M16.959,16.638L20.777,12.824L24.497,16.638L16.959,16.638Z" style="fill:rgb(6,6,6);"/>
                            </g>
                            <g transform="matrix(1,0,0,1,60.8034,59.787)">
                                <path d="M18.9,7.2L15.9,3.2C15.823,3.097 15.709,3.028 15.582,3.007L9.582,2.007C9.528,1.998 9.472,1.998 9.418,2.007L3.418,3.007C3.291,3.028 3.177,3.097 3.1,3.2L0.1,7.2C-0.043,7.391 -0.031,7.657 0.128,7.834L9.128,17.834C9.223,17.939 9.358,18 9.5,18C9.642,18 9.777,17.94 9.872,17.834L18.872,7.834C19.032,7.656 19.044,7.391 18.9,7.2ZM12.786,7L9.5,16.037L6.214,7L12.786,7ZM6.707,6L9.5,3.207L12.293,6L6.707,6ZM10.957,3.25L14.655,3.866L13.422,5.715L10.956,3.25L10.957,3.25ZM5.578,5.715L4.345,3.866L8.043,3.25L5.578,5.715ZM4.67,6.156L1.685,6.753L3.476,4.365L4.67,6.156ZM5.177,7.075L8.151,15.254L1.459,7.818L5.177,7.074L5.177,7.075ZM13.823,7.075L17.541,7.819L10.849,15.255L13.823,7.076L13.823,7.075ZM14.33,6.156L15.524,4.365L17.315,6.753L14.33,6.156Z" style="fill:rgb(225,190,65);fill-rule:nonzero;"/>
                            </g>
                        </g>
                    </g>
                </g>
            </g>
        </g>
    </g>
</svg>
