<?xml version="1.0" encoding="UTF-8" standalone="no"?>
<!DOCTYPE svg PUBLIC "-//W3C//DTD SVG 1.1//EN" "http://www.w3.org/Graphics/SVG/1.1/DTD/svg11.dtd">
<svg width="100%" height="100%" viewBox="0 0 33 32" version="1.1" xmlns="http://www.w3.org/2000/svg" xmlns:xlink="http://www.w3.org/1999/xlink" xml:space="preserve" xmlns:serif="http://www.serif.com/" style="fill-rule:evenodd;clip-rule:evenodd;stroke-linejoin:round;stroke-miterlimit:2;">
    <g id="Artboard2" transform="matrix(0.774114,0,0,0.76172,-38.3397,-37.6263)">
        <rect x="49.527" y="49.396" width="41.553" height="41.553" style="fill:none;"/>
        <g transform="matrix(1.2918,0,0,1.31282,-20.5146,-19.87)">
            <g transform="matrix(1,0,0,1,1.80337,-1.213)">
                <path d="M59.731,68.624L62.308,64.581L64.559,67.247L68.197,77.957L59.731,68.624Z" style="fill:rgb(67,61,49);"/>
            </g>
            <g transform="matrix(1,0,0,1,6.03627,-1.66311)">
                <path d="M60.45,68.08L64.267,63.884L67.91,68.056L64.267,78.408L60.45,68.08Z" style="fill:rgb(132,124,107);"/>
            </g>
            <g transform="matrix(1,0,0,1,6.03627,-1.66311)">
                <path d="M68.173,68.208L70.39,65.031L73.247,69.231L64.267,78.408L68.173,68.208Z" style="fill:rgb(67,61,49);"/>
            </g>
            <g transform="matrix(1,0,0,1,49.5272,49.3964)">
                <path d="M15.135,13.971L16.718,16.638L20.382,13.096L15.135,13.971" style="fill:rgb(132,124,107);"/>
            </g>
            <g transform="matrix(1,0,0,1,55.1692,49.3964)">
                <path d="M15.56,13.268L19.286,16.864L21.077,13.992" style="fill:rgb(132,124,107);"/>
            </g>
            <g transform="matrix(1,0,0,1,49.5272,49.3964)">
                <path d="M16.959,16.638L20.777,12.824L24.497,16.638L16.959,16.638Z" style="fill:rgb(6,6,6);"/>
            </g>
            <g transform="matrix(1,0,0,1,60.8034,59.787)">
                <path d="M18.9,7.2L15.9,3.2C15.823,3.097 15.709,3.028 15.582,3.007L9.582,2.007C9.528,1.998 9.472,1.998 9.418,2.007L3.418,3.007C3.291,3.028 3.177,3.097 3.1,3.2L0.1,7.2C-0.043,7.391 -0.031,7.657 0.128,7.834L9.128,17.834C9.223,17.939 9.358,18 9.5,18C9.642,18 9.777,17.94 9.872,17.834L18.872,7.834C19.032,7.656 19.044,7.391 18.9,7.2ZM12.786,7L9.5,16.037L6.214,7L12.786,7ZM6.707,6L9.5,3.207L12.293,6L6.707,6ZM10.957,3.25L14.655,3.866L13.422,5.715L10.956,3.25L10.957,3.25ZM5.578,5.715L4.345,3.866L8.043,3.25L5.578,5.715ZM4.67,6.156L1.685,6.753L3.476,4.365L4.67,6.156ZM5.177,7.075L8.151,15.254L1.459,7.818L5.177,7.074L5.177,7.075ZM13.823,7.075L17.541,7.819L10.849,15.255L13.823,7.076L13.823,7.075ZM14.33,6.156L15.524,4.365L17.315,6.753L14.33,6.156Z" style="fill:rgb(225,190,65);fill-rule:nonzero;"/>
            </g>
        </g>
        <g transform="matrix(1.2918,0,0,1.31282,-20.5146,-18.5571)">
            <g transform="matrix(0.0206827,0.00388554,-0.00339625,0.0190614,30.9459,-13.1885)">
                <path d="M1987.81,3011.83C1987.81,3011.83 1973.74,3123.71 1972.07,3140.27C1962.95,3230.47 1952.78,3280.56 1931.7,3302.34C1910.62,3324.12 1857.86,3350.41 1819.92,3352.53C1781.99,3354.65 1738.95,3361.39 1738.95,3361.39C1738.95,3361.39 1789.47,3375.91 1823.87,3384.24C1855.71,3391.96 1904.03,3429.86 1920.48,3451.68C1943.44,3482.14 1962.82,3531.52 1968.37,3605.92C1973.92,3680.32 1995.24,3749.47 1995.24,3749.47C1995.24,3749.47 2012.18,3639.78 2013.56,3607.81C2014.93,3575.84 2025.62,3496.55 2064.39,3452.34C2103.17,3408.12 2156.82,3382.82 2200.66,3373.39C2244.16,3364.03 2249.2,3359.45 2240.8,3358.83C2222.89,3357.49 2193.68,3354.73 2163.8,3351.41C2128.1,3347.44 2080.18,3344.98 2047.9,3307.89C2012.2,3266.89 2012.98,3207.25 2005.68,3137.69C1998.87,3072.85 1996.3,3017.16 1987.81,3011.83Z" style="fill:rgb(248,248,246);"/>
            </g>
            <g>
                <g transform="matrix(0.00981187,0.00184329,-0.00148893,0.00835663,59.9964,48.3071)">
                    <path d="M1987.81,3011.83C1987.81,3011.83 1973.74,3123.71 1972.07,3140.27C1962.95,3230.47 1952.78,3280.56 1931.7,3302.34C1910.62,3324.12 1857.86,3350.41 1819.92,3352.53C1781.99,3354.65 1738.95,3361.39 1738.95,3361.39C1738.95,3361.39 1789.47,3375.91 1823.87,3384.24C1855.71,3391.96 1904.03,3429.86 1920.48,3451.68C1943.44,3482.14 1962.82,3531.52 1968.37,3605.92C1973.92,3680.32 1995.24,3749.47 1995.24,3749.47C1995.24,3749.47 2012.18,3639.78 2013.56,3607.81C2014.93,3575.84 2025.62,3496.55 2064.39,3452.34C2103.17,3408.12 2156.82,3382.82 2200.66,3373.39C2244.16,3364.03 2249.2,3359.45 2240.8,3358.83C2222.89,3357.49 2193.68,3354.73 2163.8,3351.41C2128.1,3347.44 2080.18,3344.98 2047.9,3307.89C2012.2,3266.89 2012.98,3207.25 2005.68,3137.69C1998.87,3072.85 1996.3,3017.16 1987.81,3011.83Z" style="fill:rgb(248,248,246);"/>
                </g>
                <g transform="matrix(0.0133471,0.00250744,-0.0023822,0.0133701,63.162,25.6866)">
                    <path d="M1987.81,3011.83C1987.81,3011.83 1973.74,3123.71 1972.07,3140.27C1962.95,3230.47 1952.78,3280.56 1931.7,3302.34C1910.62,3324.12 1857.86,3350.41 1819.92,3352.53C1781.99,3354.65 1738.95,3361.39 1738.95,3361.39C1738.95,3361.39 1789.47,3375.91 1823.87,3384.24C1855.71,3391.96 1904.03,3429.86 1920.48,3451.68C1943.44,3482.14 1962.82,3531.52 1968.37,3605.92C1973.92,3680.32 1995.24,3749.47 1995.24,3749.47C1995.24,3749.47 2012.18,3639.78 2013.56,3607.81C2014.93,3575.84 2025.62,3496.55 2064.39,3452.34C2103.17,3408.12 2156.82,3382.82 2200.66,3373.39C2244.16,3364.03 2249.2,3359.45 2240.8,3358.83C2222.89,3357.49 2193.68,3354.73 2163.8,3351.41C2128.1,3347.44 2080.18,3344.98 2047.9,3307.89C2012.2,3266.89 2012.98,3207.25 2005.68,3137.69C1998.87,3072.85 1996.3,3017.16 1987.81,3011.83Z" style="fill:rgb(248,248,246);"/>
                </g>
            </g>
        </g>
        <g transform="matrix(-1.2918,0,0,1.31282,161.122,-18.5571)">
            <g transform="matrix(0.0206827,0.00388554,-0.00339625,0.0190614,30.9459,-13.1885)">
                <path d="M1987.81,3011.83C1987.81,3011.83 1973.74,3123.71 1972.07,3140.27C1962.95,3230.47 1952.78,3280.56 1931.7,3302.34C1910.62,3324.12 1857.86,3350.41 1819.92,3352.53C1781.99,3354.65 1738.95,3361.39 1738.95,3361.39C1738.95,3361.39 1789.47,3375.91 1823.87,3384.24C1855.71,3391.96 1904.03,3429.86 1920.48,3451.68C1943.44,3482.14 1962.82,3531.52 1968.37,3605.92C1973.92,3680.32 1995.24,3749.47 1995.24,3749.47C1995.24,3749.47 2012.18,3639.78 2013.56,3607.81C2014.93,3575.84 2025.62,3496.55 2064.39,3452.34C2103.17,3408.12 2156.82,3382.82 2200.66,3373.39C2244.16,3364.03 2249.2,3359.45 2240.8,3358.83C2222.89,3357.49 2193.68,3354.73 2163.8,3351.41C2128.1,3347.44 2080.18,3344.98 2047.9,3307.89C2012.2,3266.89 2012.98,3207.25 2005.68,3137.69C1998.87,3072.85 1996.3,3017.16 1987.81,3011.83Z" style="fill:rgb(6,6,6);"/>
            </g>
            <g>
                <g transform="matrix(0.00981187,0.00184329,-0.00148893,0.00835663,59.9964,48.3071)">
                    <path d="M1987.81,3011.83C1987.81,3011.83 1973.74,3123.71 1972.07,3140.27C1962.95,3230.47 1952.78,3280.56 1931.7,3302.34C1910.62,3324.12 1857.86,3350.41 1819.92,3352.53C1781.99,3354.65 1738.95,3361.39 1738.95,3361.39C1738.95,3361.39 1789.47,3375.91 1823.87,3384.24C1855.71,3391.96 1904.03,3429.86 1920.48,3451.68C1943.44,3482.14 1962.82,3531.52 1968.37,3605.92C1973.92,3680.32 1995.24,3749.47 1995.24,3749.47C1995.24,3749.47 2012.18,3639.78 2013.56,3607.81C2014.93,3575.84 2025.62,3496.55 2064.39,3452.34C2103.17,3408.12 2156.82,3382.82 2200.66,3373.39C2244.16,3364.03 2249.2,3359.45 2240.8,3358.83C2222.89,3357.49 2193.68,3354.73 2163.8,3351.41C2128.1,3347.44 2080.18,3344.98 2047.9,3307.89C2012.2,3266.89 2012.98,3207.25 2005.68,3137.69C1998.87,3072.85 1996.3,3017.16 1987.81,3011.83Z" style="fill:rgb(6,6,6);"/>
                </g>
                <g transform="matrix(0.0133471,0.00250744,-0.0023822,0.0133701,63.162,25.6866)">
                    <path d="M1987.81,3011.83C1987.81,3011.83 1973.74,3123.71 1972.07,3140.27C1962.95,3230.47 1952.78,3280.56 1931.7,3302.34C1910.62,3324.12 1857.86,3350.41 1819.92,3352.53C1781.99,3354.65 1738.95,3361.39 1738.95,3361.39C1738.95,3361.39 1789.47,3375.91 1823.87,3384.24C1855.71,3391.96 1904.03,3429.86 1920.48,3451.68C1943.44,3482.14 1962.82,3531.52 1968.37,3605.92C1973.92,3680.32 1995.24,3749.47 1995.24,3749.47C1995.24,3749.47 2012.18,3639.78 2013.56,3607.81C2014.93,3575.84 2025.62,3496.55 2064.39,3452.34C2103.17,3408.12 2156.82,3382.82 2200.66,3373.39C2244.16,3364.03 2249.2,3359.45 2240.8,3358.83C2222.89,3357.49 2193.68,3354.73 2163.8,3351.41C2128.1,3347.44 2080.18,3344.98 2047.9,3307.89C2012.2,3266.89 2012.98,3207.25 2005.68,3137.69C1998.87,3072.85 1996.3,3017.16 1987.81,3011.83Z" style="fill:rgb(6,6,6);"/>
                </g>
            </g>
        </g>
    </g>
</svg>
