<?xml version="1.0" encoding="UTF-8" standalone="no"?>
<!DOCTYPE svg PUBLIC "-//W3C//DTD SVG 1.1//EN" "http://www.w3.org/Graphics/SVG/1.1/DTD/svg11.dtd">
<svg width="100%" height="100%" viewBox="0 0 33 32" version="1.1" xmlns="http://www.w3.org/2000/svg" xmlns:xlink="http://www.w3.org/1999/xlink" xml:space="preserve" xmlns:serif="http://www.serif.com/" style="fill-rule:evenodd;clip-rule:evenodd;stroke-linejoin:round;stroke-miterlimit:2;">
    <g transform="matrix(1,0,0,1,-71.4384,-7.83207)">
        <g id="Artboard3" transform="matrix(1,0,0,1,71.2177,7.73418)">
            <rect x="0.221" y="0.098" width="32.933" height="31.918" style="fill:none;"/>
            <g transform="matrix(1,0,0,1,-53.9996,-51.6637)">
                <g id="Artboard2">
                    <g>
                        <g transform="matrix(0.0206827,0.00388554,-0.00339625,0.0190614,29.9459,-13.1885)">
                            <path d="M1987.81,3011.83C1987.81,3011.83 1973.74,3123.71 1972.07,3140.27C1962.95,3230.47 1952.78,3280.56 1931.7,3302.34C1910.62,3324.12 1857.86,3350.41 1819.92,3352.53C1781.99,3354.65 1738.95,3361.39 1738.95,3361.39C1738.95,3361.39 1789.47,3375.91 1823.87,3384.24C1855.71,3391.96 1904.03,3429.86 1920.48,3451.68C1943.44,3482.14 1962.82,3531.52 1968.37,3605.92C1973.92,3680.32 1995.24,3749.47 1995.24,3749.47C1995.24,3749.47 2012.18,3639.78 2013.56,3607.81C2014.93,3575.84 2025.62,3496.55 2064.39,3452.34C2103.17,3408.12 2156.82,3382.82 2200.66,3373.39C2244.16,3364.03 2249.2,3359.45 2240.8,3358.83C2222.89,3357.49 2193.68,3354.73 2163.8,3351.41C2128.1,3347.44 2080.18,3344.98 2047.9,3307.89C2012.2,3266.89 2012.98,3207.25 2005.68,3137.69C1998.87,3072.85 1996.3,3017.16 1987.81,3011.83Z" style="fill:rgb(248,248,246);"/>
                        </g>
                        <g>
                            <g transform="matrix(0.00981187,0.00184329,-0.00148893,0.00835663,59.9964,48.3071)">
                                <path d="M1987.81,3011.83C1987.81,3011.83 1973.74,3123.71 1972.07,3140.27C1962.95,3230.47 1952.78,3280.56 1931.7,3302.34C1910.62,3324.12 1857.86,3350.41 1819.92,3352.53C1781.99,3354.65 1738.95,3361.39 1738.95,3361.39C1738.95,3361.39 1789.47,3375.91 1823.87,3384.24C1855.71,3391.96 1904.03,3429.86 1920.48,3451.68C1943.44,3482.14 1962.82,3531.52 1968.37,3605.92C1973.92,3680.32 1995.24,3749.47 1995.24,3749.47C1995.24,3749.47 2012.18,3639.78 2013.56,3607.81C2014.93,3575.84 2025.62,3496.55 2064.39,3452.34C2103.17,3408.12 2156.82,3382.82 2200.66,3373.39C2244.16,3364.03 2249.2,3359.45 2240.8,3358.83C2222.89,3357.49 2193.68,3354.73 2163.8,3351.41C2128.1,3347.44 2080.18,3344.98 2047.9,3307.89C2012.2,3266.89 2012.98,3207.25 2005.68,3137.69C1998.87,3072.85 1996.3,3017.16 1987.81,3011.83Z" style="fill:rgb(248,248,246);"/>
                            </g>
                            <g transform="matrix(0.0133471,0.00250744,-0.0023822,0.0133701,63.162,25.6866)">
                                <path d="M1987.81,3011.83C1987.81,3011.83 1973.74,3123.71 1972.07,3140.27C1962.95,3230.47 1952.78,3280.56 1931.7,3302.34C1910.62,3324.12 1857.86,3350.41 1819.92,3352.53C1781.99,3354.65 1738.95,3361.39 1738.95,3361.39C1738.95,3361.39 1789.47,3375.91 1823.87,3384.24C1855.71,3391.96 1904.03,3429.86 1920.48,3451.68C1943.44,3482.14 1962.82,3531.52 1968.37,3605.92C1973.92,3680.32 1995.24,3749.47 1995.24,3749.47C1995.24,3749.47 2012.18,3639.78 2013.56,3607.81C2014.93,3575.84 2025.62,3496.55 2064.39,3452.34C2103.17,3408.12 2156.82,3382.82 2200.66,3373.39C2244.16,3364.03 2249.2,3359.45 2240.8,3358.83C2222.89,3357.49 2193.68,3354.73 2163.8,3351.41C2128.1,3347.44 2080.18,3344.98 2047.9,3307.89C2012.2,3266.89 2012.98,3207.25 2005.68,3137.69C1998.87,3072.85 1996.3,3017.16 1987.81,3011.83Z" style="fill:rgb(248,248,246);"/>
                            </g>
                        </g>
                    </g>
                </g>
            </g>
            <g transform="matrix(1,0,0,1,1.14686,1.05219)">
                <g id="shading" transform="matrix(0.081425,0,0,0.081425,4.44232,5.26373)">
                    <g>
                        <g transform="matrix(-123.355,0,0,123.355,144,170.548)">
                            <path d="M-0,0.55L0.041,0.424L0.628,-0.55L1,-0.55L-0,0.55Z" style="fill:rgb(6,6,6);fill-rule:nonzero;"/>
                        </g>
                        <g transform="matrix(150.133,-86.6792,-86.6792,-150.133,125.292,206.45)">
                            <path d="M1,0.117L0.784,0.239L0.141,-0.097L0.008,-0.193L1,0.117Z" style="fill:rgb(6,6,6);fill-rule:nonzero;"/>
                        </g>
                        <g transform="matrix(90.7742,0,0,-90.7742,142.967,75.9834)">
                            <path d="M0.372,0.205L0,-0.294L0.823,-0.294L0.372,0.205Z" style="fill:rgb(51,50,48);fill-rule:nonzero;"/>
                        </g>
                        <g transform="matrix(36.4734,-63.1739,-63.1739,-36.4734,87.1287,122.903)">
                            <path d="M0.907,0.224L0.142,0.323L0.64,-0.555L0.907,0.224Z" style="fill:rgb(51,50,48);fill-rule:nonzero;"/>
                        </g>
                        <g transform="matrix(-125.359,72.3758,72.3758,125.359,239.791,115.264)">
                            <path d="M0.061,-0.136L0.521,-0.401L0.95,0.341L0.061,-0.136Z" style="fill:rgb(113,102,81);fill-rule:nonzero;"/>
                        </g>
                        <g transform="matrix(-93.4194,0,0,93.4194,145.516,170.29)">
                            <path d="M0.859,-0.724L0.023,0.636L0,-0.724L0.859,-0.724Z" style="fill:rgb(113,102,81);fill-rule:nonzero;"/>
                        </g>
                        <g transform="matrix(0,53.1613,53.1613,0,79.4514,49.5161)">
                            <path d="M0.118,-0.176L0.976,-1.081L0.99,-0.142L0.049,0.497L0.118,-0.176Z" style="fill:rgb(113,102,81);fill-rule:nonzero;"/>
                        </g>
                        <g transform="matrix(54.7466,0,0,-54.7466,179.452,75.5523)">
                            <path d="M-0.049,0.428L0.748,-0.486L1.589,-0.454L0.662,0.398L-0.049,0.428Z" style="fill:rgb(113,102,81);fill-rule:nonzero;"/>
                        </g>
                        <g transform="matrix(0,53.3871,53.3871,0,143.258,49.2581)">
                            <path d="M0.014,-0.683L-0,0.683L1,-0.003L0.014,-0.683Z" style="fill:rgb(6,6,6);fill-rule:nonzero;"/>
                        </g>
                    </g>
                </g>
                <g transform="matrix(1.09639,0,0,1.10229,-61.0186,-60.5968)">
                    <path d="M79.95,66.961C80.094,67.152 80.082,67.417 79.922,67.595L70.675,77.621C70.58,77.727 70.445,77.787 70.303,77.787C70.161,77.787 70.026,77.726 69.931,77.621L60.826,67.536C60.667,67.359 60.655,67.093 60.798,66.902L63.903,63.842C64.32,63.398 64.778,63.172 65.673,63.055C65.673,63.055 68.227,62.898 70.334,62.905C72.467,62.912 75.081,63.088 75.081,63.088C75.759,63.126 76.141,63.351 76.703,63.842L79.95,66.961ZM70.398,77.358L70.4,77.36L70.399,77.358C70.399,77.358 70.398,77.358 70.398,77.358ZM64.672,64.339L61.778,67.054L64.42,67.008L66.967,63.758C66.967,63.758 66.042,63.798 65.853,63.834C65.296,63.94 64.672,64.339 64.672,64.339ZM76.036,64.417C76.036,64.417 75.578,64.007 74.918,63.858C74.719,63.812 73.62,63.762 73.62,63.762L76.249,67.008L78.858,67.009L76.036,64.417ZM69.699,67.008L67.558,64.343L65.387,67.008L69.699,67.008ZM62.374,67.731L69.852,76.388L69.931,76.437L69.855,76.228L64.385,67.731L62.374,67.731ZM75.346,67.008L73.042,64.392L70.937,67.008L75.346,67.008ZM70.742,76.461L70.853,76.403L78.363,67.731L76.219,67.731L70.851,76.231L70.742,76.461ZM65.3,67.731L70.096,75.868L69.858,67.731L65.3,67.731ZM72.572,63.77C72.572,63.77 71.966,63.677 70.347,63.672C68.615,63.667 68.095,63.761 68.095,63.761L70.359,66.551L72.572,63.77ZM70.575,75.889L75.258,67.731L70.846,67.731L70.575,75.889Z" style="fill:rgb(225,190,65);"/>
                </g>
            </g>
        </g>
    </g>
</svg>
