<?xml version="1.0" encoding="UTF-8" standalone="no"?>
<!DOCTYPE svg PUBLIC "-//W3C//DTD SVG 1.1//EN" "http://www.w3.org/Graphics/SVG/1.1/DTD/svg11.dtd">
<svg width="100%" height="100%" viewBox="0 0 67 67" version="1.1" xmlns="http://www.w3.org/2000/svg" xmlns:xlink="http://www.w3.org/1999/xlink" xml:space="preserve" xmlns:serif="http://www.serif.com/" style="fill-rule:evenodd;clip-rule:evenodd;stroke-linejoin:round;stroke-miterlimit:2;">
    <g transform="matrix(4.2627,0,0,4.12422,-2107.19,272.053)">
        <g id="Solved-status" serif:id="Solved status">
            <g>
                <g transform="matrix(19.6,0,0,19.6,492.818,-50.604)">
                    <path d="M0.164,-0.195C0.164,-0.206 0.163,-0.215 0.16,-0.223C0.16,-0.246 0.176,-0.267 0.207,-0.285C0.228,-0.296 0.243,-0.301 0.254,-0.301C0.267,-0.298 0.276,-0.29 0.281,-0.277C0.297,-0.241 0.307,-0.216 0.313,-0.203C0.318,-0.193 0.323,-0.188 0.328,-0.188C0.333,-0.188 0.339,-0.191 0.344,-0.199C0.432,-0.355 0.512,-0.477 0.582,-0.563C0.637,-0.628 0.671,-0.665 0.684,-0.676C0.725,-0.707 0.775,-0.724 0.832,-0.727L0.836,-0.707C0.792,-0.663 0.715,-0.564 0.605,-0.41C0.499,-0.257 0.422,-0.135 0.375,-0.047C0.365,-0.023 0.352,-0.009 0.336,-0.004C0.328,0.004 0.311,0.007 0.285,0.004C0.267,0.007 0.254,0.004 0.246,-0.004C0.238,-0.009 0.23,-0.02 0.223,-0.035C0.197,-0.098 0.177,-0.151 0.164,-0.195Z" style="fill:rgb(17,49,53);fill-rule:nonzero;"/>
                </g>
                <g transform="matrix(19.6,0,0,19.6,492.26,-50.791)">
                    <path d="M0.164,-0.195C0.164,-0.206 0.163,-0.215 0.16,-0.223C0.16,-0.246 0.176,-0.267 0.207,-0.285C0.228,-0.296 0.243,-0.301 0.254,-0.301C0.267,-0.298 0.276,-0.29 0.281,-0.277C0.297,-0.241 0.307,-0.216 0.313,-0.203C0.318,-0.193 0.323,-0.188 0.328,-0.188C0.333,-0.188 0.339,-0.191 0.344,-0.199C0.432,-0.355 0.512,-0.477 0.582,-0.563C0.637,-0.628 0.671,-0.665 0.684,-0.676C0.725,-0.707 0.775,-0.724 0.832,-0.727L0.836,-0.707C0.792,-0.663 0.715,-0.564 0.605,-0.41C0.499,-0.257 0.422,-0.135 0.375,-0.047C0.365,-0.023 0.352,-0.009 0.336,-0.004C0.328,0.004 0.311,0.007 0.285,0.004C0.267,0.007 0.254,0.004 0.246,-0.004C0.238,-0.009 0.23,-0.02 0.223,-0.035C0.197,-0.098 0.177,-0.151 0.164,-0.195Z" style="fill:rgb(84,154,126);fill-rule:nonzero;"/>
                </g>
            </g>
        </g>
    </g>
</svg>
