<?xml version="1.0" encoding="UTF-8" standalone="no"?>
<!DOCTYPE svg PUBLIC "-//W3C//DTD SVG 1.1//EN" "http://www.w3.org/Graphics/SVG/1.1/DTD/svg11.dtd">
<svg width="100%" height="100%" viewBox="0 0 12 12" version="1.1" xmlns="http://www.w3.org/2000/svg" xmlns:xlink="http://www.w3.org/1999/xlink" xml:space="preserve" xmlns:serif="http://www.serif.com/" style="fill-rule:evenodd;clip-rule:evenodd;stroke-linecap:round;stroke-linejoin:round;stroke-miterlimit:1.5;">
    <g transform="matrix(1,0,0,1,-55.9064,-42.2076)">
        <g id="Unlocked-status-3" serif:id="Unlocked status 3" transform="matrix(0.71779,0,7.97973e-17,0.71779,-291.839,29.7247)">
            <g transform="matrix(0.714286,0,2.72599e-17,0.714286,-191.469,-169.291)">
                <rect x="946.798" y="261.842" width="22.43" height="22.43" style="fill:white;stroke:black;stroke-width:0.98px;"/>
            </g>
            <g transform="matrix(1,0,0,1,-0.334033,0.278361)">
                <g transform="matrix(1.39317,0,-1.54879e-16,1.39317,407.409,-40.0756)">
                    <rect x="57.77" y="44.577" width="6.494" height="6.494" style="fill:rgb(38,60,217);"/>
                </g>
                <g transform="matrix(9.09076e-16,-2.13684,-2.18394,-6.51335e-16,612.347,156.615)">
                    <path d="M61.381,52.853L60.354,52.853C60.217,52.717 60.141,52.532 60.141,52.339C60.141,51.938 60.466,51.613 60.867,51.613C61.268,51.613 61.594,51.938 61.594,52.339C61.594,52.532 61.517,52.717 61.381,52.853Z" style="fill:rgb(38,60,217);"/>
                </g>
                <g transform="matrix(-2.13684,-2.7899e-16,-4.92943e-16,2.18394,622.48,-93.373)">
                    <path d="M61.381,52.853L60.354,52.853C60.217,52.717 60.141,52.532 60.141,52.339C60.141,51.938 60.466,51.613 60.867,51.613C61.268,51.613 61.594,51.938 61.594,52.339C61.594,52.532 61.517,52.717 61.381,52.853Z" style="fill:rgb(38,60,217);"/>
                </g>
                <g transform="matrix(9.09076e-16,-2.13684,-2.18394,-6.51335e-16,603.224,156.615)">
                    <path d="M61.381,52.853L60.354,52.853C60.217,52.717 60.141,52.532 60.141,52.339C60.141,51.938 60.466,51.613 60.867,51.613C61.268,51.613 61.594,51.938 61.594,52.339C61.594,52.532 61.517,52.717 61.381,52.853Z" style="fill:white;"/>
                </g>
                <g transform="matrix(-2.13684,-5.40677e-16,-7.60398e-16,2.18394,622.48,-84.2633)">
                    <path d="M61.381,52.853L60.354,52.853C60.217,52.717 60.141,52.532 60.141,52.339C60.141,51.938 60.466,51.613 60.867,51.613C61.268,51.613 61.594,51.938 61.594,52.339C61.594,52.532 61.517,52.717 61.381,52.853Z" style="fill:white;"/>
                </g>
            </g>
        </g>
    </g>
</svg>
