<?xml version="1.0" encoding="UTF-8" standalone="no"?>
<!DOCTYPE svg PUBLIC "-//W3C//DTD SVG 1.1//EN" "http://www.w3.org/Graphics/SVG/1.1/DTD/svg11.dtd">
<svg width="100%" height="100%" viewBox="0 0 12 12" version="1.1" xmlns="http://www.w3.org/2000/svg" xmlns:xlink="http://www.w3.org/1999/xlink" xml:space="preserve" xmlns:serif="http://www.serif.com/" style="fill-rule:evenodd;clip-rule:evenodd;stroke-linejoin:round;stroke-miterlimit:2;">
    <g transform="matrix(1,0,0,1,-55.9064,-42.2076)">
        <g transform="matrix(1.23783,-0.0153055,0.0153055,1.23783,-15.295,-9.07196)">
            <path d="M64.321,48.254C64.338,49.448 64.343,50.56 64.297,50.858C64.264,51.067 64.277,51.089 64.049,51.091C63.734,51.093 62.87,51.102 61.9,51.112C61.881,51.059 61.848,50.981 61.914,50.86C62.012,50.682 62.207,50.463 62.207,50.256C62.207,49.682 61.739,49.418 61.181,49.412C60.622,49.418 60.154,49.682 60.154,50.255C60.154,50.463 60.349,50.682 60.447,50.859C60.52,50.993 60.472,51.074 60.456,51.127C59.312,51.139 58.326,51.148 58.238,51.145C57.993,51.136 58.014,51.122 57.944,50.868C57.925,50.8 57.879,49.581 57.839,48.236C57.893,48.218 57.973,48.173 58.104,48.245C58.281,48.343 58.501,48.538 58.708,48.538C59.281,48.538 59.545,48.07 59.552,47.512C59.545,46.953 59.281,46.485 58.708,46.485C58.501,46.485 58.282,46.68 58.104,46.778C57.936,46.87 57.852,46.771 57.8,46.783C57.779,45.902 57.766,45.131 57.772,44.784C57.773,44.736 57.823,44.595 57.915,44.587C58.017,44.578 59.434,44.662 60.436,44.708C60.457,44.65 60.484,44.569 60.417,44.447C60.311,44.255 60.1,44.018 60.1,43.793C60.1,43.173 60.606,42.887 61.211,42.88C61.816,42.887 62.322,43.173 62.322,43.794C62.322,44.018 62.111,44.255 62.005,44.447C61.923,44.597 61.982,44.686 61.998,44.744C63.024,44.739 63.528,44.669 63.954,44.666C64.207,44.664 64.282,44.682 64.277,44.964C64.272,45.275 64.282,45.928 64.295,46.691C64.353,46.708 64.441,46.764 64.589,46.683C64.781,46.577 65.018,46.366 65.242,46.366C65.863,46.366 66.149,46.872 66.156,47.477C66.149,48.082 65.863,48.588 65.242,48.588C65.018,48.588 64.781,48.377 64.589,48.271C64.461,48.202 64.379,48.233 64.321,48.254Z" style="fill:rgb(190,157,41);"/>
            <path d="M60.136,44.451C60.08,44.364 60.016,44.272 59.967,44.178C59.9,44.051 59.858,43.92 59.858,43.793C59.858,43.026 60.461,42.647 61.214,42.638C61.961,42.647 62.564,43.027 62.564,43.794C62.564,43.92 62.522,44.051 62.455,44.178C62.397,44.29 62.318,44.399 62.256,44.499C63.111,44.484 63.564,44.426 63.952,44.423C64.156,44.422 64.283,44.455 64.363,44.519C64.453,44.59 64.524,44.714 64.52,44.968C64.515,45.243 64.522,45.785 64.533,46.435C64.634,46.373 64.745,46.292 64.858,46.233C64.985,46.166 65.116,46.124 65.242,46.124C66.01,46.124 66.389,46.727 66.398,47.48C66.389,48.228 66.009,48.83 65.242,48.83C65.116,48.83 64.985,48.788 64.858,48.722C64.757,48.669 64.659,48.599 64.567,48.541C64.581,49.639 64.58,50.617 64.536,50.895C64.509,51.072 64.474,51.163 64.424,51.217C64.367,51.279 64.273,51.332 64.051,51.333C63.736,51.335 62.872,51.344 61.903,51.355L61.672,51.194C61.638,51.098 61.583,50.96 61.702,50.743C61.752,50.652 61.826,50.551 61.889,50.445C61.926,50.382 61.964,50.32 61.964,50.256C61.964,49.829 61.596,49.66 61.181,49.654C60.765,49.66 60.397,49.829 60.397,50.255C60.397,50.319 60.435,50.382 60.473,50.445C60.535,50.55 60.609,50.652 60.659,50.743C60.784,50.971 60.715,51.107 60.687,51.199L60.458,51.37C59.308,51.381 58.317,51.391 58.229,51.387C58.072,51.382 57.986,51.36 57.929,51.327L57.835,51.249L57.78,51.16C57.758,51.112 57.74,51.041 57.71,50.932C57.691,50.863 57.637,49.618 57.597,48.243L57.764,48.005C57.857,47.975 57.994,47.909 58.221,48.033C58.311,48.083 58.413,48.157 58.518,48.22C58.582,48.257 58.644,48.295 58.708,48.295C59.134,48.295 59.304,47.927 59.309,47.512C59.304,47.096 59.135,46.728 58.708,46.728C58.644,46.728 58.582,46.766 58.519,46.803C58.413,46.866 58.312,46.94 58.221,46.99C57.993,47.116 57.765,47.018 57.765,47.018C57.765,47.018 57.828,47.025 57.854,47.019L57.558,46.788C57.537,45.903 57.524,45.128 57.53,44.78C57.531,44.722 57.561,44.596 57.63,44.503L57.694,44.433L57.755,44.39L57.819,44.361L57.894,44.346C57.987,44.337 59.162,44.404 60.136,44.451ZM64.321,48.254C64.379,48.233 64.461,48.202 64.589,48.271C64.781,48.377 65.018,48.588 65.242,48.588C65.863,48.588 66.149,48.082 66.156,47.477C66.149,46.872 65.863,46.366 65.242,46.366C65.018,46.366 64.781,46.577 64.589,46.683C64.441,46.764 64.353,46.708 64.295,46.691C64.282,45.928 64.272,45.275 64.277,44.964C64.282,44.682 64.207,44.664 63.954,44.666C63.528,44.669 63.024,44.739 61.998,44.744C61.982,44.686 61.923,44.597 62.005,44.447C62.111,44.255 62.322,44.018 62.322,43.794C62.322,43.173 61.816,42.887 61.211,42.88C60.606,42.887 60.1,43.173 60.1,43.793C60.1,44.018 60.311,44.255 60.417,44.447C60.484,44.569 60.457,44.65 60.436,44.708C59.434,44.662 58.017,44.578 57.915,44.587C57.823,44.595 57.773,44.736 57.772,44.784C57.766,45.131 57.779,45.902 57.8,46.783C57.852,46.771 57.936,46.87 58.104,46.778C58.282,46.68 58.501,46.485 58.708,46.485C59.281,46.485 59.545,46.953 59.552,47.512C59.545,48.07 59.281,48.538 58.708,48.538C58.501,48.538 58.281,48.343 58.104,48.245C57.973,48.173 57.893,48.218 57.839,48.236C57.879,49.581 57.925,50.8 57.944,50.868C58.014,51.122 57.993,51.136 58.238,51.145C58.326,51.148 59.312,51.139 60.456,51.127C60.472,51.074 60.52,50.993 60.447,50.859C60.349,50.682 60.154,50.463 60.154,50.255C60.154,49.682 60.622,49.418 61.181,49.412C61.739,49.418 62.207,49.682 62.207,50.256C62.207,50.463 62.012,50.682 61.914,50.86C61.848,50.981 61.881,51.059 61.9,51.112C62.87,51.102 63.734,51.093 64.049,51.091C64.277,51.089 64.264,51.067 64.297,50.858C64.343,50.56 64.338,49.448 64.321,48.254Z" style="fill:rgb(37,29,3);"/>
        </g>
        <g transform="matrix(1.23783,-0.0153055,0.0153055,1.23783,-15.295,-9.07196)">
            <clipPath id="_clip1">
                <path d="M68.449,41.879L55.906,51.431L53.51,46.76L64.529,39.173L68.449,41.879Z"/>
            </clipPath>
            <g clip-path="url(#_clip1)">
                <path d="M64.321,48.254C64.338,49.448 64.343,50.56 64.297,50.858C64.264,51.067 64.277,51.089 64.049,51.091C63.734,51.093 62.87,51.102 61.9,51.112C61.881,51.059 61.848,50.981 61.914,50.86C62.012,50.682 62.207,50.463 62.207,50.256C62.207,49.682 61.739,49.418 61.181,49.412C60.622,49.418 60.154,49.682 60.154,50.255C60.154,50.463 60.349,50.682 60.447,50.859C60.52,50.993 60.472,51.074 60.456,51.127C59.312,51.139 58.326,51.148 58.238,51.145C57.993,51.136 58.014,51.122 57.944,50.868C57.925,50.8 57.879,49.581 57.839,48.236C57.893,48.218 57.973,48.173 58.104,48.245C58.281,48.343 58.501,48.538 58.708,48.538C59.281,48.538 59.545,48.07 59.552,47.512C59.545,46.953 59.281,46.485 58.708,46.485C58.501,46.485 58.282,46.68 58.104,46.778C57.936,46.87 57.852,46.771 57.8,46.783C57.779,45.902 57.766,45.131 57.772,44.784C57.773,44.736 57.823,44.595 57.915,44.587C58.017,44.578 59.434,44.662 60.436,44.708C60.457,44.65 60.484,44.569 60.417,44.447C60.311,44.255 60.1,44.018 60.1,43.793C60.1,43.173 60.606,42.887 61.211,42.88C61.816,42.887 62.322,43.173 62.322,43.794C62.322,44.018 62.111,44.255 62.005,44.447C61.923,44.597 61.982,44.686 61.998,44.744C63.024,44.739 63.528,44.669 63.954,44.666C64.207,44.664 64.282,44.682 64.277,44.964C64.272,45.275 64.282,45.928 64.295,46.691C64.353,46.708 64.441,46.764 64.589,46.683C64.781,46.577 65.018,46.366 65.242,46.366C65.863,46.366 66.149,46.872 66.156,47.477C66.149,48.082 65.863,48.588 65.242,48.588C65.018,48.588 64.781,48.377 64.589,48.271C64.461,48.202 64.379,48.233 64.321,48.254Z" style="fill:rgb(225,190,65);fill-opacity:0.5;"/>
                <path d="M60.136,44.451C60.08,44.364 60.016,44.272 59.967,44.178C59.9,44.051 59.858,43.92 59.858,43.793C59.858,43.026 60.461,42.647 61.214,42.638C61.961,42.647 62.564,43.027 62.564,43.794C62.564,43.92 62.522,44.051 62.455,44.178C62.397,44.29 62.318,44.399 62.256,44.499C63.111,44.484 63.564,44.426 63.952,44.423C64.156,44.422 64.283,44.455 64.363,44.519C64.453,44.59 64.524,44.714 64.52,44.968C64.515,45.243 64.522,45.785 64.533,46.435C64.634,46.373 64.745,46.292 64.858,46.233C64.985,46.166 65.116,46.124 65.242,46.124C66.01,46.124 66.389,46.727 66.398,47.48C66.389,48.228 66.009,48.83 65.242,48.83C65.116,48.83 64.985,48.788 64.858,48.722C64.757,48.669 64.659,48.599 64.567,48.541C64.581,49.639 64.58,50.617 64.536,50.895C64.509,51.072 64.474,51.163 64.424,51.217C64.367,51.279 64.273,51.332 64.051,51.333C63.736,51.335 62.872,51.344 61.903,51.355L61.672,51.194C61.638,51.098 61.583,50.96 61.702,50.743C61.752,50.652 61.826,50.551 61.889,50.445C61.926,50.382 61.964,50.32 61.964,50.256C61.964,49.829 61.596,49.66 61.181,49.654C60.765,49.66 60.397,49.829 60.397,50.255C60.397,50.319 60.435,50.382 60.473,50.445C60.535,50.55 60.609,50.652 60.659,50.743C60.784,50.971 60.715,51.107 60.687,51.199L60.458,51.37C59.308,51.381 58.317,51.391 58.229,51.387C58.072,51.382 57.986,51.36 57.929,51.327L57.835,51.249L57.78,51.16C57.758,51.112 57.74,51.041 57.71,50.932C57.691,50.863 57.637,49.618 57.597,48.243L57.764,48.005C57.857,47.975 57.994,47.909 58.221,48.033C58.311,48.083 58.413,48.157 58.518,48.22C58.582,48.257 58.644,48.295 58.708,48.295C59.134,48.295 59.304,47.927 59.309,47.512C59.304,47.096 59.135,46.728 58.708,46.728C58.644,46.728 58.582,46.766 58.519,46.803C58.413,46.866 58.312,46.94 58.221,46.99C57.993,47.116 57.765,47.018 57.765,47.018C57.765,47.018 57.828,47.025 57.854,47.019L57.558,46.788C57.537,45.903 57.524,45.128 57.53,44.78C57.531,44.722 57.561,44.596 57.63,44.503L57.694,44.433L57.755,44.39L57.819,44.361L57.894,44.346C57.987,44.337 59.162,44.404 60.136,44.451ZM64.321,48.254C64.379,48.233 64.461,48.202 64.589,48.271C64.781,48.377 65.018,48.588 65.242,48.588C65.863,48.588 66.149,48.082 66.156,47.477C66.149,46.872 65.863,46.366 65.242,46.366C65.018,46.366 64.781,46.577 64.589,46.683C64.441,46.764 64.353,46.708 64.295,46.691C64.282,45.928 64.272,45.275 64.277,44.964C64.282,44.682 64.207,44.664 63.954,44.666C63.528,44.669 63.024,44.739 61.998,44.744C61.982,44.686 61.923,44.597 62.005,44.447C62.111,44.255 62.322,44.018 62.322,43.794C62.322,43.173 61.816,42.887 61.211,42.88C60.606,42.887 60.1,43.173 60.1,43.793C60.1,44.018 60.311,44.255 60.417,44.447C60.484,44.569 60.457,44.65 60.436,44.708C59.434,44.662 58.017,44.578 57.915,44.587C57.823,44.595 57.773,44.736 57.772,44.784C57.766,45.131 57.779,45.902 57.8,46.783C57.852,46.771 57.936,46.87 58.104,46.778C58.282,46.68 58.501,46.485 58.708,46.485C59.281,46.485 59.545,46.953 59.552,47.512C59.545,48.07 59.281,48.538 58.708,48.538C58.501,48.538 58.281,48.343 58.104,48.245C57.973,48.173 57.893,48.218 57.839,48.236C57.879,49.581 57.925,50.8 57.944,50.868C58.014,51.122 57.993,51.136 58.238,51.145C58.326,51.148 59.312,51.139 60.456,51.127C60.472,51.074 60.52,50.993 60.447,50.859C60.349,50.682 60.154,50.463 60.154,50.255C60.154,49.682 60.622,49.418 61.181,49.412C61.739,49.418 62.207,49.682 62.207,50.256C62.207,50.463 62.012,50.682 61.914,50.86C61.848,50.981 61.881,51.059 61.9,51.112C62.87,51.102 63.734,51.093 64.049,51.091C64.277,51.089 64.264,51.067 64.297,50.858C64.343,50.56 64.338,49.448 64.321,48.254Z" style="fill:rgb(37,29,3);fill-opacity:0.5;"/>
            </g>
        </g>
    </g>
</svg>
