<?xml version="1.0" encoding="UTF-8"?>
<svg width="98" height="38" version="1.1" viewBox="0 0 98 38" xml:space="preserve" xmlns="http://www.w3.org/2000/svg"><g transform="translate(-830 -113)"><g stroke="#000" stroke-linejoin="round" stroke-width="2"><path d="m831 121.1v28.9h96v-28.308z" fill="#0f0f0f"/><path d="m874.75 121.37v20.634l-13.98-6.9994v-21z" fill="#202020"/><path d="m860.77 114-16.807 6v21l16.807-6z" fill="#6f6f6f"/><path d="m906.3 150s-4.7066-3.9013-7.3504-5.1904c-3.0823-1.5028-6.3837-2.6568-9.7619-3.2457-3.1484-0.54884-6.3935-0.40169-9.5849-0.23184-1.7068 0.0908-3.4134 0.30611-5.084 0.66739l-13.748-6.9994-16.807 6 12.621 5.5957-2.5853 3.4043h6.3048z" fill="#404040"/><path d="m906.3 150v-23.07s-4.6747-3.586-7.3504-4.7464c-3.0772-1.3344-6.4198-2.1565-9.7619-2.4406-3.1926-0.27144-6.4076 0.3105-9.5849 0.72364-1.6312 0.2121-4.8521 0.89923-4.8521 0.89923v20.634s3.2221-0.5756 4.8521-0.66739c3.1908-0.17968 6.4365-0.317 9.5849 0.23184 3.3782 0.58889 6.7014 1.6991 9.7619 3.2457 2.677 1.3528 7.3504 5.1905 7.3504 5.1905z" fill="#363636"/></g></g></svg>
