<?xml version="1.0" encoding="UTF-8"?>
<!-- Created with Inkscape (http://www.inkscape.org/) -->
<svg width="217" height="56" version="1.1" viewBox="0 0 217 56" xml:space="preserve" xmlns="http://www.w3.org/2000/svg"><path d="m1.5 1.5003 214-2.8e-4v53h-214z" fill="#333" stroke="#000" stroke-linejoin="round" stroke-width="3" style="paint-order:normal"/><g transform="matrix(.57249 0 0 .82814 -440.16 -792.58)"><path d="m1145.3 958.87-36.598 6.7e-4v33.363l36.598 30.636z" fill="#666" stroke="#000" stroke-linejoin="round" stroke-width="2.9046"/><path d="m1118 999.89-9.362-7.659v-33.363l36.598-6.7e-4" fill="#525252" style="paint-order:normal"/><g stroke="#000" stroke-linejoin="round" stroke-width="2.9046"><path d="m1145.3 1022.9h-373.8l36.803-30.636h300.4z" fill="#444"/><path d="m808.27 958.87v33.363h300.4v-33.363z" fill="#1b1b1b" stroke-linecap="round"/><path d="m808.27 992.24-36.803 30.636v-63.912l36.803-0.17463z" fill="#121212"/></g><path d="m798.86 999.89 9.4131-7.659v-33.363h-36.803"/><path d="m798.86 999.89 9.4131-7.659h300.4l9.362 7.659" fill="#313131" stroke="#000" stroke-linecap="round" stroke-linejoin="round" stroke-width="2.9046"/><g transform="matrix(1.7467 0 0 1.2075 -718.5 -212.43)"><path d="m966.55 1003.4c3.2723 0.409 4.5965 1.3629 5.6273 3.2723 0.90812 1.6822-0.30979 5.7265-0.30979 5.7265h-10.635l-5.3175 0.8181s-12.811 2.153-16.771-1.8406c-1.2344-1.245-1.3303-3.6736-0.52885-5.2329 1.209-2.3522 6.8834-3.9457 6.8834-3.9457l-10.854-2.479-3.6813 6.1355 1.4316 7.3627s4.2406 3.4906 6.7491 4.4994c3.598 1.4469 7.5754 2.1022 11.453 2.0451 3.8013-0.056 11.164-2.3343 11.164-2.3343s8.48 1.2141 12.66 0.599c2.549-0.3751 5.485-0.7338 7.2882-2.5741 1.88-1.9187 2.989-5.0052 2.5286-7.6517-0.39963-2.2977-4.3094-5.5118-4.3094-5.5118l-6.8338-0.9337-5.3175-0.409z" fill="#313131" style="paint-order:normal"/></g><path d="m1145.3 958.87-36.598 6.7e-4v33.363l36.598 30.636z" fill="none" stroke="#000" stroke-linejoin="round" stroke-width="2.9046"/></g></svg>
