<?xml version="1.0" encoding="UTF-8" standalone="no"?>
<!-- Created with Inkscape (http://www.inkscape.org/) -->

<svg
   width="51.672112"
   height="30.677422"
   viewBox="0 0 51.672112 30.677422"
   version="1.1"
   id="svg1"
   xml:space="preserve"
   xmlns="http://www.w3.org/2000/svg"
   xmlns:svg="http://www.w3.org/2000/svg"><defs
     id="defs1" /><g
     id="layer12"
     style="display:inline"
     transform="matrix(0.64857232,0,0,0.64857232,-536.05081,-578.52861)"><g
       id="layer9"
       style="display:inline"><path
         d="m 853.39289,902.22548 c -12.7608,0 -23.10539,7.2722 -23.10539,11.87052 0,1.92506 0.89714,3.74174 2.48034,5.34962 3.177,-4.60579 10.57265,-9.29684 20.62505,-9.29684 10.05234,0 17.45474,4.2824 20.63172,8.88789 1.56567,-1.50465 2.47367,-3.17708 2.47367,-4.94067 0,-6.55587 -10.34458,-11.87052 -23.10539,-11.87052 z"
         style="display:inline;fill:#bb9f59;fill-opacity:1;stroke:#000000;stroke-width:1.54185;stroke-linejoin:round;stroke-dasharray:none"
         id="path41" /><path
         d="m 854.13966,899.6629 c -0.53441,-0.004 -1.06817,-0.003 -1.60022,0.004 -2.39064,0.0326 -4.76722,0.50399 -7.10764,1.03125 -2.47904,0.55849 -4.98033,1.17348 -7.30767,2.25143 -2.22701,1.03147 -4.42184,2.2811 -6.26086,3.98499 -1.55935,1.44476 -3.20164,3.0677 -3.90053,5.15403 -1.45118,4.33205 -0.1178,13.81968 -0.1178,13.81968 -10e-6,6.55586 12.66933,12.62395 25.43015,12.62395 12.76078,0 25.67019,-5.9414 25.67019,-12.49726 0,0 1.40438,-9.37293 0.0134,-13.67744 -0.81925,-2.53588 -2.71455,-4.61248 -4.64731,-6.30309 -2.62775,-2.29856 -5.83216,-3.86672 -9.0768,-4.89622 -3.57354,-1.13387 -7.35397,-1.46877 -11.09485,-1.49576 z m -0.74677,2.56258 c 12.76081,0 23.10539,5.31465 23.10539,11.87052 0,1.76359 -0.908,3.43602 -2.47367,4.94067 0,0 0,0 0,0 -4.09321,3.93368 -12.72485,6.69829 -21.68075,6.90317 0,0 0,0 0,0 0,0 0,0 0,0 -8.56443,-0.19805 -15.91723,-2.7784 -19.57602,-6.49422 0,0 0,0 0,0 -1.5832,-1.60788 -2.48034,-3.42456 -2.48034,-5.34962 0,-4.59832 10.34459,-11.87052 23.10539,-11.87052 z"
         style="display:inline;fill:#c8a03b;fill-opacity:1;stroke:#000000;stroke-width:1.54185;stroke-linejoin:round;stroke-dasharray:none"
         id="path40" /><g
         id="layer14"
         style="display:inline"><path
           style="display:inline;fill:#e9d693;fill-opacity:0.810976;stroke:none;stroke-width:0.884812;stroke-linecap:round;stroke-linejoin:round;stroke-opacity:1;paint-order:markers fill stroke"
           d="m 831.79171,923.24729 c -0.11439,1.7809 -0.19268,3.66503 0.33707,5.34309 0.21331,0.67565 0.61883,1.28501 1.09552,1.74867 1.31545,1.27943 4.63491,2.62294 4.63491,2.62294 l 2.44784,0.87439 c 0,0 -0.48617,-1.47132 -0.59388,-2.23443 -0.19011,-1.347 -0.1732,-2.72362 -0.0843,-4.0802 0.0365,-0.55742 0.25282,-1.6515 0.25282,-1.6515 0,0 -1.99967,-0.5714 -2.94949,-1.02002 -1.02903,-0.48601 -2.01329,-1.1271 -2.94948,-1.7972 -0.6544,-0.46839 -1.85396,-1.54644 -1.85396,-1.54644 0,0 -0.29921,1.1509 -0.33709,1.7407 z"
           id="path44" /><path
           style="display:inline;fill:#645213;fill-opacity:0.463415;stroke:none;stroke-width:1.25349;stroke-linecap:round;stroke-linejoin:round;stroke-opacity:1;paint-order:markers fill stroke"
           d="m 876.73976,922.37943 c 0.4481,1.7574 0.83864,3.62986 0.0144,5.48243 -0.33189,0.74591 -1.04792,1.48439 -1.92148,2.09812 -2.41063,1.69363 -8.7313,4.06983 -8.7313,4.06983 l -4.67565,1.63513 c 0,0 0.76508,-1.63101 0.87949,-2.43237 0.20193,-1.41456 -0.004,-2.79508 -0.3495,-4.13321 -0.14168,-0.54984 -0.70243,-1.58448 -0.70243,-1.58448 0,0 3.8376,-1.19191 5.63808,-1.93644 1.95064,-0.80662 3.79419,-1.7555 5.54012,-2.7188 1.2204,-0.6733 3.42983,-2.12846 3.42983,-2.12846 0,0 0.73004,1.06622 0.87845,1.64825 z"
           id="path57" /></g></g><g
       id="layer10"
       style="display:inline"><g
         id="g154"
         transform="matrix(0.63199249,0,0,0.63199249,258.83417,365.31483)"><path
           id="path131"
           style="display:inline;fill:#c8a03b;fill-opacity:1;stroke:#000000;stroke-width:2.43966;stroke-linejoin:round;stroke-dasharray:none"
           d="m 972.54306,895.00718 c 18.354,8.42805 39.99704,8.53689 43.39174,-0.74933 0,0 6.6756,-12.50179 7.1022,-19.36351 0.2609,-4.19594 -0.9387,-8.53945 -2.8428,-12.28756 -2.6956,-5.306 -7.155,-9.6366 -11.675,-13.50824 -4.1846,-3.58444 -9.04473,-6.38767 -14.01798,-8.75968 -3.79135,-1.8083 -7.82201,-3.15848 -11.91516,-4.10207 -4.38774,-1.0115 -8.90603,-1.66957 -13.40874,-1.63826 -3.72462,0.0259 -7.54446,0.31033 -11.07174,1.50927 -2.99112,1.01655 -6.1931,2.23123 -8.27874,4.72485 -4.3305,5.17777 -7.32323,19.49837 -7.32323,19.49837 -3.39478,9.2862 11.68503,26.24787 30.03907,34.67595 z m -20.41253,-49.7956 c 2.38108,-6.51339 21.02572,-9.98185 39.37972,-1.55376 18.35395,8.42808 30.48105,22.78838 27.08625,32.07458 -3.3949,9.2862 -24.05459,8.59104 -42.40859,0.16294 -18.354,-8.42809 -27.4522,-21.39757 -24.05738,-30.68376" /><path
           id="path134"
           style="display:inline;fill:#bb9f59;fill-opacity:1;stroke:#000000;stroke-width:2.43966;stroke-linecap:round;stroke-linejoin:round;stroke-dasharray:none;stroke-opacity:1"
           d="m 953.24417,856.44234 c 6.95266,-4.42917 19.70002,-6.20445 34.16378,0.43721 14.46365,6.64166 20.55285,16.27906 22.73675,24.90126 3.8005,-0.81947 8.1492,-3.32871 8.4518,-6.04841 3.3948,-9.2862 -8.7323,-23.6465 -27.08625,-32.07458 -18.354,-8.42809 -36.99864,-4.95963 -39.37972,1.55376 -1.35746,5.24291 -0.2187,9.28504 1.11364,11.23076 z" /></g><g
         id="layer13"
         style="display:inline"><path
           style="fill:#e9d693;fill-opacity:0.905488;stroke:none;stroke-width:0.792868;stroke-linecap:round;stroke-linejoin:round;stroke-opacity:1;paint-order:markers fill stroke"
           d="m 856.81602,910.6247 c -0.2098,0.74078 -0.51506,1.51283 -0.40232,2.27444 0.12575,0.84953 0.70923,1.56997 1.16448,2.29816 0.7599,1.2155 2.59733,3.42751 2.59733,3.42751 l 1.85116,1.61525 c 0,0 0.36352,-1.68033 0.69266,-2.4693 0.30551,-0.73232 0.78054,-1.38178 1.17655,-2.06938 0.30251,-0.52525 0.91629,-1.57067 0.91629,-1.57067 0,0 -1.39052,-1.24611 -2.03452,-1.92072 -0.8626,-0.90359 -1.76312,-1.79384 -2.44348,-2.84154 -0.6262,-0.96429 -1.4744,-3.11833 -1.4744,-3.11833 0,0 -0.74908,1.23558 -1.059,1.88682 -0.38326,0.80532 -0.74172,1.62966 -0.98475,2.48776 z"
           id="path45" /><path
           style="fill:#997c28;fill-opacity:1;stroke:none;stroke-width:1.29763;stroke-linecap:round;stroke-linejoin:round;stroke-opacity:1;paint-order:markers fill stroke"
           d="m 901.3386,928.00329 c -0.35219,0.70915 -0.36887,1.6203 -0.91784,2.19089 -1.1738,1.21999 -2.95616,1.75892 -4.60529,2.14177 -3.07799,0.71454 -6.32782,0.45178 -9.47746,0.19809 -1.89571,-0.15269 -5.61169,-1.03067 -5.61169,-1.03067 0,0 0.72774,-1.6228 0.9583,-2.47781 0.26216,-0.97216 0.3818,-1.98054 0.47458,-2.98315 0.057,-0.61537 0.0497,-1.85337 0.0497,-1.85337 0,0 3.84668,0.97262 5.80632,1.25854 2.06996,0.30203 4.18069,0.73014 6.25738,0.47846 1.19609,-0.14496 4.06496,-0.62691 5.48285,-1.15492 1.41789,-0.52801 4.51154,-3.6528 4.51154,-3.6528 0,0 -0.65922,2.66194 -1.20577,3.91235 -0.45868,1.04935 -1.21318,1.94693 -1.72259,2.97262 z"
           id="path58" /></g></g></g></svg>
