<?xml version="1.0" encoding="UTF-8" standalone="no"?>
<!-- Created with Inkscape (http://www.inkscape.org/) -->

<svg
   width="97.999809"
   height="38.000015"
   viewBox="0 0 97.999809 38.000015"
   version="1.1"
   id="svg1"
   xml:space="preserve"
   xmlns="http://www.w3.org/2000/svg"
   xmlns:svg="http://www.w3.org/2000/svg"><defs
     id="defs1" /><g
     id="g108"
     style="display:inline"
     transform="translate(-830.0002,-113)"><g
       id="g396"><path
         d="m 831.0002,121.10004 v 28.89998 h 95.99981 v -28.30833 z"
         style="display:inline;fill:#0f0f0f;fill-opacity:1;stroke:#000000;stroke-width:2;stroke-linejoin:round;stroke-dasharray:none"
         id="path391" /><path
         style="display:inline;fill:#202020;fill-opacity:1;stroke:#000000;stroke-width:2;stroke-linejoin:round;stroke-dasharray:none;stroke-opacity:1"
         d="m 874.75222,121.36575 v 20.6336 l -13.97986,-6.99939 v -21 z"
         id="path392" /><path
         style="display:inline;fill:#6f6f6f;fill-opacity:1;stroke:#000000;stroke-width:2;stroke-linejoin:round;stroke-dasharray:none;stroke-opacity:1"
         d="M 860.77236,113.99996 843.965,120 v 21 l 16.80736,-6.00004 z"
         id="path393" /><path
         id="path394"
         style="display:inline;fill:#404040;fill-opacity:1;stroke:#000000;stroke-width:2;stroke-linejoin:round;stroke-dasharray:none;stroke-opacity:1"
         d="m 906.30164,149.9999 c 0,0 -4.70657,-3.90131 -7.35045,-5.19036 -3.08228,-1.5028 -6.38374,-2.65685 -9.76192,-3.24574 -3.14843,-0.54884 -6.39352,-0.40169 -9.58491,-0.23184 -1.70678,0.0908 -3.4134,0.30611 -5.08398,0.66739 L 860.77236,134.99996 843.965,141 l 12.62057,5.59572 -2.58529,3.4043 h 6.3048 z" /><path
         style="display:inline;fill:#363636;fill-opacity:1;stroke:#000000;stroke-width:2;stroke-linejoin:round;stroke-dasharray:none;stroke-opacity:1"
         d="m 906.30164,150.00002 v -23.07016 c 0,0 -4.67466,-3.58599 -7.35045,-4.74637 -3.07724,-1.33445 -6.41985,-2.15646 -9.76192,-2.44061 -3.19255,-0.27144 -6.4076,0.3105 -9.58491,0.72364 -1.63119,0.2121 -4.85214,0.89923 -4.85214,0.89923 v 20.6336 c 0,0 3.22211,-0.5756 4.85214,-0.66739 3.19085,-0.17968 6.43648,-0.317 9.58491,0.23184 3.37817,0.58889 6.70139,1.69912 9.76192,3.24574 2.67704,1.35283 7.35045,5.19048 7.35045,5.19048 z"
         id="path395" /></g></g></svg>
