<?xml version="1.0" encoding="UTF-8"?>
<svg width="75.699" height="54.708" version="1.1" viewBox="0 0 75.699 54.708" xml:space="preserve" xmlns="http://www.w3.org/2000/svg"><defs><filter id="a" x="-.24701" y="-.42171" width="1.494" height="1.8434" color-interpolation-filters="sRGB"><feGaussianBlur stdDeviation="8.0403032"/></filter></defs><g transform="matrix(.64857 0 0 .64857 -524.04 -566.51)"><path d="m861.28 906.58c4.394-2.7992 12.45-3.9212 21.591 0.27631 9.1409 4.1975 12.989 10.288 14.369 15.737 2.4019-0.5179 5.1502-2.1037 5.3415-3.8226 2.1455-5.8688-5.5188-14.944-17.118-20.271-11.6-5.3265-23.383-3.1344-24.888 0.98196-0.8579 3.3135-0.13821 5.8681 0.70382 7.0978zm12.197 24.373c11.6 5.3265 25.278 5.3952 27.423-0.47357 0 0 4.2189-7.901 4.4885-12.238 0.16489-2.6518-0.59325-5.3969-1.7966-7.7656-1.7036-3.3534-4.5219-6.0903-7.3785-8.5371-2.6446-2.2653-5.7162-4.037-8.8593-5.536-2.3961-1.1428-4.9434-1.9961-7.5303-2.5925-2.773-0.63926-5.6285-1.0552-8.4742-1.0354-2.3539 0.0164-4.768 0.19613-6.9973 0.95385-1.8904 0.64245-3.914 1.4101-5.2321 2.9861-2.7368 3.2723-4.6282 12.323-4.6282 12.323-2.1455 5.8688 7.3848 16.588 18.984 21.915zm-12.901-31.47c1.5048-4.1164 13.288-6.3084 24.888-0.98196 11.6 5.3265 19.264 14.402 17.118 20.271-2.1456 5.8688-15.202 5.4295-26.802 0.10298s-17.35-13.523-15.204-19.392m-6.4338 0.1807c-0.53441-4e-3 -1.0682-3e-3 -1.6002 4e-3 -2.3906 0.0326-4.7672 0.50399-7.1076 1.0312-2.479 0.55849-4.9803 1.1735-7.3077 2.2514-2.227 1.0315-4.4218 2.2811-6.2609 3.985-1.5594 1.4448-3.2016 3.0677-3.9005 5.154-1.4512 4.332-0.1178 13.82-0.1178 13.82-1e-5 6.5559 12.669 12.624 25.43 12.624 12.761 0 25.67-5.9414 25.67-12.497 0 0 1.4044-9.3729 0.0134-13.677-0.81925-2.5359-2.7146-4.6125-4.6473-6.3031-2.6278-2.2986-5.8322-3.8667-9.0768-4.8962-3.5735-1.1339-7.354-1.4688-11.095-1.4958zm-0.74677 2.5626c12.761 0 23.105 5.3146 23.105 11.871 0 1.7636-0.908 3.436-2.4737 4.9407-4.0932 3.9337-12.725 6.6983-21.681 6.9032-8.5644-0.19805-15.917-2.7784-19.576-6.4942-1.5832-1.6079-2.4803-3.4246-2.4803-5.3496 0-4.5983 10.345-11.871 23.105-11.871zm0 0c-12.761 0-23.105 7.2722-23.105 11.871 0 1.9251 0.89714 3.7417 2.4803 5.3496 3.177-4.6058 10.573-9.2968 20.625-9.2968 10.052 0 17.455 4.2824 20.632 8.8879 1.5657-1.5046 2.4737-3.1771 2.4737-4.9407 0-6.5559-10.345-11.871-23.105-11.871z" fill="#fff" fill-opacity=".0037313" filter="url(#a)" style="mix-blend-mode:normal"/><g><path d="m853.39 902.23c-12.761 0-23.105 7.2722-23.105 11.871 0 1.9251 0.89714 3.7417 2.4803 5.3496 3.177-4.6058 10.573-9.2968 20.625-9.2968 10.052 0 17.455 4.2824 20.632 8.8879 1.5657-1.5046 2.4737-3.1771 2.4737-4.9407 0-6.5559-10.345-11.871-23.105-11.871z" fill="#bb9f59" stroke="#000" stroke-linejoin="round" stroke-width="1.5418"/><path d="m854.14 899.66c-0.53441-4e-3 -1.0682-3e-3 -1.6002 4e-3 -2.3906 0.0326-4.7672 0.50399-7.1076 1.0312-2.479 0.55849-4.9803 1.1735-7.3077 2.2514-2.227 1.0315-4.4218 2.2811-6.2609 3.985-1.5594 1.4448-3.2016 3.0677-3.9005 5.154-1.4512 4.332-0.1178 13.82-0.1178 13.82-1e-5 6.5559 12.669 12.624 25.43 12.624 12.761 0 25.67-5.9414 25.67-12.497 0 0 1.4044-9.3729 0.0134-13.677-0.81925-2.5359-2.7146-4.6125-4.6473-6.3031-2.6278-2.2986-5.8322-3.8667-9.0768-4.8962-3.5735-1.1339-7.354-1.4688-11.095-1.4958zm-0.74677 2.5626c12.761 0 23.105 5.3146 23.105 11.871 0 1.7636-0.908 3.436-2.4737 4.9407-4.0932 3.9337-12.725 6.6983-21.681 6.9032-8.5644-0.19805-15.917-2.7784-19.576-6.4942-1.5832-1.6079-2.4803-3.4246-2.4803-5.3496 0-4.5983 10.345-11.871 23.105-11.871z" fill="#c8a03b" stroke="#000" stroke-linejoin="round" stroke-width="1.5418"/><g><path d="m831.79 923.25c-0.11439 1.7809-0.19268 3.665 0.33707 5.3431 0.21331 0.67565 0.61883 1.285 1.0955 1.7487 1.3154 1.2794 4.6349 2.6229 4.6349 2.6229l2.4478 0.87439s-0.48617-1.4713-0.59388-2.2344c-0.19011-1.347-0.1732-2.7236-0.0843-4.0802 0.0365-0.55742 0.25282-1.6515 0.25282-1.6515s-1.9997-0.5714-2.9495-1.02c-1.029-0.48601-2.0133-1.1271-2.9495-1.7972-0.6544-0.46839-1.854-1.5464-1.854-1.5464s-0.29921 1.1509-0.33709 1.7407z" fill="#e9d693" fill-opacity=".81098" style="paint-order:markers fill stroke"/><path d="m876.74 922.38c0.4481 1.7574 0.83864 3.6299 0.0144 5.4824-0.33189 0.74591-1.0479 1.4844-1.9215 2.0981-2.4106 1.6936-8.7313 4.0698-8.7313 4.0698l-4.6756 1.6351s0.76508-1.631 0.87949-2.4324c0.20193-1.4146-4e-3 -2.7951-0.3495-4.1332-0.14168-0.54984-0.70243-1.5845-0.70243-1.5845s3.8376-1.1919 5.6381-1.9364c1.9506-0.80662 3.7942-1.7555 5.5401-2.7188 1.2204-0.6733 3.4298-2.1285 3.4298-2.1285s0.73004 1.0662 0.87845 1.6482z" fill="#645213" fill-opacity=".46342" style="paint-order:markers fill stroke"/></g><g transform="matrix(.63199 0 0 .63199 258.83 365.31)" stroke="#000" stroke-linejoin="round" stroke-width="2.4397"><path d="m972.54 895.01c18.354 8.428 39.997 8.5369 43.392-0.74933 0 0 6.6756-12.502 7.1022-19.364 0.2609-4.1959-0.9387-8.5394-2.8428-12.288-2.6956-5.306-7.155-9.6366-11.675-13.508-4.1846-3.5844-9.0447-6.3877-14.018-8.7597-3.7914-1.8083-7.822-3.1585-11.915-4.1021-4.3877-1.0115-8.906-1.6696-13.409-1.6383-3.7246 0.0259-7.5445 0.31033-11.072 1.5093-2.9911 1.0166-6.1931 2.2312-8.2787 4.7248-4.3305 5.1778-7.3232 19.498-7.3232 19.498-3.3948 9.2862 11.685 26.248 30.039 34.676zm-20.413-49.796c2.3811-6.5134 21.026-9.9818 39.38-1.5538 18.354 8.4281 30.481 22.788 27.086 32.075-3.3949 9.2862-24.055 8.591-42.409 0.16294-18.354-8.4281-27.452-21.398-24.057-30.684" fill="#c8a03b"/><path d="m953.24 856.44c6.9527-4.4292 19.7-6.2044 34.164 0.43721 14.464 6.6417 20.553 16.279 22.737 24.901 3.8005-0.81947 8.1492-3.3287 8.4518-6.0484 3.3948-9.2862-8.7323-23.646-27.086-32.075-18.354-8.4281-36.999-4.9596-39.38 1.5538-1.3575 5.2429-0.2187 9.285 1.1136 11.231z" fill="#bb9f59" stroke-linecap="round"/></g><g><path d="m856.82 910.62c-0.2098 0.74078-0.51506 1.5128-0.40232 2.2744 0.12575 0.84953 0.70923 1.57 1.1645 2.2982 0.7599 1.2155 2.5973 3.4275 2.5973 3.4275l1.8512 1.6152s0.36352-1.6803 0.69266-2.4693c0.30551-0.73232 0.78054-1.3818 1.1766-2.0694 0.30251-0.52525 0.91629-1.5707 0.91629-1.5707s-1.3905-1.2461-2.0345-1.9207c-0.8626-0.90359-1.7631-1.7938-2.4435-2.8415-0.6262-0.96429-1.4744-3.1183-1.4744-3.1183s-0.74908 1.2356-1.059 1.8868c-0.38326 0.80532-0.74172 1.6297-0.98475 2.4878z" fill="#e9d693" fill-opacity=".90549" style="paint-order:markers fill stroke"/><path d="m901.34 928c-0.35219 0.70915-0.36887 1.6203-0.91784 2.1909-1.1738 1.22-2.9562 1.7589-4.6053 2.1418-3.078 0.71454-6.3278 0.45178-9.4775 0.19809-1.8957-0.15269-5.6117-1.0307-5.6117-1.0307s0.72774-1.6228 0.9583-2.4778c0.26216-0.97216 0.3818-1.9805 0.47458-2.9832 0.057-0.61537 0.0497-1.8534 0.0497-1.8534s3.8467 0.97262 5.8063 1.2585c2.07 0.30203 4.1807 0.73014 6.2574 0.47846 1.1961-0.14496 4.065-0.62691 5.4828-1.1549s4.5115-3.6528 4.5115-3.6528-0.65922 2.6619-1.2058 3.9124c-0.45868 1.0494-1.2132 1.9469-1.7226 2.9726z" fill="#997c28" style="paint-order:markers fill stroke"/></g></g></g></svg>
