<?xml version="1.0" encoding="UTF-8" standalone="no"?>
<!-- Created with Inkscape (http://www.inkscape.org/) -->

<svg
   width="75.69873"
   height="54.708069"
   viewBox="0 0 75.69873 54.708069"
   version="1.1"
   id="svg1"
   xml:space="preserve"
   xmlns="http://www.w3.org/2000/svg"
   xmlns:svg="http://www.w3.org/2000/svg"><defs
     id="defs1"><filter
       style="color-interpolation-filters:sRGB"
       id="filter155"
       x="-0.2470058"
       y="-0.42171196"
       width="1.4940116"
       height="1.8434239"><feGaussianBlur
         stdDeviation="8.0403032"
         id="feGaussianBlur155" /></filter><filter
       style="color-interpolation-filters:sRGB"
       id="filter156"
       x="-0.093978277"
       y="-0.16044871"
       width="1.1879566"
       height="1.3208974"><feGaussianBlur
         stdDeviation="3.0590935"
         id="feGaussianBlur156" /></filter></defs><g
     id="g17"
     style="display:inline"
     transform="matrix(0.64857232,0,0,0.64857232,-524.03935,-566.51327)"><path
       id="path155"
       style="display:inline;mix-blend-mode:normal;fill:#ffffff;fill-opacity:1;stroke:none;stroke-width:1.54185;stroke-linecap:round;stroke-linejoin:round;stroke-dasharray:none;stroke-opacity:1;filter:url(#filter155)"
       d="m 861.27733,906.57996 c 4.39403,-2.79921 12.45026,-3.92117 21.59125,0.27631 9.14092,4.19748 12.98925,10.28824 14.36945,15.73741 2.40189,-0.5179 5.15024,-2.10372 5.34148,-3.82255 2.14549,-5.86881 -5.51875,-14.94441 -17.11831,-20.27089 -11.59959,-5.32649 -23.38286,-3.13445 -24.88769,0.98196 -0.8579,3.31348 -0.13821,5.86808 0.70382,7.09776 z m 12.19675,24.37269 c 11.59959,5.32646 25.27783,5.39525 27.42325,-0.47357 0,0 4.21893,-7.90104 4.48854,-12.2376 0.16489,-2.6518 -0.59325,-5.39687 -1.79663,-7.76564 -1.7036,-3.35336 -4.5219,-6.09026 -7.37851,-8.53711 -2.64464,-2.26534 -5.7162,-4.03696 -8.85926,-5.53605 -2.3961,-1.14283 -4.94345,-1.99614 -7.53029,-2.59248 -2.77302,-0.63926 -5.62854,-1.05515 -8.47422,-1.03537 -2.35393,0.0164 -4.76804,0.19613 -6.99726,0.95385 -1.89036,0.64245 -3.91399,1.41012 -5.2321,2.98607 -2.73684,3.27231 -4.62823,12.32282 -4.62823,12.32282 -2.14547,5.86881 7.38485,16.58846 18.98447,21.91494 z M 860.57351,899.4822 c 1.50483,-4.11641 13.2881,-6.30845 24.88769,-0.98196 11.59956,5.32648 19.2638,14.40208 17.11831,20.27089 -2.14555,5.86881 -15.20232,5.42947 -26.80191,0.10298 -11.59959,-5.32649 -17.34959,-13.52311 -15.20409,-19.39191 m -6.43385,0.1807 c -0.53441,-0.004 -1.06817,-0.003 -1.60022,0.004 -2.39064,0.0326 -4.76722,0.50399 -7.10764,1.03125 -2.47904,0.55849 -4.98033,1.17348 -7.30767,2.25143 -2.22701,1.03147 -4.42184,2.2811 -6.26086,3.98499 -1.55935,1.44476 -3.20164,3.0677 -3.90053,5.15403 -1.45118,4.33205 -0.1178,13.81968 -0.1178,13.81968 -10e-6,6.55586 12.66933,12.62395 25.43015,12.62395 12.76078,0 25.67019,-5.9414 25.67019,-12.49726 0,0 1.40438,-9.37293 0.0134,-13.67744 -0.81925,-2.53588 -2.71455,-4.61248 -4.64731,-6.30309 -2.62775,-2.29856 -5.83216,-3.86672 -9.0768,-4.89622 -3.57354,-1.13387 -7.35397,-1.46877 -11.09485,-1.49576 z m -0.74677,2.56258 c 12.76081,0 23.10539,5.31465 23.10539,11.87052 0,1.76359 -0.908,3.43602 -2.47367,4.94067 0,0 0,0 0,0 -4.09321,3.93368 -12.72485,6.69829 -21.68075,6.90317 0,0 0,0 0,0 0,0 0,0 0,0 -8.56443,-0.19805 -15.91723,-2.7784 -19.57602,-6.49422 0,0 0,0 0,0 -1.5832,-1.60788 -2.48034,-3.42456 -2.48034,-5.34962 0,-4.59832 10.34459,-11.87052 23.10539,-11.87052 z m 0,0 c -12.7608,0 -23.10539,7.2722 -23.10539,11.87052 0,1.92506 0.89714,3.74174 2.48034,5.34962 3.177,-4.60579 10.57265,-9.29684 20.62505,-9.29684 10.05234,0 17.45474,4.2824 20.63172,8.88789 1.56567,-1.50465 2.47367,-3.17708 2.47367,-4.94067 0,-6.55587 -10.34458,-11.87052 -23.10539,-11.87052 z" /><path
       id="path76"
       style="display:inline;mix-blend-mode:normal;fill:#841aff;fill-opacity:1;stroke:none;stroke-width:1.54185;stroke-linecap:round;stroke-linejoin:round;stroke-dasharray:none;stroke-opacity:1;filter:url(#filter156)"
       d="m 861.27733,906.57996 c 4.39403,-2.79921 12.45026,-3.92117 21.59125,0.27631 9.14092,4.19748 12.98925,10.28824 14.36945,15.73741 2.40189,-0.5179 5.15024,-2.10372 5.34148,-3.82255 2.14549,-5.86881 -5.51875,-14.94441 -17.11831,-20.27089 -11.59959,-5.32649 -23.38286,-3.13445 -24.88769,0.98196 -0.8579,3.31348 -0.13821,5.86808 0.70382,7.09776 z m 12.19675,24.37269 c 11.59959,5.32646 25.27783,5.39525 27.42325,-0.47357 0,0 4.21893,-7.90104 4.48854,-12.2376 0.16489,-2.6518 -0.59325,-5.39687 -1.79663,-7.76564 -1.7036,-3.35336 -4.5219,-6.09026 -7.37851,-8.53711 -2.64464,-2.26534 -5.7162,-4.03696 -8.85926,-5.53605 -2.3961,-1.14283 -4.94345,-1.99614 -7.53029,-2.59248 -2.77302,-0.63926 -5.62854,-1.05515 -8.47422,-1.03537 -2.35393,0.0164 -4.76804,0.19613 -6.99726,0.95385 -1.89036,0.64245 -3.91399,1.41012 -5.2321,2.98607 -2.73684,3.27231 -4.62823,12.32282 -4.62823,12.32282 -2.14547,5.86881 7.38485,16.58846 18.98447,21.91494 z M 860.57351,899.4822 c 1.50483,-4.11641 13.2881,-6.30845 24.88769,-0.98196 11.59956,5.32648 19.2638,14.40208 17.11831,20.27089 -2.14555,5.86881 -15.20232,5.42947 -26.80191,0.10298 -11.59959,-5.32649 -17.34959,-13.52311 -15.20409,-19.39191 m -6.43385,0.1807 c -0.53441,-0.004 -1.06817,-0.003 -1.60022,0.004 -2.39064,0.0326 -4.76722,0.50399 -7.10764,1.03125 -2.47904,0.55849 -4.98033,1.17348 -7.30767,2.25143 -2.22701,1.03147 -4.42184,2.2811 -6.26086,3.98499 -1.55935,1.44476 -3.20164,3.0677 -3.90053,5.15403 -1.45118,4.33205 -0.1178,13.81968 -0.1178,13.81968 -10e-6,6.55586 12.66933,12.62395 25.43015,12.62395 12.76078,0 25.67019,-5.9414 25.67019,-12.49726 0,0 1.40438,-9.37293 0.0134,-13.67744 -0.81925,-2.53588 -2.71455,-4.61248 -4.64731,-6.30309 -2.62775,-2.29856 -5.83216,-3.86672 -9.0768,-4.89622 -3.57354,-1.13387 -7.35397,-1.46877 -11.09485,-1.49576 z m -0.74677,2.56258 c 12.76081,0 23.10539,5.31465 23.10539,11.87052 0,1.76359 -0.908,3.43602 -2.47367,4.94067 0,0 0,0 0,0 -4.09321,3.93368 -12.72485,6.69829 -21.68075,6.90317 0,0 0,0 0,0 0,0 0,0 0,0 -8.56443,-0.19805 -15.91723,-2.7784 -19.57602,-6.49422 0,0 0,0 0,0 -1.5832,-1.60788 -2.48034,-3.42456 -2.48034,-5.34962 0,-4.59832 10.34459,-11.87052 23.10539,-11.87052 z m 0,0 c -12.7608,0 -23.10539,7.2722 -23.10539,11.87052 0,1.92506 0.89714,3.74174 2.48034,5.34962 3.177,-4.60579 10.57265,-9.29684 20.62505,-9.29684 10.05234,0 17.45474,4.2824 20.63172,8.88789 1.56567,-1.50465 2.47367,-3.17708 2.47367,-4.94067 0,-6.55587 -10.34458,-11.87052 -23.10539,-11.87052 z" /><g
       id="g12"
       style="display:inline"><path
         d="m 853.39289,902.22548 c -12.7608,0 -23.10539,7.2722 -23.10539,11.87052 0,1.92506 0.89714,3.74174 2.48034,5.34962 3.177,-4.60579 10.57265,-9.29684 20.62505,-9.29684 10.05234,0 17.45474,4.2824 20.63172,8.88789 1.56567,-1.50465 2.47367,-3.17708 2.47367,-4.94067 0,-6.55587 -10.34458,-11.87052 -23.10539,-11.87052 z"
         style="display:inline;fill:#bb9f59;fill-opacity:1;stroke:#000000;stroke-width:1.54185;stroke-linejoin:round;stroke-dasharray:none"
         id="path8" /><path
         d="m 854.13966,899.6629 c -0.53441,-0.004 -1.06817,-0.003 -1.60022,0.004 -2.39064,0.0326 -4.76722,0.50399 -7.10764,1.03125 -2.47904,0.55849 -4.98033,1.17348 -7.30767,2.25143 -2.22701,1.03147 -4.42184,2.2811 -6.26086,3.98499 -1.55935,1.44476 -3.20164,3.0677 -3.90053,5.15403 -1.45118,4.33205 -0.1178,13.81968 -0.1178,13.81968 -10e-6,6.55586 12.66933,12.62395 25.43015,12.62395 12.76078,0 25.67019,-5.9414 25.67019,-12.49726 0,0 1.40438,-9.37293 0.0134,-13.67744 -0.81925,-2.53588 -2.71455,-4.61248 -4.64731,-6.30309 -2.62775,-2.29856 -5.83216,-3.86672 -9.0768,-4.89622 -3.57354,-1.13387 -7.35397,-1.46877 -11.09485,-1.49576 z m -0.74677,2.56258 c 12.76081,0 23.10539,5.31465 23.10539,11.87052 0,1.76359 -0.908,3.43602 -2.47367,4.94067 0,0 0,0 0,0 -4.09321,3.93368 -12.72485,6.69829 -21.68075,6.90317 0,0 0,0 0,0 0,0 0,0 0,0 -8.56443,-0.19805 -15.91723,-2.7784 -19.57602,-6.49422 0,0 0,0 0,0 -1.5832,-1.60788 -2.48034,-3.42456 -2.48034,-5.34962 0,-4.59832 10.34459,-11.87052 23.10539,-11.87052 z"
         style="display:inline;fill:#c8a03b;fill-opacity:1;stroke:#000000;stroke-width:1.54185;stroke-linejoin:round;stroke-dasharray:none"
         id="path9" /><g
         id="g11"
         style="display:inline"><path
           style="display:inline;fill:#e9d693;fill-opacity:0.810976;stroke:none;stroke-width:0.884812;stroke-linecap:round;stroke-linejoin:round;stroke-opacity:1;paint-order:markers fill stroke"
           d="m 831.79171,923.24729 c -0.11439,1.7809 -0.19268,3.66503 0.33707,5.34309 0.21331,0.67565 0.61883,1.28501 1.09552,1.74867 1.31545,1.27943 4.63491,2.62294 4.63491,2.62294 l 2.44784,0.87439 c 0,0 -0.48617,-1.47132 -0.59388,-2.23443 -0.19011,-1.347 -0.1732,-2.72362 -0.0843,-4.0802 0.0365,-0.55742 0.25282,-1.6515 0.25282,-1.6515 0,0 -1.99967,-0.5714 -2.94949,-1.02002 -1.02903,-0.48601 -2.01329,-1.1271 -2.94948,-1.7972 -0.6544,-0.46839 -1.85396,-1.54644 -1.85396,-1.54644 0,0 -0.29921,1.1509 -0.33709,1.7407 z"
           id="path10" /><path
           style="display:inline;fill:#645213;fill-opacity:0.463415;stroke:none;stroke-width:1.25349;stroke-linecap:round;stroke-linejoin:round;stroke-opacity:1;paint-order:markers fill stroke"
           d="m 876.73976,922.37943 c 0.4481,1.7574 0.83864,3.62986 0.0144,5.48243 -0.33189,0.74591 -1.04792,1.48439 -1.92148,2.09812 -2.41063,1.69363 -8.7313,4.06983 -8.7313,4.06983 l -4.67565,1.63513 c 0,0 0.76508,-1.63101 0.87949,-2.43237 0.20193,-1.41456 -0.004,-2.79508 -0.3495,-4.13321 -0.14168,-0.54984 -0.70243,-1.58448 -0.70243,-1.58448 0,0 3.8376,-1.19191 5.63808,-1.93644 1.95064,-0.80662 3.79419,-1.7555 5.54012,-2.7188 1.2204,-0.6733 3.42983,-2.12846 3.42983,-2.12846 0,0 0.73004,1.06622 0.87845,1.64825 z"
           id="path11" /></g></g><g
       id="g16"
       style="display:inline"><g
         id="g13"
         transform="matrix(0.63199249,0,0,0.63199249,258.83417,365.31483)"
         style="stroke-width:1.00026;stroke-dasharray:none"><path
           id="path12"
           style="display:inline;fill:#c8a03b;fill-opacity:1;stroke:#000000;stroke-width:2.43966;stroke-linejoin:round;stroke-dasharray:none"
           d="m 972.54306,895.00718 c 18.354,8.42805 39.99704,8.53689 43.39174,-0.74933 0,0 6.6756,-12.50179 7.1022,-19.36351 0.2609,-4.19594 -0.9387,-8.53945 -2.8428,-12.28756 -2.6956,-5.306 -7.155,-9.6366 -11.675,-13.50824 -4.1846,-3.58444 -9.04473,-6.38767 -14.01798,-8.75968 -3.79135,-1.8083 -7.82201,-3.15848 -11.91516,-4.10207 -4.38774,-1.0115 -8.90603,-1.66957 -13.40874,-1.63826 -3.72462,0.0259 -7.54446,0.31033 -11.07174,1.50927 -2.99112,1.01655 -6.1931,2.23123 -8.27874,4.72485 -4.3305,5.17777 -7.32323,19.49837 -7.32323,19.49837 -3.39478,9.2862 11.68503,26.24787 30.03907,34.67595 z m -20.41253,-49.7956 c 2.38108,-6.51339 21.02572,-9.98185 39.37972,-1.55376 18.35395,8.42808 30.48105,22.78838 27.08625,32.07458 -3.3949,9.2862 -24.05459,8.59104 -42.40859,0.16294 -18.354,-8.42809 -27.4522,-21.39757 -24.05738,-30.68376" /><path
           id="path13"
           style="display:inline;fill:#bb9f59;fill-opacity:1;stroke:#000000;stroke-width:2.43966;stroke-linecap:round;stroke-linejoin:round;stroke-dasharray:none;stroke-opacity:1"
           d="m 953.24417,856.44234 c 6.95266,-4.42917 19.70002,-6.20445 34.16378,0.43721 14.46365,6.64166 20.55285,16.27906 22.73675,24.90126 3.8005,-0.81947 8.1492,-3.32871 8.4518,-6.04841 3.3948,-9.2862 -8.7323,-23.6465 -27.08625,-32.07458 -18.354,-8.42809 -36.99864,-4.95963 -39.37972,1.55376 -1.35746,5.24291 -0.2187,9.28504 1.11364,11.23076 z" /></g><g
         id="g15"
         style="display:inline"><path
           style="fill:#e9d693;fill-opacity:0.905488;stroke:none;stroke-width:0.792868;stroke-linecap:round;stroke-linejoin:round;stroke-opacity:1;paint-order:markers fill stroke"
           d="m 856.81602,910.6247 c -0.2098,0.74078 -0.51506,1.51283 -0.40232,2.27444 0.12575,0.84953 0.70923,1.56997 1.16448,2.29816 0.7599,1.2155 2.59733,3.42751 2.59733,3.42751 l 1.85116,1.61525 c 0,0 0.36352,-1.68033 0.69266,-2.4693 0.30551,-0.73232 0.78054,-1.38178 1.17655,-2.06938 0.30251,-0.52525 0.91629,-1.57067 0.91629,-1.57067 0,0 -1.39052,-1.24611 -2.03452,-1.92072 -0.8626,-0.90359 -1.76312,-1.79384 -2.44348,-2.84154 -0.6262,-0.96429 -1.4744,-3.11833 -1.4744,-3.11833 0,0 -0.74908,1.23558 -1.059,1.88682 -0.38326,0.80532 -0.74172,1.62966 -0.98475,2.48776 z"
           id="path14" /><path
           style="fill:#997c28;fill-opacity:1;stroke:none;stroke-width:1.29763;stroke-linecap:round;stroke-linejoin:round;stroke-opacity:1;paint-order:markers fill stroke"
           d="m 901.3386,928.00329 c -0.35219,0.70915 -0.36887,1.6203 -0.91784,2.19089 -1.1738,1.21999 -2.95616,1.75892 -4.60529,2.14177 -3.07799,0.71454 -6.32782,0.45178 -9.47746,0.19809 -1.89571,-0.15269 -5.61169,-1.03067 -5.61169,-1.03067 0,0 0.72774,-1.6228 0.9583,-2.47781 0.26216,-0.97216 0.3818,-1.98054 0.47458,-2.98315 0.057,-0.61537 0.0497,-1.85337 0.0497,-1.85337 0,0 3.84668,0.97262 5.80632,1.25854 2.06996,0.30203 4.18069,0.73014 6.25738,0.47846 1.19609,-0.14496 4.06496,-0.62691 5.48285,-1.15492 1.41789,-0.52801 4.51154,-3.6528 4.51154,-3.6528 0,0 -0.65922,2.66194 -1.20577,3.91235 -0.45868,1.04935 -1.21318,1.94693 -1.72259,2.97262 z"
           id="path15" /></g><path
         style="fill:#841aff;fill-opacity:1;stroke:none;stroke-width:1.54185;stroke-linecap:round;stroke-linejoin:round;stroke-dasharray:none;stroke-opacity:1"
         id="path157"
         d="m 827.95266,923.1212 c 0.80088,0.65051 1.37662,1.53044 1.98764,2.34962 0.70178,0.94084 0.59176,0.79035 1.28518,1.68046 0.81408,0.86575 1.91328,1.85654 3.12641,2.10509 0.24725,0.0509 0.50153,0.0571 0.75228,0.0863 2.27962,0.0278 0.58316,0.0154 4.90633,-0.02 0.45632,0 0.91805,-0.0802 1.36899,-0.0154 0.37068,0.0571 -1.46398,-0.11101 -1.12436,0.0478 0.43653,0.20475 0.96265,0.0586 1.44288,0.10176 0.42929,0.0385 0.85672,0.0956 1.2851,0.14339 1.15569,0.16082 2.3054,0.39487 3.37245,0.88086 0.50688,0.23081 0.85204,0.4402 1.33365,0.71326 0.86879,0.45577 1.72075,1.05354 2.70314,1.24519 0.17537,0.0339 0.35569,0.0339 0.53354,0.0524 1.17009,-0.0833 2.34876,-0.0848 3.51026,-0.24793 0.0424,0 1.35634,-0.71712 1.39511,-0.73608 0.84959,-0.41522 1.72151,-0.69167 2.62807,-0.94901 -0.6496,-0.12489 2.28075,-0.16313 1.7088,-0.1565 -0.67263,0 -1.3475,-0.0185 -2.01763,0.0401 -0.25091,0.0216 0.50224,0.0401 0.75236,0.0694 0.52254,0.0617 0.85972,0.12951 1.37071,0.22048 1.85893,0.3702 3.87293,0.59454 5.67262,-0.11256 0.62739,-0.34383 1.29415,-0.58559 1.99114,-0.73777 0.26159,-0.0478 0.14231,0 0.36069,-0.11255 0,0 -3.01492,-0.36727 -3.01492,-0.36727 v 0 c -0.20012,0.0509 -0.0914,0.0231 -0.32612,0.0833 -0.67418,0.1935 -1.3087,0.48059 -1.94496,0.77323 -1.25035,0.40536 -2.01063,0.16745 1.65516,0.25425 0.15388,0 -0.30832,0.02 -0.46178,0.0154 -0.0643,0 -1.06314,-0.18671 -1.0743,-0.18872 -2.45108,-0.4365 -5.00036,-0.64295 -7.45441,-0.1326 -0.799,0.24469 -1.01809,0.29187 -1.79815,0.61242 -0.87808,0.36095 -0.80395,0.37868 -1.63516,0.7717 -0.22107,0.10484 -0.90497,0.22958 -0.67025,0.29819 0.71993,0.21062 1.49627,0.10793 2.24442,0.1622 -0.17514,0 -0.35122,0.0339 -0.52543,0.0154 -0.94969,-0.10176 -1.92179,-0.75103 -2.75704,-1.16533 -0.67325,-0.38546 -1.345,-0.79312 -2.07479,-1.06634 -0.90343,-0.33812 -1.86476,-0.47658 -2.81307,-0.61874 -0.84982,-0.0941 -1.93619,-0.2302 -2.78504,-0.2561 -1.37259,-0.0416 -2.74606,-0.0478 -4.11922,-0.0601 -0.47285,0 -1.8795,-0.10022 -1.41862,0 0.48882,0.11255 1.00322,0.002 1.50461,0.0154 0.2961,0 -0.59238,9.3e-4 -0.88855,10e-4 -0.23133,-0.0154 -0.46456,0 -0.69396,-0.0355 -1.2795,-0.17824 -2.36434,-1.03782 -3.24352,-1.91914 -1.08881,-1.3172 -2.02641,-2.73524 -3.01931,-4.12367 z" /><path
         style="fill:#841aff;fill-opacity:1;stroke:none;stroke-width:1.54185;stroke-linecap:round;stroke-linejoin:round;stroke-dasharray:none;stroke-opacity:1"
         id="path158"
         d="m 856.67384,907.34185 c 0.52071,2.12855 1.00724,4.26529 1.54979,6.38872 0.31956,0.90445 0.6161,2.39496 1.46925,2.99427 0.12027,0.0848 0.26098,0.13569 0.39146,0.20322 0.65036,0.18286 1.31269,0.282 1.90352,0.63293 0.44496,0.26442 0.59856,0.43387 0.98979,0.77909 0.69127,0.69676 1.27406,1.49375 2.14848,1.97912 0.61203,0.33967 0.88153,0.38022 1.5558,0.5839 1.30662,0.31716 2.67908,0.30328 3.97056,0.69445 0.76306,0.23112 1.0284,0.41861 1.71627,0.79127 0.84006,0.46394 1.4363,1.27681 2.33879,1.63344 0.53055,0.20969 1.27436,0.34105 1.81672,0.457 1.18371,0.22095 2.37151,0.41985 3.55923,0.61797 0.5825,0.0971 1.58918,0.28031 2.19581,0.29419 1.2326,0.0277 2.46585,10e-4 3.69877,0.002 1.01629,-0.0833 0.68984,-0.0493 1.66612,-0.15773 0.24098,-0.0262 0.96504,-0.0756 0.72266,-0.0833 -4.54507,-0.11872 -2.26181,-0.0663 -1.56405,0.18286 0.20146,0.0725 0.38292,0.19119 0.57437,0.28679 0.96677,0.64495 1.64173,1.62156 2.52766,2.35933 0.14756,0.12335 0.31158,0.2248 0.46737,0.3372 0.15631,0.074 0.30456,0.16837 0.46893,0.22234 0.16148,0.0524 0.33084,0.0941 0.50078,0.0956 1.1426,0.0154 2.28591,-7.7e-4 3.42782,-0.0432 0.1816,0 0.35696,-0.0678 0.53522,-0.1033 1.89171,-0.37359 -0.76446,0.14647 1.02222,-0.20291 1.06017,-0.10176 1.43828,-0.59777 2.10478,-1.34341 0.45695,-0.62044 0.97728,-1.15639 1.67895,-1.48326 0.23633,-0.14802 0.13105,-0.0632 0.31842,-0.2524 0,0 -3.02116,-0.25826 -3.02116,-0.25826 v 0 c -0.17591,0.12643 -0.08,0.0632 -0.28971,0.18826 -0.65398,0.4089 -1.13682,0.9928 -1.61904,1.58749 -0.68791,0.72975 -1.06443,1.02348 -2.08047,1.15931 -0.25794,0.0524 -0.75508,0.15434 -1.00753,0.1969 -0.17785,0.0293 -0.71515,0.0663 -0.53523,0.0786 0.78807,0.0555 1.57959,0.0355 2.36945,0.0493 0.16459,0 -0.3317,0.0154 -0.49361,-0.0154 -0.1661,-0.0308 -0.31976,-0.10793 -0.47965,-0.16313 -0.16093,-0.0971 -0.3317,-0.17901 -0.48277,-0.29048 -0.94457,-0.69784 -1.60557,-1.71608 -2.54127,-2.4244 -0.19261,-0.11873 -0.3721,-0.26289 -0.57783,-0.35771 -0.19974,-0.0925 -0.40961,-0.18687 -0.62924,-0.19859 -1.16991,-0.0632 -2.34324,-0.0401 -3.51474,-0.0231 -0.76132,0.0154 -1.54838,0.25687 -2.31653,0.22172 0.60157,0.0154 1.20509,0.074 1.8047,0.0247 0.35928,-0.0293 -0.72013,-0.0432 -1.07812,-0.0848 -1.561,-0.18518 -3.10061,-0.5432 -4.65055,-0.79698 -0.32563,-0.0694 -1.35472,-0.27877 -1.71537,-0.40104 -0.93464,-0.31685 -1.57649,-1.11799 -2.41245,-1.60969 -0.64462,-0.36526 -1.03741,-0.62799 -1.7511,-0.86482 -1.26501,-0.41969 -2.62274,-0.41152 -3.91692,-0.68813 -0.64516,-0.17191 -0.92425,-0.21015 -1.51781,-0.50588 -0.88065,-0.43865 -1.48187,-1.20526 -2.11773,-1.92931 -0.84517,-0.82057 -1.62159,-1.40833 -2.83184,-1.5198 -0.31773,-0.10331 -0.46166,-0.11256 -0.71743,-0.34491 -0.72606,-0.65776 -0.99917,-1.71331 -1.35369,-2.57921 -0.5957,-2.08689 -1.12521,-4.20915 -1.26801,-6.38254 z" /><path
         style="fill:#841aff;fill-opacity:1;stroke:none;stroke-width:1.54185;stroke-linecap:round;stroke-linejoin:round;stroke-dasharray:none;stroke-opacity:1"
         id="path159"
         d="m 838.08174,933.85138 c 0.16152,0.0524 0.32533,0.10022 0.48457,0.15928 0.74587,0.27907 1.46672,0.60579 2.23294,0.83198 0.67343,0.19874 1.03516,0.26057 1.71646,0.40319 1.85774,0.19505 3.74509,0.11101 5.60508,0.091 0.29431,0 1.17674,-0.0293 0.88243,-0.0308 -2.96371,-0.0185 -2.44787,0 -1.35527,0.0632 0.17346,0.0231 0.34752,0.0416 0.52037,0.0678 0.37518,0.0586 0.76886,0.20275 1.15072,0.20784 3.01252,0.0416 2.32315,0.0848 3.87687,-0.0478 0.19757,-0.0154 0.39508,-0.0324 0.59271,-0.0463 0.2053,-0.0154 0.4104,-0.0355 0.61611,-0.0432 0.20207,0 0.80882,0 0.60662,0 -3.11803,0.0154 -2.90841,-0.0154 -1.7758,0.0231 0.16067,0 0.3213,0.0154 0.48195,0.017 2.06125,0.36526 4.02422,-0.23097 6.05604,-0.26058 -4.46233,-0.0925 -1.94606,-0.0154 -0.92799,0.13877 0,0 2.94664,-0.42154 2.94664,-0.42154 v 0 c -1.6213,-0.24654 -3.22128,-0.27183 -4.88021,-0.16143 -1.19626,0.0493 -5.55743,0.4792 -0.29044,0.2561 -2.10507,-0.074 -4.21674,-0.11564 -6.31722,0.0632 -1.28303,0.0663 -1.17899,0.0509 1.95226,0.0509 0.12566,0 -0.25197,0 -0.37658,-0.0216 -0.46286,-0.0632 -0.91217,-0.23205 -1.3829,-0.25148 -1.80831,-0.12026 -0.87591,-0.0725 -4.28475,-0.0632 -0.28748,6.1e-4 -1.14908,0.0154 -0.86192,0.0293 0.60864,0.0293 1.21861,0.0154 1.82789,0.017 0.62104,0 -2.43553,-10e-4 -1.86226,-0.0617 -1.47077,-0.27985 -2.91832,-0.65621 -4.23362,-1.39738 z" /><path
         style="fill:#841aff;fill-opacity:1;stroke:none;stroke-width:1.54185;stroke-linecap:round;stroke-linejoin:round;stroke-dasharray:none;stroke-opacity:1"
         id="path160"
         d="m 869.29787,925.18342 c 1.2868,0.79806 2.54328,1.65841 3.96044,2.21595 0.37616,0.14801 0.76503,0.26134 1.14755,0.39209 1.71341,0.52253 3.51102,0.665 5.19674,1.28112 0.69758,0.33998 1.35872,0.72374 2.09741,0.96874 1.33536,0.38654 2.69667,0.65729 4.0644,0.89782 0.83332,0.11256 1.65656,0.26844 2.46836,0.48676 0,0 2.91278,-0.38438 2.91278,-0.38438 v 0 c -0.8402,-0.2194 -1.68764,-0.39888 -2.55136,-0.50033 -1.33189,-0.23313 -2.66008,-0.4752 -3.95573,-0.87145 -0.0979,-0.0308 -0.59045,-0.18225 -0.70449,-0.22958 -0.49732,-0.20677 -0.94923,-0.51699 -1.44819,-0.72082 -1.74113,-0.64064 -3.5904,-0.78295 -5.37431,-1.2674 -0.37625,-0.12334 -0.75876,-0.22757 -1.12873,-0.36819 -1.34805,-0.51174 -2.55074,-1.30595 -3.68303,-2.18649 z" /><path
         style="fill:#841aff;fill-opacity:1;stroke:none;stroke-width:1.54185;stroke-linecap:round;stroke-linejoin:round;stroke-dasharray:none;stroke-opacity:1"
         id="path163"
         d="m 894.52362,930.7202 c 0.85454,-0.0154 1.7092,-0.0154 2.56378,-0.0154 0.94627,-0.0154 1.50448,-0.2211 2.27651,-0.72143 0.24497,-0.13414 0.5153,-0.39733 0.81086,-0.40504 1.08446,0.0493 2.41405,0.017 -2.67591,0.0154 1.14434,0.0154 2.46336,0.54304 3.31249,-0.23143 0.1917,0.0385 0.23624,0 0.37046,-0.1326 0,0 -3.04652,-0.30189 -3.04652,-0.30189 v 0 c -0.13476,0.0447 -0.28335,0.02 -0.38022,0.1639 -0.0421,0.0308 -0.18983,0.0725 -0.13784,0.0725 4.99465,-0.0401 3.93523,0.0154 2.91244,-0.0463 -0.92942,-9.2e-4 -2.32999,-0.29018 -3.38836,0.074 -0.26001,0.15264 -0.51584,0.31222 -0.75955,0.49046 -0.66619,0.41522 -1.39509,0.58313 -2.18299,0.56447 -0.8965,-3.1e-4 -1.79303,10e-4 -2.6895,-0.0154 z" /><path
         style="fill:#841aff;fill-opacity:1;stroke:none;stroke-width:1.54185;stroke-linecap:round;stroke-linejoin:round;stroke-dasharray:none;stroke-opacity:1"
         id="path164"
         d="m 871.28249,931.35883 c -1.62588,0.0216 -3.25229,-0.0154 -4.87786,0.0432 -0.32936,0.0154 -1.05771,0.18318 -1.37623,0.25179 -1.13882,0.27059 -2.22454,0.72282 -3.28494,1.21112 -0.68566,0.37467 -1.33605,0.79482 -2.06781,1.07636 -0.65273,0.22558 -1.31523,0.40273 -1.9999,0.49401 -0.48721,0.0308 -0.95358,0.1824 -1.41852,0.3187 -0.41644,0.27044 -0.88783,0.40443 -1.34335,0.58529 -0.49005,0.16205 -0.98284,0.31022 -1.49182,0.40011 -0.5146,0.0771 -1.03644,0.0786 -1.55566,0.0833 -1.03663,0 -2.68197,0 2.09892,10e-4 0.1013,0 -0.20263,-1.5e-4 -0.30395,-1.5e-4 -0.48696,-3.1e-4 -0.15978,1.5e-4 -0.64165,-7.7e-4 -0.71115,0.0463 -1.39887,-0.0493 -2.08591,-0.22295 -0.49254,-0.15264 -0.98855,-0.29203 -1.4736,-0.46764 -0.38232,-0.1434 -0.78821,-0.17716 -1.19225,-0.19736 -1.46437,-0.0308 -2.92934,-0.0154 -4.39402,-0.0154 -0.36001,-3.1e-4 -0.72003,9.3e-4 -1.08004,10e-4 -1.31515,0.002 2.31822,0 2.57771,0 0.0718,-10e-4 -0.14246,-0.0216 -0.21225,-0.0385 -0.21304,-0.0524 -0.42253,-0.13568 -0.62782,-0.21262 -0.28426,-0.13414 -0.56398,-0.27414 -0.86853,-0.35478 -0.20292,-0.037 -0.10253,-0.0231 -0.30123,-0.0416 0,0 -3.00555,0.45716 -3.00555,0.45716 v 0 c 0.19294,0 0.0971,0 0.28743,0 0.31461,0.037 0.60792,0.12797 0.88755,0.28123 1.30576,0.67765 2.78996,0.44375 4.25126,0.38577 0.35826,0 0.71653,1.6e-4 1.07478,0 1.03003,0 2.52013,0 -2.28467,0 -0.69732,0 1.42248,0 0.70994,0 0.39419,0 0.79335,0.0154 1.17738,0.11102 0.50853,0.15865 1.00846,0.3392 1.5238,0.47766 0.68048,0.20645 1.36735,0.35709 2.0837,0.30436 1.58962,0 3.17934,0.0154 4.76891,0 0.52319,-0.0154 1.04957,-0.0278 1.56306,-0.13876 0.50941,-0.11718 1.01223,-0.26582 1.50243,-0.44745 0.45973,-0.16421 0.89052,-0.38592 1.34455,-0.56154 0.45767,-0.1326 0.92426,-0.22819 1.39779,-0.28355 0.67584,-0.12643 1.33612,-0.32008 1.97782,-0.56709 0.71221,-0.3133 1.36164,-0.73284 2.05148,-1.09024 1.03237,-0.47612 2.08632,-0.92218 3.20484,-1.15299 0.22613,-0.0432 0.45073,-0.0941 0.6784,-0.12798 0.23594,-0.0355 0.94937,-0.0617 0.71134,-0.0756 -4.41078,-0.27198 -2.00702,0.0709 -0.98425,-0.0154 z" /></g></g></svg>
