<?xml version="1.0" encoding="UTF-8"?>
<svg width="75.699" height="54.708" version="1.1" viewBox="0 0 75.699 54.708" xml:space="preserve" xmlns="http://www.w3.org/2000/svg"><defs><filter id="b" x="-.24701" y="-.42171" width="1.494" height="1.8434" color-interpolation-filters="sRGB"><feGaussianBlur stdDeviation="8.0403032"/></filter><filter id="a" x="-.093978" y="-.16045" width="1.188" height="1.3209" color-interpolation-filters="sRGB"><feGaussianBlur stdDeviation="3.0590935"/></filter></defs><g transform="matrix(.64857 0 0 .64857 -524.04 -566.51)"><path d="m861.28 906.58c4.394-2.7992 12.45-3.9212 21.591 0.27631 9.1409 4.1975 12.989 10.288 14.369 15.737 2.4019-0.5179 5.1502-2.1037 5.3415-3.8226 2.1455-5.8688-5.5188-14.944-17.118-20.271-11.6-5.3265-23.383-3.1344-24.888 0.98196-0.8579 3.3135-0.13821 5.8681 0.70382 7.0978zm12.197 24.373c11.6 5.3265 25.278 5.3952 27.423-0.47357 0 0 4.2189-7.901 4.4885-12.238 0.16489-2.6518-0.59325-5.3969-1.7966-7.7656-1.7036-3.3534-4.5219-6.0903-7.3785-8.5371-2.6446-2.2653-5.7162-4.037-8.8593-5.536-2.3961-1.1428-4.9434-1.9961-7.5303-2.5925-2.773-0.63926-5.6285-1.0552-8.4742-1.0354-2.3539 0.0164-4.768 0.19613-6.9973 0.95385-1.8904 0.64245-3.914 1.4101-5.2321 2.9861-2.7368 3.2723-4.6282 12.323-4.6282 12.323-2.1455 5.8688 7.3848 16.588 18.984 21.915zm-12.901-31.47c1.5048-4.1164 13.288-6.3084 24.888-0.98196 11.6 5.3265 19.264 14.402 17.118 20.271-2.1456 5.8688-15.202 5.4295-26.802 0.10298s-17.35-13.523-15.204-19.392m-6.4338 0.1807c-0.53441-4e-3 -1.0682-3e-3 -1.6002 4e-3 -2.3906 0.0326-4.7672 0.50399-7.1076 1.0312-2.479 0.55849-4.9803 1.1735-7.3077 2.2514-2.227 1.0315-4.4218 2.2811-6.2609 3.985-1.5594 1.4448-3.2016 3.0677-3.9005 5.154-1.4512 4.332-0.1178 13.82-0.1178 13.82-1e-5 6.5559 12.669 12.624 25.43 12.624 12.761 0 25.67-5.9414 25.67-12.497 0 0 1.4044-9.3729 0.0134-13.677-0.81925-2.5359-2.7146-4.6125-4.6473-6.3031-2.6278-2.2986-5.8322-3.8667-9.0768-4.8962-3.5735-1.1339-7.354-1.4688-11.095-1.4958zm-0.74677 2.5626c12.761 0 23.105 5.3146 23.105 11.871 0 1.7636-0.908 3.436-2.4737 4.9407-4.0932 3.9337-12.725 6.6983-21.681 6.9032-8.5644-0.19805-15.917-2.7784-19.576-6.4942-1.5832-1.6079-2.4803-3.4246-2.4803-5.3496 0-4.5983 10.345-11.871 23.105-11.871zm0 0c-12.761 0-23.105 7.2722-23.105 11.871 0 1.9251 0.89714 3.7417 2.4803 5.3496 3.177-4.6058 10.573-9.2968 20.625-9.2968 10.052 0 17.455 4.2824 20.632 8.8879 1.5657-1.5046 2.4737-3.1771 2.4737-4.9407 0-6.5559-10.345-11.871-23.105-11.871z" fill="#fff" filter="url(#b)" style="mix-blend-mode:normal"/><path d="m861.28 906.58c4.394-2.7992 12.45-3.9212 21.591 0.27631 9.1409 4.1975 12.989 10.288 14.369 15.737 2.4019-0.5179 5.1502-2.1037 5.3415-3.8226 2.1455-5.8688-5.5188-14.944-17.118-20.271-11.6-5.3265-23.383-3.1344-24.888 0.98196-0.8579 3.3135-0.13821 5.8681 0.70382 7.0978zm12.197 24.373c11.6 5.3265 25.278 5.3952 27.423-0.47357 0 0 4.2189-7.901 4.4885-12.238 0.16489-2.6518-0.59325-5.3969-1.7966-7.7656-1.7036-3.3534-4.5219-6.0903-7.3785-8.5371-2.6446-2.2653-5.7162-4.037-8.8593-5.536-2.3961-1.1428-4.9434-1.9961-7.5303-2.5925-2.773-0.63926-5.6285-1.0552-8.4742-1.0354-2.3539 0.0164-4.768 0.19613-6.9973 0.95385-1.8904 0.64245-3.914 1.4101-5.2321 2.9861-2.7368 3.2723-4.6282 12.323-4.6282 12.323-2.1455 5.8688 7.3848 16.588 18.984 21.915zm-12.901-31.47c1.5048-4.1164 13.288-6.3084 24.888-0.98196 11.6 5.3265 19.264 14.402 17.118 20.271-2.1456 5.8688-15.202 5.4295-26.802 0.10298s-17.35-13.523-15.204-19.392m-6.4338 0.1807c-0.53441-4e-3 -1.0682-3e-3 -1.6002 4e-3 -2.3906 0.0326-4.7672 0.50399-7.1076 1.0312-2.479 0.55849-4.9803 1.1735-7.3077 2.2514-2.227 1.0315-4.4218 2.2811-6.2609 3.985-1.5594 1.4448-3.2016 3.0677-3.9005 5.154-1.4512 4.332-0.1178 13.82-0.1178 13.82-1e-5 6.5559 12.669 12.624 25.43 12.624 12.761 0 25.67-5.9414 25.67-12.497 0 0 1.4044-9.3729 0.0134-13.677-0.81925-2.5359-2.7146-4.6125-4.6473-6.3031-2.6278-2.2986-5.8322-3.8667-9.0768-4.8962-3.5735-1.1339-7.354-1.4688-11.095-1.4958zm-0.74677 2.5626c12.761 0 23.105 5.3146 23.105 11.871 0 1.7636-0.908 3.436-2.4737 4.9407-4.0932 3.9337-12.725 6.6983-21.681 6.9032-8.5644-0.19805-15.917-2.7784-19.576-6.4942-1.5832-1.6079-2.4803-3.4246-2.4803-5.3496 0-4.5983 10.345-11.871 23.105-11.871zm0 0c-12.761 0-23.105 7.2722-23.105 11.871 0 1.9251 0.89714 3.7417 2.4803 5.3496 3.177-4.6058 10.573-9.2968 20.625-9.2968 10.052 0 17.455 4.2824 20.632 8.8879 1.5657-1.5046 2.4737-3.1771 2.4737-4.9407 0-6.5559-10.345-11.871-23.105-11.871z" fill="#841aff" filter="url(#a)" style="mix-blend-mode:normal"/><g><path d="m853.39 902.23c-12.761 0-23.105 7.2722-23.105 11.871 0 1.9251 0.89714 3.7417 2.4803 5.3496 3.177-4.6058 10.573-9.2968 20.625-9.2968 10.052 0 17.455 4.2824 20.632 8.8879 1.5657-1.5046 2.4737-3.1771 2.4737-4.9407 0-6.5559-10.345-11.871-23.105-11.871z" fill="#bb9f59" stroke="#000" stroke-linejoin="round" stroke-width="1.5418"/><path d="m854.14 899.66c-0.53441-4e-3 -1.0682-3e-3 -1.6002 4e-3 -2.3906 0.0326-4.7672 0.50399-7.1076 1.0312-2.479 0.55849-4.9803 1.1735-7.3077 2.2514-2.227 1.0315-4.4218 2.2811-6.2609 3.985-1.5594 1.4448-3.2016 3.0677-3.9005 5.154-1.4512 4.332-0.1178 13.82-0.1178 13.82-1e-5 6.5559 12.669 12.624 25.43 12.624 12.761 0 25.67-5.9414 25.67-12.497 0 0 1.4044-9.3729 0.0134-13.677-0.81925-2.5359-2.7146-4.6125-4.6473-6.3031-2.6278-2.2986-5.8322-3.8667-9.0768-4.8962-3.5735-1.1339-7.354-1.4688-11.095-1.4958zm-0.74677 2.5626c12.761 0 23.105 5.3146 23.105 11.871 0 1.7636-0.908 3.436-2.4737 4.9407-4.0932 3.9337-12.725 6.6983-21.681 6.9032-8.5644-0.19805-15.917-2.7784-19.576-6.4942-1.5832-1.6079-2.4803-3.4246-2.4803-5.3496 0-4.5983 10.345-11.871 23.105-11.871z" fill="#c8a03b" stroke="#000" stroke-linejoin="round" stroke-width="1.5418"/><g><path d="m831.79 923.25c-0.11439 1.7809-0.19268 3.665 0.33707 5.3431 0.21331 0.67565 0.61883 1.285 1.0955 1.7487 1.3154 1.2794 4.6349 2.6229 4.6349 2.6229l2.4478 0.87439s-0.48617-1.4713-0.59388-2.2344c-0.19011-1.347-0.1732-2.7236-0.0843-4.0802 0.0365-0.55742 0.25282-1.6515 0.25282-1.6515s-1.9997-0.5714-2.9495-1.02c-1.029-0.48601-2.0133-1.1271-2.9495-1.7972-0.6544-0.46839-1.854-1.5464-1.854-1.5464s-0.29921 1.1509-0.33709 1.7407z" fill="#e9d693" fill-opacity=".81098" style="paint-order:markers fill stroke"/><path d="m876.74 922.38c0.4481 1.7574 0.83864 3.6299 0.0144 5.4824-0.33189 0.74591-1.0479 1.4844-1.9215 2.0981-2.4106 1.6936-8.7313 4.0698-8.7313 4.0698l-4.6756 1.6351s0.76508-1.631 0.87949-2.4324c0.20193-1.4146-4e-3 -2.7951-0.3495-4.1332-0.14168-0.54984-0.70243-1.5845-0.70243-1.5845s3.8376-1.1919 5.6381-1.9364c1.9506-0.80662 3.7942-1.7555 5.5401-2.7188 1.2204-0.6733 3.4298-2.1285 3.4298-2.1285s0.73004 1.0662 0.87845 1.6482z" fill="#645213" fill-opacity=".46342" style="paint-order:markers fill stroke"/></g><g transform="matrix(.63199 0 0 .63199 258.83 365.31)" stroke="#000" stroke-linejoin="round" stroke-width="2.4397"><path d="m972.54 895.01c18.354 8.428 39.997 8.5369 43.392-0.74933 0 0 6.6756-12.502 7.1022-19.364 0.2609-4.1959-0.9387-8.5394-2.8428-12.288-2.6956-5.306-7.155-9.6366-11.675-13.508-4.1846-3.5844-9.0447-6.3877-14.018-8.7597-3.7914-1.8083-7.822-3.1585-11.915-4.1021-4.3877-1.0115-8.906-1.6696-13.409-1.6383-3.7246 0.0259-7.5445 0.31033-11.072 1.5093-2.9911 1.0166-6.1931 2.2312-8.2787 4.7248-4.3305 5.1778-7.3232 19.498-7.3232 19.498-3.3948 9.2862 11.685 26.248 30.039 34.676zm-20.413-49.796c2.3811-6.5134 21.026-9.9818 39.38-1.5538 18.354 8.4281 30.481 22.788 27.086 32.075-3.3949 9.2862-24.055 8.591-42.409 0.16294-18.354-8.4281-27.452-21.398-24.057-30.684" fill="#c8a03b"/><path d="m953.24 856.44c6.9527-4.4292 19.7-6.2044 34.164 0.43721 14.464 6.6417 20.553 16.279 22.737 24.901 3.8005-0.81947 8.1492-3.3287 8.4518-6.0484 3.3948-9.2862-8.7323-23.646-27.086-32.075-18.354-8.4281-36.999-4.9596-39.38 1.5538-1.3575 5.2429-0.2187 9.285 1.1136 11.231z" fill="#bb9f59" stroke-linecap="round"/></g><g><path d="m856.82 910.62c-0.2098 0.74078-0.51506 1.5128-0.40232 2.2744 0.12575 0.84953 0.70923 1.57 1.1645 2.2982 0.7599 1.2155 2.5973 3.4275 2.5973 3.4275l1.8512 1.6152s0.36352-1.6803 0.69266-2.4693c0.30551-0.73232 0.78054-1.3818 1.1766-2.0694 0.30251-0.52525 0.91629-1.5707 0.91629-1.5707s-1.3905-1.2461-2.0345-1.9207c-0.8626-0.90359-1.7631-1.7938-2.4435-2.8415-0.6262-0.96429-1.4744-3.1183-1.4744-3.1183s-0.74908 1.2356-1.059 1.8868c-0.38326 0.80532-0.74172 1.6297-0.98475 2.4878z" fill="#e9d693" fill-opacity=".90549" style="paint-order:markers fill stroke"/><path d="m901.34 928c-0.35219 0.70915-0.36887 1.6203-0.91784 2.1909-1.1738 1.22-2.9562 1.7589-4.6053 2.1418-3.078 0.71454-6.3278 0.45178-9.4775 0.19809-1.8957-0.15269-5.6117-1.0307-5.6117-1.0307s0.72774-1.6228 0.9583-2.4778c0.26216-0.97216 0.3818-1.9805 0.47458-2.9832 0.057-0.61537 0.0497-1.8534 0.0497-1.8534s3.8467 0.97262 5.8063 1.2585c2.07 0.30203 4.1807 0.73014 6.2574 0.47846 1.1961-0.14496 4.065-0.62691 5.4828-1.1549s4.5115-3.6528 4.5115-3.6528-0.65922 2.6619-1.2058 3.9124c-0.45868 1.0494-1.2132 1.9469-1.7226 2.9726z" fill="#997c28" style="paint-order:markers fill stroke"/></g><path d="m827.95 923.12c0.80088 0.65051 1.3766 1.5304 1.9876 2.3496 0.70178 0.94084 0.59176 0.79035 1.2852 1.6805 0.81408 0.86575 1.9133 1.8565 3.1264 2.1051 0.24725 0.0509 0.50153 0.0571 0.75228 0.0863 2.2796 0.0278 0.58316 0.0154 4.9063-0.02 0.45632 0 0.91805-0.0802 1.369-0.0154 0.37068 0.0571-1.464-0.11101-1.1244 0.0478 0.43653 0.20475 0.96265 0.0586 1.4429 0.10176 0.42929 0.0385 0.85672 0.0956 1.2851 0.14339 1.1557 0.16082 2.3054 0.39487 3.3724 0.88086 0.50688 0.23081 0.85204 0.4402 1.3336 0.71326 0.86879 0.45577 1.7208 1.0535 2.7031 1.2452 0.17537 0.0339 0.35569 0.0339 0.53354 0.0524 1.1701-0.0833 2.3488-0.0848 3.5103-0.24793 0.0424 0 1.3563-0.71712 1.3951-0.73608 0.84959-0.41522 1.7215-0.69167 2.6281-0.94901-0.6496-0.12489 2.2808-0.16313 1.7088-0.1565-0.67263 0-1.3475-0.0185-2.0176 0.0401-0.25091 0.0216 0.50224 0.0401 0.75236 0.0694 0.52254 0.0617 0.85972 0.12951 1.3707 0.22048 1.8589 0.3702 3.8729 0.59454 5.6726-0.11256 0.62739-0.34383 1.2942-0.58559 1.9911-0.73777 0.26159-0.0478 0.14231 0 0.36069-0.11255l-3.0149-0.36727c-0.20012 0.0509-0.0914 0.0231-0.32612 0.0833-0.67418 0.1935-1.3087 0.48059-1.945 0.77323-1.2504 0.40536-2.0106 0.16745 1.6552 0.25425 0.15388 0-0.30832 0.02-0.46178 0.0154-0.0643 0-1.0631-0.18671-1.0743-0.18872-2.4511-0.4365-5.0004-0.64295-7.4544-0.1326-0.799 0.24469-1.0181 0.29187-1.7982 0.61242-0.87808 0.36095-0.80395 0.37868-1.6352 0.7717-0.22107 0.10484-0.90497 0.22958-0.67025 0.29819 0.71993 0.21062 1.4963 0.10793 2.2444 0.1622-0.17514 0-0.35122 0.0339-0.52543 0.0154-0.94969-0.10176-1.9218-0.75103-2.757-1.1653-0.67325-0.38546-1.345-0.79312-2.0748-1.0663-0.90343-0.33812-1.8648-0.47658-2.8131-0.61874-0.84982-0.0941-1.9362-0.2302-2.785-0.2561-1.3726-0.0416-2.7461-0.0478-4.1192-0.0601-0.47285 0-1.8795-0.10022-1.4186 0 0.48882 0.11255 1.0032 2e-3 1.5046 0.0154 0.2961 0-0.59238 9.3e-4 -0.88855 1e-3 -0.23133-0.0154-0.46456 0-0.69396-0.0355-1.2795-0.17824-2.3643-1.0378-3.2435-1.9191-1.0888-1.3172-2.0264-2.7352-3.0193-4.1237z" fill="#841aff"/><path d="m856.67 907.34c0.52071 2.1286 1.0072 4.2653 1.5498 6.3887 0.31956 0.90445 0.6161 2.395 1.4692 2.9943 0.12027 0.0848 0.26098 0.13569 0.39146 0.20322 0.65036 0.18286 1.3127 0.282 1.9035 0.63293 0.44496 0.26442 0.59856 0.43387 0.98979 0.77909 0.69127 0.69676 1.2741 1.4938 2.1485 1.9791 0.61203 0.33967 0.88153 0.38022 1.5558 0.5839 1.3066 0.31716 2.6791 0.30328 3.9706 0.69445 0.76306 0.23112 1.0284 0.41861 1.7163 0.79127 0.84006 0.46394 1.4363 1.2768 2.3388 1.6334 0.53055 0.20969 1.2744 0.34105 1.8167 0.457 1.1837 0.22095 2.3715 0.41985 3.5592 0.61797 0.5825 0.0971 1.5892 0.28031 2.1958 0.29419 1.2326 0.0277 2.4658 1e-3 3.6988 2e-3 1.0163-0.0833 0.68984-0.0493 1.6661-0.15773 0.24098-0.0262 0.96504-0.0756 0.72266-0.0833-4.5451-0.11872-2.2618-0.0663-1.564 0.18286 0.20146 0.0725 0.38292 0.19119 0.57437 0.28679 0.96677 0.64495 1.6417 1.6216 2.5277 2.3593 0.14756 0.12335 0.31158 0.2248 0.46737 0.3372 0.15631 0.074 0.30456 0.16837 0.46893 0.22234 0.16148 0.0524 0.33084 0.0941 0.50078 0.0956 1.1426 0.0154 2.2859-7.7e-4 3.4278-0.0432 0.1816 0 0.35696-0.0678 0.53522-0.1033 1.8917-0.37359-0.76446 0.14647 1.0222-0.20291 1.0602-0.10176 1.4383-0.59777 2.1048-1.3434 0.45695-0.62044 0.97728-1.1564 1.679-1.4833 0.23633-0.14802 0.13105-0.0632 0.31842-0.2524l-3.0212-0.25826c-0.17591 0.12643-0.08 0.0632-0.28971 0.18826-0.65398 0.4089-1.1368 0.9928-1.619 1.5875-0.68791 0.72975-1.0644 1.0235-2.0805 1.1593-0.25794 0.0524-0.75508 0.15434-1.0075 0.1969-0.17785 0.0293-0.71515 0.0663-0.53523 0.0786 0.78807 0.0555 1.5796 0.0355 2.3694 0.0493 0.16459 0-0.3317 0.0154-0.49361-0.0154-0.1661-0.0308-0.31976-0.10793-0.47965-0.16313-0.16093-0.0971-0.3317-0.17901-0.48277-0.29048-0.94457-0.69784-1.6056-1.7161-2.5413-2.4244-0.19261-0.11873-0.3721-0.26289-0.57783-0.35771-0.19974-0.0925-0.40961-0.18687-0.62924-0.19859-1.1699-0.0632-2.3432-0.0401-3.5147-0.0231-0.76132 0.0154-1.5484 0.25687-2.3165 0.22172 0.60157 0.0154 1.2051 0.074 1.8047 0.0247 0.35928-0.0293-0.72013-0.0432-1.0781-0.0848-1.561-0.18518-3.1006-0.5432-4.6506-0.79698-0.32563-0.0694-1.3547-0.27877-1.7154-0.40104-0.93464-0.31685-1.5765-1.118-2.4124-1.6097-0.64462-0.36526-1.0374-0.62799-1.7511-0.86482-1.265-0.41969-2.6227-0.41152-3.9169-0.68813-0.64516-0.17191-0.92425-0.21015-1.5178-0.50588-0.88065-0.43865-1.4819-1.2053-2.1177-1.9293-0.84517-0.82057-1.6216-1.4083-2.8318-1.5198-0.31773-0.10331-0.46166-0.11256-0.71743-0.34491-0.72606-0.65776-0.99917-1.7133-1.3537-2.5792-0.5957-2.0869-1.1252-4.2092-1.268-6.3825z" fill="#841aff"/><path d="m838.08 933.85c0.16152 0.0524 0.32533 0.10022 0.48457 0.15928 0.74587 0.27907 1.4667 0.60579 2.2329 0.83198 0.67343 0.19874 1.0352 0.26057 1.7165 0.40319 1.8577 0.19505 3.7451 0.11101 5.6051 0.091 0.29431 0 1.1767-0.0293 0.88243-0.0308-2.9637-0.0185-2.4479 0-1.3553 0.0632 0.17346 0.0231 0.34752 0.0416 0.52037 0.0678 0.37518 0.0586 0.76886 0.20275 1.1507 0.20784 3.0125 0.0416 2.3232 0.0848 3.8769-0.0478 0.19757-0.0154 0.39508-0.0324 0.59271-0.0463 0.2053-0.0154 0.4104-0.0355 0.61611-0.0432h0.60662c-3.118 0.0154-2.9084-0.0154-1.7758 0.0231 0.16067 0 0.3213 0.0154 0.48195 0.017 2.0612 0.36526 4.0242-0.23097 6.056-0.26058-4.4623-0.0925-1.9461-0.0154-0.92799 0.13877 0 0 2.9466-0.42154 2.9466-0.42154-1.6213-0.24654-3.2213-0.27183-4.8802-0.16143-1.1963 0.0493-5.5574 0.4792-0.29044 0.2561-2.1051-0.074-4.2167-0.11564-6.3172 0.0632-1.283 0.0663-1.179 0.0509 1.9523 0.0509 0.12566 0-0.25197 0-0.37658-0.0216-0.46286-0.0632-0.91217-0.23205-1.3829-0.25148-1.8083-0.12026-0.87591-0.0725-4.2848-0.0632-0.28748 6.1e-4 -1.1491 0.0154-0.86192 0.0293 0.60864 0.0293 1.2186 0.0154 1.8279 0.017 0.62104 0-2.4355-1e-3 -1.8623-0.0617-1.4708-0.27985-2.9183-0.65621-4.2336-1.3974z" fill="#841aff"/><path d="m869.3 925.18c1.2868 0.79806 2.5433 1.6584 3.9604 2.216 0.37616 0.14801 0.76503 0.26134 1.1476 0.39209 1.7134 0.52253 3.511 0.665 5.1967 1.2811 0.69758 0.33998 1.3587 0.72374 2.0974 0.96874 1.3354 0.38654 2.6967 0.65729 4.0644 0.89782 0.83332 0.11256 1.6566 0.26844 2.4684 0.48676 0 0 2.9128-0.38438 2.9128-0.38438-0.8402-0.2194-1.6876-0.39888-2.5514-0.50033-1.3319-0.23313-2.6601-0.4752-3.9557-0.87145-0.0979-0.0308-0.59045-0.18225-0.70449-0.22958-0.49732-0.20677-0.94923-0.51699-1.4482-0.72082-1.7411-0.64064-3.5904-0.78295-5.3743-1.2674-0.37625-0.12334-0.75876-0.22757-1.1287-0.36819-1.348-0.51174-2.5507-1.306-3.683-2.1865z" fill="#841aff"/><path d="m894.52 930.72c0.85454-0.0154 1.7092-0.0154 2.5638-0.0154 0.94627-0.0154 1.5045-0.2211 2.2765-0.72143 0.24497-0.13414 0.5153-0.39733 0.81086-0.40504 1.0845 0.0493 2.414 0.017-2.6759 0.0154 1.1443 0.0154 2.4634 0.54304 3.3125-0.23143 0.1917 0.0385 0.23624 0 0.37046-0.1326l-3.0465-0.30189c-0.13476 0.0447-0.28335 0.02-0.38022 0.1639-0.0421 0.0308-0.18983 0.0725-0.13784 0.0725 4.9946-0.0401 3.9352 0.0154 2.9124-0.0463-0.92942-9.2e-4 -2.33-0.29018-3.3884 0.074-0.26001 0.15264-0.51584 0.31222-0.75955 0.49046-0.66619 0.41522-1.3951 0.58313-2.183 0.56447-0.8965-3.1e-4 -1.793 1e-3 -2.6895-0.0154z" fill="#841aff"/><path d="m871.28 931.36c-1.6259 0.0216-3.2523-0.0154-4.8779 0.0432-0.32936 0.0154-1.0577 0.18318-1.3762 0.25179-1.1388 0.27059-2.2245 0.72282-3.2849 1.2111-0.68566 0.37467-1.336 0.79482-2.0678 1.0764-0.65273 0.22558-1.3152 0.40273-1.9999 0.49401-0.48721 0.0308-0.95358 0.1824-1.4185 0.3187-0.41644 0.27044-0.88783 0.40443-1.3434 0.58529-0.49005 0.16205-0.98284 0.31022-1.4918 0.40011-0.5146 0.0771-1.0364 0.0786-1.5557 0.0833-1.0366 0-2.682 0 2.0989 1e-3 0.1013 0-0.20263-1.5e-4 -0.30395-1.5e-4 -0.48696-3.1e-4 -0.15978 1.5e-4 -0.64165-7.7e-4 -0.71115 0.0463-1.3989-0.0493-2.0859-0.22295-0.49254-0.15264-0.98855-0.29203-1.4736-0.46764-0.38232-0.1434-0.78821-0.17716-1.1922-0.19736-1.4644-0.0308-2.9293-0.0154-4.394-0.0154-0.36001-3.1e-4 -0.72003 9.3e-4 -1.08 1e-3 -1.3152 2e-3 2.3182 0 2.5777 0 0.0718-1e-3 -0.14246-0.0216-0.21225-0.0385-0.21304-0.0524-0.42253-0.13568-0.62782-0.21262-0.28426-0.13414-0.56398-0.27414-0.86853-0.35478-0.20292-0.037-0.10253-0.0231-0.30123-0.0416 0 0-3.0056 0.45716-3.0056 0.45716h0.28743c0.31461 0.037 0.60792 0.12797 0.88755 0.28123 1.3058 0.67765 2.79 0.44375 4.2513 0.38577 0.35826 0 0.71653 1.6e-4 1.0748 0h-2.2847 0.70994c0.39419 0 0.79335 0.0154 1.1774 0.11102 0.50853 0.15865 1.0085 0.3392 1.5238 0.47766 0.68048 0.20645 1.3674 0.35709 2.0837 0.30436 1.5896 0 3.1793 0.0154 4.7689 0 0.52319-0.0154 1.0496-0.0278 1.5631-0.13876 0.50941-0.11718 1.0122-0.26582 1.5024-0.44745 0.45973-0.16421 0.89052-0.38592 1.3446-0.56154 0.45767-0.1326 0.92426-0.22819 1.3978-0.28355 0.67584-0.12643 1.3361-0.32008 1.9778-0.56709 0.71221-0.3133 1.3616-0.73284 2.0515-1.0902 1.0324-0.47612 2.0863-0.92218 3.2048-1.153 0.22613-0.0432 0.45073-0.0941 0.6784-0.12798 0.23594-0.0355 0.94937-0.0617 0.71134-0.0756-4.4108-0.27198-2.007 0.0709-0.98425-0.0154z" fill="#841aff"/></g></g></svg>
