<?xml version="1.0" encoding="UTF-8"?>
<!DOCTYPE svg PUBLIC "-//W3C//DTD SVG 1.1//EN" "http://www.w3.org/Graphics/SVG/1.1/DTD/svg11.dtd">
<!-- Creator: CorelDRAW 2017 -->
<svg xmlns="http://www.w3.org/2000/svg" xml:space="preserve" width="2.91639in" height="2.9144in" version="1.1" style="shape-rendering:geometricPrecision; text-rendering:geometricPrecision; image-rendering:optimizeQuality; fill-rule:evenodd; clip-rule:evenodd"
viewBox="0 0 267.86 267.68"
 xmlns:xlink="http://www.w3.org/1999/xlink">
 <defs>
  <style type="text/css">
   <![CDATA[
    .str0 {stroke:red;stroke-width:0.28;stroke-miterlimit:2.61313}
    .fil0 {fill:none}
    .fil1 {fill:black}
    .fil2 {fill:white}
   ]]>
  </style>
 </defs>
 <g id="Layer_x0020_1">
  <metadata id="CorelCorpID_0Corel-Layer"/>
  <path class="fil0 str0" d="M133.93 0.14c-73.84,0 -133.79,59.91 -133.79,133.7 0,73.79 59.95,133.7 133.79,133.7 73.84,0 133.79,-59.91 133.79,-133.7 0,-73.79 -59.95,-133.7 -133.79,-133.7z"/>
  <path class="fil0 str0" d="M133.93 119.1c-8.14,0 -14.74,6.6 -14.74,14.73 0,8.13 6.61,14.73 14.74,14.73 8.14,0 14.74,-6.6 14.74,-14.73 0,-8.13 -6.61,-14.73 -14.74,-14.73z"/>
  <path class="fil1" d="M133.93 97.68c19.97,0 36.18,16.2 36.18,36.16 0,19.96 -16.21,36.16 -36.18,36.16 -19.97,0 -36.18,-16.2 -36.18,-36.16 0,-19.96 16.21,-36.16 36.18,-36.16zm0 1.28c-19.27,0 -34.91,15.63 -34.91,34.88 0,19.25 15.64,34.88 34.91,34.88 19.27,0 34.91,-15.63 34.91,-34.88 0,-19.25 -15.64,-34.88 -34.91,-34.88zm-0.64 56.57c-11.69,-0.34 -21.07,-9.93 -21.07,-21.69 0,-11.76 9.38,-21.35 21.07,-21.69l0 -0.01 1.28 0 0 0.01c11.69,0.34 21.07,9.93 21.07,21.69 0,11.76 -9.38,21.35 -21.07,21.69l0 0.01 -1.28 0 0 -0.01zm0 -42.1c-10.98,0.34 -19.8,9.35 -19.8,20.41 0,11.06 8.81,20.07 19.8,20.41l0 -5.7 1.28 0 0 5.7c10.98,-0.34 19.8,-9.35 19.8,-20.41 0,-11.06 -8.81,-20.07 -19.8,-20.41l0 5.84 -1.28 0 0 -5.84zm0 -113.38l1.28 0 0 3.62 -1.28 0 0 -3.62zm0 263.97l1.28 0 0 3.62 -1.28 0 0 -3.62zm92.04 -131.03l0 1.91 -12.77 0 0 -1.91 12.77 0zm-2.27 -5.06l0.05 0.64 -10.04 0.73 -0.05 -0.64 10.04 -0.73zm0.13 2.85l0.02 0.64 -10.05 0.36 -0.02 -0.64 10.05 -0.36zm-0.08 8.55l-0.05 0.64 -10.04 -0.73 0.05 -0.64 10.04 0.73zm0.11 -2.85l-0.02 0.64 -10.05 -0.36 0.02 -0.64 10.05 0.36zm0.84 -17.77l0.3 1.89 -12.61 2 -0.3 -1.89 12.61 -2zm-3.03 -4.64l0.15 0.62 -9.81 2.29 -0.15 -0.62 9.81 -2.29zm0.57 2.79l0.12 0.63 -9.86 1.93 -0.12 -0.63 9.86 -1.93zm1.26 8.46l0.05 0.64 -10.03 0.85 -0.05 -0.64 10.03 -0.85zm-0.34 -2.83l0.08 0.63 -9.98 1.21 -0.08 -0.63 9.98 -1.21zm-1.95 -17.68l0.59 1.82 -12.15 3.94 -0.59 -1.82 12.15 -3.94zm-3.72 -4.11l0.24 0.59 -9.33 3.79 -0.24 -0.59 9.33 -3.79zm1 2.67l0.22 0.6 -9.44 3.45 -0.22 -0.6 9.44 -3.45zm2.56 8.16l0.15 0.62 -9.78 2.41 -0.15 -0.62 9.78 -2.41zm-0.78 -2.74l0.18 0.61 -9.67 2.76 -0.18 -0.61 9.67 -2.76zm-4.7 -17.16l0.87 1.7 -11.38 5.79 -0.87 -1.7 11.38 -5.79zm-4.32 -3.48l0.33 0.55 -8.62 5.2 -0.33 -0.55 8.62 -5.21zm1.41 2.48l0.31 0.56 -8.79 4.88 -0.31 -0.56 8.79 -4.88zm3.81 7.66l0.25 0.59 -9.28 3.91 -0.25 -0.59 9.28 -3.91zm-1.2 -2.59l0.27 0.58 -9.12 4.23 -0.27 -0.58 9.12 -4.23zm-16.76 -27.02l1.35 1.35 -9.03 9.02 -1.35 -1.35 9.03 -9.02zm-5.18 -1.98l0.48 0.42 -6.59 7.61 -0.48 -0.42 6.59 -7.61zm2.11 1.92l0.47 0.43 -6.85 7.36 -0.47 -0.43 6.85 -7.36zm5.99 6.11l0.42 0.48 -7.62 6.58 -0.42 -0.48 7.62 -6.58zm-1.94 -2.09l0.43 0.47 -7.36 6.84 -0.43 -0.47 7.36 -6.84zm-11.98 -13.16l1.55 1.12 -7.51 10.32 -1.55 -1.12 7.51 -10.32zm-5.43 -1.14l0.54 0.34 -5.32 8.55 -0.54 -0.34 5.32 -8.55zm2.38 1.57l0.53 0.36 -5.61 8.34 -0.53 -0.36 5.61 -8.34zm6.87 5.09l0.49 0.41 -6.49 7.69 -0.49 -0.41 6.49 -7.69zm-2.24 -1.76l0.5 0.39 -6.2 7.91 -0.5 -0.39 6.2 -7.91zm-13.89 -11.12l1.71 0.87 -5.8 11.37 -1.71 -0.87 5.8 -11.37zm-5.54 -0.28l0.59 0.25 -3.91 9.27 -0.59 -0.25 3.91 -9.27zm2.6 1.18l0.58 0.27 -4.24 9.11 -0.58 -0.27 4.24 -9.11zm7.59 3.96l0.55 0.33 -5.21 8.61 -0.55 -0.33 5.21 -8.61zm-2.49 -1.39l0.56 0.31 -4.88 8.78 -0.56 -0.31 4.89 -8.78zm-29.45 -12.01l1.89 0.3 -2 12.6 -1.89 -0.3 2 -12.6zm-5.36 1.45l0.64 0.05 -0.85 10.03 -0.64 -0.05 0.85 -10.03zm2.83 0.32l0.63 0.08 -1.21 9.97 -0.63 -0.08 1.21 -9.97zm8.44 1.42l0.62 0.15 -2.29 9.8 -0.62 -0.15 2.29 -9.8zm-2.8 -0.55l0.63 0.12 -1.93 9.86 -0.63 -0.12 1.93 -9.86zm-89.19 36.14l1.13 -1.55 8.53 6.19 -1.13 1.55 -8.53 -6.19zm-2.95 4.11l0.34 -0.54 8.55 5.31 -0.34 0.54 -8.55 -5.31zm1.57 -2.38l0.36 -0.53 8.34 5.61 -0.36 0.53 -8.34 -5.61zm5.1 -6.87l0.41 -0.49 7.7 6.49 -0.41 0.49 -7.7 -6.49zm-1.76 2.24l0.39 -0.5 7.91 6.19 -0.39 0.5 -7.91 -6.2zm142.35 1.34l1.13 1.55 -8.53 6.19 -1.13 -1.55 8.53 -6.19zm-3.01 -4.07l0.41 0.49 -7.7 6.49 -0.41 -0.49 7.7 -6.49zm1.78 2.23l0.39 0.5 -7.91 6.2 -0.39 -0.5 7.91 -6.19zm4.96 6.97l0.34 0.54 -8.55 5.31 -0.34 -0.54 8.55 -5.31zm-1.59 -2.37l0.36 0.53 -8.34 5.61 -0.36 -0.53 8.34 -5.61zm-47.09 -34.65l1.82 0.59 -3.26 10.02 -1.82 -0.59 3.26 -10.02zm-4.83 -1.53l0.62 0.15 -2.41 9.77 -0.62 -0.15 2.41 -9.77zm2.75 0.76l0.61 0.18 -2.76 9.66 -0.61 -0.18 2.76 -9.66zm8.11 2.72l0.59 0.24 -3.8 9.32 -0.59 -0.24 3.8 -9.32zm-2.68 -0.98l0.6 0.22 -3.45 9.44 -0.6 -0.22 3.45 -9.44zm-58.48 -0.37l1.82 -0.59 3.26 10.02 -1.82 0.59 -3.26 -10.02zm-4.81 1.6l0.59 -0.24 3.8 9.32 -0.59 0.24 -3.8 -9.32zm2.67 -1l0.6 -0.22 3.45 9.44 -0.6 0.22 -3.45 -9.44zm8.16 -2.56l0.62 -0.15 2.41 9.77 -0.62 0.15 -2.41 -9.77zm-2.74 0.78l0.61 -0.18 2.76 9.66 -0.61 0.18 -2.76 -9.66zm9.94 -4.42l1.89 -0.3 2 12.6 -1.89 0.3 -2 -12.6zm-4.65 3.03l0.62 -0.15 2.29 9.8 -0.62 0.15 -2.29 -9.8zm2.79 -0.57l0.63 -0.12 1.93 9.86 -0.63 0.12 -1.93 -9.86zm8.47 -1.26l0.64 -0.05 0.85 10.03 -0.64 0.05 -0.85 -10.03zm-2.83 0.34l0.63 -0.08 1.21 9.97 -0.63 0.08 -1.21 -9.97zm-30.89 7.58l1.71 -0.87 5.8 11.37 -1.71 0.87 -5.8 -11.37zm-3.48 4.32l0.55 -0.33 5.21 8.61 -0.55 0.33 -5.21 -8.61zm2.48 -1.41l0.56 -0.31 4.89 8.78 -0.56 0.31 -4.89 -8.78zm7.66 -3.81l0.59 -0.25 3.91 9.27 -0.59 0.25 -3.91 -9.27zm-2.59 1.2l0.58 -0.27 4.24 9.11 -0.58 0.27 -4.24 -9.11zm-16.22 7.32l1.55 -1.12 7.51 10.32 -1.55 1.12 -7.51 -10.32zm-2.76 4.81l0.49 -0.41 6.49 7.69 -0.49 0.41 -6.49 -7.69zm2.23 -1.78l0.5 -0.39 6.2 7.91 -0.5 0.39 -6.2 -7.91zm6.97 -4.96l0.54 -0.34 5.32 8.55 -0.54 0.34 -5.32 -8.55zm-2.37 1.59l0.53 -0.36 5.61 8.34 -0.53 0.36 -5.61 -8.34zm-14.88 9.77l1.35 -1.35 9.03 9.02 -1.35 1.35 -9.03 -9.02zm-1.98 5.18l0.42 -0.48 7.62 6.58 -0.42 0.48 -7.62 -6.58zm1.92 -2.11l0.43 -0.47 7.36 6.84 -0.43 0.47 -7.36 -6.84zm6.11 -5.99l0.48 -0.42 6.59 7.61 -0.48 0.42 -6.59 -7.61zm-2.09 1.94l0.47 -0.43 6.85 7.36 -0.47 0.43 -6.85 -7.36zm60.4 -26.46l1.92 0 0 12.76 -1.92 0 0 -12.76zm-5.06 2.27l0.64 -0.05 0.73 10.04 -0.64 0.05 -0.73 -10.04zm2.85 -0.13l0.64 -0.02 0.36 10.04 -0.64 0.02 -0.36 -10.04zm8.56 0.08l0.64 0.05 -0.73 10.04 -0.64 -0.05 0.73 -10.04zm-2.85 -0.11l0.64 0.02 -0.36 10.04 -0.64 -0.02 0.36 -10.04zm-84.42 48.62l0.87 -1.7 11.38 5.79 -0.87 1.7 -11.38 -5.79zm-0.28 5.54l0.25 -0.59 9.28 3.91 -0.25 0.59 -9.28 -3.91zm1.18 -2.6l0.27 -0.58 9.12 4.23 -0.27 0.58 -9.12 -4.23zm3.96 -7.58l0.33 -0.55 8.62 5.21 -0.33 0.55 -8.62 -5.2zm-1.39 2.49l0.31 -0.56 8.79 4.88 -0.31 0.56 -8.79 -4.88zm-8.82 15.45l0.59 -1.82 12.15 3.94 -0.59 1.82 -12.15 -3.94zm0.59 5.51l0.15 -0.62 9.78 2.41 -0.15 0.62 -9.78 -2.41zm0.76 -2.75l0.18 -0.61 9.67 2.76 -0.18 0.61 -9.67 -2.76zm2.72 -8.11l0.24 -0.59 9.33 3.79 -0.24 0.59 -9.33 -3.79zm-0.98 2.68l0.22 -0.6 9.44 3.45 -0.22 0.6 -9.44 -3.45zm-7.27 30.94l0 -1.91 12.77 0 0 1.91 -12.77 0zm2.27 5.06l-0.05 -0.64 10.04 -0.73 0.05 0.64 -10.04 0.73zm-0.13 -2.85l-0.02 -0.64 10.05 -0.36 0.02 0.64 -10.05 0.36zm0.08 -8.55l0.05 -0.64 10.04 0.73 -0.05 0.64 -10.04 -0.73zm-0.11 2.85l0.02 -0.64 10.05 0.36 -0.02 0.64 -10.05 -0.36zm-1.14 -10.81l0.3 -1.89 12.61 2 -0.3 1.89 -12.61 -2zm1.45 5.35l0.05 -0.64 10.03 0.85 -0.05 0.64 -10.03 -0.85zm0.32 -2.83l0.08 -0.63 9.98 1.21 -0.08 0.63 -9.98 -1.21zm1.42 -8.43l0.15 -0.62 9.81 2.29 -0.15 0.62 -9.81 -2.29zm-0.55 2.8l0.12 -0.63 9.87 1.93 -0.12 0.63 -9.87 -1.93zm189.3 11.22l-7.35 0 -0.2 -1.43 5.15 0 -0.88 -1.43 1.23 -0.48 2.05 3.35zm-3.77 7.97c-1.02,0 -1.9,-0.27 -2.65,-0.81 -0.75,-0.54 -1.12,-1.22 -1.12,-2.03 0,-0.81 0.37,-1.48 1.12,-2.02 0.75,-0.54 1.63,-0.81 2.65,-0.81 1.02,0 1.9,0.27 2.65,0.81 0.75,0.54 1.12,1.22 1.12,2.02 0,0.81 -0.37,1.48 -1.12,2.03 -0.75,0.54 -1.63,0.81 -2.65,0.81zm2.42 -2.84c0,-0.34 -0.23,-0.66 -0.69,-0.94 -0.46,-0.29 -1.03,-0.43 -1.73,-0.43 -0.7,0 -1.28,0.14 -1.74,0.43 -0.46,0.29 -0.69,0.6 -0.69,0.94 0,0.35 0.23,0.66 0.69,0.95 0.46,0.29 1.04,0.43 1.74,0.43 0.7,0 1.28,-0.14 1.73,-0.43 0.46,-0.29 0.69,-0.6 0.69,-0.95zm1.32 6.36c0,0.59 -0.19,1.11 -0.57,1.53 -0.38,0.43 -0.85,0.64 -1.42,0.64 -0.71,0 -1.22,-0.32 -1.54,-0.97 -0.41,0.77 -0.98,1.16 -1.7,1.16 -0.68,0 -1.22,-0.24 -1.63,-0.71 -0.41,-0.47 -0.61,-1.02 -0.61,-1.63 0,-0.69 0.21,-1.26 0.62,-1.71 0.41,-0.45 0.97,-0.67 1.69,-0.67 0.68,0 1.22,0.39 1.6,1.17 0.34,-0.67 0.86,-1.01 1.56,-1.01 0.58,0 1.06,0.23 1.44,0.69 0.38,0.46 0.57,0.96 0.57,1.52zm-1.35 0c0,-0.22 -0.08,-0.41 -0.24,-0.57 -0.16,-0.16 -0.34,-0.24 -0.56,-0.24 -0.22,0 -0.4,0.08 -0.55,0.23 -0.15,0.16 -0.23,0.35 -0.23,0.57 0,0.23 0.08,0.42 0.23,0.57 0.15,0.16 0.33,0.23 0.55,0.23 0.21,0 0.4,-0.08 0.56,-0.24 0.16,-0.16 0.24,-0.35 0.24,-0.57zm-2.91 0c0,-0.27 -0.09,-0.49 -0.26,-0.68 -0.17,-0.18 -0.38,-0.28 -0.63,-0.28 -0.27,0 -0.49,0.09 -0.67,0.28 -0.17,0.18 -0.26,0.41 -0.26,0.68 0,0.27 0.09,0.5 0.26,0.68 0.18,0.18 0.4,0.27 0.67,0.27 0.24,0 0.45,-0.09 0.63,-0.27 0.17,-0.18 0.26,-0.41 0.26,-0.68zm-103.17 99.23l3.78 0 0.46 1.43 -2.65 0 0 1.4 1.92 0 0 1.43 -1.92 0 0 2.88 -1.6 0.28 0 -7.43zm8.3 7.34l-1.77 -3.2 -0.75 3.2 -1.53 -0.2 1.7 -7.34 2.36 4.27 2.36 -4.27 1.7 7.34 -1.53 0.2 -0.75 -3.2 -1.77 3.2zm92.79 -149.04l-6.99 2.27 -0.63 -1.3 4.9 -1.59 -1.28 -1.09 1.02 -0.84 2.99 2.55zm-1.13 8.74c-0.97,0.31 -1.9,0.33 -2.77,0.04 -0.88,-0.29 -1.44,-0.81 -1.69,-1.58 -0.25,-0.77 -0.1,-1.52 0.44,-2.27 0.54,-0.75 1.3,-1.28 2.27,-1.59 0.97,-0.32 1.9,-0.33 2.77,-0.05 0.88,0.28 1.44,0.81 1.69,1.58 0.25,0.77 0.1,1.53 -0.44,2.27 -0.54,0.75 -1.3,1.28 -2.27,1.59zm1.42 -3.45c-0.11,-0.33 -0.42,-0.55 -0.94,-0.69 -0.52,-0.13 -1.12,-0.09 -1.78,0.13 -0.67,0.22 -1.17,0.53 -1.52,0.95 -0.35,0.41 -0.47,0.79 -0.36,1.11 0.11,0.33 0.42,0.56 0.95,0.69 0.53,0.13 1.12,0.09 1.79,-0.13 0.66,-0.22 1.17,-0.53 1.51,-0.94 0.35,-0.41 0.47,-0.79 0.36,-1.11zm-3.92 7.96c-0.23,-0.7 -0.18,-1.38 0.16,-2.04 0.33,-0.66 0.85,-1.1 1.55,-1.33 0.82,-0.27 1.76,-0.24 2.81,0.08 1.05,0.32 1.98,0.79 2.79,1.43l-0.35 1.23c-0.75,-0.6 -1.39,-0.94 -1.89,-1 0.23,0.7 0.18,1.38 -0.16,2.04 -0.33,0.66 -0.84,1.1 -1.54,1.33 -0.7,0.23 -1.38,0.17 -2.04,-0.17 -0.66,-0.34 -1.1,-0.86 -1.33,-1.56zm1.31 -0.43c0.11,0.34 0.32,0.59 0.64,0.75 0.32,0.16 0.65,0.19 0.98,0.08 0.34,-0.11 0.59,-0.32 0.75,-0.64 0.16,-0.32 0.19,-0.65 0.08,-0.98 -0.11,-0.34 -0.32,-0.59 -0.64,-0.75 -0.32,-0.16 -0.64,-0.19 -0.98,-0.08 -0.34,0.11 -0.59,0.32 -0.75,0.64 -0.16,0.32 -0.19,0.64 -0.08,0.98zm-37.18 -61.76l-4.32 5.94 -1.27 -0.68 3.03 -4.16 -1.68 -0.13 0.33 -1.28 3.92 0.31zm4.23 7.73c-0.6,0.83 -1.34,1.38 -2.22,1.67 -0.88,0.29 -1.65,0.19 -2.3,-0.28 -0.65,-0.47 -0.98,-1.17 -0.98,-2.1 0,-0.92 0.3,-1.8 0.9,-2.62 0.6,-0.83 1.34,-1.38 2.22,-1.67 0.88,-0.29 1.64,-0.19 2.3,0.28 0.65,0.47 0.98,1.17 0.98,2.1 0,0.92 -0.3,1.8 -0.9,2.62zm-0.88 -3.62c-0.28,-0.2 -0.67,-0.2 -1.17,-0 -0.5,0.2 -0.96,0.58 -1.37,1.15 -0.41,0.57 -0.64,1.12 -0.67,1.66 -0.04,0.54 0.08,0.91 0.36,1.11 0.28,0.2 0.67,0.2 1.17,0 0.5,-0.2 0.96,-0.59 1.37,-1.15 0.41,-0.56 0.63,-1.12 0.67,-1.65 0.04,-0.54 -0.09,-0.91 -0.37,-1.11zm2.5 3.06c0.38,-0.53 0.91,-0.84 1.57,-0.93 0.66,-0.09 1.27,0.07 1.84,0.48 0.53,0.39 0.86,0.92 0.99,1.59 0.12,0.67 -0.02,1.29 -0.42,1.85 -0.26,0.36 -0.7,0.65 -1.31,0.87l-3.06 0.81 2.12 1.54 -0.85 0.58 -3.83 -2.78 4.99 -1.32c0.31,-0.06 0.56,-0.21 0.73,-0.44 0.2,-0.27 0.28,-0.56 0.24,-0.87 -0.04,-0.31 -0.18,-0.55 -0.42,-0.72 -0.23,-0.17 -0.48,-0.23 -0.76,-0.18 -0.28,0.04 -0.5,0.18 -0.66,0.4 -0.21,0.28 -0.24,0.68 -0.11,1.18l-1.33 0.34c-0.25,-0.98 -0.16,-1.78 0.28,-2.38zm-64.63 -23.54c0.74,0 1.37,0.26 1.9,0.78 0.53,0.52 0.79,1.15 0.79,1.89 0,0.86 -0.31,1.74 -0.94,2.65 -0.62,0.91 -1.36,1.64 -2.22,2.21l-1.06 -0.71c0.8,-0.53 1.32,-1.03 1.54,-1.49 -0.74,0 -1.37,-0.26 -1.9,-0.78 -0.53,-0.52 -0.79,-1.14 -0.79,-1.87 0,-0.74 0.26,-1.37 0.79,-1.89 0.53,-0.52 1.16,-0.78 1.9,-0.78zm0 1.39c-0.36,0 -0.66,0.13 -0.91,0.38 -0.25,0.25 -0.38,0.55 -0.38,0.91 0,0.36 0.13,0.66 0.38,0.91 0.25,0.25 0.55,0.38 0.91,0.38 0.36,0 0.66,-0.13 0.91,-0.38 0.25,-0.25 0.38,-0.55 0.38,-0.91 0,-0.36 -0.13,-0.66 -0.38,-0.91 -0.25,-0.25 -0.55,-0.38 -0.91,-0.38zm6.36 -1.37c0.6,0 1.11,0.19 1.53,0.57 0.43,0.38 0.64,0.85 0.64,1.41 0,0.71 -0.32,1.22 -0.97,1.54 0.77,0.41 1.16,0.98 1.16,1.7 0,0.68 -0.24,1.22 -0.71,1.63 -0.47,0.41 -1.02,0.61 -1.64,0.61 -0.69,0 -1.26,-0.21 -1.71,-0.62 -0.45,-0.41 -0.67,-0.97 -0.67,-1.69 0,-0.68 0.39,-1.22 1.17,-1.6 -0.67,-0.34 -1.01,-0.86 -1.01,-1.55 0,-0.58 0.23,-1.06 0.69,-1.44 0.46,-0.38 0.96,-0.57 1.52,-0.57zm0 1.35c-0.22,0 -0.41,0.08 -0.57,0.24 -0.16,0.16 -0.24,0.34 -0.24,0.56 0,0.22 0.08,0.4 0.23,0.55 0.16,0.15 0.35,0.23 0.57,0.23 0.23,0 0.42,-0.08 0.57,-0.23 0.16,-0.15 0.23,-0.33 0.23,-0.55 0,-0.21 -0.08,-0.4 -0.24,-0.56 -0.16,-0.16 -0.35,-0.24 -0.57,-0.24zm0 2.91c-0.27,0 -0.49,0.09 -0.68,0.26 -0.18,0.17 -0.28,0.38 -0.28,0.63 0,0.27 0.09,0.49 0.28,0.66 0.18,0.17 0.41,0.26 0.68,0.26 0.27,0 0.5,-0.09 0.68,-0.26 0.18,-0.17 0.27,-0.4 0.27,-0.66 0,-0.24 -0.09,-0.45 -0.27,-0.63 -0.18,-0.17 -0.41,-0.26 -0.68,-0.26zm-100.83 68.93c0.23,-0.7 0.67,-1.22 1.33,-1.56 0.66,-0.34 1.34,-0.39 2.04,-0.17 0.82,0.27 1.56,0.84 2.23,1.71 0.67,0.87 1.14,1.8 1.41,2.79l-1 0.79c-0.26,-0.93 -0.58,-1.57 -0.95,-1.92 -0.23,0.7 -0.67,1.22 -1.33,1.56 -0.66,0.34 -1.33,0.4 -2.02,0.17 -0.7,-0.23 -1.22,-0.67 -1.55,-1.33 -0.33,-0.66 -0.39,-1.34 -0.16,-2.04zm1.32 0.43c-0.11,0.34 -0.08,0.66 0.08,0.98 0.16,0.32 0.41,0.53 0.75,0.64 0.34,0.11 0.67,0.08 0.98,-0.08 0.32,-0.16 0.53,-0.41 0.64,-0.75 0.11,-0.34 0.08,-0.66 -0.08,-0.98 -0.16,-0.32 -0.41,-0.53 -0.75,-0.64 -0.34,-0.11 -0.67,-0.08 -0.98,0.08 -0.32,0.16 -0.53,0.41 -0.64,0.75zm5.1 -8.01c0.97,0.31 1.73,0.85 2.27,1.59 0.54,0.75 0.69,1.51 0.44,2.27 -0.25,0.77 -0.81,1.29 -1.69,1.58 -0.88,0.28 -1.8,0.27 -2.77,-0.05 -0.97,-0.32 -1.73,-0.85 -2.27,-1.59 -0.54,-0.75 -0.69,-1.5 -0.44,-2.27 0.25,-0.77 0.81,-1.29 1.69,-1.58 0.88,-0.29 1.8,-0.27 2.77,0.04zm-3.18 1.95c-0.11,0.33 0.01,0.7 0.36,1.11 0.35,0.41 0.85,0.73 1.51,0.94 0.67,0.22 1.26,0.26 1.79,0.13 0.53,-0.13 0.84,-0.36 0.95,-0.69 0.11,-0.33 -0.01,-0.7 -0.36,-1.12 -0.35,-0.42 -0.85,-0.73 -1.52,-0.95 -0.66,-0.22 -1.26,-0.26 -1.78,-0.13 -0.52,0.13 -0.84,0.36 -0.95,0.69zm32.1 -46.31c0.6,-0.43 1.26,-0.59 1.99,-0.48 0.73,0.11 1.31,0.47 1.75,1.07 0.51,0.7 0.77,1.59 0.8,2.69 0.03,1.1 -0.14,2.13 -0.5,3.09l-1.28 0.05c0.34,-0.91 0.46,-1.61 0.36,-2.11 -0.6,0.43 -1.26,0.59 -1.99,0.48 -0.73,-0.11 -1.31,-0.46 -1.74,-1.05 -0.43,-0.6 -0.59,-1.26 -0.47,-1.99 0.12,-0.73 0.48,-1.31 1.08,-1.75zm0.81 1.12c-0.29,0.21 -0.46,0.49 -0.51,0.84 -0.06,0.35 0.02,0.67 0.23,0.96 0.21,0.29 0.49,0.46 0.84,0.51 0.35,0.06 0.67,-0.02 0.96,-0.23 0.29,-0.21 0.46,-0.49 0.51,-0.84 0.06,-0.35 -0.02,-0.67 -0.23,-0.96 -0.21,-0.29 -0.49,-0.46 -0.84,-0.51 -0.35,-0.06 -0.67,0.02 -0.96,0.23zm5.28 0.82l-0.25 -6.37 0.22 -0.32 2.87 3.95 1 -0.73 0.47 0.93 -0.84 0.61 1.01 1.38 -1.01 0.98 -1.12 -1.54 -2.05 1.49 -0.28 -0.38zm0.72 -1.21l1.01 -0.73 -1.11 -1.53 0.1 2.26zm-45.92 82.61c0,-0.59 0.19,-1.11 0.57,-1.53 0.38,-0.43 0.85,-0.64 1.42,-0.64 0.71,0 1.22,0.32 1.54,0.97 0.41,-0.77 0.98,-1.16 1.71,-1.16 0.68,0 1.22,0.24 1.63,0.71 0.41,0.47 0.61,1.02 0.61,1.63 0,0.69 -0.21,1.26 -0.62,1.71 -0.41,0.45 -0.97,0.67 -1.69,0.67 -0.68,0 -1.22,-0.39 -1.6,-1.17 -0.34,0.67 -0.86,1.01 -1.56,1.01 -0.58,0 -1.06,-0.23 -1.44,-0.69 -0.38,-0.46 -0.57,-0.96 -0.57,-1.52zm4.26 0c0,0.27 0.09,0.49 0.26,0.68 0.17,0.18 0.38,0.28 0.63,0.28 0.27,0 0.49,-0.09 0.67,-0.28 0.17,-0.18 0.26,-0.41 0.26,-0.68 0,-0.27 -0.09,-0.5 -0.26,-0.68 -0.17,-0.18 -0.4,-0.27 -0.67,-0.27 -0.24,0 -0.45,0.09 -0.63,0.27 -0.17,0.18 -0.26,0.41 -0.26,0.68zm-2.91 0c0,0.22 0.08,0.41 0.24,0.57 0.16,0.16 0.34,0.24 0.56,0.24 0.22,0 0.4,-0.08 0.55,-0.23 0.15,-0.16 0.23,-0.35 0.23,-0.57 0,-0.23 -0.08,-0.42 -0.23,-0.57 -0.15,-0.16 -0.34,-0.23 -0.55,-0.23 -0.21,0 -0.4,0.08 -0.56,0.24 -0.16,0.16 -0.24,0.35 -0.24,0.57zm-1.35 -6.36c0,-0.59 0.19,-1.11 0.57,-1.53 0.38,-0.43 0.85,-0.64 1.42,-0.64 0.71,0 1.22,0.32 1.54,0.97 0.41,-0.77 0.98,-1.16 1.71,-1.16 0.68,0 1.22,0.24 1.63,0.71 0.41,0.47 0.61,1.02 0.61,1.63 0,0.69 -0.21,1.26 -0.62,1.71 -0.41,0.45 -0.97,0.67 -1.69,0.67 -0.68,0 -1.22,-0.39 -1.6,-1.17 -0.34,0.67 -0.86,1.01 -1.56,1.01 -0.58,0 -1.06,-0.23 -1.44,-0.69 -0.38,-0.46 -0.57,-0.96 -0.57,-1.52zm4.26 0c0,0.27 0.09,0.49 0.26,0.68 0.17,0.18 0.38,0.28 0.63,0.28 0.27,0 0.49,-0.09 0.67,-0.28 0.17,-0.18 0.26,-0.41 0.26,-0.68 0,-0.27 -0.09,-0.5 -0.26,-0.68 -0.17,-0.18 -0.4,-0.27 -0.67,-0.27 -0.24,0 -0.45,0.09 -0.63,0.27 -0.17,0.18 -0.26,0.41 -0.26,0.68zm-2.91 0c0,0.22 0.08,0.41 0.24,0.57 0.16,0.16 0.34,0.24 0.56,0.24 0.22,0 0.4,-0.08 0.55,-0.23 0.15,-0.16 0.23,-0.35 0.23,-0.57 0,-0.23 -0.08,-0.42 -0.23,-0.57 -0.15,-0.16 -0.34,-0.23 -0.55,-0.23 -0.21,0 -0.4,0.08 -0.56,0.24 -0.16,0.16 -0.24,0.35 -0.24,0.57zm91.05 95.38l3.06 0c1.02,0 1.9,0.33 2.63,1 0.74,0.68 1.12,1.5 1.12,2.45 0,1.03 -0.38,1.86 -1.13,2.51 -0.68,0.58 -1.47,0.9 -2.39,0.95l0 2.46 -3.29 0.39 0 -9.77zm0.51 9.19c0,0 2.27,-0.27 2.27,-0.27l0 -2.51 0.25 0c0.89,0 1.67,-0.28 2.31,-0.83 0.63,-0.55 0.95,-1.26 0.95,-2.12 0,-0.81 -0.32,-1.5 -0.95,-2.07 -0.64,-0.58 -1.4,-0.87 -2.29,-0.87 0,0 -2.55,0 -2.55,0l0 8.68zm2.86 -4.1l-0.59 0 0 -3.24 0.59 0c0.37,0 0.69,0.16 0.93,0.5 0.23,0.3 0.34,0.67 0.34,1.1 0,0.57 -0.11,0.97 -0.31,1.22 -0.22,0.27 -0.54,0.42 -0.97,0.42zm0 -0.51c0.25,0 0.44,-0.07 0.57,-0.23 0.14,-0.18 0.2,-0.49 0.2,-0.91 0,-0.31 -0.08,-0.58 -0.24,-0.79 -0.14,-0.19 -0.31,-0.29 -0.53,-0.29l-0.08 0c0,0 0,2.22 0,2.22l0.08 0zm10.96 2.53l-1.44 2.62 -0.89 0 -1.44 -2.62 -0.62 2.65 -3.18 -0.38 2.23 -9.72 1.03 0 2.42 4.37 2.42 -4.37 1.03 0 2.23 9.72 -3.17 0.38 -0.62 -2.65zm1.01 2.09l2.15 -0.26 -2.01 -8.77 -0.33 0 -2.5 4.51 -0.45 0 -2.49 -4.51 -0.33 0c0,0 -2.01,8.77 -2.01,8.77 0,0 2.16,0.26 2.16,0.26l0.66 -2.85 0.47 -0.07 1.62 2.94 0.29 0 1.62 -2.94 0.47 0.07 0.67 2.85zm-110.68 -97.82c-1,-0.18 -1.81,-0.28 -2.42,-0.28l-2.62 0 0 0.8 -2.19 -0.29 0 -7.36 2.19 0 0 0.77 5.11 0 0 2.58 -5.11 -0.01 0 0.93 2.62 0c0.63,0 1.39,0.1 2.3,0.31l0.18 0.04 0.28 2.56 -0.34 -0.06zm-0.24 -0.56c0,0 -0.17,-1.52 -0.17,-1.52 -0.78,-0.17 -1.45,-0.26 -2,-0.26l-3.13 0 0 -1.95c0,0 5.11,0.01 5.11,0.01l0 -1.56 -5.11 0 0 -0.77 -1.17 0c0,0 0,6.4 0,6.4l1.17 0.16 0 -0.73 3.13 0c0.56,0 1.28,0.07 2.17,0.23zm185.64 -70.06l0.36 0.13c0.78,0.29 1.43,0.46 1.94,0.5 -0.4,-0.71 -0.54,-1.47 -0.4,-2.27 0.16,-0.96 0.65,-1.74 1.48,-2.34 0.76,-0.55 1.66,-0.75 2.71,-0.58 1.03,0.17 1.89,0.71 2.56,1.64 0.67,0.93 0.93,1.91 0.76,2.94 -0.16,1.04 -0.63,1.83 -1.39,2.39 -0.87,0.63 -2.01,0.97 -3.42,1 -1.38,0.03 -2.83,-0.23 -4.34,-0.78l-0.16 -0.06 -0.09 -2.57zm0.59 2.21c1.38,0.49 2.71,0.73 3.99,0.69 1.29,-0.03 2.34,-0.33 3.13,-0.91 0.66,-0.48 1.05,-1.16 1.19,-2.05 0.14,-0.9 -0.09,-1.75 -0.67,-2.56 -0.59,-0.81 -1.33,-1.29 -2.23,-1.43 -0.89,-0.15 -1.67,0.02 -2.32,0.49 -0.71,0.52 -1.14,1.18 -1.27,2.01 -0.14,0.82 0.06,1.59 0.57,2.3l-0.18 0.4c-0.55,0.05 -1.3,-0.08 -2.25,-0.41l0.05 1.47zm3.72 -1.98c-0.21,-0.29 -0.31,-0.66 -0.27,-1.12 0.04,-0.46 0.27,-0.86 0.72,-1.18 0.44,-0.32 0.88,-0.42 1.34,-0.31 0.45,0.11 0.78,0.31 0.99,0.6 0.21,0.29 0.3,0.66 0.26,1.12 -0.04,0.46 -0.27,0.85 -0.71,1.17 -0.45,0.32 -0.89,0.42 -1.34,0.32 -0.45,-0.11 -0.77,-0.31 -0.98,-0.6zm0.41 -0.3c0.14,0.2 0.37,0.33 0.68,0.4 0.31,0.07 0.62,-0.01 0.92,-0.23 0.3,-0.22 0.47,-0.48 0.5,-0.8 0.03,-0.32 -0.02,-0.58 -0.16,-0.77 -0.15,-0.2 -0.38,-0.33 -0.69,-0.4 -0.31,-0.07 -0.62,0.01 -0.92,0.23 -0.31,0.22 -0.48,0.49 -0.51,0.81 -0.02,0.32 0.03,0.58 0.17,0.78zm-1.24 6.53c0.92,-0.44 1.63,-0.84 2.12,-1.2l2.12 -1.54 -0.47 -0.65 1.95 -1.05 4.33 5.96 -1.77 1.29 -0.45 -0.62 -4.14 3 -1.52 -2.09 4.14 -3 -0.55 -0.75 -2.12 1.54c-0.51,0.37 -1.19,0.73 -2.04,1.1l-0.17 0.07 -1.74 -1.91 0.31 -0.15zm0.53 0.31c0,0 1.03,1.13 1.03,1.13 0.73,-0.32 1.33,-0.64 1.77,-0.97l2.53 -1.84 1.15 1.58c0,0 -4.14,3 -4.14,3l0.92 1.27 4.13 -3 0.45 0.62 0.95 -0.69c0,0 -3.77,-5.18 -3.77,-5.18l-1.04 0.56 0.43 0.59 -2.53 1.84c-0.45,0.33 -1.08,0.69 -1.89,1.09zm-12.85 7.29c-0.7,-0.96 -0.93,-2.15 -0.68,-3.56l0.05 -0.25 2.25 0.43 -0.03 0.23c-0.09,0.78 -0.03,1.34 0.22,1.68 0.13,0.18 0.31,0.26 0.55,0.26 0.29,-0.01 0.61,-0.15 0.97,-0.41 0.31,-0.22 0.5,-0.45 0.57,-0.7 0.07,-0.23 -0.03,-0.49 -0.25,-0.79 -0.27,-0.37 -0.74,-0.6 -1.38,-0.71l-0.24 -0.04 0.16 -1.19 4.05 -2.94 3.7 5.09 -2.44 0.86c0,0 -1.65,-2.27 -1.65,-2.27 0,0 -0.32,0.24 -0.32,0.24 0.15,0.11 0.29,0.26 0.43,0.45 0.47,0.65 0.63,1.45 0.46,2.39 -0.17,0.93 -0.61,1.65 -1.31,2.16 -0.76,0.55 -1.63,0.76 -2.63,0.62 -1,-0.13 -1.82,-0.65 -2.48,-1.55zm0.41 -0.3c0.57,0.78 1.28,1.23 2.13,1.34 0.86,0.11 1.61,-0.06 2.26,-0.53 0.6,-0.43 0.96,-1.05 1.11,-1.84 0.14,-0.79 0.02,-1.45 -0.37,-2 -0.18,-0.25 -0.37,-0.41 -0.57,-0.48l-0.07 -0.45 1.06 -0.77 1.73 2.38c0,0 1.44,-0.51 1.44,-0.51 0,0 -3,-4.12 -3,-4.12 0,0 -3.46,2.51 -3.46,2.51 0,0 -0.06,0.49 -0.06,0.49 0.68,0.15 1.16,0.45 1.47,0.87 0.34,0.46 0.43,0.87 0.33,1.23 -0.1,0.34 -0.35,0.66 -0.77,0.97 -0.47,0.34 -0.89,0.5 -1.26,0.51 -0.42,0.01 -0.74,-0.15 -0.97,-0.47 -0.28,-0.38 -0.4,-0.98 -0.34,-1.8 0,0 -1.28,-0.24 -1.28,-0.24 -0.15,1.15 0.05,2.12 0.63,2.92zm14.26 2.16l-11.36 -15.63 1.88 -1.36 11.36 15.62 -1.88 1.36zm1.16 -1.48l-10.76 -14.8c0,0 -1.05,0.76 -1.05,0.76l10.76 14.8 1.05 -0.76zm-59.73 -47.06c-1.03,-0.33 -1.76,-0.9 -2.18,-1.67 -0.43,-0.79 -0.5,-1.63 -0.21,-2.54 0.25,-0.78 0.83,-1.3 1.76,-1.54 -0.49,-0.66 -0.61,-1.37 -0.35,-2.15 0.24,-0.74 0.77,-1.28 1.6,-1.62 0.81,-0.33 1.64,-0.36 2.49,-0.08 0.91,0.3 1.57,0.81 1.99,1.55 0.43,0.75 0.52,1.48 0.29,2.2 -0.26,0.79 -0.76,1.3 -1.51,1.54 0.59,0.76 0.74,1.56 0.47,2.39 -0.28,0.85 -0.84,1.47 -1.69,1.84 -0.83,0.36 -1.72,0.4 -2.65,0.09zm0.16 -0.48c0.81,0.26 1.57,0.24 2.29,-0.08 0.71,-0.31 1.18,-0.82 1.41,-1.53 0.25,-0.77 0.03,-1.51 -0.64,-2.21l0.15 -0.43c0.78,-0.12 1.29,-0.55 1.53,-1.29 0.19,-0.58 0.1,-1.18 -0.25,-1.79 -0.36,-0.63 -0.93,-1.06 -1.7,-1.31 -0.73,-0.24 -1.44,-0.21 -2.14,0.07 -0.67,0.28 -1.11,0.71 -1.31,1.31 -0.24,0.73 -0.06,1.38 0.53,1.98l-0.14 0.43c-0.95,0.14 -1.55,0.56 -1.79,1.28 -0.25,0.76 -0.19,1.47 0.17,2.13 0.37,0.67 1,1.14 1.89,1.43zm1.65 -5.16c-0.22,-0.07 -0.36,-0.2 -0.45,-0.37 -0.11,-0.22 -0.12,-0.53 0.01,-0.93 0.14,-0.42 0.33,-0.67 0.54,-0.78 0.17,-0.09 0.37,-0.11 0.59,-0.04 0.26,0.08 0.42,0.25 0.5,0.51 0.06,0.21 0.05,0.48 -0.06,0.82 -0.13,0.41 -0.32,0.65 -0.54,0.76 -0.17,0.09 -0.37,0.1 -0.58,0.03zm0.16 -0.48c0.24,0.08 0.36,-0.11 0.48,-0.47 0.07,-0.21 0.1,-0.39 0.06,-0.52 -0.02,-0.08 -0.08,-0.14 -0.16,-0.17 -0.24,-0.08 -0.37,0.12 -0.49,0.49 -0.11,0.35 -0.12,0.58 0.11,0.66zm-1.38 4.24c-0.25,-0.08 -0.44,-0.26 -0.57,-0.53 -0.11,-0.25 -0.12,-0.58 0.02,-1.01 0.13,-0.39 0.32,-0.64 0.56,-0.78 0.26,-0.15 0.52,-0.18 0.77,-0.09 0.26,0.08 0.45,0.26 0.57,0.53 0.11,0.25 0.12,0.57 -0.01,0.95 -0.14,0.42 -0.34,0.69 -0.57,0.83 -0.26,0.15 -0.52,0.18 -0.78,0.1l-0 -0zm0.16 -0.49c0.12,0.04 0.24,0.02 0.36,-0.05 0.15,-0.09 0.25,-0.27 0.34,-0.54 0.08,-0.24 0.1,-0.43 0.03,-0.59 -0.06,-0.13 -0.14,-0.22 -0.26,-0.26 -0.12,-0.04 -0.24,-0.02 -0.36,0.05 -0.15,0.08 -0.25,0.25 -0.33,0.49 -0.09,0.27 -0.11,0.48 -0.04,0.64 0.06,0.13 0.14,0.22 0.26,0.26l0 0zm3.69 3.4c0.48,-0.9 0.82,-1.63 1.01,-2.21l0.81 -2.49 -0.76 -0.25 0.96 -1.99 7.01 2.27 -0.68 2.08 -0.73 -0.24 -1.58 4.86 -2.46 -0.8 1.58 -4.86 -0.88 -0.29 -0.81 2.49c-0.19,0.6 -0.53,1.29 -1.01,2.09l-0.09 0.15 -2.53 -0.52 0.16 -0.3zm0.61 -0.06c0,0 1.5,0.31 1.5,0.31 0.41,-0.69 0.69,-1.3 0.87,-1.82l0.97 -2.97 1.85 0.6c0,0 -1.59,4.86 -1.59,4.86l1.49 0.48 1.58 -4.86 0.73 0.24 0.36 -1.11c0,0 -6.09,-1.98 -6.09,-1.98l-0.51 1.07 0.69 0.23 -0.97 2.97c-0.17,0.53 -0.47,1.2 -0.89,1.99zm-6.11 13.45c-1.13,-0.37 -2.01,-1.19 -2.64,-2.48l-0.11 -0.23 2.07 -0.98 0.12 0.21c0.39,0.68 0.77,1.1 1.17,1.23 0.21,0.07 0.41,0.03 0.6,-0.11 0.23,-0.17 0.4,-0.48 0.54,-0.91 0.12,-0.36 0.14,-0.66 0.06,-0.9 -0.08,-0.22 -0.31,-0.38 -0.67,-0.49 -0.44,-0.14 -0.95,-0.05 -1.53,0.24l-0.22 0.11 -0.57 -1.05 1.55 -4.76 5.99 1.94 -1.47 2.13c0,0 -2.67,-0.87 -2.67,-0.87 0,0 -0.12,0.38 -0.12,0.38 0.19,0 0.39,0.04 0.61,0.11 0.77,0.25 1.36,0.8 1.78,1.66 0.41,0.85 0.48,1.69 0.21,2.52 -0.29,0.89 -0.87,1.57 -1.76,2.05 -0.88,0.48 -1.86,0.55 -2.92,0.2zm0.16 -0.49c0.92,0.3 1.75,0.24 2.52,-0.17 0.76,-0.41 1.27,-1 1.52,-1.76 0.23,-0.7 0.16,-1.41 -0.19,-2.14 -0.35,-0.72 -0.84,-1.19 -1.48,-1.4 -0.29,-0.1 -0.54,-0.12 -0.74,-0.05l-0.32 -0.32 0.41 -1.25 2.79 0.91c0,0 0.86,-1.25 0.86,-1.25 0,0 -4.85,-1.57 -4.85,-1.57 0,0 -1.32,4.07 -1.32,4.07 0,0 0.24,0.43 0.24,0.43 0.64,-0.27 1.2,-0.32 1.7,-0.16 0.54,0.18 0.86,0.45 0.99,0.8 0.12,0.33 0.11,0.74 -0.05,1.23 -0.18,0.55 -0.43,0.93 -0.72,1.15 -0.33,0.25 -0.69,0.31 -1.06,0.19 -0.44,-0.14 -0.9,-0.56 -1.33,-1.26 0,0 -1.18,0.56 -1.18,0.56 0.55,1.02 1.29,1.68 2.22,1.99zm12.81 -6.63l-18.38 -5.97 0.72 -2.21 18.38 5.97 -0.72 2.21zm0.07 -1.88l-17.41 -5.65c0,0 -0.4,1.23 -0.4,1.23l17.41 5.65 0.4 -1.23zm-126.4 36.59c-0.67,0.93 -1.53,1.47 -2.56,1.63 -1.04,0.17 -1.94,-0.03 -2.7,-0.59 -0.87,-0.63 -1.54,-1.61 -2.01,-2.94 -0.46,-1.31 -0.66,-2.76 -0.6,-4.37l0.01 -0.17 2.41 -0.88 -0.02 0.38c-0.04,0.83 0,1.5 0.12,2 0.55,-0.6 1.23,-0.96 2.04,-1.09 0.96,-0.15 1.85,0.08 2.68,0.68 0.76,0.55 1.23,1.35 1.39,2.39 0.16,1.03 -0.09,2.01 -0.77,2.94zm-0.41 -0.3c0.59,-0.81 0.82,-1.66 0.68,-2.56 -0.14,-0.89 -0.53,-1.58 -1.19,-2.06 -0.71,-0.52 -1.48,-0.71 -2.3,-0.59 -0.82,0.13 -1.49,0.54 -2.01,1.25l-0.44 -0.05c-0.22,-0.51 -0.33,-1.26 -0.31,-2.27 0,0 -1.38,0.5 -1.38,0.5 -0.04,1.47 0.15,2.8 0.57,4.01 0.43,1.22 1.04,2.12 1.83,2.7 0.66,0.48 1.43,0.64 2.32,0.5 0.9,-0.14 1.64,-0.62 2.23,-1.43zm-1.15 -0.83c-0.2,0.27 -0.52,0.46 -0.96,0.55 -0.44,0.08 -0.87,-0.02 -1.31,-0.34 -0.44,-0.32 -0.68,-0.71 -0.73,-1.15 -0.05,-0.45 0.03,-0.81 0.23,-1.08 0.2,-0.28 0.52,-0.47 0.96,-0.56 0.43,-0.09 0.88,0.02 1.32,0.34 0.44,0.32 0.67,0.7 0.73,1.14 0.05,0.45 -0.03,0.81 -0.23,1.09zm-0.41 -0.3c0.13,-0.19 0.17,-0.43 0.14,-0.73 -0.04,-0.31 -0.21,-0.57 -0.52,-0.79 -0.31,-0.22 -0.61,-0.31 -0.92,-0.25 -0.3,0.06 -0.52,0.18 -0.65,0.36 -0.13,0.18 -0.17,0.42 -0.14,0.72 0.04,0.31 0.22,0.57 0.53,0.79 0.3,0.22 0.61,0.31 0.91,0.25 0.3,-0.06 0.52,-0.17 0.65,-0.35zm4.33 -2.5c-0.7,-0.74 -1.3,-1.29 -1.79,-1.64l-2.12 -1.54 -0.47 0.65 -1.6 -1.52 4.33 -5.96 1.77 1.29 -0.45 0.62 4.13 3 -1.52 2.09 -4.13 -3.01 -0.55 0.75 2.12 1.54c0.51,0.37 1.07,0.9 1.67,1.6l0.12 0.14 -1.28 2.24 -0.24 -0.25zm0.13 -0.6c0,0 0.76,-1.33 0.76,-1.33 -0.53,-0.6 -1.02,-1.06 -1.47,-1.39l-2.53 -1.84 1.15 -1.58c0,0 4.13,3.01 4.13,3.01l0.92 -1.26 -4.13 -3 0.45 -0.62 -0.95 -0.69c0,0 -3.77,5.18 -3.77,5.18l0.86 0.82 0.43 -0.59 2.53 1.84c0.45,0.33 1,0.81 1.62,1.46zm10.91 9.96c-0.7,0.96 -1.75,1.55 -3.18,1.75l-0.26 0.04 -0.29 -2.27 0.23 -0.05c0.77,-0.16 1.29,-0.39 1.53,-0.73 0.13,-0.18 0.15,-0.38 0.08,-0.6 -0.09,-0.27 -0.33,-0.53 -0.69,-0.79 -0.31,-0.22 -0.58,-0.34 -0.84,-0.33 -0.24,0.01 -0.45,0.18 -0.67,0.48 -0.27,0.37 -0.35,0.89 -0.25,1.53l0.04 0.24 -1.18 0.22 -4.05 -2.94 3.7 -5.09 1.57 2.05c0,0 -1.65,2.27 -1.65,2.27 0,0 0.32,0.24 0.32,0.24 0.06,-0.18 0.16,-0.36 0.3,-0.55 0.47,-0.65 1.18,-1.05 2.13,-1.18 0.94,-0.13 1.76,0.07 2.46,0.58 0.76,0.55 1.23,1.32 1.41,2.31 0.18,0.99 -0.05,1.93 -0.71,2.84zm-0.41 -0.3c0.57,-0.78 0.77,-1.59 0.62,-2.44 -0.16,-0.85 -0.56,-1.51 -1.21,-1.99 -0.6,-0.43 -1.29,-0.59 -2.09,-0.48 -0.79,0.11 -1.39,0.43 -1.78,0.97 -0.18,0.25 -0.28,0.48 -0.28,0.69l-0.41 0.21 -1.06 -0.77 1.73 -2.38c0,0 -0.93,-1.21 -0.93,-1.21 0,0 -3,4.12 -3,4.12 0,0 3.46,2.51 3.46,2.51 0,0 0.48,-0.09 0.48,-0.09 -0.06,-0.69 0.07,-1.24 0.37,-1.66 0.33,-0.46 0.7,-0.68 1.07,-0.69 0.35,-0.01 0.74,0.12 1.16,0.43 0.47,0.34 0.76,0.69 0.88,1.04 0.14,0.39 0.09,0.75 -0.15,1.07 -0.27,0.38 -0.81,0.68 -1.61,0.88 0,0 0.17,1.29 0.17,1.29 1.14,-0.21 2,-0.7 2.58,-1.5zm-2.35 -14.22l-11.36 15.63 -1.88 -1.36 11.36 -15.62 1.88 1.36zm-1.76 -0.65l-10.76 14.8c0,0 1.05,0.76 1.05,0.76l10.76 -14.8 -1.05 -0.76zm39.17 -36.69l-3.62 1.17 -0.19 -2.57 6.88 -2.23 -0.38 9.99 -3.15 1.44 0.46 -7.8zm0.1 6.98c0,0 2.1,-0.96 2.1,-0.96l0.34 -8.95c0,0 -5.81,1.88 -5.81,1.88l0.11 1.52 3.71 -1.2 -0.45 7.7zm6.45 -1.94c-0.14,-1.01 -0.3,-1.8 -0.48,-2.38l-0.81 -2.49 -0.76 0.25 -0.4 -2.18 7.01 -2.27 0.68 2.08 -0.73 0.24 1.58 4.86 -2.46 0.8 -1.57 -4.86 -0.88 0.29 0.81 2.49c0.19,0.6 0.33,1.35 0.41,2.28l0.02 0.18 -2.35 1.06 -0.05 -0.34zm0.46 -0.41c0,0 1.4,-0.63 1.4,-0.63 -0.08,-0.8 -0.2,-1.46 -0.37,-1.98l-0.97 -2.97 1.86 -0.6c0,0 1.57,4.86 1.57,4.86l1.49 -0.48 -1.58 -4.86 0.73 -0.24 -0.36 -1.11c0,0 -6.09,1.98 -6.09,1.98l0.21 1.16 0.69 -0.23 0.97 2.97c0.17,0.53 0.33,1.24 0.46,2.13zm2.97 14.47c-1.13,0.37 -2.33,0.22 -3.6,-0.45l-0.23 -0.12 1.1 -2.01 0.22 0.1c0.72,0.32 1.27,0.44 1.67,0.31 0.21,-0.07 0.35,-0.22 0.42,-0.44 0.08,-0.27 0.04,-0.62 -0.09,-1.05 -0.12,-0.36 -0.27,-0.62 -0.49,-0.76 -0.2,-0.13 -0.47,-0.12 -0.83,-0.01 -0.44,0.14 -0.8,0.51 -1.1,1.09l-0.11 0.22 -1.08 -0.52 -1.55 -4.76 5.99 -1.94 0.06 2.59c0,0 -2.67,0.87 -2.67,0.87 0,0 0.12,0.38 0.12,0.38 0.15,-0.11 0.34,-0.2 0.56,-0.27 0.77,-0.25 1.57,-0.15 2.41,0.3 0.84,0.45 1.39,1.09 1.65,1.91 0.29,0.89 0.22,1.78 -0.22,2.69 -0.44,0.91 -1.18,1.53 -2.24,1.88zm-0.16 -0.49c0.92,-0.3 1.56,-0.83 1.94,-1.61 0.37,-0.78 0.44,-1.55 0.19,-2.31 -0.23,-0.7 -0.7,-1.24 -1.41,-1.62 -0.7,-0.38 -1.37,-0.47 -2.01,-0.26 -0.29,0.1 -0.51,0.22 -0.63,0.39l-0.45 -0.07 -0.41 -1.25 2.79 -0.91c0,0 -0.04,-1.52 -0.04,-1.52 0,0 -4.85,1.57 -4.85,1.57 0,0 1.32,4.07 1.32,4.07 0,0 0.44,0.21 0.44,0.21 0.36,-0.6 0.78,-0.97 1.28,-1.13 0.54,-0.18 0.96,-0.14 1.27,0.07 0.29,0.2 0.53,0.53 0.69,1.03 0.18,0.55 0.2,1 0.1,1.36 -0.12,0.4 -0.37,0.66 -0.75,0.78 -0.44,0.14 -1.05,0.08 -1.82,-0.24 0,0 -0.63,1.14 -0.63,1.14 1.04,0.5 2.03,0.61 2.97,0.3zm6.46 -12.89l-18.38 5.97 -0.72 -2.21 18.38 -5.97 0.72 2.21zm-1.04 -1.56l-17.41 5.65c0,0 0.4,1.23 0.4,1.23l17.41 -5.65 -0.4 -1.23zm127.04 92.36l0.42 -0.2 4.97 4.04 0.01 0.01c0.23,0.22 0.51,0.32 0.82,0.32 0.36,0 0.64,-0.06 0.83,-0.2 0.15,-0.11 0.23,-0.26 0.23,-0.45 0,-0.16 -0.06,-0.3 -0.19,-0.39 -0.15,-0.12 -0.38,-0.17 -0.67,-0.17 -0.38,0 -0.72,0.13 -1.02,0.39l-0.16 0.15 -2.02 -1.68 0.17 -0.2c1,-1.19 2.03,-1.77 3.06,-1.77 0.84,0 1.6,0.34 2.26,1.04 0.66,0.69 0.99,1.57 0.99,2.66 0,1.04 -0.34,1.92 -1.01,2.62 -0.68,0.72 -1.45,1.07 -2.29,1.07 -0.79,0 -1.74,-0.45 -2.83,-1.38l-1.12 -0.96 0 2.65 -2.45 -0.77 0 -6.8zm0.51 6.43l1.43 0.45 0 -2.51 0.42 -0.19 1.55 1.32c0.97,0.82 1.79,1.25 2.5,1.25 0.71,0 1.35,-0.31 1.92,-0.91 0.58,-0.61 0.87,-1.37 0.87,-2.27 0,-0.94 -0.28,-1.72 -0.85,-2.31 -0.56,-0.59 -1.19,-0.88 -1.89,-0.88 -0.85,0 -1.68,0.47 -2.5,1.39 0,0 1.3,1.08 1.3,1.08 0.35,-0.25 0.74,-0.38 1.18,-0.38 0.43,0 0.75,0.1 0.98,0.27 0.26,0.2 0.39,0.46 0.39,0.8 0,0.35 -0.15,0.64 -0.44,0.86 -0.26,0.19 -0.64,0.3 -1.14,0.3 -0.45,0 -0.83,-0.15 -1.17,-0.45 0,0 -4.54,-3.69 -4.54,-3.69l0 5.89zm-0.43 1.74c1,0.18 1.81,0.28 2.42,0.28l2.62 0 0 -0.8 2.19 0.29 0 7.36 -2.19 0 0 -0.77 -5.11 0 0 -2.58 5.11 0.01 0 -0.93 -2.62 0c-0.63,0 -1.39,-0.1 -2.3,-0.31l-0.18 -0.04 -0.28 -2.56 0.34 0.06zm0.25 0.56c0,0 0.17,1.52 0.17,1.52 0.78,0.17 1.45,0.26 2,0.26l3.13 0 0 1.95c0,0 -5.11,-0.01 -5.11,-0.01l0 1.56 5.11 0 0 0.77 1.17 0c0,0 0,-6.4 0,-6.4l-1.17 -0.16 0 0.73 -3.13 0c-0.56,0 -1.29,-0.07 -2.17,-0.23zm-81.03 46.67l59.4 -0.04 2.89 1.91 -61.27 0.05c-0.31,-0.65 -0.65,-1.29 -1.01,-1.91zm2.88 7.09l68.8 -0.05 2.91 1.91 -71.31 0.05c-0.11,-0.65 -0.24,-1.28 -0.4,-1.91zm0.78 7.37l71.3 -0.05 -3.14 1.92 -68.28 0.05c0.06,-0.63 0.11,-1.27 0.13,-1.91zm-1.21 7.23l46.78 -0.04 -3.02 1.92 -44.44 0.03c0.25,-0.63 0.48,-1.27 0.68,-1.91zm-49.45 -21.7c-0.36,0.62 -0.7,1.26 -1.01,1.91l-61.21 -0.05 2.83 -1.91 59.4 0.04zm-2.88 7.09c-0.16,0.63 -0.29,1.27 -0.4,1.91l-71.25 -0.05 2.85 -1.91 68.8 0.05zm-0.78 7.37c0.02,0.64 0.06,1.28 0.13,1.91l-68.28 -0.05 -3.08 -1.92 71.23 0.05zm1.21 7.23c0.2,0.65 0.43,1.29 0.68,1.91l-44.44 -0.03 -3.02 -1.92 46.78 0.04zm46.69 -8.08c0,11.43 -9.28,20.7 -20.71,20.7 -11.43,0 -20.71,-9.28 -20.71,-20.7 0,-11.42 9.28,-20.7 20.71,-20.7 11.43,0 20.71,9.28 20.71,20.7zm-1.28 0c0,-10.72 -8.71,-19.42 -19.44,-19.42 -10.73,0 -19.44,8.7 -19.44,19.42 0,10.72 8.71,19.42 19.44,19.42 10.73,0 19.44,-8.7 19.44,-19.42zm-3.38 0c0,8.86 -7.19,16.05 -16.06,16.05 -8.87,0 -16.06,-7.19 -16.06,-16.05 0,-8.86 7.19,-16.05 16.06,-16.05 8.87,0 16.06,7.19 16.06,16.05z"/>
  <polygon class="fil2" points="144.78,198.38 143.7,193.02 141.43,198.38 140.71,198.38 138.44,193.03 137.36,198.38 135.76,198.16 137.62,189 138.35,189 141.07,195.38 143.79,189 144.51,189 146.38,198.16 "/>
  <path class="fil2" d="M135.98 199.29l2.13 0 0 1.27 -1.1 0c-0.27,0.96 -0.61,1.7 -1.03,2.23l0.55 0.7 1.59 0 0 1.3 -2.37 0 -0.69 -0.91c-0.9,0.72 -1.82,1.08 -2.77,1.08 -1.08,0 -1.97,-0.33 -2.67,-1 -0.7,-0.67 -1.06,-1.5 -1.06,-2.5 0,-1.39 0.79,-2.42 2.37,-3.12 -0.47,-0.6 -0.71,-1.21 -0.71,-1.82 0,-0.67 0.25,-1.22 0.76,-1.64 0.51,-0.43 1.1,-0.64 1.77,-0.64 0.7,0 1.29,0.21 1.77,0.64 0.48,0.43 0.72,0.96 0.72,1.59 0,0.55 -0.17,1.01 -0.51,1.36 -0.34,0.35 -0.9,0.69 -1.67,1.01l2.12 2.86c0.38,-0.66 0.65,-1.46 0.81,-2.4zm-3.67 -1.45c0.6,-0.25 1.01,-0.48 1.22,-0.7 0.22,-0.22 0.33,-0.46 0.33,-0.72 0,-0.25 -0.09,-0.46 -0.28,-0.66 -0.18,-0.2 -0.45,-0.29 -0.8,-0.29 -0.31,0 -0.58,0.09 -0.79,0.28 -0.21,0.19 -0.31,0.44 -0.31,0.74 0,0.27 0.18,0.68 0.54,1.23l0.09 0.13zm-0.58 1.45c-1.08,0.48 -1.62,1.18 -1.62,2.09 0,0.61 0.23,1.14 0.68,1.6 0.45,0.46 1,0.68 1.65,0.68 0.66,0 1.27,-0.28 1.81,-0.83l-2.53 -3.54z"/>
  <path class="fil2" d="M124.74 198.16l-2.25 0 0 -8.93 2.43 0c1.64,0 2.88,0.43 3.7,1.29 0.83,0.86 1.24,1.85 1.24,2.98 -0.02,1.58 -0.53,2.75 -1.55,3.51 -1.02,0.76 -2.21,1.15 -3.58,1.15zm0.26 -0.9c0.83,0 1.56,-0.32 2.18,-0.97 0.63,-0.65 0.94,-1.5 0.94,-2.57 0,-1.07 -0.27,-1.93 -0.8,-2.6 -0.54,-0.66 -1.13,-1 -1.76,-1l-1.41 0 0 7.13 0.86 0z"/>
 </g>
</svg>
