<svg width="8.75in" height="5.5in" version="1.1" viewBox="0 0 630 396" xmlns="http://www.w3.org/2000/svg">
  <g fill="none" stroke-linecap="round" stroke-linejoin="round" stroke-miterlimit="10" stroke-width=".5">
  <g stroke="#f00">
   <path d="m211.02 346.55c12.52 0 22.68-10.16 22.68-22.68 0-12.516-10.16-22.676-22.68-22.676-12.516 0-22.676 10.16-22.676 22.676 0 12.52 10.16 22.68 22.676 22.68z"/>
   <path d="m557.87 209.62c6.414 0 11.625-5.211 11.625-11.621 0-6.418-5.211-11.617-11.625-11.617s-11.621 5.199-11.621 11.617c0 6.41 5.207 11.621 11.621 11.621z"/>
   <path d="m276.22 346.55c12.516 0 22.676-10.16 22.676-22.68 0-12.516-10.16-22.676-22.676-22.676s-22.68 10.16-22.68 22.676c0 12.52 10.164 22.68 22.68 22.68z"/>
   <path d="m557.87 277.37c4.691 0 8.504-3.813 8.504-8.504 0-4.695-3.813-8.504-8.504-8.504-4.692 0-8.504 3.809-8.504 8.504 0 4.691 3.812 8.504 8.504 8.504z"/>
   <path d="m158.47 67.58v17.301"/>
   <path d="m165.08 61.99c-1.649-0.2695-3.332 0.1914-4.606 1.2578-1.273 1.082-2.011 2.6719-2.011 4.332"/>
   <path d="m230.14 99.549c-16.477-19.918-39.566-33.25-65.051-37.559"/>
   <path d="m228.6 108.08c1.445-0.84 2.449-2.27 2.746-3.91 0.293-1.641-0.149-3.329-1.211-4.6215"/>
   <path d="m228.6 108.08-14.98 8.64"/>
   <path d="m206.54 115.57c1.785 2.023 4.746 2.5 7.078 1.152"/>
   <path d="m206.54 115.57c-11.406-12.867-26.684-21.688-43.535-25.129"/>
   <path d="m158.47 84.881c0 2.6992 1.898 5.0195 4.539 5.5586"/>
   <path d="m320.51 67.271c2.656 0 4.816-2.1602 4.816-4.8203 0-2.6602-2.16-4.8203-4.816-4.8203-2.66 0-4.82 2.1602-4.82 4.8203 0 2.6602 2.16 4.8203 4.82 4.8203z"/>
   <path d="m199.64 185.43c1.562 0.898 3.465 1 5.117 0.277 1.652-0.73 2.859-2.199 3.254-3.957"/>
   <path d="m199.64 185.43-15.785-9.121"/>
   <path d="m181.03 170.95c-0.176 2.18 0.922 4.269 2.816 5.359"/>
   <path d="m181.03 170.95c0.148-1.832 0.148-3.66 0-5.492"/>
   <path d="m183.85 160.1c-1.895 1.09-2.992 3.18-2.813 5.359"/>
   <path d="m183.85 160.1 15.785-9.121"/>
   <path d="m208.01 154.66c-0.395-1.758-1.602-3.227-3.254-3.957-1.652-0.723-3.551-0.621-5.117 0.277"/>
   <path d="m208.01 181.75c1.98-8.922 1.98-18.172 0-27.094"/>
   <path d="m94.623 150.98c-1.5625-0.899-3.4609-1-5.1133-0.278-1.6523 0.731-2.8594 2.2-3.2539 3.957"/>
   <path d="m94.623 150.98 15.785 9.121"/>
   <path d="m113.23 165.46c0.176-2.18-0.918-4.27-2.817-5.36"/>
   <path d="m113.23 165.46c-0.149 1.832-0.149 3.66 0 5.492"/>
   <path d="m110.41 176.31c1.898-1.09 2.992-3.18 2.816-5.36"/>
   <path d="m110.41 176.31-15.785 9.121"/>
   <path d="m86.256 181.75c0.3906 1.758 1.6016 3.226 3.2539 3.957 1.6523 0.722 3.5508 0.621 5.1133-0.278"/>
   <path d="m86.256 154.66c-1.9844 8.922-1.9844 18.172 0 27.09"/>
   <path d="m135.79 114.12c0-1.801-0.86-3.5-2.317-4.571-1.453-1.07-3.332-1.378-5.054-0.839"/>
   <path d="m135.79 114.12v18.23"/>
   <path d="m132.55 137.47c1.976-0.942 3.238-2.93 3.238-5.121"/>
   <path d="m132.55 137.47c-1.656 0.789-3.242 1.699-4.75 2.738"/>
   <path d="m121.75 140.46c1.894 1.09 4.254 1 6.054-0.25"/>
   <path d="m121.75 140.46-15.785-9.117"/>
   <path d="m104.96 122.26c-1.328 1.219-1.996 3-1.801 4.789 0.199 1.801 1.238 3.391 2.801 4.293"/>
   <path d="m128.42 108.71c-8.715 2.75-16.723 7.371-23.457 13.551"/>
   <path d="m105.96 205.06c-1.563 0.91-2.602 2.5-2.801 4.301-0.195 1.789 0.473 3.57 1.801 4.789"/>
   <path d="m105.96 205.06 15.785-9.11"/>
   <path d="m127.8 196.2c-1.801-1.25-4.16-1.34-6.055-0.25"/>
   <path d="m127.8 196.2c1.508 1.039 3.094 1.949 4.75 2.738"/>
   <path d="m135.79 204.06c0-2.192-1.262-4.18-3.239-5.121"/>
   <path d="m135.79 204.06v18.227"/>
   <path d="m128.42 227.69c1.722 0.543 3.601 0.23 5.055-0.836 1.456-1.07 2.316-2.766 2.316-4.57"/>
   <path d="m104.96 214.15c6.734 6.18 14.742 10.801 23.457 13.543"/>
   <path d="m158.47 222.29c0 1.805 0.863 3.5 2.316 4.57 1.457 1.066 3.332 1.379 5.055 0.836"/>
   <path d="m158.47 222.29v-18.227"/>
   <path d="m161.71 198.94c-1.981 0.941-3.242 2.93-3.242 5.121"/>
   <path d="m161.71 198.94c1.652-0.789 3.242-1.699 4.75-2.738"/>
   <path d="m172.51 195.95c-1.899-1.09-4.254-1-6.055 0.25"/>
   <path d="m172.51 195.95 15.785 9.109"/>
   <path d="m189.3 214.15c1.332-1.219 2-3 1.801-4.789-0.196-1.801-1.235-3.391-2.797-4.301"/>
   <path d="m165.84 227.69c8.719-2.742 16.727-7.363 23.457-13.543"/>
   <path d="m62.092 88.83c3.1289 0 5.668-2.5391 5.668-5.6602 0-3.1289-2.5391-5.668-5.668-5.668s-5.6719 2.5391-5.6719 5.668c0 3.1211 2.543 5.6602 5.6719 5.6602z"/>
   <path d="m230.14 236.86c1.062-1.285 1.504-2.977 1.211-4.617-0.297-1.645-1.301-3.071-2.746-3.907"/>
   <path d="m165.08 274.42c25.488-4.309 48.574-17.641 65.051-37.559"/>
   <path d="m158.47 268.82c0 1.672 0.738 3.254 2.012 4.332 1.273 1.078 2.957 1.539 4.605 1.258"/>
   <path d="m158.47 268.82v-17.297"/>
   <path d="m163.01 245.97c-2.641 0.539-4.539 2.859-4.539 5.555"/>
   <path d="m163.01 245.97c16.852-3.442 32.129-12.262 43.535-25.137"/>
   <path d="m213.62 219.69c-2.332-1.348-5.293-0.867-7.078 1.148"/>
   <path d="m228.6 228.33-14.98-8.649"/>
   <path d="m129.18 274.42c1.644 0.277 3.328-0.184 4.601-1.262 1.278-1.078 2.012-2.66 2.012-4.328"/>
   <path d="m64.127 236.86c16.477 19.918 39.562 33.25 65.051 37.559"/>
   <path d="m65.658 228.33c-1.4414 0.836-2.4492 2.261-2.7422 3.906-0.2969 1.641 0.1445 3.332 1.2109 4.617"/>
   <path d="m65.658 228.33 14.984-8.649"/>
   <path d="m87.721 220.83c-1.7891-2.016-4.7461-2.496-7.0781-1.149"/>
   <path d="m87.721 220.83c11.402 12.875 26.684 21.695 43.535 25.137"/>
   <path d="m135.79 251.53c0-2.692-1.895-5.016-4.535-5.555"/>
   <path d="m135.79 268.82v-17.297"/>
   <path d="m64.127 99.549c-1.0625 1.2932-1.5078 2.9802-1.2109 4.6212 0.293 1.641 1.3008 3.07 2.7422 3.91"/>
   <path d="m129.18 61.99c-25.488 4.3086-48.578 17.641-65.051 37.559"/>
   <path d="m135.79 67.58c0-1.6602-0.735-3.25-2.008-4.3281-1.277-1.0703-2.961-1.5312-4.606-1.2617"/>
   <path d="m135.79 67.58v17.301"/>
   <path d="m131.26 90.439c2.64-0.5391 4.535-2.8594 4.535-5.5586"/>
   <path d="m131.26 90.439c-16.852 3.4414-32.133 12.262-43.535 25.129"/>
   <path d="m80.642 116.72c2.332 1.348 5.2891 0.871 7.0781-1.152"/>
   <path d="m65.658 108.08 14.984 8.64"/>
   <path d="m46.174 205.76c0.582 1.57 1.8242 2.789 3.3906 3.359 1.5703 0.567 3.3125 0.41 4.7578-0.429"/>
   <path d="m46.174 130.65c-9.0117 24.219-9.0117 50.879 0 75.109"/>
   <path d="m54.322 127.71c-1.4453-0.828-3.1875-0.988-4.7578-0.418-1.5664 0.558-2.8086 1.789-3.3906 3.359"/>
   <path d="m54.322 127.71 14.98 8.652"/>
   <path d="m71.846 143.07c0.8516-2.559-0.2109-5.36-2.543-6.707"/>
   <path d="m71.846 143.07c-5.4492 16.312-5.4492 33.961 0 50.273"/>
   <path d="m69.303 200.05c2.332-1.348 3.3945-4.149 2.543-6.707"/>
   <path d="m54.322 208.69 14.98-8.641"/>
   <path d="m248.09 130.65c-0.582-1.571-1.824-2.801-3.395-3.36-1.57-0.57-3.308-0.41-4.754 0.418"/>
   <path d="m248.09 205.76c9.012-24.23 9.012-50.891 0-75.109"/>
   <path d="m239.94 208.69c1.445 0.84 3.183 0.996 4.754 0.429 1.57-0.57 2.812-1.789 3.394-3.359"/>
   <path d="m239.94 208.69-14.98-8.641"/>
   <path d="m222.42 193.34c-0.856 2.558 0.207 5.359 2.543 6.707"/>
   <path d="m222.42 193.34c5.445-16.312 5.445-33.961 0-50.273"/>
   <path d="m224.96 136.36c-2.336 1.347-3.399 4.148-2.543 6.707"/>
   <path d="m239.94 127.71-14.98 8.652"/>
   <path d="m147.13 190.88c12.516 0 22.676-10.16 22.676-22.68 0-12.512-10.16-22.672-22.676-22.672s-22.676 10.16-22.676 22.672c0 12.52 10.16 22.68 22.676 22.68z"/>
   <path d="m573.35 67.271c2.66 0 4.82-2.1602 4.82-4.8203 0-2.6602-2.16-4.8203-4.82-4.8203-2.656 0-4.817 2.1602-4.817 4.8203 0 2.6602 2.161 4.8203 4.817 4.8203z"/>
   <path d="m320.51 319.56c2.656 0 4.816-2.16 4.816-4.82 0-2.661-2.16-4.821-4.816-4.821-2.66 0-4.82 2.16-4.82 4.821 0 2.66 2.16 4.82 4.82 4.82z"/>
   <path d="m561.73 302.26c2.66 0 4.82-2.16 4.82-4.817 0-2.66-2.16-4.82-4.82-4.82s-4.817 2.16-4.817 4.82c0 2.657 2.157 4.817 4.817 4.817z"/>
   <path d="m410.47 209.62c6.418 0 11.625-5.211 11.625-11.621 0-6.418-5.207-11.617-11.625-11.617-6.414 0-11.621 5.199-11.621 11.617 0 6.41 5.207 11.621 11.621 11.621z"/>
   <path d="m232.17 88.83c3.129 0 5.668-2.5391 5.668-5.6602 0-3.1289-2.539-5.668-5.668-5.668s-5.668 2.5391-5.668 5.668c0 3.1211 2.539 5.6602 5.668 5.6602z"/>
   <path d="m62.092 258.91c3.1289 0 5.668-2.539 5.668-5.668s-2.5391-5.668-5.668-5.668-5.6719 2.539-5.6719 5.668 2.543 5.668 5.6719 5.668z"/>
   <path d="m232.17 258.91c3.129 0 5.668-2.539 5.668-5.668s-2.539-5.668-5.668-5.668-5.668 2.539-5.668 5.668 2.539 5.668 5.668 5.668z"/>
   <path d="m158.47 132.35c0 2.191 1.262 4.18 3.242 5.121"/>
   <path d="m158.47 132.35v-18.23"/>
   <path d="m165.84 108.71c-1.723-0.539-3.598-0.231-5.055 0.84-1.453 1.07-2.316 2.769-2.316 4.57"/>
   <path d="m189.3 122.26c-6.731-6.18-14.738-10.801-23.457-13.551"/>
   <path d="m188.3 131.34c1.562-0.903 2.601-2.492 2.797-4.293 0.199-1.789-0.469-3.571-1.801-4.789"/>
   <path d="m188.3 131.34-15.785 9.117"/>
   <path d="m166.46 140.21c1.801 1.25 4.156 1.34 6.055 0.25"/>
   <path d="m166.46 140.21c-1.508-1.039-3.098-1.949-4.75-2.738"/>
   <path d="m380.42 201.97v-7.942"/>
   <path d="m380.42 201.97h-3.399"/>
   <path d="m377.02 201.97v-7.942"/>
   <path d="m380.42 194.03h-3.399"/>
   <path d="m527.82 194.03h-3.402"/>
   <path d="m527.82 194.03v7.941"/>
   <path d="m527.82 201.97h-3.402"/>
   <path d="m524.42 194.03v7.941"/>
  </g>
  <path d="m410.47 302.88c57.887 0 104.88-46.996 104.88-104.88 0-57.891-46.996-104.88-104.88-104.88-57.883 0-104.88 46.992-104.88 104.88 0 57.883 46.996 104.88 104.88 104.88z" stroke="#00f"/>
  <path d="m410.47 78.939v238.11" stroke="#00f"/>
  <g stroke="#f00">
   <path d="m614.57 279v-38.762"/>
   <path d="m617.12 240.24h-2.551"/>
   <path d="m617.12 155.76v84.477"/>
   <path d="m614.57 155.76h2.551"/>
   <path d="m614.57 155.76v-38.762"/>
   <path d="m614.57 117c0-39.473-22.867-75.371-58.645-92.051"/>
   <path d="m523.72 16.002c-0.188 7.8867 5.011 14.898 12.617 17.02 7.605 2.1094 15.672-1.2109 19.586-8.0703"/>
   <path d="m523.72 16.002c-2.621-0.2813-5.254-0.4531-7.887-0.5313"/>
   <path d="m515.83 15.47v12.918"/>
   <path d="m515.83 28.389h-66.871"/>
   <path d="m448.96 28.389v-12.957"/>
   <path d="m448.96 15.431h-35.035"/>
   <path d="m413.93 12.88v2.5509"/>
   <path d="m357.8 12.88h56.125"/>
   <path d="m357.8 15.431v-2.5508"/>
   <path d="m357.8 15.431h-27.473"/>
   <path d="m299.67 15.431c1.367 7.3906 7.816 12.758 15.332 12.758 7.515 0 13.965-5.3672 15.332-12.758"/>
   <path d="m299.67 15.431h-27.473"/>
   <path d="m272.19 12.88v2.5509"/>
   <path d="m216.07 12.88h56.125"/>
   <path d="m216.07 15.431v-2.5508"/>
   <path d="m216.07 15.431h-35.035"/>
   <path d="m181.03 15.431v12.957"/>
   <path d="m181.03 28.389h-66.871"/>
   <path d="m114.16 28.389v-12.918"/>
   <path d="m114.16 15.47c-2.633 0.0781-5.266 0.25-7.887 0.5273"/>
   <path d="m74.072 24.951c3.9102 6.8594 11.98 10.18 19.586 8.0703 7.6052-2.1211 12.805-9.1328 12.613-17.023"/>
   <path d="m74.072 24.951c-35.77 16.68-58.641 52.578-58.641 92.047"/>
   <path d="m15.431 117v38.758"/>
   <path d="m12.88 155.76h2.5509"/>
   <path d="m12.88 240.24v-84.477"/>
   <path d="m15.431 240.24h-2.5508"/>
   <path d="m15.431 240.24v38.762"/>
   <path d="m15.431 279c0 39.473 22.867 75.367 58.641 92.051"/>
   <path d="m106.27 380c0.191-7.895-5.008-14.902-12.613-17.016s-15.676 1.207-19.586 8.066"/>
   <path d="m106.27 380c3.566 0.375 7.144 0.566 10.727 0.566"/>
   <path d="m117 380.57h99.07"/>
   <path d="m216.07 383.12v-2.551"/>
   <path d="m272.19 383.12h-56.125"/>
   <path d="m272.19 380.57v2.551"/>
   <path d="m272.19 380.57h27.473"/>
   <path d="m330.33 380.57c-1.367-7.391-7.817-12.758-15.332-12.758-7.516 0-13.965 5.367-15.332 12.758"/>
   <path d="m330.33 380.57h27.473"/>
   <path d="m357.8 383.12v-2.551"/>
   <path d="m413.93 383.12h-56.125"/>
   <path d="m413.93 380.57v2.551"/>
   <path d="m413.93 380.57h99.07"/>
   <path d="m513 380.57c3.582 0 7.16-0.192 10.723-0.567"/>
   <path d="m555.92 371.05c-3.914-6.86-11.98-10.18-19.586-8.067-7.606 2.114-12.805 9.122-12.617 17.012"/>
   <path d="m555.92 371.05c35.77-16.684 58.641-52.578 58.641-92.051"/>
  </g>
  <g stroke="#00f">
   <path d="m417.05 372.06v8.504"/>
   <path d="m614.57 243.35h-8.504"/>
   <path d="m606.06 243.35v-90.715"/>
   <path d="m606.06 152.64h8.504"/>
   <path d="m417.05 15.431v8.5078"/>
   <path d="m417.05 23.939h-62.363"/>
   <path d="m354.68 23.939v-8.5078"/>
   <path d="m275.31 15.431v8.5078"/>
   <path d="m275.31 23.939h-62.359"/>
   <path d="m212.95 23.939v-8.5078"/>
   <path d="m15.431 152.64h8.5039"/>
   <path d="m23.935 152.64v90.715"/>
   <path d="m23.935 243.35h-8.5039"/>
   <path d="m212.95 380.57v-8.504"/>
   <path d="m212.95 372.06h62.359"/>
   <path d="m275.31 372.06v8.504"/>
   <path d="m354.68 380.57v-8.504"/>
   <path d="m354.68 372.06h62.363"/>
  </g>
 </g>
</svg>
