<svg width="8.75in" height="5.5in" version="1.1" viewBox="0 0 630.01 396" xmlns="http://www.w3.org/2000/svg">
 <g fill="none" stroke-linecap="round" stroke-linejoin="round" stroke-miterlimit="10" stroke-width=".5">
  <g stroke="#00f">
   <path d="m162.92 72.21v102.05"/>
   <path d="m358.52 369.85h-68.031"/>
   <path d="m341.5 301.82h-102.05"/>
   <path d="m298.98 225.28v153.07"/>
   <path d="m222.46 233.78h102.05"/>
   <path d="m239.46 216.78h-51.023"/>
  </g>
  <path d="m78.45 286.93h-6.2383v-36.848h6.2383c0-0.379 0.1484-0.738 0.414-1.004 0.2657-0.266 0.625-0.414 1-0.414 0.3789 0 0.7383 0.148 1.0039 0.414 0.2657 0.266 0.4141 0.625 0.4141 1.004h17.012c0-0.785 0.6328-1.418 1.4141-1.418 0.7847 0 1.4177 0.633 1.4177 1.418h26.078v36.848h-26.078c0 0.785-0.633 1.418-1.4177 1.418-0.7813 0-1.4141-0.633-1.4141-1.418h-17.012c0 0.785-0.6328 1.418-1.418 1.418-0.7813 0-1.4141-0.633-1.4141-1.418z" stroke="#f00"/>
  <g stroke="#00f">
   <path d="m298.98 236.62c1.563 0 2.832-1.273 2.832-2.836 0-1.562-1.269-2.836-2.832-2.836-1.566 0-2.836 1.274-2.836 2.836 0 1.563 1.27 2.836 2.836 2.836z"/>
   <path d="m230.96 236.62c1.563 0 2.832-1.273 2.832-2.836 0-1.562-1.269-2.836-2.832-2.836-1.566 0-2.836 1.274-2.836 2.836 0 1.563 1.27 2.836 2.836 2.836z"/>
   <path d="m230.96 219.61c1.563 0 2.832-1.269 2.832-2.836 0-1.562-1.269-2.836-2.832-2.836-1.566 0-2.836 1.274-2.836 2.836 0 1.567 1.27 2.836 2.836 2.836z"/>
   <path d="m316 185.6c1.563 0 2.836-1.269 2.836-2.836 0-1.566-1.273-2.836-2.836-2.836-1.566 0-2.836 1.27-2.836 2.836 0 1.567 1.27 2.836 2.836 2.836z"/>
   <path d="m213.94 100.56c1.563 0 2.832-1.2734 2.832-2.8359 0-1.5664-1.269-2.8359-2.832-2.8359-1.566 0-2.836 1.2695-2.836 2.8359 0 1.5625 1.27 2.8359 2.836 2.8359z"/>
   <path d="m162.92 100.56c1.563 0 2.832-1.2734 2.832-2.8359 0-1.5664-1.269-2.8359-2.832-2.8359-1.566 0-2.836 1.2695-2.836 2.8359 0 1.5625 1.27 2.8359 2.836 2.8359z"/>
  </g>
  <path d="m90.458 378.39c1.7188 0 3.1172-1.398 3.1172-3.121 0-1.719-1.3984-3.117-3.1172-3.117-1.7227 0-3.1172 1.398-3.1172 3.117 0 1.723 1.3945 3.121 3.1172 3.121" stroke="#f00"/>
  <path d="m307.48 352.84h-51.023" stroke="#00f"/>
  <g stroke="#f00">
   <path d="m90.458 23.843c1.7188 0 3.1172-1.3984 3.1172-3.1211 0-1.7188-1.3984-3.1172-3.1172-3.1172-1.7227 0-3.1172 1.3984-3.1172 3.1172 0 1.7227 1.3945 3.1211 3.1172 3.1211"/>
   <path d="m117 386.15h396c59.176 0 107.15-47.973 107.15-107.15v-162c0-59.176-47.973-107.15-107.15-107.15h-396c-59.176 0-107.15 47.973-107.15 107.15v162c0 31.695 13.758 60.172 35.629 79.789 18.965 17.016 44.035 27.363 71.52 27.363"/>
   <path d="m539.54 378.39c1.723 0 3.117-1.398 3.117-3.121 0-1.719-1.394-3.117-3.117-3.117-1.719 0-3.117 1.398-3.117 3.117 0 1.723 1.398 3.121 3.117 3.121"/>
  </g>
 </g>
 <path d="m149.46 68.668h11.34c0.39062 0 0.70703 0.3164 0.70703 0.70703 0 0.39062-0.31641 0.71094-0.70703 0.71094h-24.098c-0.39062 0-0.70703-0.32032-0.70703-0.71094 0-0.39063 0.31641-0.70703 0.70703-0.70703h11.34v-9.2148c0-0.39062 0.3164-0.70703 0.70703-0.70703 0.39453 0 0.71093 0.31641 0.71093 0.70703z"/>
 <path d="m147.34 80.288h2.832c0.39062 0 0.71093-0.3164 0.71093-0.70703 0-0.39453-0.32031-0.71094-0.71093-0.71094h-2.832c-0.39062 0-0.71093 0.31641-0.71093 0.71094 0 0.39063 0.32031 0.70703 0.71093 0.70703"/>
 <path d="m281.98 185.6c1.5625 0 2.832-1.2695 2.832-2.8359s-1.2695-2.8359-2.832-2.8359c-1.5664 0-2.8359 1.2695-2.8359 2.8359s1.2695 2.8359 2.8359 2.8359zm0 0" fill="none" stroke="#00f" stroke-linecap="round" stroke-linejoin="round" stroke-miterlimit="10" stroke-width=".5"/>
 <g>
  <path d="m143.78 75.468c-0.39 0-0.707 0.3203-0.707 0.7109 0 0.3907 0.317 0.7071 0.707 0.7071h9.922c0.391 0 0.711-0.3164 0.711-0.7071 0-0.3906-0.32-0.7109-0.711-0.7109z"/>
  <path d="m65.185 274.39-2.9961 0.391-1.4766-6.27-3.4648 6.27-3.4688-6.27-1.4727 6.27-3-0.391 3.3203-14.395 4.6211 8.359 4.6172-8.359z"/>
  <path d="m159.68 274.43-3.203 0.438-1.473-6.27-3.265 6.223-3.465-6.27-1.473 6.27-3-0.391 3.321-14.395 4.617 8.359 4.621-8.359z"/>
 </g>
 <path d="m230.96 157.25v102.05" fill="none" stroke="#00f" stroke-linecap="round" stroke-linejoin="round" stroke-miterlimit="10" stroke-width=".5"/>
 <path d="m140.25 72.07c-0.39062 0-0.70703 0.31641-0.70703 0.70703 0 0.39063 0.31641 0.70703 0.70703 0.70703h17.008c0.39453 0 0.71094-0.3164 0.71094-0.70703 0-0.39062-0.31641-0.70703-0.71094-0.70703z"/>
 <g fill="none" stroke-linecap="round" stroke-linejoin="round" stroke-miterlimit="10" stroke-width=".5">
  <g stroke="#00f">
   <path d="m324.5 182.76h-119.05"/>
   <path d="m281.98 140.24v68.031"/>
   <path d="m264.96 66.538c1.563 0 2.832-1.2695 2.832-2.832 0-1.5664-1.269-2.8359-2.832-2.8359-1.566 0-2.836 1.2695-2.836 2.8359 0 1.5625 1.27 2.832 2.836 2.832z"/>
  </g>
  <path d="m286.22 49.53c3.133 0 5.672-2.5391 5.672-5.668s-2.539-5.668-5.672-5.668c-3.129 0-5.668 2.5391-5.668 5.668s2.539 5.668 5.668 5.668z" stroke="#f00"/>
 </g>
 <path d="m135.49 260.42h7.4062l0.90625 2.8008h-5.1875v2.7461h3.7734v2.8008h-3.7734v5.6562l-3.125 0.55469z"/>
 <path d="m111.9 38.194v170.08" fill="none" stroke="#00f" stroke-linecap="round" stroke-linejoin="round" stroke-miterlimit="10" stroke-width=".5"/>
 <path d="m281.48 20.686-10.129 10.125v-9.625c0-0.39062-0.32031-0.71094-0.71094-0.71094-0.39062 0-0.70703 0.32032-0.70703 0.71094v9.625l-10.129-10.125c-0.13281-0.13281-0.3164-0.21094-0.5-0.21094-0.1914 0-0.37108 0.0781-0.5039 0.21094-0.13281 0.12891-0.20702 0.3125-0.20702 0.5s0.0742 0.36719 0.20702 0.5l11.133 11.133v11.043c0 0.39063 0.31641 0.70703 0.70703 0.70703 0.39063 0 0.71094-0.3164 0.71094-0.70703v-11.043l11.129-11.133c0.27734-0.27734 0.27734-0.72656 0-1-0.27735-0.27734-0.72657-0.27734-1 0"/>
 <g fill="none" stroke="#00f" stroke-linecap="round" stroke-linejoin="round" stroke-miterlimit="10" stroke-width=".5">
  <path d="m298.98 372.68c1.563 0 2.832-1.273 2.832-2.836 0-1.562-1.269-2.836-2.832-2.836-1.566 0-2.836 1.274-2.836 2.836 0 1.563 1.27 2.836 2.836 2.836z"/>
  <path d="m213.94 38.194v85.039"/>
  <path d="m264.96 38.194v85.039"/>
  <path d="m298.98 304.65c1.563 0 2.832-1.269 2.832-2.836 0-1.562-1.269-2.836-2.832-2.836-1.566 0-2.836 1.274-2.836 2.836 0 1.567 1.27 2.836 2.836 2.836z"/>
  <path d="m298.98 355.68c1.563 0 2.832-1.269 2.832-2.836 0-1.562-1.269-2.836-2.832-2.836-1.566 0-2.836 1.274-2.836 2.836 0 1.567 1.27 2.836 2.836 2.836z"/>
  <path d="m188.44 63.706h170.08"/>
  <path d="m316 55.202v136.06"/>
  <path d="m316 66.538c1.563 0 2.836-1.2695 2.836-2.832 0-1.5664-1.273-2.8359-2.836-2.8359-1.566 0-2.836 1.2695-2.836 2.8359 0 1.5625 1.27 2.832 2.836 2.832z"/>
  <path d="m222.46 97.721h-119.05"/>
  <path d="m111.9 100.56c1.563 0 2.832-1.2734 2.832-2.8359 0-1.5664-1.269-2.8359-2.832-2.8359-1.566 0-2.836 1.2695-2.836 2.8359 0 1.5625 1.27 2.8359 2.836 2.8359z"/>
 </g>
 <path d="m43.486 260.38c1.2656 0 2.4023 0.46485 3.418 1.3906 1.0156 0.92968 1.5234 2.1289 1.5234 3.5976 0 1.5625-0.50782 2.7891-1.5274 3.6797-1.0195 0.88672-2.1562 1.332-3.4141 1.332h-0.71094v4.0039l-3.125 0.39062v-14.395zm0 7.207c0.41797 0 0.82422-0.18358 1.2227-0.55077 0.39843-0.36719 0.59375-0.92969 0.59375-1.6875 0-0.5586-0.21485-1.0586-0.64454-1.5039-0.42968-0.44141-0.82031-0.66408-1.1719-0.66408h-0.71094v4.4062z"/>
 <g fill="none" stroke-linecap="round" stroke-linejoin="round" stroke-miterlimit="10" stroke-width=".5">
  <path d="m230.96 185.6c1.563 0 2.832-1.269 2.832-2.836 0-1.566-1.269-2.836-2.832-2.836-1.566 0-2.836 1.27-2.836 2.836 0 1.567 1.27 2.836 2.836 2.836z" stroke="#00f"/>
  <path d="m539.54 23.843c1.723 0 3.117-1.3984 3.117-3.1211 0-1.7188-1.394-3.1172-3.117-3.1172-1.719 0-3.117 1.3984-3.117 3.1172 0 1.7227 1.398 3.1211 3.117 3.1211" stroke="#f00"/>
  <path d="m213.94 66.538c1.563 0 2.832-1.2695 2.832-2.832 0-1.5664-1.269-2.8359-2.832-2.8359-1.566 0-2.836 1.2695-2.836 2.8359 0 1.5625 1.27 2.832 2.836 2.832z" stroke="#00f"/>
 </g>
</svg>
