<svg width="8.75in" height="5.5in" version="1.1" viewBox="0 0 630 396" xmlns="http://www.w3.org/2000/svg">
  <g fill="none" stroke="#ed1c24" stroke-linecap="round" stroke-linejoin="round" stroke-miterlimit="10" stroke-width=".5">
  <path d="m557.86 209.62c6.414 0 11.625-5.207 11.625-11.621 0-6.415-5.211-11.621-11.625-11.621s-11.621 5.207-11.621 11.621 5.207 11.621 11.621 11.621z"/>
  <path d="m276.22 346.54c12.516 0 22.676-10.164 22.676-22.68s-10.16-22.676-22.676-22.676-22.68 10.16-22.68 22.676 10.164 22.68 22.68 22.68z"/>
  <path d="m211.02 346.54c12.516 0 22.676-10.164 22.676-22.68s-10.16-22.676-22.676-22.676c-12.52 0-22.68 10.16-22.68 22.676s10.16 22.68 22.68 22.68z"/>
  <path d="m410.46 302.88c57.887 0 104.88-46.996 104.88-104.88 0-57.887-46.996-104.88-104.88-104.88-57.883 0-104.88 46.996-104.88 104.88 0 57.887 46.996 104.88 104.88 104.88z"/>
  <path d="m417.04 372.06v8.503"/>
  <path d="m513 380.56h-95.953"/>
  <path d="m513 380.56c3.582 0 7.16-0.192 10.723-0.571"/>
  <path d="m555.92 371.04c-3.915-6.86-11.98-10.184-19.586-8.067-7.606 2.113-12.805 9.121-12.617 17.012"/>
  <path d="m555.92 371.04c35.773-16.684 58.641-52.578 58.641-92.051"/>
  <path d="m614.56 243.36v35.645"/>
  <path d="m614.56 243.36h-8.504"/>
  <path d="m606.06 243.36v-90.711"/>
  <path d="m606.06 152.64h8.504"/>
  <path d="m614.56 117v35.645"/>
  <path d="m614.56 117c0-39.473-22.867-75.367-58.641-92.051"/>
  <path d="m523.72 15.998c-0.188 7.8945 5.011 14.902 12.617 17.016 7.605 2.1172 15.672-1.207 19.586-8.0664"/>
  <path d="m523.72 15.998c-2.621-0.2773-5.254-0.4531-7.887-0.5273"/>
  <path d="m515.84 28.393v-12.922"/>
  <path d="m448.96 28.393h66.871"/>
  <path d="m448.96 15.432v12.961"/>
  <path d="m417.04 15.432h31.918"/>
  <path d="m417.04 15.432v8.5039"/>
  <path d="m417.04 23.936h-62.363"/>
  <path d="m354.68 23.936v-8.5039"/>
  <path d="m330.34 15.432h24.352"/>
  <path d="m299.66 15.432c1.367 7.3945 7.812 12.758 15.332 12.758 7.515 0 13.965-5.3633 15.332-12.758"/>
  <path d="m275.32 15.432h24.355"/>
  <path d="m275.32 15.432v8.5039"/>
  <path d="m275.32 23.936h-62.359"/>
  <path d="m212.96 23.936v-8.5039"/>
  <path d="m181.04 15.432h31.918"/>
  <path d="m181.04 28.393v-12.961"/>
  <path d="m114.16 28.393h66.871"/>
  <path d="m114.16 15.471v12.922"/>
  <path d="m114.16 15.471c-2.633 0.0742-5.266 0.25-7.887 0.5273"/>
  <path d="m74.073 24.948c3.9141 6.8594 11.98 10.184 19.586 8.0664 7.6054-2.1133 12.805-9.1211 12.617-17.016"/>
  <path d="m74.073 24.948c-35.773 16.684-58.641 52.578-58.641 92.051"/>
  <path d="m15.432 152.64v-35.645"/>
  <path d="m15.432 152.64h8.5039"/>
  <path d="m23.936 152.64v90.711"/>
  <path d="m23.936 243.36h-8.5039"/>
  <path d="m15.432 279v-35.645"/>
  <path d="m15.432 279c0 39.473 22.867 75.367 58.641 92.051"/>
  <path d="m106.28 380c0.187-7.891-5.012-14.898-12.617-17.012-7.6055-2.114-15.672 1.207-19.586 8.062"/>
  <path d="m106.28 380c3.562 0.379 7.14 0.57 10.723 0.57"/>
  <path d="m212.96 380.56h-95.953"/>
  <path d="m212.96 380.56v-8.504"/>
  <path d="m212.96 372.06h62.363"/>
  <path d="m275.32 372.06v8.503"/>
  <path d="m299.66 380.56h-24.355"/>
  <path d="m330.34 380.56c-1.368-7.395-7.817-12.758-15.332-12.758-7.52 0-13.965 5.363-15.332 12.758"/>
  <path d="m354.68 380.56h-24.352"/>
  <path d="m354.68 380.56v-8.504"/>
  <path d="m354.68 372.06h62.363"/>
 </g>
</svg>
