<svg width="218.99" height="122.62" version="1.1" viewBox="0 0 218.99 122.62" xmlns="http://www.w3.org/2000/svg">
 <g fill="none" stroke="#fff" stroke-linecap="round" stroke-miterlimit="10" stroke-width=".72">
  <path d="m14.532 0.36391h189.92"/>
  <path d="m204.45 0.36391c7.832-0.003906 14.172 6.3477 14.172 14.176"/>
  <path d="m218.63 14.536v93.543"/>
  <path d="m218.63 108.08c-4e-3 7.832-6.3438 14.172-14.176 14.172"/>
  <path d="m204.45 122.25h-189.92"/>
  <path d="m14.532 122.25c-7.8281-0.00391-14.168-6.3438-14.168-14.176"/>
  <path d="m0.36022 108.08v-93.543"/>
  <path d="m0.36022 14.536c0.003906-7.8242 6.3438-14.176 14.176-14.176"/>
 </g>
 <path d="m204.45 1.3795h-189.92c-7.2656 0-13.156 5.8906-13.156 13.16v93.539c0 7.2695 5.8906 13.16 13.16 13.16h189.92c7.2695 0 13.16-5.8906 13.16-13.16v-93.539c0-7.2695-5.8906-13.16-13.16-13.16m5.8555 82.078c-4e-3 3.0625-2.4844 5.5508-5.5547 5.5508-3.0586 0-5.5508-2.4883-5.5508-5.5469 0-3.0703 2.4922-5.5508 5.5508-5.5508 3.0703 0 5.5508 2.4805 5.5508 5.5508m-31.559-26.586c-0.55078 0.09375-1.082-0.27734-1.1719-0.82422l-0.98828-5.582c-0.10156-0.55078 0.26953-1.0781 0.82031-1.1797l15.359-2.7109c0.55078-0.08984 1.0781 0.28125 1.168 0.83203l0.99218 5.5781c0.0977 0.55078-0.26953 1.082-0.83203 1.1797l-15.348 2.7031m10 31.367c0 3.0625-2.4805 5.5508-5.5508 5.5508-3.0703 0-5.5508-2.4883-5.5508-5.5508 0-3.0703 2.4805-5.5508 5.5508-5.5508 3.0703 0 5.5508 2.4805 5.5508 5.5508m-31.004-67.238c-0.55859 0.09766-1.0781-0.26953-1.1758-0.82031l-0.98047-5.5898c-0.10156-0.55078 0.26953-1.082 0.82031-1.1719l15.348-2.707c0.5625-0.10156 1.082 0.26953 1.1797 0.82031l0.98047 5.5898c0.10156 0.54688-0.26954 1.0664-0.82032 1.168l-15.348 2.7109m9.4336 62.457c4e-3 3.0625-2.4844 5.5508-5.5469 5.5508-3.0664 0-5.5469-2.4883-5.5469-5.5469 0-3.0703 2.4805-5.5508 5.5469-5.5508 3.0625 0 5.5508 2.4805 5.5508 5.5508m-45.402 13.641c-0.73828 0.72656-1.9258 0.72656-2.6562-0.0039-0.33984-0.33984-0.53125-0.78906-0.55078-1.2578l-42.73-42.742h-28.309c0.03125 0.52344-0.33203 0.98047-0.83984 1.0703l-15.352 2.7031c-0.55078 0.09766-1.0781-0.27344-1.1797-0.82031l-0.98047-5.582c-0.09766-0.55078 0.26953-1.0781 0.82031-1.1797l15.359-2.7109c0.55078-0.08984 1.0703 0.28125 1.1719 0.83203l0.51953 2.9375h29.359c0.35938 0 0.71094 0.15234 0.96875 0.41016l43.133 43.133c1.0391 0.03906 1.8477 0.91016 1.8203 1.9492-0.0195 0.46875-0.22265 0.91797-0.55078 1.2578m-7.0898-2.6562c0.73047 0.73828 0.73047 1.9297 0 2.6562-0.33985 0.33984-0.78907 0.53125-1.2617 0.55078l-14.777 14.781c-0.26172 0.25-0.61328 0.39844-0.97266 0.39844h-64.051c-0.35938 0-0.70703-0.14844-0.96875-0.39844l-1.9492-1.9609c-1.3203 0.25-2.5898-0.62109-2.8398-1.9375-0.08203-0.42187-0.05078-0.85156 0.09766-1.2617 0.44141-1.2617 1.832-1.9297 3.1016-1.4883 0.39844 0.14844 0.76172 0.38672 1.0312 0.70704 0.87891-1.0195 2.418-1.1289 3.4297-0.25 0.08984 0.082 0.17969 0.16015 0.25781 0.25 0.88281-1.0195 2.4102-1.1289 3.4297-0.25 0.09375 0.082 0.17188 0.16015 0.25 0.25 0.88281-1.0195 2.4219-1.1289 3.4336-0.25 0.07813 0.0625 0.14844 0.14062 0.21875 0.21093 0.89844 1 0.82031 2.5391-0.17969 3.4414-0.07031 0.0703-0.15234 0.12891-0.24219 0.1875h54.41l14.371-14.367c0.0391-1.043 0.91016-1.8516 1.9492-1.8203 0.47265 0.01953 0.92187 0.21875 1.2617 0.54688m-22.363 6.2812 5.0117-5.0156c0.03125-1.0352 0.91016-1.8438 1.9414-1.8125 0.48047 0.01953 0.92969 0.21875 1.2695 0.54688 0.73047 0.74219 0.73047 1.9336 0 2.6602-0.33984 0.33984-0.78906 0.53125-1.2695 0.55078l-5.4102 5.4219c-0.26172 0.25-0.60938 0.39843-0.96875 0.39843h-43.262c-0.35938 0-0.71094-0.14843-0.96875-0.39843l-10.051-10.063c-2.6406 1.5703-6.0391 0.69141-7.6094-1.9375-1.293-2.1797-0.94141-4.9609 0.84766-6.7617 2.1719-2.168 5.6914-2.168 7.8516 0 1.8008 1.8008 2.1484 4.582 0.85156 6.7617l9.6484 9.6484h42.121m-76.363-80.715-5.6328 0.99609c-0.55469 0.097656-1.0742-0.26953-1.1758-0.82031l-0.98828-5.5898c-0.089844-0.55078 0.27734-1.082 0.82812-1.1719l15.352-2.707c0.55078-0.10156 1.0781 0.26953 1.1797 0.82031l0.98047 5.5898c0.09766 0.54688-0.26953 1.0664-0.82031 1.168l-6.9727 1.2305v33.719l11.684 11.691h32.547c0.37109 0 0.72266 0.14062 0.98047 0.39844l0.51172 0.51172c0.17969 0.17969 0.30078 0.41016 0.35938 0.66016l27.398 27.391c1.0312 0.03906 1.8398 0.91016 1.8125 1.9492-0.01953 0.46875-0.21094 0.91797-0.55078 1.2578-0.74219 0.73047-1.9297 0.73047-2.6602 0-0.33984-0.33984-0.53125-0.78906-0.55078-1.2578l-27.758-27.762c-0.11328-0.11719-0.21094-0.25-0.28125-0.39844h-32.379c-0.36328 0-0.71094-0.14844-0.97266-0.39844l-12.488-12.492c-0.26172-0.25781-0.40234-0.60938-0.40234-0.98047v-33.801m46.934 63.449c0 3.0625-2.4805 5.5508-5.5508 5.5508-3.0625 0-5.5508-2.4883-5.5508-5.5469 0-3.0703 2.4883-5.5508 5.5508-5.5508 3.0703 0 5.5508 2.4805 5.5508 5.5508m-43.125-0.0039c0.0039 3.0625-2.4883 5.5508-5.5469 5.5508-3.0703 0-5.5586-2.4883-5.5586-5.5469 0-3.0703 2.4883-5.5508 5.5586-5.5508 3.0586 0 5.5508 2.4805 5.5508 5.5508" fill="#fff" fill-opacity=".2" stroke="#fff" stroke-linecap="round" stroke-linejoin="round" stroke-miterlimit="10" stroke-opacity=".2" stroke-width=".58"/>
 <g fill="none" stroke="#fff" stroke-linecap="round" stroke-miterlimit="10" stroke-opacity=".2" stroke-width=".72">
  <path d="m209.29 83.458h0.73437"/>
  <path d="m200.23 83.458h-0.73437"/>
  <path d="m204.76 78.93v-0.73438"/>
  <path d="m204.76 87.985v0.73438"/>
  <path d="m61.884 83.458h0.73438"/>
  <path d="m52.829 83.458h-0.73438"/>
  <path d="m57.356 78.93v-0.73438"/>
  <path d="m57.356 87.985v0.73438"/>
  <path d="m33.95 106.67v-0.73437"/>
 </g>
 <g fill="#fff" fill-opacity=".2">
  <path d="m39.907 108.08c0-0.77734 0.62891-1.418 1.418-1.418 0.78125 0 1.4102 0.64063 1.4102 1.418 0 0.78125-0.62891 1.4219-1.4102 1.4219-0.78906 0-1.418-0.64063-1.418-1.4219"/>
  <path d="m36.216 108.08c0-0.77734 0.64062-1.418 1.418-1.418 0.78125 0 1.4219 0.64063 1.4219 1.418 0 0.78125-0.64062 1.4219-1.4219 1.4219-0.77734 0-1.418-0.64063-1.418-1.4219"/>
  <path d="m32.536 108.08c0-0.77734 0.62891-1.418 1.418-1.418 0.78125 0 1.4102 0.64063 1.4102 1.418 0 0.78125-0.62891 1.4219-1.4102 1.4219-0.78906 0-1.418-0.64063-1.418-1.4219"/>
  <path d="m28.845 108.08c0-0.77734 0.64062-1.418 1.4219-1.418 0.77734 0 1.418 0.64063 1.418 1.418 0 0.78125-0.64063 1.4219-1.418 1.4219-0.78125 0-1.4219-0.64063-1.4219-1.4219"/>
  <path d="m25.516 17.294-0.98438-5.5859-15.352 2.707 0.98438 5.5859z"/>
  <path d="m46.524 53.169-0.98828-5.5859-15.352 2.7109 0.98437 5.582z"/>
  <path d="m31.255 88.239c0-2.5078 2.0312-4.5391 4.5391-4.5391 2.5 0 4.5312 2.0312 4.5312 4.5391 0 2.5-2.0312 4.5312-4.5312 4.5312-2.5078 0-4.5391-2.0312-4.5391-4.5312"/>
  <path d="m52.825 83.462c0-2.5117 2.0312-4.543 4.5312-4.543 2.5078 0 4.5391 2.0312 4.5391 4.543 0 2.5-2.0312 4.5273-4.5391 4.5273-2.5 0-4.5312-2.0273-4.5312-4.5273"/>
  <path d="m9.6962 83.462c0-2.5117 2.0273-4.543 4.5391-4.543 2.5 0 4.5312 2.0312 4.5312 4.543 0 2.5-2.0312 4.5273-4.5312 4.5273-2.5117 0-4.5391-2.0273-4.5391-4.5273"/>
  <path d="m172.92 17.294-0.98437-5.5859-15.352 2.707 0.98438 5.5859z"/>
  <path d="m193.92 53.169-0.98438-5.5859-15.352 2.7109 0.98438 5.582z"/>
  <path d="m178.66 88.239c0-2.5078 2.0274-4.5391 4.5391-4.5391 2.5 0 4.5391 2.0312 4.5391 4.5391 0 2.5-2.0391 4.5312-4.5391 4.5312-2.5117 0-4.5391-2.0312-4.5391-4.5312"/>
  <path d="m200.22 83.462c0-2.5117 2.0312-4.543 4.5312-4.543 2.5117 0 4.5391 2.0312 4.5391 4.543 0 2.5-2.0273 4.5273-4.5391 4.5273-2.5 0-4.5312-2.0273-4.5312-4.5273"/>
  <path d="m157.09 83.462c0-2.5117 2.0312-4.543 4.5391-4.543 2.5 0 4.5312 2.0312 4.5312 4.543 0 2.5-2.0312 4.5273-4.5312 4.5273-2.5078 0-4.5391-2.0273-4.5391-4.5273"/>
  <path d="m98.356 95.77c0-0.48047 0.39063-0.85938 0.86719-0.85938 0.47266 0 0.86328 0.37891 0.86328 0.85938 0 0.48047-0.39062 0.87109-0.86328 0.87109-0.47656 0-0.86719-0.39062-0.86719-0.87109"/>
  <path d="m112.5 95.77c0-0.48047 0.37891-0.85938 0.85938-0.85938 0.48046 0 0.87109 0.37891 0.87109 0.85938 0 0.48047-0.39063 0.87109-0.87109 0.87109-0.48047 0-0.85938-0.39062-0.85938-0.87109"/>
  <path d="m91.274 95.77c0-0.48047 0.38281-0.85938 0.85938-0.85938 0.48047 0 0.86328 0.37891 0.86328 0.85938 0 0.48047-0.38281 0.87109-0.86328 0.87109-0.47656 0-0.85938-0.39062-0.85938-0.87109"/>
  <path d="m119.59 95.77c0-0.48047 0.38672-0.85938 0.86719-0.85938s0.86328 0.37891 0.86328 0.85938c0 0.48047-0.38281 0.87109-0.86328 0.87109s-0.86719-0.39062-0.86719-0.87109"/>
  <path d="m202.34 106.84c0-0.48047 0.39063-0.87109 0.8711-0.87109s0.85937 0.39062 0.85937 0.87109-0.3789 0.85937-0.85937 0.85937-0.8711-0.3789-0.8711-0.85937"/>
  <path d="m202.34 92.438c0-0.47656 0.39063-0.86719 0.8711-0.86719s0.85937 0.39062 0.85937 0.86719c0 0.48047-0.3789 0.86328-0.85937 0.86328s-0.8711-0.38281-0.8711-0.86328"/>
  <path d="m202.34 63.641c0-0.48047 0.39063-0.87109 0.8711-0.87109s0.85937 0.39062 0.85937 0.87109-0.3789 0.85938-0.85937 0.85938-0.8711-0.37891-0.8711-0.85938"/>
  <path d="m202.34 49.239c0-0.48047 0.39063-0.86719 0.8711-0.86719s0.85937 0.38672 0.85937 0.86719c0 0.48047-0.3789 0.85938-0.85937 0.85938s-0.8711-0.37891-0.8711-0.85938"/>
  <path d="m202.34 34.84c0-0.48047 0.39063-0.87109 0.8711-0.87109s0.85937 0.39062 0.85937 0.87109-0.3789 0.85938-0.85937 0.85938-0.8711-0.37891-0.8711-0.85938"/>
  <path d="m202.34 20.438c0-0.47656 0.39063-0.86719 0.8711-0.86719s0.85937 0.39062 0.85937 0.86719c0 0.48047-0.3789 0.86328-0.85937 0.86328s-0.8711-0.38281-0.8711-0.86328"/>
  <path d="m202.34 6.0397c0-0.48047 0.39063-0.87109 0.8711-0.87109s0.85937 0.39062 0.85937 0.87109c0 0.48047-0.3789 0.85937-0.85937 0.85937s-0.8711-0.37891-0.8711-0.85937"/>
  <path d="m187.95 106.84c0-0.48047 0.39062-0.87109 0.87109-0.87109 0.47656 0 0.85937 0.39062 0.85937 0.87109s-0.38281 0.85937-0.85937 0.85937c-0.48047 0-0.87109-0.3789-0.87109-0.85937"/>
  <path d="m187.95 92.438c0-0.47656 0.39062-0.86719 0.87109-0.86719 0.47656 0 0.85937 0.39062 0.85937 0.86719 0 0.48047-0.38281 0.86328-0.85937 0.86328-0.48047 0-0.87109-0.38281-0.87109-0.86328"/>
  <path d="m187.95 78.04c0-0.48047 0.39062-0.87109 0.87109-0.87109 0.47656 0 0.85937 0.39062 0.85937 0.87109 0 0.48047-0.38281 0.85937-0.85937 0.85937-0.48047 0-0.87109-0.37891-0.87109-0.85937"/>
  <path d="m187.95 63.641c0-0.48047 0.39062-0.87109 0.87109-0.87109 0.47656 0 0.85937 0.39062 0.85937 0.87109s-0.38281 0.85938-0.85937 0.85938c-0.48047 0-0.87109-0.37891-0.87109-0.85938"/>
  <path d="m187.95 34.84c0-0.48047 0.39062-0.87109 0.87109-0.87109 0.47656 0 0.85937 0.39062 0.85937 0.87109s-0.38281 0.85938-0.85937 0.85938c-0.48047 0-0.87109-0.37891-0.87109-0.85938"/>
  <path d="m187.95 20.438c0-0.47656 0.39062-0.86719 0.87109-0.86719 0.47656 0 0.85937 0.39062 0.85937 0.86719 0 0.48047-0.38281 0.86328-0.85937 0.86328-0.48047 0-0.87109-0.38281-0.87109-0.86328"/>
  <path d="m187.95 6.0397c0-0.48047 0.39062-0.87109 0.87109-0.87109 0.47656 0 0.85937 0.39062 0.85937 0.87109 0 0.48047-0.38281 0.85937-0.85937 0.85937-0.48047 0-0.87109-0.37891-0.87109-0.85937"/>
  <path d="m173.54 106.84c0-0.48047 0.39063-0.87109 0.8711-0.87109 0.48046 0 0.85937 0.39062 0.85937 0.87109s-0.37891 0.85937-0.85937 0.85937c-0.48047 0-0.8711-0.3789-0.8711-0.85937"/>
  <path d="m173.54 92.438c0-0.47656 0.39063-0.86719 0.8711-0.86719 0.48046 0 0.85937 0.39062 0.85937 0.86719 0 0.48047-0.37891 0.86328-0.85937 0.86328-0.48047 0-0.8711-0.38281-0.8711-0.86328"/>
  <path d="m173.54 78.04c0-0.48047 0.39063-0.87109 0.8711-0.87109 0.48046 0 0.85937 0.39062 0.85937 0.87109 0 0.48047-0.37891 0.85937-0.85937 0.85937-0.48047 0-0.8711-0.37891-0.8711-0.85937"/>
  <path d="m173.54 63.641c0-0.48047 0.39063-0.87109 0.8711-0.87109 0.48046 0 0.85937 0.39062 0.85937 0.87109s-0.37891 0.85938-0.85937 0.85938c-0.48047 0-0.8711-0.37891-0.8711-0.85938"/>
  <path d="m173.54 49.239c0-0.48047 0.39063-0.86719 0.8711-0.86719 0.48046 0 0.85937 0.38672 0.85937 0.86719 0 0.48047-0.37891 0.85938-0.85937 0.85938-0.48047 0-0.8711-0.37891-0.8711-0.85938"/>
  <path d="m173.54 34.84c0-0.48047 0.39063-0.87109 0.8711-0.87109 0.48046 0 0.85937 0.39062 0.85937 0.87109s-0.37891 0.85938-0.85937 0.85938c-0.48047 0-0.8711-0.37891-0.8711-0.85938"/>
  <path d="m173.54 20.438c0-0.47656 0.39063-0.86719 0.8711-0.86719 0.48046 0 0.85937 0.39062 0.85937 0.86719 0 0.48047-0.37891 0.86328-0.85937 0.86328-0.48047 0-0.8711-0.38281-0.8711-0.86328"/>
  <path d="m173.54 6.0397c0-0.48047 0.39063-0.87109 0.8711-0.87109 0.48046 0 0.85937 0.39062 0.85937 0.87109 0 0.48047-0.37891 0.85937-0.85937 0.85937-0.48047 0-0.8711-0.37891-0.8711-0.85937"/>
  <path d="m159.15 92.438c0-0.47656 0.39063-0.86719 0.8711-0.86719s0.85937 0.39062 0.85937 0.86719c0 0.48047-0.3789 0.86328-0.85937 0.86328s-0.8711-0.38281-0.8711-0.86328"/>
  <path d="m159.15 63.641c0-0.48047 0.39063-0.87109 0.8711-0.87109s0.85937 0.39062 0.85937 0.87109-0.3789 0.85938-0.85937 0.85938-0.8711-0.37891-0.8711-0.85938"/>
  <path d="m159.15 49.239c0-0.48047 0.39063-0.86719 0.8711-0.86719s0.85937 0.38672 0.85937 0.86719c0 0.48047-0.3789 0.85938-0.85937 0.85938s-0.8711-0.37891-0.8711-0.85938"/>
  <path d="m159.15 34.84c0-0.48047 0.39063-0.87109 0.8711-0.87109s0.85937 0.39062 0.85937 0.87109-0.3789 0.85938-0.85937 0.85938-0.8711-0.37891-0.8711-0.85938"/>
  <path d="m159.15 6.0397c0-0.48047 0.39063-0.87109 0.8711-0.87109s0.85937 0.39062 0.85937 0.87109c0 0.48047-0.3789 0.85937-0.85937 0.85937s-0.8711-0.37891-0.8711-0.85937"/>
  <path d="m144.75 92.438c0-0.47656 0.38672-0.86719 0.86718-0.86719 0.48047 0 0.85938 0.39062 0.85938 0.86719 0 0.48047-0.37891 0.86328-0.85938 0.86328-0.48046 0-0.86718-0.38281-0.86718-0.86328"/>
  <path d="m144.75 78.04c0-0.48047 0.38672-0.87109 0.86718-0.87109 0.48047 0 0.85938 0.39062 0.85938 0.87109 0 0.48047-0.37891 0.85937-0.85938 0.85937-0.48046 0-0.86718-0.37891-0.86718-0.85937"/>
  <path d="m144.75 49.239c0-0.48047 0.38672-0.86719 0.86718-0.86719 0.48047 0 0.85938 0.38672 0.85938 0.86719 0 0.48047-0.37891 0.85938-0.85938 0.85938-0.48046 0-0.86718-0.37891-0.86718-0.85938"/>
  <path d="m144.75 34.84c0-0.48047 0.38672-0.87109 0.86718-0.87109 0.48047 0 0.85938 0.39062 0.85938 0.87109s-0.37891 0.85938-0.85938 0.85938c-0.48046 0-0.86718-0.37891-0.86718-0.85938"/>
  <path d="m144.75 20.438c0-0.47656 0.38672-0.86719 0.86718-0.86719 0.48047 0 0.85938 0.39062 0.85938 0.86719 0 0.48047-0.37891 0.86328-0.85938 0.86328-0.48046 0-0.86718-0.38281-0.86718-0.86328"/>
  <path d="m144.75 6.0397c0-0.48047 0.38672-0.87109 0.86718-0.87109 0.48047 0 0.85938 0.39062 0.85938 0.87109 0 0.48047-0.37891 0.85937-0.85938 0.85937-0.48046 0-0.86718-0.37891-0.86718-0.85937"/>
  <path d="m130.34 92.438c0-0.47656 0.39063-0.86719 0.8711-0.86719s0.85937 0.39062 0.85937 0.86719c0 0.48047-0.3789 0.86328-0.85937 0.86328s-0.8711-0.38281-0.8711-0.86328"/>
  <path d="m130.34 78.04c0-0.48047 0.39063-0.87109 0.8711-0.87109s0.85937 0.39062 0.85937 0.87109c0 0.48047-0.3789 0.85937-0.85937 0.85937s-0.8711-0.37891-0.8711-0.85937"/>
  <path d="m130.34 63.641c0-0.48047 0.39063-0.87109 0.8711-0.87109s0.85937 0.39062 0.85937 0.87109-0.3789 0.85938-0.85937 0.85938-0.8711-0.37891-0.8711-0.85938"/>
  <path d="m130.34 34.84c0-0.48047 0.39063-0.87109 0.8711-0.87109s0.85937 0.39062 0.85937 0.87109-0.3789 0.85938-0.85937 0.85938-0.8711-0.37891-0.8711-0.85938"/>
  <path d="m130.34 20.438c0-0.47656 0.39063-0.86719 0.8711-0.86719s0.85937 0.39062 0.85937 0.86719c0 0.48047-0.3789 0.86328-0.85937 0.86328s-0.8711-0.38281-0.8711-0.86328"/>
  <path d="m130.34 6.0397c0-0.48047 0.39063-0.87109 0.8711-0.87109s0.85937 0.39062 0.85937 0.87109c0 0.48047-0.3789 0.85937-0.85937 0.85937s-0.8711-0.37891-0.8711-0.85937"/>
  <path d="m115.95 78.04c0-0.48047 0.39062-0.87109 0.87109-0.87109 0.47656 0 0.85938 0.39062 0.85938 0.87109 0 0.48047-0.38282 0.85937-0.85938 0.85937-0.48047 0-0.87109-0.37891-0.87109-0.85937"/>
  <path d="m115.95 63.641c0-0.48047 0.39062-0.87109 0.87109-0.87109 0.47656 0 0.85938 0.39062 0.85938 0.87109s-0.38282 0.85938-0.85938 0.85938c-0.48047 0-0.87109-0.37891-0.87109-0.85938"/>
  <path d="m115.95 34.84c0-0.48047 0.39062-0.87109 0.87109-0.87109 0.47656 0 0.85938 0.39062 0.85938 0.87109s-0.38282 0.85938-0.85938 0.85938c-0.48047 0-0.87109-0.37891-0.87109-0.85938"/>
  <path d="m115.95 20.438c0-0.47656 0.39062-0.86719 0.87109-0.86719 0.47656 0 0.85938 0.39062 0.85938 0.86719 0 0.48047-0.38282 0.86328-0.85938 0.86328-0.48047 0-0.87109-0.38281-0.87109-0.86328"/>
  <path d="m115.95 6.0397c0-0.48047 0.39062-0.87109 0.87109-0.87109 0.47656 0 0.85938 0.39062 0.85938 0.87109 0 0.48047-0.38282 0.85937-0.85938 0.85937-0.48047 0-0.87109-0.37891-0.87109-0.85937"/>
  <path d="m101.54 20.438c0-0.47656 0.39063-0.86719 0.8711-0.86719s0.85937 0.39062 0.85937 0.86719c0 0.48047-0.3789 0.86328-0.85937 0.86328s-0.8711-0.38281-0.8711-0.86328"/>
  <path d="m101.54 6.0397c0-0.48047 0.39063-0.87109 0.8711-0.87109s0.85937 0.39062 0.85937 0.87109c0 0.48047-0.3789 0.85937-0.85937 0.85937s-0.8711-0.37891-0.8711-0.85937"/>
  <path d="m87.145 106.84c0-0.48047 0.39062-0.87109 0.87109-0.87109s0.85938 0.39062 0.85938 0.87109-0.37891 0.85937-0.85938 0.85937-0.87109-0.3789-0.87109-0.85937"/>
  <path d="m87.145 78.04c0-0.48047 0.39062-0.87109 0.87109-0.87109s0.85938 0.39062 0.85938 0.87109c0 0.48047-0.37891 0.85937-0.85938 0.85937s-0.87109-0.37891-0.87109-0.85937"/>
  <path d="m87.145 20.438c0-0.47656 0.39062-0.86719 0.87109-0.86719s0.85938 0.39062 0.85938 0.86719c0 0.48047-0.37891 0.86328-0.85938 0.86328s-0.87109-0.38281-0.87109-0.86328"/>
  <path d="m87.145 6.0397c0-0.48047 0.39062-0.87109 0.87109-0.87109s0.85938 0.39062 0.85938 0.87109c0 0.48047-0.37891 0.85937-0.85938 0.85937s-0.87109-0.37891-0.87109-0.85937"/>
  <path d="m72.747 92.438c0-0.47656 0.38672-0.86719 0.86719-0.86719s0.85938 0.39062 0.85938 0.86719c0 0.48047-0.37891 0.86328-0.85938 0.86328s-0.86719-0.38281-0.86719-0.86328"/>
  <path d="m72.747 63.641c0-0.48047 0.38672-0.87109 0.86719-0.87109s0.85938 0.39062 0.85938 0.87109-0.37891 0.85938-0.85938 0.85938-0.86719-0.37891-0.86719-0.85938"/>
  <path d="m72.747 49.239c0-0.48047 0.38672-0.86719 0.86719-0.86719s0.85938 0.38672 0.85938 0.86719c0 0.48047-0.37891 0.85938-0.85938 0.85938s-0.86719-0.37891-0.86719-0.85938"/>
  <path d="m72.747 34.84c0-0.48047 0.38672-0.87109 0.86719-0.87109s0.85938 0.39062 0.85938 0.87109-0.37891 0.85938-0.85938 0.85938-0.86719-0.37891-0.86719-0.85938"/>
  <path d="m72.747 20.438c0-0.47656 0.38672-0.86719 0.86719-0.86719s0.85938 0.39062 0.85938 0.86719c0 0.48047-0.37891 0.86328-0.85938 0.86328s-0.86719-0.38281-0.86719-0.86328"/>
  <path d="m72.747 6.0397c0-0.48047 0.38672-0.87109 0.86719-0.87109s0.85938 0.39062 0.85938 0.87109c0 0.48047-0.37891 0.85937-0.85938 0.85937s-0.86719-0.37891-0.86719-0.85937"/>
  <path d="m58.345 92.438c0-0.47656 0.39062-0.86719 0.87109-0.86719 0.48047 0 0.85937 0.39062 0.85937 0.86719 0 0.48047-0.37891 0.86328-0.85937 0.86328-0.48047 0-0.87109-0.38281-0.87109-0.86328"/>
  <path d="m58.345 63.641c0-0.48047 0.39062-0.87109 0.87109-0.87109 0.48047 0 0.85937 0.39062 0.85937 0.87109s-0.37891 0.85938-0.85937 0.85938c-0.48047 0-0.87109-0.37891-0.87109-0.85938"/>
  <path d="m58.345 49.239c0-0.48047 0.39062-0.86719 0.87109-0.86719 0.48047 0 0.85937 0.38672 0.85937 0.86719 0 0.48047-0.37891 0.85938-0.85937 0.85938-0.48047 0-0.87109-0.37891-0.87109-0.85938"/>
  <path d="m58.345 34.84c0-0.48047 0.39062-0.87109 0.87109-0.87109 0.48047 0 0.85937 0.39062 0.85937 0.87109s-0.37891 0.85938-0.85937 0.85938c-0.48047 0-0.87109-0.37891-0.87109-0.85938"/>
  <path d="m58.345 20.438c0-0.47656 0.39062-0.86719 0.87109-0.86719 0.48047 0 0.85937 0.39062 0.85937 0.86719 0 0.48047-0.37891 0.86328-0.85937 0.86328-0.48047 0-0.87109-0.38281-0.87109-0.86328"/>
  <path d="m58.345 6.0397c0-0.48047 0.39062-0.87109 0.87109-0.87109 0.48047 0 0.85937 0.39062 0.85937 0.87109 0 0.48047-0.37891 0.85937-0.85937 0.85937-0.48047 0-0.87109-0.37891-0.87109-0.85937"/>
  <path d="m43.946 92.438c0-0.47656 0.39062-0.86719 0.87109-0.86719 0.47656 0 0.85938 0.39062 0.85938 0.86719 0 0.48047-0.38281 0.86328-0.85938 0.86328-0.48047 0-0.87109-0.38281-0.87109-0.86328"/>
  <path d="m43.946 78.04c0-0.48047 0.39062-0.87109 0.87109-0.87109 0.47656 0 0.85938 0.39062 0.85938 0.87109 0 0.48047-0.38281 0.85937-0.85938 0.85937-0.48047 0-0.87109-0.37891-0.87109-0.85937"/>
  <path d="m43.946 63.641c0-0.48047 0.39062-0.87109 0.87109-0.87109 0.47656 0 0.85938 0.39062 0.85938 0.87109s-0.38281 0.85938-0.85938 0.85938c-0.48047 0-0.87109-0.37891-0.87109-0.85938"/>
  <path d="m43.946 34.84c0-0.48047 0.39062-0.87109 0.87109-0.87109 0.47656 0 0.85938 0.39062 0.85938 0.87109s-0.38281 0.85938-0.85938 0.85938c-0.48047 0-0.87109-0.37891-0.87109-0.85938"/>
  <path d="m43.946 20.438c0-0.47656 0.39062-0.86719 0.87109-0.86719 0.47656 0 0.85938 0.39062 0.85938 0.86719 0 0.48047-0.38281 0.86328-0.85938 0.86328-0.48047 0-0.87109-0.38281-0.87109-0.86328"/>
  <path d="m43.946 6.0397c0-0.48047 0.39062-0.87109 0.87109-0.87109 0.47656 0 0.85938 0.39062 0.85938 0.87109 0 0.48047-0.38281 0.85937-0.85938 0.85937-0.48047 0-0.87109-0.37891-0.87109-0.85937"/>
  <path d="m29.544 92.438c0-0.47656 0.39063-0.86719 0.87109-0.86719 0.48047 0 0.85938 0.39062 0.85938 0.86719 0 0.48047-0.37891 0.86328-0.85938 0.86328-0.48047 0-0.87109-0.38281-0.87109-0.86328"/>
  <path d="m29.544 78.04c0-0.48047 0.39063-0.87109 0.87109-0.87109 0.48047 0 0.85938 0.39062 0.85938 0.87109 0 0.48047-0.37891 0.85937-0.85938 0.85937-0.48047 0-0.87109-0.37891-0.87109-0.85937"/>
  <path d="m29.544 63.641c0-0.48047 0.39063-0.87109 0.87109-0.87109 0.48047 0 0.85938 0.39062 0.85938 0.87109s-0.37891 0.85938-0.85938 0.85938c-0.48047 0-0.87109-0.37891-0.87109-0.85938"/>
  <path d="m29.544 34.84c0-0.48047 0.39063-0.87109 0.87109-0.87109 0.48047 0 0.85938 0.39062 0.85938 0.87109s-0.37891 0.85938-0.85938 0.85938c-0.48047 0-0.87109-0.37891-0.87109-0.85938"/>
  <path d="m29.544 20.438c0-0.47656 0.39063-0.86719 0.87109-0.86719 0.48047 0 0.85938 0.39062 0.85938 0.86719 0 0.48047-0.37891 0.86328-0.85938 0.86328-0.48047 0-0.87109-0.38281-0.87109-0.86328"/>
  <path d="m29.544 6.0397c0-0.48047 0.39063-0.87109 0.87109-0.87109 0.48047 0 0.85938 0.39062 0.85938 0.87109 0 0.48047-0.37891 0.85937-0.85938 0.85937-0.48047 0-0.87109-0.37891-0.87109-0.85937"/>
  <path d="m15.145 106.84c0-0.48047 0.39062-0.87109 0.87109-0.87109s0.85938 0.39062 0.85938 0.87109-0.37891 0.85937-0.85938 0.85937-0.87109-0.3789-0.87109-0.85937"/>
  <path d="m15.145 92.438c0-0.47656 0.39062-0.86719 0.87109-0.86719s0.85938 0.39062 0.85938 0.86719c0 0.48047-0.37891 0.86328-0.85938 0.86328s-0.87109-0.38281-0.87109-0.86328"/>
  <path d="m15.145 63.641c0-0.48047 0.39062-0.87109 0.87109-0.87109s0.85938 0.39062 0.85938 0.87109-0.37891 0.85938-0.85938 0.85938-0.87109-0.37891-0.87109-0.85938"/>
  <path d="m15.145 6.0397c0-0.48047 0.39062-0.87109 0.87109-0.87109s0.85938 0.39062 0.85938 0.87109c0 0.48047-0.37891 0.85937-0.85938 0.85937s-0.87109-0.37891-0.87109-0.85937"/>
 </g>
 <g fill="none" stroke="#fff" stroke-linecap="round" stroke-miterlimit="10" stroke-opacity=".2" stroke-width=".72">
  <path d="m113.37 95.77-15.684 15.684"/>
  <path d="m97.684 111.45h-64.047"/>
  <path d="m33.638 111.45-3.3711-3.375"/>
  <path d="m99.224 95.77-6.3242 6.3242"/>
  <path d="m92.899 102.09h-43.25"/>
  <path d="m49.649 102.09-13.855-13.855"/>
  <path d="m120.45 95.77-44.043-44.039"/>
  <path d="m76.411 51.731h-38.059"/>
  <path d="m92.134 95.77-28.664-28.664"/>
  <path d="m63.47 67.106v-0.29297"/>
  <path d="m63.47 66.813-0.51172-0.50781"/>
  <path d="m62.958 66.305h-33.117"/>
  <path d="m17.348 53.813v-37.961"/>
  <path d="m29.841 66.305-12.492-12.492"/>
 </g>
 <g>
  <g stroke="#fff" stroke-linecap="round" stroke-miterlimit="10" stroke-width=".12">
   <path d="m40.325 108.08c0-0.54688 0.44922-0.98828 1-0.98828 0.53906 0 0.99219 0.4414 0.99219 0.98828 0 0.55078-0.45312 0.99219-0.99219 0.99219-0.55078 0-1-0.44141-1-0.99219"/>
   <path d="m36.645 108.08c0-0.54688 0.44141-0.98828 0.98828-0.98828 0.55078 0 0.99219 0.4414 0.99219 0.98828 0 0.55078-0.44141 0.99219-0.99219 0.99219-0.54688 0-0.98828-0.44141-0.98828-0.99219"/>
   <path d="m32.954 108.08c0-0.54688 0.45312-0.98828 1-0.98828 0.54297 0 0.99219 0.4414 0.99219 0.98828 0 0.55078-0.44922 0.99219-0.99219 0.99219-0.54688 0-1-0.44141-1-0.99219"/>
   <path d="m29.274 108.08c0-0.54688 0.44141-0.98828 0.99219-0.98828 0.55078 0 0.98828 0.4414 0.98828 0.98828 0 0.55078-0.4375 0.99219-0.98828 0.99219-0.55078 0-0.99219-0.44141-0.99219-0.99219"/>
  </g>
  <path d="m22.431 16.11c0.61328-0.10938 1.0234-0.69922 0.92578-1.3086-0.10937-0.62109-0.69922-1.0312-1.3203-0.92188l-9.7695 1.7188c-0.62109 0.11328-1.0312 0.70312-0.92188 1.3125 0.10938 0.62109 0.69922 1.0273 1.3125 0.91797l9.7773-1.7188"/>
 </g>
 <g fill="none" stroke="#fff" stroke-linecap="round" stroke-miterlimit="10" stroke-width=".12">
  <path d="m22.431 16.11c0.61328-0.10938 1.0234-0.69922 0.92578-1.3086-0.10938-0.62109-0.69922-1.0312-1.3203-0.92188"/>
  <path d="m22.036 13.876-9.7695 1.7227"/>
  <path d="m12.266 15.598c-0.62109 0.11328-1.0312 0.70312-0.92188 1.3125 0.10938 0.62109 0.69922 1.0273 1.3125 0.91797"/>
  <path d="m12.661 17.833 9.7695-1.7227"/>
 </g>
 <path d="m43.434 51.985c0.62109-0.10547 1.0312-0.69531 0.92187-1.3164-0.10937-0.61719-0.69922-1.0273-1.3125-0.91797l-9.7695 1.7188c-0.61719 0.10938-1.0273 0.69922-0.91797 1.3203 0.09766 0.60937 0.6875 1.0312 1.3086 0.92187l9.7695-1.7305"/>
 <g fill="none" stroke="#fff" stroke-linecap="round" stroke-miterlimit="10" stroke-width=".12">
  <path d="m43.434 51.985c0.62109-0.10547 1.0312-0.69531 0.92188-1.3164-0.10938-0.61719-0.69922-1.0273-1.3125-0.91797"/>
  <path d="m43.04 49.751-9.7695 1.7227"/>
  <path d="m33.27 51.473c-0.61328 0.10547-1.0234 0.69531-0.91406 1.3164 0.09766 0.60938 0.6875 1.0312 1.3086 0.92188"/>
  <path d="m33.665 53.708 9.7695-1.7227"/>
 </g>
 <g>
  <g stroke="#fff" stroke-linecap="round" stroke-miterlimit="10" stroke-width=".12">
   <path d="m32.677 88.239c0-1.7305 1.3984-3.1172 3.1172-3.1172 1.7227 0 3.1211 1.3867 3.1211 3.1172 0 1.7227-1.3984 3.1211-3.1211 3.1211-1.7188 0-3.1172-1.3984-3.1172-3.1211"/>
   <path d="m54.235 83.462c0-1.7227 1.3984-3.1211 3.1211-3.1211 1.7188 0 3.1172 1.3984 3.1172 3.1211 0 1.7188-1.3984 3.1172-3.1172 3.1172-1.7227 0-3.1211-1.3984-3.1211-3.1172"/>
   <path d="m11.114 83.462c0-1.7227 1.3906-3.1211 3.1211-3.1211 1.7188 0 3.1094 1.3984 3.1094 3.1211 0 1.7188-1.3906 3.1172-3.1094 3.1172-1.7305 0-3.1211-1.3984-3.1211-3.1172"/>
  </g>
  <path d="m169.83 16.11c0.61329-0.10938 1.0312-0.69922 0.92188-1.3086-0.10938-0.62109-0.69922-1.0312-1.3203-0.92188l-9.7695 1.7188c-0.60938 0.11328-1.0312 0.70312-0.91797 1.3125 0.10937 0.62109 0.69922 1.0273 1.3203 0.91797l9.7695-1.7188"/>
 </g>
 <g fill="none" stroke="#fff" stroke-linecap="round" stroke-miterlimit="10" stroke-width=".12">
  <path d="m169.83 16.11c0.61329-0.10938 1.0312-0.69922 0.92188-1.3086-0.10938-0.62109-0.69922-1.0312-1.3203-0.92188"/>
  <path d="m169.44 13.876-9.7695 1.7227"/>
  <path d="m159.67 15.598c-0.61328 0.11328-1.0352 0.70312-0.92187 1.3125 0.10937 0.62109 0.69922 1.0273 1.3203 0.91797"/>
  <path d="m160.06 17.833 9.7695-1.7227"/>
 </g>
 <path d="m190.84 51.985c0.61719-0.10547 1.0273-0.69531 0.91797-1.3164-0.10938-0.61719-0.69922-1.0273-1.3086-0.91797l-9.7695 1.7188c-0.62109 0.10938-1.0312 0.69922-0.92187 1.3203 0.10937 0.60937 0.69141 1.0312 1.3125 0.92187l9.7695-1.7305"/>
 <g fill="none" stroke="#fff" stroke-linecap="round" stroke-miterlimit="10" stroke-width=".12">
  <path d="m190.84 51.985c0.61719-0.10547 1.0273-0.69531 0.91797-1.3164-0.10938-0.61719-0.69922-1.0273-1.3086-0.91797"/>
  <path d="m190.44 49.751-9.7695 1.7227"/>
  <path d="m180.67 51.473c-0.61719 0.10547-1.0274 0.69531-0.91797 1.3164 0.10937 0.60938 0.69141 1.0312 1.3125 0.92188"/>
  <path d="m181.07 53.708 9.7695-1.7227"/>
 </g>
 <g stroke="#fff" stroke-linecap="round" stroke-miterlimit="10" stroke-width=".12">
  <path d="m180.08 88.239c0-1.7305 1.3984-3.1172 3.1211-3.1172 1.7188 0 3.1211 1.3867 3.1211 3.1172 0 1.7227-1.4023 3.1211-3.1211 3.1211-1.7227 0-3.1211-1.3984-3.1211-3.1211"/>
  <path d="m201.63 83.462c0-1.7227 1.4023-3.1211 3.1211-3.1211s3.1211 1.3984 3.1211 3.1211c0 1.7188-1.4023 3.1172-3.1211 3.1172s-3.1211-1.3984-3.1211-3.1172"/>
  <path d="m158.52 83.462c0-1.7227 1.3906-3.1211 3.1172-3.1211 1.7226 0 3.1133 1.3984 3.1133 3.1211 0 1.7188-1.3906 3.1172-3.1133 3.1172-1.7266 0-3.1172-1.3984-3.1172-3.1172"/>
  <path d="m98.786 95.77c0-0.23828 0.19922-0.42969 0.4375-0.42969 0.24219 0 0.43359 0.19141 0.43359 0.42969 0 0.23828-0.19141 0.42969-0.43359 0.42969-0.23828 0-0.4375-0.19141-0.4375-0.42969"/>
  <path d="m112.93 95.77c0-0.23828 0.1914-0.42969 0.42969-0.42969 0.24218 0 0.42968 0.19141 0.42968 0.42969 0 0.23828-0.1875 0.42969-0.42968 0.42969-0.23829 0-0.42969-0.19141-0.42969-0.42969"/>
  <path d="m91.704 95.77c0-0.23828 0.19141-0.42969 0.42969-0.42969 0.24219 0 0.43359 0.19141 0.43359 0.42969 0 0.23828-0.19141 0.42969-0.43359 0.42969-0.23828 0-0.42969-0.19141-0.42969-0.42969"/>
  <path d="m120.02 95.77c0-0.23828 0.19141-0.42969 0.42969-0.42969 0.24219 0 0.42969 0.19141 0.42969 0.42969 0 0.23828-0.1875 0.42969-0.42969 0.42969-0.23828 0-0.42969-0.19141-0.42969-0.42969"/>
  <path d="m202.79 106.84c0-0.24219 0.1875-0.42969 0.42969-0.42969 0.23828 0 0.42968 0.1875 0.42968 0.42969 0 0.23828-0.1914 0.42969-0.42968 0.42969-0.24219 0-0.42969-0.19141-0.42969-0.42969"/>
  <path d="m202.79 92.438c0-0.23828 0.1875-0.42969 0.42969-0.42969 0.23828 0 0.42968 0.19141 0.42968 0.42969 0 0.24219-0.1914 0.43359-0.42968 0.43359-0.24219 0-0.42969-0.19141-0.42969-0.43359"/>
  <path d="m202.79 63.641c0-0.24219 0.1875-0.42969 0.42969-0.42969 0.23828 0 0.42968 0.1875 0.42968 0.42969 0 0.23828-0.1914 0.42969-0.42968 0.42969-0.24219 0-0.42969-0.19141-0.42969-0.42969"/>
  <path d="m202.79 49.239c0-0.23828 0.1875-0.42969 0.42969-0.42969 0.23828 0 0.42968 0.19141 0.42968 0.42969 0 0.24219-0.1914 0.42969-0.42968 0.42969-0.24219 0-0.42969-0.1875-0.42969-0.42969"/>
  <path d="m202.79 34.84c0-0.24219 0.1875-0.42969 0.42969-0.42969 0.23828 0 0.42968 0.1875 0.42968 0.42969 0 0.23828-0.1914 0.42969-0.42968 0.42969-0.24219 0-0.42969-0.19141-0.42969-0.42969"/>
  <path d="m202.79 20.438c0-0.23828 0.1875-0.42969 0.42969-0.42969 0.23828 0 0.42968 0.19141 0.42968 0.42969 0 0.24219-0.1914 0.43359-0.42968 0.43359-0.24219 0-0.42969-0.19141-0.42969-0.43359"/>
  <path d="m202.79 6.0397c0-0.23828 0.1875-0.42969 0.42969-0.42969 0.23828 0 0.42968 0.19141 0.42968 0.42969 0 0.24219-0.1914 0.42969-0.42968 0.42969-0.24219 0-0.42969-0.1875-0.42969-0.42969"/>
  <path d="m188.38 106.84c0-0.24219 0.1914-0.42969 0.43359-0.42969 0.23828 0 0.42969 0.1875 0.42969 0.42969 0 0.23828-0.19141 0.42969-0.42969 0.42969-0.24219 0-0.43359-0.19141-0.43359-0.42969"/>
  <path d="m188.38 92.438c0-0.23828 0.1914-0.42969 0.43359-0.42969 0.23828 0 0.42969 0.19141 0.42969 0.42969 0 0.24219-0.19141 0.43359-0.42969 0.43359-0.24219 0-0.43359-0.19141-0.43359-0.43359"/>
  <path d="m188.38 78.04c0-0.23828 0.1914-0.42969 0.43359-0.42969 0.23828 0 0.42969 0.19141 0.42969 0.42969 0 0.24219-0.19141 0.42969-0.42969 0.42969-0.24219 0-0.43359-0.1875-0.43359-0.42969"/>
  <path d="m188.38 63.641c0-0.24219 0.1914-0.42969 0.43359-0.42969 0.23828 0 0.42969 0.1875 0.42969 0.42969 0 0.23828-0.19141 0.42969-0.42969 0.42969-0.24219 0-0.43359-0.19141-0.43359-0.42969"/>
  <path d="m188.38 34.84c0-0.24219 0.1914-0.42969 0.43359-0.42969 0.23828 0 0.42969 0.1875 0.42969 0.42969 0 0.23828-0.19141 0.42969-0.42969 0.42969-0.24219 0-0.43359-0.19141-0.43359-0.42969"/>
  <path d="m188.38 20.438c0-0.23828 0.1914-0.42969 0.43359-0.42969 0.23828 0 0.42969 0.19141 0.42969 0.42969 0 0.24219-0.19141 0.43359-0.42969 0.43359-0.24219 0-0.43359-0.19141-0.43359-0.43359"/>
  <path d="m188.38 6.0397c0-0.23828 0.1914-0.42969 0.43359-0.42969 0.23828 0 0.42969 0.19141 0.42969 0.42969 0 0.24219-0.19141 0.42969-0.42969 0.42969-0.24219 0-0.43359-0.1875-0.43359-0.42969"/>
  <path d="m173.99 106.84c0-0.24219 0.1914-0.42969 0.42969-0.42969 0.24218 0 0.42968 0.1875 0.42968 0.42969 0 0.23828-0.1875 0.42969-0.42968 0.42969-0.23829 0-0.42969-0.19141-0.42969-0.42969"/>
  <path d="m173.99 92.438c0-0.23828 0.1914-0.42969 0.42969-0.42969 0.24218 0 0.42968 0.19141 0.42968 0.42969 0 0.24219-0.1875 0.43359-0.42968 0.43359-0.23829 0-0.42969-0.19141-0.42969-0.43359"/>
  <path d="m173.99 78.04c0-0.23828 0.1914-0.42969 0.42969-0.42969 0.24218 0 0.42968 0.19141 0.42968 0.42969 0 0.24219-0.1875 0.42969-0.42968 0.42969-0.23829 0-0.42969-0.1875-0.42969-0.42969"/>
  <path d="m173.99 63.641c0-0.24219 0.1914-0.42969 0.42969-0.42969 0.24218 0 0.42968 0.1875 0.42968 0.42969 0 0.23828-0.1875 0.42969-0.42968 0.42969-0.23829 0-0.42969-0.19141-0.42969-0.42969"/>
  <path d="m173.99 49.239c0-0.23828 0.1914-0.42969 0.42969-0.42969 0.24218 0 0.42968 0.19141 0.42968 0.42969 0 0.24219-0.1875 0.42969-0.42968 0.42969-0.23829 0-0.42969-0.1875-0.42969-0.42969"/>
  <path d="m173.99 34.84c0-0.24219 0.1914-0.42969 0.42969-0.42969 0.24218 0 0.42968 0.1875 0.42968 0.42969 0 0.23828-0.1875 0.42969-0.42968 0.42969-0.23829 0-0.42969-0.19141-0.42969-0.42969"/>
  <path d="m173.99 20.438c0-0.23828 0.1914-0.42969 0.42969-0.42969 0.24218 0 0.42968 0.19141 0.42968 0.42969 0 0.24219-0.1875 0.43359-0.42968 0.43359-0.23829 0-0.42969-0.19141-0.42969-0.43359"/>
  <path d="m173.99 6.0397c0-0.23828 0.1914-0.42969 0.42969-0.42969 0.24218 0 0.42968 0.19141 0.42968 0.42969 0 0.24219-0.1875 0.42969-0.42968 0.42969-0.23829 0-0.42969-0.1875-0.42969-0.42969"/>
  <path d="m159.59 92.438c0-0.23828 0.1875-0.42969 0.42969-0.42969 0.23828 0 0.42969 0.19141 0.42969 0.42969 0 0.24219-0.19141 0.43359-0.42969 0.43359-0.24219 0-0.42969-0.19141-0.42969-0.43359"/>
  <path d="m159.59 63.641c0-0.24219 0.1875-0.42969 0.42969-0.42969 0.23828 0 0.42969 0.1875 0.42969 0.42969 0 0.23828-0.19141 0.42969-0.42969 0.42969-0.24219 0-0.42969-0.19141-0.42969-0.42969"/>
  <path d="m159.59 49.239c0-0.23828 0.1875-0.42969 0.42969-0.42969 0.23828 0 0.42969 0.19141 0.42969 0.42969 0 0.24219-0.19141 0.42969-0.42969 0.42969-0.24219 0-0.42969-0.1875-0.42969-0.42969"/>
  <path d="m159.59 34.84c0-0.24219 0.1875-0.42969 0.42969-0.42969 0.23828 0 0.42969 0.1875 0.42969 0.42969 0 0.23828-0.19141 0.42969-0.42969 0.42969-0.24219 0-0.42969-0.19141-0.42969-0.42969"/>
  <path d="m159.59 6.0397c0-0.23828 0.1875-0.42969 0.42969-0.42969 0.23828 0 0.42969 0.19141 0.42969 0.42969 0 0.24219-0.19141 0.42969-0.42969 0.42969-0.24219 0-0.42969-0.1875-0.42969-0.42969"/>
  <path d="m145.18 92.438c0-0.23828 0.1914-0.42969 0.42968-0.42969 0.24219 0 0.42969 0.19141 0.42969 0.42969 0 0.24219-0.1875 0.43359-0.42969 0.43359-0.23828 0-0.42968-0.19141-0.42968-0.43359"/>
  <path d="m145.18 78.04c0-0.23828 0.1914-0.42969 0.42968-0.42969 0.24219 0 0.42969 0.19141 0.42969 0.42969 0 0.24219-0.1875 0.42969-0.42969 0.42969-0.23828 0-0.42968-0.1875-0.42968-0.42969"/>
  <path d="m145.18 49.239c0-0.23828 0.1914-0.42969 0.42968-0.42969 0.24219 0 0.42969 0.19141 0.42969 0.42969 0 0.24219-0.1875 0.42969-0.42969 0.42969-0.23828 0-0.42968-0.1875-0.42968-0.42969"/>
  <path d="m145.18 34.84c0-0.24219 0.1914-0.42969 0.42968-0.42969 0.24219 0 0.42969 0.1875 0.42969 0.42969 0 0.23828-0.1875 0.42969-0.42969 0.42969-0.23828 0-0.42968-0.19141-0.42968-0.42969"/>
  <path d="m145.18 20.438c0-0.23828 0.1914-0.42969 0.42968-0.42969 0.24219 0 0.42969 0.19141 0.42969 0.42969 0 0.24219-0.1875 0.43359-0.42969 0.43359-0.23828 0-0.42968-0.19141-0.42968-0.43359"/>
  <path d="m145.18 6.0397c0-0.23828 0.1914-0.42969 0.42968-0.42969 0.24219 0 0.42969 0.19141 0.42969 0.42969 0 0.24219-0.1875 0.42969-0.42969 0.42969-0.23828 0-0.42968-0.1875-0.42968-0.42969"/>
  <path d="m130.79 92.438c0-0.23828 0.1875-0.42969 0.42969-0.42969 0.23828 0 0.42968 0.19141 0.42968 0.42969 0 0.24219-0.1914 0.43359-0.42968 0.43359-0.24219 0-0.42969-0.19141-0.42969-0.43359"/>
  <path d="m130.79 78.04c0-0.23828 0.1875-0.42969 0.42969-0.42969 0.23828 0 0.42968 0.19141 0.42968 0.42969 0 0.24219-0.1914 0.42969-0.42968 0.42969-0.24219 0-0.42969-0.1875-0.42969-0.42969"/>
  <path d="m130.79 63.641c0-0.24219 0.1875-0.42969 0.42969-0.42969 0.23828 0 0.42968 0.1875 0.42968 0.42969 0 0.23828-0.1914 0.42969-0.42968 0.42969-0.24219 0-0.42969-0.19141-0.42969-0.42969"/>
  <path d="m130.79 34.84c0-0.24219 0.1875-0.42969 0.42969-0.42969 0.23828 0 0.42968 0.1875 0.42968 0.42969 0 0.23828-0.1914 0.42969-0.42968 0.42969-0.24219 0-0.42969-0.19141-0.42969-0.42969"/>
  <path d="m130.79 20.438c0-0.23828 0.1875-0.42969 0.42969-0.42969 0.23828 0 0.42968 0.19141 0.42968 0.42969 0 0.24219-0.1914 0.43359-0.42968 0.43359-0.24219 0-0.42969-0.19141-0.42969-0.43359"/>
  <path d="m130.79 6.0397c0-0.23828 0.1875-0.42969 0.42969-0.42969 0.23828 0 0.42968 0.19141 0.42968 0.42969 0 0.24219-0.1914 0.42969-0.42968 0.42969-0.24219 0-0.42969-0.1875-0.42969-0.42969"/>
  <path d="m116.38 78.04c0-0.23828 0.1914-0.42969 0.43359-0.42969 0.23828 0 0.42969 0.19141 0.42969 0.42969 0 0.24219-0.19141 0.42969-0.42969 0.42969-0.24219 0-0.43359-0.1875-0.43359-0.42969"/>
  <path d="m116.38 63.641c0-0.24219 0.1914-0.42969 0.43359-0.42969 0.23828 0 0.42969 0.1875 0.42969 0.42969 0 0.23828-0.19141 0.42969-0.42969 0.42969-0.24219 0-0.43359-0.19141-0.43359-0.42969"/>
  <path d="m116.38 34.84c0-0.24219 0.1914-0.42969 0.43359-0.42969 0.23828 0 0.42969 0.1875 0.42969 0.42969 0 0.23828-0.19141 0.42969-0.42969 0.42969-0.24219 0-0.43359-0.19141-0.43359-0.42969"/>
  <path d="m116.38 20.438c0-0.23828 0.1914-0.42969 0.43359-0.42969 0.23828 0 0.42969 0.19141 0.42969 0.42969 0 0.24219-0.19141 0.43359-0.42969 0.43359-0.24219 0-0.43359-0.19141-0.43359-0.43359"/>
  <path d="m116.38 6.0397c0-0.23828 0.1914-0.42969 0.43359-0.42969 0.23828 0 0.42969 0.19141 0.42969 0.42969 0 0.24219-0.19141 0.42969-0.42969 0.42969-0.24219 0-0.43359-0.1875-0.43359-0.42969"/>
  <path d="m101.99 20.438c0-0.23828 0.19141-0.42969 0.42969-0.42969 0.24218 0 0.42968 0.19141 0.42968 0.42969 0 0.24219-0.1875 0.43359-0.42968 0.43359-0.23828 0-0.42969-0.19141-0.42969-0.43359"/>
  <path d="m101.99 6.0397c0-0.23828 0.19141-0.42969 0.42969-0.42969 0.24218 0 0.42968 0.19141 0.42968 0.42969 0 0.24219-0.1875 0.42969-0.42968 0.42969-0.23828 0-0.42969-0.1875-0.42969-0.42969"/>
  <path d="m87.587 106.84c0-0.24219 0.1875-0.42969 0.42969-0.42969 0.23828 0 0.42969 0.1875 0.42969 0.42969 0 0.23828-0.19141 0.42969-0.42969 0.42969-0.24219 0-0.42969-0.19141-0.42969-0.42969"/>
  <path d="m87.587 78.04c0-0.23828 0.1875-0.42969 0.42969-0.42969 0.23828 0 0.42969 0.19141 0.42969 0.42969 0 0.24219-0.19141 0.42969-0.42969 0.42969-0.24219 0-0.42969-0.1875-0.42969-0.42969"/>
  <path d="m87.587 20.438c0-0.23828 0.1875-0.42969 0.42969-0.42969 0.23828 0 0.42969 0.19141 0.42969 0.42969 0 0.24219-0.19141 0.43359-0.42969 0.43359-0.24219 0-0.42969-0.19141-0.42969-0.43359"/>
  <path d="m87.587 6.0397c0-0.23828 0.1875-0.42969 0.42969-0.42969 0.23828 0 0.42969 0.19141 0.42969 0.42969 0 0.24219-0.19141 0.42969-0.42969 0.42969-0.24219 0-0.42969-0.1875-0.42969-0.42969"/>
  <path d="m73.184 92.438c0-0.23828 0.19141-0.42969 0.42969-0.42969 0.24219 0 0.42969 0.19141 0.42969 0.42969 0 0.24219-0.1875 0.43359-0.42969 0.43359-0.23828 0-0.42969-0.19141-0.42969-0.43359"/>
  <path d="m73.184 63.641c0-0.24219 0.19141-0.42969 0.42969-0.42969 0.24219 0 0.42969 0.1875 0.42969 0.42969 0 0.23828-0.1875 0.42969-0.42969 0.42969-0.23828 0-0.42969-0.19141-0.42969-0.42969"/>
  <path d="m73.184 49.239c0-0.23828 0.19141-0.42969 0.42969-0.42969 0.24219 0 0.42969 0.19141 0.42969 0.42969 0 0.24219-0.1875 0.42969-0.42969 0.42969-0.23828 0-0.42969-0.1875-0.42969-0.42969"/>
  <path d="m73.184 34.84c0-0.24219 0.19141-0.42969 0.42969-0.42969 0.24219 0 0.42969 0.1875 0.42969 0.42969 0 0.23828-0.1875 0.42969-0.42969 0.42969-0.23828 0-0.42969-0.19141-0.42969-0.42969"/>
  <path d="m73.184 20.438c0-0.23828 0.19141-0.42969 0.42969-0.42969 0.24219 0 0.42969 0.19141 0.42969 0.42969 0 0.24219-0.1875 0.43359-0.42969 0.43359-0.23828 0-0.42969-0.19141-0.42969-0.43359"/>
  <path d="m73.184 6.0397c0-0.23828 0.19141-0.42969 0.42969-0.42969 0.24219 0 0.42969 0.19141 0.42969 0.42969 0 0.24219-0.1875 0.42969-0.42969 0.42969-0.23828 0-0.42969-0.1875-0.42969-0.42969"/>
  <path d="m58.786 92.438c0-0.23828 0.1875-0.42969 0.42969-0.42969 0.23828 0 0.42969 0.19141 0.42969 0.42969 0 0.24219-0.19141 0.43359-0.42969 0.43359-0.24219 0-0.42969-0.19141-0.42969-0.43359"/>
  <path d="m58.786 63.641c0-0.24219 0.1875-0.42969 0.42969-0.42969 0.23828 0 0.42969 0.1875 0.42969 0.42969 0 0.23828-0.19141 0.42969-0.42969 0.42969-0.24219 0-0.42969-0.19141-0.42969-0.42969"/>
  <path d="m58.786 49.239c0-0.23828 0.1875-0.42969 0.42969-0.42969 0.23828 0 0.42969 0.19141 0.42969 0.42969 0 0.24219-0.19141 0.42969-0.42969 0.42969-0.24219 0-0.42969-0.1875-0.42969-0.42969"/>
  <path d="m58.786 34.84c0-0.24219 0.1875-0.42969 0.42969-0.42969 0.23828 0 0.42969 0.1875 0.42969 0.42969 0 0.23828-0.19141 0.42969-0.42969 0.42969-0.24219 0-0.42969-0.19141-0.42969-0.42969"/>
  <path d="m58.786 20.438c0-0.23828 0.1875-0.42969 0.42969-0.42969 0.23828 0 0.42969 0.19141 0.42969 0.42969 0 0.24219-0.19141 0.43359-0.42969 0.43359-0.24219 0-0.42969-0.19141-0.42969-0.43359"/>
  <path d="m58.786 6.0397c0-0.23828 0.1875-0.42969 0.42969-0.42969 0.23828 0 0.42969 0.19141 0.42969 0.42969 0 0.24219-0.19141 0.42969-0.42969 0.42969-0.24219 0-0.42969-0.1875-0.42969-0.42969"/>
  <path d="m44.384 92.438c0-0.23828 0.19141-0.42969 0.43359-0.42969 0.23828 0 0.42969 0.19141 0.42969 0.42969 0 0.24219-0.19141 0.43359-0.42969 0.43359-0.24219 0-0.43359-0.19141-0.43359-0.43359"/>
  <path d="m44.384 78.04c0-0.23828 0.19141-0.42969 0.43359-0.42969 0.23828 0 0.42969 0.19141 0.42969 0.42969 0 0.24219-0.19141 0.42969-0.42969 0.42969-0.24219 0-0.43359-0.1875-0.43359-0.42969"/>
  <path d="m44.384 63.641c0-0.24219 0.19141-0.42969 0.43359-0.42969 0.23828 0 0.42969 0.1875 0.42969 0.42969 0 0.23828-0.19141 0.42969-0.42969 0.42969-0.24219 0-0.43359-0.19141-0.43359-0.42969"/>
  <path d="m44.384 34.84c0-0.24219 0.19141-0.42969 0.43359-0.42969 0.23828 0 0.42969 0.1875 0.42969 0.42969 0 0.23828-0.19141 0.42969-0.42969 0.42969-0.24219 0-0.43359-0.19141-0.43359-0.42969"/>
  <path d="m44.384 20.438c0-0.23828 0.19141-0.42969 0.43359-0.42969 0.23828 0 0.42969 0.19141 0.42969 0.42969 0 0.24219-0.19141 0.43359-0.42969 0.43359-0.24219 0-0.43359-0.19141-0.43359-0.43359"/>
  <path d="m44.384 6.0397c0-0.23828 0.19141-0.42969 0.43359-0.42969 0.23828 0 0.42969 0.19141 0.42969 0.42969 0 0.24219-0.19141 0.42969-0.42969 0.42969-0.24219 0-0.43359-0.1875-0.43359-0.42969"/>
  <path d="m29.985 92.438c0-0.23828 0.19141-0.42969 0.42969-0.42969 0.24219 0 0.42969 0.19141 0.42969 0.42969 0 0.24219-0.1875 0.43359-0.42969 0.43359-0.23828 0-0.42969-0.19141-0.42969-0.43359"/>
  <path d="m29.985 78.04c0-0.23828 0.19141-0.42969 0.42969-0.42969 0.24219 0 0.42969 0.19141 0.42969 0.42969 0 0.24219-0.1875 0.42969-0.42969 0.42969-0.23828 0-0.42969-0.1875-0.42969-0.42969"/>
  <path d="m29.985 63.641c0-0.24219 0.19141-0.42969 0.42969-0.42969 0.24219 0 0.42969 0.1875 0.42969 0.42969 0 0.23828-0.1875 0.42969-0.42969 0.42969-0.23828 0-0.42969-0.19141-0.42969-0.42969"/>
  <path d="m29.985 34.84c0-0.24219 0.19141-0.42969 0.42969-0.42969 0.24219 0 0.42969 0.1875 0.42969 0.42969 0 0.23828-0.1875 0.42969-0.42969 0.42969-0.23828 0-0.42969-0.19141-0.42969-0.42969"/>
  <path d="m29.985 20.438c0-0.23828 0.19141-0.42969 0.42969-0.42969 0.24219 0 0.42969 0.19141 0.42969 0.42969 0 0.24219-0.1875 0.43359-0.42969 0.43359-0.23828 0-0.42969-0.19141-0.42969-0.43359"/>
  <path d="m29.985 6.0397c0-0.23828 0.19141-0.42969 0.42969-0.42969 0.24219 0 0.42969 0.19141 0.42969 0.42969 0 0.24219-0.1875 0.42969-0.42969 0.42969-0.23828 0-0.42969-0.1875-0.42969-0.42969"/>
  <path d="m15.587 106.84c0-0.24219 0.1875-0.42969 0.42969-0.42969 0.23828 0 0.42969 0.1875 0.42969 0.42969 0 0.23828-0.19141 0.42969-0.42969 0.42969-0.24219 0-0.42969-0.19141-0.42969-0.42969"/>
  <path d="m15.587 92.438c0-0.23828 0.1875-0.42969 0.42969-0.42969 0.23828 0 0.42969 0.19141 0.42969 0.42969 0 0.24219-0.19141 0.43359-0.42969 0.43359-0.24219 0-0.42969-0.19141-0.42969-0.43359"/>
  <path d="m15.587 63.641c0-0.24219 0.1875-0.42969 0.42969-0.42969 0.23828 0 0.42969 0.1875 0.42969 0.42969 0 0.23828-0.19141 0.42969-0.42969 0.42969-0.24219 0-0.42969-0.19141-0.42969-0.42969"/>
  <path d="m15.587 6.0397c0-0.23828 0.1875-0.42969 0.42969-0.42969 0.23828 0 0.42969 0.19141 0.42969 0.42969 0 0.24219-0.19141 0.42969-0.42969 0.42969-0.24219 0-0.42969-0.1875-0.42969-0.42969"/>
 </g>
</svg>
