<svg width="43.24" height="43.24" version="1.1" viewBox="0 0 43.24 43.24" xmlns="http://www.w3.org/2000/svg">
 <defs>
  <clipPath id="a">
   <path d="m0 32h18v20.93h-18z"/>
  </clipPath>
 </defs>
 <g fill="none" stroke="#fff" stroke-linecap="round" stroke-miterlimit="10" stroke-width=".72">
  <path d="m0.36 42.879h42.52"/>
  <path d="m42.879 42.879v-42.52"/>
  <path d="m42.879 0.35909h-38.27"/>
 </g>
 <g transform="rotate(90,24.844,21.957)" clip-path="url(#a)">
  <path transform="matrix(1,0,0,-1,0,52.93)" d="M 3.2461,10.739 7.5,6.489" fill="none" stroke="#fff" stroke-linecap="round" stroke-miterlimit="10" stroke-width=".72"/>
 </g>
 <g stroke="#fff" stroke-linecap="round" stroke-miterlimit="10">
  <path d="m0.36 4.613v38.266" fill="none" stroke-width=".72"/>
  <path d="m7.875 11.656h-6.5039v-6.6211l3.6602-3.6602h36.832v40.492h-40.492v-10.324h6.5039c0.56641 0 1.0156-0.4492 1.0156-1.0078v-2.8438c0-0.5586-0.44922-1.0078-1.0195-1.0078h-6.5v-10.16h6.5c0.57031 0 1.0195-0.4609 1.0195-1.0195v-2.832c0-0.5586-0.44922-1.0195-1.0195-1.0195m21.875 5.8555h-2.2656c-0.5391 0.0039-0.9805 0.4141-1.0078 0.9453-0.25 0.0586-0.4805 0.1797-0.6602 0.3516h-7.7422c0-0.0118 0-0.0196-0.0078-0.043 0.0274-0.0898 0.0391-0.1875 0.0391-0.2773v-2.2695c0-0.5625-0.4492-1.0117-1.0117-1.0117h-4.5391c-0.5586 0-1.0117 0.4492-1.0117 1.0117v2.2695c0 0.0898 0.0117 0.1875 0.043 0.2773-0.0313 0.0898-0.043 0.1914-0.043 0.293v2.2578c0 0.1015 0.0117 0.1914 0.043 0.289-0.0313 0.0899-0.043 0.1836-0.043 0.2813v2.2695c0 0.0898 0.0117 0.1914 0.043 0.2812-0.0313 0.0899-0.043 0.1914-0.043 0.2813v2.2695c0 0.5586 0.4531 1.0195 1.0117 1.0195h3.6094l8.0195 8.0195c0.2617 0.2617 0.6094 0.4101 0.9727 0.4101h9.9883c0.371 0 0.7187-0.1484 0.9804-0.4101l0.7188-0.7188c0.2304-0.2304 0.3711-0.5429 0.4023-0.8632h0.1797c0.5586 0 1.0195-0.4571 1.0195-1.0195v-1.6993c0-0.1679-0.0508-0.3398-0.1289-0.5 0.0781-0.1484 0.1289-0.3203 0.1289-0.4882v-1.6992c0-0.1836-0.0508-0.3516-0.1289-0.5 0.0781-0.1524 0.1289-0.3203 0.1289-0.5v-1.7031c0-0.5586-0.4609-1.0078-1.0195-1.0078h-3.1211c-0.5586 0-1.0117 0.4492-1.0117 1.0078v1.7031c0 0.1797 0.043 0.3476 0.1328 0.5-0.0898 0.1484-0.1328 0.3164-0.1328 0.5v1.6992c0 0.1679 0.043 0.3398 0.1328 0.4882-0.0898 0.1602-0.1328 0.3321-0.1328 0.5v1.6993c0 0.0898 0.0117 0.1718 0.0313 0.2617h-2.5703c0.0195-0.0899 0.0312-0.1719 0.0312-0.2617v-1.6993c0-0.1679-0.0391-0.3398-0.1211-0.5 0.082-0.1484 0.1211-0.3203 0.1211-0.4882v-1.6992c0-0.1836-0.0391-0.3516-0.1211-0.5 0.082-0.1524 0.1211-0.3203 0.1211-0.5v-1.7031c0-0.4688-0.332-0.8789-0.7891-0.9883v-3.2812c0.25-0.0586 0.4688-0.2188 0.6094-0.4297 0.1797 0.2812 0.5 0.4609 0.8477 0.4609h2.2734c0.5586 0 1.0078-0.4609 1.0078-1.0195v-2.5508c0-0.5585-0.4492-1.0117-1.0078-1.0117h-2.2734c-0.3477 0-0.668 0.1719-0.8477 0.461-0.1914-0.2891-0.5117-0.461-0.8515-0.461" fill="#fff" fill-opacity=".2" stroke-linejoin="round" stroke-opacity=".2" stroke-width=".58"/>
  <path d="m26.379 21.558c0.0625-0.0039 0.1328-0.0039 0.2031-0.0156 0.1289 0.2617 0.3672 0.4492 0.6602 0.5195v3.2617h-0.5899c-0.5625 0-1.0117 0.4492-1.0117 1.0078v1.7031c0 0.1797 0.0391 0.3477 0.1289 0.5-0.0898 0.1485-0.1289 0.3164-0.1289 0.5v0.418l-7.4102-7.4102c-0.039-0.0391-0.0781-0.0703-0.1289-0.1094v-0.0508c0-0.0976-0.0117-0.1914-0.039-0.2812 0.0078-0.0196 0.0078-0.0274 0.0078-0.0469h8.3086" fill="#fff" fill-opacity=".2" stroke-linejoin="round" stroke-opacity=".2" stroke-width=".58"/>
 </g>
 <g fill="none" stroke="#fff" stroke-linecap="round" stroke-miterlimit="10" stroke-opacity=".2" stroke-width=".72">
  <path d="m4.617 12.679v-0.7344"/>
  <path d="m4.617 15.5v0.7344"/>
  <path d="m7.867 14.09h0.73438"/>
  <path d="m14.821 16.222v-0.7344"/>
  <path d="m17.082 17.347h0.7344"/>
  <path d="m12.559 17.347h-0.7344"/>
  <path d="m33.707 19.801h0.7383"/>
  <path d="m32.582 21.07v0.7344"/>
  <path d="m32.582 18.531v-0.7344"/>
  <path d="m34.313 27.187h-0.7344"/>
  <path d="m37.418 27.187h0.7344"/>
  <path d="m35.864 26.343v-0.7344"/>
  <path d="m4.617 27.703v-0.7344"/>
  <path d="m4.617 30.523v0.7344"/>
  <path d="m7.867 29.113h0.73438"/>
  <path d="m34.313 29.879h-0.7344"/>
  <path d="m37.418 29.879h0.7344"/>
 </g>
 <g fill="#fff" fill-opacity=".2">
  <path d="m29.746 18.523v2.5547h-2.2656v-2.5547z"/>
  <path d="m33.715 18.523v2.5547h-2.2656v-2.5547z"/>
  <path d="m1.356 12.672h6.5195v2.8359h-6.5195z"/>
  <path d="m12.555 19.051h4.5312v2.2656h-4.5312z"/>
  <path d="m12.555 16.215h4.5312v2.2656h-4.5312z"/>
  <path d="m12.555 21.883h4.5312v2.2695h-4.5312z"/>
  <path d="m12.555 24.718h4.5312v2.2656h-4.5312z"/>
  <path d="m1.356 27.695h6.5195v2.832h-6.5195z"/>
  <path d="m34.305 28.039v-1.7031h3.1172v1.7031z"/>
  <path d="m34.305 30.73v-1.6992h3.1172v1.6992z"/>
  <path d="m34.305 33.422v-1.6992h3.1172v1.6992z"/>
  <path d="m26.653 33.422v-1.6992h3.1172v1.6992z"/>
  <path d="m26.653 30.73v-1.6992h3.1172v1.6992z"/>
  <path d="m26.653 28.039v-1.7031h3.1172v1.7031z"/>
  <path d="m31.973 12.324c0.4766 0 0.8672-0.3906 0.8672-0.8711s-0.3906-0.8594-0.8672-0.8594c-0.4805 0-0.8633 0.3789-0.8633 0.8594s0.3828 0.8711 0.8633 0.8711"/>
  <path d="m15.77 31.043c0.4805 0 0.8711-0.3906 0.8711-0.8711s-0.3906-0.8594-0.8711-0.8594-0.8594 0.3789-0.8594 0.8594 0.3789 0.8711 0.8594 0.8711"/>
  <path d="m24.481 25.343c0.4687 0 0.8594-0.3906 0.8594-0.8594 0-0.4805-0.3907-0.8711-0.8594-0.8711-0.4805 0-0.8711 0.3906-0.8711 0.8711 0 0.4688 0.3906 0.8594 0.8711 0.8594"/>
 </g>
 <g fill="none" stroke="#fff" stroke-linecap="round" stroke-miterlimit="10">
  <g stroke-opacity=".2" stroke-width=".72">
   <path d="m14.821 20.183h11.559"/>
   <path d="m26.379 20.183 0.3828-0.3828"/>
   <path d="m26.762 19.801h1.8516"/>
   <path d="m28.613 19.801v6.9844"/>
   <path d="m28.613 26.785-0.4023 0.4023"/>
   <path d="m14.821 25.851h1.1328"/>
   <path d="m28.211 32.574h-1.3984"/>
   <path d="m26.813 32.574-9.5586-9.5586"/>
   <path d="m17.254 23.015h-2.4336"/>
   <path d="m15.953 25.851 9.2031 9.2031"/>
   <path d="m25.156 35.054h9.9883"/>
   <path d="m35.145 35.054 0.7187-0.7227"/>
   <path d="m35.864 34.332v-1.7578"/>
  </g>
  <g stroke-width=".43">
   <path d="m3.067 6.5896-0.15234-0.14453-0.22266-0.07812h-0.30078l-0.22656 0.07812-0.14844 0.14453v0.15234l0.07813 0.15234 0.07031 0.07031 0.15234 0.07813 0.44531 0.15234 0.15234 0.07031 0.07813 0.08203 0.07422 0.14453v0.23047l-0.15234 0.14844-0.22266 0.07422h-0.30078l-0.22656-0.07422-0.14844-0.14844"/>
   <path d="m4.383 6.3669v1.5781"/>
   <path d="m3.856 6.3669h1.0547"/>
   <path d="m5.699 6.3669v1.5781"/>
   <path d="m5.699 6.3669h0.98047"/>
   <path d="m5.699 7.1169h0.60547"/>
   <path d="m5.699 7.945h0.98047"/>
   <path d="m7.473 6.3669v1.5781"/>
   <path d="m7.473 6.3669 0.60547 1.5781"/>
   <path d="m8.672 6.3669-0.59375 1.5781"/>
   <path d="m8.672 6.3669v1.5781"/>
   <path d="m9.465 6.3669v1.5781"/>
   <path d="m9.465 6.3669 0.6055 1.5781"/>
   <path d="m10.668 6.3669-0.5977 1.5781"/>
   <path d="m10.668 6.3669v1.5781"/>
   <path d="m12.067 6.3669-0.6055 1.5781"/>
   <path d="m12.067 6.3669 0.5977 1.5781"/>
   <path d="m11.692 7.4177h0.75"/>
   <path d="m15.586 6.3669-0.1523 0.07813-0.1446 0.14453-0.0781 0.15234-0.0703 0.22266v0.38281l0.0703 0.22266 0.0781 0.15234 0.1446 0.14844 0.1523 0.07421h0.3047l0.1484-0.07421 0.1524-0.14844 0.0703-0.15234 0.0742-0.22266v-0.38281l-0.0742-0.22266-0.0703-0.15234-0.1524-0.14453-0.1484-0.07813z"/>
   <path d="m15.809 7.6403 0.4531 0.45312"/>
   <path d="m17.653 6.3669v1.5781"/>
   <path d="m17.125 6.3669h1.0547"/>
   <path d="m20.324 6.0661-1.3555 2.4023"/>
   <path d="m2.469 9.2028-0.15234 0.07422-0.15234 0.14844-0.07031 0.15234-0.07813 0.22266v0.37504l0.07813 0.2304 0.07031 0.1446 0.15234 0.1523 0.15234 0.0781h0.29297l0.15234-0.0781 0.15234-0.1523 0.07031-0.1446 0.07813-0.2304v-0.37504l-0.07813-0.22266-0.07031-0.15234-0.15234-0.14844-0.15234-0.07422z"/>
   <path d="m2.692 10.476 0.44531 0.4492"/>
   <path d="m4.008 9.2028 0.375 1.5781"/>
   <path d="m4.758 9.2028-0.375 1.5781"/>
   <path d="m4.758 9.2028 0.38281 1.5781"/>
   <path d="m5.512 9.2028-0.37109 1.5781"/>
   <path d="m6.305 9.2028v1.5781"/>
   <path d="m7.106 9.2028v1.5781"/>
   <path d="m9.028 9.5778-0.07813-0.15234-0.15234-0.14844-0.15234-0.07422h-0.29297l-0.15234 0.07422-0.15234 0.14844-0.07031 0.15234-0.07813 0.22266v0.37504l0.07813 0.2304 0.07031 0.1446 0.15234 0.1523 0.15234 0.0781h0.29297l0.15234-0.0781 0.15234-0.1523 0.07813-0.1446"/>
   <path d="m18.977 16.914-0.0703-0.1523-0.1524-0.1446-0.1523-0.0781h-0.293l-0.1523 0.0781-0.1523 0.1446-0.0703 0.1523-0.0782 0.2227v0.3789l0.0782 0.2265 0.0703 0.1485 0.1523 0.1523 0.1523 0.0742h0.293l0.1523-0.0742 0.1524-0.1523 0.0703-0.1485v-0.2265"/>
   <path d="m18.602 17.515h0.375"/>
   <path d="m19.77 16.539v1.5781"/>
   <path d="m19.77 16.539 1.0508 1.5781"/>
   <path d="m20.821 16.539v1.5781"/>
   <path d="m21.613 16.539v1.5781"/>
   <path d="m21.613 16.539h0.5234l0.2227 0.0781 0.1523 0.1446 0.0782 0.1523 0.0742 0.2227v0.3789l-0.0742 0.2265-0.0782 0.1485-0.1523 0.1523-0.2227 0.0742h-0.5234"/>
   <path d="m18.004 19.375h0.8281l-0.4531 0.5977h0.2227l0.1523 0.0781 0.0781 0.0742 0.0742 0.2227v0.1523l-0.0742 0.2227-0.1484 0.1484-0.2305 0.082h-0.2226l-0.2266-0.082-0.0703-0.0703-0.0781-0.1523"/>
   <path d="m19.778 20.578-0.082 0.0703 0.082 0.0742 0.0703-0.0742z"/>
   <path d="m20.793 19.375h0.8281l-0.457 0.5977h0.2265l0.1485 0.0781 0.082 0.0742 0.0703 0.2227v0.1523l-0.0703 0.2227-0.1523 0.1484-0.2227 0.082h-0.2305l-0.2226-0.082-0.0742-0.0703-0.0782-0.1523"/>
   <path d="m22.485 19.375 0.6055 1.5781"/>
   <path d="m23.688 19.375-0.5977 1.5781"/>
   <path d="m18.906 22.433-0.1523-0.1484-0.2227-0.0743h-0.3008l-0.2265 0.0743-0.1485 0.1484v0.1523l0.0782 0.1446 0.0703 0.0781 0.1523 0.0742 0.4453 0.1484 0.1523 0.0782 0.0782 0.0742 0.0742 0.1523v0.2227l-0.1523 0.1523-0.2227 0.0703h-0.3008l-0.2265-0.0703-0.1485-0.1523"/>
   <path d="m19.696 22.211v1.5703"/>
   <path d="m19.696 22.211h0.5273l0.2227 0.0742 0.1523 0.1485 0.0782 0.1523 0.0742 0.2227v0.375l-0.0742 0.2226-0.0782 0.1524-0.1523 0.1523-0.2227 0.0703h-0.5273"/>
   <path d="m22.145 22.211-0.6055 1.5703"/>
   <path d="m22.145 22.211 0.5977 1.5703"/>
   <path d="m21.77 23.254h0.75"/>
   <path d="m18.906 25.265-0.1523-0.1445-0.2227-0.0782h-0.3008l-0.2265 0.0782-0.1485 0.1445v0.1484l0.0782 0.1524 0.0703 0.0781 0.1523 0.0742 0.4453 0.1524 0.1523 0.0703 0.0782 0.0781 0.0742 0.1523v0.2227l-0.1523 0.1523-0.2227 0.0704h-0.3008l-0.2265-0.0704-0.1485-0.1523"/>
   <path d="m20.828 25.414-0.0781-0.1484-0.1524-0.1446-0.1523-0.0781h-0.293l-0.1523 0.0781-0.1524 0.1446-0.0703 0.1484-0.082 0.2305v0.375l0.082 0.2226 0.0703 0.1524 0.1524 0.1523 0.1523 0.0703h0.293l0.1523-0.0703 0.1524-0.1523 0.0781-0.1524"/>
   <path d="m21.621 25.043v1.5742"/>
   <path d="m21.621 26.617h0.8984"/>
   <path d="m24.141 36.605v1.5781"/>
   <path d="m23.613 36.605h1.0508"/>
   <path d="m25.457 36.605v1.5781"/>
   <path d="m25.457 36.605 0.6055 1.5781"/>
   <path d="m26.66 36.605-0.5977 1.5781"/>
   <path d="m26.66 36.605v1.5781"/>
   <path d="m28.059 36.605-0.6055 1.5781"/>
   <path d="m28.059 36.605 0.5937 1.5781"/>
   <path d="m27.684 37.66h0.7461"/>
   <path d="m30.578 36.98-0.082-0.1484-0.1485-0.1446-0.1523-0.082h-0.2969l-0.1484 0.082-0.1524 0.1446-0.0742 0.1484-0.0781 0.2266v0.3789l0.0781 0.2226 0.0742 0.1524 0.1524 0.1523 0.1484 0.0703h0.2969l0.1523-0.0703 0.1485-0.1523 0.082-0.1524v-0.2226"/>
   <path d="m30.196 37.586h0.3828"/>
   <path d="m32.27 36.605h-0.75l-0.0703 0.6797 0.0703-0.0781 0.2227-0.0743h0.2304l0.2227 0.0743 0.1523 0.1484 0.0703 0.2305v0.1445l-0.0703 0.2305-0.1523 0.1523-0.2227 0.0703h-0.2304l-0.2227-0.0703-0.0703-0.0781-0.082-0.1524"/>
   <path d="m33.289 36.98v-0.0703l0.0742-0.1524 0.0781-0.0703 0.1446-0.082h0.3047l0.1484 0.082 0.0742 0.0703 0.0781 0.1524v0.1523l-0.0781 0.1446-0.1523 0.2265-0.75 0.75h1.0508"/>
   <path d="m36.106 36.605-0.75 1.5781"/>
   <path d="m35.055 36.605h1.0508"/>
   <path d="m37.047 36.605h0.8281l-0.4531 0.6016h0.2266l0.1484 0.0781 0.0781 0.0703 0.0742 0.2305v0.1445l-0.0742 0.2305-0.1484 0.1523-0.2227 0.0703h-0.2304l-0.2266-0.0703-0.0703-0.0781-0.0781-0.1524"/>
   <path d="m39.348 36.605-0.6055 1.5781"/>
   <path d="m39.348 36.605 0.5977 1.5781"/>
   <path d="m38.973 37.66h0.75"/>
   <path d="m40.735 36.91 0.1523-0.0781 0.2227-0.2266v1.5781"/>
   <path d="m23.613 39.445v1.5742"/>
   <path d="m24.485 39.816v-0.0781l0.0742-0.1446 0.0782-0.0781 0.1445-0.0703h0.3008l0.1523 0.0703 0.0703 0.0781 0.082 0.1446v0.1523l-0.082 0.1524-0.1445 0.2226-0.7539 0.7539h1.0508"/>
   <path d="m27.379 39.816-0.0781-0.1484-0.1524-0.1524-0.1523-0.0703h-0.293l-0.1523 0.0703-0.1485 0.1524-0.0742 0.1484-0.0781 0.2266v0.375l0.0781 0.2265 0.0742 0.1446 0.1485 0.1523 0.1523 0.0781h0.293l0.1523-0.0781 0.1524-0.1523 0.0781-0.1446"/>
   <path d="m30.305 39.445-0.2266 0.0703-0.1484 0.2227-0.0742 0.3828v0.2226l0.0742 0.375 0.1484 0.2227 0.2266 0.0781h0.1484l0.2227-0.0781 0.1523-0.2227 0.0782-0.375v-0.2226l-0.0782-0.3828-0.1523-0.2227-0.2227-0.0703z"/>
   <path d="m31.699 39.968 0.8281 1.0508"/>
   <path d="m32.528 39.968-0.8281 1.0508"/>
   <path d="m33.473 39.445h0.8242l-0.4531 0.5977h0.2266l0.1484 0.0781 0.0781 0.0703 0.0742 0.2266v0.1484l-0.0742 0.2227-0.1484 0.1523-0.2227 0.0781h-0.2304l-0.2227-0.0781-0.0742-0.0703-0.0781-0.1524"/>
   <path d="m36.063 39.445h-0.75l-0.0703 0.6758 0.0703-0.0781 0.2227-0.0743h0.2343l0.2227 0.0743 0.1484 0.1484 0.0743 0.2266v0.1484l-0.0743 0.2227-0.1484 0.1523-0.2227 0.0781h-0.2343l-0.2227-0.0781-0.0703-0.0703-0.0781-0.1523"/>
  </g>
 </g>
 <path d="m36.532 5.6638 0.02734 0.019531 0.01953-0.00391 0.0039-0.03125-0.01172-0.73438-0.0039-0.8125 0.0039-0.80859 0.0078-0.28516-0.0039-0.20312-0.01563-0.074218-0.04687-0.023438-0.20313-0.015625-0.14453 0.00781-0.07031 0.011718-0.02344 0.027344-0.01563 0.039062-0.01172 0.089844-0.0078 0.83203 0.0078 0.80469-0.0078 0.023437-0.02344-0.00391-0.02734-0.027344-0.04297-0.039062-0.33594-0.33594-0.03125-0.023437-0.65234-0.65234-0.05078-0.042969-0.46484-0.46484-0.06641-0.050781-0.19141-0.19531-0.0625-0.050781h-0.03516l-0.01172 0.089844 0.0078 0.097656 0.01172 0.57812 0.0078 0.72266-0.0078 0.72266-0.01172 0.58984-0.0078 0.054687 0.0078 0.050782 0.01953 0.039062 0.02344 0.015625 0.04688 0.00781 0.21875 0.00781 0.12891-0.00391 0.0625-0.015625 0.02734-0.023437 0.0078-0.039063 0.0039-0.066406 0.0078-0.83203v-0.80859l0.02344 0.00391 0.03906 0.027344 0.22656 0.22656 0.08984 0.074219 0.38672 0.38672 0.06641 0.050781 0.25781 0.25781 0.05078 0.039062 0.33984 0.34375 0.05859 0.042969 0.23828 0.23828 0.07813 0.066406 0.03125 0.03125 0.05078 0.046875m-8.9922-0.058593 0.21875 0.011718 0.15625-0.00391 0.07422-0.015625 0.03516-0.019531v-0.17578l0.0039-0.19141 0.0078-0.28906v-0.26953h0.3008l0.32422-0.00781 0.15625-0.011719 0.05078-0.00781 0.05469-0.011719 0.15625-0.039062 0.14453-0.050782 0.05078-0.027344 0.04297-0.027343 0.05078-0.03125 0.06641-0.042969 0.10938-0.10938 0.05078-0.066406 0.03125-0.042969 0.03516-0.058594 0.02344-0.054687 0.03906-0.10156 0.01953-0.070312 0.01953-0.078125 0.01172-0.16797-0.0039-0.16016-0.01563-0.050782-0.01953-0.070312-0.02344-0.070312-0.02734-0.050782-0.02344-0.046875-0.05469-0.078125-0.03125-0.039062-0.0625-0.0625-0.06641-0.050782-0.05078-0.039062-0.05859-0.035156-0.08984-0.042969-0.05859-0.027344-0.08984-0.039062-0.04297-0.011719-0.04687-0.00781-0.05859-0.015626-0.07031-0.015624-0.05078-0.00781-0.11719-0.011719-0.20703-0.011718-0.46875-0.00781-0.46875 0.00781-0.03906 0.019531-0.01562 0.023437-0.01172 0.046875-0.0078 0.15234 0.0078 0.11719 0.0078 1.0938-0.0078 1.0977-0.01172 0.17969-0.0078 0.050782 0.01172 0.058593 0.01953 0.039063 0.02734 0.027344m0.50391-1.4766-0.0078-0.46484v-0.45702h0.35547l0.37109 0.00781 0.05859 0.011719 0.06641 0.019531 0.05078 0.019532 0.04297 0.019531 0.05469 0.03125 0.0625 0.039063 0.04687 0.046874 0.05078 0.074219 0.02734 0.046875 0.01563 0.078125 0.0078 0.10156-0.0078 0.066406-0.01563 0.050781-0.02734 0.050781-0.02734 0.039063-0.0625 0.0625-0.03516 0.027344-0.03516 0.019531-0.04687 0.027344-0.05078 0.023437-0.11719 0.039063-0.0625 0.011718-0.05859 0.00781-0.33594 0.00781-0.32031-0.00781m-3.6602 1.4688 0.21875 0.015625 0.58594 0.00391 0.79297-0.011718 0.03125-0.027344 0.02734-0.050782 0.01172-0.14844-0.0078-0.12891-0.01172-0.058594-0.02734-0.050781-0.03906-0.019532-0.33203-0.00781h-0.31641l0.0078-0.023438 0.02344-0.039062 0.03125-0.03125 0.05469-0.066406 0.0625-0.0625 0.05078-0.066406 0.03516-0.03125 0.02344-0.03125 0.03516-0.050782 0.05078-0.066406 0.04297-0.0625 0.03125-0.046875 0.05469-0.089844 0.02344-0.039062 0.02734-0.058594 0.05078-0.10156 0.02734-0.070312 0.02344-0.078125 0.01172-0.085937 0.0078-0.0625v-0.050788l-0.0078-0.078125-0.0039-0.066406-0.01953-0.054687-0.02734-0.085938-0.02344-0.058594-0.03516-0.042968-0.07031-0.10547-0.0625-0.0625-0.07813-0.066407-0.03906-0.023437-0.03906-0.019531-0.04297-0.027344-0.05469-0.023438-0.05469-0.019531-0.05859-0.015625-0.05078-0.019531-0.06641-0.011719-0.05078-0.00781-0.12109-0.00391-0.125 0.00391-0.05078 0.00781-0.05859 0.011719-0.11328 0.039063-0.05469 0.019531-0.03906 0.019531-0.08984 0.050781-0.09375 0.078125-0.02734 0.035156-0.01953 0.023438-0.03125 0.039062-0.03125 0.042969-0.02734 0.046875-0.02734 0.050782-0.02344 0.058593-0.01953 0.058594-0.01172 0.0625-0.01563 0.10547-0.0039 0.10938 0.0039 0.070312 0.01563 0.070313 0.01953 0.070312 0.01562 0.050782 0.01953 0.058593 0.02734 0.050781 0.02734 0.046876 0.03125 0.050781 0.03125 0.046875 0.02734 0.03125 0.04297 0.039062 0.05859 0.019532 0.04297-0.019532 0.03516-0.039062 0.03125-0.03125 0.07813-0.089844 0.02344-0.035156 0.01953-0.035156 0.01563-0.046876-0.01953-0.058593-0.03906-0.066407-0.03125-0.074218-0.01563-0.11719 0.0078-0.089844 0.0117-0.042968 0.02734-0.054688 0.03125-0.042968 0.03906-0.03125 0.03906-0.027344 0.04688-0.027344 0.0625-0.019531 0.07812-0.011719 0.08984-0.00781 0.0625 0.00781 0.05469 0.011719 0.05078 0.019531 0.03906 0.027344 0.03125 0.027344 0.03125 0.035156 0.03125 0.046875 0.02734 0.046875 0.01953 0.070312 0.01172 0.0625 0.0078 0.066406-0.0078 0.0625-0.01172 0.058594-0.01953 0.0625-0.02734 0.058594-0.02344 0.066406-0.05469 0.10156-0.03125 0.058593-0.03906 0.058594-0.03125 0.042969-0.02734 0.035156-0.03516 0.050781-0.03906 0.042969-0.02734 0.035157-0.03125 0.03125-0.0625 0.078124-0.61328 0.60938-0.02734 0.035156-0.01953 0.039062 0.0039 0.023438 0.02344 0.019531m13.355 0.039063 0.19922 0.00781 0.19141-0.00781 0.11719-0.027344 0.05859-0.019532 0.05859-0.023437 0.05078-0.027344 0.04297-0.023437 0.04687-0.035156 0.04297-0.039063 0.07813-0.0625 0.03906-0.050781 0.03906-0.046875 0.02734-0.039063 0.02344-0.042968 0.05469-0.10547 0.02344-0.0625 0.02734-0.089844 0.01953-0.11719 0.01172-0.12891 0.0078-0.050781-0.0078-0.050781-0.01172-0.12891-0.01563-0.066406-0.01953-0.070312-0.03516-0.10156-0.02734-0.058593-0.02734-0.046876-0.0625-0.09375-0.03906-0.046874-0.02734-0.023438-0.03125-0.027344-0.03125-0.03125-0.04687-0.039062-0.05859-0.039063-0.05469-0.03125-0.05469-0.027343-0.05859-0.027344-0.06641-0.019532-0.05469-0.011718-0.07813-0.011719-0.08984-0.00781-0.05078-0.00391h-0.0625l-0.07813 0.00391-0.05078 0.00781-0.04687 0.00781-0.05078 0.011718-0.11719 0.039063-0.05859 0.023437-0.05469 0.035156-0.05859 0.035157-0.06641 0.046875-0.07813 0.078125-0.03516 0.042969-0.06641 0.089843-0.03906 0.066407-0.03125 0.0625-0.02734 0.058593-0.01953 0.066407-0.01172 0.058593-0.01172 0.050781-0.01172 0.078126-0.0078 0.17187 0.0078 0.14844 0.01172 0.066406 0.01953 0.070313 0.03906 0.10938 0.01953 0.042968 0.01563 0.039063 0.03516 0.046875 0.03125 0.050781 0.03125 0.03125 0.05078 0.066407 0.05469 0.039062 0.0625 0.050781 0.05859 0.039063 0.04297 0.023437 0.05859 0.027344 0.06641 0.023437 0.0625 0.019532 0.05859 0.015625 0.04687 0.011719m0.09375-0.4375-0.04297-0.015626-0.05859-0.015624-0.04297-0.027344-0.03906-0.03125-0.03516-0.03125-0.03906-0.046875-0.03516-0.058594-0.03516-0.0625-0.01953-0.058594-0.01953-0.066406-0.01172-0.13281 0.0078-0.10937 0.01172-0.058594 0.01953-0.058594 0.03906-0.089844 0.03125-0.050781 0.03906-0.046875 0.03125-0.03125 0.04687-0.039062 0.0625-0.03125 0.07422-0.027344 0.12891-0.011719 0.10938 0.00391 0.05078 0.019531 0.05078 0.027344 0.03906 0.027344 0.03125 0.03125 0.05078 0.0625 0.02734 0.039062 0.02344 0.050782 0.02734 0.058594 0.01953 0.074218 0.01172 0.0625 0.0078 0.11719-0.0078 0.11328-0.01172 0.050781-0.01953 0.058594-0.02734 0.058594-0.03125 0.058594-0.03125 0.042968-0.03125 0.035156-0.03516 0.023438-0.04297 0.035156-0.07031 0.03125-0.08594 0.019532-0.10156 0.00781-0.06641-0.00781m2.332 0.38672 0.06641 0.011719 0.16016 0.00781 0.16016-0.00781 0.06641-0.019531 0.01563-0.12109 0.0039-0.30859 0.0078-0.42578 0.01172-0.066406 0.01953-0.070313 0.01953-0.050781 0.01953-0.042969 0.02344-0.054687 0.03516-0.042969 0.05078-0.066406 0.03125-0.03125 0.03906-0.03125 0.04297-0.027344 0.05859-0.027344 0.08594-0.019531 0.11328-0.00391 0.05859-0.00781 0.03125-0.027344 0.02734-0.074218 0.01172-0.066406 0.02734-0.11328 0.0078-0.089844v-0.07422l-0.03906-0.011719-0.12891-0.011719-0.10938 0.00391-0.05469 0.015626-0.05469 0.019531-0.05469 0.023437-0.03906 0.027344-0.03125 0.027344-0.0625 0.0625-0.03516 0.039062-0.02344 0.039063-0.02734 0.042969-0.03906 0.058593-0.01953 0.015625-0.01172-0.00781-0.01172-0.10547-0.01172-0.14062-0.0078-0.042969-0.0078-0.023437-0.01953-0.015625-0.05469-0.019531-0.16406-0.00781-0.10547 0.00391-0.05469 0.015625-0.02344 0.019532-0.0078 0.027343-0.0078 0.042969-0.0039 0.87891 0.0039 0.64453 0.01172 0.23047m-9.0625 0.023438 0.20703 0.00781 0.21094-0.011718 0.03906-0.039063 0.01563-0.36719 0.0039-1.0508-0.01172-1.4023-0.03516-0.027343-0.07422-0.019531-0.19531-0.00781-0.15234 0.00781-0.03906 0.019531-0.02734 0.058593-0.0078 0.65625 0.0078 0.62891 0.0078 0.13672-0.0078 0.13672-0.0078 0.61719 0.0078 0.45703 0.01953 0.16797 0.03906 0.03125m8.168-0.011724 0.06641 0.015625 0.14062 0.00391 0.14453-0.00391 0.06641-0.015625 0.02734-0.019531 0.0078-0.023438 0.0039-0.046875 0.0078-0.40625-0.0078-0.40625-0.0039-0.47656-0.0078-0.34375-0.01953-0.125-0.05859-0.019531-0.17969-0.00781-0.12109 0.00391-0.05859 0.015625-0.02734 0.027344-0.01172 0.039062-0.0078 0.42188-0.0039 0.40234-0.0078 0.45703 0.01172 0.46484 0.03906 0.042969m0.14062-2.293 0.08594 0.00781 0.08984-0.015625 0.04297-0.023438 0.05859-0.039062 0.04687-0.058594 0.02734-0.050781 0.01172-0.046875 0.0078-0.042969v-0.039073l-0.01563-0.054687-0.01953-0.050781-0.02344-0.039063-0.04687-0.039062-0.05078-0.03125-0.05078-0.023438-0.09766-0.011719-0.09766 0.015626-0.05859 0.035156-0.03516 0.03125-0.02734 0.039062-0.03125 0.050782-0.01563 0.042968-0.0039 0.066406 0.01172 0.097657 0.02734 0.042969 0.03125 0.039062 0.03125 0.035156 0.03125 0.023438 0.03906 0.019531 0.03125 0.019531m-9.1719 2.2852 0.10938 0.015626 0.10156-0.015626 0.05469-0.023437 0.04297-0.03125 0.03125-0.035156 0.02734-0.039063 0.01953-0.042968 0.01172-0.089844-0.0039-0.0625-0.01563-0.042969-0.03125-0.050781-0.03125-0.03125-0.03906-0.027344-0.05078-0.023438-0.06641-0.019531-0.07813-0.00781-0.07031 0.015625-0.05078 0.023437-0.05859 0.039063-0.04297 0.058594-0.02734 0.050781-0.01953 0.070312v0.070313l0.01953 0.050781 0.02734 0.046875 0.02344 0.027344 0.03516 0.023437 0.03516 0.027344 0.04687 0.023437m1.9062-0.00391 0.05078 0.011719 0.07422 0.00781 0.10156-0.015626 0.05078-0.023437 0.05859-0.046875 0.03906-0.050781 0.02344-0.050781 0.01562-0.097657-0.01953-0.097656-0.03516-0.050781-0.03516-0.039063-0.05859-0.03125-0.05859-0.023437-0.08984-0.015625-0.08984 0.015625-0.05078 0.023437-0.05859 0.039063-0.03906 0.042968-0.01953 0.039063-0.01953 0.050781-0.01172 0.058594v0.046875l0.01172 0.046875 0.03125 0.054688 0.05859 0.058593 0.07031 0.046875" fill="#fff"/>
 <path d="m24.317 9.0153 0.04687 0.00781 0.09766 0.00391 0.09375-0.00391 0.04297-0.00781 0.02734-0.039063 0.0078-0.42188 0.0039-0.40625 0.0039-0.039062 0.0039-0.019532h0.01172l0.01953 0.019532 0.02734 0.039062 0.02734 0.042969 0.04297 0.058594 0.02344 0.035156 0.01953 0.03125 0.02734 0.039063 0.04297 0.058593 0.05078 0.078125 0.02344 0.03125 0.10938 0.16406 0.03125 0.042969 0.01953 0.03125 0.05469 0.078124 0.01953 0.027344 0.02344 0.015625 0.02344 0.00781 0.02738-0.011716 0.01563-0.023437 0.05078-0.078126 0.01953-0.027343 0.03516-0.050781 0.01953-0.035157 0.02734-0.042969 0.05078-0.078124 0.08594-0.13672 0.02734-0.039063 0.01953-0.035156 0.01953-0.027344 0.01953-0.035156 0.02734-0.039062 0.04297-0.070313 0.02344-0.039063 0.02344-0.03125 0.01953-0.027343 0.01172-0.00781 0.0078 0.00781 0.0078 0.60938 0.0039 0.16797 0.0039 0.11719 0.0078 0.046875 0.02734 0.015625 0.13672 0.00781 0.09766-0.00391 0.04687-0.00781 0.01958-0.015621 0.0078-0.019531 0.0039-0.13672-0.0039-0.12891-0.0039-0.72656 0.0039-0.72656 0.0039-0.050782-0.0039-0.050781-0.0078-0.03125-0.0078-0.011719-0.01563-0.00391-0.02344 0.011719-0.05078 0.050781-0.02734 0.042969-0.02734 0.035156-0.01563 0.027344-0.05078 0.066406-0.04297 0.0625-0.02734 0.035156-0.12109 0.17188-0.04297 0.0625-0.01953 0.03125-0.05078 0.078125-0.02344 0.027344-0.03516 0.054687-0.01953 0.027344-0.05078 0.078125-0.02344 0.03125-0.03516 0.050781-0.01953 0.03125-0.0625 0.085938-0.04297 0.058594-0.02734 0.042968-0.02734 0.035157-0.02344 0.027343-0.01953 0.027344h-0.02344l-0.02344-0.03125-0.05469-0.085937-0.02734-0.03125-0.01953-0.035157-0.04297-0.0625-0.0625-0.085937-0.02344-0.042969-0.04297-0.058594-0.02344-0.035156-0.05078-0.074218-0.02344-0.03125-0.02344-0.039063-0.02344-0.035156-0.01563-0.027344-0.02344-0.027344-0.05078-0.078125-0.01953-0.03125-0.03516-0.050781-0.01953-0.03125-0.02734-0.039063-0.02344-0.027343-0.01563-0.023438-0.0625-0.089843-0.02734-0.039063-0.04297-0.058594-0.02734-0.03125-0.01563-0.019531-0.02734-0.023438h-0.02734l-0.01562 0.03125-0.0039 0.17969 0.0039 0.17188 0.0039 0.53906-0.0039 0.53516-0.0039 0.21875v0.20703l0.02734 0.011719m9.8164 0.00782 0.39062 0.00391 0.39453-0.00391 0.04297-0.00781 0.07031-0.00781 0.05469-0.011719 0.05078-0.015624 0.04297-0.011719 0.07422-0.035157 0.03516-0.015624 0.03125-0.019532 0.05078-0.03125 0.0625-0.0625 0.02344-0.027344 0.01953-0.03125 0.02344-0.039062 0.01563-0.039062 0.01953-0.042969 0.0078-0.042969 0.0039-0.03125 0.0039-0.089844-0.0039-0.089844-0.0078-0.035156-0.01172-0.03125-0.01953-0.035156-0.02344-0.042969-0.03516-0.042969-0.03516-0.03125-0.02734-0.019531-0.02734-0.027343-0.03906-0.027344-0.03516-0.019532-0.05859-0.035156-0.01563-0.00781v-0.01173l0.02734-0.027344 0.03125-0.027343 0.07813-0.078126 0.01953-0.023437 0.01563-0.03125 0.01953-0.03125 0.01172-0.03125 0.01172-0.042969 0.0078-0.042968 0.01172-0.035157 0.0039-0.078125-0.0078-0.074218-0.01953-0.066407-0.01563-0.039062-0.02344-0.039063-0.01953-0.03125-0.04297-0.042968-0.03125-0.023438-0.05859-0.042969-0.04297-0.023437-0.04687-0.015625-0.03906-0.015625-0.04687-0.015625-0.08984-0.019531-0.02734-0.00391-0.09375-0.011719-0.12891-0.00781-0.28516-0.00391-0.28125 0.00391-0.02734 0.015625-0.01562 0.027344-0.0039 0.88672-0.0078 0.875-0.0039 0.050781 0.01172 0.054687 0.01563 0.019532 0.01563 0.011718m0.33203-0.32422-0.0078-0.019532-0.0039-0.22266v-0.16016l0.01172-0.058594 0.03516-0.00391 0.13672 0.00391 0.12891-0.00391 0.02734-0.00391 0.03125 0.00391 0.11328 0.00781 0.04297 0.00781 0.04687 0.015625 0.03906 0.015625 0.03516 0.015625 0.03516 0.027344 0.03125 0.039062 0.01953 0.058594 0.0039 0.0625-0.0039 0.03125-0.01563 0.035156-0.01953 0.03125-0.02344 0.019531-0.02344 0.023438-0.03516 0.015625-0.03906 0.019531-0.04297 0.011719-0.05078 0.00781-0.0625 0.00781-0.05078 0.011719-0.1875 0.00391-0.17188-0.00391m0-0.80859-0.0078-0.015625-0.0039-0.23438v-0.21875h0.1875l0.20313 0.00391 0.05859 0.00781 0.07031 0.03125 0.0625 0.046876 0.02344 0.03125 0.01563 0.042968 0.0078 0.039063 0.0039 0.039062-0.0039 0.039063-0.0078 0.023437-0.01563 0.035157-0.03125 0.039062-0.03125 0.027344-0.02344 0.015625-0.07813 0.03125-0.04297 0.00781-0.07031 0.00781-0.17578 0.00391-0.14063-0.00391m5.7461 1.1602 0.03906 0.00391 0.03906-0.00391 0.09375-0.00781 0.03516-0.00391 0.03516-0.011719 0.07422-0.023437 0.03906-0.019531 0.03516-0.015625 0.06641-0.042969 0.03906-0.023438 0.02344-0.00391v0.050782l0.0078 0.054687 0.02734 0.015625 0.12891 0.00781 0.125-0.00391 0.02344-0.011718 0.01953-0.039063 0.0039-0.13281-0.0039-0.11719-0.0039-0.70312 0.0039-0.70312 0.0039-0.13281v-0.12109l-0.02344-0.019531-0.04688-0.011719-0.10156-0.00391-0.10156 0.00391-0.03516 0.00781-0.01953 0.027344-0.0078 0.40234v0.39062h-0.02344l-0.03516-0.011719-0.07813-0.046875-0.03906-0.015625-0.03516-0.015625-0.03906-0.011719-0.0625-0.011719-0.06641-0.00391-0.03906-0.00781h-0.02344l-0.10547 0.011718-0.02734 0.00391-0.03125 0.00781-0.07813 0.027344-0.05859 0.03125-0.02734 0.019531-0.03125 0.023438-0.07422 0.074218-0.02734 0.035157-0.03125 0.042969-0.01953 0.042968-0.03516 0.078125-0.01172 0.042969-0.0078 0.03125-0.01172 0.042969-0.01563 0.14062v0.039061l0.01562 0.14062 0.01172 0.03125 0.01172 0.039063 0.02734 0.070312 0.01562 0.039063 0.01953 0.039062 0.03906 0.058594 0.01953 0.019531 0.02344 0.027344 0.03516 0.03125 0.02734 0.015625 0.03125 0.023437 0.03125 0.019532 0.03516 0.019531 0.09375 0.03125 0.04297 0.00781 0.03516 0.00781m0.08594-0.32031-0.02734-0.00781-0.03125-0.011719-0.02734-0.011718-0.01953-0.015626-0.02344-0.015624-0.04297-0.042969-0.01563-0.023438-0.01953-0.027343-0.03906-0.085938-0.0078-0.039062-0.0039-0.035157-0.0039-0.050781 0.0039-0.050781 0.0078-0.042969 0.01563-0.042969 0.01172-0.03125 0.01172-0.027343 0.01953-0.023438 0.01953-0.027344 0.04297-0.042968 0.03125-0.019532 0.03906-0.023437 0.04297-0.011719 0.05078-0.00781 0.04297-0.00781h0.02344l0.10547 0.015625 0.03516 0.011719 0.03516 0.019531 0.03125 0.015625 0.02734 0.019531 0.01953 0.019532 0.01953 0.023437 0.01953 0.027344 0.02344 0.039062 0.01172 0.039063 0.0039 0.15625-0.0078 0.14453-0.01953 0.035156-0.01563 0.027344-0.01563 0.023437-0.04297 0.042969-0.02344 0.015625-0.01953 0.011719-0.03125 0.015625-0.03516 0.011719-0.05078 0.011719-0.10156 0.00391-0.07031-0.00391m-8.5312 6.5273 0.14453 0.0078 0.13672-0.0078 0.04297-0.0078 0.03906-0.0078 0.06641-0.01563 0.03516-0.01172 0.07812-0.03516 0.08594-0.05469 0.03125-0.02734 0.0625-0.0625 0.05078-0.0625 0.01953-0.02344 0.01172-0.03125 0.01563-0.03125 0.01953-0.03516 0.01172-0.03906 0.01172-0.03516 0.01563-0.03516 0.0078-0.03906 0.0078-0.03516 0.0078-0.05859 0.01172-0.07031 0.0039-0.05078 0.0039-0.03516 0.0039-0.03125-0.0039-0.02734-0.0078-0.09766-0.01172-0.06641-0.0078-0.0625-0.0078-0.03906-0.01172-0.04297-0.02734-0.07031-0.02734-0.05859-0.01563-0.03516-0.01563-0.03125-0.01953-0.01953-0.04297-0.0625-0.04297-0.04297-0.05859-0.04297-0.04687-0.03125-0.0625-0.03125-0.03516-0.01563-0.03125-0.0078-0.03906-0.01172-0.04687-0.01563-0.05078-0.0078-0.05469-0.0039-0.03125-0.0039-0.09766-0.0039-0.09375 0.0039-0.10156 0.0078-0.03516 0.0078-0.03906 0.01563-0.04297 0.01172-0.04687 0.01562-0.04297 0.02344-0.04297 0.02734-0.03906 0.02734-0.03125 0.02344-0.04297 0.04297-0.01953 0.02734-0.02734 0.03516-0.02344 0.04297-0.01953 0.03516-0.01562 0.03125-0.03516 0.09375-0.01172 0.04297-0.0078 0.03906-0.01172 0.05078-0.0078 0.05859-0.0039 0.03906-0.0039 0.03125-0.0039 0.11719 0.0039 0.11328 0.01563 0.13672 0.01172 0.03516 0.01172 0.04297 0.01563 0.04297 0.01953 0.04687 0.01563 0.03516 0.01563 0.03125 0.02344 0.03906 0.01953 0.03125 0.02734 0.03125 0.05078 0.05469 0.03125 0.02344 0.05859 0.04297 0.03516 0.02344 0.0625 0.02344 0.03516 0.01953 0.04297 0.01172 0.03125 0.0078 0.04297 0.0078 0.05078 0.01563m0.04297-0.375-0.02344-0.0039-0.03516-0.0039-0.03906-0.01563-0.03516-0.01563-0.02344-0.01563-0.02734-0.02344-0.01953-0.01563-0.02344-0.02344-0.02344-0.03906-0.02734-0.04297-0.01563-0.04297-0.01563-0.03125-0.0078-0.03516-0.0078-0.04297-0.0039-0.05078-0.0039-0.04297v-0.03516l0.0039-0.05078 0.0039-0.04297 0.0078-0.03906 0.01172-0.03906 0.01563-0.03125 0.01563-0.03906 0.02734-0.04297 0.01953-0.02734 0.01953-0.01953 0.04297-0.03516 0.02734-0.01953 0.04297-0.01563 0.03516-0.01172 0.03906-0.01172 0.05859-0.0078 0.04687-0.0039 0.03125-0.0039 0.03125 0.0039 0.04297 0.0039 0.04687 0.0078 0.08594 0.02734 0.03516 0.01563 0.02344 0.01563 0.02344 0.01953 0.01953 0.01953 0.05078 0.07031 0.03516 0.07813 0.02344 0.08594 0.0078 0.05078 0.0039 0.08984-0.0039 0.0625-0.0078 0.0625-0.01563 0.03906-0.01563 0.04297-0.01563 0.03125-0.02344 0.03516-0.02734 0.03906-0.02734 0.03125-0.02734 0.01562-0.02734 0.02344-0.03906 0.01953-0.03906 0.01563-0.03516 0.0078-0.04297 0.0078-0.11328 0.0039-0.08594-0.0039m-5.5977 0.37891 0.11719 0.0039 0.12891-0.0039 0.03516-0.0078 0.05078-0.01172 0.04297-0.0078 0.04297-0.01172 0.04297-0.01563 0.03516-0.01953 0.03906-0.01563 0.02734-0.01953 0.05859-0.04297 0.02344-0.01563 0.04297-0.04297 0.04297-0.05078 0.01563-0.02344 0.01563-0.02734 0.02344-0.03906 0.01563-0.03516 0.03516-0.07813 0.02344-0.08594 0.01172-0.03906 0.0078-0.04687 0.0039-0.03516 0.0078-0.12891 0.0039-0.03906-0.0039-0.03906-0.0078-0.13672-0.0039-0.03516-0.01562-0.0625-0.0039-0.03125-0.01172-0.03125-0.01172-0.03906-0.01563-0.04297-0.01953-0.03906-0.01563-0.03516-0.02734-0.04297-0.05078-0.07031-0.05078-0.05078-0.03125-0.02344-0.04297-0.03125-0.04297-0.02734-0.06641-0.03516-0.09375-0.02344-0.03516-0.01563-0.05469-0.0078-0.05469-0.0039-0.03906-0.0039-0.09375-0.0039-0.09375 0.0039-0.09375 0.0078-0.03906 0.0078-0.04297 0.01563-0.07813 0.02344-0.07812 0.04297-0.02344 0.01953-0.03125 0.01953-0.03125 0.02734-0.0625 0.06641-0.01953 0.01953-0.01563 0.03125-0.02734 0.03906-0.01563 0.03516-0.01172 0.03125-0.01953 0.03906-0.01172 0.04687-0.0078 0.03516-0.01172 0.04297-0.01563 0.05859-0.0039 0.04687-0.0039 0.03125-0.0078 0.15625v0.02344l0.0078 0.14844 0.0039 0.03516 0.0078 0.03906 0.01563 0.04297 0.0078 0.04297 0.01172 0.03906 0.01953 0.03906 0.02344 0.0625 0.02344 0.03125 0.02344 0.03906 0.02344 0.03125 0.01953 0.02344 0.02344 0.02344 0.01953 0.02344 0.02344 0.01563 0.02734 0.02734 0.04297 0.02344 0.03516 0.02344 0.07031 0.03516 0.04297 0.01563 0.05859 0.01172 0.04297 0.0078 0.03906 0.01172 0.03125 0.0078m0.01563-0.37891-0.02734-0.0039-0.03516-0.0078-0.07031-0.03125-0.03906-0.02734-0.03125-0.02344-0.01953-0.02344-0.01953-0.01953-0.03516-0.07031-0.01953-0.04297-0.01172-0.05078-0.0078-0.04297-0.0078-0.09375v-0.05078l0.0039-0.0625 0.0039-0.03516 0.0078-0.03516 0.01172-0.04297 0.01563-0.03516 0.01172-0.02734 0.01953-0.02734 0.03125-0.04297 0.03906-0.03516 0.03125-0.02344 0.02734-0.01562 0.03516-0.01172 0.04297-0.01563 0.05078-0.01172 0.04297-0.0039 0.07031-0.0078 0.03516 0.0039 0.07422 0.0078 0.03906 0.01172 0.04297 0.01563 0.03125 0.01172 0.03516 0.01953 0.03516 0.02734 0.01953 0.02734 0.01953 0.01953 0.01953 0.03125 0.02344 0.03125 0.01563 0.03906 0.01172 0.04687 0.01172 0.04297 0.0078 0.05469 0.0039 0.09375-0.0039 0.07813-0.0078 0.05859-0.01563 0.03906-0.01562 0.04688-0.04688 0.07812-0.02734 0.02734-0.01953 0.02344-0.02344 0.01563-0.03125 0.01953-0.03906 0.01953-0.04688 0.01953-0.0625 0.01172-0.12109 0.0039-0.08594-0.0039m1.4336-2.7461 0.12891 0.01172 0.12891-0.0078 0.03516-0.0078 0.05078-0.0078 0.04297-0.0078 0.04297-0.01172 0.04297-0.01953 0.03906-0.01563 0.04687-0.02734 0.08594-0.05859 0.07422-0.07422 0.01953-0.03125 0.05469-0.07422 0.01953-0.03906 0.01563-0.04297 0.01953-0.03906 0.01172-0.04687 0.01172-0.04297 0.01563-0.05078 0.0078-0.07031 0.0039-0.0625 0.0039-0.05078 0.0039-0.05469-0.0039-0.05469-0.0078-0.12891-0.0039-0.03516-0.0078-0.03906-0.02734-0.09375-0.01172-0.03906-0.01563-0.03516-0.03516-0.07813-0.02734-0.04297-0.01953-0.02734-0.01953-0.02344-0.0625-0.0625-0.02344-0.01953-0.05859-0.04297-0.03125-0.01563-0.06641-0.03516-0.04297-0.01172-0.03906-0.01172-0.04687-0.01563-0.05469-0.0078-0.04687-0.0039-0.03906-0.0039-0.09766-0.0039-0.09766 0.0039-0.09766 0.0078-0.06641 0.01953-0.03906 0.01172-0.04687 0.01563-0.07031 0.03516-0.02734 0.02344-0.02344 0.01563-0.03516 0.01953-0.05078 0.05469-0.02344 0.02734-0.02344 0.03125-0.01563 0.02734-0.01953 0.02734-0.03516 0.07031-0.01172 0.02734-0.0078 0.03125-0.01172 0.03906-0.01563 0.05859-0.01172 0.05469-0.0078 0.04687-0.0039 0.04297-0.0039 0.16406 0.0039 0.16016 0.0039 0.03516 0.0078 0.03906 0.01172 0.04687 0.01172 0.04297 0.01172 0.03516 0.01563 0.03906 0.01953 0.04297 0.01563 0.03516 0.04297 0.0625 0.02734 0.03516 0.08594 0.08594 0.01953 0.01563 0.03125 0.01953 0.03906 0.02344 0.07422 0.03906 0.04297 0.01953 0.0625 0.01172 0.04297 0.0078 0.02734 0.0039 0.03125 0.0078m0.02734-0.37109-0.02344-0.0039-0.02734-0.0039-0.03906-0.01563-0.03516-0.01563-0.06641-0.04297-0.03125-0.03906-0.02344-0.03125-0.01563-0.02734-0.03516-0.07031-0.02344-0.10156-0.0039-0.04687-0.0039-0.03906v-0.05469l0.0039-0.05859 0.0039-0.03516 0.01172-0.03906 0.01172-0.04297 0.01563-0.03906 0.02344-0.03906 0.01953-0.02734 0.02734-0.03516 0.03516-0.03125 0.02344-0.01563 0.03125-0.01953 0.03516-0.01172 0.04297-0.01172 0.05078-0.01172 0.04687-0.0039 0.03906-0.0078 0.03125-0.0039 0.02734 0.0039 0.07813 0.01172 0.03906 0.01172 0.04297 0.01172 0.03125 0.01172 0.03125 0.01953 0.03906 0.02344 0.03125 0.03906 0.02734 0.03906 0.01953 0.03516 0.01953 0.03906 0.01172 0.05078 0.01172 0.04297 0.01172 0.05078 0.0039 0.05469 0.0039 0.03125-0.0039 0.03516-0.01172 0.07813-0.0078 0.03516-0.01172 0.04297-0.01563 0.04297-0.01953 0.03516-0.04297 0.05859-0.04297 0.04297-0.05078 0.03516-0.03516 0.01563-0.04297 0.01172-0.03516 0.01172-0.02734 0.0039-0.10938 0.0039-0.09766-0.0039m5.5546 3.5156 0.02734 0.0078 0.03516-0.0078 0.03516-0.01953 0.04297-0.02344 0.07813-0.04297 0.02734-0.01563 0.03125-0.02344 0.07813-0.05078 0.03125-0.01953 0.0625-0.04297 0.07031-0.05078 0.01953-0.02344 0.04297-0.03516 0.10937-0.10547 0.02344-0.03125 0.03125-0.04297 0.03125-0.03906 0.01953-0.03516 0.01953-0.02344 0.05078-0.10547 0.02734-0.08203 0.01562-0.04297 0.0078-0.04687 0.01172-0.08984 0.0039-0.07813-0.0039-0.07422-0.0078-0.0625-0.0078-0.03125-0.01172-0.03906-0.01953-0.04297-0.01563-0.03516-0.01953-0.02734-0.01953-0.03125-0.02344-0.03125-0.08594-0.08594-0.04297-0.03516-0.02344-0.01562-0.03125-0.01563-0.03516-0.01953-0.04297-0.01953-0.03516-0.01172-0.04297-0.01563-0.05859-0.01563-0.0625-0.0078-0.10938-0.0039-0.09375 0.0039-0.0625 0.0078-0.03516 0.0078-0.03906 0.01563-0.07031 0.02344-0.03516 0.01953-0.03906 0.01953-0.02734 0.02344-0.07031 0.05078-0.01953 0.02344-0.03516 0.04297-0.02734 0.03125-0.02344 0.03906-0.01953 0.03516-0.01563 0.03906-0.01172 0.04297-0.01953 0.08594-0.0078 0.05078v0.07031l0.01172 0.06641 0.01563 0.05859 0.01172 0.03516 0.03516 0.07031 0.01563 0.02734 0.03516 0.04297 0.04297 0.04297 0.02344 0.01953 0.02734 0.01563 0.03125 0.02344 0.07422 0.03906 0.03516 0.01172 0.03516 0.0078 0.03906 0.01563 0.04297 0.0078 0.03125 0.0039 0.08594 0.0039 0.08594-0.0039 0.06641-0.01953 0.03906-0.0078h0.01949v0.0078l-0.01563 0.02344-0.03516 0.02734-0.03906 0.02734-0.02734 0.02344-0.02734 0.01562-0.06641 0.04297-0.03516 0.01953-0.0625 0.03125-0.03516 0.01953-0.03125 0.01563-0.07031 0.02734-0.07812 0.03516-0.02344 0.01563-0.01563 0.02734 0.0078 0.03516 0.01953 0.02734 0.05078 0.07031 0.02344 0.01953 0.03516 0.04297 0.01953 0.02344 0.01953 0.01953m0.22656-0.86328-0.03906-0.0039-0.04687-0.0039-0.03906-0.0078-0.04687-0.01953-0.03516-0.01953-0.03516-0.02734-0.02344-0.02734-0.01563-0.02734-0.01172-0.03516-0.0078-0.04297-0.0039-0.04297 0.0039-0.03125 0.0078-0.03125 0.01172-0.03125 0.03906-0.04687 0.02344-0.01563 0.02734-0.01953 0.03516-0.01563 0.07031-0.02344 0.04297-0.0078 0.08984-0.0039 0.07031 0.0039 0.04297 0.01172 0.04297 0.01953 0.03125 0.01172 0.02734 0.01953 0.04297 0.03125 0.01563 0.02344 0.01953 0.02344 0.01172 0.05078 0.0039 0.07422-0.0078 0.06641-0.01953 0.02734-0.01953 0.02344-0.02344 0.01563-0.02734 0.02344-0.03906 0.01953-0.04687 0.01953-0.0625 0.01172-0.06641 0.0078h-0.04295m-4.9844-4.918 0.14062 0.00781 0.13281-0.00781 0.03125-0.00781 0.03125-0.00391 0.03906-0.011719 0.04297-0.019531 0.03516-0.011719 0.05078-0.035156 0.03906-0.019531 0.03516-0.027344 0.08594-0.085938 0.01563-0.019531 0.03125-0.046875 0.03516-0.070312 0.01562-0.054688 0.01172-0.050781 0.0078-0.054687 0.0039-0.042969 0.0039-0.070313-0.0039-0.074218-0.0039-0.5-0.01172-0.49219-0.01563-0.015625-0.04687-0.015625-0.12109-0.00391-0.06641 0.00391-0.03125 0.00781-0.01563 0.019532-0.0078 0.027344-0.0078 0.019531-0.01172 0.00781-0.03906-0.015625-0.04297-0.027344-0.03906-0.019531-0.04297-0.019531-0.03906-0.00781-0.03516-0.011719-0.05078-0.00781-0.04297-0.00781-0.05859-0.00391-0.0625 0.00391-0.10547 0.035156-0.02734 0.015625-0.0625 0.042969-0.03516 0.023437-0.06641 0.066407-0.03125 0.042968-0.01953 0.023438-0.01563 0.03125-0.02344 0.035156-0.01562 0.035156-0.01172 0.03125-0.01953 0.046875-0.01172 0.058594-0.01172 0.039063-0.01172 0.054687-0.0039 0.054687-0.0039 0.050782 0.0078 0.10156 0.01172 0.050782 0.02344 0.085937 0.01953 0.042969 0.01563 0.039062 0.02344 0.03125 0.02344 0.042969 0.02344 0.03125 0.01563 0.023437 0.04297 0.042969 0.02734 0.019531 0.02344 0.019532 0.03125 0.019531 0.03516 0.023437 0.03906 0.015626 0.04687 0.015624 0.05859 0.015626 0.11719 0.00391 0.08983-0.00391 0.03125-0.015626 0.05078-0.015624 0.04297-0.019532 0.03516-0.027344 0.03125-0.027343 0.02344-0.019531 0.01953-0.015626 0.0078 0.00391 0.0039 0.015625 0.0078 0.054687-0.0078 0.046875-0.01172 0.03125-0.02344 0.039063-0.03125 0.027343-0.03125 0.015626-0.03906 0.015624-0.03516 0.011719-0.04297 0.00781-0.05078 0.00781-0.06641 0.00391-0.0625-0.00391-0.06641-0.00781-0.03125-0.00781-0.03516-0.015625-0.07422-0.035156-0.03516-0.015625-0.03516-0.00781-0.02734 0.00781-0.01563 0.015625-0.07031 0.085938-0.01563 0.027343-0.01172 0.03125 0.01172 0.03125 0.05078 0.054688 0.05078 0.042969 0.02734 0.015624 0.02734 0.011719 0.02344 0.019531 0.03906 0.015626 0.03516 0.019531 0.03906 0.011719 0.03906 0.00781 0.03125 0.011719m0.12109-0.75-0.03132-0.007773-0.04297-0.015625-0.03125-0.015625-0.02734-0.023437-0.04297-0.042969-0.01563-0.023438-0.03516-0.0625-0.01172-0.035156-0.01172-0.039062-0.0078-0.035156-0.0039-0.10156 0.0039-0.097656 0.03125-0.085938 0.01953-0.03125 0.03516-0.039062 0.03125-0.03125 0.02349-0.015629 0.03125-0.015625 0.04297-0.011719 0.05078-0.00781h0.05469l0.05078 0.00781 0.03125 0.011719 0.03125 0.019531 0.03906 0.023438 0.03125 0.03125 0.01563 0.023437 0.02344 0.027344 0.01953 0.042969 0.01172 0.042968 0.0078 0.16016-0.01172 0.15234-0.01563 0.039063-0.01562 0.03125-0.0625 0.0625-0.03125 0.023437-0.0625 0.03125-0.03125 0.00781-0.05078 0.00391-0.04297-0.00391m0.31641 0.15234 0.0078-0.00781h0.0039v0.00391l-0.01172 0.00391m0.44531 6.3594 0.14062 0.0039 0.14453-0.0078 0.02344-0.02734 0.0078-0.16797v-0.14844l0.02344-0.0039 0.04297-0.0078 0.03125 0.0078 0.03906 0.0039 0.03906-0.01172 0.02344-0.01953 0.01172-0.03516 0.0039-0.09766-0.0078-0.09375-0.01953-0.02734-0.04687-0.01172-0.08984-0.0039h-0.05078l-0.0039-0.02344-0.0039-0.36328 0.0039-0.35547 0.0039-0.12109-0.0039-0.08594-0.0078-0.04297-0.01563-0.01953-0.01953-0.0078-0.15234-0.0039-0.10547 0.0039-0.03906 0.0078-0.01953 0.02344-0.02344 0.02734-0.01953 0.03906-0.02344 0.03516-0.05078 0.08984-0.01563 0.03516-0.03516 0.0625-0.01562 0.03125-0.04688 0.07031-0.01562 0.03516-0.03516 0.05859-0.04297 0.07813-0.01562 0.03125-0.01953 0.02344-0.01563 0.03125-0.01563 0.03516-0.01953 0.02734-0.01953 0.03125-0.02344 0.04297-0.03516 0.05859-0.04297 0.07813-0.01563 0.03125-0.01563 0.02344-0.01953 0.03125-0.01563 0.03516-0.01953 0.03125-0.01953 0.02734-0.02344 0.03906-0.01563 0.03125-0.01563 0.03516-0.01172 0.04297 0.0078 0.01563 0.01172 0.0078 0.03125 0.01172 0.33594 0.0039h0.32818v0.14844l0.0039 0.11719 0.0078 0.05469 0.02344 0.02734m-0.32422-0.65234v-0.01953l0.02344-0.03516 0.05078-0.07422 0.02734-0.03516 0.01563-0.02734 0.02344-0.02734 0.02344-0.03906 0.08594-0.12109 0.02734-0.02734 0.0078 0.05078 0.0039 0.15234v0.20702h-0.14062l-0.14844-0.0039m8.4453 0.64453 0.04687 0.0078 0.10547 0.0039 0.10156-0.0039 0.04687-0.0078 0.01956-0.01563v-0.32422l0.02344-0.0039 0.04297-0.0078 0.03516 0.0078 0.04297 0.0039 0.03906-0.01172 0.01953-0.02344 0.01172-0.03906v-0.15625l-0.01172-0.04297-0.01953-0.01563-0.03125-0.0078-0.09375-0.0039h-0.05859v-0.86719l-0.01172-0.12891-0.01953-0.01953-0.15625-0.0078-0.10937 0.0039-0.04688 0.0078-0.01953 0.02344-0.01563 0.01953-0.03125 0.0625-0.01953 0.02734-0.01953 0.03125-0.01953 0.03516-0.01562 0.03125-0.10547 0.19141-0.01953 0.03516-0.04297 0.07031-0.01563 0.03125-0.01953 0.03125-0.01562 0.02734-0.05078 0.08984-0.01953 0.03125-0.03125 0.0625-0.04687 0.07813-0.02344 0.04297-0.01562 0.02734-0.02344 0.03125-0.01953 0.03906-0.01953 0.03125-0.01563 0.03125-0.03516 0.0625-0.01953 0.03906-0.02734 0.03906-0.01172 0.04297 0.0039 0.01563 0.01563 0.01172 0.03516 0.01563 0.33594 0.0039h0.32031l0.0039 0.02734 0.0039 0.16406v0.13281l0.02343 0.01563m-0.32031-0.64453v-0.01953l0.01562-0.01953 0.0625-0.08984 0.02734-0.03906 0.0625-0.08984 0.03516-0.05469 0.02734-0.03125 0.03125-0.04297 0.01172-0.01563 0.01172-0.0039 0.01172 0.05469v0.34375l-0.01953 0.0078-0.14844 0.0039-0.12891-0.0039m-9.8086 0.64062 0.14453 0.01172 0.39453 0.0039 0.39062-0.0039 0.14453-0.0078 0.01953-0.01563 0.0078-0.01953 0.0078-0.03516 0.0039-0.08203-0.0039-0.08203-0.0078-0.03906-0.01953-0.03125-0.02344-0.01563-0.22266-0.0039h-0.21094l0.0039-0.01563 0.01563-0.02734 0.04297-0.04297 0.04297-0.05078 0.02344-0.02344 0.06641-0.08594 0.07813-0.10156 0.03125-0.04297 0.01953-0.03906 0.02344-0.03516 0.04687-0.09375 0.01563-0.04297 0.01563-0.03906 0.01172-0.03516 0.0078-0.05078 0.0039-0.05078v-0.03516l-0.0039-0.05078-0.0039-0.04297-0.0078-0.03125-0.01172-0.03125-0.01563-0.03906-0.01172-0.03125-0.02344-0.03125-0.02344-0.04297-0.07031-0.07031-0.04297-0.03516-0.02344-0.01953-0.03516-0.01953-0.04297-0.02344-0.03906-0.01563-0.04687-0.01172-0.04297-0.01562-0.03906-0.0078-0.03906-0.0039-0.08203-0.0039-0.08203 0.0039-0.03516 0.0039-0.03906 0.0078-0.07422 0.02734-0.03516 0.01172-0.02734 0.01563-0.05859 0.03125-0.04297 0.03516-0.01562 0.01953-0.01953 0.01953-0.01953 0.02344-0.02344 0.02344-0.01563 0.02734-0.01953 0.03125-0.01563 0.03125-0.01172 0.03125-0.01563 0.03516-0.01172 0.05469-0.0078 0.07813-0.0039 0.06641 0.0039 0.04297 0.0078 0.05078 0.01172 0.04687 0.01563 0.03125 0.01172 0.03906 0.01563 0.03516 0.01953 0.03125 0.01953 0.03516 0.02734 0.02734 0.01953 0.02734 0.03125 0.02344 0.04297 0.0078 0.01953-0.01172 0.01563-0.01563 0.07813-0.08984 0.01953-0.03125 0.01172-0.03516v-0.03125l-0.01172-0.03125-0.01953-0.03125-0.01953-0.04297-0.0078-0.03516-0.0039-0.05469 0.0039-0.05469 0.01172-0.03906 0.01953-0.03516 0.01563-0.01953 0.02734-0.02344 0.02344-0.01563 0.03125-0.01953 0.04297-0.01172 0.05859-0.0078 0.0625-0.0039 0.03516 0.0039 0.03516 0.0078 0.03125 0.01172 0.02734 0.01953 0.01953 0.01563 0.02734 0.03125 0.02734 0.03906 0.01563 0.04297 0.01172 0.05469 0.0039 0.05469-0.0039 0.03906-0.0078 0.03906-0.01172 0.04297-0.01953 0.04297-0.01563 0.03906-0.03516 0.07031-0.01563 0.02734-0.02344 0.03516-0.01953 0.03125-0.05078 0.06641-0.03516 0.04297-0.02344 0.02344-0.05078 0.05859-0.40625 0.41016-0.01953 0.01953-0.01172 0.02344 0.0039 0.01172 0.01172 0.01953m-3.0664 0.0039 0.14453 0.0078 0.39453 0.0039 0.52734-0.0078 0.01953-0.01953 0.01953-0.03125 0.0078-0.10156-0.0039-0.08594-0.0078-0.03906-0.01953-0.03125-0.02344-0.01563-0.22266-0.0039h-0.21094l0.0039-0.01563 0.01563-0.02734 0.02344-0.01953 0.03125-0.04297 0.04297-0.04688 0.03516-0.04297 0.02344-0.01953 0.01563-0.02344 0.02344-0.03125 0.0625-0.08594 0.02344-0.03125 0.03125-0.05859 0.01953-0.02734 0.01563-0.03906 0.03516-0.06641 0.01563-0.04687 0.01953-0.05469 0.0078-0.05469 0.0039-0.04297v-0.03516l-0.0039-0.05078-0.0039-0.04297-0.01172-0.03906-0.01953-0.05469-0.01563-0.03906-0.02344-0.03125-0.02344-0.03516-0.02344-0.03125-0.04297-0.04297-0.05078-0.04297-0.02734-0.01953-0.05469-0.02734-0.03516-0.01953-0.03906-0.01172-0.03516-0.0078-0.03516-0.01562-0.04297-0.0078-0.03516-0.0039-0.08203-0.0039-0.08203 0.0039-0.03516 0.0039-0.03516 0.0078-0.07813 0.02734-0.03516 0.01172-0.02734 0.01563-0.05859 0.03125-0.0625 0.05469-0.01953 0.01953-0.01172 0.01953-0.02344 0.02344-0.03906 0.0625-0.01563 0.03125-0.03125 0.07813-0.0078 0.04297-0.0078 0.07031-0.0039 0.07031 0.0039 0.04687 0.0078 0.05078 0.01172 0.04687 0.01563 0.03125 0.01172 0.03906 0.01563 0.03516 0.01953 0.03125 0.01953 0.03516 0.02344 0.02734 0.01563 0.02344 0.03125 0.02344 0.03906 0.01563 0.03125-0.01563 0.01953-0.02344 0.02344-0.02344 0.05078-0.05859 0.01563-0.02344 0.01172-0.02344 0.01172-0.03125-0.01563-0.03906-0.02344-0.04297-0.02344-0.05078-0.0078-0.07813 0.0039-0.05859 0.0078-0.03125 0.01953-0.03516 0.01953-0.02734 0.02734-0.02344 0.02344-0.01563 0.03125-0.01953 0.04297-0.01172 0.05078-0.0078 0.0625-0.0039 0.04297 0.0039 0.03125 0.0078 0.03516 0.01172 0.02734 0.01953 0.01953 0.01563 0.02344 0.02734 0.01953 0.03125 0.01953 0.02734 0.01172 0.04687 0.0078 0.04297 0.0039 0.04297-0.0039 0.04297-0.0078 0.03906-0.01172 0.04297-0.01953 0.03906-0.01563 0.04297-0.03516 0.07031-0.01953 0.03516-0.02734 0.03906-0.01953 0.03125-0.01953 0.02344-0.02344 0.03125-0.02734 0.03125-0.01563 0.01953-0.02344 0.02344-0.04297 0.05078-0.40625 0.41016-0.01953 0.01953-0.01172 0.02734v0.01566l0.01563 0.01563m11.207 0.0039 0.53125 0.0078 0.53125-0.0078 0.01953-0.02344 0.01172-0.04297 0.0039-0.09766-0.0039-0.08203-0.0039-0.03125-0.01172-0.02344-0.02344-0.01953-0.22656-0.0078h-0.21875l0.0039-0.01563 0.01563-0.02734 0.04297-0.04297 0.05469-0.05859 0.01953-0.02344 0.02734-0.03516 0.02344-0.02734 0.03516-0.04297 0.06641-0.08984 0.05078-0.07813 0.05469-0.11328 0.01953-0.03906 0.01563-0.04297 0.01172-0.05469 0.01172-0.05859 0.0039-0.05859-0.0039-0.03516-0.01172-0.07031-0.0078-0.03516-0.01172-0.03516-0.02734-0.05859-0.01953-0.03516-0.03125-0.04297-0.07422-0.07422-0.04297-0.03125-0.02344-0.01953-0.0625-0.03516-0.03516-0.01172-0.03125-0.0078-0.03906-0.01172-0.04687-0.01563-0.05469-0.0078-0.08984-0.0039-0.07031 0.0039-0.03906 0.0039-0.03906 0.0078-0.07813 0.02734-0.05859 0.02734-0.07031 0.04297-0.03516 0.02344-0.05078 0.05078-0.01953 0.02734-0.04297 0.07031-0.01953 0.02734-0.01172 0.03516-0.0078 0.03516-0.01172 0.03906-0.01172 0.05469-0.0039 0.04297-0.0039 0.04687 0.0039 0.04687 0.01953 0.07813 0.01172 0.04297 0.01563 0.04687 0.01953 0.03906 0.01562 0.03516 0.01953 0.02344 0.03125 0.04297 0.02344 0.02344 0.01953 0.01563 0.03125 0.01563 0.03516-0.0078 0.01953-0.01953 0.03516-0.04297 0.02344-0.02344 0.01953-0.02344 0.02344-0.03516 0.01563-0.03906-0.0039-0.02734-0.02344-0.03125-0.01953-0.04297-0.01953-0.05078-0.0078-0.0625 0.0039-0.04297 0.01171-0.03125 0.01172-0.03516 0.01563-0.02734 0.04297-0.04297 0.02344-0.01563 0.02734-0.01562 0.04687-0.01172 0.05469-0.0078 0.05078-0.0039 0.04297 0.0039 0.03516 0.0078 0.03125 0.01172 0.02734 0.01953 0.03516 0.02344 0.02344 0.03125 0.01563 0.02734 0.01172 0.02734 0.0078 0.03125 0.0078 0.04297 0.0078 0.06641-0.0078 0.04687-0.01172 0.04297-0.01563 0.05078-0.01953 0.04297-0.03125 0.06641-0.02734 0.04297-0.05078 0.07812-0.02734 0.03516-0.03516 0.04297-0.04297 0.04297-0.02344 0.03516-0.4375 0.4375-0.01563 0.02734v0.02344l0.02344 0.02344m2.1172-6.2187 0.11328 0.00781 0.10156-0.00391 0.04687-0.00781 0.04687-0.015625 0.08984-0.039062 0.02734-0.011719 0.05859-0.039063 0.03125-0.019531 0.03516-0.027344 0.03125-0.011719 0.01172 0.015626 0.0039 0.042968 0.0039 0.046875 0.01172 0.027344 0.04687 0.011719 0.10547 0.00391 0.10156-0.00391 0.04297-0.011719 0.0078-0.082031 0.0039-0.21094-0.0039-0.28906-0.0039-0.32031-0.0039-0.23438-0.01172-0.082031-0.03906-0.015625-0.11328-0.00391-0.07422 0.00391-0.03516 0.00781-0.01953 0.019532-0.0078 0.027344-0.0039 0.046874-0.01172 0.023438h-0.03125l-0.02734-0.019533-0.01953-0.019531-0.02344-0.011719-0.02344-0.015625-0.03125-0.019532-0.03516-0.015624-0.04297-0.019532-0.05078-0.015625-0.06641-0.011719-0.10938-0.00391-0.08203 0.00391-0.03516 0.00781-0.04687 0.011719-0.04297 0.019531-0.03906 0.019531-0.04297 0.027344-0.02734 0.023438-0.04297 0.035156-0.02344 0.023437-0.01953 0.023438-0.03906 0.054687-0.02344 0.039063-0.03516 0.070312-0.01563 0.042969-0.01172 0.042969-0.01172 0.039062-0.0078 0.035157-0.0078 0.050781-0.0039 0.046875-0.0039 0.03125-0.0039 0.046875 0.0039 0.046878 0.0078 0.085937 0.01563 0.074219 0.01563 0.039062 0.01563 0.042969 0.03906 0.078125 0.02344 0.03125 0.02344 0.035156 0.05078 0.050782 0.03125 0.027344 0.07813 0.046874 0.04297 0.015626 0.08594 0.027343m0.19922-0.28906-0.02344-0.00391-0.03516-0.011718-0.05469-0.023438-0.03516-0.023437-0.02734-0.023438-0.02344-0.023437-0.01953-0.023438-0.02344-0.035156-0.01953-0.039062-0.01953-0.046876-0.01172-0.066406-0.0039-0.074218 0.0039-0.050782 0.0078-0.035156 0.01172-0.039062 0.03516-0.070313 0.01953-0.019531 0.0625-0.066406 0.02734-0.015626 0.03125-0.015624 0.04687-0.019532 0.05859-0.00781 0.03906-0.00391h0.01953l0.07813 0.00781 0.03906 0.011719 0.04297 0.019531 0.03906 0.019531 0.02734 0.023438 0.05469 0.058593 0.01953 0.03125 0.01563 0.050782 0.01172 0.046875v0.03125l-0.0039 0.12891-0.01172 0.12891-0.01563 0.027344-0.02734 0.039063-0.02734 0.03125-0.02344 0.015624-0.03125 0.023438-0.03516 0.015625-0.07031 0.023437-0.03125 0.00391-0.0625 0.00391-0.05469-0.00391m-10.934 0.29297 0.10156 0.00391 0.10156-0.00391 0.04297-0.00781 0.04297-0.015628 0.07031-0.023438 0.08984-0.054687 0.03125-0.019531 0.03125-0.023438 0.04687-0.03125 0.01953-0.011718v0.11328l0.01172 0.03125 0.01172 0.019531h0.13672l0.10938-0.00391 0.04297-0.00781 0.01563-0.042969 0.0039-0.089843-0.0039-0.074219-0.0078-0.73047-0.0039-0.039062 0.0039-0.039063 0.0039-0.089844-0.0039-0.089843-0.01172-0.023438-0.01563-0.011719-0.03125-0.00781-0.12109-0.00391-0.06641 0.00391-0.03906 0.00781-0.01562 0.015626-0.0039 0.015624-0.0039 0.03125-0.0039 0.039063-0.0039 0.019531-0.01562 0.00391-0.02344-0.011718-0.02734-0.019532-0.07031-0.046874-0.07813-0.039063-0.03516-0.015625-0.03906-0.011719-0.03516-0.00781-0.02734-0.00391-0.09766-0.00391-0.09375 0.00391-0.04297 0.00781-0.04687 0.011719-0.10156 0.050781-0.02734 0.019531-0.04297 0.035156-0.02344 0.027344-0.03125 0.03125-0.02734 0.03125-0.02344 0.039063-0.02344 0.035156-0.03516 0.070313-0.01562 0.046874-0.01953 0.054688-0.01172 0.066406-0.0078 0.046875-0.0039 0.10938 0.0039 0.11328 0.0078 0.058593 0.01172 0.042969 0.01953 0.058594 0.01562 0.039062 0.01953 0.03125 0.01953 0.039063 0.02344 0.03125 0.02344 0.035156 0.03125 0.03125 0.06641 0.050781 0.02344 0.015625 0.03125 0.019531 0.07031 0.023438 0.02734 0.00781 0.03125 0.00781 0.01953 0.00781m0.17578-0.29297-0.01953-0.00391-0.03516-0.011718-0.03906-0.015625-0.04297-0.027344-0.03516-0.023437-0.02344-0.03125-0.04297-0.058594-0.02344-0.042969-0.01563-0.046875-0.0078-0.042969-0.0039-0.03125-0.0039-0.046875 0.0039-0.046875 0.0078-0.039062 0.01169-0.042957 0.01563-0.035156 0.01172-0.023438 0.01953-0.03125 0.02734-0.03125 0.01953-0.019531 0.02734-0.023437 0.02734-0.015626 0.01953-0.011718 0.03125-0.015625 0.05469-0.011719 0.05469-0.00781h0.03125l0.08594 0.00781 0.03906 0.011719 0.03906 0.019531 0.02734 0.015625 0.02734 0.019531 0.01953 0.015625 0.02344 0.019531 0.01953 0.03125 0.02344 0.035157 0.01563 0.039062 0.01172 0.16797-0.0039 0.11328-0.01172 0.050781-0.01563 0.035157-0.02344 0.035156-0.03906 0.039063-0.03516 0.03125-0.03906 0.019531-0.04688 0.015625-0.05859 0.015625-0.07422 0.00391-0.05469-0.00391m9.1953 0.29297 0.12891 0.00391 0.125-0.00391 0.03125-0.00391 0.03516-0.011719 0.04297-0.011718 0.03906-0.011719 0.03125-0.019531 0.03906-0.019532 0.03906-0.027343 0.0625-0.050781 0.03125-0.035157 0.02734-0.027343 0.01562-0.023438 0.01953-0.03125 0.01953-0.039062 0.01953-0.03125 0.01563-0.039063 0.01563-0.050781 0.01563-0.058594 0.0078-0.050781 0.0039-0.050781 0.0039-0.042969v-0.050789l-0.0039-0.0625-0.0039-0.03125-0.01563-0.078126-0.01563-0.039062-0.01563-0.042969-0.01953-0.035156-0.01563-0.03125-0.01953-0.03125-0.03125-0.042969-0.03125-0.035156-0.02344-0.023438-0.02344-0.019531-0.03125-0.027343-0.03516-0.023438-0.03906-0.023438-0.03516-0.015624-0.03906-0.019532-0.04687-0.011718-0.03516-0.00781-0.05078-0.00781-0.05859-0.00391-0.03516-0.00781h-0.04297l-0.05078 0.00781-0.03516 0.00391-0.03125 0.00391-0.03516 0.00781-0.07813 0.027344-0.03906 0.015625-0.03906 0.023438-0.03516 0.023437-0.04297 0.03125-0.05469 0.050781-0.02344 0.03125-0.04297 0.058594-0.02344 0.035156-0.03125 0.066406-0.01563 0.035157-0.0078 0.035156-0.01172 0.039063-0.0078 0.042968-0.0039 0.03125-0.0078 0.10937 0.0078 0.11328 0.01563 0.085938 0.01172 0.039062 0.01953 0.035157 0.01172 0.03125 0.01172 0.027343 0.04297 0.0625 0.02734 0.03125 0.01562 0.019532 0.0625 0.054687 0.02344 0.019531 0.03125 0.019532 0.03516 0.019531 0.04687 0.023437 0.04297 0.015626 0.04297 0.011718 0.03906 0.011719 0.02734 0.00781m0.06641-0.29297-0.03125-0.00781-0.03906-0.015625-0.02734-0.015625-0.02734-0.023437-0.02344-0.019531-0.02344-0.03125-0.02344-0.027344-0.01563-0.03125-0.01953-0.042969-0.01172-0.042969-0.0078-0.042968-0.0039-0.074219 0.0039-0.0625 0.0078-0.039063 0.01172-0.042968 0.03906-0.078126 0.02344-0.03125 0.04297-0.042968 0.02734-0.019532 0.03125-0.015624 0.03906-0.015626 0.03516-0.00781 0.07031-0.00391 0.06641 0.00391 0.03516 0.011719 0.03906 0.023437 0.03125 0.019532 0.01953 0.023437 0.02734 0.035156 0.02344 0.042969 0.01953 0.03125 0.01172 0.035156 0.0078 0.035156 0.0078 0.042969 0.0078 0.085938-0.0078 0.066406-0.0078 0.035156-0.01172 0.039063-0.01563 0.039062-0.02734 0.042969-0.02734 0.035156-0.01953 0.019531-0.03125 0.023438-0.03906 0.019531-0.05078 0.019531-0.08203 0.00781-0.05469-0.00391m-11.48 3.418 0.01172-0.0039 0.01953-0.02734 0.02734-0.05469 0.07031-0.13672 0.03516-0.05859 0.17188-0.34375 0.04297-0.07813 0.06641-0.13672 0.04297-0.07813 0.10547-0.20703 0.03125-0.05859 0.01563-0.04297v-0.03516l-0.0078-0.01172-0.01953-0.0039-0.03516-0.0039-0.125-0.0039-0.08594 0.0039-0.04297 0.01172-0.02344 0.02734-0.01953 0.03516-0.03125 0.07813-0.01953 0.04297-0.01563 0.03906-0.06641 0.14844-0.01172 0.03516-0.01563 0.03906-0.01953 0.04297-0.03516 0.07812-0.01563 0.03516-0.01563 0.02734-0.01172 0.01172-0.01172 0.0039-0.01563-0.02344-0.01172-0.03125-0.08594-0.17188-0.01953-0.04297-0.06641-0.13672-0.01953-0.04297-0.03516-0.06641-0.01563-0.03906-0.01953-0.03906-0.02344-0.03516-0.03125-0.02344-0.14844-0.0078-0.14453 0.0039-0.02344 0.01562-0.01172 0.02734 0.0078 0.03516 0.05078 0.10547 0.03516 0.05859 0.01563 0.03516 0.02344 0.03516 0.01953 0.04297 0.08594 0.15234 0.03906 0.07031 0.03906 0.07813 0.03516 0.05859 0.03516 0.07031 0.01953 0.03125 0.02344 0.04297 0.04297 0.07813 0.03125 0.07031 0.03516 0.05859 0.03906 0.07031 0.02344 0.04297 0.05078 0.08984 0.0078 0.01172m6.6602-3.1172 0.125 0.00391 0.11719-0.00391 0.05859-0.00781 0.08594-0.019532 0.04297-0.011718 0.05469-0.015626 0.03906-0.019531 0.03125-0.011719 0.02734-0.011718 0.02344-0.019532 0.02734-0.019531 0.01563-0.027343v-0.03125l-0.02344-0.0625-0.03906-0.078126-0.01563-0.015624-0.01953-0.011719-0.04297 0.00391-0.10156 0.054687-0.03125 0.011719-0.03516 0.011719-0.05469 0.015625-0.05078 0.00781-0.04297 0.00391-0.04297-0.00391-0.03516-0.00391-0.11719-0.035156-0.03906-0.023437-0.02734-0.019532-0.02344-0.019531-0.03906-0.039063-0.01953-0.03125-0.01172-0.035156 0.03126-0.019529 0.12891-0.054687 0.03906-0.011719 0.13672-0.050781 0.07813-0.027344 0.20703-0.074219 0.11328-0.039063 0.03906-0.019531 0.03516-0.023437 0.01172-0.042969-0.0078-0.042969-0.01172-0.042968-0.01172-0.039063-0.02734-0.0625-0.01563-0.027344-0.04297-0.070312-0.02344-0.023438-0.02344-0.03125-0.03125-0.03125-0.02734-0.019531-0.01953-0.019531-0.0625-0.027344-0.04297-0.019531-0.04687-0.011719-0.03516-0.00781-0.05469-0.011718-0.09766-0.00391-0.07422 0.00391-0.04687 0.011718-0.05078 0.011719-0.03906 0.011719-0.07031 0.03125-0.03906 0.023438-0.03516 0.023437-0.03125 0.027344-0.02344 0.019531-0.04687 0.046875-0.02344 0.035156-0.01953 0.027344-0.01953 0.03125-0.03906 0.078125-0.02344 0.070312-0.01172 0.042969-0.0078 0.046875-0.0039 0.03125-0.0039 0.10547 0.0039 0.10547 0.0078 0.050781 0.01172 0.050781 0.01563 0.039063 0.01172 0.03125 0.03906 0.078125 0.03125 0.042968 0.02344 0.035157 0.04297 0.042969 0.03125 0.027343 0.05469 0.039063 0.03125 0.015625 0.06641 0.035156 0.03516 0.011719 0.03516 0.00781 0.04297 0.015625 0.05078 0.011719m-0.21484-0.67188-0.0039-0.03125 0.0039-0.042969 0.0078-0.042968 0.01562-0.042969 0.02344-0.0625 0.03904-0.054689 0.02344-0.023437 0.02734-0.023438 0.03516-0.023437 0.03125-0.011719 0.03125-0.00781 0.05078-0.00781h0.05859l0.04687 0.011719 0.04297 0.019531 0.03125 0.023437 0.02734 0.03125 0.04297 0.058594 0.01563 0.035156-0.0039 0.00781-0.01563 0.00781-0.04297 0.011718-0.11719 0.039063-0.07031 0.027343-0.11328 0.039063-0.09766 0.035156-0.03906 0.011719-0.03125 0.011719-0.01953 0.00391m-1.7422 0.62891 0.04297 0.00781 0.10547 0.00391 0.10547-0.00391 0.04687-0.00781 0.01172-0.03125 0.0039-0.027343 0.0078-0.55078 0.01172-0.042968 0.01172-0.046876 0.01172-0.039062 0.01172-0.035156 0.01953-0.035156 0.01563-0.03125 0.08203-0.082032 0.02734-0.019531 0.03125-0.015625 0.04688-0.015625 0.05078-0.00781 0.05078-0.00391 0.03906 0.00781 0.03516 0.015625 0.02344 0.011718 0.02344 0.015626 0.02344 0.03125 0.02344 0.050781 0.0078 0.41797 0.0039 0.39844 0.01562 0.027344 0.02734 0.015625 0.14453 0.00391h0.11719l0.01563-0.019531 0.0078-0.066407 0.0039-0.14844-0.0039-0.20703-0.0078-0.53125-0.01172-0.035156-0.01172-0.039063-0.01562-0.039063-0.01953-0.03125-0.01563-0.019531-0.04297-0.042969-0.02344-0.015624-0.01953-0.015626-0.07031-0.035156-0.04687-0.015625-0.05859-0.011719-0.08984-0.00391-0.07422 0.00391-0.04687 0.00781-0.05078 0.011719-0.04297 0.019531-0.03906 0.015625-0.02734 0.011719-0.01953 0.015625-0.02734 0.015625-0.02734 0.023437-0.07813 0.078125-0.01563 0.00391-0.01172-0.03125-0.0039-0.050782-0.0039-0.035156-0.0078-0.027344-0.02734-0.027344-0.03906-0.00781-0.08203-0.00391-0.07813 0.00391-0.04297 0.00781-0.01563 0.019532-0.0078 0.027344-0.0039 0.46875-0.0039 0.45703-0.0039 0.12891v0.089844l0.01172 0.039062m3.0156 0.015625 0.13281 0.00391 0.13281-0.00781 0.01953-0.019531 0.01563-0.035157 0.0039-0.26172-0.0039-0.25391-0.0039-0.19922v-0.1836l0.01953-0.00391 0.125-0.00391 0.08203-0.00391 0.03906-0.011718 0.01953-0.039063 0.0039-0.11328-0.0039-0.074219-0.01172-0.03125-0.04297-0.015625-0.09766-0.00391h-0.125l-0.0039-0.019532-0.0039-0.16016 0.0039-0.15234 0.0039-0.085937-0.0078-0.089844-0.02734-0.027343-0.04297-0.011719-0.09766-0.00391-0.09766 0.00391-0.04687 0.015625-0.01172 0.023437-0.0078 0.03125-0.0039 0.085938 0.0039 0.058593 0.0039 0.16797v0.15625l-0.03125 0.00391-0.08203 0.00391-0.03906 0.00391-0.02344 0.015625-0.01172 0.039063-0.0078 0.03125-0.0039 0.070312 0.0039 0.066406 0.01172 0.03125 0.01563 0.023438 0.02734 0.00781 0.07031 0.00391h0.0625l0.0039 0.019532 0.0039 0.24609-0.0039 0.23437-0.0039 0.21484 0.0039 0.16016 0.0078 0.066407 0.02734 0.023437m6.2617-0.019529 0.04297 0.011719 0.10547 0.00391 0.10547-0.00391 0.04687-0.011719 0.0078-0.078125 0.0039-0.20312 0.0039-0.27344 0.0078-0.058594 0.03125-0.09375 0.01563-0.035156 0.02344-0.035157 0.03125-0.042969 0.02734-0.03125 0.02344-0.015624 0.03125-0.023438 0.04687-0.019531 0.05469-0.015625 0.07813-0.00391 0.03906-0.00391 0.01953-0.015625 0.01563-0.050781 0.01172-0.042969 0.0078-0.035156 0.01563-0.085938 0.0039-0.039062-0.0039-0.015625-0.01172-0.011719-0.03906-0.011718-0.07422-0.00391-0.0625 0.00391-0.03516 0.00781-0.03906 0.015625-0.03906 0.019531-0.04297 0.03125-0.02734 0.03125-0.03516 0.039063-0.02344 0.03125-0.01953 0.039062-0.02344 0.03125h-0.0078l-0.0078-0.015623-0.0039-0.035156-0.0039-0.03125-0.0078-0.10156-0.01172-0.027344-0.02734-0.023438-0.12109-0.00781-0.07813 0.00391-0.03906 0.00781-0.01953 0.015626v0.27344l-0.0039 0.28906-0.0039 0.32031v0.23828l0.01172 0.089844m-12.98 3.1211 0.02344 0.02344h0.13281l0.10547-0.0078 0.04687-0.01172 0.02344-0.01563v-0.78906l-0.0039-0.59766-0.01563-0.21094-0.03906-0.02344-0.25-0.0039-0.24219 0.0078-0.01562 0.02344-0.0078 0.16406 0.0039 0.11328 0.01172 0.04687 0.04687 0.01953 0.05859 0.0039 0.04297-0.0039 0.03516-0.0039h0.02344v1.2461l0.01953 0.01953m4.3047 2.6289 0.36719 0.0039 0.27734-0.0039 0.10156-0.01172 0.01172-0.04297v-0.17969l-0.01172-0.03516-0.02344-0.01563-0.36719-0.0039-0.26562 0.0039-0.09766 0.01172-0.01953 0.04297-0.0039 0.10938 0.0039 0.06641 0.0078 0.03125 0.01953 0.02344m4.2305-0.01172 0.10547 0.01172 0.27734 0.0039 0.27344-0.0039 0.09766-0.0078 0.01563-0.02734 0.0039-0.12109v-0.10547l-0.02344-0.01172-0.10547-0.01172-0.27344-0.0039-0.26953 0.0039-0.09766 0.01172-0.01563 0.03125-0.0078 0.11719 0.0078 0.07422 0.01172 0.03906m-7.8047-2.6133 0.07031 0.0078 0.07031-0.0078 0.03516-0.01563 0.03906-0.02734 0.02734-0.03125 0.01172-0.02344 0.01172-0.04297 0.0039-0.05469-0.0078-0.03906-0.01563-0.03125-0.02344-0.02734-0.02734-0.01953-0.03906-0.02344-0.04297-0.01172-0.05469-0.0039-0.04687 0.0078-0.03516 0.01953-0.03516 0.02344-0.03125 0.03516-0.01953 0.03125-0.01172 0.05078 0.0039 0.0625 0.02344 0.04687 0.03516 0.03516 0.03125 0.02344 0.02734 0.01563" fill="#fff"/>
 <g fill="none" stroke="#fff" stroke-linecap="round" stroke-miterlimit="10" stroke-width=".72">
  <path d="m26.656 20.933v-2.2656"/>
  <path d="m29.805 21.812h-2.2695"/>
  <path d="m29.805 17.789h-2.2695"/>
  <path d="m31.438 21.828h2.2656"/>
  <path d="m34.582 20.949v-2.2656"/>
  <path d="m31.438 17.804h2.2656"/>
  <path d="m34.582 20.949c0 0.4844-0.3906 0.8828-0.8828 0.8828"/>
  <path d="m33.703 17.804c0.4883 0 0.8789 0.3867 0.8789 0.8789"/>
  <path d="m27.535 21.812c-0.4844 0-0.875-0.3906-0.875-0.8789"/>
  <path d="m26.656 18.668c0.0039-0.4844 0.3945-0.8828 0.8828-0.8828"/>
  <path d="m1.332 16.16v10.879"/>
  <path d="m8.531 30.554h4.8477"/>
  <path d="m13.379 30.554v-2.9141"/>
  <path d="m13.379 15.558v-2.9141"/>
  <path d="m13.379 12.644h-4.8477"/>
 </g>
 <path d="m15.539 14.445-1.0781-0.71875v1.4375z" fill="#fff"/>
 <g fill="none" stroke="#fff" stroke-linecap="round" stroke-miterlimit="10" stroke-width=".72">
  <path d="m29.489 25.488h5.1016"/>
  <path d="m29.489 34.273h5.1016"/>
  <path d="m36 34.922c0.1992 0 0.3594-0.1602 0.3594-0.3594s-0.1602-0.3594-0.3594-0.3594-0.3594 0.1602-0.3594 0.3594 0.1602 0.3594 0.3594 0.3594"/>
 </g>
 <g stroke="#fff" stroke-miterlimit="10" stroke-width=".12">
  <path d="m31.973 11.883c0.2383 0 0.4297-0.1914 0.4297-0.4297s-0.1914-0.4297-0.4297-0.4297c-0.2422 0-0.4336 0.1914-0.4336 0.4297s0.1914 0.4297 0.4336 0.4297"/>
  <path d="m15.77 30.601c0.2422 0 0.4297-0.1875 0.4297-0.4297 0-0.2383-0.1875-0.4297-0.4297-0.4297-0.2383 0-0.4297 0.1914-0.4297 0.4297 0 0.2422 0.1914 0.4297 0.4297 0.4297"/>
  <path d="m24.481 24.914c0.2422 0 0.4297-0.1914 0.4297-0.4297 0-0.2422-0.1875-0.4414-0.4297-0.4414-0.2383 0-0.4414 0.1992-0.4414 0.4414 0 0.2383 0.2031 0.4297 0.4414 0.4297"/>
 </g>
</svg>
