<svg width="43.24" height="43.24" version="1.1" viewBox="0 0 43.24 43.24" xmlns="http://www.w3.org/2000/svg">
 <defs>
  <clipPath id="a">
   <path d="m34 32h17.852v20.93h-17.852z"/>
  </clipPath>
 </defs>
 <g fill="none" stroke="#fff" stroke-linecap="round" stroke-miterlimit="10" stroke-width=".72">
  <path d="m42.88 42.879h-42.52"/>
  <path d="m0.36038 42.879v-42.52"/>
  <path d="m0.36038 0.3595h38.27"/>
 </g>
 <g transform="rotate(-90 21.62 21.619)" clip-path="url(#a)">
  <path d="m42.88 38.629-4.25 4.25" fill="none" stroke="#fff" stroke-linecap="round" stroke-miterlimit="10" stroke-width=".72"/>
 </g>
 <path d="m42.88 4.6095v38.27" fill="none" stroke="#fff" stroke-linecap="round" stroke-miterlimit="10" stroke-width=".72"/>
 <g fill="#fff" fill-opacity=".2">
  <path d="m1.376 41.863h40.492v-36.832l-3.6602-3.6602h-36.832z" stroke="#fff" stroke-linecap="round" stroke-linejoin="round" stroke-miterlimit="10" stroke-opacity=".2" stroke-width=".58"/>
  <path d="m11.266 12.32c-0.4766 0-0.8672-0.3906-0.8672-0.8711s0.3906-0.8594 0.8672-0.8594c0.4805 0 0.8633 0.3789 0.8633 0.8594s-0.3828 0.8711-0.8633 0.8711"/>
  <path d="m27.47 31.038c-0.4805 0-0.8711-0.3867-0.8711-0.8672s0.3906-0.8633 0.8711-0.8633 0.8594 0.3828 0.8594 0.8633-0.3789 0.8672-0.8594 0.8672"/>
  <path d="m18.758 25.34c-0.4688 0-0.8594-0.3906-0.8594-0.8594 0-0.4805 0.3906-0.8711 0.8594-0.8711 0.4805 0 0.8711 0.3906 0.8711 0.8711 0 0.4688-0.3906 0.8594-0.8711 0.8594"/>
 </g>
 <g stroke="#fff" stroke-linecap="round" stroke-miterlimit="10" stroke-width=".12">
  <path d="m11.266 11.878c-0.2383 0-0.4297-0.1875-0.4297-0.4297 0-0.2383 0.1914-0.4297 0.4297-0.4297 0.2422 0 0.4336 0.1914 0.4336 0.4297 0 0.2422-0.1914 0.4297-0.4336 0.4297"/>
  <path d="m27.47 30.602c-0.2422 0-0.4297-0.1914-0.4297-0.4297 0-0.2422 0.1875-0.4297 0.4297-0.4297 0.2383 0 0.4297 0.1875 0.4297 0.4297 0 0.2383-0.1914 0.4297-0.4297 0.4297"/>
  <path d="m18.758 24.91c-0.2422 0-0.4297-0.1914-0.4297-0.4297s0.1875-0.4414 0.4297-0.4414c0.2383 0 0.4414 0.2031 0.4414 0.4414s-0.2031 0.4297-0.4414 0.4297"/>
 </g>
</svg>
